// Created by Crowbar 0.74
version 1
nodes
  0 "Scene_Root" -1
  1 "root" 0
  2 "body" 1
  3 "lock01" 2
  4 "lock02" 2
  5 "lens" 1
end
skeleton
  time 0
    0 0.000000 0.000000 0.000000 1.570796 0.000000 0.000000
    1 0.000000 -13.000000 -20.000000 0.000000 0.000000 0.000000
    2 0.000000 -1.000000 39.000000 0.000000 0.000000 0.000000
    3 0.000000 -0.000002 -2.000000 0.000000 0.000000 0.000000
    4 0.000000 -0.000002 -2.000000 0.000000 0.000000 0.000000
    5 0.000000 -1.000002 50.000000 0.000000 0.000000 0.000000
end
triangles
  phy
    0 -23.056240 -23.056238 21.740574 -0.666661 -0.666670 -0.333337 0 0
    0 -23.056240 23.056125 21.740808 -0.816497 0.408244 -0.408252 0 0
    0 -23.056125 -23.056119 -1.315608 0.872875 -0.218213 -0.436432 0 0
  phy
    0 -23.056125 -23.056119 -1.315608 0.872875 -0.218213 -0.436432 0 0
    0 -23.056240 23.056125 21.740808 -0.816497 0.408244 -0.408252 0 0
    0 -23.056125 23.056242 -1.315372 0.816496 0.408253 -0.408244 0 0
  phy
    0 23.056239 23.056242 -1.315134 0.872868 0.436440 0.218222 0 0
    0 -23.056125 23.056242 -1.315372 0.816496 0.408253 -0.408244 0 0
    0 -23.056240 23.056125 21.740808 -0.816497 0.408244 -0.408252 0 0
  phy
    0 23.056239 23.056242 -1.315134 0.872868 0.436440 0.218222 0 0
    0 -23.056240 23.056125 21.740808 -0.816497 0.408244 -0.408252 0 0
    0 23.056121 23.056125 21.741045 -0.666672 0.333330 0.666663 0 0
  phy
    0 23.056239 23.056242 -1.315134 0.872868 0.436440 0.218222 0 0
    0 -23.056125 -23.056119 -1.315608 0.872875 -0.218213 -0.436432 0 0
    0 -23.056125 23.056242 -1.315372 0.816496 0.408253 -0.408244 0 0
  phy
    0 23.056239 23.056242 -1.315134 0.872868 0.436440 0.218222 0 0
    0 23.056239 -23.056119 -1.315371 0.577351 -0.577347 0.577353 0 0
    0 -23.056125 -23.056119 -1.315608 0.872875 -0.218213 -0.436432 0 0
  phy
    0 23.056121 23.056125 21.741045 -0.666672 0.333330 0.666663 0 0
    0 23.056239 -23.056119 -1.315371 0.577351 -0.577347 0.577353 0 0
    0 23.056239 23.056242 -1.315134 0.872868 0.436440 0.218222 0 0
  phy
    0 23.056121 23.056125 21.741045 -0.666672 0.333330 0.666663 0 0
    0 23.056121 -23.056238 21.740811 -0.942809 -0.235707 0.235698 0 0
    0 23.056239 -23.056119 -1.315371 0.577351 -0.577347 0.577353 0 0
  phy
    0 -23.056240 -23.056238 21.740574 -0.666661 -0.666670 -0.333337 0 0
    0 23.056121 -23.056238 21.740811 -0.942809 -0.235707 0.235698 0 0
    0 -23.056240 23.056125 21.740808 -0.816497 0.408244 -0.408252 0 0
  phy
    0 -23.056240 23.056125 21.740808 -0.816497 0.408244 -0.408252 0 0
    0 23.056121 -23.056238 21.740811 -0.942809 -0.235707 0.235698 0 0
    0 23.056121 23.056125 21.741045 -0.666672 0.333330 0.666663 0 0
  phy
    0 -23.056240 -23.056238 21.740574 -0.666661 -0.666670 -0.333337 0 0
    0 23.056239 -23.056119 -1.315371 0.577351 -0.577347 0.577353 0 0
    0 23.056121 -23.056238 21.740811 -0.942809 -0.235707 0.235698 0 0
  phy
    0 -23.056240 -23.056238 21.740574 -0.666661 -0.666670 -0.333337 0 0
    0 -23.056125 -23.056119 -1.315608 0.872875 -0.218213 -0.436432 0 0
    0 23.056239 -23.056119 -1.315371 0.577351 -0.577347 0.577353 0 0
end
