// Created by Crowbar 0.74
version 1
nodes
  0 "Scene_Root" -1
  1 "root" 0
  2 "body" 1
  3 "lens" 2
end
skeleton
  time 0
    0 0.000000 0.000000 0.000000 1.570796 0.000000 0.000000
    1 0.000000 -14.000000 -20.000000 0.000000 0.000000 0.000000
    2 0.000000 0.000000 39.000000 0.000000 0.000000 0.000000
    3 0.000000 0.000000 11.000000 0.000000 0.000000 0.000000
end
triangles
  phy
    0 -12.126212 15.252853 -18.252866 0.408252 0.408253 -0.816492 0 0
    0 -12.126399 15.252865 18.252762 -0.666663 0.333337 -0.666668 0 0
    0 6.126412 15.252766 18.252853 -0.218222 0.436431 0.872873 0 0
  phy
    0 -12.126212 15.252853 -18.252866 0.408252 0.408253 -0.816492 0 0
    0 6.126412 15.252766 18.252853 -0.218222 0.436431 0.872873 0 0
    0 6.126601 15.252755 -18.252772 0.408244 0.408244 0.816501 0 0
  phy
    0 -12.126399 15.252865 18.252762 -0.666663 0.333337 -0.666668 0 0
    0 -12.126599 -21.252758 18.252773 -0.235698 -0.235697 -0.942811 0 0
    0 6.126211 -21.252856 18.252865 -0.577353 -0.577353 0.577344 0 0
  phy
    0 -12.126399 15.252865 18.252762 -0.666663 0.333337 -0.666668 0 0
    0 6.126211 -21.252856 18.252865 -0.577353 -0.577353 0.577344 0 0
    0 6.126412 15.252766 18.252853 -0.218222 0.436431 0.872873 0 0
  phy
    0 6.126412 15.252766 18.252853 -0.218222 0.436431 0.872873 0 0
    0 6.126399 -21.252868 -18.252760 0.436432 -0.218223 0.872872 0 0
    0 6.126601 15.252755 -18.252772 0.408244 0.408244 0.816501 0 0
  phy
    0 6.126412 15.252766 18.252853 -0.218222 0.436431 0.872873 0 0
    0 6.126211 -21.252856 18.252865 -0.577353 -0.577353 0.577344 0 0
    0 6.126399 -21.252868 -18.252760 0.436432 -0.218223 0.872872 0 0
  phy
    0 6.126601 15.252755 -18.252772 0.408244 0.408244 0.816501 0 0
    0 6.126399 -21.252868 -18.252760 0.436432 -0.218223 0.872872 0 0
    0 -12.126212 15.252853 -18.252866 0.408252 0.408253 -0.816492 0 0
  phy
    0 6.126399 -21.252868 -18.252760 0.436432 -0.218223 0.872872 0 0
    0 -12.126411 -21.252769 -18.252854 0.333337 -0.666663 -0.666669 0 0
    0 -12.126212 15.252853 -18.252866 0.408252 0.408253 -0.816492 0 0
  phy
    0 6.126211 -21.252856 18.252865 -0.577353 -0.577353 0.577344 0 0
    0 -12.126411 -21.252769 -18.252854 0.333337 -0.666663 -0.666669 0 0
    0 6.126399 -21.252868 -18.252760 0.436432 -0.218223 0.872872 0 0
  phy
    0 6.126211 -21.252856 18.252865 -0.577353 -0.577353 0.577344 0 0
    0 -12.126599 -21.252758 18.252773 -0.235698 -0.235697 -0.942811 0 0
    0 -12.126411 -21.252769 -18.252854 0.333337 -0.666663 -0.666669 0 0
  phy
    0 -12.126411 -21.252769 -18.252854 0.333337 -0.666663 -0.666669 0 0
    0 -12.126599 -21.252758 18.252773 -0.235698 -0.235697 -0.942811 0 0
    0 -12.126212 15.252853 -18.252866 0.408252 0.408253 -0.816492 0 0
  phy
    0 -12.126212 15.252853 -18.252866 0.408252 0.408253 -0.816492 0 0
    0 -12.126599 -21.252758 18.252773 -0.235698 -0.235697 -0.942811 0 0
    0 -12.126399 15.252865 18.252762 -0.666663 0.333337 -0.666668 0 0
end
