// Created by Crowbar 0.74
version 1
nodes
  0 "portal_button_export" -1
  1 "portal_button_root" 0
  2 "portal_button_top" 1
end
skeleton
  time 0
    0 0.000000 0.000000 0.000000 0.000000 0.000000 0.000000
    1 0.000000 0.000000 0.000000 0.000000 0.000000 0.000000
    2 0.000000 13.640244 0.000000 0.000000 0.000000 0.000000
end
triangles
  phy
    1 -12.874979 6.328718 47.136536 -0.218557 -0.259284 0.940747 0 0
    1 -39.297277 0.123507 38.664543 -0.430164 -0.423615 0.797188 0 0
    1 -12.219478 5.579816 50.075617 -0.187608 -0.467122 0.864060 0 0
  phy
    1 -49.533980 5.579809 11.623732 -0.342160 -0.190043 0.920223 0 0
    1 -39.297277 0.123507 38.664543 -0.430164 -0.423615 0.797188 0 0
    1 -12.874979 6.328718 47.136536 -0.218557 -0.259284 0.940747 0 0
  phy
    1 -12.874979 6.328718 47.136536 -0.218557 -0.259284 0.940747 0 0
    1 -33.030641 9.785307 11.606077 -0.189148 -0.099605 0.976884 0 0
    1 -49.533980 5.579809 11.623732 -0.342160 -0.190043 0.920223 0 0
  phy
    1 -12.172051 9.806217 33.489013 -0.028998 -0.098093 0.994755 0 0
    1 -33.030641 9.785307 11.606077 -0.189148 -0.099605 0.976884 0 0
    1 -12.874979 6.328718 47.136536 -0.218557 -0.259284 0.940747 0 0
  phy
    1 -12.219478 5.579816 50.075617 -0.187608 -0.467122 0.864060 0 0
    1 11.961010 5.579840 50.075599 0.176667 -0.318672 0.931255 0 0
    1 -12.874979 6.328718 47.136536 -0.218557 -0.259284 0.940747 0 0
  phy
    1 11.961010 5.579840 50.075599 0.176667 -0.318672 0.931255 0 0
    1 -12.172051 9.806217 33.489013 -0.028998 -0.098093 0.994755 0 0
    1 -12.874979 6.328718 47.136536 -0.218557 -0.259284 0.940747 0 0
  phy
    1 -33.755903 9.785338 -12.492383 -0.238063 0.172040 0.955891 0 0
    1 -33.030641 9.785307 11.606077 -0.189148 -0.099605 0.976884 0 0
    1 -32.947282 9.806217 -12.509429 -0.000539 -0.000005 1.000000 0 0
  phy
    1 -48.822263 5.941717 -11.914026 -0.288559 0.090298 0.953195 0 0
    1 -33.030641 9.785307 11.606077 -0.189148 -0.099605 0.976884 0 0
    1 -33.755903 9.785338 -12.492383 -0.238063 0.172040 0.955891 0 0
  phy
    1 -12.089812 5.579933 -49.488413 -0.175025 0.320808 0.930832 0 0
    1 -48.822263 5.941717 -11.914026 -0.288559 0.090298 0.953195 0 0
    1 -33.755903 9.785338 -12.492383 -0.238063 0.172040 0.955891 0 0
  phy
    1 -33.755903 9.785338 -12.492383 -0.238063 0.172040 0.955891 0 0
    1 -12.131263 9.785341 -33.295176 -0.111308 0.239748 0.964433 0 0
    1 -12.089812 5.579933 -49.488413 -0.175025 0.320808 0.930832 0 0
  phy
    1 -32.947282 9.806217 -12.509429 -0.000539 -0.000005 1.000000 0 0
    1 -12.264477 9.806221 -32.406290 -0.000247 0.000537 1.000000 0 0
    1 -33.755903 9.785338 -12.492383 -0.238063 0.172040 0.955891 0 0
  phy
    1 -12.264477 9.806221 -32.406290 -0.000247 0.000537 1.000000 0 0
    1 -12.131263 9.785341 -33.295176 -0.111308 0.239748 0.964433 0 0
    1 -33.755903 9.785338 -12.492383 -0.238063 0.172040 0.955891 0 0
  phy
    1 12.042729 9.806224 -32.901501 0.000119 0.000265 1.000000 0 0
    1 -12.264477 9.806221 -32.406290 -0.000247 0.000537 1.000000 0 0
    1 11.913640 9.806221 33.489013 0.013400 -0.028523 0.999503 0 0
  phy
    1 11.913640 9.806221 33.489013 0.013400 -0.028523 0.999503 0 0
    1 33.351913 9.806223 12.101799 0.102264 -0.073163 0.992063 0 0
    1 12.042729 9.806224 -32.901501 0.000119 0.000265 1.000000 0 0
  phy
    1 12.042729 9.806224 -32.901501 0.000119 0.000265 1.000000 0 0
    1 33.351913 9.806223 12.101799 0.102264 -0.073163 0.992063 0 0
    1 33.167915 9.806223 -12.054220 0.171409 0.053953 0.983722 0 0
  phy
    1 33.167915 9.806223 -12.054220 0.171409 0.053953 0.983722 0 0
    1 12.117408 9.785325 -33.790033 0.133954 0.241791 0.961038 0 0
    1 12.042729 9.806224 -32.901501 0.000119 0.000265 1.000000 0 0
  phy
    1 12.042729 9.806224 -32.901501 0.000119 0.000265 1.000000 0 0
    1 12.117408 9.785325 -33.790033 0.133954 0.241791 0.961038 0 0
    1 -12.264477 9.806221 -32.406290 -0.000247 0.000537 1.000000 0 0
  phy
    1 -34.999960 -3.245571 34.999998 -0.046202 -0.045782 -0.997882 0 0
    1 -48.167030 0.123511 27.388794 -0.850077 -0.526634 -0.005019 0 0
    1 -60.522617 -0.007923 4.401977 -0.253752 -0.054299 -0.965744 0 0
  phy
    1 -34.999960 -3.245571 34.999998 -0.046202 -0.045782 -0.997882 0 0
    1 -60.522617 -0.007923 4.401977 -0.253752 -0.054299 -0.965744 0 0
    1 -34.999941 -3.245586 -34.999941 -0.030804 0.030923 -0.999047 0 0
  phy
    1 -48.167030 0.123511 27.388794 -0.850077 -0.526634 -0.005019 0 0
    1 -34.999960 -3.245571 34.999998 -0.046202 -0.045782 -0.997882 0 0
    1 -39.297277 0.123507 38.664543 -0.430164 -0.423615 0.797188 0 0
  phy
    1 -27.648670 0.123512 47.830278 -0.546745 -0.837091 -0.018645 0 0
    1 -34.999960 -3.245571 34.999998 -0.046202 -0.045782 -0.997882 0 0
    1 -4.997732 -0.007927 61.064330 -0.063631 -0.348527 -0.935136 0 0
  phy
    1 -34.999960 -3.245571 34.999998 -0.046202 -0.045782 -0.997882 0 0
    1 34.999998 -3.245571 34.999995 0.029362 -0.031524 -0.999072 0 0
    1 -4.997732 -0.007927 61.064330 -0.063631 -0.348527 -0.935136 0 0
  phy
    1 34.999998 -3.245571 34.999995 0.029362 -0.031524 -0.999072 0 0
    1 -34.999960 -3.245571 34.999998 -0.046202 -0.045782 -0.997882 0 0
    1 -34.999941 -3.245586 -34.999941 -0.030804 0.030923 -0.999047 0 0
  phy
    1 -34.999960 -3.245571 34.999998 -0.046202 -0.045782 -0.997882 0 0
    1 -27.648670 0.123512 47.830278 -0.546745 -0.837091 -0.018645 0 0
    1 -39.297277 0.123507 38.664543 -0.430164 -0.423615 0.797188 0 0
  phy
    1 -49.533919 5.579828 -12.556779 -0.368331 0.300533 0.879780 0 0
    1 -48.822263 5.941717 -11.914026 -0.288559 0.090298 0.953195 0 0
    1 -12.089812 5.579933 -49.488413 -0.175025 0.320808 0.930832 0 0
  phy
    1 4.868432 -0.007923 -60.477008 0.059233 0.355001 -0.932988 0 0
    1 -4.868432 -0.007921 -60.477008 -0.292608 0.790465 -0.538094 0 0
    1 -12.089812 5.579933 -49.488413 -0.175025 0.320808 0.930832 0 0
  phy
    1 -12.089812 5.579933 -49.488413 -0.175025 0.320808 0.930832 0 0
    1 12.090112 5.579821 -49.488488 0.241827 0.351424 0.904445 0 0
    1 4.868432 -0.007923 -60.477008 0.059233 0.355001 -0.932988 0 0
  phy
    1 -12.089812 5.579933 -49.488413 -0.175025 0.320808 0.930832 0 0
    1 -39.189744 0.123518 -39.561696 -0.429921 0.432300 0.792644 0 0
    1 -49.533919 5.579828 -12.556779 -0.368331 0.300533 0.879780 0 0
  phy
    1 11.634625 5.836818 -48.982895 0.000004 0.258768 0.965939 0 0
    1 12.090112 5.579821 -49.488488 0.241827 0.351424 0.904445 0 0
    1 -12.089812 5.579933 -49.488413 -0.175025 0.320808 0.930832 0 0
  phy
    1 -12.089812 5.579933 -49.488413 -0.175025 0.320808 0.930832 0 0
    1 12.117408 9.785325 -33.790033 0.133954 0.241791 0.961038 0 0
    1 11.634625 5.836818 -48.982895 0.000004 0.258768 0.965939 0 0
  phy
    1 -12.089812 5.579933 -49.488413 -0.175025 0.320808 0.930832 0 0
    1 -12.131263 9.785341 -33.295176 -0.111308 0.239748 0.964433 0 0
    1 12.117408 9.785325 -33.790033 0.133954 0.241791 0.961038 0 0
  phy
    1 -27.914028 0.123508 -48.431355 -0.519863 0.852760 -0.050430 0 0
    1 -39.189744 0.123518 -39.561696 -0.429921 0.432300 0.792644 0 0
    1 -12.089812 5.579933 -49.488413 -0.175025 0.320808 0.930832 0 0
  phy
    1 -12.089812 5.579933 -49.488413 -0.175025 0.320808 0.930832 0 0
    1 -4.868432 -0.007921 -60.477008 -0.292608 0.790465 -0.538094 0 0
    1 -27.914028 0.123508 -48.431355 -0.519863 0.852760 -0.050430 0 0
  phy
    1 34.999998 -3.245581 -35.000052 0.047914 0.044644 -0.997853 0 0
    1 4.868432 -0.007923 -60.477008 0.059233 0.355001 -0.932988 0 0
    1 27.538167 0.123514 -48.389524 0.526372 0.849772 -0.028640 0 0
  phy
    1 4.868432 -0.007923 -60.477008 0.059233 0.355001 -0.932988 0 0
    1 34.999998 -3.245581 -35.000052 0.047914 0.044644 -0.997853 0 0
    1 -34.999941 -3.245586 -34.999941 -0.030804 0.030923 -0.999047 0 0
  phy
    1 39.186797 0.123511 -39.223724 0.431558 0.434020 0.790812 0 0
    1 34.999998 -3.245581 -35.000052 0.047914 0.044644 -0.997853 0 0
    1 27.538167 0.123514 -48.389524 0.526372 0.849772 -0.028640 0 0
  phy
    1 34.999998 -3.245581 -35.000052 0.047914 0.044644 -0.997853 0 0
    1 34.999998 -3.245571 34.999995 0.029362 -0.031524 -0.999072 0 0
    1 -34.999941 -3.245586 -34.999941 -0.030804 0.030923 -0.999047 0 0
  phy
    1 34.999998 -3.245581 -35.000052 0.047914 0.044644 -0.997853 0 0
    1 60.743197 -0.007921 -4.879917 0.953704 0.254024 0.161000 0 0
    1 60.743206 -0.007925 4.857112 0.250578 -0.055454 -0.966507 0 0
  phy
    1 34.999998 -3.245571 34.999995 0.029362 -0.031524 -0.999072 0 0
    1 34.999998 -3.245581 -35.000052 0.047914 0.044644 -0.997853 0 0
    1 60.743206 -0.007925 4.857112 0.250578 -0.055454 -0.966507 0 0
  phy
    1 34.999998 -3.245581 -35.000052 0.047914 0.044644 -0.997853 0 0
    1 39.186797 0.123511 -39.223724 0.431558 0.434020 0.790812 0 0
    1 48.056456 0.123517 -27.948064 0.846362 0.531371 -0.036278 0 0
  phy
    1 60.743197 -0.007921 -4.879917 0.953704 0.254024 0.161000 0 0
    1 34.999998 -3.245581 -35.000052 0.047914 0.044644 -0.997853 0 0
    1 48.056456 0.123517 -27.948064 0.846362 0.531371 -0.036278 0 0
  phy
    1 4.739344 -0.007928 61.064306 0.318524 -0.791834 -0.521097 0 0
    1 27.591901 0.123505 48.041269 0.539801 -0.841327 -0.027992 0 0
    1 11.961010 5.579840 50.075599 0.176667 -0.318672 0.931255 0 0
  phy
    1 11.961010 5.579840 50.075599 0.176667 -0.318672 0.931255 0 0
    1 -4.997732 -0.007927 61.064330 -0.063631 -0.348527 -0.935136 0 0
    1 4.739344 -0.007928 61.064306 0.318524 -0.791834 -0.521097 0 0
  phy
    1 4.739344 -0.007928 61.064306 0.318524 -0.791834 -0.521097 0 0
    1 34.999998 -3.245571 34.999995 0.029362 -0.031524 -0.999072 0 0
    1 27.591901 0.123505 48.041269 0.539801 -0.841327 -0.027992 0 0
  phy
    1 34.999998 -3.245571 34.999995 0.029362 -0.031524 -0.999072 0 0
    1 4.739344 -0.007928 61.064306 0.318524 -0.791834 -0.521097 0 0
    1 -4.997732 -0.007927 61.064330 -0.063631 -0.348527 -0.935136 0 0
  phy
    1 -12.219478 5.579816 50.075617 -0.187608 -0.467122 0.864060 0 0
    1 -39.297277 0.123507 38.664543 -0.430164 -0.423615 0.797188 0 0
    1 -27.648670 0.123512 47.830278 -0.546745 -0.837091 -0.018645 0 0
  phy
    1 -27.648670 0.123512 47.830278 -0.546745 -0.837091 -0.018645 0 0
    1 -4.997732 -0.007927 61.064330 -0.063631 -0.348527 -0.935136 0 0
    1 -12.219478 5.579816 50.075617 -0.187608 -0.467122 0.864060 0 0
  phy
    1 -12.219478 5.579816 50.075617 -0.187608 -0.467122 0.864060 0 0
    1 -4.997732 -0.007927 61.064330 -0.063631 -0.348527 -0.935136 0 0
    1 11.961010 5.579840 50.075599 0.176667 -0.318672 0.931255 0 0
  phy
    1 11.913640 9.806221 33.489013 0.013400 -0.028523 0.999503 0 0
    1 -12.264477 9.806221 -32.406290 -0.000247 0.000537 1.000000 0 0
    1 -32.947282 9.806217 -12.509429 -0.000539 -0.000005 1.000000 0 0
  phy
    1 -32.947282 9.806217 -12.509429 -0.000539 -0.000005 1.000000 0 0
    1 -12.172051 9.806217 33.489013 -0.028998 -0.098093 0.994755 0 0
    1 11.913640 9.806221 33.489013 0.013400 -0.028523 0.999503 0 0
  phy
    1 11.913640 9.806221 33.489013 0.013400 -0.028523 0.999503 0 0
    1 -12.172051 9.806217 33.489013 -0.028998 -0.098093 0.994755 0 0
    1 11.961010 5.579840 50.075599 0.176667 -0.318672 0.931255 0 0
  phy
    1 11.961010 5.579840 50.075599 0.176667 -0.318672 0.931255 0 0
    1 33.351913 9.806223 12.101799 0.102264 -0.073163 0.992063 0 0
    1 11.913640 9.806221 33.489013 0.013400 -0.028523 0.999503 0 0
  phy
    1 -48.355437 0.123513 -27.913109 -0.847421 0.528382 -0.051877 0 0
    1 -60.522622 -0.007923 -5.335029 -0.951765 0.240780 0.190179 0 0
    1 -49.533919 5.579828 -12.556779 -0.368331 0.300533 0.879780 0 0
  phy
    1 -49.533919 5.579828 -12.556779 -0.368331 0.300533 0.879780 0 0
    1 -60.522622 -0.007923 -5.335029 -0.951765 0.240780 0.190179 0 0
    1 -48.822263 5.941717 -11.914026 -0.288559 0.090298 0.953195 0 0
  phy
    1 -49.533919 5.579828 -12.556779 -0.368331 0.300533 0.879780 0 0
    1 -39.189744 0.123518 -39.561696 -0.429921 0.432300 0.792644 0 0
    1 -48.355437 0.123513 -27.913109 -0.847421 0.528382 -0.051877 0 0
  phy
    1 -48.355437 0.123513 -27.913109 -0.847421 0.528382 -0.051877 0 0
    1 -39.189744 0.123518 -39.561696 -0.429921 0.432300 0.792644 0 0
    1 -34.999941 -3.245586 -34.999941 -0.030804 0.030923 -0.999047 0 0
  phy
    1 -48.355437 0.123513 -27.913109 -0.847421 0.528382 -0.051877 0 0
    1 -34.999941 -3.245586 -34.999941 -0.030804 0.030923 -0.999047 0 0
    1 -60.522622 -0.007923 -5.335029 -0.951765 0.240780 0.190179 0 0
  phy
    1 -32.947282 9.806217 -12.509429 -0.000539 -0.000005 1.000000 0 0
    1 -33.030641 9.785307 11.606077 -0.189148 -0.099605 0.976884 0 0
    1 -12.172051 9.806217 33.489013 -0.028998 -0.098093 0.994755 0 0
  phy
    1 48.790391 5.872606 12.181650 0.247475 -0.107807 0.962878 0 0
    1 49.754522 5.579802 -12.101714 0.321176 0.206974 0.924125 0 0
    1 33.167915 9.806223 -12.054220 0.171409 0.053953 0.983722 0 0
  phy
    1 33.167915 9.806223 -12.054220 0.171409 0.053953 0.983722 0 0
    1 33.351913 9.806223 12.101799 0.102264 -0.073163 0.992063 0 0
    1 48.790391 5.872606 12.181650 0.247475 -0.107807 0.962878 0 0
  phy
    1 33.167915 9.806223 -12.054220 0.171409 0.053953 0.983722 0 0
    1 49.754522 5.579802 -12.101714 0.321176 0.206974 0.924125 0 0
    1 12.117408 9.785325 -33.790033 0.133954 0.241791 0.961038 0 0
  phy
    1 12.117408 9.785325 -33.790033 0.133954 0.241791 0.961038 0 0
    1 12.090112 5.579821 -49.488488 0.241827 0.351424 0.904445 0 0
    1 11.634625 5.836818 -48.982895 0.000004 0.258768 0.965939 0 0
  phy
    1 -48.822263 5.941717 -11.914026 -0.288559 0.090298 0.953195 0 0
    1 -60.522622 -0.007923 -5.335029 -0.951765 0.240780 0.190179 0 0
    1 -49.533980 5.579809 11.623732 -0.342160 -0.190043 0.920223 0 0
  phy
    1 -49.533980 5.579809 11.623732 -0.342160 -0.190043 0.920223 0 0
    1 -60.522622 -0.007923 -5.335029 -0.951765 0.240780 0.190179 0 0
    1 -60.522617 -0.007923 4.401977 -0.253752 -0.054299 -0.965744 0 0
  phy
    1 -49.533980 5.579809 11.623732 -0.342160 -0.190043 0.920223 0 0
    1 -33.030641 9.785307 11.606077 -0.189148 -0.099605 0.976884 0 0
    1 -48.822263 5.941717 -11.914026 -0.288559 0.090298 0.953195 0 0
  phy
    1 -49.533980 5.579809 11.623732 -0.342160 -0.190043 0.920223 0 0
    1 -60.522617 -0.007923 4.401977 -0.253752 -0.054299 -0.965744 0 0
    1 -48.167030 0.123511 27.388794 -0.850077 -0.526634 -0.005019 0 0
  phy
    1 -48.167030 0.123511 27.388794 -0.850077 -0.526634 -0.005019 0 0
    1 -39.297277 0.123507 38.664543 -0.430164 -0.423615 0.797188 0 0
    1 -49.533980 5.579809 11.623732 -0.342160 -0.190043 0.920223 0 0
  phy
    1 4.868432 -0.007923 -60.477008 0.059233 0.355001 -0.932988 0 0
    1 12.090112 5.579821 -49.488488 0.241827 0.351424 0.904445 0 0
    1 27.538167 0.123514 -48.389524 0.526372 0.849772 -0.028640 0 0
  phy
    1 -4.868432 -0.007921 -60.477008 -0.292608 0.790465 -0.538094 0 0
    1 4.868432 -0.007923 -60.477008 0.059233 0.355001 -0.932988 0 0
    1 -34.999941 -3.245586 -34.999941 -0.030804 0.030923 -0.999047 0 0
  phy
    1 -27.914028 0.123508 -48.431355 -0.519863 0.852760 -0.050430 0 0
    1 -4.868432 -0.007921 -60.477008 -0.292608 0.790465 -0.538094 0 0
    1 -34.999941 -3.245586 -34.999941 -0.030804 0.030923 -0.999047 0 0
  phy
    1 -39.189744 0.123518 -39.561696 -0.429921 0.432300 0.792644 0 0
    1 -27.914028 0.123508 -48.431355 -0.519863 0.852760 -0.050430 0 0
    1 -34.999941 -3.245586 -34.999941 -0.030804 0.030923 -0.999047 0 0
  phy
    1 60.743197 -0.007921 -4.879917 0.953704 0.254024 0.161000 0 0
    1 49.754522 5.579802 -12.101714 0.321176 0.206974 0.924125 0 0
    1 49.754550 5.579816 12.078848 0.406013 -0.226327 0.885398 0 0
  phy
    1 49.754550 5.579816 12.078848 0.406013 -0.226327 0.885398 0 0
    1 60.743206 -0.007925 4.857112 0.250578 -0.055454 -0.966507 0 0
    1 60.743197 -0.007921 -4.879917 0.953704 0.254024 0.161000 0 0
  phy
    1 48.056456 0.123517 -27.948064 0.846362 0.531371 -0.036278 0 0
    1 49.754522 5.579802 -12.101714 0.321176 0.206974 0.924125 0 0
    1 60.743197 -0.007921 -4.879917 0.953704 0.254024 0.161000 0 0
  phy
    1 34.999998 -3.245571 34.999995 0.029362 -0.031524 -0.999072 0 0
    1 48.033403 0.123506 27.522966 0.843126 -0.537548 -0.013453 0 0
    1 38.867372 0.123508 39.171910 0.443607 -0.441566 0.779892 0 0
  phy
    1 48.033403 0.123506 27.522966 0.843126 -0.537548 -0.013453 0 0
    1 34.999998 -3.245571 34.999995 0.029362 -0.031524 -0.999072 0 0
    1 60.743206 -0.007925 4.857112 0.250578 -0.055454 -0.966507 0 0
  phy
    1 27.591901 0.123505 48.041269 0.539801 -0.841327 -0.027992 0 0
    1 34.999998 -3.245571 34.999995 0.029362 -0.031524 -0.999072 0 0
    1 38.867372 0.123508 39.171910 0.443607 -0.441566 0.779892 0 0
  phy
    1 11.961010 5.579840 50.075599 0.176667 -0.318672 0.931255 0 0
    1 49.754550 5.579816 12.078848 0.406013 -0.226327 0.885398 0 0
    1 48.790391 5.872606 12.181650 0.247475 -0.107807 0.962878 0 0
  phy
    1 11.961010 5.579840 50.075599 0.176667 -0.318672 0.931255 0 0
    1 38.867372 0.123508 39.171910 0.443607 -0.441566 0.779892 0 0
    1 49.754550 5.579816 12.078848 0.406013 -0.226327 0.885398 0 0
  phy
    1 48.790391 5.872606 12.181650 0.247475 -0.107807 0.962878 0 0
    1 33.351913 9.806223 12.101799 0.102264 -0.073163 0.992063 0 0
    1 11.961010 5.579840 50.075599 0.176667 -0.318672 0.931255 0 0
  phy
    1 27.591901 0.123505 48.041269 0.539801 -0.841327 -0.027992 0 0
    1 38.867372 0.123508 39.171910 0.443607 -0.441566 0.779892 0 0
    1 11.961010 5.579840 50.075599 0.176667 -0.318672 0.931255 0 0
  phy
    1 49.754550 5.579816 12.078848 0.406013 -0.226327 0.885398 0 0
    1 49.754522 5.579802 -12.101714 0.321176 0.206974 0.924125 0 0
    1 48.790391 5.872606 12.181650 0.247475 -0.107807 0.962878 0 0
  phy
    1 49.754550 5.579816 12.078848 0.406013 -0.226327 0.885398 0 0
    1 38.867372 0.123508 39.171910 0.443607 -0.441566 0.779892 0 0
    1 48.033403 0.123506 27.522966 0.843126 -0.537548 -0.013453 0 0
  phy
    1 48.033403 0.123506 27.522966 0.843126 -0.537548 -0.013453 0 0
    1 60.743206 -0.007925 4.857112 0.250578 -0.055454 -0.966507 0 0
    1 49.754550 5.579816 12.078848 0.406013 -0.226327 0.885398 0 0
  phy
    1 12.117408 9.785325 -33.790033 0.133954 0.241791 0.961038 0 0
    1 -12.131263 9.785341 -33.295176 -0.111308 0.239748 0.964433 0 0
    1 -12.264477 9.806221 -32.406290 -0.000247 0.000537 1.000000 0 0
  phy
    1 49.754522 5.579802 -12.101714 0.321176 0.206974 0.924125 0 0
    1 12.090112 5.579821 -49.488488 0.241827 0.351424 0.904445 0 0
    1 12.117408 9.785325 -33.790033 0.133954 0.241791 0.961038 0 0
  phy
    1 39.186797 0.123511 -39.223724 0.431558 0.434020 0.790812 0 0
    1 49.754522 5.579802 -12.101714 0.321176 0.206974 0.924125 0 0
    1 48.056456 0.123517 -27.948064 0.846362 0.531371 -0.036278 0 0
  phy
    1 27.538167 0.123514 -48.389524 0.526372 0.849772 -0.028640 0 0
    1 12.090112 5.579821 -49.488488 0.241827 0.351424 0.904445 0 0
    1 39.186797 0.123511 -39.223724 0.431558 0.434020 0.790812 0 0
  phy
    1 39.186797 0.123511 -39.223724 0.431558 0.434020 0.790812 0 0
    1 12.090112 5.579821 -49.488488 0.241827 0.351424 0.904445 0 0
    1 49.754522 5.579802 -12.101714 0.321176 0.206974 0.924125 0 0
  phy
    1 -34.999941 -3.245586 -34.999941 -0.030804 0.030923 -0.999047 0 0
    1 -60.522617 -0.007923 4.401977 -0.253752 -0.054299 -0.965744 0 0
    1 -60.522622 -0.007923 -5.335029 -0.951765 0.240780 0.190179 0 0
  phy
    2 28.962540 13.646194 -13.947618 0.366121 0.211935 0.906112 0 0
    2 28.962538 9.889940 -13.947630 0.032562 0.012737 -0.999389 0 0
    2 20.042698 9.889930 -25.132763 0.593325 0.637998 -0.490840 0 0
  phy
    2 20.042698 9.889930 -25.132763 0.593325 0.637998 -0.490840 0 0
    2 20.042691 13.646193 -25.132763 0.032631 0.047978 0.998315 0 0
    2 28.962540 13.646194 -13.947618 0.366121 0.211935 0.906112 0 0
  phy
    2 32.145998 13.646199 -0.000005 0.868738 0.066095 0.490842 0 0
    2 28.962538 9.889940 -13.947630 0.032562 0.012737 -0.999389 0 0
    2 28.962540 13.646194 -13.947618 0.366121 0.211935 0.906112 0 0
  phy
    2 28.962540 13.646194 -13.947618 0.366121 0.211935 0.906112 0 0
    2 28.962545 13.646208 13.947632 0.037249 -0.017937 0.999145 0 0
    2 32.145998 13.646199 -0.000005 0.868738 0.066095 0.490842 0 0
  phy
    2 28.962540 13.646194 -13.947618 0.366121 0.211935 0.906112 0 0
    2 20.042691 13.646193 -25.132763 0.032631 0.047978 0.998315 0 0
    2 28.962545 13.646208 13.947632 0.037249 -0.017937 0.999145 0 0
  phy
    2 32.145998 13.646199 -0.000005 0.868738 0.066095 0.490842 0 0
    2 32.145998 9.889945 -0.000004 0.868738 -0.066095 -0.490842 0 0
    2 28.962538 9.889940 -13.947630 0.032562 0.012737 -0.999389 0 0
  phy
    2 28.962545 13.646208 13.947632 0.037249 -0.017937 0.999145 0 0
    2 32.145998 9.889945 -0.000004 0.868738 -0.066095 -0.490842 0 0
    2 32.145998 13.646199 -0.000005 0.868738 0.066095 0.490842 0 0
  phy
    2 28.962545 13.646208 13.947632 0.037249 -0.017937 0.999145 0 0
    2 7.153158 13.646228 31.340031 0.034256 -0.150084 0.988080 0 0
    2 20.042700 13.646218 25.132754 0.475647 -0.596442 0.646541 0 0
  phy
    2 -28.962540 13.646238 13.947623 -0.044673 -0.025859 0.998667 0 0
    2 7.153158 13.646228 31.340031 0.034256 -0.150084 0.988080 0 0
    2 28.962545 13.646208 13.947632 0.037249 -0.017937 0.999145 0 0
  phy
    2 28.962545 13.646208 13.947632 0.037249 -0.017937 0.999145 0 0
    2 -28.962559 13.646224 -13.947623 -0.020947 0.010088 0.999730 0 0
    2 -28.962540 13.646238 13.947623 -0.044673 -0.025859 0.998667 0 0
  phy
    2 28.962545 13.646208 13.947632 0.037249 -0.017937 0.999145 0 0
    2 20.042691 13.646193 -25.132763 0.032631 0.047978 0.998315 0 0
    2 -28.962559 13.646224 -13.947623 -0.020947 0.010088 0.999730 0 0
  phy
    2 28.962542 9.889945 13.947639 0.267051 -0.128605 -0.955062 0 0
    2 32.145998 9.889945 -0.000004 0.868738 -0.066095 -0.490842 0 0
    2 28.962545 13.646208 13.947632 0.037249 -0.017937 0.999145 0 0
  phy
    2 20.042700 13.646218 25.132754 0.475647 -0.596442 0.646541 0 0
    2 20.042705 9.889940 25.132754 0.041253 -0.051729 -0.997809 0 0
    2 28.962545 13.646208 13.947632 0.037249 -0.017937 0.999145 0 0
  phy
    2 28.962545 13.646208 13.947632 0.037249 -0.017937 0.999145 0 0
    2 20.042705 9.889940 25.132754 0.041253 -0.051729 -0.997809 0 0
    2 28.962542 9.889945 13.947639 0.267051 -0.128605 -0.955062 0 0
  phy
    2 -7.153139 13.646204 -31.340031 -0.117351 0.514151 0.849634 0 0
    2 -28.962559 13.646224 -13.947623 -0.020947 0.010088 0.999730 0 0
    2 7.153158 13.646196 -31.340028 0.033073 0.144899 0.988894 0 0
  phy
    2 -28.962559 13.646224 -13.947623 -0.020947 0.010088 0.999730 0 0
    2 20.042691 13.646193 -25.132763 0.032631 0.047978 0.998315 0 0
    2 7.153158 13.646196 -31.340028 0.033073 0.144899 0.988894 0 0
  phy
    2 7.153158 13.646196 -31.340028 0.033073 0.144899 0.988894 0 0
    2 7.153160 9.889918 -31.340031 0.034256 0.150084 -0.988080 0 0
    2 -7.153139 13.646204 -31.340031 -0.117351 0.514151 0.849634 0 0
  phy
    2 7.153160 9.889918 -31.340031 0.034256 0.150084 -0.988080 0 0
    2 7.153158 13.646196 -31.340028 0.033073 0.144899 0.988894 0 0
    2 20.042691 13.646193 -25.132763 0.032631 0.047978 0.998315 0 0
  phy
    2 7.153160 9.889918 -31.340031 0.034256 0.150084 -0.988080 0 0
    2 20.042698 9.889930 -25.132763 0.593325 0.637998 -0.490840 0 0
    2 28.962538 9.889940 -13.947630 0.032562 0.012737 -0.999389 0 0
  phy
    2 20.042698 9.889930 -25.132763 0.593325 0.637998 -0.490840 0 0
    2 7.153160 9.889918 -31.340031 0.034256 0.150084 -0.988080 0 0
    2 20.042691 13.646193 -25.132763 0.032631 0.047978 0.998315 0 0
  phy
    2 -7.153153 9.889920 31.340031 -0.128875 -0.861668 -0.490836 0 0
    2 7.153158 13.646228 31.340031 0.034256 -0.150084 0.988080 0 0
    2 -7.153135 13.646236 31.340031 -0.125153 -0.404106 0.906110 0 0
  phy
    2 -7.153153 9.889920 31.340031 -0.128875 -0.861668 -0.490836 0 0
    2 7.153163 9.889931 31.340031 0.016219 -0.071055 -0.997341 0 0
    2 7.153158 13.646228 31.340031 0.034256 -0.150084 0.988080 0 0
  phy
    2 -20.042700 13.646239 25.132747 -0.475649 -0.596445 0.646538 0 0
    2 -20.042712 9.889908 25.132751 -0.328814 -0.412321 -0.849631 0 0
    2 -7.153135 13.646236 31.340031 -0.125153 -0.404106 0.906110 0 0
  phy
    2 -20.042712 9.889908 25.132751 -0.328814 -0.412321 -0.849631 0 0
    2 -7.153153 9.889920 31.340031 -0.128875 -0.861668 -0.490836 0 0
    2 -7.153135 13.646236 31.340031 -0.125153 -0.404106 0.906110 0 0
  phy
    2 -7.153135 13.646236 31.340031 -0.125153 -0.404106 0.906110 0 0
    2 7.153158 13.646228 31.340031 0.034256 -0.150084 0.988080 0 0
    2 -28.962540 13.646238 13.947623 -0.044673 -0.025859 0.998667 0 0
  phy
    2 -28.962540 13.646238 13.947623 -0.044673 -0.025859 0.998667 0 0
    2 -20.042700 13.646239 25.132747 -0.475649 -0.596445 0.646538 0 0
    2 -7.153135 13.646236 31.340031 -0.125153 -0.404106 0.906110 0 0
  phy
    2 7.153158 13.646228 31.340031 0.034256 -0.150084 0.988080 0 0
    2 20.042705 9.889940 25.132754 0.041253 -0.051729 -0.997809 0 0
    2 20.042700 13.646218 25.132754 0.475647 -0.596442 0.646541 0 0
  phy
    2 -7.153139 13.646204 -31.340031 -0.117351 0.514151 0.849634 0 0
    2 7.153160 9.889918 -31.340031 0.034256 0.150084 -0.988080 0 0
    2 -7.153158 9.889907 -31.340033 -0.065956 0.288975 -0.955062 0 0
  phy
    2 -28.962554 9.889893 -13.947645 -0.087285 0.042034 -0.995296 0 0
    2 7.153160 9.889918 -31.340031 0.034256 0.150084 -0.988080 0 0
    2 28.962538 9.889940 -13.947630 0.032562 0.012737 -0.999389 0 0
  phy
    2 7.153160 9.889918 -31.340031 0.034256 0.150084 -0.988080 0 0
    2 -28.962554 9.889893 -13.947645 -0.087285 0.042034 -0.995296 0 0
    2 -7.153158 9.889907 -31.340033 -0.065956 0.288975 -0.955062 0 0
  phy
    2 -28.962559 13.646224 -13.947623 -0.020947 0.010088 0.999730 0 0
    2 -32.146005 13.646233 -0.000005 -0.920747 -0.000001 0.390161 0 0
    2 -28.962540 13.646238 13.947623 -0.044673 -0.025859 0.998667 0 0
  phy
    2 -28.962535 9.889898 13.947648 -0.205376 -0.080336 -0.975380 0 0
    2 -28.962540 13.646238 13.947623 -0.044673 -0.025859 0.998667 0 0
    2 -32.146005 13.646233 -0.000005 -0.920747 -0.000001 0.390161 0 0
  phy
    2 -28.962540 13.646238 13.947623 -0.044673 -0.025859 0.998667 0 0
    2 -28.962535 9.889898 13.947648 -0.205376 -0.080336 -0.975380 0 0
    2 -20.042712 9.889908 25.132751 -0.328814 -0.412321 -0.849631 0 0
  phy
    2 -20.042700 13.646239 25.132747 -0.475649 -0.596445 0.646538 0 0
    2 -28.962540 13.646238 13.947623 -0.044673 -0.025859 0.998667 0 0
    2 -20.042712 9.889908 25.132751 -0.328814 -0.412321 -0.849631 0 0
  phy
    2 -7.153139 13.646204 -31.340031 -0.117351 0.514151 0.849634 0 0
    2 -20.042691 13.646214 -25.132754 -0.593326 0.638000 0.490836 0 0
    2 -28.962559 13.646224 -13.947623 -0.020947 0.010088 0.999730 0 0
  phy
    2 -20.042691 13.646214 -25.132754 -0.593326 0.638000 0.490836 0 0
    2 -7.153139 13.646204 -31.340031 -0.117351 0.514151 0.849634 0 0
    2 -20.042695 9.889898 -25.132763 -0.489977 0.720420 -0.490833 0 0
  phy
    2 -20.042695 9.889898 -25.132763 -0.489977 0.720420 -0.490833 0 0
    2 -7.153139 13.646204 -31.340031 -0.117351 0.514151 0.849634 0 0
    2 -7.153158 9.889907 -31.340033 -0.065956 0.288975 -0.955062 0 0
  phy
    2 -28.962554 9.889893 -13.947645 -0.087285 0.042034 -0.995296 0 0
    2 -28.962559 13.646224 -13.947623 -0.020947 0.010088 0.999730 0 0
    2 -20.042691 13.646214 -25.132754 -0.593326 0.638000 0.490836 0 0
  phy
    2 -28.962559 13.646224 -13.947623 -0.020947 0.010088 0.999730 0 0
    2 -28.962554 9.889893 -13.947645 -0.087285 0.042034 -0.995296 0 0
    2 -32.146005 13.646233 -0.000005 -0.920747 -0.000001 0.390161 0 0
  phy
    2 7.153163 9.889931 31.340031 0.016219 -0.071055 -0.997341 0 0
    2 20.042705 9.889940 25.132754 0.041253 -0.051729 -0.997809 0 0
    2 7.153158 13.646228 31.340031 0.034256 -0.150084 0.988080 0 0
  phy
    2 28.962538 9.889940 -13.947630 0.032562 0.012737 -0.999389 0 0
    2 28.962542 9.889945 13.947639 0.267051 -0.128605 -0.955062 0 0
    2 20.042705 9.889940 25.132754 0.041253 -0.051729 -0.997809 0 0
  phy
    2 28.962542 9.889945 13.947639 0.267051 -0.128605 -0.955062 0 0
    2 28.962538 9.889940 -13.947630 0.032562 0.012737 -0.999389 0 0
    2 32.145998 9.889945 -0.000004 0.868738 -0.066095 -0.490842 0 0
  phy
    2 -28.962554 9.889893 -13.947645 -0.087285 0.042034 -0.995296 0 0
    2 -20.042691 13.646214 -25.132754 -0.593326 0.638000 0.490836 0 0
    2 -20.042695 9.889898 -25.132763 -0.489977 0.720420 -0.490833 0 0
  phy
    2 -32.146005 13.646233 -0.000005 -0.920747 -0.000001 0.390161 0 0
    2 -28.962554 9.889893 -13.947645 -0.087285 0.042034 -0.995296 0 0
    2 -32.146005 9.889893 -0.000005 -0.025132 0.000000 -0.999684 0 0
  phy
    2 -28.962554 9.889893 -13.947645 -0.087285 0.042034 -0.995296 0 0
    2 -20.042695 9.889898 -25.132763 -0.489977 0.720420 -0.490833 0 0
    2 -7.153158 9.889907 -31.340033 -0.065956 0.288975 -0.955062 0 0
  phy
    2 -28.962554 9.889893 -13.947645 -0.087285 0.042034 -0.995296 0 0
    2 28.962538 9.889940 -13.947630 0.032562 0.012737 -0.999389 0 0
    2 -32.146005 9.889893 -0.000005 -0.025132 0.000000 -0.999684 0 0
  phy
    2 -28.962535 9.889898 13.947648 -0.205376 -0.080336 -0.975380 0 0
    2 -32.146005 13.646233 -0.000005 -0.920747 -0.000001 0.390161 0 0
    2 -32.146005 9.889893 -0.000005 -0.025132 0.000000 -0.999684 0 0
  phy
    2 -28.962535 9.889898 13.947648 -0.205376 -0.080336 -0.975380 0 0
    2 7.153163 9.889931 31.340031 0.016219 -0.071055 -0.997341 0 0
    2 -20.042712 9.889908 25.132751 -0.328814 -0.412321 -0.849631 0 0
  phy
    2 7.153163 9.889931 31.340031 0.016219 -0.071055 -0.997341 0 0
    2 -28.962535 9.889898 13.947648 -0.205376 -0.080336 -0.975380 0 0
    2 -32.146005 9.889893 -0.000005 -0.025132 0.000000 -0.999684 0 0
  phy
    2 28.962538 9.889940 -13.947630 0.032562 0.012737 -0.999389 0 0
    2 20.042705 9.889940 25.132754 0.041253 -0.051729 -0.997809 0 0
    2 -32.146005 9.889893 -0.000005 -0.025132 0.000000 -0.999684 0 0
  phy
    2 -20.042712 9.889908 25.132751 -0.328814 -0.412321 -0.849631 0 0
    2 7.153163 9.889931 31.340031 0.016219 -0.071055 -0.997341 0 0
    2 -7.153153 9.889920 31.340031 -0.128875 -0.861668 -0.490836 0 0
  phy
    2 20.042705 9.889940 25.132754 0.041253 -0.051729 -0.997809 0 0
    2 7.153163 9.889931 31.340031 0.016219 -0.071055 -0.997341 0 0
    2 -32.146005 9.889893 -0.000005 -0.025132 0.000000 -0.999684 0 0
end
