// Created by Crowbar 0.74
version 1
nodes
  0 "door_root" -1
  1 "door_left" 0
  2 "door_right" 0
end
skeleton
  time 0
    0 0.000000 0.000000 0.000000 0.000000 0.000000 0.000000
    1 -10.000000 0.000000 0.000000 0.000000 0.000000 0.000000
    2 10.000000 0.000000 0.000000 0.000000 0.000000 0.000000
end
triangles
  phy
    0 51.646209 6.853208 17.000005 0.962477 -0.116712 -0.244982 0 0
    0 45.789494 0.011292 17.000003 0.198888 -0.203664 -0.958627 0 0
    0 45.789490 0.011303 -16.936485 0.461698 0.237391 -0.854681 0 0
  phy
    0 45.789490 0.011303 -16.936485 0.461698 0.237391 -0.854681 0 0
    0 51.646209 6.853227 -16.936483 0.896369 0.120356 0.426658 0 0
    0 51.646209 6.853208 17.000005 0.962477 -0.116712 -0.244982 0 0
  phy
    0 51.646209 6.853208 17.000005 0.962477 -0.116712 -0.244982 0 0
    0 44.695805 11.882202 17.000006 -0.066762 -0.256733 0.964174 0 0
    0 45.789494 0.011292 17.000003 0.198888 -0.203664 -0.958627 0 0
  phy
    0 51.646209 6.853208 17.000005 0.962477 -0.116712 -0.244982 0 0
    0 51.646209 6.853227 -16.936483 0.896369 0.120356 0.426658 0 0
    0 44.695805 11.882202 17.000006 -0.066762 -0.256733 0.964174 0 0
  phy
    0 45.789490 0.011303 -16.936485 0.461698 0.237391 -0.854681 0 0
    0 44.695805 11.882219 -16.936483 -0.495915 0.186336 0.848143 0 0
    0 51.646209 6.853227 -16.936483 0.896369 0.120356 0.426658 0 0
  phy
    0 44.695805 11.882219 -16.936483 -0.495915 0.186336 0.848143 0 0
    0 45.789490 0.011303 -16.936485 0.461698 0.237391 -0.854681 0 0
    0 32.136163 -0.007965 -16.936485 -0.607377 0.244789 -0.755759 0 0
  phy
    0 45.789490 0.011303 -16.936485 0.461698 0.237391 -0.854681 0 0
    0 45.789494 0.011292 17.000003 0.198888 -0.203664 -0.958627 0 0
    0 32.136163 -0.007965 -16.936485 -0.607377 0.244789 -0.755759 0 0
  phy
    0 32.136163 -0.007976 16.999999 -0.886218 -0.178150 0.427646 0 0
    0 44.695805 11.882202 17.000006 -0.066762 -0.256733 0.964174 0 0
    0 44.695805 11.882219 -16.936483 -0.495915 0.186336 0.848143 0 0
  phy
    0 44.695805 11.882219 -16.936483 -0.495915 0.186336 0.848143 0 0
    0 32.136163 -0.007965 -16.936485 -0.607377 0.244789 -0.755759 0 0
    0 32.136163 -0.007976 16.999999 -0.886218 -0.178150 0.427646 0 0
  phy
    0 44.695805 11.882202 17.000006 -0.066762 -0.256733 0.964174 0 0
    0 51.646209 6.853227 -16.936483 0.896369 0.120356 0.426658 0 0
    0 44.695805 11.882219 -16.936483 -0.495915 0.186336 0.848143 0 0
  phy
    0 45.789494 0.011292 17.000003 0.198888 -0.203664 -0.958627 0 0
    0 44.695805 11.882202 17.000006 -0.066762 -0.256733 0.964174 0 0
    0 32.136163 -0.007976 16.999999 -0.886218 -0.178150 0.427646 0 0
  phy
    0 45.789494 0.011292 17.000003 0.198888 -0.203664 -0.958627 0 0
    0 32.136163 -0.007976 16.999999 -0.886218 -0.178150 0.427646 0 0
    0 32.136163 -0.007965 -16.936485 -0.607377 0.244789 -0.755759 0 0
  phy
    0 51.646195 6.853161 -16.936480 0.305283 0.200477 -0.930919 0 0
    0 51.646190 6.853153 17.000005 0.757986 -0.408406 -0.508588 0 0
    0 44.695815 11.882200 17.000006 -0.978933 -0.189065 -0.077100 0 0
  phy
    0 44.695815 11.882214 -16.936477 -0.954853 0.225736 0.193129 0 0
    0 51.646195 6.853161 -16.936480 0.305283 0.200477 -0.930919 0 0
    0 44.695815 11.882200 17.000006 -0.978933 -0.189065 -0.077100 0 0
  phy
    0 51.646195 6.853161 -16.936480 0.305283 0.200477 -0.930919 0 0
    0 60.877012 24.496974 -16.936479 0.891921 0.343712 -0.293835 0 0
    0 51.646190 6.853153 17.000005 0.757986 -0.408406 -0.508588 0 0
  phy
    0 51.646195 6.853161 -16.936480 0.305283 0.200477 -0.930919 0 0
    0 44.695815 11.882214 -16.936477 -0.954853 0.225736 0.193129 0 0
    0 60.877012 24.496974 -16.936479 0.891921 0.343712 -0.293835 0 0
  phy
    0 51.646190 6.853153 17.000005 0.757986 -0.408406 -0.508588 0 0
    0 60.877012 24.496974 -16.936479 0.891921 0.343712 -0.293835 0 0
    0 60.877021 24.497021 -0.000075 0.945470 -0.095231 -0.311477 0 0
  phy
    0 60.877021 24.497021 -0.000075 0.945470 -0.095231 -0.311477 0 0
    0 64.000018 44.352483 17.000011 0.962857 -0.266727 -0.041987 0 0
    0 51.646190 6.853153 17.000005 0.757986 -0.408406 -0.508588 0 0
  phy
    0 60.877012 24.496974 -16.936479 0.891921 0.343712 -0.293835 0 0
    0 64.000018 44.352483 17.000011 0.962857 -0.266727 -0.041987 0 0
    0 60.877021 24.497021 -0.000075 0.945470 -0.095231 -0.311477 0 0
  phy
    0 63.999999 44.352492 -16.936472 0.792741 0.204465 0.574244 0 0
    0 55.247062 44.352487 -16.936471 -0.786311 0.403957 0.467476 0 0
    0 55.247062 44.352478 17.000012 -0.836445 -0.230369 0.497282 0 0
  phy
    0 55.247062 44.352478 17.000012 -0.836445 -0.230369 0.497282 0 0
    0 64.000018 44.352483 17.000011 0.962857 -0.266727 -0.041987 0 0
    0 63.999999 44.352492 -16.936472 0.792741 0.204465 0.574244 0 0
  phy
    0 55.247062 44.352487 -16.936471 -0.786311 0.403957 0.467476 0 0
    0 63.999999 44.352492 -16.936472 0.792741 0.204465 0.574244 0 0
    0 60.877012 24.496974 -16.936479 0.891921 0.343712 -0.293835 0 0
  phy
    0 63.999999 44.352492 -16.936472 0.792741 0.204465 0.574244 0 0
    0 64.000018 44.352483 17.000011 0.962857 -0.266727 -0.041987 0 0
    0 60.877012 24.496974 -16.936479 0.891921 0.343712 -0.293835 0 0
  phy
    0 44.695815 11.882214 -16.936477 -0.954853 0.225736 0.193129 0 0
    0 55.247062 44.352478 17.000012 -0.836445 -0.230369 0.497282 0 0
    0 55.247062 44.352487 -16.936471 -0.786311 0.403957 0.467476 0 0
  phy
    0 55.247062 44.352478 17.000012 -0.836445 -0.230369 0.497282 0 0
    0 44.695815 11.882214 -16.936477 -0.954853 0.225736 0.193129 0 0
    0 44.695815 11.882200 17.000006 -0.978933 -0.189065 -0.077100 0 0
  phy
    0 51.646190 6.853153 17.000005 0.757986 -0.408406 -0.508588 0 0
    0 64.000018 44.352483 17.000011 0.962857 -0.266727 -0.041987 0 0
    0 55.247062 44.352478 17.000012 -0.836445 -0.230369 0.497282 0 0
  phy
    0 55.247062 44.352478 17.000012 -0.836445 -0.230369 0.497282 0 0
    0 44.695815 11.882200 17.000006 -0.978933 -0.189065 -0.077100 0 0
    0 51.646190 6.853153 17.000005 0.757986 -0.408406 -0.508588 0 0
  phy
    0 44.695815 11.882214 -16.936477 -0.954853 0.225736 0.193129 0 0
    0 55.247062 44.352487 -16.936471 -0.786311 0.403957 0.467476 0 0
    0 60.877012 24.496974 -16.936479 0.891921 0.343712 -0.293835 0 0
  phy
    0 60.882817 64.092959 17.000020 0.877594 -0.342698 0.335242 0 0
    0 44.718765 76.676302 17.000018 -0.972512 -0.215049 -0.089305 0 0
    0 55.247071 44.352464 17.000013 -0.785909 -0.403208 -0.468797 0 0
  phy
    0 55.247071 44.352464 17.000013 -0.785909 -0.403208 -0.468797 0 0
    0 64.000004 44.352473 17.000016 0.954271 -0.123063 -0.272437 0 0
    0 60.882817 64.092959 17.000020 0.877594 -0.342698 0.335242 0 0
  phy
    0 55.247071 44.352464 17.000013 -0.785909 -0.403208 -0.468797 0 0
    0 44.718765 76.676302 17.000018 -0.972512 -0.215049 -0.089305 0 0
    0 55.247057 44.352478 -16.936472 -0.824910 0.278209 -0.492061 0 0
  phy
    0 55.247071 44.352464 17.000013 -0.785909 -0.403208 -0.468797 0 0
    0 55.247057 44.352478 -16.936472 -0.824910 0.278209 -0.492061 0 0
    0 64.000004 44.352473 17.000016 0.954271 -0.123063 -0.272437 0 0
  phy
    0 60.882817 64.092959 17.000020 0.877594 -0.342698 0.335242 0 0
    0 51.777072 82.139753 17.000021 0.595265 -0.246909 0.764654 0 0
    0 44.718765 76.676302 17.000018 -0.972512 -0.215049 -0.089305 0 0
  phy
    0 60.882817 64.092959 17.000020 0.877594 -0.342698 0.335242 0 0
    0 64.000004 44.352473 17.000016 0.954271 -0.123063 -0.272437 0 0
    0 60.882817 64.092997 -16.936476 0.942708 0.219343 0.251378 0 0
  phy
    0 60.882817 64.092997 -16.936476 0.942708 0.219343 0.251378 0 0
    0 51.777081 82.139781 -16.936465 0.568784 0.377693 0.730638 0 0
    0 60.882817 64.092959 17.000020 0.877594 -0.342698 0.335242 0 0
  phy
    0 60.882817 64.092959 17.000020 0.877594 -0.342698 0.335242 0 0
    0 51.777081 82.139781 -16.936465 0.568784 0.377693 0.730638 0 0
    0 51.777072 82.139753 17.000021 0.595265 -0.246909 0.764654 0 0
  phy
    0 51.777072 82.139753 17.000021 0.595265 -0.246909 0.764654 0 0
    0 51.777081 82.139781 -16.936465 0.568784 0.377693 0.730638 0 0
    0 44.718765 76.676302 17.000018 -0.972512 -0.215049 -0.089305 0 0
  phy
    0 51.777081 82.139781 -16.936465 0.568784 0.377693 0.730638 0 0
    0 44.718756 76.676311 -16.936458 -0.972176 0.216572 -0.089274 0 0
    0 44.718765 76.676302 17.000018 -0.972512 -0.215049 -0.089305 0 0
  phy
    0 55.247057 44.352478 -16.936472 -0.824910 0.278209 -0.492061 0 0
    0 44.718765 76.676302 17.000018 -0.972512 -0.215049 -0.089305 0 0
    0 44.718756 76.676311 -16.936458 -0.972176 0.216572 -0.089274 0 0
  phy
    0 60.882817 64.092997 -16.936476 0.942708 0.219343 0.251378 0 0
    0 55.247057 44.352478 -16.936472 -0.824910 0.278209 -0.492061 0 0
    0 51.777081 82.139781 -16.936465 0.568784 0.377693 0.730638 0 0
  phy
    0 55.247057 44.352478 -16.936472 -0.824910 0.278209 -0.492061 0 0
    0 60.882817 64.092997 -16.936476 0.942708 0.219343 0.251378 0 0
    0 64.000004 44.352492 -16.936480 0.933305 0.240719 -0.266451 0 0
  phy
    0 60.882817 64.092997 -16.936476 0.942708 0.219343 0.251378 0 0
    0 64.000004 44.352473 17.000016 0.954271 -0.123063 -0.272437 0 0
    0 64.000004 44.352492 -16.936480 0.933305 0.240719 -0.266451 0 0
  phy
    0 51.777081 82.139781 -16.936465 0.568784 0.377693 0.730638 0 0
    0 55.247057 44.352478 -16.936472 -0.824910 0.278209 -0.492061 0 0
    0 44.718756 76.676311 -16.936458 -0.972176 0.216572 -0.089274 0 0
  phy
    0 55.247057 44.352478 -16.936472 -0.824910 0.278209 -0.492061 0 0
    0 64.000004 44.352492 -16.936480 0.933305 0.240719 -0.266451 0 0
    0 64.000004 44.352473 17.000016 0.954271 -0.123063 -0.272437 0 0
  phy
    0 16.930990 96.978165 -16.936462 -0.674372 0.115938 -0.729233 0 0
    0 44.718756 76.676326 -16.936466 -0.339236 0.500263 -0.796652 0 0
    0 44.718746 76.676288 17.000016 -0.389229 -0.114053 -0.914053 0 0
  phy
    0 16.930990 96.978165 -16.936462 -0.674372 0.115938 -0.729233 0 0
    0 44.718746 76.676288 17.000016 -0.389229 -0.114053 -0.914053 0 0
    0 16.930982 96.978146 17.000025 -0.787061 -0.393707 -0.474899 0 0
  phy
    0 44.718756 76.676326 -16.936466 -0.339236 0.500263 -0.796652 0 0
    0 16.930990 96.978165 -16.936462 -0.674372 0.115938 -0.729233 0 0
    0 19.777089 105.136999 -16.936464 0.039857 0.373902 0.926611 0 0
  phy
    0 19.777089 105.136999 -16.936464 0.039857 0.373902 0.926611 0 0
    0 16.930990 96.978165 -16.936462 -0.674372 0.115938 -0.729233 0 0
    0 16.930982 96.978146 17.000025 -0.787061 -0.393707 -0.474899 0 0
  phy
    0 37.627633 96.087906 17.000025 0.582994 -0.045173 0.811220 0 0
    0 51.777081 82.139753 -16.936466 0.932002 0.124327 0.340463 0 0
    0 37.627654 96.087906 -16.936465 0.552097 0.324062 0.768227 0 0
  phy
    0 51.777081 82.139725 17.000020 0.644940 -0.727012 0.235598 0 0
    0 51.777081 82.139753 -16.936466 0.932002 0.124327 0.340463 0 0
    0 37.627633 96.087906 17.000025 0.582994 -0.045173 0.811220 0 0
  phy
    0 19.777079 105.136971 17.000028 0.036253 -0.536962 0.842827 0 0
    0 51.777081 82.139725 17.000020 0.644940 -0.727012 0.235598 0 0
    0 37.627633 96.087906 17.000025 0.582994 -0.045173 0.811220 0 0
  phy
    0 37.627654 96.087906 -16.936465 0.552097 0.324062 0.768227 0 0
    0 19.777089 105.136999 -16.936464 0.039857 0.373902 0.926611 0 0
    0 37.627633 96.087906 17.000025 0.582994 -0.045173 0.811220 0 0
  phy
    0 37.627633 96.087906 17.000025 0.582994 -0.045173 0.811220 0 0
    0 19.777089 105.136999 -16.936464 0.039857 0.373902 0.926611 0 0
    0 19.777079 105.136971 17.000028 0.036253 -0.536962 0.842827 0 0
  phy
    0 37.627654 96.087906 -16.936465 0.552097 0.324062 0.768227 0 0
    0 44.718756 76.676326 -16.936466 -0.339236 0.500263 -0.796652 0 0
    0 19.777089 105.136999 -16.936464 0.039857 0.373902 0.926611 0 0
  phy
    0 44.718756 76.676326 -16.936466 -0.339236 0.500263 -0.796652 0 0
    0 37.627654 96.087906 -16.936465 0.552097 0.324062 0.768227 0 0
    0 51.777081 82.139753 -16.936466 0.932002 0.124327 0.340463 0 0
  phy
    0 44.718746 76.676288 17.000016 -0.389229 -0.114053 -0.914053 0 0
    0 44.718756 76.676326 -16.936466 -0.339236 0.500263 -0.796652 0 0
    0 51.777081 82.139753 -16.936466 0.932002 0.124327 0.340463 0 0
  phy
    0 51.777081 82.139725 17.000020 0.644940 -0.727012 0.235598 0 0
    0 44.718746 76.676288 17.000016 -0.389229 -0.114053 -0.914053 0 0
    0 51.777081 82.139753 -16.936466 0.932002 0.124327 0.340463 0 0
  phy
    0 51.777081 82.139725 17.000020 0.644940 -0.727012 0.235598 0 0
    0 16.930982 96.978146 17.000025 -0.787061 -0.393707 -0.474899 0 0
    0 44.718746 76.676288 17.000016 -0.389229 -0.114053 -0.914053 0 0
  phy
    0 19.777079 105.136971 17.000028 0.036253 -0.536962 0.842827 0 0
    0 19.777089 105.136999 -16.936464 0.039857 0.373902 0.926611 0 0
    0 16.930982 96.978146 17.000025 -0.787061 -0.393707 -0.474899 0 0
  phy
    0 19.777079 105.136971 17.000028 0.036253 -0.536962 0.842827 0 0
    0 16.930982 96.978146 17.000025 -0.787061 -0.393707 -0.474899 0 0
    0 51.777081 82.139725 17.000020 0.644940 -0.727012 0.235598 0 0
  phy
    0 -19.777093 105.136971 17.000024 -0.360349 -0.126210 0.924240 0 0
    0 -0.000023 108.213584 17.000027 0.050571 -0.215253 0.975248 0 0
    0 0.000097 108.213603 -16.936458 -0.050572 0.215252 0.975248 0 0
  phy
    0 0.000097 108.213603 -16.936458 -0.050572 0.215252 0.975248 0 0
    0 -19.777093 105.136971 -16.936453 -0.670073 0.560523 0.486638 0 0
    0 -19.777093 105.136971 17.000024 -0.360349 -0.126210 0.924240 0 0
  phy
    0 -19.777093 105.136971 17.000024 -0.360349 -0.126210 0.924240 0 0
    0 -16.930997 96.978165 17.000020 -0.341602 -0.444570 -0.828050 0 0
    0 -0.000023 108.213584 17.000027 0.050571 -0.215253 0.975248 0 0
  phy
    0 -16.930997 96.978165 17.000020 -0.341602 -0.444570 -0.828050 0 0
    0 -19.777093 105.136971 17.000024 -0.360349 -0.126210 0.924240 0 0
    0 -19.777093 105.136971 -16.936453 -0.670073 0.560523 0.486638 0 0
  phy
    0 16.930976 96.978184 -16.936458 0.341602 0.444570 -0.828049 0 0
    0 0.000097 108.213603 -16.936458 -0.050572 0.215252 0.975248 0 0
    0 19.777089 105.137008 -16.936460 0.360351 0.126209 0.924239 0 0
  phy
    0 0.000097 108.213603 -16.936458 -0.050572 0.215252 0.975248 0 0
    0 16.930976 96.978184 -16.936458 0.341602 0.444570 -0.828049 0 0
    0 -19.777093 105.136971 -16.936453 -0.670073 0.560523 0.486638 0 0
  phy
    0 -0.000023 108.213584 17.000027 0.050571 -0.215253 0.975248 0 0
    0 19.777089 105.137008 -16.936460 0.360351 0.126209 0.924239 0 0
    0 0.000097 108.213603 -16.936458 -0.050572 0.215252 0.975248 0 0
  phy
    0 -16.930997 96.978165 -16.936451 -0.114101 0.113851 -0.986924 0 0
    0 16.930989 96.978184 17.000023 0.114101 -0.113850 -0.986924 0 0
    0 -16.930997 96.978165 17.000020 -0.341602 -0.444570 -0.828050 0 0
  phy
    0 16.930989 96.978184 17.000023 0.114101 -0.113850 -0.986924 0 0
    0 -16.930997 96.978165 -16.936451 -0.114101 0.113851 -0.986924 0 0
    0 16.930976 96.978184 -16.936458 0.341602 0.444570 -0.828049 0 0
  phy
    0 16.930989 96.978184 17.000023 0.114101 -0.113850 -0.986924 0 0
    0 19.777089 105.136971 17.000027 0.670074 -0.560524 0.486636 0 0
    0 -16.930997 96.978165 17.000020 -0.341602 -0.444570 -0.828050 0 0
  phy
    0 16.930976 96.978184 -16.936458 0.341602 0.444570 -0.828049 0 0
    0 19.777089 105.136971 17.000027 0.670074 -0.560524 0.486636 0 0
    0 16.930989 96.978184 17.000023 0.114101 -0.113850 -0.986924 0 0
  phy
    0 -16.930997 96.978165 -16.936451 -0.114101 0.113851 -0.986924 0 0
    0 -16.930997 96.978165 17.000020 -0.341602 -0.444570 -0.828050 0 0
    0 -19.777093 105.136971 -16.936453 -0.670073 0.560523 0.486638 0 0
  phy
    0 16.930976 96.978184 -16.936458 0.341602 0.444570 -0.828049 0 0
    0 -16.930997 96.978165 -16.936451 -0.114101 0.113851 -0.986924 0 0
    0 -19.777093 105.136971 -16.936453 -0.670073 0.560523 0.486638 0 0
  phy
    0 -16.930997 96.978165 17.000020 -0.341602 -0.444570 -0.828050 0 0
    0 19.777089 105.136971 17.000027 0.670074 -0.560524 0.486636 0 0
    0 -0.000023 108.213584 17.000027 0.050571 -0.215253 0.975248 0 0
  phy
    0 19.777089 105.136971 17.000027 0.670074 -0.560524 0.486636 0 0
    0 19.777089 105.137008 -16.936460 0.360351 0.126209 0.924239 0 0
    0 -0.000023 108.213584 17.000027 0.050571 -0.215253 0.975248 0 0
  phy
    0 16.930976 96.978184 -16.936458 0.341602 0.444570 -0.828049 0 0
    0 19.777089 105.137008 -16.936460 0.360351 0.126209 0.924239 0 0
    0 19.777089 105.136971 17.000027 0.670074 -0.560524 0.486636 0 0
  phy
    0 -37.627671 96.087869 17.000025 -0.562320 -0.267522 0.782450 0 0
    0 -37.627708 96.087831 -16.936460 -0.552098 0.324061 0.768227 0 0
    0 -51.777091 82.139744 -16.936460 -0.836387 0.129845 0.532538 0 0
  phy
    0 -51.777091 82.139744 -16.936460 -0.836387 0.129845 0.532538 0 0
    0 -51.777109 82.139725 17.000018 -0.979006 -0.203827 0.001290 0 0
    0 -37.627671 96.087869 17.000025 -0.562320 -0.267522 0.782450 0 0
  phy
    0 -44.718770 76.676344 -16.936462 0.376396 0.277529 -0.883914 0 0
    0 -51.777091 82.139744 -16.936460 -0.836387 0.129845 0.532538 0 0
    0 -37.627708 96.087831 -16.936460 -0.552098 0.324061 0.768227 0 0
  phy
    0 -51.777091 82.139744 -16.936460 -0.836387 0.129845 0.532538 0 0
    0 -44.718770 76.676344 -16.936462 0.376396 0.277529 -0.883914 0 0
    0 -51.777109 82.139725 17.000018 -0.979006 -0.203827 0.001290 0 0
  phy
    0 -44.718770 76.676316 17.000016 0.358024 -0.406107 -0.840771 0 0
    0 -16.930995 96.978184 17.000023 0.734400 -0.215500 -0.643596 0 0
    0 -37.627671 96.087869 17.000025 -0.562320 -0.267522 0.782450 0 0
  phy
    0 -37.627671 96.087869 17.000025 -0.562320 -0.267522 0.782450 0 0
    0 -51.777109 82.139725 17.000018 -0.979006 -0.203827 0.001290 0 0
    0 -44.718770 76.676316 17.000016 0.358024 -0.406107 -0.840771 0 0
  phy
    0 -44.718770 76.676316 17.000016 0.358024 -0.406107 -0.840771 0 0
    0 -44.718770 76.676344 -16.936462 0.376396 0.277529 -0.883914 0 0
    0 -16.930995 96.978184 17.000023 0.734400 -0.215500 -0.643596 0 0
  phy
    0 -44.718770 76.676344 -16.936462 0.376396 0.277529 -0.883914 0 0
    0 -44.718770 76.676316 17.000016 0.358024 -0.406107 -0.840771 0 0
    0 -51.777109 82.139725 17.000018 -0.979006 -0.203827 0.001290 0 0
  phy
    0 -19.777089 105.137008 -16.936459 -0.039862 0.373901 0.926612 0 0
    0 -37.627708 96.087831 -16.936460 -0.552098 0.324061 0.768227 0 0
    0 -37.627671 96.087869 17.000025 -0.562320 -0.267522 0.782450 0 0
  phy
    0 -37.627671 96.087869 17.000025 -0.562320 -0.267522 0.782450 0 0
    0 -19.777098 105.137008 17.000027 -0.041755 -0.236859 0.970646 0 0
    0 -19.777089 105.137008 -16.936459 -0.039862 0.373901 0.926612 0 0
  phy
    0 -19.777089 105.137008 -16.936459 -0.039862 0.373901 0.926612 0 0
    0 -44.718770 76.676344 -16.936462 0.376396 0.277529 -0.883914 0 0
    0 -37.627708 96.087831 -16.936460 -0.552098 0.324061 0.768227 0 0
  phy
    0 -44.718770 76.676344 -16.936462 0.376396 0.277529 -0.883914 0 0
    0 -19.777089 105.137008 -16.936459 -0.039862 0.373901 0.926612 0 0
    0 -16.931000 96.978221 -16.936459 0.734270 0.216282 -0.643482 0 0
  phy
    0 -19.777098 105.137008 17.000027 -0.041755 -0.236859 0.970646 0 0
    0 -16.930995 96.978184 17.000023 0.734400 -0.215500 -0.643596 0 0
    0 -19.777089 105.137008 -16.936459 -0.039862 0.373901 0.926612 0 0
  phy
    0 -19.777089 105.137008 -16.936459 -0.039862 0.373901 0.926612 0 0
    0 -16.930995 96.978184 17.000023 0.734400 -0.215500 -0.643596 0 0
    0 -16.931000 96.978221 -16.936459 0.734270 0.216282 -0.643482 0 0
  phy
    0 -37.627671 96.087869 17.000025 -0.562320 -0.267522 0.782450 0 0
    0 -16.930995 96.978184 17.000023 0.734400 -0.215500 -0.643596 0 0
    0 -19.777098 105.137008 17.000027 -0.041755 -0.236859 0.970646 0 0
  phy
    0 -44.718770 76.676344 -16.936462 0.376396 0.277529 -0.883914 0 0
    0 -16.931000 96.978221 -16.936459 0.734270 0.216282 -0.643482 0 0
    0 -16.930995 96.978184 17.000023 0.734400 -0.215500 -0.643596 0 0
  phy
    0 -44.718774 76.676316 -16.936462 0.972176 0.216572 -0.089274 0 0
    0 -44.718770 76.676311 17.000018 0.968458 -0.232764 -0.088933 0 0
    0 -55.247067 44.352487 -16.936471 0.834854 0.234568 -0.497992 0 0
  phy
    0 -55.247067 44.352487 -16.936471 0.834854 0.234568 -0.497992 0 0
    0 -44.718770 76.676311 17.000018 0.968458 -0.232764 -0.088933 0 0
    0 -55.247067 44.352473 17.000009 0.838492 -0.216264 -0.500162 0 0
  phy
    0 -44.718774 76.676316 -16.936462 0.972176 0.216572 -0.089274 0 0
    0 -55.247067 44.352487 -16.936471 0.834854 0.234568 -0.497992 0 0
    0 -51.777091 82.139753 -16.936467 -0.542274 0.469797 0.696585 0 0
  phy
    0 -51.777091 82.139753 -16.936467 -0.542274 0.469797 0.696585 0 0
    0 -55.247067 44.352487 -16.936471 0.834854 0.234568 -0.497992 0 0
    0 -63.999976 44.352492 -16.936478 -0.945329 0.320493 -0.060304 0 0
  phy
    0 -55.247067 44.352487 -16.936471 0.834854 0.234568 -0.497992 0 0
    0 -55.247067 44.352473 17.000009 0.838492 -0.216264 -0.500162 0 0
    0 -63.999985 44.352478 17.000011 -0.602896 -0.665887 -0.439444 0 0
  phy
    0 -63.999976 44.352492 -16.936478 -0.945329 0.320493 -0.060304 0 0
    0 -55.247067 44.352487 -16.936471 0.834854 0.234568 -0.497992 0 0
    0 -63.999985 44.352478 17.000011 -0.602896 -0.665887 -0.439444 0 0
  phy
    0 -60.882808 64.092997 17.000017 -0.950465 -0.045767 0.307443 0 0
    0 -60.882794 64.093039 -16.936474 -0.947493 0.091247 0.306482 0 0
    0 -63.999976 44.352492 -16.936478 -0.945329 0.320493 -0.060304 0 0
  phy
    0 -60.882808 64.092997 17.000017 -0.950465 -0.045767 0.307443 0 0
    0 -63.999976 44.352492 -16.936478 -0.945329 0.320493 -0.060304 0 0
    0 -63.999985 44.352478 17.000011 -0.602896 -0.665887 -0.439444 0 0
  phy
    0 -60.882808 64.092997 17.000017 -0.950465 -0.045767 0.307443 0 0
    0 -63.999985 44.352478 17.000011 -0.602896 -0.665887 -0.439444 0 0
    0 -51.777081 82.139744 17.000021 -0.513305 -0.549314 0.659372 0 0
  phy
    0 -60.882794 64.093039 -16.936474 -0.947493 0.091247 0.306482 0 0
    0 -60.882808 64.092997 17.000017 -0.950465 -0.045767 0.307443 0 0
    0 -51.777091 82.139753 -16.936467 -0.542274 0.469797 0.696585 0 0
  phy
    0 -60.882808 64.092997 17.000017 -0.950465 -0.045767 0.307443 0 0
    0 -51.777081 82.139744 17.000021 -0.513305 -0.549314 0.659372 0 0
    0 -51.777091 82.139753 -16.936467 -0.542274 0.469797 0.696585 0 0
  phy
    0 -51.777091 82.139753 -16.936467 -0.542274 0.469797 0.696585 0 0
    0 -44.718770 76.676311 17.000018 0.968458 -0.232764 -0.088933 0 0
    0 -44.718774 76.676316 -16.936462 0.972176 0.216572 -0.089274 0 0
  phy
    0 -60.882794 64.093039 -16.936474 -0.947493 0.091247 0.306482 0 0
    0 -51.777091 82.139753 -16.936467 -0.542274 0.469797 0.696585 0 0
    0 -63.999976 44.352492 -16.936478 -0.945329 0.320493 -0.060304 0 0
  phy
    0 -44.718770 76.676311 17.000018 0.968458 -0.232764 -0.088933 0 0
    0 -63.999985 44.352478 17.000011 -0.602896 -0.665887 -0.439444 0 0
    0 -55.247067 44.352473 17.000009 0.838492 -0.216264 -0.500162 0 0
  phy
    0 -51.777081 82.139744 17.000021 -0.513305 -0.549314 0.659372 0 0
    0 -44.718770 76.676311 17.000018 0.968458 -0.232764 -0.088933 0 0
    0 -51.777091 82.139753 -16.936467 -0.542274 0.469797 0.696585 0 0
  phy
    0 -51.777081 82.139744 17.000021 -0.513305 -0.549314 0.659372 0 0
    0 -63.999985 44.352478 17.000011 -0.602896 -0.665887 -0.439444 0 0
    0 -44.718770 76.676311 17.000018 0.968458 -0.232764 -0.088933 0 0
  phy
    0 -51.646223 6.853218 17.000009 -0.597475 -0.235936 -0.766392 0 0
    0 -51.646214 6.853232 -16.936544 -0.765536 0.225624 -0.602535 0 0
    0 -44.695815 11.882209 17.000005 0.929484 -0.361524 -0.073207 0 0
  phy
    0 -51.646214 6.853232 -16.936544 -0.765536 0.225624 -0.602535 0 0
    0 -51.646223 6.853218 17.000009 -0.597475 -0.235936 -0.766392 0 0
    0 -60.877012 24.497021 17.000127 -0.926322 -0.220907 -0.305168 0 0
  phy
    0 -44.695815 11.882209 17.000005 0.929484 -0.361524 -0.073207 0 0
    0 -60.877012 24.497021 17.000127 -0.926322 -0.220907 -0.305168 0 0
    0 -51.646223 6.853218 17.000009 -0.597475 -0.235936 -0.766392 0 0
  phy
    0 -63.999995 44.352478 17.000016 -0.792740 -0.204464 0.574245 0 0
    0 -55.247076 44.352478 17.000011 0.884804 -0.227278 0.406776 0 0
    0 -55.247067 44.352487 -16.936474 0.742644 0.191543 0.641709 0 0
  phy
    0 -55.247067 44.352487 -16.936474 0.742644 0.191543 0.641709 0 0
    0 -64.000013 44.352487 -16.936539 -0.929922 0.351226 -0.109017 0 0
    0 -63.999995 44.352478 17.000016 -0.792740 -0.204464 0.574245 0 0
  phy
    0 -63.999995 44.352478 17.000016 -0.792740 -0.204464 0.574245 0 0
    0 -60.877012 24.497021 17.000127 -0.926322 -0.220907 -0.305168 0 0
    0 -55.247076 44.352478 17.000011 0.884804 -0.227278 0.406776 0 0
  phy
    0 -60.877012 24.497021 17.000127 -0.926322 -0.220907 -0.305168 0 0
    0 -63.999995 44.352478 17.000016 -0.792740 -0.204464 0.574245 0 0
    0 -64.000013 44.352487 -16.936539 -0.929922 0.351226 -0.109017 0 0
  phy
    0 -55.247076 44.352478 17.000011 0.884804 -0.227278 0.406776 0 0
    0 -44.695805 11.882223 -16.936480 0.950765 0.243033 0.192303 0 0
    0 -55.247067 44.352487 -16.936474 0.742644 0.191543 0.641709 0 0
  phy
    0 -55.247067 44.352487 -16.936474 0.742644 0.191543 0.641709 0 0
    0 -44.695805 11.882223 -16.936480 0.950765 0.243033 0.192303 0 0
    0 -64.000013 44.352487 -16.936539 -0.929922 0.351226 -0.109017 0 0
  phy
    0 -44.695815 11.882209 17.000005 0.929484 -0.361524 -0.073207 0 0
    0 -51.646214 6.853232 -16.936544 -0.765536 0.225624 -0.602535 0 0
    0 -44.695805 11.882223 -16.936480 0.950765 0.243033 0.192303 0 0
  phy
    0 -51.646214 6.853232 -16.936544 -0.765536 0.225624 -0.602535 0 0
    0 -60.877012 24.497021 17.000127 -0.926322 -0.220907 -0.305168 0 0
    0 -64.000013 44.352487 -16.936539 -0.929922 0.351226 -0.109017 0 0
  phy
    0 -44.695805 11.882223 -16.936480 0.950765 0.243033 0.192303 0 0
    0 -51.646214 6.853232 -16.936544 -0.765536 0.225624 -0.602535 0 0
    0 -64.000013 44.352487 -16.936539 -0.929922 0.351226 -0.109017 0 0
  phy
    0 -55.247076 44.352478 17.000011 0.884804 -0.227278 0.406776 0 0
    0 -60.877012 24.497021 17.000127 -0.926322 -0.220907 -0.305168 0 0
    0 -44.695815 11.882209 17.000005 0.929484 -0.361524 -0.073207 0 0
  phy
    0 -44.695815 11.882209 17.000005 0.929484 -0.361524 -0.073207 0 0
    0 -44.695805 11.882223 -16.936480 0.950765 0.243033 0.192303 0 0
    0 -55.247076 44.352478 17.000011 0.884804 -0.227278 0.406776 0 0
  phy
    0 -45.789494 0.011292 17.000005 -0.331027 -0.066322 -0.941288 0 0
    0 -51.646223 6.853218 -16.936484 -0.962477 0.116713 -0.244983 0 0
    0 -45.789494 0.011303 -16.936486 -0.314034 0.322479 -0.892967 0 0
  phy
    0 -51.646223 6.853218 -16.936484 -0.962477 0.116713 -0.244983 0 0
    0 -45.789494 0.011292 17.000005 -0.331027 -0.066322 -0.941288 0 0
    0 -51.646223 6.853208 17.000007 -0.845041 -0.352304 0.402228 0 0
  phy
    0 -51.646223 6.853218 -16.936484 -0.962477 0.116713 -0.244983 0 0
    0 -44.695805 11.882208 -16.936483 0.327046 0.167920 0.929970 0 0
    0 -45.789494 0.011303 -16.936486 -0.314034 0.322479 -0.892967 0 0
  phy
    0 -51.646223 6.853218 -16.936484 -0.962477 0.116713 -0.244983 0 0
    0 -51.646223 6.853208 17.000007 -0.845041 -0.352304 0.402228 0 0
    0 -44.695805 11.882208 -16.936483 0.327046 0.167920 0.929970 0 0
  phy
    0 -44.695805 11.882196 17.000005 0.324822 -0.203399 0.923645 0 0
    0 -32.136168 -0.007976 17.000001 0.870131 -0.258013 0.419883 0 0
    0 -44.695805 11.882208 -16.936483 0.327046 0.167920 0.929970 0 0
  phy
    0 -44.695805 11.882208 -16.936483 0.327046 0.167920 0.929970 0 0
    0 -51.646223 6.853208 17.000007 -0.845041 -0.352304 0.402228 0 0
    0 -44.695805 11.882196 17.000005 0.324822 -0.203399 0.923645 0 0
  phy
    0 -44.695805 11.882196 17.000005 0.324822 -0.203399 0.923645 0 0
    0 -51.646223 6.853208 17.000007 -0.845041 -0.352304 0.402228 0 0
    0 -32.136168 -0.007976 17.000001 0.870131 -0.258013 0.419883 0 0
  phy
    0 -32.136168 -0.007965 -16.936486 0.607376 0.244789 -0.755759 0 0
    0 -45.789494 0.011292 17.000005 -0.331027 -0.066322 -0.941288 0 0
    0 -45.789494 0.011303 -16.936486 -0.314034 0.322479 -0.892967 0 0
  phy
    0 -45.789494 0.011292 17.000005 -0.331027 -0.066322 -0.941288 0 0
    0 -32.136168 -0.007965 -16.936486 0.607376 0.244789 -0.755759 0 0
    0 -32.136168 -0.007976 17.000001 0.870131 -0.258013 0.419883 0 0
  phy
    0 -32.136168 -0.007976 17.000001 0.870131 -0.258013 0.419883 0 0
    0 -51.646223 6.853208 17.000007 -0.845041 -0.352304 0.402228 0 0
    0 -45.789494 0.011292 17.000005 -0.331027 -0.066322 -0.941288 0 0
  phy
    0 -44.695805 11.882208 -16.936483 0.327046 0.167920 0.929970 0 0
    0 -32.136168 -0.007965 -16.936486 0.607376 0.244789 -0.755759 0 0
    0 -45.789494 0.011303 -16.936486 -0.314034 0.322479 -0.892967 0 0
  phy
    0 -44.695805 11.882208 -16.936483 0.327046 0.167920 0.929970 0 0
    0 -32.136168 -0.007976 17.000001 0.870131 -0.258013 0.419883 0 0
    0 -32.136168 -0.007965 -16.936486 0.607376 0.244789 -0.755759 0 0
  phy
    1 -55.444998 -0.044998 -6.245000 -0.111628 0.991874 -0.061033 0 0
    1 0.044999 -0.044998 -6.245000 0.213522 0.948626 -0.233488 0 0
    1 -55.444998 -0.045002 6.245000 -0.400530 -0.889729 -0.218992 0 0
  phy
    1 -55.444998 -0.045002 6.245000 -0.400530 -0.889729 -0.218992 0 0
    1 0.044999 -0.044998 -6.245000 0.213522 0.948626 -0.233488 0 0
    1 0.044999 -0.045002 6.245000 0.219197 -0.973839 -0.059924 0 0
  phy
    1 0.044999 -0.044998 -6.245000 0.213522 0.948626 -0.233488 0 0
    1 -55.444998 -0.044998 -6.245000 -0.111628 0.991874 -0.061033 0 0
    1 0.044999 101.445022 -6.244968 0.219197 0.973839 0.059924 0 0
  phy
    1 0.044999 101.445022 -6.244968 0.219197 0.973839 0.059924 0 0
    1 -55.444998 -0.044998 -6.245000 -0.111628 0.991874 -0.061033 0 0
    1 -55.444998 101.445022 -6.244968 -0.400530 0.889729 0.218992 0 0
  phy
    1 -55.444998 101.445022 -6.244968 -0.400530 0.889729 0.218992 0 0
    1 -55.444998 -0.044998 -6.245000 -0.111628 0.991874 -0.061033 0 0
    1 -55.444998 -0.045002 6.245000 -0.400530 -0.889729 -0.218992 0 0
  phy
    1 -55.444998 101.445022 -6.244968 -0.400530 0.889729 0.218992 0 0
    1 -55.444998 -0.045002 6.245000 -0.400530 -0.889729 -0.218992 0 0
    1 -55.444998 101.445022 6.245031 -0.111628 -0.991874 0.061033 0 0
  phy
    1 0.044999 101.445022 -6.244968 0.219197 0.973839 0.059924 0 0
    1 0.044999 -0.045002 6.245000 0.219197 -0.973839 -0.059924 0 0
    1 0.044999 -0.044998 -6.245000 0.213522 0.948626 -0.233488 0 0
  phy
    1 0.044999 101.445022 -6.244968 0.219197 0.973839 0.059924 0 0
    1 0.044999 101.445022 6.245031 0.213522 -0.948626 0.233488 0 0
    1 0.044999 -0.045002 6.245000 0.219197 -0.973839 -0.059924 0 0
  phy
    1 0.044999 -0.045002 6.245000 0.219197 -0.973839 -0.059924 0 0
    1 -55.444998 101.445022 6.245031 -0.111628 -0.991874 0.061033 0 0
    1 -55.444998 -0.045002 6.245000 -0.400530 -0.889729 -0.218992 0 0
  phy
    1 0.044999 -0.045002 6.245000 0.219197 -0.973839 -0.059924 0 0
    1 0.044999 101.445022 6.245031 0.213522 -0.948626 0.233488 0 0
    1 -55.444998 101.445022 6.245031 -0.111628 -0.991874 0.061033 0 0
  phy
    1 0.044999 101.445022 6.245031 0.213522 -0.948626 0.233488 0 0
    1 -55.444998 101.445022 -6.244968 -0.400530 0.889729 0.218992 0 0
    1 -55.444998 101.445022 6.245031 -0.111628 -0.991874 0.061033 0 0
  phy
    1 0.044999 101.445022 6.245031 0.213522 -0.948626 0.233488 0 0
    1 0.044999 101.445022 -6.244968 0.219197 0.973839 0.059924 0 0
    1 -55.444998 101.445022 -6.244968 -0.400530 0.889729 0.218992 0 0
  phy
    2 -0.044999 -0.044998 -6.245000 -0.213522 0.948626 -0.233488 0 0
    2 -0.044999 101.445022 -6.244968 -0.219197 0.973839 0.059924 0 0
    2 55.444998 -0.044998 -6.245000 0.111628 0.991874 -0.061033 0 0
  phy
    2 55.444998 -0.044998 -6.245000 0.111628 0.991874 -0.061033 0 0
    2 -0.044999 101.445022 -6.244968 -0.219197 0.973839 0.059924 0 0
    2 55.444998 101.445022 -6.244968 0.400530 0.889729 0.218992 0 0
  phy
    2 -0.044999 101.445022 6.245031 -0.213522 -0.948626 0.233488 0 0
    2 -0.044999 101.445022 -6.244968 -0.219197 0.973839 0.059924 0 0
    2 -0.044999 -0.045002 6.245000 -0.219197 -0.973839 -0.059924 0 0
  phy
    2 -0.044999 -0.045002 6.245000 -0.219197 -0.973839 -0.059924 0 0
    2 -0.044999 101.445022 -6.244968 -0.219197 0.973839 0.059924 0 0
    2 -0.044999 -0.044998 -6.245000 -0.213522 0.948626 -0.233488 0 0
  phy
    2 -0.044999 101.445022 6.245031 -0.213522 -0.948626 0.233488 0 0
    2 55.444998 101.445022 -6.244968 0.400530 0.889729 0.218992 0 0
    2 -0.044999 101.445022 -6.244968 -0.219197 0.973839 0.059924 0 0
  phy
    2 -0.044999 101.445022 6.245031 -0.213522 -0.948626 0.233488 0 0
    2 55.444998 101.445022 6.245031 0.111628 -0.991874 0.061033 0 0
    2 55.444998 101.445022 -6.244968 0.400530 0.889729 0.218992 0 0
  phy
    2 -0.044999 -0.045002 6.245000 -0.219197 -0.973839 -0.059924 0 0
    2 55.444998 101.445022 6.245031 0.111628 -0.991874 0.061033 0 0
    2 -0.044999 101.445022 6.245031 -0.213522 -0.948626 0.233488 0 0
  phy
    2 -0.044999 -0.045002 6.245000 -0.219197 -0.973839 -0.059924 0 0
    2 55.444998 -0.045002 6.245000 0.400530 -0.889729 -0.218992 0 0
    2 55.444998 101.445022 6.245031 0.111628 -0.991874 0.061033 0 0
  phy
    2 -0.044999 -0.045002 6.245000 -0.219197 -0.973839 -0.059924 0 0
    2 -0.044999 -0.044998 -6.245000 -0.213522 0.948626 -0.233488 0 0
    2 55.444998 -0.045002 6.245000 0.400530 -0.889729 -0.218992 0 0
  phy
    2 55.444998 -0.045002 6.245000 0.400530 -0.889729 -0.218992 0 0
    2 -0.044999 -0.044998 -6.245000 -0.213522 0.948626 -0.233488 0 0
    2 55.444998 -0.044998 -6.245000 0.111628 0.991874 -0.061033 0 0
  phy
    2 55.444998 -0.045002 6.245000 0.400530 -0.889729 -0.218992 0 0
    2 55.444998 101.445022 -6.244968 0.400530 0.889729 0.218992 0 0
    2 55.444998 101.445022 6.245031 0.111628 -0.991874 0.061033 0 0
  phy
    2 55.444998 -0.045002 6.245000 0.400530 -0.889729 -0.218992 0 0
    2 55.444998 -0.044998 -6.245000 0.111628 0.991874 -0.061033 0 0
    2 55.444998 101.445022 -6.244968 0.400530 0.889729 0.218992 0 0
end
