// Created by Crowbar 0.74
version 1
nodes
  0 "portal_button_export" -1
  1 "portal_button_root" 0
  2 "portal_button_top" 1
end
skeleton
  time 0
    0 0.000000 0.000000 0.000000 0.000000 0.000000 -0.000007
    1 0.000000 0.000000 0.000000 1.570784 0.000016 1.570784
    2 0.000000 13.640244 0.000000 0.000000 0.000000 0.000000
  time 1
    0 0.000000 0.000000 0.000000 0.000000 0.000000 -0.000007
    1 0.000000 0.000000 0.000000 1.570784 0.000016 1.570784
    2 0.000000 12.843344 0.000000 0.000000 0.000000 0.000000
  time 2
    0 0.000000 0.000000 0.000000 0.000000 0.000000 -0.000007
    1 0.000000 0.000000 0.000000 1.570784 0.000016 1.570784
    2 0.000000 11.952692 0.000000 0.000000 0.000000 0.000000
  time 3
    0 0.000000 0.000000 0.000000 0.000000 0.000000 -0.000007
    1 0.000000 0.000000 0.000000 1.570784 0.000016 1.570784
    2 0.000000 11.003444 0.000000 0.000000 0.000000 0.000000
  time 4
    0 0.000000 0.000000 0.000000 0.000000 0.000000 -0.000007
    1 0.000000 0.000000 0.000000 1.570784 0.000016 1.570784
    2 0.000000 10.026852 0.000000 0.000000 0.000000 0.000000
  time 5
    0 0.000000 0.000000 0.000000 0.000000 0.000000 -0.000007
    1 0.000000 0.000000 0.000000 1.570784 0.000016 1.570784
    2 0.000000 9.085417 0.000000 0.000000 0.000000 0.000000
  time 6
    0 0.000000 0.000000 0.000000 0.000000 0.000000 -0.000007
    1 0.000000 0.000000 0.000000 1.570784 0.000016 1.570784
    2 0.000000 8.218203 0.000000 0.000000 0.000000 0.000000
  time 7
    0 0.000000 0.000000 0.000000 0.000000 0.000000 -0.000007
    1 0.000000 0.000000 0.000000 1.570784 0.000016 1.570784
    2 0.000000 7.464274 0.000000 0.000000 0.000000 0.000000
  time 8
    0 0.000000 0.000000 0.000000 0.000000 0.000000 -0.000007
    1 0.000000 0.000000 0.000000 1.570784 0.000016 1.570784
    2 0.000000 6.874412 0.000000 0.000000 0.000000 0.000000
  time 9
    0 0.000000 0.000000 0.000000 0.000000 0.000000 -0.000007
    1 0.000000 0.000000 0.000000 1.570784 0.000016 1.570784
    2 0.000000 6.491588 0.000000 0.000000 0.000000 0.000000
  time 10
    0 0.000000 0.000000 0.000000 0.000000 0.000000 -0.000007
    1 0.000000 0.000000 0.000000 1.570784 0.000016 1.570784
    2 0.000000 6.350959 0.000000 0.000000 0.000000 0.000000
end
