// Created by Crowbar 0.74
version 1
nodes
  0 "grid" -1
end
skeleton
  time 0
    0 0.000000 0.000000 0.000000 1.570796 0.000000 0.000000
end
triangles
Portal_1_Anims
  0 -32.000000 -1.000002 54.000000 0.000000 -1.000000 0.000000 0.000000 1.000000 1 0 1.000000
  0 32.000000 -0.999998 -54.000000 0.000000 -1.000000 0.000000 1.000000 0.000000 1 0 1.000000
  0 32.000000 -1.000002 54.000000 0.000000 -1.000000 0.000000 1.000000 1.000000 1 0 1.000000
Portal_1_Anims
  0 -32.000000 -1.000002 54.000000 0.000000 -1.000000 0.000000 0.000000 1.000000 1 0 1.000000
  0 -32.000000 -0.999998 -54.000000 0.000000 -1.000000 0.000000 0.000000 0.000000 1 0 1.000000
  0 32.000000 -0.999998 -54.000000 0.000000 -1.000000 0.000000 1.000000 0.000000 1 0 1.000000
end
