// Created by Crowbar 0.74
version 1
nodes
  0 "ValveBiped.Bip01" -1
  1 "ValveBiped.Bip01_Spine" 0
  2 "ValveBiped.Bip01_Spine1" 1
  3 "ValveBiped.Bip01_Spine2" 2
  4 "ValveBiped.Bip01_Spine4" 3
  5 "ValveBiped.Bip01_L_Clavicle" 4
  6 "ValveBiped.Bip01_L_UpperArm" 5
  7 "ValveBiped.Bip01_L_Forearm" 6
  8 "ValveBiped.Bip01_L_Hand" 7
  9 "ValveBiped.Bip01_L_Finger4" 8
  10 "ValveBiped.Bip01_L_Finger41" 9
  11 "ValveBiped.Bip01_L_Finger42" 10
  12 "ValveBiped.Bip01_L_Finger3" 8
  13 "ValveBiped.Bip01_L_Finger31" 12
  14 "ValveBiped.Bip01_L_Finger32" 13
  15 "ValveBiped.Bip01_L_Finger2" 8
  16 "ValveBiped.Bip01_L_Finger21" 15
  17 "ValveBiped.Bip01_L_Finger22" 16
  18 "ValveBiped.Bip01_L_Finger1" 8
  19 "ValveBiped.Bip01_L_Finger11" 18
  20 "ValveBiped.Bip01_L_Finger12" 19
  21 "ValveBiped.Bip01_L_Finger0" 8
  22 "ValveBiped.Bip01_L_Finger01" 21
  23 "ValveBiped.Bip01_L_Finger02" 22
  24 "ValveBiped.Bip01_R_Clavicle" 4
  25 "ValveBiped.Bip01_R_UpperArm" 24
  26 "ValveBiped.Bip01_R_Forearm" 25
  27 "ValveBiped.Bip01_R_Hand" 26
  28 "ValveBiped.Bip01_R_Finger4" 27
  29 "ValveBiped.Bip01_R_Finger41" 28
  30 "ValveBiped.Bip01_R_Finger42" 29
  31 "ValveBiped.Bip01_R_Finger3" 27
  32 "ValveBiped.Bip01_R_Finger31" 31
  33 "ValveBiped.Bip01_R_Finger32" 32
  34 "ValveBiped.Bip01_R_Finger2" 27
  35 "ValveBiped.Bip01_R_Finger21" 34
  36 "ValveBiped.Bip01_R_Finger22" 35
  37 "ValveBiped.Bip01_R_Finger1" 27
  38 "ValveBiped.Bip01_R_Finger11" 37
  39 "ValveBiped.Bip01_R_Finger12" 38
  40 "ValveBiped.Bip01_R_Finger0" 27
  41 "ValveBiped.Bip01_R_Finger01" 40
  42 "ValveBiped.Bip01_R_Finger02" 41
  43 "ValveBiped.Base" 27
  44 "ValveBiped.Casing_RotZ" 43
  45 "ValveBiped.Gyro1_RotX" 43
  46 "ValveBiped.Gyro2_RotY" 45
  47 "ValveBiped.Gyro3_RotX" 46
  48 "ValveBiped.Mag1_RotZ" 43
  49 "ValveBiped.Mag2_RotZ" 43
  50 "ValveBiped.Mag3_RotZ" 43
  51 "ValveBiped.Mag4_RotZ" 43
  52 "ValveBiped.Mag5_RotZ" 43
  53 "ValveBiped.Mag6_RotZ" 43
  54 "ValveBiped.Mag7_RotZ" 43
  55 "ValveBiped.Mag8_RotZ" 43
  56 "ValveBiped.Arm1_A" 43
  57 "ValveBiped.Arm1_B" 56
  58 "ValveBiped.Arm2_A" 43
  59 "ValveBiped.Arm2_B" 58
  60 "ValveBiped.Arm3_A" 43
  61 "ValveBiped.Arm3_B" 60
  62 "ValveBiped.Arm4_A" 43
  63 "ValveBiped.Arm4_B" 62
  64 "ValveBiped.Dial" 43
  65 "ValveBiped.Mag9_RotZ" 43
  66 "Root" -1
end
skeleton
  time 0
    0 -0.533595 0.000000 38.566879 1.570796 0.000000 -1.570796
    1 0.000000 3.345131 -2.981898 1.570796 0.083193 1.570796
    2 3.995838 0.000000 0.000000 0.000000 0.000000 -0.028816
    3 3.520283 0.000000 0.000000 0.000000 0.000000 0.097307
    4 8.921463 0.000000 0.000000 0.000000 0.000000 0.186413
    5 2.059513 0.977920 1.937661 1.589740 -1.286515 2.950147
    6 36.923675 -70.634544 -10.130977 4.400385 -0.183705 0.342290
    7 11.692564 0.000000 0.000011 0.000000 0.000000 -0.745832
    8 11.481674 0.000001 -0.000034 1.329220 0.087758 0.746815
    9 3.850418 0.126099 -1.223440 -0.317316 -0.182678 -1.175166
    10 1.312561 0.000000 0.000000 -0.035210 0.041488 -1.113081
    11 0.729366 0.000004 0.000000 -0.013075 0.038597 -0.567715
    12 3.926350 0.316490 -0.462519 -0.168907 -0.159042 -1.089467
    13 1.539101 0.000000 -0.000002 -0.003295 0.001738 -1.334676
    14 1.196331 -0.000002 0.000000 -0.004291 0.004431 -1.200192
    15 3.881380 0.214687 0.400251 -0.056575 -0.204695 -1.030413
    16 1.719583 0.000004 0.000000 0.018838 -0.007916 -1.539002
    17 1.209183 -0.000001 0.000008 0.008062 -0.008108 -0.998649
    18 3.871292 0.117424 1.300905 -0.020042 -0.190438 -1.160275
    19 1.719425 -0.000004 0.000002 0.101231 -0.032227 -1.611435
    20 1.099674 0.000004 -0.000004 0.042294 -0.053202 -0.907071
    21 0.838839 -0.300285 1.312777 -0.847487 -0.487805 -0.629244
    22 1.789783 -0.000002 0.000011 -0.000556 -0.003669 0.378873
    23 1.207006 0.000001 0.000004 -0.001696 -0.005420 0.664304
    24 2.059517 0.977922 -1.937661 -1.661569 1.286515 2.950147
    25 15.159338 -57.578723 -14.418990 0.085783 0.058030 -1.939749
    26 11.692570 -0.000004 0.000000 0.000000 0.000000 -0.735495
    27 11.481654 0.000000 0.000016 -1.610898 0.181262 -0.196406
    28 3.850428 0.126099 1.223438 0.218437 0.059429 -1.236277
    29 1.312562 0.000001 0.000000 0.013556 -0.052694 -0.660926
    30 0.729362 0.000000 0.000000 0.035126 -0.020663 -1.280268
    31 3.926355 0.316488 0.462502 0.078919 0.018325 -1.052031
    32 1.539096 0.000000 -0.000008 0.003022 -0.002131 -1.198664
    33 1.196321 0.000002 0.000011 0.004719 -0.004015 -1.294263
    34 3.881386 0.214694 -0.400257 -0.013550 -0.002191 -0.994617
    35 1.719579 0.000000 0.000000 -0.018227 0.009235 -1.467873
    36 1.209180 -0.000002 -0.000008 -0.009139 0.006871 -1.142228
    37 3.871304 0.117424 -1.300907 -0.078201 -0.025271 -1.087899
    38 1.719431 0.000000 -0.000004 -0.098412 0.040018 -1.533477
    39 1.099665 -0.000001 -0.000004 -0.043317 0.052396 -0.926108
    40 0.838848 -0.300291 -1.312786 1.038393 0.338527 -0.651145
    41 1.789780 -0.000002 0.000000 0.000000 0.003711 0.332742
    42 1.207002 0.000004 0.000000 0.000000 0.005668 0.612525
    43 -0.534583 0.295797 -0.001972 -1.591880 0.022078 -1.868741
    44 0.113788 -0.132996 14.720029 0.000000 0.000000 0.000000
    45 0.113787 -0.132980 9.513787 0.000000 0.000000 0.000000
    46 -0.000001 0.000004 0.000000 0.000000 0.000000 0.000000
    47 -0.000001 0.000000 0.000000 0.000000 0.000000 0.000000
    48 0.113791 -0.132973 16.481380 0.000000 0.000000 0.000000
    49 0.113788 -0.132973 18.076752 0.000000 0.000000 0.000000
    50 0.113789 -0.132969 19.676247 0.000000 0.000000 0.000000
    51 0.113791 -0.132980 21.255905 0.000000 0.000000 0.000000
    52 0.113788 -0.132980 22.869106 -0.000012 0.000000 0.000000
    53 0.113791 -0.132980 24.483315 0.000000 0.000000 0.000000
    54 0.113790 -0.132977 26.066456 0.000000 0.000000 0.000000
    55 0.113790 -0.132980 27.665100 0.000000 0.000000 0.000000
    56 4.717026 4.484177 33.327862 0.030874 0.029553 -0.762254
    57 0.089302 4.272583 4.480568 0.000000 0.000000 0.000000
    58 4.922175 -5.137234 33.583321 0.000000 0.000000 -2.327265
    59 0.001394 4.167400 4.226917 0.000000 0.000000 0.000000
    60 -4.578506 -5.283134 33.331905 0.000000 0.000000 2.438902
    61 0.269684 4.148857 4.474522 0.000000 0.000000 0.000000
    62 -4.409222 4.440941 33.338566 0.000000 0.000000 0.763647
    63 -0.045498 4.393921 4.464542 0.000000 0.000000 0.000000
    64 -4.439061 3.922569 13.956212 0.075659 -0.411864 0.634747
    65 0.113791 -0.132977 29.243565 0.000000 0.000000 0.000000
    66 0.000002 -16.000000 -57.000000 1.570788 0.000007 -0.000007
  time 1
    0 -0.533595 0.000000 38.566879 1.570796 0.000000 -1.570796
    1 0.000000 3.345131 -2.981898 1.570796 0.083193 1.570796
    2 3.995838 0.000000 0.000000 0.000000 0.000000 -0.028816
    3 3.520283 0.000000 0.000000 0.000000 0.000000 0.097307
    4 8.921463 0.000000 0.000000 0.000000 0.000000 0.186413
    5 2.059513 0.977920 1.937661 1.589740 -1.286515 2.950147
    6 34.872831 -72.783048 -9.240325 4.337299 -0.180806 0.350503
    7 11.692564 0.000000 0.000011 0.000000 0.000000 -0.745832
    8 11.481674 0.000001 -0.000034 1.329220 0.087758 0.746815
    9 3.850418 0.126099 -1.223440 -0.317316 -0.182678 -1.175166
    10 1.312561 0.000000 0.000000 -0.035210 0.041488 -1.113081
    11 0.729366 0.000004 0.000000 -0.013075 0.038597 -0.567715
    12 3.926350 0.316490 -0.462519 -0.168907 -0.159042 -1.089467
    13 1.539101 0.000000 -0.000002 -0.003295 0.001738 -1.334676
    14 1.196331 -0.000002 0.000000 -0.004291 0.004431 -1.200192
    15 3.881380 0.214687 0.400251 -0.056575 -0.204695 -1.030413
    16 1.719583 0.000004 0.000000 0.018838 -0.007916 -1.539002
    17 1.209183 -0.000001 0.000008 0.008062 -0.008108 -0.998649
    18 3.871292 0.117424 1.300905 -0.020042 -0.190438 -1.160275
    19 1.719425 -0.000004 0.000002 0.101231 -0.032227 -1.611435
    20 1.099674 0.000004 -0.000004 0.042294 -0.053202 -0.907071
    21 0.838839 -0.300285 1.312777 -0.847487 -0.487805 -0.629244
    22 1.789783 -0.000002 0.000011 -0.000556 -0.003669 0.378873
    23 1.207006 0.000001 0.000004 -0.001696 -0.005420 0.664304
    24 2.059517 0.977922 -1.937661 -1.661569 1.286515 2.950147
    25 17.635976 -57.082614 -14.086949 0.049049 0.108066 -1.937757
    26 11.692570 -0.000004 0.000000 0.000000 0.000000 -0.735495
    27 11.481654 0.000000 0.000016 -1.610898 0.181262 -0.196406
    28 3.850428 0.126099 1.223438 0.218437 0.059429 -1.236277
    29 1.312562 0.000001 0.000000 0.013556 -0.052694 -0.660926
    30 0.729362 0.000000 0.000000 0.035126 -0.020663 -1.280268
    31 3.926355 0.316488 0.462502 0.078919 0.018325 -1.052031
    32 1.539096 0.000000 -0.000008 0.003022 -0.002131 -1.198664
    33 1.196321 0.000002 0.000011 0.004719 -0.004015 -1.294263
    34 3.881386 0.214694 -0.400257 -0.013550 -0.002191 -0.994617
    35 1.719579 0.000000 0.000000 -0.018227 0.009235 -1.467873
    36 1.209180 -0.000002 -0.000008 -0.009139 0.006871 -1.142228
    37 3.871304 0.117424 -1.300907 -0.078201 -0.025271 -1.087899
    38 1.719431 0.000000 -0.000004 -0.098412 0.040018 -1.533477
    39 1.099665 -0.000001 -0.000004 -0.043317 0.052396 -0.926108
    40 0.838848 -0.300291 -1.312786 1.038393 0.338527 -0.651145
    41 1.789780 -0.000002 0.000000 0.000000 0.003711 0.332742
    42 1.207002 0.000004 0.000000 0.000000 0.005668 0.612525
    43 -0.534583 0.295797 -0.001972 -1.591880 -0.047708 -1.867315
    44 0.113788 -0.132996 14.720029 0.000000 0.000000 0.153206
    45 0.113787 -0.132980 9.513787 0.000000 0.000000 0.000000
    46 -0.000001 0.000004 0.000000 0.000000 0.000000 0.000000
    47 -0.000001 0.000000 0.000000 0.000000 0.000000 0.000000
    48 0.113791 -0.132973 16.481380 0.000000 0.000000 -0.263182
    49 0.113788 -0.132973 18.076752 0.000000 0.000000 0.263174
    50 0.113789 -0.132969 19.676247 0.000012 0.000000 -0.263174
    51 0.113791 -0.132980 21.255905 0.000000 0.000000 0.263182
    52 0.113788 -0.132980 22.869106 -0.000012 0.000000 -0.263182
    53 0.113791 -0.132980 24.483315 0.000000 0.000000 0.263182
    54 0.113790 -0.132977 26.066456 0.000000 0.000000 -0.263182
    55 0.113790 -0.132980 27.665100 0.000000 0.000000 0.263174
    56 4.717026 4.484177 33.327862 -0.274559 0.029553 -0.762254
    57 0.089302 4.272583 4.480568 0.120837 0.000000 0.000000
    58 4.922175 -5.137234 33.583321 -0.305433 0.000000 -2.327265
    59 0.001394 4.167400 4.226917 0.120869 0.000000 0.000000
    60 -4.578506 -5.283134 33.331905 0.000000 0.000000 2.438902
    61 0.269684 4.148857 4.474522 0.000000 0.000000 0.000000
    62 -4.409222 4.440941 33.338566 -0.305440 0.000000 0.763647
    63 -0.045498 4.393921 4.464542 0.159254 0.000000 0.000000
    64 -4.439061 3.922569 13.956212 0.075659 -0.411864 0.634747
    65 0.113791 -0.132977 29.243565 0.000012 0.000000 -0.263182
    66 0.000002 -16.000000 -57.000000 1.570788 0.000007 -0.000007
  time 2
    0 -0.533595 0.000000 38.566879 1.570796 0.000000 -1.570796
    1 0.000000 3.345131 -2.981898 1.570796 0.083193 1.570796
    2 3.995838 0.000000 0.000000 0.000000 0.000000 -0.028816
    3 3.520283 0.000000 0.000000 0.000000 0.000000 0.097307
    4 8.921463 0.000000 0.000000 0.000000 0.000000 0.186413
    5 2.059513 0.977920 1.937661 1.589740 -1.286515 2.950147
    6 31.743830 -74.994053 -8.326234 4.259662 -0.164375 0.366260
    7 11.692564 0.000000 0.000011 0.000000 0.000000 -0.745832
    8 11.481674 0.000001 -0.000034 1.329220 0.087758 0.746815
    9 3.850418 0.126099 -1.223440 -0.317316 -0.182678 -1.175166
    10 1.312561 0.000000 0.000000 -0.035210 0.041488 -1.113081
    11 0.729366 0.000004 0.000000 -0.013075 0.038597 -0.567715
    12 3.926350 0.316490 -0.462519 -0.168907 -0.159042 -1.089467
    13 1.539101 0.000000 -0.000002 -0.003295 0.001738 -1.334676
    14 1.196331 -0.000002 0.000000 -0.004291 0.004431 -1.200192
    15 3.881380 0.214687 0.400251 -0.056575 -0.204695 -1.030413
    16 1.719583 0.000004 0.000000 0.018838 -0.007916 -1.539002
    17 1.209183 -0.000001 0.000008 0.008062 -0.008108 -0.998649
    18 3.871292 0.117424 1.300905 -0.020042 -0.190438 -1.160275
    19 1.719425 -0.000004 0.000002 0.101231 -0.032227 -1.611435
    20 1.099674 0.000004 -0.000004 0.042294 -0.053202 -0.907071
    21 0.838839 -0.300285 1.312777 -0.847487 -0.487805 -0.629244
    22 1.789783 -0.000002 0.000011 -0.000556 -0.003669 0.378873
    23 1.207006 0.000001 0.000004 -0.001696 -0.005420 0.664304
    24 2.059517 0.977922 -1.937661 -1.661569 1.286515 2.950147
    25 20.917326 -56.000550 -13.540057 -0.007208 0.163044 -1.944515
    26 11.692570 -0.000004 0.000000 0.000000 0.000000 -0.735495
    27 11.481654 0.000000 0.000016 -1.610898 0.181262 -0.196406
    28 3.850428 0.126099 1.223438 0.218437 0.059429 -1.236277
    29 1.312562 0.000001 0.000000 0.013556 -0.052694 -0.660926
    30 0.729362 0.000000 0.000000 0.035126 -0.020663 -1.280268
    31 3.926355 0.316488 0.462502 0.078919 0.018325 -1.052031
    32 1.539096 0.000000 -0.000008 0.003022 -0.002131 -1.198664
    33 1.196321 0.000002 0.000011 0.004719 -0.004015 -1.294263
    34 3.881386 0.214694 -0.400257 -0.013550 -0.002191 -0.994617
    35 1.719579 0.000000 0.000000 -0.018227 0.009235 -1.467873
    36 1.209180 -0.000002 -0.000008 -0.009139 0.006871 -1.142228
    37 3.871304 0.117424 -1.300907 -0.078201 -0.025271 -1.087899
    38 1.719431 0.000000 -0.000004 -0.098412 0.040018 -1.533477
    39 1.099665 -0.000001 -0.000004 -0.043317 0.052396 -0.926108
    40 0.838848 -0.300291 -1.312786 1.038393 0.338527 -0.651145
    41 1.789780 -0.000002 0.000000 0.000000 0.003711 0.332742
    42 1.207002 0.000004 0.000000 0.000000 0.005668 0.612525
    43 -0.534583 0.295797 -0.001972 -1.591977 -0.117507 -1.865832
    44 0.113788 -0.132996 14.720029 0.000000 0.000000 0.548494
    45 0.113787 -0.132980 9.513787 0.000000 0.000000 0.000000
    46 -0.000001 0.000004 0.000000 0.000000 0.000000 0.000000
    47 -0.000001 0.000000 0.000000 0.000000 0.000000 0.000000
    48 0.113791 -0.132973 16.481380 0.000000 0.000000 -0.890023
    49 0.113788 -0.132973 18.076752 0.000000 0.000000 0.889996
    50 0.113789 -0.132969 19.676247 0.000000 0.000000 -0.889996
    51 0.113791 -0.132980 21.255905 0.000000 0.000000 0.890023
    52 0.113788 -0.132980 22.869106 0.000000 0.000000 -0.890023
    53 0.113791 -0.132980 24.483315 0.000000 0.000000 0.890023
    54 0.113790 -0.132977 26.066456 0.000000 0.000000 -0.890023
    55 0.113790 -0.132980 27.665100 0.000000 0.000000 0.889996
    56 4.717026 4.484177 33.327862 -0.579993 0.029553 -0.762254
    57 0.089302 4.272583 4.480568 0.392682 0.000000 0.000000
    58 4.922175 -5.137234 33.583321 -0.610828 0.000000 -2.327265
    59 0.001394 4.167400 4.226917 0.392647 0.000000 0.000000
    60 -4.578506 -5.283134 33.331905 0.000000 0.000000 2.438902
    61 0.269684 4.148857 4.474522 0.000000 0.000000 0.000000
    62 -4.409222 4.440941 33.338566 -0.610881 0.000000 0.763647
    63 -0.045498 4.393921 4.464542 0.523592 0.000000 0.000000
    64 -4.439061 3.922569 13.956212 0.075659 -0.411864 0.634747
    65 0.113791 -0.132977 29.243565 0.000000 0.000000 -0.890023
    66 0.000002 -16.000000 -57.000000 1.570788 0.000007 -0.000007
  time 3
    0 -0.533595 0.000000 38.566879 1.570796 0.000000 -1.570796
    1 0.000000 3.345131 -2.981898 1.570796 0.083193 1.570796
    2 3.995838 0.000000 0.000000 0.000000 0.000000 -0.028816
    3 3.520283 0.000000 0.000000 0.000000 0.000000 0.097307
    4 8.921463 0.000000 0.000000 0.000000 0.000000 0.186413
    5 2.059513 0.977920 1.937661 1.589740 -1.286515 2.950147
    6 30.911773 -75.310468 -8.209043 4.242239 -0.150337 0.384691
    7 11.692564 0.000000 0.000011 0.000000 0.000000 -0.745832
    8 11.481674 0.000001 -0.000034 1.329220 0.087758 0.746815
    9 3.850418 0.126099 -1.223440 -0.317316 -0.182678 -1.175166
    10 1.312561 0.000000 0.000000 -0.035210 0.041488 -1.113081
    11 0.729366 0.000004 0.000000 -0.013075 0.038597 -0.567715
    12 3.926350 0.316490 -0.462519 -0.168907 -0.159042 -1.089467
    13 1.539101 0.000000 -0.000002 -0.003295 0.001738 -1.334676
    14 1.196331 -0.000002 0.000000 -0.004291 0.004431 -1.200192
    15 3.881380 0.214687 0.400251 -0.056575 -0.204695 -1.030413
    16 1.719583 0.000004 0.000000 0.018838 -0.007916 -1.539002
    17 1.209183 -0.000001 0.000008 0.008062 -0.008108 -0.998649
    18 3.871292 0.117424 1.300905 -0.020042 -0.190438 -1.160275
    19 1.719425 -0.000004 0.000002 0.101231 -0.032227 -1.611435
    20 1.099674 0.000004 -0.000004 0.042294 -0.053202 -0.907071
    21 0.838839 -0.300285 1.312777 -0.847487 -0.487805 -0.629244
    22 1.789783 -0.000002 0.000011 -0.000556 -0.003669 0.378873
    23 1.207006 0.000001 0.000004 -0.001696 -0.005420 0.664304
    24 2.059517 0.977922 -1.937661 -1.661569 1.286515 2.950147
    25 21.874387 -55.742730 -13.465836 -0.029676 0.169537 -1.962484
    26 11.692570 -0.000004 0.000000 0.000000 0.000000 -0.735495
    27 11.481654 0.000000 0.000016 -1.610898 0.181262 -0.196406
    28 3.850428 0.126099 1.223438 0.218437 0.059429 -1.236277
    29 1.312562 0.000001 0.000000 0.013556 -0.052694 -0.660926
    30 0.729362 0.000000 0.000000 0.035126 -0.020663 -1.280268
    31 3.926355 0.316488 0.462502 0.078919 0.018325 -1.052031
    32 1.539096 0.000000 -0.000008 0.003022 -0.002131 -1.198664
    33 1.196321 0.000002 0.000011 0.004719 -0.004015 -1.294263
    34 3.881386 0.214694 -0.400257 -0.013550 -0.002191 -0.994617
    35 1.719579 0.000000 0.000000 -0.018227 0.009235 -1.467873
    36 1.209180 -0.000002 -0.000008 -0.009139 0.006871 -1.142228
    37 3.871304 0.117424 -1.300907 -0.078201 -0.025271 -1.087899
    38 1.719431 0.000000 -0.000004 -0.098412 0.040018 -1.533477
    39 1.099665 -0.000001 -0.000004 -0.043317 0.052396 -0.926108
    40 0.838848 -0.300291 -1.312786 1.038393 0.338527 -0.651145
    41 1.789780 -0.000002 0.000000 0.000000 0.003711 0.332742
    42 1.207002 0.000004 0.000000 0.000000 0.005668 0.612525
    43 -0.534583 0.295797 -0.001972 -1.591977 -0.115170 -1.865889
    44 0.113788 -0.132996 14.720029 0.000000 0.000000 1.066979
    45 0.113787 -0.132980 9.513787 0.000000 0.000000 0.000000
    46 -0.000001 0.000004 0.000000 0.000000 0.000000 0.000000
    47 -0.000001 0.000000 0.000000 0.000000 0.000000 0.000000
    48 0.113791 -0.132973 16.481380 0.000000 0.000000 -1.570652
    49 0.113788 -0.132973 18.076752 0.000000 0.000000 1.570604
    50 0.113789 -0.132969 19.676247 0.000000 0.000012 -1.570796
    51 0.113791 -0.132980 21.255905 0.000000 0.000000 1.570652
    52 0.113788 -0.132980 22.869106 0.000000 0.000000 -1.570652
    53 0.113791 -0.132980 24.483315 0.000000 0.000000 1.570652
    54 0.113790 -0.132977 26.066456 0.000000 0.000000 -1.570652
    55 0.113790 -0.132980 27.665100 0.000000 0.000000 1.570604
    56 4.717026 4.484177 33.327862 -0.554099 0.029553 -0.762254
    57 0.089302 4.272583 4.480568 0.664494 0.000000 0.000000
    58 4.922175 -5.137234 33.583321 -0.584953 0.000000 -2.327265
    59 0.001394 4.167400 4.226917 0.664490 0.000000 0.000000
    60 -4.578506 -5.283134 33.331905 0.000000 0.000000 2.438902
    61 0.269684 4.148857 4.474522 0.000000 0.000000 0.000000
    62 -4.409222 4.440941 33.338566 -0.584968 0.000000 0.763647
    63 -0.045498 4.393921 4.464542 0.887930 0.000000 0.000000
    64 -4.439061 3.922569 13.956212 0.075659 -0.411864 0.634747
    65 0.113791 -0.132977 29.243565 0.000000 0.000012 -1.570652
    66 0.000002 -16.000000 -57.000000 1.570788 0.000007 -0.000007
  time 4
    0 -0.533595 0.000000 38.566879 1.570796 0.000000 -1.570796
    1 0.000000 3.345131 -2.981898 1.570796 0.083193 1.570796
    2 3.995838 0.000000 0.000000 0.000000 0.000000 -0.028816
    3 3.520283 0.000000 0.000000 0.000000 0.000000 0.097307
    4 8.921463 0.000000 0.000000 0.000000 0.000000 0.186413
    5 2.059513 0.977920 1.937661 1.589740 -1.286515 2.950147
    6 31.216470 -75.056554 -8.267639 4.253056 -0.135794 0.405987
    7 11.692564 0.000000 0.000011 0.000000 0.000000 -0.745832
    8 11.481674 0.000001 -0.000034 1.329220 0.087758 0.746815
    9 3.850418 0.126099 -1.223440 -0.317316 -0.182678 -1.175166
    10 1.312561 0.000000 0.000000 -0.035210 0.041488 -1.113081
    11 0.729366 0.000004 0.000000 -0.013075 0.038597 -0.567715
    12 3.926350 0.316490 -0.462519 -0.168907 -0.159042 -1.089467
    13 1.539101 0.000000 -0.000002 -0.003295 0.001738 -1.334676
    14 1.196331 -0.000002 0.000000 -0.004291 0.004431 -1.200192
    15 3.881380 0.214687 0.400251 -0.056575 -0.204695 -1.030413
    16 1.719583 0.000004 0.000000 0.018838 -0.007916 -1.539002
    17 1.209183 -0.000001 0.000008 0.008062 -0.008108 -0.998649
    18 3.871292 0.117424 1.300905 -0.020042 -0.190438 -1.160275
    19 1.719425 -0.000004 0.000002 0.101231 -0.032227 -1.611435
    20 1.099674 0.000004 -0.000004 0.042294 -0.053202 -0.907071
    21 0.838839 -0.300285 1.312777 -0.847487 -0.487805 -0.629244
    22 1.789783 -0.000002 0.000011 -0.000556 -0.003669 0.378873
    23 1.207006 0.000001 0.000004 -0.001696 -0.005420 0.664304
    24 2.059517 0.977922 -1.937661 -1.661569 1.286515 2.950147
    25 21.819698 -56.148992 -13.895537 -0.037820 0.152223 -1.985765
    26 11.692570 -0.000004 0.000000 0.000000 0.000000 -0.735495
    27 11.481654 0.000000 0.000016 -1.610898 0.181262 -0.196406
    28 3.850428 0.126099 1.223438 0.218437 0.059429 -1.236277
    29 1.312562 0.000001 0.000000 0.013556 -0.052694 -0.660926
    30 0.729362 0.000000 0.000000 0.035126 -0.020663 -1.280268
    31 3.926355 0.316488 0.462502 0.078919 0.018325 -1.052031
    32 1.539096 0.000000 -0.000008 0.003022 -0.002131 -1.198664
    33 1.196321 0.000002 0.000011 0.004719 -0.004015 -1.294263
    34 3.881386 0.214694 -0.400257 -0.013550 -0.002191 -0.994617
    35 1.719579 0.000000 0.000000 -0.018227 0.009235 -1.467873
    36 1.209180 -0.000002 -0.000008 -0.009139 0.006871 -1.142228
    37 3.871304 0.117424 -1.300907 -0.078201 -0.025271 -1.087899
    38 1.719431 0.000000 -0.000004 -0.098412 0.040018 -1.533477
    39 1.099665 -0.000001 -0.000004 -0.043317 0.052396 -0.926108
    40 0.838848 -0.300291 -1.312786 1.038393 0.338527 -0.651145
    41 1.789780 -0.000002 0.000000 0.000000 0.003711 0.332742
    42 1.207002 0.000004 0.000000 0.000000 0.005668 0.612525
    43 -0.534583 0.295797 -0.001972 -1.591977 -0.108626 -1.866004
    44 0.113788 -0.132996 14.720029 0.000000 0.000000 1.570604
    45 0.113787 -0.132980 9.513787 0.000000 0.000000 0.000000
    46 -0.000001 0.000004 0.000000 0.000000 0.000000 0.000000
    47 -0.000001 0.000000 0.000000 0.000000 0.000000 0.000000
    48 0.113791 -0.132973 16.481380 0.000000 0.000000 -2.122231
    49 0.113788 -0.132973 18.076752 0.000000 0.000000 2.122262
    50 0.113789 -0.132969 19.676247 0.000000 0.000012 -2.122262
    51 0.113791 -0.132980 21.255905 0.000000 0.000000 2.122231
    52 0.113788 -0.132980 22.869106 0.000000 0.000000 -2.122231
    53 0.113791 -0.132980 24.483315 0.000000 0.000000 2.122231
    54 0.113790 -0.132977 26.066456 0.000000 0.000000 -2.122231
    55 0.113790 -0.132980 27.665100 0.000000 0.000000 2.122262
    56 4.717026 4.484177 33.327862 -0.485403 0.029553 -0.762254
    57 0.089302 4.272583 4.480568 0.785395 0.000000 0.000000
    58 4.922175 -5.137234 33.583321 -0.516275 0.000000 -2.327265
    59 0.001394 4.167400 4.226917 0.785391 0.000000 0.000000
    60 -4.578506 -5.283134 33.331905 0.000000 0.000000 2.438902
    61 0.269684 4.148857 4.474522 0.000000 0.000000 0.000000
    62 -4.409222 4.440941 33.338566 -0.516270 0.000000 0.763647
    63 -0.045498 4.393921 4.464542 1.047152 0.000000 0.000000
    64 -4.439061 3.922569 13.956212 0.075659 -0.411864 0.634747
    65 0.113791 -0.132977 29.243565 0.000000 0.000012 -2.122231
    66 0.000002 -16.000000 -57.000000 1.570788 0.000007 -0.000007
  time 5
    0 -0.533595 0.000000 38.566879 1.570796 0.000000 -1.570796
    1 0.000000 3.345131 -2.981898 1.570796 0.083193 1.570796
    2 3.995838 0.000000 0.000000 0.000000 0.000000 -0.028816
    3 3.520283 0.000000 0.000000 0.000000 0.000000 0.097307
    4 8.921463 0.000000 0.000000 0.000000 0.000000 0.186413
    5 2.059513 0.977920 1.937661 1.589740 -1.286515 2.950147
    6 32.177437 -74.619041 -8.326234 4.274404 -0.123643 0.426328
    7 11.692564 0.000000 0.000011 0.000000 0.000000 -0.745832
    8 11.481674 0.000001 -0.000034 1.329220 0.087758 0.746815
    9 3.850418 0.126099 -1.223440 -0.317316 -0.182678 -1.175166
    10 1.312561 0.000000 0.000000 -0.035210 0.041488 -1.113081
    11 0.729366 0.000004 0.000000 -0.013075 0.038597 -0.567715
    12 3.926350 0.316490 -0.462519 -0.168907 -0.159042 -1.089467
    13 1.539101 0.000000 -0.000002 -0.003295 0.001738 -1.334676
    14 1.196331 -0.000002 0.000000 -0.004291 0.004431 -1.200192
    15 3.881380 0.214687 0.400251 -0.056575 -0.204695 -1.030413
    16 1.719583 0.000004 0.000000 0.018838 -0.007916 -1.539002
    17 1.209183 -0.000001 0.000008 0.008062 -0.008108 -0.998649
    18 3.871292 0.117424 1.300905 -0.020042 -0.190438 -1.160275
    19 1.719425 -0.000004 0.000002 0.101231 -0.032227 -1.611435
    20 1.099674 0.000004 -0.000004 0.042294 -0.053202 -0.907071
    21 0.838839 -0.300285 1.312777 -0.847487 -0.487805 -0.629244
    22 1.789783 -0.000002 0.000011 -0.000556 -0.003669 0.378873
    23 1.207006 0.000001 0.000004 -0.001696 -0.005420 0.664304
    24 2.059517 0.977922 -1.937661 -1.661569 1.286515 2.950147
    25 21.167334 -56.941985 -14.547901 -0.038051 0.127383 -2.008344
    26 11.692570 -0.000004 0.000000 0.000000 0.000000 -0.735495
    27 11.481654 0.000000 0.000016 -1.610898 0.181262 -0.196406
    28 3.850428 0.126099 1.223438 0.218437 0.059429 -1.236277
    29 1.312562 0.000001 0.000000 0.013556 -0.052694 -0.660926
    30 0.729362 0.000000 0.000000 0.035126 -0.020663 -1.280268
    31 3.926355 0.316488 0.462502 0.078919 0.018325 -1.052031
    32 1.539096 0.000000 -0.000008 0.003022 -0.002131 -1.198664
    33 1.196321 0.000002 0.000011 0.004719 -0.004015 -1.294263
    34 3.881386 0.214694 -0.400257 -0.013550 -0.002191 -0.994617
    35 1.719579 0.000000 0.000000 -0.018227 0.009235 -1.467873
    36 1.209180 -0.000002 -0.000008 -0.009139 0.006871 -1.142228
    37 3.871304 0.117424 -1.300907 -0.078201 -0.025271 -1.087899
    38 1.719431 0.000000 -0.000004 -0.098412 0.040018 -1.533477
    39 1.099665 -0.000001 -0.000004 -0.043317 0.052396 -0.926108
    40 0.838848 -0.300291 -1.312786 1.038393 0.338527 -0.651145
    41 1.789780 -0.000002 0.000000 0.000000 0.003711 0.332742
    42 1.207002 0.000004 0.000000 0.000000 0.005668 0.612525
    43 -0.534583 0.295797 -0.001972 -1.591929 -0.098655 -1.866232
    44 0.113788 -0.132996 14.720029 0.000000 0.000000 1.995421
    45 0.113787 -0.132980 9.513787 0.000000 0.000000 0.000000
    46 -0.000001 0.000004 0.000000 0.000000 0.000000 0.000000
    47 -0.000001 0.000000 0.000000 0.000000 0.000000 0.000000
    48 0.113791 -0.132973 16.481380 0.000000 0.000000 -2.625679
    49 0.113788 -0.132973 18.076752 0.000000 0.000000 2.625791
    50 0.113789 -0.132969 19.676247 -0.000012 0.000000 -2.625791
    51 0.113791 -0.132980 21.255905 0.000000 0.000000 2.625775
    52 0.113788 -0.132980 22.869106 0.000000 0.000000 -2.625679
    53 0.113791 -0.132980 24.483315 0.000000 0.000000 2.625775
    54 0.113790 -0.132977 26.066456 0.000000 0.000000 -2.625679
    55 0.113790 -0.132980 27.665100 0.000000 0.000000 2.625791
    56 4.717026 4.484177 33.327862 -0.387457 0.029553 -0.762254
    57 0.089302 4.272583 4.480568 0.767530 0.000000 0.000000
    58 4.922175 -5.137234 33.583321 -0.418311 0.000000 -2.327265
    59 0.001394 4.167400 4.226917 0.767526 0.000000 0.000000
    60 -4.578506 -5.283134 33.331905 0.000000 0.000000 2.438902
    61 0.269684 4.148857 4.474522 0.000000 0.000000 0.000000
    62 -4.409222 4.440941 33.338566 -0.418359 0.000000 0.763647
    63 -0.045498 4.393921 4.464542 1.023822 0.000000 0.000000
    64 -4.439061 3.922569 13.956212 0.075659 -0.411864 0.634747
    65 0.113791 -0.132977 29.243565 -0.000012 0.000000 -2.625679
    66 0.000002 -16.000000 -57.000000 1.570788 0.000007 -0.000007
  time 6
    0 -0.533595 0.000000 38.566879 1.570796 0.000000 -1.570796
    1 0.000000 3.345131 -2.981898 1.570796 0.083193 1.570796
    2 3.995838 0.000000 0.000000 0.000000 0.000000 -0.028816
    3 3.520283 0.000000 0.000000 0.000000 0.000000 0.097307
    4 8.921463 0.000000 0.000000 0.000000 0.000000 0.186413
    5 2.059513 0.977920 1.937661 1.589740 -1.286515 2.950147
    6 33.572011 -74.119026 -8.322328 4.296135 -0.119363 0.440558
    7 11.692564 0.000000 0.000011 0.000000 0.000000 -0.745832
    8 11.481674 0.000001 -0.000034 1.329220 0.087758 0.746815
    9 3.850418 0.126099 -1.223440 -0.317316 -0.182678 -1.175166
    10 1.312561 0.000000 0.000000 -0.035210 0.041488 -1.113081
    11 0.729366 0.000004 0.000000 -0.013075 0.038597 -0.567715
    12 3.926350 0.316490 -0.462519 -0.168907 -0.159042 -1.089467
    13 1.539101 0.000000 -0.000002 -0.003295 0.001738 -1.334676
    14 1.196331 -0.000002 0.000000 -0.004291 0.004431 -1.200192
    15 3.881380 0.214687 0.400251 -0.056575 -0.204695 -1.030413
    16 1.719583 0.000004 0.000000 0.018838 -0.007916 -1.539002
    17 1.209183 -0.000001 0.000008 0.008062 -0.008108 -0.998649
    18 3.871292 0.117424 1.300905 -0.020042 -0.190438 -1.160275
    19 1.719425 -0.000004 0.000002 0.101231 -0.032227 -1.611435
    20 1.099674 0.000004 -0.000004 0.042294 -0.053202 -0.907071
    21 0.838839 -0.300285 1.312777 -0.847487 -0.487805 -0.629244
    22 1.789783 -0.000002 0.000011 -0.000556 -0.003669 0.378873
    23 1.207006 0.000001 0.000004 -0.001696 -0.005420 0.664304
    24 2.059517 0.977922 -1.937661 -1.661569 1.286515 2.950147
    25 20.089176 -57.848263 -15.157294 -0.031062 0.106580 -2.024477
    26 11.692570 -0.000004 0.000000 0.000000 0.000000 -0.735495
    27 11.481654 0.000000 0.000016 -1.610898 0.181262 -0.196406
    28 3.850428 0.126099 1.223438 0.218437 0.059429 -1.236277
    29 1.312562 0.000001 0.000000 0.013556 -0.052694 -0.660926
    30 0.729362 0.000000 0.000000 0.035126 -0.020663 -1.280268
    31 3.926355 0.316488 0.462502 0.078919 0.018325 -1.052031
    32 1.539096 0.000000 -0.000008 0.003022 -0.002131 -1.198664
    33 1.196321 0.000002 0.000011 0.004719 -0.004015 -1.294263
    34 3.881386 0.214694 -0.400257 -0.013550 -0.002191 -0.994617
    35 1.719579 0.000000 0.000000 -0.018227 0.009235 -1.467873
    36 1.209180 -0.000002 -0.000008 -0.009139 0.006871 -1.142228
    37 3.871304 0.117424 -1.300907 -0.078201 -0.025271 -1.087899
    38 1.719431 0.000000 -0.000004 -0.098412 0.040018 -1.533477
    39 1.099665 -0.000001 -0.000004 -0.043317 0.052396 -0.926108
    40 0.838848 -0.300291 -1.312786 1.038393 0.338527 -0.651145
    41 1.789780 -0.000002 0.000000 0.000000 0.003711 0.332742
    42 1.207002 0.000004 0.000000 0.000000 0.005668 0.612525
    43 -0.534583 0.295797 -0.001972 -1.591929 -0.085999 -1.866517
    44 0.113788 -0.132996 14.720029 0.000000 0.000000 2.379779
    45 0.113787 -0.132980 9.513787 0.000000 0.000000 0.000000
    46 -0.000001 0.000004 0.000000 0.000000 0.000000 0.000000
    47 -0.000001 0.000000 0.000000 0.000000 0.000000 0.000000
    48 0.113791 -0.132973 16.481380 0.000000 0.000000 3.141592
    49 0.113788 -0.132973 18.076752 0.000000 0.000000 -3.141592
    50 0.113789 -0.132969 19.676247 -0.000012 0.000000 -3.141592
    51 0.113791 -0.132980 21.255905 0.000000 0.000000 3.141592
    52 0.113788 -0.132980 22.869106 0.000012 0.000000 3.141592
    53 0.113791 -0.132980 24.483315 0.000000 0.000000 3.141592
    54 0.113790 -0.132977 26.066456 0.000000 0.000000 -3.141400
    55 0.113790 -0.132980 27.665100 0.000000 0.000000 -3.141592
    56 4.717026 4.484177 33.327862 -0.274559 0.029553 -0.762254
    57 0.089302 4.272583 4.480568 0.718249 0.000000 0.000000
    58 4.922175 -5.137234 33.583321 -0.305433 0.000000 -2.327265
    59 0.001394 4.167400 4.226917 0.718245 0.000000 0.000000
    60 -4.578506 -5.283134 33.331905 0.000000 0.000000 2.438902
    61 0.269684 4.148857 4.474522 0.000000 0.000000 0.000000
    62 -4.409222 4.440941 33.338566 -0.305440 0.000000 0.763647
    63 -0.045498 4.393921 4.464542 0.959072 0.000000 0.000000
    64 -4.439061 3.922569 13.956212 0.075659 -0.411864 0.634747
    65 0.113791 -0.132977 29.243565 -0.000012 0.000000 3.141592
    66 0.000002 -16.000000 -57.000000 1.570788 0.000007 -0.000007
  time 7
    0 -0.533595 0.000000 38.566879 1.570796 0.000000 -1.570796
    1 0.000000 3.345131 -2.981898 1.570796 0.083193 1.570796
    2 3.995838 0.000000 0.000000 0.000000 0.000000 -0.028816
    3 3.520283 0.000000 0.000000 0.000000 0.000000 0.097307
    4 8.921463 0.000000 0.000000 0.000000 0.000000 0.186413
    5 2.059513 0.977920 1.937661 1.589740 -1.286515 2.950147
    6 34.857206 -73.533070 -8.365298 4.314324 -0.123413 0.444855
    7 11.692564 0.000000 0.000011 0.000000 0.000000 -0.745832
    8 11.481674 0.000001 -0.000034 1.329220 0.087758 0.746815
    9 3.850418 0.126099 -1.223440 -0.317316 -0.182678 -1.175166
    10 1.312561 0.000000 0.000000 -0.035210 0.041488 -1.113081
    11 0.729366 0.000004 0.000000 -0.013075 0.038597 -0.567715
    12 3.926350 0.316490 -0.462519 -0.168907 -0.159042 -1.089467
    13 1.539101 0.000000 -0.000002 -0.003295 0.001738 -1.334676
    14 1.196331 -0.000002 0.000000 -0.004291 0.004431 -1.200192
    15 3.881380 0.214687 0.400251 -0.056575 -0.204695 -1.030413
    16 1.719583 0.000004 0.000000 0.018838 -0.007916 -1.539002
    17 1.209183 -0.000001 0.000008 0.008062 -0.008108 -0.998649
    18 3.871292 0.117424 1.300905 -0.020042 -0.190438 -1.160275
    19 1.719425 -0.000004 0.000002 0.101231 -0.032227 -1.611435
    20 1.099674 0.000004 -0.000004 0.042294 -0.053202 -0.907071
    21 0.838839 -0.300285 1.312777 -0.847487 -0.487805 -0.629244
    22 1.789783 -0.000002 0.000011 -0.000556 -0.003669 0.378873
    23 1.207006 0.000001 0.000004 -0.001696 -0.005420 0.664304
    24 2.059517 0.977922 -1.937661 -1.661569 1.286515 2.950147
    25 18.968048 -58.442031 -15.485429 -0.018124 0.093595 -2.030414
    26 11.692570 -0.000004 0.000000 0.000000 0.000000 -0.735495
    27 11.481654 0.000000 0.000016 -1.610898 0.181262 -0.196406
    28 3.850428 0.126099 1.223438 0.218437 0.059429 -1.236277
    29 1.312562 0.000001 0.000000 0.013556 -0.052694 -0.660926
    30 0.729362 0.000000 0.000000 0.035126 -0.020663 -1.280268
    31 3.926355 0.316488 0.462502 0.078919 0.018325 -1.052031
    32 1.539096 0.000000 -0.000008 0.003022 -0.002131 -1.198664
    33 1.196321 0.000002 0.000011 0.004719 -0.004015 -1.294263
    34 3.881386 0.214694 -0.400257 -0.013550 -0.002191 -0.994617
    35 1.719579 0.000000 0.000000 -0.018227 0.009235 -1.467873
    36 1.209180 -0.000002 -0.000008 -0.009139 0.006871 -1.142228
    37 3.871304 0.117424 -1.300907 -0.078201 -0.025271 -1.087899
    38 1.719431 0.000000 -0.000004 -0.098412 0.040018 -1.533477
    39 1.099665 -0.000001 -0.000004 -0.043317 0.052396 -0.926108
    40 0.838848 -0.300291 -1.312786 1.038393 0.338527 -0.651145
    41 1.789780 -0.000002 0.000000 0.000000 0.003711 0.332742
    42 1.207002 0.000004 0.000000 0.000000 0.005668 0.612525
    43 -0.534583 0.295797 -0.001972 -1.591880 -0.071462 -1.866802
    44 0.113788 -0.132996 14.720029 0.000000 0.000000 2.758576
    45 0.113787 -0.132980 9.513787 0.000000 0.000000 0.000000
    46 -0.000001 0.000004 0.000000 0.000000 0.000000 0.000000
    47 -0.000001 0.000000 0.000000 0.000000 0.000000 0.000000
    48 0.113791 -0.132973 16.481380 0.000000 0.000000 2.625775
    49 0.113788 -0.132973 18.076752 0.000000 0.000000 -2.625791
    50 0.113789 -0.132969 19.676247 -0.000012 0.000000 2.625791
    51 0.113791 -0.132980 21.255905 0.000000 0.000000 -2.625679
    52 0.113788 -0.132980 22.869106 0.000000 0.000000 2.625679
    53 0.113791 -0.132980 24.483315 0.000000 0.000000 -2.625679
    54 0.113790 -0.132977 26.066456 0.000000 0.000000 2.625775
    55 0.113790 -0.132980 27.665100 0.000000 0.000000 -2.625791
    56 4.717026 4.484177 33.327862 -0.161644 0.029553 -0.762254
    57 0.089302 4.272583 4.480568 0.643912 0.000000 0.000000
    58 4.922175 -5.137234 33.583321 -0.192499 0.000000 -2.327265
    59 0.001394 4.167400 4.226917 0.643876 0.000000 0.000000
    60 -4.578506 -5.283134 33.331905 0.000000 0.000000 2.438902
    61 0.269684 4.148857 4.474522 0.000000 0.000000 0.000000
    62 -4.409222 4.440941 33.338566 -0.192504 0.000000 0.763647
    63 -0.045498 4.393921 4.464542 0.860605 0.000000 0.000000
    64 -4.439061 3.922569 13.956212 0.075659 -0.411864 0.634747
    65 0.113791 -0.132977 29.243565 -0.000012 0.000000 2.625775
    66 0.000002 -16.000000 -57.000000 1.570788 0.000007 -0.000007
  time 8
    0 -0.533595 0.000000 38.566879 1.570796 0.000000 -1.570796
    1 0.000000 3.345131 -2.981898 1.570796 0.083193 1.570796
    2 3.995838 0.000000 0.000000 0.000000 0.000000 -0.028816
    3 3.520283 0.000000 0.000000 0.000000 0.000000 0.097307
    4 8.921463 0.000000 0.000000 0.000000 0.000000 0.186413
    5 2.059513 0.977920 1.937661 1.589740 -1.286515 2.950147
    6 35.740045 -72.947115 -8.541085 4.331459 -0.130823 0.440271
    7 11.692564 0.000000 0.000011 0.000000 0.000000 -0.745832
    8 11.481674 0.000001 -0.000034 1.329220 0.087758 0.746815
    9 3.850418 0.126099 -1.223440 -0.317316 -0.182678 -1.175166
    10 1.312561 0.000000 0.000000 -0.035210 0.041488 -1.113081
    11 0.729366 0.000004 0.000000 -0.013075 0.038597 -0.567715
    12 3.926350 0.316490 -0.462519 -0.168907 -0.159042 -1.089467
    13 1.539101 0.000000 -0.000002 -0.003295 0.001738 -1.334676
    14 1.196331 -0.000002 0.000000 -0.004291 0.004431 -1.200192
    15 3.881380 0.214687 0.400251 -0.056575 -0.204695 -1.030413
    16 1.719583 0.000004 0.000000 0.018838 -0.007916 -1.539002
    17 1.209183 -0.000001 0.000008 0.008062 -0.008108 -0.998649
    18 3.871292 0.117424 1.300905 -0.020042 -0.190438 -1.160275
    19 1.719425 -0.000004 0.000002 0.101231 -0.032227 -1.611435
    20 1.099674 0.000004 -0.000004 0.042294 -0.053202 -0.907071
    21 0.838839 -0.300285 1.312777 -0.847487 -0.487805 -0.629244
    22 1.789783 -0.000002 0.000011 -0.000556 -0.003669 0.378873
    23 1.207006 0.000001 0.000004 -0.001696 -0.005420 0.664304
    24 2.059517 0.977922 -1.937661 -1.661569 1.286515 2.950147
    25 18.042239 -58.707664 -15.579182 -0.002356 0.083452 -2.027524
    26 11.692570 -0.000004 0.000000 0.000000 0.000000 -0.735495
    27 11.481654 0.000000 0.000016 -1.610898 0.181262 -0.196406
    28 3.850428 0.126099 1.223438 0.218437 0.059429 -1.236277
    29 1.312562 0.000001 0.000000 0.013556 -0.052694 -0.660926
    30 0.729362 0.000000 0.000000 0.035126 -0.020663 -1.280268
    31 3.926355 0.316488 0.462502 0.078919 0.018325 -1.052031
    32 1.539096 0.000000 -0.000008 0.003022 -0.002131 -1.198664
    33 1.196321 0.000002 0.000011 0.004719 -0.004015 -1.294263
    34 3.881386 0.214694 -0.400257 -0.013550 -0.002191 -0.994617
    35 1.719579 0.000000 0.000000 -0.018227 0.009235 -1.467873
    36 1.209180 -0.000002 -0.000008 -0.009139 0.006871 -1.142228
    37 3.871304 0.117424 -1.300907 -0.078201 -0.025271 -1.087899
    38 1.719431 0.000000 -0.000004 -0.098412 0.040018 -1.533477
    39 1.099665 -0.000001 -0.000004 -0.043317 0.052396 -0.926108
    40 0.838848 -0.300291 -1.312786 1.038393 0.338527 -0.651145
    41 1.789780 -0.000002 0.000000 0.000000 0.003711 0.332742
    42 1.207002 0.000004 0.000000 0.000000 0.005668 0.612525
    43 -0.534583 0.295797 -0.001972 -1.591880 -0.055762 -1.867144
    44 0.113788 -0.132996 14.720029 0.000000 0.000000 -3.141592
    45 0.113787 -0.132980 9.513787 0.000000 0.000000 0.000000
    46 -0.000001 0.000004 0.000000 0.000000 0.000000 0.000000
    47 -0.000001 0.000000 0.000000 0.000000 0.000000 0.000000
    48 0.113791 -0.132973 16.481380 0.000000 0.000000 2.122135
    49 0.113788 -0.132973 18.076752 0.000000 0.000000 -2.122166
    50 0.113789 -0.132969 19.676247 0.000000 0.000000 2.122166
    51 0.113791 -0.132980 21.255905 0.000000 0.000000 -2.122135
    52 0.113788 -0.132980 22.869106 0.000000 0.000012 2.122231
    53 0.113791 -0.132980 24.483315 0.000000 0.000000 -2.122135
    54 0.113790 -0.132977 26.066456 0.000000 0.000000 2.122135
    55 0.113790 -0.132980 27.665100 0.000000 0.000000 -2.122166
    56 4.717026 4.484177 33.327862 -0.063698 0.029553 -0.762254
    57 0.089302 4.272583 4.480568 0.551071 0.000000 0.000000
    58 4.922175 -5.137234 33.583321 -0.094553 0.000000 -2.327265
    59 0.001394 4.167400 4.226917 0.551068 0.000000 0.000000
    60 -4.578506 -5.283134 33.331905 0.000000 0.000000 2.438902
    61 0.269684 4.148857 4.474522 0.000000 0.000000 0.000000
    62 -4.409222 4.440941 33.338566 -0.094593 0.000000 0.763647
    63 -0.045498 4.393921 4.464542 0.736602 0.000000 0.000000
    64 -4.439061 3.922569 13.956212 0.075659 -0.411864 0.634747
    65 0.113791 -0.132977 29.243565 0.000000 0.000000 2.122135
    66 0.000002 -16.000000 -57.000000 1.570788 0.000007 -0.000007
  time 9
    0 -0.533595 0.000000 38.566879 1.570796 0.000000 -1.570796
    1 0.000000 3.345131 -2.981898 1.570796 0.083193 1.570796
    2 3.995838 0.000000 0.000000 0.000000 0.000000 -0.028816
    3 3.520283 0.000000 0.000000 0.000000 0.000000 0.097307
    4 8.921463 0.000000 0.000000 0.000000 0.000000 0.186413
    5 2.059513 0.977920 1.937661 1.589740 -1.286515 2.950147
    6 36.329907 -72.404130 -8.791092 4.347351 -0.140120 0.428811
    7 11.692564 0.000000 0.000011 0.000000 0.000000 -0.745832
    8 11.481674 0.000001 -0.000034 1.329220 0.087758 0.746815
    9 3.850418 0.126099 -1.223440 -0.317316 -0.182678 -1.175166
    10 1.312561 0.000000 0.000000 -0.035210 0.041488 -1.113081
    11 0.729366 0.000004 0.000000 -0.013075 0.038597 -0.567715
    12 3.926350 0.316490 -0.462519 -0.168907 -0.159042 -1.089467
    13 1.539101 0.000000 -0.000002 -0.003295 0.001738 -1.334676
    14 1.196331 -0.000002 0.000000 -0.004291 0.004431 -1.200192
    15 3.881380 0.214687 0.400251 -0.056575 -0.204695 -1.030413
    16 1.719583 0.000004 0.000000 0.018838 -0.007916 -1.539002
    17 1.209183 -0.000001 0.000008 0.008062 -0.008108 -0.998649
    18 3.871292 0.117424 1.300905 -0.020042 -0.190438 -1.160275
    19 1.719425 -0.000004 0.000002 0.101231 -0.032227 -1.611435
    20 1.099674 0.000004 -0.000004 0.042294 -0.053202 -0.907071
    21 0.838839 -0.300285 1.312777 -0.847487 -0.487805 -0.629244
    22 1.789783 -0.000002 0.000011 -0.000556 -0.003669 0.378873
    23 1.207006 0.000001 0.000004 -0.001696 -0.005420 0.664304
    24 2.059517 0.977922 -1.937661 -1.661569 1.286515 2.950147
    25 17.272684 -58.738915 -15.508867 0.014740 0.075667 -2.017875
    26 11.692570 -0.000004 0.000000 0.000000 0.000000 -0.735495
    27 11.481654 0.000000 0.000016 -1.610898 0.181262 -0.196406
    28 3.850428 0.126099 1.223438 0.218437 0.059429 -1.236277
    29 1.312562 0.000001 0.000000 0.013556 -0.052694 -0.660926
    30 0.729362 0.000000 0.000000 0.035126 -0.020663 -1.280268
    31 3.926355 0.316488 0.462502 0.078919 0.018325 -1.052031
    32 1.539096 0.000000 -0.000008 0.003022 -0.002131 -1.198664
    33 1.196321 0.000002 0.000011 0.004719 -0.004015 -1.294263
    34 3.881386 0.214694 -0.400257 -0.013550 -0.002191 -0.994617
    35 1.719579 0.000000 0.000000 -0.018227 0.009235 -1.467873
    36 1.209180 -0.000002 -0.000008 -0.009139 0.006871 -1.142228
    37 3.871304 0.117424 -1.300907 -0.078201 -0.025271 -1.087899
    38 1.719431 0.000000 -0.000004 -0.098412 0.040018 -1.533477
    39 1.099665 -0.000001 -0.000004 -0.043317 0.052396 -0.926108
    40 0.838848 -0.300291 -1.312786 1.038393 0.338527 -0.651145
    41 1.789780 -0.000002 0.000000 0.000000 0.003711 0.332742
    42 1.207002 0.000004 0.000000 0.000000 0.005668 0.612525
    43 -0.534583 0.295797 -0.001972 -1.591880 -0.039679 -1.867486
    44 0.113788 -0.132996 14.720029 0.000000 0.000000 -2.766821
    45 0.113787 -0.132980 9.513787 0.000000 0.000000 0.000000
    46 -0.000001 0.000004 0.000000 0.000000 0.000000 0.000000
    47 -0.000001 0.000000 0.000000 0.000000 0.000000 0.000000
    48 0.113791 -0.132973 16.481380 0.000000 0.000000 1.570652
    49 0.113788 -0.132973 18.076752 0.000000 0.000000 -1.570604
    50 0.113789 -0.132969 19.676247 0.000000 0.000000 1.570796
    51 0.113791 -0.132980 21.255905 0.000000 0.000000 -1.570652
    52 0.113788 -0.132980 22.869106 0.000000 0.000012 1.570652
    53 0.113791 -0.132980 24.483315 0.000000 0.000000 -1.570652
    54 0.113790 -0.132977 26.066456 0.000000 0.000000 1.570652
    55 0.113790 -0.132980 27.665100 0.000000 0.000000 -1.570604
    56 4.717026 4.484177 33.327862 0.004980 0.029553 -0.762254
    57 0.089302 4.272583 4.480568 0.446756 0.000000 0.000000
    58 4.922175 -5.137234 33.583321 -0.025857 0.000000 -2.327265
    59 0.001394 4.167400 4.226917 0.446754 0.000000 0.000000
    60 -4.578506 -5.283134 33.331905 0.000000 0.000000 2.438902
    61 0.269684 4.148857 4.474522 0.000000 0.000000 0.000000
    62 -4.409222 4.440941 33.338566 -0.025895 0.000000 0.763647
    63 -0.045498 4.393921 4.464542 0.596460 0.000000 0.000000
    64 -4.439061 3.922569 13.956212 0.075659 -0.411864 0.634747
    65 0.113791 -0.132977 29.243565 0.000000 0.000000 1.570652
    66 0.000002 -16.000000 -57.000000 1.570788 0.000007 -0.000007
  time 10
    0 -0.533595 0.000000 38.566879 1.570796 0.000000 -1.570796
    1 0.000000 3.345131 -2.981898 1.570796 0.083193 1.570796
    2 3.995838 0.000000 0.000000 0.000000 0.000000 -0.028816
    3 3.520283 0.000000 0.000000 0.000000 0.000000 0.097307
    4 8.921463 0.000000 0.000000 0.000000 0.000000 0.186413
    5 2.059513 0.977920 1.937661 1.589740 -1.286515 2.950147
    6 36.689293 -71.915834 -9.084070 4.361710 -0.150153 0.412672
    7 11.692564 0.000000 0.000011 0.000000 0.000000 -0.745832
    8 11.481674 0.000001 -0.000034 1.329220 0.087758 0.746815
    9 3.850418 0.126099 -1.223440 -0.317316 -0.182678 -1.175166
    10 1.312561 0.000000 0.000000 -0.035210 0.041488 -1.113081
    11 0.729366 0.000004 0.000000 -0.013075 0.038597 -0.567715
    12 3.926350 0.316490 -0.462519 -0.168907 -0.159042 -1.089467
    13 1.539101 0.000000 -0.000002 -0.003295 0.001738 -1.334676
    14 1.196331 -0.000002 0.000000 -0.004291 0.004431 -1.200192
    15 3.881380 0.214687 0.400251 -0.056575 -0.204695 -1.030413
    16 1.719583 0.000004 0.000000 0.018838 -0.007916 -1.539002
    17 1.209183 -0.000001 0.000008 0.008062 -0.008108 -0.998649
    18 3.871292 0.117424 1.300905 -0.020042 -0.190438 -1.160275
    19 1.719425 -0.000004 0.000002 0.101231 -0.032227 -1.611435
    20 1.099674 0.000004 -0.000004 0.042294 -0.053202 -0.907071
    21 0.838839 -0.300285 1.312777 -0.847487 -0.487805 -0.629244
    22 1.789783 -0.000002 0.000011 -0.000556 -0.003669 0.378873
    23 1.207006 0.000001 0.000004 -0.001696 -0.005420 0.664304
    24 2.059517 0.977922 -1.937661 -1.661569 1.286515 2.950147
    25 16.635946 -58.613911 -15.340894 0.032068 0.069691 -2.003500
    26 11.692570 -0.000004 0.000000 0.000000 0.000000 -0.735495
    27 11.481654 0.000000 0.000016 -1.610898 0.181262 -0.196406
    28 3.850428 0.126099 1.223438 0.218437 0.059429 -1.236277
    29 1.312562 0.000001 0.000000 0.013556 -0.052694 -0.660926
    30 0.729362 0.000000 0.000000 0.035126 -0.020663 -1.280268
    31 3.926355 0.316488 0.462502 0.078919 0.018325 -1.052031
    32 1.539096 0.000000 -0.000008 0.003022 -0.002131 -1.198664
    33 1.196321 0.000002 0.000011 0.004719 -0.004015 -1.294263
    34 3.881386 0.214694 -0.400257 -0.013550 -0.002191 -0.994617
    35 1.719579 0.000000 0.000000 -0.018227 0.009235 -1.467873
    36 1.209180 -0.000002 -0.000008 -0.009139 0.006871 -1.142228
    37 3.871304 0.117424 -1.300907 -0.078201 -0.025271 -1.087899
    38 1.719431 0.000000 -0.000004 -0.098412 0.040018 -1.533477
    39 1.099665 -0.000001 -0.000004 -0.043317 0.052396 -0.926108
    40 0.838848 -0.300291 -1.312786 1.038393 0.338527 -0.651145
    41 1.789780 -0.000002 0.000000 0.000000 0.003711 0.332742
    42 1.207002 0.000004 0.000000 0.000000 0.005668 0.612525
    43 -0.534583 0.295797 -0.001972 -1.591880 -0.023979 -1.867772
    44 0.113788 -0.132996 14.720029 0.000000 0.000000 -2.406432
    45 0.113787 -0.132980 9.513787 0.000000 0.000000 0.000000
    46 -0.000001 0.000004 0.000000 0.000000 0.000000 0.000000
    47 -0.000001 0.000000 0.000000 0.000000 0.000000 0.000000
    48 0.113791 -0.132973 16.481380 0.000000 0.000000 0.890023
    49 0.113788 -0.132973 18.076752 0.000000 0.000000 -0.889996
    50 0.113789 -0.132969 19.676247 0.000000 0.000000 0.889996
    51 0.113791 -0.132980 21.255905 0.000000 0.000000 -0.890023
    52 0.113788 -0.132980 22.869106 0.000000 0.000012 0.890023
    53 0.113791 -0.132980 24.483315 0.000000 0.000000 -0.890023
    54 0.113790 -0.132977 26.066456 0.000000 0.000000 0.890023
    55 0.113790 -0.132980 27.665100 0.000000 0.000000 -0.889996
    56 4.717026 4.484177 33.327862 0.030874 0.029553 -0.762254
    57 0.089302 4.272583 4.480568 0.338607 0.000000 0.000000
    58 4.922175 -5.137234 33.583321 0.000000 0.000000 -2.327265
    59 0.001394 4.167400 4.226917 0.338605 0.000000 0.000000
    60 -4.578506 -5.283134 33.331905 0.000000 0.000000 2.438902
    61 0.269684 4.148857 4.474522 0.000000 0.000000 0.000000
    62 -4.409222 4.440941 33.338566 0.000000 0.000000 0.763647
    63 -0.045498 4.393921 4.464542 0.450724 0.000000 0.000000
    64 -4.439061 3.922569 13.956212 0.075659 -0.411864 0.634747
    65 0.113791 -0.132977 29.243565 0.000000 0.000000 0.890023
    66 0.000002 -16.000000 -57.000000 1.570788 0.000007 -0.000007
  time 11
    0 -0.533595 0.000000 38.566879 1.570796 0.000000 -1.570796
    1 0.000000 3.345131 -2.981898 1.570796 0.083193 1.570796
    2 3.995838 0.000000 0.000000 0.000000 0.000000 -0.028816
    3 3.520283 0.000000 0.000000 0.000000 0.000000 0.097307
    4 8.921463 0.000000 0.000000 0.000000 0.000000 0.186413
    5 2.059513 0.977920 1.937661 1.589740 -1.286515 2.950147
    6 36.884612 -71.501758 -9.384860 4.374347 -0.160141 0.393859
    7 11.692564 0.000000 0.000011 0.000000 0.000000 -0.745832
    8 11.481674 0.000001 -0.000034 1.329220 0.087758 0.746815
    9 3.850418 0.126099 -1.223440 -0.317316 -0.182678 -1.175166
    10 1.312561 0.000000 0.000000 -0.035210 0.041488 -1.113081
    11 0.729366 0.000004 0.000000 -0.013075 0.038597 -0.567715
    12 3.926350 0.316490 -0.462519 -0.168907 -0.159042 -1.089467
    13 1.539101 0.000000 -0.000002 -0.003295 0.001738 -1.334676
    14 1.196331 -0.000002 0.000000 -0.004291 0.004431 -1.200192
    15 3.881380 0.214687 0.400251 -0.056575 -0.204695 -1.030413
    16 1.719583 0.000004 0.000000 0.018838 -0.007916 -1.539002
    17 1.209183 -0.000001 0.000008 0.008062 -0.008108 -0.998649
    18 3.871292 0.117424 1.300905 -0.020042 -0.190438 -1.160275
    19 1.719425 -0.000004 0.000002 0.101231 -0.032227 -1.611435
    20 1.099674 0.000004 -0.000004 0.042294 -0.053202 -0.907071
    21 0.838839 -0.300285 1.312777 -0.847487 -0.487805 -0.629244
    22 1.789783 -0.000002 0.000011 -0.000556 -0.003669 0.378873
    23 1.207006 0.000001 0.000004 -0.001696 -0.005420 0.664304
    24 2.059517 0.977922 -1.937661 -1.661569 1.286515 2.950147
    25 16.120305 -58.387341 -15.114324 0.048529 0.065201 -1.986625
    26 11.692570 -0.000004 0.000000 0.000000 0.000000 -0.735495
    27 11.481654 0.000000 0.000016 -1.610898 0.181262 -0.196406
    28 3.850428 0.126099 1.223438 0.218437 0.059429 -1.236277
    29 1.312562 0.000001 0.000000 0.013556 -0.052694 -0.660926
    30 0.729362 0.000000 0.000000 0.035126 -0.020663 -1.280268
    31 3.926355 0.316488 0.462502 0.078919 0.018325 -1.052031
    32 1.539096 0.000000 -0.000008 0.003022 -0.002131 -1.198664
    33 1.196321 0.000002 0.000011 0.004719 -0.004015 -1.294263
    34 3.881386 0.214694 -0.400257 -0.013550 -0.002191 -0.994617
    35 1.719579 0.000000 0.000000 -0.018227 0.009235 -1.467873
    36 1.209180 -0.000002 -0.000008 -0.009139 0.006871 -1.142228
    37 3.871304 0.117424 -1.300907 -0.078201 -0.025271 -1.087899
    38 1.719431 0.000000 -0.000004 -0.098412 0.040018 -1.533477
    39 1.099665 -0.000001 -0.000004 -0.043317 0.052396 -0.926108
    40 0.838848 -0.300291 -1.312786 1.038393 0.338527 -0.651145
    41 1.789780 -0.000002 0.000000 0.000000 0.003711 0.332742
    42 1.207002 0.000004 0.000000 0.000000 0.005668 0.612525
    43 -0.534583 0.295797 -0.001972 -1.591880 -0.009417 -1.868114
    44 0.113788 -0.132996 14.720029 0.000000 0.000000 -2.029744
    45 0.113787 -0.132980 9.513787 0.000000 0.000000 0.000000
    46 -0.000001 0.000004 0.000000 0.000000 0.000000 0.000000
    47 -0.000001 0.000000 0.000000 0.000000 0.000000 0.000000
    48 0.113791 -0.132973 16.481380 0.000000 0.000000 0.263182
    49 0.113788 -0.132973 18.076752 0.000000 0.000000 -0.263174
    50 0.113789 -0.132969 19.676247 0.000000 0.000000 0.263174
    51 0.113791 -0.132980 21.255905 0.000000 0.000000 -0.263182
    52 0.113788 -0.132980 22.869106 -0.000012 0.000000 0.263182
    53 0.113791 -0.132980 24.483315 0.000000 0.000000 -0.263182
    54 0.113790 -0.132977 26.066456 0.000000 0.000000 0.263182
    55 0.113790 -0.132980 27.665100 0.000000 0.000000 -0.263174
    56 4.717026 4.484177 33.327862 0.030874 0.029553 -0.762254
    57 0.089302 4.272583 4.480568 0.234292 0.000000 0.000000
    58 4.922175 -5.137234 33.583321 0.000000 0.000000 -2.327265
    59 0.001394 4.167400 4.226917 0.234291 0.000000 0.000000
    60 -4.578506 -5.283134 33.331905 0.000000 0.000000 2.438902
    61 0.269684 4.148857 4.474522 0.000000 0.000000 0.000000
    62 -4.409222 4.440941 33.338566 0.000000 0.000000 0.763647
    63 -0.045498 4.393921 4.464542 0.310582 0.000000 0.000000
    64 -4.439061 3.922569 13.956212 0.075659 -0.411864 0.634747
    65 0.113791 -0.132977 29.243565 0.000000 0.000000 0.263182
    66 0.000002 -16.000000 -57.000000 1.570788 0.000007 -0.000007
  time 12
    0 -0.533595 0.000000 38.566879 1.570796 0.000000 -1.570796
    1 0.000000 3.345131 -2.981898 1.570796 0.083193 1.570796
    2 3.995838 0.000000 0.000000 0.000000 0.000000 -0.028816
    3 3.520283 0.000000 0.000000 0.000000 0.000000 0.097307
    4 8.921463 0.000000 0.000000 0.000000 0.000000 0.186413
    5 2.059513 0.977920 1.937661 1.589740 -1.286515 2.950147
    6 36.958833 -71.154092 -9.666119 4.384973 -0.169207 0.374950
    7 11.692564 0.000000 0.000011 0.000000 0.000000 -0.745832
    8 11.481674 0.000001 -0.000034 1.329220 0.087758 0.746815
    9 3.850418 0.126099 -1.223440 -0.317316 -0.182678 -1.175166
    10 1.312561 0.000000 0.000000 -0.035210 0.041488 -1.113081
    11 0.729366 0.000004 0.000000 -0.013075 0.038597 -0.567715
    12 3.926350 0.316490 -0.462519 -0.168907 -0.159042 -1.089467
    13 1.539101 0.000000 -0.000002 -0.003295 0.001738 -1.334676
    14 1.196331 -0.000002 0.000000 -0.004291 0.004431 -1.200192
    15 3.881380 0.214687 0.400251 -0.056575 -0.204695 -1.030413
    16 1.719583 0.000004 0.000000 0.018838 -0.007916 -1.539002
    17 1.209183 -0.000001 0.000008 0.008062 -0.008108 -0.998649
    18 3.871292 0.117424 1.300905 -0.020042 -0.190438 -1.160275
    19 1.719425 -0.000004 0.000002 0.101231 -0.032227 -1.611435
    20 1.099674 0.000004 -0.000004 0.042294 -0.053202 -0.907071
    21 0.838839 -0.300285 1.312777 -0.847487 -0.487805 -0.629244
    22 1.789783 -0.000002 0.000011 -0.000556 -0.003669 0.378873
    23 1.207006 0.000001 0.000004 -0.001696 -0.005420 0.664304
    24 2.059517 0.977922 -1.937661 -1.661569 1.286515 2.950147
    25 15.714043 -58.121708 -14.872129 0.063084 0.061971 -1.969476
    26 11.692570 -0.000004 0.000000 0.000000 0.000000 -0.735495
    27 11.481654 0.000000 0.000016 -1.610898 0.181262 -0.196406
    28 3.850428 0.126099 1.223438 0.218437 0.059429 -1.236277
    29 1.312562 0.000001 0.000000 0.013556 -0.052694 -0.660926
    30 0.729362 0.000000 0.000000 0.035126 -0.020663 -1.280268
    31 3.926355 0.316488 0.462502 0.078919 0.018325 -1.052031
    32 1.539096 0.000000 -0.000008 0.003022 -0.002131 -1.198664
    33 1.196321 0.000002 0.000011 0.004719 -0.004015 -1.294263
    34 3.881386 0.214694 -0.400257 -0.013550 -0.002191 -0.994617
    35 1.719579 0.000000 0.000000 -0.018227 0.009235 -1.467873
    36 1.209180 -0.000002 -0.000008 -0.009139 0.006871 -1.142228
    37 3.871304 0.117424 -1.300907 -0.078201 -0.025271 -1.087899
    38 1.719431 0.000000 -0.000004 -0.098412 0.040018 -1.533477
    39 1.099665 -0.000001 -0.000004 -0.043317 0.052396 -0.926108
    40 0.838848 -0.300291 -1.312786 1.038393 0.338527 -0.651145
    41 1.789780 -0.000002 0.000000 0.000000 0.003711 0.332742
    42 1.207002 0.000004 0.000000 0.000000 0.005668 0.612525
    43 -0.534583 0.295797 -0.001972 -1.591880 0.003214 -1.868399
    44 0.113788 -0.132996 14.720029 0.000000 0.000000 -1.570604
    45 0.113787 -0.132980 9.513787 0.000000 0.000000 0.000000
    46 -0.000001 0.000004 0.000000 0.000000 0.000000 0.000000
    47 -0.000001 0.000000 0.000000 0.000000 0.000000 0.000000
    48 0.113791 -0.132973 16.481380 0.000000 0.000000 0.000000
    49 0.113788 -0.132973 18.076752 0.000000 0.000000 0.000000
    50 0.113789 -0.132969 19.676247 0.000000 0.000000 0.000000
    51 0.113791 -0.132980 21.255905 0.000000 0.000000 0.000000
    52 0.113788 -0.132980 22.869106 -0.000012 0.000000 0.000000
    53 0.113791 -0.132980 24.483315 0.000000 0.000000 0.000000
    54 0.113790 -0.132977 26.066456 0.000000 0.000000 0.000000
    55 0.113790 -0.132980 27.665100 0.000000 0.000000 0.000000
    56 4.717026 4.484177 33.327862 0.030874 0.029553 -0.762254
    57 0.089302 4.272583 4.480568 0.141419 0.000000 0.000000
    58 4.922175 -5.137234 33.583321 0.000000 0.000000 -2.327265
    59 0.001394 4.167400 4.226917 0.141418 0.000000 0.000000
    60 -4.578506 -5.283134 33.331905 0.000000 0.000000 2.438902
    61 0.269684 4.148857 4.474522 0.000000 0.000000 0.000000
    62 -4.409222 4.440941 33.338566 0.000000 0.000000 0.763647
    63 -0.045498 4.393921 4.464542 0.186579 0.000000 0.000000
    64 -4.439061 3.922569 13.956212 0.075659 -0.411864 0.634747
    65 0.113791 -0.132977 29.243565 0.000000 0.000000 0.000000
    66 0.000002 -16.000000 -57.000000 1.570788 0.000007 -0.000007
  time 13
    0 -0.533595 0.000000 38.566879 1.570796 0.000000 -1.570796
    1 0.000000 3.345131 -2.981898 1.570796 0.083193 1.570796
    2 3.995838 0.000000 0.000000 0.000000 0.000000 -0.028816
    3 3.520283 0.000000 0.000000 0.000000 0.000000 0.097307
    4 8.921463 0.000000 0.000000 0.000000 0.000000 0.186413
    5 2.059513 0.977920 1.937661 1.589740 -1.286515 2.950147
    6 36.962739 -70.884552 -9.904407 4.393206 -0.176709 0.358429
    7 11.692564 0.000000 0.000011 0.000000 0.000000 -0.745832
    8 11.481674 0.000001 -0.000034 1.329220 0.087758 0.746815
    9 3.850418 0.126099 -1.223440 -0.317316 -0.182678 -1.175166
    10 1.312561 0.000000 0.000000 -0.035210 0.041488 -1.113081
    11 0.729366 0.000004 0.000000 -0.013075 0.038597 -0.567715
    12 3.926350 0.316490 -0.462519 -0.168907 -0.159042 -1.089467
    13 1.539101 0.000000 -0.000002 -0.003295 0.001738 -1.334676
    14 1.196331 -0.000002 0.000000 -0.004291 0.004431 -1.200192
    15 3.881380 0.214687 0.400251 -0.056575 -0.204695 -1.030413
    16 1.719583 0.000004 0.000000 0.018838 -0.007916 -1.539002
    17 1.209183 -0.000001 0.000008 0.008062 -0.008108 -0.998649
    18 3.871292 0.117424 1.300905 -0.020042 -0.190438 -1.160275
    19 1.719425 -0.000004 0.000002 0.101231 -0.032227 -1.611435
    20 1.099674 0.000004 -0.000004 0.042294 -0.053202 -0.907071
    21 0.838839 -0.300285 1.312777 -0.847487 -0.487805 -0.629244
    22 1.789783 -0.000002 0.000011 -0.000556 -0.003669 0.378873
    23 1.207006 0.000001 0.000004 -0.001696 -0.005420 0.664304
    24 2.059517 0.977922 -1.937661 -1.661569 1.286515 2.950147
    25 15.417158 -57.859982 -14.649466 0.074924 0.059710 -1.954437
    26 11.692570 -0.000004 0.000000 0.000000 0.000000 -0.735495
    27 11.481654 0.000000 0.000016 -1.610898 0.181262 -0.196406
    28 3.850428 0.126099 1.223438 0.218437 0.059429 -1.236277
    29 1.312562 0.000001 0.000000 0.013556 -0.052694 -0.660926
    30 0.729362 0.000000 0.000000 0.035126 -0.020663 -1.280268
    31 3.926355 0.316488 0.462502 0.078919 0.018325 -1.052031
    32 1.539096 0.000000 -0.000008 0.003022 -0.002131 -1.198664
    33 1.196321 0.000002 0.000011 0.004719 -0.004015 -1.294263
    34 3.881386 0.214694 -0.400257 -0.013550 -0.002191 -0.994617
    35 1.719579 0.000000 0.000000 -0.018227 0.009235 -1.467873
    36 1.209180 -0.000002 -0.000008 -0.009139 0.006871 -1.142228
    37 3.871304 0.117424 -1.300907 -0.078201 -0.025271 -1.087899
    38 1.719431 0.000000 -0.000004 -0.098412 0.040018 -1.533477
    39 1.099665 -0.000001 -0.000004 -0.043317 0.052396 -0.926108
    40 0.838848 -0.300291 -1.312786 1.038393 0.338527 -0.651145
    41 1.789780 -0.000002 0.000000 0.000000 0.003711 0.332742
    42 1.207002 0.000004 0.000000 0.000000 0.005668 0.612525
    43 -0.534583 0.295797 -0.001972 -1.591880 0.013185 -1.868570
    44 0.113788 -0.132996 14.720029 0.000000 0.000000 -0.927004
    45 0.113787 -0.132980 9.513787 0.000000 0.000000 0.000000
    46 -0.000001 0.000004 0.000000 0.000000 0.000000 0.000000
    47 -0.000001 0.000000 0.000000 0.000000 0.000000 0.000000
    48 0.113791 -0.132973 16.481380 0.000000 0.000000 0.000000
    49 0.113788 -0.132973 18.076752 0.000000 0.000000 0.000000
    50 0.113789 -0.132969 19.676247 0.000012 0.000000 0.000000
    51 0.113791 -0.132980 21.255905 0.000000 0.000000 0.000000
    52 0.113788 -0.132980 22.869106 -0.000012 0.000000 0.000000
    53 0.113791 -0.132980 24.483315 0.000000 0.000000 0.000000
    54 0.113790 -0.132977 26.066456 0.000000 0.000000 0.000000
    55 0.113790 -0.132980 27.665100 0.000000 0.000000 0.000000
    56 4.717026 4.484177 33.327862 0.030874 0.029553 -0.762254
    57 0.089302 4.272583 4.480568 0.067082 0.000000 0.000000
    58 4.922175 -5.137234 33.583321 0.000000 0.000000 -2.327265
    59 0.001394 4.167400 4.226917 0.067114 0.000000 0.000000
    60 -4.578506 -5.283134 33.331905 0.000000 0.000000 2.438902
    61 0.269684 4.148857 4.474522 0.000000 0.000000 0.000000
    62 -4.409222 4.440941 33.338566 0.000000 0.000000 0.763647
    63 -0.045498 4.393921 4.464542 0.088080 0.000000 0.000000
    64 -4.439061 3.922569 13.956212 0.075659 -0.411864 0.634747
    65 0.113791 -0.132977 29.243565 0.000012 0.000000 0.000000
    66 0.000002 -16.000000 -57.000000 1.570788 0.000007 -0.000007
  time 14
    0 -0.533595 0.000000 38.566879 1.570796 0.000000 -1.570796
    1 0.000000 3.345131 -2.981898 1.570796 0.083193 1.570796
    2 3.995838 0.000000 0.000000 0.000000 0.000000 -0.028816
    3 3.520283 0.000000 0.000000 0.000000 0.000000 0.097307
    4 8.921463 0.000000 0.000000 0.000000 0.000000 0.186413
    5 2.059513 0.977920 1.937661 1.589740 -1.286515 2.950147
    6 36.939301 -70.704859 -10.068475 4.398471 -0.181772 0.346683
    7 11.692564 0.000000 0.000011 0.000000 0.000000 -0.745832
    8 11.481674 0.000001 -0.000034 1.329220 0.087758 0.746815
    9 3.850418 0.126099 -1.223440 -0.317316 -0.182678 -1.175166
    10 1.312561 0.000000 0.000000 -0.035210 0.041488 -1.113081
    11 0.729366 0.000004 0.000000 -0.013075 0.038597 -0.567715
    12 3.926350 0.316490 -0.462519 -0.168907 -0.159042 -1.089467
    13 1.539101 0.000000 -0.000002 -0.003295 0.001738 -1.334676
    14 1.196331 -0.000002 0.000000 -0.004291 0.004431 -1.200192
    15 3.881380 0.214687 0.400251 -0.056575 -0.204695 -1.030413
    16 1.719583 0.000004 0.000000 0.018838 -0.007916 -1.539002
    17 1.209183 -0.000001 0.000008 0.008062 -0.008108 -0.998649
    18 3.871292 0.117424 1.300905 -0.020042 -0.190438 -1.160275
    19 1.719425 -0.000004 0.000002 0.101231 -0.032227 -1.611435
    20 1.099674 0.000004 -0.000004 0.042294 -0.053202 -0.907071
    21 0.838839 -0.300285 1.312777 -0.847487 -0.487805 -0.629244
    22 1.789783 -0.000002 0.000011 -0.000556 -0.003669 0.378873
    23 1.207006 0.000001 0.000004 -0.001696 -0.005420 0.664304
    24 2.059517 0.977922 -1.937661 -1.661569 1.286515 2.950147
    25 15.225746 -57.660757 -14.481492 0.082837 0.058450 -1.943773
    26 11.692570 -0.000004 0.000000 0.000000 0.000000 -0.735495
    27 11.481654 0.000000 0.000016 -1.610898 0.181262 -0.196406
    28 3.850428 0.126099 1.223438 0.218437 0.059429 -1.236277
    29 1.312562 0.000001 0.000000 0.013556 -0.052694 -0.660926
    30 0.729362 0.000000 0.000000 0.035126 -0.020663 -1.280268
    31 3.926355 0.316488 0.462502 0.078919 0.018325 -1.052031
    32 1.539096 0.000000 -0.000008 0.003022 -0.002131 -1.198664
    33 1.196321 0.000002 0.000011 0.004719 -0.004015 -1.294263
    34 3.881386 0.214694 -0.400257 -0.013550 -0.002191 -0.994617
    35 1.719579 0.000000 0.000000 -0.018227 0.009235 -1.467873
    36 1.209180 -0.000002 -0.000008 -0.009139 0.006871 -1.142228
    37 3.871304 0.117424 -1.300907 -0.078201 -0.025271 -1.087899
    38 1.719431 0.000000 -0.000004 -0.098412 0.040018 -1.533477
    39 1.099665 -0.000001 -0.000004 -0.043317 0.052396 -0.926108
    40 0.838848 -0.300291 -1.312786 1.038393 0.338527 -0.651145
    41 1.789780 -0.000002 0.000000 0.000000 0.003711 0.332742
    42 1.207002 0.000004 0.000000 0.000000 0.005668 0.612525
    43 -0.534583 0.295797 -0.001972 -1.591880 0.019729 -1.868741
    44 0.113788 -0.132996 14.720029 0.000000 0.000000 -0.278609
    45 0.113787 -0.132980 9.513787 0.000000 0.000000 0.000000
    46 -0.000001 0.000004 0.000000 0.000000 0.000000 0.000000
    47 -0.000001 0.000000 0.000000 0.000000 0.000000 0.000000
    48 0.113791 -0.132973 16.481380 0.000000 0.000000 0.000000
    49 0.113788 -0.132973 18.076752 0.000000 0.000000 0.000000
    50 0.113789 -0.132969 19.676247 0.000000 0.000000 0.000000
    51 0.113791 -0.132980 21.255905 0.000000 0.000000 0.000000
    52 0.113788 -0.132980 22.869106 -0.000012 0.000000 0.000000
    53 0.113791 -0.132980 24.483315 0.000000 0.000000 0.000000
    54 0.113790 -0.132977 26.066456 0.000000 0.000000 0.000000
    55 0.113790 -0.132980 27.665100 0.000000 0.000000 0.000000
    56 4.717026 4.484177 33.327862 0.030874 0.029553 -0.762254
    57 0.089302 4.272583 4.480568 0.017801 0.000000 0.000000
    58 4.922175 -5.137234 33.583321 0.000000 0.000000 -2.327265
    59 0.001394 4.167400 4.226917 0.017801 0.000000 0.000000
    60 -4.578506 -5.283134 33.331905 0.000000 0.000000 2.438902
    61 0.269684 4.148857 4.474522 0.000000 0.000000 0.000000
    62 -4.409222 4.440941 33.338566 0.000000 0.000000 0.763647
    63 -0.045498 4.393921 4.464542 0.023330 0.000000 0.000000
    64 -4.439061 3.922569 13.956212 0.075659 -0.411864 0.634747
    65 0.113791 -0.132977 29.243565 0.000000 0.000000 0.000000
    66 0.000002 -16.000000 -57.000000 1.570788 0.000007 -0.000007
  time 15
    0 -0.533595 0.000000 38.566879 1.570796 0.000000 -1.570796
    1 0.000000 3.345131 -2.981898 1.570796 0.083193 1.570796
    2 3.995838 0.000000 0.000000 0.000000 0.000000 -0.028816
    3 3.520283 0.000000 0.000000 0.000000 0.000000 0.097307
    4 8.921463 0.000000 0.000000 0.000000 0.000000 0.186413
    5 2.059513 0.977920 1.937661 1.589740 -1.286515 2.950147
    6 36.923675 -70.634544 -10.130977 4.400385 -0.183705 0.342290
    7 11.692564 0.000000 0.000011 0.000000 0.000000 -0.745832
    8 11.481674 0.000001 -0.000034 1.329220 0.087758 0.746815
    9 3.850418 0.126099 -1.223440 -0.317316 -0.182678 -1.175166
    10 1.312561 0.000000 0.000000 -0.035210 0.041488 -1.113081
    11 0.729366 0.000004 0.000000 -0.013075 0.038597 -0.567715
    12 3.926350 0.316490 -0.462519 -0.168907 -0.159042 -1.089467
    13 1.539101 0.000000 -0.000002 -0.003295 0.001738 -1.334676
    14 1.196331 -0.000002 0.000000 -0.004291 0.004431 -1.200192
    15 3.881380 0.214687 0.400251 -0.056575 -0.204695 -1.030413
    16 1.719583 0.000004 0.000000 0.018838 -0.007916 -1.539002
    17 1.209183 -0.000001 0.000008 0.008062 -0.008108 -0.998649
    18 3.871292 0.117424 1.300905 -0.020042 -0.190438 -1.160275
    19 1.719425 -0.000004 0.000002 0.101231 -0.032227 -1.611435
    20 1.099674 0.000004 -0.000004 0.042294 -0.053202 -0.907071
    21 0.838839 -0.300285 1.312777 -0.847487 -0.487805 -0.629244
    22 1.789783 -0.000002 0.000011 -0.000556 -0.003669 0.378873
    23 1.207006 0.000001 0.000004 -0.001696 -0.005420 0.664304
    24 2.059517 0.977922 -1.937661 -1.661569 1.286515 2.950147
    25 15.159338 -57.578723 -14.418990 0.085783 0.058030 -1.939749
    26 11.692570 -0.000004 0.000000 0.000000 0.000000 -0.735495
    27 11.481654 0.000000 0.000016 -1.610898 0.181262 -0.196406
    28 3.850428 0.126099 1.223438 0.218437 0.059429 -1.236277
    29 1.312562 0.000001 0.000000 0.013556 -0.052694 -0.660926
    30 0.729362 0.000000 0.000000 0.035126 -0.020663 -1.280268
    31 3.926355 0.316488 0.462502 0.078919 0.018325 -1.052031
    32 1.539096 0.000000 -0.000008 0.003022 -0.002131 -1.198664
    33 1.196321 0.000002 0.000011 0.004719 -0.004015 -1.294263
    34 3.881386 0.214694 -0.400257 -0.013550 -0.002191 -0.994617
    35 1.719579 0.000000 0.000000 -0.018227 0.009235 -1.467873
    36 1.209180 -0.000002 -0.000008 -0.009139 0.006871 -1.142228
    37 3.871304 0.117424 -1.300907 -0.078201 -0.025271 -1.087899
    38 1.719431 0.000000 -0.000004 -0.098412 0.040018 -1.533477
    39 1.099665 -0.000001 -0.000004 -0.043317 0.052396 -0.926108
    40 0.838848 -0.300291 -1.312786 1.038393 0.338527 -0.651145
    41 1.789780 -0.000002 0.000000 0.000000 0.003711 0.332742
    42 1.207002 0.000004 0.000000 0.000000 0.005668 0.612525
    43 -0.534583 0.295797 -0.001972 -1.591880 0.022078 -1.868741
    44 0.113788 -0.132996 14.720029 0.000000 0.000000 0.000000
    45 0.113787 -0.132980 9.513787 0.000000 0.000000 0.000000
    46 -0.000001 0.000004 0.000000 0.000000 0.000000 0.000000
    47 -0.000001 0.000000 0.000000 0.000000 0.000000 0.000000
    48 0.113791 -0.132973 16.481380 0.000000 0.000000 0.000000
    49 0.113788 -0.132973 18.076752 0.000000 0.000000 0.000000
    50 0.113789 -0.132969 19.676247 0.000000 0.000000 0.000000
    51 0.113791 -0.132980 21.255905 0.000000 0.000000 0.000000
    52 0.113788 -0.132980 22.869106 -0.000012 0.000000 0.000000
    53 0.113791 -0.132980 24.483315 0.000000 0.000000 0.000000
    54 0.113790 -0.132977 26.066456 0.000000 0.000000 0.000000
    55 0.113790 -0.132980 27.665100 0.000000 0.000000 0.000000
    56 4.717026 4.484177 33.327862 0.030874 0.029553 -0.762254
    57 0.089302 4.272583 4.480568 0.000000 0.000000 0.000000
    58 4.922175 -5.137234 33.583321 0.000000 0.000000 -2.327265
    59 0.001394 4.167400 4.226917 0.000000 0.000000 0.000000
    60 -4.578506 -5.283134 33.331905 0.000000 0.000000 2.438902
    61 0.269684 4.148857 4.474522 0.000000 0.000000 0.000000
    62 -4.409222 4.440941 33.338566 0.000000 0.000000 0.763647
    63 -0.045498 4.393921 4.464542 0.000000 0.000000 0.000000
    64 -4.439061 3.922569 13.956212 0.075659 -0.411864 0.634747
    65 0.113791 -0.132977 29.243565 0.000000 0.000000 0.000000
    66 0.000002 -16.000000 -57.000000 1.570788 0.000007 -0.000007
end
