// Created by Crowbar 0.74
version 1
nodes
  0 "ValveBiped.Bip01" -1
  1 "ValveBiped.Bip01_Spine" 0
  2 "ValveBiped.Bip01_Spine1" 1
  3 "ValveBiped.Bip01_Spine2" 2
  4 "ValveBiped.Bip01_Spine4" 3
  5 "ValveBiped.Bip01_L_Clavicle" 4
  6 "ValveBiped.Bip01_L_UpperArm" 5
  7 "ValveBiped.Bip01_L_Forearm" 6
  8 "ValveBiped.Bip01_L_Hand" 7
  9 "ValveBiped.Bip01_L_Finger4" 8
  10 "ValveBiped.Bip01_L_Finger41" 9
  11 "ValveBiped.Bip01_L_Finger42" 10
  12 "ValveBiped.Bip01_L_Finger3" 8
  13 "ValveBiped.Bip01_L_Finger31" 12
  14 "ValveBiped.Bip01_L_Finger32" 13
  15 "ValveBiped.Bip01_L_Finger2" 8
  16 "ValveBiped.Bip01_L_Finger21" 15
  17 "ValveBiped.Bip01_L_Finger22" 16
  18 "ValveBiped.Bip01_L_Finger1" 8
  19 "ValveBiped.Bip01_L_Finger11" 18
  20 "ValveBiped.Bip01_L_Finger12" 19
  21 "ValveBiped.Bip01_L_Finger0" 8
  22 "ValveBiped.Bip01_L_Finger01" 21
  23 "ValveBiped.Bip01_L_Finger02" 22
  24 "ValveBiped.Bip01_R_Clavicle" 4
  25 "ValveBiped.Bip01_R_UpperArm" 24
  26 "ValveBiped.Bip01_R_Forearm" 25
  27 "ValveBiped.Bip01_R_Hand" 26
  28 "ValveBiped.Bip01_R_Finger4" 27
  29 "ValveBiped.Bip01_R_Finger41" 28
  30 "ValveBiped.Bip01_R_Finger42" 29
  31 "ValveBiped.Bip01_R_Finger3" 27
  32 "ValveBiped.Bip01_R_Finger31" 31
  33 "ValveBiped.Bip01_R_Finger32" 32
  34 "ValveBiped.Bip01_R_Finger2" 27
  35 "ValveBiped.Bip01_R_Finger21" 34
  36 "ValveBiped.Bip01_R_Finger22" 35
  37 "ValveBiped.Bip01_R_Finger1" 27
  38 "ValveBiped.Bip01_R_Finger11" 37
  39 "ValveBiped.Bip01_R_Finger12" 38
  40 "ValveBiped.Bip01_R_Finger0" 27
  41 "ValveBiped.Bip01_R_Finger01" 40
  42 "ValveBiped.Bip01_R_Finger02" 41
  43 "ValveBiped.Base" 27
  44 "ValveBiped.Casing_RotZ" 43
  45 "ValveBiped.Gyro1_RotX" 43
  46 "ValveBiped.Gyro2_RotY" 45
  47 "ValveBiped.Gyro3_RotX" 46
  48 "ValveBiped.Mag1_RotZ" 43
  49 "ValveBiped.Mag2_RotZ" 43
  50 "ValveBiped.Mag3_RotZ" 43
  51 "ValveBiped.Mag4_RotZ" 43
  52 "ValveBiped.Mag5_RotZ" 43
  53 "ValveBiped.Mag6_RotZ" 43
  54 "ValveBiped.Mag7_RotZ" 43
  55 "ValveBiped.Mag8_RotZ" 43
  56 "ValveBiped.Arm1_A" 43
  57 "ValveBiped.Arm1_B" 56
  58 "ValveBiped.Arm2_A" 43
  59 "ValveBiped.Arm2_B" 58
  60 "ValveBiped.Arm3_A" 43
  61 "ValveBiped.Arm3_B" 60
  62 "ValveBiped.Arm4_A" 43
  63 "ValveBiped.Arm4_B" 62
  64 "ValveBiped.Dial" 43
  65 "ValveBiped.Mag9_RotZ" 43
  66 "Root" -1
end
skeleton
  time 0
    0 -0.533595 0.000000 38.566879 1.570796 0.000000 -1.570796
    1 0.000000 3.345131 -2.981898 1.570796 0.083193 1.570796
    2 3.995838 0.000000 0.000000 0.000000 0.000000 -0.028816
    3 3.520287 0.000000 0.000000 0.000000 0.000000 0.097307
    4 8.921467 0.000000 0.000000 0.000000 0.000000 0.186413
    5 2.059517 0.977921 1.937661 1.589740 -1.286515 2.950147
    6 36.923674 -70.634548 -10.130978 4.400472 -0.183705 0.342290
    7 11.692564 0.000000 0.000011 0.000000 0.000000 -0.745832
    8 11.481674 0.000001 -0.000038 1.329205 0.087754 0.746817
    9 3.850418 0.126099 -1.223440 -0.317316 -0.182678 -1.175166
    10 1.312563 0.000004 0.000000 -0.035210 0.041488 -1.113081
    11 0.729366 0.000000 0.000000 -0.013075 0.038597 -0.567715
    12 3.926350 0.316490 -0.462519 -0.168907 -0.159045 -1.089470
    13 1.539099 0.000000 -0.000002 -0.003296 0.001739 -1.334679
    14 1.196327 0.000001 -0.000002 -0.004291 0.004431 -1.200192
    15 3.881382 0.214691 0.400253 -0.056575 -0.204695 -1.030413
    16 1.719582 0.000004 0.000000 0.018838 -0.007916 -1.539002
    17 1.209179 0.000000 0.000006 0.008063 -0.008108 -0.998631
    18 3.871292 0.117428 1.300903 -0.020042 -0.190438 -1.160275
    19 1.719427 -0.000004 0.000002 0.101233 -0.032232 -1.611450
    20 1.099670 0.000000 -0.000002 0.042294 -0.053202 -0.907071
    21 0.838837 -0.300285 1.312775 -0.847487 -0.487805 -0.629244
    22 1.789784 -0.000002 0.000008 -0.000556 -0.003669 0.378873
    23 1.207006 0.000000 0.000004 -0.001696 -0.005421 0.664304
    24 2.059521 0.977922 -1.937661 -1.661569 1.286515 2.950147
    25 15.159339 -57.578723 -14.418991 0.085782 0.057998 -1.939754
    26 11.692570 -0.000004 0.000000 0.000000 0.000000 -0.735495
    27 11.481656 0.000000 0.000016 -1.610898 0.181262 -0.196406
    28 3.850428 0.126100 1.223442 0.218439 0.059429 -1.236279
    29 1.312562 0.000001 0.000000 0.013556 -0.052694 -0.660926
    30 0.729362 0.000001 0.000000 0.035126 -0.020663 -1.280268
    31 3.926356 0.316488 0.462509 0.078919 0.018325 -1.052031
    32 1.539095 0.000000 -0.000004 0.003023 -0.002130 -1.198666
    33 1.196321 0.000001 0.000011 0.004721 -0.004014 -1.294265
    34 3.881387 0.214694 -0.400257 -0.013550 -0.002191 -0.994617
    35 1.719579 0.000000 0.000000 -0.018227 0.009235 -1.467873
    36 1.209180 -0.000002 -0.000004 -0.009139 0.006871 -1.142228
    37 3.871304 0.117425 -1.300903 -0.078202 -0.025270 -1.087902
    38 1.719430 0.000000 -0.000004 -0.098412 0.040018 -1.533480
    39 1.099665 -0.000001 0.000000 -0.043318 0.052395 -0.926110
    40 0.838849 -0.300290 -1.312782 1.038393 0.338527 -0.651145
    41 1.789780 -0.000002 0.000000 0.000000 0.003711 0.332742
    42 1.207002 0.000004 0.000000 0.000000 0.005668 0.612525
    43 -0.534583 0.295798 -0.001972 -1.591880 0.022078 -1.868741
    44 0.113788 -0.132996 14.720030 0.000000 0.000000 0.000000
    45 0.113788 -0.132980 9.513786 0.000000 0.000000 0.000000
    46 0.000000 0.000000 0.000000 0.000000 0.000000 0.000000
    47 -0.000001 0.000000 0.000000 0.000000 0.000000 0.000000
    48 0.113790 -0.132980 16.481384 0.000000 0.000000 0.000000
    49 0.113787 -0.132977 18.076756 0.000000 0.000000 0.000000
    50 0.113789 -0.132977 19.676249 0.000015 0.000000 0.000000
    51 0.113791 -0.132980 21.255907 0.000000 0.000000 0.000000
    52 0.113788 -0.132984 22.869108 -0.000015 0.000000 0.000000
    53 0.113791 -0.132984 24.483316 0.000000 0.000000 0.000000
    54 0.113789 -0.132980 26.066462 0.000000 0.000000 0.000000
    55 0.113790 -0.132984 27.665102 0.000000 0.000000 0.000000
    56 4.717025 4.484173 33.327866 0.030874 0.029553 -0.762254
    57 0.089298 4.272583 4.480568 0.000000 0.000000 0.000000
    58 4.922175 -5.137238 33.583321 0.000000 0.000000 -2.327265
    59 0.001396 4.167400 4.226917 0.000000 0.000000 0.000000
    60 -4.578506 -5.283134 33.331909 0.000000 0.000000 2.438902
    61 0.269684 4.148857 4.474522 0.000000 0.000000 0.000000
    62 -4.409222 4.440937 33.338570 0.000000 0.000000 0.763647
    63 -0.045496 4.393921 4.464542 0.000000 0.000000 0.000000
    64 -4.439060 3.922565 13.956215 0.075659 -0.411864 0.634747
    65 0.113791 -0.132980 29.243567 0.000015 0.000000 0.000000
    66 0.000001 -16.000000 -57.000000 1.570792 0.000003 -0.000003
  time 1
    0 -0.533595 0.000000 38.566879 1.570796 0.000000 -1.570796
    1 0.000000 3.345131 -2.981898 1.570796 0.083193 1.570796
    2 3.995838 0.000000 0.000000 0.000000 0.000000 -0.028816
    3 3.520287 0.000000 0.000000 0.000000 0.000000 0.097307
    4 8.921467 0.000000 0.000000 0.000000 0.000000 0.186413
    5 2.059517 0.977921 1.937661 1.589740 -1.286515 2.950147
    6 36.865079 -70.689237 -10.146603 4.401333 -0.183521 0.340667
    7 11.692564 0.000000 0.000011 0.000000 0.000000 -0.745832
    8 11.481674 0.000001 -0.000038 1.329205 0.087754 0.746817
    9 3.850418 0.126099 -1.223440 -0.317316 -0.182678 -1.175166
    10 1.312563 0.000004 0.000000 -0.035210 0.041488 -1.113081
    11 0.729366 0.000000 0.000000 -0.013075 0.038597 -0.567715
    12 3.926350 0.316490 -0.462519 -0.168907 -0.159045 -1.089470
    13 1.539099 0.000000 -0.000002 -0.003296 0.001739 -1.334679
    14 1.196327 0.000001 -0.000002 -0.004291 0.004431 -1.200192
    15 3.881382 0.214691 0.400253 -0.056575 -0.204695 -1.030413
    16 1.719582 0.000004 0.000000 0.018838 -0.007916 -1.539002
    17 1.209179 0.000000 0.000006 0.008063 -0.008108 -0.998631
    18 3.871292 0.117428 1.300903 -0.020042 -0.190438 -1.160275
    19 1.719427 -0.000004 0.000002 0.101233 -0.032232 -1.611450
    20 1.099670 0.000000 -0.000002 0.042294 -0.053202 -0.907071
    21 0.838837 -0.300285 1.312775 -0.847487 -0.487805 -0.629244
    22 1.789784 -0.000002 0.000008 -0.000556 -0.003669 0.378873
    23 1.207006 0.000000 0.000004 -0.001696 -0.005421 0.664304
    24 2.059521 0.977922 -1.937661 -1.661569 1.286515 2.950147
    25 15.202309 -57.590442 -14.422898 0.086244 0.057255 -1.938265
    26 11.692570 -0.000004 0.000000 0.000000 0.000000 -0.735495
    27 11.481656 0.000000 0.000016 -1.610898 0.181262 -0.196406
    28 3.850428 0.126100 1.223442 0.218439 0.059429 -1.236279
    29 1.312562 0.000001 0.000000 0.013556 -0.052694 -0.660926
    30 0.729362 0.000001 0.000000 0.035126 -0.020663 -1.280268
    31 3.926356 0.316488 0.462509 0.078919 0.018325 -1.052031
    32 1.539095 0.000000 -0.000004 0.003023 -0.002130 -1.198666
    33 1.196321 0.000001 0.000011 0.004721 -0.004014 -1.294265
    34 3.881387 0.214694 -0.400257 -0.013550 -0.002191 -0.994617
    35 1.719579 0.000000 0.000000 -0.018227 0.009235 -1.467873
    36 1.209180 -0.000002 -0.000004 -0.009139 0.006871 -1.142228
    37 3.871304 0.117425 -1.300903 -0.078202 -0.025270 -1.087902
    38 1.719430 0.000000 -0.000004 -0.098412 0.040018 -1.533480
    39 1.099665 -0.000001 0.000000 -0.043318 0.052395 -0.926110
    40 0.838849 -0.300290 -1.312782 1.038393 0.338527 -0.651145
    41 1.789780 -0.000002 0.000000 0.000000 0.003711 0.332742
    42 1.207002 0.000004 0.000000 0.000000 0.005668 0.612525
    43 -0.534583 0.295798 -0.001972 -1.591880 0.022078 -1.868741
    44 0.113788 -0.132996 14.720030 0.000000 0.000000 0.000000
    45 0.113788 -0.132980 9.513786 0.000000 0.000000 0.000000
    46 0.000000 0.000000 0.000000 0.000000 0.000000 0.000000
    47 -0.000001 0.000000 0.000000 0.000000 0.000000 0.000000
    48 0.113790 -0.132980 16.481384 0.000000 0.000000 0.000000
    49 0.113787 -0.132977 18.076756 0.000000 0.000000 0.000000
    50 0.113789 -0.132977 19.676249 0.000015 0.000000 0.000000
    51 0.113791 -0.132980 21.255907 0.000000 0.000000 0.000000
    52 0.113788 -0.132984 22.869108 -0.000015 0.000000 0.000000
    53 0.113791 -0.132984 24.483316 0.000000 0.000000 0.000000
    54 0.113789 -0.132980 26.066462 0.000000 0.000000 0.000000
    55 0.113790 -0.132984 27.665102 0.000000 0.000000 0.000000
    56 4.717025 4.484173 33.327866 0.084880 0.029553 -0.762254
    57 0.089298 4.272583 4.480568 0.105369 0.000000 0.000000
    58 4.922175 -5.137238 33.583321 0.054006 0.000000 -2.327265
    59 0.001396 4.167400 4.226917 0.105369 0.000000 0.000000
    60 -4.578506 -5.283134 33.331909 0.000000 0.000000 2.438902
    61 0.269684 4.148857 4.474522 0.000000 0.000000 0.000000
    62 -4.409222 4.440937 33.338570 0.053989 0.000000 0.763647
    63 -0.045496 4.393921 4.464542 0.105370 0.000000 0.000000
    64 -4.439060 3.922565 13.956215 0.075659 -0.411864 0.634747
    65 0.113791 -0.132980 29.243567 0.000015 0.000000 0.000000
    66 0.000001 -16.000000 -57.000000 1.570792 0.000003 -0.000003
  time 2
    0 -0.533595 0.000000 38.566879 1.570796 0.000000 -1.570796
    1 0.000000 3.345131 -2.981898 1.570796 0.083193 1.570796
    2 3.995838 0.000000 0.000000 0.000000 0.000000 -0.028816
    3 3.520287 0.000000 0.000000 0.000000 0.000000 0.097307
    4 8.921467 0.000000 0.000000 0.000000 0.000000 0.186413
    5 2.059517 0.977921 1.937661 1.589740 -1.286515 2.950147
    6 36.814296 -70.802522 -10.115352 4.400568 -0.184580 0.339139
    7 11.692564 0.000000 0.000011 0.000000 0.000000 -0.745832
    8 11.481674 0.000001 -0.000038 1.329205 0.087754 0.746817
    9 3.850418 0.126099 -1.223440 -0.317316 -0.182678 -1.175166
    10 1.312563 0.000004 0.000000 -0.035210 0.041488 -1.113081
    11 0.729366 0.000000 0.000000 -0.013075 0.038597 -0.567715
    12 3.926350 0.316490 -0.462519 -0.168907 -0.159045 -1.089470
    13 1.539099 0.000000 -0.000002 -0.003296 0.001739 -1.334679
    14 1.196327 0.000001 -0.000002 -0.004291 0.004431 -1.200192
    15 3.881382 0.214691 0.400253 -0.056575 -0.204695 -1.030413
    16 1.719582 0.000004 0.000000 0.018838 -0.007916 -1.539002
    17 1.209179 0.000000 0.000006 0.008063 -0.008108 -0.998631
    18 3.871292 0.117428 1.300903 -0.020042 -0.190438 -1.160275
    19 1.719427 -0.000004 0.000002 0.101233 -0.032232 -1.611450
    20 1.099670 0.000000 -0.000002 0.042294 -0.053202 -0.907071
    21 0.838837 -0.300285 1.312775 -0.847487 -0.487805 -0.629244
    22 1.789784 -0.000002 0.000008 -0.000556 -0.003669 0.378873
    23 1.207006 0.000000 0.000004 -0.001696 -0.005421 0.664304
    24 2.059521 0.977922 -1.937661 -1.661569 1.286515 2.950147
    25 15.288249 -57.621693 -14.426804 0.086822 0.058450 -1.936639
    26 11.692570 -0.000004 0.000000 0.000000 0.000000 -0.735495
    27 11.481656 0.000000 0.000016 -1.610898 0.181262 -0.196406
    28 3.850428 0.126100 1.223442 0.218439 0.059429 -1.236279
    29 1.312562 0.000001 0.000000 0.013556 -0.052694 -0.660926
    30 0.729362 0.000001 0.000000 0.035126 -0.020663 -1.280268
    31 3.926356 0.316488 0.462509 0.078919 0.018325 -1.052031
    32 1.539095 0.000000 -0.000004 0.003023 -0.002130 -1.198666
    33 1.196321 0.000001 0.000011 0.004721 -0.004014 -1.294265
    34 3.881387 0.214694 -0.400257 -0.013550 -0.002191 -0.994617
    35 1.719579 0.000000 0.000000 -0.018227 0.009235 -1.467873
    36 1.209180 -0.000002 -0.000004 -0.009139 0.006871 -1.142228
    37 3.871304 0.117425 -1.300903 -0.078202 -0.025270 -1.087902
    38 1.719430 0.000000 -0.000004 -0.098412 0.040018 -1.533480
    39 1.099665 -0.000001 0.000000 -0.043318 0.052395 -0.926110
    40 0.838849 -0.300290 -1.312782 1.038393 0.338527 -0.651145
    41 1.789780 -0.000002 0.000000 0.000000 0.003711 0.332742
    42 1.207002 0.000004 0.000000 0.000000 0.005668 0.612525
    43 -0.534583 0.295798 -0.001972 -1.591880 0.022078 -1.868741
    44 0.113788 -0.132996 14.720030 0.000000 0.000000 0.000000
    45 0.113788 -0.132980 9.513786 0.000000 0.000000 0.000000
    46 0.000000 0.000000 0.000000 0.000000 0.000000 0.000000
    47 -0.000001 0.000000 0.000000 0.000000 0.000000 0.000000
    48 0.113790 -0.132980 16.481384 0.000000 0.000000 0.000000
    49 0.113787 -0.132977 18.076756 0.000000 0.000000 0.000000
    50 0.113789 -0.132977 19.676249 0.000015 0.000000 0.000000
    51 0.113791 -0.132980 21.255907 0.000000 0.000000 0.000000
    52 0.113788 -0.132984 22.869108 -0.000015 0.000000 0.000000
    53 0.113791 -0.132984 24.483316 0.000000 0.000000 0.000000
    54 0.113789 -0.132980 26.066462 0.000000 0.000000 0.000000
    55 0.113790 -0.132984 27.665102 0.000000 0.000000 0.000000
    56 4.717025 4.484173 33.327866 0.214761 0.029553 -0.762254
    57 0.089298 4.272583 4.480568 0.365293 0.000000 0.000000
    58 4.922175 -5.137238 33.583321 0.183886 0.000000 -2.327265
    59 0.001396 4.167400 4.226917 0.365291 0.000000 0.000000
    60 -4.578506 -5.283134 33.331909 0.000000 0.000000 2.438902
    61 0.269684 4.148857 4.474522 0.000000 0.000000 0.000000
    62 -4.409222 4.440937 33.338570 0.183872 0.000000 0.763647
    63 -0.045496 4.393921 4.464542 0.365297 0.000000 0.000000
    64 -4.439060 3.922565 13.956215 0.075659 -0.411864 0.634747
    65 0.113791 -0.132980 29.243567 0.000015 0.000000 0.000000
    66 0.000001 -16.000000 -57.000000 1.570792 0.000003 -0.000003
  time 3
    0 -0.533595 0.000000 38.566879 1.570796 0.000000 -1.570796
    1 0.000000 3.345131 -2.981898 1.570796 0.083193 1.570796
    2 3.995838 0.000000 0.000000 0.000000 0.000000 -0.028816
    3 3.520287 0.000000 0.000000 0.000000 0.000000 0.097307
    4 8.921467 0.000000 0.000000 0.000000 0.000000 0.186413
    5 2.059517 0.977921 1.937661 1.589740 -1.286515 2.950147
    6 36.939300 -70.915807 -9.920034 4.393388 -0.189274 0.342959
    7 11.692564 0.000000 0.000011 0.000000 0.000000 -0.745832
    8 11.481674 0.000001 -0.000038 1.329205 0.087754 0.746817
    9 3.850418 0.126099 -1.223440 -0.317316 -0.182678 -1.175166
    10 1.312563 0.000004 0.000000 -0.035210 0.041488 -1.113081
    11 0.729366 0.000000 0.000000 -0.013075 0.038597 -0.567715
    12 3.926350 0.316490 -0.462519 -0.168907 -0.159045 -1.089470
    13 1.539099 0.000000 -0.000002 -0.003296 0.001739 -1.334679
    14 1.196327 0.000001 -0.000002 -0.004291 0.004431 -1.200192
    15 3.881382 0.214691 0.400253 -0.056575 -0.204695 -1.030413
    16 1.719582 0.000004 0.000000 0.018838 -0.007916 -1.539002
    17 1.209179 0.000000 0.000006 0.008063 -0.008108 -0.998631
    18 3.871292 0.117428 1.300903 -0.020042 -0.190438 -1.160275
    19 1.719427 -0.000004 0.000002 0.101233 -0.032232 -1.611450
    20 1.099670 0.000000 -0.000002 0.042294 -0.053202 -0.907071
    21 0.838837 -0.300285 1.312775 -0.847487 -0.487805 -0.629244
    22 1.789784 -0.000002 0.000008 -0.000556 -0.003669 0.378873
    23 1.207006 0.000000 0.000004 -0.001696 -0.005421 0.664304
    24 2.059521 0.977922 -1.937661 -1.661569 1.286515 2.950147
    25 15.358564 -57.652944 -14.411179 0.086533 0.066913 -1.939227
    26 11.692570 -0.000004 0.000000 0.000000 0.000000 -0.735495
    27 11.481656 0.000000 0.000016 -1.610898 0.181262 -0.196406
    28 3.850428 0.126100 1.223442 0.218439 0.059429 -1.236279
    29 1.312562 0.000001 0.000000 0.013556 -0.052694 -0.660926
    30 0.729362 0.000001 0.000000 0.035126 -0.020663 -1.280268
    31 3.926356 0.316488 0.462509 0.078919 0.018325 -1.052031
    32 1.539095 0.000000 -0.000004 0.003023 -0.002130 -1.198666
    33 1.196321 0.000001 0.000011 0.004721 -0.004014 -1.294265
    34 3.881387 0.214694 -0.400257 -0.013550 -0.002191 -0.994617
    35 1.719579 0.000000 0.000000 -0.018227 0.009235 -1.467873
    36 1.209180 -0.000002 -0.000004 -0.009139 0.006871 -1.142228
    37 3.871304 0.117425 -1.300903 -0.078202 -0.025270 -1.087902
    38 1.719430 0.000000 -0.000004 -0.098412 0.040018 -1.533480
    39 1.099665 -0.000001 0.000000 -0.043318 0.052395 -0.926110
    40 0.838849 -0.300290 -1.312782 1.038393 0.338527 -0.651145
    41 1.789780 -0.000002 0.000000 0.000000 0.003711 0.332742
    42 1.207002 0.000004 0.000000 0.000000 0.005668 0.612525
    43 -0.534583 0.295798 -0.001972 -1.591880 0.022078 -1.868741
    44 0.113788 -0.132996 14.720030 0.000000 0.000000 0.000000
    45 0.113788 -0.132980 9.513786 0.000000 0.000000 0.000000
    46 0.000000 0.000000 0.000000 0.000000 0.000000 0.000000
    47 -0.000001 0.000000 0.000000 0.000000 0.000000 0.000000
    48 0.113790 -0.132980 16.481384 0.000000 0.000000 0.000000
    49 0.113787 -0.132977 18.076756 0.000000 0.000000 0.000000
    50 0.113789 -0.132977 19.676249 0.000015 0.000000 0.000000
    51 0.113791 -0.132980 21.255907 0.000000 0.000000 0.000000
    52 0.113788 -0.132984 22.869108 -0.000015 0.000000 0.000000
    53 0.113791 -0.132984 24.483316 0.000000 0.000000 0.000000
    54 0.113789 -0.132980 26.066462 0.000000 0.000000 0.000000
    55 0.113790 -0.132984 27.665102 0.000000 0.000000 0.000000
    56 4.717025 4.484173 33.327866 0.370553 0.029553 -0.762254
    57 0.089298 4.272583 4.480568 0.681879 0.000000 0.000000
    58 4.922175 -5.137238 33.583321 0.339697 0.000000 -2.327265
    59 0.001396 4.167400 4.226917 0.681876 0.000000 0.000000
    60 -4.578506 -5.283134 33.331909 0.000000 0.000000 2.438902
    61 0.269684 4.148857 4.474522 0.000000 0.000000 0.000000
    62 -4.409222 4.440937 33.338570 0.339668 0.000000 0.763647
    63 -0.045496 4.393921 4.464542 0.681887 0.000000 0.000000
    64 -4.439060 3.922565 13.956215 0.075659 -0.411864 0.634747
    65 0.113791 -0.132980 29.243567 0.000015 0.000000 0.000000
    66 0.000001 -16.000000 -57.000000 1.570792 0.000003 -0.000003
  time 4
    0 -0.533595 0.000000 38.566879 1.570796 0.000000 -1.570796
    1 0.000000 3.345131 -2.981898 1.570796 0.083193 1.570796
    2 3.995838 0.000000 0.000000 0.000000 0.000000 -0.028816
    3 3.520287 0.000000 0.000000 0.000000 0.000000 0.097307
    4 8.921467 0.000000 0.000000 0.000000 0.000000 0.186413
    5 2.059517 0.977921 1.937661 1.589740 -1.286515 2.950147
    6 37.099461 -70.974402 -9.736434 4.385250 -0.192174 0.348402
    7 11.692564 0.000000 0.000011 0.000000 0.000000 -0.745832
    8 11.481674 0.000001 -0.000038 1.329205 0.087754 0.746817
    9 3.850418 0.126099 -1.223440 -0.317316 -0.182678 -1.175166
    10 1.312563 0.000004 0.000000 -0.035210 0.041488 -1.113081
    11 0.729366 0.000000 0.000000 -0.013075 0.038597 -0.567715
    12 3.926350 0.316490 -0.462519 -0.168907 -0.159045 -1.089470
    13 1.539099 0.000000 -0.000002 -0.003296 0.001739 -1.334679
    14 1.196327 0.000001 -0.000002 -0.004291 0.004431 -1.200192
    15 3.881382 0.214691 0.400253 -0.056575 -0.204695 -1.030413
    16 1.719582 0.000004 0.000000 0.018838 -0.007916 -1.539002
    17 1.209179 0.000000 0.000006 0.008063 -0.008108 -0.998631
    18 3.871292 0.117428 1.300903 -0.020042 -0.190438 -1.160275
    19 1.719427 -0.000004 0.000002 0.101233 -0.032232 -1.611450
    20 1.099670 0.000000 -0.000002 0.042294 -0.053202 -0.907071
    21 0.838837 -0.300285 1.312775 -0.847487 -0.487805 -0.629244
    22 1.789784 -0.000002 0.000008 -0.000556 -0.003669 0.378873
    23 1.207006 0.000000 0.000004 -0.001696 -0.005421 0.664304
    24 2.059521 0.977922 -1.937661 -1.661569 1.286515 2.950147
    25 15.366377 -57.664663 -14.395553 0.084223 0.075086 -1.943258
    26 11.692570 -0.000004 0.000000 0.000000 0.000000 -0.735495
    27 11.481656 0.000000 0.000016 -1.610898 0.181262 -0.196406
    28 3.850428 0.126100 1.223442 0.218439 0.059429 -1.236279
    29 1.312562 0.000001 0.000000 0.013556 -0.052694 -0.660926
    30 0.729362 0.000001 0.000000 0.035126 -0.020663 -1.280268
    31 3.926356 0.316488 0.462509 0.078919 0.018325 -1.052031
    32 1.539095 0.000000 -0.000004 0.003023 -0.002130 -1.198666
    33 1.196321 0.000001 0.000011 0.004721 -0.004014 -1.294265
    34 3.881387 0.214694 -0.400257 -0.013550 -0.002191 -0.994617
    35 1.719579 0.000000 0.000000 -0.018227 0.009235 -1.467873
    36 1.209180 -0.000002 -0.000004 -0.009139 0.006871 -1.142228
    37 3.871304 0.117425 -1.300903 -0.078202 -0.025270 -1.087902
    38 1.719430 0.000000 -0.000004 -0.098412 0.040018 -1.533480
    39 1.099665 -0.000001 0.000000 -0.043318 0.052395 -0.926110
    40 0.838849 -0.300290 -1.312782 1.038393 0.338527 -0.651145
    41 1.789780 -0.000002 0.000000 0.000000 0.003711 0.332742
    42 1.207002 0.000004 0.000000 0.000000 0.005668 0.612525
    43 -0.534583 0.295798 -0.001972 -1.591880 0.022078 -1.868741
    44 0.113788 -0.132996 14.720030 0.000000 0.000000 0.000000
    45 0.113788 -0.132980 9.513786 0.000000 0.000000 0.000000
    46 0.000000 0.000000 0.000000 0.000000 0.000000 0.000000
    47 -0.000001 0.000000 0.000000 0.000000 0.000000 0.000000
    48 0.113790 -0.132980 16.481384 0.000000 0.000000 0.000000
    49 0.113787 -0.132977 18.076756 0.000000 0.000000 0.000000
    50 0.113789 -0.132977 19.676249 0.000015 0.000000 0.000000
    51 0.113791 -0.132980 21.255907 0.000000 0.000000 0.000000
    52 0.113788 -0.132984 22.869108 -0.000015 0.000000 0.000000
    53 0.113791 -0.132984 24.483316 0.000000 0.000000 0.000000
    54 0.113789 -0.132980 26.066462 0.000000 0.000000 0.000000
    55 0.113790 -0.132984 27.665102 0.000000 0.000000 0.000000
    56 4.717025 4.484173 33.327866 0.500452 0.029553 -0.762254
    57 0.089298 4.272583 4.480568 0.941803 0.000000 0.000000
    58 4.922175 -5.137238 33.583321 0.469576 0.000000 -2.327265
    59 0.001396 4.167400 4.226917 0.941798 0.000000 0.000000
    60 -4.578506 -5.283134 33.331909 0.000000 0.000000 2.438902
    61 0.269684 4.148857 4.474522 0.000000 0.000000 0.000000
    62 -4.409222 4.440937 33.338570 0.469570 0.000000 0.763647
    63 -0.045496 4.393921 4.464542 0.941814 0.000000 0.000000
    64 -4.439060 3.922565 13.956215 0.075659 -0.411864 0.634747
    65 0.113791 -0.132980 29.243567 0.000015 0.000000 0.000000
    66 0.000001 -16.000000 -57.000000 1.570792 0.000003 -0.000003
  time 5
    0 -0.533595 0.000000 38.566879 1.570796 0.000000 -1.570796
    1 0.000000 3.345131 -2.981898 1.570796 0.083193 1.570796
    2 3.995838 0.000000 0.000000 0.000000 0.000000 -0.028816
    3 3.520287 0.000000 0.000000 0.000000 0.000000 0.097307
    4 8.921467 0.000000 0.000000 0.000000 0.000000 0.186413
    5 2.059517 0.977921 1.937661 1.589740 -1.286515 2.950147
    6 37.083835 -71.087687 -9.693464 4.381229 -0.190241 0.346492
    7 11.692564 0.000000 0.000011 0.000000 0.000000 -0.745832
    8 11.481674 0.000001 -0.000038 1.329205 0.087754 0.746817
    9 3.850418 0.126099 -1.223440 -0.317316 -0.182678 -1.175166
    10 1.312563 0.000004 0.000000 -0.035210 0.041488 -1.113081
    11 0.729366 0.000000 0.000000 -0.013075 0.038597 -0.567715
    12 3.926350 0.316490 -0.462519 -0.168907 -0.159045 -1.089470
    13 1.539099 0.000000 -0.000002 -0.003296 0.001739 -1.334679
    14 1.196327 0.000001 -0.000002 -0.004291 0.004431 -1.200192
    15 3.881382 0.214691 0.400253 -0.056575 -0.204695 -1.030413
    16 1.719582 0.000004 0.000000 0.018838 -0.007916 -1.539002
    17 1.209179 0.000000 0.000006 0.008063 -0.008108 -0.998631
    18 3.871292 0.117428 1.300903 -0.020042 -0.190438 -1.160275
    19 1.719427 -0.000004 0.000002 0.101233 -0.032232 -1.611450
    20 1.099670 0.000000 -0.000002 0.042294 -0.053202 -0.907071
    21 0.838837 -0.300285 1.312775 -0.847487 -0.487805 -0.629244
    22 1.789784 -0.000002 0.000008 -0.000556 -0.003669 0.378873
    23 1.207006 0.000000 0.000004 -0.001696 -0.005421 0.664304
    24 2.059521 0.977922 -1.937661 -1.661569 1.286515 2.950147
    25 15.323407 -57.652944 -14.391647 0.080584 0.077282 -1.940693
    26 11.692570 -0.000004 0.000000 0.000000 0.000000 -0.735495
    27 11.481656 0.000000 0.000016 -1.610898 0.181262 -0.196406
    28 3.850428 0.126100 1.223442 0.218439 0.059429 -1.236279
    29 1.312562 0.000001 0.000000 0.013556 -0.052694 -0.660926
    30 0.729362 0.000001 0.000000 0.035126 -0.020663 -1.280268
    31 3.926356 0.316488 0.462509 0.078919 0.018325 -1.052031
    32 1.539095 0.000000 -0.000004 0.003023 -0.002130 -1.198666
    33 1.196321 0.000001 0.000011 0.004721 -0.004014 -1.294265
    34 3.881387 0.214694 -0.400257 -0.013550 -0.002191 -0.994617
    35 1.719579 0.000000 0.000000 -0.018227 0.009235 -1.467873
    36 1.209180 -0.000002 -0.000004 -0.009139 0.006871 -1.142228
    37 3.871304 0.117425 -1.300903 -0.078202 -0.025270 -1.087902
    38 1.719430 0.000000 -0.000004 -0.098412 0.040018 -1.533480
    39 1.099665 -0.000001 0.000000 -0.043318 0.052395 -0.926110
    40 0.838849 -0.300290 -1.312782 1.038393 0.338527 -0.651145
    41 1.789780 -0.000002 0.000000 0.000000 0.003711 0.332742
    42 1.207002 0.000004 0.000000 0.000000 0.005668 0.612525
    43 -0.534583 0.295798 -0.001972 -1.591880 0.022078 -1.868741
    44 0.113788 -0.132996 14.720030 0.000000 0.000000 0.000000
    45 0.113788 -0.132980 9.513786 0.000000 0.000000 0.000000
    46 0.000000 0.000000 0.000000 0.000000 0.000000 0.000000
    47 -0.000001 0.000000 0.000000 0.000000 0.000000 0.000000
    48 0.113790 -0.132980 16.481384 0.000000 0.000000 0.000000
    49 0.113787 -0.132977 18.076756 0.000000 0.000000 0.000000
    50 0.113789 -0.132977 19.676249 0.000015 0.000000 0.000000
    51 0.113791 -0.132980 21.255907 0.000000 0.000000 0.000000
    52 0.113788 -0.132984 22.869108 -0.000015 0.000000 0.000000
    53 0.113791 -0.132984 24.483316 0.000000 0.000000 0.000000
    54 0.113789 -0.132980 26.066462 0.000000 0.000000 0.000000
    55 0.113790 -0.132984 27.665102 0.000000 0.000000 0.000000
    56 4.717025 4.484173 33.327866 0.554458 0.029553 -0.762254
    57 0.089298 4.272583 4.480568 1.047172 0.000000 0.000000
    58 4.922175 -5.137238 33.583321 0.523583 0.000000 -2.327265
    59 0.001396 4.167400 4.226917 1.047198 0.000000 0.000000
    60 -4.578506 -5.283134 33.331909 0.000000 0.000000 2.438902
    61 0.269684 4.148857 4.474522 0.000000 0.000000 0.000000
    62 -4.409222 4.440937 33.338570 0.523578 0.000000 0.763647
    63 -0.045496 4.393921 4.464542 1.047216 0.000000 0.000000
    64 -4.439060 3.922565 13.956215 0.075659 -0.411864 0.634747
    65 0.113791 -0.132980 29.243567 0.000015 0.000000 0.000000
    66 0.000001 -16.000000 -57.000000 1.570792 0.000003 -0.000003
  time 6
    0 -0.533595 0.000000 38.566879 1.570796 0.000000 -1.570796
    1 0.000000 3.345131 -2.981898 1.570796 0.083193 1.570796
    2 3.995838 0.000000 0.000000 0.000000 0.000000 -0.028816
    3 3.520287 0.000000 0.000000 0.000000 0.000000 0.097307
    4 8.921467 0.000000 0.000000 0.000000 0.000000 0.186413
    5 2.059517 0.977921 1.937661 1.589740 -1.286515 2.950147
    6 36.978364 -71.224410 -9.728622 4.380846 -0.187065 0.338948
    7 11.692564 0.000000 0.000011 0.000000 0.000000 -0.745832
    8 11.481674 0.000001 -0.000038 1.329205 0.087754 0.746817
    9 3.850418 0.126099 -1.223440 -0.317316 -0.182678 -1.175166
    10 1.312563 0.000004 0.000000 -0.035210 0.041488 -1.113081
    11 0.729366 0.000000 0.000000 -0.013075 0.038597 -0.567715
    12 3.926350 0.316490 -0.462519 -0.168907 -0.159045 -1.089470
    13 1.539099 0.000000 -0.000002 -0.003296 0.001739 -1.334691
    14 1.196327 0.000001 -0.000002 -0.004291 0.004431 -1.200192
    15 3.881382 0.214691 0.400253 -0.056575 -0.204695 -1.030413
    16 1.719582 0.000004 0.000000 0.018838 -0.007916 -1.539002
    17 1.209179 0.000000 0.000006 0.008063 -0.008108 -0.998631
    18 3.871292 0.117428 1.300903 -0.020042 -0.190438 -1.160275
    19 1.719427 -0.000004 0.000002 0.101233 -0.032232 -1.611450
    20 1.099670 0.000000 -0.000002 0.042294 -0.053202 -0.907071
    21 0.838837 -0.300285 1.312775 -0.847487 -0.487805 -0.629244
    22 1.789784 -0.000002 0.000008 -0.000556 -0.003669 0.378873
    23 1.207006 0.000000 0.000004 -0.001696 -0.005421 0.664304
    24 2.059521 0.977922 -1.937661 -1.661569 1.286515 2.950147
    25 15.253092 -57.625600 -14.403366 0.078274 0.076023 -1.932998
    26 11.692570 -0.000004 0.000000 0.000000 0.000000 -0.735495
    27 11.481656 0.000000 0.000016 -1.610898 0.181262 -0.196406
    28 3.850428 0.126100 1.223442 0.218439 0.059429 -1.236279
    29 1.312562 0.000001 0.000000 0.013556 -0.052694 -0.660926
    30 0.729362 0.000001 0.000000 0.035126 -0.020663 -1.280268
    31 3.926356 0.316488 0.462509 0.078919 0.018325 -1.052031
    32 1.539095 0.000000 -0.000004 0.003023 -0.002130 -1.198666
    33 1.196321 0.000001 0.000011 0.004721 -0.004014 -1.294265
    34 3.881387 0.214694 -0.400257 -0.013550 -0.002191 -0.994617
    35 1.719579 0.000000 0.000000 -0.018227 0.009235 -1.467873
    36 1.209180 -0.000002 -0.000004 -0.009139 0.006871 -1.142228
    37 3.871304 0.117425 -1.300903 -0.078202 -0.025270 -1.087902
    38 1.719430 0.000000 -0.000004 -0.098412 0.040018 -1.533480
    39 1.099665 -0.000001 0.000000 -0.043318 0.052395 -0.926110
    40 0.838849 -0.300290 -1.312782 1.038393 0.338527 -0.651145
    41 1.789780 -0.000002 0.000000 0.000000 0.003711 0.332742
    42 1.207002 0.000004 0.000000 0.000000 0.005668 0.612525
    43 -0.534583 0.295798 -0.001972 -1.591880 0.022078 -1.868741
    44 0.113788 -0.132996 14.720030 0.000000 0.000000 0.000000
    45 0.113788 -0.132980 9.513786 0.000000 0.000000 0.000000
    46 0.000000 0.000000 0.000000 0.000000 0.000000 0.000000
    47 -0.000001 0.000000 0.000000 0.000000 0.000000 0.000000
    48 0.113790 -0.132980 16.481384 0.000000 0.000000 0.000000
    49 0.113787 -0.132977 18.076756 0.000000 0.000000 0.000000
    50 0.113789 -0.132977 19.676249 0.000015 0.000000 0.000000
    51 0.113791 -0.132980 21.255907 0.000000 0.000000 0.000000
    52 0.113788 -0.132984 22.869108 -0.000015 0.000000 0.000000
    53 0.113791 -0.132984 24.483316 0.000000 0.000000 0.000000
    54 0.113789 -0.132980 26.066462 0.000000 0.000000 0.000000
    55 0.113790 -0.132984 27.665102 0.000000 0.000000 0.000000
    56 4.717025 4.484173 33.327866 0.449093 0.029553 -0.762254
    57 0.089298 4.272583 4.480568 1.019080 0.000000 0.000000
    58 4.922175 -5.137238 33.583321 0.418217 0.000000 -2.327265
    59 0.001396 4.167400 4.226917 1.019074 0.000000 0.000000
    60 -4.578506 -5.283134 33.331909 0.000000 0.000000 2.438902
    61 0.269684 4.148857 4.474522 0.000000 0.000000 0.000000
    62 -4.409222 4.440937 33.338570 0.418210 0.000000 0.763647
    63 -0.045496 4.393921 4.464542 1.019092 0.000000 0.000000
    64 -4.439060 3.922565 13.956215 0.075659 -0.411864 0.634747
    65 0.113791 -0.132980 29.243567 0.000015 0.000000 0.000000
    66 0.000001 -16.000000 -57.000000 1.570792 0.000003 -0.000003
  time 7
    0 -0.533595 0.000000 38.566879 1.570796 0.000000 -1.570796
    1 0.000000 3.345131 -2.981898 1.570796 0.083193 1.570796
    2 3.995838 0.000000 0.000000 0.000000 0.000000 -0.028816
    3 3.520287 0.000000 0.000000 0.000000 0.000000 0.097307
    4 8.921467 0.000000 0.000000 0.000000 0.000000 0.186413
    5 2.059517 0.977921 1.937661 1.589740 -1.286515 2.950147
    6 36.880704 -71.247848 -9.814562 4.383240 -0.183843 0.333122
    7 11.692564 0.000000 0.000011 0.000000 0.000000 -0.745832
    8 11.481674 0.000001 -0.000038 1.329205 0.087754 0.746817
    9 3.850418 0.126099 -1.223440 -0.317316 -0.182678 -1.175166
    10 1.312563 0.000004 0.000000 -0.035210 0.041488 -1.113081
    11 0.729366 0.000000 0.000000 -0.013075 0.038597 -0.567715
    12 3.926350 0.316490 -0.462519 -0.168907 -0.159045 -1.089470
    13 1.539099 0.000000 -0.000002 -0.003296 0.001739 -1.334691
    14 1.196327 0.000001 -0.000002 -0.004291 0.004431 -1.200192
    15 3.881382 0.214691 0.400253 -0.056575 -0.204695 -1.030413
    16 1.719582 0.000004 0.000000 0.018838 -0.007916 -1.539002
    17 1.209179 0.000000 0.000006 0.008063 -0.008108 -0.998631
    18 3.871292 0.117428 1.300903 -0.020042 -0.190438 -1.160275
    19 1.719427 -0.000004 0.000002 0.101233 -0.032232 -1.611450
    20 1.099670 0.000000 -0.000002 0.042294 -0.053202 -0.907071
    21 0.838837 -0.300285 1.312775 -0.847487 -0.487805 -0.629244
    22 1.789784 -0.000002 0.000008 -0.000556 -0.003669 0.378873
    23 1.207006 0.000000 0.000004 -0.001696 -0.005421 0.664304
    24 2.059521 0.977922 -1.937661 -1.661569 1.286515 2.950147
    25 15.174965 -57.594349 -14.415085 0.077350 0.072308 -1.927570
    26 11.692570 -0.000004 0.000000 0.000000 0.000000 -0.735495
    27 11.481656 0.000000 0.000016 -1.610898 0.181262 -0.196406
    28 3.850428 0.126100 1.223442 0.218439 0.059429 -1.236279
    29 1.312562 0.000001 0.000000 0.013556 -0.052694 -0.660926
    30 0.729362 0.000001 0.000000 0.035126 -0.020663 -1.280268
    31 3.926356 0.316488 0.462509 0.078919 0.018325 -1.052031
    32 1.539095 0.000000 -0.000004 0.003023 -0.002130 -1.198666
    33 1.196321 0.000001 0.000011 0.004721 -0.004014 -1.294265
    34 3.881387 0.214694 -0.400257 -0.013550 -0.002191 -0.994617
    35 1.719579 0.000000 0.000000 -0.018227 0.009235 -1.467873
    36 1.209180 -0.000002 -0.000004 -0.009139 0.006871 -1.142228
    37 3.871304 0.117425 -1.300903 -0.078202 -0.025270 -1.087902
    38 1.719430 0.000000 -0.000004 -0.098412 0.040018 -1.533480
    39 1.099665 -0.000001 0.000000 -0.043318 0.052395 -0.926110
    40 0.838849 -0.300290 -1.312782 1.038393 0.338527 -0.651145
    41 1.789780 -0.000002 0.000000 0.000000 0.003711 0.332742
    42 1.207002 0.000004 0.000000 0.000000 0.005668 0.612525
    43 -0.534583 0.295798 -0.001972 -1.591880 0.022078 -1.868741
    44 0.113788 -0.132996 14.720030 0.000000 0.000000 0.000000
    45 0.113788 -0.132980 9.513786 0.000000 0.000000 0.000000
    46 0.000000 0.000000 0.000000 0.000000 0.000000 0.000000
    47 -0.000001 0.000000 0.000000 0.000000 0.000000 0.000000
    48 0.113790 -0.132980 16.481384 0.000000 0.000000 0.000000
    49 0.113787 -0.132977 18.076756 0.000000 0.000000 0.000000
    50 0.113789 -0.132977 19.676249 0.000015 0.000000 0.000000
    51 0.113791 -0.132980 21.255907 0.000000 0.000000 0.000000
    52 0.113788 -0.132984 22.869108 -0.000015 0.000000 0.000000
    53 0.113791 -0.132984 24.483316 0.000000 0.000000 0.000000
    54 0.113789 -0.132980 26.066462 0.000000 0.000000 0.000000
    55 0.113790 -0.132984 27.665102 0.000000 0.000000 0.000000
    56 4.717025 4.484173 33.327866 0.189165 0.029553 -0.762254
    57 0.089298 4.272583 4.480568 0.941803 0.000000 0.000000
    58 4.922175 -5.137238 33.583321 0.158290 0.000000 -2.327265
    59 0.001396 4.167400 4.226917 0.941798 0.000000 0.000000
    60 -4.578506 -5.283134 33.331909 0.000000 0.000000 2.438902
    61 0.269684 4.148857 4.474522 0.000000 0.000000 0.000000
    62 -4.409222 4.440937 33.338570 0.158276 0.000000 0.763647
    63 -0.045496 4.393921 4.464542 0.941814 0.000000 0.000000
    64 -4.439060 3.922565 13.956215 0.075659 -0.411864 0.634747
    65 0.113791 -0.132980 29.243567 0.000015 0.000000 0.000000
    66 0.000001 -16.000000 -57.000000 1.570792 0.000003 -0.000003
  time 8
    0 -0.533595 0.000000 38.566879 1.570796 0.000000 -1.570796
    1 0.000000 3.345131 -2.981898 1.570796 0.083193 1.570796
    2 3.995838 0.000000 0.000000 0.000000 0.000000 -0.028816
    3 3.520287 0.000000 0.000000 0.000000 0.000000 0.097307
    4 8.921467 0.000000 0.000000 0.000000 0.000000 0.186413
    5 2.059517 0.977921 1.937661 1.589740 -1.286515 2.950147
    6 36.814296 -71.111125 -9.951285 4.388984 -0.180852 0.331403
    7 11.692564 0.000000 0.000011 0.000000 0.000000 -0.745832
    8 11.481674 0.000001 -0.000038 1.329205 0.087754 0.746817
    9 3.850418 0.126099 -1.223440 -0.317316 -0.182678 -1.175166
    10 1.312563 0.000004 0.000000 -0.035210 0.041488 -1.113081
    11 0.729366 0.000000 0.000000 -0.013075 0.038597 -0.567715
    12 3.926350 0.316490 -0.462519 -0.168907 -0.159045 -1.089470
    13 1.539099 0.000000 -0.000002 -0.003296 0.001739 -1.334691
    14 1.196327 0.000001 -0.000002 -0.004291 0.004431 -1.200192
    15 3.881382 0.214691 0.400253 -0.056575 -0.204695 -1.030413
    16 1.719582 0.000004 0.000000 0.018838 -0.007916 -1.539002
    17 1.209179 0.000000 0.000006 0.008063 -0.008108 -0.998631
    18 3.871292 0.117428 1.300903 -0.020042 -0.190438 -1.160275
    19 1.719427 -0.000004 0.000002 0.101233 -0.032232 -1.611450
    20 1.099670 0.000000 -0.000002 0.042294 -0.053202 -0.907071
    21 0.838837 -0.300285 1.312775 -0.847487 -0.487805 -0.629244
    22 1.789784 -0.000002 0.000008 -0.000556 -0.003669 0.378873
    23 1.207006 0.000000 0.000004 -0.001696 -0.005421 0.664304
    24 2.059521 0.977922 -1.937661 -1.661569 1.286515 2.950147
    25 15.112463 -57.555285 -14.434617 0.078101 0.066009 -1.926746
    26 11.692570 -0.000004 0.000000 0.000000 0.000000 -0.735495
    27 11.481656 0.000000 0.000016 -1.610898 0.181262 -0.196406
    28 3.850428 0.126100 1.223442 0.218439 0.059429 -1.236279
    29 1.312562 0.000001 0.000000 0.013556 -0.052694 -0.660926
    30 0.729362 0.000001 0.000000 0.035126 -0.020663 -1.280268
    31 3.926356 0.316488 0.462509 0.078919 0.018325 -1.052031
    32 1.539095 0.000000 -0.000004 0.003023 -0.002130 -1.198666
    33 1.196321 0.000001 0.000011 0.004721 -0.004014 -1.294265
    34 3.881387 0.214694 -0.400257 -0.013550 -0.002191 -0.994617
    35 1.719579 0.000000 0.000000 -0.018227 0.009235 -1.467873
    36 1.209180 -0.000002 -0.000004 -0.009139 0.006871 -1.142228
    37 3.871304 0.117425 -1.300903 -0.078202 -0.025270 -1.087902
    38 1.719430 0.000000 -0.000004 -0.098412 0.040018 -1.533480
    39 1.099665 -0.000001 0.000000 -0.043318 0.052395 -0.926110
    40 0.838849 -0.300290 -1.312782 1.038393 0.338527 -0.651145
    41 1.789780 -0.000002 0.000000 0.000000 0.003711 0.332742
    42 1.207002 0.000004 0.000000 0.000000 0.005668 0.612525
    43 -0.534583 0.295798 -0.001972 -1.591880 0.022078 -1.868741
    44 0.113788 -0.132996 14.720030 0.000000 0.000000 0.000000
    45 0.113788 -0.132980 9.513786 0.000000 0.000000 0.000000
    46 0.000000 0.000000 0.000000 0.000000 0.000000 0.000000
    47 -0.000001 0.000000 0.000000 0.000000 0.000000 0.000000
    48 0.113790 -0.132980 16.481384 0.000000 0.000000 0.000000
    49 0.113787 -0.132977 18.076756 0.000000 0.000000 0.000000
    50 0.113789 -0.132977 19.676249 0.000015 0.000000 0.000000
    51 0.113791 -0.132980 21.255907 0.000000 0.000000 0.000000
    52 0.113788 -0.132984 22.869108 -0.000015 0.000000 0.000000
    53 0.113791 -0.132984 24.483316 0.000000 0.000000 0.000000
    54 0.113789 -0.132980 26.066462 0.000000 0.000000 0.000000
    55 0.113790 -0.132984 27.665102 0.000000 0.000000 0.000000
    56 4.717025 4.484173 33.327866 -0.127417 0.029553 -0.762254
    57 0.089298 4.272583 4.480568 0.825663 0.000000 0.000000
    58 4.922175 -5.137238 33.583321 -0.158290 0.000000 -2.327265
    59 0.001396 4.167400 4.226917 0.825659 0.000000 0.000000
    60 -4.578506 -5.283134 33.331909 0.000000 0.000000 2.438902
    61 0.269684 4.148857 4.474522 0.000000 0.000000 0.000000
    62 -4.409222 4.440937 33.338570 -0.158294 0.000000 0.763647
    63 -0.045496 4.393921 4.464542 0.825673 0.000000 0.000000
    64 -4.439060 3.922565 13.956215 0.075659 -0.411864 0.634747
    65 0.113791 -0.132980 29.243567 0.000015 0.000000 0.000000
    66 0.000001 -16.000000 -57.000000 1.570792 0.000003 -0.000003
  time 9
    0 -0.533595 0.000000 38.566879 1.570796 0.000000 -1.570796
    1 0.000000 3.345131 -2.981898 1.570796 0.083193 1.570796
    2 3.995838 0.000000 0.000000 0.000000 0.000000 -0.028816
    3 3.520287 0.000000 0.000000 0.000000 0.000000 0.097307
    4 8.921467 0.000000 0.000000 0.000000 0.000000 0.186413
    5 2.059517 0.977921 1.937661 1.589740 -1.286515 2.950147
    6 36.712730 -70.857211 -10.189573 4.399897 -0.177446 0.331499
    7 11.692564 0.000000 0.000011 0.000000 0.000000 -0.745832
    8 11.481674 0.000001 -0.000038 1.329205 0.087754 0.746817
    9 3.850418 0.126099 -1.223440 -0.317316 -0.182678 -1.175166
    10 1.312563 0.000004 0.000000 -0.035210 0.041488 -1.113081
    11 0.729366 0.000000 0.000000 -0.013075 0.038597 -0.567715
    12 3.926350 0.316490 -0.462519 -0.168907 -0.159045 -1.089470
    13 1.539099 0.000000 -0.000002 -0.003296 0.001739 -1.334679
    14 1.196327 0.000001 -0.000002 -0.004291 0.004431 -1.200192
    15 3.881382 0.214691 0.400253 -0.056575 -0.204695 -1.030413
    16 1.719582 0.000004 0.000000 0.018838 -0.007916 -1.539002
    17 1.209179 0.000000 0.000006 0.008063 -0.008108 -0.998631
    18 3.871292 0.117428 1.300903 -0.020042 -0.190438 -1.160275
    19 1.719427 -0.000004 0.000002 0.101233 -0.032232 -1.611450
    20 1.099670 0.000000 -0.000002 0.042294 -0.053202 -0.907071
    21 0.838837 -0.300285 1.312775 -0.847487 -0.487805 -0.629244
    22 1.789784 -0.000002 0.000008 -0.000556 -0.003669 0.378873
    23 1.207006 0.000000 0.000004 -0.001696 -0.005421 0.664304
    24 2.059521 0.977922 -1.937661 -1.661569 1.286515 2.950147
    25 15.085118 -57.535753 -14.450242 0.081104 0.055188 -1.928669
    26 11.692570 -0.000004 0.000000 0.000000 0.000000 -0.735495
    27 11.481656 0.000000 0.000016 -1.610898 0.181262 -0.196406
    28 3.850428 0.126100 1.223442 0.218439 0.059429 -1.236279
    29 1.312562 0.000001 0.000000 0.013556 -0.052694 -0.660926
    30 0.729362 0.000001 0.000000 0.035126 -0.020663 -1.280268
    31 3.926356 0.316488 0.462509 0.078919 0.018325 -1.052031
    32 1.539095 0.000000 -0.000004 0.003023 -0.002130 -1.198666
    33 1.196321 0.000001 0.000011 0.004721 -0.004014 -1.294265
    34 3.881387 0.214694 -0.400257 -0.013550 -0.002191 -0.994617
    35 1.719579 0.000000 0.000000 -0.018227 0.009235 -1.467873
    36 1.209180 -0.000002 -0.000004 -0.009139 0.006871 -1.142228
    37 3.871304 0.117425 -1.300903 -0.078202 -0.025270 -1.087902
    38 1.719430 0.000000 -0.000004 -0.098412 0.040018 -1.533480
    39 1.099665 -0.000001 0.000000 -0.043318 0.052395 -0.926110
    40 0.838849 -0.300290 -1.312782 1.038393 0.338527 -0.651145
    41 1.789780 -0.000002 0.000000 0.000000 0.003711 0.332742
    42 1.207002 0.000004 0.000000 0.000000 0.005668 0.612525
    43 -0.534583 0.295798 -0.001972 -1.591880 0.022078 -1.868741
    44 0.113788 -0.132996 14.720030 0.000000 0.000000 0.000000
    45 0.113788 -0.132980 9.513786 0.000000 0.000000 0.000000
    46 0.000000 0.000000 0.000000 0.000000 0.000000 0.000000
    47 -0.000001 0.000000 0.000000 0.000000 0.000000 0.000000
    48 0.113790 -0.132980 16.481384 0.000000 0.000000 0.000000
    49 0.113787 -0.132977 18.076756 0.000000 0.000000 0.000000
    50 0.113789 -0.132977 19.676249 0.000015 0.000000 0.000000
    51 0.113791 -0.132980 21.255907 0.000000 0.000000 0.000000
    52 0.113788 -0.132984 22.869108 -0.000015 0.000000 0.000000
    53 0.113791 -0.132984 24.483316 0.000000 0.000000 0.000000
    54 0.113789 -0.132980 26.066462 0.000000 0.000000 0.000000
    55 0.113790 -0.132984 27.665102 0.000000 0.000000 0.000000
    56 4.717025 4.484173 33.327866 -0.387345 0.029553 -0.762254
    57 0.089298 4.272583 4.480568 0.681879 0.000000 0.000000
    58 4.922175 -5.137238 33.583321 -0.418217 0.000000 -2.327265
    59 0.001396 4.167400 4.226917 0.681876 0.000000 0.000000
    60 -4.578506 -5.283134 33.331909 0.000000 0.000000 2.438902
    61 0.269684 4.148857 4.474522 0.000000 0.000000 0.000000
    62 -4.409222 4.440937 33.338570 -0.418228 0.000000 0.763647
    63 -0.045496 4.393921 4.464542 0.681887 0.000000 0.000000
    64 -4.439060 3.922565 13.956215 0.075659 -0.411864 0.634747
    65 0.113791 -0.132980 29.243567 0.000015 0.000000 0.000000
    66 0.000001 -16.000000 -57.000000 1.570792 0.000003 -0.000003
  time 10
    0 -0.533595 0.000000 38.566879 1.570796 0.000000 -1.570796
    1 0.000000 3.345131 -2.981898 1.570796 0.083193 1.570796
    2 3.995838 0.000000 0.000000 0.000000 0.000000 -0.028816
    3 3.520287 0.000000 0.000000 0.000000 0.000000 0.097307
    4 8.921467 0.000000 0.000000 0.000000 0.000000 0.186413
    5 2.059517 0.977921 1.937661 1.589740 -1.286515 2.950147
    6 36.669760 -70.575953 -10.404424 4.411194 -0.177216 0.332358
    7 11.692564 0.000000 0.000011 0.000000 0.000000 -0.745832
    8 11.481674 0.000001 -0.000038 1.329205 0.087754 0.746817
    9 3.850418 0.126099 -1.223440 -0.317316 -0.182678 -1.175166
    10 1.312563 0.000004 0.000000 -0.035210 0.041488 -1.113081
    11 0.729366 0.000000 0.000000 -0.013075 0.038597 -0.567715
    12 3.926350 0.316490 -0.462519 -0.168907 -0.159045 -1.089470
    13 1.539099 0.000000 -0.000002 -0.003296 0.001739 -1.334691
    14 1.196327 0.000001 -0.000002 -0.004291 0.004431 -1.200192
    15 3.881382 0.214691 0.400253 -0.056575 -0.204695 -1.030413
    16 1.719582 0.000004 0.000000 0.018838 -0.007916 -1.539002
    17 1.209179 0.000000 0.000006 0.008063 -0.008108 -0.998631
    18 3.871292 0.117428 1.300903 -0.020042 -0.190438 -1.160275
    19 1.719427 -0.000004 0.000002 0.101233 -0.032232 -1.611450
    20 1.099670 0.000000 -0.000002 0.042294 -0.053202 -0.907071
    21 0.838837 -0.300285 1.312775 -0.847487 -0.487805 -0.629244
    22 1.789784 -0.000002 0.000008 -0.000556 -0.003669 0.378873
    23 1.207006 0.000000 0.000004 -0.001696 -0.005421 0.664304
    24 2.059521 0.977922 -1.937661 -1.661569 1.286515 2.950147
    25 15.085118 -57.535753 -14.450242 0.086938 0.045756 -1.931486
    26 11.692570 -0.000004 0.000000 0.000000 0.000000 -0.735495
    27 11.481656 0.000000 0.000016 -1.610898 0.181262 -0.196406
    28 3.850428 0.126100 1.223442 0.218439 0.059429 -1.236279
    29 1.312562 0.000001 0.000000 0.013556 -0.052694 -0.660926
    30 0.729362 0.000001 0.000000 0.035126 -0.020663 -1.280268
    31 3.926356 0.316488 0.462509 0.078919 0.018325 -1.052031
    32 1.539095 0.000000 -0.000004 0.003023 -0.002130 -1.198666
    33 1.196321 0.000001 0.000011 0.004721 -0.004014 -1.294265
    34 3.881387 0.214694 -0.400257 -0.013550 -0.002191 -0.994617
    35 1.719579 0.000000 0.000000 -0.018227 0.009235 -1.467873
    36 1.209180 -0.000002 -0.000004 -0.009139 0.006871 -1.142228
    37 3.871304 0.117425 -1.300903 -0.078202 -0.025270 -1.087902
    38 1.719430 0.000000 -0.000004 -0.098412 0.040018 -1.533480
    39 1.099665 -0.000001 0.000000 -0.043318 0.052395 -0.926110
    40 0.838849 -0.300290 -1.312782 1.038393 0.338527 -0.651145
    41 1.789780 -0.000002 0.000000 0.000000 0.003711 0.332742
    42 1.207002 0.000004 0.000000 0.000000 0.005668 0.612525
    43 -0.534583 0.295798 -0.001972 -1.591880 0.022078 -1.868741
    44 0.113788 -0.132996 14.720030 0.000000 0.000000 0.000000
    45 0.113788 -0.132980 9.513786 0.000000 0.000000 0.000000
    46 0.000000 0.000000 0.000000 0.000000 0.000000 0.000000
    47 -0.000001 0.000000 0.000000 0.000000 0.000000 0.000000
    48 0.113790 -0.132980 16.481384 0.000000 0.000000 0.000000
    49 0.113787 -0.132977 18.076756 0.000000 0.000000 0.000000
    50 0.113789 -0.132977 19.676249 0.000015 0.000000 0.000000
    51 0.113791 -0.132980 21.255907 0.000000 0.000000 0.000000
    52 0.113788 -0.132984 22.869108 -0.000015 0.000000 0.000000
    53 0.113791 -0.132984 24.483316 0.000000 0.000000 0.000000
    54 0.113789 -0.132980 26.066462 0.000000 0.000000 0.000000
    55 0.113790 -0.132984 27.665102 0.000000 0.000000 0.000000
    56 4.717025 4.484173 33.327866 -0.492710 0.029553 -0.762254
    57 0.089298 4.272583 4.480568 0.523586 0.000000 0.000000
    58 4.922175 -5.137238 33.583321 -0.523583 0.000000 -2.327265
    59 0.001396 4.167400 4.226917 0.523583 0.000000 0.000000
    60 -4.578506 -5.283134 33.331909 0.000000 0.000000 2.438902
    61 0.269684 4.148857 4.474522 0.000000 0.000000 0.000000
    62 -4.409222 4.440937 33.338570 -0.523615 0.000000 0.763647
    63 -0.045496 4.393921 4.464542 0.523592 0.000000 0.000000
    64 -4.439060 3.922565 13.956215 0.075659 -0.411864 0.634747
    65 0.113791 -0.132980 29.243567 0.000015 0.000000 0.000000
    66 0.000001 -16.000000 -57.000000 1.570792 0.000003 -0.000003
  time 11
    0 -0.533595 0.000000 38.566879 1.570796 0.000000 -1.570796
    1 0.000000 3.345131 -2.981898 1.570796 0.083193 1.570796
    2 3.995838 0.000000 0.000000 0.000000 0.000000 -0.028816
    3 3.520287 0.000000 0.000000 0.000000 0.000000 0.097307
    4 8.921467 0.000000 0.000000 0.000000 0.000000 0.186413
    5 2.059517 0.977921 1.937661 1.589740 -1.286515 2.950147
    6 36.697105 -70.466574 -10.439581 4.414257 -0.178643 0.334268
    7 11.692564 0.000000 0.000011 0.000000 0.000000 -0.745832
    8 11.481674 0.000001 -0.000038 1.329205 0.087754 0.746817
    9 3.850418 0.126099 -1.223440 -0.317316 -0.182678 -1.175166
    10 1.312563 0.000004 0.000000 -0.035210 0.041488 -1.113081
    11 0.729366 0.000000 0.000000 -0.013075 0.038597 -0.567715
    12 3.926350 0.316490 -0.462519 -0.168907 -0.159045 -1.089470
    13 1.539099 0.000000 -0.000002 -0.003296 0.001739 -1.334691
    14 1.196327 0.000001 -0.000002 -0.004291 0.004431 -1.200192
    15 3.881382 0.214691 0.400253 -0.056575 -0.204695 -1.030413
    16 1.719582 0.000004 0.000000 0.018838 -0.007916 -1.539002
    17 1.209179 0.000000 0.000006 0.008063 -0.008108 -0.998631
    18 3.871292 0.117428 1.300903 -0.020042 -0.190438 -1.160275
    19 1.719427 -0.000004 0.000002 0.101233 -0.032232 -1.611450
    20 1.099670 0.000000 -0.000002 0.042294 -0.053202 -0.907071
    21 0.838837 -0.300285 1.312775 -0.847487 -0.487805 -0.629244
    22 1.789784 -0.000002 0.000008 -0.000556 -0.003669 0.378873
    23 1.207006 0.000000 0.000004 -0.001696 -0.005421 0.664304
    24 2.059521 0.977922 -1.937661 -1.661569 1.286515 2.950147
    25 15.096837 -57.543566 -14.442430 0.089652 0.044011 -1.934051
    26 11.692570 -0.000004 0.000000 0.000000 0.000000 -0.735495
    27 11.481656 0.000000 0.000016 -1.610898 0.181262 -0.196406
    28 3.850428 0.126100 1.223442 0.218439 0.059429 -1.236279
    29 1.312562 0.000001 0.000000 0.013556 -0.052694 -0.660926
    30 0.729362 0.000001 0.000000 0.035126 -0.020663 -1.280268
    31 3.926356 0.316488 0.462509 0.078919 0.018325 -1.052031
    32 1.539095 0.000000 -0.000004 0.003023 -0.002130 -1.198666
    33 1.196321 0.000001 0.000011 0.004721 -0.004014 -1.294265
    34 3.881387 0.214694 -0.400257 -0.013550 -0.002191 -0.994617
    35 1.719579 0.000000 0.000000 -0.018227 0.009235 -1.467873
    36 1.209180 -0.000002 -0.000004 -0.009139 0.006871 -1.142228
    37 3.871304 0.117425 -1.300903 -0.078202 -0.025270 -1.087902
    38 1.719430 0.000000 -0.000004 -0.098412 0.040018 -1.533480
    39 1.099665 -0.000001 0.000000 -0.043318 0.052395 -0.926110
    40 0.838849 -0.300290 -1.312782 1.038393 0.338527 -0.651145
    41 1.789780 -0.000002 0.000000 0.000000 0.003711 0.332742
    42 1.207002 0.000004 0.000000 0.000000 0.005668 0.612525
    43 -0.534583 0.295798 -0.001972 -1.591880 0.022078 -1.868741
    44 0.113788 -0.132996 14.720030 0.000000 0.000000 0.000000
    45 0.113788 -0.132980 9.513786 0.000000 0.000000 0.000000
    46 0.000000 0.000000 0.000000 0.000000 0.000000 0.000000
    47 -0.000001 0.000000 0.000000 0.000000 0.000000 0.000000
    48 0.113790 -0.132980 16.481384 0.000000 0.000000 0.000000
    49 0.113787 -0.132977 18.076756 0.000000 0.000000 0.000000
    50 0.113789 -0.132977 19.676249 0.000015 0.000000 0.000000
    51 0.113791 -0.132980 21.255907 0.000000 0.000000 0.000000
    52 0.113788 -0.132984 22.869108 -0.000015 0.000000 0.000000
    53 0.113791 -0.132984 24.483316 0.000000 0.000000 0.000000
    54 0.113789 -0.132980 26.066462 0.000000 0.000000 0.000000
    55 0.113790 -0.132984 27.665102 0.000000 0.000000 0.000000
    56 4.717025 4.484173 33.327866 -0.438704 0.029553 -0.762254
    57 0.089298 4.272583 4.480568 0.365293 0.000000 0.000000
    58 4.922175 -5.137238 33.583321 -0.469576 0.000000 -2.327265
    59 0.001396 4.167400 4.226917 0.365291 0.000000 0.000000
    60 -4.578506 -5.283134 33.331909 0.000000 0.000000 2.438902
    61 0.269684 4.148857 4.474522 0.000000 0.000000 0.000000
    62 -4.409222 4.440937 33.338570 -0.469589 0.000000 0.763647
    63 -0.045496 4.393921 4.464542 0.365297 0.000000 0.000000
    64 -4.439060 3.922565 13.956215 0.075659 -0.411864 0.634747
    65 0.113791 -0.132980 29.243567 0.000015 0.000000 0.000000
    66 0.000001 -16.000000 -57.000000 1.570792 0.000003 -0.000003
  time 12
    0 -0.533595 0.000000 38.566879 1.570796 0.000000 -1.570796
    1 0.000000 3.345131 -2.981898 1.570796 0.083193 1.570796
    2 3.995838 0.000000 0.000000 0.000000 0.000000 -0.028816
    3 3.520287 0.000000 0.000000 0.000000 0.000000 0.097307
    4 8.921467 0.000000 0.000000 0.000000 0.000000 0.186413
    5 2.059517 0.977921 1.937661 1.589740 -1.286515 2.950147
    6 36.755700 -70.478294 -10.384892 4.411768 -0.179931 0.336847
    7 11.692564 0.000000 0.000011 0.000000 0.000000 -0.745832
    8 11.481674 0.000001 -0.000038 1.329205 0.087754 0.746817
    9 3.850418 0.126099 -1.223440 -0.317316 -0.182678 -1.175166
    10 1.312563 0.000004 0.000000 -0.035210 0.041488 -1.113081
    11 0.729366 0.000000 0.000000 -0.013075 0.038597 -0.567715
    12 3.926350 0.316490 -0.462519 -0.168907 -0.159045 -1.089470
    13 1.539099 0.000000 -0.000002 -0.003296 0.001739 -1.334679
    14 1.196327 0.000001 -0.000002 -0.004291 0.004431 -1.200192
    15 3.881382 0.214691 0.400253 -0.056575 -0.204695 -1.030413
    16 1.719582 0.000004 0.000000 0.018838 -0.007916 -1.539002
    17 1.209179 0.000000 0.000006 0.008063 -0.008108 -0.998631
    18 3.871292 0.117428 1.300903 -0.020042 -0.190438 -1.160275
    19 1.719427 -0.000004 0.000002 0.101233 -0.032232 -1.611450
    20 1.099670 0.000000 -0.000002 0.042294 -0.053202 -0.907071
    21 0.838837 -0.300285 1.312775 -0.847487 -0.487805 -0.629244
    22 1.789784 -0.000002 0.000008 -0.000556 -0.003669 0.378873
    23 1.207006 0.000000 0.000004 -0.001696 -0.005421 0.664304
    24 2.059521 0.977922 -1.937661 -1.661569 1.286515 2.950147
    25 15.116369 -57.551378 -14.434617 0.089132 0.046725 -1.936227
    26 11.692570 -0.000004 0.000000 0.000000 0.000000 -0.735495
    27 11.481656 0.000000 0.000016 -1.610898 0.181262 -0.196406
    28 3.850428 0.126100 1.223442 0.218439 0.059429 -1.236279
    29 1.312562 0.000001 0.000000 0.013556 -0.052694 -0.660926
    30 0.729362 0.000001 0.000000 0.035126 -0.020663 -1.280268
    31 3.926356 0.316488 0.462509 0.078919 0.018325 -1.052031
    32 1.539095 0.000000 -0.000004 0.003023 -0.002130 -1.198666
    33 1.196321 0.000001 0.000011 0.004721 -0.004014 -1.294265
    34 3.881387 0.214694 -0.400257 -0.013550 -0.002191 -0.994617
    35 1.719579 0.000000 0.000000 -0.018227 0.009235 -1.467873
    36 1.209180 -0.000002 -0.000004 -0.009139 0.006871 -1.142228
    37 3.871304 0.117425 -1.300903 -0.078202 -0.025270 -1.087902
    38 1.719430 0.000000 -0.000004 -0.098412 0.040018 -1.533480
    39 1.099665 -0.000001 0.000000 -0.043318 0.052395 -0.926110
    40 0.838849 -0.300290 -1.312782 1.038393 0.338527 -0.651145
    41 1.789780 -0.000002 0.000000 0.000000 0.003711 0.332742
    42 1.207002 0.000004 0.000000 0.000000 0.005668 0.612525
    43 -0.534583 0.295798 -0.001972 -1.591880 0.022078 -1.868741
    44 0.113788 -0.132996 14.720030 0.000000 0.000000 0.000000
    45 0.113788 -0.132980 9.513786 0.000000 0.000000 0.000000
    46 0.000000 0.000000 0.000000 0.000000 0.000000 0.000000
    47 -0.000001 0.000000 0.000000 0.000000 0.000000 0.000000
    48 0.113790 -0.132980 16.481384 0.000000 0.000000 0.000000
    49 0.113787 -0.132977 18.076756 0.000000 0.000000 0.000000
    50 0.113789 -0.132977 19.676249 0.000015 0.000000 0.000000
    51 0.113791 -0.132980 21.255907 0.000000 0.000000 0.000000
    52 0.113788 -0.132984 22.869108 -0.000015 0.000000 0.000000
    53 0.113791 -0.132984 24.483316 0.000000 0.000000 0.000000
    54 0.113789 -0.132980 26.066462 0.000000 0.000000 0.000000
    55 0.113790 -0.132984 27.665102 0.000000 0.000000 0.000000
    56 4.717025 4.484173 33.327866 -0.308824 0.029553 -0.762254
    57 0.089298 4.272583 4.480568 0.221509 0.000000 0.000000
    58 4.922175 -5.137238 33.583321 -0.339697 0.000000 -2.327265
    59 0.001396 4.167400 4.226917 0.221507 0.000000 0.000000
    60 -4.578506 -5.283134 33.331909 0.000000 0.000000 2.438902
    61 0.269684 4.148857 4.474522 0.000000 0.000000 0.000000
    62 -4.409222 4.440937 33.338570 -0.339706 0.000000 0.763647
    63 -0.045496 4.393921 4.464542 0.221543 0.000000 0.000000
    64 -4.439060 3.922565 13.956215 0.075659 -0.411864 0.634747
    65 0.113791 -0.132980 29.243567 0.000015 0.000000 0.000000
    66 0.000001 -16.000000 -57.000000 1.570792 0.000003 -0.000003
  time 13
    0 -0.533595 0.000000 38.566879 1.570796 0.000000 -1.570796
    1 0.000000 3.345131 -2.981898 1.570796 0.083193 1.570796
    2 3.995838 0.000000 0.000000 0.000000 0.000000 -0.028816
    3 3.520287 0.000000 0.000000 0.000000 0.000000 0.097307
    4 8.921467 0.000000 0.000000 0.000000 0.000000 0.186413
    5 2.059517 0.977921 1.937661 1.589740 -1.286515 2.950147
    6 36.829921 -70.536889 -10.279420 4.407077 -0.181588 0.339425
    7 11.692564 0.000000 0.000011 0.000000 0.000000 -0.745832
    8 11.481674 0.000001 -0.000038 1.329205 0.087754 0.746817
    9 3.850418 0.126099 -1.223440 -0.317316 -0.182678 -1.175166
    10 1.312563 0.000004 0.000000 -0.035210 0.041488 -1.113081
    11 0.729366 0.000000 0.000000 -0.013075 0.038597 -0.567715
    12 3.926350 0.316490 -0.462519 -0.168907 -0.159045 -1.089470
    13 1.539099 0.000000 -0.000002 -0.003296 0.001739 -1.334679
    14 1.196327 0.000001 -0.000002 -0.004291 0.004431 -1.200192
    15 3.881382 0.214691 0.400253 -0.056575 -0.204695 -1.030413
    16 1.719582 0.000004 0.000000 0.018838 -0.007916 -1.539002
    17 1.209179 0.000000 0.000006 0.008063 -0.008108 -0.998631
    18 3.871292 0.117428 1.300903 -0.020042 -0.190438 -1.160275
    19 1.719427 -0.000004 0.000002 0.101233 -0.032232 -1.611450
    20 1.099670 0.000000 -0.000002 0.042294 -0.053202 -0.907071
    21 0.838837 -0.300285 1.312775 -0.847487 -0.487805 -0.629244
    22 1.789784 -0.000002 0.000008 -0.000556 -0.003669 0.378873
    23 1.207006 0.000000 0.000004 -0.001696 -0.005421 0.664304
    24 2.059521 0.977922 -1.937661 -1.661569 1.286515 2.950147
    25 15.135901 -57.563098 -14.426804 0.087862 0.051473 -1.938013
    26 11.692570 -0.000004 0.000000 0.000000 0.000000 -0.735495
    27 11.481656 0.000000 0.000016 -1.610898 0.181262 -0.196406
    28 3.850428 0.126100 1.223442 0.218439 0.059429 -1.236279
    29 1.312562 0.000001 0.000000 0.013556 -0.052694 -0.660926
    30 0.729362 0.000001 0.000000 0.035126 -0.020663 -1.280268
    31 3.926356 0.316488 0.462509 0.078919 0.018325 -1.052031
    32 1.539095 0.000000 -0.000004 0.003023 -0.002130 -1.198666
    33 1.196321 0.000001 0.000011 0.004721 -0.004014 -1.294265
    34 3.881387 0.214694 -0.400257 -0.013550 -0.002191 -0.994617
    35 1.719579 0.000000 0.000000 -0.018227 0.009235 -1.467873
    36 1.209180 -0.000002 -0.000004 -0.009139 0.006871 -1.142228
    37 3.871304 0.117425 -1.300903 -0.078202 -0.025270 -1.087902
    38 1.719430 0.000000 -0.000004 -0.098412 0.040018 -1.533480
    39 1.099665 -0.000001 0.000000 -0.043318 0.052395 -0.926110
    40 0.838849 -0.300290 -1.312782 1.038393 0.338527 -0.651145
    41 1.789780 -0.000002 0.000000 0.000000 0.003711 0.332742
    42 1.207002 0.000004 0.000000 0.000000 0.005668 0.612525
    43 -0.534583 0.295798 -0.001972 -1.591880 0.022078 -1.868741
    44 0.113788 -0.132996 14.720030 0.000000 0.000000 0.000000
    45 0.113788 -0.132980 9.513786 0.000000 0.000000 0.000000
    46 0.000000 0.000000 0.000000 0.000000 0.000000 0.000000
    47 -0.000001 0.000000 0.000000 0.000000 0.000000 0.000000
    48 0.113790 -0.132980 16.481384 0.000000 0.000000 0.000000
    49 0.113787 -0.132977 18.076756 0.000000 0.000000 0.000000
    50 0.113789 -0.132977 19.676249 0.000015 0.000000 0.000000
    51 0.113791 -0.132980 21.255907 0.000000 0.000000 0.000000
    52 0.113788 -0.132984 22.869108 -0.000015 0.000000 0.000000
    53 0.113791 -0.132984 24.483316 0.000000 0.000000 0.000000
    54 0.113789 -0.132980 26.066462 0.000000 0.000000 0.000000
    55 0.113790 -0.132984 27.665102 0.000000 0.000000 0.000000
    56 4.717025 4.484173 33.327866 -0.153012 0.029553 -0.762254
    57 0.089298 4.272583 4.480568 0.105369 0.000000 0.000000
    58 4.922175 -5.137238 33.583321 -0.183886 0.000000 -2.327265
    59 0.001396 4.167400 4.226917 0.105369 0.000000 0.000000
    60 -4.578506 -5.283134 33.331909 0.000000 0.000000 2.438902
    61 0.269684 4.148857 4.474522 0.000000 0.000000 0.000000
    62 -4.409222 4.440937 33.338570 -0.183909 0.000000 0.763647
    63 -0.045496 4.393921 4.464542 0.105370 0.000000 0.000000
    64 -4.439060 3.922565 13.956215 0.075659 -0.411864 0.634747
    65 0.113791 -0.132980 29.243567 0.000015 0.000000 0.000000
    66 0.000001 -16.000000 -57.000000 1.570792 0.000003 -0.000003
  time 14
    0 -0.533595 0.000000 38.566879 1.570796 0.000000 -1.570796
    1 0.000000 3.345131 -2.981898 1.570796 0.083193 1.570796
    2 3.995838 0.000000 0.000000 0.000000 0.000000 -0.028816
    3 3.520287 0.000000 0.000000 0.000000 0.000000 0.097307
    4 8.921467 0.000000 0.000000 0.000000 0.000000 0.186413
    5 2.059517 0.977921 1.937661 1.589740 -1.286515 2.950147
    6 36.896330 -70.603297 -10.177854 4.402578 -0.183061 0.341431
    7 11.692564 0.000000 0.000011 0.000000 0.000000 -0.745832
    8 11.481674 0.000001 -0.000038 1.329205 0.087754 0.746817
    9 3.850418 0.126099 -1.223440 -0.317316 -0.182678 -1.175166
    10 1.312563 0.000004 0.000000 -0.035210 0.041488 -1.113081
    11 0.729366 0.000000 0.000000 -0.013075 0.038597 -0.567715
    12 3.926350 0.316490 -0.462519 -0.168907 -0.159045 -1.089470
    13 1.539099 0.000000 -0.000002 -0.003296 0.001739 -1.334691
    14 1.196327 0.000001 -0.000002 -0.004291 0.004431 -1.200192
    15 3.881382 0.214691 0.400253 -0.056575 -0.204695 -1.030413
    16 1.719582 0.000004 0.000000 0.018838 -0.007916 -1.539002
    17 1.209179 0.000000 0.000006 0.008063 -0.008108 -0.998631
    18 3.871292 0.117428 1.300903 -0.020042 -0.190438 -1.160275
    19 1.719427 -0.000004 0.000002 0.101233 -0.032232 -1.611450
    20 1.099670 0.000000 -0.000002 0.042294 -0.053202 -0.907071
    21 0.838837 -0.300285 1.312775 -0.847487 -0.487805 -0.629244
    22 1.789784 -0.000002 0.000008 -0.000556 -0.003669 0.378873
    23 1.207006 0.000000 0.000004 -0.001696 -0.005421 0.664304
    24 2.059521 0.977922 -1.937661 -1.661569 1.286515 2.950147
    25 15.151526 -57.574817 -14.422898 0.086476 0.055963 -1.939250
    26 11.692570 -0.000004 0.000000 0.000000 0.000000 -0.735495
    27 11.481656 0.000000 0.000016 -1.610898 0.181262 -0.196406
    28 3.850428 0.126100 1.223442 0.218439 0.059429 -1.236279
    29 1.312562 0.000001 0.000000 0.013556 -0.052694 -0.660926
    30 0.729362 0.000001 0.000000 0.035126 -0.020663 -1.280268
    31 3.926356 0.316488 0.462509 0.078919 0.018325 -1.052031
    32 1.539095 0.000000 -0.000004 0.003023 -0.002130 -1.198666
    33 1.196321 0.000001 0.000011 0.004721 -0.004014 -1.294265
    34 3.881387 0.214694 -0.400257 -0.013550 -0.002191 -0.994617
    35 1.719579 0.000000 0.000000 -0.018227 0.009235 -1.467873
    36 1.209180 -0.000002 -0.000004 -0.009139 0.006871 -1.142228
    37 3.871304 0.117425 -1.300903 -0.078202 -0.025270 -1.087902
    38 1.719430 0.000000 -0.000004 -0.098412 0.040018 -1.533480
    39 1.099665 -0.000001 0.000000 -0.043318 0.052395 -0.926110
    40 0.838849 -0.300290 -1.312782 1.038393 0.338527 -0.651145
    41 1.789780 -0.000002 0.000000 0.000000 0.003711 0.332742
    42 1.207002 0.000004 0.000000 0.000000 0.005668 0.612525
    43 -0.534583 0.295798 -0.001972 -1.591880 0.022078 -1.868741
    44 0.113788 -0.132996 14.720030 0.000000 0.000000 0.000000
    45 0.113788 -0.132980 9.513786 0.000000 0.000000 0.000000
    46 0.000000 0.000000 0.000000 0.000000 0.000000 0.000000
    47 -0.000001 0.000000 0.000000 0.000000 0.000000 0.000000
    48 0.113790 -0.132980 16.481384 0.000000 0.000000 0.000000
    49 0.113787 -0.132977 18.076756 0.000000 0.000000 0.000000
    50 0.113789 -0.132977 19.676249 0.000015 0.000000 0.000000
    51 0.113791 -0.132980 21.255907 0.000000 0.000000 0.000000
    52 0.113788 -0.132984 22.869108 -0.000015 0.000000 0.000000
    53 0.113791 -0.132984 24.483316 0.000000 0.000000 0.000000
    54 0.113789 -0.132980 26.066462 0.000000 0.000000 0.000000
    55 0.113790 -0.132984 27.665102 0.000000 0.000000 0.000000
    56 4.717025 4.484173 33.327866 -0.023132 0.029553 -0.762254
    57 0.089298 4.272583 4.480568 0.028092 0.000000 0.000000
    58 4.922175 -5.137238 33.583321 -0.054006 0.000000 -2.327265
    59 0.001396 4.167400 4.226917 0.028092 0.000000 0.000000
    60 -4.578506 -5.283134 33.331909 0.000000 0.000000 2.438902
    61 0.269684 4.148857 4.474522 0.000000 0.000000 0.000000
    62 -4.409222 4.440937 33.338570 -0.054026 0.000000 0.763647
    63 -0.045496 4.393921 4.464542 0.028092 0.000000 0.000000
    64 -4.439060 3.922565 13.956215 0.075659 -0.411864 0.634747
    65 0.113791 -0.132980 29.243567 0.000015 0.000000 0.000000
    66 0.000001 -16.000000 -57.000000 1.570792 0.000003 -0.000003
  time 15
    0 -0.533595 0.000000 38.566879 1.570796 0.000000 -1.570796
    1 0.000000 3.345131 -2.981898 1.570796 0.083193 1.570796
    2 3.995838 0.000000 0.000000 0.000000 0.000000 -0.028816
    3 3.520287 0.000000 0.000000 0.000000 0.000000 0.097307
    4 8.921467 0.000000 0.000000 0.000000 0.000000 0.186413
    5 2.059517 0.977921 1.937661 1.589740 -1.286515 2.950147
    6 36.923674 -70.634548 -10.130978 4.400472 -0.183705 0.342290
    7 11.692564 0.000000 0.000011 0.000000 0.000000 -0.745832
    8 11.481674 0.000001 -0.000038 1.329205 0.087754 0.746817
    9 3.850418 0.126099 -1.223440 -0.317316 -0.182678 -1.175166
    10 1.312563 0.000004 0.000000 -0.035210 0.041488 -1.113081
    11 0.729366 0.000000 0.000000 -0.013075 0.038597 -0.567715
    12 3.926350 0.316490 -0.462519 -0.168907 -0.159045 -1.089470
    13 1.539099 0.000000 -0.000002 -0.003296 0.001739 -1.334679
    14 1.196327 0.000001 -0.000002 -0.004291 0.004431 -1.200192
    15 3.881382 0.214691 0.400253 -0.056575 -0.204695 -1.030413
    16 1.719582 0.000004 0.000000 0.018838 -0.007916 -1.539002
    17 1.209179 0.000000 0.000006 0.008063 -0.008108 -0.998631
    18 3.871292 0.117428 1.300903 -0.020042 -0.190438 -1.160275
    19 1.719427 -0.000004 0.000002 0.101233 -0.032232 -1.611450
    20 1.099670 0.000000 -0.000002 0.042294 -0.053202 -0.907071
    21 0.838837 -0.300285 1.312775 -0.847487 -0.487805 -0.629244
    22 1.789784 -0.000002 0.000008 -0.000556 -0.003669 0.378873
    23 1.207006 0.000000 0.000004 -0.001696 -0.005421 0.664304
    24 2.059521 0.977922 -1.937661 -1.661569 1.286515 2.950147
    25 15.159339 -57.578723 -14.418991 0.085782 0.057998 -1.939754
    26 11.692570 -0.000004 0.000000 0.000000 0.000000 -0.735495
    27 11.481656 0.000000 0.000016 -1.610898 0.181262 -0.196406
    28 3.850428 0.126100 1.223442 0.218439 0.059429 -1.236279
    29 1.312562 0.000001 0.000000 0.013556 -0.052694 -0.660926
    30 0.729362 0.000001 0.000000 0.035126 -0.020663 -1.280268
    31 3.926356 0.316488 0.462509 0.078919 0.018325 -1.052031
    32 1.539095 0.000000 -0.000004 0.003023 -0.002130 -1.198666
    33 1.196321 0.000001 0.000011 0.004721 -0.004014 -1.294265
    34 3.881387 0.214694 -0.400257 -0.013550 -0.002191 -0.994617
    35 1.719579 0.000000 0.000000 -0.018227 0.009235 -1.467873
    36 1.209180 -0.000002 -0.000004 -0.009139 0.006871 -1.142228
    37 3.871304 0.117425 -1.300903 -0.078202 -0.025270 -1.087902
    38 1.719430 0.000000 -0.000004 -0.098412 0.040018 -1.533480
    39 1.099665 -0.000001 0.000000 -0.043318 0.052395 -0.926110
    40 0.838849 -0.300290 -1.312782 1.038393 0.338527 -0.651145
    41 1.789780 -0.000002 0.000000 0.000000 0.003711 0.332742
    42 1.207002 0.000004 0.000000 0.000000 0.005668 0.612525
    43 -0.534583 0.295798 -0.001972 -1.591880 0.022078 -1.868741
    44 0.113788 -0.132996 14.720030 0.000000 0.000000 0.000000
    45 0.113788 -0.132980 9.513786 0.000000 0.000000 0.000000
    46 0.000000 0.000000 0.000000 0.000000 0.000000 0.000000
    47 -0.000001 0.000000 0.000000 0.000000 0.000000 0.000000
    48 0.113790 -0.132980 16.481384 0.000000 0.000000 0.000000
    49 0.113787 -0.132977 18.076756 0.000000 0.000000 0.000000
    50 0.113789 -0.132977 19.676249 0.000015 0.000000 0.000000
    51 0.113791 -0.132980 21.255907 0.000000 0.000000 0.000000
    52 0.113788 -0.132984 22.869108 -0.000015 0.000000 0.000000
    53 0.113791 -0.132984 24.483316 0.000000 0.000000 0.000000
    54 0.113789 -0.132980 26.066462 0.000000 0.000000 0.000000
    55 0.113790 -0.132984 27.665102 0.000000 0.000000 0.000000
    56 4.717025 4.484173 33.327866 0.030874 0.029553 -0.762254
    57 0.089298 4.272583 4.480568 0.000000 0.000000 0.000000
    58 4.922175 -5.137238 33.583321 0.000000 0.000000 -2.327265
    59 0.001396 4.167400 4.226917 0.000000 0.000000 0.000000
    60 -4.578506 -5.283134 33.331909 0.000000 0.000000 2.438902
    61 0.269684 4.148857 4.474522 0.000000 0.000000 0.000000
    62 -4.409222 4.440937 33.338570 0.000000 0.000000 0.763647
    63 -0.045496 4.393921 4.464542 0.000000 0.000000 0.000000
    64 -4.439060 3.922565 13.956215 0.075659 -0.411864 0.634747
    65 0.113791 -0.132980 29.243567 0.000015 0.000000 0.000000
    66 0.000001 -16.000000 -57.000000 1.570792 0.000003 -0.000003
end
