// Created by Crowbar 0.74
version 1
nodes
  0 "ValveBiped.Bip01" -1
  1 "ValveBiped.Bip01_Spine" 0
  2 "ValveBiped.Bip01_Spine1" 1
  3 "ValveBiped.Bip01_Spine2" 2
  4 "ValveBiped.Bip01_Spine4" 3
  5 "ValveBiped.Bip01_L_Clavicle" 4
  6 "ValveBiped.Bip01_L_UpperArm" 5
  7 "ValveBiped.Bip01_L_Forearm" 6
  8 "ValveBiped.Bip01_L_Hand" 7
  9 "ValveBiped.Bip01_L_Finger4" 8
  10 "ValveBiped.Bip01_L_Finger41" 9
  11 "ValveBiped.Bip01_L_Finger42" 10
  12 "ValveBiped.Bip01_L_Finger3" 8
  13 "ValveBiped.Bip01_L_Finger31" 12
  14 "ValveBiped.Bip01_L_Finger32" 13
  15 "ValveBiped.Bip01_L_Finger2" 8
  16 "ValveBiped.Bip01_L_Finger21" 15
  17 "ValveBiped.Bip01_L_Finger22" 16
  18 "ValveBiped.Bip01_L_Finger1" 8
  19 "ValveBiped.Bip01_L_Finger11" 18
  20 "ValveBiped.Bip01_L_Finger12" 19
  21 "ValveBiped.Bip01_L_Finger0" 8
  22 "ValveBiped.Bip01_L_Finger01" 21
  23 "ValveBiped.Bip01_L_Finger02" 22
  24 "ValveBiped.Bip01_R_Clavicle" 4
  25 "ValveBiped.Bip01_R_UpperArm" 24
  26 "ValveBiped.Bip01_R_Forearm" 25
  27 "ValveBiped.Bip01_R_Hand" 26
  28 "ValveBiped.Bip01_R_Finger4" 27
  29 "ValveBiped.Bip01_R_Finger41" 28
  30 "ValveBiped.Bip01_R_Finger42" 29
  31 "ValveBiped.Bip01_R_Finger3" 27
  32 "ValveBiped.Bip01_R_Finger31" 31
  33 "ValveBiped.Bip01_R_Finger32" 32
  34 "ValveBiped.Bip01_R_Finger2" 27
  35 "ValveBiped.Bip01_R_Finger21" 34
  36 "ValveBiped.Bip01_R_Finger22" 35
  37 "ValveBiped.Bip01_R_Finger1" 27
  38 "ValveBiped.Bip01_R_Finger11" 37
  39 "ValveBiped.Bip01_R_Finger12" 38
  40 "ValveBiped.Bip01_R_Finger0" 27
  41 "ValveBiped.Bip01_R_Finger01" 40
  42 "ValveBiped.Bip01_R_Finger02" 41
  43 "ValveBiped.Base" 27
  44 "ValveBiped.Casing_RotZ" 43
  45 "ValveBiped.Gyro1_RotX" 43
  46 "ValveBiped.Gyro2_RotY" 45
  47 "ValveBiped.Gyro3_RotX" 46
  48 "ValveBiped.Mag1_RotZ" 43
  49 "ValveBiped.Mag2_RotZ" 43
  50 "ValveBiped.Mag3_RotZ" 43
  51 "ValveBiped.Mag4_RotZ" 43
  52 "ValveBiped.Mag5_RotZ" 43
  53 "ValveBiped.Mag6_RotZ" 43
  54 "ValveBiped.Mag7_RotZ" 43
  55 "ValveBiped.Mag8_RotZ" 43
  56 "ValveBiped.Arm1_A" 43
  57 "ValveBiped.Arm1_B" 56
  58 "ValveBiped.Arm2_A" 43
  59 "ValveBiped.Arm2_B" 58
  60 "ValveBiped.Arm3_A" 43
  61 "ValveBiped.Arm3_B" 60
  62 "ValveBiped.Arm4_A" 43
  63 "ValveBiped.Arm4_B" 62
  64 "ValveBiped.Dial" 43
  65 "ValveBiped.Mag9_RotZ" 43
  66 "Root" -1
end
skeleton
  time 0
    0 -0.533595 0.000000 38.566879 1.570796 0.000000 -1.570796
    1 0.000000 3.345131 -2.981898 1.570796 0.083193 1.570796
    2 3.995838 0.000000 0.000000 0.000000 0.000000 -0.028816
    3 3.520283 0.000000 0.000000 0.000000 0.000000 0.097307
    4 8.921463 0.000000 0.000000 0.000000 0.000000 0.186413
    5 2.059513 0.977920 1.937661 1.589740 -1.286515 2.950147
    6 36.923675 -70.634544 -10.130977 4.400385 -0.183705 0.342290
    7 11.692564 0.000000 0.000011 0.000000 0.000000 -0.745832
    8 11.481674 0.000001 -0.000034 1.329220 0.087758 0.746815
    9 3.850418 0.126099 -1.223440 -0.317316 -0.182678 -1.175166
    10 1.312561 0.000000 0.000000 -0.035210 0.041488 -1.113081
    11 0.729366 0.000004 0.000000 -0.013075 0.038597 -0.567715
    12 3.926350 0.316490 -0.462519 -0.168907 -0.159042 -1.089467
    13 1.539101 0.000000 -0.000002 -0.003295 0.001738 -1.334676
    14 1.196331 -0.000002 0.000000 -0.004291 0.004431 -1.200192
    15 3.881380 0.214687 0.400251 -0.056575 -0.204695 -1.030413
    16 1.719583 0.000004 0.000000 0.018838 -0.007916 -1.539002
    17 1.209183 -0.000001 0.000008 0.008062 -0.008108 -0.998649
    18 3.871292 0.117424 1.300905 -0.020042 -0.190438 -1.160275
    19 1.719425 -0.000004 0.000002 0.101231 -0.032227 -1.611435
    20 1.099674 0.000004 -0.000004 0.042294 -0.053202 -0.907071
    21 0.838839 -0.300285 1.312777 -0.847487 -0.487805 -0.629244
    22 1.789783 -0.000002 0.000011 -0.000556 -0.003669 0.378873
    23 1.207006 0.000001 0.000004 -0.001696 -0.005420 0.664304
    24 2.059517 0.977922 -1.937661 -1.661569 1.286515 2.950147
    25 15.159338 -57.578723 -14.418990 0.085783 0.058030 -1.939749
    26 11.692570 -0.000004 0.000000 0.000000 0.000000 -0.735495
    27 11.481654 0.000000 0.000016 -1.610898 0.181262 -0.196406
    28 3.850428 0.126099 1.223438 0.218437 0.059429 -1.236277
    29 1.312562 0.000001 0.000000 0.013556 -0.052694 -0.660926
    30 0.729362 0.000000 0.000000 0.035126 -0.020663 -1.280268
    31 3.926355 0.316488 0.462502 0.078919 0.018325 -1.052031
    32 1.539096 0.000000 -0.000008 0.003022 -0.002131 -1.198664
    33 1.196321 0.000002 0.000011 0.004719 -0.004015 -1.294263
    34 3.881386 0.214694 -0.400257 -0.013550 -0.002191 -0.994617
    35 1.719579 0.000000 0.000000 -0.018227 0.009235 -1.467873
    36 1.209180 -0.000002 -0.000008 -0.009139 0.006871 -1.142228
    37 3.871304 0.117424 -1.300907 -0.078201 -0.025271 -1.087899
    38 1.719431 0.000000 -0.000004 -0.098412 0.040018 -1.533477
    39 1.099665 -0.000001 -0.000004 -0.043317 0.052396 -0.926108
    40 0.838848 -0.300291 -1.312786 1.038393 0.338527 -0.651145
    41 1.789780 -0.000002 0.000000 0.000000 0.003711 0.332742
    42 1.207002 0.000004 0.000000 0.000000 0.005668 0.612525
    43 -0.534583 0.295797 -0.001972 -1.591880 0.022078 -1.868741
    44 0.113788 -0.132996 14.720029 0.000000 0.000000 0.000000
    45 0.113787 -0.132980 9.513787 0.000000 0.000000 0.000000
    46 -0.000001 0.000004 0.000000 0.000000 0.000000 0.000000
    47 -0.000001 0.000000 0.000000 0.000000 0.000000 0.000000
    48 0.113791 -0.132973 16.481380 0.000000 0.000000 0.000000
    49 0.113788 -0.132973 18.076752 0.000000 0.000000 0.000000
    50 0.113789 -0.132969 19.676247 0.000013 0.000000 0.000000
    51 0.113791 -0.132980 21.255905 0.000000 0.000000 0.000000
    52 0.113788 -0.132980 22.869106 -0.000013 0.000000 0.000000
    53 0.113791 -0.132980 24.483315 0.000000 0.000000 0.000000
    54 0.113790 -0.132977 26.066456 0.000000 0.000000 0.000000
    55 0.113790 -0.132980 27.665100 0.000000 0.000000 0.000000
    56 4.717026 4.484177 33.327862 0.030874 0.029553 -0.762254
    57 0.089302 4.272583 4.480568 0.000000 0.000000 0.000000
    58 4.922175 -5.137234 33.583321 0.000000 0.000000 -2.327265
    59 0.001394 4.167400 4.226917 0.000000 0.000000 0.000000
    60 -4.578506 -5.283134 33.331905 0.000000 0.000000 2.438902
    61 0.269684 4.148857 4.474522 0.000000 0.000000 0.000000
    62 -4.409222 4.440941 33.338566 0.000000 0.000000 0.763647
    63 -0.045498 4.393921 4.464542 0.000000 0.000000 0.000000
    64 -4.439061 3.922569 13.956212 0.075659 -0.411864 0.634747
    65 0.113791 -0.132977 29.243565 0.000013 0.000000 0.000000
    66 0.000002 -16.000000 -57.000000 1.570788 0.000007 -0.000007
  time 1
    0 -0.533595 0.000000 38.566879 1.570796 0.000000 -1.570796
    1 0.000000 3.345131 -2.981898 1.570796 0.083193 1.570796
    2 3.995838 0.000000 0.000000 0.000000 0.000000 -0.028816
    3 3.520283 0.000000 0.000000 0.000000 0.000000 0.097307
    4 8.921463 0.000000 0.000000 0.000000 0.000000 0.186413
    5 2.059513 0.977920 1.937661 1.589740 -1.286515 2.950147
    6 36.896331 -70.427507 -10.271606 4.413883 -0.184948 0.340189
    7 11.692564 0.000000 0.000011 0.000000 0.000000 -0.745832
    8 11.481674 0.000001 -0.000034 1.329220 0.087758 0.746815
    9 3.850418 0.126099 -1.223440 -0.317316 -0.182678 -1.175166
    10 1.312561 0.000000 0.000000 -0.035210 0.041488 -1.113081
    11 0.729366 0.000004 0.000000 -0.013075 0.038597 -0.567715
    12 3.926350 0.316490 -0.462519 -0.168907 -0.159042 -1.089467
    13 1.539101 0.000000 -0.000002 -0.003295 0.001738 -1.334676
    14 1.196331 -0.000002 0.000000 -0.004291 0.004431 -1.200192
    15 3.881380 0.214687 0.400251 -0.056575 -0.204695 -1.030413
    16 1.719583 0.000004 0.000000 0.018838 -0.007916 -1.539002
    17 1.209183 -0.000001 0.000008 0.008062 -0.008108 -0.998649
    18 3.871292 0.117424 1.300905 -0.020042 -0.190438 -1.160275
    19 1.719425 -0.000004 0.000002 0.101231 -0.032227 -1.611435
    20 1.099674 0.000004 -0.000004 0.042294 -0.053202 -0.907071
    21 0.838839 -0.300285 1.312777 -0.847487 -0.487805 -0.629244
    22 1.789783 -0.000002 0.000011 -0.000556 -0.003669 0.378873
    23 1.207006 0.000001 0.000004 -0.001696 -0.005420 0.664304
    24 2.059517 0.977922 -1.937661 -1.661569 1.286515 2.950147
    25 15.163244 -57.645131 -14.512743 0.094216 0.047661 -1.940101
    26 11.692570 -0.000004 0.000000 0.000000 0.000000 -0.735495
    27 11.481654 0.000000 0.000016 -1.610898 0.181262 -0.196406
    28 3.850428 0.126099 1.223438 0.218437 0.059429 -1.236277
    29 1.312562 0.000001 0.000000 0.013556 -0.052694 -0.660926
    30 0.729362 0.000000 0.000000 0.035126 -0.020663 -1.280268
    31 3.926355 0.316488 0.462502 0.078919 0.018325 -1.052031
    32 1.539096 0.000000 -0.000008 0.003022 -0.002131 -1.198664
    33 1.196321 0.000002 0.000011 0.004719 -0.004015 -1.294263
    34 3.881386 0.214694 -0.400257 -0.013550 -0.002191 -0.994617
    35 1.719579 0.000000 0.000000 -0.018227 0.009235 -1.467873
    36 1.209180 -0.000002 -0.000008 -0.009139 0.006871 -1.142228
    37 3.871304 0.117424 -1.300907 -0.078201 -0.025271 -1.087899
    38 1.719431 0.000000 -0.000004 -0.098412 0.040018 -1.533477
    39 1.099665 -0.000001 -0.000004 -0.043317 0.052396 -0.926108
    40 0.838848 -0.300291 -1.312786 1.038393 0.338527 -0.651145
    41 1.789780 -0.000002 0.000000 0.000000 0.003711 0.332742
    42 1.207002 0.000004 0.000000 0.000000 0.005668 0.612525
    43 -0.534583 0.295797 -0.001972 -1.591880 0.022078 -1.868741
    44 0.113788 -0.132996 14.720029 0.000000 0.000000 0.000000
    45 0.113787 -0.132980 9.513787 0.000000 0.000000 0.000000
    46 -0.000001 0.000004 0.000000 0.000000 0.000000 0.000000
    47 -0.000001 0.000000 0.000000 0.000000 0.000000 0.000000
    48 0.113791 -0.132973 16.481380 0.000000 0.000000 0.000000
    49 0.113788 -0.132973 18.076752 0.000000 0.000000 0.000000
    50 0.113789 -0.132969 19.676247 0.000013 0.000000 0.000000
    51 0.113791 -0.132980 21.255905 0.000000 0.000000 0.000000
    52 0.113788 -0.132980 22.869106 -0.000013 0.000000 0.000000
    53 0.113791 -0.132980 24.483315 0.000000 0.000000 0.000000
    54 0.113790 -0.132977 26.066456 0.000000 0.000000 0.000000
    55 0.113790 -0.132980 27.665100 0.000000 0.000000 0.000000
    56 4.717026 4.484177 33.327862 -0.031931 0.029553 -0.762254
    57 0.089302 4.272583 4.480568 0.028060 0.000000 0.000000
    58 4.922175 -5.137234 33.583321 -0.062824 0.000000 -2.327265
    59 0.001394 4.167400 4.226917 0.028092 0.000000 0.000000
    60 -4.578506 -5.283134 33.331905 0.000000 0.000000 2.438902
    61 0.269684 4.148857 4.474522 0.000000 0.000000 0.000000
    62 -4.409222 4.440941 33.338566 -0.062826 0.000000 0.763647
    63 -0.045498 4.393921 4.464542 0.028060 0.000000 0.000000
    64 -4.439061 3.922569 13.956212 0.075659 -0.411864 0.634747
    65 0.113791 -0.132977 29.243565 0.000013 0.000000 0.000000
    66 0.000002 -16.000000 -57.000000 1.570788 0.000007 -0.000007
  time 2
    0 -0.533595 0.000000 38.566879 1.570796 0.000000 -1.570796
    1 0.000000 3.345131 -2.981898 1.570796 0.083193 1.570796
    2 3.995838 0.000000 0.000000 0.000000 0.000000 -0.028816
    3 3.520283 0.000000 0.000000 0.000000 0.000000 0.097307
    4 8.921463 0.000000 0.000000 0.000000 0.000000 0.186413
    5 2.059513 0.977920 1.937661 1.589740 -1.286515 2.950147
    6 36.790859 -70.009525 -10.603647 4.446815 -0.187985 0.336178
    7 11.692564 0.000000 0.000011 0.000000 0.000000 -0.745832
    8 11.481674 0.000001 -0.000034 1.329220 0.087758 0.746815
    9 3.850418 0.126099 -1.223440 -0.317316 -0.182678 -1.175166
    10 1.312561 0.000000 0.000000 -0.035210 0.041488 -1.113081
    11 0.729366 0.000004 0.000000 -0.013075 0.038597 -0.567715
    12 3.926350 0.316490 -0.462519 -0.168907 -0.159042 -1.089467
    13 1.539101 0.000000 -0.000002 -0.003295 0.001738 -1.334676
    14 1.196331 -0.000002 0.000000 -0.004291 0.004431 -1.200192
    15 3.881380 0.214687 0.400251 -0.056575 -0.204695 -1.030413
    16 1.719583 0.000004 0.000000 0.018838 -0.007916 -1.539002
    17 1.209183 -0.000001 0.000008 0.008062 -0.008108 -0.998649
    18 3.871292 0.117424 1.300905 -0.020042 -0.190438 -1.160275
    19 1.719425 -0.000004 0.000002 0.101231 -0.032227 -1.611435
    20 1.099674 0.000004 -0.000004 0.042294 -0.053202 -0.907071
    21 0.838839 -0.300285 1.312777 -0.847487 -0.487805 -0.629244
    22 1.789783 -0.000002 0.000011 -0.000556 -0.003669 0.378873
    23 1.207006 0.000001 0.000004 -0.001696 -0.005420 0.664304
    24 2.059517 0.977922 -1.937661 -1.661569 1.286515 2.950147
    25 15.292155 -57.887326 -14.731500 0.114835 0.022627 -1.942484
    26 11.692570 -0.000004 0.000000 0.000000 0.000000 -0.735495
    27 11.481654 0.000000 0.000016 -1.610898 0.181262 -0.196406
    28 3.850428 0.126099 1.223438 0.218437 0.059429 -1.236277
    29 1.312562 0.000001 0.000000 0.013556 -0.052694 -0.660926
    30 0.729362 0.000000 0.000000 0.035126 -0.020663 -1.280268
    31 3.926355 0.316488 0.462502 0.078919 0.018325 -1.052031
    32 1.539096 0.000000 -0.000008 0.003022 -0.002131 -1.198664
    33 1.196321 0.000002 0.000011 0.004719 -0.004015 -1.294263
    34 3.881386 0.214694 -0.400257 -0.013550 -0.002191 -0.994617
    35 1.719579 0.000000 0.000000 -0.018227 0.009235 -1.467873
    36 1.209180 -0.000002 -0.000008 -0.009139 0.006871 -1.142228
    37 3.871304 0.117424 -1.300907 -0.078201 -0.025271 -1.087899
    38 1.719431 0.000000 -0.000004 -0.098412 0.040018 -1.533477
    39 1.099665 -0.000001 -0.000004 -0.043317 0.052396 -0.926108
    40 0.838848 -0.300291 -1.312786 1.038393 0.338527 -0.651145
    41 1.789780 -0.000002 0.000000 0.000000 0.003711 0.332742
    42 1.207002 0.000004 0.000000 0.000000 0.005668 0.612525
    43 -0.534583 0.295797 -0.001972 -1.591880 0.022078 -1.868741
    44 0.113788 -0.132996 14.720029 0.000000 0.000000 0.000000
    45 0.113787 -0.132980 9.513787 0.000000 0.000000 0.000000
    46 -0.000001 0.000004 0.000000 0.000000 0.000000 0.000000
    47 -0.000001 0.000000 0.000000 0.000000 0.000000 0.000000
    48 0.113791 -0.132973 16.481380 0.000000 0.000000 0.000000
    49 0.113788 -0.132973 18.076752 0.000000 0.000000 0.000000
    50 0.113789 -0.132969 19.676247 0.000013 0.000000 0.000000
    51 0.113791 -0.132980 21.255905 0.000000 0.000000 0.000000
    52 0.113788 -0.132980 22.869106 -0.000013 0.000000 0.000000
    53 0.113791 -0.132980 24.483315 0.000000 0.000000 0.000000
    54 0.113790 -0.132977 26.066456 0.000000 0.000000 0.000000
    55 0.113790 -0.132980 27.665100 0.000000 0.000000 0.000000
    56 4.717026 4.484177 33.327862 -0.183474 0.029553 -0.762254
    57 0.089302 4.272583 4.480568 0.105337 0.000000 0.000000
    58 4.922175 -5.137234 33.583321 -0.214366 0.000000 -2.327265
    59 0.001394 4.167400 4.226917 0.105369 0.000000 0.000000
    60 -4.578506 -5.283134 33.331905 0.000000 0.000000 2.438902
    61 0.269684 4.148857 4.474522 0.000000 0.000000 0.000000
    62 -4.409222 4.440941 33.338566 -0.214371 0.000000 0.763647
    63 -0.045498 4.393921 4.464542 0.105338 0.000000 0.000000
    64 -4.439061 3.922569 13.956212 0.075659 -0.411864 0.634747
    65 0.113791 -0.132977 29.243565 0.000013 0.000000 0.000000
    66 0.000002 -16.000000 -57.000000 1.570788 0.000007 -0.000007
  time 3
    0 -0.533595 0.000000 38.566879 1.570796 0.000000 -1.570796
    1 0.000000 3.345131 -2.981898 1.570796 0.083193 1.570796
    2 3.995838 0.000000 0.000000 0.000000 0.000000 -0.028816
    3 3.520283 0.000000 0.000000 0.000000 0.000000 0.097307
    4 8.921463 0.000000 0.000000 0.000000 0.000000 0.186413
    5 2.059513 0.977920 1.937661 1.589740 -1.286515 2.950147
    6 36.486162 -69.607169 -10.990378 4.487692 -0.192082 0.333695
    7 11.692564 0.000000 0.000011 0.000000 0.000000 -0.745832
    8 11.481674 0.000001 -0.000034 1.329220 0.087758 0.746815
    9 3.850418 0.126099 -1.223440 -0.317316 -0.182678 -1.175166
    10 1.312561 0.000000 0.000000 -0.035210 0.041488 -1.113081
    11 0.729366 0.000004 0.000000 -0.013075 0.038597 -0.567715
    12 3.926350 0.316490 -0.462519 -0.168907 -0.159042 -1.089467
    13 1.539101 0.000000 -0.000002 -0.003295 0.001738 -1.334676
    14 1.196331 -0.000002 0.000000 -0.004291 0.004431 -1.200192
    15 3.881380 0.214687 0.400251 -0.056575 -0.204695 -1.030413
    16 1.719583 0.000004 0.000000 0.018838 -0.007916 -1.539002
    17 1.209183 -0.000001 0.000008 0.008062 -0.008108 -0.998649
    18 3.871292 0.117424 1.300905 -0.020042 -0.190438 -1.160275
    19 1.719425 -0.000004 0.000002 0.101231 -0.032227 -1.611435
    20 1.099674 0.000004 -0.000004 0.042294 -0.053202 -0.907071
    21 0.838839 -0.300285 1.312777 -0.847487 -0.487805 -0.629244
    22 1.789783 -0.000002 0.000011 -0.000556 -0.003669 0.378873
    23 1.207006 0.000001 0.000004 -0.001696 -0.005420 0.664304
    24 2.059517 0.977922 -1.937661 -1.661569 1.286515 2.950147
    25 15.725762 -58.246712 -14.989320 0.140711 -0.008060 -1.948812
    26 11.692570 -0.000004 0.000000 0.000000 0.000000 -0.735495
    27 11.481654 0.000000 0.000016 -1.610898 0.181262 -0.196406
    28 3.850428 0.126099 1.223438 0.218437 0.059429 -1.236277
    29 1.312562 0.000001 0.000000 0.013556 -0.052694 -0.660926
    30 0.729362 0.000000 0.000000 0.035126 -0.020663 -1.280268
    31 3.926355 0.316488 0.462502 0.078919 0.018325 -1.052031
    32 1.539096 0.000000 -0.000008 0.003022 -0.002131 -1.198664
    33 1.196321 0.000002 0.000011 0.004719 -0.004015 -1.294263
    34 3.881386 0.214694 -0.400257 -0.013550 -0.002191 -0.994617
    35 1.719579 0.000000 0.000000 -0.018227 0.009235 -1.467873
    36 1.209180 -0.000002 -0.000008 -0.009139 0.006871 -1.142228
    37 3.871304 0.117424 -1.300907 -0.078201 -0.025271 -1.087899
    38 1.719431 0.000000 -0.000004 -0.098412 0.040018 -1.533477
    39 1.099665 -0.000001 -0.000004 -0.043317 0.052396 -0.926108
    40 0.838848 -0.300291 -1.312786 1.038393 0.338527 -0.651145
    41 1.789780 -0.000002 0.000000 0.000000 0.003711 0.332742
    42 1.207002 0.000004 0.000000 0.000000 0.005668 0.612525
    43 -0.534583 0.295797 -0.001972 -1.591880 0.022078 -1.868741
    44 0.113788 -0.132996 14.720029 0.000000 0.000000 0.000000
    45 0.113787 -0.132980 9.513787 0.000000 0.000000 0.000000
    46 -0.000001 0.000004 0.000000 0.000000 0.000000 0.000000
    47 -0.000001 0.000000 0.000000 0.000000 0.000000 0.000000
    48 0.113791 -0.132973 16.481380 0.000000 0.000000 0.000000
    49 0.113788 -0.132973 18.076752 0.000000 0.000000 0.000000
    50 0.113789 -0.132969 19.676247 0.000013 0.000000 0.000000
    51 0.113791 -0.132980 21.255905 0.000000 0.000000 0.000000
    52 0.113788 -0.132980 22.869106 -0.000013 0.000000 0.000000
    53 0.113791 -0.132980 24.483315 0.000000 0.000000 0.000000
    54 0.113790 -0.132977 26.066456 0.000000 0.000000 0.000000
    55 0.113790 -0.132980 27.665100 0.000000 0.000000 0.000000
    56 4.717026 4.484177 33.327862 -0.365608 0.029553 -0.762254
    57 0.089302 4.272583 4.480568 0.221509 0.000000 0.000000
    58 4.922175 -5.137234 33.583321 -0.396481 0.000000 -2.327265
    59 0.001394 4.167400 4.226917 0.221475 0.000000 0.000000
    60 -4.578506 -5.283134 33.331905 0.000000 0.000000 2.438902
    61 0.269684 4.148857 4.474522 0.000000 0.000000 0.000000
    62 -4.409222 4.440941 33.338566 -0.396491 0.000000 0.763647
    63 -0.045498 4.393921 4.464542 0.221511 0.000000 0.000000
    64 -4.439061 3.922569 13.956212 0.075659 -0.411864 0.634747
    65 0.113791 -0.132977 29.243565 0.000013 0.000000 0.000000
    66 0.000002 -16.000000 -57.000000 1.570788 0.000007 -0.000007
  time 4
    0 -0.533595 0.000000 38.566879 1.570796 0.000000 -1.570796
    1 0.000000 3.345131 -2.981898 1.570796 0.083193 1.570796
    2 3.995838 0.000000 0.000000 0.000000 0.000000 -0.028816
    3 3.520283 0.000000 0.000000 0.000000 0.000000 0.097307
    4 8.921463 0.000000 0.000000 0.000000 0.000000 0.186413
    5 2.059513 0.977920 1.937661 1.589740 -1.286515 2.950147
    6 35.911926 -69.392319 -11.306794 4.524835 -0.196730 0.336178
    7 11.692564 0.000000 0.000011 0.000000 0.000000 -0.745832
    8 11.481674 0.000001 -0.000034 1.329220 0.087758 0.746815
    9 3.850418 0.126099 -1.223440 -0.317316 -0.182678 -1.175166
    10 1.312561 0.000000 0.000000 -0.035210 0.041488 -1.113081
    11 0.729366 0.000004 0.000000 -0.013075 0.038597 -0.567715
    12 3.926350 0.316490 -0.462519 -0.168907 -0.159042 -1.089467
    13 1.539101 0.000000 -0.000002 -0.003295 0.001738 -1.334676
    14 1.196331 -0.000002 0.000000 -0.004291 0.004431 -1.200192
    15 3.881380 0.214687 0.400251 -0.056575 -0.204695 -1.030413
    16 1.719583 0.000004 0.000000 0.018838 -0.007916 -1.539002
    17 1.209183 -0.000001 0.000008 0.008062 -0.008108 -0.998649
    18 3.871292 0.117424 1.300905 -0.020042 -0.190438 -1.160275
    19 1.719425 -0.000004 0.000002 0.101231 -0.032227 -1.611435
    20 1.099674 0.000004 -0.000004 0.042294 -0.053202 -0.907071
    21 0.838839 -0.300285 1.312777 -0.847487 -0.487805 -0.629244
    22 1.789783 -0.000002 0.000011 -0.000556 -0.003669 0.378873
    23 1.207006 0.000001 0.000004 -0.001696 -0.005420 0.664304
    24 2.059517 0.977922 -1.937661 -1.661569 1.286515 2.950147
    25 16.573444 -58.625630 -15.204171 0.164854 -0.035226 -1.960296
    26 11.692570 -0.000004 0.000000 0.000000 0.000000 -0.735495
    27 11.481654 0.000000 0.000016 -1.610898 0.181262 -0.196406
    28 3.850428 0.126099 1.223438 0.218437 0.059429 -1.236277
    29 1.312562 0.000001 0.000000 0.013556 -0.052694 -0.660926
    30 0.729362 0.000000 0.000000 0.035126 -0.020663 -1.280268
    31 3.926355 0.316488 0.462502 0.078919 0.018325 -1.052031
    32 1.539096 0.000000 -0.000008 0.003022 -0.002131 -1.198664
    33 1.196321 0.000002 0.000011 0.004719 -0.004015 -1.294263
    34 3.881386 0.214694 -0.400257 -0.013550 -0.002191 -0.994617
    35 1.719579 0.000000 0.000000 -0.018227 0.009235 -1.467873
    36 1.209180 -0.000002 -0.000008 -0.009139 0.006871 -1.142228
    37 3.871304 0.117424 -1.300907 -0.078201 -0.025271 -1.087899
    38 1.719431 0.000000 -0.000004 -0.098412 0.040018 -1.533477
    39 1.099665 -0.000001 -0.000004 -0.043317 0.052396 -0.926108
    40 0.838848 -0.300291 -1.312786 1.038393 0.338527 -0.651145
    41 1.789780 -0.000002 0.000000 0.000000 0.003711 0.332742
    42 1.207002 0.000004 0.000000 0.000000 0.005668 0.612525
    43 -0.534583 0.295797 -0.001972 -1.591880 0.022078 -1.868741
    44 0.113788 -0.132996 14.720029 0.000000 0.000000 0.000000
    45 0.113787 -0.132980 9.513787 0.000000 0.000000 0.000000
    46 -0.000001 0.000004 0.000000 0.000000 0.000000 0.000000
    47 -0.000001 0.000000 0.000000 0.000000 0.000000 0.000000
    48 0.113791 -0.132973 16.481380 0.000000 0.000000 0.000000
    49 0.113788 -0.132973 18.076752 0.000000 0.000000 0.000000
    50 0.113789 -0.132969 19.676247 0.000013 0.000000 0.000000
    51 0.113791 -0.132980 21.255905 0.000000 0.000000 0.000000
    52 0.113788 -0.132980 22.869106 -0.000013 0.000000 0.000000
    53 0.113791 -0.132980 24.483315 0.000000 0.000000 0.000000
    54 0.113790 -0.132977 26.066456 0.000000 0.000000 0.000000
    55 0.113790 -0.132980 27.665100 0.000000 0.000000 0.000000
    56 4.717026 4.484177 33.327862 -0.517132 0.029553 -0.762254
    57 0.089302 4.272583 4.480568 0.365293 0.000000 0.000000
    58 4.922175 -5.137234 33.583321 -0.548004 0.000000 -2.327265
    59 0.001394 4.167400 4.226917 0.365291 0.000000 0.000000
    60 -4.578506 -5.283134 33.331905 0.000000 0.000000 2.438902
    61 0.269684 4.148857 4.474522 0.000000 0.000000 0.000000
    62 -4.409222 4.440941 33.338566 -0.548037 0.000000 0.763647
    63 -0.045498 4.393921 4.464542 0.365297 0.000000 0.000000
    64 -4.439061 3.922569 13.956212 0.075659 -0.411864 0.634747
    65 0.113791 -0.132977 29.243565 0.000013 0.000000 0.000000
    66 0.000002 -16.000000 -57.000000 1.570788 0.000007 -0.000007
  time 5
    0 -0.533595 0.000000 38.566879 1.570796 0.000000 -1.570796
    1 0.000000 3.345131 -2.981898 1.570796 0.083193 1.570796
    2 3.995838 0.000000 0.000000 0.000000 0.000000 -0.028816
    3 3.520283 0.000000 0.000000 0.000000 0.000000 0.097307
    4 8.921463 0.000000 0.000000 0.000000 0.000000 0.186413
    5 2.059513 0.977920 1.937661 1.589740 -1.286515 2.950147
    6 35.173622 -69.568106 -11.466955 4.546566 -0.201839 0.347256
    7 11.692564 0.000000 0.000011 0.000000 0.000000 -0.745832
    8 11.481674 0.000001 -0.000034 1.329220 0.087758 0.746815
    9 3.850418 0.126099 -1.223440 -0.317316 -0.182678 -1.175166
    10 1.312561 0.000000 0.000000 -0.035210 0.041488 -1.113081
    11 0.729366 0.000004 0.000000 -0.013075 0.038597 -0.567715
    12 3.926350 0.316490 -0.462519 -0.168907 -0.159042 -1.089467
    13 1.539101 0.000000 -0.000002 -0.003295 0.001738 -1.334676
    14 1.196331 -0.000002 0.000000 -0.004291 0.004431 -1.200192
    15 3.881380 0.214687 0.400251 -0.056575 -0.204695 -1.030413
    16 1.719583 0.000004 0.000000 0.018838 -0.007916 -1.539002
    17 1.209183 -0.000001 0.000008 0.008062 -0.008108 -0.998649
    18 3.871292 0.117424 1.300905 -0.020042 -0.190438 -1.160275
    19 1.719425 -0.000004 0.000002 0.101231 -0.032227 -1.611435
    20 1.099674 0.000004 -0.000004 0.042294 -0.053202 -0.907071
    21 0.838839 -0.300285 1.312777 -0.847487 -0.487805 -0.629244
    22 1.789783 -0.000002 0.000011 -0.000556 -0.003669 0.378873
    23 1.207006 0.000001 0.000004 -0.001696 -0.005420 0.664304
    24 2.059517 0.977922 -1.937661 -1.661569 1.286515 2.950147
    25 17.800044 -59.012361 -15.301830 0.180275 -0.049891 -1.977367
    26 11.692570 -0.000004 0.000000 0.000000 0.000000 -0.735495
    27 11.481654 0.000000 0.000016 -1.610898 0.181262 -0.196406
    28 3.850428 0.126099 1.223438 0.218437 0.059429 -1.236277
    29 1.312562 0.000001 0.000000 0.013556 -0.052694 -0.660926
    30 0.729362 0.000000 0.000000 0.035126 -0.020663 -1.280268
    31 3.926355 0.316488 0.462502 0.078919 0.018325 -1.052031
    32 1.539096 0.000000 -0.000008 0.003022 -0.002131 -1.198664
    33 1.196321 0.000002 0.000011 0.004719 -0.004015 -1.294263
    34 3.881386 0.214694 -0.400257 -0.013550 -0.002191 -0.994617
    35 1.719579 0.000000 0.000000 -0.018227 0.009235 -1.467873
    36 1.209180 -0.000002 -0.000008 -0.009139 0.006871 -1.142228
    37 3.871304 0.117424 -1.300907 -0.078201 -0.025271 -1.087899
    38 1.719431 0.000000 -0.000004 -0.098412 0.040018 -1.533477
    39 1.099665 -0.000001 -0.000004 -0.043317 0.052396 -0.926108
    40 0.838848 -0.300291 -1.312786 1.038393 0.338527 -0.651145
    41 1.789780 -0.000002 0.000000 0.000000 0.003711 0.332742
    42 1.207002 0.000004 0.000000 0.000000 0.005668 0.612525
    43 -0.534583 0.295797 -0.001972 -1.591880 0.022078 -1.868741
    44 0.113788 -0.132996 14.720029 0.000000 0.000000 0.000000
    45 0.113787 -0.132980 9.513787 0.000000 0.000000 0.000000
    46 -0.000001 0.000004 0.000000 0.000000 0.000000 0.000000
    47 -0.000001 0.000000 0.000000 0.000000 0.000000 0.000000
    48 0.113791 -0.132973 16.481380 0.000000 0.000000 0.000000
    49 0.113788 -0.132973 18.076752 0.000000 0.000000 0.000000
    50 0.113789 -0.132969 19.676247 0.000013 0.000000 0.000000
    51 0.113791 -0.132980 21.255905 0.000000 0.000000 0.000000
    52 0.113788 -0.132980 22.869106 -0.000013 0.000000 0.000000
    53 0.113791 -0.132980 24.483315 0.000000 0.000000 0.000000
    54 0.113790 -0.132977 26.066456 0.000000 0.000000 0.000000
    55 0.113790 -0.132980 27.665100 0.000000 0.000000 0.000000
    56 4.717026 4.484177 33.327862 -0.579956 0.029553 -0.762254
    57 0.089302 4.272583 4.480568 0.523554 0.000000 0.000000
    58 4.922175 -5.137234 33.583321 -0.610865 0.000000 -2.327265
    59 0.001394 4.167400 4.226917 0.523583 0.000000 0.000000
    60 -4.578506 -5.283134 33.331905 0.000000 0.000000 2.438902
    61 0.269684 4.148857 4.474522 0.000000 0.000000 0.000000
    62 -4.409222 4.440941 33.338566 -0.610844 0.000000 0.763647
    63 -0.045498 4.393921 4.464542 0.523592 0.000000 0.000000
    64 -4.439061 3.922569 13.956212 0.075659 -0.411864 0.634747
    65 0.113791 -0.132977 29.243565 0.000013 0.000000 0.000000
    66 0.000002 -16.000000 -57.000000 1.570788 0.000007 -0.000007
  time 6
    0 -0.533595 0.000000 38.566879 1.570796 0.000000 -1.570796
    1 0.000000 3.345131 -2.981898 1.570796 0.083193 1.570796
    2 3.995838 0.000000 0.000000 0.000000 0.000000 -0.028816
    3 3.520283 0.000000 0.000000 0.000000 0.000000 0.097307
    4 8.921463 0.000000 0.000000 0.000000 0.000000 0.186413
    5 2.059513 0.977920 1.937661 1.589740 -1.286515 2.950147
    6 34.615011 -69.767331 -11.474768 4.552693 -0.205107 0.361294
    7 11.692564 0.000000 0.000011 0.000000 0.000000 -0.745832
    8 11.481674 0.000001 -0.000034 1.329220 0.087758 0.746815
    9 3.850418 0.126099 -1.223440 -0.317316 -0.182678 -1.175166
    10 1.312561 0.000000 0.000000 -0.035210 0.041488 -1.113081
    11 0.729366 0.000004 0.000000 -0.013075 0.038597 -0.567715
    12 3.926350 0.316490 -0.462519 -0.168907 -0.159042 -1.089467
    13 1.539101 0.000000 -0.000002 -0.003295 0.001738 -1.334676
    14 1.196331 -0.000002 0.000000 -0.004291 0.004431 -1.200192
    15 3.881380 0.214687 0.400251 -0.056575 -0.204695 -1.030413
    16 1.719583 0.000004 0.000000 0.018838 -0.007916 -1.539002
    17 1.209183 -0.000001 0.000008 0.008062 -0.008108 -0.998649
    18 3.871292 0.117424 1.300905 -0.020042 -0.190438 -1.160275
    19 1.719425 -0.000004 0.000002 0.101231 -0.032227 -1.611435
    20 1.099674 0.000004 -0.000004 0.042294 -0.053202 -0.907071
    21 0.838839 -0.300285 1.312777 -0.847487 -0.487805 -0.629244
    22 1.789783 -0.000002 0.000011 -0.000556 -0.003669 0.378873
    23 1.207006 0.000001 0.000004 -0.001696 -0.005420 0.664304
    24 2.059517 0.977922 -1.937661 -1.661569 1.286515 2.950147
    25 18.764917 -59.207679 -15.333081 0.185300 -0.053089 -1.993265
    26 11.692570 -0.000004 0.000000 0.000000 0.000000 -0.735495
    27 11.481654 0.000000 0.000016 -1.610898 0.181262 -0.196406
    28 3.850428 0.126099 1.223438 0.218437 0.059429 -1.236277
    29 1.312562 0.000001 0.000000 0.013556 -0.052694 -0.660926
    30 0.729362 0.000000 0.000000 0.035126 -0.020663 -1.280268
    31 3.926355 0.316488 0.462502 0.078919 0.018325 -1.052031
    32 1.539096 0.000000 -0.000008 0.003022 -0.002131 -1.198664
    33 1.196321 0.000002 0.000011 0.004719 -0.004015 -1.294263
    34 3.881386 0.214694 -0.400257 -0.013550 -0.002191 -0.994617
    35 1.719579 0.000000 0.000000 -0.018227 0.009235 -1.467873
    36 1.209180 -0.000002 -0.000008 -0.009139 0.006871 -1.142228
    37 3.871304 0.117424 -1.300907 -0.078201 -0.025271 -1.087899
    38 1.719431 0.000000 -0.000004 -0.098412 0.040018 -1.533477
    39 1.099665 -0.000001 -0.000004 -0.043317 0.052396 -0.926108
    40 0.838848 -0.300291 -1.312786 1.038393 0.338527 -0.651145
    41 1.789780 -0.000002 0.000000 0.000000 0.003711 0.332742
    42 1.207002 0.000004 0.000000 0.000000 0.005668 0.612525
    43 -0.534583 0.295797 -0.001972 -1.591880 0.022078 -1.868741
    44 0.113788 -0.132996 14.720029 0.000000 0.000000 0.000000
    45 0.113787 -0.132980 9.513787 0.000000 0.000000 0.000000
    46 -0.000001 0.000004 0.000000 0.000000 0.000000 0.000000
    47 -0.000001 0.000000 0.000000 0.000000 0.000000 0.000000
    48 0.113791 -0.132973 16.481380 0.000000 0.000000 0.000000
    49 0.113788 -0.132973 18.076752 0.000000 0.000000 0.000000
    50 0.113789 -0.132969 19.676247 0.000013 0.000000 0.000000
    51 0.113791 -0.132980 21.255905 0.000000 0.000000 0.000000
    52 0.113788 -0.132980 22.869106 -0.000013 0.000000 0.000000
    53 0.113791 -0.132980 24.483315 0.000000 0.000000 0.000000
    54 0.113790 -0.132977 26.066456 0.000000 0.000000 0.000000
    55 0.113790 -0.132980 27.665100 0.000000 0.000000 0.000000
    56 4.717026 4.484177 33.327862 -0.556262 0.029553 -0.762254
    57 0.089302 4.272583 4.480568 0.681848 0.000000 0.000000
    58 4.922175 -5.137234 33.583321 -0.587134 0.000000 -2.327265
    59 0.001394 4.167400 4.226917 0.681876 0.000000 0.000000
    60 -4.578506 -5.283134 33.331905 0.000000 0.000000 2.438902
    61 0.269684 4.148857 4.474522 0.000000 0.000000 0.000000
    62 -4.409222 4.440941 33.338566 -0.587149 0.000000 0.763647
    63 -0.045498 4.393921 4.464542 0.681855 0.000000 0.000000
    64 -4.439061 3.922569 13.956212 0.075659 -0.411864 0.634747
    65 0.113791 -0.132977 29.243565 0.000013 0.000000 0.000000
    66 0.000002 -16.000000 -57.000000 1.570788 0.000007 -0.000007
  time 7
    0 -0.533595 0.000000 38.566879 1.570796 0.000000 -1.570796
    1 0.000000 3.345131 -2.981898 1.570796 0.083193 1.570796
    2 3.995838 0.000000 0.000000 0.000000 0.000000 -0.028816
    3 3.520283 0.000000 0.000000 0.000000 0.000000 0.097307
    4 8.921463 0.000000 0.000000 0.000000 0.000000 0.186413
    5 2.059513 0.977920 1.937661 1.589740 -1.286515 2.950147
    6 34.259531 -69.829832 -11.420079 4.550395 -0.205429 0.372372
    7 11.692564 0.000000 0.000011 0.000000 0.000000 -0.745832
    8 11.481674 0.000001 -0.000034 1.329220 0.087758 0.746815
    9 3.850418 0.126099 -1.223440 -0.317316 -0.182678 -1.175166
    10 1.312561 0.000000 0.000000 -0.035210 0.041488 -1.113081
    11 0.729366 0.000004 0.000000 -0.013075 0.038597 -0.567715
    12 3.926350 0.316490 -0.462519 -0.168907 -0.159042 -1.089467
    13 1.539101 0.000000 -0.000002 -0.003295 0.001738 -1.334676
    14 1.196331 -0.000002 0.000000 -0.004291 0.004431 -1.200192
    15 3.881380 0.214687 0.400251 -0.056575 -0.204695 -1.030413
    16 1.719583 0.000004 0.000000 0.018838 -0.007916 -1.539002
    17 1.209183 -0.000001 0.000008 0.008062 -0.008108 -0.998649
    18 3.871292 0.117424 1.300905 -0.020042 -0.190438 -1.160275
    19 1.719425 -0.000004 0.000002 0.101231 -0.032227 -1.611435
    20 1.099674 0.000004 -0.000004 0.042294 -0.053202 -0.907071
    21 0.838839 -0.300285 1.312777 -0.847487 -0.487805 -0.629244
    22 1.789783 -0.000002 0.000011 -0.000556 -0.003669 0.378873
    23 1.207006 0.000001 0.000004 -0.001696 -0.005420 0.664304
    24 2.059517 0.977922 -1.937661 -1.661569 1.286515 2.950147
    25 19.284464 -59.168615 -15.340894 0.183510 -0.051280 -2.003695
    26 11.692570 -0.000004 0.000000 0.000000 0.000000 -0.735495
    27 11.481654 0.000000 0.000016 -1.610898 0.181262 -0.196406
    28 3.850428 0.126099 1.223438 0.218437 0.059429 -1.236277
    29 1.312562 0.000001 0.000000 0.013556 -0.052694 -0.660926
    30 0.729362 0.000000 0.000000 0.035126 -0.020663 -1.280268
    31 3.926355 0.316488 0.462502 0.078919 0.018325 -1.052031
    32 1.539096 0.000000 -0.000008 0.003022 -0.002131 -1.198664
    33 1.196321 0.000002 0.000011 0.004719 -0.004015 -1.294263
    34 3.881386 0.214694 -0.400257 -0.013550 -0.002191 -0.994617
    35 1.719579 0.000000 0.000000 -0.018227 0.009235 -1.467873
    36 1.209180 -0.000002 -0.000008 -0.009139 0.006871 -1.142228
    37 3.871304 0.117424 -1.300907 -0.078201 -0.025271 -1.087899
    38 1.719431 0.000000 -0.000004 -0.098412 0.040018 -1.533477
    39 1.099665 -0.000001 -0.000004 -0.043317 0.052396 -0.926108
    40 0.838848 -0.300291 -1.312786 1.038393 0.338527 -0.651145
    41 1.789780 -0.000002 0.000000 0.000000 0.003711 0.332742
    42 1.207002 0.000004 0.000000 0.000000 0.005668 0.612525
    43 -0.534583 0.295797 -0.001972 -1.591880 0.022078 -1.868741
    44 0.113788 -0.132996 14.720029 0.000000 0.000000 0.000000
    45 0.113787 -0.132980 9.513787 0.000000 0.000000 0.000000
    46 -0.000001 0.000004 0.000000 0.000000 0.000000 0.000000
    47 -0.000001 0.000000 0.000000 0.000000 0.000000 0.000000
    48 0.113791 -0.132973 16.481380 0.000000 0.000000 0.000000
    49 0.113788 -0.132973 18.076752 0.000000 0.000000 0.000000
    50 0.113789 -0.132969 19.676247 0.000013 0.000000 0.000000
    51 0.113791 -0.132980 21.255905 0.000000 0.000000 0.000000
    52 0.113788 -0.132980 22.869106 -0.000013 0.000000 0.000000
    53 0.113791 -0.132980 24.483315 0.000000 0.000000 0.000000
    54 0.113790 -0.132977 26.066456 0.000000 0.000000 0.000000
    55 0.113790 -0.132980 27.665100 0.000000 0.000000 0.000000
    56 4.717026 4.484177 33.327862 -0.491275 0.029553 -0.762254
    57 0.089302 4.272583 4.480568 0.825632 0.000000 0.000000
    58 4.922175 -5.137234 33.583321 -0.522129 0.000000 -2.327265
    59 0.001394 4.167400 4.226917 0.825659 0.000000 0.000000
    60 -4.578506 -5.283134 33.331905 0.000000 0.000000 2.438902
    61 0.269684 4.148857 4.474522 0.000000 0.000000 0.000000
    62 -4.409222 4.440941 33.338566 -0.522161 0.000000 0.763647
    63 -0.045498 4.393921 4.464542 0.825641 0.000000 0.000000
    64 -4.439061 3.922569 13.956212 0.075659 -0.411864 0.634747
    65 0.113791 -0.132977 29.243565 0.000013 0.000000 0.000000
    66 0.000002 -16.000000 -57.000000 1.570788 0.000007 -0.000007
  time 8
    0 -0.533595 0.000000 38.566879 1.570796 0.000000 -1.570796
    1 0.000000 3.345131 -2.981898 1.570796 0.083193 1.570796
    2 3.995838 0.000000 0.000000 0.000000 0.000000 -0.028816
    3 3.520283 0.000000 0.000000 0.000000 0.000000 0.097307
    4 8.921463 0.000000 0.000000 0.000000 0.000000 0.186413
    5 2.059513 0.977920 1.937661 1.589740 -1.286515 2.950147
    6 34.017337 -69.923585 -11.306794 4.539482 -0.203496 0.382399
    7 11.692564 0.000000 0.000011 0.000000 0.000000 -0.745832
    8 11.481674 0.000001 -0.000034 1.329220 0.087758 0.746815
    9 3.850418 0.126099 -1.223440 -0.317316 -0.182678 -1.175166
    10 1.312561 0.000000 0.000000 -0.035210 0.041488 -1.113081
    11 0.729366 0.000004 0.000000 -0.013075 0.038597 -0.567715
    12 3.926350 0.316490 -0.462519 -0.168907 -0.159042 -1.089467
    13 1.539101 0.000000 -0.000002 -0.003295 0.001738 -1.334676
    14 1.196331 -0.000002 0.000000 -0.004291 0.004431 -1.200192
    15 3.881380 0.214687 0.400251 -0.056575 -0.204695 -1.030413
    16 1.719583 0.000004 0.000000 0.018838 -0.007916 -1.539002
    17 1.209183 -0.000001 0.000008 0.008062 -0.008108 -0.998649
    18 3.871292 0.117424 1.300905 -0.020042 -0.190438 -1.160275
    19 1.719425 -0.000004 0.000002 0.101231 -0.032227 -1.611435
    20 1.099674 0.000004 -0.000004 0.042294 -0.053202 -0.907071
    21 0.838839 -0.300285 1.312777 -0.847487 -0.487805 -0.629244
    22 1.789783 -0.000002 0.000011 -0.000556 -0.003669 0.378873
    23 1.207006 0.000001 0.000004 -0.001696 -0.005420 0.664304
    24 2.059517 0.977922 -1.937661 -1.661569 1.286515 2.950147
    25 19.593067 -59.004548 -15.309643 0.175135 -0.043980 -2.010649
    26 11.692570 -0.000004 0.000000 0.000000 0.000000 -0.735495
    27 11.481654 0.000000 0.000016 -1.610898 0.181262 -0.196406
    28 3.850428 0.126099 1.223438 0.218437 0.059429 -1.236277
    29 1.312562 0.000001 0.000000 0.013556 -0.052694 -0.660926
    30 0.729362 0.000000 0.000000 0.035126 -0.020663 -1.280268
    31 3.926355 0.316488 0.462502 0.078919 0.018325 -1.052031
    32 1.539096 0.000000 -0.000008 0.003022 -0.002131 -1.198664
    33 1.196321 0.000002 0.000011 0.004719 -0.004015 -1.294263
    34 3.881386 0.214694 -0.400257 -0.013550 -0.002191 -0.994617
    35 1.719579 0.000000 0.000000 -0.018227 0.009235 -1.467873
    36 1.209180 -0.000002 -0.000008 -0.009139 0.006871 -1.142228
    37 3.871304 0.117424 -1.300907 -0.078201 -0.025271 -1.087899
    38 1.719431 0.000000 -0.000004 -0.098412 0.040018 -1.533477
    39 1.099665 -0.000001 -0.000004 -0.043317 0.052396 -0.926108
    40 0.838848 -0.300291 -1.312786 1.038393 0.338527 -0.651145
    41 1.789780 -0.000002 0.000000 0.000000 0.003711 0.332742
    42 1.207002 0.000004 0.000000 0.000000 0.005668 0.612525
    43 -0.534583 0.295797 -0.001972 -1.591880 0.022078 -1.868741
    44 0.113788 -0.132996 14.720029 0.000000 0.000000 0.000000
    45 0.113787 -0.132980 9.513787 0.000000 0.000000 0.000000
    46 -0.000001 0.000004 0.000000 0.000000 0.000000 0.000000
    47 -0.000001 0.000000 0.000000 0.000000 0.000000 0.000000
    48 0.113791 -0.132973 16.481380 0.000000 0.000000 0.000000
    49 0.113788 -0.132973 18.076752 0.000000 0.000000 0.000000
    50 0.113789 -0.132969 19.676247 0.000013 0.000000 0.000000
    51 0.113791 -0.132980 21.255905 0.000000 0.000000 0.000000
    52 0.113788 -0.132980 22.869106 -0.000013 0.000000 0.000000
    53 0.113791 -0.132980 24.483315 0.000000 0.000000 0.000000
    54 0.113790 -0.132977 26.066456 0.000000 0.000000 0.000000
    55 0.113790 -0.132980 27.665100 0.000000 0.000000 0.000000
    56 4.717026 4.484177 33.327862 -0.394168 0.029553 -0.762254
    57 0.089302 4.272583 4.480568 0.941803 0.000000 0.000000
    58 4.922175 -5.137234 33.583321 -0.425040 0.000000 -2.327265
    59 0.001394 4.167400 4.226917 0.941798 0.000000 0.000000
    60 -4.578506 -5.283134 33.331905 0.000000 0.000000 2.438902
    61 0.269684 4.148857 4.474522 0.000000 0.000000 0.000000
    62 -4.409222 4.440941 33.338566 -0.425051 0.000000 0.763647
    63 -0.045498 4.393921 4.464542 0.941814 0.000000 0.000000
    64 -4.439061 3.922569 13.956212 0.075659 -0.411864 0.634747
    65 0.113791 -0.132977 29.243565 0.000013 0.000000 0.000000
    66 0.000002 -16.000000 -57.000000 1.570788 0.000007 -0.000007
  time 9
    0 -0.533595 0.000000 38.566879 1.570796 0.000000 -1.570796
    1 0.000000 3.345131 -2.981898 1.570796 0.083193 1.570796
    2 3.995838 0.000000 0.000000 0.000000 0.000000 -0.028816
    3 3.520283 0.000000 0.000000 0.000000 0.000000 0.097307
    4 8.921463 0.000000 0.000000 0.000000 0.000000 0.186413
    5 2.059513 0.977920 1.937661 1.589740 -1.286515 2.950147
    6 33.931396 -70.169687 -11.131007 4.520144 -0.199906 0.391949
    7 11.692564 0.000000 0.000011 0.000000 0.000000 -0.745832
    8 11.481674 0.000001 -0.000034 1.329220 0.087758 0.746815
    9 3.850418 0.126099 -1.223440 -0.317316 -0.182678 -1.175166
    10 1.312561 0.000000 0.000000 -0.035210 0.041488 -1.113081
    11 0.729366 0.000004 0.000000 -0.013075 0.038597 -0.567715
    12 3.926350 0.316490 -0.462519 -0.168907 -0.159042 -1.089467
    13 1.539101 0.000000 -0.000002 -0.003295 0.001738 -1.334676
    14 1.196331 -0.000002 0.000000 -0.004291 0.004431 -1.200192
    15 3.881380 0.214687 0.400251 -0.056575 -0.204695 -1.030413
    16 1.719583 0.000004 0.000000 0.018838 -0.007916 -1.539002
    17 1.209183 -0.000001 0.000008 0.008062 -0.008108 -0.998649
    18 3.871292 0.117424 1.300905 -0.020042 -0.190438 -1.160275
    19 1.719425 -0.000004 0.000002 0.101231 -0.032227 -1.611435
    20 1.099674 0.000004 -0.000004 0.042294 -0.053202 -0.907071
    21 0.838839 -0.300285 1.312777 -0.847487 -0.487805 -0.629244
    22 1.789783 -0.000002 0.000011 -0.000556 -0.003669 0.378873
    23 1.207006 0.000001 0.000004 -0.001696 -0.005420 0.664304
    24 2.059517 0.977922 -1.937661 -1.661569 1.286515 2.950147
    25 19.745416 -58.844387 -15.235422 0.160753 -0.030833 -2.014984
    26 11.692570 -0.000004 0.000000 0.000000 0.000000 -0.735495
    27 11.481654 0.000000 0.000016 -1.610898 0.181262 -0.196406
    28 3.850428 0.126099 1.223438 0.218437 0.059429 -1.236277
    29 1.312562 0.000001 0.000000 0.013556 -0.052694 -0.660926
    30 0.729362 0.000000 0.000000 0.035126 -0.020663 -1.280268
    31 3.926355 0.316488 0.462502 0.078919 0.018325 -1.052031
    32 1.539096 0.000000 -0.000008 0.003022 -0.002131 -1.198664
    33 1.196321 0.000002 0.000011 0.004719 -0.004015 -1.294263
    34 3.881386 0.214694 -0.400257 -0.013550 -0.002191 -0.994617
    35 1.719579 0.000000 0.000000 -0.018227 0.009235 -1.467873
    36 1.209180 -0.000002 -0.000008 -0.009139 0.006871 -1.142228
    37 3.871304 0.117424 -1.300907 -0.078201 -0.025271 -1.087899
    38 1.719431 0.000000 -0.000004 -0.098412 0.040018 -1.533477
    39 1.099665 -0.000001 -0.000004 -0.043317 0.052396 -0.926108
    40 0.838848 -0.300291 -1.312786 1.038393 0.338527 -0.651145
    41 1.789780 -0.000002 0.000000 0.000000 0.003711 0.332742
    42 1.207002 0.000004 0.000000 0.000000 0.005668 0.612525
    43 -0.534583 0.295797 -0.001972 -1.591880 0.022078 -1.868741
    44 0.113788 -0.132996 14.720029 0.000000 0.000000 0.000000
    45 0.113787 -0.132980 9.513787 0.000000 0.000000 0.000000
    46 -0.000001 0.000004 0.000000 0.000000 0.000000 0.000000
    47 -0.000001 0.000000 0.000000 0.000000 0.000000 0.000000
    48 0.113791 -0.132973 16.481380 0.000000 0.000000 0.000000
    49 0.113788 -0.132973 18.076752 0.000000 0.000000 0.000000
    50 0.113789 -0.132969 19.676247 0.000013 0.000000 0.000000
    51 0.113791 -0.132980 21.255905 0.000000 0.000000 0.000000
    52 0.113788 -0.132980 22.869106 -0.000013 0.000000 0.000000
    53 0.113791 -0.132980 24.483315 0.000000 0.000000 0.000000
    54 0.113790 -0.132977 26.066456 0.000000 0.000000 0.000000
    55 0.113790 -0.132980 27.665100 0.000000 0.000000 0.000000
    56 4.717026 4.484177 33.327862 -0.274709 0.029553 -0.762254
    57 0.089302 4.272583 4.480568 1.019080 0.000000 0.000000
    58 4.922175 -5.137234 33.583321 -0.305582 0.000000 -2.327265
    59 0.001394 4.167400 4.226917 1.019042 0.000000 0.000000
    60 -4.578506 -5.283134 33.331905 0.000000 0.000000 2.438902
    61 0.269684 4.148857 4.474522 0.000000 0.000000 0.000000
    62 -4.409222 4.440941 33.338566 -0.305590 0.000000 0.763647
    63 -0.045498 4.393921 4.464542 1.019092 0.000000 0.000000
    64 -4.439061 3.922569 13.956212 0.075659 -0.411864 0.634747
    65 0.113791 -0.132977 29.243565 0.000013 0.000000 0.000000
    66 0.000002 -16.000000 -57.000000 1.570788 0.000007 -0.000007
  time 10
    0 -0.533595 0.000000 38.566879 1.570796 0.000000 -1.570796
    1 0.000000 3.345131 -2.981898 1.570796 0.083193 1.570796
    2 3.995838 0.000000 0.000000 0.000000 0.000000 -0.028816
    3 3.520283 0.000000 0.000000 0.000000 0.000000 0.097307
    4 8.921463 0.000000 0.000000 0.000000 0.000000 0.186413
    5 2.059513 0.977920 1.937661 1.589740 -1.286515 2.950147
    6 34.060307 -70.622825 -10.877093 4.492670 -0.195303 0.401021
    7 11.692564 0.000000 0.000011 0.000000 0.000000 -0.745832
    8 11.481674 0.000001 -0.000034 1.329220 0.087758 0.746815
    9 3.850418 0.126099 -1.223440 -0.317316 -0.182678 -1.175166
    10 1.312561 0.000000 0.000000 -0.035210 0.041488 -1.113081
    11 0.729366 0.000004 0.000000 -0.013075 0.038597 -0.567715
    12 3.926350 0.316490 -0.462519 -0.168907 -0.159042 -1.089467
    13 1.539101 0.000000 -0.000002 -0.003295 0.001738 -1.334676
    14 1.196331 -0.000002 0.000000 -0.004291 0.004431 -1.200192
    15 3.881380 0.214687 0.400251 -0.056575 -0.204695 -1.030413
    16 1.719583 0.000004 0.000000 0.018838 -0.007916 -1.539002
    17 1.209183 -0.000001 0.000008 0.008062 -0.008108 -0.998649
    18 3.871292 0.117424 1.300905 -0.020042 -0.190438 -1.160275
    19 1.719425 -0.000004 0.000002 0.101231 -0.032227 -1.611435
    20 1.099674 0.000004 -0.000004 0.042294 -0.053202 -0.907071
    21 0.838839 -0.300285 1.312777 -0.847487 -0.487805 -0.629244
    22 1.789783 -0.000002 0.000011 -0.000556 -0.003669 0.378873
    23 1.207006 0.000001 0.000004 -0.001696 -0.005420 0.664304
    24 2.059517 0.977922 -1.937661 -1.661569 1.286515 2.950147
    25 19.753228 -58.793604 -15.129950 0.141173 -0.011516 -2.017445
    26 11.692570 -0.000004 0.000000 0.000000 0.000000 -0.735495
    27 11.481654 0.000000 0.000016 -1.610898 0.181262 -0.196406
    28 3.850428 0.126099 1.223438 0.218437 0.059429 -1.236277
    29 1.312562 0.000001 0.000000 0.013556 -0.052694 -0.660926
    30 0.729362 0.000000 0.000000 0.035126 -0.020663 -1.280268
    31 3.926355 0.316488 0.462502 0.078919 0.018325 -1.052031
    32 1.539096 0.000000 -0.000008 0.003022 -0.002131 -1.198664
    33 1.196321 0.000002 0.000011 0.004719 -0.004015 -1.294263
    34 3.881386 0.214694 -0.400257 -0.013550 -0.002191 -0.994617
    35 1.719579 0.000000 0.000000 -0.018227 0.009235 -1.467873
    36 1.209180 -0.000002 -0.000008 -0.009139 0.006871 -1.142228
    37 3.871304 0.117424 -1.300907 -0.078201 -0.025271 -1.087899
    38 1.719431 0.000000 -0.000004 -0.098412 0.040018 -1.533477
    39 1.099665 -0.000001 -0.000004 -0.043317 0.052396 -0.926108
    40 0.838848 -0.300291 -1.312786 1.038393 0.338527 -0.651145
    41 1.789780 -0.000002 0.000000 0.000000 0.003711 0.332742
    42 1.207002 0.000004 0.000000 0.000000 0.005668 0.612525
    43 -0.534583 0.295797 -0.001972 -1.591880 0.022078 -1.868741
    44 0.113788 -0.132996 14.720029 0.000000 0.000000 0.000000
    45 0.113787 -0.132980 9.513787 0.000000 0.000000 0.000000
    46 -0.000001 0.000004 0.000000 0.000000 0.000000 0.000000
    47 -0.000001 0.000000 0.000000 0.000000 0.000000 0.000000
    48 0.113791 -0.132973 16.481380 0.000000 0.000000 0.000000
    49 0.113788 -0.132973 18.076752 0.000000 0.000000 0.000000
    50 0.113789 -0.132969 19.676247 0.000013 0.000000 0.000000
    51 0.113791 -0.132980 21.255905 0.000000 0.000000 0.000000
    52 0.113788 -0.132980 22.869106 -0.000013 0.000000 0.000000
    53 0.113791 -0.132980 24.483315 0.000000 0.000000 0.000000
    54 0.113790 -0.132977 26.066456 0.000000 0.000000 0.000000
    55 0.113790 -0.132980 27.665100 0.000000 0.000000 0.000000
    56 4.717026 4.484177 33.327862 -0.143635 0.029553 -0.762254
    57 0.089302 4.272583 4.480568 1.047204 0.000000 0.000000
    58 4.922175 -5.137234 33.583321 -0.174528 0.000000 -2.327265
    59 0.001394 4.167400 4.226917 1.047134 0.000000 0.000000
    60 -4.578506 -5.283134 33.331905 0.000000 0.000000 2.438902
    61 0.269684 4.148857 4.474522 0.000000 0.000000 0.000000
    62 -4.409222 4.440941 33.338566 -0.174513 0.000000 0.763647
    63 -0.045498 4.393921 4.464542 1.047152 0.000000 0.000000
    64 -4.439061 3.922569 13.956212 0.075659 -0.411864 0.634747
    65 0.113791 -0.132977 29.243565 0.000013 0.000000 0.000000
    66 0.000002 -16.000000 -57.000000 1.570788 0.000007 -0.000007
  time 11
    0 -0.533595 0.000000 38.566879 1.570796 0.000000 -1.570796
    1 0.000000 3.345131 -2.981898 1.570796 0.083193 1.570796
    2 3.995838 0.000000 0.000000 0.000000 0.000000 -0.028816
    3 3.520283 0.000000 0.000000 0.000000 0.000000 0.097307
    4 8.921463 0.000000 0.000000 0.000000 0.000000 0.186413
    5 2.059513 0.977920 1.937661 1.589740 -1.286515 2.950147
    6 34.392348 -71.283002 -10.521614 4.457537 -0.190333 0.410189
    7 11.692564 0.000000 0.000011 0.000000 0.000000 -0.745832
    8 11.481674 0.000001 -0.000034 1.329220 0.087758 0.746815
    9 3.850418 0.126099 -1.223440 -0.317316 -0.182678 -1.175166
    10 1.312561 0.000000 0.000000 -0.035210 0.041488 -1.113081
    11 0.729366 0.000004 0.000000 -0.013075 0.038597 -0.567715
    12 3.926350 0.316490 -0.462519 -0.168907 -0.159042 -1.089467
    13 1.539101 0.000000 -0.000002 -0.003295 0.001738 -1.334676
    14 1.196331 -0.000002 0.000000 -0.004291 0.004431 -1.200192
    15 3.881380 0.214687 0.400251 -0.056575 -0.204695 -1.030413
    16 1.719583 0.000004 0.000000 0.018838 -0.007916 -1.539002
    17 1.209183 -0.000001 0.000008 0.008062 -0.008108 -0.998649
    18 3.871292 0.117424 1.300905 -0.020042 -0.190438 -1.160275
    19 1.719425 -0.000004 0.000002 0.101231 -0.032227 -1.611435
    20 1.099674 0.000004 -0.000004 0.042294 -0.053202 -0.907071
    21 0.838839 -0.300285 1.312777 -0.847487 -0.487805 -0.629244
    22 1.789783 -0.000002 0.000011 -0.000556 -0.003669 0.378873
    23 1.207006 0.000001 0.000004 -0.001696 -0.005420 0.664304
    24 2.059517 0.977922 -1.937661 -1.661569 1.286515 2.950147
    25 19.647756 -58.856106 -14.989320 0.117261 0.013776 -2.018617
    26 11.692570 -0.000004 0.000000 0.000000 0.000000 -0.735495
    27 11.481654 0.000000 0.000016 -1.610898 0.181262 -0.196406
    28 3.850428 0.126099 1.223438 0.218437 0.059429 -1.236277
    29 1.312562 0.000001 0.000000 0.013556 -0.052694 -0.660926
    30 0.729362 0.000000 0.000000 0.035126 -0.020663 -1.280268
    31 3.926355 0.316488 0.462502 0.078919 0.018325 -1.052031
    32 1.539096 0.000000 -0.000008 0.003022 -0.002131 -1.198664
    33 1.196321 0.000002 0.000011 0.004719 -0.004015 -1.294263
    34 3.881386 0.214694 -0.400257 -0.013550 -0.002191 -0.994617
    35 1.719579 0.000000 0.000000 -0.018227 0.009235 -1.467873
    36 1.209180 -0.000002 -0.000008 -0.009139 0.006871 -1.142228
    37 3.871304 0.117424 -1.300907 -0.078201 -0.025271 -1.087899
    38 1.719431 0.000000 -0.000004 -0.098412 0.040018 -1.533477
    39 1.099665 -0.000001 -0.000004 -0.043317 0.052396 -0.926108
    40 0.838848 -0.300291 -1.312786 1.038393 0.338527 -0.651145
    41 1.789780 -0.000002 0.000000 0.000000 0.003711 0.332742
    42 1.207002 0.000004 0.000000 0.000000 0.005668 0.612525
    43 -0.534583 0.295797 -0.001972 -1.591880 0.022078 -1.868741
    44 0.113788 -0.132996 14.720029 0.000000 0.000000 0.000000
    45 0.113787 -0.132980 9.513787 0.000000 0.000000 0.000000
    46 -0.000001 0.000004 0.000000 0.000000 0.000000 0.000000
    47 -0.000001 0.000000 0.000000 0.000000 0.000000 0.000000
    48 0.113791 -0.132973 16.481380 0.000000 0.000000 0.000000
    49 0.113788 -0.132973 18.076752 0.000000 0.000000 0.000000
    50 0.113789 -0.132969 19.676247 0.000013 0.000000 0.000000
    51 0.113791 -0.132980 21.255905 0.000000 0.000000 0.000000
    52 0.113788 -0.132980 22.869106 -0.000013 0.000000 0.000000
    53 0.113791 -0.132980 24.483315 0.000000 0.000000 0.000000
    54 0.113790 -0.132977 26.066456 0.000000 0.000000 0.000000
    55 0.113790 -0.132980 27.665100 0.000000 0.000000 0.000000
    56 4.717026 4.484177 33.327862 -0.012599 0.029553 -0.762254
    57 0.089302 4.272583 4.480568 1.007223 0.000000 0.000000
    58 4.922175 -5.137234 33.583321 -0.043455 0.000000 -2.327265
    59 0.001394 4.167400 4.226917 1.007217 0.000000 0.000000
    60 -4.578506 -5.283134 33.331905 0.000000 0.000000 2.438902
    61 0.269684 4.148857 4.474522 0.000000 0.000000 0.000000
    62 -4.409222 4.440941 33.338566 -0.043475 0.000000 0.763647
    63 -0.045498 4.393921 4.464542 1.007267 0.000000 0.000000
    64 -4.439061 3.922569 13.956212 0.075659 -0.411864 0.634747
    65 0.113791 -0.132977 29.243565 0.000013 0.000000 0.000000
    66 0.000002 -16.000000 -57.000000 1.570788 0.000007 -0.000007
  time 12
    0 -0.533595 0.000000 38.566879 1.570796 0.000000 -1.570796
    1 0.000000 3.345131 -2.981898 1.570796 0.083193 1.570796
    2 3.995838 0.000000 0.000000 0.000000 0.000000 -0.028816
    3 3.520283 0.000000 0.000000 0.000000 0.000000 0.097307
    4 8.921463 0.000000 0.000000 0.000000 0.000000 0.186413
    5 2.059513 0.977920 1.937661 1.589740 -1.286515 2.950147
    6 34.907989 -72.115058 -10.052849 4.416085 -0.185408 0.418784
    7 11.692564 0.000000 0.000011 0.000000 0.000000 -0.745832
    8 11.481674 0.000001 -0.000034 1.329220 0.087758 0.746815
    9 3.850418 0.126099 -1.223440 -0.317316 -0.182678 -1.175166
    10 1.312561 0.000000 0.000000 -0.035210 0.041488 -1.113081
    11 0.729366 0.000004 0.000000 -0.013075 0.038597 -0.567715
    12 3.926350 0.316490 -0.462519 -0.168907 -0.159042 -1.089467
    13 1.539101 0.000000 -0.000002 -0.003295 0.001738 -1.334676
    14 1.196331 -0.000002 0.000000 -0.004291 0.004431 -1.200192
    15 3.881380 0.214687 0.400251 -0.056575 -0.204695 -1.030413
    16 1.719583 0.000004 0.000000 0.018838 -0.007916 -1.539002
    17 1.209183 -0.000001 0.000008 0.008062 -0.008108 -0.998649
    18 3.871292 0.117424 1.300905 -0.020042 -0.190438 -1.160275
    19 1.719425 -0.000004 0.000002 0.101231 -0.032227 -1.611435
    20 1.099674 0.000004 -0.000004 0.042294 -0.053202 -0.907071
    21 0.838839 -0.300285 1.312777 -0.847487 -0.487805 -0.629244
    22 1.789783 -0.000002 0.000011 -0.000556 -0.003669 0.378873
    23 1.207006 0.000001 0.000004 -0.001696 -0.005420 0.664304
    24 2.059517 0.977922 -1.937661 -1.661569 1.286515 2.950147
    25 19.444625 -59.031892 -14.825253 0.090115 0.044560 -2.019125
    26 11.692570 -0.000004 0.000000 0.000000 0.000000 -0.735495
    27 11.481654 0.000000 0.000016 -1.610898 0.181262 -0.196406
    28 3.850428 0.126099 1.223438 0.218437 0.059429 -1.236277
    29 1.312562 0.000001 0.000000 0.013556 -0.052694 -0.660926
    30 0.729362 0.000000 0.000000 0.035126 -0.020663 -1.280268
    31 3.926355 0.316488 0.462502 0.078919 0.018325 -1.052031
    32 1.539096 0.000000 -0.000008 0.003022 -0.002131 -1.198664
    33 1.196321 0.000002 0.000011 0.004719 -0.004015 -1.294263
    34 3.881386 0.214694 -0.400257 -0.013550 -0.002191 -0.994617
    35 1.719579 0.000000 0.000000 -0.018227 0.009235 -1.467873
    36 1.209180 -0.000002 -0.000008 -0.009139 0.006871 -1.142228
    37 3.871304 0.117424 -1.300907 -0.078201 -0.025271 -1.087899
    38 1.719431 0.000000 -0.000004 -0.098412 0.040018 -1.533477
    39 1.099665 -0.000001 -0.000004 -0.043317 0.052396 -0.926108
    40 0.838848 -0.300291 -1.312786 1.038393 0.338527 -0.651145
    41 1.789780 -0.000002 0.000000 0.000000 0.003711 0.332742
    42 1.207002 0.000004 0.000000 0.000000 0.005668 0.612525
    43 -0.534583 0.295797 -0.001972 -1.591880 0.022078 -1.868741
    44 0.113788 -0.132996 14.720029 0.000000 0.000000 0.000000
    45 0.113787 -0.132980 9.513787 0.000000 0.000000 0.000000
    46 -0.000001 0.000004 0.000000 0.000000 0.000000 0.000000
    47 -0.000001 0.000000 0.000000 0.000000 0.000000 0.000000
    48 0.113791 -0.132973 16.481380 0.000000 0.000000 0.000000
    49 0.113788 -0.132973 18.076752 0.000000 0.000000 0.000000
    50 0.113789 -0.132969 19.676247 0.000013 0.000000 0.000000
    51 0.113791 -0.132980 21.255905 0.000000 0.000000 0.000000
    52 0.113788 -0.132980 22.869106 -0.000013 0.000000 0.000000
    53 0.113791 -0.132980 24.483315 0.000000 0.000000 0.000000
    54 0.113790 -0.132977 26.066456 0.000000 0.000000 0.000000
    55 0.113790 -0.132980 27.665100 0.000000 0.000000 0.000000
    56 4.717026 4.484177 33.327862 0.106860 0.029553 -0.762254
    57 0.089302 4.272583 4.480568 0.895782 0.000000 0.000000
    58 4.922175 -5.137234 33.583321 0.075967 0.000000 -2.327265
    59 0.001394 4.167400 4.226917 0.895777 0.000000 0.000000
    60 -4.578506 -5.283134 33.331905 0.000000 0.000000 2.438902
    61 0.269684 4.148857 4.474522 0.000000 0.000000 0.000000
    62 -4.409222 4.440941 33.338566 0.075969 0.000000 0.763647
    63 -0.045498 4.393921 4.464542 0.895792 0.000000 0.000000
    64 -4.439061 3.922569 13.956212 0.075659 -0.411864 0.634747
    65 0.113791 -0.132977 29.243565 0.000013 0.000000 0.000000
    66 0.000002 -16.000000 -57.000000 1.570788 0.000007 -0.000007
  time 13
    0 -0.533595 0.000000 38.566879 1.570796 0.000000 -1.570796
    1 0.000000 3.345131 -2.981898 1.570796 0.083193 1.570796
    2 3.995838 0.000000 0.000000 0.000000 0.000000 -0.028816
    3 3.520283 0.000000 0.000000 0.000000 0.000000 0.097307
    4 8.921463 0.000000 0.000000 0.000000 0.000000 0.186413
    5 2.059513 0.977920 1.937661 1.589740 -1.286515 2.950147
    6 35.572072 -73.068213 -9.466894 4.369847 -0.180990 0.427092
    7 11.692564 0.000000 0.000011 0.000000 0.000000 -0.745832
    8 11.481674 0.000001 -0.000034 1.329220 0.087758 0.746815
    9 3.850418 0.126099 -1.223440 -0.317316 -0.182678 -1.175166
    10 1.312561 0.000000 0.000000 -0.035210 0.041488 -1.113081
    11 0.729366 0.000004 0.000000 -0.013075 0.038597 -0.567715
    12 3.926350 0.316490 -0.462519 -0.168907 -0.159042 -1.089467
    13 1.539101 0.000000 -0.000002 -0.003295 0.001738 -1.334676
    14 1.196331 -0.000002 0.000000 -0.004291 0.004431 -1.200192
    15 3.881380 0.214687 0.400251 -0.056575 -0.204695 -1.030413
    16 1.719583 0.000004 0.000000 0.018838 -0.007916 -1.539002
    17 1.209183 -0.000001 0.000008 0.008062 -0.008108 -0.998649
    18 3.871292 0.117424 1.300905 -0.020042 -0.190438 -1.160275
    19 1.719425 -0.000004 0.000002 0.101231 -0.032227 -1.611435
    20 1.099674 0.000004 -0.000004 0.042294 -0.053202 -0.907071
    21 0.838839 -0.300285 1.312777 -0.847487 -0.487805 -0.629244
    22 1.789783 -0.000002 0.000011 -0.000556 -0.003669 0.378873
    23 1.207006 0.000001 0.000004 -0.001696 -0.005420 0.664304
    24 2.059517 0.977922 -1.937661 -1.661569 1.286515 2.950147
    25 19.171179 -59.305338 -14.641653 0.060947 0.079834 -2.019555
    26 11.692570 -0.000004 0.000000 0.000000 0.000000 -0.735495
    27 11.481654 0.000000 0.000016 -1.610898 0.181262 -0.196406
    28 3.850428 0.126099 1.223438 0.218437 0.059429 -1.236277
    29 1.312562 0.000001 0.000000 0.013556 -0.052694 -0.660926
    30 0.729362 0.000000 0.000000 0.035126 -0.020663 -1.280268
    31 3.926355 0.316488 0.462502 0.078919 0.018325 -1.052031
    32 1.539096 0.000000 -0.000008 0.003022 -0.002131 -1.198664
    33 1.196321 0.000002 0.000011 0.004719 -0.004015 -1.294263
    34 3.881386 0.214694 -0.400257 -0.013550 -0.002191 -0.994617
    35 1.719579 0.000000 0.000000 -0.018227 0.009235 -1.467873
    36 1.209180 -0.000002 -0.000008 -0.009139 0.006871 -1.142228
    37 3.871304 0.117424 -1.300907 -0.078201 -0.025271 -1.087899
    38 1.719431 0.000000 -0.000004 -0.098412 0.040018 -1.533477
    39 1.099665 -0.000001 -0.000004 -0.043317 0.052396 -0.926108
    40 0.838848 -0.300291 -1.312786 1.038393 0.338527 -0.651145
    41 1.789780 -0.000002 0.000000 0.000000 0.003711 0.332742
    42 1.207002 0.000004 0.000000 0.000000 0.005668 0.612525
    43 -0.534583 0.295797 -0.001972 -1.591880 0.022078 -1.868741
    44 0.113788 -0.132996 14.720029 0.000000 0.000000 0.000000
    45 0.113787 -0.132980 9.513787 0.000000 0.000000 0.000000
    46 -0.000001 0.000004 0.000000 0.000000 0.000000 0.000000
    47 -0.000001 0.000000 0.000000 0.000000 0.000000 0.000000
    48 0.113791 -0.132973 16.481380 0.000000 0.000000 0.000000
    49 0.113788 -0.132973 18.076752 0.000000 0.000000 0.000000
    50 0.113789 -0.132969 19.676247 0.000013 0.000000 0.000000
    51 0.113791 -0.132980 21.255905 0.000000 0.000000 0.000000
    52 0.113788 -0.132980 22.869106 -0.000013 0.000000 0.000000
    53 0.113791 -0.132980 24.483315 0.000000 0.000000 0.000000
    54 0.113790 -0.132977 26.066456 0.000000 0.000000 0.000000
    55 0.113790 -0.132980 27.665100 0.000000 0.000000 0.000000
    56 4.717026 4.484177 33.327862 0.203930 0.029553 -0.762254
    57 0.089302 4.272583 4.480568 0.723938 0.000000 0.000000
    58 4.922175 -5.137234 33.583321 0.173074 0.000000 -2.327265
    59 0.001394 4.167400 4.226917 0.723934 0.000000 0.000000
    60 -4.578506 -5.283134 33.331905 0.000000 0.000000 2.438902
    61 0.269684 4.148857 4.474522 0.000000 0.000000 0.000000
    62 -4.409222 4.440941 33.338566 0.173041 0.000000 0.763647
    63 -0.045498 4.393921 4.464542 0.723914 0.000000 0.000000
    64 -4.439061 3.922569 13.956212 0.075659 -0.411864 0.634747
    65 0.113791 -0.132977 29.243565 0.000013 0.000000 0.000000
    66 0.000002 -16.000000 -57.000000 1.570788 0.000007 -0.000007
  time 14
    0 -0.533595 0.000000 38.566879 1.570796 0.000000 -1.570796
    1 0.000000 3.345131 -2.981898 1.570796 0.083193 1.570796
    2 3.995838 0.000000 0.000000 0.000000 0.000000 -0.028816
    3 3.520283 0.000000 0.000000 0.000000 0.000000 0.097307
    4 8.921463 0.000000 0.000000 0.000000 0.000000 0.186413
    5 2.059513 0.977920 1.937661 1.589740 -1.286515 2.950147
    6 36.333814 -74.076056 -8.791092 4.321121 -0.177078 0.434923
    7 11.692564 0.000000 0.000011 0.000000 0.000000 -0.745832
    8 11.481674 0.000001 -0.000034 1.329220 0.087758 0.746815
    9 3.850418 0.126099 -1.223440 -0.317316 -0.182678 -1.175166
    10 1.312561 0.000000 0.000000 -0.035210 0.041488 -1.113081
    11 0.729366 0.000004 0.000000 -0.013075 0.038597 -0.567715
    12 3.926350 0.316490 -0.462519 -0.168907 -0.159042 -1.089467
    13 1.539101 0.000000 -0.000002 -0.003295 0.001738 -1.334676
    14 1.196331 -0.000002 0.000000 -0.004291 0.004431 -1.200192
    15 3.881380 0.214687 0.400251 -0.056575 -0.204695 -1.030413
    16 1.719583 0.000004 0.000000 0.018838 -0.007916 -1.539002
    17 1.209183 -0.000001 0.000008 0.008062 -0.008108 -0.998649
    18 3.871292 0.117424 1.300905 -0.020042 -0.190438 -1.160275
    19 1.719425 -0.000004 0.000002 0.101231 -0.032227 -1.611435
    20 1.099674 0.000004 -0.000004 0.042294 -0.053202 -0.907071
    21 0.838839 -0.300285 1.312777 -0.847487 -0.487805 -0.629244
    22 1.789783 -0.000002 0.000011 -0.000556 -0.003669 0.378873
    23 1.207006 0.000001 0.000004 -0.001696 -0.005420 0.664304
    24 2.059517 0.977922 -1.937661 -1.661569 1.286515 2.950147
    25 18.846951 -59.660818 -14.454148 0.031144 0.117660 -2.020297
    26 11.692570 -0.000004 0.000000 0.000000 0.000000 -0.735495
    27 11.481654 0.000000 0.000016 -1.610898 0.181262 -0.196406
    28 3.850428 0.126099 1.223438 0.218437 0.059429 -1.236277
    29 1.312562 0.000001 0.000000 0.013556 -0.052694 -0.660926
    30 0.729362 0.000000 0.000000 0.035126 -0.020663 -1.280268
    31 3.926355 0.316488 0.462502 0.078919 0.018325 -1.052031
    32 1.539096 0.000000 -0.000008 0.003022 -0.002131 -1.198664
    33 1.196321 0.000002 0.000011 0.004719 -0.004015 -1.294263
    34 3.881386 0.214694 -0.400257 -0.013550 -0.002191 -0.994617
    35 1.719579 0.000000 0.000000 -0.018227 0.009235 -1.467873
    36 1.209180 -0.000002 -0.000008 -0.009139 0.006871 -1.142228
    37 3.871304 0.117424 -1.300907 -0.078201 -0.025271 -1.087899
    38 1.719431 0.000000 -0.000004 -0.098412 0.040018 -1.533477
    39 1.099665 -0.000001 -0.000004 -0.043317 0.052396 -0.926108
    40 0.838848 -0.300291 -1.312786 1.038393 0.338527 -0.651145
    41 1.789780 -0.000002 0.000000 0.000000 0.003711 0.332742
    42 1.207002 0.000004 0.000000 0.000000 0.005668 0.612525
    43 -0.534583 0.295797 -0.001972 -1.591880 0.022078 -1.868741
    44 0.113788 -0.132996 14.720029 0.000000 0.000000 0.000000
    45 0.113787 -0.132980 9.513787 0.000000 0.000000 0.000000
    46 -0.000001 0.000004 0.000000 0.000000 0.000000 0.000000
    47 -0.000001 0.000000 0.000000 0.000000 0.000000 0.000000
    48 0.113791 -0.132973 16.481380 0.000000 0.000000 0.000000
    49 0.113788 -0.132973 18.076752 0.000000 0.000000 0.000000
    50 0.113789 -0.132969 19.676247 0.000013 0.000000 0.000000
    51 0.113791 -0.132980 21.255905 0.000000 0.000000 0.000000
    52 0.113788 -0.132980 22.869106 -0.000013 0.000000 0.000000
    53 0.113791 -0.132980 24.483315 0.000000 0.000000 0.000000
    54 0.113790 -0.132977 26.066456 0.000000 0.000000 0.000000
    55 0.113790 -0.132980 27.665100 0.000000 0.000000 0.000000
    56 4.717026 4.484177 33.327862 0.268935 0.029553 -0.762254
    57 0.089302 4.272583 4.480568 0.505785 0.000000 0.000000
    58 4.922175 -5.137234 33.583321 0.238041 0.000000 -2.327265
    59 0.001394 4.167400 4.226917 0.505782 0.000000 0.000000
    60 -4.578506 -5.283134 33.331905 0.000000 0.000000 2.438902
    61 0.269684 4.148857 4.474522 0.000000 0.000000 0.000000
    62 -4.409222 4.440941 33.338566 0.238029 0.000000 0.763647
    63 -0.045498 4.393921 4.464542 0.505791 0.000000 0.000000
    64 -4.439061 3.922569 13.956212 0.075659 -0.411864 0.634747
    65 0.113791 -0.132977 29.243565 0.000013 0.000000 0.000000
    66 0.000002 -16.000000 -57.000000 1.570788 0.000007 -0.000007
  time 15
    0 -0.533595 0.000000 38.566879 1.570796 0.000000 -1.570796
    1 0.000000 3.345131 -2.981898 1.570796 0.083193 1.570796
    2 3.995838 0.000000 0.000000 0.000000 0.000000 -0.028816
    3 3.520283 0.000000 0.000000 0.000000 0.000000 0.097307
    4 8.921463 0.000000 0.000000 0.000000 0.000000 0.186413
    5 2.059513 0.977920 1.937661 1.589740 -1.286515 2.950147
    6 37.138526 -75.072180 -8.060601 4.272681 -0.173718 0.441894
    7 11.692564 0.000000 0.000011 0.000000 0.000000 -0.745832
    8 11.481674 0.000001 -0.000034 1.329220 0.087758 0.746815
    9 3.850418 0.126099 -1.223440 -0.317316 -0.182678 -1.175166
    10 1.312561 0.000000 0.000000 -0.035210 0.041488 -1.113081
    11 0.729366 0.000004 0.000000 -0.013075 0.038597 -0.567715
    12 3.926350 0.316490 -0.462519 -0.168907 -0.159042 -1.089467
    13 1.539101 0.000000 -0.000002 -0.003295 0.001738 -1.334676
    14 1.196331 -0.000002 0.000000 -0.004291 0.004431 -1.200192
    15 3.881380 0.214687 0.400251 -0.056575 -0.204695 -1.030413
    16 1.719583 0.000004 0.000000 0.018838 -0.007916 -1.539002
    17 1.209183 -0.000001 0.000008 0.008062 -0.008108 -0.998649
    18 3.871292 0.117424 1.300905 -0.020042 -0.190438 -1.160275
    19 1.719425 -0.000004 0.000002 0.101231 -0.032227 -1.611435
    20 1.099674 0.000004 -0.000004 0.042294 -0.053202 -0.907071
    21 0.838839 -0.300285 1.312777 -0.847487 -0.487805 -0.629244
    22 1.789783 -0.000002 0.000011 -0.000556 -0.003669 0.378873
    23 1.207006 0.000001 0.000004 -0.001696 -0.005420 0.664304
    24 2.059517 0.977922 -1.937661 -1.661569 1.286515 2.950147
    25 18.495377 -60.059268 -14.266642 0.002091 0.155679 -2.021664
    26 11.692570 -0.000004 0.000000 0.000000 0.000000 -0.735495
    27 11.481654 0.000000 0.000016 -1.610898 0.181262 -0.196406
    28 3.850428 0.126099 1.223438 0.218437 0.059429 -1.236277
    29 1.312562 0.000001 0.000000 0.013556 -0.052694 -0.660926
    30 0.729362 0.000000 0.000000 0.035126 -0.020663 -1.280268
    31 3.926355 0.316488 0.462502 0.078919 0.018325 -1.052031
    32 1.539096 0.000000 -0.000008 0.003022 -0.002131 -1.198664
    33 1.196321 0.000002 0.000011 0.004719 -0.004015 -1.294263
    34 3.881386 0.214694 -0.400257 -0.013550 -0.002191 -0.994617
    35 1.719579 0.000000 0.000000 -0.018227 0.009235 -1.467873
    36 1.209180 -0.000002 -0.000008 -0.009139 0.006871 -1.142228
    37 3.871304 0.117424 -1.300907 -0.078201 -0.025271 -1.087899
    38 1.719431 0.000000 -0.000004 -0.098412 0.040018 -1.533477
    39 1.099665 -0.000001 -0.000004 -0.043317 0.052396 -0.926108
    40 0.838848 -0.300291 -1.312786 1.038393 0.338527 -0.651145
    41 1.789780 -0.000002 0.000000 0.000000 0.003711 0.332742
    42 1.207002 0.000004 0.000000 0.000000 0.005668 0.612525
    43 -0.534583 0.295797 -0.001972 -1.591880 0.022078 -1.868741
    44 0.113788 -0.132996 14.720029 0.000000 0.000000 0.000000
    45 0.113787 -0.132980 9.513787 0.000000 0.000000 0.000000
    46 -0.000001 0.000004 0.000000 0.000000 0.000000 0.000000
    47 -0.000001 0.000000 0.000000 0.000000 0.000000 0.000000
    48 0.113791 -0.132973 16.481380 0.000000 0.000000 0.000000
    49 0.113788 -0.132973 18.076752 0.000000 0.000000 0.000000
    50 0.113789 -0.132969 19.676247 0.000013 0.000000 0.000000
    51 0.113791 -0.132980 21.255905 0.000000 0.000000 0.000000
    52 0.113788 -0.132980 22.869106 -0.000013 0.000000 0.000000
    53 0.113791 -0.132980 24.483315 0.000000 0.000000 0.000000
    54 0.113790 -0.132977 26.066456 0.000000 0.000000 0.000000
    55 0.113790 -0.132980 27.665100 0.000000 0.000000 0.000000
    56 4.717026 4.484177 33.327862 0.292648 0.029553 -0.762254
    57 0.089302 4.272583 4.480568 0.261745 0.000000 0.000000
    58 4.922175 -5.137234 33.583321 0.261773 0.000000 -2.327265
    59 0.001394 4.167400 4.226917 0.261776 0.000000 0.000000
    60 -4.578506 -5.283134 33.331905 0.000000 0.000000 2.438902
    61 0.269684 4.148857 4.474522 0.000000 0.000000 0.000000
    62 -4.409222 4.440941 33.338566 0.261761 0.000000 0.763647
    63 -0.045498 4.393921 4.464542 0.261812 0.000000 0.000000
    64 -4.439061 3.922569 13.956212 0.075659 -0.411864 0.634747
    65 0.113791 -0.132977 29.243565 0.000013 0.000000 0.000000
    66 0.000002 -16.000000 -57.000000 1.570788 0.000007 -0.000007
  time 16
    0 -0.533595 0.000000 38.566879 1.570796 0.000000 -1.570796
    1 0.000000 3.345131 -2.981898 1.570796 0.083193 1.570796
    2 3.995838 0.000000 0.000000 0.000000 0.000000 -0.028816
    3 3.520283 0.000000 0.000000 0.000000 0.000000 0.097307
    4 8.921463 0.000000 0.000000 0.000000 0.000000 0.186413
    5 2.059513 0.977920 1.937661 1.589740 -1.286515 2.950147
    6 37.908080 -75.978458 -7.341829 4.227879 -0.170588 0.448006
    7 11.692564 0.000000 0.000011 0.000000 0.000000 -0.745832
    8 11.481674 0.000001 -0.000034 1.329220 0.087758 0.746815
    9 3.850418 0.126099 -1.223440 -0.317316 -0.182678 -1.175166
    10 1.312561 0.000000 0.000000 -0.035210 0.041488 -1.113081
    11 0.729366 0.000004 0.000000 -0.013075 0.038597 -0.567715
    12 3.926350 0.316490 -0.462519 -0.168907 -0.159042 -1.089467
    13 1.539101 0.000000 -0.000002 -0.003295 0.001738 -1.334676
    14 1.196331 -0.000002 0.000000 -0.004291 0.004431 -1.200192
    15 3.881380 0.214687 0.400251 -0.056575 -0.204695 -1.030413
    16 1.719583 0.000004 0.000000 0.018838 -0.007916 -1.539002
    17 1.209183 -0.000001 0.000008 0.008062 -0.008108 -0.998649
    18 3.871292 0.117424 1.300905 -0.020042 -0.190438 -1.160275
    19 1.719425 -0.000004 0.000002 0.101231 -0.032227 -1.611435
    20 1.099674 0.000004 -0.000004 0.042294 -0.053202 -0.907071
    21 0.838839 -0.300285 1.312777 -0.847487 -0.487805 -0.629244
    22 1.789783 -0.000002 0.000011 -0.000556 -0.003669 0.378873
    23 1.207006 0.000001 0.000004 -0.001696 -0.005420 0.664304
    24 2.059517 0.977922 -1.937661 -1.661569 1.286515 2.950147
    25 18.143804 -60.469436 -14.090855 -0.024766 0.191179 -2.023617
    26 11.692570 -0.000004 0.000000 0.000000 0.000000 -0.735495
    27 11.481654 0.000000 0.000016 -1.610898 0.181262 -0.196406
    28 3.850428 0.126099 1.223438 0.218437 0.059429 -1.236277
    29 1.312562 0.000001 0.000000 0.013556 -0.052694 -0.660926
    30 0.729362 0.000000 0.000000 0.035126 -0.020663 -1.280268
    31 3.926355 0.316488 0.462502 0.078919 0.018325 -1.052031
    32 1.539096 0.000000 -0.000008 0.003022 -0.002131 -1.198664
    33 1.196321 0.000002 0.000011 0.004719 -0.004015 -1.294263
    34 3.881386 0.214694 -0.400257 -0.013550 -0.002191 -0.994617
    35 1.719579 0.000000 0.000000 -0.018227 0.009235 -1.467873
    36 1.209180 -0.000002 -0.000008 -0.009139 0.006871 -1.142228
    37 3.871304 0.117424 -1.300907 -0.078201 -0.025271 -1.087899
    38 1.719431 0.000000 -0.000004 -0.098412 0.040018 -1.533477
    39 1.099665 -0.000001 -0.000004 -0.043317 0.052396 -0.926108
    40 0.838848 -0.300291 -1.312786 1.038393 0.338527 -0.651145
    41 1.789780 -0.000002 0.000000 0.000000 0.003711 0.332742
    42 1.207002 0.000004 0.000000 0.000000 0.005668 0.612525
    43 -0.534583 0.295797 -0.001972 -1.591880 0.022078 -1.868741
    44 0.113788 -0.132996 14.720029 0.000000 0.000000 0.000000
    45 0.113787 -0.132980 9.513787 0.000000 0.000000 0.000000
    46 -0.000001 0.000004 0.000000 0.000000 0.000000 0.000000
    47 -0.000001 0.000000 0.000000 0.000000 0.000000 0.000000
    48 0.113791 -0.132973 16.481380 0.000000 0.000000 0.000000
    49 0.113788 -0.132973 18.076752 0.000000 0.000000 0.000000
    50 0.113789 -0.132969 19.676247 0.000013 0.000000 0.000000
    51 0.113791 -0.132980 21.255905 0.000000 0.000000 0.000000
    52 0.113788 -0.132980 22.869106 -0.000013 0.000000 0.000000
    53 0.113791 -0.132980 24.483315 0.000000 0.000000 0.000000
    54 0.113790 -0.132977 26.066456 0.000000 0.000000 0.000000
    55 0.113790 -0.132980 27.665100 0.000000 0.000000 0.000000
    56 4.717026 4.484177 33.327862 0.292648 0.029553 -0.762254
    57 0.089302 4.272583 4.480568 0.017769 0.000000 0.000000
    58 4.922175 -5.137234 33.583321 0.261773 0.000000 -2.327265
    59 0.001394 4.167400 4.226917 0.017769 0.000000 0.000000
    60 -4.578506 -5.283134 33.331905 0.000000 0.000000 2.438902
    61 0.269684 4.148857 4.474522 0.000000 0.000000 0.000000
    62 -4.409222 4.440941 33.338566 0.261761 0.000000 0.763647
    63 -0.045498 4.393921 4.464542 0.017769 0.000000 0.000000
    64 -4.439061 3.922569 13.956212 0.075659 -0.411864 0.634747
    65 0.113791 -0.132977 29.243565 0.000013 0.000000 0.000000
    66 0.000002 -16.000000 -57.000000 1.570788 0.000007 -0.000007
  time 17
    0 -0.533595 0.000000 38.566879 1.570796 0.000000 -1.570796
    1 0.000000 3.345131 -2.981898 1.570796 0.083193 1.570796
    2 3.995838 0.000000 0.000000 0.000000 0.000000 -0.028816
    3 3.520283 0.000000 0.000000 0.000000 0.000000 0.097307
    4 8.921463 0.000000 0.000000 0.000000 0.000000 0.186413
    5 2.059513 0.977920 1.937661 1.589740 -1.286515 2.950147
    6 38.587789 -76.736293 -6.705091 4.189491 -0.167781 0.452972
    7 11.692564 0.000000 0.000011 0.000000 0.000000 -0.745832
    8 11.481674 0.000001 -0.000034 1.329220 0.087758 0.746815
    9 3.850418 0.126099 -1.223440 -0.317316 -0.182678 -1.175166
    10 1.312561 0.000000 0.000000 -0.035210 0.041488 -1.113081
    11 0.729366 0.000004 0.000000 -0.013075 0.038597 -0.567715
    12 3.926350 0.316490 -0.462519 -0.168907 -0.159042 -1.089467
    13 1.539101 0.000000 -0.000002 -0.003295 0.001738 -1.334676
    14 1.196331 -0.000002 0.000000 -0.004291 0.004431 -1.200192
    15 3.881380 0.214687 0.400251 -0.056575 -0.204695 -1.030413
    16 1.719583 0.000004 0.000000 0.018838 -0.007916 -1.539002
    17 1.209183 -0.000001 0.000008 0.008062 -0.008108 -0.998649
    18 3.871292 0.117424 1.300905 -0.020042 -0.190438 -1.160275
    19 1.719425 -0.000004 0.000002 0.101231 -0.032227 -1.611435
    20 1.099674 0.000004 -0.000004 0.042294 -0.053202 -0.907071
    21 0.838839 -0.300285 1.312777 -0.847487 -0.487805 -0.629244
    22 1.789783 -0.000002 0.000011 -0.000556 -0.003669 0.378873
    23 1.207006 0.000001 0.000004 -0.001696 -0.005420 0.664304
    24 2.059517 0.977922 -1.937661 -1.661569 1.286515 2.950147
    25 17.819576 -60.844448 -13.946320 -0.047985 0.221446 -2.025922
    26 11.692570 -0.000004 0.000000 0.000000 0.000000 -0.735495
    27 11.481654 0.000000 0.000016 -1.610898 0.181262 -0.196406
    28 3.850428 0.126099 1.223438 0.218437 0.059429 -1.236277
    29 1.312562 0.000001 0.000000 0.013556 -0.052694 -0.660926
    30 0.729362 0.000000 0.000000 0.035126 -0.020663 -1.280268
    31 3.926355 0.316488 0.462502 0.078919 0.018325 -1.052031
    32 1.539096 0.000000 -0.000008 0.003022 -0.002131 -1.198664
    33 1.196321 0.000002 0.000011 0.004719 -0.004015 -1.294263
    34 3.881386 0.214694 -0.400257 -0.013550 -0.002191 -0.994617
    35 1.719579 0.000000 0.000000 -0.018227 0.009235 -1.467873
    36 1.209180 -0.000002 -0.000008 -0.009139 0.006871 -1.142228
    37 3.871304 0.117424 -1.300907 -0.078201 -0.025271 -1.087899
    38 1.719431 0.000000 -0.000004 -0.098412 0.040018 -1.533477
    39 1.099665 -0.000001 -0.000004 -0.043317 0.052396 -0.926108
    40 0.838848 -0.300291 -1.312786 1.038393 0.338527 -0.651145
    41 1.789780 -0.000002 0.000000 0.000000 0.003711 0.332742
    42 1.207002 0.000004 0.000000 0.000000 0.005668 0.612525
    43 -0.534583 0.295797 -0.001972 -1.591880 0.022078 -1.868741
    44 0.113788 -0.132996 14.720029 0.000000 0.000000 0.000000
    45 0.113787 -0.132980 9.513787 0.000000 0.000000 0.000000
    46 -0.000001 0.000004 0.000000 0.000000 0.000000 0.000000
    47 -0.000001 0.000000 0.000000 0.000000 0.000000 0.000000
    48 0.113791 -0.132973 16.481380 0.000000 0.000000 0.000000
    49 0.113788 -0.132973 18.076752 0.000000 0.000000 0.000000
    50 0.113789 -0.132969 19.676247 0.000013 0.000000 0.000000
    51 0.113791 -0.132980 21.255905 0.000000 0.000000 0.000000
    52 0.113788 -0.132980 22.869106 -0.000013 0.000000 0.000000
    53 0.113791 -0.132980 24.483315 0.000000 0.000000 0.000000
    54 0.113790 -0.132977 26.066456 0.000000 0.000000 0.000000
    55 0.113790 -0.132980 27.665100 0.000000 0.000000 0.000000
    56 4.717026 4.484177 33.327862 0.292648 0.029553 -0.762254
    57 0.089302 4.272583 4.480568 -0.200320 0.000000 0.000000
    58 4.922175 -5.137234 33.583321 0.261773 0.000000 -2.327265
    59 0.001394 4.167400 4.226917 -0.200287 0.000000 0.000000
    60 -4.578506 -5.283134 33.331905 0.000000 0.000000 2.438902
    61 0.269684 4.148857 4.474522 0.000000 0.000000 0.000000
    62 -4.409222 4.440941 33.338566 0.261761 0.000000 0.763647
    63 -0.045498 4.393921 4.464542 -0.200322 0.000000 0.000000
    64 -4.439061 3.922569 13.956212 0.075659 -0.411864 0.634747
    65 0.113791 -0.132977 29.243565 0.000013 0.000000 0.000000
    66 0.000002 -16.000000 -57.000000 1.570788 0.000007 -0.000007
  time 18
    0 -0.533595 0.000000 38.566879 1.570796 0.000000 -1.570796
    1 0.000000 3.345131 -2.981898 1.570796 0.083193 1.570796
    2 3.995838 0.000000 0.000000 0.000000 0.000000 -0.028816
    3 3.520283 0.000000 0.000000 0.000000 0.000000 0.097307
    4 8.921463 0.000000 0.000000 0.000000 0.000000 0.186413
    5 2.059513 0.977920 1.937661 1.589740 -1.286515 2.950147
    6 39.115148 -77.302717 -6.208982 4.160293 -0.165157 0.456410
    7 11.692564 0.000000 0.000011 0.000000 0.000000 -0.745832
    8 11.481674 0.000001 -0.000034 1.329220 0.087758 0.746815
    9 3.850418 0.126099 -1.223440 -0.317316 -0.182678 -1.175166
    10 1.312561 0.000000 0.000000 -0.035210 0.041488 -1.113081
    11 0.729366 0.000004 0.000000 -0.013075 0.038597 -0.567715
    12 3.926350 0.316490 -0.462519 -0.168907 -0.159042 -1.089467
    13 1.539101 0.000000 -0.000002 -0.003295 0.001738 -1.334676
    14 1.196331 -0.000002 0.000000 -0.004291 0.004431 -1.200192
    15 3.881380 0.214687 0.400251 -0.056575 -0.204695 -1.030413
    16 1.719583 0.000004 0.000000 0.018838 -0.007916 -1.539002
    17 1.209183 -0.000001 0.000008 0.008062 -0.008108 -0.998649
    18 3.871292 0.117424 1.300905 -0.020042 -0.190438 -1.160275
    19 1.719425 -0.000004 0.000002 0.101231 -0.032227 -1.611435
    20 1.099674 0.000004 -0.000004 0.042294 -0.053202 -0.907071
    21 0.838839 -0.300285 1.312777 -0.847487 -0.487805 -0.629244
    22 1.789783 -0.000002 0.000011 -0.000556 -0.003669 0.378873
    23 1.207006 0.000001 0.000004 -0.001696 -0.005420 0.664304
    24 2.059517 0.977922 -1.937661 -1.661569 1.286515 2.950147
    25 17.550036 -61.149145 -13.829129 -0.066064 0.244316 -2.028110
    26 11.692570 -0.000004 0.000000 0.000000 0.000000 -0.735495
    27 11.481654 0.000000 0.000016 -1.610898 0.181262 -0.196406
    28 3.850428 0.126099 1.223438 0.218437 0.059429 -1.236277
    29 1.312562 0.000001 0.000000 0.013556 -0.052694 -0.660926
    30 0.729362 0.000000 0.000000 0.035126 -0.020663 -1.280268
    31 3.926355 0.316488 0.462502 0.078919 0.018325 -1.052031
    32 1.539096 0.000000 -0.000008 0.003022 -0.002131 -1.198664
    33 1.196321 0.000002 0.000011 0.004719 -0.004015 -1.294263
    34 3.881386 0.214694 -0.400257 -0.013550 -0.002191 -0.994617
    35 1.719579 0.000000 0.000000 -0.018227 0.009235 -1.467873
    36 1.209180 -0.000002 -0.000008 -0.009139 0.006871 -1.142228
    37 3.871304 0.117424 -1.300907 -0.078201 -0.025271 -1.087899
    38 1.719431 0.000000 -0.000004 -0.098412 0.040018 -1.533477
    39 1.099665 -0.000001 -0.000004 -0.043317 0.052396 -0.926108
    40 0.838848 -0.300291 -1.312786 1.038393 0.338527 -0.651145
    41 1.789780 -0.000002 0.000000 0.000000 0.003711 0.332742
    42 1.207002 0.000004 0.000000 0.000000 0.005668 0.612525
    43 -0.534583 0.295797 -0.001972 -1.591880 0.022078 -1.868741
    44 0.113788 -0.132996 14.720029 0.000000 0.000000 0.000000
    45 0.113787 -0.132980 9.513787 0.000000 0.000000 0.000000
    46 -0.000001 0.000004 0.000000 0.000000 0.000000 0.000000
    47 -0.000001 0.000000 0.000000 0.000000 0.000000 0.000000
    48 0.113791 -0.132973 16.481380 0.000000 0.000000 0.000000
    49 0.113788 -0.132973 18.076752 0.000000 0.000000 0.000000
    50 0.113789 -0.132969 19.676247 0.000013 0.000000 0.000000
    51 0.113791 -0.132980 21.255905 0.000000 0.000000 0.000000
    52 0.113788 -0.132980 22.869106 -0.000013 0.000000 0.000000
    53 0.113791 -0.132980 24.483315 0.000000 0.000000 0.000000
    54 0.113790 -0.132977 26.066456 0.000000 0.000000 0.000000
    55 0.113790 -0.132980 27.665100 0.000000 0.000000 0.000000
    56 4.717026 4.484177 33.327862 0.292648 0.029553 -0.762254
    57 0.089302 4.272583 4.480568 -0.372164 0.000000 0.000000
    58 4.922175 -5.137234 33.583321 0.261773 0.000000 -2.327265
    59 0.001394 4.167400 4.226917 -0.372162 0.000000 0.000000
    60 -4.578506 -5.283134 33.331905 0.000000 0.000000 2.438902
    61 0.269684 4.148857 4.474522 0.000000 0.000000 0.000000
    62 -4.409222 4.440941 33.338566 0.261761 0.000000 0.763647
    63 -0.045498 4.393921 4.464542 -0.372136 0.000000 0.000000
    64 -4.439061 3.922569 13.956212 0.075659 -0.411864 0.634747
    65 0.113791 -0.132977 29.243565 0.000013 0.000000 0.000000
    66 0.000002 -16.000000 -57.000000 1.570788 0.000007 -0.000007
  time 19
    0 -0.533595 0.000000 38.566879 1.570796 0.000000 -1.570796
    1 0.000000 3.345131 -2.981898 1.570796 0.083193 1.570796
    2 3.995838 0.000000 0.000000 0.000000 0.000000 -0.028816
    3 3.520283 0.000000 0.000000 0.000000 0.000000 0.097307
    4 8.921463 0.000000 0.000000 0.000000 0.000000 0.186413
    5 2.059513 0.977920 1.937661 1.589740 -1.286515 2.950147
    6 39.455003 -77.650384 -5.896473 4.142104 -0.163178 0.458702
    7 11.692564 0.000000 0.000011 0.000000 0.000000 -0.745832
    8 11.481674 0.000001 -0.000034 1.329220 0.087758 0.746815
    9 3.850418 0.126099 -1.223440 -0.317316 -0.182678 -1.175166
    10 1.312561 0.000000 0.000000 -0.035210 0.041488 -1.113081
    11 0.729366 0.000004 0.000000 -0.013075 0.038597 -0.567715
    12 3.926350 0.316490 -0.462519 -0.168907 -0.159042 -1.089467
    13 1.539101 0.000000 -0.000002 -0.003295 0.001738 -1.334676
    14 1.196331 -0.000002 0.000000 -0.004291 0.004431 -1.200192
    15 3.881380 0.214687 0.400251 -0.056575 -0.204695 -1.030413
    16 1.719583 0.000004 0.000000 0.018838 -0.007916 -1.539002
    17 1.209183 -0.000001 0.000008 0.008062 -0.008108 -0.998649
    18 3.871292 0.117424 1.300905 -0.020042 -0.190438 -1.160275
    19 1.719425 -0.000004 0.000002 0.101231 -0.032227 -1.611435
    20 1.099674 0.000004 -0.000004 0.042294 -0.053202 -0.907071
    21 0.838839 -0.300285 1.312777 -0.847487 -0.487805 -0.629244
    22 1.789783 -0.000002 0.000011 -0.000556 -0.003669 0.378873
    23 1.207006 0.000001 0.000004 -0.001696 -0.005420 0.664304
    24 2.059517 0.977922 -1.937661 -1.661569 1.286515 2.950147
    25 17.366437 -61.348369 -13.758814 -0.077673 0.258432 -2.029711
    26 11.692570 -0.000004 0.000000 0.000000 0.000000 -0.735495
    27 11.481654 0.000000 0.000016 -1.610898 0.181262 -0.196406
    28 3.850428 0.126099 1.223438 0.218437 0.059429 -1.236277
    29 1.312562 0.000001 0.000000 0.013556 -0.052694 -0.660926
    30 0.729362 0.000000 0.000000 0.035126 -0.020663 -1.280268
    31 3.926355 0.316488 0.462502 0.078919 0.018325 -1.052031
    32 1.539096 0.000000 -0.000008 0.003022 -0.002131 -1.198664
    33 1.196321 0.000002 0.000011 0.004719 -0.004015 -1.294263
    34 3.881386 0.214694 -0.400257 -0.013550 -0.002191 -0.994617
    35 1.719579 0.000000 0.000000 -0.018227 0.009235 -1.467873
    36 1.209180 -0.000002 -0.000008 -0.009139 0.006871 -1.142228
    37 3.871304 0.117424 -1.300907 -0.078201 -0.025271 -1.087899
    38 1.719431 0.000000 -0.000004 -0.098412 0.040018 -1.533477
    39 1.099665 -0.000001 -0.000004 -0.043317 0.052396 -0.926108
    40 0.838848 -0.300291 -1.312786 1.038393 0.338527 -0.651145
    41 1.789780 -0.000002 0.000000 0.000000 0.003711 0.332742
    42 1.207002 0.000004 0.000000 0.000000 0.005668 0.612525
    43 -0.534583 0.295797 -0.001972 -1.591880 0.022078 -1.868741
    44 0.113788 -0.132996 14.720029 0.000000 0.000000 0.000000
    45 0.113787 -0.132980 9.513787 0.000000 0.000000 0.000000
    46 -0.000001 0.000004 0.000000 0.000000 0.000000 0.000000
    47 -0.000001 0.000000 0.000000 0.000000 0.000000 0.000000
    48 0.113791 -0.132973 16.481380 0.000000 0.000000 0.000000
    49 0.113788 -0.132973 18.076752 0.000000 0.000000 0.000000
    50 0.113789 -0.132969 19.676247 0.000013 0.000000 0.000000
    51 0.113791 -0.132980 21.255905 0.000000 0.000000 0.000000
    52 0.113788 -0.132980 22.869106 -0.000013 0.000000 0.000000
    53 0.113791 -0.132980 24.483315 0.000000 0.000000 0.000000
    54 0.113790 -0.132977 26.066456 0.000000 0.000000 0.000000
    55 0.113790 -0.132980 27.665100 0.000000 0.000000 0.000000
    56 4.717026 4.484177 33.327862 0.292648 0.029553 -0.762254
    57 0.089302 4.272583 4.480568 -0.483669 0.000000 0.000000
    58 4.922175 -5.137234 33.583321 0.261773 0.000000 -2.327265
    59 0.001394 4.167400 4.226917 -0.483634 0.000000 0.000000
    60 -4.578506 -5.283134 33.331905 0.000000 0.000000 2.438902
    61 0.269684 4.148857 4.474522 0.000000 0.000000 0.000000
    62 -4.409222 4.440941 33.338566 0.261761 0.000000 0.763647
    63 -0.045498 4.393921 4.464542 -0.483643 0.000000 0.000000
    64 -4.439061 3.922569 13.956212 0.075659 -0.411864 0.634747
    65 0.113791 -0.132977 29.243565 0.000013 0.000000 0.000000
    66 0.000002 -16.000000 -57.000000 1.570788 0.000007 -0.000007
  time 20
    0 -0.533595 0.000000 38.566879 1.570796 0.000000 -1.570796
    1 0.000000 3.345131 -2.981898 1.570796 0.083193 1.570796
    2 3.995838 0.000000 0.000000 0.000000 0.000000 -0.028816
    3 3.520283 0.000000 0.000000 0.000000 0.000000 0.097307
    4 8.921463 0.000000 0.000000 0.000000 0.000000 0.186413
    5 2.059513 0.977920 1.937661 1.589740 -1.286515 2.950147
    6 39.576100 -77.763668 -5.791001 4.135882 -0.162442 0.459275
    7 11.692564 0.000000 0.000011 0.000000 0.000000 -0.745832
    8 11.481674 0.000001 -0.000034 1.329220 0.087758 0.746815
    9 3.850418 0.126099 -1.223440 -0.317316 -0.182678 -1.175166
    10 1.312561 0.000000 0.000000 -0.035210 0.041488 -1.113081
    11 0.729366 0.000004 0.000000 -0.013075 0.038597 -0.567715
    12 3.926350 0.316490 -0.462519 -0.168907 -0.159042 -1.089467
    13 1.539101 0.000000 -0.000002 -0.003295 0.001738 -1.334676
    14 1.196331 -0.000002 0.000000 -0.004291 0.004431 -1.200192
    15 3.881380 0.214687 0.400251 -0.056575 -0.204695 -1.030413
    16 1.719583 0.000004 0.000000 0.018838 -0.007916 -1.539002
    17 1.209183 -0.000001 0.000008 0.008062 -0.008108 -0.998649
    18 3.871292 0.117424 1.300905 -0.020042 -0.190438 -1.160275
    19 1.719425 -0.000004 0.000002 0.101231 -0.032227 -1.611435
    20 1.099674 0.000004 -0.000004 0.042294 -0.053202 -0.907071
    21 0.838839 -0.300285 1.312777 -0.847487 -0.487805 -0.629244
    22 1.789783 -0.000002 0.000011 -0.000556 -0.003669 0.378873
    23 1.207006 0.000001 0.000004 -0.001696 -0.005420 0.664304
    24 2.059517 0.977922 -1.937661 -1.661569 1.286515 2.950147
    25 17.300028 -61.414778 -13.731469 -0.081774 0.263213 -2.030297
    26 11.692570 -0.000004 0.000000 0.000000 0.000000 -0.735495
    27 11.481654 0.000000 0.000016 -1.610898 0.181262 -0.196406
    28 3.850428 0.126099 1.223438 0.218437 0.059429 -1.236277
    29 1.312562 0.000001 0.000000 0.013556 -0.052694 -0.660926
    30 0.729362 0.000000 0.000000 0.035126 -0.020663 -1.280268
    31 3.926355 0.316488 0.462502 0.078919 0.018325 -1.052031
    32 1.539096 0.000000 -0.000008 0.003022 -0.002131 -1.198664
    33 1.196321 0.000002 0.000011 0.004719 -0.004015 -1.294263
    34 3.881386 0.214694 -0.400257 -0.013550 -0.002191 -0.994617
    35 1.719579 0.000000 0.000000 -0.018227 0.009235 -1.467873
    36 1.209180 -0.000002 -0.000008 -0.009139 0.006871 -1.142228
    37 3.871304 0.117424 -1.300907 -0.078201 -0.025271 -1.087899
    38 1.719431 0.000000 -0.000004 -0.098412 0.040018 -1.533477
    39 1.099665 -0.000001 -0.000004 -0.043317 0.052396 -0.926108
    40 0.838848 -0.300291 -1.312786 1.038393 0.338527 -0.651145
    41 1.789780 -0.000002 0.000000 0.000000 0.003711 0.332742
    42 1.207002 0.000004 0.000000 0.000000 0.005668 0.612525
    43 -0.534583 0.295797 -0.001972 -1.591880 0.022078 -1.868741
    44 0.113788 -0.132996 14.720029 0.000000 0.000000 0.000000
    45 0.113787 -0.132980 9.513787 0.000000 0.000000 0.000000
    46 -0.000001 0.000004 0.000000 0.000000 0.000000 0.000000
    47 -0.000001 0.000000 0.000000 0.000000 0.000000 0.000000
    48 0.113791 -0.132973 16.481380 0.000000 0.000000 0.000000
    49 0.113788 -0.132973 18.076752 0.000000 0.000000 0.000000
    50 0.113789 -0.132969 19.676247 0.000013 0.000000 0.000000
    51 0.113791 -0.132980 21.255905 0.000000 0.000000 0.000000
    52 0.113788 -0.132980 22.869106 -0.000013 0.000000 0.000000
    53 0.113791 -0.132980 24.483315 0.000000 0.000000 0.000000
    54 0.113790 -0.132977 26.066456 0.000000 0.000000 0.000000
    55 0.113790 -0.132980 27.665100 0.000000 0.000000 0.000000
    56 4.717026 4.484177 33.327862 0.292648 0.029553 -0.762254
    57 0.089302 4.272583 4.480568 -0.523586 0.000000 0.000000
    58 4.922175 -5.137234 33.583321 0.261773 0.000000 -2.327265
    59 0.001394 4.167400 4.226917 -0.523551 0.000000 0.000000
    60 -4.578506 -5.283134 33.331905 0.000000 0.000000 2.438902
    61 0.269684 4.148857 4.474522 0.000000 0.000000 0.000000
    62 -4.409222 4.440941 33.338566 0.261761 0.000000 0.763647
    63 -0.045498 4.393921 4.464542 -0.523528 0.000000 0.000000
    64 -4.439061 3.922569 13.956212 0.075659 -0.411864 0.634747
    65 0.113791 -0.132977 29.243565 0.000013 0.000000 0.000000
    66 0.000002 -16.000000 -57.000000 1.570788 0.000007 -0.000007
end
