// Created by Crowbar 0.74
version 1
nodes
  0 "ValveBiped.Bip01" -1
  1 "ValveBiped.Bip01_Spine" 0
  2 "ValveBiped.Bip01_Spine1" 1
  3 "ValveBiped.Bip01_Spine2" 2
  4 "ValveBiped.Bip01_Spine4" 3
  5 "ValveBiped.Bip01_L_Clavicle" 4
  6 "ValveBiped.Bip01_L_UpperArm" 5
  7 "ValveBiped.Bip01_L_Forearm" 6
  8 "ValveBiped.Bip01_L_Hand" 7
  9 "ValveBiped.Bip01_L_Finger4" 8
  10 "ValveBiped.Bip01_L_Finger41" 9
  11 "ValveBiped.Bip01_L_Finger42" 10
  12 "ValveBiped.Bip01_L_Finger3" 8
  13 "ValveBiped.Bip01_L_Finger31" 12
  14 "ValveBiped.Bip01_L_Finger32" 13
  15 "ValveBiped.Bip01_L_Finger2" 8
  16 "ValveBiped.Bip01_L_Finger21" 15
  17 "ValveBiped.Bip01_L_Finger22" 16
  18 "ValveBiped.Bip01_L_Finger1" 8
  19 "ValveBiped.Bip01_L_Finger11" 18
  20 "ValveBiped.Bip01_L_Finger12" 19
  21 "ValveBiped.Bip01_L_Finger0" 8
  22 "ValveBiped.Bip01_L_Finger01" 21
  23 "ValveBiped.Bip01_L_Finger02" 22
  24 "ValveBiped.Bip01_R_Clavicle" 4
  25 "ValveBiped.Bip01_R_UpperArm" 24
  26 "ValveBiped.Bip01_R_Forearm" 25
  27 "ValveBiped.Bip01_R_Hand" 26
  28 "ValveBiped.Bip01_R_Finger4" 27
  29 "ValveBiped.Bip01_R_Finger41" 28
  30 "ValveBiped.Bip01_R_Finger42" 29
  31 "ValveBiped.Bip01_R_Finger3" 27
  32 "ValveBiped.Bip01_R_Finger31" 31
  33 "ValveBiped.Bip01_R_Finger32" 32
  34 "ValveBiped.Bip01_R_Finger2" 27
  35 "ValveBiped.Bip01_R_Finger21" 34
  36 "ValveBiped.Bip01_R_Finger22" 35
  37 "ValveBiped.Bip01_R_Finger1" 27
  38 "ValveBiped.Bip01_R_Finger11" 37
  39 "ValveBiped.Bip01_R_Finger12" 38
  40 "ValveBiped.Bip01_R_Finger0" 27
  41 "ValveBiped.Bip01_R_Finger01" 40
  42 "ValveBiped.Bip01_R_Finger02" 41
  43 "ValveBiped.Base" 27
  44 "ValveBiped.Casing_RotZ" 43
  45 "ValveBiped.Gyro1_RotX" 43
  46 "ValveBiped.Gyro2_RotY" 45
  47 "ValveBiped.Gyro3_RotX" 46
  48 "ValveBiped.Mag1_RotZ" 43
  49 "ValveBiped.Mag2_RotZ" 43
  50 "ValveBiped.Mag3_RotZ" 43
  51 "ValveBiped.Mag4_RotZ" 43
  52 "ValveBiped.Mag5_RotZ" 43
  53 "ValveBiped.Mag6_RotZ" 43
  54 "ValveBiped.Mag7_RotZ" 43
  55 "ValveBiped.Mag8_RotZ" 43
  56 "ValveBiped.Arm1_A" 43
  57 "ValveBiped.Arm1_B" 56
  58 "ValveBiped.Arm2_A" 43
  59 "ValveBiped.Arm2_B" 58
  60 "ValveBiped.Arm3_A" 43
  61 "ValveBiped.Arm3_B" 60
  62 "ValveBiped.Arm4_A" 43
  63 "ValveBiped.Arm4_B" 62
  64 "ValveBiped.Dial" 43
  65 "ValveBiped.Mag9_RotZ" 43
  66 "Root" -1
end
skeleton
  time 0
    0 -0.533595 0.000000 38.566879 1.570796 0.000000 -1.570796
    1 0.000000 3.345131 -2.981898 1.570796 0.083193 1.570796
    2 3.995838 0.000000 0.000000 0.000000 0.000000 -0.028816
    3 3.520283 0.000000 0.000000 0.000000 0.000000 0.097307
    4 8.921463 0.000000 0.000000 0.000000 0.000000 0.186413
    5 2.059513 0.977920 1.937661 1.589740 -1.286515 2.950147
    6 39.576100 -77.763668 -5.791001 4.135882 -0.162442 0.459275
    7 11.692564 0.000000 0.000011 0.000000 0.000000 -0.745832
    8 11.481674 0.000001 -0.000034 1.329220 0.087758 0.746815
    9 3.850418 0.126099 -1.223440 -0.317316 -0.182678 -1.175166
    10 1.312561 0.000000 0.000000 -0.035210 0.041488 -1.113081
    11 0.729366 0.000004 0.000000 -0.013075 0.038597 -0.567715
    12 3.926350 0.316490 -0.462519 -0.168907 -0.159042 -1.089467
    13 1.539101 0.000000 -0.000002 -0.003295 0.001738 -1.334676
    14 1.196331 -0.000002 0.000000 -0.004291 0.004431 -1.200192
    15 3.881380 0.214687 0.400251 -0.056575 -0.204695 -1.030413
    16 1.719583 0.000004 0.000000 0.018838 -0.007916 -1.539002
    17 1.209183 -0.000001 0.000008 0.008062 -0.008108 -0.998649
    18 3.871292 0.117424 1.300905 -0.020042 -0.190438 -1.160275
    19 1.719425 -0.000004 0.000002 0.101231 -0.032227 -1.611435
    20 1.099674 0.000004 -0.000004 0.042294 -0.053202 -0.907071
    21 0.838839 -0.300285 1.312777 -0.847487 -0.487805 -0.629244
    22 1.789783 -0.000002 0.000011 -0.000556 -0.003669 0.378873
    23 1.207006 0.000001 0.000004 -0.001696 -0.005420 0.664304
    24 2.059517 0.977922 -1.937661 -1.661569 1.286515 2.950147
    25 17.300028 -61.414778 -13.731469 -0.081774 0.263213 -2.030297
    26 11.692570 -0.000004 0.000000 0.000000 0.000000 -0.735495
    27 11.481654 0.000000 0.000016 -1.610898 0.181262 -0.196406
    28 3.850428 0.126099 1.223438 0.218437 0.059429 -1.236277
    29 1.312562 0.000001 0.000000 0.013556 -0.052694 -0.660926
    30 0.729362 0.000000 0.000000 0.035126 -0.020663 -1.280268
    31 3.926355 0.316488 0.462502 0.078919 0.018325 -1.052031
    32 1.539096 0.000000 -0.000008 0.003022 -0.002131 -1.198664
    33 1.196321 0.000002 0.000011 0.004719 -0.004015 -1.294263
    34 3.881386 0.214694 -0.400257 -0.013550 -0.002191 -0.994617
    35 1.719579 0.000000 0.000000 -0.018227 0.009235 -1.467873
    36 1.209180 -0.000002 -0.000008 -0.009139 0.006871 -1.142228
    37 3.871304 0.117424 -1.300907 -0.078201 -0.025271 -1.087899
    38 1.719431 0.000000 -0.000004 -0.098412 0.040018 -1.533477
    39 1.099665 -0.000001 -0.000004 -0.043317 0.052396 -0.926108
    40 0.838848 -0.300291 -1.312786 1.038393 0.338527 -0.651145
    41 1.789780 -0.000002 0.000000 0.000000 0.003711 0.332742
    42 1.207002 0.000004 0.000000 0.000000 0.005668 0.612525
    43 -0.534583 0.295797 -0.001972 -1.591880 0.022078 -1.868741
    44 0.113788 -0.132996 14.720029 0.000000 0.000000 0.000000
    45 0.113787 -0.132980 9.513787 0.000000 0.000000 0.000000
    46 -0.000001 0.000004 0.000000 0.000000 0.000000 0.000000
    47 -0.000001 0.000000 0.000000 0.000000 0.000000 0.000000
    48 0.113791 -0.132973 16.481380 0.000000 0.000000 0.000000
    49 0.113788 -0.132973 18.076752 0.000000 0.000000 0.000000
    50 0.113789 -0.132969 19.676247 0.000013 0.000000 0.000000
    51 0.113791 -0.132980 21.255905 0.000000 0.000000 0.000000
    52 0.113788 -0.132980 22.869106 -0.000013 0.000000 0.000000
    53 0.113791 -0.132980 24.483315 0.000000 0.000000 0.000000
    54 0.113790 -0.132977 26.066456 0.000000 0.000000 0.000000
    55 0.113790 -0.132980 27.665100 0.000000 0.000000 0.000000
    56 4.717026 4.484177 33.327862 0.292648 0.029553 -0.762254
    57 0.089302 4.272583 4.480568 -0.523586 0.000000 0.000000
    58 4.922175 -5.137234 33.583321 0.261773 0.000000 -2.327265
    59 0.001394 4.167400 4.226917 -0.523551 0.000000 0.000000
    60 -4.578506 -5.283134 33.331905 0.000000 0.000000 2.438902
    61 0.269684 4.148857 4.474522 0.000000 0.000000 0.000000
    62 -4.409222 4.440941 33.338566 0.261761 0.000000 0.763647
    63 -0.045498 4.393921 4.464542 -0.523528 0.000000 0.000000
    64 -4.439061 3.922569 13.956212 0.075659 -0.411864 0.634747
    65 0.113791 -0.132977 29.243565 0.000013 0.000000 0.000000
    66 0.000002 -16.000000 -57.000000 1.570788 0.000007 -0.000007
  time 1
    0 -0.533595 0.000000 38.566879 1.570796 0.000000 -1.570796
    1 0.000000 3.345131 -2.981898 1.570796 0.083193 1.570796
    2 3.995838 0.000000 0.000000 0.000000 0.000000 -0.028816
    3 3.520283 0.000000 0.000000 0.000000 0.000000 0.097307
    4 8.921463 0.000000 0.000000 0.000000 0.000000 0.186413
    5 2.059513 0.977920 1.937661 1.589740 -1.286515 2.950147
    6 39.287029 -77.603507 -5.935536 4.144593 -0.163592 0.455646
    7 11.692564 0.000000 0.000011 0.000000 0.000000 -0.745832
    8 11.481674 0.000001 -0.000034 1.329220 0.087758 0.746815
    9 3.850418 0.126099 -1.223440 -0.317316 -0.182678 -1.175166
    10 1.312561 0.000000 0.000000 -0.035210 0.041488 -1.113081
    11 0.729366 0.000004 0.000000 -0.013075 0.038597 -0.567715
    12 3.926350 0.316490 -0.462519 -0.168907 -0.159042 -1.089467
    13 1.539101 0.000000 -0.000002 -0.003295 0.001738 -1.334676
    14 1.196331 -0.000002 0.000000 -0.004291 0.004431 -1.200192
    15 3.881380 0.214687 0.400251 -0.056575 -0.204695 -1.030413
    16 1.719583 0.000004 0.000000 0.018838 -0.007916 -1.539002
    17 1.209183 -0.000001 0.000008 0.008062 -0.008108 -0.998649
    18 3.871292 0.117424 1.300905 -0.020042 -0.190438 -1.160275
    19 1.719425 -0.000004 0.000002 0.101231 -0.032227 -1.611435
    20 1.099674 0.000004 -0.000004 0.042294 -0.053202 -0.907071
    21 0.838839 -0.300285 1.312777 -0.847487 -0.487805 -0.629244
    22 1.789783 -0.000002 0.000011 -0.000556 -0.003669 0.378873
    23 1.207006 0.000001 0.000004 -0.001696 -0.005420 0.664304
    24 2.059517 0.977922 -1.937661 -1.661569 1.286515 2.950147
    25 17.428939 -61.219459 -13.762720 -0.075825 0.256688 -2.026664
    26 11.692570 -0.000004 0.000000 0.000000 0.000000 -0.735495
    27 11.481654 0.000000 0.000016 -1.610898 0.181262 -0.196406
    28 3.850428 0.126099 1.223438 0.218437 0.059429 -1.236277
    29 1.312562 0.000001 0.000000 0.013556 -0.052694 -0.660926
    30 0.729362 0.000000 0.000000 0.035126 -0.020663 -1.280268
    31 3.926355 0.316488 0.462502 0.078919 0.018325 -1.052031
    32 1.539096 0.000000 -0.000008 0.003022 -0.002131 -1.198664
    33 1.196321 0.000002 0.000011 0.004719 -0.004015 -1.294263
    34 3.881386 0.214694 -0.400257 -0.013550 -0.002191 -0.994617
    35 1.719579 0.000000 0.000000 -0.018227 0.009235 -1.467873
    36 1.209180 -0.000002 -0.000008 -0.009139 0.006871 -1.142228
    37 3.871304 0.117424 -1.300907 -0.078201 -0.025271 -1.087899
    38 1.719431 0.000000 -0.000004 -0.098412 0.040018 -1.533477
    39 1.099665 -0.000001 -0.000004 -0.043317 0.052396 -0.926108
    40 0.838848 -0.300291 -1.312786 1.038393 0.338527 -0.651145
    41 1.789780 -0.000002 0.000000 0.000000 0.003711 0.332742
    42 1.207002 0.000004 0.000000 0.000000 0.005668 0.612525
    43 -0.534583 0.295797 -0.001972 -1.591880 0.022078 -1.868741
    44 0.113788 -0.132996 14.720029 0.000000 0.000000 0.000000
    45 0.113787 -0.132980 9.513787 0.000000 0.000000 0.000000
    46 -0.000001 0.000004 0.000000 0.000000 0.000000 0.000000
    47 -0.000001 0.000000 0.000000 0.000000 0.000000 0.000000
    48 0.113791 -0.132973 16.481380 0.000000 0.000000 0.000000
    49 0.113788 -0.132973 18.076752 0.000000 0.000000 0.000000
    50 0.113789 -0.132969 19.676247 0.000013 0.000000 0.000000
    51 0.113791 -0.132980 21.255905 0.000000 0.000000 0.000000
    52 0.113788 -0.132980 22.869106 -0.000013 0.000000 0.000000
    53 0.113791 -0.132980 24.483315 0.000000 0.000000 0.000000
    54 0.113790 -0.132977 26.066456 0.000000 0.000000 0.000000
    55 0.113790 -0.132980 27.665100 0.000000 0.000000 0.000000
    56 4.717026 4.484177 33.327862 0.223150 0.029553 -0.762254
    57 0.089302 4.272583 4.480568 -0.516938 0.000000 0.000000
    58 4.922175 -5.137234 33.583321 0.192275 0.000000 -2.327265
    59 0.001394 4.167400 4.226917 -0.516968 0.000000 0.000000
    60 -4.578506 -5.283134 33.331905 0.000000 0.000000 2.438902
    61 0.269684 4.148857 4.474522 0.000000 0.000000 0.000000
    62 -4.409222 4.440941 33.338566 0.179771 0.000000 0.763647
    63 -0.045498 4.393921 4.464542 -0.516944 0.000000 0.000000
    64 -4.439061 3.922569 13.956212 0.075659 -0.411864 0.634747
    65 0.113791 -0.132977 29.243565 0.000013 0.000000 0.000000
    66 0.000002 -16.000000 -57.000000 1.570788 0.000007 -0.000007
  time 2
    0 -0.533595 0.000000 38.566879 1.570796 0.000000 -1.570796
    1 0.000000 3.345131 -2.981898 1.570796 0.083193 1.570796
    2 3.995838 0.000000 0.000000 0.000000 0.000000 -0.028816
    3 3.520283 0.000000 0.000000 0.000000 0.000000 0.097307
    4 8.921463 0.000000 0.000000 0.000000 0.000000 0.186413
    5 2.059513 0.977920 1.937661 1.589740 -1.286515 2.950147
    6 38.497942 -77.103492 -6.314454 4.167760 -0.166584 0.445523
    7 11.692564 0.000000 0.000011 0.000000 0.000000 -0.745832
    8 11.481674 0.000001 -0.000034 1.329220 0.087758 0.746815
    9 3.850418 0.126099 -1.223440 -0.317316 -0.182678 -1.175166
    10 1.312561 0.000000 0.000000 -0.035210 0.041488 -1.113081
    11 0.729366 0.000004 0.000000 -0.013075 0.038597 -0.567715
    12 3.926350 0.316490 -0.462519 -0.168907 -0.159042 -1.089467
    13 1.539101 0.000000 -0.000002 -0.003295 0.001738 -1.334676
    14 1.196331 -0.000002 0.000000 -0.004291 0.004431 -1.200192
    15 3.881380 0.214687 0.400251 -0.056575 -0.204695 -1.030413
    16 1.719583 0.000004 0.000000 0.018838 -0.007916 -1.539002
    17 1.209183 -0.000001 0.000008 0.008062 -0.008108 -0.998649
    18 3.871292 0.117424 1.300905 -0.020042 -0.190438 -1.160275
    19 1.719425 -0.000004 0.000002 0.101231 -0.032227 -1.611435
    20 1.099674 0.000004 -0.000004 0.042294 -0.053202 -0.907071
    21 0.838839 -0.300285 1.312777 -0.847487 -0.487805 -0.629244
    22 1.789783 -0.000002 0.000011 -0.000556 -0.003669 0.378873
    23 1.207006 0.000001 0.000004 -0.001696 -0.005420 0.664304
    24 2.059517 0.977922 -1.937661 -1.661569 1.286515 2.950147
    25 17.757074 -60.637410 -13.836941 -0.060057 0.239180 -2.017250
    26 11.692570 -0.000004 0.000000 0.000000 0.000000 -0.735495
    27 11.481654 0.000000 0.000016 -1.610898 0.181262 -0.196406
    28 3.850428 0.126099 1.223438 0.218437 0.059429 -1.236277
    29 1.312562 0.000001 0.000000 0.013556 -0.052694 -0.660926
    30 0.729362 0.000000 0.000000 0.035126 -0.020663 -1.280268
    31 3.926355 0.316488 0.462502 0.078919 0.018325 -1.052031
    32 1.539096 0.000000 -0.000008 0.003022 -0.002131 -1.198664
    33 1.196321 0.000002 0.000011 0.004719 -0.004015 -1.294263
    34 3.881386 0.214694 -0.400257 -0.013550 -0.002191 -0.994617
    35 1.719579 0.000000 0.000000 -0.018227 0.009235 -1.467873
    36 1.209180 -0.000002 -0.000008 -0.009139 0.006871 -1.142228
    37 3.871304 0.117424 -1.300907 -0.078201 -0.025271 -1.087899
    38 1.719431 0.000000 -0.000004 -0.098412 0.040018 -1.533477
    39 1.099665 -0.000001 -0.000004 -0.043317 0.052396 -0.926108
    40 0.838848 -0.300291 -1.312786 1.038393 0.338527 -0.651145
    41 1.789780 -0.000002 0.000000 0.000000 0.003711 0.332742
    42 1.207002 0.000004 0.000000 0.000000 0.005668 0.612525
    43 -0.534583 0.295797 -0.001972 -1.591880 0.022078 -1.868741
    44 0.113788 -0.132996 14.720029 0.000000 0.000000 0.000000
    45 0.113787 -0.132980 9.513787 0.000000 0.000000 0.000000
    46 -0.000001 0.000004 0.000000 0.000000 0.000000 0.000000
    47 -0.000001 0.000000 0.000000 0.000000 0.000000 0.000000
    48 0.113791 -0.132973 16.481380 0.000000 0.000000 0.000000
    49 0.113788 -0.132973 18.076752 0.000000 0.000000 0.000000
    50 0.113789 -0.132969 19.676247 0.000013 0.000000 0.000000
    51 0.113791 -0.132980 21.255905 0.000000 0.000000 0.000000
    52 0.113788 -0.132980 22.869106 -0.000013 0.000000 0.000000
    53 0.113791 -0.132980 24.483315 0.000000 0.000000 0.000000
    54 0.113790 -0.132977 26.066456 0.000000 0.000000 0.000000
    55 0.113790 -0.132980 27.665100 0.000000 0.000000 0.000000
    56 4.717026 4.484177 33.327862 0.054904 0.029553 -0.762254
    57 0.089302 4.272583 4.480568 -0.498338 0.000000 0.000000
    58 4.922175 -5.137234 33.583321 0.024030 0.000000 -2.327265
    59 0.001394 4.167400 4.226917 -0.498367 0.000000 0.000000
    60 -4.578506 -5.283134 33.331905 0.000000 0.000000 2.438902
    61 0.269684 4.148857 4.474522 0.000000 0.000000 0.000000
    62 -4.409222 4.440941 33.338566 -0.019724 0.000000 0.763647
    63 -0.045498 4.393921 4.464542 -0.498376 0.000000 0.000000
    64 -4.439061 3.922569 13.956212 0.075659 -0.411864 0.634747
    65 0.113791 -0.132977 29.243565 0.000013 0.000000 0.000000
    66 0.000002 -16.000000 -57.000000 1.570788 0.000007 -0.000007
  time 3
    0 -0.533595 0.000000 38.566879 1.570796 0.000000 -1.570796
    1 0.000000 3.345131 -2.981898 1.570796 0.083193 1.570796
    2 3.995838 0.000000 0.000000 0.000000 0.000000 -0.028816
    3 3.520283 0.000000 0.000000 0.000000 0.000000 0.097307
    4 8.921463 0.000000 0.000000 0.000000 0.000000 0.186413
    5 2.059513 0.977920 1.937661 1.589740 -1.286515 2.950147
    6 37.599477 -76.455035 -6.876971 4.201074 -0.170496 0.430912
    7 11.692564 0.000000 0.000011 0.000000 0.000000 -0.745832
    8 11.481674 0.000001 -0.000034 1.329220 0.087758 0.746815
    9 3.850418 0.126099 -1.223440 -0.317316 -0.182678 -1.175166
    10 1.312561 0.000000 0.000000 -0.035210 0.041488 -1.113081
    11 0.729366 0.000004 0.000000 -0.013075 0.038597 -0.567715
    12 3.926350 0.316490 -0.462519 -0.168907 -0.159042 -1.089467
    13 1.539101 0.000000 -0.000002 -0.003295 0.001738 -1.334676
    14 1.196331 -0.000002 0.000000 -0.004291 0.004431 -1.200192
    15 3.881380 0.214687 0.400251 -0.056575 -0.204695 -1.030413
    16 1.719583 0.000004 0.000000 0.018838 -0.007916 -1.539002
    17 1.209183 -0.000001 0.000008 0.008062 -0.008108 -0.998649
    18 3.871292 0.117424 1.300905 -0.020042 -0.190438 -1.160275
    19 1.719425 -0.000004 0.000002 0.101231 -0.032227 -1.611435
    20 1.099674 0.000004 -0.000004 0.042294 -0.053202 -0.907071
    21 0.838839 -0.300285 1.312777 -0.847487 -0.487805 -0.629244
    22 1.789783 -0.000002 0.000011 -0.000556 -0.003669 0.378873
    23 1.207006 0.000001 0.000004 -0.001696 -0.005420 0.664304
    24 2.059517 0.977922 -1.937661 -1.661569 1.286515 2.950147
    25 18.069583 -60.004578 -13.930694 -0.037820 0.213791 -2.004242
    26 11.692570 -0.000004 0.000000 0.000000 0.000000 -0.735495
    27 11.481654 0.000000 0.000016 -1.610898 0.181262 -0.196406
    28 3.850428 0.126099 1.223438 0.218437 0.059429 -1.236277
    29 1.312562 0.000001 0.000000 0.013556 -0.052694 -0.660926
    30 0.729362 0.000000 0.000000 0.035126 -0.020663 -1.280268
    31 3.926355 0.316488 0.462502 0.078919 0.018325 -1.052031
    32 1.539096 0.000000 -0.000008 0.003022 -0.002131 -1.198664
    33 1.196321 0.000002 0.000011 0.004719 -0.004015 -1.294263
    34 3.881386 0.214694 -0.400257 -0.013550 -0.002191 -0.994617
    35 1.719579 0.000000 0.000000 -0.018227 0.009235 -1.467873
    36 1.209180 -0.000002 -0.000008 -0.009139 0.006871 -1.142228
    37 3.871304 0.117424 -1.300907 -0.078201 -0.025271 -1.087899
    38 1.719431 0.000000 -0.000004 -0.098412 0.040018 -1.533477
    39 1.099665 -0.000001 -0.000004 -0.043317 0.052396 -0.926108
    40 0.838848 -0.300291 -1.312786 1.038393 0.338527 -0.651145
    41 1.789780 -0.000002 0.000000 0.000000 0.003711 0.332742
    42 1.207002 0.000004 0.000000 0.000000 0.005668 0.612525
    43 -0.534583 0.295797 -0.001972 -1.591880 0.022078 -1.868741
    44 0.113788 -0.132996 14.720029 0.000000 0.000000 0.000000
    45 0.113787 -0.132980 9.513787 0.000000 0.000000 0.000000
    46 -0.000001 0.000004 0.000000 0.000000 0.000000 0.000000
    47 -0.000001 0.000000 0.000000 0.000000 0.000000 0.000000
    48 0.113791 -0.132973 16.481380 0.000000 0.000000 0.000000
    49 0.113788 -0.132973 18.076752 0.000000 0.000000 0.000000
    50 0.113789 -0.132969 19.676247 0.000013 0.000000 0.000000
    51 0.113791 -0.132980 21.255905 0.000000 0.000000 0.000000
    52 0.113788 -0.132980 22.869106 -0.000013 0.000000 0.000000
    53 0.113791 -0.132980 24.483315 0.000000 0.000000 0.000000
    54 0.113790 -0.132977 26.066456 0.000000 0.000000 0.000000
    55 0.113790 -0.132980 27.665100 0.000000 0.000000 0.000000
    56 4.717026 4.484177 33.327862 -0.147737 0.029553 -0.762254
    57 0.089302 4.272583 4.480568 -0.469575 0.000000 0.000000
    58 4.922175 -5.137234 33.583321 -0.178592 0.000000 -2.327265
    59 0.001394 4.167400 4.226917 -0.469540 0.000000 0.000000
    60 -4.578506 -5.283134 33.331905 0.000000 0.000000 2.438902
    61 0.269684 4.148857 4.474522 0.000000 0.000000 0.000000
    62 -4.409222 4.440941 33.338566 -0.260941 0.000000 0.763647
    63 -0.045498 4.393921 4.464542 -0.469549 0.000000 0.000000
    64 -4.439061 3.922569 13.956212 0.075659 -0.411864 0.634747
    65 0.113791 -0.132977 29.243565 0.000013 0.000000 0.000000
    66 0.000002 -16.000000 -57.000000 1.570788 0.000007 -0.000007
  time 4
    0 -0.533595 0.000000 38.566879 1.570796 0.000000 -1.570796
    1 0.000000 3.345131 -2.981898 1.570796 0.083193 1.570796
    2 3.995838 0.000000 0.000000 0.000000 0.000000 -0.028816
    3 3.520283 0.000000 0.000000 0.000000 0.000000 0.097307
    4 8.921463 0.000000 0.000000 0.000000 0.000000 0.186413
    5 2.059513 0.977920 1.937661 1.589740 -1.286515 2.950147
    6 36.857267 -75.740169 -7.564492 4.240324 -0.174454 0.413818
    7 11.692564 0.000000 0.000011 0.000000 0.000000 -0.745832
    8 11.481674 0.000001 -0.000034 1.329220 0.087758 0.746815
    9 3.850418 0.126099 -1.223440 -0.317316 -0.182678 -1.175166
    10 1.312561 0.000000 0.000000 -0.035210 0.041488 -1.113081
    11 0.729366 0.000004 0.000000 -0.013075 0.038597 -0.567715
    12 3.926350 0.316490 -0.462519 -0.168907 -0.159042 -1.089467
    13 1.539101 0.000000 -0.000002 -0.003295 0.001738 -1.334676
    14 1.196331 -0.000002 0.000000 -0.004291 0.004431 -1.200192
    15 3.881380 0.214687 0.400251 -0.056575 -0.204695 -1.030413
    16 1.719583 0.000004 0.000000 0.018838 -0.007916 -1.539002
    17 1.209183 -0.000001 0.000008 0.008062 -0.008108 -0.998649
    18 3.871292 0.117424 1.300905 -0.020042 -0.190438 -1.160275
    19 1.719425 -0.000004 0.000002 0.101231 -0.032227 -1.611435
    20 1.099674 0.000004 -0.000004 0.042294 -0.053202 -0.907071
    21 0.838839 -0.300285 1.312777 -0.847487 -0.487805 -0.629244
    22 1.789783 -0.000002 0.000011 -0.000556 -0.003669 0.378873
    23 1.207006 0.000001 0.000004 -0.001696 -0.005420 0.664304
    24 2.059517 0.977922 -1.937661 -1.661569 1.286515 2.950147
    25 18.218025 -59.504563 -14.012728 -0.012348 0.183653 -1.989828
    26 11.692570 -0.000004 0.000000 0.000000 0.000000 -0.735495
    27 11.481654 0.000000 0.000016 -1.610898 0.181262 -0.196406
    28 3.850428 0.126099 1.223438 0.218437 0.059429 -1.236277
    29 1.312562 0.000001 0.000000 0.013556 -0.052694 -0.660926
    30 0.729362 0.000000 0.000000 0.035126 -0.020663 -1.280268
    31 3.926355 0.316488 0.462502 0.078919 0.018325 -1.052031
    32 1.539096 0.000000 -0.000008 0.003022 -0.002131 -1.198664
    33 1.196321 0.000002 0.000011 0.004719 -0.004015 -1.294263
    34 3.881386 0.214694 -0.400257 -0.013550 -0.002191 -0.994617
    35 1.719579 0.000000 0.000000 -0.018227 0.009235 -1.467873
    36 1.209180 -0.000002 -0.000008 -0.009139 0.006871 -1.142228
    37 3.871304 0.117424 -1.300907 -0.078201 -0.025271 -1.087899
    38 1.719431 0.000000 -0.000004 -0.098412 0.040018 -1.533477
    39 1.099665 -0.000001 -0.000004 -0.043317 0.052396 -0.926108
    40 0.838848 -0.300291 -1.312786 1.038393 0.338527 -0.651145
    41 1.789780 -0.000002 0.000000 0.000000 0.003711 0.332742
    42 1.207002 0.000004 0.000000 0.000000 0.005668 0.612525
    43 -0.534583 0.295797 -0.001972 -1.591880 0.022078 -1.868741
    44 0.113788 -0.132996 14.720029 0.000000 0.000000 0.000000
    45 0.113787 -0.132980 9.513787 0.000000 0.000000 0.000000
    46 -0.000001 0.000004 0.000000 0.000000 0.000000 0.000000
    47 -0.000001 0.000000 0.000000 0.000000 0.000000 0.000000
    48 0.113791 -0.132973 16.481380 0.000000 0.000000 0.000000
    49 0.113788 -0.132973 18.076752 0.000000 0.000000 0.000000
    50 0.113789 -0.132969 19.676247 0.000013 0.000000 0.000000
    51 0.113791 -0.132980 21.255905 0.000000 0.000000 0.000000
    52 0.113788 -0.132980 22.869106 -0.000013 0.000000 0.000000
    53 0.113791 -0.132980 24.483315 0.000000 0.000000 0.000000
    54 0.113790 -0.132977 26.066456 0.000000 0.000000 0.000000
    55 0.113790 -0.132980 27.665100 0.000000 0.000000 0.000000
    56 4.717026 4.484177 33.327862 -0.316262 0.029553 -0.762254
    57 0.089302 4.272583 4.480568 -0.432311 0.000000 0.000000
    58 4.922175 -5.137234 33.583321 -0.347135 0.000000 -2.327265
    59 0.001394 4.167400 4.226917 -0.432276 0.000000 0.000000
    60 -4.578506 -5.283134 33.331905 0.000000 0.000000 2.438902
    61 0.269684 4.148857 4.474522 0.000000 0.000000 0.000000
    62 -4.409222 4.440941 33.338566 -0.460827 0.000000 0.763647
    63 -0.045498 4.393921 4.464542 -0.432284 0.000000 0.000000
    64 -4.439061 3.922569 13.956212 0.075659 -0.411864 0.634747
    65 0.113791 -0.132977 29.243565 0.000013 0.000000 0.000000
    66 0.000002 -16.000000 -57.000000 1.570788 0.000007 -0.000007
  time 5
    0 -0.533595 0.000000 38.566879 1.570796 0.000000 -1.570796
    1 0.000000 3.345131 -2.981898 1.570796 0.083193 1.570796
    2 3.995838 0.000000 0.000000 0.000000 0.000000 -0.028816
    3 3.520283 0.000000 0.000000 0.000000 0.000000 0.097307
    4 8.921463 0.000000 0.000000 0.000000 0.000000 0.186413
    5 2.059513 0.977920 1.937661 1.589740 -1.286515 2.950147
    6 36.341626 -74.908112 -8.279358 4.280914 -0.177860 0.395673
    7 11.692564 0.000000 0.000011 0.000000 0.000000 -0.745832
    8 11.481674 0.000001 -0.000034 1.329220 0.087758 0.746815
    9 3.850418 0.126099 -1.223440 -0.317316 -0.182678 -1.175166
    10 1.312561 0.000000 0.000000 -0.035210 0.041488 -1.113081
    11 0.729366 0.000004 0.000000 -0.013075 0.038597 -0.567715
    12 3.926350 0.316490 -0.462519 -0.168907 -0.159042 -1.089467
    13 1.539101 0.000000 -0.000002 -0.003295 0.001738 -1.334676
    14 1.196331 -0.000002 0.000000 -0.004291 0.004431 -1.200192
    15 3.881380 0.214687 0.400251 -0.056575 -0.204695 -1.030413
    16 1.719583 0.000004 0.000000 0.018838 -0.007916 -1.539002
    17 1.209183 -0.000001 0.000008 0.008062 -0.008108 -0.998649
    18 3.871292 0.117424 1.300905 -0.020042 -0.190438 -1.160275
    19 1.719425 -0.000004 0.000002 0.101231 -0.032227 -1.611435
    20 1.099674 0.000004 -0.000004 0.042294 -0.053202 -0.907071
    21 0.838839 -0.300285 1.312777 -0.847487 -0.487805 -0.629244
    22 1.789783 -0.000002 0.000011 -0.000556 -0.003669 0.378873
    23 1.207006 0.000001 0.000004 -0.001696 -0.005420 0.664304
    24 2.059517 0.977922 -1.937661 -1.661569 1.286515 2.950147
    25 18.116460 -59.078769 -14.083043 0.013354 0.152191 -1.975843
    26 11.692570 -0.000004 0.000000 0.000000 0.000000 -0.735495
    27 11.481654 0.000000 0.000016 -1.610898 0.181262 -0.196406
    28 3.850428 0.126099 1.223438 0.218437 0.059429 -1.236277
    29 1.312562 0.000001 0.000000 0.013556 -0.052694 -0.660926
    30 0.729362 0.000000 0.000000 0.035126 -0.020663 -1.280268
    31 3.926355 0.316488 0.462502 0.078919 0.018325 -1.052031
    32 1.539096 0.000000 -0.000008 0.003022 -0.002131 -1.198664
    33 1.196321 0.000002 0.000011 0.004719 -0.004015 -1.294263
    34 3.881386 0.214694 -0.400257 -0.013550 -0.002191 -0.994617
    35 1.719579 0.000000 0.000000 -0.018227 0.009235 -1.467873
    36 1.209180 -0.000002 -0.000008 -0.009139 0.006871 -1.142228
    37 3.871304 0.117424 -1.300907 -0.078201 -0.025271 -1.087899
    38 1.719431 0.000000 -0.000004 -0.098412 0.040018 -1.533477
    39 1.099665 -0.000001 -0.000004 -0.043317 0.052396 -0.926108
    40 0.838848 -0.300291 -1.312786 1.038393 0.338527 -0.651145
    41 1.789780 -0.000002 0.000000 0.000000 0.003711 0.332742
    42 1.207002 0.000004 0.000000 0.000000 0.005668 0.612525
    43 -0.534583 0.295797 -0.001972 -1.591880 0.022078 -1.868741
    44 0.113788 -0.132996 14.720029 0.000000 0.000000 0.000000
    45 0.113787 -0.132980 9.513787 0.000000 0.000000 0.000000
    46 -0.000001 0.000004 0.000000 0.000000 0.000000 0.000000
    47 -0.000001 0.000000 0.000000 0.000000 0.000000 0.000000
    48 0.113791 -0.132973 16.481380 0.000000 0.000000 0.000000
    49 0.113788 -0.132973 18.076752 0.000000 0.000000 0.000000
    50 0.113789 -0.132969 19.676247 0.000013 0.000000 0.000000
    51 0.113791 -0.132980 21.255905 0.000000 0.000000 0.000000
    52 0.113788 -0.132980 22.869106 -0.000013 0.000000 0.000000
    53 0.113791 -0.132980 24.483315 0.000000 0.000000 0.000000
    54 0.113790 -0.132977 26.066456 0.000000 0.000000 0.000000
    55 0.113790 -0.132980 27.665100 0.000000 0.000000 0.000000
    56 4.717026 4.484177 33.327862 -0.385984 0.029553 -0.762254
    57 0.089302 4.272583 4.480568 -0.388399 0.000000 0.000000
    58 4.922175 -5.137234 33.583321 -0.416838 0.000000 -2.327265
    59 0.001394 4.167400 4.226917 -0.388397 0.000000 0.000000
    60 -4.578506 -5.283134 33.331905 0.000000 0.000000 2.438902
    61 0.269684 4.148857 4.474522 0.000000 0.000000 0.000000
    62 -4.409222 4.440941 33.338566 -0.543041 0.000000 0.763647
    63 -0.045498 4.393921 4.464542 -0.388372 0.000000 0.000000
    64 -4.439061 3.922569 13.956212 0.075659 -0.411864 0.634747
    65 0.113791 -0.132977 29.243565 0.000013 0.000000 0.000000
    66 0.000002 -16.000000 -57.000000 1.570788 0.000007 -0.000007
  time 6
    0 -0.533595 0.000000 38.566879 1.570796 0.000000 -1.570796
    1 0.000000 3.345131 -2.981898 1.570796 0.083193 1.570796
    2 3.995838 0.000000 0.000000 0.000000 0.000000 -0.028816
    3 3.520283 0.000000 0.000000 0.000000 0.000000 0.097307
    4 8.921463 0.000000 0.000000 0.000000 0.000000 0.186413
    5 2.059513 0.977920 1.937661 1.589740 -1.286515 2.950147
    6 36.146308 -73.861205 -8.920002 4.318823 -0.180391 0.378961
    7 11.692564 0.000000 0.000011 0.000000 0.000000 -0.745832
    8 11.481674 0.000001 -0.000034 1.329220 0.087758 0.746815
    9 3.850418 0.126099 -1.223440 -0.317316 -0.182678 -1.175166
    10 1.312561 0.000000 0.000000 -0.035210 0.041488 -1.113081
    11 0.729366 0.000004 0.000000 -0.013075 0.038597 -0.567715
    12 3.926350 0.316490 -0.462519 -0.168907 -0.159042 -1.089467
    13 1.539101 0.000000 -0.000002 -0.003295 0.001738 -1.334676
    14 1.196331 -0.000002 0.000000 -0.004291 0.004431 -1.200192
    15 3.881380 0.214687 0.400251 -0.056575 -0.204695 -1.030413
    16 1.719583 0.000004 0.000000 0.018838 -0.007916 -1.539002
    17 1.209183 -0.000001 0.000008 0.008062 -0.008108 -0.998649
    18 3.871292 0.117424 1.300905 -0.020042 -0.190438 -1.160275
    19 1.719425 -0.000004 0.000002 0.101231 -0.032227 -1.611435
    20 1.099674 0.000004 -0.000004 0.042294 -0.053202 -0.907071
    21 0.838839 -0.300285 1.312777 -0.847487 -0.487805 -0.629244
    22 1.789783 -0.000002 0.000011 -0.000556 -0.003669 0.378873
    23 1.207006 0.000001 0.000004 -0.001696 -0.005420 0.664304
    24 2.059517 0.977922 -1.937661 -1.661569 1.286515 2.950147
    25 17.651602 -58.629536 -14.157264 0.036862 0.122570 -1.963578
    26 11.692570 -0.000004 0.000000 0.000000 0.000000 -0.735495
    27 11.481654 0.000000 0.000016 -1.610898 0.181262 -0.196406
    28 3.850428 0.126099 1.223438 0.218437 0.059429 -1.236277
    29 1.312562 0.000001 0.000000 0.013556 -0.052694 -0.660926
    30 0.729362 0.000000 0.000000 0.035126 -0.020663 -1.280268
    31 3.926355 0.316488 0.462502 0.078919 0.018325 -1.052031
    32 1.539096 0.000000 -0.000008 0.003022 -0.002131 -1.198664
    33 1.196321 0.000002 0.000011 0.004719 -0.004015 -1.294263
    34 3.881386 0.214694 -0.400257 -0.013550 -0.002191 -0.994617
    35 1.719579 0.000000 0.000000 -0.018227 0.009235 -1.467873
    36 1.209180 -0.000002 -0.000008 -0.009139 0.006871 -1.142228
    37 3.871304 0.117424 -1.300907 -0.078201 -0.025271 -1.087899
    38 1.719431 0.000000 -0.000004 -0.098412 0.040018 -1.533477
    39 1.099665 -0.000001 -0.000004 -0.043317 0.052396 -0.926108
    40 0.838848 -0.300291 -1.312786 1.038393 0.338527 -0.651145
    41 1.789780 -0.000002 0.000000 0.000000 0.003711 0.332742
    42 1.207002 0.000004 0.000000 0.000000 0.005668 0.612525
    43 -0.534583 0.295797 -0.001972 -1.591880 0.022078 -1.868741
    44 0.113788 -0.132996 14.720029 0.000000 0.000000 0.000000
    45 0.113787 -0.132980 9.513787 0.000000 0.000000 0.000000
    46 -0.000001 0.000004 0.000000 0.000000 0.000000 0.000000
    47 -0.000001 0.000000 0.000000 0.000000 0.000000 0.000000
    48 0.113791 -0.132973 16.481380 0.000000 0.000000 0.000000
    49 0.113788 -0.132973 18.076752 0.000000 0.000000 0.000000
    50 0.113789 -0.132969 19.676247 0.000013 0.000000 0.000000
    51 0.113791 -0.132980 21.255905 0.000000 0.000000 0.000000
    52 0.113788 -0.132980 22.869106 -0.000013 0.000000 0.000000
    53 0.113791 -0.132980 24.483315 0.000000 0.000000 0.000000
    54 0.113790 -0.132977 26.066456 0.000000 0.000000 0.000000
    55 0.113790 -0.132980 27.665100 0.000000 0.000000 0.000000
    56 4.717026 4.484177 33.327862 -0.374370 0.029553 -0.762254
    57 0.089302 4.272583 4.480568 -0.339629 0.000000 0.000000
    58 4.922175 -5.137234 33.583321 -0.405224 0.000000 -2.327265
    59 0.001394 4.167400 4.226917 -0.339659 0.000000 0.000000
    60 -4.578506 -5.283134 33.331905 0.000000 0.000000 2.438902
    61 0.269684 4.148857 4.474522 0.000000 0.000000 0.000000
    62 -4.409222 4.440941 33.338566 -0.528015 0.000000 0.763647
    63 -0.045498 4.393921 4.464542 -0.339633 0.000000 0.000000
    64 -4.439061 3.922569 13.956212 0.075659 -0.411864 0.634747
    65 0.113791 -0.132977 29.243565 0.000013 0.000000 0.000000
    66 0.000002 -16.000000 -57.000000 1.570788 0.000007 -0.000007
  time 7
    0 -0.533595 0.000000 38.566879 1.570796 0.000000 -1.570796
    1 0.000000 3.345131 -2.981898 1.570796 0.083193 1.570796
    2 3.995838 0.000000 0.000000 0.000000 0.000000 -0.028816
    3 3.520283 0.000000 0.000000 0.000000 0.000000 0.097307
    4 8.921463 0.000000 0.000000 0.000000 0.000000 0.186413
    5 2.059513 0.977920 1.937661 1.589740 -1.286515 2.950147
    6 36.232248 -72.704920 -9.431737 4.351659 -0.182094 0.364159
    7 11.692564 0.000000 0.000011 0.000000 0.000000 -0.745832
    8 11.481674 0.000001 -0.000034 1.329220 0.087758 0.746815
    9 3.850418 0.126099 -1.223440 -0.317316 -0.182678 -1.175166
    10 1.312561 0.000000 0.000000 -0.035210 0.041488 -1.113081
    11 0.729366 0.000004 0.000000 -0.013075 0.038597 -0.567715
    12 3.926350 0.316490 -0.462519 -0.168907 -0.159042 -1.089467
    13 1.539101 0.000000 -0.000002 -0.003295 0.001738 -1.334676
    14 1.196331 -0.000002 0.000000 -0.004291 0.004431 -1.200192
    15 3.881380 0.214687 0.400251 -0.056575 -0.204695 -1.030413
    16 1.719583 0.000004 0.000000 0.018838 -0.007916 -1.539002
    17 1.209183 -0.000001 0.000008 0.008062 -0.008108 -0.998649
    18 3.871292 0.117424 1.300905 -0.020042 -0.190438 -1.160275
    19 1.719425 -0.000004 0.000002 0.101231 -0.032227 -1.611435
    20 1.099674 0.000004 -0.000004 0.042294 -0.053202 -0.907071
    21 0.838839 -0.300285 1.312777 -0.847487 -0.487805 -0.629244
    22 1.789783 -0.000002 0.000011 -0.000556 -0.003669 0.378873
    23 1.207006 0.000001 0.000004 -0.001696 -0.005420 0.664304
    24 2.059517 0.977922 -1.937661 -1.661569 1.286515 2.950147
    25 16.909392 -58.192023 -14.247110 0.056788 0.096728 -1.953578
    26 11.692570 -0.000004 0.000000 0.000000 0.000000 -0.735495
    27 11.481654 0.000000 0.000016 -1.610898 0.181262 -0.196406
    28 3.850428 0.126099 1.223438 0.218437 0.059429 -1.236277
    29 1.312562 0.000001 0.000000 0.013556 -0.052694 -0.660926
    30 0.729362 0.000000 0.000000 0.035126 -0.020663 -1.280268
    31 3.926355 0.316488 0.462502 0.078919 0.018325 -1.052031
    32 1.539096 0.000000 -0.000008 0.003022 -0.002131 -1.198664
    33 1.196321 0.000002 0.000011 0.004719 -0.004015 -1.294263
    34 3.881386 0.214694 -0.400257 -0.013550 -0.002191 -0.994617
    35 1.719579 0.000000 0.000000 -0.018227 0.009235 -1.467873
    36 1.209180 -0.000002 -0.000008 -0.009139 0.006871 -1.142228
    37 3.871304 0.117424 -1.300907 -0.078201 -0.025271 -1.087899
    38 1.719431 0.000000 -0.000004 -0.098412 0.040018 -1.533477
    39 1.099665 -0.000001 -0.000004 -0.043317 0.052396 -0.926108
    40 0.838848 -0.300291 -1.312786 1.038393 0.338527 -0.651145
    41 1.789780 -0.000002 0.000000 0.000000 0.003711 0.332742
    42 1.207002 0.000004 0.000000 0.000000 0.005668 0.612525
    43 -0.534583 0.295797 -0.001972 -1.591880 0.022078 -1.868741
    44 0.113788 -0.132996 14.720029 0.000000 0.000000 0.000000
    45 0.113787 -0.132980 9.513787 0.000000 0.000000 0.000000
    46 -0.000001 0.000004 0.000000 0.000000 0.000000 0.000000
    47 -0.000001 0.000000 0.000000 0.000000 0.000000 0.000000
    48 0.113791 -0.132973 16.481380 0.000000 0.000000 0.000000
    49 0.113788 -0.132973 18.076752 0.000000 0.000000 0.000000
    50 0.113789 -0.132969 19.676247 0.000013 0.000000 0.000000
    51 0.113791 -0.132980 21.255905 0.000000 0.000000 0.000000
    52 0.113788 -0.132980 22.869106 -0.000013 0.000000 0.000000
    53 0.113791 -0.132980 24.483315 0.000000 0.000000 0.000000
    54 0.113790 -0.132977 26.066456 0.000000 0.000000 0.000000
    55 0.113790 -0.132980 27.665100 0.000000 0.000000 0.000000
    56 4.717026 4.484177 33.327862 -0.342790 0.029553 -0.762254
    57 0.089302 4.272583 4.480568 -0.288047 0.000000 0.000000
    58 4.922175 -5.137234 33.583321 -0.373663 0.000000 -2.327265
    59 0.001394 4.167400 4.226917 -0.288078 0.000000 0.000000
    60 -4.578506 -5.283134 33.331905 0.000000 0.000000 2.438902
    61 0.269684 4.148857 4.474522 0.000000 0.000000 0.000000
    62 -4.409222 4.440941 33.338566 -0.487001 0.000000 0.763647
    63 -0.045498 4.393921 4.464542 -0.288051 0.000000 0.000000
    64 -4.439061 3.922569 13.956212 0.075659 -0.411864 0.634747
    65 0.113791 -0.132977 29.243565 0.000013 0.000000 0.000000
    66 0.000002 -16.000000 -57.000000 1.570788 0.000007 -0.000007
  time 8
    0 -0.533595 0.000000 38.566879 1.570796 0.000000 -1.570796
    1 0.000000 3.345131 -2.981898 1.570796 0.083193 1.570796
    2 3.995838 0.000000 0.000000 0.000000 0.000000 -0.028816
    3 3.520283 0.000000 0.000000 0.000000 0.000000 0.097307
    4 8.921463 0.000000 0.000000 0.000000 0.000000 0.186413
    5 2.059513 0.977920 1.937661 1.589740 -1.286515 2.950147
    6 36.497881 -71.665826 -9.810655 4.377506 -0.183107 0.352604
    7 11.692564 0.000000 0.000011 0.000000 0.000000 -0.745832
    8 11.481674 0.000001 -0.000034 1.329220 0.087758 0.746815
    9 3.850418 0.126099 -1.223440 -0.317316 -0.182678 -1.175166
    10 1.312561 0.000000 0.000000 -0.035210 0.041488 -1.113081
    11 0.729366 0.000004 0.000000 -0.013075 0.038597 -0.567715
    12 3.926350 0.316490 -0.462519 -0.168907 -0.159042 -1.089467
    13 1.539101 0.000000 -0.000002 -0.003295 0.001738 -1.334676
    14 1.196331 -0.000002 0.000000 -0.004291 0.004431 -1.200192
    15 3.881380 0.214687 0.400251 -0.056575 -0.204695 -1.030413
    16 1.719583 0.000004 0.000000 0.018838 -0.007916 -1.539002
    17 1.209183 -0.000001 0.000008 0.008062 -0.008108 -0.998649
    18 3.871292 0.117424 1.300905 -0.020042 -0.190438 -1.160275
    19 1.719425 -0.000004 0.000002 0.101231 -0.032227 -1.611435
    20 1.099674 0.000004 -0.000004 0.042294 -0.053202 -0.907071
    21 0.838839 -0.300285 1.312777 -0.847487 -0.487805 -0.629244
    22 1.789783 -0.000002 0.000011 -0.000556 -0.003669 0.378873
    23 1.207006 0.000001 0.000004 -0.001696 -0.005420 0.664304
    24 2.059517 0.977922 -1.937661 -1.661569 1.286515 2.950147
    25 16.092960 -57.852169 -14.333050 0.072210 0.076281 -1.946117
    26 11.692570 -0.000004 0.000000 0.000000 0.000000 -0.735495
    27 11.481654 0.000000 0.000016 -1.610898 0.181262 -0.196406
    28 3.850428 0.126099 1.223438 0.218437 0.059429 -1.236277
    29 1.312562 0.000001 0.000000 0.013556 -0.052694 -0.660926
    30 0.729362 0.000000 0.000000 0.035126 -0.020663 -1.280268
    31 3.926355 0.316488 0.462502 0.078919 0.018325 -1.052031
    32 1.539096 0.000000 -0.000008 0.003022 -0.002131 -1.198664
    33 1.196321 0.000002 0.000011 0.004719 -0.004015 -1.294263
    34 3.881386 0.214694 -0.400257 -0.013550 -0.002191 -0.994617
    35 1.719579 0.000000 0.000000 -0.018227 0.009235 -1.467873
    36 1.209180 -0.000002 -0.000008 -0.009139 0.006871 -1.142228
    37 3.871304 0.117424 -1.300907 -0.078201 -0.025271 -1.087899
    38 1.719431 0.000000 -0.000004 -0.098412 0.040018 -1.533477
    39 1.099665 -0.000001 -0.000004 -0.043317 0.052396 -0.926108
    40 0.838848 -0.300291 -1.312786 1.038393 0.338527 -0.651145
    41 1.789780 -0.000002 0.000000 0.000000 0.003711 0.332742
    42 1.207002 0.000004 0.000000 0.000000 0.005668 0.612525
    43 -0.534583 0.295797 -0.001972 -1.591880 0.022078 -1.868741
    44 0.113788 -0.132996 14.720029 0.000000 0.000000 0.000000
    45 0.113787 -0.132980 9.513787 0.000000 0.000000 0.000000
    46 -0.000001 0.000004 0.000000 0.000000 0.000000 0.000000
    47 -0.000001 0.000000 0.000000 0.000000 0.000000 0.000000
    48 0.113791 -0.132973 16.481380 0.000000 0.000000 0.000000
    49 0.113788 -0.132973 18.076752 0.000000 0.000000 0.000000
    50 0.113789 -0.132969 19.676247 0.000013 0.000000 0.000000
    51 0.113791 -0.132980 21.255905 0.000000 0.000000 0.000000
    52 0.113788 -0.132980 22.869106 -0.000013 0.000000 0.000000
    53 0.113791 -0.132980 24.483315 0.000000 0.000000 0.000000
    54 0.113790 -0.132977 26.066456 0.000000 0.000000 0.000000
    55 0.113790 -0.132980 27.665100 0.000000 0.000000 0.000000
    56 4.717026 4.484177 33.327862 -0.296128 0.029553 -0.762254
    57 0.089302 4.272583 4.480568 -0.235475 0.000000 0.000000
    58 4.922175 -5.137234 33.583321 -0.326983 0.000000 -2.327265
    59 0.001394 4.167400 4.226917 -0.235473 0.000000 0.000000
    60 -4.578506 -5.283134 33.331905 0.000000 0.000000 2.438902
    61 0.269684 4.148857 4.474522 0.000000 0.000000 0.000000
    62 -4.409222 4.440941 33.338566 -0.426245 0.000000 0.763647
    63 -0.045498 4.393921 4.464542 -0.235445 0.000000 0.000000
    64 -4.439061 3.922569 13.956212 0.075659 -0.411864 0.634747
    65 0.113791 -0.132977 29.243565 0.000013 0.000000 0.000000
    66 0.000002 -16.000000 -57.000000 1.570788 0.000007 -0.000007
  time 9
    0 -0.533595 0.000000 38.566879 1.570796 0.000000 -1.570796
    1 0.000000 3.345131 -2.981898 1.570796 0.083193 1.570796
    2 3.995838 0.000000 0.000000 0.000000 0.000000 -0.028816
    3 3.520283 0.000000 0.000000 0.000000 0.000000 0.097307
    4 8.921463 0.000000 0.000000 0.000000 0.000000 0.186413
    5 2.059513 0.977920 1.937661 1.589740 -1.286515 2.950147
    6 36.783046 -70.919709 -10.048943 4.394354 -0.183567 0.345155
    7 11.692564 0.000000 0.000011 0.000000 0.000000 -0.745832
    8 11.481674 0.000001 -0.000034 1.329220 0.087758 0.746815
    9 3.850418 0.126099 -1.223440 -0.317316 -0.182678 -1.175166
    10 1.312561 0.000000 0.000000 -0.035210 0.041488 -1.113081
    11 0.729366 0.000004 0.000000 -0.013075 0.038597 -0.567715
    12 3.926350 0.316490 -0.462519 -0.168907 -0.159042 -1.089467
    13 1.539101 0.000000 -0.000002 -0.003295 0.001738 -1.334676
    14 1.196331 -0.000002 0.000000 -0.004291 0.004431 -1.200192
    15 3.881380 0.214687 0.400251 -0.056575 -0.204695 -1.030413
    16 1.719583 0.000004 0.000000 0.018838 -0.007916 -1.539002
    17 1.209183 -0.000001 0.000008 0.008062 -0.008108 -0.998649
    18 3.871292 0.117424 1.300905 -0.020042 -0.190438 -1.160275
    19 1.719425 -0.000004 0.000002 0.101231 -0.032227 -1.611435
    20 1.099674 0.000004 -0.000004 0.042294 -0.053202 -0.907071
    21 0.838839 -0.300285 1.312777 -0.847487 -0.487805 -0.629244
    22 1.789783 -0.000002 0.000011 -0.000556 -0.003669 0.378873
    23 1.207006 0.000001 0.000004 -0.001696 -0.005420 0.664304
    24 2.059517 0.977922 -1.937661 -1.661569 1.286515 2.950147
    25 15.432784 -57.649038 -14.395552 0.082260 0.062843 -1.941390
    26 11.692570 -0.000004 0.000000 0.000000 0.000000 -0.735495
    27 11.481654 0.000000 0.000016 -1.610898 0.181262 -0.196406
    28 3.850428 0.126099 1.223438 0.218437 0.059429 -1.236277
    29 1.312562 0.000001 0.000000 0.013556 -0.052694 -0.660926
    30 0.729362 0.000000 0.000000 0.035126 -0.020663 -1.280268
    31 3.926355 0.316488 0.462502 0.078919 0.018325 -1.052031
    32 1.539096 0.000000 -0.000008 0.003022 -0.002131 -1.198664
    33 1.196321 0.000002 0.000011 0.004719 -0.004015 -1.294263
    34 3.881386 0.214694 -0.400257 -0.013550 -0.002191 -0.994617
    35 1.719579 0.000000 0.000000 -0.018227 0.009235 -1.467873
    36 1.209180 -0.000002 -0.000008 -0.009139 0.006871 -1.142228
    37 3.871304 0.117424 -1.300907 -0.078201 -0.025271 -1.087899
    38 1.719431 0.000000 -0.000004 -0.098412 0.040018 -1.533477
    39 1.099665 -0.000001 -0.000004 -0.043317 0.052396 -0.926108
    40 0.838848 -0.300291 -1.312786 1.038393 0.338527 -0.651145
    41 1.789780 -0.000002 0.000000 0.000000 0.003711 0.332742
    42 1.207002 0.000004 0.000000 0.000000 0.005668 0.612525
    43 -0.534583 0.295797 -0.001972 -1.591880 0.022078 -1.868741
    44 0.113788 -0.132996 14.720029 0.000000 0.000000 0.000000
    45 0.113787 -0.132980 9.513787 0.000000 0.000000 0.000000
    46 -0.000001 0.000004 0.000000 0.000000 0.000000 0.000000
    47 -0.000001 0.000000 0.000000 0.000000 0.000000 0.000000
    48 0.113791 -0.132973 16.481380 0.000000 0.000000 0.000000
    49 0.113788 -0.132973 18.076752 0.000000 0.000000 0.000000
    50 0.113789 -0.132969 19.676247 0.000013 0.000000 0.000000
    51 0.113791 -0.132980 21.255905 0.000000 0.000000 0.000000
    52 0.113788 -0.132980 22.869106 -0.000013 0.000000 0.000000
    53 0.113791 -0.132980 24.483315 0.000000 0.000000 0.000000
    54 0.113790 -0.132977 26.066456 0.000000 0.000000 0.000000
    55 0.113790 -0.132980 27.665100 0.000000 0.000000 0.000000
    56 4.717026 4.484177 33.327862 -0.239270 0.029553 -0.762254
    57 0.089302 4.272583 4.480568 -0.183893 0.000000 0.000000
    58 4.922175 -5.137234 33.583321 -0.270162 0.000000 -2.327265
    59 0.001394 4.167400 4.226917 -0.183892 0.000000 0.000000
    60 -4.578506 -5.283134 33.331905 0.000000 0.000000 2.438902
    61 0.269684 4.148857 4.474522 0.000000 0.000000 0.000000
    62 -4.409222 4.440941 33.338566 -0.352159 0.000000 0.763647
    63 -0.045498 4.393921 4.464542 -0.183863 0.000000 0.000000
    64 -4.439061 3.922569 13.956212 0.075659 -0.411864 0.634747
    65 0.113791 -0.132977 29.243565 0.000013 0.000000 0.000000
    66 0.000002 -16.000000 -57.000000 1.570788 0.000007 -0.000007
  time 10
    0 -0.533595 0.000000 38.566879 1.570796 0.000000 -1.570796
    1 0.000000 3.345131 -2.981898 1.570796 0.083193 1.570796
    2 3.995838 0.000000 0.000000 0.000000 0.000000 -0.028816
    3 3.520283 0.000000 0.000000 0.000000 0.000000 0.097307
    4 8.921463 0.000000 0.000000 0.000000 0.000000 0.186413
    5 2.059513 0.977920 1.937661 1.589740 -1.286515 2.950147
    6 36.923675 -70.634544 -10.130977 4.400385 -0.183705 0.342290
    7 11.692564 0.000000 0.000011 0.000000 0.000000 -0.745832
    8 11.481674 0.000001 -0.000034 1.329220 0.087758 0.746815
    9 3.850418 0.126099 -1.223440 -0.317316 -0.182678 -1.175166
    10 1.312561 0.000000 0.000000 -0.035210 0.041488 -1.113081
    11 0.729366 0.000004 0.000000 -0.013075 0.038597 -0.567715
    12 3.926350 0.316490 -0.462519 -0.168907 -0.159042 -1.089467
    13 1.539101 0.000000 -0.000002 -0.003295 0.001738 -1.334676
    14 1.196331 -0.000002 0.000000 -0.004291 0.004431 -1.200192
    15 3.881380 0.214687 0.400251 -0.056575 -0.204695 -1.030413
    16 1.719583 0.000004 0.000000 0.018838 -0.007916 -1.539002
    17 1.209183 -0.000001 0.000008 0.008062 -0.008108 -0.998649
    18 3.871292 0.117424 1.300905 -0.020042 -0.190438 -1.160275
    19 1.719425 -0.000004 0.000002 0.101231 -0.032227 -1.611435
    20 1.099674 0.000004 -0.000004 0.042294 -0.053202 -0.907071
    21 0.838839 -0.300285 1.312777 -0.847487 -0.487805 -0.629244
    22 1.789783 -0.000002 0.000011 -0.000556 -0.003669 0.378873
    23 1.207006 0.000001 0.000004 -0.001696 -0.005420 0.664304
    24 2.059517 0.977922 -1.937661 -1.661569 1.286515 2.950147
    25 15.159338 -57.578723 -14.418990 0.085783 0.058030 -1.939749
    26 11.692570 -0.000004 0.000000 0.000000 0.000000 -0.735495
    27 11.481654 0.000000 0.000016 -1.610898 0.181262 -0.196406
    28 3.850428 0.126099 1.223438 0.218437 0.059429 -1.236277
    29 1.312562 0.000001 0.000000 0.013556 -0.052694 -0.660926
    30 0.729362 0.000000 0.000000 0.035126 -0.020663 -1.280268
    31 3.926355 0.316488 0.462502 0.078919 0.018325 -1.052031
    32 1.539096 0.000000 -0.000008 0.003022 -0.002131 -1.198664
    33 1.196321 0.000002 0.000011 0.004719 -0.004015 -1.294263
    34 3.881386 0.214694 -0.400257 -0.013550 -0.002191 -0.994617
    35 1.719579 0.000000 0.000000 -0.018227 0.009235 -1.467873
    36 1.209180 -0.000002 -0.000008 -0.009139 0.006871 -1.142228
    37 3.871304 0.117424 -1.300907 -0.078201 -0.025271 -1.087899
    38 1.719431 0.000000 -0.000004 -0.098412 0.040018 -1.533477
    39 1.099665 -0.000001 -0.000004 -0.043317 0.052396 -0.926108
    40 0.838848 -0.300291 -1.312786 1.038393 0.338527 -0.651145
    41 1.789780 -0.000002 0.000000 0.000000 0.003711 0.332742
    42 1.207002 0.000004 0.000000 0.000000 0.005668 0.612525
    43 -0.534583 0.295797 -0.001972 -1.591880 0.022078 -1.868741
    44 0.113788 -0.132996 14.720029 0.000000 0.000000 0.000000
    45 0.113787 -0.132980 9.513787 0.000000 0.000000 0.000000
    46 -0.000001 0.000004 0.000000 0.000000 0.000000 0.000000
    47 -0.000001 0.000000 0.000000 0.000000 0.000000 0.000000
    48 0.113791 -0.132973 16.481380 0.000000 0.000000 0.000000
    49 0.113788 -0.132973 18.076752 0.000000 0.000000 0.000000
    50 0.113789 -0.132969 19.676247 0.000013 0.000000 0.000000
    51 0.113791 -0.132980 21.255905 0.000000 0.000000 0.000000
    52 0.113788 -0.132980 22.869106 -0.000013 0.000000 0.000000
    53 0.113791 -0.132980 24.483315 0.000000 0.000000 0.000000
    54 0.113790 -0.132977 26.066456 0.000000 0.000000 0.000000
    55 0.113790 -0.132980 27.665100 0.000000 0.000000 0.000000
    56 4.717026 4.484177 33.327862 -0.177378 0.029553 -0.762254
    57 0.089302 4.272583 4.480568 -0.135155 0.000000 0.000000
    58 4.922175 -5.137234 33.583321 -0.208233 0.000000 -2.327265
    59 0.001394 4.167400 4.226917 -0.135154 0.000000 0.000000
    60 -4.578506 -5.283134 33.331905 0.000000 0.000000 2.438902
    61 0.269684 4.148857 4.474522 0.000000 0.000000 0.000000
    62 -4.409222 4.440941 33.338566 -0.271306 0.000000 0.763647
    63 -0.045498 4.393921 4.464542 -0.135157 0.000000 0.000000
    64 -4.439061 3.922569 13.956212 0.075659 -0.411864 0.634747
    65 0.113791 -0.132977 29.243565 0.000013 0.000000 0.000000
    66 0.000002 -16.000000 -57.000000 1.570788 0.000007 -0.000007
  time 11
    0 -0.533595 0.000000 38.566879 1.570796 0.000000 -1.570796
    1 0.000000 3.345131 -2.981898 1.570796 0.083193 1.570796
    2 3.995838 0.000000 0.000000 0.000000 0.000000 -0.028816
    3 3.520283 0.000000 0.000000 0.000000 0.000000 0.097307
    4 8.921463 0.000000 0.000000 0.000000 0.000000 0.186413
    5 2.059513 0.977920 1.937661 1.589740 -1.286515 2.950147
    6 36.923675 -70.634544 -10.130977 4.400385 -0.183705 0.342290
    7 11.692564 0.000000 0.000011 0.000000 0.000000 -0.745832
    8 11.481674 0.000001 -0.000034 1.329220 0.087758 0.746815
    9 3.850418 0.126099 -1.223440 -0.317316 -0.182678 -1.175166
    10 1.312561 0.000000 0.000000 -0.035210 0.041488 -1.113081
    11 0.729366 0.000004 0.000000 -0.013075 0.038597 -0.567715
    12 3.926350 0.316490 -0.462519 -0.168907 -0.159042 -1.089467
    13 1.539101 0.000000 -0.000002 -0.003295 0.001738 -1.334676
    14 1.196331 -0.000002 0.000000 -0.004291 0.004431 -1.200192
    15 3.881380 0.214687 0.400251 -0.056575 -0.204695 -1.030413
    16 1.719583 0.000004 0.000000 0.018838 -0.007916 -1.539002
    17 1.209183 -0.000001 0.000008 0.008062 -0.008108 -0.998649
    18 3.871292 0.117424 1.300905 -0.020042 -0.190438 -1.160275
    19 1.719425 -0.000004 0.000002 0.101231 -0.032227 -1.611435
    20 1.099674 0.000004 -0.000004 0.042294 -0.053202 -0.907071
    21 0.838839 -0.300285 1.312777 -0.847487 -0.487805 -0.629244
    22 1.789783 -0.000002 0.000011 -0.000556 -0.003669 0.378873
    23 1.207006 0.000001 0.000004 -0.001696 -0.005420 0.664304
    24 2.059517 0.977922 -1.937661 -1.661569 1.286515 2.950147
    25 15.159338 -57.578723 -14.418990 0.085783 0.058030 -1.939749
    26 11.692570 -0.000004 0.000000 0.000000 0.000000 -0.735495
    27 11.481654 0.000000 0.000016 -1.610898 0.181262 -0.196406
    28 3.850428 0.126099 1.223438 0.218437 0.059429 -1.236277
    29 1.312562 0.000001 0.000000 0.013556 -0.052694 -0.660926
    30 0.729362 0.000000 0.000000 0.035126 -0.020663 -1.280268
    31 3.926355 0.316488 0.462502 0.078919 0.018325 -1.052031
    32 1.539096 0.000000 -0.000008 0.003022 -0.002131 -1.198664
    33 1.196321 0.000002 0.000011 0.004719 -0.004015 -1.294263
    34 3.881386 0.214694 -0.400257 -0.013550 -0.002191 -0.994617
    35 1.719579 0.000000 0.000000 -0.018227 0.009235 -1.467873
    36 1.209180 -0.000002 -0.000008 -0.009139 0.006871 -1.142228
    37 3.871304 0.117424 -1.300907 -0.078201 -0.025271 -1.087899
    38 1.719431 0.000000 -0.000004 -0.098412 0.040018 -1.533477
    39 1.099665 -0.000001 -0.000004 -0.043317 0.052396 -0.926108
    40 0.838848 -0.300291 -1.312786 1.038393 0.338527 -0.651145
    41 1.789780 -0.000002 0.000000 0.000000 0.003711 0.332742
    42 1.207002 0.000004 0.000000 0.000000 0.005668 0.612525
    43 -0.534583 0.295797 -0.001972 -1.591880 0.022078 -1.868741
    44 0.113788 -0.132996 14.720029 0.000000 0.000000 0.000000
    45 0.113787 -0.132980 9.513787 0.000000 0.000000 0.000000
    46 -0.000001 0.000004 0.000000 0.000000 0.000000 0.000000
    47 -0.000001 0.000000 0.000000 0.000000 0.000000 0.000000
    48 0.113791 -0.132973 16.481380 0.000000 0.000000 0.000000
    49 0.113788 -0.132973 18.076752 0.000000 0.000000 0.000000
    50 0.113789 -0.132969 19.676247 0.000013 0.000000 0.000000
    51 0.113791 -0.132980 21.255905 0.000000 0.000000 0.000000
    52 0.113788 -0.132980 22.869106 -0.000013 0.000000 0.000000
    53 0.113791 -0.132980 24.483315 0.000000 0.000000 0.000000
    54 0.113790 -0.132977 26.066456 0.000000 0.000000 0.000000
    55 0.113790 -0.132980 27.665100 0.000000 0.000000 0.000000
    56 4.717026 4.484177 33.327862 -0.115486 0.029553 -0.762254
    57 0.089302 4.272583 4.480568 -0.091211 0.000000 0.000000
    58 4.922175 -5.137234 33.583321 -0.146341 0.000000 -2.327265
    59 0.001394 4.167400 4.226917 -0.091275 0.000000 0.000000
    60 -4.578506 -5.283134 33.331905 0.000000 0.000000 2.438902
    61 0.269684 4.148857 4.474522 0.000000 0.000000 0.000000
    62 -4.409222 4.440941 33.338566 -0.190509 0.000000 0.763647
    63 -0.045498 4.393921 4.464542 -0.091212 0.000000 0.000000
    64 -4.439061 3.922569 13.956212 0.075659 -0.411864 0.634747
    65 0.113791 -0.132977 29.243565 0.000013 0.000000 0.000000
    66 0.000002 -16.000000 -57.000000 1.570788 0.000007 -0.000007
  time 12
    0 -0.533595 0.000000 38.566879 1.570796 0.000000 -1.570796
    1 0.000000 3.345131 -2.981898 1.570796 0.083193 1.570796
    2 3.995838 0.000000 0.000000 0.000000 0.000000 -0.028816
    3 3.520283 0.000000 0.000000 0.000000 0.000000 0.097307
    4 8.921463 0.000000 0.000000 0.000000 0.000000 0.186413
    5 2.059513 0.977920 1.937661 1.589740 -1.286515 2.950147
    6 36.923675 -70.634544 -10.130977 4.400385 -0.183705 0.342290
    7 11.692564 0.000000 0.000011 0.000000 0.000000 -0.745832
    8 11.481674 0.000001 -0.000034 1.329220 0.087758 0.746815
    9 3.850418 0.126099 -1.223440 -0.317316 -0.182678 -1.175166
    10 1.312561 0.000000 0.000000 -0.035210 0.041488 -1.113081
    11 0.729366 0.000004 0.000000 -0.013075 0.038597 -0.567715
    12 3.926350 0.316490 -0.462519 -0.168907 -0.159042 -1.089467
    13 1.539101 0.000000 -0.000002 -0.003295 0.001738 -1.334676
    14 1.196331 -0.000002 0.000000 -0.004291 0.004431 -1.200192
    15 3.881380 0.214687 0.400251 -0.056575 -0.204695 -1.030413
    16 1.719583 0.000004 0.000000 0.018838 -0.007916 -1.539002
    17 1.209183 -0.000001 0.000008 0.008062 -0.008108 -0.998649
    18 3.871292 0.117424 1.300905 -0.020042 -0.190438 -1.160275
    19 1.719425 -0.000004 0.000002 0.101231 -0.032227 -1.611435
    20 1.099674 0.000004 -0.000004 0.042294 -0.053202 -0.907071
    21 0.838839 -0.300285 1.312777 -0.847487 -0.487805 -0.629244
    22 1.789783 -0.000002 0.000011 -0.000556 -0.003669 0.378873
    23 1.207006 0.000001 0.000004 -0.001696 -0.005420 0.664304
    24 2.059517 0.977922 -1.937661 -1.661569 1.286515 2.950147
    25 15.159338 -57.578723 -14.418990 0.085783 0.058030 -1.939749
    26 11.692570 -0.000004 0.000000 0.000000 0.000000 -0.735495
    27 11.481654 0.000000 0.000016 -1.610898 0.181262 -0.196406
    28 3.850428 0.126099 1.223438 0.218437 0.059429 -1.236277
    29 1.312562 0.000001 0.000000 0.013556 -0.052694 -0.660926
    30 0.729362 0.000000 0.000000 0.035126 -0.020663 -1.280268
    31 3.926355 0.316488 0.462502 0.078919 0.018325 -1.052031
    32 1.539096 0.000000 -0.000008 0.003022 -0.002131 -1.198664
    33 1.196321 0.000002 0.000011 0.004719 -0.004015 -1.294263
    34 3.881386 0.214694 -0.400257 -0.013550 -0.002191 -0.994617
    35 1.719579 0.000000 0.000000 -0.018227 0.009235 -1.467873
    36 1.209180 -0.000002 -0.000008 -0.009139 0.006871 -1.142228
    37 3.871304 0.117424 -1.300907 -0.078201 -0.025271 -1.087899
    38 1.719431 0.000000 -0.000004 -0.098412 0.040018 -1.533477
    39 1.099665 -0.000001 -0.000004 -0.043317 0.052396 -0.926108
    40 0.838848 -0.300291 -1.312786 1.038393 0.338527 -0.651145
    41 1.789780 -0.000002 0.000000 0.000000 0.003711 0.332742
    42 1.207002 0.000004 0.000000 0.000000 0.005668 0.612525
    43 -0.534583 0.295797 -0.001972 -1.591880 0.022078 -1.868741
    44 0.113788 -0.132996 14.720029 0.000000 0.000000 0.000000
    45 0.113787 -0.132980 9.513787 0.000000 0.000000 0.000000
    46 -0.000001 0.000004 0.000000 0.000000 0.000000 0.000000
    47 -0.000001 0.000000 0.000000 0.000000 0.000000 0.000000
    48 0.113791 -0.132973 16.481380 0.000000 0.000000 0.000000
    49 0.113788 -0.132973 18.076752 0.000000 0.000000 0.000000
    50 0.113789 -0.132969 19.676247 0.000013 0.000000 0.000000
    51 0.113791 -0.132980 21.255905 0.000000 0.000000 0.000000
    52 0.113788 -0.132980 22.869106 -0.000013 0.000000 0.000000
    53 0.113791 -0.132980 24.483315 0.000000 0.000000 0.000000
    54 0.113790 -0.132977 26.066456 0.000000 0.000000 0.000000
    55 0.113790 -0.132980 27.665100 0.000000 0.000000 0.000000
    56 4.717026 4.484177 33.327862 -0.058758 0.029553 -0.762254
    57 0.089302 4.272583 4.480568 -0.053979 0.000000 0.000000
    58 4.922175 -5.137234 33.583321 -0.089613 0.000000 -2.327265
    59 0.001394 4.167400 4.226917 -0.054011 0.000000 0.000000
    60 -4.578506 -5.283134 33.331905 0.000000 0.000000 2.438902
    61 0.269684 4.148857 4.474522 0.000000 0.000000 0.000000
    62 -4.409222 4.440941 33.338566 -0.116498 0.000000 0.763647
    63 -0.045498 4.393921 4.464542 -0.053980 0.000000 0.000000
    64 -4.439061 3.922569 13.956212 0.075659 -0.411864 0.634747
    65 0.113791 -0.132977 29.243565 0.000013 0.000000 0.000000
    66 0.000002 -16.000000 -57.000000 1.570788 0.000007 -0.000007
  time 13
    0 -0.533595 0.000000 38.566879 1.570796 0.000000 -1.570796
    1 0.000000 3.345131 -2.981898 1.570796 0.083193 1.570796
    2 3.995838 0.000000 0.000000 0.000000 0.000000 -0.028816
    3 3.520283 0.000000 0.000000 0.000000 0.000000 0.097307
    4 8.921463 0.000000 0.000000 0.000000 0.000000 0.186413
    5 2.059513 0.977920 1.937661 1.589740 -1.286515 2.950147
    6 36.923675 -70.634544 -10.130977 4.400385 -0.183705 0.342290
    7 11.692564 0.000000 0.000011 0.000000 0.000000 -0.745832
    8 11.481674 0.000001 -0.000034 1.329220 0.087758 0.746815
    9 3.850418 0.126099 -1.223440 -0.317316 -0.182678 -1.175166
    10 1.312561 0.000000 0.000000 -0.035210 0.041488 -1.113081
    11 0.729366 0.000004 0.000000 -0.013075 0.038597 -0.567715
    12 3.926350 0.316490 -0.462519 -0.168907 -0.159042 -1.089467
    13 1.539101 0.000000 -0.000002 -0.003295 0.001738 -1.334676
    14 1.196331 -0.000002 0.000000 -0.004291 0.004431 -1.200192
    15 3.881380 0.214687 0.400251 -0.056575 -0.204695 -1.030413
    16 1.719583 0.000004 0.000000 0.018838 -0.007916 -1.539002
    17 1.209183 -0.000001 0.000008 0.008062 -0.008108 -0.998649
    18 3.871292 0.117424 1.300905 -0.020042 -0.190438 -1.160275
    19 1.719425 -0.000004 0.000002 0.101231 -0.032227 -1.611435
    20 1.099674 0.000004 -0.000004 0.042294 -0.053202 -0.907071
    21 0.838839 -0.300285 1.312777 -0.847487 -0.487805 -0.629244
    22 1.789783 -0.000002 0.000011 -0.000556 -0.003669 0.378873
    23 1.207006 0.000001 0.000004 -0.001696 -0.005420 0.664304
    24 2.059517 0.977922 -1.937661 -1.661569 1.286515 2.950147
    25 15.159338 -57.578723 -14.418990 0.085783 0.058030 -1.939749
    26 11.692570 -0.000004 0.000000 0.000000 0.000000 -0.735495
    27 11.481654 0.000000 0.000016 -1.610898 0.181262 -0.196406
    28 3.850428 0.126099 1.223438 0.218437 0.059429 -1.236277
    29 1.312562 0.000001 0.000000 0.013556 -0.052694 -0.660926
    30 0.729362 0.000000 0.000000 0.035126 -0.020663 -1.280268
    31 3.926355 0.316488 0.462502 0.078919 0.018325 -1.052031
    32 1.539096 0.000000 -0.000008 0.003022 -0.002131 -1.198664
    33 1.196321 0.000002 0.000011 0.004719 -0.004015 -1.294263
    34 3.881386 0.214694 -0.400257 -0.013550 -0.002191 -0.994617
    35 1.719579 0.000000 0.000000 -0.018227 0.009235 -1.467873
    36 1.209180 -0.000002 -0.000008 -0.009139 0.006871 -1.142228
    37 3.871304 0.117424 -1.300907 -0.078201 -0.025271 -1.087899
    38 1.719431 0.000000 -0.000004 -0.098412 0.040018 -1.533477
    39 1.099665 -0.000001 -0.000004 -0.043317 0.052396 -0.926108
    40 0.838848 -0.300291 -1.312786 1.038393 0.338527 -0.651145
    41 1.789780 -0.000002 0.000000 0.000000 0.003711 0.332742
    42 1.207002 0.000004 0.000000 0.000000 0.005668 0.612525
    43 -0.534583 0.295797 -0.001972 -1.591880 0.022078 -1.868741
    44 0.113788 -0.132996 14.720029 0.000000 0.000000 0.000000
    45 0.113787 -0.132980 9.513787 0.000000 0.000000 0.000000
    46 -0.000001 0.000004 0.000000 0.000000 0.000000 0.000000
    47 -0.000001 0.000000 0.000000 0.000000 0.000000 0.000000
    48 0.113791 -0.132973 16.481380 0.000000 0.000000 0.000000
    49 0.113788 -0.132973 18.076752 0.000000 0.000000 0.000000
    50 0.113789 -0.132969 19.676247 0.000013 0.000000 0.000000
    51 0.113791 -0.132980 21.255905 0.000000 0.000000 0.000000
    52 0.113788 -0.132980 22.869106 -0.000013 0.000000 0.000000
    53 0.113791 -0.132980 24.483315 0.000000 0.000000 0.000000
    54 0.113790 -0.132977 26.066456 0.000000 0.000000 0.000000
    55 0.113790 -0.132980 27.665100 0.000000 0.000000 0.000000
    56 4.717026 4.484177 33.327862 -0.012171 0.029553 -0.762254
    57 0.089302 4.272583 4.480568 -0.025184 0.000000 0.000000
    58 4.922175 -5.137234 33.583321 -0.043045 0.000000 -2.327265
    59 0.001394 4.167400 4.226917 -0.025184 0.000000 0.000000
    60 -4.578506 -5.283134 33.331905 0.000000 0.000000 2.438902
    61 0.269684 4.148857 4.474522 0.000000 0.000000 0.000000
    62 -4.409222 4.440941 33.338566 -0.055891 0.000000 0.763647
    63 -0.045498 4.393921 4.464542 -0.025120 0.000000 0.000000
    64 -4.439061 3.922569 13.956212 0.075659 -0.411864 0.634747
    65 0.113791 -0.132977 29.243565 0.000013 0.000000 0.000000
    66 0.000002 -16.000000 -57.000000 1.570788 0.000007 -0.000007
  time 14
    0 -0.533595 0.000000 38.566879 1.570796 0.000000 -1.570796
    1 0.000000 3.345131 -2.981898 1.570796 0.083193 1.570796
    2 3.995838 0.000000 0.000000 0.000000 0.000000 -0.028816
    3 3.520283 0.000000 0.000000 0.000000 0.000000 0.097307
    4 8.921463 0.000000 0.000000 0.000000 0.000000 0.186413
    5 2.059513 0.977920 1.937661 1.589740 -1.286515 2.950147
    6 36.923675 -70.634544 -10.130977 4.400385 -0.183705 0.342290
    7 11.692564 0.000000 0.000011 0.000000 0.000000 -0.745832
    8 11.481674 0.000001 -0.000034 1.329220 0.087758 0.746815
    9 3.850418 0.126099 -1.223440 -0.317316 -0.182678 -1.175166
    10 1.312561 0.000000 0.000000 -0.035210 0.041488 -1.113081
    11 0.729366 0.000004 0.000000 -0.013075 0.038597 -0.567715
    12 3.926350 0.316490 -0.462519 -0.168907 -0.159042 -1.089467
    13 1.539101 0.000000 -0.000002 -0.003295 0.001738 -1.334676
    14 1.196331 -0.000002 0.000000 -0.004291 0.004431 -1.200192
    15 3.881380 0.214687 0.400251 -0.056575 -0.204695 -1.030413
    16 1.719583 0.000004 0.000000 0.018838 -0.007916 -1.539002
    17 1.209183 -0.000001 0.000008 0.008062 -0.008108 -0.998649
    18 3.871292 0.117424 1.300905 -0.020042 -0.190438 -1.160275
    19 1.719425 -0.000004 0.000002 0.101231 -0.032227 -1.611435
    20 1.099674 0.000004 -0.000004 0.042294 -0.053202 -0.907071
    21 0.838839 -0.300285 1.312777 -0.847487 -0.487805 -0.629244
    22 1.789783 -0.000002 0.000011 -0.000556 -0.003669 0.378873
    23 1.207006 0.000001 0.000004 -0.001696 -0.005420 0.664304
    24 2.059517 0.977922 -1.937661 -1.661569 1.286515 2.950147
    25 15.159338 -57.578723 -14.418990 0.085783 0.058030 -1.939749
    26 11.692570 -0.000004 0.000000 0.000000 0.000000 -0.735495
    27 11.481654 0.000000 0.000016 -1.610898 0.181262 -0.196406
    28 3.850428 0.126099 1.223438 0.218437 0.059429 -1.236277
    29 1.312562 0.000001 0.000000 0.013556 -0.052694 -0.660926
    30 0.729362 0.000000 0.000000 0.035126 -0.020663 -1.280268
    31 3.926355 0.316488 0.462502 0.078919 0.018325 -1.052031
    32 1.539096 0.000000 -0.000008 0.003022 -0.002131 -1.198664
    33 1.196321 0.000002 0.000011 0.004719 -0.004015 -1.294263
    34 3.881386 0.214694 -0.400257 -0.013550 -0.002191 -0.994617
    35 1.719579 0.000000 0.000000 -0.018227 0.009235 -1.467873
    36 1.209180 -0.000002 -0.000008 -0.009139 0.006871 -1.142228
    37 3.871304 0.117424 -1.300907 -0.078201 -0.025271 -1.087899
    38 1.719431 0.000000 -0.000004 -0.098412 0.040018 -1.533477
    39 1.099665 -0.000001 -0.000004 -0.043317 0.052396 -0.926108
    40 0.838848 -0.300291 -1.312786 1.038393 0.338527 -0.651145
    41 1.789780 -0.000002 0.000000 0.000000 0.003711 0.332742
    42 1.207002 0.000004 0.000000 0.000000 0.005668 0.612525
    43 -0.534583 0.295797 -0.001972 -1.591880 0.022078 -1.868741
    44 0.113788 -0.132996 14.720029 0.000000 0.000000 0.000000
    45 0.113787 -0.132980 9.513787 0.000000 0.000000 0.000000
    46 -0.000001 0.000004 0.000000 0.000000 0.000000 0.000000
    47 -0.000001 0.000000 0.000000 0.000000 0.000000 0.000000
    48 0.113791 -0.132973 16.481380 0.000000 0.000000 0.000000
    49 0.113788 -0.132973 18.076752 0.000000 0.000000 0.000000
    50 0.113789 -0.132969 19.676247 0.000013 0.000000 0.000000
    51 0.113791 -0.132980 21.255905 0.000000 0.000000 0.000000
    52 0.113788 -0.132980 22.869106 -0.000013 0.000000 0.000000
    53 0.113791 -0.132980 24.483315 0.000000 0.000000 0.000000
    54 0.113790 -0.132977 26.066456 0.000000 0.000000 0.000000
    55 0.113790 -0.132980 27.665100 0.000000 0.000000 0.000000
    56 4.717026 4.484177 33.327862 0.019297 0.029553 -0.762254
    57 0.089302 4.272583 4.480568 -0.006583 0.000000 0.000000
    58 4.922175 -5.137234 33.583321 -0.011539 0.000000 -2.327265
    59 0.001394 4.167400 4.226917 -0.006584 0.000000 0.000000
    60 -4.578506 -5.283134 33.331905 0.000000 0.000000 2.438902
    61 0.269684 4.148857 4.474522 0.000000 0.000000 0.000000
    62 -4.409222 4.440941 33.338566 -0.015026 0.000000 0.763647
    63 -0.045498 4.393921 4.464542 -0.006552 0.000000 0.000000
    64 -4.439061 3.922569 13.956212 0.075659 -0.411864 0.634747
    65 0.113791 -0.132977 29.243565 0.000013 0.000000 0.000000
    66 0.000002 -16.000000 -57.000000 1.570788 0.000007 -0.000007
  time 15
    0 -0.533595 0.000000 38.566879 1.570796 0.000000 -1.570796
    1 0.000000 3.345131 -2.981898 1.570796 0.083193 1.570796
    2 3.995838 0.000000 0.000000 0.000000 0.000000 -0.028816
    3 3.520283 0.000000 0.000000 0.000000 0.000000 0.097307
    4 8.921463 0.000000 0.000000 0.000000 0.000000 0.186413
    5 2.059513 0.977920 1.937661 1.589740 -1.286515 2.950147
    6 36.923675 -70.634544 -10.130977 4.400385 -0.183705 0.342290
    7 11.692564 0.000000 0.000011 0.000000 0.000000 -0.745832
    8 11.481674 0.000001 -0.000034 1.329220 0.087758 0.746815
    9 3.850418 0.126099 -1.223440 -0.317316 -0.182678 -1.175166
    10 1.312561 0.000000 0.000000 -0.035210 0.041488 -1.113081
    11 0.729366 0.000004 0.000000 -0.013075 0.038597 -0.567715
    12 3.926350 0.316490 -0.462519 -0.168907 -0.159042 -1.089467
    13 1.539101 0.000000 -0.000002 -0.003295 0.001738 -1.334676
    14 1.196331 -0.000002 0.000000 -0.004291 0.004431 -1.200192
    15 3.881380 0.214687 0.400251 -0.056575 -0.204695 -1.030413
    16 1.719583 0.000004 0.000000 0.018838 -0.007916 -1.539002
    17 1.209183 -0.000001 0.000008 0.008062 -0.008108 -0.998649
    18 3.871292 0.117424 1.300905 -0.020042 -0.190438 -1.160275
    19 1.719425 -0.000004 0.000002 0.101231 -0.032227 -1.611435
    20 1.099674 0.000004 -0.000004 0.042294 -0.053202 -0.907071
    21 0.838839 -0.300285 1.312777 -0.847487 -0.487805 -0.629244
    22 1.789783 -0.000002 0.000011 -0.000556 -0.003669 0.378873
    23 1.207006 0.000001 0.000004 -0.001696 -0.005420 0.664304
    24 2.059517 0.977922 -1.937661 -1.661569 1.286515 2.950147
    25 15.159338 -57.578723 -14.418990 0.085783 0.058030 -1.939749
    26 11.692570 -0.000004 0.000000 0.000000 0.000000 -0.735495
    27 11.481654 0.000000 0.000016 -1.610898 0.181262 -0.196406
    28 3.850428 0.126099 1.223438 0.218437 0.059429 -1.236277
    29 1.312562 0.000001 0.000000 0.013556 -0.052694 -0.660926
    30 0.729362 0.000000 0.000000 0.035126 -0.020663 -1.280268
    31 3.926355 0.316488 0.462502 0.078919 0.018325 -1.052031
    32 1.539096 0.000000 -0.000008 0.003022 -0.002131 -1.198664
    33 1.196321 0.000002 0.000011 0.004719 -0.004015 -1.294263
    34 3.881386 0.214694 -0.400257 -0.013550 -0.002191 -0.994617
    35 1.719579 0.000000 0.000000 -0.018227 0.009235 -1.467873
    36 1.209180 -0.000002 -0.000008 -0.009139 0.006871 -1.142228
    37 3.871304 0.117424 -1.300907 -0.078201 -0.025271 -1.087899
    38 1.719431 0.000000 -0.000004 -0.098412 0.040018 -1.533477
    39 1.099665 -0.000001 -0.000004 -0.043317 0.052396 -0.926108
    40 0.838848 -0.300291 -1.312786 1.038393 0.338527 -0.651145
    41 1.789780 -0.000002 0.000000 0.000000 0.003711 0.332742
    42 1.207002 0.000004 0.000000 0.000000 0.005668 0.612525
    43 -0.534583 0.295797 -0.001972 -1.591880 0.022078 -1.868741
    44 0.113788 -0.132996 14.720029 0.000000 0.000000 0.000000
    45 0.113787 -0.132980 9.513787 0.000000 0.000000 0.000000
    46 -0.000001 0.000004 0.000000 0.000000 0.000000 0.000000
    47 -0.000001 0.000000 0.000000 0.000000 0.000000 0.000000
    48 0.113791 -0.132973 16.481380 0.000000 0.000000 0.000000
    49 0.113788 -0.132973 18.076752 0.000000 0.000000 0.000000
    50 0.113789 -0.132969 19.676247 0.000013 0.000000 0.000000
    51 0.113791 -0.132980 21.255905 0.000000 0.000000 0.000000
    52 0.113788 -0.132980 22.869106 -0.000013 0.000000 0.000000
    53 0.113791 -0.132980 24.483315 0.000000 0.000000 0.000000
    54 0.113790 -0.132977 26.066456 0.000000 0.000000 0.000000
    55 0.113790 -0.132980 27.665100 0.000000 0.000000 0.000000
    56 4.717026 4.484177 33.327862 0.030874 0.029553 -0.762254
    57 0.089302 4.272583 4.480568 0.000000 0.000000 0.000000
    58 4.922175 -5.137234 33.583321 0.000000 0.000000 -2.327265
    59 0.001394 4.167400 4.226917 0.000000 0.000000 0.000000
    60 -4.578506 -5.283134 33.331905 0.000000 0.000000 2.438902
    61 0.269684 4.148857 4.474522 0.000000 0.000000 0.000000
    62 -4.409222 4.440941 33.338566 0.000000 0.000000 0.763647
    63 -0.045498 4.393921 4.464542 0.000000 0.000000 0.000000
    64 -4.439061 3.922569 13.956212 0.075659 -0.411864 0.634747
    65 0.113791 -0.132977 29.243565 0.000013 0.000000 0.000000
    66 0.000002 -16.000000 -57.000000 1.570788 0.000007 -0.000007
end
