// Created by Crowbar 0.74
version 1
nodes
  0 "Root" -1
  1 "Main_Base" 0
  2 "Guns_Base" 1
  3 "R_Gun" 2
  4 "R_Gun_AtchPnt" 3
  5 "L_Gun" 2
  6 "L_Gun_AtchPnt" 5
end
skeleton
  time 0
    0 0.000000 -0.000002 37.173691 0.000000 0.000000 0.000000
    1 0.000000 -0.023742 -9.707077 0.000000 0.000000 0.000000
    2 7.122766 1.685086 0.000002 0.000000 0.000000 0.000000
    3 -21.245588 -0.005135 -0.000002 0.000000 0.000000 0.000000
    4 0.301132 -27.432880 1.425652 0.000000 0.000000 -3.141592
    5 7.098359 -0.005140 -0.000002 0.000000 0.000000 0.000000
    6 -0.068640 -27.421444 1.425652 0.000000 0.000000 -3.141592
end
triangles
guns
  1 6.355900 -12.872564 36.191299 0.577384 -0.577284 0.577384 0.300500 0.576300 1 1 1.000000
  1 6.355900 -14.125264 34.938599 0.577384 -0.577284 0.577384 0.304600 0.547100 1 1 1.000000
  1 7.608600 -12.872564 34.938599 0.577384 -0.577284 0.577384 0.313700 0.565400 1 1 1.000000
guns
  1 -6.206200 3.660935 36.191299 -0.707107 0.000000 0.707107 0.217400 0.794900 1 1 1.000000
  1 -7.458900 -12.872564 34.938599 -0.707107 0.000000 0.707107 0.204200 0.565400 1 1 1.000000
  1 -6.206200 -12.872564 36.191299 -0.707107 0.000000 0.707107 0.217400 0.576300 1 1 1.000000
guns
  1 -6.206200 3.660935 36.191299 -0.707107 0.000000 0.707107 0.217400 0.794900 1 1 1.000000
  1 -7.458900 3.660935 34.938599 -0.707107 0.000000 0.707107 0.204200 0.805800 1 1 1.000000
  1 -7.458900 -12.872564 34.938599 -0.707107 0.000000 0.707107 0.204200 0.565400 1 1 1.000000
guns
  1 -6.206200 -12.872564 36.191299 0.000000 -0.707107 0.707107 0.217400 0.576300 1 1 1.000000
  1 6.355900 -14.125264 34.938599 0.000000 -0.707107 0.707107 0.304600 0.547100 1 1 1.000000
  1 6.355900 -12.872564 36.191299 0.000000 -0.707107 0.707107 0.300500 0.576300 1 1 1.000000
guns
  1 -6.206200 -12.872564 36.191299 0.000000 -0.707107 0.707107 0.217400 0.576300 1 1 1.000000
  1 -6.206200 -14.125264 34.938599 0.000000 -0.707107 0.707107 0.213300 0.547100 1 1 1.000000
  1 6.355900 -14.125264 34.938599 0.000000 -0.707107 0.707107 0.304600 0.547100 1 1 1.000000
guns
  1 6.355900 -12.872564 36.191299 0.707107 0.000000 0.707107 0.300500 0.576300 1 1 1.000000
  1 7.608600 3.660935 34.938599 0.707107 0.000000 0.707107 0.313700 0.805800 1 1 1.000000
  1 6.355900 3.660935 36.191299 0.707107 0.000000 0.707107 0.300500 0.794900 1 1 1.000000
guns
  1 6.355900 -12.872564 36.191299 0.707107 0.000000 0.707107 0.300500 0.576300 1 1 1.000000
  1 7.608600 -12.872564 34.938599 0.707107 0.000000 0.707107 0.313700 0.565400 1 1 1.000000
  1 7.608600 3.660935 34.938599 0.707107 0.000000 0.707107 0.313700 0.805800 1 1 1.000000
guns
  1 -8.697200 13.399136 39.575397 0.000000 0.707107 0.707107 0.257300 0.990900 1 1 1.000000
  1 -8.697200 12.614535 40.360001 0.000000 0.707107 0.707107 0.257300 0.977500 1 1 1.000000
  1 8.837700 12.614535 40.360001 0.000000 0.707107 0.707107 0.362900 0.977500 1 1 1.000000
guns
  1 8.837700 12.614535 40.360001 0.000000 0.707107 0.707107 0.362900 0.977500 1 1 1.000000
  1 8.840200 13.399136 39.575397 0.000000 0.707107 0.707107 0.362900 0.990900 1 1 1.000000
  1 -8.697200 13.399136 39.575397 0.000000 0.707107 0.707107 0.257300 0.990900 1 1 1.000000
guns
  1 6.494700 8.547536 20.351099 0.000000 0.286403 -0.958109 0.465200 0.740900 1 1 1.000000
  1 -5.924600 8.547536 20.351099 0.000000 0.286403 -0.958109 0.539900 0.740900 1 1 1.000000
  1 -4.339100 11.956535 21.370298 0.000000 0.286403 -0.958109 0.530400 0.783800 1 1 1.000000
guns
  1 -4.339100 11.956535 21.370298 0.000000 0.286403 -0.958109 0.530400 0.783800 1 1 1.000000
  1 5.099600 11.956535 21.370298 0.000000 0.286403 -0.958109 0.473500 0.783700 1 1 1.000000
  1 6.494700 8.547536 20.351099 0.000000 0.286403 -0.958109 0.465200 0.740900 1 1 1.000000
guns
  1 -5.924600 8.547536 20.351099 -0.902529 0.341211 0.262709 0.553900 0.779800 1 1 1.000000
  1 -3.452400 8.547536 28.844599 -0.902529 0.341211 0.262709 0.539000 0.882000 1 1 1.000000
  1 -2.460200 11.956535 27.825399 -0.902529 0.341211 0.262709 0.519100 0.861600 1 1 1.000000
guns
  1 -2.460200 11.956535 27.825399 -0.902529 0.341211 0.262709 0.519100 0.861600 1 1 1.000000
  1 -4.339100 11.956535 21.370298 -0.902529 0.341211 0.262709 0.530400 0.783800 1 1 1.000000
  1 -5.924600 8.547536 20.351099 -0.902529 0.341211 0.262709 0.553900 0.779800 1 1 1.000000
guns
  1 3.929500 8.547536 28.844599 0.915582 0.291994 0.276494 0.466000 0.882500 1 1 1.000000
  1 6.494700 8.547536 20.351099 0.915582 0.291994 0.276494 0.450400 0.780300 1 1 1.000000
  1 5.099600 11.956535 21.370298 0.915582 0.291994 0.276494 0.473500 0.783700 1 1 1.000000
guns
  1 5.099600 11.956535 21.370298 0.915582 0.291994 0.276494 0.473500 0.783700 1 1 1.000000
  1 3.150000 11.956535 27.825399 0.915582 0.291994 0.276494 0.485300 0.861500 1 1 1.000000
  1 3.929500 8.547536 28.844599 0.915582 0.291994 0.276494 0.466000 0.882500 1 1 1.000000
guns
  1 -3.452400 8.547536 28.844599 0.000000 0.286495 0.958082 0.525000 0.904600 1 1 1.000000
  1 3.929500 8.547536 28.844599 0.000000 0.286495 0.958082 0.480600 0.904600 1 1 1.000000
  1 3.150000 11.956535 27.825399 0.000000 0.286495 0.958082 0.485300 0.861500 1 1 1.000000
guns
  1 3.150000 11.956535 27.825399 0.000000 0.286495 0.958082 0.485300 0.861500 1 1 1.000000
  1 -2.460200 11.956535 27.825399 0.000000 0.286495 0.958082 0.519100 0.861600 1 1 1.000000
  1 -3.452400 8.547536 28.844599 0.000000 0.286495 0.958082 0.525000 0.904600 1 1 1.000000
guns
  1 9.623000 7.762835 35.508301 0.000000 -0.707107 0.707107 0.429000 0.856800 1 1 1.000000
  1 6.929700 11.284936 39.030399 0.000000 -0.707107 0.707107 0.444400 0.916700 1 1 1.000000
  1 6.929600 7.762835 35.508301 0.000000 -0.707107 0.707107 0.444400 0.856800 1 1 1.000000
guns
  1 6.929700 11.284936 39.030399 0.000000 -0.707107 0.707107 0.444400 0.916700 1 1 1.000000
  1 9.623000 7.762835 35.508301 0.000000 -0.707107 0.707107 0.429000 0.856800 1 1 1.000000
  1 9.622300 11.284936 39.030399 0.000000 -0.707107 0.707107 0.429000 0.916700 1 1 1.000000
guns
  1 9.622300 11.284936 39.030399 0.000000 -0.707107 0.707107 0.429000 0.916700 1 1 1.000000
  1 8.837700 12.614535 40.360001 0.000000 -0.707107 0.707107 0.433700 0.939300 1 1 1.000000
  1 6.929700 11.284936 39.030399 0.000000 -0.707107 0.707107 0.444400 0.916700 1 1 1.000000
guns
  1 8.837700 12.614535 40.360001 0.000000 -0.707107 0.707107 0.433700 0.939300 1 1 1.000000
  1 9.622300 11.284936 39.030399 0.000000 -0.707107 0.707107 0.429000 0.916700 1 1 1.000000
  1 9.622300 12.059735 39.805199 0.000000 -0.707107 0.707107 0.429000 0.929900 1 1 1.000000
guns
  1 7.672100 -8.308965 19.864599 -1.000000 0.000000 -0.000100 0.102800 0.590900 1 1 1.000000
  1 7.670800 6.136635 35.508301 -1.000000 0.000000 -0.000100 0.186400 0.771900 1 1 1.000000
  1 7.672100 6.136635 19.729399 -1.000000 0.000000 -0.000100 0.186400 0.589300 1 1 1.000000
guns
  1 7.670800 6.136635 35.508301 -1.000000 0.000000 -0.000100 0.186400 0.771900 1 1 1.000000
  1 7.672100 -8.308965 19.864599 -1.000000 0.000000 -0.000100 0.102800 0.590900 1 1 1.000000
  1 7.670800 -8.308965 27.932699 -1.000000 0.000100 -0.000200 0.102800 0.684300 1 1 1.000000
guns
  1 7.670800 6.136635 35.508301 -1.000000 0.000000 -0.000100 0.186400 0.771900 1 1 1.000000
  1 7.670800 -8.308965 27.932699 -1.000000 0.000100 -0.000200 0.102800 0.684300 1 1 1.000000
  1 7.670800 -2.225565 34.016098 -1.000000 0.000000 0.000000 0.138000 0.754700 1 1 1.000000
guns
  1 7.670800 6.136635 35.508301 -1.000000 0.000000 -0.000100 0.186400 0.771900 1 1 1.000000
  1 7.670800 -2.225565 34.016098 -1.000000 0.000000 0.000000 0.138000 0.754700 1 1 1.000000
  1 7.670800 1.377035 35.508301 -1.000000 0.000000 0.000000 0.158800 0.771900 1 1 1.000000
guns
  1 -9.481800 1.377035 35.508301 0.000000 0.000000 1.000000 0.429000 0.780000 1 1 1.000000
  1 -7.529100 1.377035 35.508301 0.000000 0.000000 1.000000 0.440800 0.780000 1 1 1.000000
  1 -7.529100 6.136635 35.508301 0.000000 0.000000 1.000000 0.440800 0.837200 1 1 1.000000
guns
  1 -7.529100 6.136635 35.508301 0.000000 0.000000 1.000000 0.440800 0.837200 1 1 1.000000
  1 -9.481800 7.762835 35.508301 0.000000 0.000000 1.000000 0.429000 0.856800 1 1 1.000000
  1 -9.481800 1.377035 35.508301 0.000000 0.000000 1.000000 0.429000 0.780000 1 1 1.000000
guns
  1 -6.931000 7.762835 35.508301 0.000000 0.000000 1.000000 0.444400 0.856800 1 1 1.000000
  1 -9.481800 7.762835 35.508301 0.000000 0.000000 1.000000 0.429000 0.856800 1 1 1.000000
  1 -7.529100 6.136635 35.508301 0.000000 0.000000 1.000000 0.440800 0.837200 1 1 1.000000
guns
  1 -7.529100 6.136635 35.508301 0.000000 0.000000 1.000000 0.440800 0.837200 1 1 1.000000
  1 -6.931000 6.136635 35.508301 0.000000 0.000000 1.000000 0.444400 0.837300 1 1 1.000000
  1 -6.931000 7.762835 35.508301 0.000000 0.000000 1.000000 0.444400 0.856800 1 1 1.000000
guns
  1 -6.931000 6.136635 35.508301 1.000000 0.000000 0.000000 0.435300 0.948000 1 1 1.000000
  1 -6.931000 8.547536 34.723698 1.000000 0.000000 0.000000 0.440000 0.977000 1 1 1.000000
  1 -6.931000 7.762835 35.508301 1.000000 0.000000 0.000000 0.435300 0.967600 1 1 1.000000
guns
  1 -6.931000 6.136635 35.508301 1.000000 0.000000 0.000000 0.435300 0.948000 1 1 1.000000
  1 -6.931000 8.547536 32.383999 1.000000 0.000000 0.000000 0.454100 0.977000 1 1 1.000000
  1 -6.931000 8.547536 34.723698 1.000000 0.000000 0.000000 0.440000 0.977000 1 1 1.000000
guns
  1 -6.931000 6.136635 35.508301 1.000000 0.000000 0.000000 0.435300 0.948000 1 1 1.000000
  1 -6.931000 6.136635 32.383999 1.000000 0.000000 0.000000 0.454100 0.948000 1 1 1.000000
  1 -6.931000 8.547536 32.383999 1.000000 0.000000 0.000000 0.454100 0.977000 1 1 1.000000
guns
  1 -9.481800 8.547536 34.723698 -1.000000 0.000000 0.000000 0.088900 0.973000 1 1 1.000000
  1 -9.481800 1.377035 35.508301 -1.000000 0.000000 0.000000 0.130300 0.982100 1 1 1.000000
  1 -9.481800 7.762835 35.508301 -1.000000 0.000000 0.000000 0.093400 0.982100 1 1 1.000000
guns
  1 -9.481800 1.377035 35.508301 -1.000000 0.000000 0.000000 0.130300 0.982100 1 1 1.000000
  1 -9.481800 8.547536 34.723698 -1.000000 0.000000 0.000000 0.088900 0.973000 1 1 1.000000
  1 -9.481800 8.547536 18.064400 -1.000000 0.000000 0.000000 0.088900 0.780200 1 1 1.000000
guns
  1 -9.481800 8.547536 18.064400 -1.000000 0.000000 0.000000 0.088900 0.780200 1 1 1.000000
  1 -9.481800 -2.225565 34.016098 -1.000000 0.000000 0.000000 0.151200 0.964800 1 1 1.000000
  1 -9.481800 1.377035 35.508301 -1.000000 0.000000 0.000000 0.130300 0.982100 1 1 1.000000
guns
  1 -9.481800 8.547536 18.064400 -1.000000 0.000000 0.000000 0.088900 0.780200 1 1 1.000000
  1 -9.481800 -8.308965 27.932699 -1.000000 0.000000 0.000000 0.186400 0.894400 1 1 1.000000
  1 -9.481800 -2.225565 34.016098 -1.000000 0.000000 0.000000 0.151200 0.964800 1 1 1.000000
guns
  1 -9.481800 8.547536 18.064400 -1.000000 0.000000 0.000000 0.088900 0.780200 1 1 1.000000
  1 -9.481800 -8.308965 18.064400 -1.000000 0.000000 0.000000 0.186400 0.780200 1 1 1.000000
  1 -9.481800 -8.308965 27.932699 -1.000000 0.000000 0.000000 0.186400 0.894400 1 1 1.000000
guns
  1 6.930700 6.136635 35.508301 -1.000000 0.000000 0.000000 0.435300 0.948000 1 1 1.000000
  1 6.930700 8.547536 32.383999 -1.000000 0.000000 0.000000 0.454100 0.977000 1 1 1.000000
  1 6.930700 6.136635 32.383999 -1.000000 0.000000 0.000000 0.454100 0.948000 1 1 1.000000
guns
  1 6.930700 6.136635 35.508301 -1.000000 0.000000 0.000000 0.435300 0.948000 1 1 1.000000
  1 6.929600 8.547536 34.723698 -1.000000 -0.000600 -0.000500 0.440000 0.977000 1 1 1.000000
  1 6.930700 8.547536 32.383999 -1.000000 0.000000 0.000000 0.454100 0.977000 1 1 1.000000
guns
  1 6.930700 6.136635 35.508301 -1.000000 0.000000 0.000000 0.435300 0.948000 1 1 1.000000
  1 6.929600 7.762835 35.508301 -0.999999 -0.000700 -0.000700 0.435300 0.967600 1 1 1.000000
  1 6.929600 8.547536 34.723698 -1.000000 -0.000600 -0.000500 0.440000 0.977000 1 1 1.000000
guns
  1 -6.206200 -15.081365 22.527798 0.000000 -0.892781 -0.450490 0.318900 0.961000 1 1 1.000000
  1 6.355900 -14.555664 21.485899 0.000000 -0.892781 -0.450490 0.401900 0.945400 1 1 1.000000
  1 6.355900 -15.081365 22.527798 0.000000 -0.892781 -0.450490 0.401900 0.961000 1 1 1.000000
guns
  1 -6.206200 -15.081365 22.527798 0.000000 -0.892781 -0.450490 0.318900 0.961000 1 1 1.000000
  1 -6.206200 -14.555664 21.485899 0.000000 -0.892781 -0.450490 0.318900 0.945400 1 1 1.000000
  1 6.355900 -14.555664 21.485899 0.000000 -0.892781 -0.450490 0.401900 0.945400 1 1 1.000000
guns
  1 7.672100 6.136635 19.729399 0.000000 0.009400 0.999956 0.546500 0.363800 1 1 1.000000
  1 -7.529100 6.136635 19.729399 0.000000 0.009400 0.999956 0.455000 0.363800 1 1 1.000000
  1 -7.529100 -8.308965 19.864599 0.000000 0.009400 0.999956 0.455000 0.189800 1 1 1.000000
guns
  1 -7.529100 -8.308965 19.864599 0.000000 0.009400 0.999956 0.455000 0.189800 1 1 1.000000
  1 7.672100 -8.308965 19.864599 0.000000 0.009400 0.999956 0.546500 0.189800 1 1 1.000000
  1 7.672100 6.136635 19.729399 0.000000 0.009400 0.999956 0.546500 0.363800 1 1 1.000000
guns
  1 -6.931000 6.136635 32.383999 0.707107 0.000000 0.707107 0.454100 0.948000 1 1 1.000000
  1 -5.678400 8.547536 31.131298 0.707107 0.000000 0.707107 0.464800 0.977000 1 1 1.000000
  1 -6.931000 8.547536 32.383999 0.707107 0.000000 0.707107 0.454100 0.977000 1 1 1.000000
guns
  1 -6.931000 6.136635 32.383999 0.707107 0.000000 0.707107 0.454100 0.948000 1 1 1.000000
  1 -5.678400 6.136635 31.131298 0.707107 0.000000 0.707107 0.464800 0.948000 1 1 1.000000
  1 -5.678400 8.547536 31.131298 0.707107 0.000000 0.707107 0.464800 0.977000 1 1 1.000000
guns
  1 5.678100 6.136635 31.131298 0.000000 0.000000 1.000000 0.533200 0.948000 1 1 1.000000
  1 -5.678400 8.547536 31.131298 0.000000 0.000000 1.000000 0.464800 0.977000 1 1 1.000000
  1 -5.678400 6.136635 31.131298 0.000000 0.000000 1.000000 0.464800 0.948000 1 1 1.000000
guns
  1 5.678100 6.136635 31.131298 0.000000 0.000000 1.000000 0.533200 0.948000 1 1 1.000000
  1 5.678100 8.547536 31.131298 0.000000 0.000000 1.000000 0.533200 0.977000 1 1 1.000000
  1 -5.678400 8.547536 31.131298 0.000000 0.000000 1.000000 0.464800 0.977000 1 1 1.000000
guns
  1 -9.481800 8.547536 34.723698 0.000000 0.707107 -0.707107 0.429000 0.856800 1 1 1.000000
  1 -6.931000 12.069535 38.245800 0.000000 0.707107 -0.707107 0.444400 0.916700 1 1 1.000000
  1 -6.931000 8.547536 34.723698 0.000000 0.707107 -0.707107 0.444400 0.856800 1 1 1.000000
guns
  1 -6.931000 12.069535 38.245800 0.000000 0.707107 -0.707107 0.444400 0.916700 1 1 1.000000
  1 -9.481800 8.547536 34.723698 0.000000 0.707107 -0.707107 0.429000 0.856800 1 1 1.000000
  1 -9.481800 12.069535 38.245800 0.000000 0.707107 -0.707107 0.429000 0.916700 1 1 1.000000
guns
  1 -9.481800 12.069535 38.245800 0.000000 0.707107 -0.707107 0.429000 0.916700 1 1 1.000000
  1 -8.697200 13.399136 39.575397 0.000000 0.707107 -0.707107 0.433700 0.939300 1 1 1.000000
  1 -6.931000 12.069535 38.245800 0.000000 0.707107 -0.707107 0.444400 0.916700 1 1 1.000000
guns
  1 -8.697200 13.399136 39.575397 0.000000 0.707107 -0.707107 0.433700 0.939300 1 1 1.000000
  1 6.929700 12.069535 38.245800 0.000000 0.707107 -0.707107 0.527800 0.916700 1 1 1.000000
  1 -6.931000 12.069535 38.245800 0.000000 0.707107 -0.707107 0.444400 0.916700 1 1 1.000000
guns
  1 6.929700 12.069535 38.245800 0.000000 0.707107 -0.707107 0.527800 0.916700 1 1 1.000000
  1 -8.697200 13.399136 39.575397 0.000000 0.707107 -0.707107 0.433700 0.939300 1 1 1.000000
  1 8.840200 13.399136 39.575397 0.000000 0.707107 -0.707107 0.539300 0.939400 1 1 1.000000
guns
  1 -8.697200 13.399136 39.575397 0.000000 0.707107 -0.707107 0.433700 0.939300 1 1 1.000000
  1 -9.481800 12.069535 38.245800 0.000000 0.707107 -0.707107 0.429000 0.916700 1 1 1.000000
  1 -9.481800 12.844336 39.020599 0.000000 0.707107 -0.707107 0.429000 0.929900 1 1 1.000000
guns
  1 6.355900 3.660935 36.191299 0.577284 0.577384 0.577384 0.300500 0.794900 1 1 1.000000
  1 7.608600 3.660935 34.938599 0.577284 0.577384 0.577384 0.313700 0.805800 1 1 1.000000
  1 6.355900 4.913635 34.938599 0.577284 0.577384 0.577384 0.304600 0.824100 1 1 1.000000
guns
  1 6.930700 6.136635 32.383999 -0.707107 0.000000 0.707107 0.454100 0.948000 1 1 1.000000
  1 5.678100 8.547536 31.131298 -0.707107 0.000000 0.707107 0.464800 0.977000 1 1 1.000000
  1 5.678100 6.136635 31.131298 -0.707107 0.000000 0.707107 0.464800 0.948000 1 1 1.000000
guns
  1 6.930700 6.136635 32.383999 -0.707107 0.000000 0.707107 0.454100 0.948000 1 1 1.000000
  1 6.930700 8.547536 32.383999 -0.707107 0.000000 0.707107 0.454100 0.977000 1 1 1.000000
  1 5.678100 8.547536 31.131298 -0.707107 0.000000 0.707107 0.464800 0.977000 1 1 1.000000
guns
  1 6.929600 8.547536 34.723698 -1.000000 0.000000 0.000000 0.214100 0.990900 1 1 1.000000
  1 6.929600 7.762835 35.508301 -1.000000 0.000000 0.000000 0.214100 0.977500 1 1 1.000000
  1 6.929700 11.284936 39.030399 -1.000000 0.000000 0.000000 0.244100 0.977500 1 1 1.000000
guns
  1 6.929700 11.284936 39.030399 -1.000000 0.000000 0.000000 0.244100 0.977500 1 1 1.000000
  1 6.929700 12.069535 38.245800 -1.000000 0.000000 0.000000 0.244100 0.990900 1 1 1.000000
  1 6.929600 8.547536 34.723698 -1.000000 0.000000 0.000000 0.214100 0.990900 1 1 1.000000
guns
  1 6.929700 12.069535 38.245800 0.000000 -0.707107 -0.707107 0.257300 0.990900 1 1 1.000000
  1 6.929700 11.284936 39.030399 0.000000 -0.707107 -0.707107 0.257300 0.977500 1 1 1.000000
  1 -6.931000 11.284936 39.030399 0.000000 -0.707107 -0.707107 0.362900 0.977500 1 1 1.000000
guns
  1 -6.931000 11.284936 39.030399 0.000000 -0.707107 -0.707107 0.362900 0.977500 1 1 1.000000
  1 -6.931000 12.069535 38.245800 0.000000 -0.707107 -0.707107 0.362900 0.990900 1 1 1.000000
  1 6.929700 12.069535 38.245800 0.000000 -0.707107 -0.707107 0.257300 0.990900 1 1 1.000000
guns
  1 -6.931000 7.762835 35.508301 1.000000 0.000000 0.000000 0.406100 0.977600 1 1 1.000000
  1 -6.931000 8.547536 34.723698 1.000000 0.000000 0.000000 0.406100 0.990900 1 1 1.000000
  1 -6.931000 12.069535 38.245800 1.000000 0.000000 0.000000 0.376100 0.990900 1 1 1.000000
guns
  1 -6.931000 12.069535 38.245800 1.000000 0.000000 0.000000 0.376100 0.990900 1 1 1.000000
  1 -6.931000 11.284936 39.030399 1.000000 0.000000 0.000000 0.376100 0.977600 1 1 1.000000
  1 -6.931000 7.762835 35.508301 1.000000 0.000000 0.000000 0.406100 0.977600 1 1 1.000000
guns
  1 -6.206200 3.660935 36.191299 0.000000 0.000000 1.000000 0.217400 0.794900 1 1 1.000000
  1 6.355900 -12.872564 36.191299 0.000000 0.000000 1.000000 0.300500 0.576300 1 1 1.000000
  1 6.355900 3.660935 36.191299 0.000000 0.000000 1.000000 0.300500 0.794900 1 1 1.000000
guns
  1 -6.206200 3.660935 36.191299 0.000000 0.000000 1.000000 0.217400 0.794900 1 1 1.000000
  1 -6.206200 -12.872564 36.191299 0.000000 0.000000 1.000000 0.217400 0.576300 1 1 1.000000
  1 6.355900 -12.872564 36.191299 0.000000 0.000000 1.000000 0.300500 0.576300 1 1 1.000000
guns
  1 6.355900 3.660935 36.191299 0.000000 0.707107 0.707107 0.300500 0.794900 1 1 1.000000
  1 -6.206200 4.913635 34.938599 0.000000 0.707107 0.707107 0.213300 0.824100 1 1 1.000000
  1 -6.206200 3.660935 36.191299 0.000000 0.707107 0.707107 0.217400 0.794900 1 1 1.000000
guns
  1 6.355900 3.660935 36.191299 0.000000 0.707107 0.707107 0.300500 0.794900 1 1 1.000000
  1 6.355900 4.913635 34.938599 0.000000 0.707107 0.707107 0.304600 0.824100 1 1 1.000000
  1 -6.206200 4.913635 34.938599 0.000000 0.707107 0.707107 0.213300 0.824100 1 1 1.000000
guns
  1 -6.206200 4.913635 34.938599 -0.702594 0.702594 -0.112799 0.075800 0.539200 1 1 1.000000
  1 -7.458900 2.149135 25.521198 -0.702594 0.702594 -0.112799 0.099300 0.432800 1 1 1.000000
  1 -7.458900 3.660935 34.938599 -0.702594 0.702594 -0.112799 0.086200 0.545100 1 1 1.000000
guns
  1 -6.206200 4.913635 34.938599 -0.702594 0.702594 -0.112799 0.075800 0.539200 1 1 1.000000
  1 -6.206200 3.401835 25.521198 -0.702594 0.702594 -0.112799 0.088900 0.426900 1 1 1.000000
  1 -7.458900 2.149135 25.521198 -0.702594 0.702594 -0.112799 0.099300 0.432800 1 1 1.000000
guns
  1 -7.458900 3.660935 34.938599 -1.000000 0.000000 0.000000 0.096500 0.560700 1 1 1.000000
  1 -7.458900 -13.828665 22.527798 -1.000000 0.000000 0.000000 0.205500 0.378900 1 1 1.000000
  1 -7.458900 -12.872564 34.938599 -1.000000 0.000000 0.000000 0.205600 0.543500 1 1 1.000000
guns
  1 -7.458900 3.660935 34.938599 -1.000000 0.000000 0.000000 0.096500 0.560700 1 1 1.000000
  1 -7.458900 2.149135 25.521198 -1.000000 0.000000 0.000000 0.101600 0.435000 1 1 1.000000
  1 -7.458900 -13.828665 22.527798 -1.000000 0.000000 0.000000 0.205500 0.378900 1 1 1.000000
guns
  1 -7.458900 -12.872564 34.938599 -0.706060 -0.706060 0.054397 0.205600 0.543500 1 1 1.000000
  1 -6.206200 -15.081365 22.527798 -0.706060 -0.706060 0.054397 0.217400 0.377900 1 1 1.000000
  1 -6.206200 -14.125264 34.938599 -0.706060 -0.706060 0.054397 0.217400 0.542500 1 1 1.000000
guns
  1 -7.458900 -12.872564 34.938599 -0.706060 -0.706060 0.054397 0.205600 0.543500 1 1 1.000000
  1 -7.458900 -13.828665 22.527798 -0.706060 -0.706060 0.054397 0.205500 0.378900 1 1 1.000000
  1 -6.206200 -15.081365 22.527798 -0.706060 -0.706060 0.054397 0.217400 0.377900 1 1 1.000000
guns
  1 -6.206200 -14.125264 34.938599 0.000000 -0.997046 0.076804 0.217400 0.542500 1 1 1.000000
  1 6.355900 -15.081365 22.527798 0.000000 -0.997046 0.076804 0.300500 0.377900 1 1 1.000000
  1 6.355900 -14.125264 34.938599 0.000000 -0.997046 0.076804 0.300500 0.542500 1 1 1.000000
guns
  1 -6.206200 -14.125264 34.938599 0.000000 -0.997046 0.076804 0.217400 0.542500 1 1 1.000000
  1 -6.206200 -15.081365 22.527798 0.000000 -0.997046 0.076804 0.217400 0.377900 1 1 1.000000
  1 6.355900 -15.081365 22.527798 0.000000 -0.997046 0.076804 0.300500 0.377900 1 1 1.000000
guns
  1 6.355900 -14.125264 34.938599 0.706060 -0.706060 0.054397 0.300500 0.542500 1 1 1.000000
  1 7.608600 -13.828665 22.527798 0.706060 -0.706060 0.054397 0.312700 0.378700 1 1 1.000000
  1 7.608600 -12.872564 34.938599 0.706060 -0.706060 0.054397 0.312300 0.543300 1 1 1.000000
guns
  1 6.355900 -14.125264 34.938599 0.706060 -0.706060 0.054397 0.300500 0.542500 1 1 1.000000
  1 6.355900 -15.081365 22.527798 0.706060 -0.706060 0.054397 0.300500 0.377900 1 1 1.000000
  1 7.608600 -13.828665 22.527798 0.706060 -0.706060 0.054397 0.312700 0.378700 1 1 1.000000
guns
  1 7.608600 -12.872564 34.938599 1.000000 0.000000 0.000000 0.312300 0.543300 1 1 1.000000
  1 7.608600 2.149135 25.521198 1.000000 0.000000 0.000000 0.416700 0.436400 1 1 1.000000
  1 7.608600 3.660935 34.938599 1.000000 0.000000 0.000000 0.421200 0.562200 1 1 1.000000
guns
  1 7.608600 -12.872564 34.938599 1.000000 0.000000 0.000000 0.312300 0.543300 1 1 1.000000
  1 7.608600 -13.828665 22.527798 1.000000 0.000000 0.000000 0.312700 0.378700 1 1 1.000000
  1 7.608600 2.149135 25.521198 1.000000 0.000000 0.000000 0.416700 0.436400 1 1 1.000000
guns
  1 7.608600 3.660935 34.938599 0.702594 0.702594 -0.112799 0.430900 0.545700 1 1 1.000000
  1 6.355900 3.401835 25.521198 0.702594 0.702594 -0.112799 0.430200 0.427400 1 1 1.000000
  1 6.355900 4.913635 34.938599 0.702594 0.702594 -0.112799 0.441500 0.540500 1 1 1.000000
guns
  1 7.608600 3.660935 34.938599 0.702594 0.702594 -0.112799 0.430900 0.545700 1 1 1.000000
  1 7.608600 2.149135 25.521198 0.702594 0.702594 -0.112799 0.419700 0.432600 1 1 1.000000
  1 6.355900 3.401835 25.521198 0.702594 0.702594 -0.112799 0.430200 0.427400 1 1 1.000000
guns
  1 6.355900 4.913635 34.938599 0.000000 0.987360 -0.158494 0.401900 0.567700 1 1 1.000000
  1 -6.206200 3.401835 25.521198 0.000000 0.987360 -0.158494 0.318900 0.694100 1 1 1.000000
  1 -6.206200 4.913635 34.938599 0.000000 0.987360 -0.158494 0.318900 0.567700 1 1 1.000000
guns
  1 6.355900 4.913635 34.938599 0.000000 0.987360 -0.158494 0.401900 0.567700 1 1 1.000000
  1 6.355900 3.401835 25.521198 0.000000 0.987360 -0.158494 0.401900 0.694100 1 1 1.000000
  1 -6.206200 3.401835 25.521198 0.000000 0.987360 -0.158494 0.318900 0.694100 1 1 1.000000
guns
  1 6.355900 3.401835 25.521198 0.000000 0.707107 -0.707107 0.401900 0.694100 1 1 1.000000
  1 -6.206200 2.149135 24.268499 0.000000 0.707107 -0.707107 0.318900 0.717800 1 1 1.000000
  1 -6.206200 3.401835 25.521198 0.000000 0.707107 -0.707107 0.318900 0.694100 1 1 1.000000
guns
  1 6.355900 3.401835 25.521198 0.000000 0.707107 -0.707107 0.401900 0.694100 1 1 1.000000
  1 6.355900 2.149135 24.268499 0.000000 0.707107 -0.707107 0.401900 0.717800 1 1 1.000000
  1 -6.206200 2.149135 24.268499 0.000000 0.707107 -0.707107 0.318900 0.717800 1 1 1.000000
guns
  1 6.355900 2.149135 24.268499 0.000000 0.320515 -0.947243 0.401900 0.717800 1 1 1.000000
  1 -6.206200 -6.068465 21.487698 0.000000 0.320515 -0.947243 0.318900 0.832800 1 1 1.000000
  1 -6.206200 2.149135 24.268499 0.000000 0.320515 -0.947243 0.318900 0.717800 1 1 1.000000
guns
  1 6.355900 2.149135 24.268499 0.000000 0.320515 -0.947243 0.401900 0.717800 1 1 1.000000
  1 6.355900 -6.068465 21.487698 0.000000 0.320515 -0.947243 0.401900 0.832800 1 1 1.000000
  1 -6.206200 -6.068465 21.487698 0.000000 0.320515 -0.947243 0.318900 0.832800 1 1 1.000000
guns
  1 9.623600 1.377035 35.508301 0.000000 0.000000 1.000000 0.429000 0.780000 1 1 1.000000
  1 7.670800 6.136635 35.508301 0.000000 0.000000 1.000000 0.440800 0.837200 1 1 1.000000
  1 7.670800 1.377035 35.508301 0.000000 0.000000 1.000000 0.440800 0.780000 1 1 1.000000
guns
  1 7.670800 6.136635 35.508301 0.000000 0.000000 1.000000 0.440800 0.837200 1 1 1.000000
  1 9.623600 1.377035 35.508301 0.000000 0.000000 1.000000 0.429000 0.780000 1 1 1.000000
  1 9.623000 7.762835 35.508301 0.000000 0.000000 1.000000 0.429000 0.856800 1 1 1.000000
guns
  1 6.929600 7.762835 35.508301 0.000000 0.000000 1.000000 0.444400 0.856800 1 1 1.000000
  1 7.670800 6.136635 35.508301 0.000000 0.000000 1.000000 0.440800 0.837200 1 1 1.000000
  1 9.623000 7.762835 35.508301 0.000000 0.000000 1.000000 0.429000 0.856800 1 1 1.000000
guns
  1 7.670800 6.136635 35.508301 0.000000 0.000000 1.000000 0.440800 0.837200 1 1 1.000000
  1 6.929600 7.762835 35.508301 0.000000 0.000000 1.000000 0.444400 0.856800 1 1 1.000000
  1 6.930700 6.136635 35.508301 0.000000 0.000000 1.000000 0.444400 0.837300 1 1 1.000000
guns
  1 -7.458900 -13.828665 22.527798 -0.665997 -0.665997 -0.335999 0.200600 0.377800 1 1 1.000000
  1 -6.206200 -14.555664 21.485899 -0.665997 -0.665997 -0.335999 0.203000 0.357200 1 1 1.000000
  1 -6.206200 -15.081365 22.527798 -0.665997 -0.665997 -0.335999 0.205900 0.368700 1 1 1.000000
guns
  1 9.624800 -8.308965 18.064400 0.000000 -1.000000 0.000000 0.558300 0.166900 1 1 1.000000
  1 9.623600 -8.308965 27.932699 0.000000 -1.000000 0.000000 0.558300 0.285700 1 1 1.000000
  1 7.670800 -8.308965 27.932699 0.000000 -1.000000 0.000000 0.546500 0.285700 1 1 1.000000
guns
  1 7.670800 -8.308965 27.932699 0.000000 -1.000000 0.000000 0.546500 0.285700 1 1 1.000000
  1 7.672100 -8.308965 19.864599 0.000000 -1.000000 0.000000 0.546500 0.188600 1 1 1.000000
  1 9.624800 -8.308965 18.064400 0.000000 -1.000000 0.000000 0.558300 0.166900 1 1 1.000000
guns
  1 -9.481800 -8.308965 18.064400 0.000000 -1.000000 0.000000 0.443300 0.166900 1 1 1.000000
  1 9.624800 -8.308965 18.064400 0.000000 -1.000000 0.000000 0.558300 0.166900 1 1 1.000000
  1 7.672100 -8.308965 19.864599 0.000000 -1.000000 0.000000 0.546500 0.188600 1 1 1.000000
guns
  1 7.672100 -8.308965 19.864599 0.000000 -1.000000 0.000000 0.546500 0.188600 1 1 1.000000
  1 -7.529100 -8.308965 19.864599 0.000000 -1.000000 0.000000 0.455000 0.188600 1 1 1.000000
  1 -9.481800 -8.308965 18.064400 0.000000 -1.000000 0.000000 0.443300 0.166900 1 1 1.000000
guns
  1 -9.481800 -8.308965 18.064400 0.000000 -1.000000 0.000000 0.443300 0.166900 1 1 1.000000
  1 -7.529100 -8.308965 19.864599 0.000000 -1.000000 0.000000 0.455000 0.188600 1 1 1.000000
  1 -7.529100 -8.308965 27.932699 0.000000 -1.000000 0.000000 0.455000 0.285700 1 1 1.000000
guns
  1 -7.529100 -8.308965 27.932699 0.000000 -1.000000 0.000000 0.455000 0.285700 1 1 1.000000
  1 -9.481800 -8.308965 27.932699 0.000000 -1.000000 0.000000 0.443300 0.285700 1 1 1.000000
  1 -9.481800 -8.308965 18.064400 0.000000 -1.000000 0.000000 0.443300 0.166900 1 1 1.000000
guns
  1 -6.931000 8.547536 32.383999 0.000000 1.000000 0.000000 0.543300 0.733900 1 1 1.000000
  1 -9.481800 8.547536 34.723698 0.000000 1.000000 0.000000 0.558600 0.762000 1 1 1.000000
  1 -6.931000 8.547536 34.723698 0.000000 1.000000 0.000000 0.543300 0.762000 1 1 1.000000
guns
  1 -9.481800 8.547536 34.723698 0.000000 1.000000 0.000000 0.558600 0.762000 1 1 1.000000
  1 -6.931000 8.547536 32.383999 0.000000 1.000000 0.000000 0.543300 0.733900 1 1 1.000000
  1 -9.481800 8.547536 18.064400 0.000000 1.000000 0.000000 0.558600 0.561500 1 1 1.000000
guns
  1 -5.678400 8.547536 31.131298 0.000000 1.000000 0.000000 0.535700 0.718800 1 1 1.000000
  1 -9.481800 8.547536 18.064400 0.000000 1.000000 0.000000 0.558600 0.561500 1 1 1.000000
  1 -6.931000 8.547536 32.383999 0.000000 1.000000 0.000000 0.543300 0.733900 1 1 1.000000
guns
  1 6.929600 8.547536 34.723698 0.000000 1.000000 0.000000 0.459800 0.762000 1 1 1.000000
  1 9.624200 8.547536 34.723698 0.000000 1.000000 0.000000 0.443600 0.762000 1 1 1.000000
  1 6.930700 8.547536 32.383999 0.000000 1.000000 0.000000 0.459800 0.733900 1 1 1.000000
guns
  1 6.930700 8.547536 32.383999 0.000000 1.000000 0.000000 0.459800 0.733900 1 1 1.000000
  1 9.624200 8.547536 34.723698 0.000000 1.000000 0.000000 0.443600 0.762000 1 1 1.000000
  1 9.624800 8.547536 18.064400 0.000000 1.000000 0.000000 0.443600 0.561500 1 1 1.000000
guns
  1 9.624800 8.547536 18.064400 0.000000 1.000000 0.000000 0.443600 0.561500 1 1 1.000000
  1 5.678100 8.547536 31.131298 0.000000 1.000000 0.000000 0.467400 0.718800 1 1 1.000000
  1 6.930700 8.547536 32.383999 0.000000 1.000000 0.000000 0.459800 0.733900 1 1 1.000000
guns
  1 5.678100 8.547536 31.131298 0.000000 1.000000 0.000000 0.467400 0.718800 1 1 1.000000
  1 9.624800 8.547536 18.064400 0.000000 1.000000 0.000000 0.443600 0.561500 1 1 1.000000
  1 6.494700 8.547536 20.351099 0.000000 1.000000 0.000000 0.462500 0.589000 1 1 1.000000
guns
  1 -5.924600 8.547536 20.351099 0.000000 1.000000 0.000000 0.537200 0.589000 1 1 1.000000
  1 6.494700 8.547536 20.351099 0.000000 1.000000 0.000000 0.462500 0.589000 1 1 1.000000
  1 9.624800 8.547536 18.064400 0.000000 1.000000 0.000000 0.443600 0.561500 1 1 1.000000
guns
  1 9.624800 8.547536 18.064400 0.000000 1.000000 0.000000 0.443600 0.561500 1 1 1.000000
  1 -9.481800 8.547536 18.064400 0.000000 1.000000 0.000000 0.558600 0.561500 1 1 1.000000
  1 -5.924600 8.547536 20.351099 0.000000 1.000000 0.000000 0.537200 0.589000 1 1 1.000000
guns
  1 -3.452400 8.547536 28.844599 0.000000 1.000000 0.000000 0.522300 0.691300 1 1 1.000000
  1 -5.924600 8.547536 20.351099 0.000000 1.000000 0.000000 0.537200 0.589000 1 1 1.000000
  1 -9.481800 8.547536 18.064400 0.000000 1.000000 0.000000 0.558600 0.561500 1 1 1.000000
guns
  1 -9.481800 8.547536 18.064400 0.000000 1.000000 0.000000 0.558600 0.561500 1 1 1.000000
  1 -5.678400 8.547536 31.131298 0.000000 1.000000 0.000000 0.535700 0.718800 1 1 1.000000
  1 -3.452400 8.547536 28.844599 0.000000 1.000000 0.000000 0.522300 0.691300 1 1 1.000000
guns
  1 3.929500 8.547536 28.844599 0.000000 1.000000 0.000000 0.477900 0.691300 1 1 1.000000
  1 -3.452400 8.547536 28.844599 0.000000 1.000000 0.000000 0.522300 0.691300 1 1 1.000000
  1 -5.678400 8.547536 31.131298 0.000000 1.000000 0.000000 0.535700 0.718800 1 1 1.000000
guns
  1 -5.678400 8.547536 31.131298 0.000000 1.000000 0.000000 0.535700 0.718800 1 1 1.000000
  1 5.678100 8.547536 31.131298 0.000000 1.000000 0.000000 0.467400 0.718800 1 1 1.000000
  1 3.929500 8.547536 28.844599 0.000000 1.000000 0.000000 0.477900 0.691300 1 1 1.000000
guns
  1 6.494700 8.547536 20.351099 0.000000 1.000000 0.000000 0.462500 0.589000 1 1 1.000000
  1 3.929500 8.547536 28.844599 0.000000 1.000000 0.000000 0.477900 0.691300 1 1 1.000000
  1 5.678100 8.547536 31.131298 0.000000 1.000000 0.000000 0.467400 0.718800 1 1 1.000000
guns
  1 7.608600 -13.828665 22.527798 0.940675 0.108797 -0.321392 0.319400 0.370800 1 1 1.000000
  1 6.355900 -6.068465 21.487698 0.940675 0.108797 -0.321392 0.370300 0.364200 1 1 1.000000
  1 6.355900 2.149135 24.268499 0.940675 0.108797 -0.321392 0.422200 0.410600 1 1 1.000000
guns
  1 -7.529100 6.136635 19.729399 0.000000 -1.000000 0.000000 0.455000 0.363800 1 1 1.000000
  1 -6.931000 6.136635 35.508301 0.000000 -1.000000 0.000000 0.458600 0.554000 1 1 1.000000
  1 -7.529100 6.136635 35.508301 0.000000 -1.000000 0.000000 0.455000 0.554000 1 1 1.000000
guns
  1 -7.529100 6.136635 19.729399 0.000000 -1.000000 0.000000 0.455000 0.363800 1 1 1.000000
  1 -6.931000 6.136635 32.383999 0.000000 -1.000000 0.000000 0.458600 0.516400 1 1 1.000000
  1 -6.931000 6.136635 35.508301 0.000000 -1.000000 0.000000 0.458600 0.554000 1 1 1.000000
guns
  1 -7.529100 6.136635 19.729399 0.000000 -1.000000 0.000000 0.455000 0.363800 1 1 1.000000
  1 -5.678400 6.136635 31.131298 0.000000 -1.000000 0.000000 0.466200 0.501300 1 1 1.000000
  1 -6.931000 6.136635 32.383999 0.000000 -1.000000 0.000000 0.458600 0.516400 1 1 1.000000
guns
  1 -7.529100 6.136635 19.729399 0.000000 -1.000000 0.000000 0.455000 0.363800 1 1 1.000000
  1 7.672100 6.136635 19.729399 0.000000 -1.000000 0.000000 0.546500 0.363800 1 1 1.000000
  1 -5.678400 6.136635 31.131298 0.000000 -1.000000 0.000000 0.466200 0.501300 1 1 1.000000
guns
  1 5.678100 6.136635 31.131298 0.000000 -1.000000 0.000000 0.534500 0.501300 1 1 1.000000
  1 -5.678400 6.136635 31.131298 0.000000 -1.000000 0.000000 0.466200 0.501300 1 1 1.000000
  1 7.672100 6.136635 19.729399 0.000000 -1.000000 0.000000 0.546500 0.363800 1 1 1.000000
guns
  1 5.678100 6.136635 31.131298 0.000000 -1.000000 0.000000 0.534500 0.501300 1 1 1.000000
  1 7.672100 6.136635 19.729399 0.000000 -1.000000 0.000000 0.546500 0.363800 1 1 1.000000
  1 6.930700 6.136635 32.383999 0.000000 -1.000000 0.000000 0.542100 0.516400 1 1 1.000000
guns
  1 6.930700 6.136635 35.508301 0.000000 -1.000000 0.000000 0.542100 0.554000 1 1 1.000000
  1 6.930700 6.136635 32.383999 0.000000 -1.000000 0.000000 0.542100 0.516400 1 1 1.000000
  1 7.672100 6.136635 19.729399 0.000000 -1.000000 0.000000 0.546500 0.363800 1 1 1.000000
guns
  1 7.672100 6.136635 19.729399 0.000000 -1.000000 0.000000 0.546500 0.363800 1 1 1.000000
  1 7.670800 6.136635 35.508301 0.000000 -1.000000 0.000000 0.546500 0.554000 1 1 1.000000
  1 6.930700 6.136635 35.508301 0.000000 -1.000000 0.000000 0.542100 0.554000 1 1 1.000000
guns
  1 10.854200 1.740235 27.466299 1.000000 0.000000 0.000000 0.264500 0.910300 1 1 1.000000
  1 10.854200 -2.570665 30.598299 1.000000 0.000000 0.000000 0.244500 0.939300 1 1 1.000000
  1 10.854200 -3.588265 27.466299 1.000000 0.000000 0.000000 0.239800 0.910300 1 1 1.000000
guns
  1 10.854200 1.740235 27.466299 1.000000 0.000000 0.000000 0.264500 0.910300 1 1 1.000000
  1 10.854200 0.093635 32.533997 1.000000 0.000000 0.000000 0.256900 0.957200 1 1 1.000000
  1 10.854200 -2.570665 30.598299 1.000000 0.000000 0.000000 0.244500 0.939300 1 1 1.000000
guns
  1 10.854200 1.740235 27.466299 1.000000 0.000000 0.000000 0.264500 0.910300 1 1 1.000000
  1 10.854200 3.386835 32.533997 1.000000 0.000000 0.000000 0.272100 0.957200 1 1 1.000000
  1 10.854200 0.093635 32.533997 1.000000 0.000000 0.000000 0.256900 0.957200 1 1 1.000000
guns
  1 10.854200 1.740235 27.466299 1.000000 0.000000 0.000000 0.264500 0.910300 1 1 1.000000
  1 10.854200 6.051135 30.598299 1.000000 0.000000 0.000000 0.284500 0.939300 1 1 1.000000
  1 10.854200 3.386835 32.533997 1.000000 0.000000 0.000000 0.272100 0.957200 1 1 1.000000
guns
  1 10.854200 1.740235 27.466299 1.000000 0.000000 0.000000 0.264500 0.910300 1 1 1.000000
  1 10.854200 7.068735 27.466299 1.000000 0.000000 0.000000 0.289200 0.910300 1 1 1.000000
  1 10.854200 6.051135 30.598299 1.000000 0.000000 0.000000 0.284500 0.939300 1 1 1.000000
guns
  1 10.854200 1.740235 27.466299 1.000000 0.000000 0.000000 0.264500 0.910300 1 1 1.000000
  1 10.854200 6.051135 24.334299 1.000000 0.000000 0.000000 0.284500 0.881300 1 1 1.000000
  1 10.854200 7.068735 27.466299 1.000000 0.000000 0.000000 0.289200 0.910300 1 1 1.000000
guns
  1 10.854200 1.740235 27.466299 1.000000 0.000000 0.000000 0.264500 0.910300 1 1 1.000000
  1 10.854200 3.386835 22.398598 1.000000 0.000000 0.000000 0.272100 0.863400 1 1 1.000000
  1 10.854200 6.051135 24.334299 1.000000 0.000000 0.000000 0.284500 0.881300 1 1 1.000000
guns
  1 10.854200 1.740235 27.466299 1.000000 0.000000 0.000000 0.264500 0.910300 1 1 1.000000
  1 10.854200 0.093635 22.398598 1.000000 0.000000 0.000000 0.256900 0.863400 1 1 1.000000
  1 10.854200 3.386835 22.398598 1.000000 0.000000 0.000000 0.272100 0.863400 1 1 1.000000
guns
  1 10.854200 1.740235 27.466299 1.000000 0.000000 0.000000 0.264500 0.910300 1 1 1.000000
  1 10.854200 -2.570665 24.334299 1.000000 0.000000 0.000000 0.244500 0.881300 1 1 1.000000
  1 10.854200 0.093635 22.398598 1.000000 0.000000 0.000000 0.256900 0.863400 1 1 1.000000
guns
  1 10.854200 1.740235 27.466299 1.000000 0.000000 0.000000 0.264500 0.910300 1 1 1.000000
  1 10.854200 -3.588265 27.466299 1.000000 0.000000 0.000000 0.239800 0.910300 1 1 1.000000
  1 10.854200 -2.570665 24.334299 1.000000 0.000000 0.000000 0.244500 0.881300 1 1 1.000000
guns
  1 -10.786300 1.740235 27.466299 -1.000000 0.000000 0.000000 0.264500 0.910300 1 1 1.000000
  1 -10.700900 -3.588265 27.466299 -0.999872 -0.016000 0.000000 0.239800 0.910300 1 1 1.000000
  1 -10.700900 -2.570665 30.598299 -0.999871 -0.013000 0.009400 0.244500 0.939300 1 1 1.000000
guns
  1 -10.786300 1.740235 27.466299 -1.000000 0.000000 0.000000 0.264500 0.910300 1 1 1.000000
  1 -10.700900 -2.570665 24.334299 -0.999871 -0.013000 -0.009400 0.244500 0.881300 1 1 1.000000
  1 -10.700900 -3.588265 27.466299 -0.999872 -0.016000 0.000000 0.239800 0.910300 1 1 1.000000
guns
  1 -10.786300 1.740235 27.466299 -1.000000 0.000000 0.000000 0.264500 0.910300 1 1 1.000000
  1 -10.700900 0.093635 22.398598 -0.999872 -0.005000 -0.015200 0.256900 0.863400 1 1 1.000000
  1 -10.700900 -2.570665 24.334299 -0.999871 -0.013000 -0.009400 0.244500 0.881300 1 1 1.000000
guns
  1 -10.786300 1.740235 27.466299 -1.000000 0.000000 0.000000 0.264500 0.910300 1 1 1.000000
  1 -10.700900 3.386835 22.398598 -0.999872 0.005000 -0.015200 0.272100 0.863400 1 1 1.000000
  1 -10.700900 0.093635 22.398598 -0.999872 -0.005000 -0.015200 0.256900 0.863400 1 1 1.000000
guns
  1 -10.786300 1.740235 27.466299 -1.000000 0.000000 0.000000 0.264500 0.910300 1 1 1.000000
  1 -10.700900 6.051135 24.334299 -0.999871 0.013000 -0.009400 0.284500 0.881300 1 1 1.000000
  1 -10.700900 3.386835 22.398598 -0.999872 0.005000 -0.015200 0.272100 0.863400 1 1 1.000000
guns
  1 -10.786300 1.740235 27.466299 -1.000000 0.000000 0.000000 0.264500 0.910300 1 1 1.000000
  1 -10.700900 7.068735 27.466299 -0.999872 0.016000 0.000000 0.289200 0.910300 1 1 1.000000
  1 -10.700900 6.051135 24.334299 -0.999871 0.013000 -0.009400 0.284500 0.881300 1 1 1.000000
guns
  1 -10.786300 1.740235 27.466299 -1.000000 0.000000 0.000000 0.264500 0.910300 1 1 1.000000
  1 -10.700900 6.051135 30.598299 -0.999871 0.013000 0.009400 0.284500 0.939300 1 1 1.000000
  1 -10.700900 7.068735 27.466299 -0.999872 0.016000 0.000000 0.289200 0.910300 1 1 1.000000
guns
  1 -10.786300 1.740235 27.466299 -1.000000 0.000000 0.000000 0.264500 0.910300 1 1 1.000000
  1 -10.700900 3.386835 32.533997 -0.999872 0.005000 0.015200 0.272100 0.957200 1 1 1.000000
  1 -10.700900 6.051135 30.598299 -0.999871 0.013000 0.009400 0.284500 0.939300 1 1 1.000000
guns
  1 -10.786300 1.740235 27.466299 -1.000000 0.000000 0.000000 0.264500 0.910300 1 1 1.000000
  1 -10.700900 0.093635 32.533997 -0.999872 -0.005000 0.015200 0.256900 0.957200 1 1 1.000000
  1 -10.700900 3.386835 32.533997 -0.999872 0.005000 0.015200 0.272100 0.957200 1 1 1.000000
guns
  1 -10.786300 1.740235 27.466299 -1.000000 0.000000 0.000000 0.264500 0.910300 1 1 1.000000
  1 -10.700900 -2.570665 30.598299 -0.999871 -0.013000 0.009400 0.244500 0.939300 1 1 1.000000
  1 -10.700900 0.093635 32.533997 -0.999872 -0.005000 0.015200 0.256900 0.957200 1 1 1.000000
guns
  1 9.650100 6.051135 30.598299 0.000000 0.867584 0.497291 0.411300 0.878200 1 1 1.000000
  1 10.854200 7.068735 27.466299 0.000000 0.994184 0.107698 0.416900 0.908700 1 1 1.000000
  1 9.650100 7.068735 27.466299 0.000000 0.994184 -0.107698 0.411300 0.908700 1 1 1.000000
guns
  1 9.650100 6.051135 30.598299 0.000000 0.867584 0.497291 0.411300 0.878200 1 1 1.000000
  1 10.854200 6.051135 30.598299 0.000000 0.741002 0.671502 0.416900 0.878200 1 1 1.000000
  1 10.854200 7.068735 27.466299 0.000000 0.994184 0.107698 0.416900 0.908700 1 1 1.000000
guns
  1 9.650100 3.386835 32.533997 0.000000 0.409587 0.912271 0.411300 0.847700 1 1 1.000000
  1 10.854200 6.051135 30.598299 0.000000 0.741002 0.671502 0.416900 0.878200 1 1 1.000000
  1 9.650100 6.051135 30.598299 0.000000 0.867584 0.497291 0.411300 0.878200 1 1 1.000000
guns
  1 9.650100 3.386835 32.533997 0.000000 0.409587 0.912271 0.411300 0.847700 1 1 1.000000
  1 10.854200 3.386835 32.533997 0.000000 0.204801 0.978804 0.416900 0.847700 1 1 1.000000
  1 10.854200 6.051135 30.598299 0.000000 0.741002 0.671502 0.416900 0.878200 1 1 1.000000
guns
  1 9.650100 0.093635 32.533997 0.000000 -0.204801 0.978804 0.411300 0.817300 1 1 1.000000
  1 10.854200 3.386835 32.533997 0.000000 0.204801 0.978804 0.416900 0.847700 1 1 1.000000
  1 9.650100 3.386835 32.533997 0.000000 0.409587 0.912271 0.411300 0.847700 1 1 1.000000
guns
  1 9.650100 0.093635 32.533997 0.000000 -0.204801 0.978804 0.411300 0.817300 1 1 1.000000
  1 10.854200 0.093635 32.533997 0.000000 -0.409587 0.912271 0.416900 0.817300 1 1 1.000000
  1 10.854200 3.386835 32.533997 0.000000 0.204801 0.978804 0.416900 0.847700 1 1 1.000000
guns
  1 9.650100 -2.570665 30.598299 0.000000 -0.741002 0.671502 0.411300 0.786700 1 1 1.000000
  1 10.854200 0.093635 32.533997 0.000000 -0.409587 0.912271 0.416900 0.817300 1 1 1.000000
  1 9.650100 0.093635 32.533997 0.000000 -0.204801 0.978804 0.411300 0.817300 1 1 1.000000
guns
  1 9.650100 -2.570665 30.598299 0.000000 -0.741002 0.671502 0.411300 0.786700 1 1 1.000000
  1 10.854200 -2.570665 30.598299 0.000000 -0.867584 0.497291 0.416900 0.786700 1 1 1.000000
  1 10.854200 0.093635 32.533997 0.000000 -0.409587 0.912271 0.416900 0.817300 1 1 1.000000
guns
  1 9.650100 -3.588265 27.466299 0.000000 -0.994184 0.107698 0.411300 0.756200 1 1 1.000000
  1 10.854200 -2.570665 30.598299 0.000000 -0.867584 0.497291 0.416900 0.786700 1 1 1.000000
  1 9.650100 -2.570665 30.598299 0.000000 -0.741002 0.671502 0.411300 0.786700 1 1 1.000000
guns
  1 9.650100 -3.588265 27.466299 0.000000 -0.994184 0.107698 0.411300 0.756200 1 1 1.000000
  1 10.854200 -3.588265 27.466299 0.000000 -0.994184 -0.107698 0.416900 0.756200 1 1 1.000000
  1 10.854200 -2.570665 30.598299 0.000000 -0.867584 0.497291 0.416900 0.786700 1 1 1.000000
guns
  1 9.650100 -2.570665 24.334299 0.000000 -0.867584 -0.497291 0.411300 0.725700 1 1 1.000000
  1 10.854200 -3.588265 27.466299 0.000000 -0.994184 -0.107698 0.416900 0.756200 1 1 1.000000
  1 9.650100 -3.588265 27.466299 0.000000 -0.994184 0.107698 0.411300 0.756200 1 1 1.000000
guns
  1 9.650100 -2.570665 24.334299 0.000000 -0.867584 -0.497291 0.411300 0.725700 1 1 1.000000
  1 10.854200 -2.570665 24.334299 0.000000 -0.741002 -0.671502 0.416900 0.725700 1 1 1.000000
  1 10.854200 -3.588265 27.466299 0.000000 -0.994184 -0.107698 0.416900 0.756200 1 1 1.000000
guns
  1 9.650100 0.093635 22.398598 0.000000 -0.409587 -0.912271 0.411300 0.695100 1 1 1.000000
  1 10.854200 -2.570665 24.334299 0.000000 -0.741002 -0.671502 0.416900 0.725700 1 1 1.000000
  1 9.650100 -2.570665 24.334299 0.000000 -0.867584 -0.497291 0.411300 0.725700 1 1 1.000000
guns
  1 9.650100 0.093635 22.398598 0.000000 -0.409587 -0.912271 0.411300 0.695100 1 1 1.000000
  1 10.854200 0.093635 22.398598 0.000000 -0.204801 -0.978804 0.416900 0.695100 1 1 1.000000
  1 10.854200 -2.570665 24.334299 0.000000 -0.741002 -0.671502 0.416900 0.725700 1 1 1.000000
guns
  1 9.650100 3.386835 22.398598 0.000000 0.204801 -0.978804 0.411300 0.664600 1 1 1.000000
  1 10.854200 0.093635 22.398598 0.000000 -0.204801 -0.978804 0.416900 0.695100 1 1 1.000000
  1 9.650100 0.093635 22.398598 0.000000 -0.409587 -0.912271 0.411300 0.695100 1 1 1.000000
guns
  1 9.650100 3.386835 22.398598 0.000000 0.204801 -0.978804 0.411300 0.664600 1 1 1.000000
  1 10.854200 3.386835 22.398598 0.000000 0.409587 -0.912271 0.416900 0.664600 1 1 1.000000
  1 10.854200 0.093635 22.398598 0.000000 -0.204801 -0.978804 0.416900 0.695100 1 1 1.000000
guns
  1 9.650100 6.051135 24.334299 0.000000 0.741002 -0.671502 0.411300 0.634200 1 1 1.000000
  1 10.854200 3.386835 22.398598 0.000000 0.409587 -0.912271 0.416900 0.664600 1 1 1.000000
  1 9.650100 3.386835 22.398598 0.000000 0.204801 -0.978804 0.411300 0.664600 1 1 1.000000
guns
  1 9.650100 6.051135 24.334299 0.000000 0.741002 -0.671502 0.411300 0.634200 1 1 1.000000
  1 10.854200 6.051135 24.334299 0.000000 0.867584 -0.497291 0.416900 0.634200 1 1 1.000000
  1 10.854200 3.386835 22.398598 0.000000 0.409587 -0.912271 0.416900 0.664600 1 1 1.000000
guns
  1 9.650100 7.068735 27.466299 0.000000 0.994184 -0.107698 0.411300 0.603700 1 1 1.000000
  1 10.854200 6.051135 24.334299 0.000000 0.867584 -0.497291 0.416900 0.634200 1 1 1.000000
  1 9.650100 6.051135 24.334299 0.000000 0.741002 -0.671502 0.411300 0.634200 1 1 1.000000
guns
  1 9.650100 7.068735 27.466299 0.000000 0.994184 -0.107698 0.411300 0.603700 1 1 1.000000
  1 10.854200 7.068735 27.466299 0.000000 0.994184 0.107698 0.416900 0.603700 1 1 1.000000
  1 10.854200 6.051135 24.334299 0.000000 0.867584 -0.497291 0.416900 0.634200 1 1 1.000000
guns
  1 -7.458900 2.149135 25.521198 -0.687696 0.232699 -0.687696 0.099300 0.432800 1 1 1.000000
  1 -6.206200 2.149135 24.268499 -0.687696 0.232699 -0.687696 0.097200 0.410700 1 1 1.000000
  1 -6.206200 -6.068465 21.487698 -0.687696 0.232699 -0.687696 0.149800 0.367800 1 1 1.000000
guns
  1 -9.496800 7.068735 27.466299 0.000000 0.994184 -0.107698 0.411300 0.603700 1 1 1.000000
  1 -10.700900 6.051135 24.334299 0.000000 0.867584 -0.497291 0.416900 0.634200 1 1 1.000000
  1 -10.700900 7.068735 27.466299 0.000000 0.994184 0.107698 0.416900 0.603700 1 1 1.000000
guns
  1 -9.496800 7.068735 27.466299 0.000000 0.994184 -0.107698 0.411300 0.603700 1 1 1.000000
  1 -9.496800 6.051135 24.334299 0.000000 0.741002 -0.671502 0.411300 0.634200 1 1 1.000000
  1 -10.700900 6.051135 24.334299 0.000000 0.867584 -0.497291 0.416900 0.634200 1 1 1.000000
guns
  1 -9.496800 6.051135 24.334299 0.000000 0.741002 -0.671502 0.411300 0.634200 1 1 1.000000
  1 -10.700900 3.386835 22.398598 0.000000 0.409587 -0.912271 0.416900 0.664600 1 1 1.000000
  1 -10.700900 6.051135 24.334299 0.000000 0.867584 -0.497291 0.416900 0.634200 1 1 1.000000
guns
  1 -9.496800 6.051135 24.334299 0.000000 0.741002 -0.671502 0.411300 0.634200 1 1 1.000000
  1 -9.496800 3.386835 22.398598 0.000000 0.204801 -0.978804 0.411300 0.664600 1 1 1.000000
  1 -10.700900 3.386835 22.398598 0.000000 0.409587 -0.912271 0.416900 0.664600 1 1 1.000000
guns
  1 -9.496800 3.386835 22.398598 0.000000 0.204801 -0.978804 0.411300 0.664600 1 1 1.000000
  1 -10.700900 0.093635 22.398598 0.000000 -0.204801 -0.978804 0.416900 0.695100 1 1 1.000000
  1 -10.700900 3.386835 22.398598 0.000000 0.409587 -0.912271 0.416900 0.664600 1 1 1.000000
guns
  1 -9.496800 3.386835 22.398598 0.000000 0.204801 -0.978804 0.411300 0.664600 1 1 1.000000
  1 -9.496800 0.093635 22.398598 0.000000 -0.409587 -0.912271 0.411300 0.695100 1 1 1.000000
  1 -10.700900 0.093635 22.398598 0.000000 -0.204801 -0.978804 0.416900 0.695100 1 1 1.000000
guns
  1 -9.496800 0.093635 22.398598 0.000000 -0.409587 -0.912271 0.411300 0.695100 1 1 1.000000
  1 -10.700900 -2.570665 24.334299 0.000000 -0.741002 -0.671502 0.416900 0.725700 1 1 1.000000
  1 -10.700900 0.093635 22.398598 0.000000 -0.204801 -0.978804 0.416900 0.695100 1 1 1.000000
guns
  1 -9.496800 0.093635 22.398598 0.000000 -0.409587 -0.912271 0.411300 0.695100 1 1 1.000000
  1 -9.496800 -2.570665 24.334299 0.000000 -0.867584 -0.497291 0.411300 0.725700 1 1 1.000000
  1 -10.700900 -2.570665 24.334299 0.000000 -0.741002 -0.671502 0.416900 0.725700 1 1 1.000000
guns
  1 -9.496800 -2.570665 24.334299 0.000000 -0.867584 -0.497291 0.411300 0.725700 1 1 1.000000
  1 -10.700900 -3.588265 27.466299 0.000000 -0.994184 -0.107698 0.416900 0.756200 1 1 1.000000
  1 -10.700900 -2.570665 24.334299 0.000000 -0.741002 -0.671502 0.416900 0.725700 1 1 1.000000
guns
  1 -9.496800 -2.570665 24.334299 0.000000 -0.867584 -0.497291 0.411300 0.725700 1 1 1.000000
  1 -9.496800 -3.588265 27.466299 0.000000 -0.994184 0.107698 0.411300 0.756200 1 1 1.000000
  1 -10.700900 -3.588265 27.466299 0.000000 -0.994184 -0.107698 0.416900 0.756200 1 1 1.000000
guns
  1 -9.496800 -3.588265 27.466299 0.000000 -0.994184 0.107698 0.411300 0.756200 1 1 1.000000
  1 -10.700900 -2.570665 30.598299 0.000000 -0.867584 0.497291 0.416900 0.786700 1 1 1.000000
  1 -10.700900 -3.588265 27.466299 0.000000 -0.994184 -0.107698 0.416900 0.756200 1 1 1.000000
guns
  1 -9.496800 -3.588265 27.466299 0.000000 -0.994184 0.107698 0.411300 0.756200 1 1 1.000000
  1 -9.496800 -2.570665 30.598299 0.000000 -0.741002 0.671502 0.411300 0.786700 1 1 1.000000
  1 -10.700900 -2.570665 30.598299 0.000000 -0.867584 0.497291 0.416900 0.786700 1 1 1.000000
guns
  1 -9.496800 -2.570665 30.598299 0.000000 -0.741002 0.671502 0.411300 0.786700 1 1 1.000000
  1 -10.700900 0.093635 32.533997 0.000000 -0.409587 0.912271 0.416900 0.817300 1 1 1.000000
  1 -10.700900 -2.570665 30.598299 0.000000 -0.867584 0.497291 0.416900 0.786700 1 1 1.000000
guns
  1 -9.496800 -2.570665 30.598299 0.000000 -0.741002 0.671502 0.411300 0.786700 1 1 1.000000
  1 -9.496800 0.093635 32.533997 0.000000 -0.204801 0.978804 0.411300 0.817300 1 1 1.000000
  1 -10.700900 0.093635 32.533997 0.000000 -0.409587 0.912271 0.416900 0.817300 1 1 1.000000
guns
  1 -9.496800 0.093635 32.533997 0.000000 -0.204801 0.978804 0.411300 0.817300 1 1 1.000000
  1 -10.700900 3.386835 32.533997 0.000000 0.204801 0.978804 0.416900 0.847700 1 1 1.000000
  1 -10.700900 0.093635 32.533997 0.000000 -0.409587 0.912271 0.416900 0.817300 1 1 1.000000
guns
  1 -9.496800 0.093635 32.533997 0.000000 -0.204801 0.978804 0.411300 0.817300 1 1 1.000000
  1 -9.496800 3.386835 32.533997 0.000000 0.409587 0.912271 0.411300 0.847700 1 1 1.000000
  1 -10.700900 3.386835 32.533997 0.000000 0.204801 0.978804 0.416900 0.847700 1 1 1.000000
guns
  1 -9.496800 3.386835 32.533997 0.000000 0.409587 0.912271 0.411300 0.847700 1 1 1.000000
  1 -10.700900 6.051135 30.598299 0.000000 0.741002 0.671502 0.416900 0.878200 1 1 1.000000
  1 -10.700900 3.386835 32.533997 0.000000 0.204801 0.978804 0.416900 0.847700 1 1 1.000000
guns
  1 -9.496800 3.386835 32.533997 0.000000 0.409587 0.912271 0.411300 0.847700 1 1 1.000000
  1 -9.496800 6.051135 30.598299 0.000000 0.867584 0.497291 0.411300 0.878200 1 1 1.000000
  1 -10.700900 6.051135 30.598299 0.000000 0.741002 0.671502 0.416900 0.878200 1 1 1.000000
guns
  1 -9.496800 6.051135 30.598299 0.000000 0.867584 0.497291 0.411300 0.878200 1 1 1.000000
  1 -10.700900 7.068735 27.466299 0.000000 0.994184 0.107698 0.416900 0.908700 1 1 1.000000
  1 -10.700900 6.051135 30.598299 0.000000 0.741002 0.671502 0.416900 0.878200 1 1 1.000000
guns
  1 -9.496800 6.051135 30.598299 0.000000 0.867584 0.497291 0.411300 0.878200 1 1 1.000000
  1 -9.496800 7.068735 27.466299 0.000000 0.994184 -0.107698 0.411300 0.908700 1 1 1.000000
  1 -10.700900 7.068735 27.466299 0.000000 0.994184 0.107698 0.416900 0.908700 1 1 1.000000
guns
  1 9.624800 8.547536 18.064400 1.000000 0.000000 0.000100 0.088900 0.780200 1 1 1.000000
  1 9.623600 -8.308965 27.932699 1.000000 0.000000 0.000100 0.186400 0.894400 1 1 1.000000
  1 9.624800 -8.308965 18.064400 1.000000 0.000000 0.000100 0.186400 0.780200 1 1 1.000000
guns
  1 9.624800 8.547536 18.064400 1.000000 0.000000 0.000100 0.088900 0.780200 1 1 1.000000
  1 9.623600 -2.225565 34.016098 1.000000 0.000000 0.000000 0.151200 0.964800 1 1 1.000000
  1 9.623600 -8.308965 27.932699 1.000000 0.000000 0.000100 0.186400 0.894400 1 1 1.000000
guns
  1 9.624800 8.547536 18.064400 1.000000 0.000000 0.000100 0.088900 0.780200 1 1 1.000000
  1 9.623600 1.377035 35.508301 1.000000 -0.000100 0.000000 0.130300 0.982100 1 1 1.000000
  1 9.623600 -2.225565 34.016098 1.000000 0.000000 0.000000 0.151200 0.964800 1 1 1.000000
guns
  1 9.623600 1.377035 35.508301 1.000000 -0.000100 0.000000 0.130300 0.982100 1 1 1.000000
  1 9.624800 8.547536 18.064400 1.000000 0.000000 0.000100 0.088900 0.780200 1 1 1.000000
  1 9.624200 8.547536 34.723698 1.000000 -0.000100 0.000000 0.088900 0.973000 1 1 1.000000
guns
  1 9.624200 8.547536 34.723698 1.000000 -0.000100 0.000000 0.088900 0.973000 1 1 1.000000
  1 9.623000 7.762835 35.508301 0.999998 0.000100 0.001700 0.093400 0.982100 1 1 1.000000
  1 9.623600 1.377035 35.508301 1.000000 -0.000100 0.000000 0.130300 0.982100 1 1 1.000000
guns
  1 8.840200 13.399136 39.575397 0.000000 0.707107 -0.707107 0.433700 0.939300 1 1 1.000000
  1 9.624900 12.844336 39.020599 0.000000 0.707107 -0.707107 0.429000 0.929900 1 1 1.000000
  1 9.624900 12.069535 38.245800 0.000000 0.707107 -0.707107 0.429000 0.916700 1 1 1.000000
guns
  1 9.624900 12.069535 38.245800 0.000000 0.707107 -0.707107 0.429000 0.916700 1 1 1.000000
  1 6.929700 12.069535 38.245800 0.000000 0.707107 -0.707107 0.444400 0.916700 1 1 1.000000
  1 8.840200 13.399136 39.575397 0.000000 0.707107 -0.707107 0.433700 0.939300 1 1 1.000000
guns
  1 6.929700 12.069535 38.245800 0.000000 0.707107 -0.707107 0.444400 0.916700 1 1 1.000000
  1 9.624900 12.069535 38.245800 0.000000 0.707107 -0.707107 0.429000 0.916700 1 1 1.000000
  1 9.624200 8.547536 34.723698 0.000000 0.707107 -0.707107 0.429000 0.856800 1 1 1.000000
guns
  1 9.624200 8.547536 34.723698 0.000000 0.707107 -0.707107 0.429000 0.856800 1 1 1.000000
  1 6.929600 8.547536 34.723698 0.000000 0.707107 -0.707107 0.444400 0.856800 1 1 1.000000
  1 6.929700 12.069535 38.245800 0.000000 0.707107 -0.707107 0.444400 0.916700 1 1 1.000000
guns
  1 -7.529100 -8.308965 19.864599 1.000000 0.000000 0.000000 0.102800 0.590900 1 1 1.000000
  1 -7.529100 6.136635 19.729399 1.000000 0.000000 0.000000 0.186400 0.589300 1 1 1.000000
  1 -7.529100 6.136635 35.508301 1.000000 0.000000 0.000000 0.186400 0.771900 1 1 1.000000
guns
  1 -7.529100 6.136635 35.508301 1.000000 0.000000 0.000000 0.186400 0.771900 1 1 1.000000
  1 -7.529100 -8.308965 27.932699 1.000000 0.000000 0.000000 0.102800 0.684300 1 1 1.000000
  1 -7.529100 -8.308965 19.864599 1.000000 0.000000 0.000000 0.102800 0.590900 1 1 1.000000
guns
  1 -7.529100 6.136635 35.508301 1.000000 0.000000 0.000000 0.186400 0.771900 1 1 1.000000
  1 -7.529100 -2.225565 34.016098 1.000000 0.000000 0.000000 0.138000 0.754700 1 1 1.000000
  1 -7.529100 -8.308965 27.932699 1.000000 0.000000 0.000000 0.102800 0.684300 1 1 1.000000
guns
  1 -7.529100 6.136635 35.508301 1.000000 0.000000 0.000000 0.186400 0.771900 1 1 1.000000
  1 -7.529100 1.377035 35.508301 1.000000 0.000000 0.000000 0.158800 0.771900 1 1 1.000000
  1 -7.529100 -2.225565 34.016098 1.000000 0.000000 0.000000 0.138000 0.754700 1 1 1.000000
guns
  1 7.608600 -13.828665 22.527798 0.700985 0.131297 -0.700985 0.319400 0.370800 1 1 1.000000
  1 6.355900 2.149135 24.268499 0.700985 0.131297 -0.700985 0.422200 0.410600 1 1 1.000000
  1 7.608600 2.149135 25.521198 0.700985 0.131297 -0.700985 0.419700 0.432600 1 1 1.000000
guns
  1 6.355900 -6.068465 21.487698 0.000000 0.000200 -1.000000 0.401900 0.832800 1 1 1.000000
  1 6.355900 -14.555664 21.485899 0.000000 0.000200 -1.000000 0.401900 0.945400 1 1 1.000000
  1 -6.206200 -6.068465 21.487698 0.000000 0.000200 -1.000000 0.318900 0.832800 1 1 1.000000
guns
  1 -6.206200 -14.555664 21.485899 0.000000 0.000200 -1.000000 0.318900 0.945400 1 1 1.000000
  1 -6.206200 -6.068465 21.487698 0.000000 0.000200 -1.000000 0.318900 0.832800 1 1 1.000000
  1 6.355900 -14.555664 21.485899 0.000000 0.000200 -1.000000 0.401900 0.945400 1 1 1.000000
guns
  1 -9.481800 -2.225565 34.016098 0.000000 -0.707107 0.707107 0.429000 0.733100 1 1 1.000000
  1 -9.481800 -8.308965 27.932699 0.000000 -0.707107 0.707107 0.429000 0.629500 1 1 1.000000
  1 -7.529100 -2.225565 34.016098 0.000000 -0.707107 0.707107 0.440800 0.733100 1 1 1.000000
guns
  1 -7.529100 -8.308965 27.932699 0.000000 -0.707107 0.707107 0.440800 0.629500 1 1 1.000000
  1 -7.529100 -2.225565 34.016098 0.000000 -0.707107 0.707107 0.440800 0.733100 1 1 1.000000
  1 -9.481800 -8.308965 27.932699 0.000000 -0.707107 0.707107 0.429000 0.629500 1 1 1.000000
guns
  1 -9.481800 1.377035 35.508301 0.000000 -0.382690 0.923877 0.429000 0.780000 1 1 1.000000
  1 -9.481800 -2.225565 34.016098 0.000000 -0.382690 0.923877 0.429000 0.733100 1 1 1.000000
  1 -7.529100 1.377035 35.508301 0.000000 -0.382690 0.923877 0.440800 0.780000 1 1 1.000000
guns
  1 -7.529100 -2.225565 34.016098 0.000000 -0.382690 0.923877 0.440800 0.733100 1 1 1.000000
  1 -7.529100 1.377035 35.508301 0.000000 -0.382690 0.923877 0.440800 0.780000 1 1 1.000000
  1 -9.481800 -2.225565 34.016098 0.000000 -0.382690 0.923877 0.429000 0.733100 1 1 1.000000
guns
  1 3.150000 11.956535 27.825399 0.000000 1.000000 0.000000 0.485300 0.861500 1 1 1.000000
  1 5.099600 11.956535 21.370298 0.000000 1.000000 0.000000 0.473500 0.783700 1 1 1.000000
  1 -2.460200 11.956535 27.825399 0.000000 1.000000 0.000000 0.519100 0.861600 1 1 1.000000
guns
  1 5.099600 11.956535 21.370298 0.000000 1.000000 0.000000 0.473500 0.783700 1 1 1.000000
  1 -4.339100 11.956535 21.370298 0.000000 1.000000 0.000000 0.530400 0.783800 1 1 1.000000
  1 -2.460200 11.956535 27.825399 0.000000 1.000000 0.000000 0.519100 0.861600 1 1 1.000000
guns
  1 -9.481800 12.059735 39.805199 -0.707103 0.500002 0.500002 0.250700 0.977500 1 1 1.000000
  1 -8.697200 12.614535 40.360001 -0.707103 0.500002 0.500002 0.257300 0.977500 1 1 1.000000
  1 -9.481800 12.844336 39.020599 -0.707103 0.500002 0.500002 0.250700 0.990900 1 1 1.000000
guns
  1 -8.697200 13.399136 39.575397 -0.707103 0.500002 0.500002 0.257300 0.990900 1 1 1.000000
  1 -9.481800 12.844336 39.020599 -0.707103 0.500002 0.500002 0.250700 0.990900 1 1 1.000000
  1 -8.697200 12.614535 40.360001 -0.707103 0.500002 0.500002 0.257300 0.977500 1 1 1.000000
guns
  1 8.837700 12.614535 40.360001 0.707102 0.498802 0.501202 0.362900 0.977500 1 1 1.000000
  1 9.622300 12.059735 39.805199 0.707102 0.498802 0.501202 0.369500 0.977500 1 1 1.000000
  1 8.840200 13.399136 39.575397 0.707102 0.498802 0.501202 0.362900 0.990900 1 1 1.000000
guns
  1 9.624900 12.844336 39.020599 0.707102 0.498802 0.501202 0.369500 0.990900 1 1 1.000000
  1 8.840200 13.399136 39.575397 0.707102 0.498802 0.501202 0.362900 0.990900 1 1 1.000000
  1 9.622300 12.059735 39.805199 0.707102 0.498802 0.501202 0.369500 0.977500 1 1 1.000000
guns
  1 9.623600 -2.225565 34.016098 0.000000 -0.707107 0.707107 0.429000 0.733100 1 1 1.000000
  1 7.670800 -2.225565 34.016098 0.000000 -0.707107 0.707107 0.440800 0.733100 1 1 1.000000
  1 9.623600 -8.308965 27.932699 0.000000 -0.707107 0.707107 0.429000 0.629500 1 1 1.000000
guns
  1 7.670800 -8.308965 27.932699 0.000000 -0.707107 0.707107 0.440800 0.629500 1 1 1.000000
  1 9.623600 -8.308965 27.932699 0.000000 -0.707107 0.707107 0.429000 0.629500 1 1 1.000000
  1 7.670800 -2.225565 34.016098 0.000000 -0.707107 0.707107 0.440800 0.733100 1 1 1.000000
guns
  1 9.623600 1.377035 35.508301 0.000000 -0.382690 0.923877 0.429000 0.780000 1 1 1.000000
  1 7.670800 1.377035 35.508301 0.000000 -0.382690 0.923877 0.440800 0.780000 1 1 1.000000
  1 9.623600 -2.225565 34.016098 0.000000 -0.382690 0.923877 0.429000 0.733100 1 1 1.000000
guns
  1 7.670800 -2.225565 34.016098 0.000000 -0.382690 0.923877 0.440800 0.733100 1 1 1.000000
  1 9.623600 -2.225565 34.016098 0.000000 -0.382690 0.923877 0.429000 0.733100 1 1 1.000000
  1 7.670800 1.377035 35.508301 0.000000 -0.382690 0.923877 0.440800 0.780000 1 1 1.000000
guns
  1 -6.206200 -12.872564 36.191299 -0.577384 -0.577284 0.577384 0.217400 0.576300 1 1 1.000000
  1 -7.458900 -12.872564 34.938599 -0.577384 -0.577284 0.577384 0.204200 0.565400 1 1 1.000000
  1 -6.206200 -14.125264 34.938599 -0.577384 -0.577284 0.577384 0.213300 0.547100 1 1 1.000000
guns
  1 -6.206200 3.401835 25.521198 -0.577384 0.577284 -0.577384 0.088900 0.426900 1 1 1.000000
  1 -6.206200 2.149135 24.268499 -0.577384 0.577284 -0.577384 0.097200 0.410700 1 1 1.000000
  1 -7.458900 2.149135 25.521198 -0.577384 0.577284 -0.577384 0.099300 0.432800 1 1 1.000000
guns
  1 -9.481800 7.762835 35.508301 0.000000 -0.707107 0.707107 0.429000 0.856800 1 1 1.000000
  1 -6.931000 7.762835 35.508301 0.000000 -0.707107 0.707107 0.444400 0.856800 1 1 1.000000
  1 -6.931000 11.284936 39.030399 0.000000 -0.707107 0.707107 0.444400 0.916700 1 1 1.000000
guns
  1 -6.931000 11.284936 39.030399 0.000000 -0.707107 0.707107 0.444400 0.916700 1 1 1.000000
  1 -9.481800 11.284936 39.030399 0.000000 -0.707107 0.707107 0.429000 0.916700 1 1 1.000000
  1 -9.481800 7.762835 35.508301 0.000000 -0.707107 0.707107 0.429000 0.856800 1 1 1.000000
guns
  1 -9.481800 11.284936 39.030399 0.000000 -0.707107 0.707107 0.429000 0.916700 1 1 1.000000
  1 -6.931000 11.284936 39.030399 0.000000 -0.707107 0.707107 0.444400 0.916700 1 1 1.000000
  1 -8.697200 12.614535 40.360001 0.000000 -0.707107 0.707107 0.433700 0.939300 1 1 1.000000
guns
  1 -8.697200 12.614535 40.360001 0.000000 -0.707107 0.707107 0.433700 0.939300 1 1 1.000000
  1 -6.931000 11.284936 39.030399 0.000000 -0.707107 0.707107 0.444400 0.916700 1 1 1.000000
  1 6.929700 11.284936 39.030399 0.000000 -0.707107 0.707107 0.527800 0.916700 1 1 1.000000
guns
  1 6.929700 11.284936 39.030399 0.000000 -0.707107 0.707107 0.527800 0.916700 1 1 1.000000
  1 8.837700 12.614535 40.360001 0.000000 -0.707107 0.707107 0.539300 0.939400 1 1 1.000000
  1 -8.697200 12.614535 40.360001 0.000000 -0.707107 0.707107 0.433700 0.939300 1 1 1.000000
guns
  1 -8.697200 12.614535 40.360001 0.000000 -0.707107 0.707107 0.433700 0.939300 1 1 1.000000
  1 -9.481800 12.059735 39.805199 0.000000 -0.707107 0.707107 0.429000 0.929900 1 1 1.000000
  1 -9.481800 11.284936 39.030399 0.000000 -0.707107 0.707107 0.429000 0.916700 1 1 1.000000
guns
  1 -6.206200 3.660935 36.191299 -0.577284 0.577384 0.577384 0.217400 0.794900 1 1 1.000000
  1 -6.206200 4.913635 34.938599 -0.577284 0.577384 0.577384 0.213300 0.824100 1 1 1.000000
  1 -7.458900 3.660935 34.938599 -0.577284 0.577384 0.577384 0.204200 0.805800 1 1 1.000000
guns
  1 7.608600 2.149135 25.521198 0.577384 0.577284 -0.577384 0.419700 0.432600 1 1 1.000000
  1 6.355900 2.149135 24.268499 0.577384 0.577284 -0.577384 0.422200 0.410600 1 1 1.000000
  1 6.355900 3.401835 25.521198 0.577384 0.577284 -0.577384 0.430200 0.427400 1 1 1.000000
guns
  1 -7.458900 2.149135 25.521198 -0.890460 0.083796 -0.447280 0.099300 0.432800 1 1 1.000000
  1 -6.206200 -6.068465 21.487698 -0.890460 0.083796 -0.447280 0.149800 0.367800 1 1 1.000000
  1 -7.458900 -13.828665 22.527798 -0.890460 0.083796 -0.447280 0.200600 0.377800 1 1 1.000000
guns
  1 9.623000 7.762835 35.508301 0.999999 -0.000900 0.000700 0.406100 0.977600 1 1 1.000000
  1 9.624200 8.547536 34.723698 0.999999 -0.000900 0.000700 0.406100 0.990900 1 1 1.000000
  1 9.624900 12.069535 38.245800 0.999999 -0.000900 0.000700 0.376100 0.990900 1 1 1.000000
guns
  1 9.624900 12.069535 38.245800 0.999999 -0.000900 0.000700 0.376100 0.990900 1 1 1.000000
  1 9.622300 11.284936 39.030399 0.999997 -0.001500 0.001700 0.376100 0.977600 1 1 1.000000
  1 9.623000 7.762835 35.508301 0.999999 -0.000900 0.000700 0.406100 0.977600 1 1 1.000000
guns
  1 9.622300 11.284936 39.030399 0.999997 -0.001500 0.001700 0.376100 0.977600 1 1 1.000000
  1 9.624900 12.069535 38.245800 0.999999 -0.000900 0.000700 0.376100 0.990900 1 1 1.000000
  1 9.624900 12.844336 39.020599 0.999997 -0.001600 0.001600 0.369500 0.990900 1 1 1.000000
guns
  1 9.624900 12.844336 39.020599 0.999997 -0.001600 0.001600 0.369500 0.990900 1 1 1.000000
  1 9.622300 12.059735 39.805199 0.999997 -0.001600 0.001600 0.369500 0.977500 1 1 1.000000
  1 9.622300 11.284936 39.030399 0.999997 -0.001500 0.001700 0.376100 0.977600 1 1 1.000000
guns
  1 6.355900 -15.081365 22.527798 0.665997 -0.665997 -0.335999 0.314300 0.361400 1 1 1.000000
  1 6.355900 -14.555664 21.485899 0.665997 -0.665997 -0.335999 0.317400 0.350000 1 1 1.000000
  1 7.608600 -13.828665 22.527798 0.665997 -0.665997 -0.335999 0.319400 0.370800 1 1 1.000000
guns
  1 6.355900 -6.068465 21.487698 0.639387 0.000200 -0.768885 0.370300 0.364200 1 1 1.000000
  1 7.608600 -13.828665 22.527798 0.639387 0.000200 -0.768885 0.319400 0.370800 1 1 1.000000
  1 6.355900 -14.555664 21.485899 0.639387 0.000200 -0.768885 0.317400 0.350000 1 1 1.000000
guns
  1 -6.206200 -6.068465 21.487698 -0.639387 0.000200 -0.768885 0.149800 0.367800 1 1 1.000000
  1 -6.206200 -14.555664 21.485899 -0.639387 0.000200 -0.768885 0.203000 0.357200 1 1 1.000000
  1 -7.458900 -13.828665 22.527798 -0.639387 0.000200 -0.768885 0.200600 0.377800 1 1 1.000000
guns
  1 -9.481800 8.547536 34.723698 -1.000000 0.000000 0.000000 0.214100 0.990900 1 1 1.000000
  1 -9.481800 7.762835 35.508301 -1.000000 0.000000 0.000000 0.214100 0.977500 1 1 1.000000
  1 -9.481800 11.284936 39.030399 -1.000000 0.000000 0.000000 0.244100 0.977500 1 1 1.000000
guns
  1 -9.481800 11.284936 39.030399 -1.000000 0.000000 0.000000 0.244100 0.977500 1 1 1.000000
  1 -9.481800 12.069535 38.245800 -1.000000 0.000000 0.000000 0.244100 0.990900 1 1 1.000000
  1 -9.481800 8.547536 34.723698 -1.000000 0.000000 0.000000 0.214100 0.990900 1 1 1.000000
guns
  1 -9.481800 12.069535 38.245800 -1.000000 0.000000 0.000000 0.244100 0.990900 1 1 1.000000
  1 -9.481800 11.284936 39.030399 -1.000000 0.000000 0.000000 0.244100 0.977500 1 1 1.000000
  1 -9.481800 12.059735 39.805199 -1.000000 0.000000 0.000000 0.250700 0.977500 1 1 1.000000
guns
  1 -9.481800 12.059735 39.805199 -1.000000 0.000000 0.000000 0.250700 0.977500 1 1 1.000000
  1 -9.481800 12.844336 39.020599 -1.000000 0.000000 0.000000 0.250700 0.990900 1 1 1.000000
  1 -9.481800 12.069535 38.245800 -1.000000 0.000000 0.000000 0.244100 0.990900 1 1 1.000000
end
