version 1
nodes
0 "ValveBiped.Anim_Attachment_RH" -1
end
skeleton
time 0
0  0.000000 0.000000 0.000000  0.000000 -0.000000 0.000000
end
triangles
  phy
0  -0.946755 -9.560367 -4.523972  -0.042819 0.061472 -0.997190  0.000000 0.000000 1 0 1.000000
0  3.431277 -9.566468 -4.237089  0.099743 0.141142 -0.984952  0.000000 0.000000 1 0 1.000000
0  4.160161 -9.684175 1.298028  0.051102 -0.027649 -0.998311  0.000000 0.000000 1 0 1.000000
  phy
0  -1.376209 -9.699672 2.026743  -0.052507 -0.040956 -0.997780  0.000000 0.000000 1 0 1.000000
0  -0.946755 -9.560367 -4.523972  -0.042819 0.061472 -0.997190  0.000000 0.000000 1 0 1.000000
0  4.160161 -9.684175 1.298028  0.051102 -0.027649 -0.998311  0.000000 0.000000 1 0 1.000000
  phy
0  4.160161 -9.684175 1.298028  0.051102 -0.027649 -0.998311  0.000000 0.000000 1 0 1.000000
0  1.027536 -9.717020 2.842516  0.064135 -0.505186 -0.860624  0.000000 0.000000 1 0 1.000000
0  -1.376209 -9.699672 2.026743  -0.052507 -0.040956 -0.997780  0.000000 0.000000 1 0 1.000000
  phy
0  3.431277 -9.566468 -4.237089  0.099743 0.141142 -0.984952  0.000000 0.000000 1 0 1.000000
0  4.976121 -9.633069 -1.105175  0.472579 0.046518 -0.880060  0.000000 0.000000 1 0 1.000000
0  4.160161 -9.684175 1.298028  0.051102 -0.027649 -0.998311  0.000000 0.000000 1 0 1.000000
  phy
0  2.652374 -9.117670 2.507412  0.400233 -0.728283 0.556254  0.000000 0.000000 1 0 1.000000
0  1.027536 -9.717020 2.842516  0.064135 -0.505186 -0.860624  0.000000 0.000000 1 0 1.000000
0  4.160161 -9.684175 1.298028  0.051102 -0.027649 -0.998311  0.000000 0.000000 1 0 1.000000
  phy
0  4.160161 -9.684175 1.298028  0.051102 -0.027649 -0.998311  0.000000 0.000000 1 0 1.000000
0  4.790688 -9.066664 0.109069  0.705738 -0.304206 0.639838  0.000000 0.000000 1 0 1.000000
0  2.652374 -9.117670 2.507412  0.400233 -0.728283 0.556254  0.000000 0.000000 1 0 1.000000
  phy
0  4.160161 -9.684175 1.298028  0.051102 -0.027649 -0.998311  0.000000 0.000000 1 0 1.000000
0  4.976121 -9.633069 -1.105175  0.472579 0.046518 -0.880060  0.000000 0.000000 1 0 1.000000
0  4.790688 -9.066664 0.109069  0.705738 -0.304206 0.639838  0.000000 0.000000 1 0 1.000000
  phy
0  -2.403484 -8.999483 -3.050203  -0.796694 0.465800 0.385108  0.000000 0.000000 1 0 1.000000
0  -1.310443 -8.973412 -4.276161  -0.524725 0.558396 0.642540  0.000000 0.000000 1 0 1.000000
0  -0.946755 -9.560367 -4.523972  -0.042819 0.061472 -0.997190  0.000000 0.000000 1 0 1.000000
  phy
0  -0.946755 -9.560367 -4.523972  -0.042819 0.061472 -0.997190  0.000000 0.000000 1 0 1.000000
0  -1.310443 -8.973412 -4.276161  -0.524725 0.558396 0.642540  0.000000 0.000000 1 0 1.000000
0  -0.641653 -8.965105 -4.666677  -0.173490 0.708681 0.683866  0.000000 0.000000 1 0 1.000000
  phy
0  -1.310443 -8.973412 -4.276161  -0.524725 0.558396 0.642540  0.000000 0.000000 1 0 1.000000
0  -2.403484 -8.999483 -3.050203  -0.796694 0.465800 0.385108  0.000000 0.000000 1 0 1.000000
0  -0.668364 -8.345738 -3.388111  -0.048052 0.085386 0.995188  0.000000 0.000000 1 0 1.000000
  phy
0  -1.310443 -8.973412 -4.276161  -0.524725 0.558396 0.642540  0.000000 0.000000 1 0 1.000000
0  -0.668364 -8.345738 -3.388111  -0.048052 0.085386 0.995188  0.000000 0.000000 1 0 1.000000
0  -0.641653 -8.965105 -4.666677  -0.173490 0.708681 0.683866  0.000000 0.000000 1 0 1.000000
  phy
0  4.790688 -9.066664 0.109069  0.705738 -0.304206 0.639838  0.000000 0.000000 1 0 1.000000
0  4.789423 -9.156791 -2.284532  0.853156 0.221145 0.472461  0.000000 0.000000 1 0 1.000000
0  3.870059 -8.401811 -0.751355  0.336569 -0.041991 0.940722  0.000000 0.000000 1 0 1.000000
  phy
0  4.790688 -9.066664 0.109069  0.705738 -0.304206 0.639838  0.000000 0.000000 1 0 1.000000
0  4.976121 -9.633069 -1.105175  0.472579 0.046518 -0.880060  0.000000 0.000000 1 0 1.000000
0  4.789423 -9.156791 -2.284532  0.853156 0.221145 0.472461  0.000000 0.000000 1 0 1.000000
  phy
0  3.166613 -8.435387 0.827454  0.338709 -0.320864 0.884490  0.000000 0.000000 1 0 1.000000
0  4.790688 -9.066664 0.109069  0.705738 -0.304206 0.639838  0.000000 0.000000 1 0 1.000000
0  3.870059 -8.401811 -0.751355  0.336569 -0.041991 0.940722  0.000000 0.000000 1 0 1.000000
  phy
0  4.790688 -9.066664 0.109069  0.705738 -0.304206 0.639838  0.000000 0.000000 1 0 1.000000
0  3.166613 -8.435387 0.827454  0.338709 -0.320864 0.884490  0.000000 0.000000 1 0 1.000000
0  2.652374 -9.117670 2.507412  0.400233 -0.728283 0.556254  0.000000 0.000000 1 0 1.000000
  phy
0  3.757540 -8.376628 -1.935559  0.080498 0.019065 0.996572  0.000000 0.000000 1 0 1.000000
0  1.678361 -8.454086 1.706862  0.048140 -0.241943 0.969095  0.000000 0.000000 1 0 1.000000
0  3.870059 -8.401811 -0.751355  0.336569 -0.041991 0.940722  0.000000 0.000000 1 0 1.000000
  phy
0  1.678361 -8.454086 1.706862  0.048140 -0.241943 0.969095  0.000000 0.000000 1 0 1.000000
0  3.757540 -8.376628 -1.935559  0.080498 0.019065 0.996572  0.000000 0.000000 1 0 1.000000
0  0.404648 -8.454224 1.713240  -0.022753 -0.075063 0.996919  0.000000 0.000000 1 0 1.000000
  phy
0  1.678361 -8.454086 1.706862  0.048140 -0.241943 0.969095  0.000000 0.000000 1 0 1.000000
0  3.166613 -8.435387 0.827454  0.338709 -0.320864 0.884490  0.000000 0.000000 1 0 1.000000
0  3.870059 -8.401811 -0.751355  0.336569 -0.041991 0.940722  0.000000 0.000000 1 0 1.000000
  phy
0  1.678361 -8.454086 1.706862  0.048140 -0.241943 0.969095  0.000000 0.000000 1 0 1.000000
0  0.176625 -9.123022 2.759089  -0.245374 -0.689519 0.681437  0.000000 0.000000 1 0 1.000000
0  2.652374 -9.117670 2.507412  0.400233 -0.728283 0.556254  0.000000 0.000000 1 0 1.000000
  phy
0  0.176625 -9.123022 2.759089  -0.245374 -0.689519 0.681437  0.000000 0.000000 1 0 1.000000
0  1.678361 -8.454086 1.706862  0.048140 -0.241943 0.969095  0.000000 0.000000 1 0 1.000000
0  0.404648 -8.454224 1.713240  -0.022753 -0.075063 0.996919  0.000000 0.000000 1 0 1.000000
  phy
0  3.166613 -8.435387 0.827454  0.338709 -0.320864 0.884490  0.000000 0.000000 1 0 1.000000
0  1.678361 -8.454086 1.706862  0.048140 -0.241943 0.969095  0.000000 0.000000 1 0 1.000000
0  2.652374 -9.117670 2.507412  0.400233 -0.728283 0.556254  0.000000 0.000000 1 0 1.000000
  phy
0  -0.946755 -9.560367 -4.523972  -0.042819 0.061472 -0.997190  0.000000 0.000000 1 0 1.000000
0  -2.921047 -9.633069 -1.105163  -0.361050 0.047474 -0.931337  0.000000 0.000000 1 0 1.000000
0  -2.403484 -8.999483 -3.050203  -0.796694 0.465800 0.385108  0.000000 0.000000 1 0 1.000000
  phy
0  -2.903273 -9.032753 -1.485750  -0.672631 -0.060244 0.737522  0.000000 0.000000 1 0 1.000000
0  -2.403484 -8.999483 -3.050203  -0.796694 0.465800 0.385108  0.000000 0.000000 1 0 1.000000
0  -2.921047 -9.633069 -1.105163  -0.361050 0.047474 -0.931337  0.000000 0.000000 1 0 1.000000
  phy
0  -0.668364 -8.345738 -3.388111  -0.048052 0.085386 0.995188  0.000000 0.000000 1 0 1.000000
0  -2.403484 -8.999483 -3.050203  -0.796694 0.465800 0.385108  0.000000 0.000000 1 0 1.000000
0  -1.684764 -8.375471 -1.990026  -0.339106 0.059342 0.938874  0.000000 0.000000 1 0 1.000000
  phy
0  -2.403484 -8.999483 -3.050203  -0.796694 0.465800 0.385108  0.000000 0.000000 1 0 1.000000
0  -2.903273 -9.032753 -1.485750  -0.672631 -0.060244 0.737522  0.000000 0.000000 1 0 1.000000
0  -1.684764 -8.375471 -1.990026  -0.339106 0.059342 0.938874  0.000000 0.000000 1 0 1.000000
  phy
0  -1.376209 -9.699672 2.026743  -0.052507 -0.040956 -0.997780  0.000000 0.000000 1 0 1.000000
0  -2.921047 -9.633069 -1.105163  -0.361050 0.047474 -0.931337  0.000000 0.000000 1 0 1.000000
0  -0.946755 -9.560367 -4.523972  -0.042819 0.061472 -0.997190  0.000000 0.000000 1 0 1.000000
  phy
0  -1.376209 -9.699672 2.026743  -0.052507 -0.040956 -0.997780  0.000000 0.000000 1 0 1.000000
0  -2.353221 -9.225322 0.937797  -0.697826 -0.475528 0.535641  0.000000 0.000000 1 0 1.000000
0  -2.921047 -9.633069 -1.105163  -0.361050 0.047474 -0.931337  0.000000 0.000000 1 0 1.000000
  phy
0  -1.376209 -9.699672 2.026743  -0.052507 -0.040956 -0.997780  0.000000 0.000000 1 0 1.000000
0  0.176625 -9.123022 2.759089  -0.245374 -0.689519 0.681437  0.000000 0.000000 1 0 1.000000
0  -2.353221 -9.225322 0.937797  -0.697826 -0.475528 0.535641  0.000000 0.000000 1 0 1.000000
  phy
0  -1.376209 -9.699672 2.026743  -0.052507 -0.040956 -0.997780  0.000000 0.000000 1 0 1.000000
0  1.027536 -9.717020 2.842516  0.064135 -0.505186 -0.860624  0.000000 0.000000 1 0 1.000000
0  0.176625 -9.123022 2.759089  -0.245374 -0.689519 0.681437  0.000000 0.000000 1 0 1.000000
  phy
0  3.980410 -8.985475 -3.708608  0.481382 0.462654 0.744461  0.000000 0.000000 1 0 1.000000
0  3.757540 -8.376628 -1.935559  0.080498 0.019065 0.996572  0.000000 0.000000 1 0 1.000000
0  4.789423 -9.156791 -2.284532  0.853156 0.221145 0.472461  0.000000 0.000000 1 0 1.000000
  phy
0  3.757540 -8.376628 -1.935559  0.080498 0.019065 0.996572  0.000000 0.000000 1 0 1.000000
0  3.980410 -8.985475 -3.708608  0.481382 0.462654 0.744461  0.000000 0.000000 1 0 1.000000
0  2.138773 -8.338788 -3.714976  0.114333 0.257589 0.959466  0.000000 0.000000 1 0 1.000000
  phy
0  3.980410 -8.985475 -3.708608  0.481382 0.462654 0.744461  0.000000 0.000000 1 0 1.000000
0  1.829520 -8.958874 -4.959878  0.110914 0.699244 0.706227  0.000000 0.000000 1 0 1.000000
0  2.138773 -8.338788 -3.714976  0.114333 0.257589 0.959466  0.000000 0.000000 1 0 1.000000
  phy
0  4.789423 -9.156791 -2.284532  0.853156 0.221145 0.472461  0.000000 0.000000 1 0 1.000000
0  3.431277 -9.566468 -4.237089  0.099743 0.141142 -0.984952  0.000000 0.000000 1 0 1.000000
0  3.980410 -8.985475 -3.708608  0.481382 0.462654 0.744461  0.000000 0.000000 1 0 1.000000
  phy
0  1.829520 -8.958874 -4.959878  0.110914 0.699244 0.706227  0.000000 0.000000 1 0 1.000000
0  3.980410 -8.985475 -3.708608  0.481382 0.462654 0.744461  0.000000 0.000000 1 0 1.000000
0  3.431277 -9.566468 -4.237089  0.099743 0.141142 -0.984952  0.000000 0.000000 1 0 1.000000
  phy
0  3.757540 -8.376628 -1.935559  0.080498 0.019065 0.996572  0.000000 0.000000 1 0 1.000000
0  -0.668364 -8.345738 -3.388111  -0.048052 0.085386 0.995188  0.000000 0.000000 1 0 1.000000
0  0.404648 -8.454224 1.713240  -0.022753 -0.075063 0.996919  0.000000 0.000000 1 0 1.000000
  phy
0  -0.668364 -8.345738 -3.388111  -0.048052 0.085386 0.995188  0.000000 0.000000 1 0 1.000000
0  3.757540 -8.376628 -1.935559  0.080498 0.019065 0.996572  0.000000 0.000000 1 0 1.000000
0  2.138773 -8.338788 -3.714976  0.114333 0.257589 0.959466  0.000000 0.000000 1 0 1.000000
  phy
0  4.789423 -9.156791 -2.284532  0.853156 0.221145 0.472461  0.000000 0.000000 1 0 1.000000
0  3.757540 -8.376628 -1.935559  0.080498 0.019065 0.996572  0.000000 0.000000 1 0 1.000000
0  3.870059 -8.401811 -0.751355  0.336569 -0.041991 0.940722  0.000000 0.000000 1 0 1.000000
  phy
0  -0.946755 -9.560367 -4.523972  -0.042819 0.061472 -0.997190  0.000000 0.000000 1 0 1.000000
0  0.512151 -9.549837 -5.019091  -0.000716 0.811339 -0.584575  0.000000 0.000000 1 0 1.000000
0  3.431277 -9.566468 -4.237089  0.099743 0.141142 -0.984952  0.000000 0.000000 1 0 1.000000
  phy
0  -0.946755 -9.560367 -4.523972  -0.042819 0.061472 -0.997190  0.000000 0.000000 1 0 1.000000
0  -0.641653 -8.965105 -4.666677  -0.173490 0.708681 0.683866  0.000000 0.000000 1 0 1.000000
0  0.512151 -9.549837 -5.019091  -0.000716 0.811339 -0.584575  0.000000 0.000000 1 0 1.000000
  phy
0  -0.668364 -8.345738 -3.388111  -0.048052 0.085386 0.995188  0.000000 0.000000 1 0 1.000000
0  1.829520 -8.958874 -4.959878  0.110914 0.699244 0.706227  0.000000 0.000000 1 0 1.000000
0  -0.641653 -8.965105 -4.666677  -0.173490 0.708681 0.683866  0.000000 0.000000 1 0 1.000000
  phy
0  1.829520 -8.958874 -4.959878  0.110914 0.699244 0.706227  0.000000 0.000000 1 0 1.000000
0  -0.668364 -8.345738 -3.388111  -0.048052 0.085386 0.995188  0.000000 0.000000 1 0 1.000000
0  2.138773 -8.338788 -3.714976  0.114333 0.257589 0.959466  0.000000 0.000000 1 0 1.000000
  phy
0  -1.421306 -8.426313 0.400820  -0.252538 -0.186531 0.949437  0.000000 0.000000 1 0 1.000000
0  -0.668364 -8.345738 -3.388111  -0.048052 0.085386 0.995188  0.000000 0.000000 1 0 1.000000
0  -1.684764 -8.375471 -1.990026  -0.339106 0.059342 0.938874  0.000000 0.000000 1 0 1.000000
  phy
0  -0.668364 -8.345738 -3.388111  -0.048052 0.085386 0.995188  0.000000 0.000000 1 0 1.000000
0  -1.421306 -8.426313 0.400820  -0.252538 -0.186531 0.949437  0.000000 0.000000 1 0 1.000000
0  0.404648 -8.454224 1.713240  -0.022753 -0.075063 0.996919  0.000000 0.000000 1 0 1.000000
  phy
0  -1.421306 -8.426313 0.400820  -0.252538 -0.186531 0.949437  0.000000 0.000000 1 0 1.000000
0  -2.903273 -9.032753 -1.485750  -0.672631 -0.060244 0.737522  0.000000 0.000000 1 0 1.000000
0  -2.353221 -9.225322 0.937797  -0.697826 -0.475528 0.535641  0.000000 0.000000 1 0 1.000000
  phy
0  -2.903273 -9.032753 -1.485750  -0.672631 -0.060244 0.737522  0.000000 0.000000 1 0 1.000000
0  -1.421306 -8.426313 0.400820  -0.252538 -0.186531 0.949437  0.000000 0.000000 1 0 1.000000
0  -1.684764 -8.375471 -1.990026  -0.339106 0.059342 0.938874  0.000000 0.000000 1 0 1.000000
  phy
0  0.176625 -9.123022 2.759089  -0.245374 -0.689519 0.681437  0.000000 0.000000 1 0 1.000000
0  -1.421306 -8.426313 0.400820  -0.252538 -0.186531 0.949437  0.000000 0.000000 1 0 1.000000
0  -2.353221 -9.225322 0.937797  -0.697826 -0.475528 0.535641  0.000000 0.000000 1 0 1.000000
  phy
0  -1.421306 -8.426313 0.400820  -0.252538 -0.186531 0.949437  0.000000 0.000000 1 0 1.000000
0  0.176625 -9.123022 2.759089  -0.245374 -0.689519 0.681437  0.000000 0.000000 1 0 1.000000
0  0.404648 -8.454224 1.713240  -0.022753 -0.075063 0.996919  0.000000 0.000000 1 0 1.000000
  phy
0  -2.353221 -9.225322 0.937797  -0.697826 -0.475528 0.535641  0.000000 0.000000 1 0 1.000000
0  -2.903273 -9.032753 -1.485750  -0.672631 -0.060244 0.737522  0.000000 0.000000 1 0 1.000000
0  -2.921047 -9.633069 -1.105163  -0.361050 0.047474 -0.931337  0.000000 0.000000 1 0 1.000000
  phy
0  2.652374 -9.117670 2.507412  0.400233 -0.728283 0.556254  0.000000 0.000000 1 0 1.000000
0  0.176625 -9.123022 2.759089  -0.245374 -0.689519 0.681437  0.000000 0.000000 1 0 1.000000
0  1.027536 -9.717020 2.842516  0.064135 -0.505186 -0.860624  0.000000 0.000000 1 0 1.000000
  phy
0  4.789423 -9.156791 -2.284532  0.853156 0.221145 0.472461  0.000000 0.000000 1 0 1.000000
0  4.976121 -9.633069 -1.105175  0.472579 0.046518 -0.880060  0.000000 0.000000 1 0 1.000000
0  3.431277 -9.566468 -4.237089  0.099743 0.141142 -0.984952  0.000000 0.000000 1 0 1.000000
  phy
0  -0.641653 -8.965105 -4.666677  -0.173490 0.708681 0.683866  0.000000 0.000000 1 0 1.000000
0  1.829520 -8.958874 -4.959878  0.110914 0.699244 0.706227  0.000000 0.000000 1 0 1.000000
0  0.512151 -9.549837 -5.019091  -0.000716 0.811339 -0.584575  0.000000 0.000000 1 0 1.000000
  phy
0  3.431277 -9.566468 -4.237089  0.099743 0.141142 -0.984952  0.000000 0.000000 1 0 1.000000
0  0.512151 -9.549837 -5.019091  -0.000716 0.811339 -0.584575  0.000000 0.000000 1 0 1.000000
0  1.829520 -8.958874 -4.959878  0.110914 0.699244 0.706227  0.000000 0.000000 1 0 1.000000
  phy
0  2.066614 -9.670598 2.039627  0.259381 -0.965767 -0.003875  0.000000 0.000000 1 0 1.000000
0  3.499848 -9.650595 1.098964  0.797153 -0.591575 0.120770  0.000000 0.000000 1 0 1.000000
0  0.354963 -9.672686 2.137806  -0.406302 -0.877052 0.256318  0.000000 0.000000 1 0 1.000000
  phy
0  0.354963 -9.672686 2.137806  -0.406302 -0.877052 0.256318  0.000000 0.000000 1 0 1.000000
0  3.499848 -9.650595 1.098964  0.797153 -0.591575 0.120770  0.000000 0.000000 1 0 1.000000
0  4.334195 -9.599701 -1.294220  0.816026 -0.024202 0.577508  0.000000 0.000000 1 0 1.000000
  phy
0  -1.741254 -9.642380 0.712671  -0.743600 -0.427823 0.513835  0.000000 0.000000 1 0 1.000000
0  -1.741251 -20.910879 0.473039  -0.687078 -0.724761 -0.051435  0.000000 0.000000 1 0 1.000000
0  0.354963 -9.672686 2.137806  -0.406302 -0.877052 0.256318  0.000000 0.000000 1 0 1.000000
  phy
0  -1.741251 -20.910879 0.473039  -0.687078 -0.724761 -0.051435  0.000000 0.000000 1 0 1.000000
0  0.354964 -20.941183 1.898174  -0.132254 -0.973457 -0.186792  0.000000 0.000000 1 0 1.000000
0  0.354963 -9.672686 2.137806  -0.406302 -0.877052 0.256318  0.000000 0.000000 1 0 1.000000
  phy
0  -1.741254 -9.642380 0.712671  -0.743600 -0.427823 0.513835  0.000000 0.000000 1 0 1.000000
0  0.354963 -9.672686 2.137806  -0.406302 -0.877052 0.256318  0.000000 0.000000 1 0 1.000000
0  4.334195 -9.599701 -1.294220  0.816026 -0.024202 0.577508  0.000000 0.000000 1 0 1.000000
  phy
0  0.354964 -20.941183 1.898174  -0.132254 -0.973457 -0.186792  0.000000 0.000000 1 0 1.000000
0  2.066614 -9.670598 2.039627  0.259381 -0.965767 -0.003875  0.000000 0.000000 1 0 1.000000
0  0.354963 -9.672686 2.137806  -0.406302 -0.877052 0.256318  0.000000 0.000000 1 0 1.000000
  phy
0  3.499848 -9.650595 1.098964  0.797153 -0.591575 0.120770  0.000000 0.000000 1 0 1.000000
0  2.845168 -20.931099 1.423987  0.368524 -0.679392 -0.634521  0.000000 0.000000 1 0 1.000000
0  3.986047 -20.903889 0.144511  0.917199 -0.397638 -0.025095  0.000000 0.000000 1 0 1.000000
  phy
0  3.499848 -9.650595 1.098964  0.797153 -0.591575 0.120770  0.000000 0.000000 1 0 1.000000
0  2.066614 -9.670598 2.039627  0.259381 -0.965767 -0.003875  0.000000 0.000000 1 0 1.000000
0  2.845168 -20.931099 1.423987  0.368524 -0.679392 -0.634521  0.000000 0.000000 1 0 1.000000
  phy
0  3.986047 -20.903889 0.144511  0.917199 -0.397638 -0.025095  0.000000 0.000000 1 0 1.000000
0  4.334195 -9.599701 -1.294220  0.816026 -0.024202 0.577508  0.000000 0.000000 1 0 1.000000
0  3.499848 -9.650595 1.098964  0.797153 -0.591575 0.120770  0.000000 0.000000 1 0 1.000000
  phy
0  2.516570 -9.540834 -4.062386  0.497926 0.861900 0.095911  0.000000 0.000000 1 0 1.000000
0  3.796329 -9.565091 -2.921767  0.835325 0.547385 0.051007  0.000000 0.000000 1 0 1.000000
0  3.796330 -20.833588 -3.161398  0.793761 0.607681 -0.025833  0.000000 0.000000 1 0 1.000000
  phy
0  2.516570 -9.540834 -4.062386  0.497926 0.861900 0.095911  0.000000 0.000000 1 0 1.000000
0  3.796330 -20.833588 -3.161398  0.793761 0.607681 -0.025833  0.000000 0.000000 1 0 1.000000
0  1.700114 -20.803284 -4.586538  0.289366 0.950511 -0.113123  0.000000 0.000000 1 0 1.000000
  phy
0  3.796329 -9.565091 -2.921767  0.835325 0.547385 0.051007  0.000000 0.000000 1 0 1.000000
0  2.516570 -9.540834 -4.062386  0.497926 0.861900 0.095911  0.000000 0.000000 1 0 1.000000
0  4.334195 -9.599701 -1.294220  0.816026 -0.024202 0.577508  0.000000 0.000000 1 0 1.000000
  phy
0  4.334195 -9.599701 -1.294220  0.816026 -0.024202 0.577508  0.000000 0.000000 1 0 1.000000
0  2.516570 -9.540834 -4.062386  0.497926 0.861900 0.095911  0.000000 0.000000 1 0 1.000000
0  0.837822 -9.533432 -4.410460  -0.056261 0.975187 0.214114  0.000000 0.000000 1 0 1.000000
  phy
0  2.516570 -9.540834 -4.062386  0.497926 0.861900 0.095911  0.000000 0.000000 1 0 1.000000
0  1.700114 -20.803284 -4.586538  0.289366 0.950511 -0.113123  0.000000 0.000000 1 0 1.000000
0  0.837822 -9.533432 -4.410460  -0.056261 0.975187 0.214114  0.000000 0.000000 1 0 1.000000
  phy
0  3.796330 -20.833588 -3.161398  0.793761 0.607681 -0.025833  0.000000 0.000000 1 0 1.000000
0  4.334195 -20.868196 -1.533854  0.810407 0.058890 -0.582900  0.000000 0.000000 1 0 1.000000
0  1.700114 -20.803284 -4.586538  0.289366 0.950511 -0.113123  0.000000 0.000000 1 0 1.000000
  phy
0  4.334195 -20.868196 -1.533854  0.810407 0.058890 -0.582900  0.000000 0.000000 1 0 1.000000
0  -0.011537 -20.805372 -4.488354  -0.404894 0.734015 -0.545236  0.000000 0.000000 1 0 1.000000
0  1.700114 -20.803284 -4.586538  0.289366 0.950511 -0.113123  0.000000 0.000000 1 0 1.000000
  phy
0  3.796329 -9.565091 -2.921767  0.835325 0.547385 0.051007  0.000000 0.000000 1 0 1.000000
0  4.334195 -9.599701 -1.294220  0.816026 -0.024202 0.577508  0.000000 0.000000 1 0 1.000000
0  3.796330 -20.833588 -3.161398  0.793761 0.607681 -0.025833  0.000000 0.000000 1 0 1.000000
  phy
0  4.334195 -9.599701 -1.294220  0.816026 -0.024202 0.577508  0.000000 0.000000 1 0 1.000000
0  4.334195 -20.868196 -1.533854  0.810407 0.058890 -0.582900  0.000000 0.000000 1 0 1.000000
0  3.796330 -20.833588 -3.161398  0.793761 0.607681 -0.025833  0.000000 0.000000 1 0 1.000000
  phy
0  -2.215553 -20.857935 -2.016602  -0.826326 0.562575 -0.026357  0.000000 0.000000 1 0 1.000000
0  -0.790091 -9.544867 -3.872713  -0.637215 0.647189 0.418454  0.000000 0.000000 1 0 1.000000
0  -0.011537 -20.805372 -4.488354  -0.404894 0.734015 -0.545236  0.000000 0.000000 1 0 1.000000
  phy
0  -0.790091 -9.544867 -3.872713  -0.637215 0.647189 0.418454  0.000000 0.000000 1 0 1.000000
0  -2.215553 -20.857935 -2.016602  -0.826326 0.562575 -0.026357  0.000000 0.000000 1 0 1.000000
0  -2.215554 -9.589437 -1.776971  -0.979837 0.180653 0.085350  0.000000 0.000000 1 0 1.000000
  phy
0  -1.741254 -9.642380 0.712671  -0.743600 -0.427823 0.513835  0.000000 0.000000 1 0 1.000000
0  -0.790091 -9.544867 -3.872713  -0.637215 0.647189 0.418454  0.000000 0.000000 1 0 1.000000
0  -2.215554 -9.589437 -1.776971  -0.979837 0.180653 0.085350  0.000000 0.000000 1 0 1.000000
  phy
0  -0.790091 -9.544867 -3.872713  -0.637215 0.647189 0.418454  0.000000 0.000000 1 0 1.000000
0  -1.741254 -9.642380 0.712671  -0.743600 -0.427823 0.513835  0.000000 0.000000 1 0 1.000000
0  4.334195 -9.599701 -1.294220  0.816026 -0.024202 0.577508  0.000000 0.000000 1 0 1.000000
  phy
0  -0.790091 -9.544867 -3.872713  -0.637215 0.647189 0.418454  0.000000 0.000000 1 0 1.000000
0  4.334195 -9.599701 -1.294220  0.816026 -0.024202 0.577508  0.000000 0.000000 1 0 1.000000
0  0.837822 -9.533432 -4.410460  -0.056261 0.975187 0.214114  0.000000 0.000000 1 0 1.000000
  phy
0  -0.011537 -20.805372 -4.488354  -0.404894 0.734015 -0.545236  0.000000 0.000000 1 0 1.000000
0  -0.790091 -9.544867 -3.872713  -0.637215 0.647189 0.418454  0.000000 0.000000 1 0 1.000000
0  0.837822 -9.533432 -4.410460  -0.056261 0.975187 0.214114  0.000000 0.000000 1 0 1.000000
  phy
0  -2.215554 -9.589437 -1.776971  -0.979837 0.180653 0.085350  0.000000 0.000000 1 0 1.000000
0  -2.215553 -20.857935 -2.016602  -0.826326 0.562575 -0.026357  0.000000 0.000000 1 0 1.000000
0  -2.279118 -20.876270 -1.154506  -0.833690 -0.147404 -0.532196  0.000000 0.000000 1 0 1.000000
  phy
0  -0.011537 -20.805372 -4.488354  -0.404894 0.734015 -0.545236  0.000000 0.000000 1 0 1.000000
0  -2.279118 -20.876270 -1.154506  -0.833690 -0.147404 -0.532196  0.000000 0.000000 1 0 1.000000
0  -2.215553 -20.857935 -2.016602  -0.826326 0.562575 -0.026357  0.000000 0.000000 1 0 1.000000
  phy
0  -1.741251 -20.910879 0.473039  -0.687078 -0.724761 -0.051435  0.000000 0.000000 1 0 1.000000
0  -1.741254 -9.642380 0.712671  -0.743600 -0.427823 0.513835  0.000000 0.000000 1 0 1.000000
0  -2.279118 -20.876270 -1.154506  -0.833690 -0.147404 -0.532196  0.000000 0.000000 1 0 1.000000
  phy
0  -1.741254 -9.642380 0.712671  -0.743600 -0.427823 0.513835  0.000000 0.000000 1 0 1.000000
0  -2.215554 -9.589437 -1.776971  -0.979837 0.180653 0.085350  0.000000 0.000000 1 0 1.000000
0  -2.279118 -20.876270 -1.154506  -0.833690 -0.147404 -0.532196  0.000000 0.000000 1 0 1.000000
  phy
0  3.986047 -20.903889 0.144511  0.917199 -0.397638 -0.025095  0.000000 0.000000 1 0 1.000000
0  4.334195 -20.868196 -1.533854  0.810407 0.058890 -0.582900  0.000000 0.000000 1 0 1.000000
0  4.334195 -9.599701 -1.294220  0.816026 -0.024202 0.577508  0.000000 0.000000 1 0 1.000000
  phy
0  2.845168 -20.931099 1.423987  0.368524 -0.679392 -0.634521  0.000000 0.000000 1 0 1.000000
0  4.334195 -20.868196 -1.533854  0.810407 0.058890 -0.582900  0.000000 0.000000 1 0 1.000000
0  3.986047 -20.903889 0.144511  0.917199 -0.397638 -0.025095  0.000000 0.000000 1 0 1.000000
  phy
0  -2.279118 -20.876270 -1.154506  -0.833690 -0.147404 -0.532196  0.000000 0.000000 1 0 1.000000
0  2.845168 -20.931099 1.423987  0.368524 -0.679392 -0.634521  0.000000 0.000000 1 0 1.000000
0  0.354964 -20.941183 1.898174  -0.132254 -0.973457 -0.186792  0.000000 0.000000 1 0 1.000000
  phy
0  -2.279118 -20.876270 -1.154506  -0.833690 -0.147404 -0.532196  0.000000 0.000000 1 0 1.000000
0  -0.011537 -20.805372 -4.488354  -0.404894 0.734015 -0.545236  0.000000 0.000000 1 0 1.000000
0  2.845168 -20.931099 1.423987  0.368524 -0.679392 -0.634521  0.000000 0.000000 1 0 1.000000
  phy
0  -0.011537 -20.805372 -4.488354  -0.404894 0.734015 -0.545236  0.000000 0.000000 1 0 1.000000
0  4.334195 -20.868196 -1.533854  0.810407 0.058890 -0.582900  0.000000 0.000000 1 0 1.000000
0  2.845168 -20.931099 1.423987  0.368524 -0.679392 -0.634521  0.000000 0.000000 1 0 1.000000
  phy
0  1.700114 -20.803284 -4.586538  0.289366 0.950511 -0.113123  0.000000 0.000000 1 0 1.000000
0  -0.011537 -20.805372 -4.488354  -0.404894 0.734015 -0.545236  0.000000 0.000000 1 0 1.000000
0  0.837822 -9.533432 -4.410460  -0.056261 0.975187 0.214114  0.000000 0.000000 1 0 1.000000
  phy
0  -1.741251 -20.910879 0.473039  -0.687078 -0.724761 -0.051435  0.000000 0.000000 1 0 1.000000
0  -2.279118 -20.876270 -1.154506  -0.833690 -0.147404 -0.532196  0.000000 0.000000 1 0 1.000000
0  0.354964 -20.941183 1.898174  -0.132254 -0.973457 -0.186792  0.000000 0.000000 1 0 1.000000
  phy
0  2.845168 -20.931099 1.423987  0.368524 -0.679392 -0.634521  0.000000 0.000000 1 0 1.000000
0  2.066614 -9.670598 2.039627  0.259381 -0.965767 -0.003875  0.000000 0.000000 1 0 1.000000
0  0.354964 -20.941183 1.898174  -0.132254 -0.973457 -0.186792  0.000000 0.000000 1 0 1.000000
  phy
0  0.356516 -7.515864 -4.844419  -0.475875 0.623555 -0.620259  0.000000 0.000000 1 0 1.000000
0  -1.116295 -7.753330 -2.609076  -0.826712 0.538189 -0.164011  0.000000 0.000000 1 0 1.000000
0  0.357420 -6.158080 -4.812962  -0.655503 0.687790 0.311866  0.000000 0.000000 1 0 1.000000
  phy
0  0.357420 -6.158080 -4.812962  -0.655503 0.687790 0.311866  0.000000 0.000000 1 0 1.000000
0  -1.116295 -7.753330 -2.609076  -0.826712 0.538189 -0.164011  0.000000 0.000000 1 0 1.000000
0  -1.393525 -6.037979 -2.041833  -0.810949 0.401395 0.425727  0.000000 0.000000 1 0 1.000000
  phy
0  -1.116295 -7.753330 -2.609076  -0.826712 0.538189 -0.164011  0.000000 0.000000 1 0 1.000000
0  -1.393526 -7.764612 -2.078552  -0.962513 0.199174 -0.184115  0.000000 0.000000 1 0 1.000000
0  -1.393525 -6.037979 -2.041833  -0.810949 0.401395 0.425727  0.000000 0.000000 1 0 1.000000
  phy
0  -1.116295 -7.753330 -2.609076  -0.826712 0.538189 -0.164011  0.000000 0.000000 1 0 1.000000
0  -0.754339 -8.420174 -1.851405  -0.477064 0.225941 -0.849330  0.000000 0.000000 1 0 1.000000
0  -1.393526 -7.764612 -2.078552  -0.962513 0.199174 -0.184115  0.000000 0.000000 1 0 1.000000
  phy
0  -1.116295 -7.753330 -2.609076  -0.826712 0.538189 -0.164011  0.000000 0.000000 1 0 1.000000
0  0.356516 -7.515864 -4.844419  -0.475875 0.623555 -0.620259  0.000000 0.000000 1 0 1.000000
0  -0.754339 -8.420174 -1.851405  -0.477064 0.225941 -0.849330  0.000000 0.000000 1 0 1.000000
  phy
0  0.090549 -8.399823 -2.808500  -0.048694 0.091336 -0.994629  0.000000 0.000000 1 0 1.000000
0  2.612364 -8.420040 -1.857749  0.310313 0.262188 -0.913763  0.000000 0.000000 1 0 1.000000
0  2.717843 -8.438223 -1.002718  0.208535 -0.063978 -0.975920  0.000000 0.000000 1 0 1.000000
  phy
0  2.717843 -8.438223 -1.002718  0.208535 -0.063978 -0.975920  0.000000 0.000000 1 0 1.000000
0  1.364362 -8.470828 0.530510  0.075947 -0.206696 -0.975453  0.000000 0.000000 1 0 1.000000
0  0.090549 -8.399823 -2.808500  -0.048694 0.091336 -0.994629  0.000000 0.000000 1 0 1.000000
  phy
0  2.717843 -8.438223 -1.002718  0.208535 -0.063978 -0.975920  0.000000 0.000000 1 0 1.000000
0  2.612364 -8.420040 -1.857749  0.310313 0.262188 -0.913763  0.000000 0.000000 1 0 1.000000
0  3.395008 -7.776779 -1.506404  0.921000 0.121526 -0.370122  0.000000 0.000000 1 0 1.000000
  phy
0  3.395008 -7.776779 -1.506404  0.921000 0.121526 -0.370122  0.000000 0.000000 1 0 1.000000
0  3.396137 -7.789506 -0.907844  0.995165 -0.054444 -0.081745  0.000000 0.000000 1 0 1.000000
0  2.717843 -8.438223 -1.002718  0.208535 -0.063978 -0.975920  0.000000 0.000000 1 0 1.000000
  phy
0  2.976728 -7.813153 0.204118  0.665576 -0.465967 -0.582995  0.000000 0.000000 1 0 1.000000
0  1.364362 -8.470828 0.530510  0.075947 -0.206696 -0.975453  0.000000 0.000000 1 0 1.000000
0  2.717843 -8.438223 -1.002718  0.208535 -0.063978 -0.975920  0.000000 0.000000 1 0 1.000000
  phy
0  2.717843 -8.438223 -1.002718  0.208535 -0.063978 -0.975920  0.000000 0.000000 1 0 1.000000
0  3.396137 -7.789506 -0.907844  0.995165 -0.054444 -0.081745  0.000000 0.000000 1 0 1.000000
0  3.253953 -7.801870 -0.326403  0.893864 -0.330718 -0.302709  0.000000 0.000000 1 0 1.000000
  phy
0  2.717843 -8.438223 -1.002718  0.208535 -0.063978 -0.975920  0.000000 0.000000 1 0 1.000000
0  3.253953 -7.801870 -0.326403  0.893864 -0.330718 -0.302709  0.000000 0.000000 1 0 1.000000
0  2.976728 -7.813153 0.204118  0.665576 -0.465967 -0.582995  0.000000 0.000000 1 0 1.000000
  phy
0  0.090549 -8.399823 -2.808500  -0.048694 0.091336 -0.994629  0.000000 0.000000 1 0 1.000000
0  1.364362 -8.470828 0.530510  0.075947 -0.206696 -0.975453  0.000000 0.000000 1 0 1.000000
0  -0.549512 -8.455483 -0.191039  -0.217880 -0.173448 -0.960439  0.000000 0.000000 1 0 1.000000
  phy
0  0.090549 -8.399823 -2.808500  -0.048694 0.091336 -0.994629  0.000000 0.000000 1 0 1.000000
0  -0.549512 -8.455483 -0.191039  -0.217880 -0.173448 -0.960439  0.000000 0.000000 1 0 1.000000
0  -0.754339 -8.420174 -1.851405  -0.477064 0.225941 -0.849330  0.000000 0.000000 1 0 1.000000
  phy
0  0.090549 -8.399823 -2.808500  -0.048694 0.091336 -0.994629  0.000000 0.000000 1 0 1.000000
0  0.926820 -8.395404 -3.016247  0.082132 0.344938 -0.935025  0.000000 0.000000 1 0 1.000000
0  2.612364 -8.420040 -1.857749  0.310313 0.262188 -0.913763  0.000000 0.000000 1 0 1.000000
  phy
0  -0.754339 -8.420174 -1.851405  -0.477064 0.225941 -0.849330  0.000000 0.000000 1 0 1.000000
0  0.356516 -7.515864 -4.844419  -0.475875 0.623555 -0.620259  0.000000 0.000000 1 0 1.000000
0  0.090549 -8.399823 -2.808500  -0.048694 0.091336 -0.994629  0.000000 0.000000 1 0 1.000000
  phy
0  0.356516 -7.515864 -4.844419  -0.475875 0.623555 -0.620259  0.000000 0.000000 1 0 1.000000
0  0.926820 -8.395404 -3.016247  0.082132 0.344938 -0.935025  0.000000 0.000000 1 0 1.000000
0  0.090549 -8.399823 -2.808500  -0.048694 0.091336 -0.994629  0.000000 0.000000 1 0 1.000000
  phy
0  -1.393526 -7.764612 -2.078552  -0.962513 0.199174 -0.184115  0.000000 0.000000 1 0 1.000000
0  -1.534581 -6.063073 -0.861833  -0.274312 -0.061958 0.959643  0.000000 0.000000 1 0 1.000000
0  -1.393525 -6.037979 -2.041833  -0.810949 0.401395 0.425727  0.000000 0.000000 1 0 1.000000
  phy
0  -1.534581 -6.063073 -0.861833  -0.274312 -0.061958 0.959643  0.000000 0.000000 1 0 1.000000
0  -1.393526 -7.764612 -2.078552  -0.962513 0.199174 -0.184115  0.000000 0.000000 1 0 1.000000
0  -1.534581 -7.789705 -0.898551  -0.886581 -0.013827 -0.462366  0.000000 0.000000 1 0 1.000000
  phy
0  -1.393526 -7.764612 -2.078552  -0.962513 0.199174 -0.184115  0.000000 0.000000 1 0 1.000000
0  -0.754339 -8.420174 -1.851405  -0.477064 0.225941 -0.849330  0.000000 0.000000 1 0 1.000000
0  -1.534581 -7.789705 -0.898551  -0.886581 -0.013827 -0.462366  0.000000 0.000000 1 0 1.000000
  phy
0  2.971410 -7.753167 -2.616782  0.826230 0.538638 -0.164963  0.000000 0.000000 1 0 1.000000
0  3.250636 -6.037793 -2.050583  0.844628 0.301795 0.442179  0.000000 0.000000 1 0 1.000000
0  3.250636 -7.764424 -2.087301  0.897970 0.348381 -0.268850  0.000000 0.000000 1 0 1.000000
  phy
0  2.971410 -7.753167 -2.616782  0.826230 0.538638 -0.164963  0.000000 0.000000 1 0 1.000000
0  1.488880 -6.160750 -4.837095  0.668281 0.596819 0.444080  0.000000 0.000000 1 0 1.000000
0  3.250636 -6.037793 -2.050583  0.844628 0.301795 0.442179  0.000000 0.000000 1 0 1.000000
  phy
0  1.484774 -7.515925 -4.872157  0.414622 0.680517 -0.604140  0.000000 0.000000 1 0 1.000000
0  1.488880 -6.160750 -4.837095  0.668281 0.596819 0.444080  0.000000 0.000000 1 0 1.000000
0  2.971410 -7.753167 -2.616782  0.826230 0.538638 -0.164963  0.000000 0.000000 1 0 1.000000
  phy
0  3.250636 -7.764424 -2.087301  0.897970 0.348381 -0.268850  0.000000 0.000000 1 0 1.000000
0  2.612364 -8.420040 -1.857749  0.310313 0.262188 -0.913763  0.000000 0.000000 1 0 1.000000
0  2.971410 -7.753167 -2.616782  0.826230 0.538638 -0.164963  0.000000 0.000000 1 0 1.000000
  phy
0  2.612364 -8.420040 -1.857749  0.310313 0.262188 -0.913763  0.000000 0.000000 1 0 1.000000
0  1.484774 -7.515925 -4.872157  0.414622 0.680517 -0.604140  0.000000 0.000000 1 0 1.000000
0  2.971410 -7.753167 -2.616782  0.826230 0.538638 -0.164963  0.000000 0.000000 1 0 1.000000
  phy
0  3.250636 -7.764424 -2.087301  0.897970 0.348381 -0.268850  0.000000 0.000000 1 0 1.000000
0  3.250636 -6.037793 -2.050583  0.844628 0.301795 0.442179  0.000000 0.000000 1 0 1.000000
0  3.395008 -7.776779 -1.506404  0.921000 0.121526 -0.370122  0.000000 0.000000 1 0 1.000000
  phy
0  3.250636 -6.037793 -2.050583  0.844628 0.301795 0.442179  0.000000 0.000000 1 0 1.000000
0  3.396137 -7.789506 -0.907844  0.995165 -0.054444 -0.081745  0.000000 0.000000 1 0 1.000000
0  3.395008 -7.776779 -1.506404  0.921000 0.121526 -0.370122  0.000000 0.000000 1 0 1.000000
  phy
0  3.395008 -7.776779 -1.506404  0.921000 0.121526 -0.370122  0.000000 0.000000 1 0 1.000000
0  2.612364 -8.420040 -1.857749  0.310313 0.262188 -0.913763  0.000000 0.000000 1 0 1.000000
0  3.250636 -7.764424 -2.087301  0.897970 0.348381 -0.268850  0.000000 0.000000 1 0 1.000000
  phy
0  -1.110977 -7.813317 0.211820  -0.796007 -0.546309 -0.260612  0.000000 0.000000 1 0 1.000000
0  -0.549512 -8.455483 -0.191039  -0.217880 -0.173448 -0.960439  0.000000 0.000000 1 0 1.000000
0  -0.713127 -7.822829 0.659107  -0.538157 -0.776012 -0.328926  0.000000 0.000000 1 0 1.000000
  phy
0  -1.110977 -7.813317 0.211820  -0.796007 -0.546309 -0.260612  0.000000 0.000000 1 0 1.000000
0  -1.390204 -7.802059 -0.317654  -0.906430 -0.410386 -0.099838  0.000000 0.000000 1 0 1.000000
0  -0.549512 -8.455483 -0.191039  -0.217880 -0.173448 -0.960439  0.000000 0.000000 1 0 1.000000
  phy
0  -1.110977 -7.813317 0.211820  -0.796007 -0.546309 -0.260612  0.000000 0.000000 1 0 1.000000
0  -0.713127 -7.822829 0.659107  -0.538157 -0.776012 -0.328926  0.000000 0.000000 1 0 1.000000
0  -0.713126 -6.096198 0.695826  -0.638280 -0.728593 0.248497  0.000000 0.000000 1 0 1.000000
  phy
0  -1.390204 -7.802059 -0.317654  -0.906430 -0.410386 -0.099838  0.000000 0.000000 1 0 1.000000
0  -1.110977 -7.813317 0.211820  -0.796007 -0.546309 -0.260612  0.000000 0.000000 1 0 1.000000
0  -0.713126 -6.096198 0.695826  -0.638280 -0.728593 0.248497  0.000000 0.000000 1 0 1.000000
  phy
0  1.616252 -7.662166 1.315476  0.233503 -0.929072 -0.286881  0.000000 0.000000 1 0 1.000000
0  0.934894 -6.109410 1.317143  -0.050579 -0.491685 0.869303  0.000000 0.000000 1 0 1.000000
0  0.934894 -7.836042 1.280426  -0.035317 -0.946181 -0.321704  0.000000 0.000000 1 0 1.000000
  phy
0  0.934894 -7.836042 1.280426  -0.035317 -0.946181 -0.321704  0.000000 0.000000 1 0 1.000000
0  0.934894 -6.109410 1.317143  -0.050579 -0.491685 0.869303  0.000000 0.000000 1 0 1.000000
0  0.340426 -7.834532 1.209398  -0.330575 -0.868798 -0.368661  0.000000 0.000000 1 0 1.000000
  phy
0  0.934894 -7.836042 1.280426  -0.035317 -0.946181 -0.321704  0.000000 0.000000 1 0 1.000000
0  1.364362 -8.470828 0.530510  0.075947 -0.206696 -0.975453  0.000000 0.000000 1 0 1.000000
0  1.616252 -7.662166 1.315476  0.233503 -0.929072 -0.286881  0.000000 0.000000 1 0 1.000000
  phy
0  0.340426 -7.834532 1.209398  -0.330575 -0.868798 -0.368661  0.000000 0.000000 1 0 1.000000
0  1.364362 -8.470828 0.530510  0.075947 -0.206696 -0.975453  0.000000 0.000000 1 0 1.000000
0  0.934894 -7.836042 1.280426  -0.035317 -0.946181 -0.321704  0.000000 0.000000 1 0 1.000000
  phy
0  2.617651 -7.650939 0.787610  0.652275 -0.741965 -0.154999  0.000000 0.000000 1 0 1.000000
0  1.364362 -8.470828 0.530510  0.075947 -0.206696 -0.975453  0.000000 0.000000 1 0 1.000000
0  2.976728 -7.813153 0.204118  0.665576 -0.465967 -0.582995  0.000000 0.000000 1 0 1.000000
  phy
0  3.253953 -7.801870 -0.326403  0.893864 -0.330718 -0.302709  0.000000 0.000000 1 0 1.000000
0  3.253953 -6.075239 -0.289686  0.257330 -0.146058 0.955222  0.000000 0.000000 1 0 1.000000
0  2.976728 -7.813153 0.204118  0.665576 -0.465967 -0.582995  0.000000 0.000000 1 0 1.000000
  phy
0  2.976728 -7.813153 0.204118  0.665576 -0.465967 -0.582995  0.000000 0.000000 1 0 1.000000
0  3.253953 -6.075239 -0.289686  0.257330 -0.146058 0.955222  0.000000 0.000000 1 0 1.000000
0  2.617651 -7.650939 0.787610  0.652275 -0.741965 -0.154999  0.000000 0.000000 1 0 1.000000
  phy
0  0.331337 -6.005366 -3.575386  -0.011022 0.008107 0.999906  0.000000 0.000000 1 0 1.000000
0  1.520002 -6.005318 -3.577617  0.026324 0.029054 0.999231  0.000000 0.000000 1 0 1.000000
0  1.488880 -6.160750 -4.837095  0.668281 0.596819 0.444080  0.000000 0.000000 1 0 1.000000
  phy
0  0.357420 -6.158080 -4.812962  -0.655503 0.687790 0.311866  0.000000 0.000000 1 0 1.000000
0  0.331337 -6.005366 -3.575386  -0.011022 0.008107 0.999906  0.000000 0.000000 1 0 1.000000
0  1.488880 -6.160750 -4.837095  0.668281 0.596819 0.444080  0.000000 0.000000 1 0 1.000000
  phy
0  -1.534581 -6.063073 -0.861833  -0.274312 -0.061958 0.959643  0.000000 0.000000 1 0 1.000000
0  0.331337 -6.005366 -3.575386  -0.011022 0.008107 0.999906  0.000000 0.000000 1 0 1.000000
0  -1.393525 -6.037979 -2.041833  -0.810949 0.401395 0.425727  0.000000 0.000000 1 0 1.000000
  phy
0  1.520002 -6.005318 -3.577617  0.026324 0.029054 0.999231  0.000000 0.000000 1 0 1.000000
0  0.331337 -6.005366 -3.575386  -0.011022 0.008107 0.999906  0.000000 0.000000 1 0 1.000000
0  3.253953 -6.075239 -0.289686  0.257330 -0.146058 0.955222  0.000000 0.000000 1 0 1.000000
  phy
0  0.331337 -6.005366 -3.575386  -0.011022 0.008107 0.999906  0.000000 0.000000 1 0 1.000000
0  -1.534581 -6.063073 -0.861833  -0.274312 -0.061958 0.959643  0.000000 0.000000 1 0 1.000000
0  3.253953 -6.075239 -0.289686  0.257330 -0.146058 0.955222  0.000000 0.000000 1 0 1.000000
  phy
0  0.331337 -6.005366 -3.575386  -0.011022 0.008107 0.999906  0.000000 0.000000 1 0 1.000000
0  0.357420 -6.158080 -4.812962  -0.655503 0.687790 0.311866  0.000000 0.000000 1 0 1.000000
0  -1.393525 -6.037979 -2.041833  -0.810949 0.401395 0.425727  0.000000 0.000000 1 0 1.000000
  phy
0  -0.549512 -8.455483 -0.191039  -0.217880 -0.173448 -0.960439  0.000000 0.000000 1 0 1.000000
0  -1.534581 -7.789705 -0.898551  -0.886581 -0.013827 -0.462366  0.000000 0.000000 1 0 1.000000
0  -0.754339 -8.420174 -1.851405  -0.477064 0.225941 -0.849330  0.000000 0.000000 1 0 1.000000
  phy
0  1.484774 -7.515925 -4.872157  0.414622 0.680517 -0.604140  0.000000 0.000000 1 0 1.000000
0  0.356516 -7.515864 -4.844419  -0.475875 0.623555 -0.620259  0.000000 0.000000 1 0 1.000000
0  0.357420 -6.158080 -4.812962  -0.655503 0.687790 0.311866  0.000000 0.000000 1 0 1.000000
  phy
0  1.484774 -7.515925 -4.872157  0.414622 0.680517 -0.604140  0.000000 0.000000 1 0 1.000000
0  0.926820 -8.395404 -3.016247  0.082132 0.344938 -0.935025  0.000000 0.000000 1 0 1.000000
0  0.356516 -7.515864 -4.844419  -0.475875 0.623555 -0.620259  0.000000 0.000000 1 0 1.000000
  phy
0  -0.549512 -8.455483 -0.191039  -0.217880 -0.173448 -0.960439  0.000000 0.000000 1 0 1.000000
0  0.340426 -7.834532 1.209398  -0.330575 -0.868798 -0.368661  0.000000 0.000000 1 0 1.000000
0  -0.713127 -7.822829 0.659107  -0.538157 -0.776012 -0.328926  0.000000 0.000000 1 0 1.000000
  phy
0  0.340426 -7.834532 1.209398  -0.330575 -0.868798 -0.368661  0.000000 0.000000 1 0 1.000000
0  -0.713126 -6.096198 0.695826  -0.638280 -0.728593 0.248497  0.000000 0.000000 1 0 1.000000
0  -0.713127 -7.822829 0.659107  -0.538157 -0.776012 -0.328926  0.000000 0.000000 1 0 1.000000
  phy
0  1.740083 -6.403702 1.283192  0.515496 -0.808041 0.285190  0.000000 0.000000 1 0 1.000000
0  0.934894 -6.109410 1.317143  -0.050579 -0.491685 0.869303  0.000000 0.000000 1 0 1.000000
0  1.616252 -7.662166 1.315476  0.233503 -0.929072 -0.286881  0.000000 0.000000 1 0 1.000000
  phy
0  1.616252 -7.662166 1.315476  0.233503 -0.929072 -0.286881  0.000000 0.000000 1 0 1.000000
0  2.617651 -7.650939 0.787610  0.652275 -0.741965 -0.154999  0.000000 0.000000 1 0 1.000000
0  1.740083 -6.403702 1.283192  0.515496 -0.808041 0.285190  0.000000 0.000000 1 0 1.000000
  phy
0  1.616252 -7.662166 1.315476  0.233503 -0.929072 -0.286881  0.000000 0.000000 1 0 1.000000
0  1.364362 -8.470828 0.530510  0.075947 -0.206696 -0.975453  0.000000 0.000000 1 0 1.000000
0  2.617651 -7.650939 0.787610  0.652275 -0.741965 -0.154999  0.000000 0.000000 1 0 1.000000
  phy
0  3.253953 -7.801870 -0.326403  0.893864 -0.330718 -0.302709  0.000000 0.000000 1 0 1.000000
0  3.396137 -7.789506 -0.907844  0.995165 -0.054444 -0.081745  0.000000 0.000000 1 0 1.000000
0  3.253953 -6.075239 -0.289686  0.257330 -0.146058 0.955222  0.000000 0.000000 1 0 1.000000
  phy
0  2.617651 -7.650939 0.787610  0.652275 -0.741965 -0.154999  0.000000 0.000000 1 0 1.000000
0  3.253953 -6.075239 -0.289686  0.257330 -0.146058 0.955222  0.000000 0.000000 1 0 1.000000
0  1.740083 -6.403702 1.283192  0.515496 -0.808041 0.285190  0.000000 0.000000 1 0 1.000000
  phy
0  1.740083 -6.403702 1.283192  0.515496 -0.808041 0.285190  0.000000 0.000000 1 0 1.000000
0  3.253953 -6.075239 -0.289686  0.257330 -0.146058 0.955222  0.000000 0.000000 1 0 1.000000
0  0.934894 -6.109410 1.317143  -0.050579 -0.491685 0.869303  0.000000 0.000000 1 0 1.000000
  phy
0  1.520002 -6.005318 -3.577617  0.026324 0.029054 0.999231  0.000000 0.000000 1 0 1.000000
0  3.250636 -6.037793 -2.050583  0.844628 0.301795 0.442179  0.000000 0.000000 1 0 1.000000
0  1.488880 -6.160750 -4.837095  0.668281 0.596819 0.444080  0.000000 0.000000 1 0 1.000000
  phy
0  3.250636 -6.037793 -2.050583  0.844628 0.301795 0.442179  0.000000 0.000000 1 0 1.000000
0  1.520002 -6.005318 -3.577617  0.026324 0.029054 0.999231  0.000000 0.000000 1 0 1.000000
0  3.253953 -6.075239 -0.289686  0.257330 -0.146058 0.955222  0.000000 0.000000 1 0 1.000000
  phy
0  -0.549512 -8.455483 -0.191039  -0.217880 -0.173448 -0.960439  0.000000 0.000000 1 0 1.000000
0  1.364362 -8.470828 0.530510  0.075947 -0.206696 -0.975453  0.000000 0.000000 1 0 1.000000
0  0.340426 -7.834532 1.209398  -0.330575 -0.868798 -0.368661  0.000000 0.000000 1 0 1.000000
  phy
0  -0.549512 -8.455483 -0.191039  -0.217880 -0.173448 -0.960439  0.000000 0.000000 1 0 1.000000
0  -1.390204 -7.802059 -0.317654  -0.906430 -0.410386 -0.099838  0.000000 0.000000 1 0 1.000000
0  -1.534581 -7.789705 -0.898551  -0.886581 -0.013827 -0.462366  0.000000 0.000000 1 0 1.000000
  phy
0  2.612364 -8.420040 -1.857749  0.310313 0.262188 -0.913763  0.000000 0.000000 1 0 1.000000
0  0.926820 -8.395404 -3.016247  0.082132 0.344938 -0.935025  0.000000 0.000000 1 0 1.000000
0  1.484774 -7.515925 -4.872157  0.414622 0.680517 -0.604140  0.000000 0.000000 1 0 1.000000
  phy
0  1.484774 -7.515925 -4.872157  0.414622 0.680517 -0.604140  0.000000 0.000000 1 0 1.000000
0  0.357420 -6.158080 -4.812962  -0.655503 0.687790 0.311866  0.000000 0.000000 1 0 1.000000
0  1.488880 -6.160750 -4.837095  0.668281 0.596819 0.444080  0.000000 0.000000 1 0 1.000000
  phy
0  0.340426 -7.834532 1.209398  -0.330575 -0.868798 -0.368661  0.000000 0.000000 1 0 1.000000
0  0.934894 -6.109410 1.317143  -0.050579 -0.491685 0.869303  0.000000 0.000000 1 0 1.000000
0  -0.713126 -6.096198 0.695826  -0.638280 -0.728593 0.248497  0.000000 0.000000 1 0 1.000000
  phy
0  -1.534581 -6.063073 -0.861833  -0.274312 -0.061958 0.959643  0.000000 0.000000 1 0 1.000000
0  -1.390204 -7.802059 -0.317654  -0.906430 -0.410386 -0.099838  0.000000 0.000000 1 0 1.000000
0  -0.713126 -6.096198 0.695826  -0.638280 -0.728593 0.248497  0.000000 0.000000 1 0 1.000000
  phy
0  -1.390204 -7.802059 -0.317654  -0.906430 -0.410386 -0.099838  0.000000 0.000000 1 0 1.000000
0  -1.534581 -6.063073 -0.861833  -0.274312 -0.061958 0.959643  0.000000 0.000000 1 0 1.000000
0  -1.534581 -7.789705 -0.898551  -0.886581 -0.013827 -0.462366  0.000000 0.000000 1 0 1.000000
  phy
0  3.253953 -6.075239 -0.289686  0.257330 -0.146058 0.955222  0.000000 0.000000 1 0 1.000000
0  -1.534581 -6.063073 -0.861833  -0.274312 -0.061958 0.959643  0.000000 0.000000 1 0 1.000000
0  0.934894 -6.109410 1.317143  -0.050579 -0.491685 0.869303  0.000000 0.000000 1 0 1.000000
  phy
0  -1.534581 -6.063073 -0.861833  -0.274312 -0.061958 0.959643  0.000000 0.000000 1 0 1.000000
0  -0.713126 -6.096198 0.695826  -0.638280 -0.728593 0.248497  0.000000 0.000000 1 0 1.000000
0  0.934894 -6.109410 1.317143  -0.050579 -0.491685 0.869303  0.000000 0.000000 1 0 1.000000
  phy
0  3.253953 -6.075239 -0.289686  0.257330 -0.146058 0.955222  0.000000 0.000000 1 0 1.000000
0  3.396137 -7.789506 -0.907844  0.995165 -0.054444 -0.081745  0.000000 0.000000 1 0 1.000000
0  3.250636 -6.037793 -2.050583  0.844628 0.301795 0.442179  0.000000 0.000000 1 0 1.000000
  phy
0  1.173000 -1.670949 -2.633076  -0.103193 0.022231 0.994413  0.000000 0.000000 1 0 1.000000
0  0.424917 -2.101782 -2.660911  -0.979677 0.103161 0.172020  0.000000 0.000000 1 0 1.000000
0  0.424917 -2.201269 0.446892  -0.989591 -0.136092 0.046774  0.000000 0.000000 1 0 1.000000
  phy
0  1.028570 -1.990111 0.781813  0.880067 -0.428020 -0.205621  0.000000 0.000000 1 0 1.000000
0  1.173000 -1.670949 -2.633076  -0.103193 0.022231 0.994413  0.000000 0.000000 1 0 1.000000
0  0.424917 -2.201269 0.446892  -0.989591 -0.136092 0.046774  0.000000 0.000000 1 0 1.000000
  phy
0  1.173000 -1.670949 -2.633076  -0.103193 0.022231 0.994413  0.000000 0.000000 1 0 1.000000
0  1.028570 -1.990111 0.781813  0.880067 -0.428020 -0.205621  0.000000 0.000000 1 0 1.000000
0  1.422360 -2.101782 -2.660911  0.997832 -0.016731 0.063656  0.000000 0.000000 1 0 1.000000
  phy
0  1.422360 -2.101782 -2.660911  0.997832 -0.016731 0.063656  0.000000 0.000000 1 0 1.000000
0  1.089878 -2.198735 -4.000627  0.149628 0.688455 0.709677  0.000000 0.000000 1 0 1.000000
0  1.173000 -1.670949 -2.633076  -0.103193 0.022231 0.994413  0.000000 0.000000 1 0 1.000000
  phy
0  0.424917 -2.101782 -2.660911  -0.979677 0.103161 0.172020  0.000000 0.000000 1 0 1.000000
0  1.173000 -1.670949 -2.633076  -0.103193 0.022231 0.994413  0.000000 0.000000 1 0 1.000000
0  1.089878 -2.198735 -4.000627  0.149628 0.688455 0.709677  0.000000 0.000000 1 0 1.000000
  phy
0  0.757400 -3.419629 -4.462804  -0.775451 0.600728 0.194425  0.000000 0.000000 1 0 1.000000
0  1.256121 -3.519680 -4.192811  0.828412 0.550671 0.102448  0.000000 0.000000 1 0 1.000000
0  0.647283 -6.177291 -4.717028  -0.969173 0.235638 -0.071967  0.000000 0.000000 1 0 1.000000
  phy
0  0.647283 -6.177291 -4.717028  -0.969173 0.235638 -0.071967  0.000000 0.000000 1 0 1.000000
0  1.256121 -3.519680 -4.192811  0.828412 0.550671 0.102448  0.000000 0.000000 1 0 1.000000
0  1.476351 -6.188460 -4.238495  0.996959 0.009951 -0.077294  0.000000 0.000000 1 0 1.000000
  phy
0  1.256121 -3.519680 -4.192811  0.828412 0.550671 0.102448  0.000000 0.000000 1 0 1.000000
0  0.757400 -3.419629 -4.462804  -0.775451 0.600728 0.194425  0.000000 0.000000 1 0 1.000000
0  1.089878 -2.198735 -4.000627  0.149628 0.688455 0.709677  0.000000 0.000000 1 0 1.000000
  phy
0  1.256121 -3.519680 -4.192811  0.828412 0.550671 0.102448  0.000000 0.000000 1 0 1.000000
0  1.089878 -2.198735 -4.000627  0.149628 0.688455 0.709677  0.000000 0.000000 1 0 1.000000
0  1.422360 -2.101782 -2.660911  0.997832 -0.016731 0.063656  0.000000 0.000000 1 0 1.000000
  phy
0  1.422360 -2.101782 -2.660911  0.997832 -0.016731 0.063656  0.000000 0.000000 1 0 1.000000
0  1.476351 -6.188460 -4.238495  0.996959 0.009951 -0.077294  0.000000 0.000000 1 0 1.000000
0  1.256121 -3.519680 -4.192811  0.828412 0.550671 0.102448  0.000000 0.000000 1 0 1.000000
  phy
0  0.757400 -3.419629 -4.462804  -0.775451 0.600728 0.194425  0.000000 0.000000 1 0 1.000000
0  0.424917 -2.101782 -2.660911  -0.979677 0.103161 0.172020  0.000000 0.000000 1 0 1.000000
0  1.089878 -2.198735 -4.000627  0.149628 0.688455 0.709677  0.000000 0.000000 1 0 1.000000
  phy
0  0.424917 -2.101782 -2.660911  -0.979677 0.103161 0.172020  0.000000 0.000000 1 0 1.000000
0  0.757400 -3.419629 -4.462804  -0.775451 0.600728 0.194425  0.000000 0.000000 1 0 1.000000
0  0.647283 -6.177291 -4.717028  -0.969173 0.235638 -0.071967  0.000000 0.000000 1 0 1.000000
  phy
0  1.199995 -6.199630 -3.759962  0.331562 -0.556967 -0.761482  0.000000 0.000000 1 0 1.000000
0  1.028570 -1.990111 0.781813  0.880067 -0.428020 -0.205621  0.000000 0.000000 1 0 1.000000
0  0.646837 -6.199630 -3.759962  -0.500616 -0.546133 -0.671656  0.000000 0.000000 1 0 1.000000
  phy
0  1.199995 -6.199630 -3.759962  0.331562 -0.556967 -0.761482  0.000000 0.000000 1 0 1.000000
0  1.476351 -6.188460 -4.238495  0.996959 0.009951 -0.077294  0.000000 0.000000 1 0 1.000000
0  1.028570 -1.990111 0.781813  0.880067 -0.428020 -0.205621  0.000000 0.000000 1 0 1.000000
  phy
0  0.646837 -6.199630 -3.759962  -0.500616 -0.546133 -0.671656  0.000000 0.000000 1 0 1.000000
0  0.647283 -6.177291 -4.717028  -0.969173 0.235638 -0.071967  0.000000 0.000000 1 0 1.000000
0  1.199995 -6.199630 -3.759962  0.331562 -0.556967 -0.761482  0.000000 0.000000 1 0 1.000000
  phy
0  0.647283 -6.177291 -4.717028  -0.969173 0.235638 -0.071967  0.000000 0.000000 1 0 1.000000
0  1.476351 -6.188460 -4.238495  0.996959 0.009951 -0.077294  0.000000 0.000000 1 0 1.000000
0  1.199995 -6.199630 -3.759962  0.331562 -0.556967 -0.761482  0.000000 0.000000 1 0 1.000000
  phy
0  1.028570 -1.990111 0.781813  0.880067 -0.428020 -0.205621  0.000000 0.000000 1 0 1.000000
0  1.476351 -6.188460 -4.238495  0.996959 0.009951 -0.077294  0.000000 0.000000 1 0 1.000000
0  1.422360 -2.101782 -2.660911  0.997832 -0.016731 0.063656  0.000000 0.000000 1 0 1.000000
  phy
0  0.424917 -2.101782 -2.660911  -0.979677 0.103161 0.172020  0.000000 0.000000 1 0 1.000000
0  0.647283 -6.177291 -4.717028  -0.969173 0.235638 -0.071967  0.000000 0.000000 1 0 1.000000
0  0.424917 -2.201269 0.446892  -0.989591 -0.136092 0.046774  0.000000 0.000000 1 0 1.000000
  phy
0  1.028570 -1.990111 0.781813  0.880067 -0.428020 -0.205621  0.000000 0.000000 1 0 1.000000
0  0.424917 -2.201269 0.446892  -0.989591 -0.136092 0.046774  0.000000 0.000000 1 0 1.000000
0  0.646837 -6.199630 -3.759962  -0.500616 -0.546133 -0.671656  0.000000 0.000000 1 0 1.000000
  phy
0  0.647283 -6.177291 -4.717028  -0.969173 0.235638 -0.071967  0.000000 0.000000 1 0 1.000000
0  0.646837 -6.199630 -3.759962  -0.500616 -0.546133 -0.671656  0.000000 0.000000 1 0 1.000000
0  0.424917 -2.201269 0.446892  -0.989591 -0.136092 0.046774  0.000000 0.000000 1 0 1.000000
  phy
0  1.217643 -4.664252 -0.497272  0.079611 -0.280818 0.956454  0.000000 0.000000 1 0 1.000000
0  2.528420 -5.148897 -0.764973  0.481517 -0.050077 0.875005  0.000000 0.000000 1 0 1.000000
0  0.964226 -4.574490 -1.266807  -0.040524 0.111798 0.992904  0.000000 0.000000 1 0 1.000000
  phy
0  2.528420 -5.148897 -0.764973  0.481517 -0.050077 0.875005  0.000000 0.000000 1 0 1.000000
0  2.261910 -5.124808 -1.897693  0.551808 0.239097 0.798962  0.000000 0.000000 1 0 1.000000
0  0.964226 -4.574490 -1.266807  -0.040524 0.111798 0.992904  0.000000 0.000000 1 0 1.000000
  phy
0  2.528420 -5.148897 -0.764973  0.481517 -0.050077 0.875005  0.000000 0.000000 1 0 1.000000
0  3.373890 -5.948298 -0.251857  0.968430 -0.170355 0.181993  0.000000 0.000000 1 0 1.000000
0  2.261910 -5.124808 -1.897693  0.551808 0.239097 0.798962  0.000000 0.000000 1 0 1.000000
  phy
0  2.528420 -5.148897 -0.764973  0.481517 -0.050077 0.875005  0.000000 0.000000 1 0 1.000000
0  2.069252 -5.167247 0.097928  0.400354 -0.478701 0.781385  0.000000 0.000000 1 0 1.000000
0  3.373890 -5.948298 -0.251857  0.968430 -0.170355 0.181993  0.000000 0.000000 1 0 1.000000
  phy
0  2.528420 -5.148897 -0.764973  0.481517 -0.050077 0.875005  0.000000 0.000000 1 0 1.000000
0  1.217643 -4.664252 -0.497272  0.079611 -0.280818 0.956454  0.000000 0.000000 1 0 1.000000
0  2.069252 -5.167247 0.097928  0.400354 -0.478701 0.781385  0.000000 0.000000 1 0 1.000000
  phy
0  -0.080342 -5.165841 0.031779  -0.338801 -0.420242 0.841790  0.000000 0.000000 1 0 1.000000
0  -0.452773 -5.151097 -0.661571  -0.553207 0.039857 0.832090  0.000000 0.000000 1 0 1.000000
0  -1.099980 -5.958451 0.225468  -0.600631 -0.344271 -0.721609  0.000000 0.000000 1 0 1.000000
  phy
0  -1.099980 -5.958451 0.225468  -0.600631 -0.344271 -0.721609  0.000000 0.000000 1 0 1.000000
0  -0.452773 -5.151097 -0.661571  -0.553207 0.039857 0.832090  0.000000 0.000000 1 0 1.000000
0  -1.306461 -6.038471 -1.832406  -0.231238 0.104912 -0.967224  0.000000 0.000000 1 0 1.000000
  phy
0  0.308061 -5.115208 -2.349144  -0.397889 0.415669 0.817866  0.000000 0.000000 1 0 1.000000
0  -0.452773 -5.151097 -0.661571  -0.553207 0.039857 0.832090  0.000000 0.000000 1 0 1.000000
0  0.964226 -4.574490 -1.266807  -0.040524 0.111798 0.992904  0.000000 0.000000 1 0 1.000000
  phy
0  -0.452773 -5.151097 -0.661571  -0.553207 0.039857 0.832090  0.000000 0.000000 1 0 1.000000
0  0.308061 -5.115208 -2.349144  -0.397889 0.415669 0.817866  0.000000 0.000000 1 0 1.000000
0  -1.306461 -6.038471 -1.832406  -0.231238 0.104912 -0.967224  0.000000 0.000000 1 0 1.000000
  phy
0  -0.452773 -5.151097 -0.661571  -0.553207 0.039857 0.832090  0.000000 0.000000 1 0 1.000000
0  -0.080342 -5.165841 0.031779  -0.338801 -0.420242 0.841790  0.000000 0.000000 1 0 1.000000
0  0.964226 -4.574490 -1.266807  -0.040524 0.111798 0.992904  0.000000 0.000000 1 0 1.000000
  phy
0  -0.080342 -5.165841 0.031779  -0.338801 -0.420242 0.841790  0.000000 0.000000 1 0 1.000000
0  1.217643 -4.664252 -0.497272  0.079611 -0.280818 0.956454  0.000000 0.000000 1 0 1.000000
0  0.964226 -4.574490 -1.266807  -0.040524 0.111798 0.992904  0.000000 0.000000 1 0 1.000000
  phy
0  1.217643 -4.664252 -0.497272  0.079611 -0.280818 0.956454  0.000000 0.000000 1 0 1.000000
0  -0.080342 -5.165841 0.031779  -0.338801 -0.420242 0.841790  0.000000 0.000000 1 0 1.000000
0  0.980750 -5.176010 0.509948  0.025940 -0.592514 0.805143  0.000000 0.000000 1 0 1.000000
  phy
0  2.069252 -5.167247 0.097928  0.400354 -0.478701 0.781385  0.000000 0.000000 1 0 1.000000
0  1.217643 -4.664252 -0.497272  0.079611 -0.280818 0.956454  0.000000 0.000000 1 0 1.000000
0  0.980750 -5.176010 0.509948  0.025940 -0.592514 0.805143  0.000000 0.000000 1 0 1.000000
  phy
0  0.308061 -5.115208 -2.349144  -0.397889 0.415669 0.817866  0.000000 0.000000 1 0 1.000000
0  0.524392 -6.004120 -3.447827  -0.179323 0.975155 -0.130060  0.000000 0.000000 1 0 1.000000
0  -1.306461 -6.038471 -1.832406  -0.231238 0.104912 -0.967224  0.000000 0.000000 1 0 1.000000
  phy
0  0.524392 -6.004120 -3.447827  -0.179323 0.975155 -0.130060  0.000000 0.000000 1 0 1.000000
0  0.308061 -5.115208 -2.349144  -0.397889 0.415669 0.817866  0.000000 0.000000 1 0 1.000000
0  1.466133 -5.112735 -2.465462  0.166612 0.599453 0.782877  0.000000 0.000000 1 0 1.000000
  phy
0  0.308061 -5.115208 -2.349144  -0.397889 0.415669 0.817866  0.000000 0.000000 1 0 1.000000
0  0.964226 -4.574490 -1.266807  -0.040524 0.111798 0.992904  0.000000 0.000000 1 0 1.000000
0  1.466133 -5.112735 -2.465462  0.166612 0.599453 0.782877  0.000000 0.000000 1 0 1.000000
  phy
0  -0.080342 -5.165841 0.031779  -0.338801 -0.420242 0.841790  0.000000 0.000000 1 0 1.000000
0  -1.099980 -5.958451 0.225468  -0.600631 -0.344271 -0.721609  0.000000 0.000000 1 0 1.000000
0  0.471679 -5.982961 1.378147  -0.284399 -0.847600 0.447986  0.000000 0.000000 1 0 1.000000
  phy
0  -0.080342 -5.165841 0.031779  -0.338801 -0.420242 0.841790  0.000000 0.000000 1 0 1.000000
0  0.471679 -5.982961 1.378147  -0.284399 -0.847600 0.447986  0.000000 0.000000 1 0 1.000000
0  0.980750 -5.176010 0.509948  0.025940 -0.592514 0.805143  0.000000 0.000000 1 0 1.000000
  phy
0  0.964226 -4.574490 -1.266807  -0.040524 0.111798 0.992904  0.000000 0.000000 1 0 1.000000
0  2.261910 -5.124808 -1.897693  0.551808 0.239097 0.798962  0.000000 0.000000 1 0 1.000000
0  1.466133 -5.112735 -2.465462  0.166612 0.599453 0.782877  0.000000 0.000000 1 0 1.000000
  phy
0  2.261910 -5.124808 -1.897693  0.551808 0.239097 0.798962  0.000000 0.000000 1 0 1.000000
0  2.847344 -6.020125 -2.695219  0.177667 0.172191 -0.968909  0.000000 0.000000 1 0 1.000000
0  1.466133 -5.112735 -2.465462  0.166612 0.599453 0.782877  0.000000 0.000000 1 0 1.000000
  phy
0  2.261910 -5.124808 -1.897693  0.551808 0.239097 0.798962  0.000000 0.000000 1 0 1.000000
0  3.373890 -5.948298 -0.251857  0.968430 -0.170355 0.181993  0.000000 0.000000 1 0 1.000000
0  2.847344 -6.020125 -2.695219  0.177667 0.172191 -0.968909  0.000000 0.000000 1 0 1.000000
  phy
0  2.021878 -6.103660 1.232944  0.073078 -0.152380 -0.985617  0.000000 0.000000 1 0 1.000000
0  2.069252 -5.167247 0.097928  0.400354 -0.478701 0.781385  0.000000 0.000000 1 0 1.000000
0  0.980750 -5.176010 0.509948  0.025940 -0.592514 0.805143  0.000000 0.000000 1 0 1.000000
  phy
0  2.069252 -5.167247 0.097928  0.400354 -0.478701 0.781385  0.000000 0.000000 1 0 1.000000
0  2.021878 -6.103660 1.232944  0.073078 -0.152380 -0.985617  0.000000 0.000000 1 0 1.000000
0  3.373890 -5.948298 -0.251857  0.968430 -0.170355 0.181993  0.000000 0.000000 1 0 1.000000
  phy
0  2.847344 -6.020125 -2.695219  0.177667 0.172191 -0.968909  0.000000 0.000000 1 0 1.000000
0  0.524392 -6.004120 -3.447827  -0.179323 0.975155 -0.130060  0.000000 0.000000 1 0 1.000000
0  1.466133 -5.112735 -2.465462  0.166612 0.599453 0.782877  0.000000 0.000000 1 0 1.000000
  phy
0  2.847344 -6.020125 -2.695219  0.177667 0.172191 -0.968909  0.000000 0.000000 1 0 1.000000
0  -1.306461 -6.038471 -1.832406  -0.231238 0.104912 -0.967224  0.000000 0.000000 1 0 1.000000
0  0.524392 -6.004120 -3.447827  -0.179323 0.975155 -0.130060  0.000000 0.000000 1 0 1.000000
  phy
0  2.021878 -6.103660 1.232944  0.073078 -0.152380 -0.985617  0.000000 0.000000 1 0 1.000000
0  0.471679 -5.982961 1.378147  -0.284399 -0.847600 0.447986  0.000000 0.000000 1 0 1.000000
0  -1.099980 -5.958451 0.225468  -0.600631 -0.344271 -0.721609  0.000000 0.000000 1 0 1.000000
  phy
0  -1.099980 -5.958451 0.225468  -0.600631 -0.344271 -0.721609  0.000000 0.000000 1 0 1.000000
0  -1.306461 -6.038471 -1.832406  -0.231238 0.104912 -0.967224  0.000000 0.000000 1 0 1.000000
0  2.021878 -6.103660 1.232944  0.073078 -0.152380 -0.985617  0.000000 0.000000 1 0 1.000000
  phy
0  2.021878 -6.103660 1.232944  0.073078 -0.152380 -0.985617  0.000000 0.000000 1 0 1.000000
0  -1.306461 -6.038471 -1.832406  -0.231238 0.104912 -0.967224  0.000000 0.000000 1 0 1.000000
0  2.847344 -6.020125 -2.695219  0.177667 0.172191 -0.968909  0.000000 0.000000 1 0 1.000000
  phy
0  2.847344 -6.020125 -2.695219  0.177667 0.172191 -0.968909  0.000000 0.000000 1 0 1.000000
0  3.373890 -5.948298 -0.251857  0.968430 -0.170355 0.181993  0.000000 0.000000 1 0 1.000000
0  2.021878 -6.103660 1.232944  0.073078 -0.152380 -0.985617  0.000000 0.000000 1 0 1.000000
  phy
0  0.471679 -5.982961 1.378147  -0.284399 -0.847600 0.447986  0.000000 0.000000 1 0 1.000000
0  2.021878 -6.103660 1.232944  0.073078 -0.152380 -0.985617  0.000000 0.000000 1 0 1.000000
0  0.980750 -5.176010 0.509948  0.025940 -0.592514 0.805143  0.000000 0.000000 1 0 1.000000
  phy
0  3.261495 -24.790359 0.737267  0.119499 -0.071489 -0.990257  0.000000 0.000000 1 0 1.000000
0  5.496623 -24.412664 0.527615  0.843569 -0.461463 -0.274669  0.000000 0.000000 1 0 1.000000
0  4.136152 -24.538891 1.489416  0.177185 -0.133484 -0.975083  0.000000 0.000000 1 0 1.000000
  phy
0  3.783566 -24.763292 -0.165714  0.162889 -0.006175 -0.986625  0.000000 0.000000 1 0 1.000000
0  5.496623 -24.412664 0.527615  0.843569 -0.461463 -0.274669  0.000000 0.000000 1 0 1.000000
0  3.261495 -24.790359 0.737267  0.119499 -0.071489 -0.990257  0.000000 0.000000 1 0 1.000000
  phy
0  4.136152 -24.538891 1.489416  0.177185 -0.133484 -0.975083  0.000000 0.000000 1 0 1.000000
0  3.443649 -24.453705 2.953593  0.558966 -0.673056 -0.484306  0.000000 0.000000 1 0 1.000000
0  3.261495 -24.790359 0.737267  0.119499 -0.071489 -0.990257  0.000000 0.000000 1 0 1.000000
  phy
0  3.261495 -24.790359 0.737267  0.119499 -0.071489 -0.990257  0.000000 0.000000 1 0 1.000000
0  3.443649 -24.453705 2.953593  0.558966 -0.673056 -0.484306  0.000000 0.000000 1 0 1.000000
0  2.478995 -24.819342 1.386072  0.068660 -0.080183 -0.994413  0.000000 0.000000 1 0 1.000000
  phy
0  3.261495 -24.790359 0.737267  0.119499 -0.071489 -0.990257  0.000000 0.000000 1 0 1.000000
0  3.258712 -24.804665 -3.051661  0.085566 0.039817 -0.995537  0.000000 0.000000 1 0 1.000000
0  3.783566 -24.763292 -0.165714  0.162889 -0.006175 -0.986625  0.000000 0.000000 1 0 1.000000
  phy
0  2.478995 -24.819342 1.386072  0.068660 -0.080183 -0.994413  0.000000 0.000000 1 0 1.000000
0  3.258712 -24.804665 -3.051661  0.085566 0.039817 -0.995537  0.000000 0.000000 1 0 1.000000
0  3.261495 -24.790359 0.737267  0.119499 -0.071489 -0.990257  0.000000 0.000000 1 0 1.000000
  phy
0  4.640741 -21.411711 -4.243702  0.801416 0.591682 0.087431  0.000000 0.000000 1 0 1.000000
0  4.633915 -23.574186 -4.273661  0.726438 0.683946 -0.067117  0.000000 0.000000 1 0 1.000000
0  3.457621 -21.129555 -5.196904  0.378152 0.592961 0.710914  0.000000 0.000000 1 0 1.000000
  phy
0  3.457621 -21.129555 -5.196904  0.378152 0.592961 0.710914  0.000000 0.000000 1 0 1.000000
0  4.633915 -23.574186 -4.273661  0.726438 0.683946 -0.067117  0.000000 0.000000 1 0 1.000000
0  3.290348 -24.407000 -5.319839  0.458789 0.760951 -0.458766  0.000000 0.000000 1 0 1.000000
  phy
0  5.526600 -24.339151 -2.744744  0.514835 0.311617 -0.798648  0.000000 0.000000 1 0 1.000000
0  3.290348 -24.407000 -5.319839  0.458789 0.760951 -0.458766  0.000000 0.000000 1 0 1.000000
0  4.633915 -23.574186 -4.273661  0.726438 0.683946 -0.067117  0.000000 0.000000 1 0 1.000000
  phy
0  4.640741 -21.411711 -4.243702  0.801416 0.591682 0.087431  0.000000 0.000000 1 0 1.000000
0  5.544548 -23.599844 -2.734318  0.922239 0.386620 0.000581  0.000000 0.000000 1 0 1.000000
0  4.633915 -23.574186 -4.273661  0.726438 0.683946 -0.067117  0.000000 0.000000 1 0 1.000000
  phy
0  4.633915 -23.574186 -4.273661  0.726438 0.683946 -0.067117  0.000000 0.000000 1 0 1.000000
0  5.544548 -23.599844 -2.734318  0.922239 0.386620 0.000581  0.000000 0.000000 1 0 1.000000
0  5.526600 -24.339151 -2.744744  0.514835 0.311617 -0.798648  0.000000 0.000000 1 0 1.000000
  phy
0  -0.078898 -20.921318 1.558720  -0.060045 -0.098862 0.993288  0.000000 0.000000 1 0 1.000000
0  -1.213461 -20.932678 0.819304  -0.091670 -0.104377 0.990304  0.000000 0.000000 1 0 1.000000
0  -1.395615 -21.363255 3.019316  -0.486518 -0.741238 0.462457  0.000000 0.000000 1 0 1.000000
  phy
0  -1.213461 -20.932678 0.819304  -0.091670 -0.104377 0.990304  0.000000 0.000000 1 0 1.000000
0  -2.088119 -21.215889 1.560081  -0.285835 -0.184271 0.940395  0.000000 0.000000 1 0 1.000000
0  -1.395615 -21.363255 3.019316  -0.486518 -0.741238 0.462457  0.000000 0.000000 1 0 1.000000
  phy
0  -1.213461 -20.932678 0.819304  -0.091670 -0.104377 0.990304  0.000000 0.000000 1 0 1.000000
0  -1.735532 -20.921335 -0.084014  -0.171073 -0.086263 0.981475  0.000000 0.000000 1 0 1.000000
0  -2.088119 -21.215889 1.560081  -0.285835 -0.184271 0.940395  0.000000 0.000000 1 0 1.000000
  phy
0  -1.735532 -20.921335 -0.084014  -0.171073 -0.086263 0.981475  0.000000 0.000000 1 0 1.000000
0  -1.213461 -20.932678 0.819304  -0.091670 -0.104377 0.990304  0.000000 0.000000 1 0 1.000000
0  -1.210687 -20.757814 -2.954958  -0.074115 0.021416 0.997020  0.000000 0.000000 1 0 1.000000
  phy
0  -1.210687 -20.757814 -2.954958  -0.074115 0.021416 0.997020  0.000000 0.000000 1 0 1.000000
0  -1.213461 -20.932678 0.819304  -0.091670 -0.104377 0.990304  0.000000 0.000000 1 0 1.000000
0  -0.078898 -20.921318 1.558720  -0.060045 -0.098862 0.993288  0.000000 0.000000 1 0 1.000000
  phy
0  -1.990968 -20.913662 -1.116084  -0.175823 -0.023984 0.984130  0.000000 0.000000 1 0 1.000000
0  -1.735532 -20.921335 -0.084014  -0.171073 -0.086263 0.981475  0.000000 0.000000 1 0 1.000000
0  -1.210687 -20.757814 -2.954958  -0.074115 0.021416 0.997020  0.000000 0.000000 1 0 1.000000
  phy
0  -1.735532 -20.921335 -0.084014  -0.171073 -0.086263 0.981475  0.000000 0.000000 1 0 1.000000
0  -1.990968 -20.913662 -1.116084  -0.175823 -0.023984 0.984130  0.000000 0.000000 1 0 1.000000
0  -3.759043 -21.256592 -1.167216  -0.774118 0.133600 0.618783  0.000000 0.000000 1 0 1.000000
  phy
0  -1.990968 -20.913662 -1.116084  -0.175823 -0.023984 0.984130  0.000000 0.000000 1 0 1.000000
0  -1.210687 -20.757814 -2.954958  -0.074115 0.021416 0.997020  0.000000 0.000000 1 0 1.000000
0  -3.759043 -21.256592 -1.167216  -0.774118 0.133600 0.618783  0.000000 0.000000 1 0 1.000000
  phy
0  2.483196 -24.793440 -3.698837  0.017755 0.074076 -0.997095  0.000000 0.000000 1 0 1.000000
0  -0.449135 -24.842251 1.369348  -0.035002 -0.023237 -0.999117  0.000000 0.000000 1 0 1.000000
0  0.530118 -24.780945 -4.030006  -0.033489 0.089930 -0.995385  0.000000 0.000000 1 0 1.000000
  phy
0  3.258712 -24.804665 -3.051661  0.085566 0.039817 -0.995537  0.000000 0.000000 1 0 1.000000
0  -0.449135 -24.842251 1.369348  -0.035002 -0.023237 -0.999117  0.000000 0.000000 1 0 1.000000
0  2.483196 -24.793440 -3.698837  0.017755 0.074076 -0.997095  0.000000 0.000000 1 0 1.000000
  phy
0  0.530118 -24.780945 -4.030006  -0.033489 0.089930 -0.995385  0.000000 0.000000 1 0 1.000000
0  1.791147 -24.389679 -5.880002  0.134597 0.751595 -0.645746  0.000000 0.000000 1 0 1.000000
0  2.483196 -24.793440 -3.698837  0.017755 0.074076 -0.997095  0.000000 0.000000 1 0 1.000000
  phy
0  1.791147 -24.389679 -5.880002  0.134597 0.751595 -0.645746  0.000000 0.000000 1 0 1.000000
0  3.290348 -24.407000 -5.319839  0.458789 0.760951 -0.458766  0.000000 0.000000 1 0 1.000000
0  2.483196 -24.793440 -3.698837  0.017755 0.074076 -0.997095  0.000000 0.000000 1 0 1.000000
  phy
0  2.483196 -24.793440 -3.698837  0.017755 0.074076 -0.997095  0.000000 0.000000 1 0 1.000000
0  3.290348 -24.407000 -5.319839  0.458789 0.760951 -0.458766  0.000000 0.000000 1 0 1.000000
0  3.258712 -24.804665 -3.051661  0.085566 0.039817 -0.995537  0.000000 0.000000 1 0 1.000000
  phy
0  -2.585882 -24.384245 -4.290886  -0.567467 0.544079 -0.618029  0.000000 0.000000 1 0 1.000000
0  -1.409588 -24.337893 -5.265133  -0.412408 0.842189 -0.347330  0.000000 0.000000 1 0 1.000000
0  0.530118 -24.780945 -4.030006  -0.033489 0.089930 -0.995385  0.000000 0.000000 1 0 1.000000
  phy
0  0.530118 -24.780945 -4.030006  -0.033489 0.089930 -0.995385  0.000000 0.000000 1 0 1.000000
0  -1.730169 -24.793783 -2.164412  -0.133472 0.096834 -0.986310  0.000000 0.000000 1 0 1.000000
0  -2.585882 -24.384245 -4.290886  -0.567467 0.544079 -0.618029  0.000000 0.000000 1 0 1.000000
  phy
0  -1.730169 -24.793783 -2.164412  -0.133472 0.096834 -0.986310  0.000000 0.000000 1 0 1.000000
0  -3.496515 -24.424059 -2.751846  -0.906149 0.357451 -0.226104  0.000000 0.000000 1 0 1.000000
0  -2.585882 -24.384245 -4.290886  -0.567467 0.544079 -0.618029  0.000000 0.000000 1 0 1.000000
  phy
0  -2.585882 -24.384245 -4.290886  -0.567467 0.544079 -0.618029  0.000000 0.000000 1 0 1.000000
0  -3.496515 -24.424059 -2.751846  -0.906149 0.357451 -0.226104  0.000000 0.000000 1 0 1.000000
0  -2.564969 -21.543234 -4.219743  -0.850711 0.495370 0.175780  0.000000 0.000000 1 0 1.000000
  phy
0  -1.409588 -24.337893 -5.265133  -0.412408 0.842189 -0.347330  0.000000 0.000000 1 0 1.000000
0  -2.585882 -24.384245 -4.290886  -0.567467 0.544079 -0.618029  0.000000 0.000000 1 0 1.000000
0  -1.444202 -21.360357 -5.189960  -0.516740 0.649645 0.557621  0.000000 0.000000 1 0 1.000000
  phy
0  -1.444202 -21.360357 -5.189960  -0.516740 0.649645 0.557621  0.000000 0.000000 1 0 1.000000
0  -2.585882 -24.384245 -4.290886  -0.567467 0.544079 -0.618029  0.000000 0.000000 1 0 1.000000
0  -2.564969 -21.543234 -4.219743  -0.850711 0.495370 0.175780  0.000000 0.000000 1 0 1.000000
  phy
0  1.512697 -24.839081 1.731950  0.016607 -0.067200 -0.997601  0.000000 0.000000 1 0 1.000000
0  3.258712 -24.804665 -3.051661  0.085566 0.039817 -0.995537  0.000000 0.000000 1 0 1.000000
0  2.478995 -24.819342 1.386072  0.068660 -0.080183 -0.994413  0.000000 0.000000 1 0 1.000000
  phy
0  1.512697 -24.839081 1.731950  0.016607 -0.067200 -0.997601  0.000000 0.000000 1 0 1.000000
0  0.247278 -24.848640 1.646812  -0.005574 -0.038900 -0.999228  0.000000 0.000000 1 0 1.000000
0  3.258712 -24.804665 -3.051661  0.085566 0.039817 -0.995537  0.000000 0.000000 1 0 1.000000
  phy
0  1.512697 -24.839081 1.731950  0.016607 -0.067200 -0.997601  0.000000 0.000000 1 0 1.000000
0  1.766099 -24.519829 3.573484  0.188095 -0.911581 -0.365569  0.000000 0.000000 1 0 1.000000
0  0.228687 -24.530666 3.565660  -0.213845 -0.828718 -0.517201  0.000000 0.000000 1 0 1.000000
  phy
0  0.228687 -24.530666 3.565660  -0.213845 -0.828718 -0.517201  0.000000 0.000000 1 0 1.000000
0  0.247278 -24.848640 1.646812  -0.005574 -0.038900 -0.999228  0.000000 0.000000 1 0 1.000000
0  1.512697 -24.839081 1.731950  0.016607 -0.067200 -0.997601  0.000000 0.000000 1 0 1.000000
  phy
0  2.478995 -24.819342 1.386072  0.068660 -0.080183 -0.994413  0.000000 0.000000 1 0 1.000000
0  1.766099 -24.519829 3.573484  0.188095 -0.911581 -0.365569  0.000000 0.000000 1 0 1.000000
0  1.512697 -24.839081 1.731950  0.016607 -0.067200 -0.997601  0.000000 0.000000 1 0 1.000000
  phy
0  5.496623 -24.412664 0.527615  0.843569 -0.461463 -0.274669  0.000000 0.000000 1 0 1.000000
0  3.443649 -24.453705 2.953593  0.558966 -0.673056 -0.484306  0.000000 0.000000 1 0 1.000000
0  4.136152 -24.538891 1.489416  0.177185 -0.133484 -0.975083  0.000000 0.000000 1 0 1.000000
  phy
0  4.640741 -21.411711 -4.243702  0.801416 0.591682 0.087431  0.000000 0.000000 1 0 1.000000
0  5.544547 -21.150328 -2.682228  0.688424 0.209741 0.694320  0.000000 0.000000 1 0 1.000000
0  5.544548 -23.599844 -2.734318  0.922239 0.386620 0.000581  0.000000 0.000000 1 0 1.000000
  phy
0  5.544547 -21.150328 -2.682228  0.688424 0.209741 0.694320  0.000000 0.000000 1 0 1.000000
0  4.640741 -21.411711 -4.243702  0.801416 0.591682 0.087431  0.000000 0.000000 1 0 1.000000
0  3.457621 -21.129555 -5.196904  0.378152 0.592961 0.710914  0.000000 0.000000 1 0 1.000000
  phy
0  5.526600 -24.339151 -2.744744  0.514835 0.311617 -0.798648  0.000000 0.000000 1 0 1.000000
0  5.807075 -24.382292 -1.233686  0.435205 0.032138 -0.899758  0.000000 0.000000 1 0 1.000000
0  3.258712 -24.804665 -3.051661  0.085566 0.039817 -0.995537  0.000000 0.000000 1 0 1.000000
  phy
0  3.258712 -24.804665 -3.051661  0.085566 0.039817 -0.995537  0.000000 0.000000 1 0 1.000000
0  3.290348 -24.407000 -5.319839  0.458789 0.760951 -0.458766  0.000000 0.000000 1 0 1.000000
0  5.526600 -24.339151 -2.744744  0.514835 0.311617 -0.798648  0.000000 0.000000 1 0 1.000000
  phy
0  5.544548 -23.599844 -2.734318  0.922239 0.386620 0.000581  0.000000 0.000000 1 0 1.000000
0  5.807075 -24.382292 -1.233686  0.435205 0.032138 -0.899758  0.000000 0.000000 1 0 1.000000
0  5.526600 -24.339151 -2.744744  0.514835 0.311617 -0.798648  0.000000 0.000000 1 0 1.000000
  phy
0  -1.210687 -20.757814 -2.954958  -0.074115 0.021416 0.997020  0.000000 0.000000 1 0 1.000000
0  2.497168 -20.907709 1.453018  0.038534 -0.070170 0.996790  0.000000 0.000000 1 0 1.000000
0  3.771198 -20.805264 -2.083270  0.050450 0.013017 0.998642  0.000000 0.000000 1 0 1.000000
  phy
0  3.771198 -20.805264 -2.083270  0.050450 0.013017 0.998642  0.000000 0.000000 1 0 1.000000
0  2.497168 -20.907709 1.453018  0.038534 -0.070170 0.996790  0.000000 0.000000 1 0 1.000000
0  3.960867 -20.836214 -1.093910  0.167493 -0.068984 0.983457  0.000000 0.000000 1 0 1.000000
  phy
0  2.497168 -20.907709 1.453018  0.038534 -0.070170 0.996790  0.000000 0.000000 1 0 1.000000
0  -1.210687 -20.757814 -2.954958  -0.074115 0.021416 0.997020  0.000000 0.000000 1 0 1.000000
0  1.543423 -20.918018 1.805944  0.005393 -0.081464 0.996662  0.000000 0.000000 1 0 1.000000
  phy
0  2.497168 -20.907709 1.453018  0.038534 -0.070170 0.996790  0.000000 0.000000 1 0 1.000000
0  4.164551 -21.165504 1.526473  0.194241 -0.209954 0.958222  0.000000 0.000000 1 0 1.000000
0  3.960867 -20.836214 -1.093910  0.167493 -0.068984 0.983457  0.000000 0.000000 1 0 1.000000
  phy
0  4.164551 -21.165504 1.526473  0.194241 -0.209954 0.958222  0.000000 0.000000 1 0 1.000000
0  2.497168 -20.907709 1.453018  0.038534 -0.070170 0.996790  0.000000 0.000000 1 0 1.000000
0  1.819346 -21.312378 3.634099  0.133222 -0.695368 0.706198  0.000000 0.000000 1 0 1.000000
  phy
0  1.819346 -21.312378 3.634099  0.133222 -0.695368 0.706198  0.000000 0.000000 1 0 1.000000
0  2.497168 -20.907709 1.453018  0.038534 -0.070170 0.996790  0.000000 0.000000 1 0 1.000000
0  1.543423 -20.918018 1.805944  0.005393 -0.081464 0.996662  0.000000 0.000000 1 0 1.000000
  phy
0  0.520112 -20.734570 -3.955513  -0.022946 0.044661 0.998739  0.000000 0.000000 1 0 1.000000
0  -1.210687 -20.757814 -2.954958  -0.074115 0.021416 0.997020  0.000000 0.000000 1 0 1.000000
0  3.771198 -20.805264 -2.083270  0.050450 0.013017 0.998642  0.000000 0.000000 1 0 1.000000
  phy
0  1.521922 -20.739166 -3.942489  0.075003 0.136594 0.987784  0.000000 0.000000 1 0 1.000000
0  0.520112 -20.734570 -3.955513  -0.022946 0.044661 0.998739  0.000000 0.000000 1 0 1.000000
0  3.771198 -20.805264 -2.083270  0.050450 0.013017 0.998642  0.000000 0.000000 1 0 1.000000
  phy
0  -1.210687 -20.757814 -2.954958  -0.074115 0.021416 0.997020  0.000000 0.000000 1 0 1.000000
0  0.520112 -20.734570 -3.955513  -0.022946 0.044661 0.998739  0.000000 0.000000 1 0 1.000000
0  0.242663 -21.052603 -5.808974  -0.191235 0.761087 0.619819  0.000000 0.000000 1 0 1.000000
  phy
0  0.520112 -20.734570 -3.955513  -0.022946 0.044661 0.998739  0.000000 0.000000 1 0 1.000000
0  1.521922 -20.739166 -3.942489  0.075003 0.136594 0.987784  0.000000 0.000000 1 0 1.000000
0  0.242663 -21.052603 -5.808974  -0.191235 0.761087 0.619819  0.000000 0.000000 1 0 1.000000
  phy
0  -2.088119 -21.215889 1.560081  -0.285835 -0.184271 0.940395  0.000000 0.000000 1 0 1.000000
0  -1.735532 -20.921335 -0.084014  -0.171073 -0.086263 0.981475  0.000000 0.000000 1 0 1.000000
0  -3.759043 -21.256592 -1.167216  -0.774118 0.133600 0.618783  0.000000 0.000000 1 0 1.000000
  phy
0  -1.915786 -24.804943 -1.178829  -0.090605 -0.018550 -0.995714  0.000000 0.000000 1 0 1.000000
0  -1.730169 -24.793783 -2.164412  -0.133472 0.096834 -0.986310  0.000000 0.000000 1 0 1.000000
0  0.530118 -24.780945 -4.030006  -0.033489 0.089930 -0.995385  0.000000 0.000000 1 0 1.000000
  phy
0  0.530118 -24.780945 -4.030006  -0.033489 0.089930 -0.995385  0.000000 0.000000 1 0 1.000000
0  -0.449135 -24.842251 1.369348  -0.035002 -0.023237 -0.999117  0.000000 0.000000 1 0 1.000000
0  -1.915786 -24.804943 -1.178829  -0.090605 -0.018550 -0.995714  0.000000 0.000000 1 0 1.000000
  phy
0  0.530118 -24.780945 -4.030006  -0.033489 0.089930 -0.995385  0.000000 0.000000 1 0 1.000000
0  0.267957 -24.377605 -5.887275  -0.138389 0.934693 -0.327410  0.000000 0.000000 1 0 1.000000
0  1.791147 -24.389679 -5.880002  0.134597 0.751595 -0.645746  0.000000 0.000000 1 0 1.000000
  phy
0  -1.409588 -24.337893 -5.265133  -0.412408 0.842189 -0.347330  0.000000 0.000000 1 0 1.000000
0  0.267957 -24.377605 -5.887275  -0.138389 0.934693 -0.327410  0.000000 0.000000 1 0 1.000000
0  0.530118 -24.780945 -4.030006  -0.033489 0.089930 -0.995385  0.000000 0.000000 1 0 1.000000
  phy
0  1.791147 -24.389679 -5.880002  0.134597 0.751595 -0.645746  0.000000 0.000000 1 0 1.000000
0  0.267957 -24.377605 -5.887275  -0.138389 0.934693 -0.327410  0.000000 0.000000 1 0 1.000000
0  1.774146 -21.350548 -5.836260  0.186112 0.980318 0.065874  0.000000 0.000000 1 0 1.000000
  phy
0  1.791147 -24.389679 -5.880002  0.134597 0.751595 -0.645746  0.000000 0.000000 1 0 1.000000
0  1.774146 -21.350548 -5.836260  0.186112 0.980318 0.065874  0.000000 0.000000 1 0 1.000000
0  3.290348 -24.407000 -5.319839  0.458789 0.760951 -0.458766  0.000000 0.000000 1 0 1.000000
  phy
0  0.267957 -24.377605 -5.887275  -0.138389 0.934693 -0.327410  0.000000 0.000000 1 0 1.000000
0  -1.409588 -24.337893 -5.265133  -0.412408 0.842189 -0.347330  0.000000 0.000000 1 0 1.000000
0  0.242663 -21.052603 -5.808974  -0.191235 0.761087 0.619819  0.000000 0.000000 1 0 1.000000
  phy
0  -1.409588 -24.337893 -5.265133  -0.412408 0.842189 -0.347330  0.000000 0.000000 1 0 1.000000
0  -1.444202 -21.360357 -5.189960  -0.516740 0.649645 0.557621  0.000000 0.000000 1 0 1.000000
0  0.242663 -21.052603 -5.808974  -0.191235 0.761087 0.619819  0.000000 0.000000 1 0 1.000000
  phy
0  3.258712 -24.804665 -3.051661  0.085566 0.039817 -0.995537  0.000000 0.000000 1 0 1.000000
0  5.807075 -24.382292 -1.233686  0.435205 0.032138 -0.899758  0.000000 0.000000 1 0 1.000000
0  3.783566 -24.763292 -0.165714  0.162889 -0.006175 -0.986625  0.000000 0.000000 1 0 1.000000
  phy
0  3.783566 -24.763292 -0.165714  0.162889 -0.006175 -0.986625  0.000000 0.000000 1 0 1.000000
0  5.807075 -24.382292 -1.233686  0.435205 0.032138 -0.899758  0.000000 0.000000 1 0 1.000000
0  5.496623 -24.412664 0.527615  0.843569 -0.461463 -0.274669  0.000000 0.000000 1 0 1.000000
  phy
0  2.478995 -24.819342 1.386072  0.068660 -0.080183 -0.994413  0.000000 0.000000 1 0 1.000000
0  3.443649 -24.453705 2.953593  0.558966 -0.673056 -0.484306  0.000000 0.000000 1 0 1.000000
0  1.766099 -24.519829 3.573484  0.188095 -0.911581 -0.365569  0.000000 0.000000 1 0 1.000000
  phy
0  5.544548 -23.599844 -2.734318  0.922239 0.386620 0.000581  0.000000 0.000000 1 0 1.000000
0  5.544547 -21.150328 -2.682228  0.688424 0.209741 0.694320  0.000000 0.000000 1 0 1.000000
0  5.820986 -23.551716 -1.255553  0.999072 0.042903 -0.003803  0.000000 0.000000 1 0 1.000000
  phy
0  5.544547 -21.150328 -2.682228  0.688424 0.209741 0.694320  0.000000 0.000000 1 0 1.000000
0  5.826242 -21.480721 -1.183412  0.993313 -0.089278 0.073209  0.000000 0.000000 1 0 1.000000
0  5.820986 -23.551716 -1.255553  0.999072 0.042903 -0.003803  0.000000 0.000000 1 0 1.000000
  phy
0  5.820986 -23.551716 -1.255553  0.999072 0.042903 -0.003803  0.000000 0.000000 1 0 1.000000
0  5.807075 -24.382292 -1.233686  0.435205 0.032138 -0.899758  0.000000 0.000000 1 0 1.000000
0  5.544548 -23.599844 -2.734318  0.922239 0.386620 0.000581  0.000000 0.000000 1 0 1.000000
  phy
0  5.496623 -24.412664 0.527615  0.843569 -0.461463 -0.274669  0.000000 0.000000 1 0 1.000000
0  5.807075 -24.382292 -1.233686  0.435205 0.032138 -0.899758  0.000000 0.000000 1 0 1.000000
0  5.820986 -23.551716 -1.255553  0.999072 0.042903 -0.003803  0.000000 0.000000 1 0 1.000000
  phy
0  5.820986 -23.551716 -1.255553  0.999072 0.042903 -0.003803  0.000000 0.000000 1 0 1.000000
0  5.826242 -21.480721 -1.183412  0.993313 -0.089278 0.073209  0.000000 0.000000 1 0 1.000000
0  5.496623 -24.412664 0.527615  0.843569 -0.461463 -0.274669  0.000000 0.000000 1 0 1.000000
  phy
0  -1.915786 -24.804943 -1.178829  -0.090605 -0.018550 -0.995714  0.000000 0.000000 1 0 1.000000
0  -3.766066 -24.445234 -1.238334  -0.904995 -0.050029 -0.422470  0.000000 0.000000 1 0 1.000000
0  -1.730169 -24.793783 -2.164412  -0.133472 0.096834 -0.986310  0.000000 0.000000 1 0 1.000000
  phy
0  -3.439950 -24.429716 0.521270  -0.768940 -0.413275 -0.487786  0.000000 0.000000 1 0 1.000000
0  -3.766066 -24.445234 -1.238334  -0.904995 -0.050029 -0.422470  0.000000 0.000000 1 0 1.000000
0  -1.915786 -24.804943 -1.178829  -0.090605 -0.018550 -0.995714  0.000000 0.000000 1 0 1.000000
  phy
0  -2.116519 -24.587814 1.453697  -0.160789 -0.089001 -0.982968  0.000000 0.000000 1 0 1.000000
0  -3.439950 -24.429716 0.521270  -0.768940 -0.413275 -0.487786  0.000000 0.000000 1 0 1.000000
0  -1.915786 -24.804943 -1.178829  -0.090605 -0.018550 -0.995714  0.000000 0.000000 1 0 1.000000
  phy
0  -1.915786 -24.804943 -1.178829  -0.090605 -0.018550 -0.995714  0.000000 0.000000 1 0 1.000000
0  -0.449135 -24.842251 1.369348  -0.035002 -0.023237 -0.999117  0.000000 0.000000 1 0 1.000000
0  -2.116519 -24.587814 1.453697  -0.160789 -0.089001 -0.982968  0.000000 0.000000 1 0 1.000000
  phy
0  0.526494 -20.926216 1.811410  -0.032251 -0.144914 0.988918  0.000000 0.000000 1 0 1.000000
0  -1.210687 -20.757814 -2.954958  -0.074115 0.021416 0.997020  0.000000 0.000000 1 0 1.000000
0  -0.078898 -20.921318 1.558720  -0.060045 -0.098862 0.993288  0.000000 0.000000 1 0 1.000000
  phy
0  -1.210687 -20.757814 -2.954958  -0.074115 0.021416 0.997020  0.000000 0.000000 1 0 1.000000
0  0.526494 -20.926216 1.811410  -0.032251 -0.144914 0.988918  0.000000 0.000000 1 0 1.000000
0  1.543423 -20.918018 1.805944  0.005393 -0.081464 0.996662  0.000000 0.000000 1 0 1.000000
  phy
0  0.526494 -20.926216 1.811410  -0.032251 -0.144914 0.988918  0.000000 0.000000 1 0 1.000000
0  1.819346 -21.312378 3.634099  0.133222 -0.695368 0.706198  0.000000 0.000000 1 0 1.000000
0  1.543423 -20.918018 1.805944  0.005393 -0.081464 0.996662  0.000000 0.000000 1 0 1.000000
  phy
0  0.526494 -20.926216 1.811410  -0.032251 -0.144914 0.988918  0.000000 0.000000 1 0 1.000000
0  -0.078898 -20.921318 1.558720  -0.060045 -0.098862 0.993288  0.000000 0.000000 1 0 1.000000
0  -1.395615 -21.363255 3.019316  -0.486518 -0.741238 0.462457  0.000000 0.000000 1 0 1.000000
  phy
0  1.819346 -21.312378 3.634099  0.133222 -0.695368 0.706198  0.000000 0.000000 1 0 1.000000
0  0.526494 -20.926216 1.811410  -0.032251 -0.144914 0.988918  0.000000 0.000000 1 0 1.000000
0  -1.395615 -21.363255 3.019316  -0.486518 -0.741238 0.462457  0.000000 0.000000 1 0 1.000000
  phy
0  -2.116519 -24.587814 1.453697  -0.160789 -0.089001 -0.982968  0.000000 0.000000 1 0 1.000000
0  -1.443550 -24.510094 2.931084  -0.656998 -0.698727 -0.283080  0.000000 0.000000 1 0 1.000000
0  -3.439950 -24.429716 0.521270  -0.768940 -0.413275 -0.487786  0.000000 0.000000 1 0 1.000000
  phy
0  -0.449135 -24.842251 1.369348  -0.035002 -0.023237 -0.999117  0.000000 0.000000 1 0 1.000000
0  -1.443550 -24.510094 2.931084  -0.656998 -0.698727 -0.283080  0.000000 0.000000 1 0 1.000000
0  -2.116519 -24.587814 1.453697  -0.160789 -0.089001 -0.982968  0.000000 0.000000 1 0 1.000000
  phy
0  4.164551 -21.165504 1.526473  0.194241 -0.209954 0.958222  0.000000 0.000000 1 0 1.000000
0  1.819346 -21.312378 3.634099  0.133222 -0.695368 0.706198  0.000000 0.000000 1 0 1.000000
0  3.506207 -21.593531 3.002564  0.631587 -0.770016 0.090404  0.000000 0.000000 1 0 1.000000
  phy
0  5.487987 -21.283821 0.588171  0.762018 -0.399171 0.509894  0.000000 0.000000 1 0 1.000000
0  4.164551 -21.165504 1.526473  0.194241 -0.209954 0.958222  0.000000 0.000000 1 0 1.000000
0  3.506207 -21.593531 3.002564  0.631587 -0.770016 0.090404  0.000000 0.000000 1 0 1.000000
  phy
0  4.164551 -21.165504 1.526473  0.194241 -0.209954 0.958222  0.000000 0.000000 1 0 1.000000
0  5.487987 -21.283821 0.588171  0.762018 -0.399171 0.509894  0.000000 0.000000 1 0 1.000000
0  3.960867 -20.836214 -1.093910  0.167493 -0.068984 0.983457  0.000000 0.000000 1 0 1.000000
  phy
0  0.287863 -21.611212 3.648690  -0.130336 -0.990523 0.043310  0.000000 0.000000 1 0 1.000000
0  1.819346 -21.312378 3.634099  0.133222 -0.695368 0.706198  0.000000 0.000000 1 0 1.000000
0  -1.395615 -21.363255 3.019316  -0.486518 -0.741238 0.462457  0.000000 0.000000 1 0 1.000000
  phy
0  0.287863 -21.611212 3.648690  -0.130336 -0.990523 0.043310  0.000000 0.000000 1 0 1.000000
0  -1.395615 -21.363255 3.019316  -0.486518 -0.741238 0.462457  0.000000 0.000000 1 0 1.000000
0  0.228687 -24.530666 3.565660  -0.213845 -0.828718 -0.517201  0.000000 0.000000 1 0 1.000000
  phy
0  0.287863 -21.611212 3.648690  -0.130336 -0.990523 0.043310  0.000000 0.000000 1 0 1.000000
0  1.766099 -24.519829 3.573484  0.188095 -0.911581 -0.365569  0.000000 0.000000 1 0 1.000000
0  1.819346 -21.312378 3.634099  0.133222 -0.695368 0.706198  0.000000 0.000000 1 0 1.000000
  phy
0  0.228687 -24.530666 3.565660  -0.213845 -0.828718 -0.517201  0.000000 0.000000 1 0 1.000000
0  1.766099 -24.519829 3.573484  0.188095 -0.911581 -0.365569  0.000000 0.000000 1 0 1.000000
0  0.287863 -21.611212 3.648690  -0.130336 -0.990523 0.043310  0.000000 0.000000 1 0 1.000000
  phy
0  -1.210687 -20.757814 -2.954958  -0.074115 0.021416 0.997020  0.000000 0.000000 1 0 1.000000
0  -1.444202 -21.360357 -5.189960  -0.516740 0.649645 0.557621  0.000000 0.000000 1 0 1.000000
0  -3.759043 -21.256592 -1.167216  -0.774118 0.133600 0.618783  0.000000 0.000000 1 0 1.000000
  phy
0  -1.444202 -21.360357 -5.189960  -0.516740 0.649645 0.557621  0.000000 0.000000 1 0 1.000000
0  -1.210687 -20.757814 -2.954958  -0.074115 0.021416 0.997020  0.000000 0.000000 1 0 1.000000
0  0.242663 -21.052603 -5.808974  -0.191235 0.761087 0.619819  0.000000 0.000000 1 0 1.000000
  phy
0  1.774146 -21.350548 -5.836260  0.186112 0.980318 0.065874  0.000000 0.000000 1 0 1.000000
0  0.267957 -24.377605 -5.887275  -0.138389 0.934693 -0.327410  0.000000 0.000000 1 0 1.000000
0  0.242663 -21.052603 -5.808974  -0.191235 0.761087 0.619819  0.000000 0.000000 1 0 1.000000
  phy
0  3.258712 -24.804665 -3.051661  0.085566 0.039817 -0.995537  0.000000 0.000000 1 0 1.000000
0  0.247278 -24.848640 1.646812  -0.005574 -0.038900 -0.999228  0.000000 0.000000 1 0 1.000000
0  -0.449135 -24.842251 1.369348  -0.035002 -0.023237 -0.999117  0.000000 0.000000 1 0 1.000000
  phy
0  5.487987 -21.283821 0.588171  0.762018 -0.399171 0.509894  0.000000 0.000000 1 0 1.000000
0  3.506207 -21.593531 3.002564  0.631587 -0.770016 0.090404  0.000000 0.000000 1 0 1.000000
0  5.496623 -24.412664 0.527615  0.843569 -0.461463 -0.274669  0.000000 0.000000 1 0 1.000000
  phy
0  3.506207 -21.593531 3.002564  0.631587 -0.770016 0.090404  0.000000 0.000000 1 0 1.000000
0  3.443649 -24.453705 2.953593  0.558966 -0.673056 -0.484306  0.000000 0.000000 1 0 1.000000
0  5.496623 -24.412664 0.527615  0.843569 -0.461463 -0.274669  0.000000 0.000000 1 0 1.000000
  phy
0  5.496623 -24.412664 0.527615  0.843569 -0.461463 -0.274669  0.000000 0.000000 1 0 1.000000
0  5.826242 -21.480721 -1.183412  0.993313 -0.089278 0.073209  0.000000 0.000000 1 0 1.000000
0  5.487987 -21.283821 0.588171  0.762018 -0.399171 0.509894  0.000000 0.000000 1 0 1.000000
  phy
0  5.487987 -21.283821 0.588171  0.762018 -0.399171 0.509894  0.000000 0.000000 1 0 1.000000
0  5.544547 -21.150328 -2.682228  0.688424 0.209741 0.694320  0.000000 0.000000 1 0 1.000000
0  3.960867 -20.836214 -1.093910  0.167493 -0.068984 0.983457  0.000000 0.000000 1 0 1.000000
  phy
0  5.544547 -21.150328 -2.682228  0.688424 0.209741 0.694320  0.000000 0.000000 1 0 1.000000
0  3.771198 -20.805264 -2.083270  0.050450 0.013017 0.998642  0.000000 0.000000 1 0 1.000000
0  3.960867 -20.836214 -1.093910  0.167493 -0.068984 0.983457  0.000000 0.000000 1 0 1.000000
  phy
0  5.544547 -21.150328 -2.682228  0.688424 0.209741 0.694320  0.000000 0.000000 1 0 1.000000
0  5.487987 -21.283821 0.588171  0.762018 -0.399171 0.509894  0.000000 0.000000 1 0 1.000000
0  5.826242 -21.480721 -1.183412  0.993313 -0.089278 0.073209  0.000000 0.000000 1 0 1.000000
  phy
0  5.544547 -21.150328 -2.682228  0.688424 0.209741 0.694320  0.000000 0.000000 1 0 1.000000
0  3.457621 -21.129555 -5.196904  0.378152 0.592961 0.710914  0.000000 0.000000 1 0 1.000000
0  3.771198 -20.805264 -2.083270  0.050450 0.013017 0.998642  0.000000 0.000000 1 0 1.000000
  phy
0  1.774146 -21.350548 -5.836260  0.186112 0.980318 0.065874  0.000000 0.000000 1 0 1.000000
0  3.457621 -21.129555 -5.196904  0.378152 0.592961 0.710914  0.000000 0.000000 1 0 1.000000
0  3.290348 -24.407000 -5.319839  0.458789 0.760951 -0.458766  0.000000 0.000000 1 0 1.000000
  phy
0  3.457621 -21.129555 -5.196904  0.378152 0.592961 0.710914  0.000000 0.000000 1 0 1.000000
0  1.774146 -21.350548 -5.836260  0.186112 0.980318 0.065874  0.000000 0.000000 1 0 1.000000
0  0.242663 -21.052603 -5.808974  -0.191235 0.761087 0.619819  0.000000 0.000000 1 0 1.000000
  phy
0  -1.730169 -24.793783 -2.164412  -0.133472 0.096834 -0.986310  0.000000 0.000000 1 0 1.000000
0  -3.766066 -24.445234 -1.238334  -0.904995 -0.050029 -0.422470  0.000000 0.000000 1 0 1.000000
0  -3.496515 -24.424059 -2.751846  -0.906149 0.357451 -0.226104  0.000000 0.000000 1 0 1.000000
  phy
0  -2.564969 -21.543234 -4.219743  -0.850711 0.495370 0.175780  0.000000 0.000000 1 0 1.000000
0  -3.496515 -24.424059 -2.751846  -0.906149 0.357451 -0.226104  0.000000 0.000000 1 0 1.000000
0  -3.759043 -21.256592 -1.167216  -0.774118 0.133600 0.618783  0.000000 0.000000 1 0 1.000000
  phy
0  -3.759043 -21.256592 -1.167216  -0.774118 0.133600 0.618783  0.000000 0.000000 1 0 1.000000
0  -3.496515 -24.424059 -2.751846  -0.906149 0.357451 -0.226104  0.000000 0.000000 1 0 1.000000
0  -3.766066 -24.445234 -1.238334  -0.904995 -0.050029 -0.422470  0.000000 0.000000 1 0 1.000000
  phy
0  -3.460618 -21.588768 0.600266  -0.866951 -0.487956 0.101467  0.000000 0.000000 1 0 1.000000
0  -3.439950 -24.429716 0.521270  -0.768940 -0.413275 -0.487786  0.000000 0.000000 1 0 1.000000
0  -1.443550 -24.510094 2.931084  -0.656998 -0.698727 -0.283080  0.000000 0.000000 1 0 1.000000
  phy
0  -3.439950 -24.429716 0.521270  -0.768940 -0.413275 -0.487786  0.000000 0.000000 1 0 1.000000
0  -3.460618 -21.588768 0.600266  -0.866951 -0.487956 0.101467  0.000000 0.000000 1 0 1.000000
0  -3.766066 -24.445234 -1.238334  -0.904995 -0.050029 -0.422470  0.000000 0.000000 1 0 1.000000
  phy
0  1.766099 -24.519829 3.573484  0.188095 -0.911581 -0.365569  0.000000 0.000000 1 0 1.000000
0  3.506207 -21.593531 3.002564  0.631587 -0.770016 0.090404  0.000000 0.000000 1 0 1.000000
0  1.819346 -21.312378 3.634099  0.133222 -0.695368 0.706198  0.000000 0.000000 1 0 1.000000
  phy
0  -0.449135 -24.842251 1.369348  -0.035002 -0.023237 -0.999117  0.000000 0.000000 1 0 1.000000
0  0.247278 -24.848640 1.646812  -0.005574 -0.038900 -0.999228  0.000000 0.000000 1 0 1.000000
0  0.228687 -24.530666 3.565660  -0.213845 -0.828718 -0.517201  0.000000 0.000000 1 0 1.000000
  phy
0  0.228687 -24.530666 3.565660  -0.213845 -0.828718 -0.517201  0.000000 0.000000 1 0 1.000000
0  -1.443550 -24.510094 2.931084  -0.656998 -0.698727 -0.283080  0.000000 0.000000 1 0 1.000000
0  -0.449135 -24.842251 1.369348  -0.035002 -0.023237 -0.999117  0.000000 0.000000 1 0 1.000000
  phy
0  0.228687 -24.530666 3.565660  -0.213845 -0.828718 -0.517201  0.000000 0.000000 1 0 1.000000
0  -1.395615 -21.363255 3.019316  -0.486518 -0.741238 0.462457  0.000000 0.000000 1 0 1.000000
0  -1.443550 -24.510094 2.931084  -0.656998 -0.698727 -0.283080  0.000000 0.000000 1 0 1.000000
  phy
0  3.457621 -21.129555 -5.196904  0.378152 0.592961 0.710914  0.000000 0.000000 1 0 1.000000
0  1.521922 -20.739166 -3.942489  0.075003 0.136594 0.987784  0.000000 0.000000 1 0 1.000000
0  3.771198 -20.805264 -2.083270  0.050450 0.013017 0.998642  0.000000 0.000000 1 0 1.000000
  phy
0  1.521922 -20.739166 -3.942489  0.075003 0.136594 0.987784  0.000000 0.000000 1 0 1.000000
0  3.457621 -21.129555 -5.196904  0.378152 0.592961 0.710914  0.000000 0.000000 1 0 1.000000
0  0.242663 -21.052603 -5.808974  -0.191235 0.761087 0.619819  0.000000 0.000000 1 0 1.000000
  phy
0  -1.444202 -21.360357 -5.189960  -0.516740 0.649645 0.557621  0.000000 0.000000 1 0 1.000000
0  -2.564969 -21.543234 -4.219743  -0.850711 0.495370 0.175780  0.000000 0.000000 1 0 1.000000
0  -3.759043 -21.256592 -1.167216  -0.774118 0.133600 0.618783  0.000000 0.000000 1 0 1.000000
  phy
0  -3.460618 -21.588768 0.600266  -0.866951 -0.487956 0.101467  0.000000 0.000000 1 0 1.000000
0  -3.759043 -21.256592 -1.167216  -0.774118 0.133600 0.618783  0.000000 0.000000 1 0 1.000000
0  -3.766066 -24.445234 -1.238334  -0.904995 -0.050029 -0.422470  0.000000 0.000000 1 0 1.000000
  phy
0  -3.460618 -21.588768 0.600266  -0.866951 -0.487956 0.101467  0.000000 0.000000 1 0 1.000000
0  -2.088119 -21.215889 1.560081  -0.285835 -0.184271 0.940395  0.000000 0.000000 1 0 1.000000
0  -3.759043 -21.256592 -1.167216  -0.774118 0.133600 0.618783  0.000000 0.000000 1 0 1.000000
  phy
0  -2.088119 -21.215889 1.560081  -0.285835 -0.184271 0.940395  0.000000 0.000000 1 0 1.000000
0  -3.460618 -21.588768 0.600266  -0.866951 -0.487956 0.101467  0.000000 0.000000 1 0 1.000000
0  -1.395615 -21.363255 3.019316  -0.486518 -0.741238 0.462457  0.000000 0.000000 1 0 1.000000
  phy
0  -3.460618 -21.588768 0.600266  -0.866951 -0.487956 0.101467  0.000000 0.000000 1 0 1.000000
0  -1.443550 -24.510094 2.931084  -0.656998 -0.698727 -0.283080  0.000000 0.000000 1 0 1.000000
0  -1.395615 -21.363255 3.019316  -0.486518 -0.741238 0.462457  0.000000 0.000000 1 0 1.000000
  phy
0  1.766099 -24.519829 3.573484  0.188095 -0.911581 -0.365569  0.000000 0.000000 1 0 1.000000
0  3.443649 -24.453705 2.953593  0.558966 -0.673056 -0.484306  0.000000 0.000000 1 0 1.000000
0  3.506207 -21.593531 3.002564  0.631587 -0.770016 0.090404  0.000000 0.000000 1 0 1.000000
end
