// Created by Crowbar 0.74
version 1
nodes
  0 "Root" -1
  1 "Main_Base" 0
  2 "Guns_Base" 1
  3 "R_Gun" 2
  4 "R_Gun_AtchPnt" 3
  5 "L_Gun" 2
  6 "L_Gun_AtchPnt" 5
end
skeleton
  time 0
    0 0.000000 -0.000002 37.173691 0.000000 0.000000 0.000000
    1 0.000000 -0.023742 -9.707077 0.000000 0.000000 0.000000
    2 7.122766 1.685086 0.000002 0.000000 0.000000 0.000000
    3 -21.245588 -0.005135 -0.000002 0.000000 0.000000 0.000000
    4 0.301132 -27.432880 1.425652 0.000000 0.000000 -3.141592
    5 7.098360 -0.005140 -0.000002 0.000000 0.000000 0.000000
    6 -0.068640 -27.421444 1.425652 0.000000 0.000000 -3.141592
  time 1
    0 0.000000 -0.000002 37.173691 0.000000 0.000000 0.000000
    1 0.000000 -0.023742 -9.707077 0.000000 0.000000 0.000000
    2 7.122766 1.685086 0.000002 0.000000 0.000000 0.000000
    3 -21.245588 -0.005135 -0.000002 0.000000 0.000000 0.000000
    4 0.301132 -27.432880 1.425652 0.000000 0.000000 -3.141592
    5 7.098360 -0.005140 -0.000002 0.000000 0.000000 0.000000
    6 -0.068640 -27.421444 1.425652 0.000000 0.000000 -3.141592
  time 2
    0 0.000000 -0.000002 37.173691 0.000000 0.000000 0.000000
    1 0.000000 -0.023742 -9.707077 0.000000 0.000000 0.000000
    2 7.122766 1.685086 0.000002 0.000000 0.000000 0.000000
    3 -21.245588 -0.005135 -0.000002 0.000000 0.000000 0.000000
    4 0.301132 -27.432880 1.425652 0.000000 0.000000 -3.141592
    5 7.098360 -0.005140 -0.000002 0.000000 0.000000 0.000000
    6 -0.068640 -27.421444 1.425652 0.000000 0.000000 -3.141592
  time 3
    0 0.000000 -0.000002 37.173691 0.000000 0.000000 0.000000
    1 0.000000 -0.023742 -9.707077 0.000000 0.000000 0.000000
    2 7.122766 1.685086 0.000002 0.000000 0.000000 0.000000
    3 -21.245588 -0.005135 -0.000002 0.000000 0.000000 0.000000
    4 0.301132 -27.432880 1.425652 0.000000 0.000000 -3.141592
    5 7.098360 -0.005140 -0.000002 0.000000 0.000000 0.000000
    6 -0.068640 -27.421444 1.425652 0.000000 0.000000 -3.141592
  time 4
    0 0.000000 -0.000002 37.173691 0.000000 0.000000 0.000000
    1 0.000000 -0.023742 -9.707077 0.000000 0.000000 0.000000
    2 7.122766 1.685086 0.000002 0.000000 0.000000 0.000000
    3 -21.245588 -0.005135 -0.000002 0.000000 0.000000 0.000000
    4 0.301132 -27.432880 1.425652 0.000000 0.000000 -3.141592
    5 7.098360 -0.005140 -0.000002 0.000000 0.000000 0.000000
    6 -0.068640 -27.421444 1.425652 0.000000 0.000000 -3.141592
  time 5
    0 0.000000 -0.000002 37.173691 0.000000 0.000000 0.000000
    1 0.000000 -0.023742 -9.707077 0.000000 0.000000 0.000000
    2 7.122766 1.685086 0.000002 0.000000 0.000000 0.000000
    3 -21.245588 -0.005135 -0.000002 0.000000 0.000000 0.000000
    4 0.301132 -27.432880 1.425652 0.000000 0.000000 -3.141592
    5 7.098360 -0.005140 -0.000002 0.000000 0.000000 0.000000
    6 -0.068640 -27.421444 1.425652 0.000000 0.000000 -3.141592
  time 6
    0 0.000000 -0.000002 37.173691 0.000000 0.000000 0.000000
    1 0.000000 -0.023742 -9.707077 0.000000 0.000000 0.000000
    2 7.122766 1.685086 0.000002 0.000000 0.000000 0.000000
    3 -21.245588 -0.005135 -0.000002 0.000000 0.000000 0.000000
    4 0.301132 -27.432880 1.425652 0.000000 0.000000 -3.141592
    5 7.098360 -0.005140 -0.000002 0.000000 0.000000 0.000000
    6 -0.068640 -27.421444 1.425652 0.000000 0.000000 -3.141592
  time 7
    0 0.000000 -0.000002 37.173691 0.000000 0.000000 0.000000
    1 0.000000 -0.023742 -9.707077 0.000000 0.000000 0.000000
    2 7.122766 1.685086 0.000002 0.000000 0.000000 0.000000
    3 -21.245588 -0.005135 -0.000002 0.000000 0.000000 0.000000
    4 0.301132 -27.432880 1.425652 0.000000 0.000000 -3.141592
    5 7.098360 -0.005140 -0.000002 0.000000 0.000000 0.000000
    6 -0.068640 -27.421444 1.425652 0.000000 0.000000 -3.141592
  time 8
    0 0.000000 -0.000002 37.173691 0.000000 0.000000 0.000000
    1 0.000000 -0.023742 -9.707077 0.000000 0.000000 0.000000
    2 7.122766 1.685086 0.000002 0.000000 0.000000 0.000000
    3 -21.245588 -0.005135 -0.000002 0.000000 0.000000 0.000000
    4 0.301132 -27.432880 1.425652 0.000000 0.000000 -3.141592
    5 7.098360 -0.005140 -0.000002 0.000000 0.000000 0.000000
    6 -0.068640 -27.421444 1.425652 0.000000 0.000000 -3.141592
  time 9
    0 0.000000 -0.000002 37.173691 0.000000 0.000000 0.000000
    1 0.000000 -0.023742 -9.707077 0.000000 0.000000 0.000000
    2 7.122766 1.685086 0.000002 0.000000 0.000000 0.000000
    3 -21.245588 -0.005135 -0.000002 0.000000 0.000000 0.000000
    4 0.301132 -27.432880 1.425652 0.000000 0.000000 -3.141592
    5 7.098360 -0.005140 -0.000002 0.000000 0.000000 0.000000
    6 -0.068640 -27.421444 1.425652 0.000000 0.000000 -3.141592
  time 10
    0 0.000000 -0.000002 37.173691 0.000000 0.000000 0.000000
    1 0.000000 -0.023742 -9.707077 0.000000 0.000000 0.000000
    2 7.122766 1.685086 0.000002 0.000000 0.000000 0.000000
    3 -21.245588 -0.005135 -0.000002 0.000000 0.000000 0.000000
    4 0.301132 -27.432880 1.425652 0.000000 0.000000 -3.141592
    5 7.098360 -0.005140 -0.000002 0.000000 0.000000 0.000000
    6 -0.068640 -27.421444 1.425652 0.000000 0.000000 -3.141592
end
