// Created by Crowbar 0.74
version 1
nodes
  0 "door_root" -1
  1 "door_left" 0
  2 "door_right" 0
end
skeleton
  time 0
    0 0.000000 0.000000 0.000000 1.570784 -0.000014 -3.141578
    1 -10.000000 0.000000 0.000000 0.000000 0.000000 0.000000
    2 10.000000 0.000000 0.000000 0.000000 0.000000 0.000000
  time 1
    0 0.000000 0.000000 0.000000 1.570784 -0.000014 -3.141578
    1 -10.843776 0.000000 0.000000 0.000000 0.000000 0.000000
    2 10.843776 0.000000 0.000000 0.000000 0.000000 0.000000
  time 2
    0 0.000000 0.000000 0.000000 1.570784 -0.000014 -3.141578
    1 -13.203223 0.000000 0.000000 0.000000 0.000000 0.000000
    2 13.203223 0.000000 0.000000 0.000000 0.000000 0.000000
  time 3
    0 0.000000 0.000000 0.000000 1.570784 -0.000014 -3.141578
    1 -16.843959 0.000000 0.000000 0.000000 0.000000 0.000000
    2 16.843959 0.000000 0.000000 0.000000 0.000000 0.000000
  time 4
    0 0.000000 0.000000 0.000000 1.570784 -0.000014 -3.141578
    1 -21.508164 0.000000 0.000000 0.000000 0.000000 0.000000
    2 21.508164 0.000000 0.000000 0.000000 0.000000 0.000000
  time 5
    0 0.000000 0.000000 0.000000 1.570784 -0.000014 -3.141578
    1 -26.906766 0.000000 0.000000 0.000000 0.000000 0.000000
    2 26.906766 0.000000 0.000000 0.000000 0.000000 0.000000
  time 6
    0 0.000000 0.000000 0.000000 1.570784 -0.000014 -3.141578
    1 -32.824915 0.000000 0.000000 0.000000 0.000000 0.000000
    2 32.824915 0.000000 0.000000 0.000000 0.000000 0.000000
  time 7
    0 0.000000 0.000000 0.000000 1.570784 -0.000014 -3.141578
    1 -39.012604 0.000000 0.000000 0.000000 0.000000 0.000000
    2 39.012604 0.000000 0.000000 0.000000 0.000000 0.000000
  time 8
    0 0.000000 0.000000 0.000000 1.570784 -0.000014 -3.141578
    1 -45.169042 0.000000 0.000000 0.000000 0.000000 0.000000
    2 45.169042 0.000000 0.000000 0.000000 0.000000 0.000000
  time 9
    0 0.000000 0.000000 0.000000 1.570784 -0.000014 -3.141578
    1 -51.087191 0.000000 0.000000 0.000000 0.000000 0.000000
    2 51.087191 0.000000 0.000000 0.000000 0.000000 0.000000
  time 10
    0 0.000000 0.000000 0.000000 1.570784 -0.000014 -3.141578
    1 -56.509232 0.000000 0.000000 0.000000 0.000000 0.000000
    2 56.509232 0.000000 0.000000 0.000000 0.000000 0.000000
  time 11
    0 0.000000 0.000000 0.000000 1.570784 -0.000014 -3.141578
    1 -61.149998 0.000000 0.000000 0.000000 0.000000 0.000000
    2 61.149998 0.000000 0.000000 0.000000 0.000000 0.000000
  time 12
    0 0.000000 0.000000 0.000000 1.570784 -0.000014 -3.141578
    1 -64.786828 0.000000 0.000000 0.000000 0.000000 0.000000
    2 64.786828 0.000000 0.000000 0.000000 0.000000 0.000000
  time 13
    0 0.000000 0.000000 0.000000 1.570784 -0.000014 -3.141578
    1 -67.154088 0.000000 0.000000 0.000000 0.000000 0.000000
    2 67.154088 0.000000 0.000000 0.000000 0.000000 0.000000
  time 14
    0 0.000000 0.000000 0.000000 1.570784 -0.000014 -3.141578
    1 -67.997864 0.000000 0.000000 0.000000 0.000000 0.000000
    2 67.997864 0.000000 0.000000 0.000000 0.000000 0.000000
end
