// Created by Crowbar 0.74
version 1
nodes
  0 "Bip01" -1
  1 "Bip01 Pelvis" 0
  2 "Bip01 Spine" 1
  3 "Bip01 Neck" 2
  4 "Bip01 R Clavicle" 3
  5 "Bip01 R UpperArm" 4
  6 "Bip01 R Forearm" 5
  7 "Bip01 R Hand" 6
  8 "Dummy14" 7
  9 "muzzle" 7
  10 "Bip01 L Clavicle" 3
  11 "Bip01 L UpperArm" 10
  12 "Bip01 L Forearm" 11
  13 "Bip01 L Hand" 12
  14 "Bip01 L Finger0" 13
  15 "Bip01 L Finger01" 14
  16 "Bip01 L Finger02" 15
  17 "Bip01 L Finger1" 13
  18 "Bip01 L Finger11" 17
  19 "Bip01 L Finger12" 18
  20 "Bip01 L Finger2" 13
  21 "Bip01 L Finger21" 20
  22 "Bip01 L Finger22" 21
  23 "Bip01 L Finger3" 13
  24 "Bip01 L Finger31" 23
  25 "Bip01 L Finger32" 24
  26 "Bip01 L Finger4" 13
  27 "Bip01 L Finger41" 26
  28 "Bip01 L Finger42" 27
end
skeleton
  time 0
    0 -13.098893 -12.070911 -24.816700 0.000000 0.000000 -1.570795
    1 0.000000 0.000000 0.000000 0.000000 -1.570451 -1.570799
    2 4.443612 -0.009642 0.000005 -0.000004 -0.000004 0.000790
    3 12.111174 -0.011366 -0.000420 0.000000 0.000000 0.000000
    4 -0.000511 0.011447 -1.352377 -0.000014 1.370793 3.140788
    5 6.078088 -0.000001 0.000005 1.182371 -0.672153 -1.303057
    6 13.446749 -0.000001 0.000000 0.000003 0.000009 -0.069099
    7 15.996995 0.000005 -0.000001 1.683439 -0.000005 -0.000006
    8 -2.696839 7.324288 -1.920921 0.018589 0.011442 1.586441
    9 35.019154 7.488256 -2.079837 1.582240 -0.018573 -3.126158
    10 0.000004 0.011442 1.352403 -0.000013 -1.370808 3.140804
    11 6.078088 0.000001 -0.000001 -0.014383 1.186749 -0.401315
    12 13.446754 -0.000002 -0.000002 0.000000 0.000002 -1.098759
    13 15.997000 -0.000002 0.000004 -0.381686 -0.051059 -0.086455
    14 1.885322 0.833272 -2.177875 -1.101246 0.431033 0.584304
    15 1.506972 -0.000002 0.000003 0.000001 0.000002 -0.307167
    16 0.798345 -0.000004 -0.000001 -0.000001 0.000000 -0.280986
    17 3.950300 -0.539875 -2.108870 -0.018073 -0.074638 0.227590
    18 1.545803 0.000003 0.000002 0.000010 0.000000 1.200743
    19 1.667393 -0.000001 -0.000003 -0.000003 0.000000 1.165836
    20 3.899459 -0.475376 -1.170893 -0.056821 -0.237771 0.233769
    21 1.528214 0.000004 0.000004 0.000009 0.000003 1.061116
    22 1.528211 0.000002 -0.000002 0.000005 0.000002 1.209469
    23 3.899455 -0.431806 0.168226 -0.072905 -0.302248 0.238121
    24 1.506963 -0.000001 0.000002 0.000004 -0.000002 1.157109
    25 1.506963 0.000003 -0.000002 0.000008 0.000002 1.069843
    26 3.915632 -0.278020 1.402614 -0.072042 -0.298857 0.237856
    27 1.333081 -0.000001 -0.000005 0.000006 -0.000002 1.366549
    28 1.159210 0.000005 0.000003 0.000010 0.000003 0.947670
  time 1
    0 -13.098893 -12.070911 -24.816700 0.000000 0.000000 -1.570795
    1 0.000000 0.000000 0.000000 0.000000 -1.570451 -1.570799
    2 4.443612 -0.009642 0.000005 -0.000004 -0.000004 0.000790
    3 12.111174 -0.011366 -0.000420 0.000000 0.000000 0.000000
    4 -0.000511 0.011447 -1.352377 -0.000014 1.370793 3.140788
    5 6.078088 -0.000001 0.000005 1.190353 -0.646728 -1.316072
    6 13.446749 -0.000001 0.000000 0.000003 0.000009 -0.087339
    7 15.996995 0.000005 -0.000001 1.689863 0.000007 -0.000186
    8 -2.696839 7.324288 -1.920921 0.018589 0.011442 1.586441
    9 35.019154 7.488256 -2.079837 1.582240 -0.018573 -3.126158
    10 0.000004 0.011442 1.352403 -0.000013 -1.370808 3.140804
    11 6.078088 0.000001 -0.000001 -0.099120 1.170893 -0.482119
    12 13.446754 -0.000002 -0.000002 0.000000 0.000002 -1.101266
    13 15.997000 -0.000002 0.000004 -0.374100 -0.051110 -0.093202
    14 1.885322 0.833272 -2.177875 -1.101246 0.431033 0.584304
    15 1.506972 -0.000002 0.000003 0.000001 0.000002 -0.307167
    16 0.798345 -0.000004 -0.000001 -0.000001 0.000000 -0.280986
    17 3.950300 -0.539875 -2.108870 -0.018073 -0.074638 0.227590
    18 1.545803 0.000003 0.000002 0.000010 0.000000 1.200743
    19 1.667393 -0.000001 -0.000003 -0.000003 0.000000 1.165836
    20 3.899459 -0.475376 -1.170893 -0.056821 -0.237771 0.233769
    21 1.528214 0.000004 0.000004 0.000009 0.000003 1.061116
    22 1.528211 0.000002 -0.000002 0.000005 0.000002 1.209469
    23 3.899455 -0.431806 0.168226 -0.072905 -0.302248 0.238121
    24 1.506963 -0.000001 0.000002 0.000004 -0.000002 1.157109
    25 1.506963 0.000003 -0.000002 0.000008 0.000002 1.069843
    26 3.915632 -0.278020 1.402614 -0.072042 -0.298857 0.237856
    27 1.333081 -0.000001 -0.000005 0.000006 -0.000002 1.366549
    28 1.159210 0.000005 0.000003 0.000010 0.000003 0.947670
  time 2
    0 -13.098893 -12.070911 -24.816700 0.000000 0.000000 -1.570795
    1 0.000000 0.000000 0.000000 0.000000 -1.570451 -1.570799
    2 4.443612 -0.009642 0.000005 -0.000004 -0.000004 0.000790
    3 12.111174 -0.011366 -0.000420 0.000000 0.000000 0.000000
    4 -0.000511 0.011447 -1.352377 -0.000014 1.370793 3.140788
    5 6.078088 -0.000001 0.000005 1.197819 -0.621054 -1.328680
    6 13.446749 -0.000001 0.000000 0.000003 0.000009 -0.106582
    7 15.996995 0.000005 -0.000001 1.697125 0.000055 -0.000713
    8 -2.696839 7.324288 -1.920921 0.018589 0.011442 1.586441
    9 35.019154 7.488256 -2.079837 1.582240 -0.018573 -3.126158
    10 0.000004 0.011442 1.352403 -0.000013 -1.370808 3.140804
    11 6.078088 0.000001 -0.000001 -0.179030 1.152423 -0.557370
    12 13.446754 -0.000002 -0.000002 0.000000 0.000002 -1.104494
    13 15.997000 -0.000002 0.000004 -0.365204 -0.050609 -0.100117
    14 1.885322 0.833272 -2.177875 -1.101246 0.431033 0.584304
    15 1.506972 -0.000002 0.000003 0.000001 0.000002 -0.307167
    16 0.798345 -0.000004 -0.000001 -0.000001 0.000000 -0.280986
    17 3.950300 -0.539875 -2.108870 -0.018073 -0.074638 0.227590
    18 1.545803 0.000003 0.000002 0.000010 0.000000 1.200743
    19 1.667393 -0.000001 -0.000003 -0.000003 0.000000 1.165836
    20 3.899459 -0.475376 -1.170893 -0.056821 -0.237771 0.233769
    21 1.528214 0.000004 0.000004 0.000009 0.000003 1.061116
    22 1.528211 0.000002 -0.000002 0.000005 0.000002 1.209469
    23 3.899455 -0.431806 0.168226 -0.072905 -0.302248 0.238121
    24 1.506963 -0.000001 0.000002 0.000004 -0.000002 1.157109
    25 1.506963 0.000003 -0.000002 0.000008 0.000002 1.069843
    26 3.915632 -0.278020 1.402614 -0.072042 -0.298857 0.237856
    27 1.333081 -0.000001 -0.000005 0.000006 -0.000002 1.366549
    28 1.159210 0.000005 0.000003 0.000010 0.000003 0.947670
  time 3
    0 -13.098893 -12.070911 -24.816700 0.000000 0.000000 -1.570795
    1 0.000000 0.000000 0.000000 0.000000 -1.570451 -1.570799
    2 4.443612 -0.009642 0.000005 -0.000004 -0.000004 0.000790
    3 12.111174 -0.011366 -0.000420 0.000000 0.000000 0.000000
    4 -0.000511 0.011447 -1.352377 -0.000014 1.370793 3.140788
    5 6.078088 -0.000001 0.000005 1.204794 -0.595170 -1.340892
    6 13.446749 -0.000001 0.000000 0.000003 0.000009 -0.126660
    7 15.996995 0.000005 -0.000001 1.705023 0.000139 -0.001504
    8 -2.696839 7.324288 -1.920921 0.018589 0.011442 1.586441
    9 35.019154 7.488256 -2.079837 1.582240 -0.018573 -3.126158
    10 0.000004 0.011442 1.352403 -0.000013 -1.370808 3.140804
    11 6.078088 0.000001 -0.000001 -0.253539 1.131688 -0.626477
    12 13.446754 -0.000002 -0.000002 0.000000 0.000002 -1.108488
    13 15.997000 -0.000002 0.000004 -0.355179 -0.049590 -0.107020
    14 1.885322 0.833272 -2.177875 -1.101246 0.431033 0.584304
    15 1.506972 -0.000002 0.000003 0.000001 0.000002 -0.307167
    16 0.798345 -0.000004 -0.000001 -0.000001 0.000000 -0.280986
    17 3.950300 -0.539875 -2.108870 -0.018073 -0.074638 0.227590
    18 1.545803 0.000003 0.000002 0.000010 0.000000 1.200743
    19 1.667393 -0.000001 -0.000003 -0.000003 0.000000 1.165836
    20 3.899459 -0.475376 -1.170893 -0.056821 -0.237771 0.233769
    21 1.528214 0.000004 0.000004 0.000009 0.000003 1.061116
    22 1.528211 0.000002 -0.000002 0.000005 0.000002 1.209469
    23 3.899455 -0.431806 0.168226 -0.072905 -0.302248 0.238121
    24 1.506963 -0.000001 0.000002 0.000004 -0.000002 1.157109
    25 1.506963 0.000003 -0.000002 0.000008 0.000002 1.069843
    26 3.915632 -0.278020 1.402614 -0.072042 -0.298857 0.237856
    27 1.333081 -0.000001 -0.000005 0.000006 -0.000002 1.366549
    28 1.159210 0.000005 0.000003 0.000010 0.000003 0.947670
  time 4
    0 -13.098893 -12.070911 -24.816700 0.000000 0.000000 -1.570795
    1 0.000000 0.000000 0.000000 0.000000 -1.570451 -1.570799
    2 4.443612 -0.009642 0.000005 -0.000004 -0.000004 0.000790
    3 12.111174 -0.011366 -0.000420 0.000000 0.000000 0.000000
    4 -0.000511 0.011447 -1.352377 -0.000014 1.370793 3.140788
    5 6.078088 -0.000001 0.000005 1.211302 -0.569133 -1.352721
    6 13.446749 -0.000001 0.000000 0.000003 0.000009 -0.147311
    7 15.996995 0.000005 -0.000001 1.713412 0.000235 -0.002499
    8 -2.696839 7.324288 -1.920921 0.018589 0.011442 1.586441
    9 35.019154 7.488256 -2.079837 1.582240 -0.018573 -3.126158
    10 0.000004 0.011442 1.352403 -0.000013 -1.370808 3.140804
    11 6.078088 0.000001 -0.000001 -0.322340 1.109106 -0.689198
    12 13.446754 -0.000002 -0.000002 0.000000 0.000002 -1.113373
    13 15.997000 -0.000002 0.000004 -0.344115 -0.048055 -0.113792
    14 1.885322 0.833272 -2.177875 -1.101246 0.431033 0.584304
    15 1.506972 -0.000002 0.000003 0.000001 0.000002 -0.307167
    16 0.798345 -0.000004 -0.000001 -0.000001 0.000000 -0.280986
    17 3.950300 -0.539875 -2.108870 -0.018073 -0.074638 0.227590
    18 1.545803 0.000003 0.000002 0.000010 0.000000 1.200743
    19 1.667393 -0.000001 -0.000003 -0.000003 0.000000 1.165836
    20 3.899459 -0.475376 -1.170893 -0.056821 -0.237771 0.233769
    21 1.528214 0.000004 0.000004 0.000009 0.000003 1.061116
    22 1.528211 0.000002 -0.000002 0.000005 0.000002 1.209469
    23 3.899455 -0.431806 0.168226 -0.072905 -0.302248 0.238121
    24 1.506963 -0.000001 0.000002 0.000004 -0.000002 1.157109
    25 1.506963 0.000003 -0.000002 0.000008 0.000002 1.069843
    26 3.915632 -0.278020 1.402614 -0.072042 -0.298857 0.237856
    27 1.333081 -0.000001 -0.000005 0.000006 -0.000002 1.366549
    28 1.159210 0.000005 0.000003 0.000010 0.000003 0.947670
  time 5
    0 -13.098893 -12.070911 -24.816700 0.000000 0.000000 -1.570795
    1 0.000000 0.000000 0.000000 0.000000 -1.570451 -1.570799
    2 4.443612 -0.009642 0.000005 -0.000004 -0.000004 0.000790
    3 12.111174 -0.011366 -0.000420 0.000000 0.000000 0.000000
    4 -0.000511 0.011447 -1.352377 -0.000014 1.370793 3.140788
    5 6.078088 -0.000001 0.000005 1.217354 -0.542980 -1.364178
    6 13.446749 -0.000001 0.000000 0.000003 0.000009 -0.168320
    7 15.996995 0.000005 -0.000001 1.722089 0.000367 -0.003601
    8 -2.696839 7.324288 -1.920921 0.018589 0.011442 1.586441
    9 35.019154 7.488256 -2.079837 1.582240 -0.018573 -3.126158
    10 0.000004 0.011442 1.352403 -0.000013 -1.370808 3.140804
    11 6.078088 0.000001 -0.000001 -0.385702 1.085165 -0.745706
    12 13.446754 -0.000002 -0.000002 0.000000 0.000002 -1.119151
    13 15.997000 -0.000002 0.000004 -0.332284 -0.046018 -0.120275
    14 1.885322 0.833272 -2.177875 -1.101246 0.431033 0.584304
    15 1.506972 -0.000002 0.000003 0.000001 0.000002 -0.307167
    16 0.798345 -0.000004 -0.000001 -0.000001 0.000000 -0.280986
    17 3.950300 -0.539875 -2.108870 -0.018073 -0.074638 0.227590
    18 1.545803 0.000003 0.000002 0.000010 0.000000 1.200743
    19 1.667393 -0.000001 -0.000003 -0.000003 0.000000 1.165836
    20 3.899459 -0.475376 -1.170893 -0.056821 -0.237771 0.233769
    21 1.528214 0.000004 0.000004 0.000009 0.000003 1.061116
    22 1.528211 0.000002 -0.000002 0.000005 0.000002 1.209469
    23 3.899455 -0.431806 0.168226 -0.072905 -0.302248 0.238121
    24 1.506963 -0.000001 0.000002 0.000004 -0.000002 1.157109
    25 1.506963 0.000003 -0.000002 0.000008 0.000002 1.069843
    26 3.915632 -0.278020 1.402614 -0.072042 -0.298857 0.237856
    27 1.333081 -0.000001 -0.000005 0.000006 -0.000002 1.366549
    28 1.159210 0.000005 0.000003 0.000010 0.000003 0.947670
  time 6
    0 -13.098893 -12.070911 -24.816700 0.000000 0.000000 -1.570795
    1 0.000000 0.000000 0.000000 0.000000 -1.570451 -1.570799
    2 4.443612 -0.009642 0.000005 -0.000004 -0.000004 0.000790
    3 12.111174 -0.011366 -0.000420 0.000000 0.000000 0.000000
    4 -0.000511 0.011447 -1.352377 -0.000014 1.370793 3.140788
    5 6.078088 -0.000001 0.000005 1.222975 -0.516752 -1.375300
    6 13.446749 -0.000001 0.000000 0.000003 0.000009 -0.189473
    7 15.996995 0.000005 -0.000001 1.730886 0.000498 -0.004752
    8 -2.696839 7.324288 -1.920921 0.018589 0.011442 1.586441
    9 35.019154 7.488256 -2.079837 1.582240 -0.018573 -3.126158
    10 0.000004 0.011442 1.352403 -0.000013 -1.370808 3.140804
    11 6.078088 0.000001 -0.000001 -0.443853 1.060248 -0.796417
    12 13.446754 -0.000002 -0.000002 0.000000 0.000002 -1.125778
    13 15.997000 -0.000002 0.000004 -0.319821 -0.043547 -0.126364
    14 1.885322 0.833272 -2.177875 -1.101246 0.431033 0.584304
    15 1.506972 -0.000002 0.000003 0.000001 0.000002 -0.307167
    16 0.798345 -0.000004 -0.000001 -0.000001 0.000000 -0.280986
    17 3.950300 -0.539875 -2.108870 -0.018073 -0.074638 0.227590
    18 1.545803 0.000003 0.000002 0.000010 0.000000 1.200743
    19 1.667393 -0.000001 -0.000003 -0.000003 0.000000 1.165836
    20 3.899459 -0.475376 -1.170893 -0.056821 -0.237771 0.233769
    21 1.528214 0.000004 0.000004 0.000009 0.000003 1.061116
    22 1.528211 0.000002 -0.000002 0.000005 0.000002 1.209469
    23 3.899455 -0.431806 0.168226 -0.072905 -0.302248 0.238121
    24 1.506963 -0.000001 0.000002 0.000004 -0.000002 1.157109
    25 1.506963 0.000003 -0.000002 0.000008 0.000002 1.069843
    26 3.915632 -0.278020 1.402614 -0.072042 -0.298857 0.237856
    27 1.333081 -0.000001 -0.000005 0.000006 -0.000002 1.366549
    28 1.159210 0.000005 0.000003 0.000010 0.000003 0.947670
  time 7
    0 -13.098893 -12.070911 -24.816700 0.000000 0.000000 -1.570795
    1 0.000000 0.000000 0.000000 0.000000 -1.570451 -1.570799
    2 4.443612 -0.009642 0.000005 -0.000004 -0.000004 0.000790
    3 12.111174 -0.011366 -0.000420 0.000000 0.000000 0.000000
    4 -0.000511 0.011447 -1.352377 -0.000014 1.370793 3.140788
    5 6.078088 -0.000001 0.000005 1.228176 -0.490484 -1.386086
    6 13.446749 -0.000001 0.000000 0.000003 0.000009 -0.210578
    7 15.996995 0.000005 -0.000001 1.739623 0.000654 -0.005878
    8 -2.696839 7.324288 -1.920921 0.018589 0.011442 1.586441
    9 35.019154 7.488256 -2.079837 1.582240 -0.018573 -3.126158
    10 0.000004 0.011442 1.352403 -0.000013 -1.370808 3.140804
    11 6.078088 0.000001 -0.000001 -0.497331 1.034738 -0.841852
    12 13.446754 -0.000002 -0.000002 0.000000 0.000002 -1.133297
    13 15.997000 -0.000002 0.000004 -0.306906 -0.040659 -0.131984
    14 1.885322 0.833272 -2.177875 -1.101246 0.431033 0.584304
    15 1.506972 -0.000002 0.000003 0.000001 0.000002 -0.307167
    16 0.798345 -0.000004 -0.000001 -0.000001 0.000000 -0.280986
    17 3.950300 -0.539875 -2.108870 -0.018073 -0.074638 0.227590
    18 1.545803 0.000003 0.000002 0.000010 0.000000 1.200743
    19 1.667393 -0.000001 -0.000003 -0.000003 0.000000 1.165836
    20 3.899459 -0.475376 -1.170893 -0.056821 -0.237771 0.233769
    21 1.528214 0.000004 0.000004 0.000009 0.000003 1.061116
    22 1.528211 0.000002 -0.000002 0.000005 0.000002 1.209469
    23 3.899455 -0.431806 0.168226 -0.072905 -0.302248 0.238121
    24 1.506963 -0.000001 0.000002 0.000004 -0.000002 1.157109
    25 1.506963 0.000003 -0.000002 0.000008 0.000002 1.069843
    26 3.915632 -0.278020 1.402614 -0.072042 -0.298857 0.237856
    27 1.333081 -0.000001 -0.000005 0.000006 -0.000002 1.366549
    28 1.159210 0.000005 0.000003 0.000010 0.000003 0.947670
  time 8
    0 -13.098893 -12.070911 -24.816700 0.000000 0.000000 -1.570795
    1 0.000000 0.000000 0.000000 0.000000 -1.570451 -1.570799
    2 4.443612 -0.009642 0.000005 -0.000004 -0.000004 0.000790
    3 12.111174 -0.011366 -0.000420 0.000000 0.000000 0.000000
    4 -0.000511 0.011447 -1.352377 -0.000014 1.370793 3.140788
    5 6.078088 -0.000001 0.000005 1.232994 -0.464198 -1.396561
    6 13.446749 -0.000001 0.000000 0.000003 0.000009 -0.231372
    7 15.996995 0.000005 -0.000001 1.748132 0.000798 -0.006909
    8 -2.696839 7.324288 -1.920921 0.018589 0.011442 1.586441
    9 35.019154 7.488256 -2.079837 1.582240 -0.018573 -3.126158
    10 0.000004 0.011442 1.352403 -0.000013 -1.370808 3.140804
    11 6.078088 0.000001 -0.000001 -0.546595 1.008950 -0.882566
    12 13.446754 -0.000002 -0.000002 0.000000 0.000002 -1.141496
    13 15.997000 -0.000002 0.000004 -0.293810 -0.037404 -0.137066
    14 1.885322 0.833272 -2.177875 -1.101246 0.431033 0.584304
    15 1.506972 -0.000002 0.000003 0.000001 0.000002 -0.307167
    16 0.798345 -0.000004 -0.000001 -0.000001 0.000000 -0.280986
    17 3.950300 -0.539875 -2.108870 -0.018073 -0.074638 0.227590
    18 1.545803 0.000003 0.000002 0.000010 0.000000 1.200743
    19 1.667393 -0.000001 -0.000003 -0.000003 0.000000 1.165836
    20 3.899459 -0.475376 -1.170893 -0.056821 -0.237771 0.233769
    21 1.528214 0.000004 0.000004 0.000009 0.000003 1.061116
    22 1.528211 0.000002 -0.000002 0.000005 0.000002 1.209469
    23 3.899455 -0.431806 0.168226 -0.072905 -0.302248 0.238121
    24 1.506963 -0.000001 0.000002 0.000004 -0.000002 1.157109
    25 1.506963 0.000003 -0.000002 0.000008 0.000002 1.069843
    26 3.915632 -0.278020 1.402614 -0.072042 -0.298857 0.237856
    27 1.333081 -0.000001 -0.000005 0.000006 -0.000002 1.366549
    28 1.159210 0.000005 0.000003 0.000010 0.000003 0.947670
  time 9
    0 -13.098893 -12.070911 -24.816700 0.000000 0.000000 -1.570795
    1 0.000000 0.000000 0.000000 0.000000 -1.570451 -1.570799
    2 4.443612 -0.009642 0.000005 -0.000004 -0.000004 0.000790
    3 12.111174 -0.011366 -0.000420 0.000000 0.000000 0.000000
    4 -0.000511 0.011447 -1.352377 -0.000014 1.370793 3.140788
    5 6.078088 -0.000001 0.000005 1.237428 -0.437969 -1.406724
    6 13.446749 -0.000001 0.000000 0.000003 0.000009 -0.251641
    7 15.996995 0.000005 -0.000001 1.756209 0.000930 -0.007772
    8 -2.696839 7.324288 -1.920921 0.018589 0.011442 1.586441
    9 35.019154 7.488256 -2.079837 1.582240 -0.018573 -3.126158
    10 0.000004 0.011442 1.352403 -0.000013 -1.370808 3.140804
    11 6.078088 0.000001 -0.000001 -0.592105 0.983197 -0.919116
    12 13.446754 -0.000002 -0.000002 0.000000 0.000002 -1.150332
    13 15.997000 -0.000002 0.000004 -0.280669 -0.033832 -0.141560
    14 1.885322 0.833272 -2.177875 -1.101246 0.431033 0.584304
    15 1.506972 -0.000002 0.000003 0.000001 0.000002 -0.307167
    16 0.798345 -0.000004 -0.000001 -0.000001 0.000000 -0.280986
    17 3.950300 -0.539875 -2.108870 -0.018073 -0.074638 0.227590
    18 1.545803 0.000003 0.000002 0.000010 0.000000 1.200743
    19 1.667393 -0.000001 -0.000003 -0.000003 0.000000 1.165836
    20 3.899459 -0.475376 -1.170893 -0.056821 -0.237771 0.233769
    21 1.528214 0.000004 0.000004 0.000009 0.000003 1.061116
    22 1.528211 0.000002 -0.000002 0.000005 0.000002 1.209469
    23 3.899455 -0.431806 0.168226 -0.072905 -0.302248 0.238121
    24 1.506963 -0.000001 0.000002 0.000004 -0.000002 1.157109
    25 1.506963 0.000003 -0.000002 0.000008 0.000002 1.069843
    26 3.915632 -0.278020 1.402614 -0.072042 -0.298857 0.237856
    27 1.333081 -0.000001 -0.000005 0.000006 -0.000002 1.366549
    28 1.159210 0.000005 0.000003 0.000010 0.000003 0.947670
  time 10
    0 -13.098893 -12.070911 -24.816700 0.000000 0.000000 -1.570795
    1 0.000000 0.000000 0.000000 0.000000 -1.570451 -1.570799
    2 4.443612 -0.009642 0.000005 -0.000004 -0.000004 0.000790
    3 12.111174 -0.011366 -0.000420 0.000000 0.000000 0.000000
    4 -0.000511 0.011447 -1.352377 -0.000014 1.370793 3.140788
    5 6.078088 -0.000001 0.000005 1.241503 -0.411817 -1.416599
    6 13.446749 -0.000001 0.000000 0.000003 0.000009 -0.271194
    7 15.996995 0.000005 -0.000001 1.763712 0.001038 -0.008395
    8 -2.696839 7.324288 -1.920921 0.018589 0.011442 1.586441
    9 35.019154 7.488256 -2.079837 1.582240 -0.018573 -3.126158
    10 0.000004 0.011442 1.352403 -0.000013 -1.370808 3.140804
    11 6.078088 0.000001 -0.000001 -0.634243 0.957722 -0.952056
    12 13.446754 -0.000002 -0.000002 0.000000 0.000002 -1.159678
    13 15.997000 -0.000002 0.000004 -0.267754 -0.030042 -0.145431
    14 1.885322 0.833272 -2.177875 -1.101246 0.431033 0.584304
    15 1.506972 -0.000002 0.000003 0.000001 0.000002 -0.307167
    16 0.798345 -0.000004 -0.000001 -0.000001 0.000000 -0.280986
    17 3.950300 -0.539875 -2.108870 -0.018073 -0.074638 0.227590
    18 1.545803 0.000003 0.000002 0.000010 0.000000 1.200743
    19 1.667393 -0.000001 -0.000003 -0.000003 0.000000 1.165836
    20 3.899459 -0.475376 -1.170893 -0.056821 -0.237771 0.233769
    21 1.528214 0.000004 0.000004 0.000009 0.000003 1.061116
    22 1.528211 0.000002 -0.000002 0.000005 0.000002 1.209469
    23 3.899455 -0.431806 0.168226 -0.072905 -0.302248 0.238121
    24 1.506963 -0.000001 0.000002 0.000004 -0.000002 1.157109
    25 1.506963 0.000003 -0.000002 0.000008 0.000002 1.069843
    26 3.915632 -0.278020 1.402614 -0.072042 -0.298857 0.237856
    27 1.333081 -0.000001 -0.000005 0.000006 -0.000002 1.366549
    28 1.159210 0.000005 0.000003 0.000010 0.000003 0.947670
  time 11
    0 -13.098893 -12.070911 -24.816700 0.000000 0.000000 -1.570795
    1 0.000000 0.000000 0.000000 0.000000 -1.570451 -1.570799
    2 4.443612 -0.009642 0.000005 -0.000004 -0.000004 0.000790
    3 12.111174 -0.011366 -0.000420 0.000000 0.000000 0.000000
    4 -0.000511 0.011447 -1.352377 -0.000014 1.370793 3.140788
    5 6.078088 -0.000001 0.000005 1.245230 -0.385779 -1.426199
    6 13.446749 -0.000001 0.000000 0.000003 0.000009 -0.289816
    7 15.996995 0.000005 -0.000001 1.770435 0.001098 -0.008707
    8 -2.696839 7.324288 -1.920921 0.018589 0.011442 1.586441
    9 35.019154 7.488256 -2.079837 1.582240 -0.018573 -3.126158
    10 0.000004 0.011442 1.352403 -0.000013 -1.370808 3.140804
    11 6.078088 0.000001 -0.000001 -0.673432 0.932701 -0.981837
    12 13.446754 -0.000002 -0.000002 0.000000 0.000002 -1.169279
    13 15.997000 -0.000002 0.000004 -0.255291 -0.026103 -0.148667
    14 1.885322 0.833272 -2.177875 -1.101246 0.431033 0.584304
    15 1.506972 -0.000002 0.000003 0.000001 0.000002 -0.307167
    16 0.798345 -0.000004 -0.000001 -0.000001 0.000000 -0.280986
    17 3.950300 -0.539875 -2.108870 -0.018073 -0.074638 0.227590
    18 1.545803 0.000003 0.000002 0.000010 0.000000 1.200743
    19 1.667393 -0.000001 -0.000003 -0.000003 0.000000 1.165836
    20 3.899459 -0.475376 -1.170893 -0.056821 -0.237771 0.233769
    21 1.528214 0.000004 0.000004 0.000009 0.000003 1.061116
    22 1.528211 0.000002 -0.000002 0.000005 0.000002 1.209469
    23 3.899455 -0.431806 0.168226 -0.072905 -0.302248 0.238121
    24 1.506963 -0.000001 0.000002 0.000004 -0.000002 1.157109
    25 1.506963 0.000003 -0.000002 0.000008 0.000002 1.069843
    26 3.915632 -0.278020 1.402614 -0.072042 -0.298857 0.237856
    27 1.333081 -0.000001 -0.000005 0.000006 -0.000002 1.366549
    28 1.159210 0.000005 0.000003 0.000010 0.000003 0.947670
  time 12
    0 -13.098893 -12.070911 -24.816700 0.000000 0.000000 -1.570795
    1 0.000000 0.000000 0.000000 0.000000 -1.570451 -1.570799
    2 4.443612 -0.009642 0.000005 -0.000004 -0.000004 0.000790
    3 12.111174 -0.011366 -0.000420 0.000000 0.000000 0.000000
    4 -0.000511 0.011447 -1.352377 -0.000014 1.370793 3.140788
    5 6.078088 -0.000001 0.000005 1.248622 -0.359895 -1.435535
    6 13.446749 -0.000001 0.000000 0.000003 0.000009 -0.307245
    7 15.996995 0.000005 -0.000001 1.776212 0.001122 -0.008623
    8 -2.696839 7.324288 -1.920921 0.018589 0.011442 1.586441
    9 35.019154 7.488256 -2.079837 1.582240 -0.018573 -3.126158
    10 0.000004 0.011442 1.352403 -0.000013 -1.370808 3.140804
    11 6.078088 0.000001 -0.000001 -0.709901 0.908376 -1.008910
    12 13.446754 -0.000002 -0.000002 0.000000 0.000002 -1.178922
    13 15.997000 -0.000002 0.000004 -0.243505 -0.022113 -0.151268
    14 1.885322 0.833272 -2.177875 -1.101246 0.431033 0.584304
    15 1.506972 -0.000002 0.000003 0.000001 0.000002 -0.307167
    16 0.798345 -0.000004 -0.000001 -0.000001 0.000000 -0.280986
    17 3.950300 -0.539875 -2.108870 -0.018073 -0.074638 0.227590
    18 1.545803 0.000003 0.000002 0.000010 0.000000 1.200743
    19 1.667393 -0.000001 -0.000003 -0.000003 0.000000 1.165836
    20 3.899459 -0.475376 -1.170893 -0.056821 -0.237771 0.233769
    21 1.528214 0.000004 0.000004 0.000009 0.000003 1.061116
    22 1.528211 0.000002 -0.000002 0.000005 0.000002 1.209469
    23 3.899455 -0.431806 0.168226 -0.072905 -0.302248 0.238121
    24 1.506963 -0.000001 0.000002 0.000004 -0.000002 1.157109
    25 1.506963 0.000003 -0.000002 0.000008 0.000002 1.069843
    26 3.915632 -0.278020 1.402614 -0.072042 -0.298857 0.237856
    27 1.333081 -0.000001 -0.000005 0.000006 -0.000002 1.366549
    28 1.159210 0.000005 0.000003 0.000010 0.000003 0.947670
  time 13
    0 -13.098893 -12.070911 -24.816700 0.000000 0.000000 -1.570795
    1 0.000000 0.000000 0.000000 0.000000 -1.570451 -1.570799
    2 4.443612 -0.009642 0.000005 -0.000004 -0.000004 0.000790
    3 12.111174 -0.011366 -0.000420 0.000000 0.000000 0.000000
    4 -0.000511 0.011447 -1.352377 -0.000014 1.370793 3.140788
    5 6.078088 -0.000001 0.000005 1.251714 -0.334202 -1.444607
    6 13.446749 -0.000001 0.000000 0.000003 0.000009 -0.323312
    7 15.996995 0.000005 -0.000001 1.780862 0.001062 -0.008096
    8 -2.696839 7.324288 -1.920921 0.018589 0.011442 1.586441
    9 35.019154 7.488256 -2.079837 1.582240 -0.018573 -3.126158
    10 0.000004 0.011442 1.352403 -0.000013 -1.370808 3.140804
    11 6.078088 0.000001 -0.000001 -0.743842 0.884853 -1.033554
    12 13.446754 -0.000002 -0.000002 0.000000 0.000002 -1.188480
    13 15.997000 -0.000002 0.000004 -0.232667 -0.018173 -0.153245
    14 1.885322 0.833272 -2.177875 -1.101246 0.431033 0.584304
    15 1.506972 -0.000002 0.000003 0.000001 0.000002 -0.307167
    16 0.798345 -0.000004 -0.000001 -0.000001 0.000000 -0.280986
    17 3.950300 -0.539875 -2.108870 -0.018073 -0.074638 0.227590
    18 1.545803 0.000003 0.000002 0.000010 0.000000 1.200743
    19 1.667393 -0.000001 -0.000003 -0.000003 0.000000 1.165836
    20 3.899459 -0.475376 -1.170893 -0.056821 -0.237771 0.233769
    21 1.528214 0.000004 0.000004 0.000009 0.000003 1.061116
    22 1.528211 0.000002 -0.000002 0.000005 0.000002 1.209469
    23 3.899455 -0.431806 0.168226 -0.072905 -0.302248 0.238121
    24 1.506963 -0.000001 0.000002 0.000004 -0.000002 1.157109
    25 1.506963 0.000003 -0.000002 0.000008 0.000002 1.069843
    26 3.915632 -0.278020 1.402614 -0.072042 -0.298857 0.237856
    27 1.333081 -0.000001 -0.000005 0.000006 -0.000002 1.366549
    28 1.159210 0.000005 0.000003 0.000010 0.000003 0.947670
  time 14
    0 -13.098893 -12.070911 -24.816700 0.000000 0.000000 -1.570795
    1 0.000000 0.000000 0.000000 0.000000 -1.570451 -1.570799
    2 4.443612 -0.009642 0.000005 -0.000004 -0.000004 0.000790
    3 12.111174 -0.011366 -0.000420 0.000000 0.000000 0.000000
    4 -0.000511 0.011447 -1.352377 -0.000014 1.370793 3.140788
    5 6.078088 -0.000001 0.000005 1.254494 -0.308739 -1.453427
    6 13.446749 -0.000001 0.000000 0.000003 0.000009 -0.337756
    7 15.996995 0.000005 -0.000001 1.784205 0.000942 -0.007041
    8 -2.696839 7.324288 -1.920921 0.018589 0.011442 1.586441
    9 35.019154 7.488256 -2.079837 1.582240 -0.018573 -3.126158
    10 0.000004 0.011442 1.352403 -0.000013 -1.370808 3.140804
    11 6.078088 0.000001 -0.000001 -0.775446 0.862271 -1.056150
    12 13.446754 -0.000002 -0.000002 0.000000 0.000002 -1.197699
    13 15.997000 -0.000002 0.000004 -0.223003 -0.014417 -0.154599
    14 1.885322 0.833272 -2.177875 -1.101246 0.431033 0.584304
    15 1.506972 -0.000002 0.000003 0.000001 0.000002 -0.307167
    16 0.798345 -0.000004 -0.000001 -0.000001 0.000000 -0.280986
    17 3.950300 -0.539875 -2.108870 -0.018073 -0.074638 0.227590
    18 1.545803 0.000003 0.000002 0.000010 0.000000 1.200743
    19 1.667393 -0.000001 -0.000003 -0.000003 0.000000 1.165836
    20 3.899459 -0.475376 -1.170893 -0.056821 -0.237771 0.233769
    21 1.528214 0.000004 0.000004 0.000009 0.000003 1.061116
    22 1.528211 0.000002 -0.000002 0.000005 0.000002 1.209469
    23 3.899455 -0.431806 0.168226 -0.072905 -0.302248 0.238121
    24 1.506963 -0.000001 0.000002 0.000004 -0.000002 1.157109
    25 1.506963 0.000003 -0.000002 0.000008 0.000002 1.069843
    26 3.915632 -0.278020 1.402614 -0.072042 -0.298857 0.237856
    27 1.333081 -0.000001 -0.000005 0.000006 -0.000002 1.366549
    28 1.159210 0.000005 0.000003 0.000010 0.000003 0.947670
  time 15
    0 -13.098893 -12.070911 -24.816700 0.000000 0.000000 -1.570795
    1 0.000000 0.000000 0.000000 0.000000 -1.570451 -1.570799
    2 4.443612 -0.009642 0.000005 -0.000004 -0.000004 0.000790
    3 12.111174 -0.011366 -0.000420 0.000000 0.000000 0.000000
    4 -0.000511 0.011447 -1.352377 -0.000014 1.370793 3.140788
    5 6.078088 -0.000001 0.000005 1.256999 -0.283563 -1.462008
    6 13.446749 -0.000001 0.000000 0.000003 0.000009 -0.350385
    7 15.996995 0.000005 -0.000001 1.786075 0.000714 -0.005375
    8 -2.696839 7.324288 -1.920921 0.018589 0.011442 1.586441
    9 35.019154 7.488256 -2.079837 1.582240 -0.018573 -3.126158
    10 0.000004 0.011442 1.352403 -0.000013 -1.370808 3.140804
    11 6.078088 0.000001 -0.000001 -0.804752 0.840734 -1.076872
    12 13.446754 -0.000002 -0.000002 0.000000 0.000002 -1.206365
    13 15.997000 -0.000002 0.000004 -0.214784 -0.010962 -0.155378
    14 1.885322 0.833272 -2.177875 -1.101246 0.431033 0.584304
    15 1.506972 -0.000002 0.000003 0.000001 0.000002 -0.307167
    16 0.798345 -0.000004 -0.000001 -0.000001 0.000000 -0.280986
    17 3.950300 -0.539875 -2.108870 -0.018073 -0.074638 0.227590
    18 1.545803 0.000003 0.000002 0.000010 0.000000 1.200743
    19 1.667393 -0.000001 -0.000003 -0.000003 0.000000 1.165836
    20 3.899459 -0.475376 -1.170893 -0.056821 -0.237771 0.233769
    21 1.528214 0.000004 0.000004 0.000009 0.000003 1.061116
    22 1.528211 0.000002 -0.000002 0.000005 0.000002 1.209469
    23 3.899455 -0.431806 0.168226 -0.072905 -0.302248 0.238121
    24 1.506963 -0.000001 0.000002 0.000004 -0.000002 1.157109
    25 1.506963 0.000003 -0.000002 0.000008 0.000002 1.069843
    26 3.915632 -0.278020 1.402614 -0.072042 -0.298857 0.237856
    27 1.333081 -0.000001 -0.000005 0.000006 -0.000002 1.366549
    28 1.159210 0.000005 0.000003 0.000010 0.000003 0.947670
  time 16
    0 -13.098893 -12.070911 -24.816700 0.000000 0.000000 -1.570795
    1 0.000000 0.000000 0.000000 0.000000 -1.570451 -1.570799
    2 4.443612 -0.009642 0.000005 -0.000004 -0.000004 0.000790
    3 12.111174 -0.011366 -0.000420 0.000000 0.000000 0.000000
    4 -0.000511 0.011447 -1.352377 -0.000014 1.370793 3.140788
    5 6.078088 -0.000001 0.000005 1.259240 -0.258694 -1.470350
    6 13.446749 -0.000001 0.000000 0.000003 0.000009 -0.360962
    7 15.996995 0.000005 -0.000001 1.786291 0.000402 -0.003050
    8 -2.696839 7.324288 -1.920921 0.018589 0.011442 1.586441
    9 35.019154 7.488256 -2.079837 1.582240 -0.018573 -3.126158
    10 0.000004 0.011442 1.352403 -0.000013 -1.370808 3.140804
    11 6.078088 0.000001 -0.000001 -0.831836 0.820383 -1.095928
    12 13.446754 -0.000002 -0.000002 0.000000 0.000002 -1.214224
    13 15.997000 -0.000002 0.000004 -0.208327 -0.007940 -0.155570
    14 1.885322 0.833272 -2.177875 -1.101246 0.431033 0.584304
    15 1.506972 -0.000002 0.000003 0.000001 0.000002 -0.307167
    16 0.798345 -0.000004 -0.000001 -0.000001 0.000000 -0.280986
    17 3.950300 -0.539875 -2.108870 -0.018073 -0.074638 0.227590
    18 1.545803 0.000003 0.000002 0.000010 0.000000 1.200743
    19 1.667393 -0.000001 -0.000003 -0.000003 0.000000 1.165836
    20 3.899459 -0.475376 -1.170893 -0.056821 -0.237771 0.233769
    21 1.528214 0.000004 0.000004 0.000009 0.000003 1.061116
    22 1.528211 0.000002 -0.000002 0.000005 0.000002 1.209469
    23 3.899455 -0.431806 0.168226 -0.072905 -0.302248 0.238121
    24 1.506963 -0.000001 0.000002 0.000004 -0.000002 1.157109
    25 1.506963 0.000003 -0.000002 0.000008 0.000002 1.069843
    26 3.915632 -0.278020 1.402614 -0.072042 -0.298857 0.237856
    27 1.333081 -0.000001 -0.000005 0.000006 -0.000002 1.366549
    28 1.159210 0.000005 0.000003 0.000010 0.000003 0.947670
  time 17
    0 -13.098893 -12.070911 -24.816700 0.000000 0.000000 -1.570795
    1 0.000000 0.000000 0.000000 0.000000 -1.570451 -1.570799
    2 4.443612 -0.009642 0.000005 -0.000004 -0.000004 0.000790
    3 12.111174 -0.011366 -0.000420 0.000000 0.000000 0.000000
    4 -0.000511 0.011447 -1.352377 -0.000014 1.370793 3.140788
    5 6.078088 -0.000001 0.000005 1.261218 -0.234169 -1.478463
    6 13.446749 -0.000001 0.000000 0.000003 0.000009 -0.369270
    7 15.996995 0.000005 -0.000001 1.784661 -0.000005 -0.000006
    8 -2.696839 7.324288 -1.920921 0.018589 0.011442 1.586441
    9 35.019154 7.488256 -2.079837 1.582240 -0.018573 -3.126158
    10 0.000004 0.011442 1.352403 -0.000013 -1.370808 3.140804
    11 6.078088 0.000001 -0.000001 -0.856659 0.801285 -1.113456
    12 13.446754 -0.000002 -0.000002 0.000000 0.000002 -1.221106
    13 15.997000 -0.000002 0.000004 -0.203811 -0.005520 -0.155186
    14 1.885322 0.833272 -2.177875 -1.101246 0.431033 0.584304
    15 1.506972 -0.000002 0.000003 0.000001 0.000002 -0.307167
    16 0.798345 -0.000004 -0.000001 -0.000001 0.000000 -0.280986
    17 3.950300 -0.539875 -2.108870 -0.018073 -0.074638 0.227590
    18 1.545803 0.000003 0.000002 0.000010 0.000000 1.200743
    19 1.667393 -0.000001 -0.000003 -0.000003 0.000000 1.165836
    20 3.899459 -0.475376 -1.170893 -0.056821 -0.237771 0.233769
    21 1.528214 0.000004 0.000004 0.000009 0.000003 1.061116
    22 1.528211 0.000002 -0.000002 0.000005 0.000002 1.209469
    23 3.899455 -0.431806 0.168226 -0.072905 -0.302248 0.238121
    24 1.506963 -0.000001 0.000002 0.000004 -0.000002 1.157109
    25 1.506963 0.000003 -0.000002 0.000008 0.000002 1.069843
    26 3.915632 -0.278020 1.402614 -0.072042 -0.298857 0.237856
    27 1.333081 -0.000001 -0.000005 0.000006 -0.000002 1.366549
    28 1.159210 0.000005 0.000003 0.000010 0.000003 0.947670
  time 18
    0 -13.098893 -12.070911 -24.816700 0.000000 0.000000 -1.570795
    1 0.000000 0.000000 0.000000 0.000000 -1.570451 -1.570799
    2 4.443612 -0.009642 0.000005 -0.000004 -0.000004 0.000790
    3 12.111174 -0.011366 -0.000420 0.000000 0.000000 0.000000
    4 -0.000511 0.011447 -1.352377 -0.000014 1.370793 3.140788
    5 6.078088 -0.000001 0.000005 1.262920 -0.210601 -1.486169
    6 13.446749 -0.000001 0.000000 0.000003 0.000009 -0.367312
    7 15.996995 0.000005 -0.000001 1.771993 -0.001060 0.008299
    8 -2.696839 7.324288 -1.920921 0.018589 0.011442 1.586441
    9 35.019154 7.488256 -2.079837 1.582240 -0.018573 -3.126158
    10 0.000004 0.011442 1.352403 -0.000013 -1.370808 3.140804
    11 6.078088 0.000001 -0.000001 -0.873093 0.788670 -1.126785
    12 13.446754 -0.000002 -0.000002 0.000000 0.000002 -1.222890
    13 15.997000 -0.000002 0.000004 -0.211669 -0.008224 -0.152166
    14 1.885322 0.833272 -2.177875 -1.101246 0.431033 0.584304
    15 1.506972 -0.000002 0.000003 0.000001 0.000002 -0.307167
    16 0.798345 -0.000004 -0.000001 -0.000001 0.000000 -0.280986
    17 3.950300 -0.539875 -2.108870 -0.018073 -0.074638 0.227590
    18 1.545803 0.000003 0.000002 0.000010 0.000000 1.200743
    19 1.667393 -0.000001 -0.000003 -0.000003 0.000000 1.165836
    20 3.899459 -0.475376 -1.170893 -0.056821 -0.237771 0.233769
    21 1.528214 0.000004 0.000004 0.000009 0.000003 1.061116
    22 1.528211 0.000002 -0.000002 0.000005 0.000002 1.209469
    23 3.899455 -0.431806 0.168226 -0.072905 -0.302248 0.238121
    24 1.506963 -0.000001 0.000002 0.000004 -0.000002 1.157109
    25 1.506963 0.000003 -0.000002 0.000008 0.000002 1.069843
    26 3.915632 -0.278020 1.402614 -0.072042 -0.298857 0.237856
    27 1.333081 -0.000001 -0.000005 0.000006 -0.000002 1.366549
    28 1.159210 0.000005 0.000003 0.000010 0.000003 0.947670
  time 19
    0 -13.098893 -12.070911 -24.816700 0.000000 0.000000 -1.570795
    1 0.000000 0.000000 0.000000 0.000000 -1.570451 -1.570799
    2 4.443612 -0.009642 0.000005 -0.000004 -0.000004 0.000790
    3 12.111174 -0.011366 -0.000420 0.000000 0.000000 0.000000
    4 -0.000511 0.011447 -1.352377 -0.000014 1.370793 3.140788
    5 6.078088 -0.000001 0.000005 1.264334 -0.188642 -1.493288
    6 13.446749 -0.000001 0.000000 0.000003 0.000009 -0.350457
    7 15.996995 0.000005 -0.000001 1.743997 -0.002702 0.023783
    8 -2.696839 7.324288 -1.920921 0.018589 0.011442 1.586441
    9 35.019154 7.488256 -2.079837 1.582240 -0.018573 -3.126158
    10 0.000004 0.011442 1.352403 -0.000013 -1.370808 3.140804
    11 6.078088 0.000001 -0.000001 -0.877843 0.785812 -1.134629
    12 13.446754 -0.000002 -0.000002 0.000000 0.000002 -1.218090
    13 15.997000 -0.000002 0.000004 -0.237002 -0.018273 -0.144928
    14 1.885322 0.833272 -2.177875 -1.101246 0.431033 0.584304
    15 1.506972 -0.000002 0.000003 0.000001 0.000002 -0.307167
    16 0.798345 -0.000004 -0.000001 -0.000001 0.000000 -0.280986
    17 3.950300 -0.539875 -2.108870 -0.018073 -0.074638 0.227590
    18 1.545803 0.000003 0.000002 0.000010 0.000000 1.200743
    19 1.667393 -0.000001 -0.000003 -0.000003 0.000000 1.165836
    20 3.899459 -0.475376 -1.170893 -0.056821 -0.237771 0.233769
    21 1.528214 0.000004 0.000004 0.000009 0.000003 1.061116
    22 1.528211 0.000002 -0.000002 0.000005 0.000002 1.209469
    23 3.899455 -0.431806 0.168226 -0.072905 -0.302248 0.238121
    24 1.506963 -0.000001 0.000002 0.000004 -0.000002 1.157109
    25 1.506963 0.000003 -0.000002 0.000008 0.000002 1.069843
    26 3.915632 -0.278020 1.402614 -0.072042 -0.298857 0.237856
    27 1.333081 -0.000001 -0.000005 0.000006 -0.000002 1.366549
    28 1.159210 0.000005 0.000003 0.000010 0.000003 0.947670
  time 20
    0 -13.098893 -12.070911 -24.816700 0.000000 0.000000 -1.570795
    1 0.000000 0.000000 0.000000 0.000000 -1.570451 -1.570799
    2 4.443612 -0.009642 0.000005 -0.000004 -0.000004 0.000790
    3 12.111174 -0.011366 -0.000420 0.000000 0.000000 0.000000
    4 -0.000511 0.011447 -1.352377 -0.000014 1.370793 3.140788
    5 6.078088 -0.000001 0.000005 1.265484 -0.168252 -1.499820
    6 13.446749 -0.000001 0.000000 0.000003 0.000009 -0.323670
    7 15.996995 0.000005 -0.000001 1.707888 -0.004080 0.042599
    8 -2.696839 7.324288 -1.920921 0.018589 0.011442 1.586441
    9 35.019154 7.488256 -2.079837 1.582240 -0.018573 -3.126158
    10 0.000004 0.011442 1.352403 -0.000013 -1.370808 3.140804
    11 6.078088 0.000001 -0.000001 -0.874894 0.789960 -1.138656
    12 13.446754 -0.000002 -0.000002 0.000000 0.000002 -1.210656
    13 15.997000 -0.000002 0.000004 -0.271999 -0.032129 -0.133986
    14 1.885322 0.833272 -2.177875 -1.101246 0.431033 0.584304
    15 1.506972 -0.000002 0.000003 0.000001 0.000002 -0.307167
    16 0.798345 -0.000004 -0.000001 -0.000001 0.000000 -0.280986
    17 3.950300 -0.539875 -2.108870 -0.018073 -0.074638 0.227590
    18 1.545803 0.000003 0.000002 0.000010 0.000000 1.200743
    19 1.667393 -0.000001 -0.000003 -0.000003 0.000000 1.165836
    20 3.899459 -0.475376 -1.170893 -0.056821 -0.237771 0.233769
    21 1.528214 0.000004 0.000004 0.000009 0.000003 1.061116
    22 1.528211 0.000002 -0.000002 0.000005 0.000002 1.209469
    23 3.899455 -0.431806 0.168226 -0.072905 -0.302248 0.238121
    24 1.506963 -0.000001 0.000002 0.000004 -0.000002 1.157109
    25 1.506963 0.000003 -0.000002 0.000008 0.000002 1.069843
    26 3.915632 -0.278020 1.402614 -0.072042 -0.298857 0.237856
    27 1.333081 -0.000001 -0.000005 0.000006 -0.000002 1.366549
    28 1.159210 0.000005 0.000003 0.000010 0.000003 0.947670
  time 21
    0 -13.098893 -12.070911 -24.816700 0.000000 0.000000 -1.570795
    1 0.000000 0.000000 0.000000 0.000000 -1.570451 -1.570799
    2 4.443612 -0.009642 0.000005 -0.000004 -0.000004 0.000790
    3 12.111174 -0.011366 -0.000420 0.000000 0.000000 0.000000
    4 -0.000511 0.011447 -1.352377 -0.000014 1.370793 3.140788
    5 6.078088 -0.000001 0.000005 1.266431 -0.149490 -1.505800
    6 13.446749 -0.000001 0.000000 0.000003 0.000009 -0.291822
    7 15.996995 0.000005 -0.000001 1.670915 -0.004691 0.060876
    8 -2.696839 7.324288 -1.920921 0.018589 0.011442 1.586441
    9 35.019154 7.488256 -2.079837 1.582240 -0.018573 -3.126158
    10 0.000004 0.011442 1.352403 -0.000013 -1.370808 3.140804
    11 6.078088 0.000001 -0.000001 -0.868075 0.798044 -1.140252
    12 13.446754 -0.000002 -0.000002 0.000000 0.000002 -1.203943
    13 15.997000 -0.000002 0.000004 -0.308893 -0.046319 -0.120491
    14 1.885322 0.833272 -2.177875 -1.101246 0.431033 0.584304
    15 1.506972 -0.000002 0.000003 0.000001 0.000002 -0.307167
    16 0.798345 -0.000004 -0.000001 -0.000001 0.000000 -0.280986
    17 3.950300 -0.539875 -2.108870 -0.018073 -0.074638 0.227590
    18 1.545803 0.000003 0.000002 0.000010 0.000000 1.200743
    19 1.667393 -0.000001 -0.000003 -0.000003 0.000000 1.165836
    20 3.899459 -0.475376 -1.170893 -0.056821 -0.237771 0.233769
    21 1.528214 0.000004 0.000004 0.000009 0.000003 1.061116
    22 1.528211 0.000002 -0.000002 0.000005 0.000002 1.209469
    23 3.899455 -0.431806 0.168226 -0.072905 -0.302248 0.238121
    24 1.506963 -0.000001 0.000002 0.000004 -0.000002 1.157109
    25 1.506963 0.000003 -0.000002 0.000008 0.000002 1.069843
    26 3.915632 -0.278020 1.402614 -0.072042 -0.298857 0.237856
    27 1.333081 -0.000001 -0.000005 0.000006 -0.000002 1.366549
    28 1.159210 0.000005 0.000003 0.000010 0.000003 0.947670
  time 22
    0 -13.098893 -12.070911 -24.816700 0.000000 0.000000 -1.570795
    1 0.000000 0.000000 0.000000 0.000000 -1.570451 -1.570799
    2 4.443612 -0.009642 0.000005 -0.000004 -0.000004 0.000790
    3 12.111174 -0.011366 -0.000420 0.000000 0.000000 0.000000
    4 -0.000511 0.011447 -1.352377 -0.000014 1.370793 3.140788
    5 6.078088 -0.000001 0.000005 1.267198 -0.132393 -1.511217
    6 13.446749 -0.000001 0.000000 0.000003 0.000009 -0.259878
    7 15.996995 0.000005 -0.000001 1.640283 -0.004619 0.074694
    8 -2.696839 7.324288 -1.920921 0.018589 0.011442 1.586441
    9 35.019154 7.488256 -2.079837 1.582240 -0.018573 -3.126158
    10 0.000004 0.011442 1.352403 -0.000013 -1.370808 3.140804
    11 6.078088 0.000001 -0.000001 -0.861448 0.806164 -1.140877
    12 13.446754 -0.000002 -0.000002 0.000000 0.000002 -1.199610
    13 15.997000 -0.000002 0.000004 -0.339961 -0.057503 -0.106781
    14 1.885322 0.833272 -2.177875 -1.101246 0.431033 0.584304
    15 1.506972 -0.000002 0.000003 0.000001 0.000002 -0.307167
    16 0.798345 -0.000004 -0.000001 -0.000001 0.000000 -0.280986
    17 3.950300 -0.539875 -2.108870 -0.018073 -0.074638 0.227590
    18 1.545803 0.000003 0.000002 0.000010 0.000000 1.200743
    19 1.667393 -0.000001 -0.000003 -0.000003 0.000000 1.165836
    20 3.899459 -0.475376 -1.170893 -0.056821 -0.237771 0.233769
    21 1.528214 0.000004 0.000004 0.000009 0.000003 1.061116
    22 1.528211 0.000002 -0.000002 0.000005 0.000002 1.209469
    23 3.899455 -0.431806 0.168226 -0.072905 -0.302248 0.238121
    24 1.506963 -0.000001 0.000002 0.000004 -0.000002 1.157109
    25 1.506963 0.000003 -0.000002 0.000008 0.000002 1.069843
    26 3.915632 -0.278020 1.402614 -0.072042 -0.298857 0.237856
    27 1.333081 -0.000001 -0.000005 0.000006 -0.000002 1.366549
    28 1.159210 0.000005 0.000003 0.000010 0.000003 0.947670
  time 23
    0 -13.098893 -12.070911 -24.816700 0.000000 0.000000 -1.570795
    1 0.000000 0.000000 0.000000 0.000000 -1.570451 -1.570799
    2 4.443612 -0.009642 0.000005 -0.000004 -0.000004 0.000790
    3 12.111174 -0.011366 -0.000420 0.000000 0.000000 0.000000
    4 -0.000511 0.011447 -1.352377 -0.000014 1.370793 3.140788
    5 6.078088 -0.000001 0.000005 1.267797 -0.116981 -1.516083
    6 13.446749 -0.000001 0.000000 0.000003 0.000009 -0.232733
    7 15.996995 0.000005 -0.000001 1.623276 -0.004272 0.080159
    8 -2.696839 7.324288 -1.920921 0.018589 0.011442 1.586441
    9 35.019154 7.488256 -2.079837 1.582240 -0.018573 -3.126158
    10 0.000004 0.011442 1.352403 -0.000013 -1.370808 3.140804
    11 6.078088 0.000001 -0.000001 -0.859149 0.809649 -1.142300
    12 13.446754 -0.000002 -0.000002 0.000000 0.000002 -1.197826
    13 15.997000 -0.000002 0.000004 -0.357482 -0.062545 -0.096306
    14 1.885322 0.833272 -2.177875 -1.101246 0.431033 0.584304
    15 1.506972 -0.000002 0.000003 0.000001 0.000002 -0.307167
    16 0.798345 -0.000004 -0.000001 -0.000001 0.000000 -0.280986
    17 3.950300 -0.539875 -2.108870 -0.018073 -0.074638 0.227590
    18 1.545803 0.000003 0.000002 0.000010 0.000000 1.200743
    19 1.667393 -0.000001 -0.000003 -0.000003 0.000000 1.165836
    20 3.899459 -0.475376 -1.170893 -0.056821 -0.237771 0.233769
    21 1.528214 0.000004 0.000004 0.000009 0.000003 1.061116
    22 1.528211 0.000002 -0.000002 0.000005 0.000002 1.209469
    23 3.899455 -0.431806 0.168226 -0.072905 -0.302248 0.238121
    24 1.506963 -0.000001 0.000002 0.000004 -0.000002 1.157109
    25 1.506963 0.000003 -0.000002 0.000008 0.000002 1.069843
    26 3.915632 -0.278020 1.402614 -0.072042 -0.298857 0.237856
    27 1.333081 -0.000001 -0.000005 0.000006 -0.000002 1.366549
    28 1.159210 0.000005 0.000003 0.000010 0.000003 0.947670
  time 24
    0 -13.098893 -12.070911 -24.816700 0.000000 0.000000 -1.570795
    1 0.000000 0.000000 0.000000 0.000000 -1.570451 -1.570799
    2 4.443612 -0.009642 0.000005 -0.000004 -0.000004 0.000790
    3 12.111174 -0.011366 -0.000420 0.000000 0.000000 0.000000
    4 -0.000511 0.011447 -1.352377 -0.000014 1.370793 3.140788
    5 6.078088 -0.000001 0.000005 1.268265 -0.103541 -1.520314
    6 13.446749 -0.000001 0.000000 0.000003 0.000009 -0.209575
    7 15.996995 0.000005 -0.000001 1.619849 -0.003972 0.077115
    8 -2.696839 7.324288 -1.920921 0.018589 0.011442 1.586441
    9 35.019154 7.488256 -2.079837 1.582240 -0.018573 -3.126158
    10 0.000004 0.011442 1.352403 -0.000013 -1.370808 3.140804
    11 6.078088 0.000001 -0.000001 -0.860950 0.808360 -1.144383
    12 13.446754 -0.000002 -0.000002 0.000000 0.000002 -1.196977
    13 15.997000 -0.000002 0.000004 -0.361817 -0.061543 -0.089823
    14 1.885322 0.833272 -2.177875 -1.101246 0.431033 0.584304
    15 1.506972 -0.000002 0.000003 0.000001 0.000002 -0.307167
    16 0.798345 -0.000004 -0.000001 -0.000001 0.000000 -0.280986
    17 3.950300 -0.539875 -2.108870 -0.018073 -0.074638 0.227590
    18 1.545803 0.000003 0.000002 0.000010 0.000000 1.200743
    19 1.667393 -0.000001 -0.000003 -0.000003 0.000000 1.165836
    20 3.899459 -0.475376 -1.170893 -0.056821 -0.237771 0.233769
    21 1.528214 0.000004 0.000004 0.000009 0.000003 1.061116
    22 1.528211 0.000002 -0.000002 0.000005 0.000002 1.209469
    23 3.899455 -0.431806 0.168226 -0.072905 -0.302248 0.238121
    24 1.506963 -0.000001 0.000002 0.000004 -0.000002 1.157109
    25 1.506963 0.000003 -0.000002 0.000008 0.000002 1.069865
    26 3.915632 -0.278020 1.402614 -0.072042 -0.298857 0.237856
    27 1.333081 -0.000001 -0.000005 0.000006 -0.000002 1.366549
    28 1.159210 0.000005 0.000003 0.000010 0.000003 0.947670
  time 25
    0 -13.098893 -12.070911 -24.816700 0.000000 0.000000 -1.570795
    1 0.000000 0.000000 0.000000 0.000000 -1.570451 -1.570799
    2 4.443612 -0.009642 0.000005 -0.000004 -0.000004 0.000790
    3 12.111174 -0.011366 -0.000420 0.000000 0.000000 0.000000
    4 -0.000511 0.011447 -1.352377 -0.000014 1.370793 3.140788
    5 6.078088 -0.000001 0.000005 1.268612 -0.092016 -1.523921
    6 13.446749 -0.000001 0.000000 0.000003 0.000009 -0.186274
    7 15.996995 0.000005 -0.000001 1.623780 -0.003684 0.068929
    8 -2.696839 7.324288 -1.920921 0.018589 0.011442 1.586441
    9 35.019154 7.488256 -2.079837 1.582240 -0.018573 -3.126158
    10 0.000004 0.011442 1.352403 -0.000013 -1.370808 3.140804
    11 6.078088 0.000001 -0.000001 -0.863286 0.805746 -1.145667
    12 13.446754 -0.000002 -0.000002 0.000000 0.000002 -1.196084
    13 15.997000 -0.000002 0.000004 -0.359514 -0.057286 -0.085196
    14 1.885322 0.833272 -2.177875 -1.101246 0.431033 0.584304
    15 1.506972 -0.000002 0.000003 0.000001 0.000002 -0.307167
    16 0.798345 -0.000004 -0.000001 -0.000001 0.000000 -0.280986
    17 3.950300 -0.539875 -2.108870 -0.018073 -0.074638 0.227590
    18 1.545803 0.000003 0.000002 0.000010 0.000000 1.200743
    19 1.667393 -0.000001 -0.000003 -0.000003 0.000000 1.165836
    20 3.899459 -0.475376 -1.170893 -0.056821 -0.237771 0.233769
    21 1.528214 0.000004 0.000004 0.000009 0.000003 1.061116
    22 1.528211 0.000002 -0.000002 0.000005 0.000002 1.209469
    23 3.899455 -0.431806 0.168226 -0.072905 -0.302248 0.238121
    24 1.506963 -0.000001 0.000002 0.000004 -0.000002 1.157109
    25 1.506963 0.000003 -0.000002 0.000008 0.000002 1.069843
    26 3.915632 -0.278020 1.402614 -0.072042 -0.298857 0.237856
    27 1.333081 -0.000001 -0.000005 0.000006 -0.000002 1.366549
    28 1.159210 0.000005 0.000003 0.000010 0.000003 0.947670
  time 26
    0 -13.098893 -12.070911 -24.816700 0.000000 0.000000 -1.570795
    1 0.000000 0.000000 0.000000 0.000000 -1.570451 -1.570799
    2 4.443612 -0.009642 0.000005 -0.000004 -0.000004 0.000790
    3 12.111174 -0.011366 -0.000420 0.000000 0.000000 0.000000
    4 -0.000511 0.011447 -1.352377 -0.000014 1.370793 3.140788
    5 6.078088 -0.000001 0.000005 1.268888 -0.081869 -1.527085
    6 13.446749 -0.000001 0.000000 0.000003 0.000009 -0.162877
    7 15.996995 0.000005 -0.000001 1.633056 -0.003313 0.056993
    8 -2.696839 7.324288 -1.920921 0.018589 0.011442 1.586441
    9 35.019154 7.488256 -2.079837 1.582240 -0.018573 -3.126158
    10 0.000004 0.011442 1.352403 -0.000013 -1.370808 3.140804
    11 6.078088 0.000001 -0.000001 -0.866159 0.802157 -1.146431
    12 13.446754 -0.000002 -0.000002 0.000000 0.000002 -1.194980
    13 15.997000 -0.000002 0.000004 -0.352424 -0.050559 -0.081961
    14 1.885322 0.833272 -2.177875 -1.101246 0.431033 0.584304
    15 1.506972 -0.000002 0.000003 0.000001 0.000002 -0.307167
    16 0.798345 -0.000004 -0.000001 -0.000001 0.000000 -0.280986
    17 3.950300 -0.539875 -2.108870 -0.018073 -0.074638 0.227590
    18 1.545803 0.000003 0.000002 0.000010 0.000000 1.200743
    19 1.667393 -0.000001 -0.000003 -0.000003 0.000000 1.165836
    20 3.899459 -0.475376 -1.170893 -0.056821 -0.237771 0.233769
    21 1.528214 0.000004 0.000004 0.000009 0.000003 1.061116
    22 1.528211 0.000002 -0.000002 0.000005 0.000002 1.209469
    23 3.899455 -0.431806 0.168226 -0.072905 -0.302248 0.238121
    24 1.506963 -0.000001 0.000002 0.000004 -0.000002 1.157109
    25 1.506963 0.000003 -0.000002 0.000008 0.000002 1.069843
    26 3.915632 -0.278020 1.402614 -0.072042 -0.298857 0.237856
    27 1.333081 -0.000001 -0.000005 0.000006 -0.000002 1.366549
    28 1.159210 0.000005 0.000003 0.000010 0.000003 0.947670
  time 27
    0 -13.098893 -12.070911 -24.816700 0.000000 0.000000 -1.570795
    1 0.000000 0.000000 0.000000 0.000000 -1.570451 -1.570799
    2 4.443612 -0.009642 0.000005 -0.000004 -0.000004 0.000790
    3 12.111174 -0.011366 -0.000420 0.000000 0.000000 0.000000
    4 -0.000511 0.011447 -1.352377 -0.000014 1.370793 3.140788
    5 6.078088 -0.000001 0.000005 1.269116 -0.072622 -1.529973
    6 13.446749 -0.000001 0.000000 0.000003 0.000009 -0.139433
    7 15.996995 0.000005 -0.000001 1.645676 -0.002749 0.042731
    8 -2.696839 7.324288 -1.920921 0.018589 0.011442 1.586441
    9 35.019154 7.488256 -2.079837 1.582240 -0.018573 -3.126158
    10 0.000004 0.011442 1.352403 -0.000013 -1.370808 3.140804
    11 6.078088 0.000001 -0.000001 -0.869301 0.797940 -1.146951
    12 13.446754 -0.000002 -0.000002 0.000000 0.000002 -1.193790
    13 15.997000 -0.000002 0.000004 -0.342354 -0.042212 -0.079588
    14 1.885322 0.833272 -2.177875 -1.101246 0.431033 0.584304
    15 1.506972 -0.000002 0.000003 0.000001 0.000002 -0.307167
    16 0.798345 -0.000004 -0.000001 -0.000001 0.000000 -0.280986
    17 3.950300 -0.539875 -2.108870 -0.018073 -0.074638 0.227590
    18 1.545803 0.000003 0.000002 0.000010 0.000000 1.200743
    19 1.667393 -0.000001 -0.000003 -0.000003 0.000000 1.165836
    20 3.899459 -0.475376 -1.170893 -0.056821 -0.237771 0.233769
    21 1.528214 0.000004 0.000004 0.000009 0.000003 1.061116
    22 1.528211 0.000002 -0.000002 0.000005 0.000002 1.209469
    23 3.899455 -0.431806 0.168226 -0.072905 -0.302248 0.238121
    24 1.506963 -0.000001 0.000002 0.000004 -0.000002 1.157109
    25 1.506963 0.000003 -0.000002 0.000008 0.000002 1.069843
    26 3.915632 -0.278020 1.402614 -0.072042 -0.298857 0.237856
    27 1.333081 -0.000001 -0.000005 0.000006 -0.000002 1.366549
    28 1.159210 0.000005 0.000003 0.000010 0.000003 0.947670
  time 28
    0 -13.098893 -12.070911 -24.816700 0.000000 0.000000 -1.570795
    1 0.000000 0.000000 0.000000 0.000000 -1.570451 -1.570799
    2 4.443612 -0.009642 0.000005 -0.000004 -0.000004 0.000790
    3 12.111174 -0.011366 -0.000420 0.000000 0.000000 0.000000
    4 -0.000511 0.011447 -1.352377 -0.000014 1.370793 3.140788
    5 6.078088 -0.000001 0.000005 1.269307 -0.063700 -1.532754
    6 13.446749 -0.000001 0.000000 0.000003 0.000009 -0.115964
    7 15.996995 0.000005 -0.000001 1.659614 -0.001959 0.027535
    8 -2.696839 7.324288 -1.920921 0.018589 0.011442 1.586441
    9 35.019154 7.488256 -2.079837 1.582240 -0.018573 -3.126158
    10 0.000004 0.011442 1.352403 -0.000013 -1.370808 3.140804
    11 6.078088 0.000001 -0.000001 -0.872595 0.793549 -1.147402
    12 13.446754 -0.000002 -0.000002 0.000000 0.000002 -1.192601
    13 15.997000 -0.000002 0.000004 -0.331065 -0.033114 -0.077514
    14 1.885322 0.833272 -2.177875 -1.101246 0.431033 0.584304
    15 1.506972 -0.000002 0.000003 0.000001 0.000002 -0.307167
    16 0.798345 -0.000004 -0.000001 -0.000001 0.000000 -0.280986
    17 3.950300 -0.539875 -2.108870 -0.018073 -0.074638 0.227590
    18 1.545803 0.000003 0.000002 0.000010 0.000000 1.200743
    19 1.667393 -0.000001 -0.000003 -0.000003 0.000000 1.165836
    20 3.899459 -0.475376 -1.170893 -0.056821 -0.237771 0.233769
    21 1.528214 0.000004 0.000004 0.000009 0.000003 1.061116
    22 1.528211 0.000002 -0.000002 0.000005 0.000002 1.209469
    23 3.899455 -0.431806 0.168226 -0.072905 -0.302248 0.238121
    24 1.506963 -0.000001 0.000002 0.000004 -0.000002 1.157109
    25 1.506963 0.000003 -0.000002 0.000008 0.000002 1.069843
    26 3.915632 -0.278020 1.402614 -0.072042 -0.298857 0.237856
    27 1.333081 -0.000001 -0.000005 0.000006 -0.000002 1.366549
    28 1.159210 0.000005 0.000003 0.000010 0.000003 0.947670
  time 29
    0 -13.098893 -12.070911 -24.816700 0.000000 0.000000 -1.570795
    1 0.000000 0.000000 0.000000 0.000000 -1.570451 -1.570799
    2 4.443612 -0.009642 0.000005 -0.000004 -0.000004 0.000790
    3 12.111174 -0.011366 -0.000420 0.000000 0.000000 0.000000
    4 -0.000511 0.011447 -1.352377 -0.000014 1.370793 3.140788
    5 6.078088 -0.000001 0.000005 1.269475 -0.054625 -1.535594
    6 13.446749 -0.000001 0.000000 0.000003 0.000009 -0.092496
    7 15.996995 0.000005 -0.000001 1.672881 -0.000988 0.012818
    8 -2.696839 7.324288 -1.920921 0.018589 0.011442 1.586441
    9 35.019154 7.488256 -2.079837 1.582240 -0.018573 -3.126158
    10 0.000004 0.011442 1.352403 -0.000013 -1.370808 3.140804
    11 6.078088 0.000001 -0.000001 -0.875775 0.789332 -1.147854
    12 13.446754 -0.000002 -0.000002 0.000000 0.000002 -1.191666
    13 15.997000 -0.000002 0.000004 -0.320408 -0.024183 -0.075177
    14 1.885322 0.833272 -2.177875 -1.101246 0.431033 0.584304
    15 1.506972 -0.000002 0.000003 0.000001 0.000002 -0.307167
    16 0.798345 -0.000004 -0.000001 -0.000001 0.000000 -0.280986
    17 3.950300 -0.539875 -2.108870 -0.018073 -0.074638 0.227590
    18 1.545803 0.000003 0.000002 0.000010 0.000000 1.200743
    19 1.667393 -0.000001 -0.000003 -0.000003 0.000000 1.165836
    20 3.899459 -0.475376 -1.170893 -0.056821 -0.237771 0.233769
    21 1.528214 0.000004 0.000004 0.000009 0.000003 1.061116
    22 1.528211 0.000002 -0.000002 0.000005 0.000002 1.209469
    23 3.899455 -0.431806 0.168226 -0.072905 -0.302248 0.238121
    24 1.506963 -0.000001 0.000002 0.000004 -0.000002 1.157109
    25 1.506963 0.000003 -0.000002 0.000008 0.000002 1.069843
    26 3.915632 -0.278020 1.402614 -0.072042 -0.298857 0.237856
    27 1.333081 -0.000001 -0.000005 0.000006 -0.000002 1.366549
    28 1.159210 0.000005 0.000003 0.000010 0.000003 0.947670
  time 30
    0 -13.098893 -12.070911 -24.816700 0.000000 0.000000 -1.570795
    1 0.000000 0.000000 0.000000 0.000000 -1.570451 -1.570799
    2 4.443612 -0.009642 0.000005 -0.000004 -0.000004 0.000790
    3 12.111174 -0.011366 -0.000420 0.000000 0.000000 0.000000
    4 -0.000511 0.011447 -1.352377 -0.000014 1.370793 3.140788
    5 6.078088 -0.000001 0.000005 1.269619 -0.044842 -1.538626
    6 13.446749 -0.000001 0.000000 0.000003 0.000009 -0.069099
    7 15.996995 0.000005 -0.000001 1.683439 -0.000005 -0.000006
    8 -2.696839 7.324288 -1.920921 0.018589 0.011442 1.586441
    9 35.019154 7.488256 -2.079837 1.582240 -0.018573 -3.126158
    10 0.000004 0.011442 1.352403 -0.000013 -1.370808 3.140804
    11 6.078088 0.000001 -0.000001 -0.878533 0.785847 -1.148340
    12 13.446754 -0.000002 -0.000002 0.000000 0.000002 -1.191199
    13 15.997000 -0.000002 0.000004 -0.312144 -0.016437 -0.072013
    14 1.885322 0.833272 -2.177875 -1.101246 0.431033 0.584304
    15 1.506972 -0.000002 0.000003 0.000001 0.000002 -0.307167
    16 0.798345 -0.000004 -0.000001 -0.000001 0.000000 -0.280986
    17 3.950300 -0.539875 -2.108870 -0.018073 -0.074638 0.227590
    18 1.545803 0.000003 0.000002 0.000010 0.000000 1.200743
    19 1.667393 -0.000001 -0.000003 -0.000003 0.000000 1.165836
    20 3.899459 -0.475376 -1.170893 -0.056821 -0.237771 0.233769
    21 1.528214 0.000004 0.000004 0.000009 0.000003 1.061116
    22 1.528211 0.000002 -0.000002 0.000005 0.000002 1.209469
    23 3.899455 -0.431806 0.168226 -0.072905 -0.302248 0.238121
    24 1.506963 -0.000001 0.000002 0.000004 -0.000002 1.157109
    25 1.506963 0.000003 -0.000002 0.000008 0.000002 1.069843
    26 3.915632 -0.278020 1.402614 -0.072042 -0.298857 0.237856
    27 1.333081 -0.000001 -0.000005 0.000006 -0.000002 1.366549
    28 1.159210 0.000005 0.000003 0.000010 0.000003 0.947670
end
