// Created by Crowbar 0.74
version 1
nodes
  0 "Bip01" -1
  1 "Bip01 Pelvis" 0
  2 "Bip01 Spine" 1
  3 "Bip01 Neck" 2
  4 "Bip01 R Clavicle" 3
  5 "Bip01 R UpperArm" 4
  6 "Bip01 R Forearm" 5
  7 "Bip01 R Hand" 6
  8 "Dummy14" 7
  9 "muzzle" 7
  10 "Bip01 L Clavicle" 3
  11 "Bip01 L UpperArm" 10
  12 "Bip01 L Forearm" 11
  13 "Bip01 L Hand" 12
  14 "Bip01 L Finger0" 13
  15 "Bip01 L Finger01" 14
  16 "Bip01 L Finger02" 15
  17 "Bip01 L Finger1" 13
  18 "Bip01 L Finger11" 17
  19 "Bip01 L Finger12" 18
  20 "Bip01 L Finger2" 13
  21 "Bip01 L Finger21" 20
  22 "Bip01 L Finger22" 21
  23 "Bip01 L Finger3" 13
  24 "Bip01 L Finger31" 23
  25 "Bip01 L Finger32" 24
  26 "Bip01 L Finger4" 13
  27 "Bip01 L Finger41" 26
  28 "Bip01 L Finger42" 27
end
skeleton
  time 0
    0 -13.098893 -12.070911 -24.816700 0.000000 0.000000 -1.570795
    1 0.000000 0.000000 0.000000 0.000000 -1.570451 -1.570799
    2 4.443612 -0.009642 0.000005 -0.000004 -0.000004 0.000790
    3 12.111174 -0.011366 -0.000420 0.000000 0.000000 0.000000
    4 -0.000511 0.011447 -1.352377 -0.000014 1.370793 3.140788
    5 6.078088 -0.000001 0.000005 1.269619 -0.044842 -1.538626
    6 13.446753 0.000000 0.000000 0.000003 0.000009 -0.069099
    7 15.996999 -0.000002 -0.000002 1.683439 -0.000005 -0.000006
    8 -2.696840 7.324290 -1.920924 0.018589 0.011442 1.586441
    9 35.019169 7.488255 -2.079839 1.582240 -0.018573 -3.126158
    10 0.000004 0.011442 1.352403 -0.000013 -1.370808 3.140804
    11 6.078089 0.000000 0.000000 -0.184164 0.430946 -0.896832
    12 13.446749 -0.000002 -0.000003 0.000000 0.000002 -1.191199
    13 15.996999 0.000007 0.000000 -0.901946 -0.381925 0.050062
    14 1.885325 0.833274 -2.177875 -1.101246 0.431033 0.584304
    15 1.506970 0.000001 -0.000001 0.000001 0.000002 -0.307167
    16 0.798343 0.000001 0.000005 -0.000001 0.000000 -0.280986
    17 3.950300 -0.539874 -2.108870 -0.018073 -0.074638 0.227590
    18 1.545796 -0.000001 0.000003 0.000010 0.000000 1.200743
    19 1.667397 0.000004 -0.000003 -0.000003 0.000000 1.165836
    20 3.899459 -0.475374 -1.170893 -0.056821 -0.237771 0.233769
    21 1.528213 0.000000 0.000003 0.000009 0.000003 1.061116
    22 1.528214 0.000000 0.000000 0.000005 0.000002 1.209469
    23 3.899460 -0.431802 0.168226 -0.072905 -0.302248 0.238121
    24 1.506968 0.000001 0.000000 0.000004 -0.000002 1.157109
    25 1.506964 -0.000001 -0.000001 0.000008 0.000002 1.069843
    26 3.915632 -0.278021 1.402613 -0.072042 -0.298857 0.237856
    27 1.333083 0.000001 -0.000005 0.000006 -0.000002 1.366549
    28 1.159205 0.000006 0.000003 0.000010 0.000003 0.947670
  time 1
    0 -13.098893 -12.070911 -24.816700 0.000000 0.000000 -1.570795
    1 0.000000 0.000000 0.000000 0.000000 -1.570451 -1.570799
    2 4.443612 -0.009642 0.000005 -0.000004 -0.000004 0.000790
    3 12.111174 -0.011366 -0.000420 0.000000 0.000000 0.000000
    4 -0.000511 0.011447 -1.352377 -0.000014 1.370793 3.140788
    5 6.078088 -0.000001 0.000005 1.266827 -0.142004 -1.507826
    6 13.446753 0.000000 0.000000 0.000003 0.000009 -0.255342
    7 15.996999 -0.000002 -0.000002 1.683631 -0.007699 0.068043
    8 -2.696840 7.324290 -1.920924 0.018589 0.011442 1.586441
    9 35.019169 7.488255 -2.079839 1.582240 -0.018573 -3.126158
    10 0.000004 0.011442 1.352403 -0.000013 -1.370808 3.140804
    11 6.078089 0.000000 0.000000 -0.172212 0.439658 -0.878957
    12 13.446749 -0.000002 -0.000003 0.000000 0.000002 -1.219534
    13 15.996999 0.000007 0.000000 -0.890882 -0.404728 0.054915
    14 1.885325 0.833274 -2.177875 -1.101246 0.431033 0.584304
    15 1.506970 0.000001 -0.000001 0.000001 0.000002 -0.307167
    16 0.798343 0.000001 0.000005 -0.000001 0.000000 -0.280986
    17 3.950300 -0.539874 -2.108870 -0.018073 -0.074638 0.227590
    18 1.545796 -0.000001 0.000003 0.000010 0.000000 1.200743
    19 1.667397 0.000004 -0.000003 -0.000003 0.000000 1.165836
    20 3.899459 -0.475374 -1.170893 -0.056821 -0.237771 0.233769
    21 1.528213 0.000000 0.000003 0.000009 0.000003 1.061116
    22 1.528214 0.000000 0.000000 0.000005 0.000002 1.209469
    23 3.899460 -0.431802 0.168226 -0.072905 -0.302248 0.238121
    24 1.506968 0.000001 0.000000 0.000004 -0.000002 1.157109
    25 1.506964 -0.000001 -0.000001 0.000008 0.000002 1.069843
    26 3.915632 -0.278021 1.402613 -0.072042 -0.298857 0.237856
    27 1.333083 0.000001 -0.000005 0.000006 -0.000002 1.366549
    28 1.159205 0.000006 0.000003 0.000010 0.000003 0.947670
  time 2
    0 -13.098893 -12.070911 -24.816700 0.000000 0.000000 -1.570795
    1 0.000000 0.000000 0.000000 0.000000 -1.570451 -1.570799
    2 4.443612 -0.009642 0.000005 -0.000004 -0.000004 0.000790
    3 12.111174 -0.011366 -0.000420 0.000000 0.000000 0.000000
    4 -0.000511 0.011447 -1.352377 -0.000014 1.370793 3.140788
    5 6.078088 -0.000001 0.000005 1.260427 -0.245005 -1.474149
    6 13.446753 0.000000 0.000000 0.000003 0.000009 -0.453116
    7 15.996999 -0.000002 -0.000002 1.683535 -0.015897 0.140429
    8 -2.696840 7.324290 -1.920924 0.018589 0.011442 1.586441
    9 35.019169 7.488255 -2.079839 1.582240 -0.018573 -3.126158
    10 0.000004 0.011442 1.352403 -0.000013 -1.370808 3.140804
    11 6.078089 0.000000 0.000000 -0.148959 0.453319 -0.839943
    12 13.446749 -0.000002 -0.000003 0.000000 0.000002 -1.279603
    13 15.996999 0.000007 0.000000 -0.878012 -0.431137 0.070951
    14 1.885325 0.833274 -2.177875 -1.101246 0.431033 0.584304
    15 1.506970 0.000001 -0.000001 0.000001 0.000002 -0.307167
    16 0.798343 0.000001 0.000005 -0.000001 0.000000 -0.280986
    17 3.950300 -0.539874 -2.108870 -0.018073 -0.074638 0.227590
    18 1.545796 -0.000001 0.000003 0.000010 0.000000 1.200743
    19 1.667397 0.000004 -0.000003 -0.000003 0.000000 1.165836
    20 3.899459 -0.475374 -1.170893 -0.056821 -0.237771 0.233769
    21 1.528213 0.000000 0.000003 0.000009 0.000003 1.061116
    22 1.528214 0.000000 0.000000 0.000005 0.000002 1.209469
    23 3.899460 -0.431802 0.168226 -0.072905 -0.302248 0.238121
    24 1.506968 0.000001 0.000000 0.000004 -0.000002 1.157109
    25 1.506964 -0.000001 -0.000001 0.000008 0.000002 1.069843
    26 3.915632 -0.278021 1.402613 -0.072042 -0.298857 0.237856
    27 1.333083 0.000001 -0.000005 0.000006 -0.000002 1.366549
    28 1.159205 0.000006 0.000003 0.000010 0.000003 0.947670
  time 3
    0 -13.098893 -12.070911 -24.816700 0.000000 0.000000 -1.570795
    1 0.000000 0.000000 0.000000 0.000000 -1.570451 -1.570799
    2 4.443612 -0.009642 0.000005 -0.000004 -0.000004 0.000790
    3 12.111174 -0.011366 -0.000420 0.000000 0.000000 0.000000
    4 -0.000511 0.011447 -1.352377 -0.000014 1.370793 3.140788
    5 6.078088 -0.000001 0.000005 1.251546 -0.335811 -1.442941
    6 13.446753 0.000000 0.000000 0.000003 0.000009 -0.627828
    7 15.996999 -0.000002 -0.000002 1.682468 -0.023087 0.204163
    8 -2.696840 7.324290 -1.920924 0.018589 0.011442 1.586441
    9 35.019169 7.488255 -2.079839 1.582240 -0.018573 -3.126158
    10 0.000004 0.011442 1.352403 -0.000013 -1.370808 3.140804
    11 6.078089 0.000000 0.000000 -0.118887 0.468374 -0.789822
    12 13.446749 -0.000002 -0.000003 0.000000 0.000002 -1.354498
    13 15.996999 0.000007 0.000000 -0.865729 -0.457346 0.091912
    14 1.885325 0.833274 -2.177875 -1.101246 0.431033 0.584304
    15 1.506970 0.000001 -0.000001 0.000001 0.000002 -0.307167
    16 0.798343 0.000001 0.000005 -0.000001 0.000000 -0.280986
    17 3.950300 -0.539874 -2.108870 -0.018073 -0.074638 0.227590
    18 1.545796 -0.000001 0.000003 0.000010 0.000000 1.200743
    19 1.667397 0.000004 -0.000003 -0.000003 0.000000 1.165836
    20 3.899459 -0.475374 -1.170893 -0.056821 -0.237771 0.233769
    21 1.528213 0.000000 0.000003 0.000009 0.000003 1.061116
    22 1.528214 0.000000 0.000000 0.000005 0.000002 1.209469
    23 3.899460 -0.431802 0.168226 -0.072905 -0.302248 0.238121
    24 1.506968 0.000001 0.000000 0.000004 -0.000002 1.157109
    25 1.506964 -0.000001 -0.000001 0.000008 0.000002 1.069843
    26 3.915632 -0.278021 1.402613 -0.072042 -0.298857 0.237856
    27 1.333083 0.000001 -0.000005 0.000006 -0.000002 1.366549
    28 1.159205 0.000006 0.000003 0.000010 0.000003 0.947670
  time 4
    0 -13.098893 -12.070911 -24.816700 0.000000 0.000000 -1.570795
    1 0.000000 0.000000 0.000000 0.000000 -1.570451 -1.570799
    2 4.443612 -0.009642 0.000005 -0.000004 -0.000004 0.000790
    3 12.111174 -0.011366 -0.000420 0.000000 0.000000 0.000000
    4 -0.000511 0.011447 -1.352377 -0.000014 1.370793 3.140788
    5 6.078088 -0.000001 0.000005 1.243708 -0.396558 -1.420925
    6 13.446753 0.000000 0.000000 0.000003 0.000009 -0.744859
    7 15.996999 -0.000002 -0.000002 1.680023 -0.027761 0.246301
    8 -2.696840 7.324290 -1.920924 0.018589 0.011442 1.586441
    9 35.019169 7.488255 -2.079839 1.582240 -0.018573 -3.126158
    10 0.000004 0.011442 1.352403 -0.000013 -1.370808 3.140804
    11 6.078089 0.000000 0.000000 -0.093106 0.479909 -0.749003
    12 13.446749 -0.000002 -0.000003 0.000000 0.000002 -1.413292
    13 15.996999 0.000007 0.000000 -0.857330 -0.477896 0.107216
    14 1.885325 0.833274 -2.177875 -1.101246 0.431033 0.584304
    15 1.506970 0.000001 -0.000001 0.000001 0.000002 -0.307167
    16 0.798343 0.000001 0.000005 -0.000001 0.000000 -0.280986
    17 3.950300 -0.539874 -2.108870 -0.018073 -0.074638 0.227590
    18 1.545796 -0.000001 0.000003 0.000010 0.000000 1.200743
    19 1.667397 0.000004 -0.000003 -0.000003 0.000000 1.165836
    20 3.899459 -0.475374 -1.170893 -0.056821 -0.237771 0.233769
    21 1.528213 0.000000 0.000003 0.000009 0.000003 1.061116
    22 1.528214 0.000000 0.000000 0.000005 0.000002 1.209469
    23 3.899460 -0.431802 0.168226 -0.072905 -0.302248 0.238121
    24 1.506968 0.000001 0.000000 0.000004 -0.000002 1.157109
    25 1.506964 -0.000001 -0.000001 0.000008 0.000002 1.069843
    26 3.915632 -0.278021 1.402613 -0.072042 -0.298857 0.237856
    27 1.333083 0.000001 -0.000005 0.000006 -0.000002 1.366549
    28 1.159205 0.000006 0.000003 0.000010 0.000003 0.947670
  time 5
    0 -13.098893 -12.070911 -24.816700 0.000000 0.000000 -1.570795
    1 0.000000 0.000000 0.000000 0.000000 -1.570451 -1.570799
    2 4.443612 -0.009642 0.000005 -0.000004 -0.000004 0.000790
    3 12.111174 -0.011366 -0.000420 0.000000 0.000000 0.000000
    4 -0.000511 0.011447 -1.352377 -0.000014 1.370793 3.140788
    5 6.078088 -0.000001 0.000005 1.239130 -0.427018 -1.409456
    6 13.446753 0.000000 0.000000 0.000003 0.000009 -0.803351
    7 15.996999 -0.000002 -0.000002 1.676033 -0.029775 0.266879
    8 -2.696840 7.324290 -1.920924 0.018589 0.011442 1.586441
    9 35.019169 7.488255 -2.079839 1.582240 -0.018573 -3.126158
    10 0.000004 0.011442 1.352403 -0.000013 -1.370808 3.140804
    11 6.078089 0.000000 0.000000 -0.077744 0.486948 -0.727240
    12 13.446749 -0.000002 -0.000003 0.000000 0.000002 -1.443029
    13 15.996999 0.000007 0.000000 -0.854214 -0.491117 0.113268
    14 1.885325 0.833274 -2.177875 -1.101246 0.431033 0.584304
    15 1.506970 0.000001 -0.000001 0.000001 0.000002 -0.307167
    16 0.798343 0.000001 0.000005 -0.000001 0.000000 -0.280986
    17 3.950300 -0.539874 -2.108870 -0.018073 -0.074638 0.227590
    18 1.545796 -0.000001 0.000003 0.000010 0.000000 1.200743
    19 1.667397 0.000004 -0.000003 -0.000003 0.000000 1.165836
    20 3.899459 -0.475374 -1.170893 -0.056821 -0.237771 0.233769
    21 1.528213 0.000000 0.000003 0.000009 0.000003 1.061116
    22 1.528214 0.000000 0.000000 0.000005 0.000002 1.209469
    23 3.899460 -0.431802 0.168226 -0.072905 -0.302248 0.238121
    24 1.506968 0.000001 0.000000 0.000004 -0.000002 1.157109
    25 1.506964 -0.000001 -0.000001 0.000008 0.000002 1.069843
    26 3.915632 -0.278021 1.402613 -0.072042 -0.298857 0.237856
    27 1.333083 0.000001 -0.000005 0.000006 -0.000002 1.366549
    28 1.159205 0.000006 0.000003 0.000010 0.000003 0.947670
  time 6
    0 -13.098893 -12.070911 -24.816700 0.000000 0.000000 -1.570795
    1 0.000000 0.000000 0.000000 0.000000 -1.570451 -1.570799
    2 4.443612 -0.009642 0.000005 -0.000004 -0.000004 0.000790
    3 12.111174 -0.011366 -0.000420 0.000000 0.000000 0.000000
    4 -0.000511 0.011447 -1.352377 -0.000014 1.370793 3.140788
    5 6.078088 -0.000001 0.000005 1.236721 -0.441971 -1.403715
    6 13.446753 0.000000 0.000000 0.000003 0.000009 -0.831833
    7 15.996999 -0.000002 -0.000002 1.670999 -0.030350 0.276694
    8 -2.696840 7.324290 -1.920924 0.018589 0.011442 1.586441
    9 35.019169 7.488255 -2.079839 1.582240 -0.018573 -3.126158
    10 0.000004 0.011442 1.352403 -0.000013 -1.370808 3.140804
    11 6.078089 0.000000 0.000000 -0.068934 0.491688 -0.717105
    12 13.446749 -0.000002 -0.000003 0.000000 0.000002 -1.455731
    13 15.996999 0.000007 0.000000 -0.854440 -0.500182 0.114119
    14 1.885325 0.833274 -2.177875 -1.101246 0.431033 0.584304
    15 1.506970 0.000001 -0.000001 0.000001 0.000002 -0.307167
    16 0.798343 0.000001 0.000005 -0.000001 0.000000 -0.280986
    17 3.950300 -0.539874 -2.108870 -0.018073 -0.074638 0.227590
    18 1.545796 -0.000001 0.000003 0.000010 0.000000 1.200743
    19 1.667397 0.000004 -0.000003 -0.000003 0.000000 1.165836
    20 3.899459 -0.475374 -1.170893 -0.056821 -0.237771 0.233769
    21 1.528213 0.000000 0.000003 0.000009 0.000003 1.061116
    22 1.528214 0.000000 0.000000 0.000005 0.000002 1.209469
    23 3.899460 -0.431802 0.168226 -0.072905 -0.302248 0.238121
    24 1.506968 0.000001 0.000000 0.000004 -0.000002 1.157109
    25 1.506964 -0.000001 -0.000001 0.000008 0.000002 1.069843
    26 3.915632 -0.278021 1.402613 -0.072042 -0.298857 0.237856
    27 1.333083 0.000001 -0.000005 0.000006 -0.000002 1.366549
    28 1.159205 0.000006 0.000003 0.000010 0.000003 0.947670
  time 7
    0 -13.098893 -12.070911 -24.816700 0.000000 0.000000 -1.570795
    1 0.000000 0.000000 0.000000 0.000000 -1.570451 -1.570799
    2 4.443612 -0.009642 0.000005 -0.000004 -0.000004 0.000790
    3 12.111174 -0.011366 -0.000420 0.000000 0.000000 0.000000
    4 -0.000511 0.011447 -1.352377 -0.000014 1.370793 3.140788
    5 6.078088 -0.000001 0.000005 1.235990 -0.446374 -1.402026
    6 13.446753 0.000000 0.000000 0.000003 0.000009 -0.839855
    7 15.996999 -0.000002 -0.000002 1.665654 -0.030050 0.278816
    8 -2.696840 7.324290 -1.920924 0.018589 0.011442 1.586441
    9 35.019169 7.488255 -2.079839 1.582240 -0.018573 -3.126158
    10 0.000004 0.011442 1.352403 -0.000013 -1.370808 3.140804
    11 6.078089 0.000000 0.000000 -0.065179 0.494754 -0.715508
    12 13.446749 -0.000002 -0.000003 0.000000 0.000002 -1.456071
    13 15.996999 0.000007 0.000000 -0.856608 -0.506358 0.111303
    14 1.885325 0.833274 -2.177875 -1.101246 0.431033 0.584304
    15 1.506970 0.000001 -0.000001 0.000001 0.000002 -0.307167
    16 0.798343 0.000001 0.000005 -0.000001 0.000000 -0.280986
    17 3.950300 -0.539874 -2.108870 -0.018073 -0.074638 0.227590
    18 1.545796 -0.000001 0.000003 0.000010 0.000000 1.200743
    19 1.667397 0.000004 -0.000003 -0.000003 0.000000 1.165836
    20 3.899459 -0.475374 -1.170893 -0.056821 -0.237771 0.233769
    21 1.528213 0.000000 0.000003 0.000009 0.000003 1.061116
    22 1.528214 0.000000 0.000000 0.000005 0.000002 1.209469
    23 3.899460 -0.431802 0.168226 -0.072905 -0.302248 0.238121
    24 1.506968 0.000001 0.000000 0.000004 -0.000002 1.157109
    25 1.506964 -0.000001 -0.000001 0.000008 0.000002 1.069843
    26 3.915632 -0.278021 1.402613 -0.072042 -0.298857 0.237856
    27 1.333083 0.000001 -0.000005 0.000006 -0.000002 1.366549
    28 1.159205 0.000006 0.000003 0.000010 0.000003 0.947670
  time 8
    0 -13.098893 -12.070911 -24.816700 0.000000 0.000000 -1.570795
    1 0.000000 0.000000 0.000000 0.000000 -1.570451 -1.570799
    2 4.443612 -0.009642 0.000005 -0.000004 -0.000004 0.000790
    3 12.111174 -0.011366 -0.000420 0.000000 0.000000 0.000000
    4 -0.000511 0.011447 -1.352377 -0.000014 1.370793 3.140788
    5 6.078088 -0.000001 0.000005 1.236206 -0.445110 -1.402553
    6 13.446753 0.000000 0.000000 0.000003 0.000009 -0.836799
    7 15.996999 -0.000002 -0.000002 1.660716 -0.029475 0.276311
    8 -2.696840 7.324290 -1.920924 0.018589 0.011442 1.586441
    9 35.019169 7.488255 -2.079839 1.582240 -0.018573 -3.126158
    10 0.000004 0.011442 1.352403 -0.000013 -1.370808 3.140804
    11 6.078089 0.000000 0.000000 -0.064413 0.496776 -0.718563
    12 13.446749 -0.000002 -0.000003 0.000000 0.000002 -1.449911
    13 15.996999 0.000007 0.000000 -0.859182 -0.510982 0.106437
    14 1.885325 0.833274 -2.177875 -1.101246 0.431033 0.584304
    15 1.506970 0.000001 -0.000001 0.000001 0.000002 -0.307167
    16 0.798343 0.000001 0.000005 -0.000001 0.000000 -0.280986
    17 3.950300 -0.539874 -2.108870 -0.018073 -0.074638 0.227590
    18 1.545796 -0.000001 0.000003 0.000010 0.000000 1.200743
    19 1.667397 0.000004 -0.000003 -0.000003 0.000000 1.165836
    20 3.899459 -0.475374 -1.170893 -0.056821 -0.237771 0.233769
    21 1.528213 0.000000 0.000003 0.000009 0.000003 1.061116
    22 1.528214 0.000000 0.000000 0.000005 0.000002 1.209469
    23 3.899460 -0.431802 0.168226 -0.072905 -0.302248 0.238121
    24 1.506968 0.000001 0.000000 0.000004 -0.000002 1.157109
    25 1.506964 -0.000001 -0.000001 0.000008 0.000002 1.069843
    26 3.915632 -0.278021 1.402613 -0.072042 -0.298857 0.237856
    27 1.333083 0.000001 -0.000005 0.000006 -0.000002 1.366549
    28 1.159205 0.000006 0.000003 0.000010 0.000003 0.947670
  time 9
    0 -13.098893 -12.070911 -24.816700 0.000000 0.000000 -1.570795
    1 0.000000 0.000000 0.000000 0.000000 -1.570451 -1.570799
    2 4.443612 -0.009642 0.000005 -0.000004 -0.000004 0.000790
    3 12.111174 -0.011366 -0.000420 0.000000 0.000000 0.000000
    4 -0.000511 0.011447 -1.352377 -0.000014 1.370793 3.140788
    5 6.078088 -0.000001 0.000005 1.236542 -0.443062 -1.403380
    6 13.446753 0.000000 0.000000 0.000003 0.000009 -0.832191
    7 15.996999 -0.000002 -0.000002 1.656893 -0.029140 0.272272
    8 -2.696840 7.324290 -1.920924 0.018589 0.011442 1.586441
    9 35.019169 7.488255 -2.079839 1.582240 -0.018573 -3.126158
    10 0.000004 0.011442 1.352403 -0.000013 -1.370808 3.140804
    11 6.078089 0.000000 0.000000 -0.064298 0.498414 -0.722068
    12 13.446749 -0.000002 -0.000003 0.000000 0.000002 -1.443284
    13 15.996999 0.000007 0.000000 -0.860536 -0.515557 0.101128
    14 1.885325 0.833274 -2.177875 -1.101246 0.431033 0.584304
    15 1.506970 0.000001 -0.000001 0.000001 0.000002 -0.307167
    16 0.798343 0.000001 0.000005 -0.000001 0.000000 -0.280986
    17 3.950300 -0.539874 -2.108870 -0.018073 -0.074638 0.227590
    18 1.545796 -0.000001 0.000003 0.000010 0.000000 1.200743
    19 1.667397 0.000004 -0.000003 -0.000003 0.000000 1.165836
    20 3.899459 -0.475374 -1.170893 -0.056821 -0.237771 0.233769
    21 1.528213 0.000000 0.000003 0.000009 0.000003 1.061116
    22 1.528214 0.000000 0.000000 0.000005 0.000002 1.209469
    23 3.899460 -0.431802 0.168226 -0.072905 -0.302248 0.238121
    24 1.506968 0.000001 0.000000 0.000004 -0.000002 1.157109
    25 1.506964 -0.000001 -0.000001 0.000008 0.000002 1.069843
    26 3.915632 -0.278021 1.402613 -0.072042 -0.298857 0.237856
    27 1.333083 0.000001 -0.000005 0.000006 -0.000002 1.366549
    28 1.159205 0.000006 0.000003 0.000010 0.000003 0.947670
  time 10
    0 -13.098893 -12.070911 -24.816700 0.000000 0.000000 -1.570795
    1 0.000000 0.000000 0.000000 0.000000 -1.570451 -1.570799
    2 4.443612 -0.009642 0.000005 -0.000004 -0.000004 0.000790
    3 12.111174 -0.011366 -0.000420 0.000000 0.000000 0.000000
    4 -0.000511 0.011447 -1.352377 -0.000014 1.370793 3.140788
    5 6.078088 -0.000001 0.000005 1.236206 -0.445091 -1.402613
    6 13.446753 0.000000 0.000000 0.000003 0.000009 -0.835558
    7 15.996999 -0.000002 -0.000002 1.654916 -0.029571 0.269779
    8 -2.696840 7.324290 -1.920924 0.018589 0.011442 1.586441
    9 35.019169 7.488255 -2.079839 1.582240 -0.018573 -3.126158
    10 0.000004 0.011442 1.352403 -0.000013 -1.370808 3.140804
    11 6.078089 0.000000 0.000000 -0.062498 0.500226 -0.721964
    12 13.446749 -0.000002 -0.000003 0.000000 0.000002 -1.442137
    13 15.996999 0.000007 0.000000 -0.859046 -0.521383 0.096849
    14 1.885325 0.833274 -2.177875 -1.101246 0.431033 0.584304
    15 1.506970 0.000001 -0.000001 0.000001 0.000002 -0.307167
    16 0.798343 0.000001 0.000005 -0.000001 0.000000 -0.280986
    17 3.950300 -0.539874 -2.108870 -0.018073 -0.074638 0.227590
    18 1.545796 -0.000001 0.000003 0.000010 0.000000 1.200743
    19 1.667397 0.000004 -0.000003 -0.000003 0.000000 1.165836
    20 3.899459 -0.475374 -1.170893 -0.056821 -0.237771 0.233769
    21 1.528213 0.000000 0.000003 0.000009 0.000003 1.061116
    22 1.528214 0.000000 0.000000 0.000005 0.000002 1.209469
    23 3.899460 -0.431802 0.168226 -0.072905 -0.302248 0.238121
    24 1.506968 0.000001 0.000000 0.000004 -0.000002 1.157109
    25 1.506964 -0.000001 -0.000001 0.000008 0.000002 1.069843
    26 3.915632 -0.278021 1.402613 -0.072042 -0.298857 0.237856
    27 1.333083 0.000001 -0.000005 0.000006 -0.000002 1.366549
    28 1.159205 0.000006 0.000003 0.000010 0.000003 0.947670
  time 11
    0 -13.098893 -12.070911 -24.816700 0.000000 0.000000 -1.570795
    1 0.000000 0.000000 0.000000 0.000000 -1.570451 -1.570799
    2 4.443612 -0.009642 0.000005 -0.000004 -0.000004 0.000790
    3 12.111174 -0.011366 -0.000420 0.000000 0.000000 0.000000
    4 -0.000511 0.011447 -1.352377 -0.000014 1.370793 3.140788
    5 6.078088 -0.000001 0.000005 1.235487 -0.449399 -1.400959
    6 13.446753 0.000000 0.000000 0.000003 0.000009 -0.843317
    7 15.996999 -0.000002 -0.000002 1.656234 -0.031441 0.265285
    8 -2.696840 7.324290 -1.920924 0.018589 0.011442 1.586441
    9 35.019169 7.488255 -2.079839 1.582240 -0.018573 -3.126158
    10 0.000004 0.011442 1.352403 -0.000013 -1.370808 3.140804
    11 6.078089 0.000000 0.000000 -0.059855 0.501794 -0.719361
    12 13.446749 -0.000002 -0.000003 0.000000 0.000002 -1.444983
    13 15.996999 0.000007 0.000000 -0.852544 -0.529345 0.092235
    14 1.885325 0.833274 -2.177875 -1.101246 0.431033 0.584304
    15 1.506970 0.000001 -0.000001 0.000001 0.000002 -0.307167
    16 0.798343 0.000001 0.000005 -0.000001 0.000000 -0.280986
    17 3.950300 -0.539874 -2.108870 -0.018073 -0.074638 0.227590
    18 1.545796 -0.000001 0.000003 0.000010 0.000000 1.200743
    19 1.667397 0.000004 -0.000003 -0.000003 0.000000 1.165836
    20 3.899459 -0.475374 -1.170893 -0.056821 -0.237771 0.233769
    21 1.528213 0.000000 0.000003 0.000009 0.000003 1.061116
    22 1.528214 0.000000 0.000000 0.000005 0.000002 1.209469
    23 3.899460 -0.431802 0.168226 -0.072905 -0.302248 0.238121
    24 1.506968 0.000001 0.000000 0.000004 -0.000002 1.157109
    25 1.506964 -0.000001 -0.000001 0.000008 0.000002 1.069843
    26 3.915632 -0.278021 1.402613 -0.072042 -0.298857 0.237856
    27 1.333083 0.000001 -0.000005 0.000006 -0.000002 1.366549
    28 1.159205 0.000006 0.000003 0.000010 0.000003 0.947670
  time 12
    0 -13.098893 -12.070911 -24.816700 0.000000 0.000000 -1.570795
    1 0.000000 0.000000 0.000000 0.000000 -1.570451 -1.570799
    2 4.443612 -0.009642 0.000005 -0.000004 -0.000004 0.000790
    3 12.111174 -0.011366 -0.000420 0.000000 0.000000 0.000000
    4 -0.000511 0.011447 -1.352377 -0.000014 1.370793 3.140788
    5 6.078088 -0.000001 0.000005 1.235127 -0.451581 -1.400132
    6 13.446753 0.000000 0.000000 0.000003 0.000009 -0.846946
    7 15.996999 -0.000002 -0.000002 1.660680 -0.034221 0.255949
    8 -2.696840 7.324290 -1.920924 0.018589 0.011442 1.586441
    9 35.019169 7.488255 -2.079839 1.582240 -0.018573 -3.126158
    10 0.000004 0.011442 1.352403 -0.000013 -1.370808 3.140804
    11 6.078089 0.000000 0.000000 -0.058705 0.502351 -0.717903
    12 13.446749 -0.000002 -0.000003 0.000000 0.000002 -1.446555
    13 15.996999 0.000007 0.000000 -0.842202 -0.537842 0.085920
    14 1.885325 0.833274 -2.177875 -1.101246 0.431033 0.584304
    15 1.506970 0.000001 -0.000001 0.000001 0.000002 -0.307167
    16 0.798343 0.000001 0.000005 -0.000001 0.000000 -0.280986
    17 3.950300 -0.539874 -2.108870 -0.018073 -0.074638 0.227590
    18 1.545796 -0.000001 0.000003 0.000010 0.000000 1.200743
    19 1.667397 0.000004 -0.000003 -0.000003 0.000000 1.165836
    20 3.899459 -0.475374 -1.170893 -0.056821 -0.237771 0.233769
    21 1.528213 0.000000 0.000003 0.000009 0.000003 1.061116
    22 1.528214 0.000000 0.000000 0.000005 0.000002 1.209469
    23 3.899460 -0.431802 0.168226 -0.072905 -0.302248 0.238121
    24 1.506968 0.000001 0.000000 0.000004 -0.000002 1.157109
    25 1.506964 -0.000001 -0.000001 0.000008 0.000002 1.069843
    26 3.915632 -0.278021 1.402613 -0.072042 -0.298857 0.237856
    27 1.333083 0.000001 -0.000005 0.000006 -0.000002 1.366549
    28 1.159205 0.000006 0.000003 0.000010 0.000003 0.947670
  time 13
    0 -13.098893 -12.070911 -24.816700 0.000000 0.000000 -1.570795
    1 0.000000 0.000000 0.000000 0.000000 -1.570451 -1.570799
    2 4.443612 -0.009642 0.000005 -0.000004 -0.000004 0.000790
    3 12.111174 -0.011366 -0.000420 0.000000 0.000000 0.000000
    4 -0.000511 0.011447 -1.352377 -0.000014 1.370793 3.140788
    5 6.078088 -0.000001 0.000005 1.234936 -0.452654 -1.399737
    6 13.446753 0.000000 0.000000 0.000003 0.000009 -0.848450
    7 15.996999 -0.000002 -0.000002 1.666529 -0.036642 0.245894
    8 -2.696840 7.324290 -1.920924 0.018589 0.011442 1.586441
    9 35.019169 7.488255 -2.079839 1.582240 -0.018573 -3.126158
    10 0.000004 0.011442 1.352403 -0.000013 -1.370808 3.140804
    11 6.078089 0.000000 0.000000 -0.058629 0.502073 -0.717105
    12 13.446749 -0.000002 -0.000003 0.000000 0.000002 -1.447532
    13 15.996999 0.000007 0.000000 -0.831184 -0.544486 0.079544
    14 1.885325 0.833274 -2.177875 -1.101246 0.431033 0.584304
    15 1.506970 0.000001 -0.000001 0.000001 0.000002 -0.307167
    16 0.798343 0.000001 0.000005 -0.000001 0.000000 -0.280986
    17 3.950300 -0.539874 -2.108870 -0.018073 -0.074638 0.227590
    18 1.545796 -0.000001 0.000003 0.000010 0.000000 1.200743
    19 1.667397 0.000004 -0.000003 -0.000003 0.000000 1.165836
    20 3.899459 -0.475374 -1.170893 -0.056821 -0.237771 0.233769
    21 1.528213 0.000000 0.000003 0.000009 0.000003 1.061116
    22 1.528214 0.000000 0.000000 0.000005 0.000002 1.209469
    23 3.899460 -0.431802 0.168226 -0.072905 -0.302248 0.238121
    24 1.506968 0.000001 0.000000 0.000004 -0.000002 1.157109
    25 1.506964 -0.000001 -0.000001 0.000008 0.000002 1.069843
    26 3.915632 -0.278021 1.402613 -0.072042 -0.298857 0.237856
    27 1.333083 0.000001 -0.000005 0.000006 -0.000002 1.366549
    28 1.159205 0.000006 0.000003 0.000010 0.000003 0.947670
  time 14
    0 -13.098893 -12.070911 -24.816700 0.000000 0.000000 -1.570795
    1 0.000000 0.000000 0.000000 0.000000 -1.570451 -1.570799
    2 4.443612 -0.009642 0.000005 -0.000004 -0.000004 0.000790
    3 12.111174 -0.011366 -0.000420 0.000000 0.000000 0.000000
    4 -0.000511 0.011447 -1.352377 -0.000014 1.370793 3.140788
    5 6.078088 -0.000001 0.000005 1.234768 -0.453668 -1.399365
    6 13.446753 0.000000 0.000000 0.000003 0.000009 -0.849787
    7 15.996999 -0.000002 -0.000002 1.671970 -0.037493 0.239242
    8 -2.696840 7.324290 -1.920924 0.018589 0.011442 1.586441
    9 35.019169 7.488255 -2.079839 1.582240 -0.018573 -3.126158
    10 0.000004 0.011442 1.352403 -0.000013 -1.370808 3.140804
    11 6.078089 0.000000 0.000000 -0.059357 0.501132 -0.716480
    12 13.446749 -0.000002 -0.000003 0.000000 0.000002 -1.448339
    13 15.996999 0.000007 0.000000 -0.822830 -0.546990 0.074894
    14 1.885325 0.833274 -2.177875 -1.101246 0.431033 0.584304
    15 1.506970 0.000001 -0.000001 0.000001 0.000002 -0.307167
    16 0.798343 0.000001 0.000005 -0.000001 0.000000 -0.280986
    17 3.950300 -0.539874 -2.108870 -0.018073 -0.074638 0.227590
    18 1.545796 -0.000001 0.000003 0.000010 0.000000 1.200743
    19 1.667397 0.000004 -0.000003 -0.000003 0.000000 1.165836
    20 3.899459 -0.475374 -1.170893 -0.056821 -0.237771 0.233769
    21 1.528213 0.000000 0.000003 0.000009 0.000003 1.061116
    22 1.528214 0.000000 0.000000 0.000005 0.000002 1.209469
    23 3.899460 -0.431802 0.168226 -0.072905 -0.302248 0.238121
    24 1.506968 0.000001 0.000000 0.000004 -0.000002 1.157109
    25 1.506964 -0.000001 -0.000001 0.000008 0.000002 1.069843
    26 3.915632 -0.278021 1.402613 -0.072042 -0.298857 0.237856
    27 1.333083 0.000001 -0.000005 0.000006 -0.000002 1.366549
    28 1.159205 0.000006 0.000003 0.000010 0.000003 0.947670
  time 15
    0 -13.098893 -12.070911 -24.816700 0.000000 0.000000 -1.570795
    1 0.000000 0.000000 0.000000 0.000000 -1.570451 -1.570799
    2 4.443612 -0.009642 0.000005 -0.000004 -0.000004 0.000790
    3 12.111174 -0.011366 -0.000420 0.000000 0.000000 0.000000
    4 -0.000511 0.011447 -1.352377 -0.000014 1.370793 3.140788
    5 6.078088 -0.000001 0.000005 1.234600 -0.454664 -1.399017
    6 13.446753 0.000000 0.000000 0.000003 0.000009 -0.851100
    7 15.996999 -0.000002 -0.000002 1.677303 -0.035887 0.237361
    8 -2.696840 7.324290 -1.920924 0.018589 0.011442 1.586441
    9 35.019169 7.488255 -2.079839 1.582240 -0.018573 -3.126158
    10 0.000004 0.011442 1.352403 -0.000013 -1.370808 3.140804
    11 6.078089 0.000000 0.000000 -0.061387 0.499006 -0.716168
    12 13.446749 -0.000002 -0.000003 0.000000 0.000002 -1.448764
    13 15.996999 0.000007 0.000000 -0.818088 -0.543151 0.072473
    14 1.885325 0.833274 -2.177875 -1.101246 0.431033 0.584304
    15 1.506970 0.000001 -0.000001 0.000001 0.000002 -0.307167
    16 0.798343 0.000001 0.000005 -0.000001 0.000000 -0.280986
    17 3.950300 -0.539874 -2.108870 -0.018073 -0.074638 0.227590
    18 1.545796 -0.000001 0.000003 0.000010 0.000000 1.200743
    19 1.667397 0.000004 -0.000003 -0.000003 0.000000 1.165836
    20 3.899459 -0.475374 -1.170893 -0.056821 -0.237771 0.233769
    21 1.528213 0.000000 0.000003 0.000009 0.000003 1.061116
    22 1.528214 0.000000 0.000000 0.000005 0.000002 1.209469
    23 3.899460 -0.431802 0.168226 -0.072905 -0.302248 0.238121
    24 1.506968 0.000001 0.000000 0.000004 -0.000002 1.157109
    25 1.506964 -0.000001 -0.000001 0.000008 0.000002 1.069843
    26 3.915632 -0.278021 1.402613 -0.072042 -0.298857 0.237856
    27 1.333083 0.000001 -0.000005 0.000006 -0.000002 1.366549
    28 1.159205 0.000006 0.000003 0.000010 0.000003 0.947670
  time 16
    0 -13.098893 -12.070911 -24.816700 0.000000 0.000000 -1.570795
    1 0.000000 0.000000 0.000000 0.000000 -1.570451 -1.570799
    2 4.443612 -0.009642 0.000005 -0.000004 -0.000004 0.000790
    3 12.111174 -0.011366 -0.000420 0.000000 0.000000 0.000000
    4 -0.000511 0.011447 -1.352377 -0.000014 1.370793 3.140788
    5 6.078088 -0.000001 0.000005 1.234516 -0.455142 -1.398850
    6 13.446753 0.000000 0.000000 0.000003 0.000009 -0.851410
    7 15.996999 -0.000002 -0.000002 1.683199 -0.032675 0.237960
    8 -2.696840 7.324290 -1.920924 0.018589 0.011442 1.586441
    9 35.019169 7.488255 -2.079839 1.582240 -0.018573 -3.126158
    10 0.000004 0.011442 1.352403 -0.000013 -1.370808 3.140804
    11 6.078089 0.000000 0.000000 -0.064758 0.495800 -0.716411
    12 13.446749 -0.000002 -0.000003 0.000000 0.000002 -1.448679
    13 15.996999 0.000007 0.000000 -0.815153 -0.534737 0.071382
    14 1.885325 0.833274 -2.177875 -1.101246 0.431033 0.584304
    15 1.506970 0.000001 -0.000001 0.000001 0.000002 -0.307167
    16 0.798343 0.000001 0.000005 -0.000001 0.000000 -0.280986
    17 3.950300 -0.539874 -2.108870 -0.018073 -0.074638 0.227590
    18 1.545796 -0.000001 0.000003 0.000010 0.000000 1.200743
    19 1.667397 0.000004 -0.000003 -0.000003 0.000000 1.165836
    20 3.899459 -0.475374 -1.170893 -0.056821 -0.237771 0.233769
    21 1.528213 0.000000 0.000003 0.000009 0.000003 1.061116
    22 1.528214 0.000000 0.000000 0.000005 0.000002 1.209469
    23 3.899460 -0.431802 0.168226 -0.072905 -0.302248 0.238121
    24 1.506968 0.000001 0.000000 0.000004 -0.000002 1.157109
    25 1.506964 -0.000001 -0.000001 0.000008 0.000002 1.069843
    26 3.915632 -0.278021 1.402613 -0.072042 -0.298857 0.237856
    27 1.333083 0.000001 -0.000005 0.000006 -0.000002 1.366549
    28 1.159205 0.000006 0.000003 0.000010 0.000003 0.947670
  time 17
    0 -13.098893 -12.070911 -24.816700 0.000000 0.000000 -1.570795
    1 0.000000 0.000000 0.000000 0.000000 -1.570451 -1.570799
    2 4.443612 -0.009642 0.000005 -0.000004 -0.000004 0.000790
    3 12.111174 -0.011366 -0.000420 0.000000 0.000000 0.000000
    4 -0.000511 0.011447 -1.352377 -0.000014 1.370793 3.140788
    5 6.078088 -0.000001 0.000005 1.234480 -0.455372 -1.398790
    6 13.446753 0.000000 0.000000 0.000003 0.000009 -0.851267
    7 15.996999 -0.000002 -0.000002 1.688473 -0.029319 0.239770
    8 -2.696840 7.324290 -1.920924 0.018589 0.011442 1.586441
    9 35.019169 7.488255 -2.079839 1.582240 -0.018573 -3.126158
    10 0.000004 0.011442 1.352403 -0.000013 -1.370808 3.140804
    11 6.078089 0.000000 0.000000 -0.068206 0.492594 -0.716758
    12 13.446749 -0.000002 -0.000003 0.000000 0.000002 -1.448509
    13 15.996999 0.000007 0.000000 -0.813618 -0.525472 0.071334
    14 1.885325 0.833274 -2.177875 -1.101246 0.431033 0.584304
    15 1.506970 0.000001 -0.000001 0.000001 0.000002 -0.307167
    16 0.798343 0.000001 0.000005 -0.000001 0.000000 -0.280986
    17 3.950300 -0.539874 -2.108870 -0.018073 -0.074638 0.227590
    18 1.545796 -0.000001 0.000003 0.000010 0.000000 1.200743
    19 1.667397 0.000004 -0.000003 -0.000003 0.000000 1.165836
    20 3.899459 -0.475374 -1.170893 -0.056821 -0.237771 0.233769
    21 1.528213 0.000000 0.000003 0.000009 0.000003 1.061116
    22 1.528214 0.000000 0.000000 0.000005 0.000002 1.209469
    23 3.899460 -0.431802 0.168226 -0.072905 -0.302248 0.238121
    24 1.506968 0.000001 0.000000 0.000004 -0.000002 1.157109
    25 1.506964 -0.000001 -0.000001 0.000008 0.000002 1.069843
    26 3.915632 -0.278021 1.402613 -0.072042 -0.298857 0.237856
    27 1.333083 0.000001 -0.000005 0.000006 -0.000002 1.366549
    28 1.159205 0.000006 0.000003 0.000010 0.000003 0.947670
  time 18
    0 -13.098893 -12.070911 -24.816700 0.000000 0.000000 -1.570795
    1 0.000000 0.000000 0.000000 0.000000 -1.570451 -1.570799
    2 4.443612 -0.009642 0.000005 -0.000004 -0.000004 0.000790
    3 12.111174 -0.011366 -0.000420 0.000000 0.000000 0.000000
    4 -0.000511 0.011447 -1.352377 -0.000014 1.370793 3.140788
    5 6.078088 -0.000001 0.000005 1.234444 -0.455621 -1.398718
    6 13.446753 0.000000 0.000000 0.000003 0.000009 -0.851100
    7 15.996999 -0.000002 -0.000002 1.691996 -0.027198 0.241519
    8 -2.696840 7.324290 -1.920924 0.018589 0.011442 1.586441
    9 35.019169 7.488255 -2.079839 1.582240 -0.018573 -3.126158
    10 0.000004 0.011442 1.352403 -0.000013 -1.370808 3.140804
    11 6.078089 0.000000 0.000000 -0.070313 0.490503 -0.716758
    12 13.446749 -0.000002 -0.000003 0.000000 0.000002 -1.448764
    13 15.996999 0.000007 0.000000 -0.812986 -0.518929 0.072101
    14 1.885325 0.833274 -2.177875 -1.101246 0.431033 0.584304
    15 1.506970 0.000001 -0.000001 0.000001 0.000002 -0.307167
    16 0.798343 0.000001 0.000005 -0.000001 0.000000 -0.280986
    17 3.950300 -0.539874 -2.108870 -0.018073 -0.074638 0.227590
    18 1.545796 -0.000001 0.000003 0.000010 0.000000 1.200743
    19 1.667397 0.000004 -0.000003 -0.000003 0.000000 1.165836
    20 3.899459 -0.475374 -1.170893 -0.056821 -0.237771 0.233769
    21 1.528213 0.000000 0.000003 0.000009 0.000003 1.061116
    22 1.528214 0.000000 0.000000 0.000005 0.000002 1.209469
    23 3.899460 -0.431802 0.168226 -0.072905 -0.302248 0.238121
    24 1.506968 0.000001 0.000000 0.000004 -0.000002 1.157109
    25 1.506964 -0.000001 -0.000001 0.000008 0.000002 1.069843
    26 3.915632 -0.278021 1.402613 -0.072042 -0.298857 0.237856
    27 1.333083 0.000001 -0.000005 0.000006 -0.000002 1.366549
    28 1.159205 0.000006 0.000003 0.000010 0.000003 0.947670
  time 19
    0 -13.098893 -12.070911 -24.816700 0.000000 0.000000 -1.570795
    1 0.000000 0.000000 0.000000 0.000000 -1.570451 -1.570799
    2 4.443612 -0.009642 0.000005 -0.000004 -0.000004 0.000790
    3 12.111174 -0.011366 -0.000420 0.000000 0.000000 0.000000
    4 -0.000511 0.011447 -1.352377 -0.000014 1.370793 3.140788
    5 6.078088 -0.000001 0.000005 1.234384 -0.455966 -1.398610
    6 13.446753 0.000000 0.000000 0.000003 0.000009 -0.851171
    7 15.996999 -0.000002 -0.000002 1.693182 -0.026659 0.243185
    8 -2.696840 7.324290 -1.920924 0.018589 0.011442 1.586441
    9 35.019169 7.488255 -2.079839 1.582240 -0.018573 -3.126158
    10 0.000004 0.011442 1.352403 -0.000013 -1.370808 3.140804
    11 6.078089 0.000000 0.000000 -0.070734 0.489876 -0.716202
    12 13.446749 -0.000002 -0.000003 0.000000 0.000002 -1.449741
    13 15.996999 0.000007 0.000000 -0.813392 -0.515974 0.073791
    14 1.885325 0.833274 -2.177875 -1.101246 0.431033 0.584304
    15 1.506970 0.000001 -0.000001 0.000001 0.000002 -0.307167
    16 0.798343 0.000001 0.000005 -0.000001 0.000000 -0.280986
    17 3.950300 -0.539874 -2.108870 -0.018073 -0.074638 0.227590
    18 1.545796 -0.000001 0.000003 0.000010 0.000000 1.200743
    19 1.667397 0.000004 -0.000003 -0.000003 0.000000 1.165836
    20 3.899459 -0.475374 -1.170893 -0.056821 -0.237771 0.233769
    21 1.528213 0.000000 0.000003 0.000009 0.000003 1.061116
    22 1.528214 0.000000 0.000000 0.000005 0.000002 1.209469
    23 3.899460 -0.431802 0.168226 -0.072905 -0.302248 0.238121
    24 1.506968 0.000001 0.000000 0.000004 -0.000002 1.157109
    25 1.506964 -0.000001 -0.000001 0.000008 0.000002 1.069843
    26 3.915632 -0.278021 1.402613 -0.072042 -0.298857 0.237856
    27 1.333083 0.000001 -0.000005 0.000006 -0.000002 1.366549
    28 1.159205 0.000006 0.000003 0.000010 0.000003 0.947670
  time 20
    0 -13.098893 -12.070911 -24.816700 0.000000 0.000000 -1.570795
    1 0.000000 0.000000 0.000000 0.000000 -1.570451 -1.570799
    2 4.443612 -0.009642 0.000005 -0.000004 -0.000004 0.000790
    3 12.111174 -0.011366 -0.000420 0.000000 0.000000 0.000000
    4 -0.000511 0.011447 -1.352377 -0.000014 1.370793 3.140788
    5 6.078088 -0.000001 0.000005 1.234324 -0.456310 -1.398502
    6 13.446753 0.000000 0.000000 0.000003 0.000009 -0.851195
    7 15.996999 -0.000002 -0.000002 1.692883 -0.026815 0.245331
    8 -2.696840 7.324290 -1.920924 0.018589 0.011442 1.586441
    9 35.019169 7.488255 -2.079839 1.582240 -0.018573 -3.126158
    10 0.000004 0.011442 1.352403 -0.000013 -1.370808 3.140804
    11 6.078089 0.000000 0.000000 -0.070236 0.490015 -0.715369
    12 13.446749 -0.000002 -0.000003 0.000000 0.000002 -1.451058
    13 15.996999 0.000007 0.000000 -0.814972 -0.514505 0.076380
    14 1.885325 0.833274 -2.177875 -1.101246 0.431033 0.584304
    15 1.506970 0.000001 -0.000001 0.000001 0.000002 -0.307167
    16 0.798343 0.000001 0.000005 -0.000001 0.000000 -0.280986
    17 3.950300 -0.539874 -2.108870 -0.018073 -0.074638 0.227590
    18 1.545796 -0.000001 0.000003 0.000010 0.000000 1.200743
    19 1.667397 0.000004 -0.000003 -0.000003 0.000000 1.165836
    20 3.899459 -0.475374 -1.170893 -0.056821 -0.237771 0.233769
    21 1.528213 0.000000 0.000003 0.000009 0.000003 1.061116
    22 1.528214 0.000000 0.000000 0.000005 0.000002 1.209469
    23 3.899460 -0.431802 0.168226 -0.072905 -0.302248 0.238121
    24 1.506968 0.000001 0.000000 0.000004 -0.000002 1.157109
    25 1.506964 -0.000001 -0.000001 0.000008 0.000002 1.069843
    26 3.915632 -0.278021 1.402613 -0.072042 -0.298857 0.237856
    27 1.333083 0.000001 -0.000005 0.000006 -0.000002 1.366549
    28 1.159205 0.000006 0.000003 0.000010 0.000003 0.947670
  time 21
    0 -13.098893 -12.070911 -24.816700 0.000000 0.000000 -1.570795
    1 0.000000 0.000000 0.000000 0.000000 -1.570451 -1.570799
    2 4.443612 -0.009642 0.000005 -0.000004 -0.000004 0.000790
    3 12.111174 -0.011366 -0.000420 0.000000 0.000000 0.000000
    4 -0.000511 0.011447 -1.352377 -0.000014 1.370793 3.140788
    5 6.078088 -0.000001 0.000005 1.234288 -0.456578 -1.398430
    6 13.446753 0.000000 0.000000 0.000003 0.000009 -0.851100
    7 15.996999 -0.000002 -0.000002 1.691984 -0.027366 0.247560
    8 -2.696840 7.324290 -1.920924 0.018589 0.011442 1.586441
    9 35.019169 7.488255 -2.079839 1.582240 -0.018573 -3.126158
    10 0.000004 0.011442 1.352403 -0.000013 -1.370808 3.140804
    11 6.078089 0.000000 0.000000 -0.069355 0.490503 -0.714397
    12 13.446749 -0.000002 -0.000003 0.000000 0.000002 -1.452545
    13 15.996999 0.000007 0.000000 -0.816914 -0.513770 0.079364
    14 1.885325 0.833274 -2.177875 -1.101246 0.431033 0.584304
    15 1.506970 0.000001 -0.000001 0.000001 0.000002 -0.307167
    16 0.798343 0.000001 0.000005 -0.000001 0.000000 -0.280986
    17 3.950300 -0.539874 -2.108870 -0.018073 -0.074638 0.227590
    18 1.545796 -0.000001 0.000003 0.000010 0.000000 1.200743
    19 1.667397 0.000004 -0.000003 -0.000003 0.000000 1.165836
    20 3.899459 -0.475374 -1.170893 -0.056821 -0.237771 0.233769
    21 1.528213 0.000000 0.000003 0.000009 0.000003 1.061116
    22 1.528214 0.000000 0.000000 0.000005 0.000002 1.209469
    23 3.899460 -0.431802 0.168226 -0.072905 -0.302248 0.238121
    24 1.506968 0.000001 0.000000 0.000004 -0.000002 1.157109
    25 1.506964 -0.000001 -0.000001 0.000008 0.000002 1.069865
    26 3.915632 -0.278021 1.402613 -0.072042 -0.298857 0.237856
    27 1.333083 0.000001 -0.000005 0.000006 -0.000002 1.366549
    28 1.159205 0.000006 0.000003 0.000010 0.000003 0.947670
  time 22
    0 -13.098893 -12.070911 -24.816700 0.000000 0.000000 -1.570795
    1 0.000000 0.000000 0.000000 0.000000 -1.570451 -1.570799
    2 4.443612 -0.009642 0.000005 -0.000004 -0.000004 0.000790
    3 12.111174 -0.011366 -0.000420 0.000000 0.000000 0.000000
    4 -0.000511 0.011447 -1.352377 -0.000014 1.370793 3.140788
    5 6.078088 -0.000001 0.000005 1.234264 -0.456712 -1.398394
    6 13.446753 0.000000 0.000000 0.000003 0.000009 -0.850789
    7 15.996999 -0.000002 -0.000002 1.691385 -0.027977 0.249477
    8 -2.696840 7.324290 -1.920924 0.018589 0.011442 1.586441
    9 35.019169 7.488255 -2.079839 1.582240 -0.018573 -3.126158
    10 0.000004 0.011442 1.352403 -0.000013 -1.370808 3.140804
    11 6.078089 0.000000 0.000000 -0.068550 0.490886 -0.713460
    12 13.446749 -0.000002 -0.000003 0.000000 0.000002 -1.454074
    13 15.996999 0.000007 0.000000 -0.818585 -0.513002 0.082288
    14 1.885325 0.833274 -2.177875 -1.101246 0.431033 0.584304
    15 1.506970 0.000001 -0.000001 0.000001 0.000002 -0.307167
    16 0.798343 0.000001 0.000005 -0.000001 0.000000 -0.280986
    17 3.950300 -0.539874 -2.108870 -0.018073 -0.074638 0.227590
    18 1.545796 -0.000001 0.000003 0.000010 0.000000 1.200743
    19 1.667397 0.000004 -0.000003 -0.000003 0.000000 1.165836
    20 3.899459 -0.475374 -1.170893 -0.056821 -0.237771 0.233769
    21 1.528213 0.000000 0.000003 0.000009 0.000003 1.061116
    22 1.528214 0.000000 0.000000 0.000005 0.000002 1.209469
    23 3.899460 -0.431802 0.168226 -0.072905 -0.302248 0.238121
    24 1.506968 0.000001 0.000000 0.000004 -0.000002 1.157109
    25 1.506964 -0.000001 -0.000001 0.000008 0.000002 1.069843
    26 3.915632 -0.278021 1.402613 -0.072042 -0.298857 0.237856
    27 1.333083 0.000001 -0.000005 0.000006 -0.000002 1.366549
    28 1.159205 0.000006 0.000003 0.000010 0.000003 0.947670
  time 23
    0 -13.098893 -12.070911 -24.816700 0.000000 0.000000 -1.570795
    1 0.000000 0.000000 0.000000 0.000000 -1.570451 -1.570799
    2 4.443612 -0.009642 0.000005 -0.000004 -0.000004 0.000790
    3 12.111174 -0.011366 -0.000420 0.000000 0.000000 0.000000
    4 -0.000511 0.011447 -1.352377 -0.000014 1.370793 3.140788
    5 6.078088 -0.000001 0.000005 1.234264 -0.456693 -1.398442
    6 13.446753 0.000000 0.000000 0.000003 0.000009 -0.850145
    7 15.996999 -0.000002 -0.000002 1.691972 -0.028325 0.250664
    8 -2.696840 7.324290 -1.920924 0.018589 0.011442 1.586441
    9 35.019169 7.488255 -2.079839 1.582240 -0.018573 -3.126158
    10 0.000004 0.011442 1.352403 -0.000013 -1.370808 3.140804
    11 6.078089 0.000000 0.000000 -0.068397 0.490747 -0.712731
    12 13.446749 -0.000002 -0.000003 0.000000 0.000002 -1.455348
    13 15.996999 0.000007 0.000000 -0.819172 -0.511467 0.084649
    14 1.885325 0.833274 -2.177875 -1.101246 0.431033 0.584304
    15 1.506970 0.000001 -0.000001 0.000001 0.000002 -0.307167
    16 0.798343 0.000001 0.000005 -0.000001 0.000000 -0.280986
    17 3.950300 -0.539874 -2.108870 -0.018073 -0.074638 0.227590
    18 1.545796 -0.000001 0.000003 0.000010 0.000000 1.200743
    19 1.667397 0.000004 -0.000003 -0.000003 0.000000 1.165836
    20 3.899459 -0.475374 -1.170893 -0.056821 -0.237771 0.233769
    21 1.528213 0.000000 0.000003 0.000009 0.000003 1.061116
    22 1.528214 0.000000 0.000000 0.000005 0.000002 1.209469
    23 3.899460 -0.431802 0.168226 -0.072905 -0.302248 0.238121
    24 1.506968 0.000001 0.000000 0.000004 -0.000002 1.157109
    25 1.506964 -0.000001 -0.000001 0.000008 0.000002 1.069843
    26 3.915632 -0.278021 1.402613 -0.072042 -0.298857 0.237856
    27 1.333083 0.000001 -0.000005 0.000006 -0.000002 1.366549
    28 1.159205 0.000006 0.000003 0.000010 0.000003 0.947670
  time 24
    0 -13.098893 -12.070911 -24.816700 0.000000 0.000000 -1.570795
    1 0.000000 0.000000 0.000000 0.000000 -1.570451 -1.570799
    2 4.443612 -0.009642 0.000005 -0.000004 -0.000004 0.000790
    3 12.111174 -0.011366 -0.000420 0.000000 0.000000 0.000000
    4 -0.000511 0.011447 -1.352377 -0.000014 1.370793 3.140788
    5 6.078088 -0.000001 0.000005 1.234300 -0.456540 -1.398526
    6 13.446753 0.000000 0.000000 0.000003 0.000009 -0.849261
    7 15.996999 -0.000002 -0.000002 1.694908 -0.028636 0.250879
    8 -2.696840 7.324290 -1.920924 0.018589 0.011442 1.586441
    9 35.019169 7.488255 -2.079839 1.582240 -0.018573 -3.126158
    10 0.000004 0.011442 1.352403 -0.000013 -1.370808 3.140804
    11 6.078089 0.000000 0.000000 -0.069125 0.489666 -0.711829
    12 13.446749 -0.000002 -0.000003 0.000000 0.000002 -1.457388
    13 15.996999 0.000007 0.000000 -0.817772 -0.508595 0.087046
    14 1.885325 0.833274 -2.177875 -1.101246 0.431033 0.584304
    15 1.506970 0.000001 -0.000001 0.000001 0.000002 -0.307167
    16 0.798343 0.000001 0.000005 -0.000001 0.000000 -0.280986
    17 3.950300 -0.539874 -2.108870 -0.018073 -0.074638 0.227590
    18 1.545796 -0.000001 0.000003 0.000010 0.000000 1.200743
    19 1.667397 0.000004 -0.000003 -0.000003 0.000000 1.165836
    20 3.899459 -0.475374 -1.170893 -0.056821 -0.237771 0.233769
    21 1.528213 0.000000 0.000003 0.000009 0.000003 1.061116
    22 1.528214 0.000000 0.000000 0.000005 0.000002 1.209469
    23 3.899460 -0.431802 0.168226 -0.072905 -0.302248 0.238121
    24 1.506968 0.000001 0.000000 0.000004 -0.000002 1.157109
    25 1.506964 -0.000001 -0.000001 0.000008 0.000002 1.069843
    26 3.915632 -0.278021 1.402613 -0.072042 -0.298857 0.237856
    27 1.333083 0.000001 -0.000005 0.000006 -0.000002 1.366549
    28 1.159205 0.000006 0.000003 0.000010 0.000003 0.947670
  time 25
    0 -13.098893 -12.070911 -24.816700 0.000000 0.000000 -1.570795
    1 0.000000 0.000000 0.000000 0.000000 -1.570451 -1.570799
    2 4.443612 -0.009642 0.000005 -0.000004 -0.000004 0.000790
    3 12.111174 -0.011366 -0.000420 0.000000 0.000000 0.000000
    4 -0.000511 0.011447 -1.352377 -0.000014 1.370793 3.140788
    5 6.078088 -0.000001 0.000005 1.234348 -0.456234 -1.398670
    6 13.446753 0.000000 0.000000 0.000003 0.000009 -0.848068
    7 15.996999 -0.000002 -0.000002 1.699426 -0.029056 0.250316
    8 -2.696840 7.324290 -1.920924 0.018589 0.011442 1.586441
    9 35.019169 7.488255 -2.079839 1.582240 -0.018573 -3.126158
    10 0.000004 0.011442 1.352403 -0.000013 -1.370808 3.140804
    11 6.078089 0.000000 0.000000 -0.070351 0.488029 -0.710788
    12 13.446749 -0.000002 -0.000003 0.000000 0.000002 -1.459894
    13 15.996999 0.000007 0.000000 -0.814972 -0.505040 0.089515
    14 1.885325 0.833274 -2.177875 -1.101246 0.431033 0.584304
    15 1.506970 0.000001 -0.000001 0.000001 0.000002 -0.307167
    16 0.798343 0.000001 0.000005 -0.000001 0.000000 -0.280986
    17 3.950300 -0.539874 -2.108870 -0.018073 -0.074638 0.227590
    18 1.545796 -0.000001 0.000003 0.000010 0.000000 1.200743
    19 1.667397 0.000004 -0.000003 -0.000003 0.000000 1.165836
    20 3.899459 -0.475374 -1.170893 -0.056821 -0.237771 0.233769
    21 1.528213 0.000000 0.000003 0.000009 0.000003 1.061116
    22 1.528214 0.000000 0.000000 0.000005 0.000002 1.209469
    23 3.899460 -0.431802 0.168226 -0.072905 -0.302248 0.238121
    24 1.506968 0.000001 0.000000 0.000004 -0.000002 1.157109
    25 1.506964 -0.000001 -0.000001 0.000008 0.000002 1.069843
    26 3.915632 -0.278021 1.402613 -0.072042 -0.298857 0.237856
    27 1.333083 0.000001 -0.000005 0.000006 -0.000002 1.366549
    28 1.159205 0.000006 0.000003 0.000010 0.000003 0.947670
  time 26
    0 -13.098893 -12.070911 -24.816700 0.000000 0.000000 -1.570795
    1 0.000000 0.000000 0.000000 0.000000 -1.570451 -1.570799
    2 4.443612 -0.009642 0.000005 -0.000004 -0.000004 0.000790
    3 12.111174 -0.011366 -0.000420 0.000000 0.000000 0.000000
    4 -0.000511 0.011447 -1.352377 -0.000014 1.370793 3.140788
    5 6.078088 -0.000001 0.000005 1.234456 -0.455602 -1.398958
    6 13.446753 0.000000 0.000000 0.000003 0.000009 -0.846253
    7 15.996999 -0.000002 -0.000002 1.703561 -0.029068 0.249178
    8 -2.696840 7.324290 -1.920924 0.018589 0.011442 1.586441
    9 35.019169 7.488255 -2.079839 1.582240 -0.018573 -3.126158
    10 0.000004 0.011442 1.352403 -0.000013 -1.370808 3.140804
    11 6.078089 0.000000 0.000000 -0.071883 0.486426 -0.710510
    12 13.446749 -0.000002 -0.000003 0.000000 0.000002 -1.461126
    13 15.996999 0.000007 0.000000 -0.812308 -0.501617 0.090749
    14 1.885325 0.833274 -2.177875 -1.101246 0.431033 0.584304
    15 1.506970 0.000001 -0.000001 0.000001 0.000002 -0.307167
    16 0.798343 0.000001 0.000005 -0.000001 0.000000 -0.280986
    17 3.950300 -0.539874 -2.108870 -0.018073 -0.074638 0.227590
    18 1.545796 -0.000001 0.000003 0.000010 0.000000 1.200743
    19 1.667397 0.000004 -0.000003 -0.000003 0.000000 1.165836
    20 3.899459 -0.475374 -1.170893 -0.056821 -0.237771 0.233769
    21 1.528213 0.000000 0.000003 0.000009 0.000003 1.061116
    22 1.528214 0.000000 0.000000 0.000005 0.000002 1.209469
    23 3.899460 -0.431802 0.168226 -0.072905 -0.302248 0.238121
    24 1.506968 0.000001 0.000000 0.000004 -0.000002 1.157109
    25 1.506964 -0.000001 -0.000001 0.000008 0.000002 1.069843
    26 3.915632 -0.278021 1.402613 -0.072042 -0.298857 0.237856
    27 1.333083 0.000001 -0.000005 0.000006 -0.000002 1.366549
    28 1.159205 0.000006 0.000003 0.000010 0.000003 0.947670
  time 27
    0 -13.098893 -12.070911 -24.816700 0.000000 0.000000 -1.570795
    1 0.000000 0.000000 0.000000 0.000000 -1.570451 -1.570799
    2 4.443612 -0.009642 0.000005 -0.000004 -0.000004 0.000790
    3 12.111174 -0.011366 -0.000420 0.000000 0.000000 0.000000
    4 -0.000511 0.011447 -1.352377 -0.000014 1.370793 3.140788
    5 6.078088 -0.000001 0.000005 1.234660 -0.454472 -1.399425
    6 13.446753 0.000000 0.000000 0.000003 0.000009 -0.843508
    7 15.996999 -0.000002 -0.000002 1.705335 -0.028169 0.247704
    8 -2.696840 7.324290 -1.920924 0.018589 0.011442 1.586441
    9 35.019169 7.488255 -2.079839 1.582240 -0.018573 -3.126158
    10 0.000004 0.011442 1.352403 -0.000013 -1.370808 3.140804
    11 6.078089 0.000000 0.000000 -0.073416 0.485450 -0.711829
    12 13.446749 -0.000002 -0.000003 0.000000 0.000002 -1.459087
    13 15.996999 0.000007 0.000000 -0.811315 -0.499381 0.089443
    14 1.885325 0.833274 -2.177875 -1.101246 0.431033 0.584304
    15 1.506970 0.000001 -0.000001 0.000001 0.000002 -0.307167
    16 0.798343 0.000001 0.000005 -0.000001 0.000000 -0.280986
    17 3.950300 -0.539874 -2.108870 -0.018073 -0.074638 0.227590
    18 1.545796 -0.000001 0.000003 0.000010 0.000000 1.200743
    19 1.667397 0.000004 -0.000003 -0.000003 0.000000 1.165836
    20 3.899459 -0.475374 -1.170893 -0.056821 -0.237771 0.233769
    21 1.528213 0.000000 0.000003 0.000009 0.000003 1.061116
    22 1.528214 0.000000 0.000000 0.000005 0.000002 1.209469
    23 3.899460 -0.431802 0.168226 -0.072905 -0.302248 0.238121
    24 1.506968 0.000001 0.000000 0.000004 -0.000002 1.157109
    25 1.506964 -0.000001 -0.000001 0.000008 0.000002 1.069843
    26 3.915632 -0.278021 1.402613 -0.072042 -0.298857 0.237856
    27 1.333083 0.000001 -0.000005 0.000006 -0.000002 1.366549
    28 1.159205 0.000006 0.000003 0.000010 0.000003 0.947670
  time 28
    0 -13.098893 -12.070911 -24.816700 0.000000 0.000000 -1.570795
    1 0.000000 0.000000 0.000000 0.000000 -1.570451 -1.570799
    2 4.443612 -0.009642 0.000005 -0.000004 -0.000004 0.000790
    3 12.111174 -0.011366 -0.000420 0.000000 0.000000 0.000000
    4 -0.000511 0.011447 -1.352377 -0.000014 1.370793 3.140788
    5 6.078088 -0.000001 0.000005 1.234768 -0.453802 -1.399713
    6 13.446753 0.000000 0.000000 0.000003 0.000009 -0.841646
    7 15.996999 -0.000002 -0.000002 1.703753 -0.025568 0.246289
    8 -2.696840 7.324290 -1.920924 0.018589 0.011442 1.586441
    9 35.019169 7.488255 -2.079839 1.582240 -0.018573 -3.126158
    10 0.000004 0.011442 1.352403 -0.000013 -1.370808 3.140804
    11 6.078089 0.000000 0.000000 -0.074641 0.485450 -0.714883
    12 13.446749 -0.000002 -0.000003 0.000000 0.000002 -1.453097
    13 15.996999 0.000007 0.000000 -0.812263 -0.498846 0.083882
    14 1.885325 0.833274 -2.177875 -1.101246 0.431033 0.584304
    15 1.506970 0.000001 -0.000001 0.000001 0.000002 -0.307167
    16 0.798343 0.000001 0.000005 -0.000001 0.000000 -0.280986
    17 3.950300 -0.539874 -2.108870 -0.018073 -0.074638 0.227590
    18 1.545796 -0.000001 0.000003 0.000010 0.000000 1.200743
    19 1.667397 0.000004 -0.000003 -0.000003 0.000000 1.165836
    20 3.899459 -0.475374 -1.170893 -0.056821 -0.237771 0.233769
    21 1.528213 0.000000 0.000003 0.000009 0.000003 1.061116
    22 1.528214 0.000000 0.000000 0.000005 0.000002 1.209469
    23 3.899460 -0.431802 0.168226 -0.072905 -0.302248 0.238121
    24 1.506968 0.000001 0.000000 0.000004 -0.000002 1.157109
    25 1.506964 -0.000001 -0.000001 0.000008 0.000002 1.069843
    26 3.915632 -0.278021 1.402613 -0.072042 -0.298857 0.237856
    27 1.333083 0.000001 -0.000005 0.000006 -0.000002 1.366549
    28 1.159205 0.000006 0.000003 0.000010 0.000003 0.947670
  time 29
    0 -13.098893 -12.070911 -24.816700 0.000000 0.000000 -1.570795
    1 0.000000 0.000000 0.000000 0.000000 -1.570451 -1.570799
    2 4.443612 -0.009642 0.000005 -0.000004 -0.000004 0.000790
    3 12.111174 -0.011366 -0.000420 0.000000 0.000000 0.000000
    4 -0.000511 0.011447 -1.352377 -0.000014 1.370793 3.140788
    5 6.078088 -0.000001 0.000005 1.234852 -0.453362 -1.399916
    6 13.446753 0.000000 0.000000 0.000003 0.000009 -0.840189
    7 15.996999 -0.000002 -0.000002 1.700050 -0.021781 0.244683
    8 -2.696840 7.324290 -1.920924 0.018589 0.011442 1.586441
    9 35.019169 7.488255 -2.079839 1.582240 -0.018573 -3.126158
    10 0.000004 0.011442 1.352403 -0.000013 -1.370808 3.140804
    11 6.078089 0.000000 0.000000 -0.075867 0.486077 -0.719257
    12 13.446749 -0.000002 -0.000003 0.000000 0.000002 -1.444176
    13 15.996999 0.000007 0.000000 -0.814431 -0.499414 0.075205
    14 1.885325 0.833274 -2.177875 -1.101246 0.431033 0.584304
    15 1.506970 0.000001 -0.000001 0.000001 0.000002 -0.307167
    16 0.798343 0.000001 0.000005 -0.000001 0.000000 -0.280986
    17 3.950300 -0.539874 -2.108870 -0.018073 -0.074638 0.227590
    18 1.545796 -0.000001 0.000003 0.000010 0.000000 1.200743
    19 1.667397 0.000004 -0.000003 -0.000003 0.000000 1.165836
    20 3.899459 -0.475374 -1.170893 -0.056821 -0.237771 0.233769
    21 1.528213 0.000000 0.000003 0.000009 0.000003 1.061116
    22 1.528214 0.000000 0.000000 0.000005 0.000002 1.209469
    23 3.899460 -0.431802 0.168226 -0.072905 -0.302248 0.238121
    24 1.506968 0.000001 0.000000 0.000004 -0.000002 1.157109
    25 1.506964 -0.000001 -0.000001 0.000008 0.000002 1.069843
    26 3.915632 -0.278021 1.402613 -0.072042 -0.298857 0.237856
    27 1.333083 0.000001 -0.000005 0.000006 -0.000002 1.366549
    28 1.159205 0.000006 0.000003 0.000010 0.000003 0.947670
  time 30
    0 -13.098893 -12.070911 -24.816700 0.000000 0.000000 -1.570795
    1 0.000000 0.000000 0.000000 0.000000 -1.570451 -1.570799
    2 4.443612 -0.009642 0.000005 -0.000004 -0.000004 0.000790
    3 12.111174 -0.011366 -0.000420 0.000000 0.000000 0.000000
    4 -0.000511 0.011447 -1.352377 -0.000014 1.370793 3.140788
    5 6.078088 -0.000001 0.000005 1.235223 -0.451160 -1.400803
    6 13.446753 0.000000 0.000000 0.000003 0.000009 -0.835438
    7 15.996999 -0.000002 -0.000002 1.695472 -0.018210 0.242167
    8 -2.696840 7.324290 -1.920924 0.018589 0.011442 1.586441
    9 35.019169 7.488255 -2.079839 1.582240 -0.018573 -3.126158
    10 0.000004 0.011442 1.352403 -0.000013 -1.370808 3.140804
    11 6.078089 0.000000 0.000000 -0.077515 0.486809 -0.725019
    12 13.446749 -0.000002 -0.000003 0.000000 0.000002 -1.433386
    13 15.996999 0.000007 0.000000 -0.817592 -0.500265 0.066433
    14 1.885325 0.833274 -2.177875 -1.101246 0.431033 0.584304
    15 1.506970 0.000001 -0.000001 0.000001 0.000002 -0.307167
    16 0.798343 0.000001 0.000005 -0.000001 0.000000 -0.280986
    17 3.950300 -0.539874 -2.108870 -0.018073 -0.074638 0.227590
    18 1.545796 -0.000001 0.000003 0.000010 0.000000 1.200743
    19 1.667397 0.000004 -0.000003 -0.000003 0.000000 1.165836
    20 3.899459 -0.475374 -1.170893 -0.056821 -0.237771 0.233769
    21 1.528213 0.000000 0.000003 0.000009 0.000003 1.061116
    22 1.528214 0.000000 0.000000 0.000005 0.000002 1.209469
    23 3.899460 -0.431802 0.168226 -0.072905 -0.302248 0.238121
    24 1.506968 0.000001 0.000000 0.000004 -0.000002 1.157109
    25 1.506964 -0.000001 -0.000001 0.000008 0.000002 1.069843
    26 3.915632 -0.278021 1.402613 -0.072042 -0.298857 0.237856
    27 1.333083 0.000001 -0.000005 0.000006 -0.000002 1.366549
    28 1.159205 0.000006 0.000003 0.000010 0.000003 0.947670
  time 31
    0 -13.098893 -12.070911 -24.816700 0.000000 0.000000 -1.570795
    1 0.000000 0.000000 0.000000 0.000000 -1.570451 -1.570799
    2 4.443612 -0.009642 0.000005 -0.000004 -0.000004 0.000790
    3 12.111174 -0.011366 -0.000420 0.000000 0.000000 0.000000
    4 -0.000511 0.011447 -1.352377 -0.000014 1.370793 3.140788
    5 6.078088 -0.000001 0.000005 1.236218 -0.445244 -1.403116
    6 13.446753 0.000000 0.000000 0.000003 0.000009 -0.823692
    7 15.996999 -0.000002 -0.000002 1.691325 -0.016292 0.238032
    8 -2.696840 7.324290 -1.920924 0.018589 0.011442 1.586441
    9 35.019169 7.488255 -2.079839 1.582240 -0.018573 -3.126158
    10 0.000004 0.011442 1.352403 -0.000013 -1.370808 3.140804
    11 6.078089 0.000000 0.000000 -0.080005 0.487122 -0.731995
    12 13.446749 -0.000002 -0.000003 0.000000 0.000002 -1.421831
    13 15.996999 0.000007 0.000000 -0.821565 -0.500532 0.060632
    14 1.885325 0.833274 -2.177875 -1.101246 0.431033 0.584304
    15 1.506970 0.000001 -0.000001 0.000001 0.000002 -0.307167
    16 0.798343 0.000001 0.000005 -0.000001 0.000000 -0.280986
    17 3.950300 -0.539874 -2.108870 -0.018073 -0.074638 0.227590
    18 1.545796 -0.000001 0.000003 0.000010 0.000000 1.200743
    19 1.667397 0.000004 -0.000003 -0.000003 0.000000 1.165836
    20 3.899459 -0.475374 -1.170893 -0.056821 -0.237771 0.233769
    21 1.528213 0.000000 0.000003 0.000009 0.000003 1.061116
    22 1.528214 0.000000 0.000000 0.000005 0.000002 1.209469
    23 3.899460 -0.431802 0.168226 -0.072905 -0.302248 0.238121
    24 1.506968 0.000001 0.000000 0.000004 -0.000002 1.157109
    25 1.506964 -0.000001 -0.000001 0.000008 0.000002 1.069843
    26 3.915632 -0.278021 1.402613 -0.072042 -0.298857 0.237856
    27 1.333083 0.000001 -0.000005 0.000006 -0.000002 1.366549
    28 1.159205 0.000006 0.000003 0.000010 0.000003 0.947670
  time 32
    0 -13.098893 -12.070911 -24.816700 0.000000 0.000000 -1.570795
    1 0.000000 0.000000 0.000000 0.000000 -1.570451 -1.570799
    2 4.443612 -0.009642 0.000005 -0.000004 -0.000004 0.000790
    3 12.111174 -0.011366 -0.000420 0.000000 0.000000 0.000000
    4 -0.000511 0.011447 -1.352377 -0.000014 1.370793 3.140788
    5 6.078088 -0.000001 0.000005 1.237356 -0.438409 -1.405789
    6 13.446753 0.000000 0.000000 0.000003 0.000009 -0.810179
    7 15.996999 -0.000002 -0.000002 1.687178 -0.018377 0.234748
    8 -2.696840 7.324290 -1.920924 0.018589 0.011442 1.586441
    9 35.019169 7.488255 -2.079839 1.582240 -0.018573 -3.126158
    10 0.000004 0.011442 1.352403 -0.000013 -1.370808 3.140804
    11 6.078089 0.000000 0.000000 -0.080426 0.488342 -0.736091
    12 13.446749 -0.000002 -0.000003 0.000000 0.000002 -1.416011
    13 15.996999 0.000007 0.000000 -0.826126 -0.502869 0.062298
    14 1.885325 0.833274 -2.177875 -1.101246 0.431033 0.584304
    15 1.506970 0.000001 -0.000001 0.000001 0.000002 -0.307167
    16 0.798343 0.000001 0.000005 -0.000001 0.000000 -0.280986
    17 3.950300 -0.539874 -2.108870 -0.018073 -0.074638 0.227590
    18 1.545796 -0.000001 0.000003 0.000010 0.000000 1.200743
    19 1.667397 0.000004 -0.000003 -0.000003 0.000000 1.165836
    20 3.899459 -0.475374 -1.170893 -0.056821 -0.237771 0.233769
    21 1.528213 0.000000 0.000003 0.000009 0.000003 1.061116
    22 1.528214 0.000000 0.000000 0.000005 0.000002 1.209469
    23 3.899460 -0.431802 0.168226 -0.072905 -0.302248 0.238121
    24 1.506968 0.000001 0.000000 0.000004 -0.000002 1.157109
    25 1.506964 -0.000001 -0.000001 0.000008 0.000002 1.069843
    26 3.915632 -0.278021 1.402613 -0.072042 -0.298857 0.237856
    27 1.333083 0.000001 -0.000005 0.000006 -0.000002 1.366549
    28 1.159205 0.000006 0.000003 0.000010 0.000003 0.947670
  time 33
    0 -13.098893 -12.070911 -24.816700 0.000000 0.000000 -1.570795
    1 0.000000 0.000000 0.000000 0.000000 -1.570451 -1.570799
    2 4.443612 -0.009642 0.000005 -0.000004 -0.000004 0.000790
    3 12.111174 -0.011366 -0.000420 0.000000 0.000000 0.000000
    4 -0.000511 0.011447 -1.352377 -0.000014 1.370793 3.140788
    5 6.078088 -0.000001 0.000005 1.239310 -0.426099 -1.410511
    6 13.446753 0.000000 0.000000 0.000003 0.000009 -0.786424
    7 15.996999 -0.000002 -0.000002 1.683091 -0.022584 0.229044
    8 -2.696840 7.324290 -1.920924 0.018589 0.011442 1.586441
    9 35.019169 7.488255 -2.079839 1.582240 -0.018573 -3.126158
    10 0.000004 0.011442 1.352403 -0.000013 -1.370808 3.140804
    11 6.078089 0.000000 0.000000 -0.081920 0.489144 -0.742061
    12 13.446749 -0.000002 -0.000003 0.000000 0.000002 -1.408831
    13 15.996999 0.000007 0.000000 -0.832223 -0.504656 0.067679
    14 1.885325 0.833274 -2.177875 -1.101246 0.431033 0.584304
    15 1.506970 0.000001 -0.000001 0.000001 0.000002 -0.307167
    16 0.798343 0.000001 0.000005 -0.000001 0.000000 -0.280986
    17 3.950300 -0.539874 -2.108870 -0.018073 -0.074638 0.227590
    18 1.545796 -0.000001 0.000003 0.000010 0.000000 1.200743
    19 1.667397 0.000004 -0.000003 -0.000003 0.000000 1.165836
    20 3.899459 -0.475374 -1.170893 -0.056821 -0.237771 0.233769
    21 1.528213 0.000000 0.000003 0.000009 0.000003 1.061116
    22 1.528214 0.000000 0.000000 0.000005 0.000002 1.209469
    23 3.899460 -0.431802 0.168226 -0.072905 -0.302248 0.238121
    24 1.506968 0.000001 0.000000 0.000004 -0.000002 1.157109
    25 1.506964 -0.000001 -0.000001 0.000008 0.000002 1.069843
    26 3.915632 -0.278021 1.402613 -0.072042 -0.298857 0.237856
    27 1.333083 0.000001 -0.000005 0.000006 -0.000002 1.366549
    28 1.159205 0.000006 0.000003 0.000010 0.000003 0.947670
  time 34
    0 -13.098893 -12.070911 -24.816700 0.000000 0.000000 -1.570795
    1 0.000000 0.000000 0.000000 0.000000 -1.570451 -1.570799
    2 4.443612 -0.009642 0.000005 -0.000004 -0.000004 0.000790
    3 12.111174 -0.011366 -0.000420 0.000000 0.000000 0.000000
    4 -0.000511 0.011447 -1.352377 -0.000014 1.370793 3.140788
    5 6.078088 -0.000001 0.000005 1.243900 -0.395390 -1.422028
    6 13.446753 0.000000 0.000000 0.000003 0.000009 -0.728028
    7 15.996999 -0.000002 -0.000002 1.680910 -0.023914 0.211594
    8 -2.696840 7.324290 -1.920924 0.018589 0.011442 1.586441
    9 35.019169 7.488255 -2.079839 1.582240 -0.018573 -3.126158
    10 0.000004 0.011442 1.352403 -0.000013 -1.370808 3.140804
    11 6.078089 0.000000 0.000000 -0.093297 0.485206 -0.761742
    12 13.446749 -0.000002 -0.000003 0.000000 0.000002 -1.382535
    13 15.996999 0.000007 0.000000 -0.841028 -0.497311 0.067775
    14 1.885325 0.833274 -2.177875 -1.101246 0.431033 0.584304
    15 1.506970 0.000001 -0.000001 0.000001 0.000002 -0.307167
    16 0.798343 0.000001 0.000005 -0.000001 0.000000 -0.280986
    17 3.950300 -0.539874 -2.108870 -0.018073 -0.074638 0.227590
    18 1.545796 -0.000001 0.000003 0.000010 0.000000 1.200743
    19 1.667397 0.000004 -0.000003 -0.000003 0.000000 1.165836
    20 3.899459 -0.475374 -1.170893 -0.056821 -0.237771 0.233769
    21 1.528213 0.000000 0.000003 0.000009 0.000003 1.061116
    22 1.528214 0.000000 0.000000 0.000005 0.000002 1.209469
    23 3.899460 -0.431802 0.168226 -0.072905 -0.302248 0.238121
    24 1.506968 0.000001 0.000000 0.000004 -0.000002 1.157109
    25 1.506964 -0.000001 -0.000001 0.000008 0.000002 1.069843
    26 3.915632 -0.278021 1.402613 -0.072042 -0.298857 0.237856
    27 1.333083 0.000001 -0.000005 0.000006 -0.000002 1.366549
    28 1.159205 0.000006 0.000003 0.000010 0.000003 0.947670
  time 35
    0 -13.098893 -12.070911 -24.816700 0.000000 0.000000 -1.570795
    1 0.000000 0.000000 0.000000 0.000000 -1.570451 -1.570799
    2 4.443612 -0.009642 0.000005 -0.000004 -0.000004 0.000790
    3 12.111174 -0.011366 -0.000420 0.000000 0.000000 0.000000
    4 -0.000511 0.011447 -1.352377 -0.000014 1.370793 3.140788
    5 6.078088 -0.000001 0.000005 1.250252 -0.346819 -1.439609
    6 13.446753 0.000000 0.000000 0.000003 0.000009 -0.636255
    7 15.996999 -0.000002 -0.000002 1.680730 -0.021493 0.182435
    8 -2.696840 7.324290 -1.920924 0.018589 0.011442 1.586441
    9 35.019169 7.488255 -2.079839 1.582240 -0.018573 -3.126158
    10 0.000004 0.011442 1.352403 -0.000013 -1.370808 3.140804
    11 6.078089 0.000000 0.000000 -0.112911 0.476424 -0.792737
    12 13.446749 -0.000002 -0.000003 0.000000 0.000002 -1.339417
    13 15.996999 0.000007 0.000000 -0.851686 -0.480834 0.061555
    14 1.885325 0.833274 -2.177875 -1.101246 0.431033 0.584304
    15 1.506970 0.000001 -0.000001 0.000001 0.000002 -0.307167
    16 0.798343 0.000001 0.000005 -0.000001 0.000000 -0.280986
    17 3.950300 -0.539874 -2.108870 -0.018073 -0.074638 0.227590
    18 1.545796 -0.000001 0.000003 0.000010 0.000000 1.200743
    19 1.667397 0.000004 -0.000003 -0.000003 0.000000 1.165836
    20 3.899459 -0.475374 -1.170893 -0.056821 -0.237771 0.233769
    21 1.528213 0.000000 0.000003 0.000009 0.000003 1.061116
    22 1.528214 0.000000 0.000000 0.000005 0.000002 1.209469
    23 3.899460 -0.431802 0.168226 -0.072905 -0.302248 0.238121
    24 1.506968 0.000001 0.000000 0.000004 -0.000002 1.157109
    25 1.506964 -0.000001 -0.000001 0.000008 0.000002 1.069843
    26 3.915632 -0.278021 1.402613 -0.072042 -0.298857 0.237856
    27 1.333083 0.000001 -0.000005 0.000006 -0.000002 1.366549
    28 1.159205 0.000006 0.000003 0.000010 0.000003 0.947670
  time 36
    0 -13.098893 -12.070911 -24.816700 0.000000 0.000000 -1.570795
    1 0.000000 0.000000 0.000000 0.000000 -1.570451 -1.570799
    2 4.443612 -0.009642 0.000005 -0.000004 -0.000004 0.000790
    3 12.111174 -0.011366 -0.000420 0.000000 0.000000 0.000000
    4 -0.000511 0.011447 -1.352377 -0.000014 1.370793 3.140788
    5 6.078088 -0.000001 0.000005 1.256304 -0.291221 -1.458964
    6 13.446753 0.000000 0.000000 0.000003 0.000009 -0.531471
    7 15.996999 -0.000002 -0.000002 1.681150 -0.017982 0.148879
    8 -2.696840 7.324290 -1.920924 0.018589 0.011442 1.586441
    9 35.019169 7.488255 -2.079839 1.582240 -0.018573 -3.126158
    10 0.000004 0.011442 1.352403 -0.000013 -1.370808 3.140804
    11 6.078089 0.000000 0.000000 -0.132831 0.466213 -0.823837
    12 13.446749 -0.000002 -0.000003 0.000000 0.000002 -1.295448
    13 15.996999 0.000007 0.000000 -0.862523 -0.461653 0.054772
    14 1.885325 0.833274 -2.177875 -1.101246 0.431033 0.584304
    15 1.506970 0.000001 -0.000001 0.000001 0.000002 -0.307167
    16 0.798343 0.000001 0.000005 -0.000001 0.000000 -0.280986
    17 3.950300 -0.539874 -2.108870 -0.018073 -0.074638 0.227590
    18 1.545796 -0.000001 0.000003 0.000010 0.000000 1.200743
    19 1.667397 0.000004 -0.000003 -0.000003 0.000000 1.165836
    20 3.899459 -0.475374 -1.170893 -0.056821 -0.237771 0.233769
    21 1.528213 0.000000 0.000003 0.000009 0.000003 1.061116
    22 1.528214 0.000000 0.000000 0.000005 0.000002 1.209469
    23 3.899460 -0.431802 0.168226 -0.072905 -0.302248 0.238121
    24 1.506968 0.000001 0.000000 0.000004 -0.000002 1.157109
    25 1.506964 -0.000001 -0.000001 0.000008 0.000002 1.069843
    26 3.915632 -0.278021 1.402613 -0.072042 -0.298857 0.237856
    27 1.333083 0.000001 -0.000005 0.000006 -0.000002 1.366549
    28 1.159205 0.000006 0.000003 0.000010 0.000003 0.947670
  time 37
    0 -13.098893 -12.070911 -24.816700 0.000000 0.000000 -1.570795
    1 0.000000 0.000000 0.000000 0.000000 -1.570451 -1.570799
    2 4.443612 -0.009642 0.000005 -0.000004 -0.000004 0.000790
    3 12.111174 -0.011366 -0.000420 0.000000 0.000000 0.000000
    4 -0.000511 0.011447 -1.352377 -0.000014 1.370793 3.140788
    5 6.078088 -0.000001 0.000005 1.261505 -0.230895 -1.479206
    6 13.446753 0.000000 0.000000 0.000003 0.000009 -0.418045
    7 15.996999 -0.000002 -0.000002 1.681869 -0.013703 0.112386
    8 -2.696840 7.324290 -1.920924 0.018589 0.011442 1.586441
    9 35.019169 7.488255 -2.079839 1.582240 -0.018573 -3.126158
    10 0.000004 0.011442 1.352403 -0.000013 -1.370808 3.140804
    11 6.078089 0.000000 0.000000 -0.151027 0.455619 -0.851848
    12 13.446749 -0.000002 -0.000003 0.000000 0.000002 -1.255261
    13 15.996999 0.000007 0.000000 -0.873180 -0.441070 0.048947
    14 1.885325 0.833274 -2.177875 -1.101246 0.431033 0.584304
    15 1.506970 0.000001 -0.000001 0.000001 0.000002 -0.307167
    16 0.798343 0.000001 0.000005 -0.000001 0.000000 -0.280986
    17 3.950300 -0.539874 -2.108870 -0.018073 -0.074638 0.227590
    18 1.545796 -0.000001 0.000003 0.000010 0.000000 1.200743
    19 1.667397 0.000004 -0.000003 -0.000003 0.000000 1.165836
    20 3.899459 -0.475374 -1.170893 -0.056821 -0.237771 0.233769
    21 1.528213 0.000000 0.000003 0.000009 0.000003 1.061116
    22 1.528214 0.000000 0.000000 0.000005 0.000002 1.209469
    23 3.899460 -0.431802 0.168226 -0.072905 -0.302248 0.238121
    24 1.506968 0.000001 0.000000 0.000004 -0.000002 1.157109
    25 1.506964 -0.000001 -0.000001 0.000008 0.000002 1.069843
    26 3.915632 -0.278021 1.402613 -0.072042 -0.298857 0.237856
    27 1.333083 0.000001 -0.000005 0.000006 -0.000002 1.366549
    28 1.159205 0.000006 0.000003 0.000010 0.000003 0.947670
  time 38
    0 -13.098893 -12.070911 -24.816700 0.000000 0.000000 -1.570795
    1 0.000000 0.000000 0.000000 0.000000 -1.570451 -1.570799
    2 4.443612 -0.009642 0.000005 -0.000004 -0.000004 0.000790
    3 12.111174 -0.011366 -0.000420 0.000000 0.000000 0.000000
    4 -0.000511 0.011447 -1.352377 -0.000014 1.370793 3.140788
    5 6.078088 -0.000001 0.000005 1.265520 -0.168175 -1.499628
    6 13.446753 0.000000 0.000000 0.000003 0.000009 -0.300273
    7 15.996999 -0.000002 -0.000002 1.682636 -0.009029 0.074430
    8 -2.696840 7.324290 -1.920924 0.018589 0.011442 1.586441
    9 35.019169 7.488255 -2.079839 1.582240 -0.018573 -3.126158
    10 0.000004 0.011442 1.352403 -0.000013 -1.370808 3.140804
    11 6.078089 0.000000 0.000000 -0.166121 0.445652 -0.874271
    12 13.446749 -0.000002 -0.000003 0.000000 0.000002 -1.222848
    13 15.996999 0.000007 0.000000 -0.883386 -0.420237 0.045555
    14 1.885325 0.833274 -2.177875 -1.101246 0.431033 0.584304
    15 1.506970 0.000001 -0.000001 0.000001 0.000002 -0.307167
    16 0.798343 0.000001 0.000005 -0.000001 0.000000 -0.280986
    17 3.950300 -0.539874 -2.108870 -0.018073 -0.074638 0.227590
    18 1.545796 -0.000001 0.000003 0.000010 0.000000 1.200743
    19 1.667397 0.000004 -0.000003 -0.000003 0.000000 1.165836
    20 3.899459 -0.475374 -1.170893 -0.056821 -0.237771 0.233769
    21 1.528213 0.000000 0.000003 0.000009 0.000003 1.061116
    22 1.528214 0.000000 0.000000 0.000005 0.000002 1.209469
    23 3.899460 -0.431802 0.168226 -0.072905 -0.302248 0.238121
    24 1.506968 0.000001 0.000000 0.000004 -0.000002 1.157109
    25 1.506964 -0.000001 -0.000001 0.000008 0.000002 1.069843
    26 3.915632 -0.278021 1.402613 -0.072042 -0.298857 0.237856
    27 1.333083 0.000001 -0.000005 0.000006 -0.000002 1.366549
    28 1.159205 0.000006 0.000003 0.000010 0.000003 0.947670
  time 39
    0 -13.098893 -12.070911 -24.816700 0.000000 0.000000 -1.570795
    1 0.000000 0.000000 0.000000 0.000000 -1.570451 -1.570799
    2 4.443612 -0.009642 0.000005 -0.000004 -0.000004 0.000790
    3 12.111174 -0.011366 -0.000420 0.000000 0.000000 0.000000
    4 -0.000511 0.011447 -1.352377 -0.000014 1.370793 3.140788
    5 6.078088 -0.000001 0.000005 1.268229 -0.105360 -1.519630
    6 13.446753 0.000000 0.000000 0.000003 0.000009 -0.182526
    7 15.996999 -0.000002 -0.000002 1.683223 -0.004319 0.036475
    8 -2.696840 7.324290 -1.920924 0.018589 0.011442 1.586441
    9 35.019169 7.488255 -2.079839 1.582240 -0.018573 -3.126158
    10 0.000004 0.011442 1.352403 -0.000013 -1.370808 3.140804
    11 6.078089 0.000000 0.000000 -0.177268 0.437219 -0.889439
    12 13.446749 -0.000002 -0.000003 0.000000 0.000002 -1.201140
    13 15.996999 0.000007 0.000000 -0.893005 -0.400204 0.045747
    14 1.885325 0.833274 -2.177875 -1.101246 0.431033 0.584304
    15 1.506970 0.000001 -0.000001 0.000001 0.000002 -0.307167
    16 0.798343 0.000001 0.000005 -0.000001 0.000000 -0.280986
    17 3.950300 -0.539874 -2.108870 -0.018073 -0.074638 0.227590
    18 1.545796 -0.000001 0.000003 0.000010 0.000000 1.200743
    19 1.667397 0.000004 -0.000003 -0.000003 0.000000 1.165836
    20 3.899459 -0.475374 -1.170893 -0.056821 -0.237771 0.233769
    21 1.528213 0.000000 0.000003 0.000009 0.000003 1.061116
    22 1.528214 0.000000 0.000000 0.000005 0.000002 1.209469
    23 3.899460 -0.431802 0.168226 -0.072905 -0.302248 0.238121
    24 1.506968 0.000001 0.000000 0.000004 -0.000002 1.157109
    25 1.506964 -0.000001 -0.000001 0.000008 0.000002 1.069843
    26 3.915632 -0.278021 1.402613 -0.072042 -0.298857 0.237856
    27 1.333083 0.000001 -0.000005 0.000006 -0.000002 1.366549
    28 1.159205 0.000006 0.000003 0.000010 0.000003 0.947670
  time 40
    0 -13.098893 -12.070911 -24.816700 0.000000 0.000000 -1.570795
    1 0.000000 0.000000 0.000000 0.000000 -1.570451 -1.570799
    2 4.443612 -0.009642 0.000005 -0.000004 -0.000004 0.000790
    3 12.111174 -0.011366 -0.000420 0.000000 0.000000 0.000000
    4 -0.000511 0.011447 -1.352377 -0.000014 1.370793 3.140788
    5 6.078088 -0.000001 0.000005 1.269619 -0.044842 -1.538626
    6 13.446753 0.000000 0.000000 0.000003 0.000009 -0.069099
    7 15.996999 -0.000002 -0.000002 1.683439 -0.000005 -0.000006
    8 -2.696840 7.324290 -1.920924 0.018589 0.011442 1.586441
    9 35.019169 7.488255 -2.079839 1.582240 -0.018573 -3.126158
    10 0.000004 0.011442 1.352403 -0.000013 -1.370808 3.140804
    11 6.078089 0.000000 0.000000 -0.184164 0.430946 -0.896832
    12 13.446749 -0.000002 -0.000003 0.000000 0.000002 -1.191199
    13 15.996999 0.000007 0.000000 -0.901946 -0.381925 0.050062
    14 1.885325 0.833274 -2.177875 -1.101246 0.431033 0.584304
    15 1.506970 0.000001 -0.000001 0.000001 0.000002 -0.307167
    16 0.798343 0.000001 0.000005 -0.000001 0.000000 -0.280986
    17 3.950300 -0.539874 -2.108870 -0.018073 -0.074638 0.227590
    18 1.545796 -0.000001 0.000003 0.000010 0.000000 1.200743
    19 1.667397 0.000004 -0.000003 -0.000003 0.000000 1.165836
    20 3.899459 -0.475374 -1.170893 -0.056821 -0.237771 0.233769
    21 1.528213 0.000000 0.000003 0.000009 0.000003 1.061116
    22 1.528214 0.000000 0.000000 0.000005 0.000002 1.209469
    23 3.899460 -0.431802 0.168226 -0.072905 -0.302248 0.238121
    24 1.506968 0.000001 0.000000 0.000004 -0.000002 1.157109
    25 1.506964 -0.000001 -0.000001 0.000008 0.000002 1.069843
    26 3.915632 -0.278021 1.402613 -0.072042 -0.298857 0.237856
    27 1.333083 0.000001 -0.000005 0.000006 -0.000002 1.366549
    28 1.159205 0.000006 0.000003 0.000010 0.000003 0.947670
end
