// Created by Crowbar 0.74
version 1
nodes
  0 "Bip01" -1
  1 "Bip01 Pelvis" 0
  2 "Bip01 Spine" 1
  3 "Bip01 Spine1" 2
  4 "Bip01 Spine2" 3
  5 "Bip01 Neck" 4
  6 "Bip01 Neck1" 5
  7 "Bip01 Head" 6
  8 "Bip01 L Clavicle" 5
  9 "Bip01 L UpperArm" 8
  10 "Bip01 L Forearm" 9
  11 "Bip01 L Hand" 10
  12 "Bip01 L Finger0" 11
  13 "Bip01 L Finger01" 12
  14 "Bip01 L Finger02" 13
  15 "Bip01 L Finger1" 11
  16 "Bip01 L Finger11" 15
  17 "Bip01 L Finger12" 16
  18 "Bip01 L Finger2" 11
  19 "Bip01 L Finger21" 18
  20 "Bip01 L Finger22" 19
  21 "Bip01 L Finger3" 11
  22 "Bip01 L Finger31" 21
  23 "Bip01 L Finger32" 22
  24 "LSleeve" 9
  25 "Bip01 R Clavicle" 5
  26 "Bip01 R UpperArm" 25
  27 "Bip01 R Forearm" 26
  28 "Bip01 R Hand" 27
  29 "Bip01 R Finger0" 28
  30 "Bip01 R Finger01" 29
  31 "Bip01 R Finger02" 30
  32 "Bip01 R Finger1" 28
  33 "Bip01 R Finger11" 32
  34 "Bip01 R Finger12" 33
  35 "Bip01 R Finger2" 28
  36 "Bip01 R Finger21" 35
  37 "Bip01 R Finger22" 36
  38 "Bip01 R Finger3" 28
  39 "Bip01 R Finger31" 38
  40 "Bip01 R Finger32" 39
  41 "RSleave" 26
  42 "Bip01 L Thigh" 2
  43 "Bip01 L Calf" 42
  44 "Bip01 L Foot" 43
  45 "Bip01 L Toe0" 44
  46 "Bip01 R Thigh" 2
  47 "Bip01 R Calf" 46
  48 "Bip01 R Foot" 47
  49 "Bip01 R Toe0" 48
  50 "RTentacle Bone Base" 1
  51 "Text04" 50
  52 "Text14" 51
  53 "Text15" 52
  54 "Text16" 53
  55 "Text17" 54
  56 "Text18" 55
  57 "Text19" 56
  58 "Text20" 57
  59 "Text21" 58
  60 "Text22" 59
  61 "Text23" 60
  62 "Text24" 61
  63 "LBack Flapa" 1
  64 "LBack Flapb" 63
  65 "RBack Flapa" 1
  66 "RBack Flapb" 65
  67 "RFront Flapa" 1
  68 "RFront Flapb" 67
  69 "Flap3a Helper" 1
  70 "Flap3b Helper" 69
  71 "Flap3c Helper" 70
  72 "LFront Flapa" 1
  73 "LFront Flapb" 72
  74 "muzzle" 28
  75 "Object08" 28
end
skeleton
  time 0
    0 2.465159 8.112260 47.307018 0.109623 -0.074568 -2.182872
    1 0.623699 0.000000 0.000001 0.000000 -1.570451 -1.570720
    2 5.131855 -0.003108 0.000008 -0.000004 -0.000001 0.034787
    3 3.906359 -0.003192 -0.000801 0.247715 0.125311 -0.003259
    4 4.133784 -0.007403 -0.003510 0.438869 0.263709 -0.201060
    5 10.751599 -0.002617 -0.000475 0.179913 -0.100203 0.063113
    6 3.346888 -0.002660 0.000000 0.000300 0.069247 0.034530
    7 3.349306 0.000001 0.000000 0.594297 -0.091279 0.177011
    8 -2.828384 -0.896586 3.401128 -3.001943 -1.028627 6.075963
    9 6.038855 0.000001 -0.000002 -1.497054 1.149121 -2.535726
    10 17.594566 0.000001 -0.000009 0.000000 0.000000 -0.784298
    11 17.982992 0.000000 -0.000004 -1.234748 0.072019 0.391205
    12 2.813691 0.799027 -0.493427 2.411861 0.529184 1.109476
    13 2.065374 0.000001 0.000000 0.000000 0.000000 0.649378
    14 2.094709 -0.000001 0.000000 0.000000 0.000000 1.093020
    15 7.521999 -0.014961 -1.158106 -0.028195 -0.168091 0.914416
    16 3.200831 0.000000 0.000001 0.000000 0.000000 1.665632
    17 2.731236 -0.000004 -0.000001 0.000000 0.000000 1.605775
    18 7.599251 -0.144508 0.591976 -0.045714 0.016169 0.990061
    19 3.840995 -0.000002 0.000001 0.000000 0.000000 1.756866
    20 3.277482 0.000000 0.000000 0.000000 0.000000 1.937387
    21 7.447636 -0.525784 2.367262 -0.139910 0.069244 1.013446
    22 1.595204 -0.000002 0.000001 0.000000 0.000000 0.255811
    23 1.772448 0.000000 0.000001 0.000000 0.000000 1.067979
    24 2.568720 -0.823214 -1.964662 -0.513251 -0.254156 3.265113
    25 -3.402624 -1.920039 -2.256568 0.324107 0.838245 3.324236
    26 6.038857 -0.000001 0.000001 -0.732852 -0.238995 0.016094
    27 17.594563 -0.000002 0.000007 0.000000 0.000000 -0.201363
    28 17.982985 0.000000 0.000000 2.272020 0.330425 -1.231934
    29 2.813691 0.799023 0.493429 -2.853948 0.431188 1.731441
    30 2.065372 -0.000001 0.000000 0.000000 0.000000 0.912348
    31 2.094709 -0.000003 0.000002 0.000000 0.000000 0.685149
    32 7.521997 -0.014964 1.158107 -0.180696 0.238409 1.353297
    33 3.200830 0.000004 -0.000002 0.000000 0.000000 1.350783
    34 2.731234 -0.000002 0.000003 0.000000 0.000000 0.924201
    35 7.599248 -0.144515 -0.591976 -0.160061 -0.087250 1.261723
    36 3.840996 0.000002 0.000001 0.000000 0.000000 1.649531
    37 3.277483 -0.000002 0.000001 0.000000 0.000000 1.255814
    38 7.447634 -0.525787 -2.367260 0.131712 -0.274362 0.887067
    39 1.595200 0.000000 -0.000003 0.000000 0.000000 0.756708
    40 1.772447 -0.000002 0.000001 0.000000 0.000000 1.255814
    41 2.428440 1.070745 2.391730 -2.576405 0.136572 -2.856275
    42 -5.128646 0.181573 6.425846 3.014786 -0.139252 2.968335
    43 22.311964 0.000001 -0.000001 0.000000 0.000000 -0.001672
    44 22.311966 0.000000 0.000001 -0.528106 -0.215985 -0.246186
    45 5.131752 6.470465 0.000000 0.000000 0.000000 1.570796
    46 -5.128645 0.181609 -6.425845 -3.131953 0.390300 2.897124
    47 22.311972 0.000001 0.000000 0.000000 0.000000 -0.572370
    48 22.311970 -0.000002 0.000000 0.400856 0.262364 0.276372
    49 5.131752 6.470465 -0.000002 0.000000 0.000000 1.570796
    50 1.732515 13.268859 0.716685 3.141592 -1.570796 0.000000
    51 -0.243900 0.272605 -0.233762 0.123921 0.047016 0.610869
    52 1.231716 -5.312594 -3.434955 0.004094 -0.856895 2.597803
    53 -4.076869 -0.033220 -0.523403 0.016736 -0.279478 0.012280
    54 -4.351360 -0.020885 -0.875657 0.193863 -0.402439 0.009153
    55 -3.981841 -0.094290 -0.625979 2.970845 -0.296023 0.040270
    56 -4.425282 -0.055111 0.530108 0.082195 0.219722 0.040785
    57 -4.231037 -0.129692 0.377255 0.128246 0.177681 0.090620
    58 -3.457006 -0.192484 0.434129 0.131522 0.287652 0.137704
    59 -2.756059 -0.118229 0.786640 0.060406 0.653385 0.099908
    60 -2.343690 0.104749 1.141248 0.020747 0.843310 -0.137748
    61 -2.164208 0.201594 0.428074 0.381404 0.335968 -0.169713
    62 -3.505564 0.543646 0.308966 0.835192 0.135804 -0.273376
    63 -18.977769 -8.487197 6.119469 -1.506331 -1.237299 -0.042823
    64 -0.718376 -20.698932 0.940713 -0.694964 0.014151 -0.117452
    65 -17.433722 -9.359584 -9.919791 1.497120 -1.420332 -2.998349
    66 -10.607174 -11.514466 -0.741484 0.679084 -0.017424 -0.071272
    67 -19.943769 11.648539 -13.642794 1.497124 -1.420334 -2.998349
    68 -3.616563 -13.786616 -2.449069 0.550847 -0.045486 -0.059615
    69 -16.448784 11.611341 -5.855840 -1.347067 -1.521033 -0.153103
    70 1.472039 -8.500338 1.893637 0.011469 0.068216 0.004938
    71 3.803593 -13.789117 -3.981745 1.476157 -1.377953 -1.329805
    72 -19.883191 13.755530 9.717843 -1.403634 -1.443846 -0.147795
    73 1.368299 -12.660733 -1.281697 -0.626971 -0.068689 0.192846
    74 49.389519 35.067635 12.791990 -1.037544 0.423055 2.039819
    75 4.004553 6.047380 1.789421 -0.260261 0.121942 2.111929
  time 1
    0 2.465159 8.112260 47.260141 0.109623 -0.074568 -2.182872
    1 0.623699 0.000000 0.000001 0.000000 -1.570451 -1.570720
    2 5.131855 -0.003108 0.000008 -0.000004 -0.000001 0.034787
    3 3.906359 -0.003192 -0.000801 0.247715 0.125311 -0.003259
    4 4.133784 -0.007403 -0.003510 0.438869 0.263709 -0.201060
    5 10.751599 -0.002617 -0.000475 0.178115 -0.099077 0.061975
    6 3.346888 -0.002660 0.000000 0.000288 0.068792 0.034458
    7 3.349306 0.000001 0.000000 0.611361 -0.081265 0.182099
    8 -2.828384 -0.908305 3.397222 -2.997940 -1.029127 6.073855
    9 6.038855 0.000001 -0.000002 -1.497054 1.148897 -2.535726
    10 17.594566 0.000001 -0.000009 0.000000 0.000000 -0.783970
    11 17.982992 0.000000 -0.000004 -1.234710 0.072084 0.391050
    12 2.813691 0.799027 -0.493427 2.411861 0.529184 1.109476
    13 2.065374 0.000001 0.000000 0.000000 0.000000 0.649378
    14 2.094709 -0.000001 0.000000 0.000000 0.000000 1.093020
    15 7.521999 -0.014961 -1.158106 -0.028195 -0.168091 0.914416
    16 3.200831 0.000000 0.000001 0.000000 0.000000 1.665632
    17 2.731236 -0.000004 -0.000001 0.000000 0.000000 1.605775
    18 7.599251 -0.144508 0.591976 -0.045714 0.016169 0.990061
    19 3.840995 -0.000002 0.000001 0.000000 0.000000 1.756866
    20 3.277482 0.000000 0.000000 0.000000 0.000000 1.937387
    21 7.447636 -0.525784 2.367262 -0.139910 0.069244 1.013446
    22 1.595204 -0.000002 0.000001 0.000000 0.000000 0.255811
    23 1.772448 0.000000 0.000001 0.000000 0.000000 1.067979
    24 2.568720 -0.823214 -1.964662 -0.514988 -0.266634 3.270914
    25 -3.394811 -1.920039 -2.260475 0.321564 0.839470 3.323651
    26 6.038857 -0.000001 0.000001 -0.732852 -0.238932 0.016136
    27 17.594563 -0.000002 0.000007 0.000000 0.000000 -0.201363
    28 17.982985 0.000000 0.000000 2.272040 0.330499 -1.231886
    29 2.813691 0.799023 0.493429 -2.853948 0.431188 1.731441
    30 2.065372 -0.000001 0.000000 0.000000 0.000000 0.912348
    31 2.094709 -0.000003 0.000002 0.000000 0.000000 0.685149
    32 7.521997 -0.014964 1.158107 -0.180696 0.238409 1.353297
    33 3.200830 0.000004 -0.000002 0.000000 0.000000 1.350783
    34 2.731234 -0.000002 0.000003 0.000000 0.000000 0.924201
    35 7.599248 -0.144515 -0.591976 -0.160061 -0.087250 1.261723
    36 3.840996 0.000002 0.000001 0.000000 0.000000 1.649531
    37 3.277483 -0.000002 0.000001 0.000000 0.000000 1.255814
    38 7.447634 -0.525787 -2.367260 0.131712 -0.274362 0.887067
    39 1.595200 0.000000 -0.000003 0.000000 0.000000 0.756708
    40 1.772447 -0.000002 0.000001 0.000000 0.000000 1.255814
    41 2.428440 1.070745 2.391730 -2.576430 0.136572 -2.856275
    42 -5.128646 0.181573 6.425846 3.014834 -0.139517 2.968117
    43 22.311964 0.000001 -0.000001 0.000000 0.000000 -0.001672
    44 22.311966 0.000000 0.000001 -0.528058 -0.216224 -0.246471
    45 5.131752 6.470465 0.000000 0.000000 0.000000 1.570796
    46 -5.128645 0.181609 -6.425845 -3.133547 0.390603 2.893161
    47 22.311972 0.000001 0.000000 0.000000 0.000000 -0.579673
    48 22.311970 -0.000002 0.000000 0.400856 0.262651 0.280025
    49 5.131752 6.470465 -0.000002 0.000000 0.000000 1.570796
    50 1.732515 13.268859 0.716685 3.141592 -1.570796 0.000000
    51 -0.243900 0.272605 -0.233762 0.123921 0.047016 0.610869
    52 1.274686 -5.304781 -3.438862 0.004058 -0.852988 2.605428
    53 -4.088588 -0.033220 -0.523403 0.018891 -0.278938 0.013623
    54 -4.359173 -0.028698 -0.875657 0.242909 -0.403326 0.011994
    55 -3.981841 -0.129448 -0.622072 2.901251 -0.295026 0.057852
    56 -4.425282 -0.062924 0.530108 0.087684 0.221280 0.043410
    57 -4.234943 -0.129692 0.381161 0.129756 0.179647 0.091914
    58 -3.468725 -0.196390 0.441941 0.131712 0.289953 0.138537
    59 -2.783403 -0.118229 0.794453 0.060083 0.649475 0.100013
    60 -2.378847 0.104749 1.141248 0.020252 0.835665 -0.133351
    61 -2.172021 0.197688 0.431980 0.372258 0.338789 -0.168075
    62 -3.505564 0.543646 0.320685 0.843243 0.142728 -0.274060
    63 -18.973863 -8.487197 6.135094 -1.506424 -1.237072 -0.042823
    64 -0.718376 -20.698932 0.940713 -0.694964 0.014223 -0.117248
    65 -17.433722 -9.359584 -9.919791 1.497120 -1.420332 -2.998349
    66 -10.607174 -11.514466 -0.741484 0.679084 -0.017340 -0.071547
    67 -19.943769 11.648539 -13.642794 1.497124 -1.420322 -2.998349
    68 -3.616563 -13.786616 -2.449069 0.550847 -0.045414 -0.059950
    69 -16.448784 11.611341 -5.855840 -1.347067 -1.521033 -0.153103
    70 1.472039 -8.500338 1.893637 0.011469 0.068216 0.004938
    71 3.803593 -13.789117 -3.981745 1.475627 -1.377953 -1.329283
    72 -19.883191 13.755530 9.717843 -1.403634 -1.443846 -0.147795
    73 1.368299 -12.660733 -1.281697 -0.627021 -0.068737 0.192750
    74 49.389519 35.067635 12.791990 -1.037544 0.423055 2.039819
    75 4.004553 6.047380 1.789421 -0.260261 0.121942 2.111929
end
