// Created by Crowbar 0.74
version 1
nodes
  0 "Bip01" -1
  1 "Bip01 Pelvis" 0
  2 "Bip01 Spine" 1
  3 "Bip01 Spine1" 2
  4 "Bip01 Spine2" 3
  5 "Bip01 Neck" 4
  6 "Bip01 Neck1" 5
  7 "Bip01 Head" 6
  8 "Bip01 L Clavicle" 5
  9 "Bip01 L UpperArm" 8
  10 "Bip01 L Forearm" 9
  11 "Bip01 L Hand" 10
  12 "Bip01 L Finger0" 11
  13 "Bip01 L Finger01" 12
  14 "Bip01 L Finger02" 13
  15 "Bip01 L Finger1" 11
  16 "Bip01 L Finger11" 15
  17 "Bip01 L Finger12" 16
  18 "Bip01 L Finger2" 11
  19 "Bip01 L Finger21" 18
  20 "Bip01 L Finger22" 19
  21 "Bip01 L Finger3" 11
  22 "Bip01 L Finger31" 21
  23 "Bip01 L Finger32" 22
  24 "LSleeve" 9
  25 "Bip01 R Clavicle" 5
  26 "Bip01 R UpperArm" 25
  27 "Bip01 R Forearm" 26
  28 "Bip01 R Hand" 27
  29 "Bip01 R Finger0" 28
  30 "Bip01 R Finger01" 29
  31 "Bip01 R Finger02" 30
  32 "Bip01 R Finger1" 28
  33 "Bip01 R Finger11" 32
  34 "Bip01 R Finger12" 33
  35 "Bip01 R Finger2" 28
  36 "Bip01 R Finger21" 35
  37 "Bip01 R Finger22" 36
  38 "Bip01 R Finger3" 28
  39 "Bip01 R Finger31" 38
  40 "Bip01 R Finger32" 39
  41 "RSleave" 26
  42 "Bip01 L Thigh" 2
  43 "Bip01 L Calf" 42
  44 "Bip01 L Foot" 43
  45 "Bip01 L Toe0" 44
  46 "Bip01 R Thigh" 2
  47 "Bip01 R Calf" 46
  48 "Bip01 R Foot" 47
  49 "Bip01 R Toe0" 48
  50 "RTentacle Bone Base" 1
  51 "Text04" 50
  52 "Text14" 51
  53 "Text15" 52
  54 "Text16" 53
  55 "Text17" 54
  56 "Text18" 55
  57 "Text19" 56
  58 "Text20" 57
  59 "Text21" 58
  60 "Text22" 59
  61 "Text23" 60
  62 "Text24" 61
  63 "LBack Flapa" 1
  64 "LBack Flapb" 63
  65 "RBack Flapa" 1
  66 "RBack Flapb" 65
  67 "RFront Flapa" 1
  68 "RFront Flapb" 67
  69 "Flap3a Helper" 1
  70 "Flap3b Helper" 69
  71 "Flap3c Helper" 70
  72 "LFront Flapa" 1
  73 "LFront Flapb" 72
  74 "muzzle" 28
  75 "Object08" 28
end
skeleton
  time 0
    0 4.457407 4.119951 46.021822 0.050227 -0.026150 -2.350752
    1 0.623698 0.000000 0.000001 0.000000 -1.570451 -1.570720
    2 5.131863 -0.003107 0.000009 -0.000004 -0.000001 0.034787
    3 3.905806 -0.003226 0.000036 -0.011061 -0.006508 -0.202707
    4 4.133422 -0.007459 0.003100 -0.380672 -0.224040 -0.274190
    5 10.751929 -0.002608 0.000021 -0.007838 -0.013591 0.206269
    6 3.346889 -0.002664 -0.000001 0.000419 0.024556 0.038437
    7 3.349306 0.000001 0.000000 0.307164 0.035202 -0.018897
    8 -3.269803 -1.052841 2.924551 -2.286366 -0.804074 5.375189
    9 6.038856 -0.000002 -0.000001 -0.527832 1.034511 -1.950488
    10 17.594561 0.000004 -0.000001 0.000000 0.000000 -0.979610
    11 17.982985 0.000002 -0.000002 -1.448512 -0.111448 0.528502
    12 2.813689 0.799022 -0.493428 2.411861 0.529184 1.109476
    13 2.065374 0.000002 -0.000002 0.000000 0.000000 0.649378
    14 2.094713 0.000001 0.000000 0.000000 0.000000 1.093020
    15 7.522000 -0.014964 -1.158104 -0.028195 -0.168091 0.914416
    16 3.200831 0.000001 0.000001 0.000000 0.000000 1.665632
    17 2.731236 0.000006 -0.000002 0.000000 0.000000 1.605775
    18 7.599250 -0.144513 0.591977 -0.045714 0.016169 0.990061
    19 3.840994 -0.000001 0.000001 0.000000 0.000000 1.756866
    20 3.277482 0.000000 0.000000 0.000000 0.000000 1.937387
    21 7.447636 -0.525790 2.367264 -0.139910 0.069244 1.013446
    22 1.595203 -0.000001 0.000000 0.000000 0.000000 0.255811
    23 1.772446 0.000001 0.000000 0.000000 0.000000 1.067979
    24 2.568720 -0.823214 -1.964662 -0.487230 0.058279 3.083355
    25 -3.347934 -1.005949 -2.854243 0.040608 0.943485 2.967905
    26 6.038857 0.000000 -0.000004 -1.609698 -0.463910 -0.146436
    27 17.594566 -0.000003 0.000002 0.000000 0.000000 -0.222529
    28 17.982990 0.000001 0.000006 2.950501 1.054142 -0.706028
    29 2.813693 0.799022 0.493428 -2.853948 0.431188 1.731441
    30 2.065370 0.000000 0.000004 0.000000 0.000000 0.912348
    31 2.094708 -0.000005 -0.000001 0.000000 0.000000 0.685149
    32 7.521998 -0.014964 1.158107 -0.180696 0.238409 1.353297
    33 3.200827 -0.000002 -0.000001 0.000000 0.000000 1.350783
    34 2.731234 0.000000 0.000002 0.000000 0.000000 0.924201
    35 7.599247 -0.144511 -0.591975 -0.160061 -0.087250 1.261723
    36 3.840998 -0.000001 -0.000002 0.000000 0.000000 1.649531
    37 3.277483 -0.000001 -0.000002 0.000000 0.000000 1.255814
    38 7.447635 -0.525789 -2.367260 0.131712 -0.274362 0.887067
    39 1.595206 -0.000001 0.000003 0.000000 0.000000 0.756708
    40 1.772447 0.000002 0.000004 0.000000 0.000000 1.255814
    41 2.428440 1.070745 2.391730 -2.576430 0.136572 -2.856275
    42 -5.128646 0.181572 6.425847 3.063287 -0.183941 2.663577
    43 22.311966 -0.000001 0.000000 0.000000 0.000000 -0.702025
    44 22.311970 0.000000 -0.000001 -0.704621 -0.177213 0.207699
    45 5.131752 6.470462 -0.000002 0.000000 0.000000 1.570796
    46 -5.128648 0.181609 -6.425846 -3.161435 0.416591 2.832056
    47 22.311970 0.000001 -0.000003 0.000000 0.000000 -0.519992
    48 22.311970 -0.000001 -0.000001 0.238794 0.353170 0.206614
    49 5.131752 6.470465 -0.000002 0.000000 0.000000 1.570796
    50 1.732519 13.268857 0.716685 3.141592 -1.570796 0.000000
    51 -0.228274 0.280418 -0.233762 0.053919 0.017330 0.779734
    52 -3.291859 -5.230560 -3.751371 0.007090 -1.107409 1.324787
    53 -3.717483 0.142567 -0.414024 -0.336746 -0.232390 -0.087060
    54 -4.347454 0.490849 -0.547522 -1.541037 -0.244183 -0.228933
    55 -4.118564 0.440882 0.428741 -0.455107 0.199350 -0.203256
    56 -4.683102 0.218335 0.643393 -0.112842 0.268727 -0.084633
    57 -4.867775 0.132035 0.752266 -0.037561 0.317505 -0.045118
    58 -5.042992 0.112213 0.938050 -0.016016 0.357534 -0.035671
    59 -5.842090 0.159123 1.138213 -0.004626 0.378453 -0.045573
    60 -5.812545 0.225846 1.195937 0.024501 0.421929 -0.074754
    61 -3.492374 0.170343 0.592142 0.104713 0.350119 -0.091587
    62 -3.900108 0.438174 1.008206 1.176753 0.500825 -0.239881
    63 -18.946518 -8.491104 6.334319 -1.503931 -1.249763 -0.045369
    64 1.254340 -13.401834 1.429010 0.630607 -0.052866 -0.175565
    65 -17.433722 -9.359584 -9.919791 1.497120 -1.420332 -2.998349
    66 -11.943152 -12.201987 1.598432 0.616352 -0.008639 -0.108808
    67 -19.943769 11.648539 -13.642794 1.497124 -1.420334 -2.998349
    68 -4.643938 -12.544391 0.125228 -0.418383 0.021652 -0.252830
    69 -16.448784 11.611341 -5.855840 -1.347067 -1.521033 -0.153103
    70 1.472039 -8.500338 1.893637 0.010499 0.059372 0.001846
    71 2.854346 -13.097689 -3.208284 1.529401 -1.369975 -1.379488
    72 -19.922255 13.708653 9.608465 -1.403634 -1.443846 -0.147795
    73 2.298014 -13.469352 0.483982 0.465250 -0.062061 0.025073
    74 49.389526 35.067642 12.791999 -1.037544 0.423055 2.039819
    75 4.004553 6.047381 1.789422 -0.260261 0.121942 2.111929
  time 1
    0 4.457407 4.119951 45.982758 0.050227 -0.026150 -2.350752
    1 0.623698 0.000000 0.000001 0.000000 -1.570451 -1.570720
    2 5.131863 -0.003107 0.000009 -0.000004 -0.000001 0.034787
    3 3.905806 -0.003226 0.000036 -0.011061 -0.006508 -0.202707
    4 4.133422 -0.007459 0.003100 -0.380672 -0.224040 -0.274190
    5 10.751929 -0.002608 0.000021 -0.007838 -0.013591 0.206269
    6 3.346889 -0.002664 -0.000001 0.000419 0.024556 0.038437
    7 3.349306 0.000001 0.000000 0.307164 0.035202 -0.018897
    8 -3.269803 -1.052841 2.924551 -2.286366 -0.804074 5.375189
    9 6.038856 -0.000002 -0.000001 -0.527740 1.034572 -1.950399
    10 17.594561 0.000004 -0.000001 0.000000 0.000000 -0.979657
    11 17.982985 0.000002 -0.000002 -1.448550 -0.111470 0.528502
    12 2.813689 0.799022 -0.493428 2.411861 0.529184 1.109476
    13 2.065374 0.000002 -0.000002 0.000000 0.000000 0.649378
    14 2.094713 0.000001 0.000000 0.000000 0.000000 1.093020
    15 7.522000 -0.014964 -1.158104 -0.028195 -0.168091 0.914416
    16 3.200831 0.000001 0.000001 0.000000 0.000000 1.665632
    17 2.731236 0.000006 -0.000002 0.000000 0.000000 1.605775
    18 7.599250 -0.144513 0.591977 -0.045714 0.016169 0.990061
    19 3.840994 -0.000001 0.000001 0.000000 0.000000 1.756866
    20 3.277482 0.000000 0.000000 0.000000 0.000000 1.937387
    21 7.447636 -0.525790 2.367264 -0.139910 0.069244 1.013446
    22 1.595203 -0.000001 0.000000 0.000000 0.000000 0.255811
    23 1.772446 0.000001 0.000000 0.000000 0.000000 1.067979
    24 2.568720 -0.823214 -1.964662 -0.487335 0.055824 3.085356
    25 -3.347934 -1.005949 -2.854243 0.040608 0.943485 2.967905
    26 6.038857 0.000000 -0.000004 -1.609698 -0.463942 -0.146436
    27 17.594566 -0.000003 0.000002 0.000000 0.000000 -0.222513
    28 17.982990 0.000001 0.000006 2.950425 1.054104 -0.706076
    29 2.813693 0.799022 0.493428 -2.853948 0.431188 1.731441
    30 2.065370 0.000000 0.000004 0.000000 0.000000 0.912348
    31 2.094708 -0.000005 -0.000001 0.000000 0.000000 0.685149
    32 7.521998 -0.014964 1.158107 -0.180696 0.238409 1.353297
    33 3.200827 -0.000002 -0.000001 0.000000 0.000000 1.350783
    34 2.731234 0.000000 0.000002 0.000000 0.000000 0.924201
    35 7.599247 -0.144511 -0.591975 -0.160061 -0.087250 1.261723
    36 3.840998 -0.000001 -0.000002 0.000000 0.000000 1.649531
    37 3.277483 -0.000001 -0.000002 0.000000 0.000000 1.255814
    38 7.447635 -0.525789 -2.367260 0.131712 -0.274362 0.887067
    39 1.595206 -0.000001 0.000003 0.000000 0.000000 0.756708
    40 1.772447 0.000002 0.000004 0.000000 0.000000 1.255814
    41 2.428440 1.070745 2.391730 -2.576430 0.136572 -2.856275
    42 -5.128646 0.181572 6.425847 3.063862 -0.184319 2.660830
    43 22.311966 -0.000001 0.000000 0.000000 0.000000 -0.707228
    44 22.311970 0.000000 -0.000001 -0.704597 -0.177379 0.210168
    45 5.131752 6.470462 -0.000002 0.000000 0.000000 1.570796
    46 -5.128648 0.181609 -6.425846 -3.163017 0.416849 2.828375
    47 22.311970 0.000001 -0.000003 0.000000 0.000000 -0.526638
    48 22.311970 -0.000001 -0.000001 0.238772 0.353499 0.209883
    49 5.131752 6.470465 -0.000002 0.000000 0.000000 1.570796
    50 1.732519 13.268857 0.716685 3.141592 -1.570796 0.000000
    51 -0.228274 0.280418 -0.233762 0.053919 0.017330 0.779734
    52 -3.244983 -5.226653 -3.751371 0.007126 -1.109350 1.343412
    53 -3.713577 0.138661 -0.417931 -0.338074 -0.233301 -0.086257
    54 -4.343548 0.486943 -0.551428 -1.561147 -0.245705 -0.228357
    55 -4.118564 0.433070 0.436554 -0.448687 0.202286 -0.201051
    56 -4.683102 0.218335 0.647299 -0.111464 0.269134 -0.083782
    57 -4.871681 0.132035 0.756173 -0.038040 0.317182 -0.045789
    58 -5.050804 0.116119 0.938050 -0.016518 0.356671 -0.036769
    59 -5.849903 0.163030 1.134307 -0.004810 0.377671 -0.046834
    60 -5.812545 0.233659 1.195937 0.025009 0.421913 -0.076730
    61 -3.488467 0.174250 0.592142 0.107381 0.350843 -0.094074
    62 -3.892295 0.449894 1.008206 1.183941 0.500884 -0.246229
    63 -18.954331 -8.491104 6.310881 -1.504024 -1.249512 -0.045369
    64 1.254340 -13.401834 1.429010 0.630607 -0.052854 -0.175637
    65 -17.433722 -9.359584 -9.919791 1.497120 -1.420332 -2.998349
    66 -11.943152 -12.201987 1.598432 0.616352 -0.008675 -0.108424
    67 -19.943769 11.648539 -13.642794 1.497124 -1.420334 -2.998349
    68 -4.643938 -12.544391 0.125228 -0.418335 0.021568 -0.252387
    69 -16.448784 11.611341 -5.855840 -1.347067 -1.521033 -0.153103
    70 1.472039 -8.500338 1.893637 0.010499 0.059372 0.001846
    71 2.854346 -13.097689 -3.208284 1.528190 -1.369933 -1.378142
    72 -19.922255 13.712560 9.608465 -1.403634 -1.443846 -0.147795
    73 2.290202 -13.473258 0.480076 0.465099 -0.062109 0.025229
    74 49.389526 35.067642 12.791999 -1.037544 0.423055 2.039819
    75 4.004553 6.047381 1.789422 -0.260261 0.121942 2.111929
end
