// Created by Crowbar 0.74
version 1
nodes
  0 "ValveBiped.Bip01" -1
  1 "ValveBiped.Bip01_Pelvis" 0
  2 "ValveBiped.Bip01_Spine" 1
  3 "ValveBiped.Bip01_Spine1" 2
  4 "ValveBiped.Bip01_Spine2" 3
  5 "ValveBiped.Bip01_Neck" 4
  6 "ValveBiped.Bip01_Neck1" 5
  7 "ValveBiped.Bip01_L_Clavicle" 5
  8 "ValveBiped.Bip01_L_UpperArm" 7
  9 "ValveBiped.Bip01_L_Forearm" 8
  10 "ValveBiped.Bip01_L_Hand" 9
  11 "ValveBiped.Bip01_L_Finger0" 10
  12 "ValveBiped.Bip01_L_Finger01" 11
  13 "ValveBiped.Bip01_L_Finger02" 12
  14 "ValveBiped.Bip01_L_Finger1" 10
  15 "ValveBiped.Bip01_L_Finger11" 14
  16 "ValveBiped.Bip01_L_Finger12" 15
  17 "ValveBiped.Bip01_L_Finger2" 10
  18 "ValveBiped.Bip01_L_Finger21" 17
  19 "ValveBiped.Bip01_L_Finger22" 18
  20 "ValveBiped.Bip01_L_Finger3" 10
  21 "ValveBiped.Bip01_L_Finger31" 20
  22 "ValveBiped.Bip01_L_Finger32" 21
  23 "LSleeve" 8
  24 "ValveBiped.Bip01_R_Clavicle" 5
  25 "ValveBiped.Bip01_R_UpperArm" 24
  26 "ValveBiped.Bip01_R_Forearm" 25
  27 "ValveBiped.Bip01_R_Hand" 26
  28 "ValveBiped.Bip01_R_Finger0" 27
  29 "ValveBiped.Bip01_R_Finger01" 28
  30 "ValveBiped.Bip01_R_Finger02" 29
  31 "ValveBiped.Bip01_R_Finger1" 27
  32 "ValveBiped.Bip01_R_Finger11" 31
  33 "ValveBiped.Bip01_R_Finger12" 32
  34 "ValveBiped.Bip01_R_Finger2" 27
  35 "ValveBiped.Bip01_R_Finger21" 34
  36 "ValveBiped.Bip01_R_Finger22" 35
  37 "ValveBiped.Bip01_R_Finger3" 27
  38 "ValveBiped.Bip01_R_Finger31" 37
  39 "ValveBiped.Bip01_R_Finger32" 38
  40 "muzzle" 27
  41 "RSleave" 25
  42 "ValveBiped.Bip01_L_Thigh" 2
  43 "ValveBiped.Bip01_L_Calf" 42
  44 "ValveBiped.Bip01_L_Foot" 43
  45 "ValveBiped.Bip01_L_Toe0" 44
  46 "ValveBiped.Bip01_R_Thigh" 2
  47 "ValveBiped.Bip01_R_Calf" 46
  48 "ValveBiped.Bip01_R_Foot" 47
  49 "ValveBiped.Bip01_R_Toe0" 48
  50 "LBack_Flapa" 1
  51 "LBack_Flapb" 50
  52 "RBack_Flapa" 1
  53 "RBack_Flapb" 52
  54 "RFront_Flapa" 1
  55 "RFront_Flapb" 54
  56 "Flap3a_Helper" 1
  57 "Flap3b_Helper" 56
  58 "Flap3c_Helper" 57
  59 "LFront_Flapa" 1
  60 "LFront_Flapb" 59
  61 "Bip01" -1
  62 "Bip01 Pelvis" 61
  63 "Bip01 Spine" 62
  64 "Bip01 Spine1" 63
  65 "Bip01 Spine2" 64
  66 "Bip01 Neck" 65
  67 "Bip01 R Clavicle" 66
  68 "Bip01 R UpperArm" 67
  69 "Bip01 R Forearm" 68
  70 "Bip01 R Hand" 69
  71 "Object08" 70
  72 "ValveBiped.Bip01_Head" 6
end
skeleton
  time 0
    0 4.457407 4.119951 46.021824 0.050227 -0.026150 -2.350749
    1 0.623698 0.000000 -0.000001 -0.000172 -1.570451 -1.570623
    2 5.131866 -0.003107 0.000009 -0.000004 -0.000001 0.034787
    3 3.905806 -0.003226 0.000036 -0.011061 -0.006508 -0.202707
    4 4.133420 -0.007458 0.003100 -0.380672 -0.224040 -0.274190
    5 10.751928 -0.002609 0.000021 -0.007838 -0.013591 0.206269
    6 3.346893 -0.002663 -0.000001 0.000419 0.024556 0.038437
    7 -3.269790 -1.052840 2.924554 -2.286366 -0.804073 -0.907996
    8 6.038857 -0.000001 0.000003 -0.527833 1.034511 -1.950489
    9 17.594570 0.000000 0.000001 0.000000 0.000000 -0.979610
    10 17.982985 -0.000001 -0.000005 -1.448512 -0.111448 0.528502
    11 2.813692 0.799023 -0.493430 2.411861 0.529184 1.109475
    12 2.065374 0.000002 -0.000002 0.000000 0.000000 0.649377
    13 2.094712 -0.000004 0.000000 0.000000 0.000000 1.093020
    14 7.522005 -0.014961 -1.158111 -0.028195 -0.168091 0.914416
    15 3.200831 -0.000001 0.000002 0.000000 0.000000 1.665632
    16 2.731239 0.000009 -0.000001 0.000000 0.000000 1.605775
    17 7.599254 -0.144510 0.591976 -0.045714 0.016169 0.990061
    18 3.840994 -0.000001 -0.000001 0.000000 0.000000 1.756866
    19 3.277485 0.000001 0.000001 0.000000 0.000000 1.937387
    20 7.447641 -0.525787 2.367264 -0.139910 0.069244 1.013446
    21 1.595204 0.000002 -0.000003 0.000000 0.000000 0.255811
    22 1.772445 0.000000 0.000000 0.000000 0.000000 1.067979
    23 2.568721 -0.823217 -1.964659 -0.487230 0.058279 3.083354
    24 -3.347918 -1.005948 -2.854247 0.040608 0.943484 2.967905
    25 6.038857 0.000001 -0.000002 -1.609698 -0.463910 -0.146436
    26 17.594572 0.000000 -0.000003 0.000000 0.000000 -0.222529
    27 17.982990 0.000000 0.000007 2.950501 1.054142 -0.706028
    28 2.813695 0.799021 0.493427 -2.853948 0.431188 1.731441
    29 2.065371 0.000000 0.000004 0.000000 0.000000 0.912348
    30 2.094708 -0.000004 0.000000 0.000000 0.000000 0.685149
    31 7.521999 -0.014964 1.158105 -0.180696 0.238408 1.353297
    32 3.200830 -0.000001 -0.000002 0.000000 0.000000 1.350783
    33 2.731235 -0.000002 0.000002 0.000000 0.000000 0.924201
    34 7.599250 -0.144512 -0.591979 -0.160061 -0.087250 1.261723
    35 3.840999 0.000001 0.000000 0.000000 0.000000 1.649531
    36 3.277485 -0.000001 -0.000002 0.000000 0.000000 1.255814
    37 7.447638 -0.525789 -2.367262 0.131712 -0.274362 0.887067
    38 1.595207 0.000002 0.000003 0.000000 0.000000 0.756708
    39 1.772447 -0.000001 0.000002 0.000000 0.000000 1.255814
    40 49.389515 35.067646 12.791992 -1.037544 0.423055 2.039819
    41 2.428442 1.070746 2.391726 -2.576429 0.136572 -2.856275
    42 -5.128646 0.181573 6.425847 3.063287 -0.183941 2.663577
    43 22.311964 0.000000 0.000000 0.000000 0.000000 -0.702025
    44 22.311972 0.000001 0.000000 -0.704621 -0.177213 0.207699
    45 5.131753 6.470461 0.000000 0.000000 0.000000 1.570796
    46 -5.128648 0.181610 -6.425847 3.121750 0.416591 2.832056
    47 22.311975 0.000001 -0.000002 0.000000 0.000000 -0.519992
    48 22.311974 0.000002 -0.000003 0.238794 0.353170 0.206614
    49 5.131753 6.470467 -0.000003 0.000000 0.000000 1.570796
    50 -18.946518 -8.491105 6.334322 -1.503932 -1.249764 -0.045370
    51 1.254339 -13.401827 1.429008 0.630607 -0.052866 -0.175565
    52 -17.433720 -9.359583 -9.919792 1.497122 -1.420333 -2.998350
    53 -11.943152 -12.201987 1.598430 0.616352 -0.008639 -0.108808
    54 -19.943773 11.648539 -13.642796 1.497124 -1.420334 -2.998348
    55 -4.643939 -12.544382 0.125229 -0.418383 0.021652 -0.252830
    56 -16.448780 11.611341 -5.855842 -1.347066 -1.521033 -0.153104
    57 1.472036 -8.500329 1.893637 0.010499 0.059372 0.001846
    58 2.854342 -13.097678 -3.208283 1.529402 -1.369975 -1.379489
    59 -19.922253 13.708653 9.608464 -1.403633 -1.443846 -0.147795
    60 2.298016 -13.469349 0.483981 0.465250 -0.062061 0.025073
    61 2.828451 -0.071583 49.705528 0.000000 0.000000 -3.141591
    62 0.623697 0.000000 0.000000 -0.000086 -1.570451 -1.570709
    63 5.131855 -0.003106 0.000007 -0.000004 -0.000001 0.034787
    64 3.906619 -0.003290 0.000000 0.000000 0.000000 0.046513
    65 4.136856 -0.008541 0.000000 0.000000 0.000000 0.069769
    66 10.751477 -0.002665 0.000000 0.000000 0.000000 0.030000
    67 -3.078401 -1.591902 -2.889401 0.017994 1.370765 3.128431
    68 6.038855 0.000001 -0.000012 0.184657 -0.830690 -0.408307
    69 17.594568 -0.000002 0.000013 0.000000 0.000000 -0.210123
    70 17.982992 0.000000 -0.000002 2.379876 -0.004797 0.044742
    71 -0.764556 15.856689 2.549062 -0.173243 1.122108 -2.662383
    72 3.349313 0.000000 0.000000 0.307164 0.035202 -0.018897
end
