// Created by Crowbar 0.74
version 1
nodes
  0 "ValveBiped.Bip01" -1
  1 "ValveBiped.Bip01_Pelvis" 0
  2 "ValveBiped.Bip01_Spine" 1
  3 "ValveBiped.Bip01_Spine1" 2
  4 "ValveBiped.Bip01_Spine2" 3
  5 "ValveBiped.Bip01_Neck" 4
  6 "ValveBiped.Bip01_Neck1" 5
  7 "ValveBiped.Bip01_L_Clavicle" 5
  8 "ValveBiped.Bip01_L_UpperArm" 7
  9 "ValveBiped.Bip01_L_Forearm" 8
  10 "ValveBiped.Bip01_L_Hand" 9
  11 "ValveBiped.Bip01_L_Finger0" 10
  12 "ValveBiped.Bip01_L_Finger01" 11
  13 "ValveBiped.Bip01_L_Finger02" 12
  14 "ValveBiped.Bip01_L_Finger1" 10
  15 "ValveBiped.Bip01_L_Finger11" 14
  16 "ValveBiped.Bip01_L_Finger12" 15
  17 "ValveBiped.Bip01_L_Finger2" 10
  18 "ValveBiped.Bip01_L_Finger21" 17
  19 "ValveBiped.Bip01_L_Finger22" 18
  20 "ValveBiped.Bip01_L_Finger3" 10
  21 "ValveBiped.Bip01_L_Finger31" 20
  22 "ValveBiped.Bip01_L_Finger32" 21
  23 "LSleeve" 8
  24 "ValveBiped.Bip01_R_Clavicle" 5
  25 "ValveBiped.Bip01_R_UpperArm" 24
  26 "ValveBiped.Bip01_R_Forearm" 25
  27 "ValveBiped.Bip01_R_Hand" 26
  28 "ValveBiped.Bip01_R_Finger0" 27
  29 "ValveBiped.Bip01_R_Finger01" 28
  30 "ValveBiped.Bip01_R_Finger02" 29
  31 "ValveBiped.Bip01_R_Finger1" 27
  32 "ValveBiped.Bip01_R_Finger11" 31
  33 "ValveBiped.Bip01_R_Finger12" 32
  34 "ValveBiped.Bip01_R_Finger2" 27
  35 "ValveBiped.Bip01_R_Finger21" 34
  36 "ValveBiped.Bip01_R_Finger22" 35
  37 "ValveBiped.Bip01_R_Finger3" 27
  38 "ValveBiped.Bip01_R_Finger31" 37
  39 "ValveBiped.Bip01_R_Finger32" 38
  40 "muzzle" 27
  41 "RSleave" 25
  42 "ValveBiped.Bip01_L_Thigh" 2
  43 "ValveBiped.Bip01_L_Calf" 42
  44 "ValveBiped.Bip01_L_Foot" 43
  45 "ValveBiped.Bip01_L_Toe0" 44
  46 "ValveBiped.Bip01_R_Thigh" 2
  47 "ValveBiped.Bip01_R_Calf" 46
  48 "ValveBiped.Bip01_R_Foot" 47
  49 "ValveBiped.Bip01_R_Toe0" 48
  50 "LBack_Flapa" 1
  51 "LBack_Flapb" 50
  52 "RBack_Flapa" 1
  53 "RBack_Flapb" 52
  54 "RFront_Flapa" 1
  55 "RFront_Flapb" 54
  56 "Flap3a_Helper" 1
  57 "Flap3b_Helper" 56
  58 "Flap3c_Helper" 57
  59 "LFront_Flapa" 1
  60 "LFront_Flapb" 59
  61 "Bip01" -1
  62 "Bip01 Pelvis" 61
  63 "Bip01 Spine" 62
  64 "Bip01 Spine1" 63
  65 "Bip01 Spine2" 64
  66 "Bip01 Neck" 65
  67 "Bip01 R Clavicle" 66
  68 "Bip01 R UpperArm" 67
  69 "Bip01 R Forearm" 68
  70 "Bip01 R Hand" 69
  71 "Object08" 70
  72 "ValveBiped.Bip01_Head" 6
end
skeleton
  time 0
    0 2.465158 8.112261 47.307018 0.109623 -0.074568 -2.182869
    1 0.623699 0.000000 0.000003 -0.000086 -1.570451 -1.570709
    2 5.131856 -0.003108 0.000008 -0.000004 -0.000001 0.034787
    3 3.906358 -0.003192 -0.000801 0.247715 0.125311 -0.003259
    4 4.133784 -0.007402 -0.003509 0.438869 0.263709 -0.201060
    5 10.751598 -0.002613 -0.000475 0.179913 -0.100203 0.063113
    6 3.346888 -0.002661 0.000001 0.000300 0.069247 0.034530
    7 -2.828373 -0.896584 3.401131 -3.001943 -1.028626 -0.207222
    8 6.038857 0.000001 0.000004 -1.497055 1.149120 -2.535726
    9 17.594570 0.000001 -0.000007 0.000000 0.000000 -0.784298
    10 17.982986 -0.000002 -0.000008 -1.234748 0.072019 0.391205
    11 2.813693 0.799026 -0.493428 2.411861 0.529184 1.109475
    12 2.065376 0.000002 0.000000 0.000000 0.000000 0.649377
    13 2.094712 -0.000004 0.000000 0.000000 0.000000 1.093020
    14 7.522003 -0.014960 -1.158111 -0.028195 -0.168091 0.914416
    15 3.200829 -0.000001 0.000003 0.000000 0.000000 1.665632
    16 2.731236 -0.000001 0.000000 0.000000 0.000000 1.605775
    17 7.599254 -0.144507 0.591976 -0.045714 0.016169 0.990061
    18 3.840993 -0.000002 0.000000 0.000000 0.000000 1.756915
    19 3.277484 0.000004 0.000002 0.000000 0.000000 1.937387
    20 7.447637 -0.525785 2.367265 -0.139910 0.069244 1.013446
    21 1.595206 0.000000 -0.000001 0.000000 0.000000 0.255811
    22 1.772452 -0.000001 0.000001 0.000000 0.000000 1.067979
    23 2.568722 -0.823216 -1.964659 -0.513251 -0.254156 -3.018072
    24 -3.402614 -1.920040 -2.256571 0.324107 0.838245 -2.958949
    25 6.038854 0.000003 0.000003 -0.732852 -0.238995 0.016094
    26 17.594566 -0.000002 0.000005 0.000000 0.000000 -0.201363
    27 17.982985 -0.000001 0.000008 2.272021 0.330425 -1.231934
    28 2.813690 0.799022 0.493428 -2.853948 0.431229 1.731441
    29 2.065372 -0.000001 0.000001 0.000000 0.000000 0.912348
    30 2.094710 -0.000002 0.000002 0.000000 0.000000 0.685149
    31 7.521997 -0.014965 1.158105 -0.180696 0.238408 1.353297
    32 3.200826 0.000003 -0.000002 0.000000 0.000000 1.350783
    33 2.731232 -0.000003 0.000001 0.000000 0.000000 0.924201
    34 7.599247 -0.144516 -0.591978 -0.160061 -0.087250 1.261723
    35 3.840996 -0.000002 -0.000003 0.000000 0.000000 1.649531
    36 3.277481 -0.000001 0.000000 0.000000 0.000000 1.255814
    37 7.447635 -0.525790 -2.367260 0.131712 -0.274362 0.887067
    38 1.595203 0.000002 -0.000003 0.000000 0.000000 0.756708
    39 1.772444 0.000001 0.000002 0.000000 0.000000 1.255814
    40 49.389507 35.067627 12.791980 -1.037544 0.423055 2.039819
    41 2.428439 1.070744 2.391727 -2.576405 0.136572 -2.856275
    42 -5.128646 0.181574 6.425847 3.014786 -0.139252 2.968335
    43 22.311966 0.000001 -0.000001 0.000000 0.000000 -0.001672
    44 22.311970 0.000000 0.000000 -0.528106 -0.215984 -0.246186
    45 5.131753 6.470465 0.000001 0.000000 0.000000 1.570796
    46 -5.128645 0.181609 -6.425846 -3.131953 0.390300 2.897124
    47 22.311975 0.000001 -0.000001 0.000000 0.000000 -0.572370
    48 22.311975 -0.000002 -0.000001 0.400856 0.262364 0.276372
    49 5.131753 6.470466 -0.000003 0.000000 0.000000 1.570796
    50 -18.977776 -8.487199 6.119474 -1.506331 -1.237299 -0.042823
    51 -0.718378 -20.698927 0.940713 -0.694964 0.014151 -0.117452
    52 -17.433725 -9.359584 -9.919792 1.497122 -1.420333 -2.998350
    53 -10.607175 -11.514467 -0.741485 0.679084 -0.017424 -0.071272
    54 -19.943777 11.648540 -13.642797 1.497126 -1.420334 -2.998349
    55 -3.616562 -13.786608 -2.449069 0.550847 -0.045486 -0.059615
    56 -16.448784 11.611341 -5.855842 -1.347067 -1.521033 -0.153103
    57 1.472035 -8.500330 1.893637 0.011469 0.068216 0.004938
    58 3.803590 -13.789109 -3.981745 1.476157 -1.377953 -1.329804
    59 -19.883194 13.755529 9.717842 -1.403633 -1.443846 -0.147795
    60 1.368301 -12.660732 -1.281697 -0.626971 -0.068689 0.192846
    61 2.828451 -0.071583 49.705528 0.000000 0.000000 -3.141591
    62 0.623697 0.000000 0.000000 -0.000086 -1.570451 -1.570709
    63 5.131855 -0.003106 0.000007 -0.000004 -0.000001 0.034787
    64 3.906619 -0.003290 0.000000 0.000000 0.000000 0.046513
    65 4.136856 -0.008541 0.000000 0.000000 0.000000 0.069769
    66 10.751477 -0.002665 0.000000 0.000000 0.000000 0.030000
    67 -3.078401 -1.591902 -2.889401 0.017994 1.370765 3.128431
    68 6.038855 0.000001 -0.000012 0.184657 -0.830690 -0.408307
    69 17.594568 -0.000002 0.000013 0.000000 0.000000 -0.210123
    70 17.982992 0.000000 -0.000002 2.379876 -0.004797 0.044742
    71 -7.729331 29.542356 -9.627236 0.607470 0.255156 -1.396406
    72 3.349312 -0.000002 -0.000001 0.594297 -0.091279 0.177011
end
