// Created by Crowbar 0.74
version 1
nodes
  0 "Bip01" -1
  1 "Bip01 Pelvis" 0
  2 "Bip01 Spine" 1
  3 "Bip01 Neck" 2
  4 "Bip01 R Clavicle" 3
  5 "Bip01 R UpperArm" 4
  6 "Bip01 R Forearm" 5
  7 "Bip01 R Hand" 6
  8 "Bip01 R Finger0" 7
  9 "Bip01 R Finger01" 8
  10 "Bip01 R Finger02" 9
  11 "Bip01 R Finger1" 7
  12 "Bip01 R Finger11" 11
  13 "Bip01 R Finger12" 12
  14 "Bip01 R Finger2" 7
  15 "Bip01 R Finger21" 14
  16 "Bip01 R Finger22" 15
  17 "Bip01 R Finger3" 7
  18 "Bip01 R Finger31" 17
  19 "Bip01 R Finger32" 18
  20 "Bip01 R Finger4" 7
  21 "Bip01 R Finger41" 20
  22 "Bip01 R Finger42" 21
  23 "Dummy14" 7
end
skeleton
  time 0
    0 0.134087 2.725324 -24.816700 0.000000 0.000000 -1.570795
    1 0.000000 0.000000 0.000000 -0.000086 -1.570451 -1.570709
    2 4.443617 -0.009642 0.000006 -0.000004 -0.000001 0.000796
    3 12.111411 -0.011446 0.000000 0.000000 0.000000 0.000000
    4 0.000010 0.011449 -1.352403 -0.000014 1.370796 3.140783
    5 6.078085 0.000000 0.000003 0.894385 -0.582210 -1.016244
    6 13.446754 0.000002 0.000001 0.000000 0.000000 -1.428897
    7 15.997000 -0.000003 -0.000001 1.469645 -0.107442 0.268047
    8 1.885325 0.833276 2.177878 1.155813 -0.579400 0.719240
    9 1.506962 -0.000001 -0.000002 0.000000 0.000000 -0.139626
    10 0.798348 -0.000001 0.000002 0.000000 0.000000 -0.148345
    11 3.950302 -0.539878 2.108871 -0.044172 -0.150800 0.291243
    12 1.545797 0.000001 0.000000 0.000000 0.000000 0.427615
    13 1.667398 0.000000 0.000000 0.000000 0.000000 0.314161
    14 3.899456 -0.475377 1.170890 0.000796 0.000000 0.000000
    15 1.528215 -0.000002 -0.000001 0.000000 0.000000 0.244353
    16 1.528217 0.000005 -0.000005 0.000000 0.000000 0.479965
    17 3.899460 -0.431805 -0.168227 0.000796 0.000000 0.000000
    18 1.506963 0.000000 0.000002 0.000000 0.000000 0.270536
    19 1.506960 -0.000001 0.000000 0.000000 0.000000 -0.034901
    20 3.915632 -0.278020 -1.402607 0.000796 0.000000 0.000000
    21 1.333078 -0.000001 -0.000001 0.000000 0.000000 0.087283
    22 1.159204 -0.000001 -0.000003 0.000000 0.000000 0.218166
    23 7.048948 4.318974 -1.101198 1.587526 -0.821333 3.144905
  time 1
    0 0.134087 2.725324 -24.816700 0.000000 0.000000 -1.570795
    1 0.000000 0.000000 0.000000 -0.000086 -1.570451 -1.570709
    2 4.443617 -0.009642 0.000006 -0.000004 -0.000001 0.000796
    3 12.111411 -0.011446 0.000000 0.000000 0.000000 0.000000
    4 0.000010 0.011449 -1.352403 -0.000014 1.370796 3.140783
    5 6.078085 0.000000 0.000003 0.944245 -0.361137 -0.974942
    6 13.446754 0.000002 0.000001 0.000000 0.000000 -1.321775
    7 15.997000 -0.000003 -0.000001 1.438054 -0.064285 0.194078
    8 1.885325 0.833276 2.177878 1.059615 -0.621898 0.794751
    9 1.506962 -0.000001 -0.000002 0.000000 0.000000 -0.139626
    10 0.798348 -0.000001 0.000002 0.000000 0.000000 -0.142413
    11 3.950302 -0.539878 2.108871 -0.034225 -0.153341 0.225554
    12 1.545797 0.000001 0.000000 0.000000 0.000000 0.478310
    13 1.667398 0.000000 0.000000 0.000000 0.000000 0.378219
    14 3.899456 -0.475377 1.170890 0.000796 0.000000 -0.012375
    15 1.528215 -0.000002 -0.000001 0.000000 0.000000 0.276472
    16 1.528217 0.000005 -0.000005 0.000000 0.000000 0.586236
    17 3.899460 -0.431805 -0.168227 0.000796 0.000000 0.000000
    18 1.506963 0.000000 0.000002 0.000000 0.000000 0.356561
    19 1.506960 -0.000001 0.000000 0.000000 0.000000 0.088217
    20 3.915632 -0.278020 -1.402607 0.000796 0.000000 0.000000
    21 1.333078 -0.000001 -0.000001 0.000000 0.000000 0.180719
    22 1.159204 -0.000001 -0.000003 0.000000 0.000000 0.307156
    23 7.048948 4.318974 -1.101198 1.587526 -0.821333 3.144905
  time 2
    0 0.134087 2.725324 -24.816700 0.000000 0.000000 -1.570795
    1 0.000000 0.000000 0.000000 -0.000086 -1.570451 -1.570709
    2 4.443617 -0.009642 0.000006 -0.000004 -0.000001 0.000796
    3 12.111411 -0.011446 0.000000 0.000000 0.000000 0.000000
    4 0.000010 0.011449 -1.352403 -0.000014 1.370796 3.140783
    5 6.078085 0.000000 0.000003 1.001920 -0.137284 -0.923627
    6 13.446754 0.000002 0.000001 0.000000 0.000000 -1.212196
    7 15.997000 -0.000003 -0.000001 1.402542 -0.022675 0.117149
    8 1.885325 0.833276 2.177878 0.954345 -0.658750 0.879258
    9 1.506962 -0.000001 -0.000002 0.000000 0.000000 -0.139626
    10 0.798348 -0.000001 0.000002 0.000000 0.000000 -0.136337
    11 3.950302 -0.539878 2.108871 -0.023870 -0.155270 0.158263
    12 1.545797 0.000001 0.000000 0.000000 0.000000 0.530191
    13 1.667398 0.000000 0.000000 0.000000 0.000000 0.443762
    14 3.899456 -0.475377 1.170890 0.000796 0.000012 -0.025049
    15 1.528215 -0.000002 -0.000001 0.000000 0.000000 0.309334
    16 1.528217 0.000005 -0.000005 0.000000 0.000000 0.695007
    17 3.899460 -0.431805 -0.168227 0.000796 0.000000 0.000000
    18 1.506963 0.000000 0.000002 0.000000 0.000000 0.444588
    19 1.506960 -0.000001 0.000000 0.000000 0.000000 0.214205
    20 3.915632 -0.278020 -1.402607 0.000796 0.000000 0.000000
    21 1.333078 -0.000001 -0.000001 0.000000 0.000000 0.276353
    22 1.159204 -0.000001 -0.000003 0.000000 0.000000 0.398224
    23 7.048948 4.318974 -1.101198 1.587526 -0.821333 3.144905
  time 3
    0 0.134087 2.725324 -24.816700 0.000000 0.000000 -1.570795
    1 0.000000 0.000000 0.000000 -0.000086 -1.570451 -1.570709
    2 4.443617 -0.009642 0.000006 -0.000004 -0.000001 0.000796
    3 12.111411 -0.011446 0.000000 0.000000 0.000000 0.000000
    4 0.000010 0.011449 -1.352403 -0.000014 1.370796 3.140783
    5 6.078085 0.000000 0.000003 1.070549 0.082986 -0.859875
    6 13.446754 0.000002 0.000001 0.000000 0.000000 -1.102560
    7 15.997000 -0.000003 -0.000001 1.363956 0.016047 0.038794
    8 1.885325 0.833276 2.177878 0.842634 -0.688053 0.970524
    9 1.506962 -0.000001 -0.000002 0.000000 0.000000 -0.139626
    10 0.798348 -0.000001 0.000002 0.000000 0.000000 -0.130273
    11 3.950302 -0.539878 2.108871 -0.013420 -0.156517 0.090957
    12 1.545797 0.000001 0.000000 0.000000 0.000000 0.582084
    13 1.667398 0.000000 0.000000 0.000000 0.000000 0.509318
    14 3.899456 -0.475377 1.170890 0.000796 0.000024 -0.037723
    15 1.528215 -0.000002 -0.000001 0.000000 0.000000 0.342183
    16 1.528217 0.000005 -0.000005 0.000000 0.000000 0.803759
    17 3.899460 -0.431805 -0.168227 0.000796 0.000000 0.000000
    18 1.506963 0.000000 0.000002 0.000000 0.000000 0.532627
    19 1.506960 -0.000001 0.000000 0.000000 0.000000 0.340194
    20 3.915632 -0.278020 -1.402607 0.000796 0.000000 0.000000
    21 1.333078 -0.000001 -0.000001 0.000000 0.000000 0.371987
    22 1.159204 -0.000001 -0.000003 0.000000 0.000000 0.489309
    23 7.048948 4.318974 -1.101198 1.587526 -0.821333 3.144905
  time 4
    0 0.134087 2.725324 -24.816700 0.000000 0.000000 -1.570795
    1 0.000000 0.000000 0.000000 -0.000086 -1.570451 -1.570709
    2 4.443617 -0.009642 0.000006 -0.000004 -0.000001 0.000796
    3 12.111411 -0.011446 0.000000 0.000000 0.000000 0.000000
    4 0.000010 0.011449 -1.352403 -0.000014 1.370796 3.140783
    5 6.078085 0.000000 0.000003 1.154353 0.292938 -0.780009
    6 13.446754 0.000002 0.000001 0.000000 0.000000 -0.995494
    7 15.997000 -0.000003 -0.000001 1.323371 0.050839 -0.039238
    8 1.885325 0.833276 2.177878 0.728222 -0.708618 1.065246
    9 1.506962 -0.000001 -0.000002 0.000000 0.000000 -0.139626
    10 0.798348 -0.000001 0.000002 0.000000 0.000000 -0.124340
    11 3.950302 -0.539878 2.108871 -0.003149 -0.157056 0.025153
    12 1.545797 0.000001 0.000000 0.000000 0.000000 0.632791
    13 1.667398 0.000000 0.000000 0.000000 0.000000 0.573376
    14 3.899456 -0.475377 1.170890 0.000796 0.000036 -0.050110
    15 1.528215 -0.000002 -0.000001 0.000000 0.000000 0.374302
    16 1.528217 0.000005 -0.000005 0.000000 0.000000 0.910049
    17 3.899460 -0.431805 -0.168227 0.000796 0.000000 0.000000
    18 1.506963 0.000000 0.000002 0.000000 0.000000 0.618664
    19 1.506960 -0.000001 0.000000 0.000000 0.000000 0.463288
    20 3.915632 -0.278020 -1.402607 0.000796 0.000000 0.000000
    21 1.333078 -0.000001 -0.000001 0.000000 0.000000 0.465423
    22 1.159204 -0.000001 -0.000003 0.000000 0.000000 0.578300
    23 7.048948 4.318974 -1.101198 1.587526 -0.821333 3.144905
  time 5
    0 0.134087 2.725324 -24.816700 0.000000 0.000000 -1.570795
    1 0.000000 0.000000 0.000000 -0.000086 -1.570451 -1.570709
    2 4.443617 -0.009642 0.000006 -0.000004 -0.000001 0.000796
    3 12.111411 -0.011446 0.000000 0.000000 0.000000 0.000000
    4 0.000010 0.011449 -1.352403 -0.000014 1.370796 3.140783
    5 6.078085 0.000000 0.000003 1.258323 0.485234 -0.679256
    6 13.446754 0.000002 0.000001 0.000000 0.000000 -0.893400
    7 15.997000 -0.000003 -0.000001 1.282171 0.080932 -0.115052
    8 1.885325 0.833276 2.177878 0.615680 -0.720279 1.159105
    9 1.506962 -0.000001 -0.000002 0.000000 0.000000 -0.139626
    10 0.798348 -0.000001 0.000002 0.000000 0.000000 -0.118683
    11 3.950302 -0.539878 2.108871 0.006655 -0.156948 -0.037546
    12 1.545797 0.000001 0.000000 0.000000 0.000000 0.681137
    13 1.667398 0.000000 0.000000 0.000000 0.000000 0.634437
    14 3.899456 -0.475377 1.170890 0.000796 0.000048 -0.061910
    15 1.528215 -0.000002 -0.000001 0.000000 0.000000 0.404923
    16 1.528217 0.000005 -0.000005 0.000000 0.000000 1.011358
    17 3.899460 -0.431805 -0.168227 0.000796 0.000000 0.000000
    18 1.506963 0.000000 0.000002 0.000000 0.000000 0.700675
    19 1.506960 -0.000001 0.000000 0.000000 0.000000 0.580655
    20 3.915632 -0.278020 -1.402607 0.000796 0.000000 0.000000
    21 1.333078 -0.000001 -0.000001 0.000000 0.000000 0.554514
    22 1.159204 -0.000001 -0.000003 0.000000 0.000000 0.663151
    23 7.048948 4.318974 -1.101198 1.587526 -0.821333 3.144905
  time 6
    0 0.134087 2.725324 -24.816700 0.000000 0.000000 -1.570795
    1 0.000000 0.000000 0.000000 -0.000086 -1.570451 -1.570709
    2 4.443617 -0.009642 0.000006 -0.000004 -0.000001 0.000796
    3 12.111411 -0.011446 0.000000 0.000000 0.000000 0.000000
    4 0.000010 0.011449 -1.352403 -0.000014 1.370796 3.140783
    5 6.078085 0.000000 0.000003 1.387365 0.652250 -0.552847
    6 13.446754 0.000002 0.000001 0.000000 0.000000 -0.798789
    7 15.997000 -0.000003 -0.000001 1.241971 0.105932 -0.186528
    8 1.885325 0.833276 2.177878 0.509856 -0.723851 1.247698
    9 1.506962 -0.000001 -0.000002 0.000000 0.000000 -0.139626
    10 0.798348 -0.000001 0.000002 0.000000 0.000000 -0.113446
    11 3.950302 -0.539878 2.108871 0.015727 -0.156301 -0.095669
    12 1.545797 0.000001 0.000000 0.000000 0.000000 0.725923
    13 1.667398 0.000000 0.000000 0.000000 0.000000 0.691016
    14 3.899456 -0.475377 1.170890 0.000796 0.000048 -0.072849
    15 1.528215 -0.000002 -0.000001 0.000000 0.000000 0.433290
    16 1.528217 0.000005 -0.000005 0.000000 0.000000 1.105245
    17 3.899460 -0.431805 -0.168227 0.000796 0.000000 0.000000
    18 1.506963 0.000000 0.000002 0.000000 0.000000 0.776669
    19 1.506960 -0.000001 0.000000 0.000000 0.000000 0.689401
    20 3.915632 -0.278020 -1.402607 0.000796 0.000000 0.000000
    21 1.333078 -0.000001 -0.000001 0.000000 0.000000 0.637045
    22 1.159204 -0.000001 -0.000003 0.000000 0.000000 0.741752
    23 -21.205821 -34.748624 0.367597 1.587526 -0.821333 3.144905
  time 7
    0 0.134087 2.725324 -24.816700 0.000000 0.000000 -1.570795
    1 0.000000 0.000000 0.000000 -0.000086 -1.570451 -1.570709
    2 4.443617 -0.009642 0.000006 -0.000004 -0.000001 0.000796
    3 12.111411 -0.011446 0.000000 0.000000 0.000000 0.000000
    4 0.000010 0.011449 -1.352403 -0.000014 1.370796 3.140783
    5 6.078085 0.000000 0.000003 1.387365 0.652250 -0.552847
    6 13.446754 0.000002 0.000001 0.000000 0.000000 -0.798789
    7 15.997000 -0.000003 -0.000001 1.241971 0.105932 -0.186528
    8 1.885325 0.833276 2.177878 0.509856 -0.723851 1.247698
    9 1.506962 -0.000001 -0.000002 0.000000 0.000000 -0.139626
    10 0.798348 -0.000001 0.000002 0.000000 0.000000 -0.113446
    11 3.950302 -0.539878 2.108871 0.015727 -0.156301 -0.095669
    12 1.545797 0.000001 0.000000 0.000000 0.000000 0.725923
    13 1.667398 0.000000 0.000000 0.000000 0.000000 0.691016
    14 3.899456 -0.475377 1.170890 0.000796 0.000048 -0.072849
    15 1.528215 -0.000002 -0.000001 0.000000 0.000000 0.433290
    16 1.528217 0.000005 -0.000005 0.000000 0.000000 1.105245
    17 3.899460 -0.431805 -0.168227 0.000796 0.000000 0.000000
    18 1.506963 0.000000 0.000002 0.000000 0.000000 0.776669
    19 1.506960 -0.000001 0.000000 0.000000 0.000000 0.689401
    20 3.915632 -0.278020 -1.402607 0.000796 0.000000 0.000000
    21 1.333078 -0.000001 -0.000001 0.000000 0.000000 0.637045
    22 1.159204 -0.000001 -0.000003 0.000000 0.000000 0.741752
    23 -22.319136 -34.537680 0.211342 1.587526 -0.821333 3.144905
  time 8
    0 0.134087 2.725324 -24.816700 0.000000 0.000000 -1.570795
    1 0.000000 0.000000 0.000000 -0.000086 -1.570451 -1.570709
    2 4.443617 -0.009642 0.000006 -0.000004 -0.000001 0.000796
    3 12.111411 -0.011446 0.000000 0.000000 0.000000 0.000000
    4 0.000010 0.011449 -1.352403 -0.000014 1.370796 3.140783
    5 6.078085 0.000000 0.000003 1.387365 0.652250 -0.552847
    6 13.446754 0.000002 0.000001 0.000000 0.000000 -0.798789
    7 15.997000 -0.000003 -0.000001 1.241971 0.105932 -0.186528
    8 1.885325 0.833276 2.177878 0.509856 -0.723851 1.247698
    9 1.506962 -0.000001 -0.000002 0.000000 0.000000 -0.139626
    10 0.798348 -0.000001 0.000002 0.000000 0.000000 -0.113446
    11 3.950302 -0.539878 2.108871 0.015727 -0.156301 -0.095669
    12 1.545797 0.000001 0.000000 0.000000 0.000000 0.725923
    13 1.667398 0.000000 0.000000 0.000000 0.000000 0.691016
    14 3.899456 -0.475377 1.170890 0.000796 0.000048 -0.072849
    15 1.528215 -0.000002 -0.000001 0.000000 0.000000 0.433290
    16 1.528217 0.000005 -0.000005 0.000000 0.000000 1.105245
    17 3.899460 -0.431805 -0.168227 0.000796 0.000000 0.000000
    18 1.506963 0.000000 0.000002 0.000000 0.000000 0.776669
    19 1.506960 -0.000001 0.000000 0.000000 0.000000 0.689401
    20 3.915632 -0.278020 -1.402607 0.000796 0.000000 0.000000
    21 1.333078 -0.000001 -0.000001 0.000000 0.000000 0.637045
    22 1.159204 -0.000001 -0.000003 0.000000 0.000000 0.741752
    23 -20.467517 -37.885439 -1.526992 1.587526 -0.821333 3.144905
  time 9
    0 0.134087 2.725324 -24.816700 0.000000 0.000000 -1.570795
    1 0.000000 0.000000 0.000000 -0.000086 -1.570451 -1.570709
    2 4.443617 -0.009642 0.000006 -0.000004 -0.000001 0.000796
    3 12.111411 -0.011446 0.000000 0.000000 0.000000 0.000000
    4 0.000010 0.011449 -1.352403 -0.000014 1.370796 3.140783
    5 6.078085 0.000000 0.000003 1.387365 0.652250 -0.552847
    6 13.446754 0.000002 0.000001 0.000000 0.000000 -0.798789
    7 15.997000 -0.000003 -0.000001 1.241971 0.105932 -0.186528
    8 1.885325 0.833276 2.177878 0.509856 -0.723851 1.247698
    9 1.506962 -0.000001 -0.000002 0.000000 0.000000 -0.139626
    10 0.798348 -0.000001 0.000002 0.000000 0.000000 -0.113446
    11 3.950302 -0.539878 2.108871 0.015727 -0.156301 -0.095669
    12 1.545797 0.000001 0.000000 0.000000 0.000000 0.725923
    13 1.667398 0.000000 0.000000 0.000000 0.000000 0.691016
    14 3.899456 -0.475377 1.170890 0.000796 0.000048 -0.072849
    15 1.528215 -0.000002 -0.000001 0.000000 0.000000 0.433290
    16 1.528217 0.000005 -0.000005 0.000000 0.000000 1.105245
    17 3.899460 -0.431805 -0.168227 0.000796 0.000000 0.000000
    18 1.506963 0.000000 0.000002 0.000000 0.000000 0.776669
    19 1.506960 -0.000001 0.000000 0.000000 0.000000 0.689401
    20 3.915632 -0.278020 -1.402607 0.000796 0.000000 0.000000
    21 1.333078 -0.000001 -0.000001 0.000000 0.000000 0.637045
    22 1.159204 -0.000001 -0.000003 0.000000 0.000000 0.741752
    23 -20.760495 -37.346360 -2.937192 1.587526 -0.821333 3.144905
  time 10
    0 0.134087 2.725324 -24.816700 0.000000 0.000000 -1.570795
    1 0.000000 0.000000 0.000000 -0.000086 -1.570451 -1.570709
    2 4.443617 -0.009642 0.000006 -0.000004 -0.000001 0.000796
    3 12.111411 -0.011446 0.000000 0.000000 0.000000 0.000000
    4 0.000010 0.011449 -1.352403 -0.000014 1.370796 3.140783
    5 6.078085 0.000000 0.000003 1.387365 0.652250 -0.552847
    6 13.446754 0.000002 0.000001 0.000000 0.000000 -0.798789
    7 15.997000 -0.000003 -0.000001 1.241971 0.105932 -0.186528
    8 1.885325 0.833276 2.177878 0.509856 -0.723851 1.247698
    9 1.506962 -0.000001 -0.000002 0.000000 0.000000 -0.139626
    10 0.798348 -0.000001 0.000002 0.000000 0.000000 -0.113446
    11 3.950302 -0.539878 2.108871 0.015727 -0.156301 -0.095669
    12 1.545797 0.000001 0.000000 0.000000 0.000000 0.725923
    13 1.667398 0.000000 0.000000 0.000000 0.000000 0.691016
    14 3.899456 -0.475377 1.170890 0.000796 0.000048 -0.072849
    15 1.528215 -0.000002 -0.000001 0.000000 0.000000 0.433290
    16 1.528217 0.000005 -0.000005 0.000000 0.000000 1.105245
    17 3.899460 -0.431805 -0.168227 0.000796 0.000000 0.000000
    18 1.506963 0.000000 0.000002 0.000000 0.000000 0.776669
    19 1.506960 -0.000001 0.000000 0.000000 0.000000 0.689401
    20 3.915632 -0.278020 -1.402607 0.000796 0.000000 0.000000
    21 1.333078 -0.000001 -0.000001 0.000000 0.000000 0.637045
    22 1.159204 -0.000001 -0.000003 0.000000 0.000000 0.741752
    23 -19.756558 -37.092446 -4.691151 1.587526 -0.821333 3.144905
end
