// Created by Crowbar 0.74
version 1
nodes
  0 "Bip01" -1
  1 "Bip01 Pelvis" 0
  2 "Bip01 Spine" 1
  3 "Bip01 Neck" 2
  4 "Bip01 R Clavicle" 3
  5 "Bip01 R UpperArm" 4
  6 "Bip01 R Forearm" 5
  7 "Bip01 R Hand" 6
  8 "Bip01 R Finger0" 7
  9 "Bip01 R Finger01" 8
  10 "Bip01 R Finger02" 9
  11 "Bip01 R Finger1" 7
  12 "Bip01 R Finger11" 11
  13 "Bip01 R Finger12" 12
  14 "Bip01 R Finger2" 7
  15 "Bip01 R Finger21" 14
  16 "Bip01 R Finger22" 15
  17 "Bip01 R Finger3" 7
  18 "Bip01 R Finger31" 17
  19 "Bip01 R Finger32" 18
  20 "Bip01 R Finger4" 7
  21 "Bip01 R Finger41" 20
  22 "Bip01 R Finger42" 21
  23 "Dummy14" 7
end
skeleton
  time 0
    0 0.134087 2.725324 -24.816700 0.000000 0.000000 -1.570795
    1 0.000000 0.000000 0.000000 -0.000086 -1.570451 -1.570709
    2 4.443617 -0.009642 0.000006 -0.000004 -0.000001 0.000796
    3 12.111411 -0.011446 0.000000 0.000000 0.000000 0.000000
    4 0.000010 0.011449 -1.352403 -0.000014 1.370796 3.140783
    5 6.078085 0.000000 0.000002 1.236844 0.320655 -1.086450
    6 13.446753 -0.000004 0.000002 0.000000 0.000000 -0.462568
    7 15.997003 -0.000001 0.000003 0.779088 0.108892 -0.220936
    8 1.885332 0.833276 2.177878 0.463350 -0.723192 1.286632
    9 1.506963 0.000000 0.000000 0.000000 0.000000 -0.139626
    10 0.798349 0.000001 -0.000006 0.000000 0.000000 -0.111157
    11 3.950310 -0.539876 2.108872 0.055923 -0.146869 -0.360355
    12 1.545794 0.000002 0.000001 0.000000 0.000000 0.508942
    13 1.667400 -0.000008 0.000000 0.000000 0.000000 0.479201
    14 3.899461 -0.475374 1.170890 0.000772 0.000204 -0.260302
    15 1.528214 0.000000 0.000000 0.000000 0.000000 0.263085
    16 1.528220 -0.000002 0.000002 0.000000 0.000000 0.963747
    17 3.899465 -0.431802 -0.168227 0.000796 0.000000 0.000000
    18 1.506966 -0.000001 0.000006 0.000000 0.000000 0.809986
    19 1.506961 0.000001 -0.000002 0.000000 0.000000 0.737096
    20 3.915637 -0.278020 -1.402604 0.000796 0.000000 0.000000
    21 1.333084 0.000000 -0.000002 0.000000 0.000000 0.673235
    22 1.159206 0.000000 -0.000002 0.000000 0.000000 0.776224
    23 -23.037908 -42.116036 -4.695058 1.587526 -0.821333 3.144905
  time 1
    0 0.134087 2.725324 -24.816700 0.000000 0.000000 -1.570795
    1 0.000000 0.000000 0.000000 -0.000086 -1.570451 -1.570709
    2 4.443617 -0.009642 0.000006 -0.000004 -0.000001 0.000796
    3 12.111411 -0.011446 0.000000 0.000000 0.000000 0.000000
    4 0.000010 0.011449 -1.352403 -0.000014 1.370796 3.140783
    5 6.078085 0.000000 0.000002 1.217704 0.185827 -1.207892
    6 13.446753 -0.000004 0.000002 0.000000 0.000000 -0.410063
    7 15.997003 -0.000001 0.000003 0.685697 0.106855 -0.209922
    8 1.885332 0.833276 2.177878 0.478448 -0.723551 1.273982
    9 1.506963 0.000000 0.000000 0.000000 0.000000 -0.139626
    10 0.798349 0.000001 -0.000006 0.000000 0.000000 -0.111900
    11 3.950310 -0.539876 2.108872 0.062479 -0.144220 -0.405536
    12 1.545794 0.000002 0.000001 0.000000 0.000000 0.449595
    13 1.667400 -0.000008 0.000000 0.000000 0.000000 0.418187
    14 3.899461 -0.475374 1.170890 0.000772 0.000228 -0.299623
    15 1.528214 0.000000 0.000000 0.000000 0.000000 0.218155
    16 1.528220 -0.000002 0.000002 0.000000 0.000000 0.909476
    17 3.899465 -0.431802 -0.168227 0.000796 0.000000 0.000000
    18 1.506966 -0.000001 0.000006 0.000000 0.000000 0.799164
    19 1.506961 0.000001 -0.000002 0.000000 0.000000 0.721585
    20 3.915637 -0.278020 -1.402604 0.000796 0.000000 0.000000
    21 1.333084 0.000000 -0.000002 0.000000 0.000000 0.661474
    22 1.159206 0.000000 -0.000002 0.000000 0.000000 0.765034
    23 -27.854461 -42.776213 -5.855249 1.587526 -0.821333 3.144905
  time 2
    0 0.134087 2.725324 -24.816700 0.000000 0.000000 -1.570795
    1 0.000000 0.000000 0.000000 -0.000086 -1.570451 -1.570709
    2 4.443617 -0.009642 0.000006 -0.000004 -0.000001 0.000796
    3 12.111411 -0.011446 0.000000 0.000000 0.000000 0.000000
    4 0.000010 0.011449 -1.352403 -0.000014 1.370796 3.140783
    5 6.078085 0.000000 0.000002 1.211943 0.052747 -1.315958
    6 13.446753 -0.000004 0.000002 0.000000 0.000000 -0.364415
    7 15.997003 -0.000001 0.000003 0.602644 0.105908 -0.198705
    8 1.885332 0.833276 2.177878 0.493546 -0.723767 1.261331
    9 1.506963 0.000000 0.000000 0.000000 0.000000 -0.139626
    10 0.798349 0.000001 -0.000006 0.000000 0.000000 -0.112643
    11 3.950310 -0.539876 2.108872 0.068123 -0.141656 -0.445162
    12 1.545794 0.000002 0.000001 0.000000 0.000000 0.395724
    13 1.667400 -0.000008 0.000000 0.000000 0.000000 0.362627
    14 3.899461 -0.475374 1.170890 0.000760 0.000252 -0.334736
    15 1.528214 0.000000 0.000000 0.000000 0.000000 0.177443
    16 1.528220 -0.000002 0.000002 0.000000 0.000000 0.859442
    17 3.899465 -0.431802 -0.168227 0.000796 0.000000 0.000000
    18 1.506966 -0.000001 0.000006 0.000000 0.000000 0.788330
    19 1.506961 0.000001 -0.000002 0.000000 0.000000 0.706086
    20 3.915637 -0.278020 -1.402604 0.000796 0.000000 0.000000
    21 1.333084 0.000000 -0.000002 0.000000 0.000000 0.649712
    22 1.159206 0.000000 -0.000002 0.000000 0.000000 0.753827
    23 -33.823393 -40.045661 -7.757651 1.587526 -0.821333 3.144905
  time 3
    0 0.134087 2.725324 -24.816700 0.000000 0.000000 -1.570795
    1 0.000000 0.000000 0.000000 -0.000086 -1.570451 -1.570709
    2 4.443617 -0.009642 0.000006 -0.000004 -0.000001 0.000796
    3 12.111411 -0.011446 0.000000 0.000000 0.000000 0.000000
    4 0.000010 0.011449 -1.352403 -0.000014 1.370796 3.140783
    5 6.078085 0.000000 0.000002 1.215451 -0.066603 -1.407167
    6 13.446753 -0.000004 0.000002 0.000000 0.000000 -0.326365
    7 15.997003 -0.000001 0.000003 0.534349 0.105812 -0.190016
    8 1.885332 0.833276 2.177878 0.505181 -0.723839 1.251588
    9 1.506963 0.000000 0.000000 0.000000 0.000000 -0.139626
    10 0.798349 0.000001 -0.000006 0.000000 0.000000 -0.113219
    11 3.950310 -0.539876 2.108872 0.072714 -0.139367 -0.477974
    12 1.545794 0.000002 0.000001 0.000000 0.000000 0.351944
    13 1.667400 -0.000008 0.000000 0.000000 0.000000 0.317553
    14 3.899461 -0.475374 1.170890 0.000748 0.000276 -0.363531
    15 1.528214 0.000000 0.000000 0.000000 0.000000 0.144330
    16 1.528220 -0.000002 0.000002 0.000000 0.000000 0.819139
    17 3.899465 -0.431802 -0.168227 0.000796 0.000000 0.000000
    18 1.506966 -0.000001 0.000006 0.000000 0.000000 0.780001
    19 1.506961 0.000001 -0.000002 0.000000 0.000000 0.694172
    20 3.915637 -0.278020 -1.402604 0.000796 0.000000 0.000000
    21 1.333084 0.000000 -0.000002 0.000000 0.000000 0.640652
    22 1.159206 0.000000 -0.000002 0.000000 0.000000 0.745209
    23 -39.768887 -36.830719 -9.187382 1.587526 -0.821333 3.144905
  time 4
    0 0.134087 2.725324 -24.816700 0.000000 0.000000 -1.570795
    1 0.000000 0.000000 0.000000 -0.000086 -1.570451 -1.570709
    2 4.443617 -0.009642 0.000006 -0.000004 -0.000001 0.000796
    3 12.111411 -0.011446 0.000000 0.000000 0.000000 0.000000
    4 0.000010 0.011449 -1.352403 -0.000014 1.370796 3.140783
    5 6.078085 0.000000 0.000002 1.221812 -0.161045 -1.476043
    6 13.446753 -0.000004 0.000002 0.000000 0.000000 -0.296771
    7 15.997003 -0.000001 0.000003 0.485386 0.105932 -0.186528
    8 1.885332 0.833276 2.177878 0.509856 -0.723851 1.247698
    9 1.506963 0.000000 0.000000 0.000000 0.000000 -0.139626
    10 0.798349 0.000001 -0.000006 0.000000 0.000000 -0.113446
    11 3.950310 -0.539876 2.108872 0.076129 -0.137533 -0.502714
    12 1.545794 0.000002 0.000001 0.000000 0.000000 0.322894
    13 1.667400 -0.000008 0.000000 0.000000 0.000000 0.287987
    14 3.899461 -0.475374 1.170890 0.000748 0.000288 -0.383960
    15 1.528214 0.000000 0.000000 0.000000 0.000000 0.122182
    16 1.528220 -0.000002 0.000002 0.000000 0.000000 0.794122
    17 3.899465 -0.431802 -0.168227 0.000796 0.000000 0.000000
    18 1.506966 -0.000001 0.000006 0.000000 0.000000 0.776669
    19 1.506961 0.000001 -0.000002 0.000000 0.000000 0.689401
    20 3.915637 -0.278020 -1.402604 0.000796 0.000000 0.000000
    21 1.333084 0.000000 -0.000002 0.000000 0.000000 0.637045
    22 1.159206 0.000000 -0.000002 0.000000 0.000000 0.741752
    23 -45.300306 -34.111886 -9.738180 1.587526 -0.821333 3.144905
  time 5
    0 0.134087 2.725324 -24.816700 0.000000 0.000000 -1.570795
    1 0.000000 0.000000 0.000000 -0.000086 -1.570451 -1.570709
    2 4.443617 -0.009642 0.000006 -0.000004 -0.000001 0.000796
    3 12.111411 -0.011446 0.000000 0.000000 0.000000 0.000000
    4 0.000010 0.011449 -1.352403 -0.000014 1.370796 3.140783
    5 6.078085 0.000000 0.000002 1.226376 -0.237459 -1.526302
    6 13.446753 -0.000004 0.000002 0.000000 0.000000 -0.276032
    7 15.997003 -0.000001 0.000003 0.454102 0.105932 -0.186528
    8 1.885332 0.833276 2.177878 0.509856 -0.723851 1.247698
    9 1.506963 0.000000 0.000000 0.000000 0.000000 -0.139626
    10 0.798349 0.000001 -0.000006 0.000000 0.000000 -0.113446
    11 3.950310 -0.539876 2.108872 0.078418 -0.136251 -0.519479
    12 1.545794 0.000002 0.000001 0.000000 0.000000 0.306235
    13 1.667400 -0.000008 0.000000 0.000000 0.000000 0.271328
    14 3.899461 -0.475374 1.170890 0.000736 0.000300 -0.396821
    15 1.528214 0.000000 0.000000 0.000000 0.000000 0.109323
    16 1.528220 -0.000002 0.000002 0.000000 0.000000 0.781260
    17 3.899465 -0.431802 -0.168227 0.000796 0.000000 0.000000
    18 1.506966 -0.000001 0.000006 0.000000 0.000000 0.776669
    19 1.506961 0.000001 -0.000002 0.000000 0.000000 0.689401
    20 3.915637 -0.278020 -1.402604 0.000796 0.000000 0.000000
    21 1.333084 0.000000 -0.000002 0.000000 0.000000 0.637045
    22 1.159206 0.000000 -0.000002 0.000000 0.000000 0.741752
    23 -49.562155 -31.818847 -10.136630 1.587526 -0.821333 3.144905
  time 6
    0 0.134087 2.725324 -24.816700 0.000000 0.000000 -1.570795
    1 0.000000 0.000000 0.000000 -0.000086 -1.570451 -1.570709
    2 4.443617 -0.009642 0.000006 -0.000004 -0.000001 0.000796
    3 12.111411 -0.011446 0.000000 0.000000 0.000000 0.000000
    4 0.000010 0.011449 -1.352403 -0.000014 1.370796 3.140783
    5 6.078085 0.000000 0.000002 1.229057 -0.310434 -1.567017
    6 13.446753 -0.000004 0.000002 0.000000 0.000000 -0.263177
    7 15.997003 -0.000001 0.000003 0.434732 0.105932 -0.186528
    8 1.885332 0.833276 2.177878 0.509856 -0.723851 1.247698
    9 1.506963 0.000000 0.000000 0.000000 0.000000 -0.139626
    10 0.798349 0.000001 -0.000006 0.000000 0.000000 -0.113446
    11 3.950310 -0.539876 2.108872 0.079820 -0.135436 -0.529872
    12 1.545794 0.000002 0.000001 0.000000 0.000000 0.295916
    13 1.667400 -0.000008 0.000000 0.000000 0.000000 0.261009
    14 3.899461 -0.475374 1.170890 0.000736 0.000312 -0.404788
    15 1.528214 0.000000 0.000000 0.000000 0.000000 0.101353
    16 1.528220 -0.000002 0.000002 0.000000 0.000000 0.773284
    17 3.899465 -0.431802 -0.168227 0.000796 0.000000 0.000000
    18 1.506966 -0.000001 0.000006 0.000000 0.000000 0.776669
    19 1.506961 0.000001 -0.000002 0.000000 0.000000 0.689401
    20 3.915637 -0.278020 -1.402604 0.000796 0.000000 0.000000
    21 1.333084 0.000000 -0.000002 0.000000 0.000000 0.637045
    22 1.159206 0.000000 -0.000002 0.000000 0.000000 0.741752
    23 -52.437243 -29.994573 -10.351480 1.587526 -0.821333 3.144905
  time 7
    0 0.134087 2.725324 -24.816700 0.000000 0.000000 -1.570795
    1 0.000000 0.000000 0.000000 -0.000086 -1.570451 -1.570709
    2 4.443617 -0.009642 0.000006 -0.000004 -0.000001 0.000796
    3 12.111411 -0.011446 0.000000 0.000000 0.000000 0.000000
    4 0.000010 0.011449 -1.352403 -0.000014 1.370796 3.140783
    5 6.078085 0.000000 0.000002 1.229428 -0.380714 -1.599480
    6 13.446753 -0.000004 0.000002 0.000000 0.000000 -0.256950
    7 15.997003 -0.000001 0.000003 0.425354 0.105932 -0.186528
    8 1.885332 0.833276 2.177878 0.509856 -0.723851 1.247698
    9 1.506963 0.000000 0.000000 0.000000 0.000000 -0.139626
    10 0.798349 0.000001 -0.000006 0.000000 0.000000 -0.113446
    11 3.950310 -0.539876 2.108872 0.080504 -0.135028 -0.534889
    12 1.545794 0.000002 0.000001 0.000000 0.000000 0.290919
    13 1.667400 -0.000008 0.000000 0.000000 0.000000 0.256012
    14 3.899461 -0.475374 1.170890 0.000736 0.000312 -0.408646
    15 1.528214 0.000000 0.000000 0.000000 0.000000 0.097494
    16 1.528220 -0.000002 0.000002 0.000000 0.000000 0.769429
    17 3.899465 -0.431802 -0.168227 0.000796 0.000000 0.000000
    18 1.506966 -0.000001 0.000006 0.000000 0.000000 0.776669
    19 1.506961 0.000001 -0.000002 0.000000 0.000000 0.689401
    20 3.915637 -0.278020 -1.402604 0.000796 0.000000 0.000000
    21 1.333084 0.000000 -0.000002 0.000000 0.000000 0.637045
    22 1.159206 0.000000 -0.000002 0.000000 0.000000 0.741752
    23 -54.163858 -28.553123 -10.445233 1.587526 -0.821333 3.144905
  time 8
    0 0.134087 2.725324 -24.816700 0.000000 0.000000 -1.570795
    1 0.000000 0.000000 0.000000 -0.000086 -1.570451 -1.570709
    2 4.443617 -0.009642 0.000006 -0.000004 -0.000001 0.000796
    3 12.111411 -0.011446 0.000000 0.000000 0.000000 0.000000
    4 0.000010 0.011449 -1.352403 -0.000014 1.370796 3.140783
    5 6.078085 0.000000 0.000002 1.227403 -0.448902 -1.624785
    6 13.446753 -0.000004 0.000002 0.000000 0.000000 -0.256093
    7 15.997003 -0.000001 0.000003 0.424086 0.105932 -0.186528
    8 1.885332 0.833276 2.177878 0.509856 -0.723851 1.247698
    9 1.506963 0.000000 0.000000 0.000000 0.000000 -0.139626
    10 0.798349 0.000001 -0.000006 0.000000 0.000000 -0.113446
    11 3.950310 -0.539876 2.108872 0.080587 -0.134980 -0.535575
    12 1.545794 0.000002 0.000001 0.000000 0.000000 0.290248
    13 1.667400 -0.000008 0.000000 0.000000 0.000000 0.255341
    14 3.899461 -0.475374 1.170890 0.000736 0.000312 -0.409171
    15 1.528214 0.000000 0.000000 0.000000 0.000000 0.096979
    16 1.528220 -0.000002 0.000002 0.000000 0.000000 0.768914
    17 3.899465 -0.431802 -0.168227 0.000796 0.000000 0.000000
    18 1.506966 -0.000001 0.000006 0.000000 0.000000 0.776669
    19 1.506961 0.000001 -0.000002 0.000000 0.000000 0.689401
    20 3.915637 -0.278020 -1.402604 0.000796 0.000000 0.000000
    21 1.333084 0.000000 -0.000002 0.000000 0.000000 0.637045
    22 1.159206 0.000000 -0.000002 0.000000 0.000000 0.741752
    23 -54.999821 -27.389024 -10.468671 1.587526 -0.821333 3.144905
  time 9
    0 0.134087 2.725324 -24.816700 0.000000 0.000000 -1.570795
    1 0.000000 0.000000 0.000000 -0.000086 -1.570451 -1.570709
    2 4.443617 -0.009642 0.000006 -0.000004 -0.000001 0.000796
    3 12.111411 -0.011446 0.000000 0.000000 0.000000 0.000000
    4 0.000010 0.011449 -1.352403 -0.000014 1.370796 3.140783
    5 6.078085 0.000000 0.000002 1.223153 -0.515542 -1.644302
    6 13.446753 -0.000004 0.000002 0.000000 0.000000 -0.259406
    7 15.997003 -0.000001 0.000003 0.429121 0.105932 -0.186528
    8 1.885332 0.833276 2.177878 0.509856 -0.723851 1.247698
    9 1.506963 0.000000 0.000000 0.000000 0.000000 -0.139626
    10 0.798349 0.000001 -0.000006 0.000000 0.000000 -0.113446
    11 3.950310 -0.539876 2.108872 0.080228 -0.135196 -0.532879
    12 1.545794 0.000002 0.000001 0.000000 0.000000 0.292908
    13 1.667400 -0.000008 0.000000 0.000000 0.000000 0.258001
    14 3.899461 -0.475374 1.170890 0.000736 0.000312 -0.407110
    15 1.528214 0.000000 0.000000 0.000000 0.000000 0.099040
    16 1.528220 -0.000002 0.000002 0.000000 0.000000 0.770975
    17 3.899465 -0.431802 -0.168227 0.000796 0.000000 0.000000
    18 1.506966 -0.000001 0.000006 0.000000 0.000000 0.776669
    19 1.506961 0.000001 -0.000002 0.000000 0.000000 0.689401
    20 3.915637 -0.278020 -1.402604 0.000796 0.000000 0.000000
    21 1.333084 0.000000 -0.000002 0.000000 0.000000 0.637045
    22 1.159206 0.000000 -0.000002 0.000000 0.000000 0.741752
    23 -55.191233 -26.408526 -10.480391 1.587526 -0.821333 3.144905
  time 10
    0 0.134087 2.725324 -24.816700 0.000000 0.000000 -1.570795
    1 0.000000 0.000000 0.000000 -0.000086 -1.570451 -1.570709
    2 4.443617 -0.009642 0.000006 -0.000004 -0.000001 0.000796
    3 12.111411 -0.011446 0.000000 0.000000 0.000000 0.000000
    4 0.000010 0.011449 -1.352403 -0.000014 1.370796 3.140783
    5 6.078085 0.000000 0.000002 1.217077 -0.581179 -1.659439
    6 13.446753 -0.000004 0.000002 0.000000 0.000000 -0.265634
    7 15.997003 -0.000001 0.000003 0.438498 0.105932 -0.186528
    8 1.885332 0.833276 2.177878 0.509856 -0.723851 1.247698
    9 1.506963 0.000000 0.000000 0.000000 0.000000 -0.139626
    10 0.798349 0.000001 -0.000006 0.000000 0.000000 -0.113446
    11 3.950310 -0.539876 2.108872 0.079557 -0.135592 -0.527862
    12 1.545794 0.000002 0.000001 0.000000 0.000000 0.297906
    13 1.667400 -0.000008 0.000000 0.000000 0.000000 0.262999
    14 3.899461 -0.475374 1.170890 0.000736 0.000312 -0.403252
    15 1.528214 0.000000 0.000000 0.000000 0.000000 0.102899
    16 1.528220 -0.000002 0.000002 0.000000 0.000000 0.774829
    17 3.899465 -0.431802 -0.168227 0.000796 0.000000 0.000000
    18 1.506966 -0.000001 0.000006 0.000000 0.000000 0.776669
    19 1.506961 0.000001 -0.000002 0.000000 0.000000 0.689401
    20 3.915637 -0.278020 -1.402604 0.000796 0.000000 0.000000
    21 1.333084 0.000000 -0.000002 0.000000 0.000000 0.637045
    22 1.159206 0.000000 -0.000002 0.000000 0.000000 0.741752
    23 -54.984195 -25.521780 -10.531173 1.587526 -0.821333 3.144905
  time 11
    0 0.134087 2.725324 -24.816700 0.000000 0.000000 -1.570795
    1 0.000000 0.000000 0.000000 -0.000086 -1.570451 -1.570709
    2 4.443617 -0.009642 0.000006 -0.000004 -0.000001 0.000796
    3 12.111411 -0.011446 0.000000 0.000000 0.000000 0.000000
    4 0.000010 0.011449 -1.352403 -0.000014 1.370796 3.140783
    5 6.078085 0.000000 0.000002 1.210003 -0.646271 -1.671876
    6 13.446753 -0.000004 0.000002 0.000000 0.000000 -0.273518
    7 15.997003 -0.000001 0.000003 0.450374 0.105932 -0.186528
    8 1.885332 0.833276 2.177878 0.509856 -0.723851 1.247698
    9 1.506963 0.000000 0.000000 0.000000 0.000000 -0.139626
    10 0.798349 0.000001 -0.000006 0.000000 0.000000 -0.113446
    11 3.950310 -0.539876 2.108872 0.078694 -0.136095 -0.521489
    12 1.545794 0.000002 0.000001 0.000000 0.000000 0.304234
    13 1.667400 -0.000008 0.000000 0.000000 0.000000 0.269327
    14 3.899461 -0.475374 1.170890 0.000736 0.000300 -0.398370
    15 1.528214 0.000000 0.000000 0.000000 0.000000 0.107777
    16 1.528220 -0.000002 0.000002 0.000000 0.000000 0.779715
    17 3.899465 -0.431802 -0.168227 0.000796 0.000000 0.000000
    18 1.506966 -0.000001 0.000006 0.000000 0.000000 0.776669
    19 1.506961 0.000001 -0.000002 0.000000 0.000000 0.689401
    20 3.915637 -0.278020 -1.402604 0.000796 0.000000 0.000000
    21 1.333084 0.000000 -0.000002 0.000000 0.000000 0.637045
    22 1.159206 0.000000 -0.000002 0.000000 0.000000 0.741752
    23 -54.632622 -24.623315 -10.679615 1.587526 -0.821333 3.144905
  time 12
    0 0.134087 2.725324 -24.816700 0.000000 0.000000 -1.570795
    1 0.000000 0.000000 0.000000 -0.000086 -1.570451 -1.570709
    2 4.443617 -0.009642 0.000006 -0.000004 -0.000001 0.000796
    3 12.111411 -0.011446 0.000000 0.000000 0.000000 0.000000
    4 0.000010 0.011449 -1.352403 -0.000014 1.370796 3.140783
    5 6.078085 0.000000 0.000002 1.203043 -0.711277 -1.683571
    6 13.446753 -0.000004 0.000002 0.000000 0.000000 -0.281859
    7 15.997003 -0.000001 0.000003 0.462865 0.105932 -0.186528
    8 1.885332 0.833276 2.177878 0.509856 -0.723851 1.247698
    9 1.506963 0.000000 0.000000 0.000000 0.000000 -0.139626
    10 0.798349 0.000001 -0.000006 0.000000 0.000000 -0.113446
    11 3.950310 -0.539876 2.108872 0.077783 -0.136610 -0.514790
    12 1.545794 0.000002 0.000001 0.000000 0.000000 0.310897
    13 1.667400 -0.000008 0.000000 0.000000 0.000000 0.275990
    14 3.899461 -0.475374 1.170890 0.000736 0.000300 -0.393225
    15 1.528214 0.000000 0.000000 0.000000 0.000000 0.112918
    16 1.528220 -0.000002 0.000002 0.000000 0.000000 0.784867
    17 3.899465 -0.431802 -0.168227 0.000796 0.000000 0.000000
    18 1.506966 -0.000001 0.000006 0.000000 0.000000 0.776669
    19 1.506961 0.000001 -0.000002 0.000000 0.000000 0.689401
    20 3.915637 -0.278020 -1.402604 0.000796 0.000000 0.000000
    21 1.333084 0.000000 -0.000002 0.000000 0.000000 0.637045
    22 1.159206 0.000000 -0.000002 0.000000 0.000000 0.741752
    23 -54.386521 -23.623285 -10.976499 1.587526 -0.821333 3.144905
  time 13
    0 0.134087 2.725324 -24.816700 0.000000 0.000000 -1.570795
    1 0.000000 0.000000 0.000000 -0.000086 -1.570451 -1.570709
    2 4.443617 -0.009642 0.000006 -0.000004 -0.000001 0.000796
    3 12.111411 -0.011446 0.000000 0.000000 0.000000 0.000000
    4 0.000010 0.011449 -1.352403 -0.000014 1.370796 3.140783
    5 6.078085 0.000000 0.000002 1.197909 -0.776627 -1.697025
    6 13.446753 -0.000004 0.000002 0.000000 0.000000 -0.289286
    7 15.997003 -0.000001 0.000003 0.474125 0.105932 -0.186528
    8 1.885332 0.833276 2.177878 0.509856 -0.723851 1.247698
    9 1.506963 0.000000 0.000000 0.000000 0.000000 -0.139626
    10 0.798349 0.000001 -0.000006 0.000000 0.000000 -0.113446
    11 3.950310 -0.539876 2.108872 0.076956 -0.137078 -0.508760
    12 1.545794 0.000002 0.000001 0.000000 0.000000 0.316901
    13 1.667400 -0.000008 0.000000 0.000000 0.000000 0.281994
    14 3.899461 -0.475374 1.170890 0.000748 0.000300 -0.388592
    15 1.528214 0.000000 0.000000 0.000000 0.000000 0.117556
    16 1.528220 -0.000002 0.000002 0.000000 0.000000 0.789485
    17 3.899465 -0.431802 -0.168227 0.000796 0.000000 0.000000
    18 1.506966 -0.000001 0.000006 0.000000 0.000000 0.776669
    19 1.506961 0.000001 -0.000002 0.000000 0.000000 0.689401
    20 3.915637 -0.278020 -1.402604 0.000796 0.000000 0.000000
    21 1.333084 0.000000 -0.000002 0.000000 0.000000 0.637045
    22 1.159206 0.000000 -0.000002 0.000000 0.000000 0.741752
    23 -53.991978 -22.064643 -11.593706 1.587526 -0.821333 3.144905
  time 14
    0 0.134087 2.725324 -24.816700 0.000000 0.000000 -1.570795
    1 0.000000 0.000000 0.000000 -0.000086 -1.570451 -1.570709
    2 4.443617 -0.009642 0.000006 -0.000004 -0.000001 0.000796
    3 12.111411 -0.011446 0.000000 0.000000 0.000000 0.000000
    4 0.000010 0.011449 -1.352403 -0.000014 1.370796 3.140783
    5 6.078085 0.000000 0.000002 1.197025 -0.842751 -1.715329
    6 13.446753 -0.000004 0.000002 0.000000 0.000000 -0.294714
    7 15.997003 -0.000001 0.000003 0.482273 0.105932 -0.186528
    8 1.885332 0.833276 2.177878 0.509856 -0.723851 1.247698
    9 1.506963 0.000000 0.000000 0.000000 0.000000 -0.139626
    10 0.798349 0.000001 -0.000006 0.000000 0.000000 -0.113446
    11 3.950310 -0.539876 2.108872 0.076357 -0.137413 -0.504397
    12 1.545794 0.000002 0.000001 0.000000 0.000000 0.321228
    13 1.667400 -0.000008 0.000000 0.000000 0.000000 0.286321
    14 3.899461 -0.475374 1.170890 0.000748 0.000288 -0.385246
    15 1.528214 0.000000 0.000000 0.000000 0.000000 0.120888
    16 1.528220 -0.000002 0.000002 0.000000 0.000000 0.792824
    17 3.899465 -0.431802 -0.168227 0.000796 0.000000 0.000000
    18 1.506966 -0.000001 0.000006 0.000000 0.000000 0.776669
    19 1.506961 0.000001 -0.000002 0.000000 0.000000 0.689401
    20 3.915637 -0.278020 -1.402604 0.000796 0.000000 0.000000
    21 1.333084 0.000000 -0.000002 0.000000 0.000000 0.637045
    22 1.159206 0.000000 -0.000002 0.000000 0.000000 0.741752
    23 -53.534932 -21.568534 -11.886683 1.587526 -0.821333 3.144905
  time 15
    0 0.134087 2.725324 -24.816700 0.000000 0.000000 -1.570795
    1 0.000000 0.000000 0.000000 -0.000086 -1.570451 -1.570709
    2 4.443617 -0.009642 0.000006 -0.000004 -0.000001 0.000796
    3 12.111411 -0.011446 0.000000 0.000000 0.000000 0.000000
    4 0.000010 0.011449 -1.352403 -0.000014 1.370796 3.140783
    5 6.078085 0.000000 0.000002 1.203984 -0.909993 -1.742747
    6 13.446753 -0.000004 0.000002 0.000000 0.000000 -0.296771
    7 15.997003 -0.000001 0.000003 0.485386 0.105932 -0.186528
    8 1.885332 0.833276 2.177878 0.509856 -0.723851 1.247698
    9 1.506963 0.000000 0.000000 0.000000 0.000000 -0.139626
    10 0.798349 0.000001 -0.000006 0.000000 0.000000 -0.113446
    11 3.950310 -0.539876 2.108872 0.076129 -0.137533 -0.502714
    12 1.545794 0.000002 0.000001 0.000000 0.000000 0.322894
    13 1.667400 -0.000008 0.000000 0.000000 0.000000 0.287987
    14 3.899461 -0.475374 1.170890 0.000748 0.000288 -0.383960
    15 1.528214 0.000000 0.000000 0.000000 0.000000 0.122182
    16 1.528220 -0.000002 0.000002 0.000000 0.000000 0.794122
    17 3.899465 -0.431802 -0.168227 0.000796 0.000000 0.000000
    18 1.506966 -0.000001 0.000006 0.000000 0.000000 0.776669
    19 1.506961 0.000001 -0.000002 0.000000 0.000000 0.689401
    20 3.915637 -0.278020 -1.402604 0.000796 0.000000 0.000000
    21 1.333084 0.000000 -0.000002 0.000000 0.000000 0.637045
    22 1.159206 0.000000 -0.000002 0.000000 0.000000 0.741752
    23 -53.382584 -23.658442 -11.292915 1.587526 -0.821333 3.144905
end
