// Created by Crowbar 0.74
version 1
nodes
  0 "Scene_Root" -1
  1 "root" 0
  2 "body" 1
  3 "lock01" 2
  4 "lock02" 2
  5 "lens" 1
end
skeleton
  time 0
    0 0.000000 0.000000 0.000000 1.570796 0.000000 -1.570796
    1 0.000000 0.000000 0.000000 -1.570793 1.570791 0.000000
    2 0.000000 -1.000000 39.000000 0.000000 0.000000 0.000000
    3 0.000000 -0.000002 -2.000000 0.000000 0.000000 0.000000
    4 0.000000 -0.000002 -2.000000 0.000000 0.000000 0.000000
    5 0.000000 -1.000002 50.000000 0.000000 0.000000 0.000000
end
