// Created by Crowbar 0.74
version 1
nodes
  0 "ValveBiped.Bip01" -1
  1 "ValveBiped.Bip01_Spine" 0
  2 "ValveBiped.Bip01_Spine1" 1
  3 "ValveBiped.Bip01_Spine2" 2
  4 "ValveBiped.Bip01_Spine4" 3
  5 "ValveBiped.Bip01_L_Clavicle" 4
  6 "ValveBiped.Bip01_L_UpperArm" 5
  7 "ValveBiped.Bip01_L_Forearm" 6
  8 "ValveBiped.Bip01_L_Hand" 7
  9 "ValveBiped.Bip01_L_Finger4" 8
  10 "ValveBiped.Bip01_L_Finger41" 9
  11 "ValveBiped.Bip01_L_Finger42" 10
  12 "ValveBiped.Bip01_L_Finger3" 8
  13 "ValveBiped.Bip01_L_Finger31" 12
  14 "ValveBiped.Bip01_L_Finger32" 13
  15 "ValveBiped.Bip01_L_Finger2" 8
  16 "ValveBiped.Bip01_L_Finger21" 15
  17 "ValveBiped.Bip01_L_Finger22" 16
  18 "ValveBiped.Bip01_L_Finger1" 8
  19 "ValveBiped.Bip01_L_Finger11" 18
  20 "ValveBiped.Bip01_L_Finger12" 19
  21 "ValveBiped.Bip01_L_Finger0" 8
  22 "ValveBiped.Bip01_L_Finger01" 21
  23 "ValveBiped.Bip01_L_Finger02" 22
  24 "ValveBiped.Bip01_R_Clavicle" 4
  25 "ValveBiped.Bip01_R_UpperArm" 24
  26 "ValveBiped.Bip01_R_Forearm" 25
  27 "ValveBiped.Bip01_R_Hand" 26
  28 "ValveBiped.Bip01_R_Finger4" 27
  29 "ValveBiped.Bip01_R_Finger41" 28
  30 "ValveBiped.Bip01_R_Finger42" 29
  31 "ValveBiped.Bip01_R_Finger3" 27
  32 "ValveBiped.Bip01_R_Finger31" 31
  33 "ValveBiped.Bip01_R_Finger32" 32
  34 "ValveBiped.Bip01_R_Finger2" 27
  35 "ValveBiped.Bip01_R_Finger21" 34
  36 "ValveBiped.Bip01_R_Finger22" 35
  37 "ValveBiped.Bip01_R_Finger1" 27
  38 "ValveBiped.Bip01_R_Finger11" 37
  39 "ValveBiped.Bip01_R_Finger12" 38
  40 "ValveBiped.Bip01_R_Finger0" 27
  41 "ValveBiped.Bip01_R_Finger01" 40
  42 "ValveBiped.Bip01_R_Finger02" 41
  43 "ValveBiped.Base" 27
  44 "ValveBiped.Casing_RotZ" 43
  45 "ValveBiped.Gyro1_RotX" 43
  46 "ValveBiped.Gyro2_RotY" 45
  47 "ValveBiped.Gyro3_RotX" 46
  48 "ValveBiped.Mag1_RotZ" 43
  49 "ValveBiped.Mag2_RotZ" 43
  50 "ValveBiped.Mag3_RotZ" 43
  51 "ValveBiped.Mag4_RotZ" 43
  52 "ValveBiped.Mag5_RotZ" 43
  53 "ValveBiped.Mag6_RotZ" 43
  54 "ValveBiped.Mag7_RotZ" 43
  55 "ValveBiped.Mag8_RotZ" 43
  56 "ValveBiped.Arm1_A" 43
  57 "ValveBiped.Arm1_B" 56
  58 "ValveBiped.Arm2_A" 43
  59 "ValveBiped.Arm2_B" 58
  60 "ValveBiped.Arm3_A" 43
  61 "ValveBiped.Arm3_B" 60
  62 "ValveBiped.Arm4_A" 43
  63 "ValveBiped.Arm4_B" 62
  64 "ValveBiped.Dial" 43
  65 "ValveBiped.Mag9_RotZ" 43
  66 "Root" -1
end
skeleton
  time 0
    0 0.000000 -0.533595 38.566879 1.570796 0.000000 0.000000
    1 0.000000 3.345131 -2.981898 1.570796 0.083193 1.570796
    2 3.995838 0.000000 0.000000 0.000000 0.000000 -0.028816
    3 3.520283 0.000000 0.000000 0.000000 0.000000 0.097307
    4 8.921463 0.000000 0.000000 0.000000 0.000000 0.186413
    5 2.059513 0.977920 1.937661 1.589740 -1.286515 2.950147
    6 15.712090 -18.004032 9.529779 1.559199 -1.378733 3.129207
    7 11.692564 0.000000 0.000011 0.000000 0.000000 -0.745832
    8 11.481674 0.000001 -0.000034 1.329220 0.087758 0.746815
    9 3.850418 0.126099 -1.223440 -0.317316 -0.182678 -1.175166
    10 1.312561 0.000000 0.000000 -0.035210 0.041488 -1.113081
    11 0.729366 0.000004 0.000000 -0.013075 0.038597 -0.567715
    12 3.926350 0.316490 -0.462519 -0.168912 -0.159070 -1.089474
    13 1.539101 0.000000 -0.000002 -0.003308 0.001739 -1.334679
    14 1.196331 -0.000002 0.000000 -0.004291 0.004431 -1.200192
    15 3.881380 0.214687 0.400251 -0.056575 -0.204695 -1.030413
    16 1.719583 0.000004 0.000000 0.018838 -0.007916 -1.539002
    17 1.209183 -0.000001 0.000008 0.008062 -0.008108 -0.998649
    18 3.871292 0.117424 1.300905 -0.020042 -0.190438 -1.160275
    19 1.719425 -0.000004 0.000002 0.101231 -0.032227 -1.611435
    20 1.099674 0.000004 -0.000004 0.042294 -0.053202 -0.907071
    21 0.838839 -0.300285 1.312777 -0.847487 -0.487805 -0.629244
    22 1.789783 -0.000002 0.000011 -0.000556 -0.003669 0.378873
    23 1.207006 0.000001 0.000004 -0.001682 -0.005413 0.664305
    24 2.059517 0.977922 -1.937661 -1.661569 1.286515 2.950147
    25 7.186439 -2.479385 7.933254 1.701454 0.719964 -1.279976
    26 11.692570 -0.000004 0.000000 0.000000 0.000000 -0.735495
    27 11.481654 0.000000 0.000016 -1.610898 0.181262 -0.196406
    28 3.850428 0.126099 1.223438 0.218434 0.059416 -1.236284
    29 1.312562 0.000001 0.000000 0.013556 -0.052694 -0.660926
    30 0.729362 0.000000 0.000000 0.035126 -0.020663 -1.280268
    31 3.926355 0.316488 0.462502 0.078927 0.018345 -1.052029
    32 1.539096 0.000000 -0.000008 0.003041 -0.002171 -1.198668
    33 1.196321 0.000002 0.000011 0.004688 -0.004008 -1.294270
    34 3.881386 0.214694 -0.400257 -0.013550 -0.002191 -0.994617
    35 1.719579 0.000000 0.000000 -0.018227 0.009235 -1.467873
    36 1.209180 -0.000002 -0.000008 -0.009139 0.006871 -1.142228
    37 3.871304 0.117424 -1.300907 -0.078202 -0.025255 -1.087905
    38 1.719431 0.000000 -0.000004 -0.098414 0.040033 -1.533486
    39 1.099665 -0.000001 -0.000004 -0.043299 0.052388 -0.926109
    40 0.838848 -0.300291 -1.312786 1.038393 0.338527 -0.651145
    41 1.789780 -0.000002 0.000000 0.000000 0.003711 0.332742
    42 1.207002 0.000004 0.000000 0.000000 0.005668 0.612525
    43 -0.534583 0.295797 -0.001972 -1.591880 0.022078 -1.868741
    44 0.113788 -0.132996 14.720029 0.000000 0.000000 0.000000
    45 0.113787 -0.132980 9.513787 0.000000 0.000000 0.000000
    46 -0.000001 0.000004 0.000000 0.000000 0.000000 0.000000
    47 -0.000001 0.000000 0.000000 0.000000 0.000000 0.000000
    48 0.113791 -0.132973 16.481380 0.000000 0.000000 0.000000
    49 0.113788 -0.132973 18.076752 0.000000 0.000000 0.000000
    50 0.113789 -0.132969 19.676247 0.000000 0.000000 0.000000
    51 0.113791 -0.132980 21.255905 0.000000 0.000000 0.000000
    52 0.113788 -0.132980 22.869106 0.000000 0.000000 0.000000
    53 0.113791 -0.132980 24.483315 0.000000 0.000000 0.000000
    54 0.113790 -0.132977 26.066456 0.000000 0.000000 0.000000
    55 0.113790 -0.132980 27.665100 0.000000 0.000000 0.000000
    56 4.717026 4.484177 33.327862 0.030874 0.029553 -0.762254
    57 0.089302 4.272583 4.480568 0.000000 0.000000 0.000000
    58 4.922175 -5.137234 33.583321 0.000000 0.000000 -2.327265
    59 0.001394 4.167400 4.226917 0.000000 0.000000 0.000000
    60 -4.578506 -5.283134 33.331905 0.000000 0.000000 2.438902
    61 0.269684 4.148857 4.474522 0.000000 0.000000 0.000000
    62 -4.409222 4.440941 33.338566 0.000000 0.000000 0.763647
    63 -0.045498 4.393921 4.464542 0.000000 0.000000 0.000000
    64 -4.439061 3.922569 13.956212 0.075659 -0.411864 0.634747
    65 0.113791 -0.132977 29.243565 0.000000 0.000000 0.000000
    66 0.000000 -6.000000 -0.500000 1.570796 0.000000 0.000000
end
triangles
gun
  43 -7.572009 -17.821136 47.628399 -0.421399 0.067989 -0.904323 0.601135 0.927622 1 43 1.000000
  43 -7.758953 -17.901810 47.709446 -0.421399 0.067989 -0.904323 0.598678 0.907925 1 43 1.000000
  43 -7.759260 -17.824917 47.715370 -0.421399 0.067989 -0.904323 0.601172 0.907760 1 43 1.000000
gun
  43 -7.754472 -18.185310 47.706772 -0.443498 0.001442 -0.896274 0.589484 0.907942 1 43 1.000000
  43 -7.754004 -18.214787 47.706490 -0.409296 0.002253 -0.912399 0.588528 0.907942 1 43 1.000000
  43 -7.946507 -17.828697 47.802341 -0.443452 0.001448 -0.896297 0.601016 0.887793 1 43 1.000000
gun
  43 -7.755576 -18.115372 47.707432 -0.428615 0.001754 -0.903486 0.591759 0.907935 1 43 1.000000
  43 -7.754472 -18.185310 47.706772 -0.443498 0.001442 -0.896274 0.589484 0.907942 1 43 1.000000
  43 -7.946507 -17.828697 47.802341 -0.443452 0.001448 -0.896297 0.601016 0.887793 1 43 1.000000
gun
  43 -7.946507 -17.828697 47.802341 -0.443452 0.001448 -0.896297 0.601016 0.887793 1 43 1.000000
  43 -7.756042 -18.085903 47.707710 -0.428433 0.001756 -0.903572 0.592715 0.907935 1 43 1.000000
  43 -7.755576 -18.115372 47.707432 -0.428615 0.001754 -0.903486 0.591759 0.907935 1 43 1.000000
gun
  43 -7.757149 -18.015957 47.708370 -0.428634 0.001698 -0.903477 0.594995 0.907937 1 43 1.000000
  43 -7.756042 -18.085903 47.707710 -0.428433 0.001756 -0.903572 0.592715 0.907935 1 43 1.000000
  43 -7.946507 -17.828697 47.802341 -0.443452 0.001448 -0.896297 0.601016 0.887793 1 43 1.000000
gun
  43 -7.757615 -17.986485 47.708645 -0.428596 0.001677 -0.903495 0.595940 0.907934 1 43 1.000000
  43 -7.757149 -18.015957 47.708370 -0.428634 0.001698 -0.903477 0.594995 0.907937 1 43 1.000000
  43 -7.946507 -17.828697 47.802341 -0.443452 0.001448 -0.896297 0.601016 0.887793 1 43 1.000000
gun
  43 -7.946507 -17.828697 47.802341 -0.443452 0.001448 -0.896297 0.601016 0.887793 1 43 1.000000
  43 -7.758953 -17.901810 47.709446 -0.435192 0.026999 -0.899933 0.598678 0.907925 1 43 1.000000
  43 -7.757615 -17.986485 47.708645 -0.428596 0.001677 -0.903495 0.595940 0.907934 1 43 1.000000
gun
  43 -7.946507 -17.828697 47.802341 -0.443452 0.001448 -0.896297 0.601016 0.887793 1 43 1.000000
  43 -7.759260 -17.824917 47.715370 -0.421399 0.067989 -0.904323 0.601172 0.907760 1 43 1.000000
  43 -7.758953 -17.901810 47.709446 -0.435192 0.026999 -0.899933 0.598678 0.907925 1 43 1.000000
gun
  43 -7.946507 -17.828697 47.802341 -0.443452 0.001448 -0.896297 0.601016 0.887793 1 43 1.000000
  43 -7.754004 -18.214787 47.706490 -0.443452 0.001448 -0.896297 0.588528 0.907942 1 43 1.000000
  43 -7.752899 -18.284725 47.705830 -0.443452 0.001448 -0.896297 0.586254 0.907933 1 43 1.000000
gun
  43 -7.752899 -18.284725 47.705830 -0.443452 0.001448 -0.896297 0.586254 0.907933 1 43 1.000000
  43 -7.752434 -18.314201 47.705551 -0.428553 0.001757 -0.903515 0.585298 0.907933 1 43 1.000000
  43 -7.946507 -17.828697 47.802341 -0.443452 0.001448 -0.896297 0.601016 0.887793 1 43 1.000000
gun
  43 -7.931501 -18.777847 47.793381 -0.438128 -0.013387 -0.898813 0.570208 0.887793 1 43 1.000000
  43 -7.946507 -17.828697 47.802341 -0.443452 0.001448 -0.896297 0.601016 0.887793 1 43 1.000000
  43 -7.752434 -18.314201 47.705551 -0.428553 0.001757 -0.903515 0.585298 0.907933 1 43 1.000000
gun
  43 -7.751328 -18.384138 47.704891 -0.428501 0.001712 -0.903540 0.583032 0.907947 1 43 1.000000
  43 -7.931501 -18.777847 47.793381 -0.438128 -0.013387 -0.898813 0.570208 0.887793 1 43 1.000000
  43 -7.752434 -18.314201 47.705551 -0.428553 0.001757 -0.903515 0.585298 0.907933 1 43 1.000000
gun
  43 -7.751328 -18.384138 47.704891 -0.428501 0.001712 -0.903540 0.583032 0.907947 1 43 1.000000
  43 -7.750862 -18.413605 47.704617 -0.428522 0.001671 -0.903530 0.582075 0.907947 1 43 1.000000
  43 -7.931501 -18.777847 47.793381 -0.438128 -0.013387 -0.898813 0.570208 0.887793 1 43 1.000000
gun
  43 -7.749755 -18.483543 47.703953 -0.428596 0.001719 -0.903495 0.579810 0.907942 1 43 1.000000
  43 -7.931501 -18.777847 47.793381 -0.438128 -0.013387 -0.898813 0.570208 0.887793 1 43 1.000000
  43 -7.750862 -18.413605 47.704617 -0.428522 0.001671 -0.903530 0.582075 0.907947 1 43 1.000000
gun
  43 -7.749289 -18.513020 47.703678 -0.428460 0.001659 -0.903559 0.578853 0.907942 1 43 1.000000
  43 -7.931501 -18.777847 47.793381 -0.438128 -0.013387 -0.898813 0.570208 0.887793 1 43 1.000000
  43 -7.749755 -18.483543 47.703953 -0.428596 0.001719 -0.903495 0.579810 0.907942 1 43 1.000000
gun
  43 -7.749289 -18.513020 47.703678 -0.428460 0.001659 -0.903559 0.578853 0.907942 1 43 1.000000
  43 -7.748184 -18.582954 47.703018 -0.428539 0.001761 -0.903522 0.576576 0.907939 1 43 1.000000
  43 -7.931501 -18.777847 47.793381 -0.438128 -0.013387 -0.898813 0.570208 0.887793 1 43 1.000000
gun
  43 -7.747718 -18.612431 47.702740 -0.428612 0.001765 -0.903487 0.575620 0.907939 1 43 1.000000
  43 -7.931501 -18.777847 47.793381 -0.438128 -0.013387 -0.898813 0.570208 0.887793 1 43 1.000000
  43 -7.748184 -18.582954 47.703018 -0.428539 0.001761 -0.903522 0.576576 0.907939 1 43 1.000000
gun
  43 -7.748184 -18.582954 47.703018 -0.428539 0.001761 -0.903522 0.576576 0.907939 1 43 1.000000
  43 -7.559558 -18.608685 47.620964 -0.398660 0.002358 -0.917096 0.575609 0.927642 1 43 1.000000
  43 -7.747718 -18.612431 47.702740 -0.428612 0.001765 -0.903487 0.575620 0.907939 1 43 1.000000
gun
  43 -7.748184 -18.582954 47.703018 -0.428539 0.001761 -0.903522 0.576576 0.907939 1 43 1.000000
  43 -7.560025 -18.579210 47.621243 -0.398665 0.002357 -0.917094 0.576565 0.927642 1 43 1.000000
  43 -7.559558 -18.608685 47.620964 -0.398660 0.002358 -0.917096 0.575609 0.927642 1 43 1.000000
gun
  43 -7.557003 -18.770287 47.619438 -0.419307 -0.064142 -0.905576 0.570353 0.927594 1 43 1.000000
  43 -7.744254 -18.774067 47.706409 -0.419307 -0.064142 -0.905576 0.570365 0.907760 1 43 1.000000
  43 -7.746377 -18.697109 47.701942 -0.430241 -0.035157 -0.902029 0.572861 0.907890 1 43 1.000000
gun
  43 -7.744254 -18.774067 47.706409 -0.419307 -0.064142 -0.905576 0.570365 0.907760 1 43 1.000000
  43 -7.931501 -18.777847 47.793381 -0.438128 -0.013387 -0.898813 0.570208 0.887793 1 43 1.000000
  43 -7.746377 -18.697109 47.701942 -0.430241 -0.035157 -0.902029 0.572861 0.907890 1 43 1.000000
gun
  43 -7.746377 -18.697109 47.701942 -0.430241 -0.035157 -0.902029 0.572861 0.907890 1 43 1.000000
  43 -7.931501 -18.777847 47.793381 -0.438128 -0.013387 -0.898813 0.570208 0.887793 1 43 1.000000
  43 -7.747718 -18.612431 47.702740 -0.428612 0.001765 -0.903487 0.575620 0.907939 1 43 1.000000
gun
  43 -7.570792 -17.898067 47.627670 0.905625 0.018324 -0.423684 0.598668 0.927558 1 43 1.000000
  43 -7.572009 -17.821136 47.628399 0.905737 0.020061 -0.423365 0.601135 0.927622 1 43 1.000000
  43 -7.398808 -17.898817 47.995270 0.906427 0.031890 -0.421157 0.598676 0.940320 1 43 1.000000
gun
  43 -7.572009 -17.821136 47.628399 0.905737 0.020061 -0.423365 0.601135 0.927622 1 43 1.000000
  43 -7.322196 -17.822266 48.166210 0.909300 0.018312 -0.415738 0.601130 0.946240 1 43 1.000000
  43 -7.398808 -17.898817 47.995270 0.906427 0.031890 -0.421157 0.598676 0.940320 1 43 1.000000
gun
  43 -7.397004 -18.012966 47.994198 0.800510 0.018300 -0.599040 0.594971 0.940320 1 43 1.000000
  43 -7.568989 -18.012215 47.626595 0.905629 0.018373 -0.423674 0.595061 0.927650 1 43 1.000000
  43 -7.569453 -17.982738 47.626877 0.905629 0.018371 -0.423674 0.595941 0.927640 1 43 1.000000
gun
  43 -7.397004 -18.012966 47.994198 0.800510 0.018300 -0.599040 0.594971 0.940320 1 43 1.000000
  43 -7.569453 -17.982738 47.626877 0.905629 0.018371 -0.423674 0.595941 0.927640 1 43 1.000000
  43 -7.397470 -17.983490 47.994476 0.800478 0.018286 -0.599084 0.595928 0.940320 1 43 1.000000
gun
  43 -7.397470 -17.983490 47.994476 0.800478 0.018286 -0.599084 0.595928 0.940320 1 43 1.000000
  43 -7.320979 -17.899193 48.165482 0.908049 0.018313 -0.418463 0.598676 0.946165 1 43 1.000000
  43 -7.397004 -18.012966 47.994198 0.800510 0.018300 -0.599040 0.594971 0.940320 1 43 1.000000
gun
  43 -7.398808 -17.898817 47.995270 0.680540 0.017669 -0.732498 0.598676 0.940320 1 43 1.000000
  43 -7.320979 -17.899193 48.165482 0.908049 0.018313 -0.418463 0.598676 0.946165 1 43 1.000000
  43 -7.397470 -17.983490 47.994476 0.800478 0.018286 -0.599084 0.595928 0.940320 1 43 1.000000
gun
  43 -7.322196 -17.822266 48.166210 0.909300 0.018312 -0.415738 0.601130 0.946240 1 43 1.000000
  43 -7.320979 -17.899193 48.165482 0.908049 0.018313 -0.418463 0.598676 0.946165 1 43 1.000000
  43 -7.398808 -17.898817 47.995270 0.680540 0.017669 -0.732498 0.598676 0.940320 1 43 1.000000
gun
  43 -7.320979 -17.899193 48.165482 0.908049 0.018313 -0.418463 0.598676 0.946165 1 43 1.000000
  43 -7.322196 -17.822266 48.166210 0.909300 0.018312 -0.415738 0.601130 0.946240 1 43 1.000000
  43 -7.099767 -17.823269 48.645050 0.906794 0.018314 -0.421177 0.601157 0.963435 1 43 1.000000
gun
  43 -7.308406 -18.694489 48.157974 0.908049 0.018298 -0.418464 0.572862 0.946165 1 43 1.000000
  43 -7.320979 -17.899193 48.165482 0.908049 0.018313 -0.418463 0.598676 0.946165 1 43 1.000000
  43 -7.099767 -17.823269 48.645050 0.906794 0.018314 -0.421177 0.601157 0.963435 1 43 1.000000
gun
  43 -7.072119 -18.772472 48.663311 0.906797 0.018309 -0.421171 0.570352 0.963528 1 43 1.000000
  43 -7.308406 -18.694489 48.157974 0.908049 0.018298 -0.418464 0.572862 0.946165 1 43 1.000000
  43 -7.099767 -17.823269 48.645050 0.906794 0.018314 -0.421177 0.601157 0.963435 1 43 1.000000
gun
  43 -7.072119 -18.772472 48.663311 0.906797 0.018309 -0.421171 0.570352 0.963528 1 43 1.000000
  43 -7.307190 -18.771412 48.157249 0.909290 0.018289 -0.415760 0.570364 0.946147 1 43 1.000000
  43 -7.308406 -18.694489 48.157974 0.908049 0.018298 -0.418464 0.572862 0.946165 1 43 1.000000
gun
  43 -7.386235 -18.694111 47.987766 0.680444 0.017687 -0.732586 0.572862 0.940320 1 43 1.000000
  43 -7.308406 -18.694489 48.157974 0.908049 0.018298 -0.418464 0.572862 0.946165 1 43 1.000000
  43 -7.307190 -18.771412 48.157249 0.909290 0.018289 -0.415760 0.570364 0.946147 1 43 1.000000
gun
  43 -7.308406 -18.694489 48.157974 0.908049 0.018298 -0.418464 0.572862 0.946165 1 43 1.000000
  43 -7.386235 -18.694111 47.987766 0.680444 0.017687 -0.732586 0.572862 0.940320 1 43 1.000000
  43 -7.387574 -18.609434 47.988567 0.800574 0.018277 -0.598955 0.575611 0.940320 1 43 1.000000
gun
  43 -7.308406 -18.694489 48.157974 0.908049 0.018298 -0.418464 0.572862 0.946165 1 43 1.000000
  43 -7.387574 -18.609434 47.988567 0.800574 0.018277 -0.598955 0.575611 0.940320 1 43 1.000000
  43 -7.388040 -18.579960 47.988842 0.800505 0.018281 -0.599047 0.576567 0.940320 1 43 1.000000
gun
  43 -7.560025 -18.579210 47.621243 0.905617 0.018330 -0.423700 0.576565 0.927642 1 43 1.000000
  43 -7.388040 -18.579960 47.988842 0.800505 0.018281 -0.599047 0.576567 0.940320 1 43 1.000000
  43 -7.387574 -18.609434 47.988567 0.800574 0.018277 -0.598955 0.575611 0.940320 1 43 1.000000
gun
  43 -7.388040 -18.579960 47.988842 0.800505 0.018281 -0.599047 0.576567 0.940320 1 43 1.000000
  43 -7.389146 -18.510019 47.989502 0.800515 0.018356 -0.599032 0.578838 0.940320 1 43 1.000000
  43 -7.308406 -18.694489 48.157974 0.908049 0.018298 -0.418464 0.572862 0.946165 1 43 1.000000
gun
  43 -7.560025 -18.579210 47.621243 0.905617 0.018330 -0.423700 0.576565 0.927642 1 43 1.000000
  43 -7.387574 -18.609434 47.988567 0.800574 0.018277 -0.598955 0.575611 0.940320 1 43 1.000000
  43 -7.559558 -18.608685 47.620964 0.905617 0.018333 -0.423700 0.575609 0.927642 1 43 1.000000
gun
  43 -7.395432 -18.112377 47.993256 0.800531 0.018328 -0.599011 0.591744 0.940320 1 43 1.000000
  43 -7.320979 -17.899193 48.165482 0.908049 0.018313 -0.418463 0.598676 0.946165 1 43 1.000000
  43 -7.394327 -18.182316 47.992596 0.800548 0.018263 -0.598990 0.589474 0.940320 1 43 1.000000
gun
  43 -7.395432 -18.112377 47.993256 0.800531 0.018328 -0.599011 0.591744 0.940320 1 43 1.000000
  43 -7.395898 -18.082901 47.993538 0.800455 0.018361 -0.599112 0.592701 0.940320 1 43 1.000000
  43 -7.320979 -17.899193 48.165482 0.908049 0.018313 -0.418463 0.598676 0.946165 1 43 1.000000
gun
  43 -7.397004 -18.012966 47.994198 0.800510 0.018300 -0.599040 0.594971 0.940320 1 43 1.000000
  43 -7.320979 -17.899193 48.165482 0.908049 0.018313 -0.418463 0.598676 0.946165 1 43 1.000000
  43 -7.395898 -18.082901 47.993538 0.800455 0.018361 -0.599112 0.592701 0.940320 1 43 1.000000
gun
  43 -7.395432 -18.112377 47.993256 0.800531 0.018328 -0.599011 0.591744 0.940320 1 43 1.000000
  43 -7.567883 -18.082151 47.625935 0.905630 0.018261 -0.423676 0.592683 0.927649 1 43 1.000000
  43 -7.395898 -18.082901 47.993538 0.800455 0.018361 -0.599112 0.592701 0.940320 1 43 1.000000
gun
  43 -7.395432 -18.112377 47.993256 0.800531 0.018328 -0.599011 0.591744 0.940320 1 43 1.000000
  43 -7.567417 -18.111624 47.625660 0.905630 0.018254 -0.423675 0.591747 0.927639 1 43 1.000000
  43 -7.567883 -18.082151 47.625935 0.905630 0.018261 -0.423676 0.592683 0.927649 1 43 1.000000
gun
  43 -7.561596 -18.479797 47.622181 0.905643 0.018303 -0.423646 0.579798 0.927645 1 43 1.000000
  43 -7.389146 -18.510019 47.989502 0.800515 0.018356 -0.599032 0.578838 0.940320 1 43 1.000000
  43 -7.561130 -18.509266 47.621902 0.905644 0.018298 -0.423644 0.578841 0.927645 1 43 1.000000
gun
  43 -7.561596 -18.479797 47.622181 0.905643 0.018303 -0.423646 0.579798 0.927645 1 43 1.000000
  43 -7.389612 -18.480549 47.989784 0.800451 0.018323 -0.599118 0.579794 0.940320 1 43 1.000000
  43 -7.389146 -18.510019 47.989502 0.800515 0.018356 -0.599032 0.578838 0.940320 1 43 1.000000
gun
  43 -7.389146 -18.510019 47.989502 0.800515 0.018356 -0.599032 0.578838 0.940320 1 43 1.000000
  43 -7.389612 -18.480549 47.989784 0.800451 0.018323 -0.599118 0.579794 0.940320 1 43 1.000000
  43 -7.308406 -18.694489 48.157974 0.908049 0.018298 -0.418464 0.572862 0.946165 1 43 1.000000
gun
  43 -7.308406 -18.694489 48.157974 0.908049 0.018298 -0.418464 0.572862 0.946165 1 43 1.000000
  43 -7.389612 -18.480549 47.989784 0.800451 0.018323 -0.599118 0.579794 0.940320 1 43 1.000000
  43 -7.390717 -18.410610 47.990440 0.800489 0.018325 -0.599068 0.582064 0.940320 1 43 1.000000
gun
  43 -7.566312 -18.181564 47.624996 0.905622 0.018293 -0.423692 0.589473 0.927645 1 43 1.000000
  43 -7.393861 -18.211790 47.992321 0.800537 0.018298 -0.599004 0.588518 0.940320 1 43 1.000000
  43 -7.565845 -18.211037 47.624722 0.905620 0.018295 -0.423695 0.588516 0.927645 1 43 1.000000
gun
  43 -7.566312 -18.181564 47.624996 0.905622 0.018293 -0.423692 0.589473 0.927645 1 43 1.000000
  43 -7.394327 -18.182316 47.992596 0.800548 0.018263 -0.598990 0.589474 0.940320 1 43 1.000000
  43 -7.393861 -18.211790 47.992321 0.800537 0.018298 -0.599004 0.588518 0.940320 1 43 1.000000
gun
  43 -7.394327 -18.182316 47.992596 0.800548 0.018263 -0.598990 0.589474 0.940320 1 43 1.000000
  43 -7.320979 -17.899193 48.165482 0.908049 0.018313 -0.418463 0.598676 0.946165 1 43 1.000000
  43 -7.393861 -18.211790 47.992321 0.800537 0.018298 -0.599004 0.588518 0.940320 1 43 1.000000
gun
  43 -7.392755 -18.281729 47.991657 0.800452 0.018333 -0.599116 0.586248 0.940320 1 43 1.000000
  43 -7.393861 -18.211790 47.992321 0.800537 0.018298 -0.599004 0.588518 0.940320 1 43 1.000000
  43 -7.320979 -17.899193 48.165482 0.908049 0.018313 -0.418463 0.598676 0.946165 1 43 1.000000
gun
  43 -7.320979 -17.899193 48.165482 0.908049 0.018313 -0.418463 0.598676 0.946165 1 43 1.000000
  43 -7.308406 -18.694489 48.157974 0.908049 0.018298 -0.418464 0.572862 0.946165 1 43 1.000000
  43 -7.392755 -18.281729 47.991657 0.800452 0.018333 -0.599116 0.586248 0.940320 1 43 1.000000
gun
  43 -7.308406 -18.694489 48.157974 0.908049 0.018298 -0.418464 0.572862 0.946165 1 43 1.000000
  43 -7.392289 -18.311203 47.991379 0.800430 0.018333 -0.599146 0.585291 0.940320 1 43 1.000000
  43 -7.392755 -18.281729 47.991657 0.800452 0.018333 -0.599116 0.586248 0.940320 1 43 1.000000
gun
  43 -7.391183 -18.381142 47.990723 0.800509 0.018292 -0.599042 0.583021 0.940320 1 43 1.000000
  43 -7.392289 -18.311203 47.991379 0.800430 0.018333 -0.599146 0.585291 0.940320 1 43 1.000000
  43 -7.308406 -18.694489 48.157974 0.908049 0.018298 -0.418464 0.572862 0.946165 1 43 1.000000
gun
  43 -7.390717 -18.410610 47.990440 0.800489 0.018325 -0.599068 0.582064 0.940320 1 43 1.000000
  43 -7.391183 -18.381142 47.990723 0.800509 0.018292 -0.599042 0.583021 0.940320 1 43 1.000000
  43 -7.308406 -18.694489 48.157974 0.908049 0.018298 -0.418464 0.572862 0.946165 1 43 1.000000
gun
  43 -7.390717 -18.410610 47.990440 0.800489 0.018325 -0.599068 0.582064 0.940320 1 43 1.000000
  43 -7.563168 -18.380390 47.623119 0.905652 0.018319 -0.423626 0.583021 0.927650 1 43 1.000000
  43 -7.391183 -18.381142 47.990723 0.800509 0.018292 -0.599042 0.583021 0.940320 1 43 1.000000
gun
  43 -7.390717 -18.410610 47.990440 0.800489 0.018325 -0.599068 0.582064 0.940320 1 43 1.000000
  43 -7.562702 -18.409859 47.622841 0.905654 0.018318 -0.423622 0.582064 0.927650 1 43 1.000000
  43 -7.563168 -18.380390 47.623119 0.905652 0.018319 -0.423626 0.583021 0.927650 1 43 1.000000
gun
  43 -7.392289 -18.311203 47.991379 0.800430 0.018333 -0.599146 0.585291 0.940320 1 43 1.000000
  43 -7.564740 -18.280973 47.624058 0.905626 0.018344 -0.423680 0.586243 0.927636 1 43 1.000000
  43 -7.392755 -18.281729 47.991657 0.800452 0.018333 -0.599116 0.586248 0.940320 1 43 1.000000
gun
  43 -7.392289 -18.311203 47.991379 0.800430 0.018333 -0.599146 0.585291 0.940320 1 43 1.000000
  43 -7.564274 -18.310453 47.623779 0.905625 0.018344 -0.423682 0.585287 0.927636 1 43 1.000000
  43 -7.564740 -18.280973 47.624058 0.905626 0.018344 -0.423680 0.586243 0.927636 1 43 1.000000
gun
  43 -7.393861 -18.211790 47.992321 0.800537 0.018298 -0.599004 0.595943 0.907914 1 43 1.000000
  43 -7.410320 -18.281963 47.987167 0.639879 0.017383 -0.768279 0.598683 0.908948 1 43 1.000000
  43 -7.411425 -18.212027 47.987827 0.640155 0.017353 -0.768050 0.595943 0.908928 1 43 1.000000
gun
  43 -7.393861 -18.211790 47.992321 0.800537 0.018298 -0.599004 0.595943 0.907914 1 43 1.000000
  43 -7.392755 -18.281729 47.991657 0.800452 0.018333 -0.599116 0.598683 0.907934 1 43 1.000000
  43 -7.410320 -18.281963 47.987167 0.639879 0.017383 -0.768279 0.598683 0.908948 1 43 1.000000
gun
  43 -7.757615 -17.986485 47.708645 0.911850 0.018280 -0.410116 0.595940 0.907934 1 43 1.000000
  43 -7.747351 -17.901876 47.735233 0.911842 0.018288 -0.410135 0.598680 0.908937 1 43 1.000000
  43 -7.746013 -17.986544 47.734436 0.911853 0.018277 -0.410110 0.595938 0.908937 1 43 1.000000
gun
  43 -7.757615 -17.986485 47.708645 0.911850 0.018280 -0.410116 0.595940 0.907934 1 43 1.000000
  43 -7.758953 -17.901810 47.709446 0.911838 0.018290 -0.410142 0.598678 0.907925 1 43 1.000000
  43 -7.747351 -17.901876 47.735233 0.911842 0.018288 -0.410135 0.598680 0.908937 1 43 1.000000
gun
  43 -7.397470 -17.983490 47.994476 -0.015768 0.999831 0.009456 0.615589 0.907588 1 43 1.000000
  43 -7.572545 -17.982990 47.648247 -0.015834 0.999830 0.009462 0.603478 0.908826 1 43 1.000000
  43 -7.415035 -17.983725 47.989983 -0.015763 0.999831 0.009454 0.615230 0.908933 1 43 1.000000
gun
  43 -7.397470 -17.983490 47.994476 -0.015768 0.999831 0.009456 0.615589 0.907588 1 43 1.000000
  43 -7.569453 -17.982738 47.626877 -0.015815 0.999830 0.009444 0.602913 0.907695 1 43 1.000000
  43 -7.572545 -17.982990 47.648247 -0.015834 0.999830 0.009462 0.603478 0.908826 1 43 1.000000
gun
  43 -7.569453 -17.982738 47.626877 -0.015815 0.999830 0.009444 0.602913 0.907695 1 43 1.000000
  43 -7.746013 -17.986544 47.734436 -0.015810 0.999831 0.009362 0.603637 0.927389 1 43 1.000000
  43 -7.572545 -17.982990 47.648247 -0.015834 0.999830 0.009462 0.603478 0.908826 1 43 1.000000
gun
  43 -7.569453 -17.982738 47.626877 -0.015815 0.999830 0.009444 0.602913 0.907695 1 43 1.000000
  43 -7.757615 -17.986485 47.708645 -0.015813 0.999831 0.009358 0.602754 0.927356 1 43 1.000000
  43 -7.746013 -17.986544 47.734436 -0.015810 0.999831 0.009362 0.603637 0.927389 1 43 1.000000
gun
  43 -7.398808 -17.898817 47.995270 0.680540 0.017669 -0.732498 0.595943 0.907914 1 43 1.000000
  43 -7.415035 -17.983725 47.989983 0.639839 0.017340 -0.768313 0.598683 0.908948 1 43 1.000000
  43 -7.416373 -17.899052 47.990784 0.639789 0.017380 -0.768354 0.595943 0.908928 1 43 1.000000
gun
  43 -7.398808 -17.898817 47.995270 0.680540 0.017669 -0.732498 0.595943 0.907914 1 43 1.000000
  43 -7.397470 -17.983490 47.994476 0.800478 0.018286 -0.599084 0.598683 0.907934 1 43 1.000000
  43 -7.415035 -17.983725 47.989983 0.639839 0.017340 -0.768313 0.598683 0.908948 1 43 1.000000
gun
  43 -7.758953 -17.901810 47.709446 0.015720 -0.999831 -0.009573 0.602754 0.927356 1 43 1.000000
  43 -7.573883 -17.898317 47.649048 0.015831 -0.999830 -0.009412 0.603478 0.908826 1 43 1.000000
  43 -7.747351 -17.901876 47.735233 0.015717 -0.999831 -0.009582 0.603637 0.927389 1 43 1.000000
gun
  43 -7.758953 -17.901810 47.709446 0.015720 -0.999831 -0.009573 0.602754 0.927356 1 43 1.000000
  43 -7.570792 -17.898067 47.627670 0.015810 -0.999831 -0.009423 0.602913 0.907695 1 43 1.000000
  43 -7.573883 -17.898317 47.649048 0.015831 -0.999830 -0.009412 0.603478 0.908826 1 43 1.000000
gun
  43 -7.570792 -17.898067 47.627670 0.015810 -0.999831 -0.009423 0.602913 0.907695 1 43 1.000000
  43 -7.416373 -17.899052 47.990784 0.015885 -0.999829 -0.009507 0.615230 0.908933 1 43 1.000000
  43 -7.573883 -17.898317 47.649048 0.015831 -0.999830 -0.009412 0.603478 0.908826 1 43 1.000000
gun
  43 -7.570792 -17.898067 47.627670 0.015810 -0.999831 -0.009423 0.602913 0.907695 1 43 1.000000
  43 -7.398808 -17.898817 47.995270 0.015885 -0.999829 -0.009508 0.615589 0.907588 1 43 1.000000
  43 -7.416373 -17.899052 47.990784 0.015885 -0.999829 -0.009507 0.615230 0.908933 1 43 1.000000
gun
  43 -7.387574 -18.609434 47.988567 0.800574 0.018277 -0.598955 0.595943 0.907914 1 43 1.000000
  43 -7.403800 -18.694351 47.983276 0.639824 0.017366 -0.768325 0.598683 0.908948 1 43 1.000000
  43 -7.405138 -18.609669 47.984074 0.640246 0.017339 -0.767974 0.595943 0.908928 1 43 1.000000
gun
  43 -7.387574 -18.609434 47.988567 0.800574 0.018277 -0.598955 0.595943 0.907914 1 43 1.000000
  43 -7.386235 -18.694111 47.987766 0.680444 0.017687 -0.732586 0.598683 0.907934 1 43 1.000000
  43 -7.403800 -18.694351 47.983276 0.639824 0.017366 -0.768325 0.598683 0.908948 1 43 1.000000
gun
  43 -7.747718 -18.612431 47.702740 0.015808 -0.999830 -0.009488 0.602754 0.927356 1 43 1.000000
  43 -7.562648 -18.608932 47.642342 0.015715 -0.999833 -0.009330 0.603478 0.908826 1 43 1.000000
  43 -7.736116 -18.612492 47.728527 0.015804 -0.999830 -0.009495 0.603637 0.927389 1 43 1.000000
gun
  43 -7.747718 -18.612431 47.702740 0.015808 -0.999830 -0.009488 0.602754 0.927356 1 43 1.000000
  43 -7.559558 -18.608685 47.620964 0.015772 -0.999832 -0.009352 0.602913 0.907695 1 43 1.000000
  43 -7.562648 -18.608932 47.642342 0.015715 -0.999833 -0.009330 0.603478 0.908826 1 43 1.000000
gun
  43 -7.559558 -18.608685 47.620964 0.015772 -0.999832 -0.009352 0.602913 0.907695 1 43 1.000000
  43 -7.405138 -18.609669 47.984074 0.015881 -0.999829 -0.009434 0.615230 0.908933 1 43 1.000000
  43 -7.562648 -18.608932 47.642342 0.015715 -0.999833 -0.009330 0.603478 0.908826 1 43 1.000000
gun
  43 -7.559558 -18.608685 47.620964 0.015772 -0.999832 -0.009352 0.602913 0.907695 1 43 1.000000
  43 -7.387574 -18.609434 47.988567 0.015885 -0.999829 -0.009436 0.615589 0.907588 1 43 1.000000
  43 -7.405138 -18.609669 47.984074 0.015881 -0.999829 -0.009434 0.615230 0.908933 1 43 1.000000
gun
  43 -7.746377 -18.697109 47.701942 0.911789 0.018301 -0.410251 0.595940 0.907934 1 43 1.000000
  43 -7.736116 -18.612492 47.728527 0.911807 0.018287 -0.410212 0.598680 0.908937 1 43 1.000000
  43 -7.734776 -18.697168 47.727726 0.911783 0.018306 -0.410264 0.595938 0.908937 1 43 1.000000
gun
  43 -7.746377 -18.697109 47.701942 0.911789 0.018301 -0.410251 0.595940 0.907934 1 43 1.000000
  43 -7.747718 -18.612431 47.702740 0.911813 0.018282 -0.410199 0.598678 0.907925 1 43 1.000000
  43 -7.736116 -18.612492 47.728527 0.911807 0.018287 -0.410212 0.598680 0.908937 1 43 1.000000
gun
  43 -7.386235 -18.694111 47.987766 -0.016118 0.999825 0.009538 0.615589 0.907588 1 43 1.000000
  43 -7.561309 -18.693611 47.641544 -0.015740 0.999831 0.009451 0.603478 0.908826 1 43 1.000000
  43 -7.403800 -18.694351 47.983276 -0.016136 0.999824 0.009544 0.615230 0.908933 1 43 1.000000
gun
  43 -7.386235 -18.694111 47.987766 -0.016118 0.999825 0.009538 0.615589 0.907588 1 43 1.000000
  43 -7.558220 -18.693363 47.620167 -0.015777 0.999831 0.009466 0.602913 0.907695 1 43 1.000000
  43 -7.561309 -18.693611 47.641544 -0.015740 0.999831 0.009451 0.603478 0.908826 1 43 1.000000
gun
  43 -7.558220 -18.693363 47.620167 -0.015777 0.999831 0.009466 0.602913 0.907695 1 43 1.000000
  43 -7.734776 -18.697168 47.727726 -0.015818 0.999831 0.009347 0.603637 0.927389 1 43 1.000000
  43 -7.561309 -18.693611 47.641544 -0.015740 0.999831 0.009451 0.603478 0.908826 1 43 1.000000
gun
  43 -7.558220 -18.693363 47.620167 -0.015777 0.999831 0.009466 0.602913 0.907695 1 43 1.000000
  43 -7.746377 -18.697109 47.701942 -0.015815 0.999831 0.009335 0.602754 0.927356 1 43 1.000000
  43 -7.734776 -18.697168 47.727726 -0.015818 0.999831 0.009347 0.603637 0.927389 1 43 1.000000
gun
  43 -7.562702 -18.409859 47.622841 -0.398613 0.002373 -0.917116 0.583021 0.927650 1 43 1.000000
  43 -7.751328 -18.384138 47.704891 -0.428501 0.001712 -0.903540 0.582075 0.907947 1 43 1.000000
  43 -7.563168 -18.380390 47.623119 -0.398616 0.002385 -0.917115 0.582064 0.927650 1 43 1.000000
gun
  43 -7.562702 -18.409859 47.622841 -0.398613 0.002373 -0.917116 0.583021 0.927650 1 43 1.000000
  43 -7.750862 -18.413605 47.704617 -0.428522 0.001671 -0.903530 0.583032 0.907947 1 43 1.000000
  43 -7.751328 -18.384138 47.704891 -0.428501 0.001712 -0.903540 0.582075 0.907947 1 43 1.000000
gun
  43 -7.754472 -18.185310 47.706772 -0.426565 0.001902 -0.904455 0.588528 0.907942 1 43 1.000000
  43 -7.565845 -18.211037 47.624722 -0.398611 0.002274 -0.917117 0.589473 0.927645 1 43 1.000000
  43 -7.754004 -18.214787 47.706490 -0.409296 0.002253 -0.912399 0.589484 0.907942 1 43 1.000000
gun
  43 -7.754472 -18.185310 47.706772 -0.426565 0.001902 -0.904455 0.588528 0.907942 1 43 1.000000
  43 -7.566312 -18.181564 47.624996 -0.398609 0.002255 -0.917118 0.588516 0.927645 1 43 1.000000
  43 -7.565845 -18.211037 47.624722 -0.398611 0.002274 -0.917117 0.589473 0.927645 1 43 1.000000
gun
  43 -7.568989 -18.012215 47.626595 -0.398556 0.002480 -0.917141 0.595941 0.927640 1 43 1.000000
  43 -7.757615 -17.986485 47.708645 -0.428596 0.001677 -0.903495 0.594995 0.907937 1 43 1.000000
  43 -7.569453 -17.982738 47.626877 -0.398546 0.002503 -0.917145 0.595061 0.927650 1 43 1.000000
gun
  43 -7.568989 -18.012215 47.626595 -0.398556 0.002480 -0.917141 0.595941 0.927640 1 43 1.000000
  43 -7.757149 -18.015957 47.708370 -0.428634 0.001698 -0.903477 0.595940 0.907934 1 43 1.000000
  43 -7.757615 -17.986485 47.708645 -0.428596 0.001677 -0.903495 0.594995 0.907937 1 43 1.000000
gun
  43 -6.874326 -18.809185 48.964989 0.028793 -0.999414 0.018524 0.619076 0.977559 1 43 1.000000
  43 -7.255794 -18.824505 48.731365 0.028791 -0.999414 0.018528 0.610950 0.966649 1 43 1.000000
  43 -7.031094 -18.819967 48.626995 0.028789 -0.999414 0.018534 0.619315 0.966693 1 43 1.000000
gun
  43 -6.874326 -18.809185 48.964989 0.028793 -0.999414 0.018524 0.619076 0.977559 1 43 1.000000
  43 -7.099024 -18.813725 49.069355 0.028791 -0.999414 0.018524 0.610877 0.977545 1 43 1.000000
  43 -7.255794 -18.824505 48.731365 0.028791 -0.999414 0.018528 0.610950 0.966649 1 43 1.000000
gun
  43 -7.323724 -18.818262 49.173717 0.028789 -0.999414 0.018529 0.602710 0.977644 1 43 1.000000
  43 -7.255794 -18.824505 48.731365 0.028791 -0.999414 0.018528 0.610950 0.966649 1 43 1.000000
  43 -7.099024 -18.813725 49.069355 0.028791 -0.999414 0.018524 0.610877 0.977545 1 43 1.000000
gun
  43 -7.323724 -18.818262 49.173717 0.028789 -0.999414 0.018529 0.602710 0.977644 1 43 1.000000
  43 -7.478364 -18.828897 48.840324 0.028793 -0.999414 0.018528 0.602555 0.966683 1 43 1.000000
  43 -7.255794 -18.824505 48.731365 0.028791 -0.999414 0.018528 0.610950 0.966649 1 43 1.000000
gun
  43 -7.307190 -18.771412 48.157249 0.909290 0.018289 -0.415760 0.570364 0.946147 1 43 1.000000
  43 -7.557003 -18.770287 47.619438 0.905790 0.016603 -0.423402 0.570353 0.927594 1 43 1.000000
  43 -7.386235 -18.694111 47.987766 0.906846 0.004755 -0.421435 0.572862 0.940320 1 43 1.000000
gun
  43 -7.557003 -18.770287 47.619438 0.905790 0.016603 -0.423402 0.570353 0.927594 1 43 1.000000
  43 -7.558220 -18.693363 47.620167 0.905624 0.018341 -0.423685 0.572854 0.927558 1 43 1.000000
  43 -7.386235 -18.694111 47.987766 0.906846 0.004755 -0.421435 0.572862 0.940320 1 43 1.000000
gun
  43 -7.677466 -18.778996 48.340279 0.015812 -0.999830 -0.009434 0.601130 0.946240 1 43 1.000000
  43 -7.931501 -18.777847 47.793381 0.015803 -0.999831 -0.009436 0.601135 0.927622 1 43 1.000000
  43 -7.744254 -18.774067 47.706409 0.015812 -0.999830 -0.009434 0.610175 0.927796 1 43 1.000000
gun
  43 -7.307190 -18.771412 48.157249 0.015812 -0.999830 -0.009434 0.619097 0.946203 1 43 1.000000
  43 -7.117544 -18.772821 48.624138 0.015825 -0.999830 -0.009446 0.616729 0.961437 1 43 1.000000
  43 -7.306302 -18.771971 48.217773 0.015802 -0.999830 -0.009487 0.616729 0.947918 1 43 1.000000
gun
  43 -7.307190 -18.771412 48.157249 0.015812 -0.999830 -0.009434 0.619097 0.946203 1 43 1.000000
  43 -7.072119 -18.772472 48.663311 0.015820 -0.999830 -0.009433 0.619052 0.963212 1 43 1.000000
  43 -7.117544 -18.772821 48.624138 0.015825 -0.999830 -0.009446 0.616729 0.961437 1 43 1.000000
gun
  43 -7.444506 -18.780048 48.841797 0.015808 -0.999830 -0.009445 0.601157 0.963435 1 43 1.000000
  43 -7.117544 -18.772821 48.624138 0.015825 -0.999830 -0.009446 0.616729 0.961437 1 43 1.000000
  43 -7.072119 -18.772472 48.663311 0.015820 -0.999830 -0.009433 0.619052 0.963212 1 43 1.000000
gun
  43 -7.444506 -18.780048 48.841797 0.015808 -0.999830 -0.009445 0.601157 0.963435 1 43 1.000000
  43 -7.445392 -18.779488 48.781273 0.015791 -0.999831 -0.009446 0.603476 0.961492 1 43 1.000000
  43 -7.117544 -18.772821 48.624138 0.015825 -0.999830 -0.009446 0.616729 0.961437 1 43 1.000000
gun
  43 -7.444506 -18.780048 48.841797 0.015808 -0.999830 -0.009445 0.601157 0.963435 1 43 1.000000
  43 -7.632287 -18.778641 48.378914 0.015883 -0.999830 -0.009406 0.603476 0.948028 1 43 1.000000
  43 -7.445392 -18.779488 48.781273 0.015791 -0.999831 -0.009446 0.603476 0.961492 1 43 1.000000
gun
  43 -7.444506 -18.780048 48.841797 0.015808 -0.999830 -0.009445 0.601157 0.963435 1 43 1.000000
  43 -7.677466 -18.778996 48.340279 0.015812 -0.999830 -0.009434 0.601130 0.946240 1 43 1.000000
  43 -7.632287 -18.778641 48.378914 0.015883 -0.999830 -0.009406 0.603476 0.948028 1 43 1.000000
gun
  43 -7.677466 -18.778996 48.340279 0.015812 -0.999830 -0.009434 0.601130 0.946240 1 43 1.000000
  43 -7.306302 -18.771971 48.217773 0.015802 -0.999830 -0.009487 0.616729 0.947918 1 43 1.000000
  43 -7.632287 -18.778641 48.378914 0.015883 -0.999830 -0.009406 0.603476 0.948028 1 43 1.000000
gun
  43 -7.677466 -18.778996 48.340279 0.015812 -0.999830 -0.009434 0.601130 0.946240 1 43 1.000000
  43 -7.307190 -18.771412 48.157249 0.015812 -0.999830 -0.009434 0.619097 0.946203 1 43 1.000000
  43 -7.306302 -18.771971 48.217773 0.015802 -0.999830 -0.009487 0.616729 0.947918 1 43 1.000000
gun
  43 -7.744254 -18.774067 47.706409 0.015812 -0.999830 -0.009434 0.610175 0.927796 1 43 1.000000
  43 -7.307190 -18.771412 48.157249 0.015812 -0.999830 -0.009434 0.619097 0.946203 1 43 1.000000
  43 -7.677466 -18.778996 48.340279 0.015812 -0.999830 -0.009434 0.601130 0.946240 1 43 1.000000
gun
  43 -7.744254 -18.774067 47.706409 0.015812 -0.999830 -0.009434 0.610175 0.927796 1 43 1.000000
  43 -7.557003 -18.770287 47.619438 0.015819 -0.999830 -0.009439 0.619097 0.927651 1 43 1.000000
  43 -7.307190 -18.771412 48.157249 0.015812 -0.999830 -0.009434 0.619097 0.946203 1 43 1.000000
gun
  43 -7.572009 -17.821136 47.628399 -0.398617 0.002378 -0.917114 0.601135 0.927622 1 43 1.000000
  43 -7.570792 -17.898067 47.627670 -0.398617 0.002378 -0.917114 0.598668 0.927558 1 43 1.000000
  43 -7.758953 -17.901810 47.709446 -0.398617 0.002378 -0.917114 0.598678 0.907925 1 43 1.000000
gun
  43 -7.341172 -17.783688 49.181137 -0.028288 0.999430 -0.018438 0.619076 0.977559 1 43 1.000000
  43 -7.273242 -17.789927 48.738777 -0.028353 0.999427 -0.018458 0.610950 0.966649 1 43 1.000000
  43 -7.501522 -17.794424 48.835445 -0.027446 0.999456 -0.018313 0.619315 0.966693 1 43 1.000000
gun
  43 -7.341172 -17.783688 49.181137 -0.028288 0.999430 -0.018438 0.619076 0.977559 1 43 1.000000
  43 -7.116473 -17.779148 49.076771 -0.028788 0.999414 -0.018516 0.610877 0.977545 1 43 1.000000
  43 -7.273242 -17.789927 48.738777 -0.028353 0.999427 -0.018458 0.610950 0.966649 1 43 1.000000
gun
  43 -6.891773 -17.774612 48.972404 -0.028781 0.999414 -0.018526 0.602710 0.977644 1 43 1.000000
  43 -7.273242 -17.789927 48.738777 -0.028353 0.999427 -0.018458 0.610950 0.966649 1 43 1.000000
  43 -7.116473 -17.779148 49.076771 -0.028788 0.999414 -0.018516 0.610877 0.977545 1 43 1.000000
gun
  43 -6.891773 -17.774612 48.972404 -0.028781 0.999414 -0.018526 0.602710 0.977644 1 43 1.000000
  43 -7.048543 -17.785393 48.634418 -0.028773 0.999414 -0.018540 0.602555 0.966683 1 43 1.000000
  43 -7.273242 -17.789927 48.738777 -0.028353 0.999427 -0.018458 0.610950 0.966649 1 43 1.000000
gun
  43 -7.557003 -18.770287 47.619438 -0.398618 0.002386 -0.917114 0.570353 0.927594 1 43 1.000000
  43 -7.746377 -18.697109 47.701942 -0.398618 0.002386 -0.917114 0.572861 0.907890 1 43 1.000000
  43 -7.558220 -18.693363 47.620167 -0.398618 0.002386 -0.917114 0.572854 0.927558 1 43 1.000000
gun
  43 -6.891773 -17.774612 48.972404 0.906789 0.018315 -0.421187 0.602710 0.977644 1 43 1.000000
  43 -7.031094 -18.819967 48.626995 0.906794 0.018312 -0.421176 0.568907 0.966626 1 43 1.000000
  43 -7.048543 -17.785393 48.634418 0.906787 0.018316 -0.421191 0.602555 0.966683 1 43 1.000000
gun
  43 -6.891773 -17.774612 48.972404 0.906789 0.018315 -0.421187 0.602710 0.977644 1 43 1.000000
  43 -6.874326 -18.809185 48.964989 0.906796 0.018311 -0.421172 0.569208 0.977599 1 43 1.000000
  43 -7.031094 -18.819967 48.626995 0.906794 0.018312 -0.421176 0.568907 0.966626 1 43 1.000000
gun
  43 -7.153181 -17.566402 48.599834 0.031226 0.993243 0.111770 0.629642 0.948512 1 43 1.000000
  43 -7.647216 -17.738827 48.391212 -0.283989 0.772608 -0.567827 0.641714 0.961380 1 43 1.000000
  43 -7.482516 -17.573101 48.753777 0.032251 0.993168 0.112145 0.641680 0.948552 1 43 1.000000
gun
  43 -7.153181 -17.566402 48.599834 0.031226 0.993243 0.111770 0.629642 0.948512 1 43 1.000000
  43 -7.318256 -17.731314 48.236500 -0.284402 0.772953 -0.567150 0.629518 0.961339 1 43 1.000000
  43 -7.647216 -17.738827 48.391212 -0.283989 0.772608 -0.567827 0.641714 0.961380 1 43 1.000000
gun
  43 -7.255794 -18.824505 48.731365 -0.411333 0.342991 -0.844490 0.610950 0.966649 1 43 1.000000
  43 -7.478364 -18.828897 48.840324 -0.269166 0.205488 -0.940917 0.602555 0.966683 1 43 1.000000
  43 -7.444506 -18.780048 48.841797 -0.171783 0.150422 -0.973583 0.601157 0.963435 1 43 1.000000
gun
  43 -7.444506 -18.780048 48.841797 -0.171783 0.150422 -0.973583 0.601157 0.963435 1 43 1.000000
  43 -7.072119 -18.772472 48.663311 -0.542071 0.158790 -0.825194 0.619052 0.963212 1 43 1.000000
  43 -7.255794 -18.824505 48.731365 -0.411333 0.342991 -0.844490 0.610950 0.966649 1 43 1.000000
gun
  43 -7.072119 -18.772472 48.663311 -0.542071 0.158790 -0.825194 0.619052 0.963212 1 43 1.000000
  43 -7.031094 -18.819967 48.626995 -0.553712 0.148227 -0.819410 0.619315 0.966693 1 43 1.000000
  43 -7.255794 -18.824505 48.731365 -0.411333 0.342991 -0.844490 0.610950 0.966649 1 43 1.000000
gun
  43 -7.441498 -19.025795 48.778946 -0.906293 -0.018323 0.422252 0.629518 0.961339 1 43 1.000000
  43 -7.445392 -18.779488 48.781273 -0.906524 -0.017820 0.421778 0.621322 0.961276 1 43 1.000000
  43 -7.447717 -19.036594 48.765125 -0.906403 -0.018307 0.422017 0.629518 0.961339 1 43 1.000000
gun
  43 -7.626741 -18.870230 48.387661 -0.906596 -0.015478 0.421717 0.623951 0.948027 1 43 1.000000
  43 -7.447717 -19.036594 48.765125 -0.906403 -0.018307 0.422017 0.629518 0.961339 1 43 1.000000
  43 -7.445392 -18.779488 48.781273 -0.906524 -0.017820 0.421778 0.621322 0.961276 1 43 1.000000
gun
  43 -7.445392 -18.779488 48.781273 -0.906524 -0.017820 0.421778 0.621322 0.961276 1 43 1.000000
  43 -7.632287 -18.778641 48.378914 -0.906784 -0.014675 0.421341 0.621322 0.948009 1 43 1.000000
  43 -7.626741 -18.870230 48.387661 -0.906596 -0.015478 0.421717 0.623951 0.948027 1 43 1.000000
gun
  43 -7.632287 -18.778641 48.378914 -0.906784 -0.014675 0.421341 0.621322 0.948009 1 43 1.000000
  43 -7.631357 -18.854479 48.378319 -0.905936 -0.014440 0.423168 0.623951 0.948027 1 43 1.000000
  43 -7.626741 -18.870230 48.387661 -0.906596 -0.015478 0.421717 0.623951 0.948027 1 43 1.000000
gun
  43 -7.572009 -17.821136 47.628399 0.000000 0.000000 1.000000 0.601135 0.927622 1 43 1.000000
  43 -7.759260 -17.824917 47.715370 -0.015802 0.999831 0.009435 0.610175 0.927796 1 43 1.000000
  43 -7.572009 -17.821136 47.628399 -0.011121 0.703673 0.710437 0.601135 0.927622 1 43 1.000000
gun
  43 -7.322196 -17.822266 48.166210 -0.015802 0.999831 0.009435 0.601130 0.946240 1 43 1.000000
  43 -7.572009 -17.821136 47.628399 -0.011121 0.703673 0.710437 0.601135 0.927622 1 43 1.000000
  43 -7.759260 -17.824917 47.715370 -0.015802 0.999831 0.009435 0.610175 0.927796 1 43 1.000000
gun
  43 -7.759260 -17.824917 47.715370 -0.015802 0.999831 0.009435 0.610175 0.927796 1 43 1.000000
  43 -7.695854 -17.829830 48.341953 -0.015802 0.999831 0.009435 0.619097 0.946203 1 43 1.000000
  43 -7.322196 -17.822266 48.166210 -0.015802 0.999831 0.009435 0.601130 0.946240 1 43 1.000000
gun
  43 -7.759260 -17.824917 47.715370 -0.015802 0.999831 0.009435 0.610175 0.927796 1 43 1.000000
  43 -7.946507 -17.828697 47.802341 -0.015802 0.999831 0.009439 0.619097 0.927651 1 43 1.000000
  43 -7.695854 -17.829830 48.341953 -0.015802 0.999831 0.009435 0.619097 0.946203 1 43 1.000000
gun
  43 -7.099767 -17.823269 48.645050 -0.015846 0.999830 0.009415 0.601157 0.963435 1 43 1.000000
  43 -7.474532 -17.830278 48.759804 -0.015811 0.999830 0.009435 0.616729 0.961437 1 43 1.000000
  43 -7.473848 -17.830833 48.819897 -0.015812 0.999830 0.009438 0.619052 0.963212 1 43 1.000000
gun
  43 -7.695854 -17.829830 48.341953 -0.015802 0.999831 0.009435 0.619097 0.946203 1 43 1.000000
  43 -7.473848 -17.830833 48.819897 -0.015812 0.999830 0.009438 0.619052 0.963212 1 43 1.000000
  43 -7.474532 -17.830278 48.759804 -0.015811 0.999830 0.009435 0.616729 0.961437 1 43 1.000000
gun
  43 -7.695854 -17.829830 48.341953 -0.015802 0.999831 0.009435 0.619097 0.946203 1 43 1.000000
  43 -7.474532 -17.830278 48.759804 -0.015811 0.999830 0.009435 0.616729 0.961437 1 43 1.000000
  43 -7.650481 -17.829483 48.381020 -0.015791 0.999830 0.009480 0.616729 0.947918 1 43 1.000000
gun
  43 -7.322196 -17.822266 48.166210 -0.015802 0.999831 0.009435 0.601130 0.946240 1 43 1.000000
  43 -7.695854 -17.829830 48.341953 -0.015802 0.999831 0.009435 0.619097 0.946203 1 43 1.000000
  43 -7.650481 -17.829483 48.381020 -0.015791 0.999830 0.009480 0.616729 0.947918 1 43 1.000000
gun
  43 -7.322196 -17.822266 48.166210 -0.015802 0.999831 0.009435 0.601130 0.946240 1 43 1.000000
  43 -7.650481 -17.829483 48.381020 -0.015791 0.999830 0.009480 0.616729 0.947918 1 43 1.000000
  43 -7.321511 -17.822826 48.226295 -0.015855 0.999830 0.009465 0.603476 0.948028 1 43 1.000000
gun
  43 -7.099767 -17.823269 48.645050 -0.015846 0.999830 0.009415 0.601157 0.963435 1 43 1.000000
  43 -7.322196 -17.822266 48.166210 -0.015802 0.999831 0.009435 0.601130 0.946240 1 43 1.000000
  43 -7.321511 -17.822826 48.226295 -0.015855 0.999830 0.009465 0.603476 0.948028 1 43 1.000000
gun
  43 -7.099767 -17.823269 48.645050 -0.015846 0.999830 0.009415 0.601157 0.963435 1 43 1.000000
  43 -7.321511 -17.822826 48.226295 -0.015855 0.999830 0.009465 0.603476 0.948028 1 43 1.000000
  43 -7.145192 -17.823620 48.605877 -0.015867 0.999830 0.009430 0.603476 0.961492 1 43 1.000000
gun
  43 -7.099767 -17.823269 48.645050 -0.015846 0.999830 0.009415 0.601157 0.963435 1 43 1.000000
  43 -7.145192 -17.823620 48.605877 -0.015867 0.999830 0.009430 0.603476 0.961492 1 43 1.000000
  43 -7.474532 -17.830278 48.759804 -0.015811 0.999830 0.009435 0.616729 0.961437 1 43 1.000000
gun
  43 -7.469961 -18.103003 48.816422 -0.906793 -0.018317 0.421178 0.592464 0.963646 1 43 1.000000
  43 -7.473848 -17.830833 48.819897 -0.906794 -0.018325 0.421176 0.601157 0.963435 1 43 1.000000
  43 -7.695854 -17.829830 48.341953 -0.906793 -0.018315 0.421178 0.601130 0.946240 1 43 1.000000
gun
  43 -7.469961 -18.103003 48.816422 -0.906793 -0.018317 0.421178 0.592464 0.963646 1 43 1.000000
  43 -7.695854 -17.829830 48.341953 -0.906793 -0.018315 0.421178 0.601130 0.946240 1 43 1.000000
  43 -7.677466 -18.778996 48.340279 -0.906793 -0.018310 0.421178 0.570364 0.946147 1 43 1.000000
gun
  43 -7.677466 -18.778996 48.340279 -0.906793 -0.018310 0.421178 0.570364 0.946147 1 43 1.000000
  43 -7.450920 -18.507864 48.839821 -0.906796 -0.018309 0.421173 0.578912 0.963644 1 43 1.000000
  43 -7.469961 -18.103003 48.816422 -0.906793 -0.018317 0.421178 0.592464 0.963646 1 43 1.000000
gun
  43 -7.677466 -18.778996 48.340279 -0.906793 -0.018310 0.421178 0.570364 0.946147 1 43 1.000000
  43 -7.444506 -18.780048 48.841797 -0.906797 -0.018315 0.421170 0.570352 0.963528 1 43 1.000000
  43 -7.450920 -18.507864 48.839821 -0.906796 -0.018309 0.421173 0.578912 0.963644 1 43 1.000000
gun
  43 -7.474532 -17.830278 48.759804 -0.907094 -0.017807 0.420551 0.621322 0.961276 1 43 1.000000
  43 -7.475979 -17.583969 48.767399 -0.907098 -0.018295 0.420523 0.629518 0.961339 1 43 1.000000
  43 -7.482516 -17.573101 48.753777 -0.907120 -0.018300 0.420474 0.629518 0.961339 1 43 1.000000
gun
  43 -7.482516 -17.573101 48.753777 -0.907120 -0.018300 0.420474 0.629518 0.961339 1 43 1.000000
  43 -7.647216 -17.738827 48.391212 -0.907139 -0.015501 0.420546 0.623951 0.948027 1 43 1.000000
  43 -7.474532 -17.830278 48.759804 -0.907094 -0.017807 0.420551 0.621322 0.961276 1 43 1.000000
gun
  43 -7.650481 -17.829483 48.381020 -0.906927 -0.014668 0.421032 0.621322 0.948009 1 43 1.000000
  43 -7.474532 -17.830278 48.759804 -0.907094 -0.017807 0.420551 0.621322 0.961276 1 43 1.000000
  43 -7.647216 -17.738827 48.391212 -0.907139 -0.015501 0.420546 0.623951 0.948027 1 43 1.000000
gun
  43 -7.651399 -17.754538 48.381603 -0.908073 -0.014360 0.418565 0.623951 0.948027 1 43 1.000000
  43 -7.650481 -17.829483 48.381020 -0.906927 -0.014668 0.421032 0.621322 0.948009 1 43 1.000000
  43 -7.647216 -17.738827 48.391212 -0.907139 -0.015501 0.420546 0.623951 0.948027 1 43 1.000000
gun
  43 -7.447717 -19.036594 48.765125 0.069451 -0.992140 0.104089 0.629525 0.961545 1 43 1.000000
  43 -7.113651 -19.019127 48.621811 0.391419 -0.459699 0.797163 0.641694 0.961490 1 43 1.000000
  43 -7.441498 -19.025795 48.778946 0.391921 -0.457288 0.798302 0.629518 0.961339 1 43 1.000000
gun
  43 -7.447717 -19.036594 48.765125 0.069451 -0.992140 0.104089 0.629525 0.961545 1 43 1.000000
  43 -7.119868 -19.029949 48.607975 0.067243 -0.992882 0.098301 0.641694 0.961490 1 43 1.000000
  43 -7.113651 -19.019127 48.621811 0.391419 -0.459699 0.797163 0.641694 0.961490 1 43 1.000000
gun
  43 -7.445392 -18.779488 48.781273 0.432247 -0.001685 0.901754 0.629541 0.964333 1 43 1.000000
  43 -7.113651 -19.019127 48.621811 0.391419 -0.459699 0.797163 0.641694 0.961490 1 43 1.000000
  43 -7.117544 -18.772821 48.624138 0.432258 -0.001685 0.901748 0.641659 0.964333 1 43 1.000000
gun
  43 -7.445392 -18.779488 48.781273 0.432247 -0.001685 0.901754 0.629541 0.964333 1 43 1.000000
  43 -7.441498 -19.025795 48.778946 0.391921 -0.457288 0.798302 0.629525 0.961545 1 43 1.000000
  43 -7.113651 -19.019127 48.621811 0.391419 -0.459699 0.797163 0.641694 0.961490 1 43 1.000000
gun
  43 -7.153181 -17.566402 48.599834 0.031226 0.993243 0.111770 0.629525 0.961545 1 43 1.000000
  43 -7.475979 -17.583969 48.767399 0.371944 0.444296 0.815021 0.641694 0.961490 1 43 1.000000
  43 -7.146644 -17.577309 48.613468 0.371901 0.444473 0.814944 0.629518 0.961339 1 43 1.000000
gun
  43 -7.153181 -17.566402 48.599834 0.031226 0.993243 0.111770 0.629525 0.961545 1 43 1.000000
  43 -7.482516 -17.573101 48.753777 0.032251 0.993168 0.112145 0.641694 0.961490 1 43 1.000000
  43 -7.475979 -17.583969 48.767399 0.371944 0.444296 0.815021 0.641694 0.961490 1 43 1.000000
gun
  43 -7.145192 -17.823620 48.605877 0.423724 -0.025417 0.905435 0.629541 0.964333 1 43 1.000000
  43 -7.475979 -17.583969 48.767399 0.371944 0.444296 0.815021 0.641694 0.961490 1 43 1.000000
  43 -7.474532 -17.830278 48.759804 0.423717 -0.025431 0.905438 0.641659 0.964333 1 43 1.000000
gun
  43 -7.145192 -17.823620 48.605877 0.423724 -0.025417 0.905435 0.629541 0.964333 1 43 1.000000
  43 -7.146644 -17.577309 48.613468 0.371901 0.444473 0.814944 0.629525 0.961545 1 43 1.000000
  43 -7.475979 -17.583969 48.767399 0.371944 0.444296 0.815021 0.641694 0.961490 1 43 1.000000
gun
  43 -7.473848 -17.830833 48.819897 -0.432184 0.062035 -0.899649 0.601157 0.963435 1 43 1.000000
  43 -7.498864 -18.091112 48.828259 -0.388038 -0.015039 -0.921521 0.592874 0.966643 1 43 1.000000
  43 -7.501522 -17.794424 48.835445 -0.427152 0.060566 -0.902149 0.602555 0.966683 1 43 1.000000
gun
  43 -7.473848 -17.830833 48.819897 -0.432184 0.062035 -0.899649 0.601157 0.963435 1 43 1.000000
  43 -7.469961 -18.103003 48.816422 -0.383239 -0.029891 -0.923166 0.592464 0.963646 1 43 1.000000
  43 -7.498864 -18.091112 48.828259 -0.388038 -0.015039 -0.921521 0.592874 0.966643 1 43 1.000000
gun
  43 -7.469961 -18.103003 48.816422 -0.383239 -0.029891 -0.923166 0.592464 0.963646 1 43 1.000000
  43 -7.481869 -18.532387 48.845665 -0.185325 -0.007945 -0.982645 0.578525 0.966643 1 43 1.000000
  43 -7.498864 -18.091112 48.828259 -0.388038 -0.015039 -0.921521 0.592874 0.966643 1 43 1.000000
gun
  43 -7.469961 -18.103003 48.816422 -0.383239 -0.029891 -0.923166 0.592464 0.963646 1 43 1.000000
  43 -7.450920 -18.507864 48.839821 -0.146207 -0.040815 -0.988412 0.578912 0.963644 1 43 1.000000
  43 -7.481869 -18.532387 48.845665 -0.185325 -0.007945 -0.982645 0.578525 0.966643 1 43 1.000000
gun
  43 -7.450920 -18.507864 48.839821 -0.146207 -0.040815 -0.988412 0.578912 0.963644 1 43 1.000000
  43 -7.478364 -18.828897 48.840324 -0.269166 0.205488 -0.940917 0.568907 0.966626 1 43 1.000000
  43 -7.481869 -18.532387 48.845665 -0.185325 -0.007945 -0.982645 0.578525 0.966643 1 43 1.000000
gun
  43 -7.450920 -18.507864 48.839821 -0.146207 -0.040815 -0.988412 0.578912 0.963644 1 43 1.000000
  43 -7.444506 -18.780048 48.841797 -0.171783 0.150422 -0.973583 0.570352 0.963528 1 43 1.000000
  43 -7.478364 -18.828897 48.840324 -0.269166 0.205488 -0.940917 0.568907 0.966626 1 43 1.000000
gun
  43 -7.946507 -17.828697 47.802341 -0.906796 -0.018310 0.421172 0.601016 0.887793 1 43 1.000000
  43 -7.677466 -18.778996 48.340279 -0.906796 -0.018310 0.421172 0.570028 0.868776 1 43 1.000000
  43 -7.695854 -17.829830 48.341953 -0.906796 -0.018310 0.421172 0.600835 0.869027 1 43 1.000000
gun
  43 -7.946507 -17.828697 47.802341 -0.906796 -0.018310 0.421172 0.601016 0.887793 1 43 1.000000
  43 -7.931501 -18.777847 47.793381 -0.906798 -0.018312 0.421168 0.570208 0.887793 1 43 1.000000
  43 -7.677466 -18.778996 48.340279 -0.906796 -0.018310 0.421172 0.570028 0.868776 1 43 1.000000
gun
  43 -7.389146 -18.510019 47.989502 0.800515 0.018356 -0.599032 0.595943 0.907914 1 43 1.000000
  43 -7.405605 -18.580196 47.984352 0.639985 0.017355 -0.768191 0.598683 0.908948 1 43 1.000000
  43 -7.406710 -18.510254 47.985012 0.640004 0.017353 -0.768176 0.595943 0.908928 1 43 1.000000
gun
  43 -7.389146 -18.510019 47.989502 0.800515 0.018356 -0.599032 0.595943 0.907914 1 43 1.000000
  43 -7.388040 -18.579960 47.988842 0.800505 0.018281 -0.599047 0.598683 0.907934 1 43 1.000000
  43 -7.405605 -18.580196 47.984352 0.639985 0.017355 -0.768191 0.598683 0.908948 1 43 1.000000
gun
  43 -7.748184 -18.582954 47.703018 0.911837 0.018283 -0.410145 0.595940 0.907934 1 43 1.000000
  43 -7.737688 -18.513077 47.729465 0.911815 0.018300 -0.410193 0.598680 0.908937 1 43 1.000000
  43 -7.736582 -18.583019 47.728806 0.911848 0.018276 -0.410121 0.595938 0.908937 1 43 1.000000
gun
  43 -7.748184 -18.582954 47.703018 0.911837 0.018283 -0.410145 0.595940 0.907934 1 43 1.000000
  43 -7.749289 -18.513020 47.703678 0.911804 0.018308 -0.410217 0.598678 0.907925 1 43 1.000000
  43 -7.737688 -18.513077 47.729465 0.911815 0.018300 -0.410193 0.598680 0.908937 1 43 1.000000
gun
  43 -7.388040 -18.579960 47.988842 -0.015883 0.999829 0.009455 0.615589 0.907588 1 43 1.000000
  43 -7.563114 -18.579462 47.642620 -0.015849 0.999830 0.009457 0.603478 0.908826 1 43 1.000000
  43 -7.405605 -18.580196 47.984352 -0.015883 0.999829 0.009454 0.615230 0.908933 1 43 1.000000
gun
  43 -7.388040 -18.579960 47.988842 -0.015883 0.999829 0.009455 0.615589 0.907588 1 43 1.000000
  43 -7.560025 -18.579210 47.621243 -0.015827 0.999830 0.009450 0.602913 0.907695 1 43 1.000000
  43 -7.563114 -18.579462 47.642620 -0.015849 0.999830 0.009457 0.603478 0.908826 1 43 1.000000
gun
  43 -7.560025 -18.579210 47.621243 -0.015827 0.999830 0.009450 0.602913 0.907695 1 43 1.000000
  43 -7.736582 -18.583019 47.728806 -0.015765 0.999831 0.009479 0.603637 0.927389 1 43 1.000000
  43 -7.563114 -18.579462 47.642620 -0.015849 0.999830 0.009457 0.603478 0.908826 1 43 1.000000
gun
  43 -7.560025 -18.579210 47.621243 -0.015827 0.999830 0.009450 0.602913 0.907695 1 43 1.000000
  43 -7.748184 -18.582954 47.703018 -0.015764 0.999831 0.009482 0.602754 0.927356 1 43 1.000000
  43 -7.736582 -18.583019 47.728806 -0.015765 0.999831 0.009479 0.603637 0.927389 1 43 1.000000
gun
  43 -7.749755 -18.483543 47.703953 0.911814 0.018346 -0.410193 0.595940 0.907934 1 43 1.000000
  43 -7.739260 -18.413664 47.730408 0.911799 0.018330 -0.410228 0.598680 0.908937 1 43 1.000000
  43 -7.738153 -18.483606 47.729740 0.911821 0.018353 -0.410177 0.595938 0.908937 1 43 1.000000
gun
  43 -7.749755 -18.483543 47.703953 0.911814 0.018346 -0.410193 0.595940 0.907934 1 43 1.000000
  43 -7.750862 -18.413605 47.704617 0.911791 0.018323 -0.410245 0.598678 0.907925 1 43 1.000000
  43 -7.739260 -18.413664 47.730408 0.911799 0.018330 -0.410228 0.598680 0.908937 1 43 1.000000
gun
  43 -7.389612 -18.480549 47.989784 -0.015760 0.999831 0.009451 0.615589 0.907588 1 43 1.000000
  43 -7.564686 -18.480049 47.643562 -0.015792 0.999831 0.009404 0.603478 0.908826 1 43 1.000000
  43 -7.407176 -18.480783 47.985294 -0.015760 0.999831 0.009454 0.615230 0.908933 1 43 1.000000
gun
  43 -7.389612 -18.480549 47.989784 -0.015760 0.999831 0.009451 0.615589 0.907588 1 43 1.000000
  43 -7.561596 -18.479797 47.622181 -0.015801 0.999831 0.009418 0.602913 0.907695 1 43 1.000000
  43 -7.564686 -18.480049 47.643562 -0.015792 0.999831 0.009404 0.603478 0.908826 1 43 1.000000
gun
  43 -7.561596 -18.479797 47.622181 -0.015801 0.999831 0.009418 0.602913 0.907695 1 43 1.000000
  43 -7.738153 -18.483606 47.729740 -0.015764 0.999830 0.009527 0.603637 0.927389 1 43 1.000000
  43 -7.564686 -18.480049 47.643562 -0.015792 0.999831 0.009404 0.603478 0.908826 1 43 1.000000
gun
  43 -7.561596 -18.479797 47.622181 -0.015801 0.999831 0.009418 0.602913 0.907695 1 43 1.000000
  43 -7.749755 -18.483543 47.703953 -0.015759 0.999830 0.009534 0.602754 0.927356 1 43 1.000000
  43 -7.738153 -18.483606 47.729740 -0.015764 0.999830 0.009527 0.603637 0.927389 1 43 1.000000
gun
  43 -7.390717 -18.410610 47.990440 0.800489 0.018325 -0.599068 0.595943 0.907914 1 43 1.000000
  43 -7.407176 -18.480783 47.985294 0.639839 0.017335 -0.768314 0.598683 0.908948 1 43 1.000000
  43 -7.408282 -18.410845 47.985950 0.639896 0.017332 -0.768266 0.595943 0.908928 1 43 1.000000
gun
  43 -7.390717 -18.410610 47.990440 0.800489 0.018325 -0.599068 0.595943 0.907914 1 43 1.000000
  43 -7.389612 -18.480549 47.989784 0.800451 0.018323 -0.599118 0.598683 0.907934 1 43 1.000000
  43 -7.407176 -18.480783 47.985294 0.639839 0.017335 -0.768314 0.598683 0.908948 1 43 1.000000
gun
  43 -7.750862 -18.413605 47.704617 0.015814 -0.999831 -0.009318 0.602754 0.927356 1 43 1.000000
  43 -7.565792 -18.410110 47.644218 0.015780 -0.999832 -0.009344 0.603478 0.908826 1 43 1.000000
  43 -7.739260 -18.413664 47.730408 0.015814 -0.999832 -0.009319 0.603637 0.927389 1 43 1.000000
gun
  43 -7.750862 -18.413605 47.704617 0.015814 -0.999831 -0.009318 0.602754 0.927356 1 43 1.000000
  43 -7.562702 -18.409859 47.622841 0.015789 -0.999832 -0.009331 0.602913 0.907695 1 43 1.000000
  43 -7.565792 -18.410110 47.644218 0.015780 -0.999832 -0.009344 0.603478 0.908826 1 43 1.000000
gun
  43 -7.562702 -18.409859 47.622841 0.015789 -0.999832 -0.009331 0.602913 0.907695 1 43 1.000000
  43 -7.408282 -18.410845 47.985950 0.015640 -0.999834 -0.009393 0.615230 0.908933 1 43 1.000000
  43 -7.565792 -18.410110 47.644218 0.015780 -0.999832 -0.009344 0.603478 0.908826 1 43 1.000000
gun
  43 -7.562702 -18.409859 47.622841 0.015789 -0.999832 -0.009331 0.602913 0.907695 1 43 1.000000
  43 -7.390717 -18.410610 47.990440 0.015639 -0.999834 -0.009393 0.615589 0.907588 1 43 1.000000
  43 -7.408282 -18.410845 47.985950 0.015640 -0.999834 -0.009393 0.615230 0.908933 1 43 1.000000
gun
  43 -7.395432 -18.112377 47.993256 0.800531 0.018328 -0.599011 0.595943 0.907914 1 43 1.000000
  43 -7.411891 -18.182552 47.988110 0.639944 0.017347 -0.768226 0.598683 0.908948 1 43 1.000000
  43 -7.412997 -18.112614 47.988766 0.640012 0.017322 -0.768170 0.595943 0.908928 1 43 1.000000
gun
  43 -7.395432 -18.112377 47.993256 0.800531 0.018328 -0.599011 0.595943 0.907914 1 43 1.000000
  43 -7.394327 -18.182316 47.992596 0.800548 0.018263 -0.598990 0.598683 0.907934 1 43 1.000000
  43 -7.411891 -18.182552 47.988110 0.639944 0.017347 -0.768226 0.598683 0.908948 1 43 1.000000
gun
  43 -7.755576 -18.115372 47.707432 0.015793 -0.999831 -0.009417 0.602754 0.927356 1 43 1.000000
  43 -7.570507 -18.111876 47.647034 0.015841 -0.999829 -0.009516 0.603478 0.908826 1 43 1.000000
  43 -7.743975 -18.115433 47.733219 0.015794 -0.999831 -0.009408 0.603637 0.927389 1 43 1.000000
gun
  43 -7.755576 -18.115372 47.707432 0.015793 -0.999831 -0.009417 0.602754 0.927356 1 43 1.000000
  43 -7.567417 -18.111624 47.625660 0.015824 -0.999829 -0.009534 0.602913 0.907695 1 43 1.000000
  43 -7.570507 -18.111876 47.647034 0.015841 -0.999829 -0.009516 0.603478 0.908826 1 43 1.000000
gun
  43 -7.567417 -18.111624 47.625660 0.015824 -0.999829 -0.009534 0.602913 0.907695 1 43 1.000000
  43 -7.412997 -18.112614 47.988766 0.015886 -0.999829 -0.009446 0.615230 0.908933 1 43 1.000000
  43 -7.570507 -18.111876 47.647034 0.015841 -0.999829 -0.009516 0.603478 0.908826 1 43 1.000000
gun
  43 -7.567417 -18.111624 47.625660 0.015824 -0.999829 -0.009534 0.602913 0.907695 1 43 1.000000
  43 -7.395432 -18.112377 47.993256 0.015886 -0.999829 -0.009446 0.615589 0.907588 1 43 1.000000
  43 -7.412997 -18.112614 47.988766 0.015886 -0.999829 -0.009446 0.615230 0.908933 1 43 1.000000
gun
  43 -7.754472 -18.185310 47.706772 0.911797 0.018300 -0.410233 0.595940 0.907934 1 43 1.000000
  43 -7.743975 -18.115433 47.733219 0.911806 0.018294 -0.410213 0.598680 0.908937 1 43 1.000000
  43 -7.742869 -18.185368 47.732559 0.911792 0.018303 -0.410244 0.595938 0.908937 1 43 1.000000
gun
  43 -7.754472 -18.185310 47.706772 0.911797 0.018300 -0.410233 0.595940 0.907934 1 43 1.000000
  43 -7.755576 -18.115372 47.707432 0.911811 0.018291 -0.410203 0.598678 0.907925 1 43 1.000000
  43 -7.743975 -18.115433 47.733219 0.911806 0.018294 -0.410213 0.598680 0.908937 1 43 1.000000
gun
  43 -7.756042 -18.085903 47.707710 0.911800 0.018285 -0.410227 0.595940 0.907934 1 43 1.000000
  43 -7.745547 -18.016024 47.734158 0.911815 0.018297 -0.410194 0.598680 0.908937 1 43 1.000000
  43 -7.744440 -18.085960 47.733498 0.911793 0.018279 -0.410243 0.595938 0.908937 1 43 1.000000
gun
  43 -7.756042 -18.085903 47.707710 0.911800 0.018285 -0.410227 0.595940 0.907934 1 43 1.000000
  43 -7.757149 -18.015957 47.708370 0.911822 0.018303 -0.410179 0.598678 0.907925 1 43 1.000000
  43 -7.745547 -18.016024 47.734158 0.911815 0.018297 -0.410194 0.598680 0.908937 1 43 1.000000
gun
  43 -7.395898 -18.082901 47.993538 -0.015892 0.999829 0.009462 0.615589 0.907588 1 43 1.000000
  43 -7.570974 -18.082407 47.647312 -0.015946 0.999825 0.009829 0.603478 0.908826 1 43 1.000000
  43 -7.413463 -18.083138 47.989048 -0.015881 0.999829 0.009454 0.615230 0.908933 1 43 1.000000
gun
  43 -7.395898 -18.082901 47.993538 -0.015892 0.999829 0.009462 0.615589 0.907588 1 43 1.000000
  43 -7.567883 -18.082151 47.625935 -0.015869 0.999826 0.009826 0.602913 0.907695 1 43 1.000000
  43 -7.570974 -18.082407 47.647312 -0.015946 0.999825 0.009829 0.603478 0.908826 1 43 1.000000
gun
  43 -7.567883 -18.082151 47.625935 -0.015869 0.999826 0.009826 0.602913 0.907695 1 43 1.000000
  43 -7.744440 -18.085960 47.733498 -0.015824 0.999831 0.009403 0.603637 0.927389 1 43 1.000000
  43 -7.570974 -18.082407 47.647312 -0.015946 0.999825 0.009829 0.603478 0.908826 1 43 1.000000
gun
  43 -7.567883 -18.082151 47.625935 -0.015869 0.999826 0.009826 0.602913 0.907695 1 43 1.000000
  43 -7.756042 -18.085903 47.707710 -0.015834 0.999831 0.009369 0.602754 0.927356 1 43 1.000000
  43 -7.744440 -18.085960 47.733498 -0.015824 0.999831 0.009403 0.603637 0.927389 1 43 1.000000
gun
  43 -7.397004 -18.012966 47.994198 0.800510 0.018300 -0.599040 0.595943 0.907914 1 43 1.000000
  43 -7.413463 -18.083138 47.989048 0.639830 0.017355 -0.768321 0.598683 0.908948 1 43 1.000000
  43 -7.414569 -18.013201 47.989704 0.640025 0.017331 -0.768159 0.595943 0.908928 1 43 1.000000
gun
  43 -7.397004 -18.012966 47.994198 0.800510 0.018300 -0.599040 0.595943 0.907914 1 43 1.000000
  43 -7.395898 -18.082901 47.993538 0.800455 0.018361 -0.599112 0.598683 0.907934 1 43 1.000000
  43 -7.413463 -18.083138 47.989048 0.639830 0.017355 -0.768321 0.598683 0.908948 1 43 1.000000
gun
  43 -7.392289 -18.311203 47.991379 0.800430 0.018333 -0.599146 0.595943 0.907914 1 43 1.000000
  43 -7.408748 -18.381374 47.986229 0.639951 0.017356 -0.768219 0.598683 0.908948 1 43 1.000000
  43 -7.409853 -18.311440 47.986893 0.639861 0.017403 -0.768293 0.595943 0.908928 1 43 1.000000
gun
  43 -7.392289 -18.311203 47.991379 0.800430 0.018333 -0.599146 0.595943 0.907914 1 43 1.000000
  43 -7.391183 -18.381142 47.990723 0.800509 0.018292 -0.599042 0.598683 0.907934 1 43 1.000000
  43 -7.408748 -18.381374 47.986229 0.639951 0.017356 -0.768219 0.598683 0.908948 1 43 1.000000
gun
  43 -7.752434 -18.314201 47.705551 0.015801 -0.999831 -0.009413 0.602754 0.927356 1 43 1.000000
  43 -7.567364 -18.310703 47.645157 0.015778 -0.999831 -0.009485 0.603478 0.908826 1 43 1.000000
  43 -7.740831 -18.314260 47.731339 0.015799 -0.999831 -0.009408 0.603637 0.927389 1 43 1.000000
gun
  43 -7.752434 -18.314201 47.705551 0.015801 -0.999831 -0.009413 0.602754 0.927356 1 43 1.000000
  43 -7.564274 -18.310453 47.623779 0.015795 -0.999830 -0.009489 0.602913 0.907695 1 43 1.000000
  43 -7.567364 -18.310703 47.645157 0.015778 -0.999831 -0.009485 0.603478 0.908826 1 43 1.000000
gun
  43 -7.564274 -18.310453 47.623779 0.015795 -0.999830 -0.009489 0.602913 0.907695 1 43 1.000000
  43 -7.409853 -18.311440 47.986893 0.015880 -0.999829 -0.009466 0.615230 0.908933 1 43 1.000000
  43 -7.567364 -18.310703 47.645157 0.015778 -0.999831 -0.009485 0.603478 0.908826 1 43 1.000000
gun
  43 -7.564274 -18.310453 47.623779 0.015795 -0.999830 -0.009489 0.602913 0.907695 1 43 1.000000
  43 -7.392289 -18.311203 47.991379 0.015882 -0.999829 -0.009466 0.615589 0.907588 1 43 1.000000
  43 -7.409853 -18.311440 47.986893 0.015880 -0.999829 -0.009466 0.615230 0.908933 1 43 1.000000
gun
  43 -7.751328 -18.384138 47.704891 0.911805 0.018270 -0.410216 0.595940 0.907934 1 43 1.000000
  43 -7.740831 -18.314260 47.731339 0.911823 0.018273 -0.410176 0.598680 0.908937 1 43 1.000000
  43 -7.739725 -18.384197 47.730682 0.911797 0.018269 -0.410235 0.595938 0.908937 1 43 1.000000
gun
  43 -7.751328 -18.384138 47.704891 0.911805 0.018270 -0.410216 0.595940 0.907934 1 43 1.000000
  43 -7.752434 -18.314201 47.705551 0.911832 0.018274 -0.410157 0.598678 0.907925 1 43 1.000000
  43 -7.740831 -18.314260 47.731339 0.911823 0.018273 -0.410176 0.598680 0.908937 1 43 1.000000
gun
  43 -7.391183 -18.381142 47.990723 -0.015648 0.999833 0.009455 0.615589 0.907588 1 43 1.000000
  43 -7.566259 -18.380642 47.644497 -0.015834 0.999830 0.009450 0.603478 0.908826 1 43 1.000000
  43 -7.408748 -18.381374 47.986229 -0.015639 0.999833 0.009454 0.615230 0.908933 1 43 1.000000
gun
  43 -7.391183 -18.381142 47.990723 -0.015648 0.999833 0.009455 0.615589 0.907588 1 43 1.000000
  43 -7.563168 -18.380390 47.623119 -0.015820 0.999830 0.009438 0.602913 0.907695 1 43 1.000000
  43 -7.566259 -18.380642 47.644497 -0.015834 0.999830 0.009450 0.603478 0.908826 1 43 1.000000
gun
  43 -7.563168 -18.380390 47.623119 -0.015820 0.999830 0.009438 0.602913 0.907695 1 43 1.000000
  43 -7.739725 -18.384197 47.730682 -0.015824 0.999831 0.009400 0.603637 0.927389 1 43 1.000000
  43 -7.566259 -18.380642 47.644497 -0.015834 0.999830 0.009450 0.603478 0.908826 1 43 1.000000
gun
  43 -7.563168 -18.380390 47.623119 -0.015820 0.999830 0.009438 0.602913 0.907695 1 43 1.000000
  43 -7.751328 -18.384138 47.704891 -0.015827 0.999831 0.009399 0.602754 0.927356 1 43 1.000000
  43 -7.739725 -18.384197 47.730682 -0.015824 0.999831 0.009400 0.603637 0.927389 1 43 1.000000
gun
  43 -7.754004 -18.214787 47.706490 0.015823 -0.999830 -0.009496 0.602754 0.927356 1 43 1.000000
  43 -7.568935 -18.211288 47.646091 0.015852 -0.999829 -0.009510 0.603478 0.908826 1 43 1.000000
  43 -7.742403 -18.214848 47.732281 0.015824 -0.999830 -0.009493 0.603637 0.927389 1 43 1.000000
gun
  43 -7.754004 -18.214787 47.706490 0.015823 -0.999830 -0.009496 0.602754 0.927356 1 43 1.000000
  43 -7.565845 -18.211037 47.624722 0.015839 -0.999829 -0.009521 0.602913 0.907695 1 43 1.000000
  43 -7.568935 -18.211288 47.646091 0.015852 -0.999829 -0.009510 0.603478 0.908826 1 43 1.000000
gun
  43 -7.565845 -18.211037 47.624722 0.015839 -0.999829 -0.009521 0.602913 0.907695 1 43 1.000000
  43 -7.411425 -18.212027 47.987827 0.015888 -0.999829 -0.009488 0.615230 0.908933 1 43 1.000000
  43 -7.568935 -18.211288 47.646091 0.015852 -0.999829 -0.009510 0.603478 0.908826 1 43 1.000000
gun
  43 -7.565845 -18.211037 47.624722 0.015839 -0.999829 -0.009521 0.602913 0.907695 1 43 1.000000
  43 -7.393861 -18.211790 47.992321 0.015888 -0.999829 -0.009489 0.615589 0.907588 1 43 1.000000
  43 -7.411425 -18.212027 47.987827 0.015888 -0.999829 -0.009488 0.615230 0.908933 1 43 1.000000
gun
  43 -7.752899 -18.284725 47.705830 0.911803 0.018296 -0.410221 0.595940 0.907934 1 43 1.000000
  43 -7.742403 -18.214848 47.732281 0.911808 0.018292 -0.410209 0.598680 0.908937 1 43 1.000000
  43 -7.741297 -18.284782 47.731621 0.911800 0.018297 -0.410227 0.595938 0.908937 1 43 1.000000
gun
  43 -7.752899 -18.284725 47.705830 0.911803 0.018296 -0.410221 0.595940 0.907934 1 43 1.000000
  43 -7.754004 -18.214787 47.706490 0.911811 0.018291 -0.410203 0.598678 0.907925 1 43 1.000000
  43 -7.742403 -18.214848 47.732281 0.911808 0.018292 -0.410209 0.598680 0.908937 1 43 1.000000
gun
  43 -7.749755 -18.483543 47.703953 -0.428596 0.001719 -0.903495 0.578853 0.907942 1 43 1.000000
  43 -7.561130 -18.509266 47.621902 -0.398636 0.002359 -0.917106 0.579798 0.927645 1 43 1.000000
  43 -7.749289 -18.513020 47.703678 -0.428460 0.001659 -0.903559 0.579810 0.907942 1 43 1.000000
gun
  43 -7.749755 -18.483543 47.703953 -0.428596 0.001719 -0.903495 0.578853 0.907942 1 43 1.000000
  43 -7.561596 -18.479797 47.622181 -0.398639 0.002370 -0.917105 0.578841 0.927645 1 43 1.000000
  43 -7.561130 -18.509266 47.621902 -0.398636 0.002359 -0.917106 0.579798 0.927645 1 43 1.000000
gun
  43 -7.567417 -18.111624 47.625660 -0.398611 0.002258 -0.917117 0.592683 0.927649 1 43 1.000000
  43 -7.756042 -18.085903 47.707710 -0.428433 0.001756 -0.903572 0.591759 0.907935 1 43 1.000000
  43 -7.567883 -18.082151 47.625935 -0.398604 0.002247 -0.917120 0.591747 0.927639 1 43 1.000000
gun
  43 -7.567417 -18.111624 47.625660 -0.398611 0.002258 -0.917117 0.592683 0.927649 1 43 1.000000
  43 -7.755576 -18.115372 47.707432 -0.428615 0.001754 -0.903486 0.592715 0.907935 1 43 1.000000
  43 -7.756042 -18.085903 47.707710 -0.428433 0.001756 -0.903572 0.591759 0.907935 1 43 1.000000
gun
  43 -7.752899 -18.284725 47.705830 -0.426966 0.001792 -0.904266 0.585298 0.907933 1 43 1.000000
  43 -7.564274 -18.310453 47.623779 -0.398604 0.002374 -0.917120 0.586243 0.927636 1 43 1.000000
  43 -7.752434 -18.314201 47.705551 -0.428553 0.001757 -0.903515 0.586254 0.907933 1 43 1.000000
gun
  43 -7.752899 -18.284725 47.705830 -0.426966 0.001792 -0.904266 0.585298 0.907933 1 43 1.000000
  43 -7.564740 -18.280973 47.624058 -0.398601 0.002375 -0.917121 0.585287 0.927636 1 43 1.000000
  43 -7.564274 -18.310453 47.623779 -0.398604 0.002374 -0.917120 0.586243 0.927636 1 43 1.000000
gun
  43 -7.564219 -18.509518 47.643276 0.908049 0.018280 -0.418465 0.595061 0.927650 1 43 1.000000
  43 -7.405605 -18.580196 47.984352 0.639985 0.017355 -0.768191 0.592729 0.939401 1 43 1.000000
  43 -7.563114 -18.579462 47.642620 0.908050 0.018278 -0.418462 0.592683 0.927649 1 43 1.000000
gun
  43 -7.564219 -18.509518 47.643276 0.908049 0.018280 -0.418465 0.595061 0.927650 1 43 1.000000
  43 -7.406710 -18.510254 47.985012 0.640004 0.017353 -0.768176 0.594962 0.939401 1 43 1.000000
  43 -7.405605 -18.580196 47.984352 0.639985 0.017355 -0.768191 0.592729 0.939401 1 43 1.000000
gun
  43 -7.564219 -18.509518 47.643276 -0.444999 0.001379 -0.895530 0.595061 0.927650 1 43 1.000000
  43 -7.736582 -18.583019 47.728806 -0.444951 0.001398 -0.895554 0.592695 0.909090 1 43 1.000000
  43 -7.737688 -18.513077 47.729465 -0.444932 0.001405 -0.895563 0.594991 0.909059 1 43 1.000000
gun
  43 -7.564219 -18.509518 47.643276 -0.444999 0.001379 -0.895530 0.595061 0.927650 1 43 1.000000
  43 -7.563114 -18.579462 47.642620 -0.445018 0.001372 -0.895521 0.592683 0.927649 1 43 1.000000
  43 -7.736582 -18.583019 47.728806 -0.444951 0.001398 -0.895554 0.592695 0.909090 1 43 1.000000
gun
  43 -7.564686 -18.480049 47.643562 -0.444966 0.001394 -0.895546 0.592683 0.927649 1 43 1.000000
  43 -7.739260 -18.413664 47.730408 -0.444924 0.001471 -0.895567 0.594991 0.909059 1 43 1.000000
  43 -7.565792 -18.410110 47.644218 -0.444983 0.001363 -0.895538 0.595061 0.927650 1 43 1.000000
gun
  43 -7.564686 -18.480049 47.643562 -0.444966 0.001394 -0.895546 0.592683 0.927649 1 43 1.000000
  43 -7.738153 -18.483606 47.729740 -0.444908 0.001501 -0.895575 0.592695 0.909090 1 43 1.000000
  43 -7.739260 -18.413664 47.730408 -0.444924 0.001471 -0.895567 0.594991 0.909059 1 43 1.000000
gun
  43 -7.564686 -18.480049 47.643562 0.908035 0.018297 -0.418495 0.592683 0.927649 1 43 1.000000
  43 -7.408282 -18.410845 47.985950 0.639896 0.017332 -0.768266 0.594962 0.939401 1 43 1.000000
  43 -7.407176 -18.480783 47.985294 0.639839 0.017335 -0.768314 0.592729 0.939401 1 43 1.000000
gun
  43 -7.564686 -18.480049 47.643562 0.908035 0.018297 -0.418495 0.592683 0.927649 1 43 1.000000
  43 -7.565792 -18.410110 47.644218 0.908035 0.018297 -0.418495 0.595061 0.927650 1 43 1.000000
  43 -7.408282 -18.410845 47.985950 0.639896 0.017332 -0.768266 0.594962 0.939401 1 43 1.000000
gun
  43 -7.570507 -18.111876 47.647034 0.908039 0.018294 -0.418486 0.595061 0.927650 1 43 1.000000
  43 -7.411891 -18.182552 47.988110 0.639944 0.017347 -0.768226 0.592729 0.939401 1 43 1.000000
  43 -7.569402 -18.181816 47.646374 0.908040 0.018297 -0.418484 0.592683 0.927649 1 43 1.000000
gun
  43 -7.570507 -18.111876 47.647034 0.908039 0.018294 -0.418486 0.595061 0.927650 1 43 1.000000
  43 -7.412997 -18.112614 47.988766 0.640012 0.017322 -0.768170 0.594962 0.939401 1 43 1.000000
  43 -7.411891 -18.182552 47.988110 0.639944 0.017347 -0.768226 0.592729 0.939401 1 43 1.000000
gun
  43 -7.570507 -18.111876 47.647034 -0.444943 0.001410 -0.895558 0.595061 0.927650 1 43 1.000000
  43 -7.742869 -18.185368 47.732559 -0.444928 0.001417 -0.895565 0.592695 0.909090 1 43 1.000000
  43 -7.743975 -18.115433 47.733219 -0.444922 0.001419 -0.895568 0.594991 0.909059 1 43 1.000000
gun
  43 -7.570507 -18.111876 47.647034 -0.444943 0.001410 -0.895558 0.595061 0.927650 1 43 1.000000
  43 -7.569402 -18.181816 47.646374 -0.444949 0.001407 -0.895555 0.592683 0.927649 1 43 1.000000
  43 -7.742869 -18.185368 47.732559 -0.444928 0.001417 -0.895565 0.592695 0.909090 1 43 1.000000
gun
  43 -7.570974 -18.082407 47.647312 -0.444957 0.001418 -0.895551 0.592683 0.927649 1 43 1.000000
  43 -7.745547 -18.016024 47.734158 -0.444963 0.001421 -0.895548 0.594991 0.909059 1 43 1.000000
  43 -7.572079 -18.012461 47.647972 -0.444955 0.001416 -0.895552 0.595061 0.927650 1 43 1.000000
gun
  43 -7.570974 -18.082407 47.647312 -0.444957 0.001418 -0.895551 0.592683 0.927649 1 43 1.000000
  43 -7.744440 -18.085960 47.733498 -0.444965 0.001423 -0.895547 0.592695 0.909090 1 43 1.000000
  43 -7.745547 -18.016024 47.734158 -0.444963 0.001421 -0.895548 0.594991 0.909059 1 43 1.000000
gun
  43 -7.570974 -18.082407 47.647312 0.908037 0.018295 -0.418490 0.592683 0.927649 1 43 1.000000
  43 -7.414569 -18.013201 47.989704 0.640025 0.017331 -0.768159 0.594962 0.939401 1 43 1.000000
  43 -7.413463 -18.083138 47.989048 0.639830 0.017355 -0.768321 0.592729 0.939401 1 43 1.000000
gun
  43 -7.570974 -18.082407 47.647312 0.908037 0.018295 -0.418490 0.592683 0.927649 1 43 1.000000
  43 -7.572079 -18.012461 47.647972 0.908037 0.018295 -0.418490 0.595061 0.927650 1 43 1.000000
  43 -7.414569 -18.013201 47.989704 0.640025 0.017331 -0.768159 0.594962 0.939401 1 43 1.000000
gun
  43 -7.567364 -18.310703 47.645157 0.908033 0.018300 -0.418499 0.595061 0.927650 1 43 1.000000
  43 -7.408748 -18.381374 47.986229 0.639951 0.017356 -0.768219 0.592729 0.939401 1 43 1.000000
  43 -7.566259 -18.380642 47.644497 0.908033 0.018297 -0.418499 0.592683 0.927649 1 43 1.000000
gun
  43 -7.567364 -18.310703 47.645157 0.908033 0.018300 -0.418499 0.595061 0.927650 1 43 1.000000
  43 -7.409853 -18.311440 47.986893 0.639861 0.017403 -0.768293 0.594962 0.939401 1 43 1.000000
  43 -7.408748 -18.381374 47.986229 0.639951 0.017356 -0.768219 0.592729 0.939401 1 43 1.000000
gun
  43 -7.567364 -18.310703 47.645157 -0.444951 0.001405 -0.895554 0.595061 0.927650 1 43 1.000000
  43 -7.739725 -18.384197 47.730682 -0.444959 0.001376 -0.895550 0.592695 0.909090 1 43 1.000000
  43 -7.740831 -18.314260 47.731339 -0.444962 0.001365 -0.895548 0.594991 0.909059 1 43 1.000000
gun
  43 -7.567364 -18.310703 47.645157 -0.444951 0.001405 -0.895554 0.595061 0.927650 1 43 1.000000
  43 -7.566259 -18.380642 47.644497 -0.444947 0.001416 -0.895556 0.592683 0.927649 1 43 1.000000
  43 -7.739725 -18.384197 47.730682 -0.444959 0.001376 -0.895550 0.592695 0.909090 1 43 1.000000
gun
  43 -7.567830 -18.281229 47.645432 -0.445017 0.001414 -0.895521 0.592683 0.927649 1 43 1.000000
  43 -7.742403 -18.214848 47.732281 -0.444969 0.001409 -0.895545 0.594991 0.909059 1 43 1.000000
  43 -7.568935 -18.211288 47.646091 -0.445037 0.001416 -0.895511 0.595061 0.927650 1 43 1.000000
gun
  43 -7.567830 -18.281229 47.645432 -0.445017 0.001414 -0.895521 0.592683 0.927649 1 43 1.000000
  43 -7.741297 -18.284782 47.731621 -0.444949 0.001407 -0.895555 0.592695 0.909090 1 43 1.000000
  43 -7.742403 -18.214848 47.732281 -0.444969 0.001409 -0.895545 0.594991 0.909059 1 43 1.000000
gun
  43 -7.567830 -18.281229 47.645432 0.908035 0.018296 -0.418494 0.592683 0.927649 1 43 1.000000
  43 -7.411425 -18.212027 47.987827 0.640155 0.017353 -0.768050 0.594962 0.939401 1 43 1.000000
  43 -7.410320 -18.281963 47.987167 0.639879 0.017383 -0.768279 0.592729 0.939401 1 43 1.000000
gun
  43 -7.567830 -18.281229 47.645432 0.908035 0.018296 -0.418494 0.592683 0.927649 1 43 1.000000
  43 -7.568935 -18.211288 47.646091 0.908033 0.018296 -0.418498 0.595061 0.927650 1 43 1.000000
  43 -7.411425 -18.212027 47.987827 0.640155 0.017353 -0.768050 0.594962 0.939401 1 43 1.000000
gun
  43 -7.403800 -18.694351 47.983276 0.639824 0.017366 -0.768325 0.592729 0.939401 1 43 1.000000
  43 -7.562648 -18.608932 47.642342 0.908038 0.018288 -0.418489 0.595061 0.927650 1 43 1.000000
  43 -7.405138 -18.609669 47.984074 0.640246 0.017339 -0.767974 0.594962 0.939401 1 43 1.000000
gun
  43 -7.403800 -18.694351 47.983276 0.639824 0.017366 -0.768325 0.592729 0.939401 1 43 1.000000
  43 -7.561309 -18.693611 47.641544 0.908038 0.018289 -0.418488 0.592683 0.927649 1 43 1.000000
  43 -7.562648 -18.608932 47.642342 0.908038 0.018288 -0.418489 0.595061 0.927650 1 43 1.000000
gun
  43 -7.747351 -17.901876 47.735233 -0.444989 0.001408 -0.895535 0.594991 0.909059 1 43 1.000000
  43 -7.572545 -17.982990 47.648247 -0.444997 0.001432 -0.895531 0.592683 0.927649 1 43 1.000000
  43 -7.746013 -17.986544 47.734436 -0.444983 0.001395 -0.895538 0.592695 0.909090 1 43 1.000000
gun
  43 -7.747351 -17.901876 47.735233 -0.444989 0.001408 -0.895535 0.594991 0.909059 1 43 1.000000
  43 -7.573883 -17.898317 47.649048 -0.445003 0.001444 -0.895528 0.595061 0.927650 1 43 1.000000
  43 -7.572545 -17.982990 47.648247 -0.444997 0.001432 -0.895531 0.592683 0.927649 1 43 1.000000
gun
  43 -7.573883 -17.898317 47.649048 0.908037 0.018313 -0.418489 0.595061 0.927650 1 43 1.000000
  43 -7.415035 -17.983725 47.989983 0.639839 0.017340 -0.768313 0.592729 0.939401 1 43 1.000000
  43 -7.572545 -17.982990 47.648247 0.908037 0.018315 -0.418489 0.592683 0.927649 1 43 1.000000
gun
  43 -7.573883 -17.898317 47.649048 0.908037 0.018313 -0.418489 0.595061 0.927650 1 43 1.000000
  43 -7.416373 -17.899052 47.990784 0.639789 0.017380 -0.768354 0.594962 0.939401 1 43 1.000000
  43 -7.415035 -17.983725 47.989983 0.639839 0.017340 -0.768313 0.592729 0.939401 1 43 1.000000
gun
  43 -7.561309 -18.693611 47.641544 -0.444937 0.001411 -0.895561 0.592683 0.927649 1 43 1.000000
  43 -7.736116 -18.612492 47.728527 -0.444915 0.001427 -0.895572 0.594991 0.909059 1 43 1.000000
  43 -7.562648 -18.608932 47.642342 -0.444949 0.001402 -0.895555 0.595061 0.927650 1 43 1.000000
gun
  43 -7.561309 -18.693611 47.641544 -0.444937 0.001411 -0.895561 0.592683 0.927649 1 43 1.000000
  43 -7.734776 -18.697168 47.727726 -0.444902 0.001436 -0.895578 0.592695 0.909090 1 43 1.000000
  43 -7.736116 -18.612492 47.728527 -0.444915 0.001427 -0.895572 0.594991 0.909059 1 43 1.000000
gun
  43 -7.305379 -18.846928 48.217197 0.905680 0.014418 -0.423718 0.623951 0.948027 1 43 1.000000
  43 -7.306302 -18.771971 48.217773 0.906765 0.014684 -0.421382 0.621322 0.948009 1 43 1.000000
  43 -7.300763 -18.862661 48.226536 0.906549 0.015480 -0.421817 0.623951 0.948027 1 43 1.000000
gun
  43 -7.306302 -18.771971 48.217773 0.906765 0.014684 -0.421382 0.621322 0.948009 1 43 1.000000
  43 -7.117544 -18.772821 48.624138 0.906528 0.017855 -0.421768 0.621322 0.961276 1 43 1.000000
  43 -7.300763 -18.862661 48.226536 0.906549 0.015480 -0.421817 0.623951 0.948027 1 43 1.000000
gun
  43 -7.119868 -19.029949 48.607975 0.906469 0.018326 -0.421874 0.629518 0.961339 1 43 1.000000
  43 -7.300763 -18.862661 48.226536 0.906549 0.015480 -0.421817 0.623951 0.948027 1 43 1.000000
  43 -7.117544 -18.772821 48.624138 0.906528 0.017855 -0.421768 0.621322 0.961276 1 43 1.000000
gun
  43 -7.117544 -18.772821 48.624138 0.906528 0.017855 -0.421768 0.621322 0.961276 1 43 1.000000
  43 -7.113651 -19.019127 48.621811 0.906454 0.018326 -0.421906 0.629518 0.961339 1 43 1.000000
  43 -7.119868 -19.029949 48.607975 0.906469 0.018326 -0.421874 0.629518 0.961339 1 43 1.000000
gun
  43 -7.749289 -18.513020 47.703678 0.015856 -0.999831 -0.009249 0.602754 0.927356 1 43 1.000000
  43 -7.564219 -18.509518 47.643276 0.015857 -0.999829 -0.009481 0.603478 0.908826 1 43 1.000000
  43 -7.737688 -18.513077 47.729465 0.015859 -0.999832 -0.009234 0.603637 0.927389 1 43 1.000000
gun
  43 -7.749289 -18.513020 47.703678 0.015856 -0.999831 -0.009249 0.602754 0.927356 1 43 1.000000
  43 -7.561130 -18.509266 47.621902 0.015841 -0.999829 -0.009492 0.602913 0.907695 1 43 1.000000
  43 -7.564219 -18.509518 47.643276 0.015857 -0.999829 -0.009481 0.603478 0.908826 1 43 1.000000
gun
  43 -7.561130 -18.509266 47.621902 0.015841 -0.999829 -0.009492 0.602913 0.907695 1 43 1.000000
  43 -7.406710 -18.510254 47.985012 0.015886 -0.999828 -0.009530 0.615230 0.908933 1 43 1.000000
  43 -7.564219 -18.509518 47.643276 0.015857 -0.999829 -0.009481 0.603478 0.908826 1 43 1.000000
gun
  43 -7.561130 -18.509266 47.621902 0.015841 -0.999829 -0.009492 0.602913 0.907695 1 43 1.000000
  43 -7.389146 -18.510019 47.989502 0.015886 -0.999828 -0.009531 0.615589 0.907588 1 43 1.000000
  43 -7.406710 -18.510254 47.985012 0.015886 -0.999828 -0.009530 0.615230 0.908933 1 43 1.000000
gun
  43 -7.394327 -18.182316 47.992596 -0.015881 0.999829 0.009454 0.615589 0.907588 1 43 1.000000
  43 -7.569402 -18.181816 47.646374 -0.015828 0.999829 0.009530 0.603478 0.908826 1 43 1.000000
  43 -7.411891 -18.182552 47.988110 -0.015881 0.999829 0.009452 0.615230 0.908933 1 43 1.000000
gun
  43 -7.394327 -18.182316 47.992596 -0.015881 0.999829 0.009454 0.615589 0.907588 1 43 1.000000
  43 -7.566312 -18.181564 47.624996 -0.015810 0.999830 0.009522 0.602913 0.907695 1 43 1.000000
  43 -7.569402 -18.181816 47.646374 -0.015828 0.999829 0.009530 0.603478 0.908826 1 43 1.000000
gun
  43 -7.566312 -18.181564 47.624996 -0.015810 0.999830 0.009522 0.602913 0.907695 1 43 1.000000
  43 -7.742869 -18.185368 47.732559 -0.015813 0.999831 0.009375 0.603637 0.927389 1 43 1.000000
  43 -7.569402 -18.181816 47.646374 -0.015828 0.999829 0.009530 0.603478 0.908826 1 43 1.000000
gun
  43 -7.566312 -18.181564 47.624996 -0.015810 0.999830 0.009522 0.602913 0.907695 1 43 1.000000
  43 -7.754472 -18.185310 47.706772 -0.015817 0.999831 0.009364 0.602754 0.927356 1 43 1.000000
  43 -7.742869 -18.185368 47.732559 -0.015813 0.999831 0.009375 0.603637 0.927389 1 43 1.000000
gun
  43 -7.757149 -18.015957 47.708370 0.015741 -0.999830 -0.009636 0.602754 0.927356 1 43 1.000000
  43 -7.572079 -18.012461 47.647972 0.015701 -0.999834 -0.009282 0.603478 0.908826 1 43 1.000000
  43 -7.745547 -18.016024 47.734158 0.015734 -0.999829 -0.009669 0.603637 0.927389 1 43 1.000000
gun
  43 -7.757149 -18.015957 47.708370 0.015741 -0.999830 -0.009636 0.602754 0.927356 1 43 1.000000
  43 -7.568989 -18.012215 47.626595 0.015759 -0.999833 -0.009223 0.602913 0.907695 1 43 1.000000
  43 -7.572079 -18.012461 47.647972 0.015701 -0.999834 -0.009282 0.603478 0.908826 1 43 1.000000
gun
  43 -7.568989 -18.012215 47.626595 0.015759 -0.999833 -0.009223 0.602913 0.907695 1 43 1.000000
  43 -7.414569 -18.013201 47.989704 0.015763 -0.999832 -0.009363 0.615230 0.908933 1 43 1.000000
  43 -7.572079 -18.012461 47.647972 0.015701 -0.999834 -0.009282 0.603478 0.908826 1 43 1.000000
gun
  43 -7.568989 -18.012215 47.626595 0.015759 -0.999833 -0.009223 0.602913 0.907695 1 43 1.000000
  43 -7.397004 -18.012966 47.994198 0.015765 -0.999832 -0.009363 0.615589 0.907588 1 43 1.000000
  43 -7.414569 -18.013201 47.989704 0.015763 -0.999832 -0.009363 0.615230 0.908933 1 43 1.000000
gun
  43 -7.392755 -18.281729 47.991657 -0.015774 0.999832 0.009371 0.615589 0.907588 1 43 1.000000
  43 -7.567830 -18.281229 47.645432 -0.015937 0.999827 0.009564 0.603478 0.908826 1 43 1.000000
  43 -7.410320 -18.281963 47.987167 -0.015760 0.999832 0.009364 0.615230 0.908933 1 43 1.000000
gun
  43 -7.392755 -18.281729 47.991657 -0.015774 0.999832 0.009371 0.615589 0.907588 1 43 1.000000
  43 -7.564740 -18.280973 47.624058 -0.015864 0.999829 0.009557 0.602913 0.907695 1 43 1.000000
  43 -7.567830 -18.281229 47.645432 -0.015937 0.999827 0.009564 0.603478 0.908826 1 43 1.000000
gun
  43 -7.564740 -18.280973 47.624058 -0.015864 0.999829 0.009557 0.602913 0.907695 1 43 1.000000
  43 -7.741297 -18.284782 47.731621 -0.015806 0.999830 0.009490 0.603637 0.927389 1 43 1.000000
  43 -7.567830 -18.281229 47.645432 -0.015937 0.999827 0.009564 0.603478 0.908826 1 43 1.000000
gun
  43 -7.564740 -18.280973 47.624058 -0.015864 0.999829 0.009557 0.602913 0.907695 1 43 1.000000
  43 -7.752899 -18.284725 47.705830 -0.015813 0.999830 0.009486 0.602754 0.927356 1 43 1.000000
  43 -7.741297 -18.284782 47.731621 -0.015806 0.999830 0.009490 0.603637 0.927389 1 43 1.000000
gun
  43 -7.072119 -18.772472 48.663311 -0.542071 0.158790 -0.825194 0.570352 0.963528 1 43 1.000000
  43 -7.048543 -17.785393 48.634418 -0.297207 0.111454 -0.948286 0.602555 0.966683 1 43 1.000000
  43 -7.031094 -18.819967 48.626995 -0.553712 0.148227 -0.819410 0.568907 0.966626 1 43 1.000000
gun
  43 -7.072119 -18.772472 48.663311 -0.542071 0.158790 -0.825194 0.570352 0.963528 1 43 1.000000
  43 -7.099767 -17.823269 48.645050 -0.310486 0.155971 -0.937695 0.601157 0.963435 1 43 1.000000
  43 -7.048543 -17.785393 48.634418 -0.297207 0.111454 -0.948286 0.602555 0.966683 1 43 1.000000
gun
  43 -7.273242 -17.789927 48.738777 -0.408544 0.286276 -0.866682 0.610950 0.966649 1 43 1.000000
  43 -7.048543 -17.785393 48.634418 -0.297207 0.111454 -0.948286 0.602555 0.966683 1 43 1.000000
  43 -7.099767 -17.823269 48.645050 -0.310486 0.155971 -0.937695 0.601157 0.963435 1 43 1.000000
gun
  43 -7.099767 -17.823269 48.645050 -0.310486 0.155971 -0.937695 0.601157 0.963435 1 43 1.000000
  43 -7.473848 -17.830833 48.819897 -0.432184 0.062035 -0.899649 0.619052 0.963212 1 43 1.000000
  43 -7.273242 -17.789927 48.738777 -0.408544 0.286276 -0.866682 0.610950 0.966649 1 43 1.000000
gun
  43 -7.473848 -17.830833 48.819897 -0.432184 0.062035 -0.899649 0.619052 0.963212 1 43 1.000000
  43 -7.501522 -17.794424 48.835445 -0.427152 0.060566 -0.902149 0.619315 0.966693 1 43 1.000000
  43 -7.273242 -17.789927 48.738777 -0.408544 0.286276 -0.866682 0.610950 0.966649 1 43 1.000000
gun
  43 -7.321511 -17.822826 48.226295 0.906909 0.014702 -0.421070 0.621322 0.948009 1 43 1.000000
  43 -7.322450 -17.747000 48.226883 0.907757 0.014491 -0.419246 0.623951 0.948027 1 43 1.000000
  43 -7.318256 -17.731314 48.236500 0.907084 0.015538 -0.420663 0.623951 0.948027 1 43 1.000000
gun
  43 -7.145192 -17.823620 48.605877 0.907095 0.017803 -0.420549 0.621322 0.961276 1 43 1.000000
  43 -7.321511 -17.822826 48.226295 0.906909 0.014702 -0.421070 0.621322 0.948009 1 43 1.000000
  43 -7.318256 -17.731314 48.236500 0.907084 0.015538 -0.420663 0.623951 0.948027 1 43 1.000000
gun
  43 -7.318256 -17.731314 48.236500 0.907084 0.015538 -0.420663 0.623951 0.948027 1 43 1.000000
  43 -7.153181 -17.566402 48.599834 0.907155 0.018301 -0.420398 0.629518 0.961339 1 43 1.000000
  43 -7.145192 -17.823620 48.605877 0.907095 0.017803 -0.420549 0.621322 0.961276 1 43 1.000000
gun
  43 -7.146644 -17.577309 48.613468 0.907186 0.018306 -0.420332 0.629518 0.961339 1 43 1.000000
  43 -7.145192 -17.823620 48.605877 0.907095 0.017803 -0.420549 0.621322 0.961276 1 43 1.000000
  43 -7.153181 -17.566402 48.599834 0.907155 0.018301 -0.420398 0.629518 0.961339 1 43 1.000000
gun
  43 -7.116473 -17.779148 49.076771 0.421318 -0.005606 0.906896 0.602796 0.984676 1 43 1.000000
  43 -7.341172 -17.783688 49.181137 0.421315 -0.005607 0.906897 0.602796 0.992425 1 43 1.000000
  43 -7.336950 -18.080349 49.177341 0.424942 0.003095 0.905215 0.593167 0.992425 1 43 1.000000
gun
  43 -6.891773 -17.774612 48.972404 0.419060 -0.001574 0.907957 0.602710 0.977644 1 43 1.000000
  43 -7.116473 -17.779148 49.076771 0.421318 -0.005606 0.906896 0.602796 0.984676 1 43 1.000000
  43 -7.336950 -18.080349 49.177341 0.424942 0.003095 0.905215 0.593167 0.992425 1 43 1.000000
gun
  43 -6.874326 -18.809185 48.964989 0.428025 -0.002588 0.903763 0.569208 0.977599 1 43 1.000000
  43 -6.891773 -17.774612 48.972404 0.419060 -0.001574 0.907957 0.602710 0.977644 1 43 1.000000
  43 -7.336950 -18.080349 49.177341 0.424942 0.003095 0.905215 0.593167 0.992425 1 43 1.000000
gun
  43 -7.336950 -18.080349 49.177341 0.424942 0.003095 0.905215 0.593167 0.992425 1 43 1.000000
  43 -7.325105 -18.521606 49.183655 0.440226 0.007362 0.897857 0.578845 0.992425 1 43 1.000000
  43 -6.874326 -18.809185 48.964989 0.428025 -0.002588 0.903763 0.569208 0.977599 1 43 1.000000
gun
  43 -7.099024 -18.813725 49.069355 0.421556 -0.028387 0.906358 0.569216 0.984676 1 43 1.000000
  43 -6.874326 -18.809185 48.964989 0.428025 -0.002588 0.903763 0.569208 0.977599 1 43 1.000000
  43 -7.325105 -18.521606 49.183655 0.440226 0.007362 0.897857 0.578845 0.992425 1 43 1.000000
gun
  43 -7.325105 -18.521606 49.183655 0.440226 0.007362 0.897857 0.578845 0.992425 1 43 1.000000
  43 -7.323724 -18.818262 49.173717 0.421561 -0.028399 0.906355 0.569216 0.992425 1 43 1.000000
  43 -7.099024 -18.813725 49.069355 0.421556 -0.028387 0.906358 0.569216 0.984676 1 43 1.000000
gun
  43 -7.632287 -18.778641 48.378914 -0.443126 0.001570 -0.896458 0.629645 0.947518 1 43 1.000000
  43 -7.306302 -18.771971 48.217773 -0.443195 0.001435 -0.896424 0.641677 0.947518 1 43 1.000000
  43 -7.305379 -18.846928 48.217197 -0.419375 -0.285348 -0.861801 0.641667 0.948355 1 43 1.000000
gun
  43 -7.632287 -18.778641 48.378914 -0.443126 0.001570 -0.896458 0.629645 0.947518 1 43 1.000000
  43 -7.305379 -18.846928 48.217197 -0.419375 -0.285348 -0.861801 0.641667 0.948355 1 43 1.000000
  43 -7.631357 -18.854479 48.378319 -0.418699 -0.289479 -0.860752 0.629646 0.948364 1 43 1.000000
gun
  43 -7.300763 -18.862661 48.226536 -0.265799 -0.773655 -0.575159 0.641680 0.948552 1 43 1.000000
  43 -7.631357 -18.854479 48.378319 -0.418699 -0.289479 -0.860752 0.629646 0.948364 1 43 1.000000
  43 -7.305379 -18.846928 48.217197 -0.419375 -0.285348 -0.861801 0.641667 0.948355 1 43 1.000000
gun
  43 -7.300763 -18.862661 48.226536 -0.265799 -0.773655 -0.575159 0.641680 0.948552 1 43 1.000000
  43 -7.626741 -18.870230 48.387661 -0.263544 -0.778377 -0.569801 0.629642 0.948512 1 43 1.000000
  43 -7.631357 -18.854479 48.378319 -0.418699 -0.289479 -0.860752 0.629646 0.948364 1 43 1.000000
gun
  43 -7.447717 -19.036594 48.765125 0.069451 -0.992140 0.104089 0.629518 0.961339 1 43 1.000000
  43 -7.626741 -18.870230 48.387661 -0.263544 -0.778377 -0.569801 0.629642 0.948512 1 43 1.000000
  43 -7.300763 -18.862661 48.226536 -0.265799 -0.773655 -0.575159 0.641680 0.948552 1 43 1.000000
gun
  43 -7.447717 -19.036594 48.765125 0.069451 -0.992140 0.104089 0.629518 0.961339 1 43 1.000000
  43 -7.300763 -18.862661 48.226536 -0.265799 -0.773655 -0.575159 0.641680 0.948552 1 43 1.000000
  43 -7.119868 -19.029949 48.607975 0.067243 -0.992882 0.098301 0.641714 0.961380 1 43 1.000000
gun
  43 -7.323724 -18.818262 49.173717 -0.906797 -0.018318 0.421169 0.569208 0.977599 1 43 1.000000
  43 -7.481869 -18.532387 48.845665 -0.906797 -0.018315 0.421170 0.578525 0.966643 1 43 1.000000
  43 -7.478364 -18.828897 48.840324 -0.906787 -0.018302 0.421191 0.568907 0.966626 1 43 1.000000
gun
  43 -7.323724 -18.818262 49.173717 -0.906797 -0.018318 0.421169 0.569208 0.977599 1 43 1.000000
  43 -7.325105 -18.521606 49.183655 -0.906802 -0.018322 0.421159 0.578831 0.977641 1 43 1.000000
  43 -7.481869 -18.532387 48.845665 -0.906797 -0.018315 0.421170 0.578525 0.966643 1 43 1.000000
gun
  43 -7.325105 -18.521606 49.183655 -0.906802 -0.018322 0.421159 0.578831 0.977641 1 43 1.000000
  43 -7.498864 -18.091112 48.828259 -0.906796 -0.018313 0.421171 0.592874 0.966643 1 43 1.000000
  43 -7.481869 -18.532387 48.845665 -0.906797 -0.018315 0.421170 0.578525 0.966643 1 43 1.000000
gun
  43 -7.325105 -18.521606 49.183655 -0.906802 -0.018322 0.421159 0.578831 0.977641 1 43 1.000000
  43 -7.336950 -18.080349 49.177341 -0.906799 -0.018305 0.421167 0.593153 0.977650 1 43 1.000000
  43 -7.498864 -18.091112 48.828259 -0.906796 -0.018313 0.421171 0.592874 0.966643 1 43 1.000000
gun
  43 -7.341172 -17.783688 49.181137 -0.906795 -0.018307 0.421175 0.602710 0.977644 1 43 1.000000
  43 -7.498864 -18.091112 48.828259 -0.906796 -0.018313 0.421171 0.592874 0.966643 1 43 1.000000
  43 -7.336950 -18.080349 49.177341 -0.906799 -0.018305 0.421167 0.593153 0.977650 1 43 1.000000
gun
  43 -7.341172 -17.783688 49.181137 -0.906795 -0.018307 0.421175 0.602710 0.977644 1 43 1.000000
  43 -7.501522 -17.794424 48.835445 -0.906791 -0.018324 0.421183 0.602555 0.966683 1 43 1.000000
  43 -7.498864 -18.091112 48.828259 -0.906796 -0.018313 0.421171 0.592874 0.966643 1 43 1.000000
gun
  43 -7.321511 -17.822826 48.226295 -0.425627 0.001750 -0.904897 0.629645 0.947518 1 43 1.000000
  43 -7.650481 -17.829483 48.381020 -0.425620 0.001829 -0.904900 0.641677 0.947518 1 43 1.000000
  43 -7.651399 -17.754538 48.381603 -0.412770 0.289936 -0.863457 0.641667 0.948355 1 43 1.000000
gun
  43 -7.321511 -17.822826 48.226295 -0.425627 0.001750 -0.904897 0.629645 0.947518 1 43 1.000000
  43 -7.651399 -17.754538 48.381603 -0.412770 0.289936 -0.863457 0.641667 0.948355 1 43 1.000000
  43 -7.322450 -17.747000 48.226883 -0.412527 0.291853 -0.862927 0.629646 0.948364 1 43 1.000000
gun
  43 -7.647216 -17.738827 48.391212 -0.283989 0.772608 -0.567827 0.641680 0.948552 1 43 1.000000
  43 -7.322450 -17.747000 48.226883 -0.412527 0.291853 -0.862927 0.629646 0.948364 1 43 1.000000
  43 -7.651399 -17.754538 48.381603 -0.412770 0.289936 -0.863457 0.641667 0.948355 1 43 1.000000
gun
  43 -7.647216 -17.738827 48.391212 -0.283989 0.772608 -0.567827 0.641680 0.948552 1 43 1.000000
  43 -7.318256 -17.731314 48.236500 -0.284402 0.772953 -0.567150 0.629642 0.948512 1 43 1.000000
  43 -7.322450 -17.747000 48.226883 -0.412527 0.291853 -0.862927 0.629646 0.948364 1 43 1.000000
end
