// Created by Crowbar 0.74
version 1
nodes
  0 "ValveBiped.Bip01" -1
  1 "ValveBiped.Bip01_Spine" 0
  2 "ValveBiped.Bip01_Spine1" 1
  3 "ValveBiped.Bip01_Spine2" 2
  4 "ValveBiped.Bip01_Spine4" 3
  5 "ValveBiped.Bip01_L_Clavicle" 4
  6 "ValveBiped.Bip01_L_UpperArm" 5
  7 "ValveBiped.Bip01_L_Forearm" 6
  8 "ValveBiped.Bip01_L_Hand" 7
  9 "ValveBiped.Bip01_L_Finger4" 8
  10 "ValveBiped.Bip01_L_Finger41" 9
  11 "ValveBiped.Bip01_L_Finger42" 10
  12 "ValveBiped.Bip01_L_Finger3" 8
  13 "ValveBiped.Bip01_L_Finger31" 12
  14 "ValveBiped.Bip01_L_Finger32" 13
  15 "ValveBiped.Bip01_L_Finger2" 8
  16 "ValveBiped.Bip01_L_Finger21" 15
  17 "ValveBiped.Bip01_L_Finger22" 16
  18 "ValveBiped.Bip01_L_Finger1" 8
  19 "ValveBiped.Bip01_L_Finger11" 18
  20 "ValveBiped.Bip01_L_Finger12" 19
  21 "ValveBiped.Bip01_L_Finger0" 8
  22 "ValveBiped.Bip01_L_Finger01" 21
  23 "ValveBiped.Bip01_L_Finger02" 22
  24 "ValveBiped.Bip01_R_Clavicle" 4
  25 "ValveBiped.Bip01_R_UpperArm" 24
  26 "ValveBiped.Bip01_R_Forearm" 25
  27 "ValveBiped.Bip01_R_Hand" 26
  28 "ValveBiped.Bip01_R_Finger4" 27
  29 "ValveBiped.Bip01_R_Finger41" 28
  30 "ValveBiped.Bip01_R_Finger42" 29
  31 "ValveBiped.Bip01_R_Finger3" 27
  32 "ValveBiped.Bip01_R_Finger31" 31
  33 "ValveBiped.Bip01_R_Finger32" 32
  34 "ValveBiped.Bip01_R_Finger2" 27
  35 "ValveBiped.Bip01_R_Finger21" 34
  36 "ValveBiped.Bip01_R_Finger22" 35
  37 "ValveBiped.Bip01_R_Finger1" 27
  38 "ValveBiped.Bip01_R_Finger11" 37
  39 "ValveBiped.Bip01_R_Finger12" 38
  40 "ValveBiped.Bip01_R_Finger0" 27
  41 "ValveBiped.Bip01_R_Finger01" 40
  42 "ValveBiped.Bip01_R_Finger02" 41
  43 "ValveBiped.Base" 27
  44 "ValveBiped.Casing_RotZ" 43
  45 "ValveBiped.Gyro1_RotX" 43
  46 "ValveBiped.Gyro2_RotY" 45
  47 "ValveBiped.Gyro3_RotX" 46
  48 "ValveBiped.Mag1_RotZ" 43
  49 "ValveBiped.Mag2_RotZ" 43
  50 "ValveBiped.Mag3_RotZ" 43
  51 "ValveBiped.Mag4_RotZ" 43
  52 "ValveBiped.Mag5_RotZ" 43
  53 "ValveBiped.Mag6_RotZ" 43
  54 "ValveBiped.Mag7_RotZ" 43
  55 "ValveBiped.Mag8_RotZ" 43
  56 "ValveBiped.Arm1_A" 43
  57 "ValveBiped.Arm1_B" 56
  58 "ValveBiped.Arm2_A" 43
  59 "ValveBiped.Arm2_B" 58
  60 "ValveBiped.Arm3_A" 43
  61 "ValveBiped.Arm3_B" 60
  62 "ValveBiped.Arm4_A" 43
  63 "ValveBiped.Arm4_B" 62
  64 "ValveBiped.Dial" 43
  65 "ValveBiped.Mag9_RotZ" 43
  66 "Root" -1
end
skeleton
  time 0
    0 0.000000 -0.533595 38.566879 1.570796 0.000000 0.000000
    1 0.000000 3.345131 -2.981898 1.570796 0.083193 1.570796
    2 3.995838 0.000000 0.000000 0.000000 0.000000 -0.028816
    3 3.520283 0.000000 0.000000 0.000000 0.000000 0.097307
    4 8.921463 0.000000 0.000000 0.000000 0.000000 0.186413
    5 2.059513 0.977920 1.937661 1.589740 -1.286515 2.950147
    6 15.712090 -18.004032 9.529779 1.559199 -1.378733 3.129207
    7 11.692564 0.000000 0.000011 0.000000 0.000000 -0.745832
    8 11.481674 0.000001 -0.000034 1.329220 0.087758 0.746815
    9 3.850418 0.126099 -1.223440 -0.317316 -0.182678 -1.175166
    10 1.312561 0.000000 0.000000 -0.035210 0.041488 -1.113081
    11 0.729366 0.000004 0.000000 -0.013075 0.038597 -0.567715
    12 3.926350 0.316490 -0.462519 -0.168912 -0.159070 -1.089474
    13 1.539101 0.000000 -0.000002 -0.003308 0.001739 -1.334679
    14 1.196331 -0.000002 0.000000 -0.004291 0.004431 -1.200192
    15 3.881380 0.214687 0.400251 -0.056575 -0.204695 -1.030413
    16 1.719583 0.000004 0.000000 0.018838 -0.007916 -1.539002
    17 1.209183 -0.000001 0.000008 0.008062 -0.008108 -0.998649
    18 3.871292 0.117424 1.300905 -0.020042 -0.190438 -1.160275
    19 1.719425 -0.000004 0.000002 0.101231 -0.032227 -1.611435
    20 1.099674 0.000004 -0.000004 0.042294 -0.053202 -0.907071
    21 0.838839 -0.300285 1.312777 -0.847487 -0.487805 -0.629244
    22 1.789783 -0.000002 0.000011 -0.000556 -0.003669 0.378873
    23 1.207006 0.000001 0.000004 -0.001682 -0.005413 0.664305
    24 2.059517 0.977922 -1.937661 -1.661569 1.286515 2.950147
    25 7.186439 -2.479385 7.933254 1.701454 0.719964 -1.279976
    26 11.692570 -0.000004 0.000000 0.000000 0.000000 -0.735495
    27 11.481654 0.000000 0.000016 -1.610898 0.181262 -0.196406
    28 3.850428 0.126099 1.223438 0.218434 0.059416 -1.236284
    29 1.312562 0.000001 0.000000 0.013556 -0.052694 -0.660926
    30 0.729362 0.000000 0.000000 0.035126 -0.020663 -1.280268
    31 3.926355 0.316488 0.462502 0.078927 0.018345 -1.052029
    32 1.539096 0.000000 -0.000008 0.003041 -0.002171 -1.198668
    33 1.196321 0.000002 0.000011 0.004688 -0.004008 -1.294270
    34 3.881386 0.214694 -0.400257 -0.013550 -0.002191 -0.994617
    35 1.719579 0.000000 0.000000 -0.018227 0.009235 -1.467873
    36 1.209180 -0.000002 -0.000008 -0.009139 0.006871 -1.142228
    37 3.871304 0.117424 -1.300907 -0.078202 -0.025255 -1.087905
    38 1.719431 0.000000 -0.000004 -0.098414 0.040033 -1.533486
    39 1.099665 -0.000001 -0.000004 -0.043299 0.052388 -0.926109
    40 0.838848 -0.300291 -1.312786 1.038393 0.338527 -0.651145
    41 1.789780 -0.000002 0.000000 0.000000 0.003711 0.332742
    42 1.207002 0.000004 0.000000 0.000000 0.005668 0.612525
    43 -0.534583 0.295797 -0.001972 -1.591880 0.022078 -1.868741
    44 0.113788 -0.132996 14.720029 0.000000 0.000000 0.000000
    45 0.113787 -0.132980 9.513787 0.000000 0.000000 0.000000
    46 -0.000001 0.000004 0.000000 0.000000 0.000000 0.000000
    47 -0.000001 0.000000 0.000000 0.000000 0.000000 0.000000
    48 0.113791 -0.132973 16.481380 0.000000 0.000000 0.000000
    49 0.113788 -0.132973 18.076752 0.000000 0.000000 0.000000
    50 0.113789 -0.132969 19.676247 0.000000 0.000000 0.000000
    51 0.113791 -0.132980 21.255905 0.000000 0.000000 0.000000
    52 0.113788 -0.132980 22.869106 0.000000 0.000000 0.000000
    53 0.113791 -0.132980 24.483315 0.000000 0.000000 0.000000
    54 0.113790 -0.132977 26.066456 0.000000 0.000000 0.000000
    55 0.113790 -0.132980 27.665100 0.000000 0.000000 0.000000
    56 4.717026 4.484177 33.327862 0.030874 0.029553 -0.762254
    57 0.089302 4.272583 4.480568 0.000000 0.000000 0.000000
    58 4.922175 -5.137234 33.583321 0.000000 0.000000 -2.327265
    59 0.001394 4.167400 4.226917 0.000000 0.000000 0.000000
    60 -4.578506 -5.283134 33.331905 0.000000 0.000000 2.438902
    61 0.269684 4.148857 4.474522 0.000000 0.000000 0.000000
    62 -4.409222 4.440941 33.338566 0.000000 0.000000 0.763647
    63 -0.045498 4.393921 4.464542 0.000000 0.000000 0.000000
    64 -4.439061 3.922569 13.956212 0.075659 -0.411864 0.634747
    65 0.113791 -0.132977 29.243565 0.000000 0.000000 0.000000
    66 0.000000 -6.000000 -0.500000 1.570796 0.000000 0.000000
end
triangles
gun
  43 -6.963142 -17.808838 47.345600 -0.421442 0.068014 -0.904301 0.680419 0.928847 1 43 1.000000
  43 -7.150084 -17.889519 47.426651 -0.421442 0.068014 -0.904301 0.677963 0.909150 1 43 1.000000
  43 -7.150388 -17.812622 47.432575 -0.421442 0.068014 -0.904301 0.680457 0.908984 1 43 1.000000
gun
  43 -7.337640 -17.816406 47.519543 -0.443163 0.001439 -0.896440 0.680300 0.889018 1 43 1.000000
  43 -7.150388 -17.812622 47.432575 -0.421442 0.068014 -0.904301 0.680457 0.908984 1 43 1.000000
  43 -7.150084 -17.889519 47.426651 -0.435172 0.026982 -0.899943 0.677963 0.909150 1 43 1.000000
gun
  43 -7.150084 -17.889519 47.426651 -0.435172 0.026982 -0.899943 0.677963 0.909150 1 43 1.000000
  43 -7.148746 -17.974190 47.425854 -0.428568 0.001760 -0.903508 0.675224 0.909159 1 43 1.000000
  43 -7.337640 -17.816406 47.519543 -0.443163 0.001439 -0.896440 0.680300 0.889018 1 43 1.000000
gun
  43 -7.148279 -18.003664 47.425575 -0.428593 0.001760 -0.903496 0.674280 0.909161 1 43 1.000000
  43 -7.337640 -17.816406 47.519543 -0.443163 0.001439 -0.896440 0.680300 0.889018 1 43 1.000000
  43 -7.148746 -17.974190 47.425854 -0.428568 0.001760 -0.903508 0.675224 0.909159 1 43 1.000000
gun
  43 -7.337640 -17.816406 47.519543 -0.443163 0.001439 -0.896440 0.680300 0.889018 1 43 1.000000
  43 -7.148279 -18.003664 47.425575 -0.428593 0.001760 -0.903496 0.674280 0.909161 1 43 1.000000
  43 -7.147175 -18.073605 47.424915 -0.428475 0.001866 -0.903552 0.672000 0.909160 1 43 1.000000
gun
  43 -7.147175 -18.073605 47.424915 -0.428475 0.001866 -0.903552 0.672000 0.909160 1 43 1.000000
  43 -7.146708 -18.103081 47.424633 -0.428614 0.001783 -0.903486 0.671043 0.909160 1 43 1.000000
  43 -7.337640 -17.816406 47.519543 -0.443163 0.001439 -0.896440 0.680300 0.889018 1 43 1.000000
gun
  43 -7.145602 -18.173018 47.423977 -0.428202 0.001744 -0.903681 0.668769 0.909167 1 43 1.000000
  43 -7.337640 -17.816406 47.519543 -0.443163 0.001439 -0.896440 0.680300 0.889018 1 43 1.000000
  43 -7.146708 -18.103081 47.424633 -0.428614 0.001783 -0.903486 0.671043 0.909160 1 43 1.000000
gun
  43 -7.145602 -18.173018 47.423977 -0.428202 0.001744 -0.903681 0.668769 0.909167 1 43 1.000000
  43 -7.145137 -18.202488 47.423698 -0.409181 0.002135 -0.912451 0.667812 0.909167 1 43 1.000000
  43 -7.337640 -17.816406 47.519543 -0.443163 0.001439 -0.896440 0.680300 0.889018 1 43 1.000000
gun
  43 -7.145137 -18.202488 47.423698 -0.443683 0.001508 -0.896183 0.667812 0.909167 1 43 1.000000
  43 -7.144032 -18.272427 47.423035 -0.426966 0.001772 -0.904266 0.665539 0.909157 1 43 1.000000
  43 -7.337640 -17.816406 47.519543 -0.443163 0.001439 -0.896440 0.680300 0.889018 1 43 1.000000
gun
  43 -7.143565 -18.301907 47.422756 -0.407768 0.002161 -0.913083 0.664583 0.909157 1 43 1.000000
  43 -7.337640 -17.816406 47.519543 -0.443163 0.001439 -0.896440 0.680300 0.889018 1 43 1.000000
  43 -7.144032 -18.272427 47.423035 -0.426966 0.001772 -0.904266 0.665539 0.909157 1 43 1.000000
gun
  43 -7.322634 -18.765553 47.510586 -0.438149 -0.013398 -0.898803 0.649493 0.889018 1 43 1.000000
  43 -7.337640 -17.816406 47.519543 -0.443163 0.001439 -0.896440 0.680300 0.889018 1 43 1.000000
  43 -7.143565 -18.301907 47.422756 -0.443405 0.001448 -0.896320 0.664583 0.909157 1 43 1.000000
gun
  43 -7.322634 -18.765553 47.510586 -0.438149 -0.013398 -0.898803 0.649493 0.889018 1 43 1.000000
  43 -7.143565 -18.301907 47.422756 -0.443405 0.001448 -0.896320 0.664583 0.909157 1 43 1.000000
  43 -7.142459 -18.371845 47.422096 -0.428628 0.001757 -0.903479 0.662316 0.909172 1 43 1.000000
gun
  43 -7.142459 -18.371845 47.422096 -0.428628 0.001757 -0.903479 0.662316 0.909172 1 43 1.000000
  43 -7.141994 -18.401310 47.421818 -0.428524 0.001765 -0.903529 0.661360 0.909172 1 43 1.000000
  43 -7.322634 -18.765553 47.510586 -0.438149 -0.013398 -0.898803 0.649493 0.889018 1 43 1.000000
gun
  43 -7.140888 -18.471249 47.421158 -0.428612 0.001705 -0.903487 0.659094 0.909167 1 43 1.000000
  43 -7.322634 -18.765553 47.510586 -0.438149 -0.013398 -0.898803 0.649493 0.889018 1 43 1.000000
  43 -7.141994 -18.401310 47.421818 -0.428524 0.001765 -0.903529 0.661360 0.909172 1 43 1.000000
gun
  43 -7.140888 -18.471249 47.421158 -0.428612 0.001705 -0.903487 0.659094 0.909167 1 43 1.000000
  43 -7.140422 -18.500721 47.420883 -0.428487 0.001650 -0.903547 0.658137 0.909167 1 43 1.000000
  43 -7.322634 -18.765553 47.510586 -0.438149 -0.013398 -0.898803 0.649493 0.889018 1 43 1.000000
gun
  43 -7.140422 -18.500721 47.420883 -0.428487 0.001650 -0.903547 0.658137 0.909167 1 43 1.000000
  43 -7.139316 -18.570660 47.420219 -0.428676 0.001782 -0.903457 0.655861 0.909164 1 43 1.000000
  43 -7.322634 -18.765553 47.510586 -0.438149 -0.013398 -0.898803 0.649493 0.889018 1 43 1.000000
gun
  43 -7.139316 -18.570660 47.420219 -0.428676 0.001782 -0.903457 0.655861 0.909164 1 43 1.000000
  43 -7.138850 -18.600132 47.419941 -0.428498 0.001748 -0.903541 0.654904 0.909164 1 43 1.000000
  43 -7.322634 -18.765553 47.510586 -0.438149 -0.013398 -0.898803 0.649493 0.889018 1 43 1.000000
gun
  43 -7.139316 -18.570660 47.420219 -0.428676 0.001782 -0.903457 0.655861 0.909164 1 43 1.000000
  43 -6.950692 -18.596384 47.338165 -0.398646 0.002479 -0.917102 0.654893 0.928867 1 43 1.000000
  43 -7.138850 -18.600132 47.419941 -0.428498 0.001748 -0.903541 0.654904 0.909164 1 43 1.000000
gun
  43 -7.139316 -18.570660 47.420219 -0.428676 0.001782 -0.903457 0.655861 0.909164 1 43 1.000000
  43 -6.951158 -18.566916 47.338448 -0.398645 0.002491 -0.917102 0.655850 0.928867 1 43 1.000000
  43 -6.950692 -18.596384 47.338165 -0.398646 0.002479 -0.917102 0.654893 0.928867 1 43 1.000000
gun
  43 -6.948137 -18.757992 47.336639 -0.419344 -0.064208 -0.905554 0.649638 0.928819 1 43 1.000000
  43 -7.135382 -18.761770 47.423615 -0.419324 -0.064208 -0.905563 0.649649 0.908984 1 43 1.000000
  43 -7.137512 -18.684813 47.419144 -0.430232 -0.035191 -0.902032 0.652146 0.909115 1 43 1.000000
gun
  43 -7.135382 -18.761770 47.423615 -0.419324 -0.064208 -0.905563 0.649649 0.908984 1 43 1.000000
  43 -7.322634 -18.765553 47.510586 -0.438149 -0.013398 -0.898803 0.649493 0.889018 1 43 1.000000
  43 -7.137512 -18.684813 47.419144 -0.430232 -0.035191 -0.902032 0.652146 0.909115 1 43 1.000000
gun
  43 -7.138850 -18.600132 47.419941 -0.428498 0.001748 -0.903541 0.654904 0.909164 1 43 1.000000
  43 -7.137512 -18.684813 47.419144 -0.430232 -0.035191 -0.902032 0.652146 0.909115 1 43 1.000000
  43 -7.322634 -18.765553 47.510586 -0.438149 -0.013398 -0.898803 0.649493 0.889018 1 43 1.000000
gun
  43 -7.148746 -17.974190 47.425854 0.911702 0.018288 -0.410444 0.675224 0.909159 1 43 1.000000
  43 -7.138476 -17.889576 47.452438 0.911728 0.018274 -0.410388 0.677965 0.910161 1 43 1.000000
  43 -7.137137 -17.974249 47.451637 0.911694 0.018293 -0.410463 0.675223 0.910161 1 43 1.000000
gun
  43 -7.148746 -17.974190 47.425854 0.911702 0.018288 -0.410444 0.675224 0.909159 1 43 1.000000
  43 -7.150084 -17.889519 47.426651 0.911737 0.018269 -0.410369 0.677963 0.909150 1 43 1.000000
  43 -7.138476 -17.889576 47.452438 0.911728 0.018274 -0.410388 0.677965 0.910161 1 43 1.000000
gun
  43 -6.788603 -17.971195 47.711678 -0.015763 0.999832 0.009365 0.694873 0.908812 1 43 1.000000
  43 -6.963672 -17.970695 47.365456 -0.015785 0.999831 0.009445 0.682763 0.910051 1 43 1.000000
  43 -6.806168 -17.971428 47.707184 -0.015763 0.999832 0.009365 0.694515 0.910158 1 43 1.000000
gun
  43 -6.788603 -17.971195 47.711678 -0.015763 0.999832 0.009365 0.694873 0.908812 1 43 1.000000
  43 -6.960588 -17.970444 47.344078 -0.015795 0.999830 0.009465 0.682198 0.908919 1 43 1.000000
  43 -6.963672 -17.970695 47.365456 -0.015785 0.999831 0.009445 0.682763 0.910051 1 43 1.000000
gun
  43 -6.960588 -17.970444 47.344078 -0.015795 0.999830 0.009465 0.682198 0.908919 1 43 1.000000
  43 -7.137137 -17.974249 47.451637 -0.015820 0.999831 0.009370 0.682922 0.928614 1 43 1.000000
  43 -6.963672 -17.970695 47.365456 -0.015785 0.999831 0.009445 0.682763 0.910051 1 43 1.000000
gun
  43 -6.960588 -17.970444 47.344078 -0.015795 0.999830 0.009465 0.682198 0.908919 1 43 1.000000
  43 -7.148746 -17.974190 47.425854 -0.015821 0.999831 0.009359 0.682039 0.928581 1 43 1.000000
  43 -7.137137 -17.974249 47.451637 -0.015820 0.999831 0.009370 0.682922 0.928614 1 43 1.000000
gun
  43 -6.789941 -17.886522 47.712475 0.680512 0.017679 -0.732524 0.675228 0.909139 1 43 1.000000
  43 -6.806168 -17.971428 47.707184 0.639808 0.017372 -0.768338 0.677968 0.910173 1 43 1.000000
  43 -6.807507 -17.886757 47.707985 0.639809 0.017398 -0.768337 0.675228 0.910153 1 43 1.000000
gun
  43 -6.789941 -17.886522 47.712475 0.680512 0.017679 -0.732524 0.675228 0.909139 1 43 1.000000
  43 -6.788603 -17.971195 47.711678 0.800451 0.018340 -0.599118 0.677968 0.909159 1 43 1.000000
  43 -6.806168 -17.971428 47.707184 0.639808 0.017372 -0.768338 0.677968 0.910173 1 43 1.000000
gun
  43 -7.150084 -17.889519 47.426651 0.015828 -0.999830 -0.009413 0.682039 0.928581 1 43 1.000000
  43 -6.965010 -17.886021 47.366253 0.015850 -0.999829 -0.009497 0.682763 0.910051 1 43 1.000000
  43 -7.138476 -17.889576 47.452438 0.015830 -0.999830 -0.009407 0.682922 0.928614 1 43 1.000000
gun
  43 -7.150084 -17.889519 47.426651 0.015828 -0.999830 -0.009413 0.682039 0.928581 1 43 1.000000
  43 -6.961925 -17.885769 47.344875 0.015825 -0.999830 -0.009504 0.682198 0.908919 1 43 1.000000
  43 -6.965010 -17.886021 47.366253 0.015850 -0.999829 -0.009497 0.682763 0.910051 1 43 1.000000
gun
  43 -6.961925 -17.885769 47.344875 0.015825 -0.999830 -0.009504 0.682198 0.908919 1 43 1.000000
  43 -6.807507 -17.886757 47.707985 0.015646 -0.999833 -0.009446 0.694515 0.910158 1 43 1.000000
  43 -6.965010 -17.886021 47.366253 0.015850 -0.999829 -0.009497 0.682763 0.910051 1 43 1.000000
gun
  43 -6.961925 -17.885769 47.344875 0.015825 -0.999830 -0.009504 0.682198 0.908919 1 43 1.000000
  43 -6.789941 -17.886522 47.712475 0.015642 -0.999833 -0.009445 0.694873 0.908812 1 43 1.000000
  43 -6.807507 -17.886757 47.707985 0.015646 -0.999833 -0.009446 0.694515 0.910158 1 43 1.000000
gun
  43 -6.778706 -18.597137 47.705769 0.800443 0.018312 -0.599129 0.675228 0.909139 1 43 1.000000
  43 -6.794933 -18.682053 47.700478 0.639922 0.017362 -0.768244 0.677968 0.910173 1 43 1.000000
  43 -6.796272 -18.597374 47.701279 0.639786 0.017384 -0.768356 0.675228 0.910153 1 43 1.000000
gun
  43 -6.778706 -18.597137 47.705769 0.800443 0.018312 -0.599129 0.675228 0.909139 1 43 1.000000
  43 -6.777368 -18.681816 47.704971 0.680616 0.017655 -0.732428 0.677968 0.909159 1 43 1.000000
  43 -6.794933 -18.682053 47.700478 0.639922 0.017362 -0.768244 0.677968 0.910173 1 43 1.000000
gun
  43 -7.138850 -18.600132 47.419941 0.015772 -0.999830 -0.009591 0.682039 0.928581 1 43 1.000000
  43 -6.953775 -18.596638 47.359543 0.015908 -0.999827 -0.009609 0.682763 0.910051 1 43 1.000000
  43 -7.127242 -18.600195 47.445732 0.015774 -0.999830 -0.009580 0.682922 0.928614 1 43 1.000000
gun
  43 -7.138850 -18.600132 47.419941 0.015772 -0.999830 -0.009591 0.682039 0.928581 1 43 1.000000
  43 -6.950692 -18.596384 47.338165 0.015848 -0.999828 -0.009662 0.682198 0.908919 1 43 1.000000
  43 -6.953775 -18.596638 47.359543 0.015908 -0.999827 -0.009609 0.682763 0.910051 1 43 1.000000
gun
  43 -6.950692 -18.596384 47.338165 0.015848 -0.999828 -0.009662 0.682198 0.908919 1 43 1.000000
  43 -6.796272 -18.597374 47.701279 0.015887 -0.999829 -0.009477 0.694515 0.910158 1 43 1.000000
  43 -6.953775 -18.596638 47.359543 0.015908 -0.999827 -0.009609 0.682763 0.910051 1 43 1.000000
gun
  43 -6.950692 -18.596384 47.338165 0.015848 -0.999828 -0.009662 0.682198 0.908919 1 43 1.000000
  43 -6.778706 -18.597137 47.705769 0.015885 -0.999829 -0.009476 0.694873 0.908812 1 43 1.000000
  43 -6.796272 -18.597374 47.701279 0.015887 -0.999829 -0.009477 0.694515 0.910158 1 43 1.000000
gun
  43 -7.137512 -18.684813 47.419144 0.911748 0.018307 -0.410343 0.675224 0.909159 1 43 1.000000
  43 -7.127242 -18.600195 47.445732 0.911757 0.018275 -0.410324 0.677965 0.910161 1 43 1.000000
  43 -7.125903 -18.684875 47.444927 0.911744 0.018318 -0.410350 0.675223 0.910161 1 43 1.000000
gun
  43 -7.137512 -18.684813 47.419144 0.911748 0.018307 -0.410343 0.675224 0.909159 1 43 1.000000
  43 -7.138850 -18.600132 47.419941 0.911760 0.018264 -0.410317 0.677963 0.909150 1 43 1.000000
  43 -7.127242 -18.600195 47.445732 0.911757 0.018275 -0.410324 0.677965 0.910161 1 43 1.000000
gun
  43 -6.777368 -18.681816 47.704971 -0.015886 0.999829 0.009455 0.694873 0.908812 1 43 1.000000
  43 -6.952437 -18.681320 47.358746 -0.015848 0.999830 0.009458 0.682763 0.910051 1 43 1.000000
  43 -6.794933 -18.682053 47.700478 -0.015885 0.999829 0.009454 0.694515 0.910158 1 43 1.000000
gun
  43 -6.777368 -18.681816 47.704971 -0.015886 0.999829 0.009455 0.694873 0.908812 1 43 1.000000
  43 -6.949353 -18.681067 47.337368 -0.015823 0.999830 0.009449 0.682198 0.908919 1 43 1.000000
  43 -6.952437 -18.681320 47.358746 -0.015848 0.999830 0.009458 0.682763 0.910051 1 43 1.000000
gun
  43 -6.949353 -18.681067 47.337368 -0.015823 0.999830 0.009449 0.682198 0.908919 1 43 1.000000
  43 -7.125903 -18.684875 47.444927 -0.015755 0.999831 0.009464 0.682922 0.928614 1 43 1.000000
  43 -6.952437 -18.681320 47.358746 -0.015848 0.999830 0.009458 0.682763 0.910051 1 43 1.000000
gun
  43 -6.949353 -18.681067 47.337368 -0.015823 0.999830 0.009449 0.682198 0.908919 1 43 1.000000
  43 -7.137512 -18.684813 47.419144 -0.015754 0.999831 0.009467 0.682039 0.928581 1 43 1.000000
  43 -7.125903 -18.684875 47.444927 -0.015755 0.999831 0.009464 0.682922 0.928614 1 43 1.000000
gun
  43 -6.960121 -17.999918 47.343800 -0.398591 0.002349 -0.917126 0.675225 0.928865 1 43 1.000000
  43 -7.148746 -17.974190 47.425854 -0.428568 0.001760 -0.903508 0.674280 0.909161 1 43 1.000000
  43 -6.960588 -17.970444 47.344078 -0.398588 0.002345 -0.917127 0.674345 0.928874 1 43 1.000000
gun
  43 -6.960121 -17.999918 47.343800 -0.398591 0.002349 -0.917126 0.675225 0.928865 1 43 1.000000
  43 -7.148279 -18.003664 47.425575 -0.428593 0.001760 -0.903496 0.675224 0.909159 1 43 1.000000
  43 -7.148746 -17.974190 47.425854 -0.428568 0.001760 -0.903508 0.674280 0.909161 1 43 1.000000
gun
  43 -6.265457 -18.796890 48.682194 0.028793 -0.999414 0.018532 0.698361 0.978784 1 43 1.000000
  43 -6.646927 -18.812210 48.448570 0.028789 -0.999414 0.018539 0.690234 0.967874 1 43 1.000000
  43 -6.422227 -18.807673 48.344200 0.028791 -0.999413 0.018554 0.698600 0.967918 1 43 1.000000
gun
  43 -6.265457 -18.796890 48.682194 0.028793 -0.999414 0.018532 0.698361 0.978784 1 43 1.000000
  43 -6.490156 -18.801428 48.786556 0.028785 -0.999414 0.018527 0.690162 0.978770 1 43 1.000000
  43 -6.646927 -18.812210 48.448570 0.028789 -0.999414 0.018539 0.690234 0.967874 1 43 1.000000
gun
  43 -6.714858 -18.805962 48.890923 0.028782 -0.999414 0.018536 0.681994 0.978869 1 43 1.000000
  43 -6.646927 -18.812210 48.448570 0.028789 -0.999414 0.018539 0.690234 0.967874 1 43 1.000000
  43 -6.490156 -18.801428 48.786556 0.028785 -0.999414 0.018527 0.690162 0.978770 1 43 1.000000
gun
  43 -6.714858 -18.805962 48.890923 0.028782 -0.999414 0.018536 0.681994 0.978869 1 43 1.000000
  43 -6.869495 -18.816601 48.557526 0.028791 -0.999414 0.018538 0.681839 0.967907 1 43 1.000000
  43 -6.646927 -18.812210 48.448570 0.028789 -0.999414 0.018539 0.690234 0.967874 1 43 1.000000
gun
  43 -6.961925 -17.885769 47.344875 0.905634 0.018294 -0.423665 0.677952 0.928783 1 43 1.000000
  43 -6.963142 -17.808838 47.345600 0.905744 0.020027 -0.423352 0.680419 0.928847 1 43 1.000000
  43 -6.789941 -17.886522 47.712475 0.906416 0.031833 -0.421185 0.677961 0.941545 1 43 1.000000
gun
  43 -6.963142 -17.808838 47.345600 0.905744 0.020027 -0.423352 0.680419 0.928847 1 43 1.000000
  43 -6.713322 -17.809971 47.883411 0.909298 0.018295 -0.415743 0.680414 0.947465 1 43 1.000000
  43 -6.789941 -17.886522 47.712475 0.906416 0.031833 -0.421185 0.677961 0.941545 1 43 1.000000
gun
  43 -6.788136 -18.000671 47.711395 0.800437 0.018321 -0.599137 0.674256 0.941545 1 43 1.000000
  43 -6.960121 -17.999918 47.343800 0.905611 0.018322 -0.423714 0.674345 0.928874 1 43 1.000000
  43 -6.960588 -17.970444 47.344078 0.905613 0.018325 -0.423709 0.675225 0.928865 1 43 1.000000
gun
  43 -6.788136 -18.000671 47.711395 0.800437 0.018321 -0.599137 0.674256 0.941545 1 43 1.000000
  43 -6.960588 -17.970444 47.344078 0.905613 0.018325 -0.423709 0.675225 0.928865 1 43 1.000000
  43 -6.788603 -17.971195 47.711678 0.800451 0.018340 -0.599118 0.675212 0.941545 1 43 1.000000
gun
  43 -6.788603 -17.971195 47.711678 0.800451 0.018340 -0.599118 0.675212 0.941545 1 43 1.000000
  43 -6.712107 -17.886898 47.882687 0.908049 0.018306 -0.418463 0.677961 0.947390 1 43 1.000000
  43 -6.788136 -18.000671 47.711395 0.800437 0.018321 -0.599137 0.674256 0.941545 1 43 1.000000
gun
  43 -6.789941 -17.886522 47.712475 0.680512 0.017679 -0.732524 0.677961 0.941545 1 43 1.000000
  43 -6.712107 -17.886898 47.882687 0.908049 0.018306 -0.418463 0.677961 0.947390 1 43 1.000000
  43 -6.788603 -17.971195 47.711678 0.800451 0.018340 -0.599118 0.675212 0.941545 1 43 1.000000
gun
  43 -6.713322 -17.809971 47.883411 0.909298 0.018295 -0.415743 0.680414 0.947465 1 43 1.000000
  43 -6.712107 -17.886898 47.882687 0.908049 0.018306 -0.418463 0.677961 0.947390 1 43 1.000000
  43 -6.789941 -17.886522 47.712475 0.680512 0.017679 -0.732524 0.677961 0.941545 1 43 1.000000
gun
  43 -6.712107 -17.886898 47.882687 0.908049 0.018306 -0.418463 0.677961 0.947390 1 43 1.000000
  43 -6.713322 -17.809971 47.883411 0.909298 0.018295 -0.415743 0.680414 0.947465 1 43 1.000000
  43 -6.490899 -17.810976 48.362255 0.906796 0.018315 -0.421171 0.680442 0.964660 1 43 1.000000
gun
  43 -6.788136 -18.000671 47.711395 0.800437 0.018321 -0.599137 0.674256 0.941545 1 43 1.000000
  43 -6.712107 -17.886898 47.882687 0.908049 0.018306 -0.418463 0.677961 0.947390 1 43 1.000000
  43 -6.787030 -18.070608 47.710739 0.800369 0.018341 -0.599227 0.671986 0.941545 1 43 1.000000
gun
  43 -6.957444 -18.169273 47.342197 0.905640 0.018298 -0.423652 0.668758 0.928870 1 43 1.000000
  43 -6.784992 -18.199493 47.709522 0.800476 0.018313 -0.599085 0.667802 0.941545 1 43 1.000000
  43 -6.956978 -18.198746 47.341923 0.905641 0.018297 -0.423651 0.667801 0.928870 1 43 1.000000
gun
  43 -6.957444 -18.169273 47.342197 0.905640 0.018298 -0.423652 0.668758 0.928870 1 43 1.000000
  43 -6.785459 -18.170021 47.709801 0.800505 0.018283 -0.599047 0.668759 0.941545 1 43 1.000000
  43 -6.784992 -18.199493 47.709522 0.800476 0.018313 -0.599085 0.667802 0.941545 1 43 1.000000
gun
  43 -6.785459 -18.170021 47.709801 0.800505 0.018283 -0.599047 0.668759 0.941545 1 43 1.000000
  43 -6.712107 -17.886898 47.882687 0.908049 0.018306 -0.418463 0.677961 0.947390 1 43 1.000000
  43 -6.784992 -18.199493 47.709522 0.800476 0.018313 -0.599085 0.667802 0.941545 1 43 1.000000
gun
  43 -6.786565 -18.100082 47.710457 0.800399 0.018301 -0.599189 0.671029 0.941545 1 43 1.000000
  43 -6.712107 -17.886898 47.882687 0.908049 0.018306 -0.418463 0.677961 0.947390 1 43 1.000000
  43 -6.785459 -18.170021 47.709801 0.800505 0.018283 -0.599047 0.668759 0.941545 1 43 1.000000
gun
  43 -6.786565 -18.100082 47.710457 0.800399 0.018301 -0.599189 0.671029 0.941545 1 43 1.000000
  43 -6.787030 -18.070608 47.710739 0.800369 0.018341 -0.599227 0.671986 0.941545 1 43 1.000000
  43 -6.712107 -17.886898 47.882687 0.908049 0.018306 -0.418463 0.677961 0.947390 1 43 1.000000
gun
  43 -6.786565 -18.100082 47.710457 0.800399 0.018301 -0.599189 0.671029 0.941545 1 43 1.000000
  43 -6.959016 -18.069857 47.343140 0.905623 0.018331 -0.423687 0.671968 0.928874 1 43 1.000000
  43 -6.787030 -18.070608 47.710739 0.800369 0.018341 -0.599227 0.671986 0.941545 1 43 1.000000
gun
  43 -6.786565 -18.100082 47.710457 0.800399 0.018301 -0.599189 0.671029 0.941545 1 43 1.000000
  43 -6.958549 -18.099331 47.342861 0.905623 0.018331 -0.423687 0.671032 0.928864 1 43 1.000000
  43 -6.959016 -18.069857 47.343140 0.905623 0.018331 -0.423687 0.671968 0.928874 1 43 1.000000
gun
  43 -6.951158 -18.566916 47.338448 0.905602 0.018411 -0.423728 0.655850 0.928867 1 43 1.000000
  43 -6.778706 -18.597137 47.705769 0.800443 0.018312 -0.599129 0.654896 0.941545 1 43 1.000000
  43 -6.950692 -18.596384 47.338165 0.905601 0.018416 -0.423731 0.654893 0.928867 1 43 1.000000
gun
  43 -6.951158 -18.566916 47.338448 0.905602 0.018411 -0.423728 0.655850 0.928867 1 43 1.000000
  43 -6.779172 -18.567665 47.706047 0.800447 0.018309 -0.599124 0.655852 0.941545 1 43 1.000000
  43 -6.778706 -18.597137 47.705769 0.800443 0.018312 -0.599129 0.654896 0.941545 1 43 1.000000
gun
  43 -6.699533 -18.682194 47.875175 0.908044 0.018301 -0.418475 0.652147 0.947390 1 43 1.000000
  43 -6.778706 -18.597137 47.705769 0.800443 0.018312 -0.599129 0.654896 0.941545 1 43 1.000000
  43 -6.779172 -18.567665 47.706047 0.800447 0.018309 -0.599124 0.655852 0.941545 1 43 1.000000
gun
  43 -6.699533 -18.682194 47.875175 0.908044 0.018301 -0.418475 0.652147 0.947390 1 43 1.000000
  43 -6.777368 -18.681816 47.704971 0.680616 0.017655 -0.732428 0.652147 0.941545 1 43 1.000000
  43 -6.778706 -18.597137 47.705769 0.800443 0.018312 -0.599129 0.654896 0.941545 1 43 1.000000
gun
  43 -6.777368 -18.681816 47.704971 0.680616 0.017655 -0.732428 0.652147 0.941545 1 43 1.000000
  43 -6.699533 -18.682194 47.875175 0.908044 0.018301 -0.418475 0.652147 0.947390 1 43 1.000000
  43 -6.698317 -18.759117 47.874451 0.909287 0.018287 -0.415767 0.649649 0.947372 1 43 1.000000
gun
  43 -6.463246 -18.760178 48.380516 0.906796 0.018314 -0.421172 0.649636 0.964752 1 43 1.000000
  43 -6.698317 -18.759117 47.874451 0.909287 0.018287 -0.415767 0.649649 0.947372 1 43 1.000000
  43 -6.699533 -18.682194 47.875175 0.908044 0.018301 -0.418475 0.652147 0.947390 1 43 1.000000
gun
  43 -6.699533 -18.682194 47.875175 0.908044 0.018301 -0.418475 0.652147 0.947390 1 43 1.000000
  43 -6.490899 -17.810976 48.362255 0.906796 0.018315 -0.421171 0.680442 0.964660 1 43 1.000000
  43 -6.463246 -18.760178 48.380516 0.906796 0.018314 -0.421172 0.649636 0.964752 1 43 1.000000
gun
  43 -6.699533 -18.682194 47.875175 0.908044 0.018301 -0.418475 0.652147 0.947390 1 43 1.000000
  43 -6.712107 -17.886898 47.882687 0.908049 0.018306 -0.418463 0.677961 0.947390 1 43 1.000000
  43 -6.490899 -17.810976 48.362255 0.906796 0.018315 -0.421171 0.680442 0.964660 1 43 1.000000
gun
  43 -6.712107 -17.886898 47.882687 0.908049 0.018306 -0.418463 0.677961 0.947390 1 43 1.000000
  43 -6.699533 -18.682194 47.875175 0.908044 0.018301 -0.418475 0.652147 0.947390 1 43 1.000000
  43 -6.783888 -18.269428 47.708858 0.800441 0.018293 -0.599132 0.665532 0.941545 1 43 1.000000
gun
  43 -6.783888 -18.269428 47.708858 0.800441 0.018293 -0.599132 0.665532 0.941545 1 43 1.000000
  43 -6.784992 -18.199493 47.709522 0.800476 0.018313 -0.599085 0.667802 0.941545 1 43 1.000000
  43 -6.712107 -17.886898 47.882687 0.908049 0.018306 -0.418463 0.677961 0.947390 1 43 1.000000
gun
  43 -6.779172 -18.567665 47.706047 0.800447 0.018309 -0.599124 0.655852 0.941545 1 43 1.000000
  43 -6.780278 -18.497725 47.706707 0.800499 0.018290 -0.599055 0.658122 0.941545 1 43 1.000000
  43 -6.699533 -18.682194 47.875175 0.908044 0.018301 -0.418475 0.652147 0.947390 1 43 1.000000
gun
  43 -6.952729 -18.467503 47.339386 0.905648 0.018409 -0.423631 0.659083 0.928870 1 43 1.000000
  43 -6.780278 -18.497725 47.706707 0.800499 0.018290 -0.599055 0.658122 0.941545 1 43 1.000000
  43 -6.952263 -18.496975 47.339104 0.905649 0.018413 -0.423628 0.658126 0.928870 1 43 1.000000
gun
  43 -6.952729 -18.467503 47.339386 0.905648 0.018409 -0.423631 0.659083 0.928870 1 43 1.000000
  43 -6.780744 -18.468254 47.706985 0.800457 0.018310 -0.599110 0.659079 0.941545 1 43 1.000000
  43 -6.780278 -18.497725 47.706707 0.800499 0.018290 -0.599055 0.658122 0.941545 1 43 1.000000
gun
  43 -6.780278 -18.497725 47.706707 0.800499 0.018290 -0.599055 0.658122 0.941545 1 43 1.000000
  43 -6.780744 -18.468254 47.706985 0.800457 0.018310 -0.599110 0.659079 0.941545 1 43 1.000000
  43 -6.699533 -18.682194 47.875175 0.908044 0.018301 -0.418475 0.652147 0.947390 1 43 1.000000
gun
  43 -6.699533 -18.682194 47.875175 0.908044 0.018301 -0.418475 0.652147 0.947390 1 43 1.000000
  43 -6.780744 -18.468254 47.706985 0.800457 0.018310 -0.599110 0.659079 0.941545 1 43 1.000000
  43 -6.781850 -18.398315 47.707645 0.800515 0.018336 -0.599032 0.661349 0.941545 1 43 1.000000
gun
  43 -6.783421 -18.298908 47.708584 0.800505 0.018250 -0.599049 0.664576 0.941545 1 43 1.000000
  43 -6.955406 -18.298159 47.340981 0.905643 0.018339 -0.423645 0.664571 0.928861 1 43 1.000000
  43 -6.955873 -18.268681 47.341259 0.905642 0.018333 -0.423646 0.665528 0.928861 1 43 1.000000
gun
  43 -6.783421 -18.298908 47.708584 0.800505 0.018250 -0.599049 0.664576 0.941545 1 43 1.000000
  43 -6.955873 -18.268681 47.341259 0.905642 0.018333 -0.423646 0.665528 0.928861 1 43 1.000000
  43 -6.783888 -18.269428 47.708858 0.800441 0.018293 -0.599132 0.665532 0.941545 1 43 1.000000
gun
  43 -6.699533 -18.682194 47.875175 0.908044 0.018301 -0.418475 0.652147 0.947390 1 43 1.000000
  43 -6.783421 -18.298908 47.708584 0.800505 0.018250 -0.599049 0.664576 0.941545 1 43 1.000000
  43 -6.783888 -18.269428 47.708858 0.800441 0.018293 -0.599132 0.665532 0.941545 1 43 1.000000
gun
  43 -6.782316 -18.368843 47.707924 0.800415 0.018313 -0.599167 0.662305 0.941545 1 43 1.000000
  43 -6.783421 -18.298908 47.708584 0.800505 0.018250 -0.599049 0.664576 0.941545 1 43 1.000000
  43 -6.699533 -18.682194 47.875175 0.908044 0.018301 -0.418475 0.652147 0.947390 1 43 1.000000
gun
  43 -6.781850 -18.398315 47.707645 0.800515 0.018336 -0.599032 0.661349 0.941545 1 43 1.000000
  43 -6.782316 -18.368843 47.707924 0.800415 0.018313 -0.599167 0.662305 0.941545 1 43 1.000000
  43 -6.699533 -18.682194 47.875175 0.908044 0.018301 -0.418475 0.652147 0.947390 1 43 1.000000
gun
  43 -6.781850 -18.398315 47.707645 0.800515 0.018336 -0.599032 0.661349 0.941545 1 43 1.000000
  43 -6.954301 -18.368097 47.340321 0.905626 0.018314 -0.423682 0.662305 0.928875 1 43 1.000000
  43 -6.782316 -18.368843 47.707924 0.800415 0.018313 -0.599167 0.662305 0.941545 1 43 1.000000
gun
  43 -6.781850 -18.398315 47.707645 0.800515 0.018336 -0.599032 0.661349 0.941545 1 43 1.000000
  43 -6.953835 -18.397564 47.340042 0.905625 0.018312 -0.423685 0.661348 0.928875 1 43 1.000000
  43 -6.954301 -18.368097 47.340321 0.905626 0.018314 -0.423682 0.662305 0.928875 1 43 1.000000
gun
  43 -6.698317 -18.759117 47.874451 0.909287 0.018287 -0.415767 0.649649 0.947372 1 43 1.000000
  43 -6.948137 -18.757992 47.336639 0.905796 0.016597 -0.423389 0.649638 0.928819 1 43 1.000000
  43 -6.777368 -18.681816 47.704971 0.906850 0.004822 -0.421426 0.652147 0.941545 1 43 1.000000
gun
  43 -6.948137 -18.757992 47.336639 0.905796 0.016597 -0.423389 0.649638 0.928819 1 43 1.000000
  43 -6.949353 -18.681067 47.337368 0.905630 0.018325 -0.423673 0.652139 0.928783 1 43 1.000000
  43 -6.777368 -18.681816 47.704971 0.906850 0.004822 -0.421426 0.652147 0.941545 1 43 1.000000
gun
  43 -6.732306 -17.771393 48.898338 -0.028275 0.999430 -0.018445 0.698361 0.978784 1 43 1.000000
  43 -6.664369 -17.777632 48.455982 -0.028347 0.999428 -0.018460 0.690234 0.967874 1 43 1.000000
  43 -6.892651 -17.782124 48.552643 -0.027420 0.999456 -0.018313 0.698600 0.967918 1 43 1.000000
gun
  43 -6.732306 -17.771393 48.898338 -0.028275 0.999430 -0.018445 0.698361 0.978784 1 43 1.000000
  43 -6.507606 -17.766853 48.793976 -0.028788 0.999414 -0.018521 0.690162 0.978770 1 43 1.000000
  43 -6.664369 -17.777632 48.455982 -0.028347 0.999428 -0.018460 0.690234 0.967874 1 43 1.000000
gun
  43 -6.282906 -17.762314 48.689610 -0.028788 0.999414 -0.018526 0.681994 0.978869 1 43 1.000000
  43 -6.664369 -17.777632 48.455982 -0.028347 0.999428 -0.018460 0.690234 0.967874 1 43 1.000000
  43 -6.507606 -17.766853 48.793976 -0.028788 0.999414 -0.018521 0.690162 0.978770 1 43 1.000000
gun
  43 -6.282906 -17.762314 48.689610 -0.028788 0.999414 -0.018526 0.681994 0.978869 1 43 1.000000
  43 -6.439669 -17.773098 48.351620 -0.028782 0.999414 -0.018539 0.681839 0.967907 1 43 1.000000
  43 -6.664369 -17.777632 48.455982 -0.028347 0.999428 -0.018460 0.690234 0.967874 1 43 1.000000
gun
  43 -7.068594 -18.766697 48.057476 0.015803 -0.999831 -0.009437 0.680414 0.947465 1 43 1.000000
  43 -7.322634 -18.765553 47.510586 0.015812 -0.999830 -0.009436 0.680419 0.928847 1 43 1.000000
  43 -7.135382 -18.761770 47.423615 0.015803 -0.999831 -0.009437 0.689460 0.929021 1 43 1.000000
gun
  43 -7.135382 -18.761770 47.423615 0.015803 -0.999831 -0.009437 0.689460 0.929021 1 43 1.000000
  43 -6.948137 -18.757992 47.336639 0.015796 -0.999831 -0.009424 0.698381 0.928876 1 43 1.000000
  43 -6.698317 -18.759117 47.874451 0.015803 -0.999831 -0.009437 0.698381 0.947428 1 43 1.000000
gun
  43 -7.135382 -18.761770 47.423615 0.015803 -0.999831 -0.009437 0.689460 0.929021 1 43 1.000000
  43 -6.698317 -18.759117 47.874451 0.015803 -0.999831 -0.009437 0.698381 0.947428 1 43 1.000000
  43 -7.068594 -18.766697 48.057476 0.015803 -0.999831 -0.009437 0.680414 0.947465 1 43 1.000000
gun
  43 -7.068594 -18.766697 48.057476 0.015803 -0.999831 -0.009437 0.680414 0.947465 1 43 1.000000
  43 -6.698317 -18.759117 47.874451 0.015803 -0.999831 -0.009437 0.698381 0.947428 1 43 1.000000
  43 -6.697429 -18.759674 47.934978 0.015804 -0.999830 -0.009459 0.696013 0.949142 1 43 1.000000
gun
  43 -7.068594 -18.766697 48.057476 0.015803 -0.999831 -0.009437 0.680414 0.947465 1 43 1.000000
  43 -6.697429 -18.759674 47.934978 0.015804 -0.999830 -0.009459 0.696013 0.949142 1 43 1.000000
  43 -7.023421 -18.766350 48.096119 0.015751 -0.999832 -0.009359 0.682761 0.949253 1 43 1.000000
gun
  43 -6.835640 -18.767746 48.558998 0.015798 -0.999831 -0.009397 0.680442 0.964660 1 43 1.000000
  43 -7.068594 -18.766697 48.057476 0.015803 -0.999831 -0.009437 0.680414 0.947465 1 43 1.000000
  43 -7.023421 -18.766350 48.096119 0.015751 -0.999832 -0.009359 0.682761 0.949253 1 43 1.000000
gun
  43 -6.835640 -18.767746 48.558998 0.015798 -0.999831 -0.009397 0.680442 0.964660 1 43 1.000000
  43 -7.023421 -18.766350 48.096119 0.015751 -0.999832 -0.009359 0.682761 0.949253 1 43 1.000000
  43 -6.836524 -18.767193 48.498466 0.015768 -0.999831 -0.009428 0.682761 0.962717 1 43 1.000000
gun
  43 -6.835640 -18.767746 48.558998 0.015798 -0.999831 -0.009397 0.680442 0.964660 1 43 1.000000
  43 -6.836524 -18.767193 48.498466 0.015768 -0.999831 -0.009428 0.682761 0.962717 1 43 1.000000
  43 -6.508678 -18.760525 48.341339 0.015775 -0.999831 -0.009466 0.696013 0.962661 1 43 1.000000
gun
  43 -6.835640 -18.767746 48.558998 0.015798 -0.999831 -0.009397 0.680442 0.964660 1 43 1.000000
  43 -6.508678 -18.760525 48.341339 0.015775 -0.999831 -0.009466 0.696013 0.962661 1 43 1.000000
  43 -6.463246 -18.760178 48.380516 0.015784 -0.999830 -0.009497 0.698337 0.964436 1 43 1.000000
gun
  43 -6.698317 -18.759117 47.874451 0.015803 -0.999831 -0.009437 0.698381 0.947428 1 43 1.000000
  43 -6.463246 -18.760178 48.380516 0.015784 -0.999830 -0.009497 0.698337 0.964436 1 43 1.000000
  43 -6.508678 -18.760525 48.341339 0.015775 -0.999831 -0.009466 0.696013 0.962661 1 43 1.000000
gun
  43 -6.698317 -18.759117 47.874451 0.015803 -0.999831 -0.009437 0.698381 0.947428 1 43 1.000000
  43 -6.508678 -18.760525 48.341339 0.015775 -0.999831 -0.009466 0.696013 0.962661 1 43 1.000000
  43 -6.697429 -18.759674 47.934978 0.015804 -0.999830 -0.009459 0.696013 0.949142 1 43 1.000000
gun
  43 -6.963142 -17.808838 47.345600 -0.398621 0.002333 -0.917113 0.680419 0.928847 1 43 1.000000
  43 -6.961925 -17.885769 47.344875 -0.398621 0.002333 -0.917113 0.677952 0.928783 1 43 1.000000
  43 -7.150084 -17.889519 47.426651 -0.398621 0.002333 -0.917113 0.677963 0.909150 1 43 1.000000
gun
  43 -6.282906 -17.762314 48.689610 0.906799 0.018309 -0.421165 0.681994 0.978869 1 43 1.000000
  43 -6.422227 -18.807673 48.344200 0.906793 0.018311 -0.421178 0.648191 0.967851 1 43 1.000000
  43 -6.439669 -17.773098 48.351620 0.906801 0.018308 -0.421161 0.681839 0.967907 1 43 1.000000
gun
  43 -6.282906 -17.762314 48.689610 0.906799 0.018309 -0.421165 0.681994 0.978869 1 43 1.000000
  43 -6.265457 -18.796890 48.682194 0.906791 0.018311 -0.421183 0.648493 0.978823 1 43 1.000000
  43 -6.422227 -18.807673 48.344200 0.906793 0.018311 -0.421178 0.648191 0.967851 1 43 1.000000
gun
  43 -6.544314 -17.554108 48.317036 0.031218 0.993262 0.111610 0.708927 0.949737 1 43 1.000000
  43 -7.038344 -17.726526 48.108410 -0.284017 0.772528 -0.567922 0.720999 0.962605 1 43 1.000000
  43 -6.873641 -17.560802 48.470978 0.032306 0.993143 0.112357 0.720965 0.949777 1 43 1.000000
gun
  43 -6.544314 -17.554108 48.317036 0.031218 0.993262 0.111610 0.708927 0.949737 1 43 1.000000
  43 -6.709388 -17.719019 47.953709 -0.284332 0.773016 -0.567099 0.708803 0.962563 1 43 1.000000
  43 -7.038344 -17.726526 48.108410 -0.284017 0.772528 -0.567922 0.720999 0.962605 1 43 1.000000
gun
  43 -6.861094 -18.090710 48.533627 -0.906798 -0.018314 0.421167 0.671748 0.964870 1 43 1.000000
  43 -6.864981 -17.818539 48.537094 -0.906800 -0.018311 0.421163 0.680442 0.964660 1 43 1.000000
  43 -7.086987 -17.817535 48.059151 -0.906798 -0.018315 0.421168 0.680414 0.947465 1 43 1.000000
gun
  43 -6.861094 -18.090710 48.533627 -0.906798 -0.018314 0.421167 0.671748 0.964870 1 43 1.000000
  43 -7.086987 -17.817535 48.059151 -0.906798 -0.018315 0.421168 0.680414 0.947465 1 43 1.000000
  43 -7.068594 -18.766697 48.057476 -0.906797 -0.018316 0.421169 0.649649 0.947372 1 43 1.000000
gun
  43 -7.068594 -18.766697 48.057476 -0.906797 -0.018316 0.421169 0.649649 0.947372 1 43 1.000000
  43 -6.842053 -18.495565 48.557026 -0.906804 -0.018310 0.421155 0.658197 0.964869 1 43 1.000000
  43 -6.861094 -18.090710 48.533627 -0.906798 -0.018314 0.421167 0.671748 0.964870 1 43 1.000000
gun
  43 -7.068594 -18.766697 48.057476 -0.906797 -0.018316 0.421169 0.649649 0.947372 1 43 1.000000
  43 -6.835640 -18.767746 48.558998 -0.906802 -0.018316 0.421159 0.649636 0.964752 1 43 1.000000
  43 -6.842053 -18.495565 48.557026 -0.906804 -0.018310 0.421155 0.658197 0.964869 1 43 1.000000
gun
  43 -6.865659 -17.817980 48.477013 -0.907096 -0.017791 0.420547 0.700607 0.962500 1 43 1.000000
  43 -6.867111 -17.571674 48.484604 -0.907170 -0.018306 0.420367 0.708803 0.962563 1 43 1.000000
  43 -6.873641 -17.560802 48.470978 -0.907149 -0.018299 0.420411 0.708803 0.962563 1 43 1.000000
gun
  43 -6.873641 -17.560802 48.470978 -0.907149 -0.018299 0.420411 0.708803 0.962563 1 43 1.000000
  43 -7.038344 -17.726526 48.108410 -0.907113 -0.015459 0.420604 0.703236 0.949252 1 43 1.000000
  43 -6.865659 -17.817980 48.477013 -0.907096 -0.017791 0.420547 0.700607 0.962500 1 43 1.000000
gun
  43 -7.041614 -17.817184 48.098221 -0.906920 -0.014607 0.421049 0.700607 0.949234 1 43 1.000000
  43 -6.865659 -17.817980 48.477013 -0.907096 -0.017791 0.420547 0.700607 0.962500 1 43 1.000000
  43 -7.038344 -17.726526 48.108410 -0.907113 -0.015459 0.420604 0.703236 0.949252 1 43 1.000000
gun
  43 -7.042531 -17.742247 48.098801 -0.907918 -0.014338 0.418902 0.703236 0.949252 1 43 1.000000
  43 -7.041614 -17.817184 48.098221 -0.906920 -0.014607 0.421049 0.700607 0.949234 1 43 1.000000
  43 -7.038344 -17.726526 48.108410 -0.907113 -0.015459 0.420604 0.703236 0.949252 1 43 1.000000
gun
  43 -6.838843 -19.024294 48.482323 0.069481 -0.992136 0.104108 0.708809 0.962770 1 43 1.000000
  43 -6.504784 -19.006828 48.339008 0.391413 -0.459711 0.797159 0.720979 0.962715 1 43 1.000000
  43 -6.832630 -19.013496 48.496143 0.391934 -0.457257 0.798313 0.708803 0.962563 1 43 1.000000
gun
  43 -6.838843 -19.024294 48.482323 0.069481 -0.992136 0.104108 0.708809 0.962770 1 43 1.000000
  43 -6.511000 -19.017651 48.325176 0.067255 -0.992882 0.098294 0.720979 0.962715 1 43 1.000000
  43 -6.504784 -19.006828 48.339008 0.391413 -0.459711 0.797159 0.720979 0.962715 1 43 1.000000
gun
  43 -6.836524 -18.767193 48.498466 0.432233 -0.001684 0.901760 0.708825 0.965558 1 43 1.000000
  43 -6.504784 -19.006828 48.339008 0.391413 -0.459711 0.797159 0.720979 0.962715 1 43 1.000000
  43 -6.508678 -18.760525 48.341339 0.432251 -0.001701 0.901752 0.720944 0.965558 1 43 1.000000
gun
  43 -6.836524 -18.767193 48.498466 0.432233 -0.001684 0.901760 0.708825 0.965558 1 43 1.000000
  43 -6.832630 -19.013496 48.496143 0.391934 -0.457257 0.798313 0.708809 0.962770 1 43 1.000000
  43 -6.504784 -19.006828 48.339008 0.391413 -0.459711 0.797159 0.720979 0.962715 1 43 1.000000
gun
  43 -6.544314 -17.554108 48.317036 0.031218 0.993262 0.111610 0.708809 0.962770 1 43 1.000000
  43 -6.867111 -17.571674 48.484604 0.371943 0.444127 0.815113 0.720979 0.962715 1 43 1.000000
  43 -6.537772 -17.565014 48.330673 0.371906 0.444613 0.814865 0.708803 0.962563 1 43 1.000000
gun
  43 -6.544314 -17.554108 48.317036 0.031218 0.993262 0.111610 0.708809 0.962770 1 43 1.000000
  43 -6.873641 -17.560802 48.470978 0.032306 0.993143 0.112357 0.720979 0.962715 1 43 1.000000
  43 -6.867111 -17.571674 48.484604 0.371943 0.444127 0.815113 0.720979 0.962715 1 43 1.000000
gun
  43 -6.536326 -17.811317 48.323078 0.423711 -0.025422 0.905441 0.708825 0.965558 1 43 1.000000
  43 -6.867111 -17.571674 48.484604 0.371943 0.444127 0.815113 0.720979 0.962715 1 43 1.000000
  43 -6.865659 -17.817980 48.477013 0.423724 -0.025407 0.905435 0.720944 0.965558 1 43 1.000000
gun
  43 -6.536326 -17.811317 48.323078 0.423711 -0.025422 0.905441 0.708825 0.965558 1 43 1.000000
  43 -6.537772 -17.565014 48.330673 0.371906 0.444613 0.814865 0.708809 0.962770 1 43 1.000000
  43 -6.867111 -17.571674 48.484604 0.371943 0.444127 0.815113 0.720979 0.962715 1 43 1.000000
gun
  43 -6.864981 -17.818539 48.537094 -0.432200 0.062061 -0.899640 0.680442 0.964660 1 43 1.000000
  43 -6.889997 -18.078815 48.545460 -0.387750 -0.015051 -0.921642 0.672158 0.967868 1 43 1.000000
  43 -6.892651 -17.782124 48.552643 -0.427167 0.060599 -0.902140 0.681839 0.967907 1 43 1.000000
gun
  43 -6.864981 -17.818539 48.537094 -0.432200 0.062061 -0.899640 0.680442 0.964660 1 43 1.000000
  43 -6.861094 -18.090710 48.533627 -0.382961 -0.029903 -0.923280 0.671748 0.964870 1 43 1.000000
  43 -6.889997 -18.078815 48.545460 -0.387750 -0.015051 -0.921642 0.672158 0.967868 1 43 1.000000
gun
  43 -6.861094 -18.090710 48.533627 -0.382961 -0.029903 -0.923280 0.671748 0.964870 1 43 1.000000
  43 -6.873001 -18.520092 48.562866 -0.185214 -0.007944 -0.982666 0.657810 0.967868 1 43 1.000000
  43 -6.889997 -18.078815 48.545460 -0.387750 -0.015051 -0.921642 0.672158 0.967868 1 43 1.000000
gun
  43 -6.861094 -18.090710 48.533627 -0.382961 -0.029903 -0.923280 0.671748 0.964870 1 43 1.000000
  43 -6.842053 -18.495565 48.557026 -0.145936 -0.040816 -0.988452 0.658197 0.964869 1 43 1.000000
  43 -6.873001 -18.520092 48.562866 -0.185214 -0.007944 -0.982666 0.657810 0.967868 1 43 1.000000
gun
  43 -6.842053 -18.495565 48.557026 -0.145936 -0.040816 -0.988452 0.658197 0.964869 1 43 1.000000
  43 -6.869495 -18.816601 48.557526 -0.269122 0.205476 -0.940932 0.648191 0.967851 1 43 1.000000
  43 -6.873001 -18.520092 48.562866 -0.185214 -0.007944 -0.982666 0.657810 0.967868 1 43 1.000000
gun
  43 -6.842053 -18.495565 48.557026 -0.145936 -0.040816 -0.988452 0.658197 0.964869 1 43 1.000000
  43 -6.835640 -18.767746 48.558998 -0.171667 0.150409 -0.973606 0.649636 0.964752 1 43 1.000000
  43 -6.869495 -18.816601 48.557526 -0.269122 0.205476 -0.940932 0.648191 0.967851 1 43 1.000000
gun
  43 -7.337640 -17.816406 47.519543 -0.906794 -0.018317 0.421177 0.680300 0.889018 1 43 1.000000
  43 -7.068594 -18.766697 48.057476 -0.906794 -0.018317 0.421177 0.649312 0.870001 1 43 1.000000
  43 -7.086987 -17.817535 48.059151 -0.906794 -0.018317 0.421177 0.680120 0.870252 1 43 1.000000
gun
  43 -7.337640 -17.816406 47.519543 -0.906794 -0.018317 0.421177 0.680300 0.889018 1 43 1.000000
  43 -7.322634 -18.765553 47.510586 -0.906790 -0.018310 0.421185 0.649493 0.889018 1 43 1.000000
  43 -7.068594 -18.766697 48.057476 -0.906794 -0.018317 0.421177 0.649312 0.870001 1 43 1.000000
gun
  43 -6.780278 -18.497725 47.706707 0.800499 0.018290 -0.599055 0.675228 0.909139 1 43 1.000000
  43 -6.796737 -18.567902 47.701557 0.639832 0.017357 -0.768319 0.677968 0.910173 1 43 1.000000
  43 -6.797844 -18.497963 47.702213 0.640009 0.017334 -0.768172 0.675228 0.910153 1 43 1.000000
gun
  43 -6.780278 -18.497725 47.706707 0.800499 0.018290 -0.599055 0.675228 0.909139 1 43 1.000000
  43 -6.779172 -18.567665 47.706047 0.800447 0.018309 -0.599124 0.677968 0.909159 1 43 1.000000
  43 -6.796737 -18.567902 47.701557 0.639832 0.017357 -0.768319 0.677968 0.910173 1 43 1.000000
gun
  43 -7.140422 -18.500721 47.420883 0.015808 -0.999830 -0.009493 0.682039 0.928581 1 43 1.000000
  43 -6.955347 -18.497231 47.360481 0.015852 -0.999830 -0.009421 0.682763 0.910051 1 43 1.000000
  43 -7.128814 -18.500782 47.446667 0.015810 -0.999830 -0.009495 0.682922 0.928614 1 43 1.000000
gun
  43 -7.140422 -18.500721 47.420883 0.015808 -0.999830 -0.009493 0.682039 0.928581 1 43 1.000000
  43 -6.952263 -18.496975 47.339104 0.015825 -0.999830 -0.009437 0.682198 0.908919 1 43 1.000000
  43 -6.955347 -18.497231 47.360481 0.015852 -0.999830 -0.009421 0.682763 0.910051 1 43 1.000000
gun
  43 -6.952263 -18.496975 47.339104 0.015825 -0.999830 -0.009437 0.682198 0.908919 1 43 1.000000
  43 -6.797844 -18.497963 47.702213 0.015882 -0.999829 -0.009465 0.694515 0.910158 1 43 1.000000
  43 -6.955347 -18.497231 47.360481 0.015852 -0.999830 -0.009421 0.682763 0.910051 1 43 1.000000
gun
  43 -6.952263 -18.496975 47.339104 0.015825 -0.999830 -0.009437 0.682198 0.908919 1 43 1.000000
  43 -6.780278 -18.497725 47.706707 0.015881 -0.999829 -0.009467 0.694873 0.908812 1 43 1.000000
  43 -6.797844 -18.497963 47.702213 0.015882 -0.999829 -0.009465 0.694515 0.910158 1 43 1.000000
gun
  43 -7.139316 -18.570660 47.420219 0.911715 0.018306 -0.410416 0.675224 0.909159 1 43 1.000000
  43 -7.128814 -18.500782 47.446667 0.911715 0.018307 -0.410416 0.677965 0.910161 1 43 1.000000
  43 -7.127707 -18.570721 47.446007 0.911715 0.018306 -0.410416 0.675223 0.910161 1 43 1.000000
gun
  43 -7.139316 -18.570660 47.420219 0.911715 0.018306 -0.410416 0.675224 0.909159 1 43 1.000000
  43 -7.140422 -18.500721 47.420883 0.911715 0.018308 -0.410416 0.677963 0.909150 1 43 1.000000
  43 -7.128814 -18.500782 47.446667 0.911715 0.018307 -0.410416 0.677965 0.910161 1 43 1.000000
gun
  43 -6.779172 -18.567665 47.706047 -0.015764 0.999831 0.009454 0.694873 0.908812 1 43 1.000000
  43 -6.954241 -18.567167 47.359821 -0.015842 0.999830 0.009456 0.682763 0.910051 1 43 1.000000
  43 -6.796737 -18.567902 47.701557 -0.015759 0.999831 0.009453 0.694515 0.910158 1 43 1.000000
gun
  43 -6.779172 -18.567665 47.706047 -0.015764 0.999831 0.009454 0.694873 0.908812 1 43 1.000000
  43 -6.951158 -18.566916 47.338448 -0.015819 0.999830 0.009447 0.682198 0.908919 1 43 1.000000
  43 -6.954241 -18.567167 47.359821 -0.015842 0.999830 0.009456 0.682763 0.910051 1 43 1.000000
gun
  43 -6.951158 -18.566916 47.338448 -0.015819 0.999830 0.009447 0.682198 0.908919 1 43 1.000000
  43 -7.127707 -18.570721 47.446007 -0.015782 0.999831 0.009459 0.682922 0.928614 1 43 1.000000
  43 -6.954241 -18.567167 47.359821 -0.015842 0.999830 0.009456 0.682763 0.910051 1 43 1.000000
gun
  43 -6.951158 -18.566916 47.338448 -0.015819 0.999830 0.009447 0.682198 0.908919 1 43 1.000000
  43 -7.139316 -18.570660 47.420219 -0.015783 0.999831 0.009461 0.682039 0.928581 1 43 1.000000
  43 -7.127707 -18.570721 47.446007 -0.015782 0.999831 0.009459 0.682922 0.928614 1 43 1.000000
gun
  43 -7.140888 -18.471249 47.421158 0.911729 0.018287 -0.410385 0.675224 0.909159 1 43 1.000000
  43 -7.130385 -18.401373 47.447605 0.911728 0.018299 -0.410388 0.677965 0.910161 1 43 1.000000
  43 -7.129280 -18.471306 47.446945 0.911730 0.018281 -0.410383 0.675223 0.910161 1 43 1.000000
gun
  43 -7.140888 -18.471249 47.421158 0.911729 0.018287 -0.410385 0.675224 0.909159 1 43 1.000000
  43 -7.141994 -18.401310 47.421818 0.911727 0.018305 -0.410389 0.677963 0.909150 1 43 1.000000
  43 -7.130385 -18.401373 47.447605 0.911728 0.018299 -0.410388 0.677965 0.910161 1 43 1.000000
gun
  43 -6.780744 -18.468254 47.706985 -0.015768 0.999830 0.009541 0.694873 0.908812 1 43 1.000000
  43 -6.955812 -18.467754 47.360760 -0.015834 0.999830 0.009499 0.682763 0.910051 1 43 1.000000
  43 -6.798310 -18.468491 47.702492 -0.015763 0.999830 0.009544 0.694515 0.910158 1 43 1.000000
gun
  43 -6.780744 -18.468254 47.706985 -0.015768 0.999830 0.009541 0.694873 0.908812 1 43 1.000000
  43 -6.952729 -18.467503 47.339386 -0.015814 0.999830 0.009500 0.682198 0.908919 1 43 1.000000
  43 -6.955812 -18.467754 47.360760 -0.015834 0.999830 0.009499 0.682763 0.910051 1 43 1.000000
gun
  43 -6.952729 -18.467503 47.339386 -0.015814 0.999830 0.009500 0.682198 0.908919 1 43 1.000000
  43 -7.129280 -18.471306 47.446945 -0.015814 0.999831 0.009360 0.682922 0.928614 1 43 1.000000
  43 -6.955812 -18.467754 47.360760 -0.015834 0.999830 0.009499 0.682763 0.910051 1 43 1.000000
gun
  43 -6.952729 -18.467503 47.339386 -0.015814 0.999830 0.009500 0.682198 0.908919 1 43 1.000000
  43 -7.140888 -18.471249 47.421158 -0.015817 0.999831 0.009348 0.682039 0.928581 1 43 1.000000
  43 -7.129280 -18.471306 47.446945 -0.015814 0.999831 0.009360 0.682922 0.928614 1 43 1.000000
gun
  43 -6.781850 -18.398315 47.707645 0.800515 0.018336 -0.599032 0.675228 0.909139 1 43 1.000000
  43 -6.798310 -18.468491 47.702492 0.639831 0.017389 -0.768319 0.677968 0.910173 1 43 1.000000
  43 -6.799415 -18.398550 47.703156 0.639995 0.017407 -0.768182 0.675228 0.910153 1 43 1.000000
gun
  43 -6.781850 -18.398315 47.707645 0.800515 0.018336 -0.599032 0.675228 0.909139 1 43 1.000000
  43 -6.780744 -18.468254 47.706985 0.800457 0.018310 -0.599110 0.677968 0.909159 1 43 1.000000
  43 -6.798310 -18.468491 47.702492 0.639831 0.017389 -0.768319 0.677968 0.910173 1 43 1.000000
gun
  43 -7.141994 -18.401310 47.421818 0.015786 -0.999830 -0.009493 0.682039 0.928581 1 43 1.000000
  43 -6.956919 -18.397816 47.361423 0.015847 -0.999829 -0.009489 0.682763 0.910051 1 43 1.000000
  43 -7.130385 -18.401373 47.447605 0.015787 -0.999830 -0.009494 0.682922 0.928614 1 43 1.000000
gun
  43 -7.141994 -18.401310 47.421818 0.015786 -0.999830 -0.009493 0.682039 0.928581 1 43 1.000000
  43 -6.953835 -18.397564 47.340042 0.015823 -0.999830 -0.009489 0.682198 0.908919 1 43 1.000000
  43 -6.956919 -18.397816 47.361423 0.015847 -0.999829 -0.009489 0.682763 0.910051 1 43 1.000000
gun
  43 -6.953835 -18.397564 47.340042 0.015823 -0.999830 -0.009489 0.682198 0.908919 1 43 1.000000
  43 -6.799415 -18.398550 47.703156 0.015884 -0.999829 -0.009488 0.694515 0.910158 1 43 1.000000
  43 -6.956919 -18.397816 47.361423 0.015847 -0.999829 -0.009489 0.682763 0.910051 1 43 1.000000
gun
  43 -6.953835 -18.397564 47.340042 0.015823 -0.999830 -0.009489 0.682198 0.908919 1 43 1.000000
  43 -6.781850 -18.398315 47.707645 0.015883 -0.999829 -0.009488 0.694873 0.908812 1 43 1.000000
  43 -6.799415 -18.398550 47.703156 0.015884 -0.999829 -0.009488 0.694515 0.910158 1 43 1.000000
gun
  43 -6.786565 -18.100082 47.710457 0.800399 0.018301 -0.599189 0.675228 0.909139 1 43 1.000000
  43 -6.803024 -18.170258 47.705315 0.639845 0.017328 -0.768309 0.677968 0.910173 1 43 1.000000
  43 -6.804130 -18.100315 47.705971 0.639755 0.017330 -0.768384 0.675228 0.910153 1 43 1.000000
gun
  43 -6.786565 -18.100082 47.710457 0.800399 0.018301 -0.599189 0.675228 0.909139 1 43 1.000000
  43 -6.785459 -18.170021 47.709801 0.800505 0.018283 -0.599047 0.677968 0.909159 1 43 1.000000
  43 -6.803024 -18.170258 47.705315 0.639845 0.017328 -0.768309 0.677968 0.910173 1 43 1.000000
gun
  43 -7.146708 -18.103081 47.424633 0.015836 -0.999830 -0.009483 0.682039 0.928581 1 43 1.000000
  43 -6.961634 -18.099579 47.364239 0.015791 -0.999832 -0.009357 0.682763 0.910051 1 43 1.000000
  43 -7.135099 -18.103138 47.450420 0.015836 -0.999830 -0.009494 0.682922 0.928614 1 43 1.000000
gun
  43 -7.146708 -18.103081 47.424633 0.015836 -0.999830 -0.009483 0.682039 0.928581 1 43 1.000000
  43 -6.958549 -18.099331 47.342861 0.015804 -0.999831 -0.009339 0.682198 0.908919 1 43 1.000000
  43 -6.961634 -18.099579 47.364239 0.015791 -0.999832 -0.009357 0.682763 0.910051 1 43 1.000000
gun
  43 -6.958549 -18.099331 47.342861 0.015804 -0.999831 -0.009339 0.682198 0.908919 1 43 1.000000
  43 -6.804130 -18.100315 47.705971 0.015638 -0.999834 -0.009319 0.694515 0.910158 1 43 1.000000
  43 -6.961634 -18.099579 47.364239 0.015791 -0.999832 -0.009357 0.682763 0.910051 1 43 1.000000
gun
  43 -6.958549 -18.099331 47.342861 0.015804 -0.999831 -0.009339 0.682198 0.908919 1 43 1.000000
  43 -6.786565 -18.100082 47.710457 0.015636 -0.999834 -0.009318 0.694873 0.908812 1 43 1.000000
  43 -6.804130 -18.100315 47.705971 0.015638 -0.999834 -0.009319 0.694515 0.910158 1 43 1.000000
gun
  43 -7.145602 -18.173018 47.423977 0.911689 0.018281 -0.410474 0.675224 0.909159 1 43 1.000000
  43 -7.135099 -18.103138 47.450420 0.911729 0.018266 -0.410387 0.677965 0.910161 1 43 1.000000
  43 -7.133994 -18.173082 47.449760 0.911670 0.018288 -0.410516 0.675223 0.910161 1 43 1.000000
gun
  43 -7.145602 -18.173018 47.423977 0.911689 0.018281 -0.410474 0.675224 0.909159 1 43 1.000000
  43 -7.146708 -18.103081 47.424633 0.911748 0.018259 -0.410344 0.677963 0.909150 1 43 1.000000
  43 -7.135099 -18.103138 47.450420 0.911729 0.018266 -0.410387 0.677965 0.910161 1 43 1.000000
gun
  43 -6.785459 -18.170021 47.709801 -0.015872 0.999829 0.009448 0.694873 0.908812 1 43 1.000000
  43 -6.960527 -18.169521 47.363575 -0.015749 0.999833 0.009321 0.682763 0.910051 1 43 1.000000
  43 -6.803024 -18.170258 47.705315 -0.015881 0.999829 0.009451 0.694515 0.910158 1 43 1.000000
gun
  43 -6.785459 -18.170021 47.709801 -0.015872 0.999829 0.009448 0.694873 0.908812 1 43 1.000000
  43 -6.957444 -18.169273 47.342197 -0.015779 0.999832 0.009339 0.682198 0.908919 1 43 1.000000
  43 -6.960527 -18.169521 47.363575 -0.015749 0.999833 0.009321 0.682763 0.910051 1 43 1.000000
gun
  43 -6.957444 -18.169273 47.342197 -0.015779 0.999832 0.009339 0.682198 0.908919 1 43 1.000000
  43 -7.133994 -18.173082 47.449760 -0.015726 0.999830 0.009641 0.682922 0.928614 1 43 1.000000
  43 -6.960527 -18.169521 47.363575 -0.015749 0.999833 0.009321 0.682763 0.910051 1 43 1.000000
gun
  43 -6.957444 -18.169273 47.342197 -0.015779 0.999832 0.009339 0.682198 0.908919 1 43 1.000000
  43 -7.145602 -18.173018 47.423977 -0.015717 0.999830 0.009662 0.682039 0.928581 1 43 1.000000
  43 -7.133994 -18.173082 47.449760 -0.015726 0.999830 0.009641 0.682922 0.928614 1 43 1.000000
gun
  43 -7.147175 -18.073605 47.424915 0.911635 0.018325 -0.410592 0.675224 0.909159 1 43 1.000000
  43 -7.136671 -18.003727 47.451363 0.911710 0.018300 -0.410426 0.677965 0.910161 1 43 1.000000
  43 -7.135567 -18.073662 47.450695 0.911599 0.018337 -0.410671 0.675223 0.910161 1 43 1.000000
gun
  43 -7.147175 -18.073605 47.424915 0.911635 0.018325 -0.410592 0.675224 0.909159 1 43 1.000000
  43 -7.148279 -18.003664 47.425575 0.911746 0.018288 -0.410347 0.677963 0.909150 1 43 1.000000
  43 -7.136671 -18.003727 47.451363 0.911710 0.018300 -0.410426 0.677965 0.910161 1 43 1.000000
gun
  43 -6.787030 -18.070608 47.710739 -0.015882 0.999829 0.009447 0.694873 0.908812 1 43 1.000000
  43 -6.962099 -18.070107 47.364517 -0.015785 0.999832 0.009276 0.682763 0.910051 1 43 1.000000
  43 -6.804595 -18.070847 47.706249 -0.015887 0.999829 0.009454 0.694515 0.910158 1 43 1.000000
gun
  43 -6.787030 -18.070608 47.710739 -0.015882 0.999829 0.009447 0.694873 0.908812 1 43 1.000000
  43 -6.959016 -18.069857 47.343140 -0.015796 0.999832 0.009292 0.682198 0.908919 1 43 1.000000
  43 -6.962099 -18.070107 47.364517 -0.015785 0.999832 0.009276 0.682763 0.910051 1 43 1.000000
gun
  43 -6.959016 -18.069857 47.343140 -0.015796 0.999832 0.009292 0.682198 0.908919 1 43 1.000000
  43 -7.135567 -18.073662 47.450695 -0.015817 0.999830 0.009463 0.682922 0.928614 1 43 1.000000
  43 -6.962099 -18.070107 47.364517 -0.015785 0.999832 0.009276 0.682763 0.910051 1 43 1.000000
gun
  43 -6.959016 -18.069857 47.343140 -0.015796 0.999832 0.009292 0.682198 0.908919 1 43 1.000000
  43 -7.147175 -18.073605 47.424915 -0.015817 0.999830 0.009474 0.682039 0.928581 1 43 1.000000
  43 -7.135567 -18.073662 47.450695 -0.015817 0.999830 0.009463 0.682922 0.928614 1 43 1.000000
gun
  43 -6.788136 -18.000671 47.711395 0.800437 0.018321 -0.599137 0.675228 0.909139 1 43 1.000000
  43 -6.804595 -18.070847 47.706249 0.639728 0.017350 -0.768406 0.677968 0.910173 1 43 1.000000
  43 -6.805702 -18.000904 47.706909 0.639730 0.017376 -0.768403 0.675228 0.910153 1 43 1.000000
gun
  43 -6.788136 -18.000671 47.711395 0.800437 0.018321 -0.599137 0.675228 0.909139 1 43 1.000000
  43 -6.787030 -18.070608 47.710739 0.800369 0.018341 -0.599227 0.677968 0.909159 1 43 1.000000
  43 -6.804595 -18.070847 47.706249 0.639728 0.017350 -0.768406 0.677968 0.910173 1 43 1.000000
gun
  43 -7.148279 -18.003664 47.425575 0.015766 -0.999831 -0.009492 0.682039 0.928581 1 43 1.000000
  43 -6.963204 -18.000170 47.365177 0.015846 -0.999829 -0.009482 0.682763 0.910051 1 43 1.000000
  43 -7.136671 -18.003727 47.451363 0.015765 -0.999831 -0.009494 0.682922 0.928614 1 43 1.000000
gun
  43 -7.148279 -18.003664 47.425575 0.015766 -0.999831 -0.009492 0.682039 0.928581 1 43 1.000000
  43 -6.960121 -17.999918 47.343800 0.015825 -0.999830 -0.009477 0.682198 0.908919 1 43 1.000000
  43 -6.963204 -18.000170 47.365177 0.015846 -0.999829 -0.009482 0.682763 0.910051 1 43 1.000000
gun
  43 -6.960121 -17.999918 47.343800 0.015825 -0.999830 -0.009477 0.682198 0.908919 1 43 1.000000
  43 -6.805702 -18.000904 47.706909 0.015882 -0.999829 -0.009466 0.694515 0.910158 1 43 1.000000
  43 -6.963204 -18.000170 47.365177 0.015846 -0.999829 -0.009482 0.682763 0.910051 1 43 1.000000
gun
  43 -6.960121 -17.999918 47.343800 0.015825 -0.999830 -0.009477 0.682198 0.908919 1 43 1.000000
  43 -6.788136 -18.000671 47.711395 0.015882 -0.999829 -0.009465 0.694873 0.908812 1 43 1.000000
  43 -6.805702 -18.000904 47.706909 0.015882 -0.999829 -0.009466 0.694515 0.910158 1 43 1.000000
gun
  43 -6.783421 -18.298908 47.708584 0.800505 0.018250 -0.599049 0.675228 0.909139 1 43 1.000000
  43 -6.799881 -18.369080 47.703434 0.639796 0.017351 -0.768349 0.677968 0.910173 1 43 1.000000
  43 -6.800986 -18.299145 47.704090 0.640023 0.017325 -0.768160 0.675228 0.910153 1 43 1.000000
gun
  43 -6.783421 -18.298908 47.708584 0.800505 0.018250 -0.599049 0.675228 0.909139 1 43 1.000000
  43 -6.782316 -18.368843 47.707924 0.800415 0.018313 -0.599167 0.677968 0.909159 1 43 1.000000
  43 -6.799881 -18.369080 47.703434 0.639796 0.017351 -0.768349 0.677968 0.910173 1 43 1.000000
gun
  43 -7.143565 -18.301907 47.422756 0.015801 -0.999831 -0.009417 0.682039 0.928581 1 43 1.000000
  43 -6.958490 -18.298412 47.362354 0.015858 -0.999829 -0.009526 0.682763 0.910051 1 43 1.000000
  43 -7.131957 -18.301964 47.448544 0.015803 -0.999831 -0.009406 0.682922 0.928614 1 43 1.000000
gun
  43 -7.143565 -18.301907 47.422756 0.015801 -0.999831 -0.009417 0.682039 0.928581 1 43 1.000000
  43 -6.955406 -18.298159 47.340981 0.015829 -0.999829 -0.009546 0.682198 0.908919 1 43 1.000000
  43 -6.958490 -18.298412 47.362354 0.015858 -0.999829 -0.009526 0.682763 0.910051 1 43 1.000000
gun
  43 -6.955406 -18.298159 47.340981 0.015829 -0.999829 -0.009546 0.682198 0.908919 1 43 1.000000
  43 -6.800986 -18.299145 47.704090 0.015763 -0.999831 -0.009457 0.694515 0.910158 1 43 1.000000
  43 -6.958490 -18.298412 47.362354 0.015858 -0.999829 -0.009526 0.682763 0.910051 1 43 1.000000
gun
  43 -6.955406 -18.298159 47.340981 0.015829 -0.999829 -0.009546 0.682198 0.908919 1 43 1.000000
  43 -6.783421 -18.298908 47.708584 0.015761 -0.999831 -0.009457 0.694873 0.908812 1 43 1.000000
  43 -6.800986 -18.299145 47.704090 0.015763 -0.999831 -0.009457 0.694515 0.910158 1 43 1.000000
gun
  43 -7.142459 -18.371845 47.422096 0.911751 0.018293 -0.410336 0.675224 0.909159 1 43 1.000000
  43 -7.131957 -18.301964 47.448544 0.911728 0.018281 -0.410387 0.677965 0.910161 1 43 1.000000
  43 -7.130851 -18.371906 47.447884 0.911762 0.018298 -0.410311 0.675223 0.910161 1 43 1.000000
gun
  43 -7.142459 -18.371845 47.422096 0.911751 0.018293 -0.410336 0.675224 0.909159 1 43 1.000000
  43 -7.143565 -18.301907 47.422756 0.911717 0.018276 -0.410412 0.677963 0.909150 1 43 1.000000
  43 -7.131957 -18.301964 47.448544 0.911728 0.018281 -0.410387 0.677965 0.910161 1 43 1.000000
gun
  43 -6.782316 -18.368843 47.707924 -0.015879 0.999829 0.009450 0.694873 0.908812 1 43 1.000000
  43 -6.957384 -18.368347 47.361698 -0.015807 0.999830 0.009446 0.682763 0.910051 1 43 1.000000
  43 -6.799881 -18.369080 47.703434 -0.015883 0.999829 0.009454 0.694515 0.910158 1 43 1.000000
gun
  43 -6.782316 -18.368843 47.707924 -0.015879 0.999829 0.009450 0.694873 0.908812 1 43 1.000000
  43 -6.954301 -18.368097 47.340321 -0.015810 0.999830 0.009472 0.682198 0.908919 1 43 1.000000
  43 -6.957384 -18.368347 47.361698 -0.015807 0.999830 0.009446 0.682763 0.910051 1 43 1.000000
gun
  43 -6.954301 -18.368097 47.340321 -0.015810 0.999830 0.009472 0.682198 0.908919 1 43 1.000000
  43 -7.130851 -18.371906 47.447884 -0.015765 0.999831 0.009457 0.682922 0.928614 1 43 1.000000
  43 -6.957384 -18.368347 47.361698 -0.015807 0.999830 0.009446 0.682763 0.910051 1 43 1.000000
gun
  43 -6.954301 -18.368097 47.340321 -0.015810 0.999830 0.009472 0.682198 0.908919 1 43 1.000000
  43 -7.142459 -18.371845 47.422096 -0.015761 0.999831 0.009451 0.682039 0.928581 1 43 1.000000
  43 -7.130851 -18.371906 47.447884 -0.015765 0.999831 0.009457 0.682922 0.928614 1 43 1.000000
gun
  43 -7.144032 -18.272427 47.423035 0.911734 0.018294 -0.410373 0.675224 0.909159 1 43 1.000000
  43 -7.133529 -18.202549 47.449482 0.911708 0.018304 -0.410430 0.677965 0.910161 1 43 1.000000
  43 -7.132422 -18.272491 47.448822 0.911747 0.018289 -0.410346 0.675223 0.910161 1 43 1.000000
gun
  43 -7.144032 -18.272427 47.423035 0.911734 0.018294 -0.410373 0.675224 0.909159 1 43 1.000000
  43 -7.145137 -18.202488 47.423698 0.911696 0.018309 -0.410457 0.677963 0.909150 1 43 1.000000
  43 -7.133529 -18.202549 47.449482 0.911708 0.018304 -0.410430 0.677965 0.910161 1 43 1.000000
gun
  43 -6.783888 -18.269428 47.708858 -0.015998 0.999826 0.009538 0.694873 0.908812 1 43 1.000000
  43 -6.958957 -18.268932 47.362637 -0.015803 0.999831 0.009415 0.682763 0.910051 1 43 1.000000
  43 -6.801453 -18.269667 47.704372 -0.016006 0.999826 0.009543 0.694515 0.910158 1 43 1.000000
gun
  43 -6.783888 -18.269428 47.708858 -0.015998 0.999826 0.009538 0.694873 0.908812 1 43 1.000000
  43 -6.955873 -18.268681 47.341259 -0.015807 0.999831 0.009431 0.682198 0.908919 1 43 1.000000
  43 -6.958957 -18.268932 47.362637 -0.015803 0.999831 0.009415 0.682763 0.910051 1 43 1.000000
gun
  43 -6.955873 -18.268681 47.341259 -0.015807 0.999831 0.009431 0.682198 0.908919 1 43 1.000000
  43 -7.132422 -18.272491 47.448822 -0.015765 0.999830 0.009589 0.682922 0.928614 1 43 1.000000
  43 -6.958957 -18.268932 47.362637 -0.015803 0.999831 0.009415 0.682763 0.910051 1 43 1.000000
gun
  43 -6.955873 -18.268681 47.341259 -0.015807 0.999831 0.009431 0.682198 0.908919 1 43 1.000000
  43 -7.144032 -18.272427 47.423035 -0.015760 0.999830 0.009600 0.682039 0.928581 1 43 1.000000
  43 -7.132422 -18.272491 47.448822 -0.015765 0.999830 0.009589 0.682922 0.928614 1 43 1.000000
gun
  43 -6.784992 -18.199493 47.709522 0.800476 0.018313 -0.599085 0.675228 0.909139 1 43 1.000000
  43 -6.801453 -18.269667 47.704372 0.639855 0.017394 -0.768299 0.677968 0.910173 1 43 1.000000
  43 -6.802559 -18.199730 47.705032 0.639880 0.017372 -0.768278 0.675228 0.910153 1 43 1.000000
gun
  43 -6.784992 -18.199493 47.709522 0.800476 0.018313 -0.599085 0.675228 0.909139 1 43 1.000000
  43 -6.783888 -18.269428 47.708858 0.800441 0.018293 -0.599132 0.677968 0.909159 1 43 1.000000
  43 -6.801453 -18.269667 47.704372 0.639855 0.017394 -0.768299 0.677968 0.910173 1 43 1.000000
gun
  43 -6.953835 -18.397564 47.340042 -0.398692 0.002367 -0.917082 0.662305 0.928875 1 43 1.000000
  43 -7.142459 -18.371845 47.422096 -0.428628 0.001757 -0.903479 0.661360 0.909172 1 43 1.000000
  43 -6.954301 -18.368097 47.340321 -0.398703 0.002366 -0.917077 0.661348 0.928875 1 43 1.000000
gun
  43 -6.953835 -18.397564 47.340042 -0.398692 0.002367 -0.917082 0.662305 0.928875 1 43 1.000000
  43 -7.141994 -18.401310 47.421818 -0.428524 0.001765 -0.903529 0.662316 0.909172 1 43 1.000000
  43 -7.142459 -18.371845 47.422096 -0.428628 0.001757 -0.903479 0.661360 0.909172 1 43 1.000000
gun
  43 -7.145602 -18.173018 47.423977 -0.428202 0.001744 -0.903681 0.667812 0.909167 1 43 1.000000
  43 -6.956978 -18.198746 47.341923 -0.398618 0.002240 -0.917114 0.668758 0.928870 1 43 1.000000
  43 -7.145137 -18.202488 47.423698 -0.409181 0.002135 -0.912451 0.668769 0.909167 1 43 1.000000
gun
  43 -7.145602 -18.173018 47.423977 -0.428202 0.001744 -0.903681 0.667812 0.909167 1 43 1.000000
  43 -6.957444 -18.169273 47.342197 -0.398618 0.002229 -0.917114 0.667801 0.928870 1 43 1.000000
  43 -6.956978 -18.198746 47.341923 -0.398618 0.002240 -0.917114 0.668758 0.928870 1 43 1.000000
gun
  43 -7.140888 -18.471249 47.421158 -0.428612 0.001705 -0.903487 0.658137 0.909167 1 43 1.000000
  43 -6.952263 -18.496975 47.339104 -0.398623 0.002458 -0.917112 0.659083 0.928870 1 43 1.000000
  43 -7.140422 -18.500721 47.420883 -0.428487 0.001650 -0.903547 0.659094 0.909167 1 43 1.000000
gun
  43 -7.140888 -18.471249 47.421158 -0.428612 0.001705 -0.903487 0.658137 0.909167 1 43 1.000000
  43 -6.952729 -18.467503 47.339386 -0.398621 0.002481 -0.917112 0.658126 0.928870 1 43 1.000000
  43 -6.952263 -18.496975 47.339104 -0.398623 0.002458 -0.917112 0.659083 0.928870 1 43 1.000000
gun
  43 -6.958549 -18.099331 47.342861 -0.398579 0.002376 -0.917131 0.671968 0.928874 1 43 1.000000
  43 -7.147175 -18.073605 47.424915 -0.428475 0.001866 -0.903552 0.671043 0.909160 1 43 1.000000
  43 -6.959016 -18.069857 47.343140 -0.398571 0.002365 -0.917135 0.671032 0.928864 1 43 1.000000
gun
  43 -6.958549 -18.099331 47.342861 -0.398579 0.002376 -0.917131 0.671968 0.928874 1 43 1.000000
  43 -7.146708 -18.103081 47.424633 -0.428614 0.001783 -0.903486 0.672000 0.909160 1 43 1.000000
  43 -7.147175 -18.073605 47.424915 -0.428475 0.001866 -0.903552 0.671043 0.909160 1 43 1.000000
gun
  43 -7.144032 -18.272427 47.423035 -0.426966 0.001772 -0.904266 0.664583 0.909157 1 43 1.000000
  43 -6.955406 -18.298159 47.340981 -0.398669 0.002366 -0.917092 0.665528 0.928861 1 43 1.000000
  43 -7.143565 -18.301907 47.422756 -0.407768 0.002161 -0.913083 0.665539 0.909157 1 43 1.000000
gun
  43 -7.144032 -18.272427 47.423035 -0.426966 0.001772 -0.904266 0.664583 0.909157 1 43 1.000000
  43 -6.955873 -18.268681 47.341259 -0.398674 0.002368 -0.917090 0.664571 0.928861 1 43 1.000000
  43 -6.955406 -18.298159 47.340981 -0.398669 0.002366 -0.917092 0.665528 0.928861 1 43 1.000000
gun
  43 -6.955347 -18.497231 47.360481 0.908047 0.018297 -0.418468 0.674345 0.928874 1 43 1.000000
  43 -6.796737 -18.567902 47.701557 0.639832 0.017357 -0.768319 0.672013 0.940626 1 43 1.000000
  43 -6.954241 -18.567167 47.359821 0.908048 0.018297 -0.418466 0.671968 0.928874 1 43 1.000000
gun
  43 -6.955347 -18.497231 47.360481 0.908047 0.018297 -0.418468 0.674345 0.928874 1 43 1.000000
  43 -6.797844 -18.497963 47.702213 0.640009 0.017334 -0.768172 0.674246 0.940626 1 43 1.000000
  43 -6.796737 -18.567902 47.701557 0.639832 0.017357 -0.768319 0.672013 0.940626 1 43 1.000000
gun
  43 -6.955347 -18.497231 47.360481 -0.444954 0.001415 -0.895552 0.674345 0.928874 1 43 1.000000
  43 -7.127707 -18.570721 47.446007 -0.444948 0.001411 -0.895555 0.671980 0.910315 1 43 1.000000
  43 -7.128814 -18.500782 47.446667 -0.444946 0.001410 -0.895556 0.674276 0.910283 1 43 1.000000
gun
  43 -6.955347 -18.497231 47.360481 -0.444954 0.001415 -0.895552 0.674345 0.928874 1 43 1.000000
  43 -6.954241 -18.567167 47.359821 -0.444956 0.001416 -0.895551 0.671968 0.928874 1 43 1.000000
  43 -7.127707 -18.570721 47.446007 -0.444948 0.001411 -0.895555 0.671980 0.910315 1 43 1.000000
gun
  43 -6.955812 -18.467754 47.360760 -0.444964 0.001454 -0.895547 0.671968 0.928874 1 43 1.000000
  43 -7.130385 -18.401373 47.447605 -0.444961 0.001437 -0.895549 0.674276 0.910283 1 43 1.000000
  43 -6.956919 -18.397816 47.361423 -0.444965 0.001460 -0.895547 0.674345 0.928874 1 43 1.000000
gun
  43 -6.955812 -18.467754 47.360760 -0.444964 0.001454 -0.895547 0.671968 0.928874 1 43 1.000000
  43 -7.129280 -18.471306 47.446945 -0.444960 0.001431 -0.895549 0.671980 0.910315 1 43 1.000000
  43 -7.130385 -18.401373 47.447605 -0.444961 0.001437 -0.895549 0.674276 0.910283 1 43 1.000000
gun
  43 -6.955812 -18.467754 47.360760 0.908049 0.018333 -0.418463 0.671968 0.928874 1 43 1.000000
  43 -6.799415 -18.398550 47.703156 0.639995 0.017407 -0.768182 0.674246 0.940626 1 43 1.000000
  43 -6.798310 -18.468491 47.702492 0.639831 0.017389 -0.768319 0.672013 0.940626 1 43 1.000000
gun
  43 -6.955812 -18.467754 47.360760 0.908049 0.018333 -0.418463 0.671968 0.928874 1 43 1.000000
  43 -6.956919 -18.397816 47.361423 0.908051 0.018333 -0.418459 0.674345 0.928874 1 43 1.000000
  43 -6.799415 -18.398550 47.703156 0.639995 0.017407 -0.768182 0.674246 0.940626 1 43 1.000000
gun
  43 -6.961634 -18.099579 47.364239 0.908050 0.018327 -0.418461 0.674345 0.928874 1 43 1.000000
  43 -6.803024 -18.170258 47.705315 0.639845 0.017328 -0.768309 0.672013 0.940626 1 43 1.000000
  43 -6.960527 -18.169521 47.363575 0.908050 0.018333 -0.418460 0.671968 0.928874 1 43 1.000000
gun
  43 -6.961634 -18.099579 47.364239 0.908050 0.018327 -0.418461 0.674345 0.928874 1 43 1.000000
  43 -6.804130 -18.100315 47.705971 0.639755 0.017330 -0.768384 0.674246 0.940626 1 43 1.000000
  43 -6.803024 -18.170258 47.705315 0.639845 0.017328 -0.768309 0.672013 0.940626 1 43 1.000000
gun
  43 -6.961634 -18.099579 47.364239 -0.444941 0.001452 -0.895559 0.674345 0.928874 1 43 1.000000
  43 -7.133994 -18.173082 47.449760 -0.444951 0.001432 -0.895554 0.671980 0.910315 1 43 1.000000
  43 -7.135099 -18.103138 47.450420 -0.444954 0.001424 -0.895552 0.674276 0.910283 1 43 1.000000
gun
  43 -6.961634 -18.099579 47.364239 -0.444941 0.001452 -0.895559 0.674345 0.928874 1 43 1.000000
  43 -6.960527 -18.169521 47.363575 -0.444937 0.001460 -0.895561 0.671968 0.928874 1 43 1.000000
  43 -7.133994 -18.173082 47.449760 -0.444951 0.001432 -0.895554 0.671980 0.910315 1 43 1.000000
gun
  43 -6.962099 -18.070107 47.364517 -0.444981 0.001437 -0.895539 0.671968 0.928874 1 43 1.000000
  43 -7.136671 -18.003727 47.451363 -0.444930 0.001490 -0.895564 0.674276 0.910283 1 43 1.000000
  43 -6.963204 -18.000170 47.365177 -0.445002 0.001416 -0.895529 0.674345 0.928874 1 43 1.000000
gun
  43 -6.962099 -18.070107 47.364517 -0.444981 0.001437 -0.895539 0.671968 0.928874 1 43 1.000000
  43 -7.135567 -18.073662 47.450695 -0.444908 0.001510 -0.895575 0.671980 0.910315 1 43 1.000000
  43 -7.136671 -18.003727 47.451363 -0.444930 0.001490 -0.895564 0.674276 0.910283 1 43 1.000000
gun
  43 -6.962099 -18.070107 47.364517 0.908054 0.018300 -0.418454 0.671968 0.928874 1 43 1.000000
  43 -6.805702 -18.000904 47.706909 0.639730 0.017376 -0.768403 0.674246 0.940626 1 43 1.000000
  43 -6.804595 -18.070847 47.706249 0.639728 0.017350 -0.768406 0.672013 0.940626 1 43 1.000000
gun
  43 -6.962099 -18.070107 47.364517 0.908054 0.018300 -0.418454 0.671968 0.928874 1 43 1.000000
  43 -6.963204 -18.000170 47.365177 0.908055 0.018298 -0.418451 0.674345 0.928874 1 43 1.000000
  43 -6.805702 -18.000904 47.706909 0.639730 0.017376 -0.768403 0.674246 0.940626 1 43 1.000000
gun
  43 -6.958490 -18.298412 47.362354 0.908044 0.018280 -0.418477 0.674345 0.928874 1 43 1.000000
  43 -6.799881 -18.369080 47.703434 0.639796 0.017351 -0.768349 0.672013 0.940626 1 43 1.000000
  43 -6.957384 -18.368347 47.361698 0.908043 0.018280 -0.418478 0.671968 0.928874 1 43 1.000000
gun
  43 -6.958490 -18.298412 47.362354 0.908044 0.018280 -0.418477 0.674345 0.928874 1 43 1.000000
  43 -6.800986 -18.299145 47.704090 0.640023 0.017325 -0.768160 0.674246 0.940626 1 43 1.000000
  43 -6.799881 -18.369080 47.703434 0.639796 0.017351 -0.768349 0.672013 0.940626 1 43 1.000000
gun
  43 -6.958490 -18.298412 47.362354 -0.444975 0.001382 -0.895542 0.674345 0.928874 1 43 1.000000
  43 -7.130851 -18.371906 47.447884 -0.444966 0.001407 -0.895546 0.671980 0.910315 1 43 1.000000
  43 -7.131957 -18.301964 47.448544 -0.444962 0.001417 -0.895548 0.674276 0.910283 1 43 1.000000
gun
  43 -6.958490 -18.298412 47.362354 -0.444975 0.001382 -0.895542 0.674345 0.928874 1 43 1.000000
  43 -6.957384 -18.368347 47.361698 -0.444979 0.001372 -0.895540 0.671968 0.928874 1 43 1.000000
  43 -7.130851 -18.371906 47.447884 -0.444966 0.001407 -0.895546 0.671980 0.910315 1 43 1.000000
gun
  43 -6.958957 -18.268932 47.362637 -0.444954 0.001415 -0.895552 0.671968 0.928874 1 43 1.000000
  43 -7.133529 -18.202549 47.449482 -0.444966 0.001413 -0.895546 0.674276 0.910283 1 43 1.000000
  43 -6.960061 -18.198996 47.363297 -0.444949 0.001416 -0.895555 0.674345 0.928874 1 43 1.000000
gun
  43 -6.958957 -18.268932 47.362637 -0.444954 0.001415 -0.895552 0.671968 0.928874 1 43 1.000000
  43 -7.132422 -18.272491 47.448822 -0.444971 0.001412 -0.895544 0.671980 0.910315 1 43 1.000000
  43 -7.133529 -18.202549 47.449482 -0.444966 0.001413 -0.895546 0.674276 0.910283 1 43 1.000000
gun
  43 -6.958957 -18.268932 47.362637 0.908041 0.018316 -0.418481 0.671968 0.928874 1 43 1.000000
  43 -6.802559 -18.199730 47.705032 0.639880 0.017372 -0.768278 0.674246 0.940626 1 43 1.000000
  43 -6.801453 -18.269667 47.704372 0.639855 0.017394 -0.768299 0.672013 0.940626 1 43 1.000000
gun
  43 -6.958957 -18.268932 47.362637 0.908041 0.018316 -0.418481 0.671968 0.928874 1 43 1.000000
  43 -6.960061 -18.198996 47.363297 0.908040 0.018316 -0.418483 0.674345 0.928874 1 43 1.000000
  43 -6.802559 -18.199730 47.705032 0.639880 0.017372 -0.768278 0.674246 0.940626 1 43 1.000000
gun
  43 -6.794933 -18.682053 47.700478 0.639922 0.017362 -0.768244 0.672013 0.940626 1 43 1.000000
  43 -6.953775 -18.596638 47.359543 0.908045 0.018279 -0.418473 0.674345 0.928874 1 43 1.000000
  43 -6.796272 -18.597374 47.701279 0.639786 0.017384 -0.768356 0.674246 0.940626 1 43 1.000000
gun
  43 -6.794933 -18.682053 47.700478 0.639922 0.017362 -0.768244 0.672013 0.940626 1 43 1.000000
  43 -6.952437 -18.681320 47.358746 0.908045 0.018273 -0.418473 0.671968 0.928874 1 43 1.000000
  43 -6.953775 -18.596638 47.359543 0.908045 0.018279 -0.418473 0.674345 0.928874 1 43 1.000000
gun
  43 -7.138476 -17.889576 47.452438 -0.444968 0.001423 -0.895545 0.674276 0.910283 1 43 1.000000
  43 -6.963672 -17.970695 47.365456 -0.444981 0.001409 -0.895539 0.671968 0.928874 1 43 1.000000
  43 -7.137137 -17.974249 47.451637 -0.444961 0.001431 -0.895549 0.671980 0.910315 1 43 1.000000
gun
  43 -7.138476 -17.889576 47.452438 -0.444968 0.001423 -0.895545 0.674276 0.910283 1 43 1.000000
  43 -6.965010 -17.886021 47.366253 -0.444989 0.001401 -0.895535 0.674345 0.928874 1 43 1.000000
  43 -6.963672 -17.970695 47.365456 -0.444981 0.001409 -0.895539 0.671968 0.928874 1 43 1.000000
gun
  43 -6.965010 -17.886021 47.366253 0.908050 0.018304 -0.418462 0.674345 0.928874 1 43 1.000000
  43 -6.806168 -17.971428 47.707184 0.639808 0.017372 -0.768338 0.672013 0.940626 1 43 1.000000
  43 -6.963672 -17.970695 47.365456 0.908052 0.018300 -0.418458 0.671968 0.928874 1 43 1.000000
gun
  43 -6.965010 -17.886021 47.366253 0.908050 0.018304 -0.418462 0.674345 0.928874 1 43 1.000000
  43 -6.807507 -17.886757 47.707985 0.639809 0.017398 -0.768337 0.674246 0.940626 1 43 1.000000
  43 -6.806168 -17.971428 47.707184 0.639808 0.017372 -0.768338 0.672013 0.940626 1 43 1.000000
gun
  43 -6.952437 -18.681320 47.358746 -0.444974 0.001417 -0.895542 0.671968 0.928874 1 43 1.000000
  43 -7.127242 -18.600195 47.445732 -0.444988 0.001456 -0.895535 0.674276 0.910283 1 43 1.000000
  43 -6.953775 -18.596638 47.359543 -0.444967 0.001395 -0.895546 0.674345 0.928874 1 43 1.000000
gun
  43 -6.952437 -18.681320 47.358746 -0.444974 0.001417 -0.895542 0.671968 0.928874 1 43 1.000000
  43 -7.125903 -18.684875 47.444927 -0.444996 0.001478 -0.895531 0.671980 0.910315 1 43 1.000000
  43 -7.127242 -18.600195 47.445732 -0.444988 0.001456 -0.895535 0.674276 0.910283 1 43 1.000000
gun
  43 -6.508678 -18.760525 48.341339 0.906529 0.017848 -0.421766 0.700607 0.962500 1 43 1.000000
  43 -6.504784 -19.006828 48.339008 0.906473 0.018328 -0.421866 0.708803 0.962563 1 43 1.000000
  43 -6.511000 -19.017651 48.325176 0.906476 0.018327 -0.421859 0.708803 0.962563 1 43 1.000000
gun
  43 -6.511000 -19.017651 48.325176 0.906476 0.018327 -0.421859 0.708803 0.962563 1 43 1.000000
  43 -6.691895 -18.850365 47.943737 0.906601 0.015450 -0.421706 0.703236 0.949252 1 43 1.000000
  43 -6.508678 -18.760525 48.341339 0.906529 0.017848 -0.421766 0.700607 0.962500 1 43 1.000000
gun
  43 -6.697429 -18.759674 47.934978 0.906791 0.014631 -0.421326 0.700607 0.949234 1 43 1.000000
  43 -6.508678 -18.760525 48.341339 0.906529 0.017848 -0.421766 0.700607 0.962500 1 43 1.000000
  43 -6.691895 -18.850365 47.943737 0.906601 0.015450 -0.421706 0.703236 0.949252 1 43 1.000000
gun
  43 -6.696510 -18.834633 47.934391 0.905934 0.014441 -0.423173 0.703236 0.949252 1 43 1.000000
  43 -6.697429 -18.759674 47.934978 0.906791 0.014631 -0.421326 0.700607 0.949234 1 43 1.000000
  43 -6.691895 -18.850365 47.943737 0.906601 0.015450 -0.421706 0.703236 0.949252 1 43 1.000000
gun
  43 -7.145137 -18.202488 47.423698 0.015756 -0.999831 -0.009494 0.682039 0.928581 1 43 1.000000
  43 -6.960061 -18.198996 47.363297 0.015845 -0.999830 -0.009425 0.682763 0.910051 1 43 1.000000
  43 -7.133529 -18.202549 47.449482 0.015756 -0.999831 -0.009495 0.682922 0.928614 1 43 1.000000
gun
  43 -7.145137 -18.202488 47.423698 0.015756 -0.999831 -0.009494 0.682039 0.928581 1 43 1.000000
  43 -6.956978 -18.198746 47.341923 0.015812 -0.999830 -0.009443 0.682198 0.908919 1 43 1.000000
  43 -6.960061 -18.198996 47.363297 0.015845 -0.999830 -0.009425 0.682763 0.910051 1 43 1.000000
gun
  43 -6.956978 -18.198746 47.341923 0.015812 -0.999830 -0.009443 0.682198 0.908919 1 43 1.000000
  43 -6.802559 -18.199730 47.705032 0.015761 -0.999831 -0.009465 0.694515 0.910158 1 43 1.000000
  43 -6.960061 -18.198996 47.363297 0.015845 -0.999830 -0.009425 0.682763 0.910051 1 43 1.000000
gun
  43 -6.956978 -18.198746 47.341923 0.015812 -0.999830 -0.009443 0.682198 0.908919 1 43 1.000000
  43 -6.784992 -18.199493 47.709522 0.015759 -0.999831 -0.009466 0.694873 0.908812 1 43 1.000000
  43 -6.802559 -18.199730 47.705032 0.015761 -0.999831 -0.009465 0.694515 0.910158 1 43 1.000000
gun
  43 -6.948137 -18.757992 47.336639 -0.398614 0.002378 -0.917116 0.649638 0.928819 1 43 1.000000
  43 -7.137512 -18.684813 47.419144 -0.398614 0.002378 -0.917116 0.652146 0.909115 1 43 1.000000
  43 -6.949353 -18.681067 47.337368 -0.398614 0.002378 -0.917116 0.652139 0.928783 1 43 1.000000
gun
  43 -6.463246 -18.760178 48.380516 -0.542099 0.158807 -0.825172 0.649636 0.964752 1 43 1.000000
  43 -6.439669 -17.773098 48.351620 -0.297174 0.111428 -0.948299 0.681839 0.967907 1 43 1.000000
  43 -6.422227 -18.807673 48.344200 -0.553734 0.148258 -0.819389 0.648191 0.967851 1 43 1.000000
gun
  43 -6.463246 -18.760178 48.380516 -0.542099 0.158807 -0.825172 0.649636 0.964752 1 43 1.000000
  43 -6.490899 -17.810976 48.362255 -0.310456 0.155945 -0.937709 0.680442 0.964660 1 43 1.000000
  43 -6.439669 -17.773098 48.351620 -0.297174 0.111428 -0.948299 0.681839 0.967907 1 43 1.000000
gun
  43 -6.664369 -17.777632 48.455982 -0.408517 0.286402 -0.866653 0.690234 0.967874 1 43 1.000000
  43 -6.439669 -17.773098 48.351620 -0.297174 0.111428 -0.948299 0.681839 0.967907 1 43 1.000000
  43 -6.490899 -17.810976 48.362255 -0.310456 0.155945 -0.937709 0.680442 0.964660 1 43 1.000000
gun
  43 -6.490899 -17.810976 48.362255 -0.310456 0.155945 -0.937709 0.680442 0.964660 1 43 1.000000
  43 -6.864981 -17.818539 48.537094 -0.432200 0.062061 -0.899640 0.698337 0.964436 1 43 1.000000
  43 -6.664369 -17.777632 48.455982 -0.408517 0.286402 -0.866653 0.690234 0.967874 1 43 1.000000
gun
  43 -6.864981 -17.818539 48.537094 -0.432200 0.062061 -0.899640 0.698337 0.964436 1 43 1.000000
  43 -6.892651 -17.782124 48.552643 -0.427167 0.060599 -0.902140 0.698600 0.967918 1 43 1.000000
  43 -6.664369 -17.777632 48.455982 -0.408517 0.286402 -0.866653 0.690234 0.967874 1 43 1.000000
gun
  43 -7.150388 -17.812622 47.432575 -0.015806 0.999831 0.009439 0.689460 0.929021 1 43 1.000000
  43 -7.337640 -17.816406 47.519543 -0.015811 0.999831 0.009431 0.698381 0.928876 1 43 1.000000
  43 -7.086987 -17.817535 48.059151 -0.015806 0.999831 0.009439 0.698381 0.947428 1 43 1.000000
gun
  43 -6.713322 -17.809971 47.883411 -0.015806 0.999831 0.009439 0.680414 0.947465 1 43 1.000000
  43 -7.041614 -17.817184 48.098221 -0.015810 0.999831 0.009397 0.696013 0.949142 1 43 1.000000
  43 -6.712644 -17.810524 47.943501 -0.015772 0.999831 0.009453 0.682761 0.949253 1 43 1.000000
gun
  43 -6.490899 -17.810976 48.362255 -0.015708 0.999832 0.009464 0.680442 0.964660 1 43 1.000000
  43 -6.713322 -17.809971 47.883411 -0.015806 0.999831 0.009439 0.680414 0.947465 1 43 1.000000
  43 -6.712644 -17.810524 47.943501 -0.015772 0.999831 0.009453 0.682761 0.949253 1 43 1.000000
gun
  43 -6.490899 -17.810976 48.362255 -0.015708 0.999832 0.009464 0.680442 0.964660 1 43 1.000000
  43 -6.712644 -17.810524 47.943501 -0.015772 0.999831 0.009453 0.682761 0.949253 1 43 1.000000
  43 -6.536326 -17.811317 48.323078 -0.015634 0.999834 0.009384 0.682761 0.962717 1 43 1.000000
gun
  43 -6.490899 -17.810976 48.362255 -0.015708 0.999832 0.009464 0.680442 0.964660 1 43 1.000000
  43 -6.536326 -17.811317 48.323078 -0.015634 0.999834 0.009384 0.682761 0.962717 1 43 1.000000
  43 -6.865659 -17.817980 48.477013 -0.015844 0.999830 0.009440 0.696013 0.962661 1 43 1.000000
gun
  43 -6.490899 -17.810976 48.362255 -0.015708 0.999832 0.009464 0.680442 0.964660 1 43 1.000000
  43 -6.865659 -17.817980 48.477013 -0.015844 0.999830 0.009440 0.696013 0.962661 1 43 1.000000
  43 -6.864981 -17.818539 48.537094 -0.015814 0.999830 0.009440 0.698337 0.964436 1 43 1.000000
gun
  43 -7.086987 -17.817535 48.059151 -0.015806 0.999831 0.009439 0.698381 0.947428 1 43 1.000000
  43 -6.864981 -17.818539 48.537094 -0.015814 0.999830 0.009440 0.698337 0.964436 1 43 1.000000
  43 -6.865659 -17.817980 48.477013 -0.015844 0.999830 0.009440 0.696013 0.962661 1 43 1.000000
gun
  43 -7.086987 -17.817535 48.059151 -0.015806 0.999831 0.009439 0.698381 0.947428 1 43 1.000000
  43 -6.865659 -17.817980 48.477013 -0.015844 0.999830 0.009440 0.696013 0.962661 1 43 1.000000
  43 -7.041614 -17.817184 48.098221 -0.015810 0.999831 0.009397 0.696013 0.949142 1 43 1.000000
gun
  43 -6.713322 -17.809971 47.883411 -0.015806 0.999831 0.009439 0.680414 0.947465 1 43 1.000000
  43 -7.086987 -17.817535 48.059151 -0.015806 0.999831 0.009439 0.698381 0.947428 1 43 1.000000
  43 -7.041614 -17.817184 48.098221 -0.015810 0.999831 0.009397 0.696013 0.949142 1 43 1.000000
gun
  43 -7.150388 -17.812622 47.432575 -0.015806 0.999831 0.009439 0.689460 0.929021 1 43 1.000000
  43 -7.086987 -17.817535 48.059151 -0.015806 0.999831 0.009439 0.698381 0.947428 1 43 1.000000
  43 -6.713322 -17.809971 47.883411 -0.015806 0.999831 0.009439 0.680414 0.947465 1 43 1.000000
gun
  43 -6.713322 -17.809971 47.883411 -0.015806 0.999831 0.009439 0.680414 0.947465 1 43 1.000000
  43 -6.963142 -17.808838 47.345600 -0.011127 0.703664 0.710446 0.680419 0.928847 1 43 1.000000
  43 -7.150388 -17.812622 47.432575 -0.015806 0.999831 0.009439 0.689460 0.929021 1 43 1.000000
gun
  43 -6.963142 -17.808838 47.345600 0.000000 0.000000 1.000000 0.680419 0.928847 1 43 1.000000
  43 -7.150388 -17.812622 47.432575 -0.015806 0.999831 0.009439 0.689460 0.929021 1 43 1.000000
  43 -6.963142 -17.808838 47.345600 -0.011127 0.703664 0.710446 0.680419 0.928847 1 43 1.000000
gun
  43 -6.712644 -17.810524 47.943501 0.906931 0.014695 -0.421023 0.700607 0.949234 1 43 1.000000
  43 -6.713577 -17.734701 47.944084 0.908061 0.014397 -0.418590 0.703236 0.949252 1 43 1.000000
  43 -6.709388 -17.719019 47.953709 0.907140 0.015520 -0.420543 0.703236 0.949252 1 43 1.000000
gun
  43 -6.536326 -17.811317 48.323078 0.907089 0.017802 -0.420562 0.700607 0.962500 1 43 1.000000
  43 -6.712644 -17.810524 47.943501 0.906931 0.014695 -0.421023 0.700607 0.949234 1 43 1.000000
  43 -6.709388 -17.719019 47.953709 0.907140 0.015520 -0.420543 0.703236 0.949252 1 43 1.000000
gun
  43 -6.709388 -17.719019 47.953709 0.907140 0.015520 -0.420543 0.703236 0.949252 1 43 1.000000
  43 -6.544314 -17.554108 48.317036 0.907098 0.018298 -0.420522 0.708803 0.962563 1 43 1.000000
  43 -6.536326 -17.811317 48.323078 0.907089 0.017802 -0.420562 0.700607 0.962500 1 43 1.000000
gun
  43 -6.537772 -17.565014 48.330673 0.907054 0.018299 -0.420617 0.708803 0.962563 1 43 1.000000
  43 -6.536326 -17.811317 48.323078 0.907089 0.017802 -0.420562 0.700607 0.962500 1 43 1.000000
  43 -6.544314 -17.554108 48.317036 0.907098 0.018298 -0.420522 0.708803 0.962563 1 43 1.000000
gun
  43 -6.507606 -17.766853 48.793976 0.421348 -0.005595 0.906882 0.682080 0.985901 1 43 1.000000
  43 -6.732306 -17.771393 48.898338 0.421313 -0.005583 0.906898 0.682080 0.993650 1 43 1.000000
  43 -6.728077 -18.068054 48.894547 0.424938 0.003098 0.905217 0.672451 0.993650 1 43 1.000000
gun
  43 -6.282906 -17.762314 48.689610 0.419069 -0.001572 0.907953 0.681994 0.978869 1 43 1.000000
  43 -6.507606 -17.766853 48.793976 0.421348 -0.005595 0.906882 0.682080 0.985901 1 43 1.000000
  43 -6.728077 -18.068054 48.894547 0.424938 0.003098 0.905217 0.672451 0.993650 1 43 1.000000
gun
  43 -6.265457 -18.796890 48.682194 0.428011 -0.002595 0.903770 0.648493 0.978823 1 43 1.000000
  43 -6.282906 -17.762314 48.689610 0.419069 -0.001572 0.907953 0.681994 0.978869 1 43 1.000000
  43 -6.728077 -18.068054 48.894547 0.424938 0.003098 0.905217 0.672451 0.993650 1 43 1.000000
gun
  43 -6.728077 -18.068054 48.894547 0.424938 0.003098 0.905217 0.672451 0.993650 1 43 1.000000
  43 -6.716237 -18.509315 48.900852 0.440205 0.007351 0.897867 0.658130 0.993650 1 43 1.000000
  43 -6.265457 -18.796890 48.682194 0.428011 -0.002595 0.903770 0.648493 0.978823 1 43 1.000000
gun
  43 -6.490156 -18.801428 48.786556 0.421543 -0.028385 0.906364 0.648500 0.985901 1 43 1.000000
  43 -6.265457 -18.796890 48.682194 0.428011 -0.002595 0.903770 0.648493 0.978823 1 43 1.000000
  43 -6.716237 -18.509315 48.900852 0.440205 0.007351 0.897867 0.658130 0.993650 1 43 1.000000
gun
  43 -6.716237 -18.509315 48.900852 0.440205 0.007351 0.897867 0.658130 0.993650 1 43 1.000000
  43 -6.714858 -18.805962 48.890923 0.421543 -0.028380 0.906364 0.648500 0.993650 1 43 1.000000
  43 -6.490156 -18.801428 48.786556 0.421543 -0.028385 0.906364 0.648500 0.985901 1 43 1.000000
gun
  43 -6.463246 -18.760178 48.380516 -0.542099 0.158807 -0.825172 0.698337 0.964436 1 43 1.000000
  43 -6.422227 -18.807673 48.344200 -0.553734 0.148258 -0.819389 0.698600 0.967918 1 43 1.000000
  43 -6.646927 -18.812210 48.448570 -0.411326 0.342988 -0.844494 0.690234 0.967874 1 43 1.000000
gun
  43 -6.835640 -18.767746 48.558998 -0.171667 0.150409 -0.973606 0.680442 0.964660 1 43 1.000000
  43 -6.463246 -18.760178 48.380516 -0.542099 0.158807 -0.825172 0.698337 0.964436 1 43 1.000000
  43 -6.646927 -18.812210 48.448570 -0.411326 0.342988 -0.844494 0.690234 0.967874 1 43 1.000000
gun
  43 -6.646927 -18.812210 48.448570 -0.411326 0.342988 -0.844494 0.690234 0.967874 1 43 1.000000
  43 -6.869495 -18.816601 48.557526 -0.269122 0.205476 -0.940932 0.681839 0.967907 1 43 1.000000
  43 -6.835640 -18.767746 48.558998 -0.171667 0.150409 -0.973606 0.680442 0.964660 1 43 1.000000
gun
  43 -6.714858 -18.805962 48.890923 -0.906797 -0.018309 0.421170 0.648493 0.978823 1 43 1.000000
  43 -6.873001 -18.520092 48.562866 -0.906799 -0.018310 0.421165 0.657810 0.967868 1 43 1.000000
  43 -6.869495 -18.816601 48.557526 -0.906795 -0.018308 0.421175 0.648191 0.967851 1 43 1.000000
gun
  43 -6.714858 -18.805962 48.890923 -0.906797 -0.018309 0.421170 0.648493 0.978823 1 43 1.000000
  43 -6.716237 -18.509315 48.900852 -0.906797 -0.018310 0.421169 0.658116 0.978866 1 43 1.000000
  43 -6.873001 -18.520092 48.562866 -0.906799 -0.018310 0.421165 0.657810 0.967868 1 43 1.000000
gun
  43 -6.716237 -18.509315 48.900852 -0.906797 -0.018310 0.421169 0.658116 0.978866 1 43 1.000000
  43 -6.889997 -18.078815 48.545460 -0.906797 -0.018311 0.421170 0.672158 0.967868 1 43 1.000000
  43 -6.873001 -18.520092 48.562866 -0.906799 -0.018310 0.421165 0.657810 0.967868 1 43 1.000000
gun
  43 -6.716237 -18.509315 48.900852 -0.906797 -0.018310 0.421169 0.658116 0.978866 1 43 1.000000
  43 -6.728077 -18.068054 48.894547 -0.906792 -0.018314 0.421180 0.672437 0.978875 1 43 1.000000
  43 -6.889997 -18.078815 48.545460 -0.906797 -0.018311 0.421170 0.672158 0.967868 1 43 1.000000
gun
  43 -6.732306 -17.771393 48.898338 -0.906797 -0.018312 0.421169 0.681994 0.978869 1 43 1.000000
  43 -6.889997 -18.078815 48.545460 -0.906797 -0.018311 0.421170 0.672158 0.967868 1 43 1.000000
  43 -6.728077 -18.068054 48.894547 -0.906792 -0.018314 0.421180 0.672437 0.978875 1 43 1.000000
gun
  43 -6.732306 -17.771393 48.898338 -0.906797 -0.018312 0.421169 0.681994 0.978869 1 43 1.000000
  43 -6.892651 -17.782124 48.552643 -0.906803 -0.018307 0.421157 0.681839 0.967907 1 43 1.000000
  43 -6.889997 -18.078815 48.545460 -0.906797 -0.018311 0.421170 0.672158 0.967868 1 43 1.000000
gun
  43 -6.832630 -19.013496 48.496143 -0.906528 -0.018313 0.421748 0.708803 0.962563 1 43 1.000000
  43 -6.836524 -18.767193 48.498466 -0.906524 -0.017839 0.421777 0.700607 0.962500 1 43 1.000000
  43 -6.838843 -19.024294 48.482323 -0.906496 -0.018314 0.421817 0.708803 0.962563 1 43 1.000000
gun
  43 -7.017874 -18.857929 48.104858 -0.906616 -0.015519 0.421671 0.703236 0.949252 1 43 1.000000
  43 -6.838843 -19.024294 48.482323 -0.906496 -0.018314 0.421817 0.708803 0.962563 1 43 1.000000
  43 -6.836524 -18.767193 48.498466 -0.906524 -0.017839 0.421777 0.700607 0.962500 1 43 1.000000
gun
  43 -6.836524 -18.767193 48.498466 -0.906524 -0.017839 0.421777 0.700607 0.962500 1 43 1.000000
  43 -7.023421 -18.766350 48.096119 -0.906784 -0.014712 0.421338 0.700607 0.949234 1 43 1.000000
  43 -7.017874 -18.857929 48.104858 -0.906616 -0.015519 0.421671 0.703236 0.949252 1 43 1.000000
gun
  43 -7.023421 -18.766350 48.096119 -0.906784 -0.014712 0.421338 0.700607 0.949234 1 43 1.000000
  43 -7.022482 -18.842184 48.095524 -0.906091 -0.014532 0.422834 0.703236 0.949252 1 43 1.000000
  43 -7.017874 -18.857929 48.104858 -0.906616 -0.015519 0.421671 0.703236 0.949252 1 43 1.000000
gun
  43 -7.023421 -18.766350 48.096119 -0.443166 0.001560 -0.896438 0.708930 0.948743 1 43 1.000000
  43 -6.697429 -18.759674 47.934978 -0.443136 0.001585 -0.896453 0.720962 0.948743 1 43 1.000000
  43 -6.696510 -18.834633 47.934391 -0.419354 -0.285398 -0.861795 0.720952 0.949579 1 43 1.000000
gun
  43 -7.023421 -18.766350 48.096119 -0.443166 0.001560 -0.896438 0.708930 0.948743 1 43 1.000000
  43 -6.696510 -18.834633 47.934391 -0.419354 -0.285398 -0.861795 0.720952 0.949579 1 43 1.000000
  43 -7.022482 -18.842184 48.095524 -0.418753 -0.289369 -0.860762 0.708931 0.949589 1 43 1.000000
gun
  43 -6.691895 -18.850365 47.943737 -0.265772 -0.773727 -0.575076 0.720965 0.949777 1 43 1.000000
  43 -7.022482 -18.842184 48.095524 -0.418753 -0.289369 -0.860762 0.708931 0.949589 1 43 1.000000
  43 -6.696510 -18.834633 47.934391 -0.419354 -0.285398 -0.861795 0.720952 0.949579 1 43 1.000000
gun
  43 -6.691895 -18.850365 47.943737 -0.265772 -0.773727 -0.575076 0.720965 0.949777 1 43 1.000000
  43 -7.017874 -18.857929 48.104858 -0.263612 -0.778292 -0.569886 0.708927 0.949737 1 43 1.000000
  43 -7.022482 -18.842184 48.095524 -0.418753 -0.289369 -0.860762 0.708931 0.949589 1 43 1.000000
gun
  43 -6.838843 -19.024294 48.482323 0.069481 -0.992136 0.104108 0.708803 0.962563 1 43 1.000000
  43 -7.017874 -18.857929 48.104858 -0.263612 -0.778292 -0.569886 0.708927 0.949737 1 43 1.000000
  43 -6.691895 -18.850365 47.943737 -0.265772 -0.773727 -0.575076 0.720965 0.949777 1 43 1.000000
gun
  43 -6.838843 -19.024294 48.482323 0.069481 -0.992136 0.104108 0.708803 0.962563 1 43 1.000000
  43 -6.691895 -18.850365 47.943737 -0.265772 -0.773727 -0.575076 0.720965 0.949777 1 43 1.000000
  43 -6.511000 -19.017651 48.325176 0.067255 -0.992882 0.098294 0.720999 0.962605 1 43 1.000000
gun
  43 -6.712644 -17.810524 47.943501 -0.425633 0.001736 -0.904894 0.708930 0.948743 1 43 1.000000
  43 -7.041614 -17.817184 48.098221 -0.425612 0.001782 -0.904904 0.720962 0.948743 1 43 1.000000
  43 -7.042531 -17.742247 48.098801 -0.412779 0.289783 -0.863504 0.720952 0.949579 1 43 1.000000
gun
  43 -6.712644 -17.810524 47.943501 -0.425633 0.001736 -0.904894 0.708930 0.948743 1 43 1.000000
  43 -7.042531 -17.742247 48.098801 -0.412779 0.289783 -0.863504 0.720952 0.949579 1 43 1.000000
  43 -6.713577 -17.734701 47.944084 -0.412492 0.291956 -0.862909 0.708931 0.949589 1 43 1.000000
gun
  43 -7.038344 -17.726526 48.108410 -0.284017 0.772528 -0.567922 0.720965 0.949777 1 43 1.000000
  43 -6.713577 -17.734701 47.944084 -0.412492 0.291956 -0.862909 0.708931 0.949589 1 43 1.000000
  43 -7.042531 -17.742247 48.098801 -0.412779 0.289783 -0.863504 0.720952 0.949579 1 43 1.000000
gun
  43 -7.038344 -17.726526 48.108410 -0.284017 0.772528 -0.567922 0.720965 0.949777 1 43 1.000000
  43 -6.709388 -17.719019 47.953709 -0.284332 0.773016 -0.567099 0.708927 0.949737 1 43 1.000000
  43 -6.713577 -17.734701 47.944084 -0.412492 0.291956 -0.862909 0.708931 0.949589 1 43 1.000000
end
