// Created by Crowbar 0.74
version 1
nodes
  0 "Bip01" -1
  1 "Bip01 Pelvis" 0
  2 "Bip01 Spine" 1
  3 "Bip01 Neck" 2
  4 "Bip01 L Clavicle" 3
  5 "Bip01 L UpperArm" 4
  6 "Bip01 L Forearm" 5
  7 "Bip01 L Hand" 6
  8 "Bip01 L Finger0" 7
  9 "Bip01 L Finger01" 8
  10 "Bip01 L Finger02" 9
  11 "Bip01 L Finger1" 7
  12 "Bip01 L Finger11" 11
  13 "Bip01 L Finger12" 12
  14 "Bip01 L Finger2" 7
  15 "Bip01 L Finger21" 14
  16 "Bip01 L Finger22" 15
  17 "Bip01 L Finger3" 7
  18 "Bip01 L Finger31" 17
  19 "Bip01 L Finger32" 18
  20 "Bip01 L Finger4" 7
  21 "Bip01 L Finger41" 20
  22 "Bip01 L Finger42" 21
  23 "Bip01 R Clavicle" 3
  24 "Bip01 R UpperArm" 23
  25 "Bip01 R Forearm" 24
  26 "Bip01 R Hand" 25
  27 "Dummy16" 26
  28 "Dummy17" 27
  29 "Dummy14" 27
  30 "muzzle" 27
end
skeleton
  time 0
    0 -9.038578 -20.591611 -35.263554 0.000000 0.000000 -1.570795
    1 0.000001 0.000000 0.000000 -0.000086 -1.570451 -1.570709
    2 4.443614 -0.009643 0.000006 -0.000004 -0.000001 0.000796
    3 12.111414 -0.011447 0.000000 0.000000 0.000000 0.000000
    4 0.000007 0.011443 1.352404 0.971004 -1.226034 2.198349
    5 6.078085 0.000000 0.000003 -0.304683 0.312995 -0.864062
    6 13.446743 0.000002 -0.000002 0.000000 0.000000 -1.309086
    7 15.997002 0.000006 -0.000003 -0.882507 -0.412840 0.510683
    8 1.885328 0.833278 -2.177875 -1.269183 0.640222 0.521791
    9 1.506966 -0.000004 -0.000003 0.000000 0.000000 -0.696369
    10 0.798340 -0.000001 0.000001 0.000000 0.000000 -0.670190
    11 3.950303 -0.539877 -2.108872 0.083518 0.133195 0.567490
    12 1.545798 -0.000006 0.000002 0.000000 0.000000 1.333406
    13 1.667400 0.000001 -0.000004 0.000000 0.000000 1.298525
    14 3.899461 -0.475373 -1.170889 -0.000676 0.000419 0.561979
    15 1.528213 0.000000 -0.000001 0.000000 0.000000 1.193805
    16 1.528214 -0.000001 -0.000003 0.000000 0.000000 1.342132
    17 3.899463 -0.431803 0.168225 -0.000676 0.000419 0.561979
    18 1.506961 -0.000002 0.000002 0.000000 0.000000 1.289772
    19 1.506963 0.000001 -0.000002 0.000000 0.000000 1.202506
    20 3.915634 -0.278020 1.402610 -0.000676 0.000419 0.561979
    21 1.333083 -0.000002 0.000001 0.000000 0.000000 1.499212
    22 1.159203 -0.000001 -0.000001 0.000000 0.000000 1.080333
    23 0.000008 0.011451 -1.352403 0.859719 1.269648 3.977659
    24 6.078087 -0.000001 0.000004 1.247399 -0.404171 -1.659491
    25 13.446754 0.000001 0.000001 0.000000 0.000000 -0.608344
    26 15.996998 0.000001 -0.000001 1.686550 -0.003236 0.153437
    27 -9.849934 -2.629987 3.992560 1.582244 -0.018583 -3.126154
    28 1.895213 2.808690 0.074532 0.000000 0.000000 0.000000
    29 -7.410141 -0.113609 -0.123965 0.000000 0.000000 0.000000
    30 -43.188030 1.691161 -0.053445 0.000000 0.000000 0.000000
  time 1
    0 -9.038578 -20.591611 -35.263554 0.000000 0.000000 -1.570795
    1 0.000001 0.000000 0.000000 -0.000086 -1.570451 -1.570709
    2 4.443614 -0.009643 0.000006 -0.000004 -0.000001 0.000796
    3 12.111414 -0.011447 0.000000 0.000000 0.000000 0.000000
    4 0.000007 0.011443 1.352404 0.971004 -1.226034 2.198349
    5 6.078085 0.000000 0.000003 -0.254126 0.357637 -0.755578
    6 13.446743 0.000002 -0.000002 0.000000 0.000000 -1.504532
    7 15.997002 0.000006 -0.000003 -0.873475 -0.452686 0.586693
    8 1.885328 0.833278 -2.177875 -1.269183 0.640222 0.521791
    9 1.506966 -0.000004 -0.000003 0.000000 0.000000 -0.696369
    10 0.798340 -0.000001 0.000001 0.000000 0.000000 -0.670190
    11 3.950303 -0.539877 -2.108872 0.083518 0.133195 0.567490
    12 1.545798 -0.000006 0.000002 0.000000 0.000000 1.333406
    13 1.667400 0.000001 -0.000004 0.000000 0.000000 1.298499
    14 3.899461 -0.475373 -1.170889 -0.000676 0.000419 0.561979
    15 1.528213 0.000000 -0.000001 0.000000 0.000000 1.193805
    16 1.528214 -0.000001 -0.000003 0.000000 0.000000 1.342132
    17 3.899463 -0.431803 0.168225 -0.000676 0.000419 0.561979
    18 1.506961 -0.000002 0.000002 0.000000 0.000000 1.289772
    19 1.506963 0.000001 -0.000002 0.000000 0.000000 1.202506
    20 3.915634 -0.278020 1.402610 -0.000676 0.000419 0.561979
    21 1.333083 -0.000002 0.000001 0.000000 0.000000 1.499238
    22 1.159203 -0.000001 -0.000001 0.000000 0.000000 1.080333
    23 0.000008 0.011451 -1.352403 1.039252 1.190359 4.147042
    24 6.078087 -0.000001 0.000004 1.225934 -0.556266 -1.708780
    25 13.446754 0.000001 0.000001 0.000000 0.000000 -0.844216
    26 15.996998 0.000001 -0.000001 1.687593 -0.005848 0.229673
    27 -9.849934 -2.629987 3.992560 1.582244 -0.018583 -3.126154
    28 1.895213 2.808690 0.074532 0.000000 0.000000 0.000000
    29 -7.410141 -0.113609 -0.123965 0.000000 0.000000 0.000000
    30 -43.188030 1.691161 -0.053445 0.000000 0.000000 0.000000
  time 2
    0 -9.038578 -20.591611 -35.263554 0.000000 0.000000 -1.570795
    1 0.000001 0.000000 0.000000 -0.000086 -1.570451 -1.570709
    2 4.443614 -0.009643 0.000006 -0.000004 -0.000001 0.000796
    3 12.111414 -0.011447 0.000000 0.000000 0.000000 0.000000
    4 0.000007 0.011443 1.352404 0.971004 -1.226034 2.198349
    5 6.078085 0.000000 0.000003 -0.196829 0.394024 -0.643458
    6 13.446743 0.000002 -0.000002 0.000000 0.000000 -1.707742
    7 15.997002 0.000006 -0.000003 -0.874320 -0.490027 0.670496
    8 1.885328 0.833278 -2.177875 -1.269183 0.640222 0.521791
    9 1.506966 -0.000004 -0.000003 0.000000 0.000000 -0.696369
    10 0.798340 -0.000001 0.000001 0.000000 0.000000 -0.670190
    11 3.950303 -0.539877 -2.108872 0.083518 0.133195 0.567490
    12 1.545798 -0.000006 0.000002 0.000000 0.000000 1.333406
    13 1.667400 0.000001 -0.000004 0.000000 0.000000 1.298525
    14 3.899461 -0.475373 -1.170889 -0.000676 0.000419 0.561979
    15 1.528213 0.000000 -0.000001 0.000000 0.000000 1.193779
    16 1.528214 -0.000001 -0.000003 0.000000 0.000000 1.342158
    17 3.899463 -0.431803 0.168225 -0.000676 0.000419 0.561979
    18 1.506961 -0.000002 0.000002 0.000000 0.000000 1.289772
    19 1.506963 0.000001 -0.000002 0.000000 0.000000 1.202506
    20 3.915634 -0.278020 1.402610 -0.000676 0.000419 0.561979
    21 1.333083 -0.000002 0.000001 0.000000 0.000000 1.499212
    22 1.159203 -0.000001 -0.000001 0.000000 0.000000 1.080333
    23 0.000008 0.011451 -1.352403 1.177702 1.084063 4.272924
    24 6.078087 -0.000001 0.000004 1.200167 -0.695084 -1.774405
    25 13.446754 0.000001 0.000001 0.000000 0.000000 -1.064314
    26 15.996998 0.000001 -0.000001 1.679144 -0.009959 0.307972
    27 -9.849934 -2.629987 3.992560 1.582244 -0.018583 -3.126154
    28 1.895213 2.808690 0.074532 0.000000 0.000000 0.000000
    29 -7.410141 -0.113609 -0.123965 0.000000 0.000000 0.000000
    30 -43.188030 1.691161 -0.053445 0.000000 0.000000 0.000000
  time 3
    0 -9.038578 -20.591611 -35.263554 0.000000 0.000000 -1.570795
    1 0.000001 0.000000 0.000000 -0.000086 -1.570451 -1.570709
    2 4.443614 -0.009643 0.000006 -0.000004 -0.000001 0.000796
    3 12.111414 -0.011447 0.000000 0.000000 0.000000 0.000000
    4 0.000007 0.011443 1.352404 0.971004 -1.226034 2.198349
    5 6.078085 0.000000 0.000003 -0.130946 0.420026 -0.509881
    6 13.446743 0.000002 -0.000002 0.000000 0.000000 -1.955642
    7 15.997002 0.000006 -0.000003 -0.917890 -0.517286 0.777549
    8 1.885328 0.833278 -2.177875 -1.269183 0.640222 0.521791
    9 1.506966 -0.000004 -0.000003 0.000000 0.000000 -0.696369
    10 0.798340 -0.000001 0.000001 0.000000 0.000000 -0.670190
    11 3.950303 -0.539877 -2.108872 0.083518 0.133195 0.567490
    12 1.545798 -0.000006 0.000002 0.000000 0.000000 1.333406
    13 1.667400 0.000001 -0.000004 0.000000 0.000000 1.298525
    14 3.899461 -0.475373 -1.170889 -0.000676 0.000419 0.561979
    15 1.528213 0.000000 -0.000001 0.000000 0.000000 1.193805
    16 1.528214 -0.000001 -0.000003 0.000000 0.000000 1.342132
    17 3.899463 -0.431803 0.168225 -0.000676 0.000419 0.561979
    18 1.506961 -0.000002 0.000002 0.000000 0.000000 1.289772
    19 1.506963 0.000001 -0.000002 0.000000 0.000000 1.202506
    20 3.915634 -0.278020 1.402610 -0.000676 0.000419 0.561979
    21 1.333083 -0.000002 0.000001 0.000000 0.000000 1.499212
    22 1.159203 -0.000001 -0.000001 0.000000 0.000000 1.080333
    23 0.000008 0.011451 -1.352403 1.336289 0.853414 4.404582
    24 6.078087 -0.000001 0.000004 1.182526 -0.830498 -1.953252
    25 13.446754 0.000001 0.000001 0.000000 0.000000 -1.290397
    26 15.996998 0.000001 -0.000001 1.632811 -0.017833 0.416727
    27 -9.849934 -2.629987 3.992560 1.582244 -0.018583 -3.126154
    28 1.895213 2.808690 0.074532 0.000000 0.000000 0.000000
    29 -7.410141 -0.113609 -0.123965 0.000000 0.000000 0.000000
    30 -43.188030 1.691161 -0.053445 0.000000 0.000000 0.000000
  time 4
    0 -9.038578 -20.591611 -35.263554 0.000000 0.000000 -1.570795
    1 0.000001 0.000000 0.000000 -0.000086 -1.570451 -1.570709
    2 4.443614 -0.009643 0.000006 -0.000004 -0.000001 0.000796
    3 12.111414 -0.011447 0.000000 0.000000 0.000000 0.000000
    4 0.000007 0.011443 1.352404 0.971004 -1.226034 2.198349
    5 6.078085 0.000000 0.000003 -0.107140 0.424311 -0.445244
    6 13.446743 0.000002 -0.000002 0.000000 0.000000 -2.072286
    7 15.997002 0.000006 -0.000003 -0.956368 -0.518433 0.823598
    8 1.885328 0.833278 -2.177875 -1.269183 0.640222 0.521791
    9 1.506966 -0.000004 -0.000003 0.000000 0.000000 -0.696369
    10 0.798340 -0.000001 0.000001 0.000000 0.000000 -0.670190
    11 3.950303 -0.539877 -2.108872 0.083518 0.133195 0.567490
    12 1.545798 -0.000006 0.000002 0.000000 0.000000 1.333406
    13 1.667400 0.000001 -0.000004 0.000000 0.000000 1.298525
    14 3.899461 -0.475373 -1.170889 -0.000676 0.000419 0.561979
    15 1.528213 0.000000 -0.000001 0.000000 0.000000 1.193805
    16 1.528214 -0.000001 -0.000003 0.000000 0.000000 1.342132
    17 3.899463 -0.431803 0.168225 -0.000676 0.000419 0.561979
    18 1.506961 -0.000002 0.000002 0.000000 0.000000 1.289772
    19 1.506963 0.000001 -0.000002 0.000000 0.000000 1.202506
    20 3.915634 -0.278020 1.402610 -0.000676 0.000419 0.561979
    21 1.333083 -0.000002 0.000001 0.000000 0.000000 1.499212
    22 1.159203 -0.000001 -0.000001 0.000000 0.000000 1.080333
    23 0.000008 0.011451 -1.352403 1.394998 0.711867 4.446052
    24 6.078087 -0.000001 0.000004 1.184096 -0.883175 -2.071827
    25 13.446754 0.000001 0.000001 0.000000 0.000000 -1.394380
    26 15.996998 0.000001 -0.000001 1.595731 -0.020278 0.479542
    27 -9.849934 -2.629987 3.992560 1.582244 -0.018583 -3.126154
    28 1.895213 2.808690 0.074532 0.000000 0.000000 0.000000
    29 -7.410141 -0.113609 -0.123965 0.000000 0.000000 0.000000
    30 -43.188030 1.691161 -0.053445 0.000000 0.000000 0.000000
  time 5
    0 -9.038578 -20.591611 -35.263554 0.000000 0.000000 -1.570795
    1 0.000001 0.000000 0.000000 -0.000086 -1.570451 -1.570709
    2 4.443614 -0.009643 0.000006 -0.000004 -0.000001 0.000796
    3 12.111414 -0.011447 0.000000 0.000000 0.000000 0.000000
    4 0.000007 0.011443 1.352404 0.971004 -1.226034 2.198349
    5 6.078085 0.000000 0.000003 -0.169937 0.400658 -0.551859
    6 13.446743 0.000002 -0.000002 0.000000 0.000000 -1.922568
    7 15.997002 0.000006 -0.000003 -0.945572 -0.495844 0.777750
    8 1.885328 0.833278 -2.177875 -1.269183 0.640222 0.521791
    9 1.506966 -0.000004 -0.000003 0.000000 0.000000 -0.696369
    10 0.798340 -0.000001 0.000001 0.000000 0.000000 -0.670190
    11 3.950303 -0.539877 -2.108872 0.083518 0.133195 0.567490
    12 1.545798 -0.000006 0.000002 0.000000 0.000000 1.333406
    13 1.667400 0.000001 -0.000004 0.000000 0.000000 1.298525
    14 3.899461 -0.475373 -1.170889 -0.000676 0.000419 0.561979
    15 1.528213 0.000000 -0.000001 0.000000 0.000000 1.193805
    16 1.528214 -0.000001 -0.000003 0.000000 0.000000 1.342158
    17 3.899463 -0.431803 0.168225 -0.000676 0.000419 0.561979
    18 1.506961 -0.000002 0.000002 0.000000 0.000000 1.289772
    19 1.506963 0.000001 -0.000002 0.000000 0.000000 1.202532
    20 3.915634 -0.278020 1.402610 -0.000676 0.000419 0.561979
    21 1.333083 -0.000002 0.000001 0.000000 0.000000 1.499238
    22 1.159203 -0.000001 -0.000001 0.000000 0.000000 1.080359
    23 0.000008 0.011451 -1.352403 1.341696 0.842032 4.408645
    24 6.078087 -0.000001 0.000004 1.204302 -0.780942 -1.982607
    25 13.446754 0.000001 0.000001 0.000000 0.000000 -1.253431
    26 15.996998 0.000001 -0.000001 1.606697 -0.018121 0.425962
    27 -9.849934 -2.629987 3.992560 1.582244 -0.018583 -3.126154
    28 1.895213 2.808690 0.074532 0.000000 0.000000 0.000000
    29 -7.410141 -0.113609 -0.123965 0.000000 0.000000 0.000000
    30 -43.188030 1.691161 -0.053445 0.000000 0.000000 0.000000
  time 6
    0 -9.038578 -20.591611 -35.263554 0.000000 0.000000 -1.570795
    1 0.000001 0.000000 0.000000 -0.000086 -1.570451 -1.570709
    2 4.443614 -0.009643 0.000006 -0.000004 -0.000001 0.000796
    3 12.111414 -0.011447 0.000000 0.000000 0.000000 0.000000
    4 0.000007 0.011443 1.352404 0.971004 -1.226034 2.198349
    5 6.078085 0.000000 0.000003 -0.251217 0.354127 -0.703656
    6 13.446743 0.000002 -0.000002 0.000000 0.000000 -1.664215
    7 15.997002 0.000006 -0.000003 -0.919450 -0.461621 0.676478
    8 1.885328 0.833278 -2.177875 -1.269183 0.640222 0.521791
    9 1.506966 -0.000004 -0.000003 0.000000 0.000000 -0.696369
    10 0.798340 -0.000001 0.000001 0.000000 0.000000 -0.670190
    11 3.950303 -0.539877 -2.108872 0.083518 0.133195 0.567490
    12 1.545798 -0.000006 0.000002 0.000000 0.000000 1.333406
    13 1.667400 0.000001 -0.000004 0.000000 0.000000 1.298525
    14 3.899461 -0.475373 -1.170889 -0.000676 0.000419 0.561979
    15 1.528213 0.000000 -0.000001 0.000000 0.000000 1.193779
    16 1.528214 -0.000001 -0.000003 0.000000 0.000000 1.342132
    17 3.899463 -0.431803 0.168225 -0.000676 0.000419 0.561979
    18 1.506961 -0.000002 0.000002 0.000000 0.000000 1.289772
    19 1.506963 0.000001 -0.000002 0.000000 0.000000 1.202506
    20 3.915634 -0.278020 1.402610 -0.000676 0.000419 0.561979
    21 1.333083 -0.000002 0.000001 0.000000 0.000000 1.499212
    22 1.159203 -0.000001 -0.000001 0.000000 0.000000 1.080333
    23 0.000008 0.011451 -1.352403 1.191453 1.069926 4.285034
    24 6.078087 -0.000001 0.000004 1.224832 -0.615058 -1.809390
    25 13.446754 0.000001 0.000001 0.000000 0.000000 -1.017964
    26 15.996998 0.000001 -0.000001 1.634393 -0.012668 0.329544
    27 -9.849934 -2.629987 3.992560 1.582244 -0.018583 -3.126154
    28 1.895213 2.808690 0.074532 0.000000 0.000000 0.000000
    29 -7.410141 -0.113609 -0.123965 0.000000 0.000000 0.000000
    30 -43.188030 1.691161 -0.053445 0.000000 0.000000 0.000000
  time 7
    0 -9.038578 -20.591611 -35.263554 0.000000 0.000000 -1.570795
    1 0.000001 0.000000 0.000000 -0.000086 -1.570451 -1.570709
    2 4.443614 -0.009643 0.000006 -0.000004 -0.000001 0.000796
    3 12.111414 -0.011447 0.000000 0.000000 0.000000 0.000000
    4 0.000007 0.011443 1.352404 0.971004 -1.226034 2.198349
    5 6.078085 0.000000 0.000003 -0.306599 0.306821 -0.826855
    6 13.446743 0.000002 -0.000002 0.000000 0.000000 -1.420289
    7 15.997002 0.000006 -0.000003 -0.899315 -0.426962 0.570380
    8 1.885328 0.833278 -2.177875 -1.269183 0.640222 0.521791
    9 1.506966 -0.000004 -0.000003 0.000000 0.000000 -0.696369
    10 0.798340 -0.000001 0.000001 0.000000 0.000000 -0.670190
    11 3.950303 -0.539877 -2.108872 0.083518 0.133195 0.567490
    12 1.545798 -0.000006 0.000002 0.000000 0.000000 1.333406
    13 1.667400 0.000001 -0.000004 0.000000 0.000000 1.298499
    14 3.899461 -0.475373 -1.170889 -0.000676 0.000419 0.561979
    15 1.528213 0.000000 -0.000001 0.000000 0.000000 1.193805
    16 1.528214 -0.000001 -0.000003 0.000000 0.000000 1.342132
    17 3.899463 -0.431803 0.168225 -0.000676 0.000419 0.561979
    18 1.506961 -0.000002 0.000002 0.000000 0.000000 1.289772
    19 1.506963 0.000001 -0.000002 0.000000 0.000000 1.202506
    20 3.915634 -0.278020 1.402610 -0.000676 0.000419 0.561979
    21 1.333083 -0.000002 0.000001 0.000000 0.000000 1.499212
    22 1.159203 -0.000001 -0.000001 0.000000 0.000000 1.080333
    23 0.000008 0.011451 -1.352403 0.845457 1.274233 3.964035
    24 6.078087 -0.000001 0.000004 1.236229 -0.475703 -1.620357
    25 13.446754 0.000001 0.000001 0.000000 0.000000 -0.825611
    26 15.996998 0.000001 -0.000001 1.660819 -0.006592 0.254524
    27 -9.849934 -2.629987 3.992560 1.582244 -0.018583 -3.126154
    28 1.895213 2.808690 0.074532 0.000000 0.000000 0.000000
    29 -7.410141 -0.113609 -0.123965 0.000000 0.000000 0.000000
    30 -43.188030 1.691161 -0.053445 0.000000 0.000000 0.000000
  time 8
    0 -9.038578 -20.591611 -35.263554 0.000000 0.000000 -1.570795
    1 0.000001 0.000000 0.000000 -0.000086 -1.570451 -1.570709
    2 4.443614 -0.009643 0.000006 -0.000004 -0.000001 0.000796
    3 12.111414 -0.011447 0.000000 0.000000 0.000000 0.000000
    4 0.000007 0.011443 1.352404 0.971004 -1.226034 2.198349
    5 6.078085 0.000000 0.000003 -0.335904 0.273969 -0.922858
    6 13.446743 0.000002 -0.000002 0.000000 0.000000 -1.210965
    7 15.997002 0.000006 -0.000003 -0.886088 -0.389120 0.479942
    8 1.885328 0.833278 -2.177875 -1.269183 0.640222 0.521791
    9 1.506966 -0.000004 -0.000003 0.000000 0.000000 -0.696369
    10 0.798340 -0.000001 0.000001 0.000000 0.000000 -0.670190
    11 3.950303 -0.539877 -2.108872 0.083518 0.133195 0.567490
    12 1.545798 -0.000006 0.000002 0.000000 0.000000 1.333406
    13 1.667400 0.000001 -0.000004 0.000000 0.000000 1.298525
    14 3.899461 -0.475373 -1.170889 -0.000676 0.000419 0.561979
    15 1.528213 0.000000 -0.000001 0.000000 0.000000 1.193805
    16 1.528214 -0.000001 -0.000003 0.000000 0.000000 1.342132
    17 3.899463 -0.431803 0.168225 -0.000676 0.000419 0.561979
    18 1.506961 -0.000002 0.000002 0.000000 0.000000 1.289772
    19 1.506963 0.000001 -0.000002 0.000000 0.000000 1.202506
    20 3.915634 -0.278020 1.402610 -0.000676 0.000419 0.561979
    21 1.333083 -0.000002 0.000001 0.000000 0.000000 1.499212
    22 1.159203 -0.000001 -0.000001 0.000000 0.000000 1.080333
    23 0.000008 0.011451 -1.352403 -0.106150 1.369710 3.036771
    24 6.078087 -0.000001 0.000004 1.243084 -0.402662 -1.399870
    25 13.446754 0.000001 0.000001 0.000000 0.000000 -0.736270
    26 15.996998 0.000001 -0.000001 1.686119 -0.003727 0.231253
    27 -9.849934 -2.629987 3.992560 1.582244 -0.018583 -3.126154
    28 1.895213 2.808690 0.074532 0.000000 0.000000 0.000000
    29 -7.410141 -0.113609 -0.123965 0.000000 0.000000 0.000000
    30 -43.188030 1.691161 -0.053445 0.000000 0.000000 0.000000
  time 9
    0 -9.038578 -20.591611 -35.263554 0.000000 0.000000 -1.570795
    1 0.000001 0.000000 0.000000 -0.000086 -1.570451 -1.570709
    2 4.443614 -0.009643 0.000006 -0.000004 -0.000001 0.000796
    3 12.111414 -0.011447 0.000000 0.000000 0.000000 0.000000
    4 0.000007 0.011443 1.352404 0.971004 -1.226034 2.198349
    5 6.078085 0.000000 0.000003 -0.357474 0.244844 -1.007383
    6 13.446743 0.000002 -0.000002 0.000000 0.000000 -1.005371
    7 15.997002 0.000006 -0.000003 -0.875087 -0.345121 0.386211
    8 1.885328 0.833278 -2.177875 -1.269183 0.640222 0.521791
    9 1.506966 -0.000004 -0.000003 0.000000 0.000000 -0.696369
    10 0.798340 -0.000001 0.000001 0.000000 0.000000 -0.670190
    11 3.950303 -0.539877 -2.108872 0.083518 0.133195 0.567490
    12 1.545798 -0.000006 0.000002 0.000000 0.000000 1.333406
    13 1.667400 0.000001 -0.000004 0.000000 0.000000 1.298499
    14 3.899461 -0.475373 -1.170889 -0.000676 0.000419 0.561979
    15 1.528213 0.000000 -0.000001 0.000000 0.000000 1.193805
    16 1.528214 -0.000001 -0.000003 0.000000 0.000000 1.342132
    17 3.899463 -0.431803 0.168225 -0.000676 0.000419 0.561979
    18 1.506961 -0.000002 0.000002 0.000000 0.000000 1.289772
    19 1.506963 0.000001 -0.000002 0.000000 0.000000 1.202506
    20 3.915634 -0.278020 1.402610 -0.000676 0.000419 0.561979
    21 1.333083 -0.000002 0.000001 0.000000 0.000000 1.499212
    22 1.159203 -0.000001 -0.000001 0.000000 0.000000 1.080333
    23 0.000008 0.011451 -1.352403 -0.931952 1.243104 2.235230
    24 6.078087 -0.000001 0.000004 1.257106 -0.361037 -1.170400
    25 13.446754 0.000001 0.000001 0.000000 0.000000 -0.690082
    26 15.996998 0.000001 -0.000001 1.710783 -0.002828 0.229219
    27 -9.849934 -2.629987 3.992560 1.582244 -0.018583 -3.126154
    28 1.895213 2.808690 0.074532 0.000000 0.000000 0.000000
    29 -7.410141 -0.113609 -0.123965 0.000000 0.000000 0.000000
    30 -43.188030 1.691161 -0.053445 0.000000 0.000000 0.000000
  time 10
    0 -9.038578 -20.591611 -35.263554 0.000000 0.000000 -1.570795
    1 0.000001 0.000000 0.000000 -0.000086 -1.570451 -1.570709
    2 4.443614 -0.009643 0.000006 -0.000004 -0.000001 0.000796
    3 12.111414 -0.011447 0.000000 0.000000 0.000000 0.000000
    4 0.000007 0.011443 1.352404 0.971004 -1.226034 2.198349
    5 6.078085 0.000000 0.000003 -0.370459 0.224508 -1.059872
    6 13.446743 0.000002 -0.000002 0.000000 0.000000 -0.872587
    7 15.997002 0.000006 -0.000003 -0.875087 -0.319769 0.323246
    8 1.885328 0.833278 -2.177875 -1.269183 0.640222 0.521791
    9 1.506966 -0.000004 -0.000003 0.000000 0.000000 -0.696369
    10 0.798340 -0.000001 0.000001 0.000000 0.000000 -0.670190
    11 3.950303 -0.539877 -2.108872 0.083518 0.133195 0.567490
    12 1.545798 -0.000006 0.000002 0.000000 0.000000 1.333406
    13 1.667400 0.000001 -0.000004 0.000000 0.000000 1.298525
    14 3.899461 -0.475373 -1.170889 -0.000676 0.000419 0.561979
    15 1.528213 0.000000 -0.000001 0.000000 0.000000 1.193805
    16 1.528214 -0.000001 -0.000003 0.000000 0.000000 1.342158
    17 3.899463 -0.431803 0.168225 -0.000676 0.000419 0.561979
    18 1.506961 -0.000002 0.000002 0.000000 0.000000 1.289772
    19 1.506963 0.000001 -0.000002 0.000000 0.000000 1.202506
    20 3.915634 -0.278020 1.402610 -0.000676 0.000419 0.561979
    21 1.333083 -0.000002 0.000001 0.000000 0.000000 1.499212
    22 1.159203 -0.000001 -0.000001 0.000000 0.000000 1.080333
    23 0.000008 0.011451 -1.352403 -1.117743 1.137090 2.062421
    24 6.078087 -0.000001 0.000004 1.269990 -0.329723 -1.054299
    25 13.446754 0.000001 0.000001 0.000000 0.000000 -0.644987
    26 15.996998 0.000001 -0.000001 1.718129 -0.002792 0.220979
    27 -9.849934 -2.629987 3.992560 1.582244 -0.018583 -3.126154
    28 1.895213 2.808690 0.074532 0.000000 0.000000 0.000000
    29 -7.410141 -0.113609 -0.123965 0.000000 0.000000 0.000000
    30 -43.188030 1.691161 -0.053445 0.000000 0.000000 0.000000
  time 11
    0 -9.038578 -20.591611 -35.263554 0.000000 0.000000 -1.570795
    1 0.000001 0.000000 0.000000 -0.000086 -1.570451 -1.570709
    2 4.443614 -0.009643 0.000006 -0.000004 -0.000001 0.000796
    3 12.111414 -0.011447 0.000000 0.000000 0.000000 0.000000
    4 0.000007 0.011443 1.352404 0.971004 -1.226034 2.198349
    5 6.078085 0.000000 0.000003 -0.371737 0.222934 -1.067180
    6 13.446743 0.000002 -0.000002 0.000000 0.000000 -0.861522
    7 15.997002 0.000006 -0.000003 -0.893278 -0.329254 0.320179
    8 1.885328 0.833278 -2.177875 -1.269183 0.640222 0.521791
    9 1.506966 -0.000004 -0.000003 0.000000 0.000000 -0.696369
    10 0.798340 -0.000001 0.000001 0.000000 0.000000 -0.670190
    11 3.950303 -0.539877 -2.108872 0.083518 0.133195 0.567490
    12 1.545798 -0.000006 0.000002 0.000000 0.000000 1.333406
    13 1.667400 0.000001 -0.000004 0.000000 0.000000 1.298525
    14 3.899461 -0.475373 -1.170889 -0.000676 0.000419 0.561979
    15 1.528213 0.000000 -0.000001 0.000000 0.000000 1.193805
    16 1.528214 -0.000001 -0.000003 0.000000 0.000000 1.342132
    17 3.899463 -0.431803 0.168225 -0.000676 0.000419 0.561979
    18 1.506961 -0.000002 0.000002 0.000000 0.000000 1.289772
    19 1.506963 0.000001 -0.000002 0.000000 0.000000 1.202506
    20 3.915634 -0.278020 1.402610 -0.000676 0.000419 0.561979
    21 1.333083 -0.000002 0.000001 0.000000 0.000000 1.499212
    22 1.159203 -0.000001 -0.000001 0.000000 0.000000 1.080333
    23 0.000008 0.011451 -1.352403 -1.081045 1.163915 2.095923
    24 6.078087 -0.000001 0.000004 1.270157 -0.302092 -1.093710
    25 13.446754 0.000001 0.000001 0.000000 0.000000 -0.594189
    26 15.996998 0.000001 -0.000001 1.698822 -0.003787 0.199846
    27 -9.849934 -2.629987 3.992560 1.582244 -0.018583 -3.126154
    28 1.895213 2.808690 0.074532 0.000000 0.000000 0.000000
    29 -7.410141 -0.113609 -0.123965 0.000000 0.000000 0.000000
    30 -43.188030 1.691161 -0.053445 0.000000 0.000000 0.000000
  time 12
    0 -9.038578 -20.591611 -35.263554 0.000000 0.000000 -1.570795
    1 0.000001 0.000000 0.000000 -0.000086 -1.570451 -1.570709
    2 4.443614 -0.009643 0.000006 -0.000004 -0.000001 0.000796
    3 12.111414 -0.011447 0.000000 0.000000 0.000000 0.000000
    4 0.000007 0.011443 1.352404 0.971004 -1.226034 2.198349
    5 6.078085 0.000000 0.000003 -0.364854 0.235088 -1.043889
    6 13.446743 0.000002 -0.000002 0.000000 0.000000 -0.928036
    7 15.997002 0.000006 -0.000003 -0.922239 -0.357385 0.356199
    8 1.885328 0.833278 -2.177875 -1.269183 0.640222 0.521791
    9 1.506966 -0.000004 -0.000003 0.000000 0.000000 -0.696369
    10 0.798340 -0.000001 0.000001 0.000000 0.000000 -0.670190
    11 3.950303 -0.539877 -2.108872 0.083518 0.133195 0.567490
    12 1.545798 -0.000006 0.000002 0.000000 0.000000 1.333406
    13 1.667400 0.000001 -0.000004 0.000000 0.000000 1.298499
    14 3.899461 -0.475373 -1.170889 -0.000676 0.000419 0.561979
    15 1.528213 0.000000 -0.000001 0.000000 0.000000 1.193805
    16 1.528214 -0.000001 -0.000003 0.000000 0.000000 1.342132
    17 3.899463 -0.431803 0.168225 -0.000676 0.000419 0.561979
    18 1.506961 -0.000002 0.000002 0.000000 0.000000 1.289772
    19 1.506963 0.000001 -0.000002 0.000000 0.000000 1.202506
    20 3.915634 -0.278020 1.402610 -0.000676 0.000419 0.561979
    21 1.333083 -0.000002 0.000001 0.000000 0.000000 1.499212
    22 1.159203 -0.000001 -0.000001 0.000000 0.000000 1.080333
    23 0.000008 0.011451 -1.352403 -0.892614 1.258287 2.272556
    24 6.078087 -0.000001 0.000004 1.264297 -0.282853 -1.215116
    25 13.446754 0.000001 0.000001 0.000000 0.000000 -0.548932
    26 15.996998 0.000001 -0.000001 1.664798 -0.006568 0.176020
    27 -9.849934 -2.629987 3.992560 1.582244 -0.018583 -3.126154
    28 1.895213 2.808690 0.074532 0.000000 0.000000 0.000000
    29 -7.410141 -0.113609 -0.123965 0.000000 0.000000 0.000000
    30 -43.188030 1.691161 -0.053445 0.000000 0.000000 0.000000
  time 13
    0 -9.038578 -20.591611 -35.263554 0.000000 0.000000 -1.570795
    1 0.000001 0.000000 0.000000 -0.000086 -1.570451 -1.570709
    2 4.443614 -0.009643 0.000006 -0.000004 -0.000001 0.000796
    3 12.111414 -0.011447 0.000000 0.000000 0.000000 0.000000
    4 0.000007 0.011443 1.352404 0.971004 -1.226034 2.198349
    5 6.078085 0.000000 0.000003 -0.356623 0.247774 -1.012054
    6 13.446743 0.000002 -0.000002 0.000000 0.000000 -1.011484
    7 15.997002 0.000006 -0.000003 -0.950228 -0.385823 0.399684
    8 1.885328 0.833278 -2.177875 -1.269183 0.640222 0.521791
    9 1.506966 -0.000004 -0.000003 0.000000 0.000000 -0.696369
    10 0.798340 -0.000001 0.000001 0.000000 0.000000 -0.670190
    11 3.950303 -0.539877 -2.108872 0.083518 0.133195 0.567490
    12 1.545798 -0.000006 0.000002 0.000000 0.000000 1.333406
    13 1.667400 0.000001 -0.000004 0.000000 0.000000 1.298499
    14 3.899461 -0.475373 -1.170889 -0.000676 0.000419 0.561979
    15 1.528213 0.000000 -0.000001 0.000000 0.000000 1.193805
    16 1.528214 -0.000001 -0.000003 0.000000 0.000000 1.342132
    17 3.899463 -0.431803 0.168225 -0.000676 0.000419 0.561979
    18 1.506961 -0.000002 0.000002 0.000000 0.000000 1.289772
    19 1.506963 0.000001 -0.000002 0.000000 0.000000 1.202506
    20 3.915634 -0.278020 1.402610 -0.000676 0.000419 0.561979
    21 1.333083 -0.000002 0.000001 0.000000 0.000000 1.499212
    22 1.159203 -0.000001 -0.000001 0.000000 0.000000 1.080333
    23 0.000008 0.011451 -1.352403 -0.478840 1.346263 2.672311
    24 6.078087 -0.000001 0.000004 1.260618 -0.261798 -1.363046
    25 13.446754 0.000001 0.000001 0.000000 0.000000 -0.494372
    26 15.996998 0.000001 -0.000001 1.631157 -0.010007 0.147320
    27 -9.849934 -2.629987 3.992560 1.582244 -0.018583 -3.126154
    28 1.895213 2.808690 0.074532 0.000000 0.000000 0.000000
    29 -7.410141 -0.113609 -0.123965 0.000000 0.000000 0.000000
    30 -43.188030 1.691161 -0.053445 0.000000 0.000000 0.000000
  time 14
    0 -9.038578 -20.591611 -35.263554 0.000000 0.000000 -1.570795
    1 0.000001 0.000000 0.000000 -0.000086 -1.570451 -1.570709
    2 4.443614 -0.009643 0.000006 -0.000004 -0.000001 0.000796
    3 12.111414 -0.011447 0.000000 0.000000 0.000000 0.000000
    4 0.000007 0.011443 1.352404 0.971004 -1.226034 2.198349
    5 6.078085 0.000000 0.000003 -0.354317 0.250800 -0.994068
    6 13.446743 0.000002 -0.000002 0.000000 0.000000 -1.058436
    7 15.997002 0.000006 -0.000003 -0.965041 -0.398556 0.424719
    8 1.885328 0.833278 -2.177875 -1.269183 0.640222 0.521791
    9 1.506966 -0.000004 -0.000003 0.000000 0.000000 -0.696369
    10 0.798340 -0.000001 0.000001 0.000000 0.000000 -0.670190
    11 3.950303 -0.539877 -2.108872 0.083518 0.133195 0.567490
    12 1.545798 -0.000006 0.000002 0.000000 0.000000 1.333406
    13 1.667400 0.000001 -0.000004 0.000000 0.000000 1.298525
    14 3.899461 -0.475373 -1.170889 -0.000676 0.000419 0.561979
    15 1.528213 0.000000 -0.000001 0.000000 0.000000 1.193779
    16 1.528214 -0.000001 -0.000003 0.000000 0.000000 1.342158
    17 3.899463 -0.431803 0.168225 -0.000676 0.000419 0.561979
    18 1.506961 -0.000002 0.000002 0.000000 0.000000 1.289772
    19 1.506963 0.000001 -0.000002 0.000000 0.000000 1.202506
    20 3.915634 -0.278020 1.402610 -0.000676 0.000419 0.561979
    21 1.333083 -0.000002 0.000001 0.000000 0.000000 1.499212
    22 1.159203 -0.000001 -0.000001 0.000000 0.000000 1.080359
    23 0.000008 0.011451 -1.352403 -0.000014 1.370796 3.140783
    24 6.078087 -0.000001 0.000004 1.261960 -0.226492 -1.480010
    25 13.446754 0.000001 0.000001 0.000000 0.000000 -0.415506
    26 15.996998 0.000001 -0.000001 1.612941 -0.012320 0.111434
    27 -9.849934 -2.629987 3.992560 1.582244 -0.018583 -3.126154
    28 1.895213 2.808690 0.074532 0.000000 0.000000 0.000000
    29 -7.410141 -0.113609 -0.123965 0.000000 0.000000 0.000000
    30 -43.188030 1.691161 -0.053445 0.000000 0.000000 0.000000
  time 15
    0 -9.038578 -20.591611 -35.263554 0.000000 0.000000 -1.570795
    1 0.000001 0.000000 0.000000 -0.000086 -1.570451 -1.570709
    2 4.443614 -0.009643 0.000006 -0.000004 -0.000001 0.000796
    3 12.111414 -0.011447 0.000000 0.000000 0.000000 0.000000
    4 0.000007 0.011443 1.352404 0.971004 -1.226034 2.198349
    5 6.078085 0.000000 0.000003 -0.366557 0.231408 -1.015958
    6 13.446743 0.000002 -0.000002 0.000000 0.000000 -1.018637
    7 15.997002 0.000006 -0.000003 -0.941222 -0.372751 0.407903
    8 1.885328 0.833278 -2.177875 -1.269183 0.640222 0.521791
    9 1.506966 -0.000004 -0.000003 0.000000 0.000000 -0.696369
    10 0.798340 -0.000001 0.000001 0.000000 0.000000 -0.670190
    11 3.950303 -0.539877 -2.108872 0.083518 0.133195 0.567490
    12 1.545798 -0.000006 0.000002 0.000000 0.000000 1.333406
    13 1.667400 0.000001 -0.000004 0.000000 0.000000 1.298525
    14 3.899461 -0.475373 -1.170889 -0.000676 0.000419 0.561979
    15 1.528213 0.000000 -0.000001 0.000000 0.000000 1.193805
    16 1.528214 -0.000001 -0.000003 0.000000 0.000000 1.342132
    17 3.899463 -0.431803 0.168225 -0.000676 0.000419 0.561979
    18 1.506961 -0.000002 0.000002 0.000000 0.000000 1.289772
    19 1.506963 0.000001 -0.000002 0.000000 0.000000 1.202506
    20 3.915634 -0.278020 1.402610 -0.000676 0.000419 0.561979
    21 1.333083 -0.000002 0.000001 0.000000 0.000000 1.499212
    22 1.159203 -0.000001 -0.000001 0.000000 0.000000 1.080333
    23 0.000008 0.011451 -1.352403 0.081046 1.370173 3.220216
    24 6.078087 -0.000001 0.000004 1.266658 -0.146722 -1.522708
    25 13.446754 0.000001 0.000001 0.000000 0.000000 -0.261615
    26 15.996998 0.000001 -0.000001 1.638192 -0.008030 0.051648
    27 -9.849934 -2.629987 3.992560 1.582244 -0.018583 -3.126154
    28 1.895213 2.808690 0.074532 0.000000 0.000000 0.000000
    29 -7.410141 -0.113609 -0.123965 0.000000 0.000000 0.000000
    30 -43.188030 1.691161 -0.053445 0.000000 0.000000 0.000000
  time 16
    0 -9.038578 -20.591611 -35.263554 0.000000 0.000000 -1.570795
    1 0.000001 0.000000 0.000000 -0.000086 -1.570451 -1.570709
    2 4.443614 -0.009643 0.000006 -0.000004 -0.000001 0.000796
    3 12.111414 -0.011447 0.000000 0.000000 0.000000 0.000000
    4 0.000007 0.011443 1.352404 0.971004 -1.226034 2.198349
    5 6.078085 0.000000 0.000003 -0.381138 0.206085 -1.045357
    6 13.446743 0.000002 -0.000002 0.000000 0.000000 -0.963127
    7 15.997002 0.000006 -0.000003 -0.899776 -0.329367 0.382139
    8 1.885328 0.833278 -2.177875 -1.269183 0.640222 0.521791
    9 1.506966 -0.000004 -0.000003 0.000000 0.000000 -0.696369
    10 0.798340 -0.000001 0.000001 0.000000 0.000000 -0.670190
    11 3.950303 -0.539877 -2.108872 0.083518 0.133195 0.567490
    12 1.545798 -0.000006 0.000002 0.000000 0.000000 1.333406
    13 1.667400 0.000001 -0.000004 0.000000 0.000000 1.298525
    14 3.899461 -0.475373 -1.170889 -0.000676 0.000419 0.561979
    15 1.528213 0.000000 -0.000001 0.000000 0.000000 1.193779
    16 1.528214 -0.000001 -0.000003 0.000000 0.000000 1.342158
    17 3.899463 -0.431803 0.168225 -0.000676 0.000419 0.561979
    18 1.506961 -0.000002 0.000002 0.000000 0.000000 1.289772
    19 1.506963 0.000001 -0.000002 0.000000 0.000000 1.202506
    20 3.915634 -0.278020 1.402610 -0.000676 0.000419 0.561979
    21 1.333083 -0.000002 0.000001 0.000000 0.000000 1.499212
    22 1.159203 -0.000001 -0.000001 0.000000 0.000000 1.080333
    23 0.000008 0.011451 -1.352403 -0.000014 1.370796 3.140783
    24 6.078087 -0.000001 0.000004 1.269618 -0.044848 -1.538622
    25 13.446754 0.000001 0.000001 0.000000 0.000000 -0.069100
    26 15.996998 0.000001 -0.000001 1.683422 0.002361 -0.020797
    27 -9.849934 -2.629987 3.992560 1.582244 -0.018583 -3.126154
    28 1.895213 2.808690 0.074532 0.000000 0.000000 0.000000
    29 -7.410141 -0.113609 -0.123965 0.000000 0.000000 0.000000
    30 -43.188030 1.691161 -0.053445 0.000000 0.000000 0.000000
end
