// Created by Crowbar 0.74
version 1
nodes
  0 "Bip01" -1
  1 "Bip01 Pelvis" 0
  2 "Bip01 Spine" 1
  3 "Bip01 Neck" 2
  4 "Bip01 L Clavicle" 3
  5 "Bip01 L UpperArm" 4
  6 "Bip01 L Forearm" 5
  7 "Bip01 L Hand" 6
  8 "Bip01 L Finger0" 7
  9 "Bip01 L Finger01" 8
  10 "Bip01 L Finger02" 9
  11 "Bip01 L Finger1" 7
  12 "Bip01 L Finger11" 11
  13 "Bip01 L Finger12" 12
  14 "Bip01 L Finger2" 7
  15 "Bip01 L Finger21" 14
  16 "Bip01 L Finger22" 15
  17 "Bip01 L Finger3" 7
  18 "Bip01 L Finger31" 17
  19 "Bip01 L Finger32" 18
  20 "Bip01 L Finger4" 7
  21 "Bip01 L Finger41" 20
  22 "Bip01 L Finger42" 21
  23 "Bip01 R Clavicle" 3
  24 "Bip01 R UpperArm" 23
  25 "Bip01 R Forearm" 24
  26 "Bip01 R Hand" 25
  27 "Dummy16" 26
  28 "Dummy17" 27
  29 "Dummy14" 27
  30 "muzzle" 27
end
skeleton
  time 0
    0 -9.038578 -20.591611 -35.263554 0.000000 0.000000 -1.570795
    1 -0.000002 0.000000 0.000000 -0.000086 -1.570451 -1.570709
    2 4.443614 -0.009643 0.000006 -0.000004 -0.000001 0.000796
    3 12.111414 -0.011449 0.000000 0.000000 0.000000 0.000000
    4 0.000007 0.011443 1.352404 0.971004 -1.226034 2.198349
    5 6.078085 0.000000 -0.000001 -0.148827 0.838127 -0.959364
    6 13.446753 0.000002 -0.000003 0.000000 0.000000 -0.761262
    7 15.997000 0.000004 -0.000003 -0.912849 -0.431212 0.215640
    8 1.885325 0.833278 -2.177876 -1.269183 0.640222 0.521791
    9 1.506967 -0.000004 -0.000001 0.000000 0.000000 -0.696369
    10 0.798343 0.000000 -0.000001 0.000000 0.000000 -0.670190
    11 3.950306 -0.539877 -2.108872 0.083518 0.133195 0.567490
    12 1.545796 0.000000 0.000001 0.000000 0.000000 1.333406
    13 1.667395 -0.000005 -0.000002 0.000000 0.000000 1.298525
    14 3.899459 -0.475375 -1.170890 -0.000676 0.000419 0.561979
    15 1.528214 0.000001 0.000000 0.000000 0.000000 1.193805
    16 1.528215 0.000001 -0.000003 0.000000 0.000000 1.342132
    17 3.899458 -0.431803 0.168224 -0.000676 0.000419 0.561979
    18 1.506965 0.000000 0.000000 0.000000 0.000000 1.289772
    19 1.506961 -0.000002 0.000000 0.000000 0.000000 1.202506
    20 3.915631 -0.278018 1.402609 -0.000676 0.000419 0.561979
    21 1.333081 0.000003 0.000001 0.000000 0.000000 1.499238
    22 1.159203 -0.000002 -0.000001 0.000000 0.000000 1.080333
    23 0.000008 0.011451 -1.352403 -0.000014 1.370796 3.140783
    24 6.078088 0.000002 0.000002 1.174209 -0.696337 -1.290130
    25 13.446753 0.000002 0.000003 0.000000 0.000000 -0.069100
    26 15.996996 -0.000001 -0.000001 1.682619 0.013794 -0.121386
    27 -9.849934 -2.629987 3.992560 1.582244 -0.018583 -3.126154
    28 1.895213 2.808690 0.074532 0.000000 0.000000 0.000000
    29 -7.410141 -0.113607 -0.123966 0.000000 0.000000 0.000000
    30 -43.188030 1.691171 -0.053446 0.000000 0.000000 0.000000
  time 1
    0 -9.038578 -20.591611 -35.263554 0.000000 0.000000 -1.570795
    1 -0.000002 0.000000 0.000000 -0.000086 -1.570451 -1.570709
    2 4.443614 -0.009643 0.000006 -0.000004 -0.000001 0.000796
    3 12.111414 -0.011449 0.000000 0.000000 0.000000 0.000000
    4 0.000007 0.011443 1.352404 0.971004 -1.226034 2.198349
    5 6.078085 0.000000 -0.000001 -0.159577 0.811375 -0.961700
    6 13.446753 0.000002 -0.000003 0.000000 0.000000 -0.778074
    7 15.997000 0.000004 -0.000003 -0.915510 -0.437335 0.222527
    8 1.885325 0.833278 -2.177876 -1.269183 0.640222 0.521791
    9 1.506967 -0.000004 -0.000001 0.000000 0.000000 -0.696369
    10 0.798343 0.000000 -0.000001 0.000000 0.000000 -0.670190
    11 3.950306 -0.539877 -2.108872 0.083518 0.133195 0.567490
    12 1.545796 0.000000 0.000001 0.000000 0.000000 1.333406
    13 1.667395 -0.000005 -0.000002 0.000000 0.000000 1.298525
    14 3.899459 -0.475375 -1.170890 -0.000676 0.000419 0.561979
    15 1.528214 0.000001 0.000000 0.000000 0.000000 1.193805
    16 1.528215 0.000001 -0.000003 0.000000 0.000000 1.342132
    17 3.899458 -0.431803 0.168224 -0.000676 0.000419 0.561979
    18 1.506965 0.000000 0.000000 0.000000 0.000000 1.289772
    19 1.506961 -0.000002 0.000000 0.000000 0.000000 1.202506
    20 3.915631 -0.278018 1.402609 -0.000676 0.000419 0.561979
    21 1.333081 0.000003 0.000001 0.000000 0.000000 1.499212
    22 1.159203 -0.000002 -0.000001 0.000000 0.000000 1.080333
    23 0.000008 0.011451 -1.352403 -0.000014 1.370796 3.140783
    24 6.078088 0.000002 0.000002 1.180369 -0.678275 -1.299845
    25 13.446753 0.000002 0.000003 0.000000 0.000000 -0.097249
    26 15.996996 -0.000001 -0.000001 1.674290 0.011613 -0.110029
    27 -9.849934 -2.629987 3.992560 1.582244 -0.018583 -3.126154
    28 1.895213 2.808690 0.074532 0.000000 0.000000 0.000000
    29 -7.410141 -0.113607 -0.123966 0.000000 0.000000 0.000000
    30 -43.188030 1.691171 -0.053446 0.000000 0.000000 0.000000
  time 2
    0 -9.038578 -20.591611 -35.263554 0.000000 0.000000 -1.570795
    1 -0.000002 0.000000 0.000000 -0.000086 -1.570451 -1.570709
    2 4.443614 -0.009643 0.000006 -0.000004 -0.000001 0.000796
    3 12.111414 -0.011449 0.000000 0.000000 0.000000 0.000000
    4 0.000007 0.011443 1.352404 0.971004 -1.226034 2.198349
    5 6.078085 0.000000 -0.000001 -0.170079 0.784454 -0.963335
    6 13.446753 0.000002 -0.000003 0.000000 0.000000 -0.795742
    7 15.997000 0.000004 -0.000003 -0.918273 -0.444154 0.229339
    8 1.885325 0.833278 -2.177876 -1.269183 0.640222 0.521791
    9 1.506967 -0.000004 -0.000001 0.000000 0.000000 -0.696369
    10 0.798343 0.000000 -0.000001 0.000000 0.000000 -0.670190
    11 3.950306 -0.539877 -2.108872 0.083518 0.133195 0.567490
    12 1.545796 0.000000 0.000001 0.000000 0.000000 1.333406
    13 1.667395 -0.000005 -0.000002 0.000000 0.000000 1.298525
    14 3.899459 -0.475375 -1.170890 -0.000676 0.000419 0.561979
    15 1.528214 0.000001 0.000000 0.000000 0.000000 1.193779
    16 1.528215 0.000001 -0.000003 0.000000 0.000000 1.342158
    17 3.899458 -0.431803 0.168224 -0.000676 0.000419 0.561979
    18 1.506965 0.000000 0.000000 0.000000 0.000000 1.289772
    19 1.506961 -0.000002 0.000000 0.000000 0.000000 1.202532
    20 3.915631 -0.278018 1.402609 -0.000676 0.000419 0.561979
    21 1.333081 0.000003 0.000001 0.000000 0.000000 1.499212
    22 1.159203 -0.000002 -0.000001 0.000000 0.000000 1.080359
    23 0.000008 0.011451 -1.352403 -0.000014 1.370796 3.140783
    24 6.078088 0.000002 0.000002 1.186157 -0.660341 -1.309169
    25 13.446753 0.000002 0.000003 0.000000 0.000000 -0.126854
    26 15.996996 -0.000001 -0.000001 1.665505 0.009456 -0.098642
    27 -9.849934 -2.629987 3.992560 1.582244 -0.018583 -3.126154
    28 1.895213 2.808690 0.074532 0.000000 0.000000 0.000000
    29 -7.410141 -0.113607 -0.123966 0.000000 0.000000 0.000000
    30 -43.188030 1.691171 -0.053446 0.000000 0.000000 0.000000
  time 3
    0 -9.038578 -20.591611 -35.263554 0.000000 0.000000 -1.570795
    1 -0.000002 0.000000 0.000000 -0.000086 -1.570451 -1.570709
    2 4.443614 -0.009643 0.000006 -0.000004 -0.000001 0.000796
    3 12.111414 -0.011449 0.000000 0.000000 0.000000 0.000000
    4 0.000007 0.011443 1.352404 0.971004 -1.226034 2.198349
    5 6.078085 0.000000 -0.000001 -0.180474 0.757460 -0.964370
    6 13.446753 0.000002 -0.000003 0.000000 0.000000 -0.814204
    7 15.997000 0.000004 -0.000003 -0.921139 -0.451522 0.236125
    8 1.885325 0.833278 -2.177876 -1.269183 0.640222 0.521791
    9 1.506967 -0.000004 -0.000001 0.000000 0.000000 -0.696369
    10 0.798343 0.000000 -0.000001 0.000000 0.000000 -0.670190
    11 3.950306 -0.539877 -2.108872 0.083518 0.133195 0.567490
    12 1.545796 0.000000 0.000001 0.000000 0.000000 1.333406
    13 1.667395 -0.000005 -0.000002 0.000000 0.000000 1.298525
    14 3.899459 -0.475375 -1.170890 -0.000676 0.000419 0.561979
    15 1.528214 0.000001 0.000000 0.000000 0.000000 1.193805
    16 1.528215 0.000001 -0.000003 0.000000 0.000000 1.342132
    17 3.899458 -0.431803 0.168224 -0.000676 0.000419 0.561979
    18 1.506965 0.000000 0.000000 0.000000 0.000000 1.289772
    19 1.506961 -0.000002 0.000000 0.000000 0.000000 1.202506
    20 3.915631 -0.278018 1.402609 -0.000676 0.000419 0.561979
    21 1.333081 0.000003 0.000001 0.000000 0.000000 1.499212
    22 1.159203 -0.000002 -0.000001 0.000000 0.000000 1.080333
    23 0.000008 0.011451 -1.352403 -0.000014 1.370796 3.140783
    24 6.078088 0.000002 0.000002 1.191610 -0.642509 -1.318167
    25 13.446753 0.000002 0.000003 0.000000 0.000000 -0.157592
    26 15.996996 -0.000001 -0.000001 1.656361 0.007359 -0.087197
    27 -9.849934 -2.629987 3.992560 1.582244 -0.018583 -3.126154
    28 1.895213 2.808690 0.074532 0.000000 0.000000 0.000000
    29 -7.410141 -0.113607 -0.123966 0.000000 0.000000 0.000000
    30 -43.188030 1.691171 -0.053446 0.000000 0.000000 0.000000
  time 4
    0 -9.038578 -20.591611 -35.263554 0.000000 0.000000 -1.570795
    1 -0.000002 0.000000 0.000000 -0.000086 -1.570451 -1.570709
    2 4.443614 -0.009643 0.000006 -0.000004 -0.000001 0.000796
    3 12.111414 -0.011449 0.000000 0.000000 0.000000 0.000000
    4 0.000007 0.011443 1.352404 0.971004 -1.226034 2.198349
    5 6.078085 0.000000 -0.000001 -0.190762 0.730418 -0.964837
    6 13.446753 0.000002 -0.000003 0.000000 0.000000 -0.833400
    7 15.997000 0.000004 -0.000003 -0.924055 -0.459294 0.242887
    8 1.885325 0.833278 -2.177876 -1.269183 0.640222 0.521791
    9 1.506967 -0.000004 -0.000001 0.000000 0.000000 -0.696369
    10 0.798343 0.000000 -0.000001 0.000000 0.000000 -0.670190
    11 3.950306 -0.539877 -2.108872 0.083518 0.133195 0.567490
    12 1.545796 0.000000 0.000001 0.000000 0.000000 1.333406
    13 1.667395 -0.000005 -0.000002 0.000000 0.000000 1.298525
    14 3.899459 -0.475375 -1.170890 -0.000676 0.000419 0.561979
    15 1.528214 0.000001 0.000000 0.000000 0.000000 1.193805
    16 1.528215 0.000001 -0.000003 0.000000 0.000000 1.342132
    17 3.899458 -0.431803 0.168224 -0.000676 0.000419 0.561979
    18 1.506965 0.000000 0.000000 0.000000 0.000000 1.289772
    19 1.506961 -0.000002 0.000000 0.000000 0.000000 1.202506
    20 3.915631 -0.278018 1.402609 -0.000676 0.000419 0.561979
    21 1.333081 0.000003 0.000001 0.000000 0.000000 1.499212
    22 1.159203 -0.000002 -0.000001 0.000000 0.000000 1.080333
    23 0.000008 0.011451 -1.352403 -0.000014 1.370796 3.140783
    24 6.078088 0.000002 0.000002 1.196764 -0.624779 -1.326873
    25 13.446753 0.000002 0.000003 0.000000 0.000000 -0.189220
    26 15.996996 -0.000001 -0.000001 1.646917 0.005333 -0.075738
    27 -9.849934 -2.629987 3.992560 1.582244 -0.018583 -3.126154
    28 1.895213 2.808690 0.074532 0.000000 0.000000 0.000000
    29 -7.410141 -0.113607 -0.123966 0.000000 0.000000 0.000000
    30 -43.188030 1.691171 -0.053446 0.000000 0.000000 0.000000
  time 5
    0 -9.038578 -20.591611 -35.263554 0.000000 0.000000 -1.570795
    1 -0.000002 0.000000 0.000000 -0.000086 -1.570451 -1.570709
    2 4.443614 -0.009643 0.000006 -0.000004 -0.000001 0.000796
    3 12.111414 -0.011449 0.000000 0.000000 0.000000 0.000000
    4 0.000007 0.011443 1.352404 0.971004 -1.226034 2.198349
    5 6.078085 0.000000 -0.000001 -0.201051 0.703424 -0.964870
    6 13.446753 0.000002 -0.000003 0.000000 0.000000 -0.853269
    7 15.997000 0.000004 -0.000003 -0.926998 -0.467293 0.249699
    8 1.885325 0.833278 -2.177876 -1.269183 0.640222 0.521791
    9 1.506967 -0.000004 -0.000001 0.000000 0.000000 -0.696369
    10 0.798343 0.000000 -0.000001 0.000000 0.000000 -0.670190
    11 3.950306 -0.539877 -2.108872 0.083518 0.133195 0.567490
    12 1.545796 0.000000 0.000001 0.000000 0.000000 1.333406
    13 1.667395 -0.000005 -0.000002 0.000000 0.000000 1.298525
    14 3.899459 -0.475375 -1.170890 -0.000676 0.000419 0.561979
    15 1.528214 0.000001 0.000000 0.000000 0.000000 1.193779
    16 1.528215 0.000001 -0.000003 0.000000 0.000000 1.342158
    17 3.899458 -0.431803 0.168224 -0.000676 0.000419 0.561979
    18 1.506965 0.000000 0.000000 0.000000 0.000000 1.289772
    19 1.506961 -0.000002 0.000000 0.000000 0.000000 1.202532
    20 3.915631 -0.278018 1.402609 -0.000676 0.000419 0.561979
    21 1.333081 0.000003 0.000001 0.000000 0.000000 1.499212
    22 1.159203 -0.000002 -0.000001 0.000000 0.000000 1.080333
    23 0.000008 0.011451 -1.352403 -0.000014 1.370796 3.140783
    24 6.078088 0.000002 0.000002 1.201642 -0.607101 -1.335318
    25 13.446753 0.000002 0.000003 0.000000 0.000000 -0.221494
    26 15.996996 -0.000001 -0.000001 1.637269 0.003392 -0.064235
    27 -9.849934 -2.629987 3.992560 1.582244 -0.018583 -3.126154
    28 1.895213 2.808690 0.074532 0.000000 0.000000 0.000000
    29 -7.410141 -0.113607 -0.123966 0.000000 0.000000 0.000000
    30 -43.188030 1.691171 -0.053446 0.000000 0.000000 0.000000
  time 6
    0 -9.038578 -20.591611 -35.263554 0.000000 0.000000 -1.570795
    1 -0.000002 0.000000 0.000000 -0.000086 -1.570451 -1.570709
    2 4.443614 -0.009643 0.000006 -0.000004 -0.000001 0.000796
    3 12.111414 -0.011449 0.000000 0.000000 0.000000 0.000000
    4 0.000007 0.011443 1.352404 0.971004 -1.226034 2.198349
    5 6.078085 0.000000 -0.000001 -0.211375 0.676527 -0.964503
    6 13.446753 0.000002 -0.000003 0.000000 0.000000 -0.873627
    7 15.997000 0.000004 -0.000003 -0.929965 -0.475388 0.256535
    8 1.885325 0.833278 -2.177876 -1.269183 0.640222 0.521791
    9 1.506967 -0.000004 -0.000001 0.000000 0.000000 -0.696369
    10 0.798343 0.000000 -0.000001 0.000000 0.000000 -0.670190
    11 3.950306 -0.539877 -2.108872 0.083518 0.133195 0.567490
    12 1.545796 0.000000 0.000001 0.000000 0.000000 1.333406
    13 1.667395 -0.000005 -0.000002 0.000000 0.000000 1.298525
    14 3.899459 -0.475375 -1.170890 -0.000676 0.000419 0.561979
    15 1.528214 0.000001 0.000000 0.000000 0.000000 1.193805
    16 1.528215 0.000001 -0.000003 0.000000 0.000000 1.342132
    17 3.899458 -0.431803 0.168224 -0.000676 0.000419 0.561979
    18 1.506965 0.000000 0.000000 0.000000 0.000000 1.289772
    19 1.506961 -0.000002 0.000000 0.000000 0.000000 1.202506
    20 3.915631 -0.278018 1.402609 -0.000676 0.000419 0.561979
    21 1.333081 0.000003 0.000001 0.000000 0.000000 1.499238
    22 1.159203 -0.000002 -0.000001 0.000000 0.000000 1.080333
    23 0.000008 0.011451 -1.352403 -0.000014 1.370796 3.140783
    24 6.078088 0.000002 0.000002 1.206268 -0.589423 -1.343536
    25 13.446753 0.000002 0.000003 0.000000 0.000000 -0.254092
    26 15.996996 -0.000001 -0.000001 1.627490 0.001546 -0.052702
    27 -9.849934 -2.629987 3.992560 1.582244 -0.018583 -3.126154
    28 1.895213 2.808690 0.074532 0.000000 0.000000 0.000000
    29 -7.410141 -0.113607 -0.123966 0.000000 0.000000 0.000000
    30 -43.188030 1.691171 -0.053446 0.000000 0.000000 0.000000
  time 7
    0 -9.038578 -20.591611 -35.263554 0.000000 0.000000 -1.570795
    1 -0.000002 0.000000 0.000000 -0.000086 -1.570451 -1.570709
    2 4.443614 -0.009643 0.000006 -0.000004 -0.000001 0.000796
    3 12.111414 -0.011449 0.000000 0.000000 0.000000 0.000000
    4 0.000007 0.011443 1.352404 0.971004 -1.226034 2.198349
    5 6.078085 0.000000 -0.000001 -0.221770 0.649776 -0.963836
    6 13.446753 0.000002 -0.000003 0.000000 0.000000 -0.894412
    7 15.997000 0.000004 -0.000003 -0.932933 -0.483402 0.263448
    8 1.885325 0.833278 -2.177876 -1.269183 0.640222 0.521791
    9 1.506967 -0.000004 -0.000001 0.000000 0.000000 -0.696369
    10 0.798343 0.000000 -0.000001 0.000000 0.000000 -0.670190
    11 3.950306 -0.539877 -2.108872 0.083518 0.133195 0.567490
    12 1.545796 0.000000 0.000001 0.000000 0.000000 1.333406
    13 1.667395 -0.000005 -0.000002 0.000000 0.000000 1.298525
    14 3.899459 -0.475375 -1.170890 -0.000676 0.000419 0.561979
    15 1.528214 0.000001 0.000000 0.000000 0.000000 1.193805
    16 1.528215 0.000001 -0.000003 0.000000 0.000000 1.342158
    17 3.899458 -0.431803 0.168224 -0.000676 0.000419 0.561979
    18 1.506965 0.000000 0.000000 0.000000 0.000000 1.289772
    19 1.506961 -0.000002 0.000000 0.000000 0.000000 1.202532
    20 3.915631 -0.278018 1.402609 -0.000676 0.000419 0.561979
    21 1.333081 0.000003 0.000001 0.000000 0.000000 1.499212
    22 1.159203 -0.000002 -0.000001 0.000000 0.000000 1.080333
    23 0.000008 0.011451 -1.352403 -0.000014 1.370796 3.140783
    24 6.078088 0.000002 0.000002 1.210666 -0.571744 -1.351541
    25 13.446753 0.000002 0.000003 0.000000 0.000000 -0.286812
    26 15.996996 -0.000001 -0.000001 1.617675 -0.000168 -0.041155
    27 -9.849934 -2.629987 3.992560 1.582244 -0.018583 -3.126154
    28 1.895213 2.808690 0.074532 0.000000 0.000000 0.000000
    29 -7.410141 -0.113607 -0.123966 0.000000 0.000000 0.000000
    30 -43.188030 1.691171 -0.053446 0.000000 0.000000 0.000000
  time 8
    0 -9.038578 -20.591611 -35.263554 0.000000 0.000000 -1.570795
    1 -0.000002 0.000000 0.000000 -0.000086 -1.570451 -1.570709
    2 4.443614 -0.009643 0.000006 -0.000004 -0.000001 0.000796
    3 12.111414 -0.011449 0.000000 0.000000 0.000000 0.000000
    4 0.000007 0.011443 1.352404 0.971004 -1.226034 2.198349
    5 6.078085 0.000000 -0.000001 -0.232236 0.623218 -0.962968
    6 13.446753 0.000002 -0.000003 0.000000 0.000000 -0.915443
    7 15.997000 0.000004 -0.000003 -0.935875 -0.491223 0.270410
    8 1.885325 0.833278 -2.177876 -1.269183 0.640222 0.521791
    9 1.506967 -0.000004 -0.000001 0.000000 0.000000 -0.696369
    10 0.798343 0.000000 -0.000001 0.000000 0.000000 -0.670190
    11 3.950306 -0.539877 -2.108872 0.083518 0.133195 0.567490
    12 1.545796 0.000000 0.000001 0.000000 0.000000 1.333406
    13 1.667395 -0.000005 -0.000002 0.000000 0.000000 1.298525
    14 3.899459 -0.475375 -1.170890 -0.000676 0.000419 0.561979
    15 1.528214 0.000001 0.000000 0.000000 0.000000 1.193779
    16 1.528215 0.000001 -0.000003 0.000000 0.000000 1.342132
    17 3.899458 -0.431803 0.168224 -0.000676 0.000419 0.561979
    18 1.506965 0.000000 0.000000 0.000000 0.000000 1.289772
    19 1.506961 -0.000002 0.000000 0.000000 0.000000 1.202532
    20 3.915631 -0.278018 1.402609 -0.000676 0.000419 0.561979
    21 1.333081 0.000003 0.000001 0.000000 0.000000 1.499212
    22 1.159203 -0.000002 -0.000001 0.000000 0.000000 1.080333
    23 0.000008 0.011451 -1.352403 -0.000014 1.370796 3.140783
    24 6.078088 0.000002 0.000002 1.214861 -0.554015 -1.359401
    25 13.446753 0.000002 0.000003 0.000000 0.000000 -0.319329
    26 15.996996 -0.000001 -0.000001 1.607883 -0.001786 -0.029593
    27 -9.849934 -2.629987 3.992560 1.582244 -0.018583 -3.126154
    28 1.895213 2.808690 0.074532 0.000000 0.000000 0.000000
    29 -7.410141 -0.113607 -0.123966 0.000000 0.000000 0.000000
    30 -43.188030 1.691171 -0.053446 0.000000 0.000000 0.000000
  time 9
    0 -9.038578 -20.591611 -35.263554 0.000000 0.000000 -1.570795
    1 -0.000002 0.000000 0.000000 -0.000086 -1.570451 -1.570709
    2 4.443614 -0.009643 0.000006 -0.000004 -0.000001 0.000796
    3 12.111414 -0.011449 0.000000 0.000000 0.000000 0.000000
    4 0.000007 0.011443 1.352404 0.971004 -1.226034 2.198349
    5 6.078085 0.000000 -0.000001 -0.242880 0.596877 -0.961934
    6 13.446753 0.000002 -0.000003 0.000000 0.000000 -0.936595
    7 15.997000 0.000004 -0.000003 -0.938792 -0.498688 0.277448
    8 1.885325 0.833278 -2.177876 -1.269183 0.640222 0.521791
    9 1.506967 -0.000004 -0.000001 0.000000 0.000000 -0.696369
    10 0.798343 0.000000 -0.000001 0.000000 0.000000 -0.670190
    11 3.950306 -0.539877 -2.108872 0.083518 0.133195 0.567490
    12 1.545796 0.000000 0.000001 0.000000 0.000000 1.333406
    13 1.667395 -0.000005 -0.000002 0.000000 0.000000 1.298525
    14 3.899459 -0.475375 -1.170890 -0.000676 0.000419 0.561979
    15 1.528214 0.000001 0.000000 0.000000 0.000000 1.193805
    16 1.528215 0.000001 -0.000003 0.000000 0.000000 1.342132
    17 3.899458 -0.431803 0.168224 -0.000676 0.000419 0.561979
    18 1.506965 0.000000 0.000000 0.000000 0.000000 1.289772
    19 1.506961 -0.000002 0.000000 0.000000 0.000000 1.202506
    20 3.915631 -0.278018 1.402609 -0.000676 0.000419 0.561979
    21 1.333081 0.000003 0.000001 0.000000 0.000000 1.499212
    22 1.159203 -0.000002 -0.000001 0.000000 0.000000 1.080333
    23 0.000008 0.011451 -1.352403 -0.000014 1.370796 3.140783
    24 6.078088 0.000002 0.000002 1.218851 -0.536183 -1.367098
    25 13.446753 0.000002 0.000003 0.000000 0.000000 -0.351401
    26 15.996996 -0.000001 -0.000001 1.598212 -0.003272 -0.018031
    27 -9.849934 -2.629987 3.992560 1.582244 -0.018583 -3.126154
    28 1.895213 2.808690 0.074532 0.000000 0.000000 0.000000
    29 -7.410141 -0.113607 -0.123966 0.000000 0.000000 0.000000
    30 -43.188030 1.691171 -0.053446 0.000000 0.000000 0.000000
  time 10
    0 -9.038578 -20.591611 -35.263554 0.000000 0.000000 -1.570795
    1 -0.000002 0.000000 0.000000 -0.000086 -1.570451 -1.570709
    2 4.443614 -0.009643 0.000006 -0.000004 -0.000001 0.000796
    3 12.111414 -0.011449 0.000000 0.000000 0.000000 0.000000
    4 0.000007 0.011443 1.352404 0.971004 -1.226034 2.198349
    5 6.078085 0.000000 -0.000001 -0.253630 0.570828 -0.960832
    6 13.446753 0.000002 -0.000003 0.000000 0.000000 -0.957625
    7 15.997000 0.000004 -0.000003 -0.941657 -0.505652 0.284612
    8 1.885325 0.833278 -2.177876 -1.269183 0.640222 0.521791
    9 1.506967 -0.000004 -0.000001 0.000000 0.000000 -0.696369
    10 0.798343 0.000000 -0.000001 0.000000 0.000000 -0.670190
    11 3.950306 -0.539877 -2.108872 0.083518 0.133195 0.567490
    12 1.545796 0.000000 0.000001 0.000000 0.000000 1.333406
    13 1.667395 -0.000005 -0.000002 0.000000 0.000000 1.298499
    14 3.899459 -0.475375 -1.170890 -0.000676 0.000419 0.561979
    15 1.528214 0.000001 0.000000 0.000000 0.000000 1.193805
    16 1.528215 0.000001 -0.000003 0.000000 0.000000 1.342132
    17 3.899458 -0.431803 0.168224 -0.000676 0.000419 0.561979
    18 1.506965 0.000000 0.000000 0.000000 0.000000 1.289772
    19 1.506961 -0.000002 0.000000 0.000000 0.000000 1.202506
    20 3.915631 -0.278018 1.402609 -0.000676 0.000419 0.561979
    21 1.333081 0.000003 0.000001 0.000000 0.000000 1.499238
    22 1.159203 -0.000002 -0.000001 0.000000 0.000000 1.080333
    23 0.000008 0.011451 -1.352403 -0.000014 1.370796 3.140783
    24 6.078088 0.000002 0.000002 1.222663 -0.518249 -1.374680
    25 13.446753 0.000002 0.000003 0.000000 0.000000 -0.382786
    26 15.996996 -0.000001 -0.000001 1.588732 -0.004626 -0.006469
    27 -9.849934 -2.629987 3.992560 1.582244 -0.018583 -3.126154
    28 1.895213 2.808690 0.074532 0.000000 0.000000 0.000000
    29 -7.410141 -0.113607 -0.123966 0.000000 0.000000 0.000000
    30 -43.188030 1.691171 -0.053446 0.000000 0.000000 0.000000
  time 11
    0 -9.038578 -20.591611 -35.263554 0.000000 0.000000 -1.570795
    1 -0.000002 0.000000 0.000000 -0.000086 -1.570451 -1.570709
    2 4.443614 -0.009643 0.000006 -0.000004 -0.000001 0.000796
    3 12.111414 -0.011449 0.000000 0.000000 0.000000 0.000000
    4 0.000007 0.011443 1.352404 0.971004 -1.226034 2.198349
    5 6.078085 0.000000 -0.000001 -0.264522 0.545069 -0.959731
    6 13.446753 0.000002 -0.000003 0.000000 0.000000 -0.978411
    7 15.997000 0.000004 -0.000003 -0.944523 -0.511986 0.291901
    8 1.885325 0.833278 -2.177876 -1.269183 0.640222 0.521791
    9 1.506967 -0.000004 -0.000001 0.000000 0.000000 -0.696369
    10 0.798343 0.000000 -0.000001 0.000000 0.000000 -0.670190
    11 3.950306 -0.539877 -2.108872 0.083518 0.133195 0.567490
    12 1.545796 0.000000 0.000001 0.000000 0.000000 1.333406
    13 1.667395 -0.000005 -0.000002 0.000000 0.000000 1.298499
    14 3.899459 -0.475375 -1.170890 -0.000676 0.000419 0.561979
    15 1.528214 0.000001 0.000000 0.000000 0.000000 1.193805
    16 1.528215 0.000001 -0.000003 0.000000 0.000000 1.342132
    17 3.899458 -0.431803 0.168224 -0.000676 0.000419 0.561979
    18 1.506965 0.000000 0.000000 0.000000 0.000000 1.289772
    19 1.506961 -0.000002 0.000000 0.000000 0.000000 1.202506
    20 3.915631 -0.278018 1.402609 -0.000676 0.000419 0.561979
    21 1.333081 0.000003 0.000001 0.000000 0.000000 1.499212
    22 1.159203 -0.000002 -0.000001 0.000000 0.000000 1.080333
    23 0.000008 0.011451 -1.352403 -0.000014 1.370796 3.140783
    24 6.078088 0.000002 0.000002 1.226318 -0.500136 -1.382166
    25 13.446753 0.000002 0.000003 0.000000 0.000000 -0.413200
    26 15.996996 -0.000001 -0.000001 1.579540 -0.005848 0.005078
    27 -9.849934 -2.629987 3.992560 1.582244 -0.018583 -3.126154
    28 1.895213 2.808690 0.074532 0.000000 0.000000 0.000000
    29 -7.410141 -0.113607 -0.123966 0.000000 0.000000 0.000000
    30 -43.188030 1.691171 -0.053446 0.000000 0.000000 0.000000
  time 12
    0 -9.038578 -20.591611 -35.263554 0.000000 0.000000 -1.570795
    1 -0.000002 0.000000 0.000000 -0.000086 -1.570451 -1.570709
    2 4.443614 -0.009643 0.000006 -0.000004 -0.000001 0.000796
    3 12.111414 -0.011449 0.000000 0.000000 0.000000 0.000000
    4 0.000007 0.011443 1.352404 0.971004 -1.226034 2.198349
    5 6.078085 0.000000 -0.000001 -0.275555 0.519600 -0.958697
    6 13.446753 0.000002 -0.000003 0.000000 0.000000 -0.998830
    7 15.997000 0.000004 -0.000003 -0.947337 -0.517560 0.299342
    8 1.885325 0.833278 -2.177876 -1.269183 0.640222 0.521791
    9 1.506967 -0.000004 -0.000001 0.000000 0.000000 -0.696369
    10 0.798343 0.000000 -0.000001 0.000000 0.000000 -0.670190
    11 3.950306 -0.539877 -2.108872 0.083518 0.133195 0.567490
    12 1.545796 0.000000 0.000001 0.000000 0.000000 1.333406
    13 1.667395 -0.000005 -0.000002 0.000000 0.000000 1.298525
    14 3.899459 -0.475375 -1.170890 -0.000676 0.000419 0.561979
    15 1.528214 0.000001 0.000000 0.000000 0.000000 1.193779
    16 1.528215 0.000001 -0.000003 0.000000 0.000000 1.342132
    17 3.899458 -0.431803 0.168224 -0.000676 0.000419 0.561979
    18 1.506965 0.000000 0.000000 0.000000 0.000000 1.289772
    19 1.506961 -0.000002 0.000000 0.000000 0.000000 1.202506
    20 3.915631 -0.278018 1.402609 -0.000676 0.000419 0.561979
    21 1.333081 0.000003 0.000001 0.000000 0.000000 1.499212
    22 1.159203 -0.000002 -0.000001 0.000000 0.000000 1.080333
    23 0.000008 0.011451 -1.352403 -0.000014 1.370796 3.140783
    24 6.078088 0.000002 0.000002 1.229805 -0.481818 -1.389569
    25 13.446753 0.000002 0.000003 0.000000 0.000000 -0.442320
    26 15.996996 -0.000001 -0.000001 1.570695 -0.006927 0.016611
    27 -9.849934 -2.629987 3.992560 1.582244 -0.018583 -3.126154
    28 1.895213 2.808690 0.074532 0.000000 0.000000 0.000000
    29 -7.410141 -0.113607 -0.123966 0.000000 0.000000 0.000000
    30 -43.188030 1.691171 -0.053446 0.000000 0.000000 0.000000
  time 13
    0 -9.038578 -20.591611 -35.263554 0.000000 0.000000 -1.570795
    1 -0.000002 0.000000 0.000000 -0.000086 -1.570451 -1.570709
    2 4.443614 -0.009643 0.000006 -0.000004 -0.000001 0.000796
    3 12.111414 -0.011449 0.000000 0.000000 0.000000 0.000000
    4 0.000007 0.011443 1.352404 0.971004 -1.226034 2.198349
    5 6.078085 0.000000 -0.000001 -0.286731 0.494446 -0.957796
    6 13.446753 0.000002 -0.000003 0.000000 0.000000 -1.018637
    7 15.997000 0.000004 -0.000003 -0.950126 -0.522214 0.306958
    8 1.885325 0.833278 -2.177876 -1.269183 0.640222 0.521791
    9 1.506967 -0.000004 -0.000001 0.000000 0.000000 -0.696369
    10 0.798343 0.000000 -0.000001 0.000000 0.000000 -0.670190
    11 3.950306 -0.539877 -2.108872 0.083518 0.133195 0.567490
    12 1.545796 0.000000 0.000001 0.000000 0.000000 1.333406
    13 1.667395 -0.000005 -0.000002 0.000000 0.000000 1.298525
    14 3.899459 -0.475375 -1.170890 -0.000676 0.000419 0.561979
    15 1.528214 0.000001 0.000000 0.000000 0.000000 1.193805
    16 1.528215 0.000001 -0.000003 0.000000 0.000000 1.342132
    17 3.899458 -0.431803 0.168224 -0.000676 0.000419 0.561979
    18 1.506965 0.000000 0.000000 0.000000 0.000000 1.289772
    19 1.506961 -0.000002 0.000000 0.000000 0.000000 1.202506
    20 3.915631 -0.278018 1.402609 -0.000676 0.000419 0.561979
    21 1.333081 0.000003 0.000001 0.000000 0.000000 1.499212
    22 1.159203 -0.000002 -0.000001 0.000000 0.000000 1.080333
    23 0.000008 0.011451 -1.352403 -0.000014 1.370796 3.140783
    24 6.078088 0.000002 0.000002 1.233149 -0.463295 -1.396924
    25 13.446753 0.000002 0.000003 0.000000 0.000000 -0.469984
    26 15.996996 -0.000001 -0.000001 1.562306 -0.007874 0.028129
    27 -9.849934 -2.629987 3.992560 1.582244 -0.018583 -3.126154
    28 1.895213 2.808690 0.074532 0.000000 0.000000 0.000000
    29 -7.410141 -0.113607 -0.123966 0.000000 0.000000 0.000000
    30 -43.188030 1.691171 -0.053446 0.000000 0.000000 0.000000
  time 14
    0 -9.038578 -20.591611 -35.263554 0.000000 0.000000 -1.570795
    1 -0.000002 0.000000 0.000000 -0.000086 -1.570451 -1.570709
    2 4.443614 -0.009643 0.000006 -0.000004 -0.000001 0.000796
    3 12.111414 -0.011449 0.000000 0.000000 0.000000 0.000000
    4 0.000007 0.011443 1.352404 0.971004 -1.226034 2.198349
    5 6.078085 0.000000 -0.000001 -0.297977 0.469655 -0.957128
    6 13.446753 0.000002 -0.000003 0.000000 0.000000 -1.037650
    7 15.997000 0.000004 -0.000003 -0.952914 -0.525850 0.314800
    8 1.885325 0.833278 -2.177876 -1.269183 0.640222 0.521791
    9 1.506967 -0.000004 -0.000001 0.000000 0.000000 -0.696369
    10 0.798343 0.000000 -0.000001 0.000000 0.000000 -0.670190
    11 3.950306 -0.539877 -2.108872 0.083518 0.133195 0.567490
    12 1.545796 0.000000 0.000001 0.000000 0.000000 1.333406
    13 1.667395 -0.000005 -0.000002 0.000000 0.000000 1.298499
    14 3.899459 -0.475375 -1.170890 -0.000676 0.000419 0.561979
    15 1.528214 0.000001 0.000000 0.000000 0.000000 1.193805
    16 1.528215 0.000001 -0.000003 0.000000 0.000000 1.342132
    17 3.899458 -0.431803 0.168224 -0.000676 0.000419 0.561979
    18 1.506965 0.000000 0.000000 0.000000 0.000000 1.289772
    19 1.506961 -0.000002 0.000000 0.000000 0.000000 1.202506
    20 3.915631 -0.278018 1.402609 -0.000676 0.000419 0.561979
    21 1.333081 0.000003 0.000001 0.000000 0.000000 1.499238
    22 1.159203 -0.000002 -0.000001 0.000000 0.000000 1.080333
    23 0.000008 0.011451 -1.352403 -0.000014 1.370796 3.140783
    24 6.078088 0.000002 0.000002 1.236361 -0.444491 -1.404231
    25 13.446753 0.000002 0.000003 0.000000 0.000000 -0.495828
    26 15.996996 -0.000001 -0.000001 1.554444 -0.008689 0.039603
    27 -9.849934 -2.629987 3.992560 1.582244 -0.018583 -3.126154
    28 1.895213 2.808690 0.074532 0.000000 0.000000 0.000000
    29 -7.410141 -0.113607 -0.123966 0.000000 0.000000 0.000000
    30 -43.188030 1.691171 -0.053446 0.000000 0.000000 0.000000
  time 15
    0 -9.038578 -20.591611 -35.263554 0.000000 0.000000 -1.570795
    1 -0.000002 0.000000 0.000000 -0.000086 -1.570451 -1.570709
    2 4.443614 -0.009643 0.000006 -0.000004 -0.000001 0.000796
    3 12.111414 -0.011449 0.000000 0.000000 0.000000 0.000000
    4 0.000007 0.011443 1.352404 0.971004 -1.226034 2.198349
    5 6.078085 0.000000 -0.000001 -0.309295 0.445155 -0.956661
    6 13.446753 0.000002 -0.000003 0.000000 0.000000 -1.055746
    7 15.997000 0.000004 -0.000003 -0.955677 -0.528306 0.322919
    8 1.885325 0.833278 -2.177876 -1.269183 0.640222 0.521791
    9 1.506967 -0.000004 -0.000001 0.000000 0.000000 -0.696369
    10 0.798343 0.000000 -0.000001 0.000000 0.000000 -0.670190
    11 3.950306 -0.539877 -2.108872 0.083518 0.133195 0.567490
    12 1.545796 0.000000 0.000001 0.000000 0.000000 1.333406
    13 1.667395 -0.000005 -0.000002 0.000000 0.000000 1.298525
    14 3.899459 -0.475375 -1.170890 -0.000676 0.000419 0.561979
    15 1.528214 0.000001 0.000000 0.000000 0.000000 1.193805
    16 1.528215 0.000001 -0.000003 0.000000 0.000000 1.342132
    17 3.899458 -0.431803 0.168224 -0.000676 0.000419 0.561979
    18 1.506965 0.000000 0.000000 0.000000 0.000000 1.289772
    19 1.506961 -0.000002 0.000000 0.000000 0.000000 1.202506
    20 3.915631 -0.278018 1.402609 -0.000676 0.000419 0.561979
    21 1.333081 0.000003 0.000001 0.000000 0.000000 1.499238
    22 1.159203 -0.000002 -0.000001 0.000000 0.000000 1.080333
    23 0.000008 0.011451 -1.352403 -0.000014 1.370796 3.140783
    24 6.078088 0.000002 0.000002 1.239429 -0.425380 -1.411520
    25 13.446753 0.000002 0.000003 0.000000 0.000000 -0.519650
    26 15.996996 -0.000001 -0.000001 1.547181 -0.009372 0.051048
    27 -9.849934 -2.629987 3.992560 1.582244 -0.018583 -3.126154
    28 1.895213 2.808690 0.074532 0.000000 0.000000 0.000000
    29 -7.410141 -0.113607 -0.123966 0.000000 0.000000 0.000000
    30 -43.188030 1.691171 -0.053446 0.000000 0.000000 0.000000
  time 16
    0 -9.038578 -20.591611 -35.263554 0.000000 0.000000 -1.570795
    1 -0.000002 0.000000 0.000000 -0.000086 -1.570451 -1.570709
    2 4.443614 -0.009643 0.000006 -0.000004 -0.000001 0.000796
    3 12.111414 -0.011449 0.000000 0.000000 0.000000 0.000000
    4 0.000007 0.011443 1.352404 0.971004 -1.226034 2.198349
    5 6.078085 0.000000 -0.000001 -0.320577 0.420994 -0.956528
    6 13.446753 0.000002 -0.000003 0.000000 0.000000 -1.072680
    7 15.997000 0.000004 -0.000003 -0.958492 -0.529469 0.331314
    8 1.885325 0.833278 -2.177876 -1.269183 0.640222 0.521791
    9 1.506967 -0.000004 -0.000001 0.000000 0.000000 -0.696369
    10 0.798343 0.000000 -0.000001 0.000000 0.000000 -0.670190
    11 3.950306 -0.539877 -2.108872 0.083518 0.133195 0.567490
    12 1.545796 0.000000 0.000001 0.000000 0.000000 1.333406
    13 1.667395 -0.000005 -0.000002 0.000000 0.000000 1.298525
    14 3.899459 -0.475375 -1.170890 -0.000676 0.000419 0.561979
    15 1.528214 0.000001 0.000000 0.000000 0.000000 1.193805
    16 1.528215 0.000001 -0.000003 0.000000 0.000000 1.342132
    17 3.899458 -0.431803 0.168224 -0.000676 0.000419 0.561979
    18 1.506965 0.000000 0.000000 0.000000 0.000000 1.289772
    19 1.506961 -0.000002 0.000000 0.000000 0.000000 1.202506
    20 3.915631 -0.278018 1.402609 -0.000676 0.000419 0.561979
    21 1.333081 0.000003 0.000001 0.000000 0.000000 1.499212
    22 1.159203 -0.000002 -0.000001 0.000000 0.000000 1.080333
    23 0.000008 0.011451 -1.352403 -0.000014 1.370796 3.140783
    24 6.078088 0.000002 0.000002 1.242365 -0.405911 -1.418794
    25 13.446753 0.000002 0.000003 0.000000 0.000000 -0.541166
    26 15.996996 -0.000001 -0.000001 1.540614 -0.009923 0.062434
    27 -9.849934 -2.629987 3.992560 1.582244 -0.018583 -3.126154
    28 1.895213 2.808690 0.074532 0.000000 0.000000 0.000000
    29 -7.410141 -0.113607 -0.123966 0.000000 0.000000 0.000000
    30 -43.188030 1.691171 -0.053446 0.000000 0.000000 0.000000
  time 17
    0 -9.038578 -20.591611 -35.263554 0.000000 0.000000 -1.570795
    1 -0.000002 0.000000 0.000000 -0.000086 -1.570451 -1.570709
    2 4.443614 -0.009643 0.000006 -0.000004 -0.000001 0.000796
    3 12.111414 -0.011449 0.000000 0.000000 0.000000 0.000000
    4 0.000007 0.011443 1.352404 0.971004 -1.226034 2.198349
    5 6.078085 0.000000 -0.000001 -0.331859 0.397172 -0.956761
    6 13.446753 0.000002 -0.000003 0.000000 0.000000 -1.088269
    7 15.997000 0.000004 -0.000003 -0.961306 -0.529194 0.340036
    8 1.885325 0.833278 -2.177876 -1.269183 0.640222 0.521791
    9 1.506967 -0.000004 -0.000001 0.000000 0.000000 -0.696369
    10 0.798343 0.000000 -0.000001 0.000000 0.000000 -0.670190
    11 3.950306 -0.539877 -2.108872 0.083518 0.133195 0.567490
    12 1.545796 0.000000 0.000001 0.000000 0.000000 1.333406
    13 1.667395 -0.000005 -0.000002 0.000000 0.000000 1.298525
    14 3.899459 -0.475375 -1.170890 -0.000676 0.000419 0.561979
    15 1.528214 0.000001 0.000000 0.000000 0.000000 1.193805
    16 1.528215 0.000001 -0.000003 0.000000 0.000000 1.342132
    17 3.899458 -0.431803 0.168224 -0.000676 0.000419 0.561979
    18 1.506965 0.000000 0.000000 0.000000 0.000000 1.289772
    19 1.506961 -0.000002 0.000000 0.000000 0.000000 1.202506
    20 3.915631 -0.278018 1.402609 -0.000676 0.000419 0.561979
    21 1.333081 0.000003 0.000001 0.000000 0.000000 1.499212
    22 1.159203 -0.000002 -0.000001 0.000000 0.000000 1.080333
    23 0.000008 0.011451 -1.352403 -0.000014 1.370796 3.140783
    24 6.078088 0.000002 0.000002 1.245182 -0.386083 -1.426084
    25 13.446753 0.000002 0.000003 0.000000 0.000000 -0.560094
    26 15.996996 -0.000001 -0.000001 1.534813 -0.010367 0.073762
    27 -9.849934 -2.629987 3.992560 1.582244 -0.018583 -3.126154
    28 1.895213 2.808690 0.074532 0.000000 0.000000 0.000000
    29 -7.410141 -0.113607 -0.123966 0.000000 0.000000 0.000000
    30 -43.188030 1.691171 -0.053446 0.000000 0.000000 0.000000
  time 18
    0 -9.038578 -20.591611 -35.263554 0.000000 0.000000 -1.570795
    1 -0.000002 0.000000 0.000000 -0.000086 -1.570451 -1.570709
    2 4.443614 -0.009643 0.000006 -0.000004 -0.000001 0.000796
    3 12.111414 -0.011449 0.000000 0.000000 0.000000 0.000000
    4 0.000007 0.011443 1.352404 0.971004 -1.226034 2.198349
    5 6.078085 0.000000 -0.000001 -0.343035 0.373616 -0.957362
    6 13.446753 0.000002 -0.000003 0.000000 0.000000 -1.102391
    7 15.997000 0.000004 -0.000003 -0.964171 -0.527385 0.349136
    8 1.885325 0.833278 -2.177876 -1.269183 0.640222 0.521791
    9 1.506967 -0.000004 -0.000001 0.000000 0.000000 -0.696369
    10 0.798343 0.000000 -0.000001 0.000000 0.000000 -0.670190
    11 3.950306 -0.539877 -2.108872 0.083518 0.133195 0.567490
    12 1.545796 0.000000 0.000001 0.000000 0.000000 1.333406
    13 1.667395 -0.000005 -0.000002 0.000000 0.000000 1.298499
    14 3.899459 -0.475375 -1.170890 -0.000676 0.000419 0.561979
    15 1.528214 0.000001 0.000000 0.000000 0.000000 1.193805
    16 1.528215 0.000001 -0.000003 0.000000 0.000000 1.342132
    17 3.899458 -0.431803 0.168224 -0.000676 0.000419 0.561979
    18 1.506965 0.000000 0.000000 0.000000 0.000000 1.289772
    19 1.506961 -0.000002 0.000000 0.000000 0.000000 1.202506
    20 3.915631 -0.278018 1.402609 -0.000676 0.000419 0.561979
    21 1.333081 0.000003 0.000001 0.000000 0.000000 1.499212
    22 1.159203 -0.000002 -0.000001 0.000000 0.000000 1.080333
    23 0.000008 0.011451 -1.352403 -0.000014 1.370796 3.140783
    24 6.078088 0.000002 0.000002 1.247866 -0.365847 -1.433406
    25 13.446753 0.000002 0.000003 0.000000 0.000000 -0.576191
    26 15.996996 -0.000001 -0.000001 1.529864 -0.010702 0.085031
    27 -9.849934 -2.629987 3.992560 1.582244 -0.018583 -3.126154
    28 1.895213 2.808690 0.074532 0.000000 0.000000 0.000000
    29 -7.410141 -0.113607 -0.123966 0.000000 0.000000 0.000000
    30 -43.188030 1.691171 -0.053446 0.000000 0.000000 0.000000
  time 19
    0 -9.038578 -20.591611 -35.263554 0.000000 0.000000 -1.570795
    1 -0.000002 0.000000 0.000000 -0.000086 -1.570451 -1.570709
    2 4.443614 -0.009643 0.000006 -0.000004 -0.000001 0.000796
    3 12.111414 -0.011449 0.000000 0.000000 0.000000 0.000000
    4 0.000007 0.011443 1.352404 0.971004 -1.226034 2.198349
    5 6.078085 0.000000 -0.000001 -0.354068 0.350374 -0.958397
    6 13.446753 0.000002 -0.000003 0.000000 0.000000 -1.114862
    7 15.997000 0.000004 -0.000003 -0.967088 -0.523878 0.358612
    8 1.885325 0.833278 -2.177876 -1.269183 0.640222 0.521791
    9 1.506967 -0.000004 -0.000001 0.000000 0.000000 -0.696369
    10 0.798343 0.000000 -0.000001 0.000000 0.000000 -0.670190
    11 3.950306 -0.539877 -2.108872 0.083518 0.133195 0.567490
    12 1.545796 0.000000 0.000001 0.000000 0.000000 1.333406
    13 1.667395 -0.000005 -0.000002 0.000000 0.000000 1.298525
    14 3.899459 -0.475375 -1.170890 -0.000676 0.000419 0.561979
    15 1.528214 0.000001 0.000000 0.000000 0.000000 1.193779
    16 1.528215 0.000001 -0.000003 0.000000 0.000000 1.342132
    17 3.899458 -0.431803 0.168224 -0.000676 0.000419 0.561979
    18 1.506965 0.000000 0.000000 0.000000 0.000000 1.289772
    19 1.506961 -0.000002 0.000000 0.000000 0.000000 1.202506
    20 3.915631 -0.278018 1.402609 -0.000676 0.000419 0.561979
    21 1.333081 0.000003 0.000001 0.000000 0.000000 1.499212
    22 1.159203 -0.000002 -0.000001 0.000000 0.000000 1.080333
    23 0.000008 0.011451 -1.352403 -0.000014 1.370796 3.140783
    24 6.078088 0.000002 0.000002 1.250431 -0.345150 -1.440761
    25 13.446753 0.000002 0.000003 0.000000 0.000000 -0.589174
    26 15.996996 -0.000001 -0.000001 1.525849 -0.010942 0.096213
    27 -9.849934 -2.629987 3.992560 1.582244 -0.018583 -3.126154
    28 1.895213 2.808690 0.074532 0.000000 0.000000 0.000000
    29 -7.410141 -0.113607 -0.123966 0.000000 0.000000 0.000000
    30 -43.188030 1.691171 -0.053446 0.000000 0.000000 0.000000
  time 20
    0 -9.038578 -20.591611 -35.263554 0.000000 0.000000 -1.570795
    1 -0.000002 0.000000 0.000000 -0.000086 -1.570451 -1.570709
    2 4.443614 -0.009643 0.000006 -0.000004 -0.000001 0.000796
    3 12.111414 -0.011449 0.000000 0.000000 0.000000 0.000000
    4 0.000007 0.011443 1.352404 0.971004 -1.226034 2.198349
    5 6.078085 0.000000 -0.000001 -0.364251 0.328174 -0.962101
    6 13.446753 0.000002 -0.000003 0.000000 0.000000 -1.119386
    7 15.997000 0.000004 -0.000003 -0.971028 -0.509417 0.372411
    8 1.885325 0.833278 -2.177876 -1.269183 0.640222 0.521791
    9 1.506967 -0.000004 -0.000001 0.000000 0.000000 -0.696369
    10 0.798343 0.000000 -0.000001 0.000000 0.000000 -0.670190
    11 3.950306 -0.539877 -2.108872 0.083518 0.133195 0.567490
    12 1.545796 0.000000 0.000001 0.000000 0.000000 1.333406
    13 1.667395 -0.000005 -0.000002 0.000000 0.000000 1.298525
    14 3.899459 -0.475375 -1.170890 -0.000676 0.000419 0.561979
    15 1.528214 0.000001 0.000000 0.000000 0.000000 1.193805
    16 1.528215 0.000001 -0.000003 0.000000 0.000000 1.342132
    17 3.899458 -0.431803 0.168224 -0.000676 0.000419 0.561979
    18 1.506965 0.000000 0.000000 0.000000 0.000000 1.289772
    19 1.506961 -0.000002 0.000000 0.000000 0.000000 1.202506
    20 3.915631 -0.278018 1.402609 -0.000676 0.000419 0.561979
    21 1.333081 0.000003 0.000001 0.000000 0.000000 1.499238
    22 1.159203 -0.000002 -0.000001 0.000000 0.000000 1.080333
    23 0.000008 0.011451 -1.352403 -0.000014 1.370796 3.140783
    24 6.078088 0.000002 0.000002 1.253091 -0.321894 -1.448881
    25 13.446753 0.000002 0.000003 0.000000 0.000000 -0.586100
    26 15.996996 -0.000001 -0.000001 1.526640 -0.010942 0.109868
    27 -9.849934 -2.629987 3.992560 1.582244 -0.018583 -3.126154
    28 1.895213 2.808690 0.074532 0.000000 0.000000 0.000000
    29 -7.410141 -0.113607 -0.123966 0.000000 0.000000 0.000000
    30 -43.188030 1.691171 -0.053446 0.000000 0.000000 0.000000
  time 21
    0 -9.038578 -20.591611 -35.263554 0.000000 0.000000 -1.570795
    1 -0.000002 0.000000 0.000000 -0.000086 -1.570451 -1.570709
    2 4.443614 -0.009643 0.000006 -0.000004 -0.000001 0.000796
    3 12.111414 -0.011449 0.000000 0.000000 0.000000 0.000000
    4 0.000007 0.011443 1.352404 0.971004 -1.226034 2.198349
    5 6.078085 0.000000 -0.000001 -0.372872 0.307572 -0.969842
    6 13.446753 0.000002 -0.000003 0.000000 0.000000 -1.111806
    7 15.997000 0.000004 -0.000003 -0.975582 -0.479185 0.391489
    8 1.885325 0.833278 -2.177876 -1.269183 0.640222 0.521791
    9 1.506967 -0.000004 -0.000001 0.000000 0.000000 -0.696369
    10 0.798343 0.000000 -0.000001 0.000000 0.000000 -0.670190
    11 3.950306 -0.539877 -2.108872 0.083518 0.133195 0.567490
    12 1.545796 0.000000 0.000001 0.000000 0.000000 1.333406
    13 1.667395 -0.000005 -0.000002 0.000000 0.000000 1.298499
    14 3.899459 -0.475375 -1.170890 -0.000676 0.000419 0.561979
    15 1.528214 0.000001 0.000000 0.000000 0.000000 1.193805
    16 1.528215 0.000001 -0.000003 0.000000 0.000000 1.342132
    17 3.899458 -0.431803 0.168224 -0.000676 0.000419 0.561979
    18 1.506965 0.000000 0.000000 0.000000 0.000000 1.289772
    19 1.506961 -0.000002 0.000000 0.000000 0.000000 1.202506
    20 3.915631 -0.278018 1.402609 -0.000676 0.000419 0.561979
    21 1.333081 0.000003 0.000001 0.000000 0.000000 1.499212
    22 1.159203 -0.000002 -0.000001 0.000000 0.000000 1.080333
    23 0.000008 0.011451 -1.352403 -0.000014 1.370796 3.140783
    24 6.078088 0.000002 0.000002 1.255896 -0.294954 -1.458140
    25 13.446753 0.000002 0.000003 0.000000 0.000000 -0.558962
    26 15.996996 -0.000001 -0.000001 1.534681 -0.010738 0.126347
    27 -9.849934 -2.629987 3.992560 1.582244 -0.018583 -3.126154
    28 1.895213 2.808690 0.074532 0.000000 0.000000 0.000000
    29 -7.410141 -0.113607 -0.123966 0.000000 0.000000 0.000000
    30 -43.188030 1.691171 -0.053446 0.000000 0.000000 0.000000
  time 22
    0 -9.038578 -20.591611 -35.263554 0.000000 0.000000 -1.570795
    1 -0.000002 0.000000 0.000000 -0.000086 -1.570451 -1.570709
    2 4.443614 -0.009643 0.000006 -0.000004 -0.000001 0.000796
    3 12.111414 -0.011449 0.000000 0.000000 0.000000 0.000000
    4 0.000007 0.011443 1.352404 0.971004 -1.226034 2.198349
    5 6.078085 0.000000 -0.000001 -0.379826 0.288446 -0.980320
    6 13.446753 0.000002 -0.000003 0.000000 0.000000 -1.095605
    7 15.997000 0.000004 -0.000003 -0.978652 -0.439791 0.411623
    8 1.885325 0.833278 -2.177876 -1.269183 0.640222 0.521791
    9 1.506967 -0.000004 -0.000001 0.000000 0.000000 -0.696369
    10 0.798343 0.000000 -0.000001 0.000000 0.000000 -0.670190
    11 3.950306 -0.539877 -2.108872 0.083518 0.133195 0.567490
    12 1.545796 0.000000 0.000001 0.000000 0.000000 1.333406
    13 1.667395 -0.000005 -0.000002 0.000000 0.000000 1.298499
    14 3.899459 -0.475375 -1.170890 -0.000676 0.000419 0.561979
    15 1.528214 0.000001 0.000000 0.000000 0.000000 1.193805
    16 1.528215 0.000001 -0.000003 0.000000 0.000000 1.342132
    17 3.899458 -0.431803 0.168224 -0.000676 0.000419 0.561979
    18 1.506965 0.000000 0.000000 0.000000 0.000000 1.289772
    19 1.506961 -0.000002 0.000000 0.000000 0.000000 1.202506
    20 3.915631 -0.278018 1.402609 -0.000676 0.000419 0.561979
    21 1.333081 0.000003 0.000001 0.000000 0.000000 1.499212
    22 1.159203 -0.000002 -0.000001 0.000000 0.000000 1.080333
    23 0.000008 0.011451 -1.352403 -0.000014 1.370796 3.140783
    24 6.078088 0.000002 0.000002 1.258640 -0.265584 -1.468050
    25 13.446753 0.000002 0.000003 0.000000 0.000000 -0.514877
    26 15.996996 -0.000001 -0.000001 1.547828 -0.010582 0.142431
    27 -9.849934 -2.629987 3.992560 1.582244 -0.018583 -3.126154
    28 1.895213 2.808690 0.074532 0.000000 0.000000 0.000000
    29 -7.410141 -0.113607 -0.123966 0.000000 0.000000 0.000000
    30 -43.188030 1.691171 -0.053446 0.000000 0.000000 0.000000
  time 23
    0 -9.038578 -20.591611 -35.263554 0.000000 0.000000 -1.570795
    1 -0.000002 0.000000 0.000000 -0.000086 -1.570451 -1.570709
    2 4.443614 -0.009643 0.000006 -0.000004 -0.000001 0.000796
    3 12.111414 -0.011449 0.000000 0.000000 0.000000 0.000000
    4 0.000007 0.011443 1.352404 0.971004 -1.226034 2.198349
    5 6.078085 0.000000 -0.000001 -0.385183 0.270797 -0.992200
    6 13.446753 0.000002 -0.000003 0.000000 0.000000 -1.074514
    7 15.997000 0.000004 -0.000003 -0.978908 -0.398023 0.429344
    8 1.885325 0.833278 -2.177876 -1.269183 0.640222 0.521791
    9 1.506967 -0.000004 -0.000001 0.000000 0.000000 -0.696369
    10 0.798343 0.000000 -0.000001 0.000000 0.000000 -0.670190
    11 3.950306 -0.539877 -2.108872 0.083518 0.133195 0.567490
    12 1.545796 0.000000 0.000001 0.000000 0.000000 1.333406
    13 1.667395 -0.000005 -0.000002 0.000000 0.000000 1.298525
    14 3.899459 -0.475375 -1.170890 -0.000676 0.000419 0.561979
    15 1.528214 0.000001 0.000000 0.000000 0.000000 1.193805
    16 1.528215 0.000001 -0.000003 0.000000 0.000000 1.342132
    17 3.899458 -0.431803 0.168224 -0.000676 0.000419 0.561979
    18 1.506965 0.000000 0.000000 0.000000 0.000000 1.289772
    19 1.506961 -0.000002 0.000000 0.000000 0.000000 1.202506
    20 3.915631 -0.278018 1.402609 -0.000676 0.000419 0.561979
    21 1.333081 0.000003 0.000001 0.000000 0.000000 1.499212
    22 1.159203 -0.000002 -0.000001 0.000000 0.000000 1.080333
    23 0.000008 0.011451 -1.352403 -0.000014 1.370796 3.140783
    24 6.078088 0.000002 0.000002 1.261145 -0.235165 -1.478139
    25 13.446753 0.000002 0.000003 0.000000 0.000000 -0.461006
    26 15.996996 -0.000001 -0.000001 1.563972 -0.010558 0.154871
    27 -9.849934 -2.629987 3.992560 1.582244 -0.018583 -3.126154
    28 1.895213 2.808690 0.074532 0.000000 0.000000 0.000000
    29 -7.410141 -0.113607 -0.123966 0.000000 0.000000 0.000000
    30 -43.188030 1.691171 -0.053446 0.000000 0.000000 0.000000
  time 24
    0 -9.038578 -20.591611 -35.263554 0.000000 0.000000 -1.570795
    1 -0.000002 0.000000 0.000000 -0.000086 -1.570451 -1.570709
    2 4.443614 -0.009643 0.000006 -0.000004 -0.000001 0.000796
    3 12.111414 -0.011449 0.000000 0.000000 0.000000 0.000000
    4 0.000007 0.011443 1.352404 0.971004 -1.226034 2.198349
    5 6.078085 0.000000 -0.000001 -0.389050 0.254673 -1.003979
    6 13.446753 0.000002 -0.000003 0.000000 0.000000 -1.052506
    7 15.997000 0.000004 -0.000003 -0.975940 -0.360794 0.441836
    8 1.885325 0.833278 -2.177876 -1.269183 0.640222 0.521791
    9 1.506967 -0.000004 -0.000001 0.000000 0.000000 -0.696369
    10 0.798343 0.000000 -0.000001 0.000000 0.000000 -0.670190
    11 3.950306 -0.539877 -2.108872 0.083518 0.133195 0.567490
    12 1.545796 0.000000 0.000001 0.000000 0.000000 1.333406
    13 1.667395 -0.000005 -0.000002 0.000000 0.000000 1.298499
    14 3.899459 -0.475375 -1.170890 -0.000676 0.000419 0.561979
    15 1.528214 0.000001 0.000000 0.000000 0.000000 1.193805
    16 1.528215 0.000001 -0.000003 0.000000 0.000000 1.342132
    17 3.899458 -0.431803 0.168224 -0.000676 0.000419 0.561979
    18 1.506965 0.000000 0.000000 0.000000 0.000000 1.289772
    19 1.506961 -0.000002 0.000000 0.000000 0.000000 1.202506
    20 3.915631 -0.278018 1.402609 -0.000676 0.000419 0.561979
    21 1.333081 0.000003 0.000001 0.000000 0.000000 1.499212
    22 1.159203 -0.000002 -0.000001 0.000000 0.000000 1.080333
    23 0.000008 0.011451 -1.352403 -0.000014 1.370796 3.140783
    24 6.078088 0.000002 0.000002 1.263290 -0.205002 -1.487999
    25 13.446753 0.000002 0.000003 0.000000 0.000000 -0.404545
    26 15.996996 -0.000001 -0.000001 1.580978 -0.010606 0.160433
    27 -9.849934 -2.629987 3.992560 1.582244 -0.018583 -3.126154
    28 1.895213 2.808690 0.074532 0.000000 0.000000 0.000000
    29 -7.410141 -0.113607 -0.123966 0.000000 0.000000 0.000000
    30 -43.188030 1.691171 -0.053446 0.000000 0.000000 0.000000
  time 25
    0 -9.038578 -20.591611 -35.263554 0.000000 0.000000 -1.570795
    1 -0.000002 0.000000 0.000000 -0.000086 -1.570451 -1.570709
    2 4.443614 -0.009643 0.000006 -0.000004 -0.000001 0.000796
    3 12.111414 -0.011449 0.000000 0.000000 0.000000 0.000000
    4 0.000007 0.011443 1.352404 0.971004 -1.226034 2.198349
    5 6.078085 0.000000 -0.000001 -0.391711 0.240051 -1.014090
    6 13.446753 0.000002 -0.000003 0.000000 0.000000 -1.033493
    7 15.997000 0.000004 -0.000003 -0.970056 -0.335071 0.446863
    8 1.885325 0.833278 -2.177876 -1.269183 0.640222 0.521791
    9 1.506967 -0.000004 -0.000001 0.000000 0.000000 -0.696369
    10 0.798343 0.000000 -0.000001 0.000000 0.000000 -0.670190
    11 3.950306 -0.539877 -2.108872 0.083518 0.133195 0.567490
    12 1.545796 0.000000 0.000001 0.000000 0.000000 1.333406
    13 1.667395 -0.000005 -0.000002 0.000000 0.000000 1.298525
    14 3.899459 -0.475375 -1.170890 -0.000676 0.000419 0.561979
    15 1.528214 0.000001 0.000000 0.000000 0.000000 1.193779
    16 1.528215 0.000001 -0.000003 0.000000 0.000000 1.342132
    17 3.899458 -0.431803 0.168224 -0.000676 0.000419 0.561979
    18 1.506965 0.000000 0.000000 0.000000 0.000000 1.289772
    19 1.506961 -0.000002 0.000000 0.000000 0.000000 1.202506
    20 3.915631 -0.278018 1.402609 -0.000676 0.000419 0.561979
    21 1.333081 0.000003 0.000001 0.000000 0.000000 1.499212
    22 1.159203 -0.000002 -0.000001 0.000000 0.000000 1.080333
    23 0.000008 0.011451 -1.352403 -0.000014 1.370796 3.140783
    24 6.078088 0.000002 0.000002 1.265040 -0.176425 -1.497209
    25 13.446753 0.000002 0.000003 0.000000 0.000000 -0.352615
    26 15.996996 -0.000001 -0.000001 1.596726 -0.010475 0.155881
    27 -9.849934 -2.629987 3.992560 1.582244 -0.018583 -3.126154
    28 1.895213 2.808690 0.074532 0.000000 0.000000 0.000000
    29 -7.410141 -0.113607 -0.123966 0.000000 0.000000 0.000000
    30 -43.188030 1.691171 -0.053446 0.000000 0.000000 0.000000
  time 26
    0 -9.038578 -20.591611 -35.263554 0.000000 0.000000 -1.570795
    1 -0.000002 0.000000 0.000000 -0.000086 -1.570451 -1.570709
    2 4.443614 -0.009643 0.000006 -0.000004 -0.000001 0.000796
    3 12.111414 -0.011449 0.000000 0.000000 0.000000 0.000000
    4 0.000007 0.011443 1.352404 0.971004 -1.226034 2.198349
    5 6.078085 0.000000 -0.000001 -0.392420 0.228236 -1.022599
    6 13.446753 0.000002 -0.000003 0.000000 0.000000 -1.016497
    7 15.997000 0.000004 -0.000003 -0.960487 -0.323485 0.442113
    8 1.885325 0.833278 -2.177876 -1.269183 0.640222 0.521791
    9 1.506967 -0.000004 -0.000001 0.000000 0.000000 -0.696369
    10 0.798343 0.000000 -0.000001 0.000000 0.000000 -0.670190
    11 3.950306 -0.539877 -2.108872 0.083518 0.133195 0.567490
    12 1.545796 0.000000 0.000001 0.000000 0.000000 1.333406
    13 1.667395 -0.000005 -0.000002 0.000000 0.000000 1.298525
    14 3.899459 -0.475375 -1.170890 -0.000676 0.000419 0.561979
    15 1.528214 0.000001 0.000000 0.000000 0.000000 1.193779
    16 1.528215 0.000001 -0.000003 0.000000 0.000000 1.342158
    17 3.899458 -0.431803 0.168224 -0.000676 0.000419 0.561979
    18 1.506965 0.000000 0.000000 0.000000 0.000000 1.289772
    19 1.506961 -0.000002 0.000000 0.000000 0.000000 1.202506
    20 3.915631 -0.278018 1.402609 -0.000676 0.000419 0.561979
    21 1.333081 0.000003 0.000001 0.000000 0.000000 1.499212
    22 1.159203 -0.000002 -0.000001 0.000000 0.000000 1.080333
    23 0.000008 0.011451 -1.352403 -0.000014 1.370796 3.140783
    24 6.078088 0.000002 0.000002 1.266430 -0.149485 -1.505801
    25 13.446753 0.000002 0.000003 0.000000 0.000000 -0.301938
    26 15.996996 -0.000001 -0.000001 1.612258 -0.009743 0.136299
    27 -9.849934 -2.629987 3.992560 1.582244 -0.018583 -3.126154
    28 1.895213 2.808690 0.074532 0.000000 0.000000 0.000000
    29 -7.410141 -0.113607 -0.123966 0.000000 0.000000 0.000000
    30 -43.188030 1.691171 -0.053446 0.000000 0.000000 0.000000
  time 27
    0 -9.038578 -20.591611 -35.263554 0.000000 0.000000 -1.570795
    1 -0.000002 0.000000 0.000000 -0.000086 -1.570451 -1.570709
    2 4.443614 -0.009643 0.000006 -0.000004 -0.000001 0.000796
    3 12.111414 -0.011449 0.000000 0.000000 0.000000 0.000000
    4 0.000007 0.011443 1.352404 0.971004 -1.226034 2.198349
    5 6.078085 0.000000 -0.000001 -0.390824 0.220126 -1.030174
    6 13.446753 0.000002 -0.000003 0.000000 0.000000 -0.999624
    7 15.997000 0.000004 -0.000003 -0.947132 -0.321239 0.429469
    8 1.885325 0.833278 -2.177876 -1.269183 0.640222 0.521791
    9 1.506967 -0.000004 -0.000001 0.000000 0.000000 -0.696369
    10 0.798343 0.000000 -0.000001 0.000000 0.000000 -0.670190
    11 3.950306 -0.539877 -2.108872 0.083518 0.133195 0.567490
    12 1.545796 0.000000 0.000001 0.000000 0.000000 1.333406
    13 1.667395 -0.000005 -0.000002 0.000000 0.000000 1.298525
    14 3.899459 -0.475375 -1.170890 -0.000676 0.000419 0.561979
    15 1.528214 0.000001 0.000000 0.000000 0.000000 1.193805
    16 1.528215 0.000001 -0.000003 0.000000 0.000000 1.342132
    17 3.899458 -0.431803 0.168224 -0.000676 0.000419 0.561979
    18 1.506965 0.000000 0.000000 0.000000 0.000000 1.289772
    19 1.506961 -0.000002 0.000000 0.000000 0.000000 1.202506
    20 3.915631 -0.278018 1.402609 -0.000676 0.000419 0.561979
    21 1.333081 0.000003 0.000001 0.000000 0.000000 1.499238
    22 1.159203 -0.000002 -0.000001 0.000000 0.000000 1.080333
    23 0.000008 0.011451 -1.352403 -0.000014 1.370796 3.140783
    24 6.078088 0.000002 0.000002 1.267569 -0.123083 -1.514165
    25 13.446753 0.000002 0.000003 0.000000 0.000000 -0.246003
    26 15.996996 -0.000001 -0.000001 1.629479 -0.008054 0.102887
    27 -9.849934 -2.629987 3.992560 1.582244 -0.018583 -3.126154
    28 1.895213 2.808690 0.074532 0.000000 0.000000 0.000000
    29 -7.410141 -0.113607 -0.123966 0.000000 0.000000 0.000000
    30 -43.188030 1.691171 -0.053446 0.000000 0.000000 0.000000
  time 28
    0 -9.038578 -20.591611 -35.263554 0.000000 0.000000 -1.570795
    1 -0.000002 0.000000 0.000000 -0.000086 -1.570451 -1.570709
    2 4.443614 -0.009643 0.000006 -0.000004 -0.000001 0.000796
    3 12.111414 -0.011449 0.000000 0.000000 0.000000 0.000000
    4 0.000007 0.011443 1.352404 0.971004 -1.226034 2.198349
    5 6.078085 0.000000 -0.000001 -0.387808 0.214606 -1.036547
    6 13.446753 0.000002 -0.000003 0.000000 0.000000 -0.984463
    7 15.997000 0.000004 -0.000003 -0.931500 -0.324180 0.412804
    8 1.885325 0.833278 -2.177876 -1.269183 0.640222 0.521791
    9 1.506967 -0.000004 -0.000001 0.000000 0.000000 -0.696369
    10 0.798343 0.000000 -0.000001 0.000000 0.000000 -0.670190
    11 3.950306 -0.539877 -2.108872 0.083518 0.133195 0.567490
    12 1.545796 0.000000 0.000001 0.000000 0.000000 1.333406
    13 1.667395 -0.000005 -0.000002 0.000000 0.000000 1.298525
    14 3.899459 -0.475375 -1.170890 -0.000676 0.000419 0.561979
    15 1.528214 0.000001 0.000000 0.000000 0.000000 1.193779
    16 1.528215 0.000001 -0.000003 0.000000 0.000000 1.342158
    17 3.899458 -0.431803 0.168224 -0.000676 0.000419 0.561979
    18 1.506965 0.000000 0.000000 0.000000 0.000000 1.289772
    19 1.506961 -0.000002 0.000000 0.000000 0.000000 1.202506
    20 3.915631 -0.278018 1.402609 -0.000676 0.000419 0.561979
    21 1.333081 0.000003 0.000001 0.000000 0.000000 1.499212
    22 1.159203 -0.000002 -0.000001 0.000000 0.000000 1.080333
    23 0.000008 0.011451 -1.352403 -0.000014 1.370796 3.140783
    24 6.078088 0.000002 0.000002 1.268468 -0.097013 -1.522350
    25 13.446753 0.000002 0.000003 0.000000 0.000000 -0.187036
    26 15.996996 -0.000001 -0.000001 1.647600 -0.005321 0.061586
    27 -9.849934 -2.629987 3.992560 1.582244 -0.018583 -3.126154
    28 1.895213 2.808690 0.074532 0.000000 0.000000 0.000000
    29 -7.410141 -0.113607 -0.123966 0.000000 0.000000 0.000000
    30 -43.188030 1.691171 -0.053446 0.000000 0.000000 0.000000
  time 29
    0 -9.038578 -20.591611 -35.263554 0.000000 0.000000 -1.570795
    1 -0.000002 0.000000 0.000000 -0.000086 -1.570451 -1.570709
    2 4.443614 -0.009643 0.000006 -0.000004 -0.000001 0.000796
    3 12.111414 -0.011449 0.000000 0.000000 0.000000 0.000000
    4 0.000007 0.011443 1.352404 0.971004 -1.226034 2.198349
    5 6.078085 0.000000 -0.000001 -0.384331 0.210442 -1.041553
    6 13.446753 0.000002 -0.000003 0.000000 0.000000 -0.972114
    7 15.997000 0.000004 -0.000003 -0.915152 -0.328220 0.395813
    8 1.885325 0.833278 -2.177876 -1.269183 0.640222 0.521791
    9 1.506967 -0.000004 -0.000001 0.000000 0.000000 -0.696369
    10 0.798343 0.000000 -0.000001 0.000000 0.000000 -0.670190
    11 3.950306 -0.539877 -2.108872 0.083518 0.133195 0.567490
    12 1.545796 0.000000 0.000001 0.000000 0.000000 1.333406
    13 1.667395 -0.000005 -0.000002 0.000000 0.000000 1.298525
    14 3.899459 -0.475375 -1.170890 -0.000676 0.000419 0.561979
    15 1.528214 0.000001 0.000000 0.000000 0.000000 1.193805
    16 1.528215 0.000001 -0.000003 0.000000 0.000000 1.342132
    17 3.899458 -0.431803 0.168224 -0.000676 0.000419 0.561979
    18 1.506965 0.000000 0.000000 0.000000 0.000000 1.289772
    19 1.506961 -0.000002 0.000000 0.000000 0.000000 1.202506
    20 3.915631 -0.278018 1.402609 -0.000676 0.000419 0.561979
    21 1.333081 0.000003 0.000001 0.000000 0.000000 1.499212
    22 1.159203 -0.000002 -0.000001 0.000000 0.000000 1.080333
    23 0.000008 0.011451 -1.352403 -0.000014 1.370796 3.140783
    24 6.078088 0.000002 0.000002 1.269151 -0.070995 -1.530486
    25 13.446753 0.000002 0.000003 0.000000 0.000000 -0.127299
    26 15.996996 -0.000001 -0.000001 1.665829 -0.001702 0.018382
    27 -9.849934 -2.629987 3.992560 1.582244 -0.018583 -3.126154
    28 1.895213 2.808690 0.074532 0.000000 0.000000 0.000000
    29 -7.410141 -0.113607 -0.123966 0.000000 0.000000 0.000000
    30 -43.188030 1.691171 -0.053446 0.000000 0.000000 0.000000
  time 30
    0 -9.038578 -20.591611 -35.263554 0.000000 0.000000 -1.570795
    1 -0.000002 0.000000 0.000000 -0.000086 -1.570451 -1.570709
    2 4.443614 -0.009643 0.000006 -0.000004 -0.000001 0.000796
    3 12.111414 -0.011449 0.000000 0.000000 0.000000 0.000000
    4 0.000007 0.011443 1.352404 0.971004 -1.226034 2.198349
    5 6.078085 0.000000 -0.000001 -0.381138 0.206085 -1.045357
    6 13.446753 0.000002 -0.000003 0.000000 0.000000 -0.963127
    7 15.997000 0.000004 -0.000003 -0.899776 -0.329367 0.382139
    8 1.885325 0.833278 -2.177876 -1.269183 0.640222 0.521791
    9 1.506967 -0.000004 -0.000001 0.000000 0.000000 -0.696369
    10 0.798343 0.000000 -0.000001 0.000000 0.000000 -0.670190
    11 3.950306 -0.539877 -2.108872 0.083518 0.133195 0.567490
    12 1.545796 0.000000 0.000001 0.000000 0.000000 1.333406
    13 1.667395 -0.000005 -0.000002 0.000000 0.000000 1.298525
    14 3.899459 -0.475375 -1.170890 -0.000676 0.000419 0.561979
    15 1.528214 0.000001 0.000000 0.000000 0.000000 1.193779
    16 1.528215 0.000001 -0.000003 0.000000 0.000000 1.342158
    17 3.899458 -0.431803 0.168224 -0.000676 0.000419 0.561979
    18 1.506965 0.000000 0.000000 0.000000 0.000000 1.289772
    19 1.506961 -0.000002 0.000000 0.000000 0.000000 1.202506
    20 3.915631 -0.278018 1.402609 -0.000676 0.000419 0.561979
    21 1.333081 0.000003 0.000001 0.000000 0.000000 1.499212
    22 1.159203 -0.000002 -0.000001 0.000000 0.000000 1.080333
    23 0.000008 0.011451 -1.352403 -0.000014 1.370796 3.140783
    24 6.078088 0.000002 0.000002 1.269618 -0.044848 -1.538622
    25 13.446753 0.000002 0.000003 0.000000 0.000000 -0.069100
    26 15.996996 -0.000001 -0.000001 1.683422 0.002361 -0.020797
    27 -9.849934 -2.629987 3.992560 1.582244 -0.018583 -3.126154
    28 1.895213 2.808690 0.074532 0.000000 0.000000 0.000000
    29 -7.410141 -0.113607 -0.123966 0.000000 0.000000 0.000000
    30 -43.188030 1.691171 -0.053446 0.000000 0.000000 0.000000
end
