// Created by Crowbar 0.74
version 1
nodes
  0 "Bip01" -1
  1 "Bip01 Pelvis" 0
  2 "Bip01 Spine" 1
  3 "Bip01 Neck" 2
  4 "Bip01 L Clavicle" 3
  5 "Bip01 L UpperArm" 4
  6 "Bip01 L Forearm" 5
  7 "Bip01 L Hand" 6
  8 "Bip01 L Finger0" 7
  9 "Bip01 L Finger01" 8
  10 "Bip01 L Finger02" 9
  11 "Bip01 L Finger1" 7
  12 "Bip01 L Finger11" 11
  13 "Bip01 L Finger12" 12
  14 "Bip01 L Finger2" 7
  15 "Bip01 L Finger21" 14
  16 "Bip01 L Finger22" 15
  17 "Bip01 L Finger3" 7
  18 "Bip01 L Finger31" 17
  19 "Bip01 L Finger32" 18
  20 "Bip01 L Finger4" 7
  21 "Bip01 L Finger41" 20
  22 "Bip01 L Finger42" 21
  23 "Bip01 R Clavicle" 3
  24 "Bip01 R UpperArm" 23
  25 "Bip01 R Forearm" 24
  26 "Bip01 R Hand" 25
  27 "Dummy16" 26
  28 "Dummy17" 27
  29 "Dummy14" 27
  30 "muzzle" 27
end
skeleton
  time 0
    0 -9.038578 -20.591611 -35.263554 0.000000 0.000000 -1.570795
    1 -0.000002 0.000000 0.000000 -0.000086 -1.570451 -1.570709
    2 4.443614 -0.009643 0.000006 -0.000004 -0.000001 0.000796
    3 12.111414 -0.011449 0.000000 0.000000 0.000000 0.000000
    4 0.000007 0.011443 1.352404 0.971004 -1.226034 2.198349
    5 6.078085 0.000000 -0.000001 -0.351869 0.254068 -0.948152
    6 13.446745 0.000002 0.000000 0.000000 0.000000 -1.170372
    7 15.997005 0.000007 -0.000001 -0.894710 -0.367096 0.468932
    8 1.885329 0.833275 -2.177876 -1.269183 0.640222 0.521791
    9 1.506965 -0.000003 -0.000001 0.000000 0.000000 -0.696369
    10 0.798342 0.000002 0.000003 0.000000 0.000000 -0.670190
    11 3.950302 -0.539879 -2.108872 0.083518 0.133195 0.567490
    12 1.545795 0.000002 0.000002 0.000000 0.000000 1.333406
    13 1.667395 0.000000 -0.000003 0.000000 0.000000 1.298525
    14 3.899459 -0.475378 -1.170891 -0.000676 0.000419 0.561979
    15 1.528223 0.000001 0.000001 0.000000 0.000000 1.193805
    16 1.528214 -0.000002 -0.000004 0.000000 0.000000 1.342132
    17 3.899458 -0.431805 0.168224 -0.000676 0.000419 0.561979
    18 1.506967 -0.000001 0.000002 0.000000 0.000000 1.289772
    19 1.506965 0.000002 -0.000001 0.000000 0.000000 1.202506
    20 3.915634 -0.278022 1.402610 -0.000676 0.000419 0.561979
    21 1.333089 0.000000 0.000001 0.000000 0.000000 1.499238
    22 1.159202 0.000005 -0.000001 0.000000 0.000000 1.080333
    23 0.000008 0.011451 -1.352403 -0.000014 1.370796 3.140783
    24 6.078088 0.000002 0.000002 1.249748 -0.350752 -1.437767
    25 13.446753 -0.000001 0.000001 0.000000 0.000000 -0.657120
    26 15.996998 0.000002 0.000001 1.679599 -0.000048 0.217745
    27 -9.849934 -2.629987 3.992560 1.582244 -0.018583 -3.126154
    28 1.895213 2.808690 0.074532 0.000000 0.000000 0.000000
    29 -7.410142 -0.113610 -0.123964 0.000000 0.000000 0.000000
    30 -43.188038 1.691160 -0.053447 0.000000 0.000000 0.000000
  time 1
    0 -9.038578 -20.591611 -35.263554 0.000000 0.000000 -1.570795
    1 -0.000002 0.000000 0.000000 -0.000086 -1.570451 -1.570709
    2 4.443614 -0.009643 0.000006 -0.000004 -0.000001 0.000796
    3 12.111414 -0.011449 0.000000 0.000000 0.000000 0.000000
    4 0.000007 0.011443 1.352404 0.971004 -1.226034 2.198349
    5 6.078085 0.000000 -0.000001 -0.329376 0.283023 -0.888621
    6 13.446745 0.000002 0.000000 0.000000 0.000000 -1.297715
    7 15.997005 0.000007 -0.000001 -0.881406 -0.404502 0.512644
    8 1.885329 0.833275 -2.177876 -1.269183 0.640222 0.521791
    9 1.506965 -0.000003 -0.000001 0.000000 0.000000 -0.696369
    10 0.798342 0.000002 0.000003 0.000000 0.000000 -0.670190
    11 3.950302 -0.539879 -2.108872 0.083518 0.133195 0.567490
    12 1.545795 0.000002 0.000002 0.000000 0.000000 1.333406
    13 1.667395 0.000000 -0.000003 0.000000 0.000000 1.298499
    14 3.899459 -0.475378 -1.170891 -0.000676 0.000419 0.561979
    15 1.528223 0.000001 0.000001 0.000000 0.000000 1.193805
    16 1.528214 -0.000002 -0.000004 0.000000 0.000000 1.342132
    17 3.899458 -0.431805 0.168224 -0.000676 0.000419 0.561979
    18 1.506967 -0.000001 0.000002 0.000000 0.000000 1.289772
    19 1.506965 0.000002 -0.000001 0.000000 0.000000 1.202506
    20 3.915634 -0.278022 1.402610 -0.000676 0.000419 0.561979
    21 1.333089 0.000000 0.000001 0.000000 0.000000 1.499238
    22 1.159202 0.000005 -0.000001 0.000000 0.000000 1.080333
    23 0.000008 0.011451 -1.352403 -0.000014 1.370796 3.140783
    24 6.078088 0.000002 0.000002 1.234551 -0.455364 -1.398096
    25 13.446753 -0.000001 0.000001 0.000000 0.000000 -0.856430
    26 15.996998 0.000002 0.000001 1.681900 -0.001654 0.273462
    27 -9.849934 -2.629987 3.992560 1.582244 -0.018583 -3.126154
    28 1.895213 2.808690 0.074532 0.000000 0.000000 0.000000
    29 -7.410142 -0.113610 -0.123964 0.000000 0.000000 0.000000
    30 -43.188038 1.691160 -0.053447 0.000000 0.000000 0.000000
  time 2
    0 -9.038578 -20.591611 -35.263554 0.000000 0.000000 -1.570795
    1 -0.000002 0.000000 0.000000 -0.000086 -1.570451 -1.570709
    2 4.443614 -0.009643 0.000006 -0.000004 -0.000001 0.000796
    3 12.111414 -0.011449 0.000000 0.000000 0.000000 0.000000
    4 0.000007 0.011443 1.352404 0.971004 -1.226034 2.198349
    5 6.078085 0.000000 -0.000001 -0.311885 0.302366 -0.848578
    6 13.446745 0.000002 0.000000 0.000000 0.000000 -1.381897
    7 15.997005 0.000007 -0.000001 -0.879206 -0.428400 0.544918
    8 1.885329 0.833275 -2.177876 -1.269183 0.640222 0.521791
    9 1.506965 -0.000003 -0.000001 0.000000 0.000000 -0.696369
    10 0.798342 0.000002 0.000003 0.000000 0.000000 -0.670190
    11 3.950302 -0.539879 -2.108872 0.083518 0.133195 0.567490
    12 1.545795 0.000002 0.000002 0.000000 0.000000 1.333406
    13 1.667395 0.000000 -0.000003 0.000000 0.000000 1.298499
    14 3.899459 -0.475378 -1.170891 -0.000676 0.000419 0.561979
    15 1.528223 0.000001 0.000001 0.000000 0.000000 1.193805
    16 1.528214 -0.000002 -0.000004 0.000000 0.000000 1.342132
    17 3.899458 -0.431805 0.168224 -0.000676 0.000419 0.561979
    18 1.506967 -0.000001 0.000002 0.000000 0.000000 1.289772
    19 1.506965 0.000002 -0.000001 0.000000 0.000000 1.202506
    20 3.915634 -0.278022 1.402610 -0.000676 0.000419 0.561979
    21 1.333089 0.000000 0.000001 0.000000 0.000000 1.499238
    22 1.159202 0.000005 -0.000001 0.000000 0.000000 1.080333
    23 0.000008 0.011451 -1.352403 -0.000014 1.370796 3.140783
    24 6.078088 0.000002 0.000002 1.222698 -0.518070 -1.372223
    25 13.446753 -0.000001 0.000001 0.000000 0.000000 -0.976226
    26 15.996998 0.000002 0.000001 1.678101 -0.003068 0.309406
    27 -9.849934 -2.629987 3.992560 1.582244 -0.018583 -3.126154
    28 1.895213 2.808690 0.074532 0.000000 0.000000 0.000000
    29 -7.410142 -0.113610 -0.123964 0.000000 0.000000 0.000000
    30 -43.188038 1.691160 -0.053447 0.000000 0.000000 0.000000
  time 3
    0 -9.038578 -20.591611 -35.263554 0.000000 0.000000 -1.570795
    1 -0.000002 0.000000 0.000000 -0.000086 -1.570451 -1.570709
    2 4.443614 -0.009643 0.000006 -0.000004 -0.000001 0.000796
    3 12.111414 -0.011449 0.000000 0.000000 0.000000 0.000000
    4 0.000007 0.011443 1.352404 0.971004 -1.226034 2.198349
    5 6.078085 0.000000 -0.000001 -0.313020 0.301398 -0.857888
    6 13.446745 0.000002 0.000000 0.000000 0.000000 -1.357137
    7 15.997005 0.000007 -0.000001 -0.902385 -0.422066 0.542304
    8 1.885329 0.833275 -2.177876 -1.269183 0.640222 0.521791
    9 1.506965 -0.000003 -0.000001 0.000000 0.000000 -0.696369
    10 0.798342 0.000002 0.000003 0.000000 0.000000 -0.670190
    11 3.950302 -0.539879 -2.108872 0.083518 0.133195 0.567490
    12 1.545795 0.000002 0.000002 0.000000 0.000000 1.333406
    13 1.667395 0.000000 -0.000003 0.000000 0.000000 1.298499
    14 3.899459 -0.475378 -1.170891 -0.000676 0.000419 0.561979
    15 1.528223 0.000001 0.000001 0.000000 0.000000 1.193805
    16 1.528214 -0.000002 -0.000004 0.000000 0.000000 1.342132
    17 3.899458 -0.431805 0.168224 -0.000676 0.000419 0.561979
    18 1.506967 -0.000001 0.000002 0.000000 0.000000 1.289772
    19 1.506965 0.000002 -0.000001 0.000000 0.000000 1.202506
    20 3.915634 -0.278022 1.402610 -0.000676 0.000419 0.561979
    21 1.333089 0.000000 0.000001 0.000000 0.000000 1.499212
    22 1.159202 0.000005 -0.000001 0.000000 0.000000 1.080333
    23 0.000008 0.011451 -1.352403 -0.000014 1.370796 3.140783
    24 6.078088 0.000002 0.000002 1.225994 -0.501978 -1.378911
    25 13.446753 -0.000001 0.000001 0.000000 0.000000 -0.944679
    26 15.996998 0.000002 0.000001 1.660711 -0.003919 0.310679
    27 -9.849934 -2.629987 3.992560 1.582244 -0.018583 -3.126154
    28 1.895213 2.808690 0.074532 0.000000 0.000000 0.000000
    29 -7.410142 -0.113610 -0.123964 0.000000 0.000000 0.000000
    30 -43.188038 1.691160 -0.053447 0.000000 0.000000 0.000000
  time 4
    0 -9.038578 -20.591611 -35.263554 0.000000 0.000000 -1.570795
    1 -0.000002 0.000000 0.000000 -0.000086 -1.570451 -1.570709
    2 4.443614 -0.009643 0.000006 -0.000004 -0.000001 0.000796
    3 12.111414 -0.011449 0.000000 0.000000 0.000000 0.000000
    4 0.000007 0.011443 1.352404 0.971004 -1.226034 2.198349
    5 6.078085 0.000000 -0.000001 -0.319903 0.294353 -0.882548
    6 13.446745 0.000002 0.000000 0.000000 0.000000 -1.299366
    7 15.997005 0.000007 -0.000001 -0.934263 -0.405552 0.530515
    8 1.885329 0.833275 -2.177876 -1.269183 0.640222 0.521791
    9 1.506965 -0.000003 -0.000001 0.000000 0.000000 -0.696369
    10 0.798342 0.000002 0.000003 0.000000 0.000000 -0.670190
    11 3.950302 -0.539879 -2.108872 0.083518 0.133195 0.567490
    12 1.545795 0.000002 0.000002 0.000000 0.000000 1.333406
    13 1.667395 0.000000 -0.000003 0.000000 0.000000 1.298499
    14 3.899459 -0.475378 -1.170891 -0.000676 0.000419 0.561979
    15 1.528223 0.000001 0.000001 0.000000 0.000000 1.193805
    16 1.528214 -0.000002 -0.000004 0.000000 0.000000 1.342132
    17 3.899458 -0.431805 0.168224 -0.000676 0.000419 0.561979
    18 1.506967 -0.000001 0.000002 0.000000 0.000000 1.289772
    19 1.506965 0.000002 -0.000001 0.000000 0.000000 1.202506
    20 3.915634 -0.278022 1.402610 -0.000676 0.000419 0.561979
    21 1.333089 0.000000 0.000001 0.000000 0.000000 1.499212
    22 1.159202 0.000005 -0.000001 0.000000 0.000000 1.080333
    23 0.000008 0.011451 -1.352403 -0.000014 1.370796 3.140783
    24 6.078088 0.000002 0.000002 1.233664 -0.460890 -1.395590
    25 13.446753 -0.000001 0.000001 0.000000 0.000000 -0.865206
    26 15.996998 0.000002 0.000001 1.638300 -0.004770 0.302059
    27 -9.849934 -2.629987 3.992560 1.582244 -0.018583 -3.126154
    28 1.895213 2.808690 0.074532 0.000000 0.000000 0.000000
    29 -7.410142 -0.113610 -0.123964 0.000000 0.000000 0.000000
    30 -43.188038 1.691160 -0.053447 0.000000 0.000000 0.000000
  time 5
    0 -9.038578 -20.591611 -35.263554 0.000000 0.000000 -1.570795
    1 -0.000002 0.000000 0.000000 -0.000086 -1.570451 -1.570709
    2 4.443614 -0.009643 0.000006 -0.000004 -0.000001 0.000796
    3 12.111414 -0.011449 0.000000 0.000000 0.000000 0.000000
    4 0.000007 0.011443 1.352404 0.971004 -1.226034 2.198349
    5 6.078085 0.000000 -0.000001 -0.328950 0.284451 -0.913081
    6 13.446745 0.000002 0.000000 0.000000 0.000000 -1.230590
    7 15.997005 0.000007 -0.000001 -0.964709 -0.387261 0.514428
    8 1.885329 0.833275 -2.177876 -1.269183 0.640222 0.521791
    9 1.506965 -0.000003 -0.000001 0.000000 0.000000 -0.696369
    10 0.798342 0.000002 0.000003 0.000000 0.000000 -0.670190
    11 3.950302 -0.539879 -2.108872 0.083518 0.133195 0.567490
    12 1.545795 0.000002 0.000002 0.000000 0.000000 1.333406
    13 1.667395 0.000000 -0.000003 0.000000 0.000000 1.298499
    14 3.899459 -0.475378 -1.170891 -0.000676 0.000419 0.561979
    15 1.528223 0.000001 0.000001 0.000000 0.000000 1.193805
    16 1.528214 -0.000002 -0.000004 0.000000 0.000000 1.342132
    17 3.899458 -0.431805 0.168224 -0.000676 0.000419 0.561979
    18 1.506967 -0.000001 0.000002 0.000000 0.000000 1.289772
    19 1.506965 0.000002 -0.000001 0.000000 0.000000 1.202506
    20 3.915634 -0.278022 1.402610 -0.000676 0.000419 0.561979
    21 1.333089 0.000000 0.000001 0.000000 0.000000 1.499212
    22 1.159202 0.000005 -0.000001 0.000000 0.000000 1.080333
    23 0.000008 0.011451 -1.352403 -0.000014 1.370796 3.140783
    24 6.078088 0.000002 0.000002 1.242281 -0.407420 -1.416272
    25 13.446753 -0.000001 0.000001 0.000000 0.000000 -0.762235
    26 15.996998 0.000002 0.000001 1.616944 -0.006040 0.283633
    27 -9.849934 -2.629987 3.992560 1.582244 -0.018583 -3.126154
    28 1.895213 2.808690 0.074532 0.000000 0.000000 0.000000
    29 -7.410142 -0.113610 -0.123964 0.000000 0.000000 0.000000
    30 -43.188038 1.691160 -0.053447 0.000000 0.000000 0.000000
  time 6
    0 -9.038578 -20.591611 -35.263554 0.000000 0.000000 -1.570795
    1 -0.000002 0.000000 0.000000 -0.000086 -1.570451 -1.570709
    2 4.443614 -0.009643 0.000006 -0.000004 -0.000001 0.000796
    3 12.111414 -0.011449 0.000000 0.000000 0.000000 0.000000
    4 0.000007 0.011443 1.352404 0.971004 -1.226034 2.198349
    5 6.078085 0.000000 -0.000001 -0.337252 0.274646 -0.940844
    6 13.446745 0.000002 0.000000 0.000000 0.000000 -1.169761
    7 15.997005 0.000007 -0.000001 -0.984434 -0.375498 0.496934
    8 1.885329 0.833275 -2.177876 -1.269183 0.640222 0.521791
    9 1.506965 -0.000003 -0.000001 0.000000 0.000000 -0.696369
    10 0.798342 0.000002 0.000003 0.000000 0.000000 -0.670190
    11 3.950302 -0.539879 -2.108872 0.083518 0.133195 0.567490
    12 1.545795 0.000002 0.000002 0.000000 0.000000 1.333406
    13 1.667395 0.000000 -0.000003 0.000000 0.000000 1.298499
    14 3.899459 -0.475378 -1.170891 -0.000676 0.000419 0.561979
    15 1.528223 0.000001 0.000001 0.000000 0.000000 1.193805
    16 1.528214 -0.000002 -0.000004 0.000000 0.000000 1.342132
    17 3.899458 -0.431805 0.168224 -0.000676 0.000419 0.561979
    18 1.506967 -0.000001 0.000002 0.000000 0.000000 1.289772
    19 1.506965 0.000002 -0.000001 0.000000 0.000000 1.202506
    20 3.915634 -0.278022 1.402610 -0.000676 0.000419 0.561979
    21 1.333089 0.000000 0.000001 0.000000 0.000000 1.499238
    22 1.159202 0.000005 -0.000001 0.000000 0.000000 1.080333
    23 0.000008 0.011451 -1.352403 -0.000014 1.370796 3.140783
    24 6.078088 0.000002 0.000002 1.249484 -0.354309 -1.435847
    25 13.446753 -0.000001 0.000001 0.000000 0.000000 -0.660194
    26 15.996998 0.000002 0.000001 1.602766 -0.007934 0.255504
    27 -9.849934 -2.629987 3.992560 1.582244 -0.018583 -3.126154
    28 1.895213 2.808690 0.074532 0.000000 0.000000 0.000000
    29 -7.410142 -0.113610 -0.123964 0.000000 0.000000 0.000000
    30 -43.188038 1.691160 -0.053447 0.000000 0.000000 0.000000
  time 7
    0 -9.038578 -20.591611 -35.263554 0.000000 0.000000 -1.570795
    1 -0.000002 0.000000 0.000000 -0.000086 -1.570451 -1.570709
    2 4.443614 -0.009643 0.000006 -0.000004 -0.000001 0.000796
    3 12.111414 -0.011449 0.000000 0.000000 0.000000 0.000000
    4 0.000007 0.011443 1.352404 0.971004 -1.226034 2.198349
    5 6.078085 0.000000 -0.000001 -0.345873 0.263389 -0.966605
    6 13.446745 0.000002 0.000000 0.000000 0.000000 -1.116330
    7 15.997005 0.000007 -0.000001 -0.975812 -0.385290 0.464810
    8 1.885329 0.833275 -2.177876 -1.269183 0.640222 0.521791
    9 1.506965 -0.000003 -0.000001 0.000000 0.000000 -0.696369
    10 0.798342 0.000002 0.000003 0.000000 0.000000 -0.670190
    11 3.950302 -0.539879 -2.108872 0.083518 0.133195 0.567490
    12 1.545795 0.000002 0.000002 0.000000 0.000000 1.333406
    13 1.667395 0.000000 -0.000003 0.000000 0.000000 1.298499
    14 3.899459 -0.475378 -1.170891 -0.000676 0.000419 0.561979
    15 1.528223 0.000001 0.000001 0.000000 0.000000 1.193805
    16 1.528214 -0.000002 -0.000004 0.000000 0.000000 1.342132
    17 3.899458 -0.431805 0.168224 -0.000676 0.000419 0.561979
    18 1.506967 -0.000001 0.000002 0.000000 0.000000 1.289772
    19 1.506965 0.000002 -0.000001 0.000000 0.000000 1.202506
    20 3.915634 -0.278022 1.402610 -0.000676 0.000419 0.561979
    21 1.333089 0.000000 0.000001 0.000000 0.000000 1.499212
    22 1.159202 0.000005 -0.000001 0.000000 0.000000 1.080333
    23 0.000008 0.011451 -1.352403 -0.000014 1.370796 3.140783
    24 6.078088 0.000002 0.000002 1.255812 -0.297564 -1.455895
    25 13.446753 -0.000001 0.000001 0.000000 0.000000 -0.551439
    26 15.996998 0.000002 0.000001 1.607524 -0.011325 0.192543
    27 -9.849934 -2.629987 3.992560 1.582244 -0.018583 -3.126154
    28 1.895213 2.808690 0.074532 0.000000 0.000000 0.000000
    29 -7.410142 -0.113610 -0.123964 0.000000 0.000000 0.000000
    30 -43.188038 1.691160 -0.053447 0.000000 0.000000 0.000000
  time 8
    0 -9.038578 -20.591611 -35.263554 0.000000 0.000000 -1.570795
    1 -0.000002 0.000000 0.000000 -0.000086 -1.570451 -1.570709
    2 4.443614 -0.009643 0.000006 -0.000004 -0.000001 0.000796
    3 12.111414 -0.011449 0.000000 0.000000 0.000000 0.000000
    4 0.000007 0.011443 1.352404 0.971004 -1.226034 2.198349
    5 6.078085 0.000000 -0.000001 -0.356907 0.247338 -0.994902
    6 13.446745 0.000002 0.000000 0.000000 0.000000 -1.059903
    7 15.997005 0.000007 -0.000001 -0.950381 -0.391947 0.425548
    8 1.885329 0.833275 -2.177876 -1.269183 0.640222 0.521791
    9 1.506965 -0.000003 -0.000001 0.000000 0.000000 -0.696369
    10 0.798342 0.000002 0.000003 0.000000 0.000000 -0.670190
    11 3.950302 -0.539879 -2.108872 0.083518 0.133195 0.567490
    12 1.545795 0.000002 0.000002 0.000000 0.000000 1.333406
    13 1.667395 0.000000 -0.000003 0.000000 0.000000 1.298525
    14 3.899459 -0.475378 -1.170891 -0.000676 0.000419 0.561979
    15 1.528223 0.000001 0.000001 0.000000 0.000000 1.193779
    16 1.528214 -0.000002 -0.000004 0.000000 0.000000 1.342132
    17 3.899458 -0.431805 0.168224 -0.000676 0.000419 0.561979
    18 1.506967 -0.000001 0.000002 0.000000 0.000000 1.289772
    19 1.506965 0.000002 -0.000001 0.000000 0.000000 1.202506
    20 3.915634 -0.278022 1.402610 -0.000676 0.000419 0.561979
    21 1.333089 0.000000 0.000001 0.000000 0.000000 1.499212
    22 1.159202 0.000005 -0.000001 0.000000 0.000000 1.080333
    23 0.000008 0.011451 -1.352403 -0.000014 1.370796 3.140783
    24 6.078088 0.000002 0.000002 1.261960 -0.226492 -1.480010
    25 13.446753 -0.000001 0.000001 0.000000 0.000000 -0.415506
    26 15.996998 0.000002 0.000001 1.626903 -0.012320 0.111434
    27 -9.849934 -2.629987 3.992560 1.582244 -0.018583 -3.126154
    28 1.895213 2.808690 0.074532 0.000000 0.000000 0.000000
    29 -7.410142 -0.113610 -0.123964 0.000000 0.000000 0.000000
    30 -43.188038 1.691160 -0.053447 0.000000 0.000000 0.000000
  time 9
    0 -9.038578 -20.591611 -35.263554 0.000000 0.000000 -1.570795
    1 -0.000002 0.000000 0.000000 -0.000086 -1.570451 -1.570709
    2 4.443614 -0.009643 0.000006 -0.000004 -0.000001 0.000796
    3 12.111414 -0.011449 0.000000 0.000000 0.000000 0.000000
    4 0.000007 0.011443 1.352404 0.971004 -1.226034 2.198349
    5 6.078085 0.000000 -0.000001 -0.370176 0.225743 -1.024434
    6 13.446745 0.000002 0.000000 0.000000 0.000000 -1.002192
    7 15.997005 0.000007 -0.000001 -0.925769 -0.365480 0.398326
    8 1.885329 0.833275 -2.177876 -1.269183 0.640222 0.521791
    9 1.506965 -0.000003 -0.000001 0.000000 0.000000 -0.696369
    10 0.798342 0.000002 0.000003 0.000000 0.000000 -0.670190
    11 3.950302 -0.539879 -2.108872 0.083518 0.133195 0.567490
    12 1.545795 0.000002 0.000002 0.000000 0.000000 1.333406
    13 1.667395 0.000000 -0.000003 0.000000 0.000000 1.298525
    14 3.899459 -0.475378 -1.170891 -0.000676 0.000419 0.561979
    15 1.528223 0.000001 0.000001 0.000000 0.000000 1.193805
    16 1.528214 -0.000002 -0.000004 0.000000 0.000000 1.342158
    17 3.899458 -0.431805 0.168224 -0.000676 0.000419 0.561979
    18 1.506967 -0.000001 0.000002 0.000000 0.000000 1.289772
    19 1.506965 0.000002 -0.000001 0.000000 0.000000 1.202532
    20 3.915634 -0.278022 1.402610 -0.000676 0.000419 0.561979
    21 1.333089 0.000000 0.000001 0.000000 0.000000 1.499212
    22 1.159202 0.000005 -0.000001 0.000000 0.000000 1.080333
    23 0.000008 0.011451 -1.352403 -0.000014 1.370796 3.140783
    24 6.078088 0.000002 0.000002 1.267017 -0.139047 -1.508600
    25 13.446753 -0.000001 0.000001 0.000000 0.000000 -0.248673
    26 15.996998 0.000002 0.000001 1.653377 -0.006819 0.044462
    27 -9.849934 -2.629987 3.992560 1.582244 -0.018583 -3.126154
    28 1.895213 2.808690 0.074532 0.000000 0.000000 0.000000
    29 -7.410142 -0.113610 -0.123964 0.000000 0.000000 0.000000
    30 -43.188038 1.691160 -0.053447 0.000000 0.000000 0.000000
  time 10
    0 -9.038578 -20.591611 -35.263554 0.000000 0.000000 -1.570795
    1 -0.000002 0.000000 0.000000 -0.000086 -1.570451 -1.570709
    2 4.443614 -0.009643 0.000006 -0.000004 -0.000001 0.000796
    3 12.111414 -0.011449 0.000000 0.000000 0.000000 0.000000
    4 0.000007 0.011443 1.352404 0.971004 -1.226034 2.198349
    5 6.078085 0.000000 -0.000001 -0.381138 0.206085 -1.045357
    6 13.446745 0.000002 0.000000 0.000000 0.000000 -0.963127
    7 15.997005 0.000007 -0.000001 -0.899776 -0.329367 0.382139
    8 1.885329 0.833275 -2.177876 -1.269183 0.640222 0.521791
    9 1.506965 -0.000003 -0.000001 0.000000 0.000000 -0.696369
    10 0.798342 0.000002 0.000003 0.000000 0.000000 -0.670190
    11 3.950302 -0.539879 -2.108872 0.083518 0.133195 0.567490
    12 1.545795 0.000002 0.000002 0.000000 0.000000 1.333406
    13 1.667395 0.000000 -0.000003 0.000000 0.000000 1.298525
    14 3.899459 -0.475378 -1.170891 -0.000676 0.000419 0.561979
    15 1.528223 0.000001 0.000001 0.000000 0.000000 1.193779
    16 1.528214 -0.000002 -0.000004 0.000000 0.000000 1.342158
    17 3.899458 -0.431805 0.168224 -0.000676 0.000419 0.561979
    18 1.506967 -0.000001 0.000002 0.000000 0.000000 1.289772
    19 1.506965 0.000002 -0.000001 0.000000 0.000000 1.202506
    20 3.915634 -0.278022 1.402610 -0.000676 0.000419 0.561979
    21 1.333089 0.000000 0.000001 0.000000 0.000000 1.499212
    22 1.159202 0.000005 -0.000001 0.000000 0.000000 1.080333
    23 0.000008 0.011451 -1.352403 -0.000014 1.370796 3.140783
    24 6.078088 0.000002 0.000002 1.269618 -0.044848 -1.538622
    25 13.446753 -0.000001 0.000001 0.000000 0.000000 -0.069100
    26 15.996998 0.000002 0.000001 1.683422 0.002361 -0.020797
    27 -9.849934 -2.629987 3.992560 1.582244 -0.018583 -3.126154
    28 1.895213 2.808690 0.074532 0.000000 0.000000 0.000000
    29 -7.410142 -0.113610 -0.123964 0.000000 0.000000 0.000000
    30 -43.188038 1.691160 -0.053447 0.000000 0.000000 0.000000
end
