// Created by Crowbar 0.74
version 1
nodes
  0 "Bip01" -1
  1 "Bip01 Pelvis" 0
  2 "Bip01 Spine" 1
  3 "Bip01 Neck" 2
  4 "Bip01 L Clavicle" 3
  5 "Bip01 L UpperArm" 4
  6 "Bip01 L Forearm" 5
  7 "Bip01 L Hand" 6
  8 "Bip01 L Finger0" 7
  9 "Bip01 L Finger01" 8
  10 "Bip01 L Finger02" 9
  11 "Bip01 L Finger1" 7
  12 "Bip01 L Finger11" 11
  13 "Bip01 L Finger12" 12
  14 "Bip01 L Finger2" 7
  15 "Bip01 L Finger21" 14
  16 "Bip01 L Finger22" 15
  17 "Bip01 L Finger3" 7
  18 "Bip01 L Finger31" 17
  19 "Bip01 L Finger32" 18
  20 "Bip01 L Finger4" 7
  21 "Bip01 L Finger41" 20
  22 "Bip01 L Finger42" 21
  23 "Bip01 R Clavicle" 3
  24 "Bip01 R UpperArm" 23
  25 "Bip01 R Forearm" 24
  26 "Bip01 R Hand" 25
  27 "Dummy16" 26
  28 "Dummy17" 27
  29 "Dummy14" 27
  30 "muzzle" 27
end
skeleton
  time 0
    0 -9.038578 -20.591611 -35.263554 0.000000 0.000000 -1.570795
    1 -0.000002 0.000000 0.000000 -0.000086 -1.570451 -1.570709
    2 4.443614 -0.009643 0.000006 -0.000004 -0.000001 0.000796
    3 12.111414 -0.011449 0.000000 0.000000 0.000000 0.000000
    4 0.000007 0.011443 1.352404 0.971004 -1.226034 2.198349
    5 6.078085 0.000000 -0.000001 -0.381138 0.206085 -1.045357
    6 13.446750 0.000001 0.000001 0.000000 0.000000 -0.963127
    7 15.997003 0.000003 0.000000 -0.899776 -0.329367 0.382139
    8 1.885326 0.833277 -2.177876 -1.269183 0.640222 0.521791
    9 1.506961 -0.000001 -0.000002 0.000000 0.000000 -0.696369
    10 0.798346 0.000000 0.000003 0.000000 0.000000 -0.670190
    11 3.950303 -0.539874 -2.108871 0.083518 0.133195 0.567490
    12 1.545795 -0.000001 0.000002 0.000000 0.000000 1.333406
    13 1.667397 -0.000003 -0.000002 0.000000 0.000000 1.298499
    14 3.899459 -0.475376 -1.170889 -0.000676 0.000419 0.561979
    15 1.528220 0.000001 0.000001 0.000000 0.000000 1.193805
    16 1.528213 0.000004 -0.000004 0.000000 0.000000 1.342132
    17 3.899460 -0.431804 0.168225 -0.000676 0.000419 0.561979
    18 1.506961 0.000000 0.000001 0.000000 0.000000 1.289772
    19 1.506969 -0.000001 -0.000001 0.000000 0.000000 1.202506
    20 3.915632 -0.278019 1.402610 -0.000676 0.000419 0.561979
    21 1.333086 0.000000 0.000001 0.000000 0.000000 1.499238
    22 1.159205 0.000003 -0.000001 0.000000 0.000000 1.080333
    23 0.000008 0.011451 -1.352403 -0.000014 1.370796 3.140783
    24 6.078088 0.000002 0.000002 1.269618 -0.044848 -1.538622
    25 13.446756 -0.000005 0.000001 0.000000 0.000000 -0.069100
    26 15.997000 0.000003 0.000000 1.683422 0.002361 -0.020797
    27 -9.849934 -2.629987 3.992560 1.582244 -0.018583 -3.126154
    28 1.895213 2.808690 0.074532 0.000000 0.000000 0.000000
    29 -7.410141 -0.113610 -0.123967 0.000000 0.000000 0.000000
    30 -43.188030 1.691162 -0.053449 0.000000 0.000000 0.000000
  time 1
    0 -9.038578 -20.591611 -35.263554 0.000000 0.000000 -1.570795
    1 -0.000002 0.000000 0.000000 -0.000086 -1.570451 -1.570709
    2 4.443614 -0.009643 0.000006 -0.000004 -0.000001 0.000796
    3 12.111414 -0.011449 0.000000 0.000000 0.000000 0.000000
    4 0.000007 0.011443 1.352404 0.971004 -1.226034 2.198349
    5 6.078085 0.000000 -0.000001 -0.384580 0.199669 -1.047693
    6 13.446750 0.000001 0.000001 0.000000 0.000000 -0.963922
    7 15.997003 0.000003 0.000000 -0.873782 -0.321514 0.380605
    8 1.885326 0.833277 -2.177876 -1.269183 0.640222 0.521791
    9 1.506961 -0.000001 -0.000002 0.000000 0.000000 -0.696369
    10 0.798346 0.000000 0.000003 0.000000 0.000000 -0.670190
    11 3.950303 -0.539874 -2.108871 0.083518 0.133195 0.567490
    12 1.545795 -0.000001 0.000002 0.000000 0.000000 1.333406
    13 1.667397 -0.000003 -0.000002 0.000000 0.000000 1.298499
    14 3.899459 -0.475376 -1.170889 -0.000676 0.000419 0.561979
    15 1.528220 0.000001 0.000001 0.000000 0.000000 1.193779
    16 1.528213 0.000004 -0.000004 0.000000 0.000000 1.342132
    17 3.899460 -0.431804 0.168225 -0.000676 0.000419 0.561979
    18 1.506961 0.000000 0.000001 0.000000 0.000000 1.289772
    19 1.506969 -0.000001 -0.000001 0.000000 0.000000 1.202506
    20 3.915632 -0.278019 1.402610 -0.000676 0.000419 0.561979
    21 1.333086 0.000000 0.000001 0.000000 0.000000 1.499212
    22 1.159205 0.000003 -0.000001 0.000000 0.000000 1.080333
    23 0.000008 0.011451 -1.352403 -0.000014 1.370796 3.140783
    24 6.078088 0.000002 0.000002 1.269618 -0.044848 -1.538622
    25 13.446756 -0.000005 0.000001 0.000000 0.000000 -0.069100
    26 15.997000 0.000003 0.000000 1.708074 0.002984 -0.025114
    27 -9.849934 -2.629987 3.992560 1.582244 -0.018583 -3.126154
    28 1.895213 2.808690 0.074532 0.000000 0.000000 0.000000
    29 -7.410141 -0.113610 -0.123967 0.000000 0.000000 0.000000
    30 -43.188030 1.691162 -0.053449 0.000000 0.000000 0.000000
  time 2
    0 -9.038578 -20.591611 -35.263554 0.000000 0.000000 -1.570795
    1 -0.000002 0.000000 0.000000 -0.000086 -1.570451 -1.570709
    2 4.443614 -0.009643 0.000006 -0.000004 -0.000001 0.000796
    3 12.111414 -0.011449 0.000000 0.000000 0.000000 0.000000
    4 0.000007 0.011443 1.352404 0.971004 -1.226034 2.198349
    5 6.078085 0.000000 -0.000001 -0.385963 0.197079 -1.048727
    6 13.446750 0.000001 0.000001 0.000000 0.000000 -0.964228
    7 15.997003 0.000003 0.000000 -0.862781 -0.318896 0.379399
    8 1.885326 0.833277 -2.177876 -1.269183 0.640222 0.521791
    9 1.506961 -0.000001 -0.000002 0.000000 0.000000 -0.696369
    10 0.798346 0.000000 0.000003 0.000000 0.000000 -0.670190
    11 3.950303 -0.539874 -2.108871 0.083518 0.133195 0.567490
    12 1.545795 -0.000001 0.000002 0.000000 0.000000 1.333406
    13 1.667397 -0.000003 -0.000002 0.000000 0.000000 1.298499
    14 3.899459 -0.475376 -1.170889 -0.000676 0.000419 0.561979
    15 1.528220 0.000001 0.000001 0.000000 0.000000 1.193805
    16 1.528213 0.000004 -0.000004 0.000000 0.000000 1.342132
    17 3.899460 -0.431804 0.168225 -0.000676 0.000419 0.561979
    18 1.506961 0.000000 0.000001 0.000000 0.000000 1.289772
    19 1.506969 -0.000001 -0.000001 0.000000 0.000000 1.202506
    20 3.915632 -0.278019 1.402610 -0.000676 0.000419 0.561979
    21 1.333086 0.000000 0.000001 0.000000 0.000000 1.499212
    22 1.159205 0.000003 -0.000001 0.000000 0.000000 1.080333
    23 0.000008 0.011451 -1.352403 -0.000014 1.370796 3.140783
    24 6.078088 0.000002 0.000002 1.269618 -0.044848 -1.538622
    25 13.446756 -0.000005 0.000001 0.000000 0.000000 -0.069100
    26 15.997000 0.000003 0.000000 1.718297 0.003392 -0.027705
    27 -9.849934 -2.629987 3.992560 1.582244 -0.018583 -3.126154
    28 1.895213 2.808690 0.074532 0.000000 0.000000 0.000000
    29 -7.410141 -0.113610 -0.123967 0.000000 0.000000 0.000000
    30 -43.188030 1.691162 -0.053449 0.000000 0.000000 0.000000
  time 3
    0 -9.038578 -20.591611 -35.263554 0.000000 0.000000 -1.570795
    1 -0.000002 0.000000 0.000000 -0.000086 -1.570451 -1.570709
    2 4.443614 -0.009643 0.000006 -0.000004 -0.000001 0.000796
    3 12.111414 -0.011449 0.000000 0.000000 0.000000 0.000000
    4 0.000007 0.011443 1.352404 0.971004 -1.226034 2.198349
    5 6.078085 0.000000 -0.000001 -0.379755 0.208627 -1.044456
    6 13.446750 0.000001 0.000001 0.000000 0.000000 -0.962822
    7 15.997003 0.000003 0.000000 -0.905660 -0.337575 0.377438
    8 1.885326 0.833277 -2.177876 -1.269183 0.640222 0.521791
    9 1.506961 -0.000001 -0.000002 0.000000 0.000000 -0.696369
    10 0.798346 0.000000 0.000003 0.000000 0.000000 -0.670190
    11 3.950303 -0.539874 -2.108871 0.083518 0.133195 0.567490
    12 1.545795 -0.000001 0.000002 0.000000 0.000000 1.333406
    13 1.667397 -0.000003 -0.000002 0.000000 0.000000 1.298499
    14 3.899459 -0.475376 -1.170889 -0.000676 0.000419 0.561979
    15 1.528220 0.000001 0.000001 0.000000 0.000000 1.193805
    16 1.528213 0.000004 -0.000004 0.000000 0.000000 1.342132
    17 3.899460 -0.431804 0.168225 -0.000676 0.000419 0.561979
    18 1.506961 0.000000 0.000001 0.000000 0.000000 1.289772
    19 1.506969 -0.000001 -0.000001 0.000000 0.000000 1.202506
    20 3.915632 -0.278019 1.402610 -0.000676 0.000419 0.561979
    21 1.333086 0.000000 0.000001 0.000000 0.000000 1.499212
    22 1.159205 0.000003 -0.000001 0.000000 0.000000 1.080333
    23 0.000008 0.011451 -1.352403 -0.000014 1.370796 3.140783
    24 6.078088 0.000002 0.000002 1.269618 -0.044848 -1.538622
    25 13.446756 -0.000005 0.000001 0.000000 0.000000 -0.069100
    26 15.997000 0.000003 0.000000 1.675920 0.003068 -0.026431
    27 -9.849934 -2.629987 3.992560 1.582244 -0.018583 -3.126154
    28 1.895213 2.808690 0.074532 0.000000 0.000000 0.000000
    29 -7.410141 -0.113610 -0.123967 0.000000 0.000000 0.000000
    30 -43.188030 1.691162 -0.053449 0.000000 0.000000 0.000000
  time 4
    0 -9.038578 -20.591611 -35.263554 0.000000 0.000000 -1.570795
    1 -0.000002 0.000000 0.000000 -0.000086 -1.570451 -1.570709
    2 4.443614 -0.009643 0.000006 -0.000004 -0.000001 0.000796
    3 12.111414 -0.011449 0.000000 0.000000 0.000000 0.000000
    4 0.000007 0.011443 1.352404 0.971004 -1.226034 2.198349
    5 6.078085 0.000000 -0.000001 -0.374433 0.218601 -1.041653
    6 13.446750 0.000001 0.000001 0.000000 0.000000 -0.960682
    7 15.997003 0.000003 0.000000 -0.945776 -0.350615 0.379223
    8 1.885326 0.833277 -2.177876 -1.269183 0.640222 0.521791
    9 1.506961 -0.000001 -0.000002 0.000000 0.000000 -0.696369
    10 0.798346 0.000000 0.000003 0.000000 0.000000 -0.670190
    11 3.950303 -0.539874 -2.108871 0.083518 0.133195 0.567490
    12 1.545795 -0.000001 0.000002 0.000000 0.000000 1.333406
    13 1.667397 -0.000003 -0.000002 0.000000 0.000000 1.298525
    14 3.899459 -0.475376 -1.170889 -0.000676 0.000419 0.561979
    15 1.528220 0.000001 0.000001 0.000000 0.000000 1.193805
    16 1.528213 0.000004 -0.000004 0.000000 0.000000 1.342132
    17 3.899460 -0.431804 0.168225 -0.000676 0.000419 0.561979
    18 1.506961 0.000000 0.000001 0.000000 0.000000 1.289772
    19 1.506969 -0.000001 -0.000001 0.000000 0.000000 1.202506
    20 3.915632 -0.278019 1.402610 -0.000676 0.000419 0.561979
    21 1.333086 0.000000 0.000001 0.000000 0.000000 1.499212
    22 1.159205 0.000003 -0.000001 0.000000 0.000000 1.080333
    23 0.000008 0.011451 -1.352403 -0.000014 1.370796 3.140783
    24 6.078088 0.000002 0.000002 1.269618 -0.044848 -1.538622
    25 13.446756 -0.000005 0.000001 0.000000 0.000000 -0.069100
    26 15.997000 0.000003 0.000000 1.637701 0.002361 -0.020797
    27 -9.849934 -2.629987 3.992560 1.582244 -0.018583 -3.126154
    28 1.895213 2.808690 0.074532 0.000000 0.000000 0.000000
    29 -7.410141 -0.113610 -0.123967 0.000000 0.000000 0.000000
    30 -43.188030 1.691162 -0.053449 0.000000 0.000000 0.000000
  time 5
    0 -9.038578 -20.591611 -35.263554 0.000000 0.000000 -1.570795
    1 -0.000002 0.000000 0.000000 -0.000086 -1.570451 -1.570709
    2 4.443614 -0.009643 0.000006 -0.000004 -0.000001 0.000796
    3 12.111414 -0.011449 0.000000 0.000000 0.000000 0.000000
    4 0.000007 0.011443 1.352404 0.971004 -1.226034 2.198349
    5 6.078085 0.000000 -0.000001 -0.380358 0.207537 -1.044990
    6 13.446750 0.000001 0.000001 0.000000 0.000000 -0.962455
    7 15.997003 0.000003 0.000000 -0.914768 -0.320593 0.393249
    8 1.885326 0.833277 -2.177876 -1.269183 0.640222 0.521791
    9 1.506961 -0.000001 -0.000002 0.000000 0.000000 -0.696369
    10 0.798346 0.000000 0.000003 0.000000 0.000000 -0.670190
    11 3.950303 -0.539874 -2.108871 0.083518 0.133195 0.567490
    12 1.545795 -0.000001 0.000002 0.000000 0.000000 1.333406
    13 1.667397 -0.000003 -0.000002 0.000000 0.000000 1.298499
    14 3.899459 -0.475376 -1.170889 -0.000676 0.000419 0.561979
    15 1.528220 0.000001 0.000001 0.000000 0.000000 1.193805
    16 1.528213 0.000004 -0.000004 0.000000 0.000000 1.342132
    17 3.899460 -0.431804 0.168225 -0.000676 0.000419 0.561979
    18 1.506961 0.000000 0.000001 0.000000 0.000000 1.289772
    19 1.506969 -0.000001 -0.000001 0.000000 0.000000 1.202506
    20 3.915632 -0.278019 1.402610 -0.000676 0.000419 0.561979
    21 1.333086 0.000000 0.000001 0.000000 0.000000 1.499212
    22 1.159205 0.000003 -0.000001 0.000000 0.000000 1.080333
    23 0.000008 0.011451 -1.352403 -0.000014 1.370796 3.140783
    24 6.078088 0.000002 0.000002 1.269618 -0.044848 -1.538622
    25 13.446756 -0.000005 0.000001 0.000000 0.000000 -0.069100
    26 15.997000 0.000003 0.000000 1.673055 0.000431 -0.004771
    27 -9.849934 -2.629987 3.992560 1.582244 -0.018583 -3.126154
    28 1.895213 2.808690 0.074532 0.000000 0.000000 0.000000
    29 -7.410141 -0.113610 -0.123967 0.000000 0.000000 0.000000
    30 -43.188030 1.691162 -0.053449 0.000000 0.000000 0.000000
  time 6
    0 -9.038578 -20.591611 -35.263554 0.000000 0.000000 -1.570795
    1 -0.000002 0.000000 0.000000 -0.000086 -1.570451 -1.570709
    2 4.443614 -0.009643 0.000006 -0.000004 -0.000001 0.000796
    3 12.111414 -0.011449 0.000000 0.000000 0.000000 0.000000
    4 0.000007 0.011443 1.352404 0.971004 -1.226034 2.198349
    5 6.078085 0.000000 -0.000001 -0.385857 0.197296 -1.049094
    6 13.446750 0.000001 0.000001 0.000000 0.000000 -0.962577
    7 15.997003 0.000003 0.000000 -0.884886 -0.295710 0.403957
    8 1.885326 0.833277 -2.177876 -1.269183 0.640222 0.521791
    9 1.506961 -0.000001 -0.000002 0.000000 0.000000 -0.696369
    10 0.798346 0.000000 0.000003 0.000000 0.000000 -0.670190
    11 3.950303 -0.539874 -2.108871 0.083518 0.133195 0.567490
    12 1.545795 -0.000001 0.000002 0.000000 0.000000 1.333406
    13 1.667397 -0.000003 -0.000002 0.000000 0.000000 1.298525
    14 3.899459 -0.475376 -1.170889 -0.000676 0.000419 0.561979
    15 1.528220 0.000001 0.000001 0.000000 0.000000 1.193805
    16 1.528213 0.000004 -0.000004 0.000000 0.000000 1.342132
    17 3.899460 -0.431804 0.168225 -0.000676 0.000419 0.561979
    18 1.506961 0.000000 0.000001 0.000000 0.000000 1.289772
    19 1.506969 -0.000001 -0.000001 0.000000 0.000000 1.202506
    20 3.915632 -0.278019 1.402610 -0.000676 0.000419 0.561979
    21 1.333086 0.000000 0.000001 0.000000 0.000000 1.499212
    22 1.159205 0.000003 -0.000001 0.000000 0.000000 1.080333
    23 0.000008 0.011451 -1.352403 -0.000014 1.370796 3.140783
    24 6.078088 0.000002 0.000002 1.269618 -0.044848 -1.538622
    25 13.446756 -0.000005 0.000001 0.000000 0.000000 -0.069100
    26 15.997000 0.000003 0.000000 1.705917 -0.001402 0.006849
    27 -9.849934 -2.629987 3.992560 1.582244 -0.018583 -3.126154
    28 1.895213 2.808690 0.074532 0.000000 0.000000 0.000000
    29 -7.410141 -0.113610 -0.123967 0.000000 0.000000 0.000000
    30 -43.188030 1.691162 -0.053449 0.000000 0.000000 0.000000
  time 7
    0 -9.038578 -20.591611 -35.263554 0.000000 0.000000 -1.570795
    1 -0.000002 0.000000 0.000000 -0.000086 -1.570451 -1.570709
    2 4.443614 -0.009643 0.000006 -0.000004 -0.000001 0.000796
    3 12.111414 -0.011449 0.000000 0.000000 0.000000 0.000000
    4 0.000007 0.011443 1.352404 0.971004 -1.226034 2.198349
    5 6.078085 0.000000 -0.000001 -0.381032 0.206254 -1.045490
    6 13.446750 0.000001 0.000001 0.000000 0.000000 -0.962394
    7 15.997003 0.000003 0.000000 -0.913540 -0.314437 0.397622
    8 1.885326 0.833277 -2.177876 -1.269183 0.640222 0.521791
    9 1.506961 -0.000001 -0.000002 0.000000 0.000000 -0.696369
    10 0.798346 0.000000 0.000003 0.000000 0.000000 -0.670190
    11 3.950303 -0.539874 -2.108871 0.083518 0.133195 0.567490
    12 1.545795 -0.000001 0.000002 0.000000 0.000000 1.333406
    13 1.667397 -0.000003 -0.000002 0.000000 0.000000 1.298525
    14 3.899459 -0.475376 -1.170889 -0.000676 0.000419 0.561979
    15 1.528220 0.000001 0.000001 0.000000 0.000000 1.193805
    16 1.528213 0.000004 -0.000004 0.000000 0.000000 1.342132
    17 3.899460 -0.431804 0.168225 -0.000676 0.000419 0.561979
    18 1.506961 0.000000 0.000001 0.000000 0.000000 1.289772
    19 1.506969 -0.000001 -0.000001 0.000000 0.000000 1.202506
    20 3.915632 -0.278019 1.402610 -0.000676 0.000419 0.561979
    21 1.333086 0.000000 0.000001 0.000000 0.000000 1.499212
    22 1.159205 0.000003 -0.000001 0.000000 0.000000 1.080333
    23 0.000008 0.011451 -1.352403 -0.000014 1.370796 3.140783
    24 6.078088 0.000002 0.000002 1.269618 -0.044848 -1.538622
    25 13.446756 -0.000005 0.000001 0.000000 0.000000 -0.069100
    26 15.997000 0.000003 0.000000 1.675848 -0.000264 0.000951
    27 -9.849934 -2.629987 3.992560 1.582244 -0.018583 -3.126154
    28 1.895213 2.808690 0.074532 0.000000 0.000000 0.000000
    29 -7.410141 -0.113610 -0.123967 0.000000 0.000000 0.000000
    30 -43.188030 1.691162 -0.053449 0.000000 0.000000 0.000000
  time 8
    0 -9.038578 -20.591611 -35.263554 0.000000 0.000000 -1.570795
    1 -0.000002 0.000000 0.000000 -0.000086 -1.570451 -1.570709
    2 4.443614 -0.009643 0.000006 -0.000004 -0.000001 0.000796
    3 12.111414 -0.011449 0.000000 0.000000 0.000000 0.000000
    4 0.000007 0.011443 1.352404 0.971004 -1.226034 2.198349
    5 6.078085 0.000000 -0.000001 -0.373298 0.220731 -1.041152
    6 13.446750 0.000001 0.000001 0.000000 0.000000 -0.960071
    7 15.997003 0.000003 0.000000 -0.959336 -0.347270 0.385733
    8 1.885326 0.833277 -2.177876 -1.269183 0.640222 0.521791
    9 1.506961 -0.000001 -0.000002 0.000000 0.000000 -0.696369
    10 0.798346 0.000000 0.000003 0.000000 0.000000 -0.670190
    11 3.950303 -0.539874 -2.108871 0.083518 0.133195 0.567490
    12 1.545795 -0.000001 0.000002 0.000000 0.000000 1.333406
    13 1.667397 -0.000003 -0.000002 0.000000 0.000000 1.298525
    14 3.899459 -0.475376 -1.170889 -0.000676 0.000419 0.561979
    15 1.528220 0.000001 0.000001 0.000000 0.000000 1.193779
    16 1.528213 0.000004 -0.000004 0.000000 0.000000 1.342158
    17 3.899460 -0.431804 0.168225 -0.000676 0.000419 0.561979
    18 1.506961 0.000000 0.000001 0.000000 0.000000 1.289772
    19 1.506969 -0.000001 -0.000001 0.000000 0.000000 1.202506
    20 3.915632 -0.278019 1.402610 -0.000676 0.000419 0.561979
    21 1.333086 0.000000 0.000001 0.000000 0.000000 1.499212
    22 1.159205 0.000003 -0.000001 0.000000 0.000000 1.080333
    23 0.000008 0.011451 -1.352403 -0.000014 1.370796 3.140783
    24 6.078088 0.000002 0.000002 1.269618 -0.044848 -1.538622
    25 13.446756 -0.000005 0.000001 0.000000 0.000000 -0.069100
    26 15.997000 0.000003 0.000000 1.627023 0.001426 -0.011123
    27 -9.849934 -2.629987 3.992560 1.582244 -0.018583 -3.126154
    28 1.895213 2.808690 0.074532 0.000000 0.000000 0.000000
    29 -7.410141 -0.113610 -0.123967 0.000000 0.000000 0.000000
    30 -43.188030 1.691162 -0.053449 0.000000 0.000000 0.000000
  time 9
    0 -9.038578 -20.591611 -35.263554 0.000000 0.000000 -1.570795
    1 -0.000002 0.000000 0.000000 -0.000086 -1.570451 -1.570709
    2 4.443614 -0.009643 0.000006 -0.000004 -0.000001 0.000796
    3 12.111414 -0.011449 0.000000 0.000000 0.000000 0.000000
    4 0.000007 0.011443 1.352404 0.971004 -1.226034 2.198349
    5 6.078085 0.000000 -0.000001 -0.368721 0.229447 -1.039517
    6 13.446750 0.000001 0.000001 0.000000 0.000000 -0.957319
    7 15.997003 0.000003 0.000000 -0.986251 -0.369294 0.376961
    8 1.885326 0.833277 -2.177876 -1.269183 0.640222 0.521791
    9 1.506961 -0.000001 -0.000002 0.000000 0.000000 -0.696369
    10 0.798346 0.000000 0.000003 0.000000 0.000000 -0.670190
    11 3.950303 -0.539874 -2.108871 0.083518 0.133195 0.567490
    12 1.545795 -0.000001 0.000002 0.000000 0.000000 1.333406
    13 1.667397 -0.000003 -0.000002 0.000000 0.000000 1.298525
    14 3.899459 -0.475376 -1.170889 -0.000676 0.000419 0.561979
    15 1.528220 0.000001 0.000001 0.000000 0.000000 1.193805
    16 1.528213 0.000004 -0.000004 0.000000 0.000000 1.342132
    17 3.899460 -0.431804 0.168225 -0.000676 0.000419 0.561979
    18 1.506961 0.000000 0.000001 0.000000 0.000000 1.289772
    19 1.506969 -0.000001 -0.000001 0.000000 0.000000 1.202506
    20 3.915632 -0.278019 1.402610 -0.000676 0.000419 0.561979
    21 1.333086 0.000000 0.000001 0.000000 0.000000 1.499212
    22 1.159205 0.000003 -0.000001 0.000000 0.000000 1.080333
    23 0.000008 0.011451 -1.352403 -0.000014 1.370796 3.140783
    24 6.078088 0.000002 0.000002 1.269618 -0.044848 -1.538622
    25 13.446756 -0.000005 0.000001 0.000000 0.000000 -0.069100
    26 15.997000 0.000003 0.000000 1.597588 0.002361 -0.020797
    27 -9.849934 -2.629987 3.992560 1.582244 -0.018583 -3.126154
    28 1.895213 2.808690 0.074532 0.000000 0.000000 0.000000
    29 -7.410141 -0.113610 -0.123967 0.000000 0.000000 0.000000
    30 -43.188030 1.691162 -0.053449 0.000000 0.000000 0.000000
  time 10
    0 -9.038578 -20.591611 -35.263554 0.000000 0.000000 -1.570795
    1 -0.000002 0.000000 0.000000 -0.000086 -1.570451 -1.570709
    2 4.443614 -0.009643 0.000006 -0.000004 -0.000001 0.000796
    3 12.111414 -0.011449 0.000000 0.000000 0.000000 0.000000
    4 0.000007 0.011443 1.352404 0.971004 -1.226034 2.198349
    5 6.078085 0.000000 -0.000001 -0.373369 0.220586 -1.041186
    6 13.446750 0.000001 0.000001 0.000000 0.000000 -0.960071
    7 15.997003 0.000003 0.000000 -0.952863 -0.354396 0.378368
    8 1.885326 0.833277 -2.177876 -1.269183 0.640222 0.521791
    9 1.506961 -0.000001 -0.000002 0.000000 0.000000 -0.696369
    10 0.798346 0.000000 0.000003 0.000000 0.000000 -0.670190
    11 3.950303 -0.539874 -2.108871 0.083518 0.133195 0.567490
    12 1.545795 -0.000001 0.000002 0.000000 0.000000 1.333406
    13 1.667397 -0.000003 -0.000002 0.000000 0.000000 1.298499
    14 3.899459 -0.475376 -1.170889 -0.000676 0.000419 0.561979
    15 1.528220 0.000001 0.000001 0.000000 0.000000 1.193805
    16 1.528213 0.000004 -0.000004 0.000000 0.000000 1.342132
    17 3.899460 -0.431804 0.168225 -0.000676 0.000419 0.561979
    18 1.506961 0.000000 0.000001 0.000000 0.000000 1.289772
    19 1.506969 -0.000001 -0.000001 0.000000 0.000000 1.202506
    20 3.915632 -0.278019 1.402610 -0.000676 0.000419 0.561979
    21 1.333086 0.000000 0.000001 0.000000 0.000000 1.499212
    22 1.159205 0.000003 -0.000001 0.000000 0.000000 1.080333
    23 0.000008 0.011451 -1.352403 -0.000014 1.370796 3.140783
    24 6.078088 0.000002 0.000002 1.269618 -0.044848 -1.538622
    25 13.446756 -0.000005 0.000001 0.000000 0.000000 -0.069100
    26 15.997000 0.000003 0.000000 1.630522 0.002445 -0.021324
    27 -9.849934 -2.629987 3.992560 1.582244 -0.018583 -3.126154
    28 1.895213 2.808690 0.074532 0.000000 0.000000 0.000000
    29 -7.410141 -0.113610 -0.123967 0.000000 0.000000 0.000000
    30 -43.188030 1.691162 -0.053449 0.000000 0.000000 0.000000
  time 11
    0 -9.038578 -20.591611 -35.263554 0.000000 0.000000 -1.570795
    1 -0.000002 0.000000 0.000000 -0.000086 -1.570451 -1.570709
    2 4.443614 -0.009643 0.000006 -0.000004 -0.000001 0.000796
    3 12.111414 -0.011449 0.000000 0.000000 0.000000 0.000000
    4 0.000007 0.011443 1.352404 0.971004 -1.226034 2.198349
    5 6.078085 0.000000 -0.000001 -0.379258 0.209547 -1.044189
    6 13.446750 0.000001 0.000001 0.000000 0.000000 -0.962577
    7 15.997003 0.000003 0.000000 -0.912415 -0.335200 0.381309
    8 1.885326 0.833277 -2.177876 -1.269183 0.640222 0.521791
    9 1.506961 -0.000001 -0.000002 0.000000 0.000000 -0.696369
    10 0.798346 0.000000 0.000003 0.000000 0.000000 -0.670190
    11 3.950303 -0.539874 -2.108871 0.083518 0.133195 0.567490
    12 1.545795 -0.000001 0.000002 0.000000 0.000000 1.333406
    13 1.667397 -0.000003 -0.000002 0.000000 0.000000 1.298499
    14 3.899459 -0.475376 -1.170889 -0.000676 0.000419 0.561979
    15 1.528220 0.000001 0.000001 0.000000 0.000000 1.193805
    16 1.528213 0.000004 -0.000004 0.000000 0.000000 1.342132
    17 3.899460 -0.431804 0.168225 -0.000676 0.000419 0.561979
    18 1.506961 0.000000 0.000001 0.000000 0.000000 1.289772
    19 1.506969 -0.000001 -0.000001 0.000000 0.000000 1.202506
    20 3.915632 -0.278019 1.402610 -0.000676 0.000419 0.561979
    21 1.333086 0.000000 0.000001 0.000000 0.000000 1.499212
    22 1.159205 0.000003 -0.000001 0.000000 0.000000 1.080333
    23 0.000008 0.011451 -1.352403 -0.000014 1.370796 3.140783
    24 6.078088 0.000002 0.000002 1.269618 -0.044848 -1.538622
    25 13.446756 -0.000005 0.000001 0.000000 0.000000 -0.069100
    26 15.997000 0.000003 0.000000 1.670850 0.002361 -0.020797
    27 -9.849934 -2.629987 3.992560 1.582244 -0.018583 -3.126154
    28 1.895213 2.808690 0.074532 0.000000 0.000000 0.000000
    29 -7.410141 -0.113610 -0.123967 0.000000 0.000000 0.000000
    30 -43.188030 1.691162 -0.053449 0.000000 0.000000 0.000000
  time 12
    0 -9.038578 -20.591611 -35.263554 0.000000 0.000000 -1.570795
    1 -0.000002 0.000000 0.000000 -0.000086 -1.570451 -1.570709
    2 4.443614 -0.009643 0.000006 -0.000004 -0.000001 0.000796
    3 12.111414 -0.011449 0.000000 0.000000 0.000000 0.000000
    4 0.000007 0.011443 1.352404 0.971004 -1.226034 2.198349
    5 6.078085 0.000000 -0.000001 -0.375604 0.216422 -1.042053
    6 13.446750 0.000001 0.000001 0.000000 0.000000 -0.961660
    7 15.997003 0.000003 0.000000 -0.932703 -0.352505 0.374523
    8 1.885326 0.833277 -2.177876 -1.269183 0.640222 0.521791
    9 1.506961 -0.000001 -0.000002 0.000000 0.000000 -0.696369
    10 0.798346 0.000000 0.000003 0.000000 0.000000 -0.670190
    11 3.950303 -0.539874 -2.108871 0.083518 0.133195 0.567490
    12 1.545795 -0.000001 0.000002 0.000000 0.000000 1.333406
    13 1.667397 -0.000003 -0.000002 0.000000 0.000000 1.298525
    14 3.899459 -0.475376 -1.170889 -0.000676 0.000419 0.561979
    15 1.528220 0.000001 0.000001 0.000000 0.000000 1.193779
    16 1.528213 0.000004 -0.000004 0.000000 0.000000 1.342132
    17 3.899460 -0.431804 0.168225 -0.000676 0.000419 0.561979
    18 1.506961 0.000000 0.000001 0.000000 0.000000 1.289772
    19 1.506969 -0.000001 -0.000001 0.000000 0.000000 1.202506
    20 3.915632 -0.278019 1.402610 -0.000676 0.000419 0.561979
    21 1.333086 0.000000 0.000001 0.000000 0.000000 1.499212
    22 1.159205 0.000003 -0.000001 0.000000 0.000000 1.080333
    23 0.000008 0.011451 -1.352403 -0.000014 1.370796 3.140783
    24 6.078088 0.000002 0.000002 1.269618 -0.044848 -1.538622
    25 13.446756 -0.000005 0.000001 0.000000 0.000000 -0.069100
    26 15.997000 0.000003 0.000000 1.648391 0.002900 -0.028641
    27 -9.849934 -2.629987 3.992560 1.582244 -0.018583 -3.126154
    28 1.895213 2.808690 0.074532 0.000000 0.000000 0.000000
    29 -7.410141 -0.113610 -0.123967 0.000000 0.000000 0.000000
    30 -43.188030 1.691162 -0.053449 0.000000 0.000000 0.000000
  time 13
    0 -9.038578 -20.591611 -35.263554 0.000000 0.000000 -1.570795
    1 -0.000002 0.000000 0.000000 -0.000086 -1.570451 -1.570709
    2 4.443614 -0.009643 0.000006 -0.000004 -0.000001 0.000796
    3 12.111414 -0.011449 0.000000 0.000000 0.000000 0.000000
    4 0.000007 0.011443 1.352404 0.971004 -1.226034 2.198349
    5 6.078085 0.000000 -0.000001 -0.372482 0.222257 -1.040618
    6 13.446750 0.000001 0.000001 0.000000 0.000000 -0.960254
    7 15.997003 0.000003 0.000000 -0.950637 -0.367064 0.369144
    8 1.885326 0.833277 -2.177876 -1.269183 0.640222 0.521791
    9 1.506961 -0.000001 -0.000002 0.000000 0.000000 -0.696369
    10 0.798346 0.000000 0.000003 0.000000 0.000000 -0.670190
    11 3.950303 -0.539874 -2.108871 0.083518 0.133195 0.567490
    12 1.545795 -0.000001 0.000002 0.000000 0.000000 1.333406
    13 1.667397 -0.000003 -0.000002 0.000000 0.000000 1.298499
    14 3.899459 -0.475376 -1.170889 -0.000676 0.000419 0.561979
    15 1.528220 0.000001 0.000001 0.000000 0.000000 1.193805
    16 1.528213 0.000004 -0.000004 0.000000 0.000000 1.342132
    17 3.899460 -0.431804 0.168225 -0.000676 0.000419 0.561979
    18 1.506961 0.000000 0.000001 0.000000 0.000000 1.289772
    19 1.506969 -0.000001 -0.000001 0.000000 0.000000 1.202506
    20 3.915632 -0.278019 1.402610 -0.000676 0.000419 0.561979
    21 1.333086 0.000000 0.000001 0.000000 0.000000 1.499238
    22 1.159205 0.000003 -0.000001 0.000000 0.000000 1.080333
    23 0.000008 0.011451 -1.352403 -0.000014 1.370796 3.140783
    24 6.078088 0.000002 0.000002 1.269618 -0.044848 -1.538622
    25 13.446756 -0.000005 0.000001 0.000000 0.000000 -0.069100
    26 15.997000 0.000003 0.000000 1.628748 0.003188 -0.034744
    27 -9.849934 -2.629987 3.992560 1.582244 -0.018583 -3.126154
    28 1.895213 2.808690 0.074532 0.000000 0.000000 0.000000
    29 -7.410141 -0.113610 -0.123967 0.000000 0.000000 0.000000
    30 -43.188030 1.691162 -0.053449 0.000000 0.000000 0.000000
  time 14
    0 -9.038578 -20.591611 -35.263554 0.000000 0.000000 -1.570795
    1 -0.000002 0.000000 0.000000 -0.000086 -1.570451 -1.570709
    2 4.443614 -0.009643 0.000006 -0.000004 -0.000001 0.000796
    3 12.111414 -0.011449 0.000000 0.000000 0.000000 0.000000
    4 0.000007 0.011443 1.352404 0.971004 -1.226034 2.198349
    5 6.078085 0.000000 -0.000001 -0.377271 0.213275 -1.042854
    6 13.446750 0.000001 0.000001 0.000000 0.000000 -0.962577
    7 15.997003 0.000003 0.000000 -0.919092 -0.349322 0.373190
    8 1.885326 0.833277 -2.177876 -1.269183 0.640222 0.521791
    9 1.506961 -0.000001 -0.000002 0.000000 0.000000 -0.696369
    10 0.798346 0.000000 0.000003 0.000000 0.000000 -0.670190
    11 3.950303 -0.539874 -2.108871 0.083518 0.133195 0.567490
    12 1.545795 -0.000001 0.000002 0.000000 0.000000 1.333406
    13 1.667397 -0.000003 -0.000002 0.000000 0.000000 1.298525
    14 3.899459 -0.475376 -1.170889 -0.000676 0.000419 0.561979
    15 1.528220 0.000001 0.000001 0.000000 0.000000 1.193805
    16 1.528213 0.000004 -0.000004 0.000000 0.000000 1.342132
    17 3.899460 -0.431804 0.168225 -0.000676 0.000419 0.561979
    18 1.506961 0.000000 0.000001 0.000000 0.000000 1.289772
    19 1.506969 -0.000001 -0.000001 0.000000 0.000000 1.202506
    20 3.915632 -0.278019 1.402610 -0.000676 0.000419 0.561979
    21 1.333086 0.000000 0.000001 0.000000 0.000000 1.499212
    22 1.159205 0.000003 -0.000001 0.000000 0.000000 1.080333
    23 0.000008 0.011451 -1.352403 -0.000014 1.370796 3.140783
    24 6.078088 0.000002 0.000002 1.269618 -0.044848 -1.538622
    25 13.446756 -0.000005 0.000001 0.000000 0.000000 -0.069100
    26 15.997000 0.000003 0.000000 1.660999 0.003188 -0.031744
    27 -9.849934 -2.629987 3.992560 1.582244 -0.018583 -3.126154
    28 1.895213 2.808690 0.074532 0.000000 0.000000 0.000000
    29 -7.410141 -0.113610 -0.123967 0.000000 0.000000 0.000000
    30 -43.188030 1.691162 -0.053449 0.000000 0.000000 0.000000
  time 15
    0 -9.038578 -20.591611 -35.263554 0.000000 0.000000 -1.570795
    1 -0.000002 0.000000 0.000000 -0.000086 -1.570451 -1.570709
    2 4.443614 -0.009643 0.000006 -0.000004 -0.000001 0.000796
    3 12.111414 -0.011449 0.000000 0.000000 0.000000 0.000000
    4 0.000007 0.011443 1.352404 0.971004 -1.226034 2.198349
    5 6.078085 0.000000 -0.000001 -0.384615 0.199645 -1.047626
    6 13.446750 0.000001 0.000001 0.000000 0.000000 -0.964228
    7 15.997003 0.000003 0.000000 -0.873168 -0.321853 0.380580
    8 1.885326 0.833277 -2.177876 -1.269183 0.640222 0.521791
    9 1.506961 -0.000001 -0.000002 0.000000 0.000000 -0.696369
    10 0.798346 0.000000 0.000003 0.000000 0.000000 -0.670190
    11 3.950303 -0.539874 -2.108871 0.083518 0.133195 0.567490
    12 1.545795 -0.000001 0.000002 0.000000 0.000000 1.333406
    13 1.667397 -0.000003 -0.000002 0.000000 0.000000 1.298525
    14 3.899459 -0.475376 -1.170889 -0.000676 0.000419 0.561979
    15 1.528220 0.000001 0.000001 0.000000 0.000000 1.193805
    16 1.528213 0.000004 -0.000004 0.000000 0.000000 1.342132
    17 3.899460 -0.431804 0.168225 -0.000676 0.000419 0.561979
    18 1.506961 0.000000 0.000001 0.000000 0.000000 1.289772
    19 1.506969 -0.000001 -0.000001 0.000000 0.000000 1.202506
    20 3.915632 -0.278019 1.402610 -0.000676 0.000419 0.561979
    21 1.333086 0.000000 0.000001 0.000000 0.000000 1.499212
    22 1.159205 0.000003 -0.000001 0.000000 0.000000 1.080333
    23 0.000008 0.011451 -1.352403 -0.000014 1.370796 3.140783
    24 6.078088 0.000002 0.000002 1.269618 -0.044848 -1.538622
    25 13.446756 -0.000005 0.000001 0.000000 0.000000 -0.069100
    26 15.997000 0.000003 0.000000 1.708566 0.002840 -0.025641
    27 -9.849934 -2.629987 3.992560 1.582244 -0.018583 -3.126154
    28 1.895213 2.808690 0.074532 0.000000 0.000000 0.000000
    29 -7.410141 -0.113610 -0.123967 0.000000 0.000000 0.000000
    30 -43.188030 1.691162 -0.053449 0.000000 0.000000 0.000000
  time 16
    0 -9.038578 -20.591611 -35.263554 0.000000 0.000000 -1.570795
    1 -0.000002 0.000000 0.000000 -0.000086 -1.570451 -1.570709
    2 4.443614 -0.009643 0.000006 -0.000004 -0.000001 0.000796
    3 12.111414 -0.011449 0.000000 0.000000 0.000000 0.000000
    4 0.000007 0.011443 1.352404 0.971004 -1.226034 2.198349
    5 6.078085 0.000000 -0.000001 -0.389263 0.190978 -1.051530
    6 13.446750 0.000001 0.000001 0.000000 0.000000 -0.964044
    7 15.997003 0.000003 0.000000 -0.845128 -0.304112 0.386035
    8 1.885326 0.833277 -2.177876 -1.269183 0.640222 0.521791
    9 1.506961 -0.000001 -0.000002 0.000000 0.000000 -0.696369
    10 0.798346 0.000000 0.000003 0.000000 0.000000 -0.670190
    11 3.950303 -0.539874 -2.108871 0.083518 0.133195 0.567490
    12 1.545795 -0.000001 0.000002 0.000000 0.000000 1.333406
    13 1.667397 -0.000003 -0.000002 0.000000 0.000000 1.298525
    14 3.899459 -0.475376 -1.170889 -0.000676 0.000419 0.561979
    15 1.528220 0.000001 0.000001 0.000000 0.000000 1.193805
    16 1.528213 0.000004 -0.000004 0.000000 0.000000 1.342132
    17 3.899460 -0.431804 0.168225 -0.000676 0.000419 0.561979
    18 1.506961 0.000000 0.000001 0.000000 0.000000 1.289772
    19 1.506969 -0.000001 -0.000001 0.000000 0.000000 1.202532
    20 3.915632 -0.278019 1.402610 -0.000676 0.000419 0.561979
    21 1.333086 0.000000 0.000001 0.000000 0.000000 1.499212
    22 1.159205 0.000003 -0.000001 0.000000 0.000000 1.080333
    23 0.000008 0.011451 -1.352403 -0.000014 1.370796 3.140783
    24 6.078088 0.000002 0.000002 1.269618 -0.044848 -1.538622
    25 13.446756 -0.000005 0.000001 0.000000 0.000000 -0.069100
    26 15.997000 0.000003 0.000000 1.737940 0.002361 -0.020797
    27 -9.849934 -2.629987 3.992560 1.582244 -0.018583 -3.126154
    28 1.895213 2.808690 0.074532 0.000000 0.000000 0.000000
    29 -7.410141 -0.113610 -0.123967 0.000000 0.000000 0.000000
    30 -43.188030 1.691162 -0.053449 0.000000 0.000000 0.000000
  time 17
    0 -9.038578 -20.591611 -35.263554 0.000000 0.000000 -1.570795
    1 -0.000002 0.000000 0.000000 -0.000086 -1.570451 -1.570709
    2 4.443614 -0.009643 0.000006 -0.000004 -0.000001 0.000796
    3 12.111414 -0.011449 0.000000 0.000000 0.000000 0.000000
    4 0.000007 0.011443 1.352404 0.971004 -1.226034 2.198349
    5 6.078085 0.000000 -0.000001 -0.385005 0.198870 -1.048093
    6 13.446750 0.000001 0.000001 0.000000 0.000000 -0.963800
    7 15.997003 0.000003 0.000000 -0.873450 -0.317329 0.383798
    8 1.885326 0.833277 -2.177876 -1.269183 0.640222 0.521791
    9 1.506961 -0.000001 -0.000002 0.000000 0.000000 -0.696369
    10 0.798346 0.000000 0.000003 0.000000 0.000000 -0.670190
    11 3.950303 -0.539874 -2.108871 0.083518 0.133195 0.567490
    12 1.545795 -0.000001 0.000002 0.000000 0.000000 1.333406
    13 1.667397 -0.000003 -0.000002 0.000000 0.000000 1.298525
    14 3.899459 -0.475376 -1.170889 -0.000676 0.000419 0.561979
    15 1.528220 0.000001 0.000001 0.000000 0.000000 1.193805
    16 1.528213 0.000004 -0.000004 0.000000 0.000000 1.342132
    17 3.899460 -0.431804 0.168225 -0.000676 0.000419 0.561979
    18 1.506961 0.000000 0.000001 0.000000 0.000000 1.289772
    19 1.506969 -0.000001 -0.000001 0.000000 0.000000 1.202506
    20 3.915632 -0.278019 1.402610 -0.000676 0.000419 0.561979
    21 1.333086 0.000000 0.000001 0.000000 0.000000 1.499212
    22 1.159205 0.000003 -0.000001 0.000000 0.000000 1.080333
    23 0.000008 0.011451 -1.352403 -0.000014 1.370796 3.140783
    24 6.078088 0.000002 0.000002 1.269618 -0.044848 -1.538622
    25 13.446756 -0.000005 0.000001 0.000000 0.000000 -0.069100
    26 15.997000 0.000003 0.000000 1.709620 0.002421 -0.020972
    27 -9.849934 -2.629987 3.992560 1.582244 -0.018583 -3.126154
    28 1.895213 2.808690 0.074532 0.000000 0.000000 0.000000
    29 -7.410141 -0.113610 -0.123967 0.000000 0.000000 0.000000
    30 -43.188030 1.691162 -0.053449 0.000000 0.000000 0.000000
  time 18
    0 -9.038578 -20.591611 -35.263554 0.000000 0.000000 -1.570795
    1 -0.000002 0.000000 0.000000 -0.000086 -1.570451 -1.570709
    2 4.443614 -0.009643 0.000006 -0.000004 -0.000001 0.000796
    3 12.111414 -0.011449 0.000000 0.000000 0.000000 0.000000
    4 0.000007 0.011443 1.352404 0.971004 -1.226034 2.198349
    5 6.078085 0.000000 -0.000001 -0.379790 0.208602 -1.044489
    6 13.446750 0.000001 0.000001 0.000000 0.000000 -0.962760
    7 15.997003 0.000003 0.000000 -0.908961 -0.333600 0.381535
    8 1.885326 0.833277 -2.177876 -1.269183 0.640222 0.521791
    9 1.506961 -0.000001 -0.000002 0.000000 0.000000 -0.696369
    10 0.798346 0.000000 0.000003 0.000000 0.000000 -0.670190
    11 3.950303 -0.539874 -2.108871 0.083518 0.133195 0.567490
    12 1.545795 -0.000001 0.000002 0.000000 0.000000 1.333406
    13 1.667397 -0.000003 -0.000002 0.000000 0.000000 1.298525
    14 3.899459 -0.475376 -1.170889 -0.000676 0.000419 0.561979
    15 1.528220 0.000001 0.000001 0.000000 0.000000 1.193779
    16 1.528213 0.000004 -0.000004 0.000000 0.000000 1.342158
    17 3.899460 -0.431804 0.168225 -0.000676 0.000419 0.561979
    18 1.506961 0.000000 0.000001 0.000000 0.000000 1.289772
    19 1.506969 -0.000001 -0.000001 0.000000 0.000000 1.202532
    20 3.915632 -0.278019 1.402610 -0.000676 0.000419 0.561979
    21 1.333086 0.000000 0.000001 0.000000 0.000000 1.499212
    22 1.159205 0.000003 -0.000001 0.000000 0.000000 1.080333
    23 0.000008 0.011451 -1.352403 -0.000014 1.370796 3.140783
    24 6.078088 0.000002 0.000002 1.269618 -0.044848 -1.538622
    25 13.446756 -0.000005 0.000001 0.000000 0.000000 -0.069100
    26 15.997000 0.000003 0.000000 1.674290 0.002361 -0.020797
    27 -9.849934 -2.629987 3.992560 1.582244 -0.018583 -3.126154
    28 1.895213 2.808690 0.074532 0.000000 0.000000 0.000000
    29 -7.410141 -0.113610 -0.123967 0.000000 0.000000 0.000000
    30 -43.188030 1.691162 -0.053449 0.000000 0.000000 0.000000
  time 19
    0 -9.038578 -20.591611 -35.263554 0.000000 0.000000 -1.570795
    1 -0.000002 0.000000 0.000000 -0.000086 -1.570451 -1.570709
    2 4.443614 -0.009643 0.000006 -0.000004 -0.000001 0.000796
    3 12.111414 -0.011449 0.000000 0.000000 0.000000 0.000000
    4 0.000007 0.011443 1.352404 0.971004 -1.226034 2.198349
    5 6.078085 0.000000 -0.000001 -0.383693 0.201291 -1.047192
    6 13.446750 0.000001 0.000001 0.000000 0.000000 -0.963372
    7 15.997003 0.000003 0.000000 -0.887112 -0.315972 0.388976
    8 1.885326 0.833277 -2.177876 -1.269183 0.640222 0.521791
    9 1.506961 -0.000001 -0.000002 0.000000 0.000000 -0.696369
    10 0.798346 0.000000 0.000003 0.000000 0.000000 -0.670190
    11 3.950303 -0.539874 -2.108871 0.083518 0.133195 0.567490
    12 1.545795 -0.000001 0.000002 0.000000 0.000000 1.333406
    13 1.667397 -0.000003 -0.000002 0.000000 0.000000 1.298499
    14 3.899459 -0.475376 -1.170889 -0.000676 0.000419 0.561979
    15 1.528220 0.000001 0.000001 0.000000 0.000000 1.193805
    16 1.528213 0.000004 -0.000004 0.000000 0.000000 1.342132
    17 3.899460 -0.431804 0.168225 -0.000676 0.000419 0.561979
    18 1.506961 0.000000 0.000001 0.000000 0.000000 1.289772
    19 1.506969 -0.000001 -0.000001 0.000000 0.000000 1.202506
    20 3.915632 -0.278019 1.402610 -0.000676 0.000419 0.561979
    21 1.333086 0.000000 0.000001 0.000000 0.000000 1.499212
    22 1.159205 0.000003 -0.000001 0.000000 0.000000 1.080333
    23 0.000008 0.011451 -1.352403 -0.000014 1.370796 3.140783
    24 6.078088 0.000002 0.000002 1.269618 -0.044848 -1.538622
    25 13.446756 -0.000005 0.000001 0.000000 0.000000 -0.069100
    26 15.997000 0.000003 0.000000 1.698271 0.001282 -0.013025
    27 -9.849934 -2.629987 3.992560 1.582244 -0.018583 -3.126154
    28 1.895213 2.808690 0.074532 0.000000 0.000000 0.000000
    29 -7.410141 -0.113610 -0.123967 0.000000 0.000000 0.000000
    30 -43.188030 1.691162 -0.053449 0.000000 0.000000 0.000000
  time 20
    0 -9.038578 -20.591611 -35.263554 0.000000 0.000000 -1.570795
    1 -0.000002 0.000000 0.000000 -0.000086 -1.570451 -1.570709
    2 4.443614 -0.009643 0.000006 -0.000004 -0.000001 0.000796
    3 12.111414 -0.011449 0.000000 0.000000 0.000000 0.000000
    4 0.000007 0.011443 1.352404 0.971004 -1.226034 2.198349
    5 6.078085 0.000000 -0.000001 -0.386992 0.195190 -1.049795
    6 13.446750 0.000001 0.000001 0.000000 0.000000 -0.963372
    7 15.997003 0.000003 0.000000 -0.868793 -0.301769 0.394883
    8 1.885326 0.833277 -2.177876 -1.269183 0.640222 0.521791
    9 1.506961 -0.000001 -0.000002 0.000000 0.000000 -0.696369
    10 0.798346 0.000000 0.000003 0.000000 0.000000 -0.670190
    11 3.950303 -0.539874 -2.108871 0.083518 0.133195 0.567490
    12 1.545795 -0.000001 0.000002 0.000000 0.000000 1.333406
    13 1.667397 -0.000003 -0.000002 0.000000 0.000000 1.298525
    14 3.899459 -0.475376 -1.170889 -0.000676 0.000419 0.561979
    15 1.528220 0.000001 0.000001 0.000000 0.000000 1.193779
    16 1.528213 0.000004 -0.000004 0.000000 0.000000 1.342132
    17 3.899460 -0.431804 0.168225 -0.000676 0.000419 0.561979
    18 1.506961 0.000000 0.000001 0.000000 0.000000 1.289772
    19 1.506969 -0.000001 -0.000001 0.000000 0.000000 1.202506
    20 3.915632 -0.278019 1.402610 -0.000676 0.000419 0.561979
    21 1.333086 0.000000 0.000001 0.000000 0.000000 1.499212
    22 1.159205 0.000003 -0.000001 0.000000 0.000000 1.080333
    23 0.000008 0.011451 -1.352403 -0.000014 1.370796 3.140783
    24 6.078088 0.000002 0.000002 1.269618 -0.044848 -1.538622
    25 13.446756 -0.000005 0.000001 0.000000 0.000000 -0.069100
    26 15.997000 0.000003 0.000000 1.718225 0.000300 -0.006996
    27 -9.849934 -2.629987 3.992560 1.582244 -0.018583 -3.126154
    28 1.895213 2.808690 0.074532 0.000000 0.000000 0.000000
    29 -7.410141 -0.113610 -0.123967 0.000000 0.000000 0.000000
    30 -43.188030 1.691162 -0.053449 0.000000 0.000000 0.000000
  time 21
    0 -9.038578 -20.591611 -35.263554 0.000000 0.000000 -1.570795
    1 -0.000002 0.000000 0.000000 -0.000086 -1.570451 -1.570709
    2 4.443614 -0.009643 0.000006 -0.000004 -0.000001 0.000796
    3 12.111414 -0.011449 0.000000 0.000000 0.000000 0.000000
    4 0.000007 0.011443 1.352404 0.971004 -1.226034 2.198349
    5 6.078085 0.000000 -0.000001 -0.381990 0.204487 -1.046024
    6 13.446750 0.000001 0.000001 0.000000 0.000000 -0.962944
    7 15.997003 0.000003 0.000000 -0.901081 -0.318493 0.391062
    8 1.885326 0.833277 -2.177876 -1.269183 0.640222 0.521791
    9 1.506961 -0.000001 -0.000002 0.000000 0.000000 -0.696369
    10 0.798346 0.000000 0.000003 0.000000 0.000000 -0.670190
    11 3.950303 -0.539874 -2.108871 0.083518 0.133195 0.567490
    12 1.545795 -0.000001 0.000002 0.000000 0.000000 1.333406
    13 1.667397 -0.000003 -0.000002 0.000000 0.000000 1.298525
    14 3.899459 -0.475376 -1.170889 -0.000676 0.000419 0.561979
    15 1.528220 0.000001 0.000001 0.000000 0.000000 1.193805
    16 1.528213 0.000004 -0.000004 0.000000 0.000000 1.342132
    17 3.899460 -0.431804 0.168225 -0.000676 0.000419 0.561979
    18 1.506961 0.000000 0.000001 0.000000 0.000000 1.289772
    19 1.506969 -0.000001 -0.000001 0.000000 0.000000 1.202506
    20 3.915632 -0.278019 1.402610 -0.000676 0.000419 0.561979
    21 1.333086 0.000000 0.000001 0.000000 0.000000 1.499212
    22 1.159205 0.000003 -0.000001 0.000000 0.000000 1.080333
    23 0.000008 0.011451 -1.352403 -0.000014 1.370796 3.140783
    24 6.078088 0.000002 0.000002 1.269618 -0.044848 -1.538622
    25 13.446756 -0.000005 0.000001 0.000000 0.000000 -0.069100
    26 15.997000 0.000003 0.000000 1.685483 0.000815 -0.009001
    27 -9.849934 -2.629987 3.992560 1.582244 -0.018583 -3.126154
    28 1.895213 2.808690 0.074532 0.000000 0.000000 0.000000
    29 -7.410141 -0.113610 -0.123967 0.000000 0.000000 0.000000
    30 -43.188030 1.691162 -0.053449 0.000000 0.000000 0.000000
  time 22
    0 -9.038578 -20.591611 -35.263554 0.000000 0.000000 -1.570795
    1 -0.000002 0.000000 0.000000 -0.000086 -1.570451 -1.570709
    2 4.443614 -0.009643 0.000006 -0.000004 -0.000001 0.000796
    3 12.111414 -0.011449 0.000000 0.000000 0.000000 0.000000
    4 0.000007 0.011443 1.352404 0.971004 -1.226034 2.198349
    5 6.078085 0.000000 -0.000001 -0.374646 0.218189 -1.041753
    6 13.446750 0.000001 0.000001 0.000000 0.000000 -0.960743
    7 15.997003 0.000003 0.000000 -0.948207 -0.345121 0.384175
    8 1.885326 0.833277 -2.177876 -1.269183 0.640222 0.521791
    9 1.506961 -0.000001 -0.000002 0.000000 0.000000 -0.696369
    10 0.798346 0.000000 0.000003 0.000000 0.000000 -0.670190
    11 3.950303 -0.539874 -2.108871 0.083518 0.133195 0.567490
    12 1.545795 -0.000001 0.000002 0.000000 0.000000 1.333406
    13 1.667397 -0.000003 -0.000002 0.000000 0.000000 1.298525
    14 3.899459 -0.475376 -1.170889 -0.000676 0.000419 0.561979
    15 1.528220 0.000001 0.000001 0.000000 0.000000 1.193805
    16 1.528213 0.000004 -0.000004 0.000000 0.000000 1.342132
    17 3.899460 -0.431804 0.168225 -0.000676 0.000419 0.561979
    18 1.506961 0.000000 0.000001 0.000000 0.000000 1.289772
    19 1.506969 -0.000001 -0.000001 0.000000 0.000000 1.202506
    20 3.915632 -0.278019 1.402610 -0.000676 0.000419 0.561979
    21 1.333086 0.000000 0.000001 0.000000 0.000000 1.499212
    22 1.159205 0.000003 -0.000001 0.000000 0.000000 1.080333
    23 0.000008 0.011451 -1.352403 -0.000014 1.370796 3.140783
    24 6.078088 0.000002 0.000002 1.269618 -0.044848 -1.538622
    25 13.446756 -0.000005 0.000001 0.000000 0.000000 -0.069100
    26 15.997000 0.000003 0.000000 1.637209 0.001666 -0.014108
    27 -9.849934 -2.629987 3.992560 1.582244 -0.018583 -3.126154
    28 1.895213 2.808690 0.074532 0.000000 0.000000 0.000000
    29 -7.410141 -0.113610 -0.123967 0.000000 0.000000 0.000000
    30 -43.188030 1.691162 -0.053449 0.000000 0.000000 0.000000
  time 23
    0 -9.038578 -20.591611 -35.263554 0.000000 0.000000 -1.570795
    1 -0.000002 0.000000 0.000000 -0.000086 -1.570451 -1.570709
    2 4.443614 -0.009643 0.000006 -0.000004 -0.000001 0.000796
    3 12.111414 -0.011449 0.000000 0.000000 0.000000 0.000000
    4 0.000007 0.011443 1.352404 0.971004 -1.226034 2.198349
    5 6.078085 0.000000 -0.000001 -0.370353 0.226300 -1.040051
    6 13.446750 0.000001 0.000001 0.000000 0.000000 -0.958420
    7 15.997003 0.000003 0.000000 -0.974431 -0.363848 0.377589
    8 1.885326 0.833277 -2.177876 -1.269183 0.640222 0.521791
    9 1.506961 -0.000001 -0.000002 0.000000 0.000000 -0.696369
    10 0.798346 0.000000 0.000003 0.000000 0.000000 -0.670190
    11 3.950303 -0.539874 -2.108871 0.083518 0.133195 0.567490
    12 1.545795 -0.000001 0.000002 0.000000 0.000000 1.333406
    13 1.667397 -0.000003 -0.000002 0.000000 0.000000 1.298499
    14 3.899459 -0.475376 -1.170889 -0.000676 0.000419 0.561979
    15 1.528220 0.000001 0.000001 0.000000 0.000000 1.193805
    16 1.528213 0.000004 -0.000004 0.000000 0.000000 1.342132
    17 3.899460 -0.431804 0.168225 -0.000676 0.000419 0.561979
    18 1.506961 0.000000 0.000001 0.000000 0.000000 1.289772
    19 1.506969 -0.000001 -0.000001 0.000000 0.000000 1.202506
    20 3.915632 -0.278019 1.402610 -0.000676 0.000419 0.561979
    21 1.333086 0.000000 0.000001 0.000000 0.000000 1.499212
    22 1.159205 0.000003 -0.000001 0.000000 0.000000 1.080333
    23 0.000008 0.011451 -1.352403 -0.000014 1.370796 3.140783
    24 6.078088 0.000002 0.000002 1.269618 -0.044848 -1.538622
    25 13.446756 -0.000005 0.000001 0.000000 0.000000 -0.069100
    26 15.997000 0.000003 0.000000 1.609297 0.002361 -0.020797
    27 -9.849934 -2.629987 3.992560 1.582244 -0.018583 -3.126154
    28 1.895213 2.808690 0.074532 0.000000 0.000000 0.000000
    29 -7.410141 -0.113610 -0.123967 0.000000 0.000000 0.000000
    30 -43.188030 1.691162 -0.053449 0.000000 0.000000 0.000000
  time 24
    0 -9.038578 -20.591611 -35.263554 0.000000 0.000000 -1.570795
    1 -0.000002 0.000000 0.000000 -0.000086 -1.570451 -1.570709
    2 4.443614 -0.009643 0.000006 -0.000004 -0.000001 0.000796
    3 12.111414 -0.011449 0.000000 0.000000 0.000000 0.000000
    4 0.000007 0.011443 1.352404 0.971004 -1.226034 2.198349
    5 6.078085 0.000000 -0.000001 -0.374930 0.217657 -1.041820
    6 13.446750 0.000001 0.000001 0.000000 0.000000 -0.961110
    7 15.997003 0.000003 0.000000 -0.934903 -0.357692 0.370752
    8 1.885326 0.833277 -2.177876 -1.269183 0.640222 0.521791
    9 1.506961 -0.000001 -0.000002 0.000000 0.000000 -0.696369
    10 0.798346 0.000000 0.000003 0.000000 0.000000 -0.670190
    11 3.950303 -0.539874 -2.108871 0.083518 0.133195 0.567490
    12 1.545795 -0.000001 0.000002 0.000000 0.000000 1.333406
    13 1.667397 -0.000003 -0.000002 0.000000 0.000000 1.298525
    14 3.899459 -0.475376 -1.170889 -0.000676 0.000419 0.561979
    15 1.528220 0.000001 0.000001 0.000000 0.000000 1.193805
    16 1.528213 0.000004 -0.000004 0.000000 0.000000 1.342158
    17 3.899460 -0.431804 0.168225 -0.000676 0.000419 0.561979
    18 1.506961 0.000000 0.000001 0.000000 0.000000 1.289772
    19 1.506969 -0.000001 -0.000001 0.000000 0.000000 1.202506
    20 3.915632 -0.278019 1.402610 -0.000676 0.000419 0.561979
    21 1.333086 0.000000 0.000001 0.000000 0.000000 1.499212
    22 1.159205 0.000003 -0.000001 0.000000 0.000000 1.080333
    23 0.000008 0.011451 -1.352403 -0.000014 1.370796 3.140783
    24 6.078088 0.000002 0.000002 1.269618 -0.044848 -1.538622
    25 13.446756 -0.000005 0.000001 0.000000 0.000000 -0.069100
    26 15.997000 0.000003 0.000000 1.644892 0.003559 -0.032959
    27 -9.849934 -2.629987 3.992560 1.582244 -0.018583 -3.126154
    28 1.895213 2.808690 0.074532 0.000000 0.000000 0.000000
    29 -7.410141 -0.113610 -0.123967 0.000000 0.000000 0.000000
    30 -43.188030 1.691162 -0.053449 0.000000 0.000000 0.000000
  time 25
    0 -9.038578 -20.591611 -35.263554 0.000000 0.000000 -1.570795
    1 -0.000002 0.000000 0.000000 -0.000086 -1.570451 -1.570709
    2 4.443614 -0.009643 0.000006 -0.000004 -0.000001 0.000796
    3 12.111414 -0.011449 0.000000 0.000000 0.000000 0.000000
    4 0.000007 0.011443 1.352404 0.971004 -1.226034 2.198349
    5 6.078085 0.000000 -0.000001 -0.380996 0.206327 -1.045023
    6 13.446750 0.000001 0.000001 0.000000 0.000000 -0.963922
    7 15.997003 0.000003 0.000000 -0.887623 -0.344152 0.367258
    8 1.885326 0.833277 -2.177876 -1.269183 0.640222 0.521791
    9 1.506961 -0.000001 -0.000002 0.000000 0.000000 -0.696369
    10 0.798346 0.000000 0.000003 0.000000 0.000000 -0.670190
    11 3.950303 -0.539874 -2.108871 0.083518 0.133195 0.567490
    12 1.545795 -0.000001 0.000002 0.000000 0.000000 1.333406
    13 1.667397 -0.000003 -0.000002 0.000000 0.000000 1.298499
    14 3.899459 -0.475376 -1.170889 -0.000676 0.000419 0.561979
    15 1.528220 0.000001 0.000001 0.000000 0.000000 1.193805
    16 1.528213 0.000004 -0.000004 0.000000 0.000000 1.342132
    17 3.899460 -0.431804 0.168225 -0.000676 0.000419 0.561979
    18 1.506961 0.000000 0.000001 0.000000 0.000000 1.289772
    19 1.506969 -0.000001 -0.000001 0.000000 0.000000 1.202506
    20 3.915632 -0.278019 1.402610 -0.000676 0.000419 0.561979
    21 1.333086 0.000000 0.000001 0.000000 0.000000 1.499212
    22 1.159205 0.000003 -0.000001 0.000000 0.000000 1.080333
    23 0.000008 0.011451 -1.352403 -0.000014 1.370796 3.140783
    24 6.078088 0.000002 0.000002 1.269618 -0.044848 -1.538622
    25 13.446756 -0.000005 0.000001 0.000000 0.000000 -0.069100
    26 15.997000 0.000003 0.000000 1.689330 0.004854 -0.041594
    27 -9.849934 -2.629987 3.992560 1.582244 -0.018583 -3.126154
    28 1.895213 2.808690 0.074532 0.000000 0.000000 0.000000
    29 -7.410141 -0.113610 -0.123967 0.000000 0.000000 0.000000
    30 -43.188030 1.691162 -0.053449 0.000000 0.000000 0.000000
  time 26
    0 -9.038578 -20.591611 -35.263554 0.000000 0.000000 -1.570795
    1 -0.000002 0.000000 0.000000 -0.000086 -1.570451 -1.570709
    2 4.443614 -0.009643 0.000006 -0.000004 -0.000001 0.000796
    3 12.111414 -0.011449 0.000000 0.000000 0.000000 0.000000
    4 0.000007 0.011443 1.352404 0.971004 -1.226034 2.198349
    5 6.078085 0.000000 -0.000001 -0.379187 0.209716 -1.044022
    6 13.446750 0.000001 0.000001 0.000000 0.000000 -0.962944
    7 15.997003 0.000003 0.000000 -0.905763 -0.343667 0.372939
    8 1.885326 0.833277 -2.177876 -1.269183 0.640222 0.521791
    9 1.506961 -0.000001 -0.000002 0.000000 0.000000 -0.696369
    10 0.798346 0.000000 0.000003 0.000000 0.000000 -0.670190
    11 3.950303 -0.539874 -2.108871 0.083518 0.133195 0.567490
    12 1.545795 -0.000001 0.000002 0.000000 0.000000 1.333406
    13 1.667397 -0.000003 -0.000002 0.000000 0.000000 1.298525
    14 3.899459 -0.475376 -1.170889 -0.000676 0.000419 0.561979
    15 1.528220 0.000001 0.000001 0.000000 0.000000 1.193805
    16 1.528213 0.000004 -0.000004 0.000000 0.000000 1.342132
    17 3.899460 -0.431804 0.168225 -0.000676 0.000419 0.561979
    18 1.506961 0.000000 0.000001 0.000000 0.000000 1.289772
    19 1.506969 -0.000001 -0.000001 0.000000 0.000000 1.202506
    20 3.915632 -0.278019 1.402610 -0.000676 0.000419 0.561979
    21 1.333086 0.000000 0.000001 0.000000 0.000000 1.499238
    22 1.159205 0.000003 -0.000001 0.000000 0.000000 1.080333
    23 0.000008 0.011451 -1.352403 -0.000014 1.370796 3.140783
    24 6.078088 0.000002 0.000002 1.269618 -0.044848 -1.538622
    25 13.446756 -0.000005 0.000001 0.000000 0.000000 -0.069100
    26 15.997000 0.000003 0.000000 1.674014 0.003679 -0.032505
    27 -9.849934 -2.629987 3.992560 1.582244 -0.018583 -3.126154
    28 1.895213 2.808690 0.074532 0.000000 0.000000 0.000000
    29 -7.410141 -0.113610 -0.123967 0.000000 0.000000 0.000000
    30 -43.188030 1.691162 -0.053449 0.000000 0.000000 0.000000
  time 27
    0 -9.038578 -20.591611 -35.263554 0.000000 0.000000 -1.570795
    1 -0.000002 0.000000 0.000000 -0.000086 -1.570451 -1.570709
    2 4.443614 -0.009643 0.000006 -0.000004 -0.000001 0.000796
    3 12.111414 -0.011449 0.000000 0.000000 0.000000 0.000000
    4 0.000007 0.011443 1.352404 0.971004 -1.226034 2.198349
    5 6.078085 0.000000 -0.000001 -0.377271 0.213299 -1.043054
    6 13.446750 0.000001 0.000001 0.000000 0.000000 -0.961905
    7 15.997003 0.000003 0.000000 -0.926230 -0.341582 0.380430
    8 1.885326 0.833277 -2.177876 -1.269183 0.640222 0.521791
    9 1.506961 -0.000001 -0.000002 0.000000 0.000000 -0.696369
    10 0.798346 0.000000 0.000003 0.000000 0.000000 -0.670190
    11 3.950303 -0.539874 -2.108871 0.083518 0.133195 0.567490
    12 1.545795 -0.000001 0.000002 0.000000 0.000000 1.333406
    13 1.667397 -0.000003 -0.000002 0.000000 0.000000 1.298499
    14 3.899459 -0.475376 -1.170889 -0.000676 0.000419 0.561979
    15 1.528220 0.000001 0.000001 0.000000 0.000000 1.193805
    16 1.528213 0.000004 -0.000004 0.000000 0.000000 1.342132
    17 3.899460 -0.431804 0.168225 -0.000676 0.000419 0.561979
    18 1.506961 0.000000 0.000001 0.000000 0.000000 1.289772
    19 1.506969 -0.000001 -0.000001 0.000000 0.000000 1.202506
    20 3.915632 -0.278019 1.402610 -0.000676 0.000419 0.561979
    21 1.333086 0.000000 0.000001 0.000000 0.000000 1.499212
    22 1.159205 0.000003 -0.000001 0.000000 0.000000 1.080333
    23 0.000008 0.011451 -1.352403 -0.000014 1.370796 3.140783
    24 6.078088 0.000002 0.000002 1.269618 -0.044848 -1.538622
    25 13.446756 -0.000005 0.000001 0.000000 0.000000 -0.069100
    26 15.997000 0.000003 0.000000 1.657116 0.002361 -0.020797
    27 -9.849934 -2.629987 3.992560 1.582244 -0.018583 -3.126154
    28 1.895213 2.808690 0.074532 0.000000 0.000000 0.000000
    29 -7.410141 -0.113610 -0.123967 0.000000 0.000000 0.000000
    30 -43.188030 1.691162 -0.053449 0.000000 0.000000 0.000000
  time 28
    0 -9.038578 -20.591611 -35.263554 0.000000 0.000000 -1.570795
    1 -0.000002 0.000000 0.000000 -0.000086 -1.570451 -1.570709
    2 4.443614 -0.009643 0.000006 -0.000004 -0.000001 0.000796
    3 12.111414 -0.011449 0.000000 0.000000 0.000000 0.000000
    4 0.000007 0.011443 1.352404 0.971004 -1.226034 2.198349
    5 6.078085 0.000000 -0.000001 -0.382309 0.203881 -1.046158
    6 13.446750 0.000001 0.000001 0.000000 0.000000 -0.963311
    7 15.997003 0.000003 0.000000 -0.892587 -0.324762 0.383597
    8 1.885326 0.833277 -2.177876 -1.269183 0.640222 0.521791
    9 1.506961 -0.000001 -0.000002 0.000000 0.000000 -0.696369
    10 0.798346 0.000000 0.000003 0.000000 0.000000 -0.670190
    11 3.950303 -0.539874 -2.108871 0.083518 0.133195 0.567490
    12 1.545795 -0.000001 0.000002 0.000000 0.000000 1.333406
    13 1.667397 -0.000003 -0.000002 0.000000 0.000000 1.298525
    14 3.899459 -0.475376 -1.170889 -0.000676 0.000419 0.561979
    15 1.528220 0.000001 0.000001 0.000000 0.000000 1.193779
    16 1.528213 0.000004 -0.000004 0.000000 0.000000 1.342132
    17 3.899460 -0.431804 0.168225 -0.000676 0.000419 0.561979
    18 1.506961 0.000000 0.000001 0.000000 0.000000 1.289772
    19 1.506969 -0.000001 -0.000001 0.000000 0.000000 1.202506
    20 3.915632 -0.278019 1.402610 -0.000676 0.000419 0.561979
    21 1.333086 0.000000 0.000001 0.000000 0.000000 1.499212
    22 1.159205 0.000003 -0.000001 0.000000 0.000000 1.080333
    23 0.000008 0.011451 -1.352403 -0.000014 1.370796 3.140783
    24 6.078088 0.000002 0.000002 1.269618 -0.044848 -1.538622
    25 13.446756 -0.000005 0.000001 0.000000 0.000000 -0.069100
    26 15.997000 0.000003 0.000000 1.690972 0.002205 -0.019509
    27 -9.849934 -2.629987 3.992560 1.582244 -0.018583 -3.126154
    28 1.895213 2.808690 0.074532 0.000000 0.000000 0.000000
    29 -7.410141 -0.113610 -0.123967 0.000000 0.000000 0.000000
    30 -43.188030 1.691162 -0.053449 0.000000 0.000000 0.000000
  time 29
    0 -9.038578 -20.591611 -35.263554 0.000000 0.000000 -1.570795
    1 -0.000002 0.000000 0.000000 -0.000086 -1.570451 -1.570709
    2 4.443614 -0.009643 0.000006 -0.000004 -0.000001 0.000796
    3 12.111414 -0.011449 0.000000 0.000000 0.000000 0.000000
    4 0.000007 0.011443 1.352404 0.971004 -1.226034 2.198349
    5 6.078085 0.000000 -0.000001 -0.387276 0.194633 -1.049862
    6 13.446750 0.000001 0.000001 0.000000 0.000000 -0.964044
    7 15.997003 0.000003 0.000000 -0.858304 -0.310187 0.385055
    8 1.885326 0.833277 -2.177876 -1.269183 0.640222 0.521791
    9 1.506961 -0.000001 -0.000002 0.000000 0.000000 -0.696369
    10 0.798346 0.000000 0.000003 0.000000 0.000000 -0.670190
    11 3.950303 -0.539874 -2.108871 0.083518 0.133195 0.567490
    12 1.545795 -0.000001 0.000002 0.000000 0.000000 1.333406
    13 1.667397 -0.000003 -0.000002 0.000000 0.000000 1.298525
    14 3.899459 -0.475376 -1.170889 -0.000676 0.000419 0.561979
    15 1.528220 0.000001 0.000001 0.000000 0.000000 1.193779
    16 1.528213 0.000004 -0.000004 0.000000 0.000000 1.342158
    17 3.899460 -0.431804 0.168225 -0.000676 0.000419 0.561979
    18 1.506961 0.000000 0.000001 0.000000 0.000000 1.289772
    19 1.506969 -0.000001 -0.000001 0.000000 0.000000 1.202506
    20 3.915632 -0.278019 1.402610 -0.000676 0.000419 0.561979
    21 1.333086 0.000000 0.000001 0.000000 0.000000 1.499212
    22 1.159205 0.000003 -0.000001 0.000000 0.000000 1.080333
    23 0.000008 0.011451 -1.352403 -0.000014 1.370796 3.140783
    24 6.078088 0.000002 0.000002 1.269618 -0.044848 -1.538622
    25 13.446756 -0.000005 0.000001 0.000000 0.000000 -0.069100
    26 15.997000 0.000003 0.000000 1.724793 0.002361 -0.020797
    27 -9.849934 -2.629987 3.992560 1.582244 -0.018583 -3.126154
    28 1.895213 2.808690 0.074532 0.000000 0.000000 0.000000
    29 -7.410141 -0.113610 -0.123967 0.000000 0.000000 0.000000
    30 -43.188030 1.691162 -0.053449 0.000000 0.000000 0.000000
  time 30
    0 -9.038578 -20.591611 -35.263554 0.000000 0.000000 -1.570795
    1 -0.000002 0.000000 0.000000 -0.000086 -1.570451 -1.570709
    2 4.443614 -0.009643 0.000006 -0.000004 -0.000001 0.000796
    3 12.111414 -0.011449 0.000000 0.000000 0.000000 0.000000
    4 0.000007 0.011443 1.352404 0.971004 -1.226034 2.198349
    5 6.078085 0.000000 -0.000001 -0.381138 0.206085 -1.045357
    6 13.446750 0.000001 0.000001 0.000000 0.000000 -0.963127
    7 15.997003 0.000003 0.000000 -0.899776 -0.329367 0.382139
    8 1.885326 0.833277 -2.177876 -1.269183 0.640222 0.521791
    9 1.506961 -0.000001 -0.000002 0.000000 0.000000 -0.696369
    10 0.798346 0.000000 0.000003 0.000000 0.000000 -0.670190
    11 3.950303 -0.539874 -2.108871 0.083518 0.133195 0.567490
    12 1.545795 -0.000001 0.000002 0.000000 0.000000 1.333406
    13 1.667397 -0.000003 -0.000002 0.000000 0.000000 1.298499
    14 3.899459 -0.475376 -1.170889 -0.000676 0.000419 0.561979
    15 1.528220 0.000001 0.000001 0.000000 0.000000 1.193805
    16 1.528213 0.000004 -0.000004 0.000000 0.000000 1.342132
    17 3.899460 -0.431804 0.168225 -0.000676 0.000419 0.561979
    18 1.506961 0.000000 0.000001 0.000000 0.000000 1.289772
    19 1.506969 -0.000001 -0.000001 0.000000 0.000000 1.202506
    20 3.915632 -0.278019 1.402610 -0.000676 0.000419 0.561979
    21 1.333086 0.000000 0.000001 0.000000 0.000000 1.499238
    22 1.159205 0.000003 -0.000001 0.000000 0.000000 1.080333
    23 0.000008 0.011451 -1.352403 -0.000014 1.370796 3.140783
    24 6.078088 0.000002 0.000002 1.269618 -0.044848 -1.538622
    25 13.446756 -0.000005 0.000001 0.000000 0.000000 -0.069100
    26 15.997000 0.000003 0.000000 1.683422 0.002361 -0.020797
    27 -9.849934 -2.629987 3.992560 1.582244 -0.018583 -3.126154
    28 1.895213 2.808690 0.074532 0.000000 0.000000 0.000000
    29 -7.410141 -0.113610 -0.123967 0.000000 0.000000 0.000000
    30 -43.188030 1.691162 -0.053449 0.000000 0.000000 0.000000
end
