// Created by Crowbar 0.74
version 1
nodes
  0 "Bip01" -1
  1 "Bip01 Pelvis" 0
  2 "Bip01 Spine" 1
  3 "Bip01 Neck" 2
  4 "Bip01 R Clavicle" 3
  5 "Bip01 R UpperArm" 4
  6 "Bip01 R Forearm" 5
  7 "Bip01 R Hand" 6
  8 "Bip01 R Finger0" 7
  9 "Bip01 R Finger01" 8
  10 "Bip01 R Finger02" 9
  11 "Bip01 R Finger1" 7
  12 "Bip01 R Finger11" 11
  13 "Bip01 R Finger12" 12
  14 "Bip01 R Finger2" 7
  15 "Bip01 R Finger21" 14
  16 "Bip01 R Finger22" 15
  17 "Bip01 R Finger3" 7
  18 "Bip01 R Finger31" 17
  19 "Bip01 R Finger32" 18
  20 "Bip01 R Finger4" 7
  21 "Bip01 R Finger41" 20
  22 "Bip01 R Finger42" 21
  23 "Dummy14" 7
end
skeleton
  time 0
    0 0.134275 2.725324 -24.816700 0.000000 0.000000 -1.570795
    1 0.000000 0.000000 0.000002 -0.000086 -1.570451 -1.570709
    2 4.443614 -0.009642 0.000006 -0.000004 -0.000001 0.000796
    3 12.111412 -0.011446 0.000000 0.000000 0.000000 0.000000
    4 0.000011 0.011449 -1.352403 -0.000014 1.370796 3.140783
    5 6.078086 0.000000 0.000002 0.334943 -0.984057 -0.257044
    6 13.446753 0.000000 0.000002 0.000000 0.000000 -0.730745
    7 15.996996 -0.000001 -0.000002 1.469645 -0.107442 0.268047
    8 1.885327 0.833278 2.177875 1.155789 -0.579396 0.719274
    9 1.506966 -0.000001 0.000000 0.000000 0.000000 -0.139626
    10 0.798345 0.000001 0.000002 0.000000 0.000000 -0.148353
    11 3.950301 -0.539877 2.108871 -0.044182 -0.150789 0.291255
    12 1.545798 0.000000 0.000001 0.000000 0.000000 0.427606
    13 1.667400 0.000000 -0.000001 0.000000 0.000000 0.314159
    14 3.899458 -0.475374 1.170888 0.000796 0.000000 0.000000
    15 1.528219 -0.000002 0.000002 0.000000 0.000000 0.244346
    16 1.528217 0.000001 0.000001 0.000000 0.000000 0.479966
    17 3.899461 -0.431803 -0.168225 0.000796 0.000000 0.000000
    18 1.506964 0.000003 -0.000001 0.000000 0.000000 0.270526
    19 1.506959 -0.000001 0.000000 0.000000 0.000000 -0.034907
    20 3.915635 -0.278019 -1.402609 0.000796 0.000000 0.000000
    21 1.333082 0.000000 -0.000005 0.000000 0.000000 0.087266
    22 1.159201 0.000000 0.000001 0.000000 0.000000 0.218166
    23 7.048949 4.318981 -1.101195 1.587526 -0.821333 3.144905
  time 1
    0 0.134275 2.725324 -24.816700 0.000000 0.000000 -1.570795
    1 0.000000 0.000000 0.000002 -0.000086 -1.570451 -1.570709
    2 4.443614 -0.009642 0.000006 -0.000004 -0.000001 0.000796
    3 12.111412 -0.011446 0.000000 0.000000 0.000000 0.000000
    4 0.000011 0.011449 -1.352403 -0.000014 1.370796 3.140783
    5 6.078086 0.000000 0.000002 0.361299 -0.977637 -0.288764
    6 13.446753 0.000000 0.000002 0.000000 0.000000 -0.813815
    7 15.996996 -0.000001 -0.000002 1.469645 -0.107442 0.268047
    8 1.885327 0.833278 2.177875 1.155789 -0.579396 0.719274
    9 1.506966 -0.000001 0.000000 0.000000 0.000000 -0.139626
    10 0.798345 0.000001 0.000002 0.000000 0.000000 -0.148353
    11 3.950301 -0.539877 2.108871 -0.044182 -0.150789 0.291255
    12 1.545798 0.000000 0.000001 0.000000 0.000000 0.427606
    13 1.667400 0.000000 -0.000001 0.000000 0.000000 0.314159
    14 3.899458 -0.475374 1.170888 0.000796 0.000000 0.000000
    15 1.528219 -0.000002 0.000002 0.000000 0.000000 0.244346
    16 1.528217 0.000001 0.000001 0.000000 0.000000 0.479966
    17 3.899461 -0.431803 -0.168225 0.000796 0.000000 0.000000
    18 1.506964 0.000003 -0.000001 0.000000 0.000000 0.270526
    19 1.506959 -0.000001 0.000000 0.000000 0.000000 -0.034907
    20 3.915635 -0.278019 -1.402609 0.000796 0.000000 0.000000
    21 1.333082 0.000000 -0.000005 0.000000 0.000000 0.087266
    22 1.159201 0.000000 0.000001 0.000000 0.000000 0.218166
    23 7.048949 4.318981 -1.101195 1.587526 -0.821333 3.144905
  time 2
    0 0.134275 2.725324 -24.816700 0.000000 0.000000 -1.570795
    1 0.000000 0.000000 0.000002 -0.000086 -1.570451 -1.570709
    2 4.443614 -0.009642 0.000006 -0.000004 -0.000001 0.000796
    3 12.111412 -0.011446 0.000000 0.000000 0.000000 0.000000
    4 0.000011 0.011449 -1.352403 -0.000014 1.370796 3.140783
    5 6.078086 0.000000 0.000002 0.386029 -0.971073 -0.318645
    6 13.446753 0.000000 0.000002 0.000000 0.000000 -0.902369
    7 15.996996 -0.000001 -0.000002 1.469645 -0.107442 0.268047
    8 1.885327 0.833278 2.177875 1.155789 -0.579396 0.719274
    9 1.506966 -0.000001 0.000000 0.000000 0.000000 -0.139626
    10 0.798345 0.000001 0.000002 0.000000 0.000000 -0.148353
    11 3.950301 -0.539877 2.108871 -0.044182 -0.150789 0.291255
    12 1.545798 0.000000 0.000001 0.000000 0.000000 0.427606
    13 1.667400 0.000000 -0.000001 0.000000 0.000000 0.314159
    14 3.899458 -0.475374 1.170888 0.000796 0.000000 0.000000
    15 1.528219 -0.000002 0.000002 0.000000 0.000000 0.244346
    16 1.528217 0.000001 0.000001 0.000000 0.000000 0.479966
    17 3.899461 -0.431803 -0.168225 0.000796 0.000000 0.000000
    18 1.506964 0.000003 -0.000001 0.000000 0.000000 0.270526
    19 1.506959 -0.000001 0.000000 0.000000 0.000000 -0.034907
    20 3.915635 -0.278019 -1.402609 0.000796 0.000000 0.000000
    21 1.333082 0.000000 -0.000005 0.000000 0.000000 0.087266
    22 1.159201 0.000000 0.000001 0.000000 0.000000 0.218166
    23 7.048949 4.318981 -1.101195 1.587526 -0.821333 3.144905
  time 3
    0 0.134275 2.725324 -24.816700 0.000000 0.000000 -1.570795
    1 0.000000 0.000000 0.000002 -0.000086 -1.570451 -1.570709
    2 4.443614 -0.009642 0.000006 -0.000004 -0.000001 0.000796
    3 12.111412 -0.011446 0.000000 0.000000 0.000000 0.000000
    4 0.000011 0.011449 -1.352403 -0.000014 1.370796 3.140783
    5 6.078086 0.000000 0.000002 0.409391 -0.964309 -0.347040
    6 13.446753 0.000000 0.000002 0.000000 0.000000 -0.995094
    7 15.996996 -0.000001 -0.000002 1.469645 -0.107442 0.268047
    8 1.885327 0.833278 2.177875 1.155789 -0.579396 0.719274
    9 1.506966 -0.000001 0.000000 0.000000 0.000000 -0.139626
    10 0.798345 0.000001 0.000002 0.000000 0.000000 -0.148353
    11 3.950301 -0.539877 2.108871 -0.044182 -0.150789 0.291255
    12 1.545798 0.000000 0.000001 0.000000 0.000000 0.427606
    13 1.667400 0.000000 -0.000001 0.000000 0.000000 0.314159
    14 3.899458 -0.475374 1.170888 0.000796 0.000000 0.000000
    15 1.528219 -0.000002 0.000002 0.000000 0.000000 0.244346
    16 1.528217 0.000001 0.000001 0.000000 0.000000 0.479966
    17 3.899461 -0.431803 -0.168225 0.000796 0.000000 0.000000
    18 1.506964 0.000003 -0.000001 0.000000 0.000000 0.270526
    19 1.506959 -0.000001 0.000000 0.000000 0.000000 -0.034907
    20 3.915635 -0.278019 -1.402609 0.000796 0.000000 0.000000
    21 1.333082 0.000000 -0.000005 0.000000 0.000000 0.087266
    22 1.159201 0.000000 0.000001 0.000000 0.000000 0.218166
    23 7.048949 4.318981 -1.101195 1.587526 -0.821333 3.144905
  time 4
    0 0.134275 2.725324 -24.816700 0.000000 0.000000 -1.570795
    1 0.000000 0.000000 0.000002 -0.000086 -1.570451 -1.570709
    2 4.443614 -0.009642 0.000006 -0.000004 -0.000001 0.000796
    3 12.111412 -0.011446 0.000000 0.000000 0.000000 0.000000
    4 0.000011 0.011449 -1.352403 -0.000014 1.370796 3.140783
    5 6.078086 0.000000 0.000002 0.431725 -0.957315 -0.374262
    6 13.446753 0.000000 0.000002 0.000000 0.000000 -1.090619
    7 15.996996 -0.000001 -0.000002 1.469645 -0.107442 0.268047
    8 1.885327 0.833278 2.177875 1.155789 -0.579396 0.719274
    9 1.506966 -0.000001 0.000000 0.000000 0.000000 -0.139626
    10 0.798345 0.000001 0.000002 0.000000 0.000000 -0.148353
    11 3.950301 -0.539877 2.108871 -0.044182 -0.150789 0.291255
    12 1.545798 0.000000 0.000001 0.000000 0.000000 0.427606
    13 1.667400 0.000000 -0.000001 0.000000 0.000000 0.314159
    14 3.899458 -0.475374 1.170888 0.000796 0.000000 0.000000
    15 1.528219 -0.000002 0.000002 0.000000 0.000000 0.244346
    16 1.528217 0.000001 0.000001 0.000000 0.000000 0.479966
    17 3.899461 -0.431803 -0.168225 0.000796 0.000000 0.000000
    18 1.506964 0.000003 -0.000001 0.000000 0.000000 0.270526
    19 1.506959 -0.000001 0.000000 0.000000 0.000000 -0.034907
    20 3.915635 -0.278019 -1.402609 0.000796 0.000000 0.000000
    21 1.333082 0.000000 -0.000005 0.000000 0.000000 0.087266
    22 1.159201 0.000000 0.000001 0.000000 0.000000 0.218166
    23 7.048949 4.318981 -1.101195 1.587526 -0.821333 3.144905
  time 5
    0 0.134275 2.725324 -24.816700 0.000000 0.000000 -1.570795
    1 0.000000 0.000000 0.000002 -0.000086 -1.570451 -1.570709
    2 4.443614 -0.009642 0.000006 -0.000004 -0.000001 0.000796
    3 12.111412 -0.011446 0.000000 0.000000 0.000000 0.000000
    4 0.000011 0.011449 -1.352403 -0.000014 1.370796 3.140783
    5 6.078086 0.000000 0.000002 0.453232 -0.950092 -0.400663
    6 13.446753 0.000000 0.000002 0.000000 0.000000 -1.187515
    7 15.996996 -0.000001 -0.000002 1.469645 -0.107442 0.268047
    8 1.885327 0.833278 2.177875 1.155789 -0.579396 0.719274
    9 1.506966 -0.000001 0.000000 0.000000 0.000000 -0.139626
    10 0.798345 0.000001 0.000002 0.000000 0.000000 -0.148353
    11 3.950301 -0.539877 2.108871 -0.044182 -0.150789 0.291255
    12 1.545798 0.000000 0.000001 0.000000 0.000000 0.427606
    13 1.667400 0.000000 -0.000001 0.000000 0.000000 0.314159
    14 3.899458 -0.475374 1.170888 0.000796 0.000000 0.000000
    15 1.528219 -0.000002 0.000002 0.000000 0.000000 0.244346
    16 1.528217 0.000001 0.000001 0.000000 0.000000 0.479966
    17 3.899461 -0.431803 -0.168225 0.000796 0.000000 0.000000
    18 1.506964 0.000003 -0.000001 0.000000 0.000000 0.270526
    19 1.506959 -0.000001 0.000000 0.000000 0.000000 -0.034907
    20 3.915635 -0.278019 -1.402609 0.000796 0.000000 0.000000
    21 1.333082 0.000000 -0.000005 0.000000 0.000000 0.087266
    22 1.159201 0.000000 0.000001 0.000000 0.000000 0.218166
    23 7.048949 4.318981 -1.101195 1.587526 -0.821333 3.144905
  time 6
    0 0.134275 2.725324 -24.816700 0.000000 0.000000 -1.570795
    1 0.000000 0.000000 0.000002 -0.000086 -1.570451 -1.570709
    2 4.443614 -0.009642 0.000006 -0.000004 -0.000001 0.000796
    3 12.111412 -0.011446 0.000000 0.000000 0.000000 0.000000
    4 0.000011 0.011449 -1.352403 -0.000014 1.370796 3.140783
    5 6.078086 0.000000 0.000002 0.474226 -0.942525 -0.426516
    6 13.446753 0.000000 0.000002 0.000000 0.000000 -1.284410
    7 15.996996 -0.000001 -0.000002 1.469645 -0.107442 0.268047
    8 1.885327 0.833278 2.177875 1.155789 -0.579396 0.719274
    9 1.506966 -0.000001 0.000000 0.000000 0.000000 -0.139626
    10 0.798345 0.000001 0.000002 0.000000 0.000000 -0.148353
    11 3.950301 -0.539877 2.108871 -0.044182 -0.150789 0.291255
    12 1.545798 0.000000 0.000001 0.000000 0.000000 0.427606
    13 1.667400 0.000000 -0.000001 0.000000 0.000000 0.314159
    14 3.899458 -0.475374 1.170888 0.000796 0.000000 0.000000
    15 1.528219 -0.000002 0.000002 0.000000 0.000000 0.244346
    16 1.528217 0.000001 0.000001 0.000000 0.000000 0.479966
    17 3.899461 -0.431803 -0.168225 0.000796 0.000000 0.000000
    18 1.506964 0.000003 -0.000001 0.000000 0.000000 0.270526
    19 1.506959 -0.000001 0.000000 0.000000 0.000000 -0.034907
    20 3.915635 -0.278019 -1.402609 0.000796 0.000000 0.000000
    21 1.333082 0.000000 -0.000005 0.000000 0.000000 0.087266
    22 1.159201 0.000000 0.000001 0.000000 0.000000 0.218166
    23 7.048949 4.318981 -1.101195 1.587526 -0.821333 3.144905
  time 7
    0 0.134275 2.725324 -24.816700 0.000000 0.000000 -1.570795
    1 0.000000 0.000000 0.000002 -0.000086 -1.570451 -1.570709
    2 4.443614 -0.009642 0.000006 -0.000004 -0.000001 0.000796
    3 12.111412 -0.011446 0.000000 0.000000 0.000000 0.000000
    4 0.000011 0.011449 -1.352403 -0.000014 1.370796 3.140783
    5 6.078086 0.000000 0.000002 0.494877 -0.934557 -0.452095
    6 13.446753 0.000000 0.000002 0.000000 0.000000 -1.379878
    7 15.996996 -0.000001 -0.000002 1.469645 -0.107442 0.268047
    8 1.885327 0.833278 2.177875 1.155789 -0.579396 0.719274
    9 1.506966 -0.000001 0.000000 0.000000 0.000000 -0.139626
    10 0.798345 0.000001 0.000002 0.000000 0.000000 -0.148353
    11 3.950301 -0.539877 2.108871 -0.044182 -0.150789 0.291255
    12 1.545798 0.000000 0.000001 0.000000 0.000000 0.427606
    13 1.667400 0.000000 -0.000001 0.000000 0.000000 0.314159
    14 3.899458 -0.475374 1.170888 0.000796 0.000000 0.000000
    15 1.528219 -0.000002 0.000002 0.000000 0.000000 0.244346
    16 1.528217 0.000001 0.000001 0.000000 0.000000 0.479966
    17 3.899461 -0.431803 -0.168225 0.000796 0.000000 0.000000
    18 1.506964 0.000003 -0.000001 0.000000 0.000000 0.270526
    19 1.506959 -0.000001 0.000000 0.000000 0.000000 -0.034907
    20 3.915635 -0.278019 -1.402609 0.000796 0.000000 0.000000
    21 1.333082 0.000000 -0.000005 0.000000 0.000000 0.087266
    22 1.159201 0.000000 0.000001 0.000000 0.000000 0.218166
    23 7.048949 4.318981 -1.101195 1.587526 -0.821333 3.144905
  time 8
    0 0.134275 2.725324 -24.816700 0.000000 0.000000 -1.570795
    1 0.000000 0.000000 0.000002 -0.000086 -1.570451 -1.570709
    2 4.443614 -0.009642 0.000006 -0.000004 -0.000001 0.000796
    3 12.111412 -0.011446 0.000000 0.000000 0.000000 0.000000
    4 0.000011 0.011449 -1.352403 -0.000014 1.370796 3.140783
    5 6.078086 0.000000 0.000002 0.515386 -0.926102 -0.477674
    6 13.446753 0.000000 0.000002 0.000000 0.000000 -1.472603
    7 15.996996 -0.000001 -0.000002 1.469645 -0.107442 0.268047
    8 1.885327 0.833278 2.177875 1.155789 -0.579396 0.719274
    9 1.506966 -0.000001 0.000000 0.000000 0.000000 -0.139626
    10 0.798345 0.000001 0.000002 0.000000 0.000000 -0.148353
    11 3.950301 -0.539877 2.108871 -0.044182 -0.150789 0.291255
    12 1.545798 0.000000 0.000001 0.000000 0.000000 0.427606
    13 1.667400 0.000000 -0.000001 0.000000 0.000000 0.314159
    14 3.899458 -0.475374 1.170888 0.000796 0.000000 0.000000
    15 1.528219 -0.000002 0.000002 0.000000 0.000000 0.244346
    16 1.528217 0.000001 0.000001 0.000000 0.000000 0.479966
    17 3.899461 -0.431803 -0.168225 0.000796 0.000000 0.000000
    18 1.506964 0.000003 -0.000001 0.000000 0.000000 0.270526
    19 1.506959 -0.000001 0.000000 0.000000 0.000000 -0.034907
    20 3.915635 -0.278019 -1.402609 0.000796 0.000000 0.000000
    21 1.333082 0.000000 -0.000005 0.000000 0.000000 0.087266
    22 1.159201 0.000000 0.000001 0.000000 0.000000 0.218166
    23 7.048949 4.318981 -1.101195 1.587526 -0.821333 3.144905
  time 9
    0 0.134275 2.725324 -24.816700 0.000000 0.000000 -1.570795
    1 0.000000 0.000000 0.000002 -0.000086 -1.570451 -1.570709
    2 4.443614 -0.009642 0.000006 -0.000004 -0.000001 0.000796
    3 12.111412 -0.011446 0.000000 0.000000 0.000000 0.000000
    4 0.000011 0.011449 -1.352403 -0.000014 1.370796 3.140783
    5 6.078086 0.000000 0.000002 0.535923 -0.917073 -0.503449
    6 13.446753 0.000000 0.000002 0.000000 0.000000 -1.561215
    7 15.996996 -0.000001 -0.000002 1.469645 -0.107442 0.268047
    8 1.885327 0.833278 2.177875 1.155789 -0.579396 0.719274
    9 1.506966 -0.000001 0.000000 0.000000 0.000000 -0.139626
    10 0.798345 0.000001 0.000002 0.000000 0.000000 -0.148353
    11 3.950301 -0.539877 2.108871 -0.044182 -0.150789 0.291255
    12 1.545798 0.000000 0.000001 0.000000 0.000000 0.427606
    13 1.667400 0.000000 -0.000001 0.000000 0.000000 0.314159
    14 3.899458 -0.475374 1.170888 0.000796 0.000000 0.000000
    15 1.528219 -0.000002 0.000002 0.000000 0.000000 0.244346
    16 1.528217 0.000001 0.000001 0.000000 0.000000 0.479966
    17 3.899461 -0.431803 -0.168225 0.000796 0.000000 0.000000
    18 1.506964 0.000003 -0.000001 0.000000 0.000000 0.270526
    19 1.506959 -0.000001 0.000000 0.000000 0.000000 -0.034907
    20 3.915635 -0.278019 -1.402609 0.000796 0.000000 0.000000
    21 1.333082 0.000000 -0.000005 0.000000 0.000000 0.087266
    22 1.159201 0.000000 0.000001 0.000000 0.000000 0.218166
    23 7.048949 4.318981 -1.101195 1.587526 -0.821333 3.144905
  time 10
    0 0.134275 2.725324 -24.816700 0.000000 0.000000 -1.570795
    1 0.000000 0.000000 0.000002 -0.000086 -1.570451 -1.570709
    2 4.443614 -0.009642 0.000006 -0.000004 -0.000001 0.000796
    3 12.111412 -0.011446 0.000000 0.000000 0.000000 0.000000
    4 0.000011 0.011449 -1.352403 -0.000014 1.370796 3.140783
    5 6.078086 0.000000 0.000002 0.556632 -0.907328 -0.529654
    6 13.446753 0.000000 0.000002 0.000000 0.000000 -1.644285
    7 15.996996 -0.000001 -0.000002 1.469645 -0.107442 0.268047
    8 1.885327 0.833278 2.177875 1.155789 -0.579396 0.719274
    9 1.506966 -0.000001 0.000000 0.000000 0.000000 -0.139626
    10 0.798345 0.000001 0.000002 0.000000 0.000000 -0.148353
    11 3.950301 -0.539877 2.108871 -0.044182 -0.150789 0.291255
    12 1.545798 0.000000 0.000001 0.000000 0.000000 0.427606
    13 1.667400 0.000000 -0.000001 0.000000 0.000000 0.314159
    14 3.899458 -0.475374 1.170888 0.000796 0.000000 0.000000
    15 1.528219 -0.000002 0.000002 0.000000 0.000000 0.244346
    16 1.528217 0.000001 0.000001 0.000000 0.000000 0.479966
    17 3.899461 -0.431803 -0.168225 0.000796 0.000000 0.000000
    18 1.506964 0.000003 -0.000001 0.000000 0.000000 0.270526
    19 1.506959 -0.000001 0.000000 0.000000 0.000000 -0.034907
    20 3.915635 -0.278019 -1.402609 0.000796 0.000000 0.000000
    21 1.333082 0.000000 -0.000005 0.000000 0.000000 0.087266
    22 1.159201 0.000000 0.000001 0.000000 0.000000 0.218166
    23 7.048949 4.318981 -1.101195 1.587526 -0.821333 3.144905
  time 11
    0 0.134275 2.725324 -24.816700 0.000000 0.000000 -1.570795
    1 0.000000 0.000000 0.000002 -0.000086 -1.570451 -1.570709
    2 4.443614 -0.009642 0.000006 -0.000004 -0.000001 0.000796
    3 12.111412 -0.011446 0.000000 0.000000 0.000000 0.000000
    4 0.000011 0.011449 -1.352403 -0.000014 1.370796 3.140783
    5 6.078086 0.000000 0.000002 0.577654 -0.896751 -0.556445
    6 13.446753 0.000000 0.000002 0.000000 0.000000 -1.720384
    7 15.996996 -0.000001 -0.000002 1.469645 -0.107442 0.268047
    8 1.885327 0.833278 2.177875 1.155789 -0.579396 0.719274
    9 1.506966 -0.000001 0.000000 0.000000 0.000000 -0.139626
    10 0.798345 0.000001 0.000002 0.000000 0.000000 -0.148353
    11 3.950301 -0.539877 2.108871 -0.044182 -0.150789 0.291255
    12 1.545798 0.000000 0.000001 0.000000 0.000000 0.427606
    13 1.667400 0.000000 -0.000001 0.000000 0.000000 0.314159
    14 3.899458 -0.475374 1.170888 0.000796 0.000000 0.000000
    15 1.528219 -0.000002 0.000002 0.000000 0.000000 0.244346
    16 1.528217 0.000001 0.000001 0.000000 0.000000 0.479966
    17 3.899461 -0.431803 -0.168225 0.000796 0.000000 0.000000
    18 1.506964 0.000003 -0.000001 0.000000 0.000000 0.270526
    19 1.506959 -0.000001 0.000000 0.000000 0.000000 -0.034907
    20 3.915635 -0.278019 -1.402609 0.000796 0.000000 0.000000
    21 1.333082 0.000000 -0.000005 0.000000 0.000000 0.087266
    22 1.159201 0.000000 0.000001 0.000000 0.000000 0.218166
    23 7.048949 4.318981 -1.101195 1.587526 -0.821333 3.144905
  time 12
    0 0.134275 2.725324 -24.816700 0.000000 0.000000 -1.570795
    1 0.000000 0.000000 0.000002 -0.000086 -1.570451 -1.570709
    2 4.443614 -0.009642 0.000006 -0.000004 -0.000001 0.000796
    3 12.111412 -0.011446 0.000000 0.000000 0.000000 0.000000
    4 0.000011 0.011449 -1.352403 -0.000014 1.370796 3.140783
    5 6.078086 0.000000 0.000002 0.599075 -0.885200 -0.583980
    6 13.446753 0.000000 0.000002 0.000000 0.000000 -1.788200
    7 15.996996 -0.000001 -0.000002 1.469645 -0.107442 0.268047
    8 1.885327 0.833278 2.177875 1.155789 -0.579396 0.719274
    9 1.506966 -0.000001 0.000000 0.000000 0.000000 -0.139626
    10 0.798345 0.000001 0.000002 0.000000 0.000000 -0.148353
    11 3.950301 -0.539877 2.108871 -0.044182 -0.150789 0.291255
    12 1.545798 0.000000 0.000001 0.000000 0.000000 0.427606
    13 1.667400 0.000000 -0.000001 0.000000 0.000000 0.314159
    14 3.899458 -0.475374 1.170888 0.000796 0.000000 0.000000
    15 1.528219 -0.000002 0.000002 0.000000 0.000000 0.244346
    16 1.528217 0.000001 0.000001 0.000000 0.000000 0.479966
    17 3.899461 -0.431803 -0.168225 0.000796 0.000000 0.000000
    18 1.506964 0.000003 -0.000001 0.000000 0.000000 0.270526
    19 1.506959 -0.000001 0.000000 0.000000 0.000000 -0.034907
    20 3.915635 -0.278019 -1.402609 0.000796 0.000000 0.000000
    21 1.333082 0.000000 -0.000005 0.000000 0.000000 0.087266
    22 1.159201 0.000000 0.000001 0.000000 0.000000 0.218166
    23 7.048949 4.318981 -1.101195 1.587526 -0.821333 3.144905
  time 13
    0 0.134275 2.725324 -24.816700 0.000000 0.000000 -1.570795
    1 0.000000 0.000000 0.000002 -0.000086 -1.570451 -1.570709
    2 4.443614 -0.009642 0.000006 -0.000004 -0.000001 0.000796
    3 12.111412 -0.011446 0.000000 0.000000 0.000000 0.000000
    4 0.000011 0.011449 -1.352403 -0.000014 1.370796 3.140783
    5 6.078086 0.000000 0.000002 0.620953 -0.872532 -0.612414
    6 13.446753 0.000000 0.000002 0.000000 0.000000 -1.846360
    7 15.996996 -0.000001 -0.000002 1.469645 -0.107442 0.268047
    8 1.885327 0.833278 2.177875 1.155789 -0.579396 0.719274
    9 1.506966 -0.000001 0.000000 0.000000 0.000000 -0.139626
    10 0.798345 0.000001 0.000002 0.000000 0.000000 -0.148353
    11 3.950301 -0.539877 2.108871 -0.044182 -0.150789 0.291255
    12 1.545798 0.000000 0.000001 0.000000 0.000000 0.427606
    13 1.667400 0.000000 -0.000001 0.000000 0.000000 0.314159
    14 3.899458 -0.475374 1.170888 0.000796 0.000000 0.000000
    15 1.528219 -0.000002 0.000002 0.000000 0.000000 0.244346
    16 1.528217 0.000001 0.000001 0.000000 0.000000 0.479966
    17 3.899461 -0.431803 -0.168225 0.000796 0.000000 0.000000
    18 1.506964 0.000003 -0.000001 0.000000 0.000000 0.270526
    19 1.506959 -0.000001 0.000000 0.000000 0.000000 -0.034907
    20 3.915635 -0.278019 -1.402609 0.000796 0.000000 0.000000
    21 1.333082 0.000000 -0.000005 0.000000 0.000000 0.087266
    22 1.159201 0.000000 0.000001 0.000000 0.000000 0.218166
    23 7.048949 4.318981 -1.101195 1.587526 -0.821333 3.144905
  time 14
    0 0.134275 2.725324 -24.816700 0.000000 0.000000 -1.570795
    1 0.000000 0.000000 0.000002 -0.000086 -1.570451 -1.570709
    2 4.443614 -0.009642 0.000006 -0.000004 -0.000001 0.000796
    3 12.111412 -0.011446 0.000000 0.000000 0.000000 0.000000
    4 0.000011 0.011449 -1.352403 -0.000014 1.370796 3.140783
    5 6.078086 0.000000 0.000002 0.643316 -0.858573 -0.641787
    6 13.446753 0.000000 0.000002 0.000000 0.000000 -1.893437
    7 15.996996 -0.000001 -0.000002 1.469645 -0.107442 0.268047
    8 1.885327 0.833278 2.177875 1.155789 -0.579396 0.719274
    9 1.506966 -0.000001 0.000000 0.000000 0.000000 -0.139626
    10 0.798345 0.000001 0.000002 0.000000 0.000000 -0.148353
    11 3.950301 -0.539877 2.108871 -0.044182 -0.150789 0.291255
    12 1.545798 0.000000 0.000001 0.000000 0.000000 0.427606
    13 1.667400 0.000000 -0.000001 0.000000 0.000000 0.314159
    14 3.899458 -0.475374 1.170888 0.000796 0.000000 0.000000
    15 1.528219 -0.000002 0.000002 0.000000 0.000000 0.244346
    16 1.528217 0.000001 0.000001 0.000000 0.000000 0.479966
    17 3.899461 -0.431803 -0.168225 0.000796 0.000000 0.000000
    18 1.506964 0.000003 -0.000001 0.000000 0.000000 0.270526
    19 1.506959 -0.000001 0.000000 0.000000 0.000000 -0.034907
    20 3.915635 -0.278019 -1.402609 0.000796 0.000000 0.000000
    21 1.333082 0.000000 -0.000005 0.000000 0.000000 0.087266
    22 1.159201 0.000000 0.000001 0.000000 0.000000 0.218166
    23 7.048949 4.318981 -1.101195 1.587526 -0.821333 3.144905
  time 15
    0 0.134275 2.725324 -24.816700 0.000000 0.000000 -1.570795
    1 0.000000 0.000000 0.000002 -0.000086 -1.570451 -1.570709
    2 4.443614 -0.009642 0.000006 -0.000004 -0.000001 0.000796
    3 12.111412 -0.011446 0.000000 0.000000 0.000000 0.000000
    4 0.000011 0.011449 -1.352403 -0.000014 1.370796 3.140783
    5 6.078086 0.000000 0.000002 0.666192 -0.843181 -0.672177
    6 13.446753 0.000000 0.000002 0.000000 0.000000 -1.928059
    7 15.996996 -0.000001 -0.000002 1.469645 -0.107442 0.268047
    8 1.885327 0.833278 2.177875 1.155789 -0.579396 0.719274
    9 1.506966 -0.000001 0.000000 0.000000 0.000000 -0.139626
    10 0.798345 0.000001 0.000002 0.000000 0.000000 -0.148353
    11 3.950301 -0.539877 2.108871 -0.044182 -0.150789 0.291255
    12 1.545798 0.000000 0.000001 0.000000 0.000000 0.427606
    13 1.667400 0.000000 -0.000001 0.000000 0.000000 0.314159
    14 3.899458 -0.475374 1.170888 0.000796 0.000000 0.000000
    15 1.528219 -0.000002 0.000002 0.000000 0.000000 0.244346
    16 1.528217 0.000001 0.000001 0.000000 0.000000 0.479966
    17 3.899461 -0.431803 -0.168225 0.000796 0.000000 0.000000
    18 1.506964 0.000003 -0.000001 0.000000 0.000000 0.270526
    19 1.506959 -0.000001 0.000000 0.000000 0.000000 -0.034907
    20 3.915635 -0.278019 -1.402609 0.000796 0.000000 0.000000
    21 1.333082 0.000000 -0.000005 0.000000 0.000000 0.087266
    22 1.159201 0.000000 0.000001 0.000000 0.000000 0.218166
    23 7.048949 4.318981 -1.101195 1.587526 -0.821333 3.144905
  time 16
    0 0.134275 2.725324 -24.816700 0.000000 0.000000 -1.570795
    1 0.000000 0.000000 0.000002 -0.000086 -1.570451 -1.570709
    2 4.443614 -0.009642 0.000006 -0.000004 -0.000001 0.000796
    3 12.111412 -0.011446 0.000000 0.000000 0.000000 0.000000
    4 0.000011 0.011449 -1.352403 -0.000014 1.370796 3.140783
    5 6.078086 0.000000 0.000002 0.690381 -0.825497 -0.704836
    6 13.446753 0.000000 0.000002 0.000000 0.000000 -1.941199
    7 15.996996 -0.000001 -0.000002 1.469645 -0.107442 0.268047
    8 1.885327 0.833278 2.177875 1.155789 -0.579396 0.719274
    9 1.506966 -0.000001 0.000000 0.000000 0.000000 -0.139626
    10 0.798345 0.000001 0.000002 0.000000 0.000000 -0.148353
    11 3.950301 -0.539877 2.108871 -0.044182 -0.150789 0.291255
    12 1.545798 0.000000 0.000001 0.000000 0.000000 0.427606
    13 1.667400 0.000000 -0.000001 0.000000 0.000000 0.314159
    14 3.899458 -0.475374 1.170888 0.000796 0.000000 0.000000
    15 1.528219 -0.000002 0.000002 0.000000 0.000000 0.244346
    16 1.528217 0.000001 0.000001 0.000000 0.000000 0.479966
    17 3.899461 -0.431803 -0.168225 0.000796 0.000000 0.000000
    18 1.506964 0.000003 -0.000001 0.000000 0.000000 0.270526
    19 1.506959 -0.000001 0.000000 0.000000 0.000000 -0.034907
    20 3.915635 -0.278019 -1.402609 0.000796 0.000000 0.000000
    21 1.333082 0.000000 -0.000005 0.000000 0.000000 0.087266
    22 1.159201 0.000000 0.000001 0.000000 0.000000 0.218166
    23 7.048949 4.318981 -1.101195 1.587526 -0.821333 3.144905
  time 17
    0 0.134275 2.725324 -24.816700 0.000000 0.000000 -1.570795
    1 0.000000 0.000000 0.000002 -0.000086 -1.570451 -1.570709
    2 4.443614 -0.009642 0.000006 -0.000004 -0.000001 0.000796
    3 12.111412 -0.011446 0.000000 0.000000 0.000000 0.000000
    4 0.000011 0.011449 -1.352403 -0.000014 1.370796 3.140783
    5 6.078086 0.000000 0.000002 0.716081 -0.804974 -0.740154
    6 13.446753 0.000000 0.000002 0.000000 0.000000 -1.927830
    7 15.996996 -0.000001 -0.000002 1.469645 -0.107442 0.268047
    8 1.885327 0.833278 2.177875 1.155789 -0.579396 0.719274
    9 1.506966 -0.000001 0.000000 0.000000 0.000000 -0.139626
    10 0.798345 0.000001 0.000002 0.000000 0.000000 -0.148353
    11 3.950301 -0.539877 2.108871 -0.044182 -0.150789 0.291255
    12 1.545798 0.000000 0.000001 0.000000 0.000000 0.427606
    13 1.667400 0.000000 -0.000001 0.000000 0.000000 0.314159
    14 3.899458 -0.475374 1.170888 0.000796 0.000000 0.000000
    15 1.528219 -0.000002 0.000002 0.000000 0.000000 0.244346
    16 1.528217 0.000001 0.000001 0.000000 0.000000 0.479966
    17 3.899461 -0.431803 -0.168225 0.000796 0.000000 0.000000
    18 1.506964 0.000003 -0.000001 0.000000 0.000000 0.270526
    19 1.506959 -0.000001 0.000000 0.000000 0.000000 -0.034907
    20 3.915635 -0.278019 -1.402609 0.000796 0.000000 0.000000
    21 1.333082 0.000000 -0.000005 0.000000 0.000000 0.087266
    22 1.159201 0.000000 0.000001 0.000000 0.000000 0.218166
    23 7.048949 4.318981 -1.101195 1.587526 -0.821333 3.144905
  time 18
    0 0.134275 2.725324 -24.816700 0.000000 0.000000 -1.570795
    1 0.000000 0.000000 0.000002 -0.000086 -1.570451 -1.570709
    2 4.443614 -0.009642 0.000006 -0.000004 -0.000001 0.000796
    3 12.111412 -0.011446 0.000000 0.000000 0.000000 0.000000
    4 0.000011 0.011449 -1.352403 -0.000014 1.370796 3.140783
    5 6.078086 0.000000 0.000002 0.742352 -0.781873 -0.776997
    6 13.446753 0.000000 0.000002 0.000000 0.000000 -1.892694
    7 15.996996 -0.000001 -0.000002 1.469645 -0.107442 0.268047
    8 1.885327 0.833278 2.177875 1.155789 -0.579396 0.719274
    9 1.506966 -0.000001 0.000000 0.000000 0.000000 -0.139626
    10 0.798345 0.000001 0.000002 0.000000 0.000000 -0.148353
    11 3.950301 -0.539877 2.108871 -0.044182 -0.150789 0.291255
    12 1.545798 0.000000 0.000001 0.000000 0.000000 0.427606
    13 1.667400 0.000000 -0.000001 0.000000 0.000000 0.314159
    14 3.899458 -0.475374 1.170888 0.000796 0.000000 0.000000
    15 1.528219 -0.000002 0.000002 0.000000 0.000000 0.244346
    16 1.528217 0.000001 0.000001 0.000000 0.000000 0.479966
    17 3.899461 -0.431803 -0.168225 0.000796 0.000000 0.000000
    18 1.506964 0.000003 -0.000001 0.000000 0.000000 0.270526
    19 1.506959 -0.000001 0.000000 0.000000 0.000000 -0.034907
    20 3.915635 -0.278019 -1.402609 0.000796 0.000000 0.000000
    21 1.333082 0.000000 -0.000005 0.000000 0.000000 0.087266
    22 1.159201 0.000000 0.000001 0.000000 0.000000 0.218166
    23 7.048949 4.318981 -1.101195 1.587526 -0.821333 3.144905
  time 19
    0 0.134275 2.725324 -24.816700 0.000000 0.000000 -1.570795
    1 0.000000 0.000000 0.000002 -0.000086 -1.570451 -1.570709
    2 4.443614 -0.009642 0.000006 -0.000004 -0.000001 0.000796
    3 12.111412 -0.011446 0.000000 0.000000 0.000000 0.000000
    4 0.000011 0.011449 -1.352403 -0.000014 1.370796 3.140783
    5 6.078086 0.000000 0.000002 0.768423 -0.756535 -0.814466
    6 13.446753 0.000000 0.000002 0.000000 0.000000 -1.840476
    7 15.996996 -0.000001 -0.000002 1.469645 -0.107442 0.268047
    8 1.885327 0.833278 2.177875 1.155789 -0.579396 0.719274
    9 1.506966 -0.000001 0.000000 0.000000 0.000000 -0.139626
    10 0.798345 0.000001 0.000002 0.000000 0.000000 -0.148353
    11 3.950301 -0.539877 2.108871 -0.044182 -0.150789 0.291255
    12 1.545798 0.000000 0.000001 0.000000 0.000000 0.427606
    13 1.667400 0.000000 -0.000001 0.000000 0.000000 0.314159
    14 3.899458 -0.475374 1.170888 0.000796 0.000000 0.000000
    15 1.528219 -0.000002 0.000002 0.000000 0.000000 0.244346
    16 1.528217 0.000001 0.000001 0.000000 0.000000 0.479966
    17 3.899461 -0.431803 -0.168225 0.000796 0.000000 0.000000
    18 1.506964 0.000003 -0.000001 0.000000 0.000000 0.270526
    19 1.506959 -0.000001 0.000000 0.000000 0.000000 -0.034907
    20 3.915635 -0.278019 -1.402609 0.000796 0.000000 0.000000
    21 1.333082 0.000000 -0.000005 0.000000 0.000000 0.087266
    22 1.159201 0.000000 0.000001 0.000000 0.000000 0.218166
    23 7.048949 4.318981 -1.101195 1.587526 -0.821333 3.144905
  time 20
    0 0.134275 2.725324 -24.816700 0.000000 0.000000 -1.570795
    1 0.000000 0.000000 0.000002 -0.000086 -1.570451 -1.570709
    2 4.443614 -0.009642 0.000006 -0.000004 -0.000001 0.000796
    3 12.111412 -0.011446 0.000000 0.000000 0.000000 0.000000
    4 0.000011 0.011449 -1.352403 -0.000014 1.370796 3.140783
    5 6.078086 0.000000 0.000002 0.793638 -0.729334 -0.851701
    6 13.446753 0.000000 0.000002 0.000000 0.000000 -1.775745
    7 15.996996 -0.000001 -0.000002 1.469645 -0.107442 0.268047
    8 1.885327 0.833278 2.177875 1.155789 -0.579396 0.719274
    9 1.506966 -0.000001 0.000000 0.000000 0.000000 -0.139626
    10 0.798345 0.000001 0.000002 0.000000 0.000000 -0.148353
    11 3.950301 -0.539877 2.108871 -0.044182 -0.150789 0.291255
    12 1.545798 0.000000 0.000001 0.000000 0.000000 0.427606
    13 1.667400 0.000000 -0.000001 0.000000 0.000000 0.314159
    14 3.899458 -0.475374 1.170888 0.000796 0.000000 0.000000
    15 1.528219 -0.000002 0.000002 0.000000 0.000000 0.244346
    16 1.528217 0.000001 0.000001 0.000000 0.000000 0.479966
    17 3.899461 -0.431803 -0.168225 0.000796 0.000000 0.000000
    18 1.506964 0.000003 -0.000001 0.000000 0.000000 0.270526
    19 1.506959 -0.000001 0.000000 0.000000 0.000000 -0.034907
    20 3.915635 -0.278019 -1.402609 0.000796 0.000000 0.000000
    21 1.333082 0.000000 -0.000005 0.000000 0.000000 0.087266
    22 1.159201 0.000000 0.000001 0.000000 0.000000 0.218166
    23 7.048949 4.318981 -1.101195 1.587526 -0.821333 3.144905
  time 21
    0 0.134275 2.725324 -24.816700 0.000000 0.000000 -1.570795
    1 0.000000 0.000000 0.000002 -0.000086 -1.570451 -1.570709
    2 4.443614 -0.009642 0.000006 -0.000004 -0.000001 0.000796
    3 12.111412 -0.011446 0.000000 0.000000 0.000000 0.000000
    4 0.000011 0.011449 -1.352403 -0.000014 1.370796 3.140783
    5 6.078086 0.000000 0.000002 0.817512 -0.700701 -0.888114
    6 13.446753 0.000000 0.000002 0.000000 0.000000 -1.703245
    7 15.996996 -0.000001 -0.000002 1.469645 -0.107442 0.268047
    8 1.885327 0.833278 2.177875 1.155789 -0.579396 0.719274
    9 1.506966 -0.000001 0.000000 0.000000 0.000000 -0.139626
    10 0.798345 0.000001 0.000002 0.000000 0.000000 -0.148353
    11 3.950301 -0.539877 2.108871 -0.044182 -0.150789 0.291255
    12 1.545798 0.000000 0.000001 0.000000 0.000000 0.427606
    13 1.667400 0.000000 -0.000001 0.000000 0.000000 0.314159
    14 3.899458 -0.475374 1.170888 0.000796 0.000000 0.000000
    15 1.528219 -0.000002 0.000002 0.000000 0.000000 0.244346
    16 1.528217 0.000001 0.000001 0.000000 0.000000 0.479966
    17 3.899461 -0.431803 -0.168225 0.000796 0.000000 0.000000
    18 1.506964 0.000003 -0.000001 0.000000 0.000000 0.270526
    19 1.506959 -0.000001 0.000000 0.000000 0.000000 -0.034907
    20 3.915635 -0.278019 -1.402609 0.000796 0.000000 0.000000
    21 1.333082 0.000000 -0.000005 0.000000 0.000000 0.087266
    22 1.159201 0.000000 0.000001 0.000000 0.000000 0.218166
    23 7.048949 4.318981 -1.101195 1.587526 -0.821333 3.144905
  time 22
    0 0.134275 2.725324 -24.816700 0.000000 0.000000 -1.570795
    1 0.000000 0.000000 0.000002 -0.000086 -1.570451 -1.570709
    2 4.443614 -0.009642 0.000006 -0.000004 -0.000001 0.000796
    3 12.111412 -0.011446 0.000000 0.000000 0.000000 0.000000
    4 0.000011 0.011449 -1.352403 -0.000014 1.370796 3.140783
    5 6.078086 0.000000 0.000002 0.839704 -0.671150 -0.923158
    6 13.446753 0.000000 0.000002 0.000000 0.000000 -1.627659
    7 15.996996 -0.000001 -0.000002 1.469645 -0.107442 0.268047
    8 1.885327 0.833278 2.177875 1.155789 -0.579396 0.719274
    9 1.506966 -0.000001 0.000000 0.000000 0.000000 -0.139626
    10 0.798345 0.000001 0.000002 0.000000 0.000000 -0.148353
    11 3.950301 -0.539877 2.108871 -0.044182 -0.150789 0.291255
    12 1.545798 0.000000 0.000001 0.000000 0.000000 0.427606
    13 1.667400 0.000000 -0.000001 0.000000 0.000000 0.314159
    14 3.899458 -0.475374 1.170888 0.000796 0.000000 0.000000
    15 1.528219 -0.000002 0.000002 0.000000 0.000000 0.244346
    16 1.528217 0.000001 0.000001 0.000000 0.000000 0.479966
    17 3.899461 -0.431803 -0.168225 0.000796 0.000000 0.000000
    18 1.506964 0.000003 -0.000001 0.000000 0.000000 0.270526
    19 1.506959 -0.000001 0.000000 0.000000 0.000000 -0.034907
    20 3.915635 -0.278019 -1.402609 0.000796 0.000000 0.000000
    21 1.333082 0.000000 -0.000005 0.000000 0.000000 0.087266
    22 1.159201 0.000000 0.000001 0.000000 0.000000 0.218166
    23 7.048949 4.318981 -1.101195 1.587526 -0.821333 3.144905
  time 23
    0 0.134275 2.725324 -24.816700 0.000000 0.000000 -1.570795
    1 0.000000 0.000000 0.000002 -0.000086 -1.570451 -1.570709
    2 4.443614 -0.009642 0.000006 -0.000004 -0.000001 0.000796
    3 12.111412 -0.011446 0.000000 0.000000 0.000000 0.000000
    4 0.000011 0.011449 -1.352403 -0.000014 1.370796 3.140783
    5 6.078086 0.000000 0.000002 0.859985 -0.641169 -0.956403
    6 13.446753 0.000000 0.000002 0.000000 0.000000 -1.553616
    7 15.996996 -0.000001 -0.000002 1.469645 -0.107442 0.268047
    8 1.885327 0.833278 2.177875 1.155789 -0.579396 0.719274
    9 1.506966 -0.000001 0.000000 0.000000 0.000000 -0.139626
    10 0.798345 0.000001 0.000002 0.000000 0.000000 -0.148353
    11 3.950301 -0.539877 2.108871 -0.044182 -0.150789 0.291255
    12 1.545798 0.000000 0.000001 0.000000 0.000000 0.427606
    13 1.667400 0.000000 -0.000001 0.000000 0.000000 0.314159
    14 3.899458 -0.475374 1.170888 0.000796 0.000000 0.000000
    15 1.528219 -0.000002 0.000002 0.000000 0.000000 0.244346
    16 1.528217 0.000001 0.000001 0.000000 0.000000 0.479966
    17 3.899461 -0.431803 -0.168225 0.000796 0.000000 0.000000
    18 1.506964 0.000003 -0.000001 0.000000 0.000000 0.270526
    19 1.506959 -0.000001 0.000000 0.000000 0.000000 -0.034907
    20 3.915635 -0.278019 -1.402609 0.000796 0.000000 0.000000
    21 1.333082 0.000000 -0.000005 0.000000 0.000000 0.087266
    22 1.159201 0.000000 0.000001 0.000000 0.000000 0.218166
    23 7.048949 4.318981 -1.101195 1.587526 -0.821333 3.144905
  time 24
    0 0.134275 2.725324 -24.816700 0.000000 0.000000 -1.570795
    1 0.000000 0.000000 0.000002 -0.000086 -1.570451 -1.570709
    2 4.443614 -0.009642 0.000006 -0.000004 -0.000001 0.000796
    3 12.111412 -0.011446 0.000000 0.000000 0.000000 0.000000
    4 0.000011 0.011449 -1.352403 -0.000014 1.370796 3.140783
    5 6.078086 0.000000 0.000002 0.878211 -0.611331 -0.987536
    6 13.446753 0.000000 0.000002 0.000000 0.000000 -1.485801
    7 15.996996 -0.000001 -0.000002 1.469645 -0.107442 0.268047
    8 1.885327 0.833278 2.177875 1.155789 -0.579396 0.719274
    9 1.506966 -0.000001 0.000000 0.000000 0.000000 -0.139626
    10 0.798345 0.000001 0.000002 0.000000 0.000000 -0.148353
    11 3.950301 -0.539877 2.108871 -0.044182 -0.150789 0.291255
    12 1.545798 0.000000 0.000001 0.000000 0.000000 0.427606
    13 1.667400 0.000000 -0.000001 0.000000 0.000000 0.314159
    14 3.899458 -0.475374 1.170888 0.000796 0.000000 0.000000
    15 1.528219 -0.000002 0.000002 0.000000 0.000000 0.244346
    16 1.528217 0.000001 0.000001 0.000000 0.000000 0.479966
    17 3.899461 -0.431803 -0.168225 0.000796 0.000000 0.000000
    18 1.506964 0.000003 -0.000001 0.000000 0.000000 0.270526
    19 1.506959 -0.000001 0.000000 0.000000 0.000000 -0.034907
    20 3.915635 -0.278019 -1.402609 0.000796 0.000000 0.000000
    21 1.333082 0.000000 -0.000005 0.000000 0.000000 0.087266
    22 1.159201 0.000000 0.000001 0.000000 0.000000 0.218166
    23 7.048949 4.318981 -1.101195 1.587526 -0.821333 3.144905
  time 25
    0 0.134275 2.725324 -24.816700 0.000000 0.000000 -1.570795
    1 0.000000 0.000000 0.000002 -0.000086 -1.570451 -1.570709
    2 4.443614 -0.009642 0.000006 -0.000004 -0.000001 0.000796
    3 12.111412 -0.011446 0.000000 0.000000 0.000000 0.000000
    4 0.000011 0.011449 -1.352403 -0.000014 1.370796 3.140783
    5 6.078086 0.000000 0.000002 0.894356 -0.582210 -1.016244
    6 13.446753 0.000000 0.000002 0.000000 0.000000 -1.428897
    7 15.996996 -0.000001 -0.000002 1.469645 -0.107442 0.268047
    8 1.885327 0.833278 2.177875 1.155789 -0.579396 0.719274
    9 1.506966 -0.000001 0.000000 0.000000 0.000000 -0.139626
    10 0.798345 0.000001 0.000002 0.000000 0.000000 -0.148353
    11 3.950301 -0.539877 2.108871 -0.044182 -0.150789 0.291255
    12 1.545798 0.000000 0.000001 0.000000 0.000000 0.427606
    13 1.667400 0.000000 -0.000001 0.000000 0.000000 0.314159
    14 3.899458 -0.475374 1.170888 0.000796 0.000000 0.000000
    15 1.528219 -0.000002 0.000002 0.000000 0.000000 0.244346
    16 1.528217 0.000001 0.000001 0.000000 0.000000 0.479966
    17 3.899461 -0.431803 -0.168225 0.000796 0.000000 0.000000
    18 1.506964 0.000003 -0.000001 0.000000 0.000000 0.270526
    19 1.506959 -0.000001 0.000000 0.000000 0.000000 -0.034907
    20 3.915635 -0.278019 -1.402609 0.000796 0.000000 0.000000
    21 1.333082 0.000000 -0.000005 0.000000 0.000000 0.087266
    22 1.159201 0.000000 0.000001 0.000000 0.000000 0.218166
    23 7.048949 4.318981 -1.101195 1.587526 -0.821333 3.144905
end
