// Created by Crowbar 0.74
version 1
nodes
  0 "Bip01" -1
  1 "Bip01 Pelvis" 0
  2 "Bip01 Spine" 1
  3 "Bip01 Neck" 2
  4 "Bip01 R Clavicle" 3
  5 "Bip01 R UpperArm" 4
  6 "Bip01 R Forearm" 5
  7 "Bip01 R Hand" 6
  8 "Bip01 R Finger0" 7
  9 "Bip01 R Finger01" 8
  10 "Bip01 R Finger02" 9
  11 "Bip01 R Finger1" 7
  12 "Bip01 R Finger11" 11
  13 "Bip01 R Finger12" 12
  14 "Bip01 R Finger2" 7
  15 "Bip01 R Finger21" 14
  16 "Bip01 R Finger22" 15
  17 "Bip01 R Finger3" 7
  18 "Bip01 R Finger31" 17
  19 "Bip01 R Finger32" 18
  20 "Bip01 R Finger4" 7
  21 "Bip01 R Finger41" 20
  22 "Bip01 R Finger42" 21
  23 "Dummy14" 7
end
skeleton
  time 0
    0 0.134275 2.725324 -24.816700 0.000000 0.000000 -1.570795
    1 0.000000 0.000000 0.000002 -0.000086 -1.570451 -1.570709
    2 4.443614 -0.009642 0.000006 -0.000004 -0.000001 0.000796
    3 12.111412 -0.011446 0.000000 0.000000 0.000000 0.000000
    4 0.000011 0.011449 -1.352403 -0.000014 1.370796 3.140783
    5 6.078087 0.000000 0.000002 0.894385 -0.582210 -1.016244
    6 13.446754 0.000002 0.000002 0.000000 0.000000 -1.428897
    7 15.996998 -0.000002 -0.000002 1.469645 -0.107442 0.268047
    8 1.885324 0.833276 2.177878 1.155789 -0.579396 0.719274
    9 1.506964 0.000000 -0.000001 0.000000 0.000000 -0.139626
    10 0.798347 -0.000003 0.000002 0.000000 0.000000 -0.148353
    11 3.950302 -0.539878 2.108873 -0.044182 -0.150789 0.291255
    12 1.545797 0.000002 0.000000 0.000000 0.000000 0.427606
    13 1.667399 -0.000001 0.000002 0.000000 0.000000 0.314159
    14 3.899456 -0.475378 1.170892 0.000796 0.000000 0.000000
    15 1.528215 0.000000 -0.000001 0.000000 0.000000 0.244346
    16 1.528216 0.000003 -0.000002 0.000000 0.000000 0.479966
    17 3.899458 -0.431804 -0.168223 0.000796 0.000000 0.000000
    18 1.506964 0.000000 -0.000001 0.000000 0.000000 0.270526
    19 1.506962 -0.000003 0.000002 0.000000 0.000000 -0.034907
    20 3.915631 -0.278019 -1.402606 0.000796 0.000000 0.000000
    21 1.333078 -0.000001 -0.000001 0.000000 0.000000 0.087266
    22 1.159205 0.000000 -0.000002 0.000000 0.000000 0.218166
    23 7.048949 4.318981 -1.101195 1.587526 -0.821333 3.144905
  time 1
    0 0.134275 2.725324 -24.816700 0.000000 0.000000 -1.570795
    1 0.000000 0.000000 0.000002 -0.000086 -1.570451 -1.570709
    2 4.443614 -0.009642 0.000006 -0.000004 -0.000001 0.000796
    3 12.111412 -0.011446 0.000000 0.000000 0.000000 0.000000
    4 0.000011 0.011449 -1.352403 -0.000014 1.370796 3.140783
    5 6.078087 0.000000 0.000002 0.944245 -0.361137 -0.974942
    6 13.446754 0.000002 0.000002 0.000000 0.000000 -1.321775
    7 15.996998 -0.000002 -0.000002 1.438054 -0.064285 0.194078
    8 1.885324 0.833276 2.177878 1.059615 -0.621881 0.794738
    9 1.506964 0.000000 -0.000001 0.000000 0.000000 -0.139626
    10 0.798347 -0.000003 0.000002 0.000000 0.000000 -0.142421
    11 3.950302 -0.539878 2.108873 -0.034235 -0.153330 0.225574
    12 1.545797 0.000002 0.000000 0.000000 0.000000 0.478301
    13 1.667399 -0.000001 0.000002 0.000000 0.000000 0.378205
    14 3.899456 -0.475378 1.170892 0.000796 0.000000 -0.012375
    15 1.528215 0.000000 -0.000001 0.000000 0.000000 0.276453
    16 1.528216 0.000003 -0.000002 0.000000 0.000000 0.586237
    17 3.899458 -0.431804 -0.168223 0.000796 0.000000 0.000000
    18 1.506964 0.000000 -0.000001 0.000000 0.000000 0.356550
    19 1.506962 -0.000003 0.000002 0.000000 0.000000 0.088196
    20 3.915631 -0.278019 -1.402606 0.000796 0.000000 0.000000
    21 1.333078 -0.000001 -0.000001 0.000000 0.000000 0.180706
    22 1.159205 0.000000 -0.000002 0.000000 0.000000 0.307156
    23 7.048949 4.318981 -1.101195 1.587526 -0.821333 3.144905
  time 2
    0 0.134275 2.725324 -24.816700 0.000000 0.000000 -1.570795
    1 0.000000 0.000000 0.000002 -0.000086 -1.570451 -1.570709
    2 4.443614 -0.009642 0.000006 -0.000004 -0.000001 0.000796
    3 12.111412 -0.011446 0.000000 0.000000 0.000000 0.000000
    4 0.000011 0.011449 -1.352403 -0.000014 1.370796 3.140783
    5 6.078087 0.000000 0.000002 1.001920 -0.137284 -0.923627
    6 13.446754 0.000002 0.000002 0.000000 0.000000 -1.212196
    7 15.996998 -0.000002 -0.000002 1.402542 -0.022675 0.117149
    8 1.885324 0.833276 2.177878 0.954332 -0.658746 0.879258
    9 1.506964 0.000000 -0.000001 0.000000 0.000000 -0.139626
    10 0.798347 -0.000003 0.000002 0.000000 0.000000 -0.136356
    11 3.950302 -0.539878 2.108873 -0.023892 -0.155259 0.158278
    12 1.545797 0.000002 0.000000 0.000000 0.000000 0.530194
    13 1.667399 -0.000001 0.000002 0.000000 0.000000 0.443760
    14 3.899456 -0.475378 1.170892 0.000796 0.000012 -0.025049
    15 1.528215 0.000000 -0.000001 0.000000 0.000000 0.309326
    16 1.528216 0.000003 -0.000002 0.000000 0.000000 0.695008
    17 3.899458 -0.431804 -0.168223 0.000796 0.000000 0.000000
    18 1.506964 0.000000 -0.000001 0.000000 0.000000 0.444582
    19 1.506962 -0.000003 0.000002 0.000000 0.000000 0.214173
    20 3.915631 -0.278019 -1.402606 0.000796 0.000000 0.000000
    21 1.333078 -0.000001 -0.000001 0.000000 0.000000 0.276327
    22 1.159205 0.000000 -0.000002 0.000000 0.000000 0.398224
    23 7.048949 4.318981 -1.101195 1.587526 -0.821333 3.144905
  time 3
    0 0.134275 2.725324 -24.816700 0.000000 0.000000 -1.570795
    1 0.000000 0.000000 0.000002 -0.000086 -1.570451 -1.570709
    2 4.443614 -0.009642 0.000006 -0.000004 -0.000001 0.000796
    3 12.111412 -0.011446 0.000000 0.000000 0.000000 0.000000
    4 0.000011 0.011449 -1.352403 -0.000014 1.370796 3.140783
    5 6.078087 0.000000 0.000002 1.070549 0.082986 -0.859875
    6 13.446754 0.000002 0.000002 0.000000 0.000000 -1.102560
    7 15.996998 -0.000002 -0.000002 1.363956 0.016047 0.038794
    8 1.885324 0.833276 2.177878 0.842625 -0.688048 0.970548
    9 1.506964 0.000000 -0.000001 0.000000 0.000000 -0.139626
    10 0.798347 -0.000003 0.000002 0.000000 0.000000 -0.130280
    11 3.950302 -0.539878 2.108873 -0.013430 -0.156506 0.090982
    12 1.545797 0.000002 0.000000 0.000000 0.000000 0.582087
    13 1.667399 -0.000001 0.000002 0.000000 0.000000 0.509316
    14 3.899456 -0.475378 1.170892 0.000796 0.000024 -0.037723
    15 1.528215 0.000000 -0.000001 0.000000 0.000000 0.342188
    16 1.528216 0.000003 -0.000002 0.000000 0.000000 0.803759
    17 3.899458 -0.431804 -0.168223 0.000796 0.000000 0.000000
    18 1.506964 0.000000 -0.000001 0.000000 0.000000 0.532631
    19 1.506962 -0.000003 0.000002 0.000000 0.000000 0.340174
    20 3.915631 -0.278019 -1.402606 0.000796 0.000000 0.000000
    21 1.333078 -0.000001 -0.000001 0.000000 0.000000 0.371966
    22 1.159205 0.000000 -0.000002 0.000000 0.000000 0.489309
    23 7.048949 4.318981 -1.101195 1.587526 -0.821333 3.144905
  time 4
    0 0.134275 2.725324 -24.816700 0.000000 0.000000 -1.570795
    1 0.000000 0.000000 0.000002 -0.000086 -1.570451 -1.570709
    2 4.443614 -0.009642 0.000006 -0.000004 -0.000001 0.000796
    3 12.111412 -0.011446 0.000000 0.000000 0.000000 0.000000
    4 0.000011 0.011449 -1.352403 -0.000014 1.370796 3.140783
    5 6.078087 0.000000 0.000002 1.154353 0.292938 -0.780009
    6 13.446754 0.000002 0.000002 0.000000 0.000000 -0.995494
    7 15.996998 -0.000002 -0.000002 1.323371 0.050839 -0.039238
    8 1.885324 0.833276 2.177878 0.728213 -0.708626 1.065233
    9 1.506964 0.000000 -0.000001 0.000000 0.000000 -0.139626
    10 0.798347 -0.000003 0.000002 0.000000 0.000000 -0.124348
    11 3.950302 -0.539878 2.108873 -0.003159 -0.157045 0.025175
    12 1.545797 0.000002 0.000000 0.000000 0.000000 0.632794
    13 1.667399 -0.000001 0.000002 0.000000 0.000000 0.573374
    14 3.899456 -0.475378 1.170892 0.000796 0.000036 -0.050110
    15 1.528215 0.000000 -0.000001 0.000000 0.000000 0.374307
    16 1.528216 0.000003 -0.000002 0.000000 0.000000 0.910049
    17 3.899458 -0.431804 -0.168223 0.000796 0.000000 0.000000
    18 1.506964 0.000000 -0.000001 0.000000 0.000000 0.618655
    19 1.506962 -0.000003 0.000002 0.000000 0.000000 0.463277
    20 3.915631 -0.278019 -1.402606 0.000796 0.000000 0.000000
    21 1.333078 -0.000001 -0.000001 0.000000 0.000000 0.465406
    22 1.159205 0.000000 -0.000002 0.000000 0.000000 0.578300
    23 7.048949 4.318981 -1.101195 1.587526 -0.821333 3.144905
  time 5
    0 0.134275 2.725324 -24.816700 0.000000 0.000000 -1.570795
    1 0.000000 0.000000 0.000002 -0.000086 -1.570451 -1.570709
    2 4.443614 -0.009642 0.000006 -0.000004 -0.000001 0.000796
    3 12.111412 -0.011446 0.000000 0.000000 0.000000 0.000000
    4 0.000011 0.011449 -1.352403 -0.000014 1.370796 3.140783
    5 6.078087 0.000000 0.000002 1.258323 0.485234 -0.679256
    6 13.446754 0.000002 0.000002 0.000000 0.000000 -0.893400
    7 15.996998 -0.000002 -0.000002 1.282171 0.080932 -0.115052
    8 1.885324 0.833276 2.177878 0.615661 -0.720275 1.159104
    9 1.506964 0.000000 -0.000001 0.000000 0.000000 -0.139626
    10 0.798347 -0.000003 0.000002 0.000000 0.000000 -0.118691
    11 3.950302 -0.539878 2.108873 0.006657 -0.156937 -0.037554
    12 1.545797 0.000002 0.000000 0.000000 0.000000 0.681140
    13 1.667399 -0.000001 0.000002 0.000000 0.000000 0.634435
    14 3.899456 -0.475378 1.170892 0.000796 0.000048 -0.061910
    15 1.528215 0.000000 -0.000001 0.000000 0.000000 0.404916
    16 1.528216 0.000003 -0.000002 0.000000 0.000000 1.011359
    17 3.899458 -0.431804 -0.168223 0.000796 0.000000 0.000000
    18 1.506964 0.000000 -0.000001 0.000000 0.000000 0.700678
    19 1.506962 -0.000003 0.000002 0.000000 0.000000 0.580655
    20 3.915631 -0.278019 -1.402606 0.000796 0.000000 0.000000
    21 1.333078 -0.000001 -0.000001 0.000000 0.000000 0.554500
    22 1.159205 0.000000 -0.000002 0.000000 0.000000 0.663151
    23 7.048949 4.318981 -1.101195 1.587526 -0.821333 3.144905
  time 6
    0 0.134275 2.725324 -24.816700 0.000000 0.000000 -1.570795
    1 0.000000 0.000000 0.000002 -0.000086 -1.570451 -1.570709
    2 4.443614 -0.009642 0.000006 -0.000004 -0.000001 0.000796
    3 12.111412 -0.011446 0.000000 0.000000 0.000000 0.000000
    4 0.000011 0.011449 -1.352403 -0.000014 1.370796 3.140783
    5 6.078087 0.000000 0.000002 1.387365 0.652250 -0.552847
    6 13.446754 0.000002 0.000002 0.000000 0.000000 -0.798789
    7 15.996998 -0.000002 -0.000002 1.241971 0.105932 -0.186528
    8 1.885324 0.833276 2.177878 0.509829 -0.723846 1.247710
    9 1.506964 0.000000 -0.000001 0.000000 0.000000 -0.139626
    10 0.798347 -0.000003 0.000002 0.000000 0.000000 -0.113454
    11 3.950302 -0.539878 2.108873 0.015717 -0.156290 -0.095665
    12 1.545797 0.000002 0.000000 0.000000 0.000000 0.725926
    13 1.667399 -0.000001 0.000002 0.000000 0.000000 0.691014
    14 3.899456 -0.475378 1.170892 0.000796 0.000048 -0.072849
    15 1.528215 0.000000 -0.000001 0.000000 0.000000 0.433283
    16 1.528216 0.000003 -0.000002 0.000000 0.000000 1.105245
    17 3.899458 -0.431804 -0.168223 0.000796 0.000000 0.000000
    18 1.506964 0.000000 -0.000001 0.000000 0.000000 0.776659
    19 1.506962 -0.000003 0.000002 0.000000 0.000000 0.689386
    20 3.915631 -0.278019 -1.402606 0.000796 0.000000 0.000000
    21 1.333078 -0.000001 -0.000001 0.000000 0.000000 0.637031
    22 1.159205 0.000000 -0.000002 0.000000 0.000000 0.741752
    23 -21.205820 -34.748618 0.367599 1.587526 -0.821333 3.144905
  time 7
    0 0.134275 2.725324 -24.816700 0.000000 0.000000 -1.570795
    1 0.000000 0.000000 0.000002 -0.000086 -1.570451 -1.570709
    2 4.443614 -0.009642 0.000006 -0.000004 -0.000001 0.000796
    3 12.111412 -0.011446 0.000000 0.000000 0.000000 0.000000
    4 0.000011 0.011449 -1.352403 -0.000014 1.370796 3.140783
    5 6.078087 0.000000 0.000002 1.387365 0.652250 -0.552847
    6 13.446754 0.000002 0.000002 0.000000 0.000000 -0.798789
    7 15.996998 -0.000002 -0.000002 1.241971 0.105932 -0.186528
    8 1.885324 0.833276 2.177878 0.509829 -0.723846 1.247710
    9 1.506964 0.000000 -0.000001 0.000000 0.000000 -0.139626
    10 0.798347 -0.000003 0.000002 0.000000 0.000000 -0.113454
    11 3.950302 -0.539878 2.108873 0.015717 -0.156290 -0.095665
    12 1.545797 0.000002 0.000000 0.000000 0.000000 0.725926
    13 1.667399 -0.000001 0.000002 0.000000 0.000000 0.691014
    14 3.899456 -0.475378 1.170892 0.000796 0.000048 -0.072849
    15 1.528215 0.000000 -0.000001 0.000000 0.000000 0.433283
    16 1.528216 0.000003 -0.000002 0.000000 0.000000 1.105245
    17 3.899458 -0.431804 -0.168223 0.000796 0.000000 0.000000
    18 1.506964 0.000000 -0.000001 0.000000 0.000000 0.776659
    19 1.506962 -0.000003 0.000002 0.000000 0.000000 0.689386
    20 3.915631 -0.278019 -1.402606 0.000796 0.000000 0.000000
    21 1.333078 -0.000001 -0.000001 0.000000 0.000000 0.637031
    22 1.159205 0.000000 -0.000002 0.000000 0.000000 0.741752
    23 -22.319135 -34.537674 0.211345 1.587526 -0.821333 3.144905
  time 8
    0 0.134275 2.725324 -24.816700 0.000000 0.000000 -1.570795
    1 0.000000 0.000000 0.000002 -0.000086 -1.570451 -1.570709
    2 4.443614 -0.009642 0.000006 -0.000004 -0.000001 0.000796
    3 12.111412 -0.011446 0.000000 0.000000 0.000000 0.000000
    4 0.000011 0.011449 -1.352403 -0.000014 1.370796 3.140783
    5 6.078087 0.000000 0.000002 1.387365 0.652250 -0.552847
    6 13.446754 0.000002 0.000002 0.000000 0.000000 -0.798789
    7 15.996998 -0.000002 -0.000002 1.241971 0.105932 -0.186528
    8 1.885324 0.833276 2.177878 0.509829 -0.723846 1.247710
    9 1.506964 0.000000 -0.000001 0.000000 0.000000 -0.139626
    10 0.798347 -0.000003 0.000002 0.000000 0.000000 -0.113454
    11 3.950302 -0.539878 2.108873 0.015717 -0.156290 -0.095665
    12 1.545797 0.000002 0.000000 0.000000 0.000000 0.725926
    13 1.667399 -0.000001 0.000002 0.000000 0.000000 0.691014
    14 3.899456 -0.475378 1.170892 0.000796 0.000048 -0.072849
    15 1.528215 0.000000 -0.000001 0.000000 0.000000 0.433283
    16 1.528216 0.000003 -0.000002 0.000000 0.000000 1.105245
    17 3.899458 -0.431804 -0.168223 0.000796 0.000000 0.000000
    18 1.506964 0.000000 -0.000001 0.000000 0.000000 0.776659
    19 1.506962 -0.000003 0.000002 0.000000 0.000000 0.689386
    20 3.915631 -0.278019 -1.402606 0.000796 0.000000 0.000000
    21 1.333078 -0.000001 -0.000001 0.000000 0.000000 0.637031
    22 1.159205 0.000000 -0.000002 0.000000 0.000000 0.741752
    23 -20.467516 -37.885432 -1.526990 1.587526 -0.821333 3.144905
  time 9
    0 0.134275 2.725324 -24.816700 0.000000 0.000000 -1.570795
    1 0.000000 0.000000 0.000002 -0.000086 -1.570451 -1.570709
    2 4.443614 -0.009642 0.000006 -0.000004 -0.000001 0.000796
    3 12.111412 -0.011446 0.000000 0.000000 0.000000 0.000000
    4 0.000011 0.011449 -1.352403 -0.000014 1.370796 3.140783
    5 6.078087 0.000000 0.000002 1.387365 0.652250 -0.552847
    6 13.446754 0.000002 0.000002 0.000000 0.000000 -0.798789
    7 15.996998 -0.000002 -0.000002 1.241971 0.105932 -0.186528
    8 1.885324 0.833276 2.177878 0.509829 -0.723846 1.247710
    9 1.506964 0.000000 -0.000001 0.000000 0.000000 -0.139626
    10 0.798347 -0.000003 0.000002 0.000000 0.000000 -0.113454
    11 3.950302 -0.539878 2.108873 0.015717 -0.156290 -0.095665
    12 1.545797 0.000002 0.000000 0.000000 0.000000 0.725926
    13 1.667399 -0.000001 0.000002 0.000000 0.000000 0.691014
    14 3.899456 -0.475378 1.170892 0.000796 0.000048 -0.072849
    15 1.528215 0.000000 -0.000001 0.000000 0.000000 0.433283
    16 1.528216 0.000003 -0.000002 0.000000 0.000000 1.105245
    17 3.899458 -0.431804 -0.168223 0.000796 0.000000 0.000000
    18 1.506964 0.000000 -0.000001 0.000000 0.000000 0.776659
    19 1.506962 -0.000003 0.000002 0.000000 0.000000 0.689386
    20 3.915631 -0.278019 -1.402606 0.000796 0.000000 0.000000
    21 1.333078 -0.000001 -0.000001 0.000000 0.000000 0.637031
    22 1.159205 0.000000 -0.000002 0.000000 0.000000 0.741752
    23 -20.760494 -37.346353 -2.937189 1.587526 -0.821333 3.144905
  time 10
    0 0.134275 2.725324 -24.816700 0.000000 0.000000 -1.570795
    1 0.000000 0.000000 0.000002 -0.000086 -1.570451 -1.570709
    2 4.443614 -0.009642 0.000006 -0.000004 -0.000001 0.000796
    3 12.111412 -0.011446 0.000000 0.000000 0.000000 0.000000
    4 0.000011 0.011449 -1.352403 -0.000014 1.370796 3.140783
    5 6.078087 0.000000 0.000002 1.387365 0.652250 -0.552847
    6 13.446754 0.000002 0.000002 0.000000 0.000000 -0.798789
    7 15.996998 -0.000002 -0.000002 1.241971 0.105932 -0.186528
    8 1.885324 0.833276 2.177878 0.509829 -0.723846 1.247710
    9 1.506964 0.000000 -0.000001 0.000000 0.000000 -0.139626
    10 0.798347 -0.000003 0.000002 0.000000 0.000000 -0.113454
    11 3.950302 -0.539878 2.108873 0.015717 -0.156290 -0.095665
    12 1.545797 0.000002 0.000000 0.000000 0.000000 0.725926
    13 1.667399 -0.000001 0.000002 0.000000 0.000000 0.691014
    14 3.899456 -0.475378 1.170892 0.000796 0.000048 -0.072849
    15 1.528215 0.000000 -0.000001 0.000000 0.000000 0.433283
    16 1.528216 0.000003 -0.000002 0.000000 0.000000 1.105245
    17 3.899458 -0.431804 -0.168223 0.000796 0.000000 0.000000
    18 1.506964 0.000000 -0.000001 0.000000 0.000000 0.776659
    19 1.506962 -0.000003 0.000002 0.000000 0.000000 0.689386
    20 3.915631 -0.278019 -1.402606 0.000796 0.000000 0.000000
    21 1.333078 -0.000001 -0.000001 0.000000 0.000000 0.637031
    22 1.159205 0.000000 -0.000002 0.000000 0.000000 0.741752
    23 -19.756557 -37.092439 -4.691149 1.587526 -0.821333 3.144905
end
