// Created by Crowbar 0.74
version 1
nodes
  0 "Bip01" -1
  1 "Bip01 Pelvis" 0
  2 "Bip01 Spine" 1
  3 "Bip01 Neck" 2
  4 "Bip01 R Clavicle" 3
  5 "Bip01 R UpperArm" 4
  6 "Bip01 R Forearm" 5
  7 "Bip01 R Hand" 6
  8 "Dummy14" 7
  9 "muzzle" 7
  10 "Bip01 L Clavicle" 3
  11 "Bip01 L UpperArm" 10
  12 "Bip01 L Forearm" 11
  13 "Bip01 L Hand" 12
  14 "Bip01 L Finger0" 13
  15 "Bip01 L Finger01" 14
  16 "Bip01 L Finger02" 15
  17 "Bip01 L Finger1" 13
  18 "Bip01 L Finger11" 17
  19 "Bip01 L Finger12" 18
  20 "Bip01 L Finger2" 13
  21 "Bip01 L Finger21" 20
  22 "Bip01 L Finger22" 21
  23 "Bip01 L Finger3" 13
  24 "Bip01 L Finger31" 23
  25 "Bip01 L Finger32" 24
  26 "Bip01 L Finger4" 13
  27 "Bip01 L Finger41" 26
  28 "Bip01 L Finger42" 27
end
skeleton
  time 0
    0 -13.093750 -12.070313 -24.812500 0.000000 0.000000 -1.570796
    1 0.000000 0.000000 0.000000 -0.008133 -1.570448 -1.562664
    2 4.443615 -0.009641 0.000006 -0.000004 -0.000004 0.000790
    3 12.109375 -0.011360 -0.000421 0.000000 0.000000 0.000000
    4 -0.000511 0.011444 -1.351563 -0.006762 1.370786 3.132536
    5 6.078085 0.000000 0.000004 1.182371 -0.672153 -1.303069
    6 13.446774 0.000347 0.000048 0.000003 0.000009 -0.069099
    7 15.996996 0.000362 0.000198 1.683439 -0.000017 -0.000006
    8 -2.696754 7.324316 -1.920834 0.018589 0.011442 1.586441
    9 35.019260 7.487988 -2.080860 1.582240 -0.018573 -3.126170
    10 0.003906 0.011446 1.352395 0.007039 -1.370800 3.132182
    11 6.078087 0.000010 0.000000 -0.014383 1.186749 -0.401315
    12 13.446751 -0.000118 -0.000002 0.000000 0.000002 -1.098717
    13 15.997011 -0.000214 0.000034 -0.381726 -0.051058 -0.086455
    14 1.885342 0.833251 -2.177898 -1.101246 0.431034 0.584286
    15 1.506973 0.000002 -0.000006 0.000000 0.000000 -0.307166
    16 0.798355 -0.000006 -0.000001 0.000000 0.000000 -0.280985
    17 3.950314 -0.539917 -2.108883 -0.018073 -0.074626 0.227578
    18 1.545788 -0.000009 -0.000023 0.000008 -0.000001 1.200742
    19 1.667393 0.000006 -0.000015 -0.000002 0.000001 1.165834
    20 3.899471 -0.475413 -1.170902 -0.056809 -0.237759 0.233757
    21 1.528221 -0.000010 -0.000023 0.000008 0.000002 1.061113
    22 1.528214 -0.000004 -0.000011 0.000004 0.000002 1.209468
    23 3.899460 -0.431834 0.168213 -0.072893 -0.302236 0.238121
    24 1.506962 -0.000010 -0.000008 0.000003 -0.000002 1.157108
    25 1.506962 -0.000002 -0.000019 0.000008 0.000002 1.069843
    26 3.915634 -0.278044 1.402588 -0.072041 -0.298855 0.237856
    27 1.333088 -0.000008 -0.000015 0.000006 -0.000002 1.366547
    28 1.159203 -0.000006 -0.000019 0.000008 0.000002 0.947669
  time 1
    0 -13.093750 -12.070313 -24.812500 0.000000 0.000000 -1.570796
    1 0.000000 0.000000 0.000000 -0.008133 -1.570448 -1.562664
    2 4.443615 -0.009641 0.000006 -0.000004 -0.000004 0.000790
    3 12.109375 -0.011360 -0.000421 0.000000 0.000000 0.000000
    4 -0.000511 0.011444 -1.351563 -0.006762 1.370786 3.132536
    5 6.078085 0.000000 0.000004 1.190365 -0.646710 -1.316072
    6 13.446774 0.000347 0.000048 0.000003 0.000009 -0.087339
    7 15.996996 0.000362 0.000198 1.689863 0.000007 -0.000186
    8 -2.696754 7.324316 -1.920834 0.018589 0.011442 1.586441
    9 35.019260 7.487988 -2.080860 1.582240 -0.018573 -3.126170
    10 0.003906 0.011446 1.352395 0.007039 -1.370800 3.132182
    11 6.078087 0.000010 0.000000 -0.099120 1.170893 -0.482152
    12 13.446751 -0.000118 -0.000002 0.000000 0.000002 -1.101266
    13 15.997011 -0.000214 0.000034 -0.374140 -0.051108 -0.093190
    14 1.885342 0.833251 -2.177898 -1.101261 0.431034 0.584286
    15 1.506973 0.000002 -0.000006 0.000000 0.000000 -0.307166
    16 0.798355 -0.000006 -0.000001 0.000000 0.000000 -0.280985
    17 3.950314 -0.539917 -2.108883 -0.018073 -0.074626 0.227578
    18 1.545788 -0.000009 -0.000023 0.000008 -0.000001 1.200742
    19 1.667393 0.000006 -0.000015 -0.000002 0.000001 1.165834
    20 3.899471 -0.475413 -1.170902 -0.056809 -0.237759 0.233757
    21 1.528221 -0.000010 -0.000023 0.000008 0.000002 1.061113
    22 1.528214 -0.000004 -0.000011 0.000004 0.000002 1.209468
    23 3.899460 -0.431834 0.168213 -0.072893 -0.302236 0.238121
    24 1.506962 -0.000010 -0.000008 0.000003 -0.000002 1.157108
    25 1.506962 -0.000002 -0.000019 0.000008 0.000002 1.069843
    26 3.915634 -0.278044 1.402588 -0.072041 -0.298855 0.237856
    27 1.333088 -0.000008 -0.000015 0.000006 -0.000002 1.366547
    28 1.159203 -0.000006 -0.000019 0.000008 0.000002 0.947669
  time 2
    0 -13.093750 -12.070313 -24.812500 0.000000 0.000000 -1.570796
    1 0.000000 0.000000 0.000000 -0.008133 -1.570448 -1.562664
    2 4.443615 -0.009641 0.000006 -0.000004 -0.000004 0.000790
    3 12.109375 -0.011360 -0.000421 0.000000 0.000000 0.000000
    4 -0.000511 0.011444 -1.351563 -0.006762 1.370786 3.132536
    5 6.078085 0.000000 0.000004 1.197819 -0.621037 -1.328692
    6 13.446774 0.000347 0.000048 0.000003 0.000009 -0.106582
    7 15.996996 0.000362 0.000198 1.697113 0.000055 -0.000701
    8 -2.696754 7.324316 -1.920834 0.018589 0.011442 1.586441
    9 35.019260 7.487988 -2.080860 1.582240 -0.018573 -3.126170
    10 0.003906 0.011446 1.352395 0.007039 -1.370800 3.132182
    11 6.078087 0.000010 0.000000 -0.179030 1.152423 -0.557400
    12 13.446751 -0.000118 -0.000002 0.000000 0.000002 -1.104452
    13 15.997011 -0.000214 0.000034 -0.365244 -0.050607 -0.100105
    14 1.885342 0.833251 -2.177898 -1.101261 0.431034 0.584286
    15 1.506973 0.000002 -0.000006 0.000000 0.000000 -0.307166
    16 0.798355 -0.000006 -0.000001 0.000000 0.000000 -0.280985
    17 3.950314 -0.539917 -2.108883 -0.018073 -0.074626 0.227578
    18 1.545788 -0.000009 -0.000023 0.000008 -0.000001 1.200742
    19 1.667393 0.000006 -0.000015 -0.000002 0.000001 1.165834
    20 3.899471 -0.475413 -1.170902 -0.056809 -0.237759 0.233757
    21 1.528221 -0.000010 -0.000023 0.000008 0.000002 1.061113
    22 1.528214 -0.000004 -0.000011 0.000004 0.000002 1.209468
    23 3.899460 -0.431834 0.168213 -0.072893 -0.302236 0.238121
    24 1.506962 -0.000010 -0.000008 0.000003 -0.000002 1.157108
    25 1.506962 -0.000002 -0.000019 0.000008 0.000002 1.069843
    26 3.915634 -0.278044 1.402588 -0.072041 -0.298855 0.237856
    27 1.333088 -0.000008 -0.000015 0.000006 -0.000002 1.366547
    28 1.159203 -0.000006 -0.000019 0.000008 0.000002 0.947669
  time 3
    0 -13.093750 -12.070313 -24.812500 0.000000 0.000000 -1.570796
    1 0.000000 0.000000 0.000000 -0.008133 -1.570448 -1.562664
    2 4.443615 -0.009641 0.000006 -0.000004 -0.000004 0.000790
    3 12.109375 -0.011360 -0.000421 0.000000 0.000000 0.000000
    4 -0.000511 0.011444 -1.351563 -0.006762 1.370786 3.132536
    5 6.078085 0.000000 0.000004 1.204794 -0.595153 -1.340892
    6 13.446774 0.000347 0.000048 0.000003 0.000009 -0.126660
    7 15.996996 0.000362 0.000198 1.705011 0.000139 -0.001492
    8 -2.696754 7.324316 -1.920834 0.018589 0.011442 1.586441
    9 35.019260 7.487988 -2.080860 1.582240 -0.018573 -3.126170
    10 0.003906 0.011446 1.352395 0.007039 -1.370800 3.132182
    11 6.078087 0.000010 0.000000 -0.253539 1.131688 -0.626505
    12 13.446751 -0.000118 -0.000002 0.000000 0.000002 -1.108488
    13 15.997011 -0.000214 0.000034 -0.355219 -0.049589 -0.107008
    14 1.885342 0.833251 -2.177898 -1.101246 0.431034 0.584286
    15 1.506973 0.000002 -0.000006 0.000000 0.000000 -0.307166
    16 0.798355 -0.000006 -0.000001 0.000000 0.000000 -0.280985
    17 3.950314 -0.539917 -2.108883 -0.018073 -0.074626 0.227578
    18 1.545788 -0.000009 -0.000023 0.000008 -0.000001 1.200742
    19 1.667393 0.000006 -0.000015 -0.000002 0.000001 1.165834
    20 3.899471 -0.475413 -1.170902 -0.056809 -0.237759 0.233757
    21 1.528221 -0.000010 -0.000023 0.000008 0.000002 1.061113
    22 1.528214 -0.000004 -0.000011 0.000004 0.000002 1.209468
    23 3.899460 -0.431834 0.168213 -0.072893 -0.302236 0.238121
    24 1.506962 -0.000010 -0.000008 0.000003 -0.000002 1.157108
    25 1.506962 -0.000002 -0.000019 0.000008 0.000002 1.069843
    26 3.915634 -0.278044 1.402588 -0.072041 -0.298855 0.237856
    27 1.333088 -0.000008 -0.000015 0.000006 -0.000002 1.366547
    28 1.159203 -0.000006 -0.000019 0.000008 0.000002 0.947669
  time 4
    0 -13.093750 -12.070313 -24.812500 0.000000 0.000000 -1.570796
    1 0.000000 0.000000 0.000000 -0.008133 -1.570448 -1.562664
    2 4.443615 -0.009641 0.000006 -0.000004 -0.000004 0.000790
    3 12.109375 -0.011360 -0.000421 0.000000 0.000000 0.000000
    4 -0.000511 0.011444 -1.351563 -0.006762 1.370786 3.132536
    5 6.078085 0.000000 0.000004 1.211314 -0.569117 -1.352721
    6 13.446774 0.000347 0.000048 0.000003 0.000009 -0.147287
    7 15.996996 0.000362 0.000198 1.713400 0.000235 -0.002499
    8 -2.696754 7.324316 -1.920834 0.018589 0.011442 1.586441
    9 35.019260 7.487988 -2.080860 1.582240 -0.018573 -3.126170
    10 0.003906 0.011446 1.352395 0.007039 -1.370800 3.132182
    11 6.078087 0.000010 0.000000 -0.322340 1.109106 -0.689224
    12 13.446751 -0.000118 -0.000002 0.000000 0.000002 -1.113331
    13 15.997011 -0.000214 0.000034 -0.344156 -0.048053 -0.113792
    14 1.885342 0.833251 -2.177898 -1.101261 0.431034 0.584286
    15 1.506973 0.000002 -0.000006 0.000000 0.000000 -0.307166
    16 0.798355 -0.000006 -0.000001 0.000000 0.000000 -0.280985
    17 3.950314 -0.539917 -2.108883 -0.018073 -0.074626 0.227578
    18 1.545788 -0.000009 -0.000023 0.000008 -0.000001 1.200742
    19 1.667393 0.000006 -0.000015 -0.000002 0.000001 1.165834
    20 3.899471 -0.475413 -1.170902 -0.056809 -0.237759 0.233757
    21 1.528221 -0.000010 -0.000023 0.000008 0.000002 1.061113
    22 1.528214 -0.000004 -0.000011 0.000004 0.000002 1.209468
    23 3.899460 -0.431834 0.168213 -0.072893 -0.302236 0.238121
    24 1.506962 -0.000010 -0.000008 0.000003 -0.000002 1.157108
    25 1.506962 -0.000002 -0.000019 0.000008 0.000002 1.069843
    26 3.915634 -0.278044 1.402588 -0.072041 -0.298855 0.237856
    27 1.333088 -0.000008 -0.000015 0.000006 -0.000002 1.366547
    28 1.159203 -0.000006 -0.000019 0.000008 0.000002 0.947669
  time 5
    0 -13.093750 -12.070313 -24.812500 0.000000 0.000000 -1.570796
    1 0.000000 0.000000 0.000000 -0.008133 -1.570448 -1.562664
    2 4.443615 -0.009641 0.000006 -0.000004 -0.000004 0.000790
    3 12.109375 -0.011360 -0.000421 0.000000 0.000000 0.000000
    4 -0.000511 0.011444 -1.351563 -0.006762 1.370786 3.132536
    5 6.078085 0.000000 0.000004 1.217354 -0.542965 -1.364178
    6 13.446774 0.000347 0.000048 0.000003 0.000009 -0.168296
    7 15.996996 0.000362 0.000198 1.722077 0.000367 -0.003589
    8 -2.696754 7.324316 -1.920834 0.018601 0.011442 1.586441
    9 35.019260 7.487988 -2.080860 1.582240 -0.018573 -3.126170
    10 0.003906 0.011446 1.352395 0.007039 -1.370800 3.132182
    11 6.078087 0.000010 0.000000 -0.385740 1.085165 -0.745730
    12 13.446751 -0.000118 -0.000002 0.000000 0.000002 -1.119151
    13 15.997011 -0.000214 0.000034 -0.332325 -0.046017 -0.120263
    14 1.885342 0.833251 -2.177898 -1.101261 0.431034 0.584286
    15 1.506973 0.000002 -0.000006 0.000000 0.000000 -0.307166
    16 0.798355 -0.000006 -0.000001 0.000000 0.000000 -0.280985
    17 3.950314 -0.539917 -2.108883 -0.018073 -0.074638 0.227578
    18 1.545788 -0.000009 -0.000023 0.000008 -0.000001 1.200742
    19 1.667393 0.000006 -0.000015 -0.000002 0.000001 1.165834
    20 3.899471 -0.475413 -1.170902 -0.056821 -0.237759 0.233757
    21 1.528221 -0.000010 -0.000023 0.000008 0.000002 1.061113
    22 1.528214 -0.000004 -0.000011 0.000004 0.000002 1.209468
    23 3.899460 -0.431834 0.168213 -0.072893 -0.302236 0.238121
    24 1.506962 -0.000010 -0.000008 0.000003 -0.000002 1.157108
    25 1.506962 -0.000002 -0.000019 0.000008 0.000002 1.069843
    26 3.915634 -0.278044 1.402588 -0.072041 -0.298855 0.237856
    27 1.333088 -0.000008 -0.000015 0.000006 -0.000002 1.366547
    28 1.159203 -0.000006 -0.000019 0.000008 0.000002 0.947669
  time 6
    0 -13.093750 -12.070313 -24.812500 0.000000 0.000000 -1.570796
    1 0.000000 0.000000 0.000000 -0.008133 -1.570448 -1.562664
    2 4.443615 -0.009641 0.000006 -0.000004 -0.000004 0.000790
    3 12.109375 -0.011360 -0.000421 0.000000 0.000000 0.000000
    4 -0.000511 0.011444 -1.351563 -0.006762 1.370786 3.132536
    5 6.078085 0.000000 0.000004 1.222987 -0.516737 -1.375312
    6 13.446774 0.000347 0.000048 0.000003 0.000009 -0.189473
    7 15.996996 0.000362 0.000198 1.730874 0.000486 -0.004752
    8 -2.696754 7.324316 -1.920834 0.018589 0.011442 1.586441
    9 35.019260 7.487988 -2.080860 1.582240 -0.018573 -3.126170
    10 0.003906 0.011446 1.352395 0.007039 -1.370800 3.132182
    11 6.078087 0.000010 0.000000 -0.443853 1.060248 -0.796440
    12 13.446751 -0.000118 -0.000002 0.000000 0.000002 -1.125778
    13 15.997011 -0.000214 0.000034 -0.319862 -0.043546 -0.126364
    14 1.885342 0.833251 -2.177898 -1.101261 0.431034 0.584286
    15 1.506973 0.000002 -0.000006 0.000000 0.000000 -0.307166
    16 0.798355 -0.000006 -0.000001 0.000000 0.000000 -0.280985
    17 3.950314 -0.539917 -2.108883 -0.018073 -0.074626 0.227578
    18 1.545788 -0.000009 -0.000023 0.000008 -0.000001 1.200742
    19 1.667393 0.000006 -0.000015 -0.000002 0.000001 1.165834
    20 3.899471 -0.475413 -1.170902 -0.056809 -0.237759 0.233757
    21 1.528221 -0.000010 -0.000023 0.000008 0.000002 1.061113
    22 1.528214 -0.000004 -0.000011 0.000004 0.000002 1.209468
    23 3.899460 -0.431834 0.168213 -0.072893 -0.302236 0.238121
    24 1.506962 -0.000010 -0.000008 0.000003 -0.000002 1.157108
    25 1.506962 -0.000002 -0.000019 0.000008 0.000002 1.069843
    26 3.915634 -0.278044 1.402588 -0.072041 -0.298855 0.237856
    27 1.333088 -0.000008 -0.000015 0.000006 -0.000002 1.366547
    28 1.159203 -0.000006 -0.000019 0.000008 0.000002 0.947669
  time 7
    0 -13.093750 -12.070313 -24.812500 0.000000 0.000000 -1.570796
    1 0.000000 0.000000 0.000000 -0.008133 -1.570448 -1.562664
    2 4.443615 -0.009641 0.000006 -0.000004 -0.000004 0.000790
    3 12.109375 -0.011360 -0.000421 0.000000 0.000000 0.000000
    4 -0.000511 0.011444 -1.351563 -0.006762 1.370786 3.132536
    5 6.078085 0.000000 0.000004 1.228176 -0.490471 -1.386086
    6 13.446774 0.000347 0.000048 0.000003 0.000009 -0.210578
    7 15.996996 0.000362 0.000198 1.739623 0.000642 -0.005866
    8 -2.696754 7.324316 -1.920834 0.018589 0.011442 1.586441
    9 35.019260 7.487988 -2.080860 1.582240 -0.018573 -3.126170
    10 0.003906 0.011446 1.352395 0.007039 -1.370800 3.132182
    11 6.078087 0.000010 0.000000 -0.497369 1.034703 -0.841873
    12 13.446751 -0.000118 -0.000002 0.000000 0.000002 -1.133297
    13 15.997011 -0.000214 0.000034 -0.306947 -0.040658 -0.131972
    14 1.885342 0.833251 -2.177898 -1.101261 0.431034 0.584286
    15 1.506973 0.000002 -0.000006 0.000000 0.000000 -0.307166
    16 0.798355 -0.000006 -0.000001 0.000000 0.000000 -0.280985
    17 3.950314 -0.539917 -2.108883 -0.018073 -0.074626 0.227578
    18 1.545788 -0.000009 -0.000023 0.000008 -0.000001 1.200742
    19 1.667393 0.000006 -0.000015 -0.000002 0.000001 1.165834
    20 3.899471 -0.475413 -1.170902 -0.056809 -0.237759 0.233757
    21 1.528221 -0.000010 -0.000023 0.000008 0.000002 1.061113
    22 1.528214 -0.000004 -0.000011 0.000004 0.000002 1.209468
    23 3.899460 -0.431834 0.168213 -0.072893 -0.302236 0.238121
    24 1.506962 -0.000010 -0.000008 0.000003 -0.000002 1.157108
    25 1.506962 -0.000002 -0.000019 0.000008 0.000002 1.069843
    26 3.915634 -0.278044 1.402588 -0.072041 -0.298855 0.237856
    27 1.333088 -0.000008 -0.000015 0.000006 -0.000002 1.366547
    28 1.159203 -0.000006 -0.000019 0.000008 0.000002 0.947669
  time 8
    0 -13.093750 -12.070313 -24.812500 0.000000 0.000000 -1.570796
    1 0.000000 0.000000 0.000000 -0.008133 -1.570448 -1.562664
    2 4.443615 -0.009641 0.000006 -0.000004 -0.000004 0.000790
    3 12.109375 -0.011360 -0.000421 0.000000 0.000000 0.000000
    4 -0.000511 0.011444 -1.351563 -0.006762 1.370786 3.132536
    5 6.078085 0.000000 0.000004 1.232994 -0.464185 -1.396573
    6 13.446774 0.000347 0.000048 0.000003 0.000009 -0.231348
    7 15.996996 0.000362 0.000198 1.748132 0.000798 -0.006897
    8 -2.696754 7.324316 -1.920834 0.018589 0.011442 1.586441
    9 35.019260 7.487988 -2.080860 1.582240 -0.018573 -3.126170
    10 0.003906 0.011446 1.352395 0.007039 -1.370800 3.132182
    11 6.078087 0.000010 0.000000 -0.546633 1.008950 -0.882587
    12 13.446751 -0.000118 -0.000002 0.000000 0.000002 -1.141496
    13 15.997011 -0.000214 0.000034 -0.293852 -0.037403 -0.137066
    14 1.885342 0.833251 -2.177898 -1.101261 0.431034 0.584286
    15 1.506973 0.000002 -0.000006 0.000000 0.000000 -0.307166
    16 0.798355 -0.000006 -0.000001 0.000000 0.000000 -0.280985
    17 3.950314 -0.539917 -2.108883 -0.018073 -0.074626 0.227578
    18 1.545788 -0.000009 -0.000023 0.000008 -0.000001 1.200742
    19 1.667393 0.000006 -0.000015 -0.000002 0.000001 1.165834
    20 3.899471 -0.475413 -1.170902 -0.056809 -0.237759 0.233757
    21 1.528221 -0.000010 -0.000023 0.000008 0.000002 1.061113
    22 1.528214 -0.000004 -0.000011 0.000004 0.000002 1.209468
    23 3.899460 -0.431834 0.168213 -0.072893 -0.302236 0.238121
    24 1.506962 -0.000010 -0.000008 0.000003 -0.000002 1.157108
    25 1.506962 -0.000002 -0.000019 0.000008 0.000002 1.069843
    26 3.915634 -0.278044 1.402588 -0.072041 -0.298855 0.237856
    27 1.333088 -0.000008 -0.000015 0.000006 -0.000002 1.366547
    28 1.159203 -0.000006 -0.000019 0.000008 0.000002 0.947669
  time 9
    0 -13.093750 -12.070313 -24.812500 0.000000 0.000000 -1.570796
    1 0.000000 0.000000 0.000000 -0.008133 -1.570448 -1.562664
    2 4.443615 -0.009641 0.000006 -0.000004 -0.000004 0.000790
    3 12.109375 -0.011360 -0.000421 0.000000 0.000000 0.000000
    4 -0.000511 0.011444 -1.351563 -0.006762 1.370786 3.132536
    5 6.078085 0.000000 0.000004 1.237428 -0.437957 -1.406736
    6 13.446774 0.000347 0.000048 0.000003 0.000009 -0.251618
    7 15.996996 0.000362 0.000198 1.756197 0.000930 -0.007760
    8 -2.696754 7.324316 -1.920834 0.018601 0.011442 1.586441
    9 35.019260 7.487988 -2.080860 1.582240 -0.018573 -3.126170
    10 0.003906 0.011446 1.352395 0.007039 -1.370800 3.132182
    11 6.078087 0.000010 0.000000 -0.592143 0.983197 -0.919135
    12 13.446751 -0.000118 -0.000002 0.000000 0.000002 -1.150332
    13 15.997011 -0.000214 0.000034 -0.280712 -0.033831 -0.141560
    14 1.885342 0.833251 -2.177898 -1.101261 0.431034 0.584286
    15 1.506973 0.000002 -0.000006 0.000000 0.000000 -0.307166
    16 0.798355 -0.000006 -0.000001 0.000000 0.000000 -0.280985
    17 3.950314 -0.539917 -2.108883 -0.018073 -0.074626 0.227578
    18 1.545788 -0.000009 -0.000023 0.000008 -0.000001 1.200742
    19 1.667393 0.000006 -0.000015 -0.000002 0.000001 1.165834
    20 3.899471 -0.475413 -1.170902 -0.056809 -0.237759 0.233757
    21 1.528221 -0.000010 -0.000023 0.000008 0.000002 1.061113
    22 1.528214 -0.000004 -0.000011 0.000004 0.000002 1.209468
    23 3.899460 -0.431834 0.168213 -0.072893 -0.302236 0.238121
    24 1.506962 -0.000010 -0.000008 0.000003 -0.000002 1.157108
    25 1.506962 -0.000002 -0.000019 0.000008 0.000002 1.069821
    26 3.915634 -0.278044 1.402588 -0.072041 -0.298855 0.237856
    27 1.333088 -0.000008 -0.000015 0.000006 -0.000002 1.366547
    28 1.159203 -0.000006 -0.000019 0.000008 0.000002 0.947669
  time 10
    0 -13.093750 -12.070313 -24.812500 0.000000 0.000000 -1.570796
    1 0.000000 0.000000 0.000000 -0.008133 -1.570448 -1.562664
    2 4.443615 -0.009641 0.000006 -0.000004 -0.000004 0.000790
    3 12.109375 -0.011360 -0.000421 0.000000 0.000000 0.000000
    4 -0.000511 0.011444 -1.351563 -0.006762 1.370786 3.132536
    5 6.078085 0.000000 0.000004 1.241503 -0.411806 -1.416611
    6 13.446774 0.000347 0.000048 0.000003 0.000009 -0.271171
    7 15.996996 0.000362 0.000198 1.763712 0.001038 -0.008383
    8 -2.696754 7.324316 -1.920834 0.018601 0.011442 1.586441
    9 35.019260 7.487988 -2.080860 1.582240 -0.018573 -3.126170
    10 0.003906 0.011446 1.352395 0.007039 -1.370800 3.132182
    11 6.078087 0.000010 0.000000 -0.634243 0.957722 -0.952074
    12 13.446751 -0.000118 -0.000002 0.000000 0.000002 -1.159678
    13 15.997011 -0.000214 0.000034 -0.267797 -0.030041 -0.145419
    14 1.885342 0.833251 -2.177898 -1.101261 0.431034 0.584286
    15 1.506973 0.000002 -0.000006 0.000000 0.000000 -0.307166
    16 0.798355 -0.000006 -0.000001 0.000000 0.000000 -0.280985
    17 3.950314 -0.539917 -2.108883 -0.018073 -0.074626 0.227578
    18 1.545788 -0.000009 -0.000023 0.000008 -0.000001 1.200742
    19 1.667393 0.000006 -0.000015 -0.000002 0.000001 1.165834
    20 3.899471 -0.475413 -1.170902 -0.056809 -0.237759 0.233757
    21 1.528221 -0.000010 -0.000023 0.000008 0.000002 1.061113
    22 1.528214 -0.000004 -0.000011 0.000004 0.000002 1.209468
    23 3.899460 -0.431834 0.168213 -0.072893 -0.302236 0.238121
    24 1.506962 -0.000010 -0.000008 0.000003 -0.000002 1.157108
    25 1.506962 -0.000002 -0.000019 0.000008 0.000002 1.069843
    26 3.915634 -0.278044 1.402588 -0.072041 -0.298855 0.237856
    27 1.333088 -0.000008 -0.000015 0.000006 -0.000002 1.366547
    28 1.159203 -0.000006 -0.000019 0.000008 0.000002 0.947669
  time 11
    0 -13.093750 -12.070313 -24.812500 0.000000 0.000000 -1.570796
    1 0.000000 0.000000 0.000000 -0.008133 -1.570448 -1.562664
    2 4.443615 -0.009641 0.000006 -0.000004 -0.000004 0.000790
    3 12.109375 -0.011360 -0.000421 0.000000 0.000000 0.000000
    4 -0.000511 0.011444 -1.351563 -0.006762 1.370786 3.132536
    5 6.078085 0.000000 0.000004 1.245230 -0.385769 -1.426210
    6 13.446774 0.000347 0.000048 0.000003 0.000009 -0.289792
    7 15.996996 0.000362 0.000198 1.770423 0.001098 -0.008707
    8 -2.696754 7.324316 -1.920834 0.018589 0.011442 1.586441
    9 35.019260 7.487988 -2.080860 1.582240 -0.018573 -3.126170
    10 0.003906 0.011446 1.352395 0.007039 -1.370800 3.132182
    11 6.078087 0.000010 0.000000 -0.673432 0.932701 -0.981854
    12 13.446751 -0.000118 -0.000002 0.000000 0.000002 -1.169279
    13 15.997011 -0.000214 0.000034 -0.255334 -0.026102 -0.148667
    14 1.885342 0.833251 -2.177898 -1.101261 0.431034 0.584286
    15 1.506973 0.000002 -0.000006 0.000000 0.000000 -0.307166
    16 0.798355 -0.000006 -0.000001 0.000000 0.000000 -0.280985
    17 3.950314 -0.539917 -2.108883 -0.018073 -0.074626 0.227578
    18 1.545788 -0.000009 -0.000023 0.000008 -0.000001 1.200742
    19 1.667393 0.000006 -0.000015 -0.000002 0.000001 1.165834
    20 3.899471 -0.475413 -1.170902 -0.056821 -0.237759 0.233757
    21 1.528221 -0.000010 -0.000023 0.000008 0.000002 1.061113
    22 1.528214 -0.000004 -0.000011 0.000004 0.000002 1.209468
    23 3.899460 -0.431834 0.168213 -0.072893 -0.302236 0.238121
    24 1.506962 -0.000010 -0.000008 0.000003 -0.000002 1.157108
    25 1.506962 -0.000002 -0.000019 0.000008 0.000002 1.069843
    26 3.915634 -0.278044 1.402588 -0.072041 -0.298855 0.237856
    27 1.333088 -0.000008 -0.000015 0.000006 -0.000002 1.366547
    28 1.159203 -0.000006 -0.000019 0.000008 0.000002 0.947669
  time 12
    0 -13.093750 -12.070313 -24.812500 0.000000 0.000000 -1.570796
    1 0.000000 0.000000 0.000000 -0.008133 -1.570448 -1.562664
    2 4.443615 -0.009641 0.000006 -0.000004 -0.000004 0.000790
    3 12.109375 -0.011360 -0.000421 0.000000 0.000000 0.000000
    4 -0.000511 0.011444 -1.351563 -0.006762 1.370786 3.132536
    5 6.078085 0.000000 0.000004 1.248634 -0.359886 -1.435546
    6 13.446774 0.000347 0.000048 0.000003 0.000009 -0.307244
    7 15.996996 0.000362 0.000198 1.776212 0.001122 -0.008623
    8 -2.696754 7.324316 -1.920834 0.018589 0.011442 1.586441
    9 35.019260 7.487988 -2.080860 1.582240 -0.018573 -3.126170
    10 0.003906 0.011446 1.352395 0.007039 -1.370800 3.132182
    11 6.078087 0.000010 0.000000 -0.709901 0.908376 -1.008927
    12 13.446751 -0.000118 -0.000002 0.000000 0.000002 -1.178922
    13 15.997011 -0.000214 0.000034 -0.243548 -0.022112 -0.151268
    14 1.885342 0.833251 -2.177898 -1.101261 0.431034 0.584286
    15 1.506973 0.000002 -0.000006 0.000000 0.000000 -0.307166
    16 0.798355 -0.000006 -0.000001 0.000000 0.000000 -0.280985
    17 3.950314 -0.539917 -2.108883 -0.018073 -0.074638 0.227578
    18 1.545788 -0.000009 -0.000023 0.000008 -0.000001 1.200742
    19 1.667393 0.000006 -0.000015 -0.000002 0.000001 1.165834
    20 3.899471 -0.475413 -1.170902 -0.056809 -0.237759 0.233757
    21 1.528221 -0.000010 -0.000023 0.000008 0.000002 1.061113
    22 1.528214 -0.000004 -0.000011 0.000004 0.000002 1.209468
    23 3.899460 -0.431834 0.168213 -0.072893 -0.302236 0.238121
    24 1.506962 -0.000010 -0.000008 0.000003 -0.000002 1.157108
    25 1.506962 -0.000002 -0.000019 0.000008 0.000002 1.069843
    26 3.915634 -0.278044 1.402588 -0.072041 -0.298855 0.237856
    27 1.333088 -0.000008 -0.000015 0.000006 -0.000002 1.366547
    28 1.159203 -0.000006 -0.000019 0.000008 0.000002 0.947669
  time 13
    0 -13.093750 -12.070313 -24.812500 0.000000 0.000000 -1.570796
    1 0.000000 0.000000 0.000000 -0.008133 -1.570448 -1.562664
    2 4.443615 -0.009641 0.000006 -0.000004 -0.000004 0.000790
    3 12.109375 -0.011360 -0.000421 0.000000 0.000000 0.000000
    4 -0.000511 0.011444 -1.351563 -0.006762 1.370786 3.132536
    5 6.078085 0.000000 0.000004 1.251714 -0.334194 -1.444619
    6 13.446774 0.000347 0.000048 0.000003 0.000009 -0.323312
    7 15.996996 0.000362 0.000198 1.780862 0.001062 -0.008096
    8 -2.696754 7.324316 -1.920834 0.018601 0.011442 1.586441
    9 35.019260 7.487988 -2.080860 1.582240 -0.018573 -3.126170
    10 0.003906 0.011446 1.352395 0.007039 -1.370800 3.132182
    11 6.078087 0.000010 0.000000 -0.743842 0.884853 -1.033570
    12 13.446751 -0.000118 -0.000002 0.000000 0.000002 -1.188438
    13 15.997011 -0.000214 0.000034 -0.232711 -0.018173 -0.153245
    14 1.885342 0.833251 -2.177898 -1.101261 0.431034 0.584286
    15 1.506973 0.000002 -0.000006 0.000000 0.000000 -0.307166
    16 0.798355 -0.000006 -0.000001 0.000000 0.000000 -0.280985
    17 3.950314 -0.539917 -2.108883 -0.018073 -0.074626 0.227578
    18 1.545788 -0.000009 -0.000023 0.000008 -0.000001 1.200742
    19 1.667393 0.000006 -0.000015 -0.000002 0.000001 1.165834
    20 3.899471 -0.475413 -1.170902 -0.056809 -0.237759 0.233757
    21 1.528221 -0.000010 -0.000023 0.000008 0.000002 1.061113
    22 1.528214 -0.000004 -0.000011 0.000004 0.000002 1.209468
    23 3.899460 -0.431834 0.168213 -0.072893 -0.302236 0.238121
    24 1.506962 -0.000010 -0.000008 0.000003 -0.000002 1.157108
    25 1.506962 -0.000002 -0.000019 0.000008 0.000002 1.069843
    26 3.915634 -0.278044 1.402588 -0.072041 -0.298855 0.237856
    27 1.333088 -0.000008 -0.000015 0.000006 -0.000002 1.366547
    28 1.159203 -0.000006 -0.000019 0.000008 0.000002 0.947669
  time 14
    0 -13.093750 -12.070313 -24.812500 0.000000 0.000000 -1.570796
    1 0.000000 0.000000 0.000000 -0.008133 -1.570448 -1.562664
    2 4.443615 -0.009641 0.000006 -0.000004 -0.000004 0.000790
    3 12.109375 -0.011360 -0.000421 0.000000 0.000000 0.000000
    4 -0.000511 0.011444 -1.351563 -0.006762 1.370786 3.132536
    5 6.078085 0.000000 0.000004 1.254494 -0.308731 -1.453427
    6 13.446774 0.000347 0.000048 0.000003 0.000009 -0.337756
    7 15.996996 0.000362 0.000198 1.784193 0.000942 -0.007041
    8 -2.696754 7.324316 -1.920834 0.018589 0.011442 1.586441
    9 35.019260 7.487988 -2.080860 1.582240 -0.018573 -3.126170
    10 0.003906 0.011446 1.352395 0.007039 -1.370800 3.132182
    11 6.078087 0.000010 0.000000 -0.775446 0.862271 -1.056165
    12 13.446751 -0.000118 -0.000002 0.000000 0.000002 -1.197699
    13 15.997011 -0.000214 0.000034 -0.223047 -0.014417 -0.154587
    14 1.885342 0.833251 -2.177898 -1.101246 0.431034 0.584286
    15 1.506973 0.000002 -0.000006 0.000000 0.000000 -0.307166
    16 0.798355 -0.000006 -0.000001 0.000000 0.000000 -0.280985
    17 3.950314 -0.539917 -2.108883 -0.018073 -0.074626 0.227578
    18 1.545788 -0.000009 -0.000023 0.000008 -0.000001 1.200742
    19 1.667393 0.000006 -0.000015 -0.000002 0.000001 1.165834
    20 3.899471 -0.475413 -1.170902 -0.056809 -0.237759 0.233757
    21 1.528221 -0.000010 -0.000023 0.000008 0.000002 1.061113
    22 1.528214 -0.000004 -0.000011 0.000004 0.000002 1.209468
    23 3.899460 -0.431834 0.168213 -0.072893 -0.302236 0.238121
    24 1.506962 -0.000010 -0.000008 0.000003 -0.000002 1.157108
    25 1.506962 -0.000002 -0.000019 0.000008 0.000002 1.069821
    26 3.915634 -0.278044 1.402588 -0.072041 -0.298855 0.237856
    27 1.333088 -0.000008 -0.000015 0.000006 -0.000002 1.366547
    28 1.159203 -0.000006 -0.000019 0.000008 0.000002 0.947669
  time 15
    0 -13.093750 -12.070313 -24.812500 0.000000 0.000000 -1.570796
    1 0.000000 0.000000 0.000000 -0.008133 -1.570448 -1.562664
    2 4.443615 -0.009641 0.000006 -0.000004 -0.000004 0.000790
    3 12.109375 -0.011360 -0.000421 0.000000 0.000000 0.000000
    4 -0.000511 0.011444 -1.351563 -0.006762 1.370786 3.132536
    5 6.078085 0.000000 0.000004 1.256999 -0.283556 -1.462008
    6 13.446774 0.000347 0.000048 0.000003 0.000009 -0.350361
    7 15.996996 0.000362 0.000198 1.786063 0.000702 -0.005363
    8 -2.696754 7.324316 -1.920834 0.018601 0.011442 1.586441
    9 35.019260 7.487988 -2.080860 1.582240 -0.018573 -3.126170
    10 0.003906 0.011446 1.352395 0.007039 -1.370800 3.132182
    11 6.078087 0.000010 0.000000 -0.804790 0.840699 -1.076886
    12 13.446751 -0.000118 -0.000002 0.000000 0.000002 -1.206365
    13 15.997011 -0.000214 0.000034 -0.214829 -0.010961 -0.155366
    14 1.885342 0.833251 -2.177898 -1.101261 0.431034 0.584286
    15 1.506973 0.000002 -0.000006 0.000000 0.000000 -0.307166
    16 0.798355 -0.000006 -0.000001 0.000000 0.000000 -0.280985
    17 3.950314 -0.539917 -2.108883 -0.018073 -0.074626 0.227578
    18 1.545788 -0.000009 -0.000023 0.000008 -0.000001 1.200742
    19 1.667393 0.000006 -0.000015 -0.000002 0.000001 1.165834
    20 3.899471 -0.475413 -1.170902 -0.056821 -0.237759 0.233757
    21 1.528221 -0.000010 -0.000023 0.000008 0.000002 1.061113
    22 1.528214 -0.000004 -0.000011 0.000004 0.000002 1.209468
    23 3.899460 -0.431834 0.168213 -0.072893 -0.302236 0.238121
    24 1.506962 -0.000010 -0.000008 0.000003 -0.000002 1.157108
    25 1.506962 -0.000002 -0.000019 0.000008 0.000002 1.069843
    26 3.915634 -0.278044 1.402588 -0.072041 -0.298855 0.237856
    27 1.333088 -0.000008 -0.000015 0.000006 -0.000002 1.366547
    28 1.159203 -0.000006 -0.000019 0.000008 0.000002 0.947669
  time 16
    0 -13.093750 -12.070313 -24.812500 0.000000 0.000000 -1.570796
    1 0.000000 0.000000 0.000000 -0.008133 -1.570448 -1.562664
    2 4.443615 -0.009641 0.000006 -0.000004 -0.000004 0.000790
    3 12.109375 -0.011360 -0.000421 0.000000 0.000000 0.000000
    4 -0.000511 0.011444 -1.351563 -0.006762 1.370786 3.132536
    5 6.078085 0.000000 0.000004 1.259240 -0.258687 -1.470362
    6 13.446774 0.000347 0.000048 0.000003 0.000009 -0.360962
    7 15.996996 0.000362 0.000198 1.786291 0.000390 -0.003038
    8 -2.696754 7.324316 -1.920834 0.018589 0.011442 1.586441
    9 35.019260 7.487988 -2.080860 1.582240 -0.018573 -3.126170
    10 0.003906 0.011446 1.352395 0.007039 -1.370800 3.132182
    11 6.078087 0.000010 0.000000 -0.831874 0.820383 -1.095941
    12 13.446751 -0.000118 -0.000002 0.000000 0.000002 -1.214224
    13 15.997011 -0.000214 0.000034 -0.208372 -0.007940 -0.155570
    14 1.885342 0.833251 -2.177898 -1.101246 0.431034 0.584286
    15 1.506973 0.000002 -0.000006 0.000000 0.000000 -0.307166
    16 0.798355 -0.000006 -0.000001 0.000000 0.000000 -0.280985
    17 3.950314 -0.539917 -2.108883 -0.018073 -0.074626 0.227578
    18 1.545788 -0.000009 -0.000023 0.000008 -0.000001 1.200742
    19 1.667393 0.000006 -0.000015 -0.000002 0.000001 1.165834
    20 3.899471 -0.475413 -1.170902 -0.056809 -0.237759 0.233757
    21 1.528221 -0.000010 -0.000023 0.000008 0.000002 1.061113
    22 1.528214 -0.000004 -0.000011 0.000004 0.000002 1.209468
    23 3.899460 -0.431834 0.168213 -0.072893 -0.302236 0.238121
    24 1.506962 -0.000010 -0.000008 0.000003 -0.000002 1.157108
    25 1.506962 -0.000002 -0.000019 0.000008 0.000002 1.069843
    26 3.915634 -0.278044 1.402588 -0.072041 -0.298855 0.237856
    27 1.333088 -0.000008 -0.000015 0.000006 -0.000002 1.366547
    28 1.159203 -0.000006 -0.000019 0.000008 0.000002 0.947669
  time 17
    0 -13.093750 -12.070313 -24.812500 0.000000 0.000000 -1.570796
    1 0.000000 0.000000 0.000000 -0.008133 -1.570448 -1.562664
    2 4.443615 -0.009641 0.000006 -0.000004 -0.000004 0.000790
    3 12.109375 -0.011360 -0.000421 0.000000 0.000000 0.000000
    4 -0.000511 0.011444 -1.351563 -0.006762 1.370786 3.132536
    5 6.078085 0.000000 0.000004 1.261230 -0.234163 -1.478463
    6 13.446774 0.000347 0.000048 0.000003 0.000009 -0.369270
    7 15.996996 0.000362 0.000198 1.784661 -0.000005 -0.000006
    8 -2.696754 7.324316 -1.920834 0.018589 0.011442 1.586441
    9 35.019260 7.487988 -2.080860 1.582240 -0.018573 -3.126170
    10 0.003906 0.011446 1.352395 0.007039 -1.370800 3.132182
    11 6.078087 0.000010 0.000000 -0.856659 0.801250 -1.113469
    12 13.446751 -0.000118 -0.000002 0.000000 0.000002 -1.221106
    13 15.997011 -0.000214 0.000034 -0.203811 -0.005519 -0.155175
    14 1.885342 0.833251 -2.177898 -1.101261 0.431034 0.584286
    15 1.506973 0.000002 -0.000006 0.000000 0.000000 -0.307166
    16 0.798355 -0.000006 -0.000001 0.000000 0.000000 -0.280985
    17 3.950314 -0.539917 -2.108883 -0.018073 -0.074638 0.227578
    18 1.545788 -0.000009 -0.000023 0.000008 -0.000001 1.200742
    19 1.667393 0.000006 -0.000015 -0.000002 0.000001 1.165834
    20 3.899471 -0.475413 -1.170902 -0.056809 -0.237759 0.233757
    21 1.528221 -0.000010 -0.000023 0.000008 0.000002 1.061113
    22 1.528214 -0.000004 -0.000011 0.000004 0.000002 1.209468
    23 3.899460 -0.431834 0.168213 -0.072893 -0.302236 0.238121
    24 1.506962 -0.000010 -0.000008 0.000003 -0.000002 1.157108
    25 1.506962 -0.000002 -0.000019 0.000008 0.000002 1.069843
    26 3.915634 -0.278044 1.402588 -0.072041 -0.298855 0.237856
    27 1.333088 -0.000008 -0.000015 0.000006 -0.000002 1.366547
    28 1.159203 -0.000006 -0.000019 0.000008 0.000002 0.947669
  time 18
    0 -13.093750 -12.070313 -24.812500 0.000000 0.000000 -1.570796
    1 0.000000 0.000000 0.000000 -0.008133 -1.570448 -1.562664
    2 4.443615 -0.009641 0.000006 -0.000004 -0.000004 0.000790
    3 12.109375 -0.011360 -0.000421 0.000000 0.000000 0.000000
    4 -0.000511 0.011444 -1.351563 -0.006762 1.370786 3.132536
    5 6.078085 0.000000 0.000004 1.262932 -0.210596 -1.486169
    6 13.446774 0.000347 0.000048 0.000003 0.000009 -0.367288
    7 15.996996 0.000362 0.000198 1.771981 -0.001060 0.008287
    8 -2.696754 7.324316 -1.920834 0.018589 0.011442 1.586441
    9 35.019260 7.487988 -2.080860 1.582240 -0.018573 -3.126170
    10 0.003906 0.011446 1.352395 0.007039 -1.370800 3.132182
    11 6.078087 0.000010 0.000000 -0.873093 0.788670 -1.126797
    12 13.446751 -0.000118 -0.000002 0.000000 0.000002 -1.222848
    13 15.997011 -0.000214 0.000034 -0.211713 -0.008224 -0.152154
    14 1.885342 0.833251 -2.177898 -1.101261 0.431034 0.584286
    15 1.506973 0.000002 -0.000006 0.000000 0.000000 -0.307166
    16 0.798355 -0.000006 -0.000001 0.000000 0.000000 -0.280985
    17 3.950314 -0.539917 -2.108883 -0.018073 -0.074626 0.227578
    18 1.545788 -0.000009 -0.000023 0.000008 -0.000001 1.200742
    19 1.667393 0.000006 -0.000015 -0.000002 0.000001 1.165834
    20 3.899471 -0.475413 -1.170902 -0.056809 -0.237759 0.233757
    21 1.528221 -0.000010 -0.000023 0.000008 0.000002 1.061113
    22 1.528214 -0.000004 -0.000011 0.000004 0.000002 1.209468
    23 3.899460 -0.431834 0.168213 -0.072893 -0.302236 0.238121
    24 1.506962 -0.000010 -0.000008 0.000003 -0.000002 1.157108
    25 1.506962 -0.000002 -0.000019 0.000008 0.000002 1.069843
    26 3.915634 -0.278044 1.402588 -0.072041 -0.298855 0.237856
    27 1.333088 -0.000008 -0.000015 0.000006 -0.000002 1.366547
    28 1.159203 -0.000006 -0.000019 0.000008 0.000002 0.947669
  time 19
    0 -13.093750 -12.070313 -24.812500 0.000000 0.000000 -1.570796
    1 0.000000 0.000000 0.000000 -0.008133 -1.570448 -1.562664
    2 4.443615 -0.009641 0.000006 -0.000004 -0.000004 0.000790
    3 12.109375 -0.011360 -0.000421 0.000000 0.000000 0.000000
    4 -0.000511 0.011444 -1.351563 -0.006762 1.370786 3.132536
    5 6.078085 0.000000 0.000004 1.264346 -0.188637 -1.493288
    6 13.446774 0.000347 0.000048 0.000003 0.000009 -0.350457
    7 15.996996 0.000362 0.000198 1.743985 -0.002702 0.023771
    8 -2.696754 7.324316 -1.920834 0.018589 0.011442 1.586441
    9 35.019260 7.487988 -2.080860 1.582240 -0.018573 -3.126170
    10 0.003906 0.011446 1.352395 0.007039 -1.370800 3.132182
    11 6.078087 0.000010 0.000000 -0.877843 0.785778 -1.134642
    12 13.446751 -0.000118 -0.000002 0.000000 0.000002 -1.218090
    13 15.997011 -0.000214 0.000034 -0.237046 -0.018273 -0.144928
    14 1.885342 0.833251 -2.177898 -1.101261 0.431034 0.584286
    15 1.506973 0.000002 -0.000006 0.000000 0.000000 -0.307166
    16 0.798355 -0.000006 -0.000001 0.000000 0.000000 -0.280985
    17 3.950314 -0.539917 -2.108883 -0.018073 -0.074638 0.227578
    18 1.545788 -0.000009 -0.000023 0.000008 -0.000001 1.200742
    19 1.667393 0.000006 -0.000015 -0.000002 0.000001 1.165834
    20 3.899471 -0.475413 -1.170902 -0.056809 -0.237759 0.233757
    21 1.528221 -0.000010 -0.000023 0.000008 0.000002 1.061113
    22 1.528214 -0.000004 -0.000011 0.000004 0.000002 1.209468
    23 3.899460 -0.431834 0.168213 -0.072893 -0.302236 0.238121
    24 1.506962 -0.000010 -0.000008 0.000003 -0.000002 1.157108
    25 1.506962 -0.000002 -0.000019 0.000008 0.000002 1.069843
    26 3.915634 -0.278044 1.402588 -0.072041 -0.298855 0.237856
    27 1.333088 -0.000008 -0.000015 0.000006 -0.000002 1.366547
    28 1.159203 -0.000006 -0.000019 0.000008 0.000002 0.947669
  time 20
    0 -13.093750 -12.070313 -24.812500 0.000000 0.000000 -1.570796
    1 0.000000 0.000000 0.000000 -0.008133 -1.570448 -1.562664
    2 4.443615 -0.009641 0.000006 -0.000004 -0.000004 0.000790
    3 12.109375 -0.011360 -0.000421 0.000000 0.000000 0.000000
    4 -0.000511 0.011444 -1.351563 -0.006762 1.370786 3.132536
    5 6.078085 0.000000 0.000004 1.265484 -0.168248 -1.499832
    6 13.446774 0.000347 0.000048 0.000003 0.000009 -0.323670
    7 15.996996 0.000362 0.000198 1.707888 -0.004080 0.042587
    8 -2.696754 7.324316 -1.920834 0.018589 0.011442 1.586441
    9 35.019260 7.487988 -2.080860 1.582240 -0.018573 -3.126170
    10 0.003906 0.011446 1.352395 0.007039 -1.370800 3.132182
    11 6.078087 0.000010 0.000000 -0.874932 0.789959 -1.138668
    12 13.446751 -0.000118 -0.000002 0.000000 0.000002 -1.210656
    13 15.997011 -0.000214 0.000034 -0.272042 -0.032128 -0.133986
    14 1.885342 0.833251 -2.177898 -1.101261 0.431034 0.584286
    15 1.506973 0.000002 -0.000006 0.000000 0.000000 -0.307166
    16 0.798355 -0.000006 -0.000001 0.000000 0.000000 -0.280985
    17 3.950314 -0.539917 -2.108883 -0.018073 -0.074626 0.227578
    18 1.545788 -0.000009 -0.000023 0.000008 -0.000001 1.200742
    19 1.667393 0.000006 -0.000015 -0.000002 0.000001 1.165834
    20 3.899471 -0.475413 -1.170902 -0.056809 -0.237759 0.233757
    21 1.528221 -0.000010 -0.000023 0.000008 0.000002 1.061113
    22 1.528214 -0.000004 -0.000011 0.000004 0.000002 1.209468
    23 3.899460 -0.431834 0.168213 -0.072893 -0.302236 0.238121
    24 1.506962 -0.000010 -0.000008 0.000003 -0.000002 1.157108
    25 1.506962 -0.000002 -0.000019 0.000008 0.000002 1.069843
    26 3.915634 -0.278044 1.402588 -0.072041 -0.298855 0.237856
    27 1.333088 -0.000008 -0.000015 0.000006 -0.000002 1.366547
    28 1.159203 -0.000006 -0.000019 0.000008 0.000002 0.947669
  time 21
    0 -13.093750 -12.070313 -24.812500 0.000000 0.000000 -1.570796
    1 0.000000 0.000000 0.000000 -0.008133 -1.570448 -1.562664
    2 4.443615 -0.009641 0.000006 -0.000004 -0.000004 0.000790
    3 12.109375 -0.011360 -0.000421 0.000000 0.000000 0.000000
    4 -0.000511 0.011444 -1.351563 -0.006762 1.370786 3.132536
    5 6.078085 0.000000 0.000004 1.266431 -0.149486 -1.505800
    6 13.446774 0.000347 0.000048 0.000003 0.000009 -0.291822
    7 15.996996 0.000362 0.000198 1.670915 -0.004691 0.060876
    8 -2.696754 7.324316 -1.920834 0.018589 0.011442 1.586441
    9 35.019260 7.487988 -2.080860 1.582240 -0.018573 -3.126170
    10 0.003906 0.011446 1.352395 0.007039 -1.370800 3.132182
    11 6.078087 0.000010 0.000000 -0.868113 0.798010 -1.140264
    12 13.446751 -0.000118 -0.000002 0.000000 0.000002 -1.203901
    13 15.997011 -0.000214 0.000034 -0.308934 -0.046317 -0.120491
    14 1.885342 0.833251 -2.177898 -1.101261 0.431034 0.584286
    15 1.506973 0.000002 -0.000006 0.000000 0.000000 -0.307166
    16 0.798355 -0.000006 -0.000001 0.000000 0.000000 -0.280985
    17 3.950314 -0.539917 -2.108883 -0.018073 -0.074626 0.227578
    18 1.545788 -0.000009 -0.000023 0.000008 -0.000001 1.200742
    19 1.667393 0.000006 -0.000015 -0.000002 0.000001 1.165834
    20 3.899471 -0.475413 -1.170902 -0.056809 -0.237759 0.233757
    21 1.528221 -0.000010 -0.000023 0.000008 0.000002 1.061113
    22 1.528214 -0.000004 -0.000011 0.000004 0.000002 1.209468
    23 3.899460 -0.431834 0.168213 -0.072893 -0.302236 0.238121
    24 1.506962 -0.000010 -0.000008 0.000003 -0.000002 1.157108
    25 1.506962 -0.000002 -0.000019 0.000008 0.000002 1.069843
    26 3.915634 -0.278044 1.402588 -0.072041 -0.298855 0.237856
    27 1.333088 -0.000008 -0.000015 0.000006 -0.000002 1.366547
    28 1.159203 -0.000006 -0.000019 0.000008 0.000002 0.947669
  time 22
    0 -13.093750 -12.070313 -24.812500 0.000000 0.000000 -1.570796
    1 0.000000 0.000000 0.000000 -0.008133 -1.570448 -1.562664
    2 4.443615 -0.009641 0.000006 -0.000004 -0.000004 0.000790
    3 12.109375 -0.011360 -0.000421 0.000000 0.000000 0.000000
    4 -0.000511 0.011444 -1.351563 -0.006762 1.370786 3.132536
    5 6.078085 0.000000 0.000004 1.267198 -0.132390 -1.511217
    6 13.446774 0.000347 0.000048 0.000003 0.000009 -0.259878
    7 15.996996 0.000362 0.000198 1.640294 -0.004607 0.074694
    8 -2.696754 7.324316 -1.920834 0.018589 0.011442 1.586441
    9 35.019260 7.487988 -2.080860 1.582240 -0.018573 -3.126170
    10 0.003906 0.011446 1.352395 0.007039 -1.370800 3.132182
    11 6.078087 0.000010 0.000000 -0.861486 0.806129 -1.140889
    12 13.446751 -0.000118 -0.000002 0.000000 0.000002 -1.199568
    13 15.997011 -0.000214 0.000034 -0.340002 -0.057501 -0.106781
    14 1.885342 0.833251 -2.177898 -1.101261 0.431034 0.584286
    15 1.506973 0.000002 -0.000006 0.000000 0.000000 -0.307166
    16 0.798355 -0.000006 -0.000001 0.000000 0.000000 -0.280985
    17 3.950314 -0.539917 -2.108883 -0.018073 -0.074626 0.227578
    18 1.545788 -0.000009 -0.000023 0.000008 -0.000001 1.200742
    19 1.667393 0.000006 -0.000015 -0.000002 0.000001 1.165834
    20 3.899471 -0.475413 -1.170902 -0.056821 -0.237759 0.233757
    21 1.528221 -0.000010 -0.000023 0.000008 0.000002 1.061113
    22 1.528214 -0.000004 -0.000011 0.000004 0.000002 1.209468
    23 3.899460 -0.431834 0.168213 -0.072893 -0.302236 0.238109
    24 1.506962 -0.000010 -0.000008 0.000003 -0.000002 1.157108
    25 1.506962 -0.000002 -0.000019 0.000008 0.000002 1.069843
    26 3.915634 -0.278044 1.402588 -0.072041 -0.298855 0.237856
    27 1.333088 -0.000008 -0.000015 0.000006 -0.000002 1.366547
    28 1.159203 -0.000006 -0.000019 0.000008 0.000002 0.947669
  time 23
    0 -13.093750 -12.070313 -24.812500 0.000000 0.000000 -1.570796
    1 0.000000 0.000000 0.000000 -0.008133 -1.570448 -1.562664
    2 4.443615 -0.009641 0.000006 -0.000004 -0.000004 0.000790
    3 12.109375 -0.011360 -0.000421 0.000000 0.000000 0.000000
    4 -0.000511 0.011444 -1.351563 -0.006762 1.370786 3.132536
    5 6.078085 0.000000 0.000004 1.267797 -0.116979 -1.516095
    6 13.446774 0.000347 0.000048 0.000003 0.000009 -0.232733
    7 15.996996 0.000362 0.000198 1.623276 -0.004272 0.080159
    8 -2.696754 7.324316 -1.920834 0.018589 0.011442 1.586441
    9 35.019260 7.487988 -2.080860 1.582240 -0.018573 -3.126170
    10 0.003906 0.011446 1.352395 0.007039 -1.370800 3.132182
    11 6.078087 0.000010 0.000000 -0.859149 0.809614 -1.142312
    12 13.446751 -0.000118 -0.000002 0.000000 0.000002 -1.197784
    13 15.997011 -0.000214 0.000034 -0.357522 -0.062543 -0.096294
    14 1.885342 0.833251 -2.177898 -1.101261 0.431034 0.584286
    15 1.506973 0.000002 -0.000006 0.000000 0.000000 -0.307166
    16 0.798355 -0.000006 -0.000001 0.000000 0.000000 -0.280985
    17 3.950314 -0.539917 -2.108883 -0.018073 -0.074626 0.227578
    18 1.545788 -0.000009 -0.000023 0.000008 -0.000001 1.200742
    19 1.667393 0.000006 -0.000015 -0.000002 0.000001 1.165834
    20 3.899471 -0.475413 -1.170902 -0.056809 -0.237759 0.233757
    21 1.528221 -0.000010 -0.000023 0.000008 0.000002 1.061113
    22 1.528214 -0.000004 -0.000011 0.000004 0.000002 1.209468
    23 3.899460 -0.431834 0.168213 -0.072893 -0.302236 0.238121
    24 1.506962 -0.000010 -0.000008 0.000003 -0.000002 1.157108
    25 1.506962 -0.000002 -0.000019 0.000008 0.000002 1.069843
    26 3.915634 -0.278044 1.402588 -0.072041 -0.298855 0.237856
    27 1.333088 -0.000008 -0.000015 0.000006 -0.000002 1.366547
    28 1.159203 -0.000006 -0.000019 0.000008 0.000002 0.947669
  time 24
    0 -13.093750 -12.070313 -24.812500 0.000000 0.000000 -1.570796
    1 0.000000 0.000000 0.000000 -0.008133 -1.570448 -1.562664
    2 4.443615 -0.009641 0.000006 -0.000004 -0.000004 0.000790
    3 12.109375 -0.011360 -0.000421 0.000000 0.000000 0.000000
    4 -0.000511 0.011444 -1.351563 -0.006762 1.370786 3.132536
    5 6.078085 0.000000 0.000004 1.268277 -0.103539 -1.520325
    6 13.446774 0.000347 0.000048 0.000003 0.000009 -0.209575
    7 15.996996 0.000362 0.000198 1.619861 -0.003972 0.077115
    8 -2.696754 7.324316 -1.920834 0.018589 0.011442 1.586441
    9 35.019260 7.487988 -2.080860 1.582240 -0.018573 -3.126170
    10 0.003906 0.011446 1.352395 0.007039 -1.370800 3.132182
    11 6.078087 0.000010 0.000000 -0.860988 0.808360 -1.144395
    12 13.446751 -0.000118 -0.000002 0.000000 0.000002 -1.196977
    13 15.997011 -0.000214 0.000034 -0.361857 -0.061541 -0.089823
    14 1.885342 0.833251 -2.177898 -1.101261 0.431034 0.584286
    15 1.506973 0.000002 -0.000006 0.000000 0.000000 -0.307166
    16 0.798355 -0.000006 -0.000001 0.000000 0.000000 -0.280985
    17 3.950314 -0.539917 -2.108883 -0.018073 -0.074626 0.227578
    18 1.545788 -0.000009 -0.000023 0.000008 -0.000001 1.200742
    19 1.667393 0.000006 -0.000015 -0.000002 0.000001 1.165834
    20 3.899471 -0.475413 -1.170902 -0.056809 -0.237759 0.233757
    21 1.528221 -0.000010 -0.000023 0.000008 0.000002 1.061113
    22 1.528214 -0.000004 -0.000011 0.000004 0.000002 1.209468
    23 3.899460 -0.431834 0.168213 -0.072893 -0.302236 0.238121
    24 1.506962 -0.000010 -0.000008 0.000003 -0.000002 1.157108
    25 1.506962 -0.000002 -0.000019 0.000008 0.000002 1.069843
    26 3.915634 -0.278044 1.402588 -0.072041 -0.298855 0.237856
    27 1.333088 -0.000008 -0.000015 0.000006 -0.000002 1.366547
    28 1.159203 -0.000006 -0.000019 0.000008 0.000002 0.947669
  time 25
    0 -13.093750 -12.070313 -24.812500 0.000000 0.000000 -1.570796
    1 0.000000 0.000000 0.000000 -0.008133 -1.570448 -1.562664
    2 4.443615 -0.009641 0.000006 -0.000004 -0.000004 0.000790
    3 12.109375 -0.011360 -0.000421 0.000000 0.000000 0.000000
    4 -0.000511 0.011444 -1.351563 -0.006762 1.370786 3.132536
    5 6.078085 0.000000 0.000004 1.268612 -0.092014 -1.523933
    6 13.446774 0.000347 0.000048 0.000003 0.000009 -0.186274
    7 15.996996 0.000362 0.000198 1.623792 -0.003672 0.068917
    8 -2.696754 7.324316 -1.920834 0.018589 0.011442 1.586441
    9 35.019260 7.487988 -2.080860 1.582240 -0.018573 -3.126170
    10 0.003906 0.011446 1.352395 0.007039 -1.370800 3.132182
    11 6.078087 0.000010 0.000000 -0.863286 0.805746 -1.145679
    12 13.446751 -0.000118 -0.000002 0.000000 0.000002 -1.196042
    13 15.997011 -0.000214 0.000034 -0.359554 -0.057284 -0.085184
    14 1.885342 0.833251 -2.177898 -1.101261 0.431034 0.584286
    15 1.506973 0.000002 -0.000006 0.000000 0.000000 -0.307166
    16 0.798355 -0.000006 -0.000001 0.000000 0.000000 -0.280985
    17 3.950314 -0.539917 -2.108883 -0.018073 -0.074626 0.227578
    18 1.545788 -0.000009 -0.000023 0.000008 -0.000001 1.200742
    19 1.667393 0.000006 -0.000015 -0.000002 0.000001 1.165834
    20 3.899471 -0.475413 -1.170902 -0.056809 -0.237759 0.233757
    21 1.528221 -0.000010 -0.000023 0.000008 0.000002 1.061113
    22 1.528214 -0.000004 -0.000011 0.000004 0.000002 1.209468
    23 3.899460 -0.431834 0.168213 -0.072893 -0.302236 0.238121
    24 1.506962 -0.000010 -0.000008 0.000003 -0.000002 1.157108
    25 1.506962 -0.000002 -0.000019 0.000008 0.000002 1.069843
    26 3.915634 -0.278044 1.402588 -0.072041 -0.298855 0.237856
    27 1.333088 -0.000008 -0.000015 0.000006 -0.000002 1.366547
    28 1.159203 -0.000006 -0.000019 0.000008 0.000002 0.947669
  time 26
    0 -13.093750 -12.070313 -24.812500 0.000000 0.000000 -1.570796
    1 0.000000 0.000000 0.000000 -0.008133 -1.570448 -1.562664
    2 4.443615 -0.009641 0.000006 -0.000004 -0.000004 0.000790
    3 12.109375 -0.011360 -0.000421 0.000000 0.000000 0.000000
    4 -0.000511 0.011444 -1.351563 -0.006762 1.370786 3.132536
    5 6.078085 0.000000 0.000004 1.268900 -0.081868 -1.527097
    6 13.446774 0.000347 0.000048 0.000003 0.000009 -0.162877
    7 15.996996 0.000362 0.000198 1.633068 -0.003313 0.056993
    8 -2.696754 7.324316 -1.920834 0.018589 0.011442 1.586441
    9 35.019260 7.487988 -2.080860 1.582240 -0.018573 -3.126170
    10 0.003906 0.011446 1.352395 0.007039 -1.370800 3.132182
    11 6.078087 0.000010 0.000000 -0.866159 0.802157 -1.146443
    12 13.446751 -0.000118 -0.000002 0.000000 0.000002 -1.194980
    13 15.997011 -0.000214 0.000034 -0.352465 -0.050557 -0.081961
    14 1.885342 0.833251 -2.177898 -1.101261 0.431034 0.584286
    15 1.506973 0.000002 -0.000006 0.000000 0.000000 -0.307166
    16 0.798355 -0.000006 -0.000001 0.000000 0.000000 -0.280985
    17 3.950314 -0.539917 -2.108883 -0.018073 -0.074638 0.227578
    18 1.545788 -0.000009 -0.000023 0.000008 -0.000001 1.200742
    19 1.667393 0.000006 -0.000015 -0.000002 0.000001 1.165834
    20 3.899471 -0.475413 -1.170902 -0.056809 -0.237759 0.233757
    21 1.528221 -0.000010 -0.000023 0.000008 0.000002 1.061113
    22 1.528214 -0.000004 -0.000011 0.000004 0.000002 1.209468
    23 3.899460 -0.431834 0.168213 -0.072893 -0.302236 0.238121
    24 1.506962 -0.000010 -0.000008 0.000003 -0.000002 1.157108
    25 1.506962 -0.000002 -0.000019 0.000008 0.000002 1.069843
    26 3.915634 -0.278044 1.402588 -0.072041 -0.298855 0.237856
    27 1.333088 -0.000008 -0.000015 0.000006 -0.000002 1.366547
    28 1.159203 -0.000006 -0.000019 0.000008 0.000002 0.947669
  time 27
    0 -13.093750 -12.070313 -24.812500 0.000000 0.000000 -1.570796
    1 0.000000 0.000000 0.000000 -0.008133 -1.570448 -1.562664
    2 4.443615 -0.009641 0.000006 -0.000004 -0.000004 0.000790
    3 12.109375 -0.011360 -0.000421 0.000000 0.000000 0.000000
    4 -0.000511 0.011444 -1.351563 -0.006762 1.370786 3.132536
    5 6.078085 0.000000 0.000004 1.269128 -0.072621 -1.529973
    6 13.446774 0.000347 0.000048 0.000003 0.000009 -0.139432
    7 15.996996 0.000362 0.000198 1.645688 -0.002738 0.042719
    8 -2.696754 7.324316 -1.920834 0.018589 0.011442 1.586441
    9 35.019260 7.487988 -2.080860 1.582240 -0.018573 -3.126170
    10 0.003906 0.011446 1.352395 0.007039 -1.370800 3.132182
    11 6.078087 0.000010 0.000000 -0.869339 0.797940 -1.146963
    12 13.446751 -0.000118 -0.000002 0.000000 0.000002 -1.193748
    13 15.997011 -0.000214 0.000034 -0.342395 -0.042211 -0.079588
    14 1.885342 0.833251 -2.177898 -1.101261 0.431034 0.584286
    15 1.506973 0.000002 -0.000006 0.000000 0.000000 -0.307166
    16 0.798355 -0.000006 -0.000001 0.000000 0.000000 -0.280985
    17 3.950314 -0.539917 -2.108883 -0.018073 -0.074638 0.227578
    18 1.545788 -0.000009 -0.000023 0.000008 -0.000001 1.200742
    19 1.667393 0.000006 -0.000015 -0.000002 0.000001 1.165834
    20 3.899471 -0.475413 -1.170902 -0.056809 -0.237759 0.233757
    21 1.528221 -0.000010 -0.000023 0.000008 0.000002 1.061113
    22 1.528214 -0.000004 -0.000011 0.000004 0.000002 1.209468
    23 3.899460 -0.431834 0.168213 -0.072893 -0.302236 0.238121
    24 1.506962 -0.000010 -0.000008 0.000003 -0.000002 1.157108
    25 1.506962 -0.000002 -0.000019 0.000008 0.000002 1.069843
    26 3.915634 -0.278044 1.402588 -0.072041 -0.298855 0.237856
    27 1.333088 -0.000008 -0.000015 0.000006 -0.000002 1.366547
    28 1.159203 -0.000006 -0.000019 0.000008 0.000002 0.947669
  time 28
    0 -13.093750 -12.070313 -24.812500 0.000000 0.000000 -1.570796
    1 0.000000 0.000000 0.000000 -0.008133 -1.570448 -1.562664
    2 4.443615 -0.009641 0.000006 -0.000004 -0.000004 0.000790
    3 12.109375 -0.011360 -0.000421 0.000000 0.000000 0.000000
    4 -0.000511 0.011444 -1.351563 -0.006762 1.370786 3.132536
    5 6.078085 0.000000 0.000004 1.269307 -0.063700 -1.532765
    6 13.446774 0.000347 0.000048 0.000003 0.000009 -0.115940
    7 15.996996 0.000362 0.000198 1.659626 -0.001959 0.027535
    8 -2.696754 7.324316 -1.920834 0.018589 0.011442 1.586441
    9 35.019260 7.487988 -2.080860 1.582240 -0.018573 -3.126170
    10 0.003906 0.011446 1.352395 0.007039 -1.370800 3.132182
    11 6.078087 0.000010 0.000000 -0.872595 0.793549 -1.147414
    12 13.446751 -0.000118 -0.000002 0.000000 0.000002 -1.192558
    13 15.997011 -0.000214 0.000034 -0.331106 -0.033113 -0.077502
    14 1.885342 0.833251 -2.177898 -1.101261 0.431034 0.584286
    15 1.506973 0.000002 -0.000006 0.000000 0.000000 -0.307166
    16 0.798355 -0.000006 -0.000001 0.000000 0.000000 -0.280985
    17 3.950314 -0.539917 -2.108883 -0.018073 -0.074626 0.227578
    18 1.545788 -0.000009 -0.000023 0.000008 -0.000001 1.200742
    19 1.667393 0.000006 -0.000015 -0.000002 0.000001 1.165834
    20 3.899471 -0.475413 -1.170902 -0.056809 -0.237759 0.233757
    21 1.528221 -0.000010 -0.000023 0.000008 0.000002 1.061113
    22 1.528214 -0.000004 -0.000011 0.000004 0.000002 1.209468
    23 3.899460 -0.431834 0.168213 -0.072893 -0.302236 0.238121
    24 1.506962 -0.000010 -0.000008 0.000003 -0.000002 1.157108
    25 1.506962 -0.000002 -0.000019 0.000008 0.000002 1.069843
    26 3.915634 -0.278044 1.402588 -0.072041 -0.298855 0.237856
    27 1.333088 -0.000008 -0.000015 0.000006 -0.000002 1.366547
    28 1.159203 -0.000006 -0.000019 0.000008 0.000002 0.947669
  time 29
    0 -13.093750 -12.070313 -24.812500 0.000000 0.000000 -1.570796
    1 0.000000 0.000000 0.000000 -0.008133 -1.570448 -1.562664
    2 4.443615 -0.009641 0.000006 -0.000004 -0.000004 0.000790
    3 12.109375 -0.011360 -0.000421 0.000000 0.000000 0.000000
    4 -0.000511 0.011444 -1.351563 -0.006762 1.370786 3.132536
    5 6.078085 0.000000 0.000004 1.269475 -0.054606 -1.535606
    6 13.446774 0.000347 0.000048 0.000003 0.000009 -0.092496
    7 15.996996 0.000362 0.000198 1.672893 -0.000988 0.012818
    8 -2.696754 7.324316 -1.920834 0.018589 0.011442 1.586441
    9 35.019260 7.487988 -2.080860 1.582240 -0.018573 -3.126170
    10 0.003906 0.011446 1.352395 0.007039 -1.370800 3.132182
    11 6.078087 0.000010 0.000000 -0.875813 0.789297 -1.147866
    12 13.446751 -0.000118 -0.000002 0.000000 0.000002 -1.191624
    13 15.997011 -0.000214 0.000034 -0.320449 -0.024182 -0.075165
    14 1.885342 0.833251 -2.177898 -1.101261 0.431034 0.584286
    15 1.506973 0.000002 -0.000006 0.000000 0.000000 -0.307166
    16 0.798355 -0.000006 -0.000001 0.000000 0.000000 -0.280985
    17 3.950314 -0.539917 -2.108883 -0.018073 -0.074626 0.227578
    18 1.545788 -0.000009 -0.000023 0.000008 -0.000001 1.200742
    19 1.667393 0.000006 -0.000015 -0.000002 0.000001 1.165834
    20 3.899471 -0.475413 -1.170902 -0.056809 -0.237759 0.233757
    21 1.528221 -0.000010 -0.000023 0.000008 0.000002 1.061113
    22 1.528214 -0.000004 -0.000011 0.000004 0.000002 1.209468
    23 3.899460 -0.431834 0.168213 -0.072893 -0.302236 0.238121
    24 1.506962 -0.000010 -0.000008 0.000003 -0.000002 1.157108
    25 1.506962 -0.000002 -0.000019 0.000008 0.000002 1.069843
    26 3.915634 -0.278044 1.402588 -0.072041 -0.298855 0.237856
    27 1.333088 -0.000008 -0.000015 0.000006 -0.000002 1.366547
    28 1.159203 -0.000006 -0.000019 0.000008 0.000002 0.947669
  time 30
    0 -13.093750 -12.070313 -24.812500 0.000000 0.000000 -1.570796
    1 0.000000 0.000000 0.000000 -0.008133 -1.570448 -1.562664
    2 4.443615 -0.009641 0.000006 -0.000004 -0.000004 0.000790
    3 12.109375 -0.011360 -0.000421 0.000000 0.000000 0.000000
    4 -0.000511 0.011444 -1.351563 -0.006762 1.370786 3.132536
    5 6.078085 0.000000 0.000004 1.269619 -0.044823 -1.538626
    6 13.446774 0.000347 0.000048 0.000003 0.000009 -0.069099
    7 15.996996 0.000362 0.000198 1.683439 -0.000005 -0.000006
    8 -2.696754 7.324316 -1.920834 0.018589 0.011442 1.586441
    9 35.019260 7.487988 -2.080860 1.582240 -0.018573 -3.126170
    10 0.003906 0.011446 1.352395 0.007039 -1.370800 3.132182
    11 6.078087 0.000010 0.000000 -0.878571 0.785812 -1.148352
    12 13.446751 -0.000118 -0.000002 0.000000 0.000002 -1.191157
    13 15.997011 -0.000214 0.000034 -0.312186 -0.016437 -0.072001
    14 1.885342 0.833251 -2.177898 -1.101261 0.431034 0.584286
    15 1.506973 0.000002 -0.000006 0.000000 0.000000 -0.307166
    16 0.798355 -0.000006 -0.000001 0.000000 0.000000 -0.280985
    17 3.950314 -0.539917 -2.108883 -0.018073 -0.074626 0.227578
    18 1.545788 -0.000009 -0.000023 0.000008 -0.000001 1.200742
    19 1.667393 0.000006 -0.000015 -0.000002 0.000001 1.165834
    20 3.899471 -0.475413 -1.170902 -0.056809 -0.237759 0.233757
    21 1.528221 -0.000010 -0.000023 0.000008 0.000002 1.061113
    22 1.528214 -0.000004 -0.000011 0.000004 0.000002 1.209468
    23 3.899460 -0.431834 0.168213 -0.072893 -0.302236 0.238121
    24 1.506962 -0.000010 -0.000008 0.000003 -0.000002 1.157108
    25 1.506962 -0.000002 -0.000019 0.000008 0.000002 1.069843
    26 3.915634 -0.278044 1.402588 -0.072041 -0.298855 0.237856
    27 1.333088 -0.000008 -0.000015 0.000006 -0.000002 1.366547
    28 1.159203 -0.000006 -0.000019 0.000008 0.000002 0.947669
end
