// Created by Crowbar 0.74
version 1
nodes
  0 "Bip01" -1
  1 "Bip01 Pelvis" 0
  2 "Bip01 Spine" 1
  3 "Bip01 Neck" 2
  4 "Bip01 R Clavicle" 3
  5 "Bip01 R UpperArm" 4
  6 "Bip01 R Forearm" 5
  7 "Bip01 R Hand" 6
  8 "Dummy14" 7
  9 "muzzle" 7
  10 "Bip01 L Clavicle" 3
  11 "Bip01 L UpperArm" 10
  12 "Bip01 L Forearm" 11
  13 "Bip01 L Hand" 12
  14 "Bip01 L Finger0" 13
  15 "Bip01 L Finger01" 14
  16 "Bip01 L Finger02" 15
  17 "Bip01 L Finger1" 13
  18 "Bip01 L Finger11" 17
  19 "Bip01 L Finger12" 18
  20 "Bip01 L Finger2" 13
  21 "Bip01 L Finger21" 20
  22 "Bip01 L Finger22" 21
  23 "Bip01 L Finger3" 13
  24 "Bip01 L Finger31" 23
  25 "Bip01 L Finger32" 24
  26 "Bip01 L Finger4" 13
  27 "Bip01 L Finger41" 26
  28 "Bip01 L Finger42" 27
end
skeleton
  time 0
    0 -13.093750 -12.070313 -24.812500 0.000000 0.000000 -1.570796
    1 0.000000 0.000000 0.000000 -0.008133 -1.570448 -1.562664
    2 4.443615 -0.009641 0.000006 -0.000004 -0.000004 0.000790
    3 12.109375 -0.011360 -0.000421 0.000000 0.000000 0.000000
    4 -0.000511 0.011444 -1.351563 -0.006762 1.370786 3.132536
    5 6.078085 0.000000 0.000004 1.269619 -0.044823 -1.538626
    6 13.446774 0.000347 0.000048 0.000003 0.000009 -0.069099
    7 15.996996 0.000362 0.000198 1.683439 -0.000005 -0.000006
    8 -2.696754 7.324316 -1.920834 0.018589 0.011442 1.586441
    9 35.019260 7.487988 -2.080860 1.582240 -0.018573 -3.126170
    10 0.003906 0.011446 1.352395 0.007039 -1.370800 3.132182
    11 6.078087 0.000010 0.000000 -0.184202 0.430946 -0.896852
    12 13.446751 -0.000118 -0.000002 0.000000 0.000002 -1.191199
    13 15.997011 -0.000214 0.000034 -0.901970 -0.381913 0.050062
    14 1.885342 0.833251 -2.177898 -1.101261 0.431034 0.584286
    15 1.506973 0.000002 -0.000006 0.000000 0.000000 -0.307166
    16 0.798355 -0.000006 -0.000001 0.000000 0.000000 -0.280985
    17 3.950314 -0.539917 -2.108883 -0.018073 -0.074626 0.227578
    18 1.545788 -0.000009 -0.000023 0.000008 -0.000001 1.200742
    19 1.667393 0.000006 -0.000015 -0.000002 0.000001 1.165834
    20 3.899471 -0.475413 -1.170902 -0.056821 -0.237759 0.233757
    21 1.528221 -0.000010 -0.000023 0.000008 0.000002 1.061113
    22 1.528214 -0.000004 -0.000011 0.000004 0.000002 1.209468
    23 3.899460 -0.431834 0.168213 -0.072893 -0.302236 0.238121
    24 1.506962 -0.000010 -0.000008 0.000003 -0.000002 1.157108
    25 1.506962 -0.000002 -0.000019 0.000008 0.000002 1.069842
    26 3.915634 -0.278044 1.402588 -0.072041 -0.298857 0.237854
    27 1.333088 -0.000008 -0.000015 0.000006 -0.000002 1.366547
    28 1.159203 -0.000006 -0.000019 0.000008 0.000002 0.947669
  time 1
    0 -13.093750 -12.070313 -24.812500 0.000000 0.000000 -1.570796
    1 0.000000 0.000000 0.000000 -0.008133 -1.570448 -1.562664
    2 4.443615 -0.009641 0.000006 -0.000004 -0.000004 0.000790
    3 12.109375 -0.011360 -0.000421 0.000000 0.000000 0.000000
    4 -0.000511 0.011444 -1.351563 -0.006762 1.370786 3.132536
    5 6.078085 0.000000 0.000004 1.266839 -0.142001 -1.507838
    6 13.446774 0.000347 0.000048 0.000003 0.000009 -0.255342
    7 15.996996 0.000362 0.000198 1.683631 -0.007687 0.068043
    8 -2.696754 7.324316 -1.920834 0.018589 0.011442 1.586441
    9 35.019260 7.487988 -2.080860 1.582240 -0.018573 -3.126170
    10 0.003906 0.011446 1.352395 0.007039 -1.370800 3.132182
    11 6.078087 0.000010 0.000000 -0.172250 0.439623 -0.878977
    12 13.446751 -0.000118 -0.000002 0.000000 0.000002 -1.219492
    13 15.997011 -0.000214 0.000034 -0.890906 -0.404716 0.054903
    14 1.885342 0.833251 -2.177898 -1.101261 0.431034 0.584286
    15 1.506973 0.000002 -0.000006 0.000000 0.000000 -0.307166
    16 0.798355 -0.000006 -0.000001 0.000000 0.000000 -0.280985
    17 3.950314 -0.539917 -2.108883 -0.018073 -0.074626 0.227578
    18 1.545788 -0.000009 -0.000023 0.000008 -0.000001 1.200742
    19 1.667393 0.000006 -0.000015 -0.000002 0.000001 1.165834
    20 3.899471 -0.475413 -1.170902 -0.056821 -0.237759 0.233757
    21 1.528221 -0.000010 -0.000023 0.000008 0.000002 1.061113
    22 1.528214 -0.000004 -0.000011 0.000004 0.000002 1.209468
    23 3.899460 -0.431834 0.168213 -0.072893 -0.302236 0.238121
    24 1.506962 -0.000010 -0.000008 0.000003 -0.000002 1.157108
    25 1.506962 -0.000002 -0.000019 0.000008 0.000002 1.069842
    26 3.915634 -0.278044 1.402588 -0.072041 -0.298857 0.237854
    27 1.333088 -0.000008 -0.000015 0.000006 -0.000002 1.366547
    28 1.159203 -0.000006 -0.000019 0.000008 0.000002 0.947669
  time 2
    0 -13.093750 -12.070313 -24.812500 0.000000 0.000000 -1.570796
    1 0.000000 0.000000 0.000000 -0.008133 -1.570448 -1.562664
    2 4.443615 -0.009641 0.000006 -0.000004 -0.000004 0.000790
    3 12.109375 -0.011360 -0.000421 0.000000 0.000000 0.000000
    4 -0.000511 0.011444 -1.351563 -0.006762 1.370786 3.132536
    5 6.078085 0.000000 0.000004 1.260439 -0.244999 -1.474161
    6 13.446774 0.000347 0.000048 0.000003 0.000009 -0.453116
    7 15.996996 0.000362 0.000198 1.683535 -0.015897 0.140417
    8 -2.696754 7.324316 -1.920834 0.018589 0.011442 1.586441
    9 35.019260 7.487988 -2.080860 1.582240 -0.018573 -3.126170
    10 0.003906 0.011446 1.352395 0.007039 -1.370800 3.132182
    11 6.078087 0.000010 0.000000 -0.148997 0.453284 -0.839964
    12 13.446751 -0.000118 -0.000002 0.000000 0.000002 -1.279603
    13 15.997011 -0.000214 0.000034 -0.878037 -0.431124 0.070951
    14 1.885342 0.833251 -2.177898 -1.101261 0.431034 0.584286
    15 1.506973 0.000002 -0.000006 0.000000 0.000000 -0.307166
    16 0.798355 -0.000006 -0.000001 0.000000 0.000000 -0.280985
    17 3.950314 -0.539917 -2.108883 -0.018073 -0.074638 0.227578
    18 1.545788 -0.000009 -0.000023 0.000008 -0.000001 1.200742
    19 1.667393 0.000006 -0.000015 -0.000002 0.000001 1.165834
    20 3.899471 -0.475413 -1.170902 -0.056821 -0.237759 0.233757
    21 1.528221 -0.000010 -0.000023 0.000008 0.000002 1.061113
    22 1.528214 -0.000004 -0.000011 0.000004 0.000002 1.209468
    23 3.899460 -0.431834 0.168213 -0.072893 -0.302236 0.238121
    24 1.506962 -0.000010 -0.000008 0.000003 -0.000002 1.157108
    25 1.506962 -0.000002 -0.000019 0.000008 0.000002 1.069842
    26 3.915634 -0.278044 1.402588 -0.072041 -0.298857 0.237854
    27 1.333088 -0.000008 -0.000015 0.000006 -0.000002 1.366547
    28 1.159203 -0.000006 -0.000019 0.000008 0.000002 0.947669
  time 3
    0 -13.093750 -12.070313 -24.812500 0.000000 0.000000 -1.570796
    1 0.000000 0.000000 0.000000 -0.008133 -1.570448 -1.562664
    2 4.443615 -0.009641 0.000006 -0.000004 -0.000004 0.000790
    3 12.109375 -0.011360 -0.000421 0.000000 0.000000 0.000000
    4 -0.000511 0.011444 -1.351563 -0.006762 1.370786 3.132536
    5 6.078085 0.000000 0.000004 1.251546 -0.335802 -1.442953
    6 13.446774 0.000347 0.000048 0.000003 0.000009 -0.627828
    7 15.996996 0.000362 0.000198 1.682468 -0.023075 0.204152
    8 -2.696754 7.324316 -1.920834 0.018589 0.011442 1.586441
    9 35.019260 7.487988 -2.080860 1.582240 -0.018573 -3.126170
    10 0.003906 0.011446 1.352395 0.007039 -1.370800 3.132182
    11 6.078087 0.000010 0.000000 -0.118925 0.468374 -0.789845
    12 13.446751 -0.000118 -0.000002 0.000000 0.000002 -1.354498
    13 15.997011 -0.000214 0.000034 -0.865754 -0.457332 0.091912
    14 1.885342 0.833251 -2.177898 -1.101246 0.431034 0.584286
    15 1.506973 0.000002 -0.000006 0.000000 0.000000 -0.307166
    16 0.798355 -0.000006 -0.000001 0.000000 0.000000 -0.280985
    17 3.950314 -0.539917 -2.108883 -0.018073 -0.074626 0.227578
    18 1.545788 -0.000009 -0.000023 0.000008 -0.000001 1.200742
    19 1.667393 0.000006 -0.000015 -0.000002 0.000001 1.165834
    20 3.899471 -0.475413 -1.170902 -0.056809 -0.237759 0.233757
    21 1.528221 -0.000010 -0.000023 0.000008 0.000002 1.061113
    22 1.528214 -0.000004 -0.000011 0.000004 0.000002 1.209468
    23 3.899460 -0.431834 0.168213 -0.072893 -0.302236 0.238121
    24 1.506962 -0.000010 -0.000008 0.000003 -0.000002 1.157108
    25 1.506962 -0.000002 -0.000019 0.000008 0.000002 1.069842
    26 3.915634 -0.278044 1.402588 -0.072041 -0.298857 0.237854
    27 1.333088 -0.000008 -0.000015 0.000006 -0.000002 1.366547
    28 1.159203 -0.000006 -0.000019 0.000008 0.000002 0.947669
  time 4
    0 -13.093750 -12.070313 -24.812500 0.000000 0.000000 -1.570796
    1 0.000000 0.000000 0.000000 -0.008133 -1.570448 -1.562664
    2 4.443615 -0.009641 0.000006 -0.000004 -0.000004 0.000790
    3 12.109375 -0.011360 -0.000421 0.000000 0.000000 0.000000
    4 -0.000511 0.011444 -1.351563 -0.006762 1.370786 3.132536
    5 6.078085 0.000000 0.000004 1.243708 -0.396547 -1.420925
    6 13.446774 0.000347 0.000048 0.000003 0.000009 -0.744835
    7 15.996996 0.000362 0.000198 1.680023 -0.027749 0.246289
    8 -2.696754 7.324316 -1.920834 0.018589 0.011442 1.586441
    9 35.019260 7.487988 -2.080860 1.582240 -0.018573 -3.126170
    10 0.003906 0.011446 1.352395 0.007039 -1.370800 3.132182
    11 6.078087 0.000010 0.000000 -0.093144 0.479909 -0.749027
    12 13.446751 -0.000118 -0.000002 0.000000 0.000002 -1.413292
    13 15.997011 -0.000214 0.000034 -0.857355 -0.477881 0.107204
    14 1.885342 0.833251 -2.177898 -1.101261 0.431034 0.584286
    15 1.506973 0.000002 -0.000006 0.000000 0.000000 -0.307166
    16 0.798355 -0.000006 -0.000001 0.000000 0.000000 -0.280985
    17 3.950314 -0.539917 -2.108883 -0.018073 -0.074626 0.227578
    18 1.545788 -0.000009 -0.000023 0.000008 -0.000001 1.200742
    19 1.667393 0.000006 -0.000015 -0.000002 0.000001 1.165834
    20 3.899471 -0.475413 -1.170902 -0.056809 -0.237759 0.233757
    21 1.528221 -0.000010 -0.000023 0.000008 0.000002 1.061113
    22 1.528214 -0.000004 -0.000011 0.000004 0.000002 1.209468
    23 3.899460 -0.431834 0.168213 -0.072893 -0.302236 0.238121
    24 1.506962 -0.000010 -0.000008 0.000003 -0.000002 1.157108
    25 1.506962 -0.000002 -0.000019 0.000008 0.000002 1.069842
    26 3.915634 -0.278044 1.402588 -0.072041 -0.298857 0.237854
    27 1.333088 -0.000008 -0.000015 0.000006 -0.000002 1.366547
    28 1.159203 -0.000006 -0.000019 0.000008 0.000002 0.947669
  time 5
    0 -13.093750 -12.070313 -24.812500 0.000000 0.000000 -1.570796
    1 0.000000 0.000000 0.000000 -0.008133 -1.570448 -1.562664
    2 4.443615 -0.009641 0.000006 -0.000004 -0.000004 0.000790
    3 12.109375 -0.011360 -0.000421 0.000000 0.000000 0.000000
    4 -0.000511 0.011444 -1.351563 -0.006762 1.370786 3.132536
    5 6.078085 0.000000 0.000004 1.239130 -0.427007 -1.409456
    6 13.446774 0.000347 0.000048 0.000003 0.000009 -0.803327
    7 15.996996 0.000362 0.000198 1.676045 -0.029775 0.266879
    8 -2.696754 7.324316 -1.920834 0.018589 0.011442 1.586441
    9 35.019260 7.487988 -2.080860 1.582240 -0.018573 -3.126170
    10 0.003906 0.011446 1.352395 0.007039 -1.370800 3.132182
    11 6.078087 0.000010 0.000000 -0.077744 0.486913 -0.727265
    12 13.446751 -0.000118 -0.000002 0.000000 0.000002 -1.443029
    13 15.997011 -0.000214 0.000034 -0.854240 -0.491102 0.113256
    14 1.885342 0.833251 -2.177898 -1.101246 0.431034 0.584286
    15 1.506973 0.000002 -0.000006 0.000000 0.000000 -0.307166
    16 0.798355 -0.000006 -0.000001 0.000000 0.000000 -0.280985
    17 3.950314 -0.539917 -2.108883 -0.018073 -0.074626 0.227578
    18 1.545788 -0.000009 -0.000023 0.000008 -0.000001 1.200742
    19 1.667393 0.000006 -0.000015 -0.000002 0.000001 1.165834
    20 3.899471 -0.475413 -1.170902 -0.056809 -0.237759 0.233757
    21 1.528221 -0.000010 -0.000023 0.000008 0.000002 1.061113
    22 1.528214 -0.000004 -0.000011 0.000004 0.000002 1.209468
    23 3.899460 -0.431834 0.168213 -0.072893 -0.302236 0.238121
    24 1.506962 -0.000010 -0.000008 0.000003 -0.000002 1.157108
    25 1.506962 -0.000002 -0.000019 0.000008 0.000002 1.069842
    26 3.915634 -0.278044 1.402588 -0.072041 -0.298857 0.237854
    27 1.333088 -0.000008 -0.000015 0.000006 -0.000002 1.366547
    28 1.159203 -0.000006 -0.000019 0.000008 0.000002 0.947669
  time 6
    0 -13.093750 -12.070313 -24.812500 0.000000 0.000000 -1.570796
    1 0.000000 0.000000 0.000000 -0.008133 -1.570448 -1.562664
    2 4.443615 -0.009641 0.000006 -0.000004 -0.000004 0.000790
    3 12.109375 -0.011360 -0.000421 0.000000 0.000000 0.000000
    4 -0.000511 0.011444 -1.351563 -0.006762 1.370786 3.132536
    5 6.078085 0.000000 0.000004 1.236721 -0.441958 -1.403715
    6 13.446774 0.000347 0.000048 0.000003 0.000009 -0.831809
    7 15.996996 0.000362 0.000198 1.671011 -0.030338 0.276682
    8 -2.696754 7.324316 -1.920834 0.018589 0.011442 1.586441
    9 35.019260 7.487988 -2.080860 1.582240 -0.018573 -3.126170
    10 0.003906 0.011446 1.352395 0.007039 -1.370800 3.132182
    11 6.078087 0.000010 0.000000 -0.068972 0.491688 -0.717130
    12 13.446751 -0.000118 -0.000002 0.000000 0.000002 -1.455731
    13 15.997011 -0.000214 0.000034 -0.854465 -0.500166 0.114107
    14 1.885342 0.833251 -2.177898 -1.101261 0.431034 0.584286
    15 1.506973 0.000002 -0.000006 0.000000 0.000000 -0.307166
    16 0.798355 -0.000006 -0.000001 0.000000 0.000000 -0.280985
    17 3.950314 -0.539917 -2.108883 -0.018073 -0.074626 0.227578
    18 1.545788 -0.000009 -0.000023 0.000008 -0.000001 1.200742
    19 1.667393 0.000006 -0.000015 -0.000002 0.000001 1.165834
    20 3.899471 -0.475413 -1.170902 -0.056809 -0.237759 0.233757
    21 1.528221 -0.000010 -0.000023 0.000008 0.000002 1.061113
    22 1.528214 -0.000004 -0.000011 0.000004 0.000002 1.209468
    23 3.899460 -0.431834 0.168213 -0.072893 -0.302236 0.238121
    24 1.506962 -0.000010 -0.000008 0.000003 -0.000002 1.157108
    25 1.506962 -0.000002 -0.000019 0.000008 0.000002 1.069842
    26 3.915634 -0.278044 1.402588 -0.072041 -0.298857 0.237854
    27 1.333088 -0.000008 -0.000015 0.000006 -0.000002 1.366547
    28 1.159203 -0.000006 -0.000019 0.000008 0.000002 0.947669
  time 7
    0 -13.093750 -12.070313 -24.812500 0.000000 0.000000 -1.570796
    1 0.000000 0.000000 0.000000 -0.008133 -1.570448 -1.562664
    2 4.443615 -0.009641 0.000006 -0.000004 -0.000004 0.000790
    3 12.109375 -0.011360 -0.000421 0.000000 0.000000 0.000000
    4 -0.000511 0.011444 -1.351563 -0.006762 1.370786 3.132536
    5 6.078085 0.000000 0.000004 1.235990 -0.446362 -1.402038
    6 13.446774 0.000347 0.000048 0.000003 0.000009 -0.839855
    7 15.996996 0.000362 0.000198 1.665666 -0.030038 0.278816
    8 -2.696754 7.324316 -1.920834 0.018589 0.011442 1.586441
    9 35.019260 7.487988 -2.080860 1.582240 -0.018573 -3.126170
    10 0.003906 0.011446 1.352395 0.007039 -1.370800 3.132182
    11 6.078087 0.000010 0.000000 -0.065179 0.494720 -0.715533
    12 13.446751 -0.000118 -0.000002 0.000000 0.000002 -1.456071
    13 15.997011 -0.000214 0.000034 -0.856633 -0.506343 0.111291
    14 1.885342 0.833251 -2.177898 -1.101246 0.431034 0.584286
    15 1.506973 0.000002 -0.000006 0.000000 0.000000 -0.307166
    16 0.798355 -0.000006 -0.000001 0.000000 0.000000 -0.280985
    17 3.950314 -0.539917 -2.108883 -0.018073 -0.074626 0.227578
    18 1.545788 -0.000009 -0.000023 0.000008 -0.000001 1.200742
    19 1.667393 0.000006 -0.000015 -0.000002 0.000001 1.165834
    20 3.899471 -0.475413 -1.170902 -0.056809 -0.237759 0.233757
    21 1.528221 -0.000010 -0.000023 0.000008 0.000002 1.061113
    22 1.528214 -0.000004 -0.000011 0.000004 0.000002 1.209468
    23 3.899460 -0.431834 0.168213 -0.072893 -0.302236 0.238121
    24 1.506962 -0.000010 -0.000008 0.000003 -0.000002 1.157108
    25 1.506962 -0.000002 -0.000019 0.000008 0.000002 1.069842
    26 3.915634 -0.278044 1.402588 -0.072041 -0.298857 0.237854
    27 1.333088 -0.000008 -0.000015 0.000006 -0.000002 1.366547
    28 1.159203 -0.000006 -0.000019 0.000008 0.000002 0.947669
  time 8
    0 -13.093750 -12.070313 -24.812500 0.000000 0.000000 -1.570796
    1 0.000000 0.000000 0.000000 -0.008133 -1.570448 -1.562664
    2 4.443615 -0.009641 0.000006 -0.000004 -0.000004 0.000790
    3 12.109375 -0.011360 -0.000421 0.000000 0.000000 0.000000
    4 -0.000511 0.011444 -1.351563 -0.006762 1.370786 3.132536
    5 6.078085 0.000000 0.000004 1.236218 -0.445098 -1.402565
    6 13.446774 0.000347 0.000048 0.000003 0.000009 -0.836799
    7 15.996996 0.000362 0.000198 1.660716 -0.029463 0.276311
    8 -2.696754 7.324316 -1.920834 0.018601 0.011442 1.586441
    9 35.019260 7.487988 -2.080860 1.582240 -0.018573 -3.126170
    10 0.003906 0.011446 1.352395 0.007039 -1.370800 3.132182
    11 6.078087 0.000010 0.000000 -0.064413 0.496776 -0.718588
    12 13.446751 -0.000118 -0.000002 0.000000 0.000002 -1.449911
    13 15.997011 -0.000214 0.000034 -0.859207 -0.510967 0.106425
    14 1.885342 0.833251 -2.177898 -1.101261 0.431034 0.584286
    15 1.506973 0.000002 -0.000006 0.000000 0.000000 -0.307166
    16 0.798355 -0.000006 -0.000001 0.000000 0.000000 -0.280985
    17 3.950314 -0.539917 -2.108883 -0.018073 -0.074638 0.227578
    18 1.545788 -0.000009 -0.000023 0.000008 -0.000001 1.200742
    19 1.667393 0.000006 -0.000015 -0.000002 0.000001 1.165834
    20 3.899471 -0.475413 -1.170902 -0.056809 -0.237759 0.233757
    21 1.528221 -0.000010 -0.000023 0.000008 0.000002 1.061113
    22 1.528214 -0.000004 -0.000011 0.000004 0.000002 1.209468
    23 3.899460 -0.431834 0.168213 -0.072893 -0.302236 0.238121
    24 1.506962 -0.000010 -0.000008 0.000003 -0.000002 1.157108
    25 1.506962 -0.000002 -0.000019 0.000008 0.000002 1.069842
    26 3.915634 -0.278044 1.402588 -0.072041 -0.298857 0.237854
    27 1.333088 -0.000008 -0.000015 0.000006 -0.000002 1.366547
    28 1.159203 -0.000006 -0.000019 0.000008 0.000002 0.947669
  time 9
    0 -13.093750 -12.070313 -24.812500 0.000000 0.000000 -1.570796
    1 0.000000 0.000000 0.000000 -0.008133 -1.570448 -1.562664
    2 4.443615 -0.009641 0.000006 -0.000004 -0.000004 0.000790
    3 12.109375 -0.011360 -0.000421 0.000000 0.000000 0.000000
    4 -0.000511 0.011444 -1.351563 -0.006762 1.370786 3.132536
    5 6.078085 0.000000 0.000004 1.236554 -0.443050 -1.403392
    6 13.446774 0.000347 0.000048 0.000003 0.000009 -0.832167
    7 15.996996 0.000362 0.000198 1.656893 -0.029140 0.272272
    8 -2.696754 7.324316 -1.920834 0.018589 0.011442 1.586441
    9 35.019260 7.487988 -2.080860 1.582240 -0.018573 -3.126170
    10 0.003906 0.011446 1.352395 0.007039 -1.370800 3.132182
    11 6.078087 0.000010 0.000000 -0.064298 0.498413 -0.722093
    12 13.446751 -0.000118 -0.000002 0.000000 0.000002 -1.443284
    13 15.997011 -0.000214 0.000034 -0.860561 -0.515541 0.101128
    14 1.885342 0.833251 -2.177898 -1.101261 0.431034 0.584286
    15 1.506973 0.000002 -0.000006 0.000000 0.000000 -0.307166
    16 0.798355 -0.000006 -0.000001 0.000000 0.000000 -0.280985
    17 3.950314 -0.539917 -2.108883 -0.018073 -0.074626 0.227578
    18 1.545788 -0.000009 -0.000023 0.000008 -0.000001 1.200742
    19 1.667393 0.000006 -0.000015 -0.000002 0.000001 1.165834
    20 3.899471 -0.475413 -1.170902 -0.056809 -0.237759 0.233757
    21 1.528221 -0.000010 -0.000023 0.000008 0.000002 1.061113
    22 1.528214 -0.000004 -0.000011 0.000004 0.000002 1.209468
    23 3.899460 -0.431834 0.168213 -0.072893 -0.302236 0.238121
    24 1.506962 -0.000010 -0.000008 0.000003 -0.000002 1.157108
    25 1.506962 -0.000002 -0.000019 0.000008 0.000002 1.069842
    26 3.915634 -0.278044 1.402588 -0.072041 -0.298857 0.237854
    27 1.333088 -0.000008 -0.000015 0.000006 -0.000002 1.366547
    28 1.159203 -0.000006 -0.000019 0.000008 0.000002 0.947669
  time 10
    0 -13.093750 -12.070313 -24.812500 0.000000 0.000000 -1.570796
    1 0.000000 0.000000 0.000000 -0.008133 -1.570448 -1.562664
    2 4.443615 -0.009641 0.000006 -0.000004 -0.000004 0.000790
    3 12.109375 -0.011360 -0.000421 0.000000 0.000000 0.000000
    4 -0.000511 0.011444 -1.351563 -0.006762 1.370786 3.132536
    5 6.078085 0.000000 0.000004 1.236218 -0.445079 -1.402625
    6 13.446774 0.000347 0.000048 0.000003 0.000009 -0.835557
    7 15.996996 0.000362 0.000198 1.654928 -0.029571 0.269767
    8 -2.696754 7.324316 -1.920834 0.018601 0.011442 1.586441
    9 35.019260 7.487988 -2.080860 1.582240 -0.018573 -3.126170
    10 0.003906 0.011446 1.352395 0.007039 -1.370800 3.132182
    11 6.078087 0.000010 0.000000 -0.062536 0.500226 -0.721989
    12 13.446751 -0.000118 -0.000002 0.000000 0.000002 -1.442137
    13 15.997011 -0.000214 0.000034 -0.859071 -0.521383 0.096837
    14 1.885342 0.833251 -2.177898 -1.101246 0.431034 0.584286
    15 1.506973 0.000002 -0.000006 0.000000 0.000000 -0.307166
    16 0.798355 -0.000006 -0.000001 0.000000 0.000000 -0.280985
    17 3.950314 -0.539917 -2.108883 -0.018073 -0.074638 0.227578
    18 1.545788 -0.000009 -0.000023 0.000008 -0.000001 1.200742
    19 1.667393 0.000006 -0.000015 -0.000002 0.000001 1.165834
    20 3.899471 -0.475413 -1.170902 -0.056809 -0.237759 0.233757
    21 1.528221 -0.000010 -0.000023 0.000008 0.000002 1.061113
    22 1.528214 -0.000004 -0.000011 0.000004 0.000002 1.209468
    23 3.899460 -0.431834 0.168213 -0.072893 -0.302236 0.238121
    24 1.506962 -0.000010 -0.000008 0.000003 -0.000002 1.157108
    25 1.506962 -0.000002 -0.000019 0.000008 0.000002 1.069842
    26 3.915634 -0.278044 1.402588 -0.072041 -0.298857 0.237854
    27 1.333088 -0.000008 -0.000015 0.000006 -0.000002 1.366547
    28 1.159203 -0.000006 -0.000019 0.000008 0.000002 0.947669
  time 11
    0 -13.093750 -12.070313 -24.812500 0.000000 0.000000 -1.570796
    1 0.000000 0.000000 0.000000 -0.008133 -1.570448 -1.562664
    2 4.443615 -0.009641 0.000006 -0.000004 -0.000004 0.000790
    3 12.109375 -0.011360 -0.000421 0.000000 0.000000 0.000000
    4 -0.000511 0.011444 -1.351563 -0.006762 1.370786 3.132536
    5 6.078085 0.000000 0.000004 1.235499 -0.449387 -1.400971
    6 13.446774 0.000347 0.000048 0.000003 0.000009 -0.843317
    7 15.996996 0.000362 0.000198 1.656246 -0.031441 0.265285
    8 -2.696754 7.324316 -1.920834 0.018589 0.011442 1.586441
    9 35.019260 7.487988 -2.080860 1.582240 -0.018573 -3.126170
    10 0.003906 0.011446 1.352395 0.007039 -1.370800 3.132182
    11 6.078087 0.000010 0.000000 -0.059893 0.501794 -0.719386
    12 13.446751 -0.000118 -0.000002 0.000000 0.000002 -1.444983
    13 15.997011 -0.000214 0.000034 -0.852569 -0.529329 0.092223
    14 1.885342 0.833251 -2.177898 -1.101261 0.431034 0.584286
    15 1.506973 0.000002 -0.000006 0.000000 0.000000 -0.307166
    16 0.798355 -0.000006 -0.000001 0.000000 0.000000 -0.280985
    17 3.950314 -0.539917 -2.108883 -0.018073 -0.074626 0.227578
    18 1.545788 -0.000009 -0.000023 0.000008 -0.000001 1.200742
    19 1.667393 0.000006 -0.000015 -0.000002 0.000001 1.165834
    20 3.899471 -0.475413 -1.170902 -0.056821 -0.237759 0.233757
    21 1.528221 -0.000010 -0.000023 0.000008 0.000002 1.061113
    22 1.528214 -0.000004 -0.000011 0.000004 0.000002 1.209468
    23 3.899460 -0.431834 0.168213 -0.072893 -0.302236 0.238121
    24 1.506962 -0.000010 -0.000008 0.000003 -0.000002 1.157108
    25 1.506962 -0.000002 -0.000019 0.000008 0.000002 1.069842
    26 3.915634 -0.278044 1.402588 -0.072041 -0.298857 0.237854
    27 1.333088 -0.000008 -0.000015 0.000006 -0.000002 1.366547
    28 1.159203 -0.000006 -0.000019 0.000008 0.000002 0.947669
  time 12
    0 -13.093750 -12.070313 -24.812500 0.000000 0.000000 -1.570796
    1 0.000000 0.000000 0.000000 -0.008133 -1.570448 -1.562664
    2 4.443615 -0.009641 0.000006 -0.000004 -0.000004 0.000790
    3 12.109375 -0.011360 -0.000421 0.000000 0.000000 0.000000
    4 -0.000511 0.011444 -1.351563 -0.006762 1.370786 3.132536
    5 6.078085 0.000000 0.000004 1.235127 -0.451569 -1.400132
    6 13.446774 0.000347 0.000048 0.000003 0.000009 -0.846945
    7 15.996996 0.000362 0.000198 1.660680 -0.034209 0.255949
    8 -2.696754 7.324316 -1.920834 0.018601 0.011442 1.586441
    9 35.019260 7.487988 -2.080860 1.582240 -0.018573 -3.126170
    10 0.003906 0.011446 1.352395 0.007039 -1.370800 3.132182
    11 6.078087 0.000010 0.000000 -0.058705 0.502317 -0.717928
    12 13.446751 -0.000118 -0.000002 0.000000 0.000002 -1.446555
    13 15.997011 -0.000214 0.000034 -0.842228 -0.537826 0.085920
    14 1.885342 0.833251 -2.177898 -1.101246 0.431034 0.584286
    15 1.506973 0.000002 -0.000006 0.000000 0.000000 -0.307166
    16 0.798355 -0.000006 -0.000001 0.000000 0.000000 -0.280985
    17 3.950314 -0.539917 -2.108883 -0.018073 -0.074626 0.227578
    18 1.545788 -0.000009 -0.000023 0.000008 -0.000001 1.200742
    19 1.667393 0.000006 -0.000015 -0.000002 0.000001 1.165834
    20 3.899471 -0.475413 -1.170902 -0.056809 -0.237759 0.233757
    21 1.528221 -0.000010 -0.000023 0.000008 0.000002 1.061113
    22 1.528214 -0.000004 -0.000011 0.000004 0.000002 1.209468
    23 3.899460 -0.431834 0.168213 -0.072893 -0.302236 0.238121
    24 1.506962 -0.000010 -0.000008 0.000003 -0.000002 1.157108
    25 1.506962 -0.000002 -0.000019 0.000008 0.000002 1.069842
    26 3.915634 -0.278044 1.402588 -0.072041 -0.298857 0.237854
    27 1.333088 -0.000008 -0.000015 0.000006 -0.000002 1.366547
    28 1.159203 -0.000006 -0.000019 0.000008 0.000002 0.947669
  time 13
    0 -13.093750 -12.070313 -24.812500 0.000000 0.000000 -1.570796
    1 0.000000 0.000000 0.000000 -0.008133 -1.570448 -1.562664
    2 4.443615 -0.009641 0.000006 -0.000004 -0.000004 0.000790
    3 12.109375 -0.011360 -0.000421 0.000000 0.000000 0.000000
    4 -0.000511 0.011444 -1.351563 -0.006762 1.370786 3.132536
    5 6.078085 0.000000 0.000004 1.234948 -0.452641 -1.399749
    6 13.446774 0.000347 0.000048 0.000003 0.000009 -0.848450
    7 15.996996 0.000362 0.000198 1.666541 -0.036642 0.245894
    8 -2.696754 7.324316 -1.920834 0.018589 0.011442 1.586441
    9 35.019260 7.487988 -2.080860 1.582240 -0.018573 -3.126170
    10 0.003906 0.011446 1.352395 0.007039 -1.370800 3.132182
    11 6.078087 0.000010 0.000000 -0.058667 0.502073 -0.717130
    12 13.446751 -0.000118 -0.000002 0.000000 0.000002 -1.447532
    13 15.997011 -0.000214 0.000034 -0.831210 -0.544469 0.079544
    14 1.885342 0.833251 -2.177898 -1.101261 0.431034 0.584286
    15 1.506973 0.000002 -0.000006 0.000000 0.000000 -0.307166
    16 0.798355 -0.000006 -0.000001 0.000000 0.000000 -0.280985
    17 3.950314 -0.539917 -2.108883 -0.018073 -0.074626 0.227578
    18 1.545788 -0.000009 -0.000023 0.000008 -0.000001 1.200742
    19 1.667393 0.000006 -0.000015 -0.000002 0.000001 1.165834
    20 3.899471 -0.475413 -1.170902 -0.056821 -0.237759 0.233757
    21 1.528221 -0.000010 -0.000023 0.000008 0.000002 1.061113
    22 1.528214 -0.000004 -0.000011 0.000004 0.000002 1.209468
    23 3.899460 -0.431834 0.168213 -0.072893 -0.302236 0.238121
    24 1.506962 -0.000010 -0.000008 0.000003 -0.000002 1.157108
    25 1.506962 -0.000002 -0.000019 0.000008 0.000002 1.069842
    26 3.915634 -0.278044 1.402588 -0.072041 -0.298857 0.237854
    27 1.333088 -0.000008 -0.000015 0.000006 -0.000002 1.366547
    28 1.159203 -0.000006 -0.000019 0.000008 0.000002 0.947669
  time 14
    0 -13.093750 -12.070313 -24.812500 0.000000 0.000000 -1.570796
    1 0.000000 0.000000 0.000000 -0.008133 -1.570448 -1.562664
    2 4.443615 -0.009641 0.000006 -0.000004 -0.000004 0.000790
    3 12.109375 -0.011360 -0.000421 0.000000 0.000000 0.000000
    4 -0.000511 0.011444 -1.351563 -0.006762 1.370786 3.132536
    5 6.078085 0.000000 0.000004 1.234780 -0.453656 -1.399365
    6 13.446774 0.000347 0.000048 0.000003 0.000009 -0.849787
    7 15.996996 0.000362 0.000198 1.671982 -0.037493 0.239230
    8 -2.696754 7.324316 -1.920834 0.018589 0.011442 1.586441
    9 35.019260 7.487988 -2.080860 1.582240 -0.018573 -3.126170
    10 0.003906 0.011446 1.352395 0.007039 -1.370800 3.132182
    11 6.078087 0.000010 0.000000 -0.059395 0.501132 -0.716505
    12 13.446751 -0.000118 -0.000002 0.000000 0.000002 -1.448339
    13 15.997011 -0.000214 0.000034 -0.822856 -0.546990 0.074894
    14 1.885342 0.833251 -2.177898 -1.101261 0.431034 0.584286
    15 1.506973 0.000002 -0.000006 0.000000 0.000000 -0.307166
    16 0.798355 -0.000006 -0.000001 0.000000 0.000000 -0.280985
    17 3.950314 -0.539917 -2.108883 -0.018073 -0.074638 0.227578
    18 1.545788 -0.000009 -0.000023 0.000008 -0.000001 1.200742
    19 1.667393 0.000006 -0.000015 -0.000002 0.000001 1.165834
    20 3.899471 -0.475413 -1.170902 -0.056809 -0.237759 0.233757
    21 1.528221 -0.000010 -0.000023 0.000008 0.000002 1.061113
    22 1.528214 -0.000004 -0.000011 0.000004 0.000002 1.209468
    23 3.899460 -0.431834 0.168213 -0.072893 -0.302236 0.238121
    24 1.506962 -0.000010 -0.000008 0.000003 -0.000002 1.157108
    25 1.506962 -0.000002 -0.000019 0.000008 0.000002 1.069842
    26 3.915634 -0.278044 1.402588 -0.072041 -0.298857 0.237854
    27 1.333088 -0.000008 -0.000015 0.000006 -0.000002 1.366547
    28 1.159203 -0.000006 -0.000019 0.000008 0.000002 0.947669
  time 15
    0 -13.093750 -12.070313 -24.812500 0.000000 0.000000 -1.570796
    1 0.000000 0.000000 0.000000 -0.008133 -1.570448 -1.562664
    2 4.443615 -0.009641 0.000006 -0.000004 -0.000004 0.000790
    3 12.109375 -0.011360 -0.000421 0.000000 0.000000 0.000000
    4 -0.000511 0.011444 -1.351563 -0.006762 1.370786 3.132536
    5 6.078085 0.000000 0.000004 1.234600 -0.454651 -1.399017
    6 13.446774 0.000347 0.000048 0.000003 0.000009 -0.851100
    7 15.996996 0.000362 0.000198 1.677315 -0.035887 0.237361
    8 -2.696754 7.324316 -1.920834 0.018601 0.011442 1.586441
    9 35.019260 7.487988 -2.080860 1.582240 -0.018573 -3.126170
    10 0.003906 0.011446 1.352395 0.007039 -1.370800 3.132182
    11 6.078087 0.000010 0.000000 -0.061425 0.499006 -0.716193
    12 13.446751 -0.000118 -0.000002 0.000000 0.000002 -1.448764
    13 15.997011 -0.000214 0.000034 -0.818115 -0.543151 0.072473
    14 1.885342 0.833251 -2.177898 -1.101246 0.431034 0.584286
    15 1.506973 0.000002 -0.000006 0.000000 0.000000 -0.307166
    16 0.798355 -0.000006 -0.000001 0.000000 0.000000 -0.280985
    17 3.950314 -0.539917 -2.108883 -0.018073 -0.074626 0.227578
    18 1.545788 -0.000009 -0.000023 0.000008 -0.000001 1.200742
    19 1.667393 0.000006 -0.000015 -0.000002 0.000001 1.165834
    20 3.899471 -0.475413 -1.170902 -0.056809 -0.237759 0.233757
    21 1.528221 -0.000010 -0.000023 0.000008 0.000002 1.061113
    22 1.528214 -0.000004 -0.000011 0.000004 0.000002 1.209468
    23 3.899460 -0.431834 0.168213 -0.072893 -0.302236 0.238121
    24 1.506962 -0.000010 -0.000008 0.000003 -0.000002 1.157108
    25 1.506962 -0.000002 -0.000019 0.000008 0.000002 1.069842
    26 3.915634 -0.278044 1.402588 -0.072041 -0.298857 0.237854
    27 1.333088 -0.000008 -0.000015 0.000006 -0.000002 1.366547
    28 1.159203 -0.000006 -0.000019 0.000008 0.000002 0.947669
  time 16
    0 -13.093750 -12.070313 -24.812500 0.000000 0.000000 -1.570796
    1 0.000000 0.000000 0.000000 -0.008133 -1.570448 -1.562664
    2 4.443615 -0.009641 0.000006 -0.000004 -0.000004 0.000790
    3 12.109375 -0.011360 -0.000421 0.000000 0.000000 0.000000
    4 -0.000511 0.011444 -1.351563 -0.006762 1.370786 3.132536
    5 6.078085 0.000000 0.000004 1.234516 -0.455130 -1.398862
    6 13.446774 0.000347 0.000048 0.000003 0.000009 -0.851410
    7 15.996996 0.000362 0.000198 1.683199 -0.032663 0.237948
    8 -2.696754 7.324316 -1.920834 0.018589 0.011442 1.586441
    9 35.019260 7.487988 -2.080860 1.582240 -0.018573 -3.126170
    10 0.003906 0.011446 1.352395 0.007039 -1.370800 3.132182
    11 6.078087 0.000010 0.000000 -0.064796 0.495800 -0.716436
    12 13.446751 -0.000118 -0.000002 0.000000 0.000002 -1.448679
    13 15.997011 -0.000214 0.000034 -0.815179 -0.534721 0.071370
    14 1.885342 0.833251 -2.177898 -1.101261 0.431034 0.584286
    15 1.506973 0.000002 -0.000006 0.000000 0.000000 -0.307166
    16 0.798355 -0.000006 -0.000001 0.000000 0.000000 -0.280985
    17 3.950314 -0.539917 -2.108883 -0.018073 -0.074638 0.227578
    18 1.545788 -0.000009 -0.000023 0.000008 -0.000001 1.200742
    19 1.667393 0.000006 -0.000015 -0.000002 0.000001 1.165834
    20 3.899471 -0.475413 -1.170902 -0.056809 -0.237759 0.233757
    21 1.528221 -0.000010 -0.000023 0.000008 0.000002 1.061113
    22 1.528214 -0.000004 -0.000011 0.000004 0.000002 1.209468
    23 3.899460 -0.431834 0.168213 -0.072893 -0.302236 0.238121
    24 1.506962 -0.000010 -0.000008 0.000003 -0.000002 1.157108
    25 1.506962 -0.000002 -0.000019 0.000008 0.000002 1.069842
    26 3.915634 -0.278044 1.402588 -0.072041 -0.298857 0.237854
    27 1.333088 -0.000008 -0.000015 0.000006 -0.000002 1.366547
    28 1.159203 -0.000006 -0.000019 0.000008 0.000002 0.947669
  time 17
    0 -13.093750 -12.070313 -24.812500 0.000000 0.000000 -1.570796
    1 0.000000 0.000000 0.000000 -0.008133 -1.570448 -1.562664
    2 4.443615 -0.009641 0.000006 -0.000004 -0.000004 0.000790
    3 12.109375 -0.011360 -0.000421 0.000000 0.000000 0.000000
    4 -0.000511 0.011444 -1.351563 -0.006762 1.370786 3.132536
    5 6.078085 0.000000 0.000004 1.234480 -0.455360 -1.398802
    6 13.446774 0.000347 0.000048 0.000003 0.000009 -0.851267
    7 15.996996 0.000362 0.000198 1.688473 -0.029307 0.239770
    8 -2.696754 7.324316 -1.920834 0.018589 0.011442 1.586441
    9 35.019260 7.487988 -2.080860 1.582240 -0.018573 -3.126170
    10 0.003906 0.011446 1.352395 0.007039 -1.370800 3.132182
    11 6.078087 0.000010 0.000000 -0.068244 0.492594 -0.716783
    12 13.446751 -0.000118 -0.000002 0.000000 0.000002 -1.448509
    13 15.997011 -0.000214 0.000034 -0.813644 -0.525456 0.071322
    14 1.885342 0.833251 -2.177898 -1.101261 0.431034 0.584286
    15 1.506973 0.000002 -0.000006 0.000000 0.000000 -0.307166
    16 0.798355 -0.000006 -0.000001 0.000000 0.000000 -0.280985
    17 3.950314 -0.539917 -2.108883 -0.018073 -0.074626 0.227578
    18 1.545788 -0.000009 -0.000023 0.000008 -0.000001 1.200742
    19 1.667393 0.000006 -0.000015 -0.000002 0.000001 1.165834
    20 3.899471 -0.475413 -1.170902 -0.056809 -0.237759 0.233757
    21 1.528221 -0.000010 -0.000023 0.000008 0.000002 1.061113
    22 1.528214 -0.000004 -0.000011 0.000004 0.000002 1.209468
    23 3.899460 -0.431834 0.168213 -0.072893 -0.302236 0.238121
    24 1.506962 -0.000010 -0.000008 0.000003 -0.000002 1.157108
    25 1.506962 -0.000002 -0.000019 0.000008 0.000002 1.069842
    26 3.915634 -0.278044 1.402588 -0.072041 -0.298857 0.237854
    27 1.333088 -0.000008 -0.000015 0.000006 -0.000002 1.366547
    28 1.159203 -0.000006 -0.000019 0.000008 0.000002 0.947669
  time 18
    0 -13.093750 -12.070313 -24.812500 0.000000 0.000000 -1.570796
    1 0.000000 0.000000 0.000000 -0.008133 -1.570448 -1.562664
    2 4.443615 -0.009641 0.000006 -0.000004 -0.000004 0.000790
    3 12.109375 -0.011360 -0.000421 0.000000 0.000000 0.000000
    4 -0.000511 0.011444 -1.351563 -0.006762 1.370786 3.132536
    5 6.078085 0.000000 0.000004 1.234444 -0.455609 -1.398730
    6 13.446774 0.000347 0.000048 0.000003 0.000009 -0.851100
    7 15.996996 0.000362 0.000198 1.691984 -0.027186 0.241507
    8 -2.696754 7.324316 -1.920834 0.018589 0.011442 1.586441
    9 35.019260 7.487988 -2.080860 1.582240 -0.018573 -3.126170
    10 0.003906 0.011446 1.352395 0.007039 -1.370800 3.132182
    11 6.078087 0.000010 0.000000 -0.070351 0.490503 -0.716783
    12 13.446751 -0.000118 -0.000002 0.000000 0.000002 -1.448764
    13 15.997011 -0.000214 0.000034 -0.813012 -0.518912 0.072089
    14 1.885342 0.833251 -2.177898 -1.101261 0.431034 0.584286
    15 1.506973 0.000002 -0.000006 0.000000 0.000000 -0.307166
    16 0.798355 -0.000006 -0.000001 0.000000 0.000000 -0.280985
    17 3.950314 -0.539917 -2.108883 -0.018073 -0.074626 0.227578
    18 1.545788 -0.000009 -0.000023 0.000008 -0.000001 1.200742
    19 1.667393 0.000006 -0.000015 -0.000002 0.000001 1.165834
    20 3.899471 -0.475413 -1.170902 -0.056809 -0.237759 0.233757
    21 1.528221 -0.000010 -0.000023 0.000008 0.000002 1.061113
    22 1.528214 -0.000004 -0.000011 0.000004 0.000002 1.209468
    23 3.899460 -0.431834 0.168213 -0.072893 -0.302236 0.238121
    24 1.506962 -0.000010 -0.000008 0.000003 -0.000002 1.157108
    25 1.506962 -0.000002 -0.000019 0.000008 0.000002 1.069842
    26 3.915634 -0.278044 1.402588 -0.072041 -0.298857 0.237854
    27 1.333088 -0.000008 -0.000015 0.000006 -0.000002 1.366547
    28 1.159203 -0.000006 -0.000019 0.000008 0.000002 0.947669
  time 19
    0 -13.093750 -12.070313 -24.812500 0.000000 0.000000 -1.570796
    1 0.000000 0.000000 0.000000 -0.008133 -1.570448 -1.562664
    2 4.443615 -0.009641 0.000006 -0.000004 -0.000004 0.000790
    3 12.109375 -0.011360 -0.000421 0.000000 0.000000 0.000000
    4 -0.000511 0.011444 -1.351563 -0.006762 1.370786 3.132536
    5 6.078085 0.000000 0.000004 1.234384 -0.455953 -1.398622
    6 13.446774 0.000347 0.000048 0.000003 0.000009 -0.851147
    7 15.996996 0.000362 0.000198 1.693171 -0.026659 0.243173
    8 -2.696754 7.324316 -1.920834 0.018589 0.011442 1.586441
    9 35.019260 7.487988 -2.080860 1.582240 -0.018573 -3.126170
    10 0.003906 0.011446 1.352395 0.007039 -1.370800 3.132182
    11 6.078087 0.000010 0.000000 -0.070772 0.489876 -0.716228
    12 13.446751 -0.000118 -0.000002 0.000000 0.000002 -1.449741
    13 15.997011 -0.000214 0.000034 -0.813418 -0.515958 0.073779
    14 1.885342 0.833251 -2.177898 -1.101261 0.431034 0.584286
    15 1.506973 0.000002 -0.000006 0.000000 0.000000 -0.307166
    16 0.798355 -0.000006 -0.000001 0.000000 0.000000 -0.280985
    17 3.950314 -0.539917 -2.108883 -0.018073 -0.074626 0.227578
    18 1.545788 -0.000009 -0.000023 0.000008 -0.000001 1.200742
    19 1.667393 0.000006 -0.000015 -0.000002 0.000001 1.165834
    20 3.899471 -0.475413 -1.170902 -0.056821 -0.237759 0.233757
    21 1.528221 -0.000010 -0.000023 0.000008 0.000002 1.061113
    22 1.528214 -0.000004 -0.000011 0.000004 0.000002 1.209468
    23 3.899460 -0.431834 0.168213 -0.072893 -0.302236 0.238121
    24 1.506962 -0.000010 -0.000008 0.000003 -0.000002 1.157108
    25 1.506962 -0.000002 -0.000019 0.000008 0.000002 1.069842
    26 3.915634 -0.278044 1.402588 -0.072041 -0.298857 0.237854
    27 1.333088 -0.000008 -0.000015 0.000006 -0.000002 1.366547
    28 1.159203 -0.000006 -0.000019 0.000008 0.000002 0.947669
  time 20
    0 -13.093750 -12.070313 -24.812500 0.000000 0.000000 -1.570796
    1 0.000000 0.000000 0.000000 -0.008133 -1.570448 -1.562664
    2 4.443615 -0.009641 0.000006 -0.000004 -0.000004 0.000790
    3 12.109375 -0.011360 -0.000421 0.000000 0.000000 0.000000
    4 -0.000511 0.011444 -1.351563 -0.006762 1.370786 3.132536
    5 6.078085 0.000000 0.000004 1.234324 -0.456298 -1.398502
    6 13.446774 0.000347 0.000048 0.000003 0.000009 -0.851195
    7 15.996996 0.000362 0.000198 1.692883 -0.026815 0.245331
    8 -2.696754 7.324316 -1.920834 0.018589 0.011442 1.586441
    9 35.019260 7.487988 -2.080860 1.582240 -0.018573 -3.126170
    10 0.003906 0.011446 1.352395 0.007039 -1.370800 3.132182
    11 6.078087 0.000010 0.000000 -0.070236 0.490015 -0.715395
    12 13.446751 -0.000118 -0.000002 0.000000 0.000002 -1.451058
    13 15.997011 -0.000214 0.000034 -0.814999 -0.514489 0.076380
    14 1.885342 0.833251 -2.177898 -1.101261 0.431034 0.584286
    15 1.506973 0.000002 -0.000006 0.000000 0.000000 -0.307166
    16 0.798355 -0.000006 -0.000001 0.000000 0.000000 -0.280985
    17 3.950314 -0.539917 -2.108883 -0.018073 -0.074638 0.227578
    18 1.545788 -0.000009 -0.000023 0.000008 -0.000001 1.200742
    19 1.667393 0.000006 -0.000015 -0.000002 0.000001 1.165834
    20 3.899471 -0.475413 -1.170902 -0.056809 -0.237759 0.233757
    21 1.528221 -0.000010 -0.000023 0.000008 0.000002 1.061113
    22 1.528214 -0.000004 -0.000011 0.000004 0.000002 1.209468
    23 3.899460 -0.431834 0.168213 -0.072893 -0.302236 0.238121
    24 1.506962 -0.000010 -0.000008 0.000003 -0.000002 1.157108
    25 1.506962 -0.000002 -0.000019 0.000008 0.000002 1.069842
    26 3.915634 -0.278044 1.402588 -0.072041 -0.298857 0.237854
    27 1.333088 -0.000008 -0.000015 0.000006 -0.000002 1.366547
    28 1.159203 -0.000006 -0.000019 0.000008 0.000002 0.947669
  time 21
    0 -13.093750 -12.070313 -24.812500 0.000000 0.000000 -1.570796
    1 0.000000 0.000000 0.000000 -0.008133 -1.570448 -1.562664
    2 4.443615 -0.009641 0.000006 -0.000004 -0.000004 0.000790
    3 12.109375 -0.011360 -0.000421 0.000000 0.000000 0.000000
    4 -0.000511 0.011444 -1.351563 -0.006762 1.370786 3.132536
    5 6.078085 0.000000 0.000004 1.234288 -0.456566 -1.398430
    6 13.446774 0.000347 0.000048 0.000003 0.000009 -0.851100
    7 15.996996 0.000362 0.000198 1.691984 -0.027366 0.247560
    8 -2.696754 7.324316 -1.920834 0.018589 0.011442 1.586441
    9 35.019260 7.487988 -2.080860 1.582240 -0.018573 -3.126170
    10 0.003906 0.011446 1.352395 0.007039 -1.370800 3.132182
    11 6.078087 0.000010 0.000000 -0.069393 0.490503 -0.714423
    12 13.446751 -0.000118 -0.000002 0.000000 0.000002 -1.452545
    13 15.997011 -0.000214 0.000034 -0.816941 -0.513754 0.079352
    14 1.885342 0.833251 -2.177898 -1.101261 0.431034 0.584286
    15 1.506973 0.000002 -0.000006 0.000000 0.000000 -0.307166
    16 0.798355 -0.000006 -0.000001 0.000000 0.000000 -0.280985
    17 3.950314 -0.539917 -2.108883 -0.018073 -0.074626 0.227578
    18 1.545788 -0.000009 -0.000023 0.000008 -0.000001 1.200742
    19 1.667393 0.000006 -0.000015 -0.000002 0.000001 1.165834
    20 3.899471 -0.475413 -1.170902 -0.056821 -0.237759 0.233757
    21 1.528221 -0.000010 -0.000023 0.000008 0.000002 1.061113
    22 1.528214 -0.000004 -0.000011 0.000004 0.000002 1.209468
    23 3.899460 -0.431834 0.168213 -0.072893 -0.302236 0.238121
    24 1.506962 -0.000010 -0.000008 0.000003 -0.000002 1.157108
    25 1.506962 -0.000002 -0.000019 0.000008 0.000002 1.069842
    26 3.915634 -0.278044 1.402588 -0.072041 -0.298857 0.237854
    27 1.333088 -0.000008 -0.000015 0.000006 -0.000002 1.366547
    28 1.159203 -0.000006 -0.000019 0.000008 0.000002 0.947669
  time 22
    0 -13.093750 -12.070313 -24.812500 0.000000 0.000000 -1.570796
    1 0.000000 0.000000 0.000000 -0.008133 -1.570448 -1.562664
    2 4.443615 -0.009641 0.000006 -0.000004 -0.000004 0.000790
    3 12.109375 -0.011360 -0.000421 0.000000 0.000000 0.000000
    4 -0.000511 0.011444 -1.351563 -0.006762 1.370786 3.132536
    5 6.078085 0.000000 0.000004 1.234264 -0.456700 -1.398394
    6 13.446774 0.000347 0.000048 0.000003 0.000009 -0.850765
    7 15.996996 0.000362 0.000198 1.691385 -0.027965 0.249465
    8 -2.696754 7.324316 -1.920834 0.018589 0.011442 1.586441
    9 35.019260 7.487988 -2.080860 1.582240 -0.018573 -3.126170
    10 0.003906 0.011446 1.352395 0.007039 -1.370800 3.132182
    11 6.078087 0.000010 0.000000 -0.068550 0.490851 -0.713486
    12 13.446751 -0.000118 -0.000002 0.000000 0.000002 -1.454074
    13 15.997011 -0.000214 0.000034 -0.818611 -0.512986 0.082276
    14 1.885342 0.833251 -2.177898 -1.101261 0.431034 0.584286
    15 1.506973 0.000002 -0.000006 0.000000 0.000000 -0.307166
    16 0.798355 -0.000006 -0.000001 0.000000 0.000000 -0.280985
    17 3.950314 -0.539917 -2.108883 -0.018073 -0.074626 0.227578
    18 1.545788 -0.000009 -0.000023 0.000008 -0.000001 1.200742
    19 1.667393 0.000006 -0.000015 -0.000002 0.000001 1.165834
    20 3.899471 -0.475413 -1.170902 -0.056809 -0.237759 0.233757
    21 1.528221 -0.000010 -0.000023 0.000008 0.000002 1.061113
    22 1.528214 -0.000004 -0.000011 0.000004 0.000002 1.209468
    23 3.899460 -0.431834 0.168213 -0.072893 -0.302236 0.238121
    24 1.506962 -0.000010 -0.000008 0.000003 -0.000002 1.157108
    25 1.506962 -0.000002 -0.000019 0.000008 0.000002 1.069842
    26 3.915634 -0.278044 1.402588 -0.072041 -0.298857 0.237854
    27 1.333088 -0.000008 -0.000015 0.000006 -0.000002 1.366547
    28 1.159203 -0.000006 -0.000019 0.000008 0.000002 0.947669
  time 23
    0 -13.093750 -12.070313 -24.812500 0.000000 0.000000 -1.570796
    1 0.000000 0.000000 0.000000 -0.008133 -1.570448 -1.562664
    2 4.443615 -0.009641 0.000006 -0.000004 -0.000004 0.000790
    3 12.109375 -0.011360 -0.000421 0.000000 0.000000 0.000000
    4 -0.000511 0.011444 -1.351563 -0.006762 1.370786 3.132536
    5 6.078085 0.000000 0.000004 1.234264 -0.456681 -1.398442
    6 13.446774 0.000347 0.000048 0.000003 0.000009 -0.850145
    7 15.996996 0.000362 0.000198 1.691960 -0.028325 0.250664
    8 -2.696754 7.324316 -1.920834 0.018589 0.011442 1.586441
    9 35.019260 7.487988 -2.080860 1.582240 -0.018573 -3.126170
    10 0.003906 0.011446 1.352395 0.007039 -1.370800 3.132182
    11 6.078087 0.000010 0.000000 -0.068397 0.490747 -0.712757
    12 13.446751 -0.000118 -0.000002 0.000000 0.000002 -1.455306
    13 15.997011 -0.000214 0.000034 -0.819198 -0.511451 0.084637
    14 1.885342 0.833251 -2.177898 -1.101261 0.431034 0.584286
    15 1.506973 0.000002 -0.000006 0.000000 0.000000 -0.307166
    16 0.798355 -0.000006 -0.000001 0.000000 0.000000 -0.280985
    17 3.950314 -0.539917 -2.108883 -0.018073 -0.074626 0.227578
    18 1.545788 -0.000009 -0.000023 0.000008 -0.000001 1.200742
    19 1.667393 0.000006 -0.000015 -0.000002 0.000001 1.165834
    20 3.899471 -0.475413 -1.170902 -0.056809 -0.237759 0.233757
    21 1.528221 -0.000010 -0.000023 0.000008 0.000002 1.061113
    22 1.528214 -0.000004 -0.000011 0.000004 0.000002 1.209468
    23 3.899460 -0.431834 0.168213 -0.072893 -0.302236 0.238121
    24 1.506962 -0.000010 -0.000008 0.000003 -0.000002 1.157108
    25 1.506962 -0.000002 -0.000019 0.000008 0.000002 1.069842
    26 3.915634 -0.278044 1.402588 -0.072041 -0.298857 0.237854
    27 1.333088 -0.000008 -0.000015 0.000006 -0.000002 1.366547
    28 1.159203 -0.000006 -0.000019 0.000008 0.000002 0.947669
  time 24
    0 -13.093750 -12.070313 -24.812500 0.000000 0.000000 -1.570796
    1 0.000000 0.000000 0.000000 -0.008133 -1.570448 -1.562664
    2 4.443615 -0.009641 0.000006 -0.000004 -0.000004 0.000790
    3 12.109375 -0.011360 -0.000421 0.000000 0.000000 0.000000
    4 -0.000511 0.011444 -1.351563 -0.006762 1.370786 3.132536
    5 6.078085 0.000000 0.000004 1.234300 -0.456527 -1.398526
    6 13.446774 0.000347 0.000048 0.000003 0.000009 -0.849237
    7 15.996996 0.000362 0.000198 1.694896 -0.028624 0.250867
    8 -2.696754 7.324316 -1.920834 0.018589 0.011442 1.586441
    9 35.019260 7.487988 -2.080860 1.582240 -0.018573 -3.126170
    10 0.003906 0.011446 1.352395 0.007039 -1.370800 3.132182
    11 6.078087 0.000010 0.000000 -0.069125 0.489632 -0.711854
    12 13.446751 -0.000118 -0.000002 0.000000 0.000002 -1.457388
    13 15.997011 -0.000214 0.000034 -0.817799 -0.508580 0.087034
    14 1.885342 0.833251 -2.177898 -1.101261 0.431034 0.584286
    15 1.506973 0.000002 -0.000006 0.000000 0.000000 -0.307166
    16 0.798355 -0.000006 -0.000001 0.000000 0.000000 -0.280985
    17 3.950314 -0.539917 -2.108883 -0.018073 -0.074626 0.227578
    18 1.545788 -0.000009 -0.000023 0.000008 -0.000001 1.200742
    19 1.667393 0.000006 -0.000015 -0.000002 0.000001 1.165834
    20 3.899471 -0.475413 -1.170902 -0.056809 -0.237759 0.233757
    21 1.528221 -0.000010 -0.000023 0.000008 0.000002 1.061113
    22 1.528214 -0.000004 -0.000011 0.000004 0.000002 1.209468
    23 3.899460 -0.431834 0.168213 -0.072893 -0.302236 0.238121
    24 1.506962 -0.000010 -0.000008 0.000003 -0.000002 1.157108
    25 1.506962 -0.000002 -0.000019 0.000008 0.000002 1.069842
    26 3.915634 -0.278044 1.402588 -0.072041 -0.298857 0.237854
    27 1.333088 -0.000008 -0.000015 0.000006 -0.000002 1.366547
    28 1.159203 -0.000006 -0.000019 0.000008 0.000002 0.947669
  time 25
    0 -13.093750 -12.070313 -24.812500 0.000000 0.000000 -1.570796
    1 0.000000 0.000000 0.000000 -0.008133 -1.570448 -1.562664
    2 4.443615 -0.009641 0.000006 -0.000004 -0.000004 0.000790
    3 12.109375 -0.011360 -0.000421 0.000000 0.000000 0.000000
    4 -0.000511 0.011444 -1.351563 -0.006762 1.370786 3.132536
    5 6.078085 0.000000 0.000004 1.234348 -0.456221 -1.398682
    6 13.446774 0.000347 0.000048 0.000003 0.000009 -0.848068
    7 15.996996 0.000362 0.000198 1.699414 -0.029056 0.250304
    8 -2.696754 7.324316 -1.920834 0.018589 0.011442 1.586441
    9 35.019260 7.487988 -2.080860 1.582240 -0.018573 -3.126170
    10 0.003906 0.011446 1.352395 0.007039 -1.370800 3.132182
    11 6.078087 0.000010 0.000000 -0.070389 0.488029 -0.710813
    12 13.446751 -0.000118 -0.000002 0.000000 0.000002 -1.459852
    13 15.997011 -0.000214 0.000034 -0.814999 -0.505024 0.089515
    14 1.885342 0.833251 -2.177898 -1.101261 0.431034 0.584286
    15 1.506973 0.000002 -0.000006 0.000000 0.000000 -0.307166
    16 0.798355 -0.000006 -0.000001 0.000000 0.000000 -0.280985
    17 3.950314 -0.539917 -2.108883 -0.018073 -0.074626 0.227578
    18 1.545788 -0.000009 -0.000023 0.000008 -0.000001 1.200742
    19 1.667393 0.000006 -0.000015 -0.000002 0.000001 1.165834
    20 3.899471 -0.475413 -1.170902 -0.056809 -0.237759 0.233757
    21 1.528221 -0.000010 -0.000023 0.000008 0.000002 1.061113
    22 1.528214 -0.000004 -0.000011 0.000004 0.000002 1.209468
    23 3.899460 -0.431834 0.168213 -0.072893 -0.302236 0.238121
    24 1.506962 -0.000010 -0.000008 0.000003 -0.000002 1.157108
    25 1.506962 -0.000002 -0.000019 0.000008 0.000002 1.069842
    26 3.915634 -0.278044 1.402588 -0.072041 -0.298857 0.237854
    27 1.333088 -0.000008 -0.000015 0.000006 -0.000002 1.366547
    28 1.159203 -0.000006 -0.000019 0.000008 0.000002 0.947669
  time 26
    0 -13.093750 -12.070313 -24.812500 0.000000 0.000000 -1.570796
    1 0.000000 0.000000 0.000000 -0.008133 -1.570448 -1.562664
    2 4.443615 -0.009641 0.000006 -0.000004 -0.000004 0.000790
    3 12.109375 -0.011360 -0.000421 0.000000 0.000000 0.000000
    4 -0.000511 0.011444 -1.351563 -0.006762 1.370786 3.132536
    5 6.078085 0.000000 0.000004 1.234456 -0.455589 -1.398970
    6 13.446774 0.000347 0.000048 0.000003 0.000009 -0.846229
    7 15.996996 0.000362 0.000198 1.703549 -0.029068 0.249178
    8 -2.696754 7.324316 -1.920834 0.018589 0.011442 1.586441
    9 35.019260 7.487988 -2.080860 1.582240 -0.018573 -3.126170
    10 0.003906 0.011446 1.352395 0.007039 -1.370800 3.132182
    11 6.078087 0.000010 0.000000 -0.071883 0.486425 -0.710535
    12 13.446751 -0.000118 -0.000002 0.000000 0.000002 -1.461126
    13 15.997011 -0.000214 0.000034 -0.812335 -0.501602 0.090737
    14 1.885342 0.833251 -2.177898 -1.101261 0.431034 0.584286
    15 1.506973 0.000002 -0.000006 0.000000 0.000000 -0.307166
    16 0.798355 -0.000006 -0.000001 0.000000 0.000000 -0.280985
    17 3.950314 -0.539917 -2.108883 -0.018073 -0.074626 0.227578
    18 1.545788 -0.000009 -0.000023 0.000008 -0.000001 1.200742
    19 1.667393 0.000006 -0.000015 -0.000002 0.000001 1.165834
    20 3.899471 -0.475413 -1.170902 -0.056821 -0.237759 0.233757
    21 1.528221 -0.000010 -0.000023 0.000008 0.000002 1.061113
    22 1.528214 -0.000004 -0.000011 0.000004 0.000002 1.209468
    23 3.899460 -0.431834 0.168213 -0.072893 -0.302236 0.238121
    24 1.506962 -0.000010 -0.000008 0.000003 -0.000002 1.157108
    25 1.506962 -0.000002 -0.000019 0.000008 0.000002 1.069842
    26 3.915634 -0.278044 1.402588 -0.072041 -0.298857 0.237854
    27 1.333088 -0.000008 -0.000015 0.000006 -0.000002 1.366547
    28 1.159203 -0.000006 -0.000019 0.000008 0.000002 0.947669
  time 27
    0 -13.093750 -12.070313 -24.812500 0.000000 0.000000 -1.570796
    1 0.000000 0.000000 0.000000 -0.008133 -1.570448 -1.562664
    2 4.443615 -0.009641 0.000006 -0.000004 -0.000004 0.000790
    3 12.109375 -0.011360 -0.000421 0.000000 0.000000 0.000000
    4 -0.000511 0.011444 -1.351563 -0.006762 1.370786 3.132536
    5 6.078085 0.000000 0.000004 1.234672 -0.454460 -1.399437
    6 13.446774 0.000347 0.000048 0.000003 0.000009 -0.843508
    7 15.996996 0.000362 0.000198 1.705335 -0.028169 0.247704
    8 -2.696754 7.324316 -1.920834 0.018589 0.011442 1.586441
    9 35.019260 7.487988 -2.080860 1.582240 -0.018573 -3.126170
    10 0.003906 0.011446 1.352395 0.007039 -1.370800 3.132182
    11 6.078087 0.000010 0.000000 -0.073454 0.485450 -0.711854
    12 13.446751 -0.000118 -0.000002 0.000000 0.000002 -1.459087
    13 15.997011 -0.000214 0.000034 -0.811341 -0.499365 0.089443
    14 1.885342 0.833251 -2.177898 -1.101246 0.431034 0.584286
    15 1.506973 0.000002 -0.000006 0.000000 0.000000 -0.307166
    16 0.798355 -0.000006 -0.000001 0.000000 0.000000 -0.280985
    17 3.950314 -0.539917 -2.108883 -0.018061 -0.074626 0.227578
    18 1.545788 -0.000009 -0.000023 0.000008 -0.000001 1.200742
    19 1.667393 0.000006 -0.000015 -0.000002 0.000001 1.165834
    20 3.899471 -0.475413 -1.170902 -0.056809 -0.237759 0.233757
    21 1.528221 -0.000010 -0.000023 0.000008 0.000002 1.061113
    22 1.528214 -0.000004 -0.000011 0.000004 0.000002 1.209468
    23 3.899460 -0.431834 0.168213 -0.072893 -0.302236 0.238121
    24 1.506962 -0.000010 -0.000008 0.000003 -0.000002 1.157108
    25 1.506962 -0.000002 -0.000019 0.000008 0.000002 1.069842
    26 3.915634 -0.278044 1.402588 -0.072041 -0.298857 0.237854
    27 1.333088 -0.000008 -0.000015 0.000006 -0.000002 1.366547
    28 1.159203 -0.000006 -0.000019 0.000008 0.000002 0.947669
  time 28
    0 -13.093750 -12.070313 -24.812500 0.000000 0.000000 -1.570796
    1 0.000000 0.000000 0.000000 -0.008133 -1.570448 -1.562664
    2 4.443615 -0.009641 0.000006 -0.000004 -0.000004 0.000790
    3 12.109375 -0.011360 -0.000421 0.000000 0.000000 0.000000
    4 -0.000511 0.011444 -1.351563 -0.006762 1.370786 3.132536
    5 6.078085 0.000000 0.000004 1.234780 -0.453790 -1.399725
    6 13.446774 0.000347 0.000048 0.000003 0.000009 -0.841645
    7 15.996996 0.000362 0.000198 1.703753 -0.025556 0.246277
    8 -2.696754 7.324316 -1.920834 0.018589 0.011442 1.586441
    9 35.019260 7.487988 -2.080860 1.582240 -0.018573 -3.126170
    10 0.003906 0.011446 1.352395 0.007039 -1.370800 3.132182
    11 6.078087 0.000010 0.000000 -0.074641 0.485450 -0.714909
    12 13.446751 -0.000118 -0.000002 0.000000 0.000002 -1.453097
    13 15.997011 -0.000214 0.000034 -0.812289 -0.498831 0.083870
    14 1.885342 0.833251 -2.177898 -1.101246 0.431034 0.584286
    15 1.506973 0.000002 -0.000006 0.000000 0.000000 -0.307166
    16 0.798355 -0.000006 -0.000001 0.000000 0.000000 -0.280985
    17 3.950314 -0.539917 -2.108883 -0.018073 -0.074626 0.227578
    18 1.545788 -0.000009 -0.000023 0.000008 -0.000001 1.200742
    19 1.667393 0.000006 -0.000015 -0.000002 0.000001 1.165834
    20 3.899471 -0.475413 -1.170902 -0.056809 -0.237759 0.233757
    21 1.528221 -0.000010 -0.000023 0.000008 0.000002 1.061113
    22 1.528214 -0.000004 -0.000011 0.000004 0.000002 1.209468
    23 3.899460 -0.431834 0.168213 -0.072893 -0.302236 0.238121
    24 1.506962 -0.000010 -0.000008 0.000003 -0.000002 1.157108
    25 1.506962 -0.000002 -0.000019 0.000008 0.000002 1.069842
    26 3.915634 -0.278044 1.402588 -0.072041 -0.298857 0.237854
    27 1.333088 -0.000008 -0.000015 0.000006 -0.000002 1.366547
    28 1.159203 -0.000006 -0.000019 0.000008 0.000002 0.947669
  time 29
    0 -13.093750 -12.070313 -24.812500 0.000000 0.000000 -1.570796
    1 0.000000 0.000000 0.000000 -0.008133 -1.570448 -1.562664
    2 4.443615 -0.009641 0.000006 -0.000004 -0.000004 0.000790
    3 12.109375 -0.011360 -0.000421 0.000000 0.000000 0.000000
    4 -0.000511 0.011444 -1.351563 -0.006762 1.370786 3.132536
    5 6.078085 0.000000 0.000004 1.234864 -0.453349 -1.399916
    6 13.446774 0.000347 0.000048 0.000003 0.000009 -0.840165
    7 15.996996 0.000362 0.000198 1.700050 -0.021769 0.244671
    8 -2.696754 7.324316 -1.920834 0.018589 0.011442 1.586441
    9 35.019260 7.487988 -2.080860 1.582240 -0.018573 -3.126170
    10 0.003906 0.011446 1.352395 0.007039 -1.370800 3.132182
    11 6.078087 0.000010 0.000000 -0.075867 0.486077 -0.719282
    12 13.446751 -0.000118 -0.000002 0.000000 0.000002 -1.444176
    13 15.997011 -0.000214 0.000034 -0.814457 -0.499398 0.075193
    14 1.885342 0.833251 -2.177898 -1.101261 0.431034 0.584286
    15 1.506973 0.000002 -0.000006 0.000000 0.000000 -0.307166
    16 0.798355 -0.000006 -0.000001 0.000000 0.000000 -0.280985
    17 3.950314 -0.539917 -2.108883 -0.018073 -0.074626 0.227578
    18 1.545788 -0.000009 -0.000023 0.000008 -0.000001 1.200742
    19 1.667393 0.000006 -0.000015 -0.000002 0.000001 1.165834
    20 3.899471 -0.475413 -1.170902 -0.056821 -0.237759 0.233757
    21 1.528221 -0.000010 -0.000023 0.000008 0.000002 1.061113
    22 1.528214 -0.000004 -0.000011 0.000004 0.000002 1.209468
    23 3.899460 -0.431834 0.168213 -0.072893 -0.302236 0.238121
    24 1.506962 -0.000010 -0.000008 0.000003 -0.000002 1.157108
    25 1.506962 -0.000002 -0.000019 0.000008 0.000002 1.069842
    26 3.915634 -0.278044 1.402588 -0.072041 -0.298857 0.237854
    27 1.333088 -0.000008 -0.000015 0.000006 -0.000002 1.366547
    28 1.159203 -0.000006 -0.000019 0.000008 0.000002 0.947669
  time 30
    0 -13.093750 -12.070313 -24.812500 0.000000 0.000000 -1.570796
    1 0.000000 0.000000 0.000000 -0.008133 -1.570448 -1.562664
    2 4.443615 -0.009641 0.000006 -0.000004 -0.000004 0.000790
    3 12.109375 -0.011360 -0.000421 0.000000 0.000000 0.000000
    4 -0.000511 0.011444 -1.351563 -0.006762 1.370786 3.132536
    5 6.078085 0.000000 0.000004 1.235235 -0.451148 -1.400803
    6 13.446774 0.000347 0.000048 0.000003 0.000009 -0.835414
    7 15.996996 0.000362 0.000198 1.695472 -0.018210 0.242167
    8 -2.696754 7.324316 -1.920834 0.018589 0.011442 1.586441
    9 35.019260 7.487988 -2.080860 1.582240 -0.018573 -3.126170
    10 0.003906 0.011446 1.352395 0.007039 -1.370800 3.132182
    11 6.078087 0.000010 0.000000 -0.077553 0.486809 -0.725044
    12 13.446751 -0.000118 -0.000002 0.000000 0.000002 -1.433386
    13 15.997011 -0.000214 0.000034 -0.817618 -0.500250 0.066433
    14 1.885342 0.833251 -2.177898 -1.101261 0.431034 0.584286
    15 1.506973 0.000002 -0.000006 0.000000 0.000000 -0.307166
    16 0.798355 -0.000006 -0.000001 0.000000 0.000000 -0.280985
    17 3.950314 -0.539917 -2.108883 -0.018073 -0.074626 0.227578
    18 1.545788 -0.000009 -0.000023 0.000008 -0.000001 1.200742
    19 1.667393 0.000006 -0.000015 -0.000002 0.000001 1.165834
    20 3.899471 -0.475413 -1.170902 -0.056821 -0.237759 0.233757
    21 1.528221 -0.000010 -0.000023 0.000008 0.000002 1.061113
    22 1.528214 -0.000004 -0.000011 0.000004 0.000002 1.209468
    23 3.899460 -0.431834 0.168213 -0.072893 -0.302236 0.238121
    24 1.506962 -0.000010 -0.000008 0.000003 -0.000002 1.157108
    25 1.506962 -0.000002 -0.000019 0.000008 0.000002 1.069842
    26 3.915634 -0.278044 1.402588 -0.072041 -0.298857 0.237854
    27 1.333088 -0.000008 -0.000015 0.000006 -0.000002 1.366547
    28 1.159203 -0.000006 -0.000019 0.000008 0.000002 0.947669
  time 31
    0 -13.093750 -12.070313 -24.812500 0.000000 0.000000 -1.570796
    1 0.000000 0.000000 0.000000 -0.008133 -1.570448 -1.562664
    2 4.443615 -0.009641 0.000006 -0.000004 -0.000004 0.000790
    3 12.109375 -0.011360 -0.000421 0.000000 0.000000 0.000000
    4 -0.000511 0.011444 -1.351563 -0.006762 1.370786 3.132536
    5 6.078085 0.000000 0.000004 1.236230 -0.445232 -1.403116
    6 13.446774 0.000347 0.000048 0.000003 0.000009 -0.823692
    7 15.996996 0.000362 0.000198 1.691325 -0.016280 0.238032
    8 -2.696754 7.324316 -1.920834 0.018589 0.011442 1.586441
    9 35.019260 7.487988 -2.080860 1.582240 -0.018573 -3.126170
    10 0.003906 0.011446 1.352395 0.007039 -1.370800 3.132182
    11 6.078087 0.000010 0.000000 -0.080043 0.487088 -0.732020
    12 13.446751 -0.000118 -0.000002 0.000000 0.000002 -1.421831
    13 15.997011 -0.000214 0.000034 -0.821592 -0.500517 0.060620
    14 1.885342 0.833251 -2.177898 -1.101261 0.431034 0.584286
    15 1.506973 0.000002 -0.000006 0.000000 0.000000 -0.307166
    16 0.798355 -0.000006 -0.000001 0.000000 0.000000 -0.280985
    17 3.950314 -0.539917 -2.108883 -0.018073 -0.074626 0.227578
    18 1.545788 -0.000009 -0.000023 0.000008 -0.000001 1.200742
    19 1.667393 0.000006 -0.000015 -0.000002 0.000001 1.165834
    20 3.899471 -0.475413 -1.170902 -0.056821 -0.237759 0.233757
    21 1.528221 -0.000010 -0.000023 0.000008 0.000002 1.061113
    22 1.528214 -0.000004 -0.000011 0.000004 0.000002 1.209468
    23 3.899460 -0.431834 0.168213 -0.072893 -0.302236 0.238121
    24 1.506962 -0.000010 -0.000008 0.000003 -0.000002 1.157108
    25 1.506962 -0.000002 -0.000019 0.000008 0.000002 1.069842
    26 3.915634 -0.278044 1.402588 -0.072041 -0.298857 0.237854
    27 1.333088 -0.000008 -0.000015 0.000006 -0.000002 1.366547
    28 1.159203 -0.000006 -0.000019 0.000008 0.000002 0.947669
  time 32
    0 -13.093750 -12.070313 -24.812500 0.000000 0.000000 -1.570796
    1 0.000000 0.000000 0.000000 -0.008133 -1.570448 -1.562664
    2 4.443615 -0.009641 0.000006 -0.000004 -0.000004 0.000790
    3 12.109375 -0.011360 -0.000421 0.000000 0.000000 0.000000
    4 -0.000511 0.011444 -1.351563 -0.006762 1.370786 3.132536
    5 6.078085 0.000000 0.000004 1.237356 -0.438398 -1.405801
    6 13.446774 0.000347 0.000048 0.000003 0.000009 -0.810155
    7 15.996996 0.000362 0.000198 1.687166 -0.018365 0.234736
    8 -2.696754 7.324316 -1.920834 0.018589 0.011442 1.586441
    9 35.019260 7.487988 -2.080860 1.582240 -0.018573 -3.126170
    10 0.003906 0.011446 1.352395 0.007039 -1.370800 3.132182
    11 6.078087 0.000010 0.000000 -0.080464 0.488307 -0.736116
    12 13.446751 -0.000118 -0.000002 0.000000 0.000002 -1.416011
    13 15.997011 -0.000214 0.000034 -0.826152 -0.502854 0.062298
    14 1.885342 0.833251 -2.177898 -1.101261 0.431034 0.584286
    15 1.506973 0.000002 -0.000006 0.000000 0.000000 -0.307166
    16 0.798355 -0.000006 -0.000001 0.000000 0.000000 -0.280985
    17 3.950314 -0.539917 -2.108883 -0.018073 -0.074626 0.227578
    18 1.545788 -0.000009 -0.000023 0.000008 -0.000001 1.200742
    19 1.667393 0.000006 -0.000015 -0.000002 0.000001 1.165834
    20 3.899471 -0.475413 -1.170902 -0.056809 -0.237759 0.233757
    21 1.528221 -0.000010 -0.000023 0.000008 0.000002 1.061113
    22 1.528214 -0.000004 -0.000011 0.000004 0.000002 1.209468
    23 3.899460 -0.431834 0.168213 -0.072893 -0.302236 0.238121
    24 1.506962 -0.000010 -0.000008 0.000003 -0.000002 1.157108
    25 1.506962 -0.000002 -0.000019 0.000008 0.000002 1.069842
    26 3.915634 -0.278044 1.402588 -0.072041 -0.298857 0.237854
    27 1.333088 -0.000008 -0.000015 0.000006 -0.000002 1.366547
    28 1.159203 -0.000006 -0.000019 0.000008 0.000002 0.947669
  time 33
    0 -13.093750 -12.070313 -24.812500 0.000000 0.000000 -1.570796
    1 0.000000 0.000000 0.000000 -0.008133 -1.570448 -1.562664
    2 4.443615 -0.009641 0.000006 -0.000004 -0.000004 0.000790
    3 12.109375 -0.011360 -0.000421 0.000000 0.000000 0.000000
    4 -0.000511 0.011444 -1.351563 -0.006762 1.370786 3.132536
    5 6.078085 0.000000 0.000004 1.239322 -0.426088 -1.410523
    6 13.446774 0.000347 0.000048 0.000003 0.000009 -0.786400
    7 15.996996 0.000362 0.000198 1.683091 -0.022584 0.229044
    8 -2.696754 7.324316 -1.920834 0.018589 0.011442 1.586441
    9 35.019260 7.487988 -2.080860 1.582240 -0.018573 -3.126170
    10 0.003906 0.011446 1.352395 0.007039 -1.370800 3.132182
    11 6.078087 0.000010 0.000000 -0.081958 0.489144 -0.742086
    12 13.446751 -0.000118 -0.000002 0.000000 0.000002 -1.408789
    13 15.997011 -0.000214 0.000034 -0.832248 -0.504640 0.067667
    14 1.885342 0.833251 -2.177898 -1.101261 0.431034 0.584286
    15 1.506973 0.000002 -0.000006 0.000000 0.000000 -0.307166
    16 0.798355 -0.000006 -0.000001 0.000000 0.000000 -0.280985
    17 3.950314 -0.539917 -2.108883 -0.018073 -0.074638 0.227578
    18 1.545788 -0.000009 -0.000023 0.000008 -0.000001 1.200742
    19 1.667393 0.000006 -0.000015 -0.000002 0.000001 1.165834
    20 3.899471 -0.475413 -1.170902 -0.056809 -0.237759 0.233757
    21 1.528221 -0.000010 -0.000023 0.000008 0.000002 1.061113
    22 1.528214 -0.000004 -0.000011 0.000004 0.000002 1.209468
    23 3.899460 -0.431834 0.168213 -0.072893 -0.302236 0.238121
    24 1.506962 -0.000010 -0.000008 0.000003 -0.000002 1.157108
    25 1.506962 -0.000002 -0.000019 0.000008 0.000002 1.069842
    26 3.915634 -0.278044 1.402588 -0.072041 -0.298857 0.237854
    27 1.333088 -0.000008 -0.000015 0.000006 -0.000002 1.366547
    28 1.159203 -0.000006 -0.000019 0.000008 0.000002 0.947669
  time 34
    0 -13.093750 -12.070313 -24.812500 0.000000 0.000000 -1.570796
    1 0.000000 0.000000 0.000000 -0.008133 -1.570448 -1.562664
    2 4.443615 -0.009641 0.000006 -0.000004 -0.000004 0.000790
    3 12.109375 -0.011360 -0.000421 0.000000 0.000000 0.000000
    4 -0.000511 0.011444 -1.351563 -0.006762 1.370786 3.132536
    5 6.078085 0.000000 0.000004 1.243900 -0.395380 -1.422040
    6 13.446774 0.000347 0.000048 0.000003 0.000009 -0.728028
    7 15.996996 0.000362 0.000198 1.680910 -0.023902 0.211594
    8 -2.696754 7.324316 -1.920834 0.018601 0.011442 1.586441
    9 35.019260 7.487988 -2.080860 1.582240 -0.018573 -3.126170
    10 0.003906 0.011446 1.352395 0.007039 -1.370800 3.132182
    11 6.078087 0.000010 0.000000 -0.093297 0.485206 -0.761765
    12 13.446751 -0.000118 -0.000002 0.000000 0.000002 -1.382493
    13 15.997011 -0.000214 0.000034 -0.841054 -0.497295 0.067775
    14 1.885342 0.833251 -2.177898 -1.101261 0.431034 0.584286
    15 1.506973 0.000002 -0.000006 0.000000 0.000000 -0.307166
    16 0.798355 -0.000006 -0.000001 0.000000 0.000000 -0.280985
    17 3.950314 -0.539917 -2.108883 -0.018073 -0.074638 0.227578
    18 1.545788 -0.000009 -0.000023 0.000008 -0.000001 1.200742
    19 1.667393 0.000006 -0.000015 -0.000002 0.000001 1.165834
    20 3.899471 -0.475413 -1.170902 -0.056809 -0.237759 0.233757
    21 1.528221 -0.000010 -0.000023 0.000008 0.000002 1.061113
    22 1.528214 -0.000004 -0.000011 0.000004 0.000002 1.209468
    23 3.899460 -0.431834 0.168213 -0.072893 -0.302236 0.238121
    24 1.506962 -0.000010 -0.000008 0.000003 -0.000002 1.157108
    25 1.506962 -0.000002 -0.000019 0.000008 0.000002 1.069842
    26 3.915634 -0.278044 1.402588 -0.072041 -0.298857 0.237854
    27 1.333088 -0.000008 -0.000015 0.000006 -0.000002 1.366547
    28 1.159203 -0.000006 -0.000019 0.000008 0.000002 0.947669
  time 35
    0 -13.093750 -12.070313 -24.812500 0.000000 0.000000 -1.570796
    1 0.000000 0.000000 0.000000 -0.008133 -1.570448 -1.562664
    2 4.443615 -0.009641 0.000006 -0.000004 -0.000004 0.000790
    3 12.109375 -0.011360 -0.000421 0.000000 0.000000 0.000000
    4 -0.000511 0.011444 -1.351563 -0.006762 1.370786 3.132536
    5 6.078085 0.000000 0.000004 1.250264 -0.346810 -1.439609
    6 13.446774 0.000347 0.000048 0.000003 0.000009 -0.636231
    7 15.996996 0.000362 0.000198 1.680730 -0.021481 0.182423
    8 -2.696754 7.324316 -1.920834 0.018589 0.011442 1.586441
    9 35.019260 7.487988 -2.080860 1.582240 -0.018573 -3.126170
    10 0.003906 0.011446 1.352395 0.007039 -1.370800 3.132182
    11 6.078087 0.000010 0.000000 -0.112911 0.476424 -0.792760
    12 13.446751 -0.000118 -0.000002 0.000000 0.000002 -1.339417
    13 15.997011 -0.000214 0.000034 -0.851711 -0.480819 0.061555
    14 1.885342 0.833251 -2.177898 -1.101261 0.431034 0.584286
    15 1.506973 0.000002 -0.000006 0.000000 0.000000 -0.307166
    16 0.798355 -0.000006 -0.000001 0.000000 0.000000 -0.280985
    17 3.950314 -0.539917 -2.108883 -0.018073 -0.074638 0.227578
    18 1.545788 -0.000009 -0.000023 0.000008 -0.000001 1.200742
    19 1.667393 0.000006 -0.000015 -0.000002 0.000001 1.165834
    20 3.899471 -0.475413 -1.170902 -0.056821 -0.237759 0.233757
    21 1.528221 -0.000010 -0.000023 0.000008 0.000002 1.061113
    22 1.528214 -0.000004 -0.000011 0.000004 0.000002 1.209468
    23 3.899460 -0.431834 0.168213 -0.072893 -0.302236 0.238109
    24 1.506962 -0.000010 -0.000008 0.000003 -0.000002 1.157108
    25 1.506962 -0.000002 -0.000019 0.000008 0.000002 1.069842
    26 3.915634 -0.278044 1.402588 -0.072041 -0.298857 0.237854
    27 1.333088 -0.000008 -0.000015 0.000006 -0.000002 1.366547
    28 1.159203 -0.000006 -0.000019 0.000008 0.000002 0.947669
  time 36
    0 -13.093750 -12.070313 -24.812500 0.000000 0.000000 -1.570796
    1 0.000000 0.000000 0.000000 -0.008133 -1.570448 -1.562664
    2 4.443615 -0.009641 0.000006 -0.000004 -0.000004 0.000790
    3 12.109375 -0.011360 -0.000421 0.000000 0.000000 0.000000
    4 -0.000511 0.011444 -1.351563 -0.006762 1.370786 3.132536
    5 6.078085 0.000000 0.000004 1.256304 -0.291214 -1.458964
    6 13.446774 0.000347 0.000048 0.000003 0.000009 -0.531447
    7 15.996996 0.000362 0.000198 1.681150 -0.017982 0.148879
    8 -2.696754 7.324316 -1.920834 0.018589 0.011442 1.586441
    9 35.019260 7.487988 -2.080860 1.582240 -0.018573 -3.126170
    10 0.003906 0.011446 1.352395 0.007039 -1.370800 3.132182
    11 6.078087 0.000010 0.000000 -0.132831 0.466178 -0.823859
    12 13.446751 -0.000118 -0.000002 0.000000 0.000002 -1.295406
    13 15.997011 -0.000214 0.000034 -0.862548 -0.461639 0.054772
    14 1.885342 0.833251 -2.177898 -1.101261 0.431034 0.584286
    15 1.506973 0.000002 -0.000006 0.000000 0.000000 -0.307166
    16 0.798355 -0.000006 -0.000001 0.000000 0.000000 -0.280985
    17 3.950314 -0.539917 -2.108883 -0.018073 -0.074626 0.227578
    18 1.545788 -0.000009 -0.000023 0.000008 -0.000001 1.200742
    19 1.667393 0.000006 -0.000015 -0.000002 0.000001 1.165834
    20 3.899471 -0.475413 -1.170902 -0.056809 -0.237759 0.233757
    21 1.528221 -0.000010 -0.000023 0.000008 0.000002 1.061113
    22 1.528214 -0.000004 -0.000011 0.000004 0.000002 1.209468
    23 3.899460 -0.431834 0.168213 -0.072893 -0.302236 0.238121
    24 1.506962 -0.000010 -0.000008 0.000003 -0.000002 1.157108
    25 1.506962 -0.000002 -0.000019 0.000008 0.000002 1.069842
    26 3.915634 -0.278044 1.402588 -0.072041 -0.298857 0.237854
    27 1.333088 -0.000008 -0.000015 0.000006 -0.000002 1.366547
    28 1.159203 -0.000006 -0.000019 0.000008 0.000002 0.947669
  time 37
    0 -13.093750 -12.070313 -24.812500 0.000000 0.000000 -1.570796
    1 0.000000 0.000000 0.000000 -0.008133 -1.570448 -1.562664
    2 4.443615 -0.009641 0.000006 -0.000004 -0.000004 0.000790
    3 12.109375 -0.011360 -0.000421 0.000000 0.000000 0.000000
    4 -0.000511 0.011444 -1.351563 -0.006762 1.370786 3.132536
    5 6.078085 0.000000 0.000004 1.261505 -0.230889 -1.479206
    6 13.446774 0.000347 0.000048 0.000003 0.000009 -0.418045
    7 15.996996 0.000362 0.000198 1.681869 -0.013691 0.112386
    8 -2.696754 7.324316 -1.920834 0.018589 0.011442 1.586441
    9 35.019260 7.487988 -2.080860 1.582240 -0.018573 -3.126170
    10 0.003906 0.011446 1.352395 0.007039 -1.370800 3.132182
    11 6.078087 0.000010 0.000000 -0.151027 0.455619 -0.851869
    12 13.446751 -0.000118 -0.000002 0.000000 0.000002 -1.255219
    13 15.997011 -0.000214 0.000034 -0.873205 -0.441056 0.048935
    14 1.885342 0.833251 -2.177898 -1.101261 0.431034 0.584286
    15 1.506973 0.000002 -0.000006 0.000000 0.000000 -0.307166
    16 0.798355 -0.000006 -0.000001 0.000000 0.000000 -0.280985
    17 3.950314 -0.539917 -2.108883 -0.018073 -0.074626 0.227578
    18 1.545788 -0.000009 -0.000023 0.000008 -0.000001 1.200742
    19 1.667393 0.000006 -0.000015 -0.000002 0.000001 1.165834
    20 3.899471 -0.475413 -1.170902 -0.056821 -0.237759 0.233757
    21 1.528221 -0.000010 -0.000023 0.000008 0.000002 1.061113
    22 1.528214 -0.000004 -0.000011 0.000004 0.000002 1.209468
    23 3.899460 -0.431834 0.168213 -0.072893 -0.302236 0.238121
    24 1.506962 -0.000010 -0.000008 0.000003 -0.000002 1.157108
    25 1.506962 -0.000002 -0.000019 0.000008 0.000002 1.069842
    26 3.915634 -0.278044 1.402588 -0.072041 -0.298857 0.237854
    27 1.333088 -0.000008 -0.000015 0.000006 -0.000002 1.366547
    28 1.159203 -0.000006 -0.000019 0.000008 0.000002 0.947669
  time 38
    0 -13.093750 -12.070313 -24.812500 0.000000 0.000000 -1.570796
    1 0.000000 0.000000 0.000000 -0.008133 -1.570448 -1.562664
    2 4.443615 -0.009641 0.000006 -0.000004 -0.000004 0.000790
    3 12.109375 -0.011360 -0.000421 0.000000 0.000000 0.000000
    4 -0.000511 0.011444 -1.351563 -0.006762 1.370786 3.132536
    5 6.078085 0.000000 0.000004 1.265520 -0.168172 -1.499628
    6 13.446774 0.000347 0.000048 0.000003 0.000009 -0.300249
    7 15.996996 0.000362 0.000198 1.682636 -0.009017 0.074418
    8 -2.696754 7.324316 -1.920834 0.018601 0.011442 1.586441
    9 35.019260 7.487988 -2.080860 1.582240 -0.018573 -3.126170
    10 0.003906 0.011446 1.352395 0.007039 -1.370800 3.132182
    11 6.078087 0.000010 0.000000 -0.166159 0.445617 -0.874291
    12 13.446751 -0.000118 -0.000002 0.000000 0.000002 -1.222848
    13 15.997011 -0.000214 0.000034 -0.883410 -0.420223 0.045543
    14 1.885342 0.833251 -2.177898 -1.101246 0.431034 0.584286
    15 1.506973 0.000002 -0.000006 0.000000 0.000000 -0.307166
    16 0.798355 -0.000006 -0.000001 0.000000 0.000000 -0.280985
    17 3.950314 -0.539917 -2.108883 -0.018073 -0.074626 0.227578
    18 1.545788 -0.000009 -0.000023 0.000008 -0.000001 1.200742
    19 1.667393 0.000006 -0.000015 -0.000002 0.000001 1.165834
    20 3.899471 -0.475413 -1.170902 -0.056809 -0.237759 0.233757
    21 1.528221 -0.000010 -0.000023 0.000008 0.000002 1.061113
    22 1.528214 -0.000004 -0.000011 0.000004 0.000002 1.209468
    23 3.899460 -0.431834 0.168213 -0.072893 -0.302236 0.238121
    24 1.506962 -0.000010 -0.000008 0.000003 -0.000002 1.157108
    25 1.506962 -0.000002 -0.000019 0.000008 0.000002 1.069842
    26 3.915634 -0.278044 1.402588 -0.072041 -0.298857 0.237854
    27 1.333088 -0.000008 -0.000015 0.000006 -0.000002 1.366547
    28 1.159203 -0.000006 -0.000019 0.000008 0.000002 0.947669
  time 39
    0 -13.093750 -12.070313 -24.812500 0.000000 0.000000 -1.570796
    1 0.000000 0.000000 0.000000 -0.008133 -1.570448 -1.562664
    2 4.443615 -0.009641 0.000006 -0.000004 -0.000004 0.000790
    3 12.109375 -0.011360 -0.000421 0.000000 0.000000 0.000000
    4 -0.000511 0.011444 -1.351563 -0.006762 1.370786 3.132536
    5 6.078085 0.000000 0.000004 1.268241 -0.105358 -1.519630
    6 13.446774 0.000347 0.000048 0.000003 0.000009 -0.182525
    7 15.996996 0.000362 0.000198 1.683223 -0.004307 0.036463
    8 -2.696754 7.324316 -1.920834 0.018589 0.011442 1.586441
    9 35.019260 7.487988 -2.080860 1.582240 -0.018573 -3.126170
    10 0.003906 0.011446 1.352395 0.007039 -1.370800 3.132182
    11 6.078087 0.000010 0.000000 -0.177268 0.437219 -0.889459
    12 13.446751 -0.000118 -0.000002 0.000000 0.000002 -1.201140
    13 15.997011 -0.000214 0.000034 -0.893029 -0.400192 0.045735
    14 1.885342 0.833251 -2.177898 -1.101261 0.431034 0.584286
    15 1.506973 0.000002 -0.000006 0.000000 0.000000 -0.307166
    16 0.798355 -0.000006 -0.000001 0.000000 0.000000 -0.280985
    17 3.950314 -0.539917 -2.108883 -0.018073 -0.074638 0.227578
    18 1.545788 -0.000009 -0.000023 0.000008 -0.000001 1.200742
    19 1.667393 0.000006 -0.000015 -0.000002 0.000001 1.165834
    20 3.899471 -0.475413 -1.170902 -0.056809 -0.237759 0.233757
    21 1.528221 -0.000010 -0.000023 0.000008 0.000002 1.061113
    22 1.528214 -0.000004 -0.000011 0.000004 0.000002 1.209468
    23 3.899460 -0.431834 0.168213 -0.072893 -0.302236 0.238121
    24 1.506962 -0.000010 -0.000008 0.000003 -0.000002 1.157108
    25 1.506962 -0.000002 -0.000019 0.000008 0.000002 1.069842
    26 3.915634 -0.278044 1.402588 -0.072041 -0.298857 0.237854
    27 1.333088 -0.000008 -0.000015 0.000006 -0.000002 1.366547
    28 1.159203 -0.000006 -0.000019 0.000008 0.000002 0.947669
  time 40
    0 -13.093750 -12.070313 -24.812500 0.000000 0.000000 -1.570796
    1 0.000000 0.000000 0.000000 -0.008133 -1.570448 -1.562664
    2 4.443615 -0.009641 0.000006 -0.000004 -0.000004 0.000790
    3 12.109375 -0.011360 -0.000421 0.000000 0.000000 0.000000
    4 -0.000511 0.011444 -1.351563 -0.006762 1.370786 3.132536
    5 6.078085 0.000000 0.000004 1.269619 -0.044823 -1.538626
    6 13.446774 0.000347 0.000048 0.000003 0.000009 -0.069099
    7 15.996996 0.000362 0.000198 1.683439 -0.000005 -0.000006
    8 -2.696754 7.324316 -1.920834 0.018589 0.011442 1.586441
    9 35.019260 7.487988 -2.080860 1.582240 -0.018573 -3.126170
    10 0.003906 0.011446 1.352395 0.007039 -1.370800 3.132182
    11 6.078087 0.000010 0.000000 -0.184202 0.430946 -0.896852
    12 13.446751 -0.000118 -0.000002 0.000000 0.000002 -1.191199
    13 15.997011 -0.000214 0.000034 -0.901970 -0.381913 0.050062
    14 1.885342 0.833251 -2.177898 -1.101261 0.431034 0.584286
    15 1.506973 0.000002 -0.000006 0.000000 0.000000 -0.307166
    16 0.798355 -0.000006 -0.000001 0.000000 0.000000 -0.280985
    17 3.950314 -0.539917 -2.108883 -0.018073 -0.074626 0.227578
    18 1.545788 -0.000009 -0.000023 0.000008 -0.000001 1.200742
    19 1.667393 0.000006 -0.000015 -0.000002 0.000001 1.165834
    20 3.899471 -0.475413 -1.170902 -0.056821 -0.237759 0.233757
    21 1.528221 -0.000010 -0.000023 0.000008 0.000002 1.061113
    22 1.528214 -0.000004 -0.000011 0.000004 0.000002 1.209468
    23 3.899460 -0.431834 0.168213 -0.072893 -0.302236 0.238121
    24 1.506962 -0.000010 -0.000008 0.000003 -0.000002 1.157108
    25 1.506962 -0.000002 -0.000019 0.000008 0.000002 1.069842
    26 3.915634 -0.278044 1.402588 -0.072041 -0.298857 0.237854
    27 1.333088 -0.000008 -0.000015 0.000006 -0.000002 1.366547
    28 1.159203 -0.000006 -0.000019 0.000008 0.000002 0.947669
end
