// Created by Crowbar 0.74
version 1
nodes
  0 "Bip01" -1
  1 "Bip01 Pelvis" 0
  2 "Bip01 Spine" 1
  3 "Bip01 Neck" 2
  4 "Bip01 L Clavicle" 3
  5 "Bip01 L UpperArm" 4
  6 "Bip01 L Forearm" 5
  7 "Bip01 L Hand" 6
  8 "Bip01 L Finger0" 7
  9 "Bip01 L Finger01" 8
  10 "Bip01 L Finger02" 9
  11 "Bip01 L Finger1" 7
  12 "Bip01 L Finger11" 11
  13 "Bip01 L Finger12" 12
  14 "Bip01 L Finger2" 7
  15 "Bip01 L Finger21" 14
  16 "Bip01 L Finger22" 15
  17 "Bip01 L Finger3" 7
  18 "Bip01 L Finger31" 17
  19 "Bip01 L Finger32" 18
  20 "Bip01 L Finger4" 7
  21 "Bip01 L Finger41" 20
  22 "Bip01 L Finger42" 21
  23 "Dummy17" 7
  24 "Bip01 R Clavicle" 3
  25 "Bip01 R UpperArm" 24
  26 "Bip01 R Forearm" 25
  27 "Bip01 R Hand" 26
  28 "Bip01 R Finger0" 27
  29 "Bip01 R Finger01" 28
  30 "Bip01 R Finger02" 29
  31 "Bip01 R Finger1" 27
  32 "Bip01 R Finger11" 31
  33 "Bip01 R Finger12" 32
  34 "Bip01 R Finger2" 27
  35 "Bip01 R Finger21" 34
  36 "Bip01 R Finger22" 35
  37 "Bip01 R Finger3" 27
  38 "Bip01 R Finger31" 37
  39 "Bip01 R Finger32" 38
  40 "Bip01 R Finger4" 27
  41 "Bip01 R Finger41" 40
  42 "Bip01 R Finger42" 41
  43 "Dummy14" 27
  44 "Dummy15" 43
  45 "Dummy16" 43
end
skeleton
  time 0
    0 0.928525 1.014336 -19.461068 0.000000 0.000000 -1.570792
    1 0.000000 0.000000 0.000002 -0.000086 -1.570451 -1.570709
    2 4.443615 -0.009642 0.000006 -0.000004 -0.000001 0.000796
    3 12.111412 -0.011446 0.000000 0.000000 0.000000 0.000000
    4 0.000010 0.011442 1.352402 -0.000014 -1.370796 3.140810
    5 6.078090 0.000001 -0.000005 -0.531509 1.219836 -0.541120
    6 13.446754 -0.000001 0.000001 0.000000 0.000000 -0.648458
    7 15.997000 0.000001 -0.000001 -1.683447 0.000000 0.000000
    8 1.885325 0.833276 -2.177876 -1.598016 0.698132 -0.000668
    9 1.506960 -0.000006 0.000000 0.000000 0.000000 -0.139626
    10 0.798348 0.000003 0.000000 0.000000 0.000000 -0.113446
    11 3.950302 -0.539875 -2.108871 -0.000806 0.157080 -0.000126
    12 1.545797 -0.000002 -0.000001 0.000000 0.000000 0.471239
    13 1.667398 0.000001 0.000007 0.000000 0.000000 0.436332
    14 3.899452 -0.475378 -1.170893 -0.000796 0.000000 0.000000
    15 1.528218 0.000003 0.000001 0.000000 0.000000 0.331613
    16 1.528216 -0.000001 -0.000003 0.000000 0.000000 0.479966
    17 3.899459 -0.431804 0.168223 -0.000796 0.000000 0.000000
    18 1.506968 0.000002 -0.000001 0.000000 0.000000 0.427606
    19 1.506962 -0.000001 0.000001 0.000000 0.000000 0.340339
    20 3.915634 -0.278020 1.402608 -0.000796 0.000000 0.000000
    21 1.333080 0.000000 -0.000001 0.000000 0.000000 0.637045
    22 1.159204 0.000000 -0.000002 0.000000 0.000000 0.218166
    23 18.209354 8.207681 -0.352298 -1.582244 0.018583 -3.126150
    24 0.000009 0.011450 -1.352403 -0.000014 1.370796 3.140783
    25 6.078084 0.000002 0.000003 0.904438 -1.070826 -0.950028
    26 13.446754 0.000000 0.000001 0.000000 0.000000 -0.753178
    27 15.996995 -0.000005 0.000002 1.674625 -0.379612 0.431418
    28 1.885328 0.833275 2.177871 1.172048 -0.644537 0.438889
    29 1.506965 0.000005 0.000001 0.000000 0.000000 -0.436329
    30 0.798347 -0.000007 0.000000 0.000000 0.000000 -0.507879
    31 3.950304 -0.539874 2.108875 0.012323 0.110212 -0.171410
    32 1.545799 -0.000001 -0.000003 0.000000 0.000000 0.513113
    33 1.667398 -0.000003 0.000005 0.000000 0.000000 0.785377
    34 3.899461 -0.475375 1.170889 -0.037591 0.101270 -0.055752
    35 1.528212 -0.000001 -0.000002 0.000000 0.000000 1.575956
    36 1.528216 0.000001 0.000009 0.000000 0.000000 1.352577
    37 3.899461 -0.431803 -0.168226 0.093305 -0.006316 0.182573
    38 1.506965 0.000000 -0.000001 0.000000 0.000000 1.708639
    39 1.506965 0.000002 0.000001 0.000000 0.000000 1.310683
    40 3.915634 -0.278019 -1.402605 0.217310 -0.078619 0.205835
    41 1.333087 0.000000 -0.000001 0.000000 0.000000 1.464281
    42 1.159203 0.000002 -0.000008 0.000000 0.000000 1.370013
    43 3.495615 0.355083 1.563391 1.582244 -0.018583 -3.126153
    44 -2.156468 1.809614 0.001208 0.000000 0.000000 0.000000
    45 -6.613107 1.564316 -0.031845 0.000000 0.000000 0.000000
  time 1
    0 0.928525 1.014336 -19.461068 0.000000 0.000000 -1.570792
    1 0.000000 0.000000 0.000002 -0.000086 -1.570451 -1.570709
    2 4.443615 -0.009642 0.000006 -0.000004 -0.000001 0.000796
    3 12.111412 -0.011446 0.000000 0.000000 0.000000 0.000000
    4 0.000010 0.011442 1.352402 -0.000014 -1.370796 3.140810
    5 6.078090 0.000001 -0.000005 -0.531509 1.219836 -0.541120
    6 13.446754 -0.000001 0.000001 0.000000 0.000000 -0.648458
    7 15.997000 0.000001 -0.000001 -1.683447 0.000000 0.000000
    8 1.885325 0.833276 -2.177876 -1.598016 0.698132 -0.000668
    9 1.506960 -0.000006 0.000000 0.000000 0.000000 -0.139626
    10 0.798348 0.000003 0.000000 0.000000 0.000000 -0.113446
    11 3.950302 -0.539875 -2.108871 -0.000806 0.157080 -0.000126
    12 1.545797 -0.000002 -0.000001 0.000000 0.000000 0.471239
    13 1.667398 0.000001 0.000007 0.000000 0.000000 0.436332
    14 3.899452 -0.475378 -1.170893 -0.000796 0.000000 0.000000
    15 1.528218 0.000003 0.000001 0.000000 0.000000 0.331613
    16 1.528216 -0.000001 -0.000003 0.000000 0.000000 0.479966
    17 3.899459 -0.431804 0.168223 -0.000796 0.000000 0.000000
    18 1.506968 0.000002 -0.000001 0.000000 0.000000 0.427606
    19 1.506962 -0.000001 0.000001 0.000000 0.000000 0.340339
    20 3.915634 -0.278020 1.402608 -0.000796 0.000000 0.000000
    21 1.333080 0.000000 -0.000001 0.000000 0.000000 0.637045
    22 1.159204 0.000000 -0.000002 0.000000 0.000000 0.218166
    23 18.209354 8.207681 -0.352298 -1.582244 0.018583 -3.126150
    24 0.000009 0.011450 -1.352403 -0.000014 1.370796 3.140783
    25 6.078084 0.000002 0.000003 0.921786 -1.058565 -0.969972
    26 13.446754 0.000000 0.000001 0.000000 0.000000 -0.777023
    27 15.996995 -0.000005 0.000002 1.662629 -0.406412 0.449219
    28 1.885328 0.833275 2.177871 1.172048 -0.644537 0.438889
    29 1.506965 0.000005 0.000001 0.000000 0.000000 -0.436329
    30 0.798347 -0.000007 0.000000 0.000000 0.000000 -0.507879
    31 3.950304 -0.539874 2.108875 0.012323 0.110212 -0.171410
    32 1.545799 -0.000001 -0.000003 0.000000 0.000000 0.513113
    33 1.667398 -0.000003 0.000005 0.000000 0.000000 0.785377
    34 3.899461 -0.475375 1.170889 -0.037591 0.101270 -0.055752
    35 1.528212 -0.000001 -0.000002 0.000000 0.000000 1.575956
    36 1.528216 0.000001 0.000009 0.000000 0.000000 1.352577
    37 3.899461 -0.431803 -0.168226 0.093293 -0.006316 0.182573
    38 1.506965 0.000000 -0.000001 0.000000 0.000000 1.708639
    39 1.506965 0.000002 0.000001 0.000000 0.000000 1.310683
    40 3.915634 -0.278019 -1.402605 0.217310 -0.078619 0.205835
    41 1.333087 0.000000 -0.000001 0.000000 0.000000 1.464281
    42 1.159203 0.000002 -0.000008 0.000000 0.000000 1.370013
    43 3.495615 0.351176 1.563391 1.582244 -0.018583 -3.126153
    44 -2.156468 1.809614 0.001208 0.000000 0.000000 0.000000
    45 -6.613107 1.564316 -0.031845 0.000000 0.000000 0.000000
  time 2
    0 0.928525 1.014336 -19.461068 0.000000 0.000000 -1.570792
    1 0.000000 0.000000 0.000002 -0.000086 -1.570451 -1.570709
    2 4.443615 -0.009642 0.000006 -0.000004 -0.000001 0.000796
    3 12.111412 -0.011446 0.000000 0.000000 0.000000 0.000000
    4 0.000010 0.011442 1.352402 -0.000014 -1.370796 3.140810
    5 6.078090 0.000001 -0.000005 -0.531509 1.219836 -0.541120
    6 13.446754 -0.000001 0.000001 0.000000 0.000000 -0.648458
    7 15.997000 0.000001 -0.000001 -1.683447 0.000000 0.000000
    8 1.885325 0.833276 -2.177876 -1.598016 0.698132 -0.000668
    9 1.506960 -0.000006 0.000000 0.000000 0.000000 -0.139626
    10 0.798348 0.000003 0.000000 0.000000 0.000000 -0.113446
    11 3.950302 -0.539875 -2.108871 -0.000806 0.157080 -0.000126
    12 1.545797 -0.000002 -0.000001 0.000000 0.000000 0.471239
    13 1.667398 0.000001 0.000007 0.000000 0.000000 0.436332
    14 3.899452 -0.475378 -1.170893 -0.000796 0.000000 0.000000
    15 1.528218 0.000003 0.000001 0.000000 0.000000 0.331613
    16 1.528216 -0.000001 -0.000003 0.000000 0.000000 0.479966
    17 3.899459 -0.431804 0.168223 -0.000796 0.000000 0.000000
    18 1.506968 0.000002 -0.000001 0.000000 0.000000 0.427606
    19 1.506962 -0.000001 0.000001 0.000000 0.000000 0.340339
    20 3.915634 -0.278020 1.402608 -0.000796 0.000000 0.000000
    21 1.333080 0.000000 -0.000001 0.000000 0.000000 0.637045
    22 1.159204 0.000000 -0.000002 0.000000 0.000000 0.218166
    23 18.209354 8.207681 -0.352298 -1.582244 0.018583 -3.126150
    24 0.000009 0.011450 -1.352403 -0.000014 1.370796 3.140783
    25 6.078084 0.000002 0.000003 0.938652 -1.046009 -0.989474
    26 13.446754 0.000000 0.000001 0.000000 0.000000 -0.801107
    27 15.996995 -0.000005 0.000002 1.648727 -0.434721 0.470261
    28 1.885328 0.833275 2.177871 1.172048 -0.644537 0.438889
    29 1.506965 0.000005 0.000001 0.000000 0.000000 -0.436329
    30 0.798347 -0.000007 0.000000 0.000000 0.000000 -0.507879
    31 3.950304 -0.539874 2.108875 0.012323 0.110212 -0.171410
    32 1.545799 -0.000001 -0.000003 0.000000 0.000000 0.513113
    33 1.667398 -0.000003 0.000005 0.000000 0.000000 0.785377
    34 3.899461 -0.475375 1.170889 -0.037591 0.101270 -0.055752
    35 1.528212 -0.000001 -0.000002 0.000000 0.000000 1.575956
    36 1.528216 0.000001 0.000009 0.000000 0.000000 1.352577
    37 3.899461 -0.431803 -0.168226 0.093293 -0.006316 0.182573
    38 1.506965 0.000000 -0.000001 0.000000 0.000000 1.708639
    39 1.506965 0.000002 0.000001 0.000000 0.000000 1.310683
    40 3.915634 -0.278019 -1.402605 0.217310 -0.078619 0.205835
    41 1.333087 0.000000 -0.000001 0.000000 0.000000 1.464281
    42 1.159203 0.000002 -0.000008 0.000000 0.000000 1.370013
    43 3.495615 0.351176 1.563391 1.582244 -0.018583 -3.126153
    44 -2.156468 1.809614 0.001208 0.000000 0.000000 0.000000
    45 -6.617014 1.564316 -0.031845 0.000000 0.000000 0.000000
  time 3
    0 0.928525 1.014336 -19.461068 0.000000 0.000000 -1.570792
    1 0.000000 0.000000 0.000002 -0.000086 -1.570451 -1.570709
    2 4.443615 -0.009642 0.000006 -0.000004 -0.000001 0.000796
    3 12.111412 -0.011446 0.000000 0.000000 0.000000 0.000000
    4 0.000010 0.011442 1.352402 -0.000014 -1.370796 3.140810
    5 6.078090 0.000001 -0.000005 -0.531509 1.219836 -0.541120
    6 13.446754 -0.000001 0.000001 0.000000 0.000000 -0.648458
    7 15.997000 0.000001 -0.000001 -1.683447 0.000000 0.000000
    8 1.885325 0.833276 -2.177876 -1.598016 0.698132 -0.000668
    9 1.506960 -0.000006 0.000000 0.000000 0.000000 -0.139626
    10 0.798348 0.000003 0.000000 0.000000 0.000000 -0.113446
    11 3.950302 -0.539875 -2.108871 -0.000806 0.157080 -0.000126
    12 1.545797 -0.000002 -0.000001 0.000000 0.000000 0.471239
    13 1.667398 0.000001 0.000007 0.000000 0.000000 0.436332
    14 3.899452 -0.475378 -1.170893 -0.000796 0.000000 0.000000
    15 1.528218 0.000003 0.000001 0.000000 0.000000 0.331613
    16 1.528216 -0.000001 -0.000003 0.000000 0.000000 0.479966
    17 3.899459 -0.431804 0.168223 -0.000796 0.000000 0.000000
    18 1.506968 0.000002 -0.000001 0.000000 0.000000 0.427606
    19 1.506962 -0.000001 0.000001 0.000000 0.000000 0.340339
    20 3.915634 -0.278020 1.402608 -0.000796 0.000000 0.000000
    21 1.333080 0.000000 -0.000001 0.000000 0.000000 0.637045
    22 1.159204 0.000000 -0.000002 0.000000 0.000000 0.218166
    23 18.209354 8.207681 -0.352298 -1.582244 0.018583 -3.126150
    24 0.000009 0.011450 -1.352403 -0.000014 1.370796 3.140783
    25 6.078084 0.000002 0.000003 0.954909 -1.033189 -1.008472
    26 13.446754 0.000000 0.000001 0.000000 0.000000 -0.825528
    27 15.996995 -0.000005 0.000002 1.632955 -0.464099 0.494138
    28 1.885328 0.833275 2.177871 1.172048 -0.644525 0.438889
    29 1.506965 0.000005 0.000001 0.000000 0.000000 -0.436329
    30 0.798347 -0.000007 0.000000 0.000000 0.000000 -0.507879
    31 3.950304 -0.539874 2.108875 0.012323 0.110212 -0.171410
    32 1.545799 -0.000001 -0.000003 0.000000 0.000000 0.513113
    33 1.667398 -0.000003 0.000005 0.000000 0.000000 0.785377
    34 3.899461 -0.475375 1.170889 -0.037591 0.101270 -0.055752
    35 1.528212 -0.000001 -0.000002 0.000000 0.000000 1.575956
    36 1.528216 0.000001 0.000009 0.000000 0.000000 1.352577
    37 3.899461 -0.431803 -0.168226 0.093305 -0.006316 0.182573
    38 1.506965 0.000000 -0.000001 0.000000 0.000000 1.708600
    39 1.506965 0.000002 0.000001 0.000000 0.000000 1.310683
    40 3.915634 -0.278019 -1.402605 0.217310 -0.078607 0.205835
    41 1.333087 0.000000 -0.000001 0.000000 0.000000 1.464281
    42 1.159203 0.000002 -0.000008 0.000000 0.000000 1.370013
    43 3.495615 0.351176 1.563391 1.582244 -0.018583 -3.126153
    44 -2.156468 1.809614 0.001208 0.000000 0.000000 0.000000
    45 -6.613107 1.564316 -0.031845 0.000000 0.000000 0.000000
  time 4
    0 0.928525 1.014336 -19.461068 0.000000 0.000000 -1.570792
    1 0.000000 0.000000 0.000002 -0.000086 -1.570451 -1.570709
    2 4.443615 -0.009642 0.000006 -0.000004 -0.000001 0.000796
    3 12.111412 -0.011446 0.000000 0.000000 0.000000 0.000000
    4 0.000010 0.011442 1.352402 -0.000014 -1.370796 3.140810
    5 6.078090 0.000001 -0.000005 -0.531509 1.219836 -0.541120
    6 13.446754 -0.000001 0.000001 0.000000 0.000000 -0.648458
    7 15.997000 0.000001 -0.000001 -1.683447 0.000000 0.000000
    8 1.885325 0.833276 -2.177876 -1.598016 0.698132 -0.000668
    9 1.506960 -0.000006 0.000000 0.000000 0.000000 -0.139626
    10 0.798348 0.000003 0.000000 0.000000 0.000000 -0.113446
    11 3.950302 -0.539875 -2.108871 -0.000806 0.157080 -0.000126
    12 1.545797 -0.000002 -0.000001 0.000000 0.000000 0.471239
    13 1.667398 0.000001 0.000007 0.000000 0.000000 0.436332
    14 3.899452 -0.475378 -1.170893 -0.000796 0.000000 0.000000
    15 1.528218 0.000003 0.000001 0.000000 0.000000 0.331613
    16 1.528216 -0.000001 -0.000003 0.000000 0.000000 0.479966
    17 3.899459 -0.431804 0.168223 -0.000796 0.000000 0.000000
    18 1.506968 0.000002 -0.000001 0.000000 0.000000 0.427606
    19 1.506962 -0.000001 0.000001 0.000000 0.000000 0.340339
    20 3.915634 -0.278020 1.402608 -0.000796 0.000000 0.000000
    21 1.333080 0.000000 -0.000001 0.000000 0.000000 0.637045
    22 1.159204 0.000000 -0.000002 0.000000 0.000000 0.218166
    23 18.209354 8.207681 -0.352298 -1.582244 0.018583 -3.126150
    24 0.000009 0.011450 -1.352403 -0.000014 1.370796 3.140783
    25 6.078084 0.000002 0.000003 0.970573 -1.020172 -1.026902
    26 13.446754 0.000000 0.000001 0.000000 0.000000 -0.850238
    27 15.996995 -0.000005 0.000002 1.615398 -0.494011 0.520399
    28 1.885328 0.833275 2.177871 1.172048 -0.644537 0.438889
    29 1.506965 0.000005 0.000001 0.000000 0.000000 -0.436329
    30 0.798347 -0.000007 0.000000 0.000000 0.000000 -0.507867
    31 3.950304 -0.539874 2.108875 0.012323 0.110212 -0.171410
    32 1.545799 -0.000001 -0.000003 0.000000 0.000000 0.513113
    33 1.667398 -0.000003 0.000005 0.000000 0.000000 0.785377
    34 3.899461 -0.475375 1.170889 -0.037591 0.101270 -0.055752
    35 1.528212 -0.000001 -0.000002 0.000000 0.000000 1.575956
    36 1.528216 0.000001 0.000009 0.000000 0.000000 1.352577
    37 3.899461 -0.431803 -0.168226 0.093293 -0.006316 0.182573
    38 1.506965 0.000000 -0.000001 0.000000 0.000000 1.708639
    39 1.506965 0.000002 0.000001 0.000000 0.000000 1.310683
    40 3.915634 -0.278019 -1.402605 0.217310 -0.078619 0.205835
    41 1.333087 0.000000 -0.000001 0.000000 0.000000 1.464281
    42 1.159203 0.000002 -0.000008 0.000000 0.000000 1.370013
    43 3.495615 0.351176 1.563391 1.582244 -0.018583 -3.126153
    44 -2.156468 1.809614 0.001208 0.000000 0.000000 0.000000
    45 -6.613107 1.564316 -0.031845 0.000000 0.000000 0.000000
  time 5
    0 0.928525 1.014336 -19.461068 0.000000 0.000000 -1.570792
    1 0.000000 0.000000 0.000002 -0.000086 -1.570451 -1.570709
    2 4.443615 -0.009642 0.000006 -0.000004 -0.000001 0.000796
    3 12.111412 -0.011446 0.000000 0.000000 0.000000 0.000000
    4 0.000010 0.011442 1.352402 -0.000014 -1.370796 3.140810
    5 6.078090 0.000001 -0.000005 -0.531509 1.219836 -0.541120
    6 13.446754 -0.000001 0.000001 0.000000 0.000000 -0.648458
    7 15.997000 0.000001 -0.000001 -1.683447 0.000000 0.000000
    8 1.885325 0.833276 -2.177876 -1.598016 0.698132 -0.000668
    9 1.506960 -0.000006 0.000000 0.000000 0.000000 -0.139626
    10 0.798348 0.000003 0.000000 0.000000 0.000000 -0.113446
    11 3.950302 -0.539875 -2.108871 -0.000806 0.157080 -0.000126
    12 1.545797 -0.000002 -0.000001 0.000000 0.000000 0.471239
    13 1.667398 0.000001 0.000007 0.000000 0.000000 0.436332
    14 3.899452 -0.475378 -1.170893 -0.000796 0.000000 0.000000
    15 1.528218 0.000003 0.000001 0.000000 0.000000 0.331613
    16 1.528216 -0.000001 -0.000003 0.000000 0.000000 0.479966
    17 3.899459 -0.431804 0.168223 -0.000796 0.000000 0.000000
    18 1.506968 0.000002 -0.000001 0.000000 0.000000 0.427606
    19 1.506962 -0.000001 0.000001 0.000000 0.000000 0.340339
    20 3.915634 -0.278020 1.402608 -0.000796 0.000000 0.000000
    21 1.333080 0.000000 -0.000001 0.000000 0.000000 0.637045
    22 1.159204 0.000000 -0.000002 0.000000 0.000000 0.218166
    23 18.209354 8.207681 -0.352298 -1.582244 0.018583 -3.126150
    24 0.000009 0.011450 -1.352403 -0.000014 1.370796 3.140783
    25 6.078084 0.000002 0.000003 0.985518 -1.006957 -1.044681
    26 13.446754 0.000000 0.000001 0.000000 0.000000 -0.874947
    27 15.996995 -0.000005 0.000002 1.596174 -0.523993 0.548590
    28 1.885328 0.833275 2.177871 1.172048 -0.644537 0.438889
    29 1.506965 0.000005 0.000001 0.000000 0.000000 -0.436329
    30 0.798347 -0.000007 0.000000 0.000000 0.000000 -0.507879
    31 3.950304 -0.539874 2.108875 0.012323 0.110212 -0.171410
    32 1.545799 -0.000001 -0.000003 0.000000 0.000000 0.513113
    33 1.667398 -0.000003 0.000005 0.000000 0.000000 0.785377
    34 3.899461 -0.475375 1.170889 -0.037591 0.101270 -0.055752
    35 1.528212 -0.000001 -0.000002 0.000000 0.000000 1.575956
    36 1.528216 0.000001 0.000009 0.000000 0.000000 1.352577
    37 3.899461 -0.431803 -0.168226 0.093305 -0.006316 0.182573
    38 1.506965 0.000000 -0.000001 0.000000 0.000000 1.708639
    39 1.506965 0.000002 0.000001 0.000000 0.000000 1.310683
    40 3.915634 -0.278019 -1.402605 0.217310 -0.078619 0.205835
    41 1.333087 0.000000 -0.000001 0.000000 0.000000 1.464281
    42 1.159203 0.000002 -0.000008 0.000000 0.000000 1.370013
    43 3.495615 0.351176 1.563391 1.582244 -0.018583 -3.126153
    44 -2.156468 1.809614 0.001208 0.000000 0.000000 0.000000
    45 -6.617014 1.564316 -0.031845 0.000000 0.000000 0.000000
  time 6
    0 0.928525 1.014336 -19.461068 0.000000 0.000000 -1.570792
    1 0.000000 0.000000 0.000002 -0.000086 -1.570451 -1.570709
    2 4.443615 -0.009642 0.000006 -0.000004 -0.000001 0.000796
    3 12.111412 -0.011446 0.000000 0.000000 0.000000 0.000000
    4 0.000010 0.011442 1.352402 -0.000014 -1.370796 3.140810
    5 6.078090 0.000001 -0.000005 -0.531509 1.219836 -0.541120
    6 13.446754 -0.000001 0.000001 0.000000 0.000000 -0.648458
    7 15.997000 0.000001 -0.000001 -1.683447 0.000000 0.000000
    8 1.885325 0.833276 -2.177876 -1.598016 0.698132 -0.000668
    9 1.506960 -0.000006 0.000000 0.000000 0.000000 -0.139626
    10 0.798348 0.000003 0.000000 0.000000 0.000000 -0.113446
    11 3.950302 -0.539875 -2.108871 -0.000806 0.157080 -0.000126
    12 1.545797 -0.000002 -0.000001 0.000000 0.000000 0.471239
    13 1.667398 0.000001 0.000007 0.000000 0.000000 0.436332
    14 3.899452 -0.475378 -1.170893 -0.000796 0.000000 0.000000
    15 1.528218 0.000003 0.000001 0.000000 0.000000 0.331613
    16 1.528216 -0.000001 -0.000003 0.000000 0.000000 0.479966
    17 3.899459 -0.431804 0.168223 -0.000796 0.000000 0.000000
    18 1.506968 0.000002 -0.000001 0.000000 0.000000 0.427606
    19 1.506962 -0.000001 0.000001 0.000000 0.000000 0.340339
    20 3.915634 -0.278020 1.402608 -0.000796 0.000000 0.000000
    21 1.333080 0.000000 -0.000001 0.000000 0.000000 0.637045
    22 1.159204 0.000000 -0.000002 0.000000 0.000000 0.218166
    23 18.209354 8.207681 -0.352298 -1.582244 0.018583 -3.126150
    24 0.000009 0.011450 -1.352403 -0.000014 1.370796 3.140783
    25 6.078084 0.000002 0.000003 0.999787 -0.993612 -1.061766
    26 13.446754 0.000000 0.000001 0.000000 0.000000 -0.899753
    27 15.996995 -0.000005 0.000002 1.575513 -0.553603 0.578187
    28 1.885328 0.833275 2.177871 1.172048 -0.644537 0.438889
    29 1.506965 0.000005 0.000001 0.000000 0.000000 -0.436329
    30 0.798347 -0.000007 0.000000 0.000000 0.000000 -0.507879
    31 3.950304 -0.539874 2.108875 0.012323 0.110212 -0.171410
    32 1.545799 -0.000001 -0.000003 0.000000 0.000000 0.513113
    33 1.667398 -0.000003 0.000005 0.000000 0.000000 0.785377
    34 3.899461 -0.475375 1.170889 -0.037591 0.101270 -0.055752
    35 1.528212 -0.000001 -0.000002 0.000000 0.000000 1.575956
    36 1.528216 0.000001 0.000009 0.000000 0.000000 1.352577
    37 3.899461 -0.431803 -0.168226 0.093293 -0.006316 0.182573
    38 1.506965 0.000000 -0.000001 0.000000 0.000000 1.708600
    39 1.506965 0.000002 0.000001 0.000000 0.000000 1.310683
    40 3.915634 -0.278019 -1.402605 0.217310 -0.078619 0.205835
    41 1.333087 0.000000 -0.000001 0.000000 0.000000 1.464281
    42 1.159203 0.000002 -0.000008 0.000000 0.000000 1.370013
    43 3.495615 0.351176 1.563391 1.582244 -0.018583 -3.126153
    44 -2.156468 1.809614 0.001208 0.000000 0.000000 0.000000
    45 -6.613107 1.564316 -0.031845 0.000000 0.000000 0.000000
  time 7
    0 0.928525 1.014336 -19.461068 0.000000 0.000000 -1.570792
    1 0.000000 0.000000 0.000002 -0.000086 -1.570451 -1.570709
    2 4.443615 -0.009642 0.000006 -0.000004 -0.000001 0.000796
    3 12.111412 -0.011446 0.000000 0.000000 0.000000 0.000000
    4 0.000010 0.011442 1.352402 -0.000014 -1.370796 3.140810
    5 6.078090 0.000001 -0.000005 -0.531509 1.219836 -0.541120
    6 13.446754 -0.000001 0.000001 0.000000 0.000000 -0.648458
    7 15.997000 0.000001 -0.000001 -1.683447 0.000000 0.000000
    8 1.885325 0.833276 -2.177876 -1.598016 0.698132 -0.000668
    9 1.506960 -0.000006 0.000000 0.000000 0.000000 -0.139626
    10 0.798348 0.000003 0.000000 0.000000 0.000000 -0.113446
    11 3.950302 -0.539875 -2.108871 -0.000806 0.157080 -0.000126
    12 1.545797 -0.000002 -0.000001 0.000000 0.000000 0.471239
    13 1.667398 0.000001 0.000007 0.000000 0.000000 0.436332
    14 3.899452 -0.475378 -1.170893 -0.000796 0.000000 0.000000
    15 1.528218 0.000003 0.000001 0.000000 0.000000 0.331613
    16 1.528216 -0.000001 -0.000003 0.000000 0.000000 0.479966
    17 3.899459 -0.431804 0.168223 -0.000796 0.000000 0.000000
    18 1.506968 0.000002 -0.000001 0.000000 0.000000 0.427606
    19 1.506962 -0.000001 0.000001 0.000000 0.000000 0.340339
    20 3.915634 -0.278020 1.402608 -0.000796 0.000000 0.000000
    21 1.333080 0.000000 -0.000001 0.000000 0.000000 0.637045
    22 1.159204 0.000000 -0.000002 0.000000 0.000000 0.218166
    23 18.209354 8.207681 -0.352298 -1.582244 0.018583 -3.126150
    24 0.000009 0.011450 -1.352403 -0.000014 1.370796 3.140783
    25 6.078084 0.000002 0.000003 1.013296 -0.980167 -1.078095
    26 13.446754 0.000000 0.000001 0.000000 0.000000 -0.924414
    27 15.996995 -0.000005 0.000002 1.553665 -0.582446 0.608594
    28 1.885328 0.833275 2.177871 1.172048 -0.644537 0.438889
    29 1.506965 0.000005 0.000001 0.000000 0.000000 -0.436329
    30 0.798347 -0.000007 0.000000 0.000000 0.000000 -0.507879
    31 3.950304 -0.539874 2.108875 0.012323 0.110212 -0.171410
    32 1.545799 -0.000001 -0.000003 0.000000 0.000000 0.513113
    33 1.667398 -0.000003 0.000005 0.000000 0.000000 0.785377
    34 3.899461 -0.475375 1.170889 -0.037591 0.101270 -0.055752
    35 1.528212 -0.000001 -0.000002 0.000000 0.000000 1.575956
    36 1.528216 0.000001 0.000009 0.000000 0.000000 1.352577
    37 3.899461 -0.431803 -0.168226 0.093305 -0.006316 0.182573
    38 1.506965 0.000000 -0.000001 0.000000 0.000000 1.708639
    39 1.506965 0.000002 0.000001 0.000000 0.000000 1.310683
    40 3.915634 -0.278019 -1.402605 0.217310 -0.078607 0.205835
    41 1.333087 0.000000 -0.000001 0.000000 0.000000 1.464281
    42 1.159203 0.000002 -0.000008 0.000000 0.000000 1.370013
    43 3.495615 0.351176 1.563391 1.582244 -0.018583 -3.126153
    44 -2.156468 1.809614 0.001208 0.000000 0.000000 0.000000
    45 -6.613107 1.564316 -0.031845 0.000000 0.000000 0.000000
  time 8
    0 0.928525 1.014336 -19.461068 0.000000 0.000000 -1.570792
    1 0.000000 0.000000 0.000002 -0.000086 -1.570451 -1.570709
    2 4.443615 -0.009642 0.000006 -0.000004 -0.000001 0.000796
    3 12.111412 -0.011446 0.000000 0.000000 0.000000 0.000000
    4 0.000010 0.011442 1.352402 -0.000014 -1.370796 3.140810
    5 6.078090 0.000001 -0.000005 -0.531509 1.219836 -0.541120
    6 13.446754 -0.000001 0.000001 0.000000 0.000000 -0.648458
    7 15.997000 0.000001 -0.000001 -1.683447 0.000000 0.000000
    8 1.885325 0.833276 -2.177876 -1.598016 0.698132 -0.000668
    9 1.506960 -0.000006 0.000000 0.000000 0.000000 -0.139626
    10 0.798348 0.000003 0.000000 0.000000 0.000000 -0.113446
    11 3.950302 -0.539875 -2.108871 -0.000806 0.157080 -0.000126
    12 1.545797 -0.000002 -0.000001 0.000000 0.000000 0.471239
    13 1.667398 0.000001 0.000007 0.000000 0.000000 0.436332
    14 3.899452 -0.475378 -1.170893 -0.000796 0.000000 0.000000
    15 1.528218 0.000003 0.000001 0.000000 0.000000 0.331613
    16 1.528216 -0.000001 -0.000003 0.000000 0.000000 0.479966
    17 3.899459 -0.431804 0.168223 -0.000796 0.000000 0.000000
    18 1.506968 0.000002 -0.000001 0.000000 0.000000 0.427606
    19 1.506962 -0.000001 0.000001 0.000000 0.000000 0.340339
    20 3.915634 -0.278020 1.402608 -0.000796 0.000000 0.000000
    21 1.333080 0.000000 -0.000001 0.000000 0.000000 0.637045
    22 1.159204 0.000000 -0.000002 0.000000 0.000000 0.218166
    23 18.209354 8.207681 -0.352298 -1.582244 0.018583 -3.126150
    24 0.000009 0.011450 -1.352403 -0.000014 1.370796 3.140783
    25 6.078084 0.000002 0.000003 1.026045 -0.966624 -1.093646
    26 13.446754 0.000000 0.000001 0.000000 0.000000 -0.949028
    27 15.996995 -0.000005 0.000002 1.531050 -0.610106 0.639144
    28 1.885328 0.833275 2.177871 1.172048 -0.644537 0.438889
    29 1.506965 0.000005 0.000001 0.000000 0.000000 -0.436329
    30 0.798347 -0.000007 0.000000 0.000000 0.000000 -0.507867
    31 3.950304 -0.539874 2.108875 0.012323 0.110212 -0.171410
    32 1.545799 -0.000001 -0.000003 0.000000 0.000000 0.513113
    33 1.667398 -0.000003 0.000005 0.000000 0.000000 0.785377
    34 3.899461 -0.475375 1.170889 -0.037591 0.101270 -0.055752
    35 1.528212 -0.000001 -0.000002 0.000000 0.000000 1.575956
    36 1.528216 0.000001 0.000009 0.000000 0.000000 1.352577
    37 3.899461 -0.431803 -0.168226 0.093293 -0.006316 0.182573
    38 1.506965 0.000000 -0.000001 0.000000 0.000000 1.708639
    39 1.506965 0.000002 0.000001 0.000000 0.000000 1.310683
    40 3.915634 -0.278019 -1.402605 0.217310 -0.078619 0.205835
    41 1.333087 0.000000 -0.000001 0.000000 0.000000 1.464281
    42 1.159203 0.000002 -0.000008 0.000000 0.000000 1.370013
    43 3.495615 0.351176 1.563391 1.582244 -0.018583 -3.126153
    44 -2.156468 1.809614 0.001208 0.000000 0.000000 0.000000
    45 -6.613107 1.564316 -0.031845 0.000000 0.000000 0.000000
  time 9
    0 0.928525 1.014336 -19.461068 0.000000 0.000000 -1.570792
    1 0.000000 0.000000 0.000002 -0.000086 -1.570451 -1.570709
    2 4.443615 -0.009642 0.000006 -0.000004 -0.000001 0.000796
    3 12.111412 -0.011446 0.000000 0.000000 0.000000 0.000000
    4 0.000010 0.011442 1.352402 -0.000014 -1.370796 3.140810
    5 6.078090 0.000001 -0.000005 -0.531509 1.219836 -0.541120
    6 13.446754 -0.000001 0.000001 0.000000 0.000000 -0.648458
    7 15.997000 0.000001 -0.000001 -1.683447 0.000000 0.000000
    8 1.885325 0.833276 -2.177876 -1.598016 0.698132 -0.000668
    9 1.506960 -0.000006 0.000000 0.000000 0.000000 -0.139626
    10 0.798348 0.000003 0.000000 0.000000 0.000000 -0.113446
    11 3.950302 -0.539875 -2.108871 -0.000806 0.157080 -0.000126
    12 1.545797 -0.000002 -0.000001 0.000000 0.000000 0.471239
    13 1.667398 0.000001 0.000007 0.000000 0.000000 0.436332
    14 3.899452 -0.475378 -1.170893 -0.000796 0.000000 0.000000
    15 1.528218 0.000003 0.000001 0.000000 0.000000 0.331613
    16 1.528216 -0.000001 -0.000003 0.000000 0.000000 0.479966
    17 3.899459 -0.431804 0.168223 -0.000796 0.000000 0.000000
    18 1.506968 0.000002 -0.000001 0.000000 0.000000 0.427606
    19 1.506962 -0.000001 0.000001 0.000000 0.000000 0.340339
    20 3.915634 -0.278020 1.402608 -0.000796 0.000000 0.000000
    21 1.333080 0.000000 -0.000001 0.000000 0.000000 0.637045
    22 1.159204 0.000000 -0.000002 0.000000 0.000000 0.218166
    23 18.209354 8.207681 -0.352298 -1.582244 0.018583 -3.126150
    24 0.000009 0.011450 -1.352403 -0.000014 1.370796 3.140783
    25 6.078084 0.000002 0.000003 1.038007 -0.953081 -1.108399
    26 13.446754 0.000000 0.000001 0.000000 0.000000 -0.973401
    27 15.996995 -0.000005 0.000002 1.508111 -0.636325 0.669074
    28 1.885328 0.833275 2.177871 1.172048 -0.644537 0.438889
    29 1.506965 0.000005 0.000001 0.000000 0.000000 -0.436329
    30 0.798347 -0.000007 0.000000 0.000000 0.000000 -0.507867
    31 3.950304 -0.539874 2.108875 0.012323 0.110212 -0.171410
    32 1.545799 -0.000001 -0.000003 0.000000 0.000000 0.513113
    33 1.667398 -0.000003 0.000005 0.000000 0.000000 0.785377
    34 3.899461 -0.475375 1.170889 -0.037591 0.101270 -0.055752
    35 1.528212 -0.000001 -0.000002 0.000000 0.000000 1.575956
    36 1.528216 0.000001 0.000009 0.000000 0.000000 1.352577
    37 3.899461 -0.431803 -0.168226 0.093293 -0.006316 0.182573
    38 1.506965 0.000000 -0.000001 0.000000 0.000000 1.708600
    39 1.506965 0.000002 0.000001 0.000000 0.000000 1.310683
    40 3.915634 -0.278019 -1.402605 0.217310 -0.078619 0.205835
    41 1.333087 0.000000 -0.000001 0.000000 0.000000 1.464281
    42 1.159203 0.000002 -0.000008 0.000000 0.000000 1.370013
    43 3.495615 0.351176 1.563391 1.582244 -0.018583 -3.126153
    44 -2.156468 1.809614 0.001208 0.000000 0.000000 0.000000
    45 -6.613107 1.564316 -0.031845 0.000000 0.000000 0.000000
  time 10
    0 0.928525 1.014336 -19.461068 0.000000 0.000000 -1.570792
    1 0.000000 0.000000 0.000002 -0.000086 -1.570451 -1.570709
    2 4.443615 -0.009642 0.000006 -0.000004 -0.000001 0.000796
    3 12.111412 -0.011446 0.000000 0.000000 0.000000 0.000000
    4 0.000010 0.011442 1.352402 -0.000014 -1.370796 3.140810
    5 6.078090 0.000001 -0.000005 -0.531509 1.219836 -0.541120
    6 13.446754 -0.000001 0.000001 0.000000 0.000000 -0.648458
    7 15.997000 0.000001 -0.000001 -1.683447 0.000000 0.000000
    8 1.885325 0.833276 -2.177876 -1.598016 0.698132 -0.000668
    9 1.506960 -0.000006 0.000000 0.000000 0.000000 -0.139626
    10 0.798348 0.000003 0.000000 0.000000 0.000000 -0.113446
    11 3.950302 -0.539875 -2.108871 -0.000806 0.157080 -0.000126
    12 1.545797 -0.000002 -0.000001 0.000000 0.000000 0.471239
    13 1.667398 0.000001 0.000007 0.000000 0.000000 0.436332
    14 3.899452 -0.475378 -1.170893 -0.000796 0.000000 0.000000
    15 1.528218 0.000003 0.000001 0.000000 0.000000 0.331613
    16 1.528216 -0.000001 -0.000003 0.000000 0.000000 0.479966
    17 3.899459 -0.431804 0.168223 -0.000796 0.000000 0.000000
    18 1.506968 0.000002 -0.000001 0.000000 0.000000 0.427606
    19 1.506962 -0.000001 0.000001 0.000000 0.000000 0.340339
    20 3.915634 -0.278020 1.402608 -0.000796 0.000000 0.000000
    21 1.333080 0.000000 -0.000001 0.000000 0.000000 0.637045
    22 1.159204 0.000000 -0.000002 0.000000 0.000000 0.218166
    23 18.209354 8.207681 -0.352298 -1.582244 0.018583 -3.126150
    24 0.000009 0.011450 -1.352403 -0.000014 1.370796 3.140783
    25 6.078084 0.000002 0.000003 1.049167 -0.939571 -1.122290
    26 13.446754 0.000000 0.000001 0.000000 0.000000 -0.997389
    27 15.996995 -0.000005 0.000002 1.485485 -0.660779 0.697504
    28 1.885328 0.833275 2.177871 1.172048 -0.644537 0.438889
    29 1.506965 0.000005 0.000001 0.000000 0.000000 -0.436329
    30 0.798347 -0.000007 0.000000 0.000000 0.000000 -0.507867
    31 3.950304 -0.539874 2.108875 0.012323 0.110212 -0.171410
    32 1.545799 -0.000001 -0.000003 0.000000 0.000000 0.513113
    33 1.667398 -0.000003 0.000005 0.000000 0.000000 0.785377
    34 3.899461 -0.475375 1.170889 -0.037591 0.101270 -0.055752
    35 1.528212 -0.000001 -0.000002 0.000000 0.000000 1.575956
    36 1.528216 0.000001 0.000009 0.000000 0.000000 1.352577
    37 3.899461 -0.431803 -0.168226 0.093293 -0.006316 0.182573
    38 1.506965 0.000000 -0.000001 0.000000 0.000000 1.708639
    39 1.506965 0.000002 0.000001 0.000000 0.000000 1.310683
    40 3.915634 -0.278019 -1.402605 0.217310 -0.078619 0.205835
    41 1.333087 0.000000 -0.000001 0.000000 0.000000 1.464281
    42 1.159203 0.000002 -0.000008 0.000000 0.000000 1.370013
    43 3.495615 0.351176 1.563391 1.582244 -0.018583 -3.126153
    44 -2.156468 1.809614 0.001208 0.000000 0.000000 0.000000
    45 -6.617014 1.564316 -0.031845 0.000000 0.000000 0.000000
  time 11
    0 0.928525 1.014336 -19.461068 0.000000 0.000000 -1.570792
    1 0.000000 0.000000 0.000002 -0.000086 -1.570451 -1.570709
    2 4.443615 -0.009642 0.000006 -0.000004 -0.000001 0.000796
    3 12.111412 -0.011446 0.000000 0.000000 0.000000 0.000000
    4 0.000010 0.011442 1.352402 -0.000014 -1.370796 3.140810
    5 6.078090 0.000001 -0.000005 -0.531509 1.219836 -0.541120
    6 13.446754 -0.000001 0.000001 0.000000 0.000000 -0.648458
    7 15.997000 0.000001 -0.000001 -1.683447 0.000000 0.000000
    8 1.885325 0.833276 -2.177876 -1.598016 0.698132 -0.000668
    9 1.506960 -0.000006 0.000000 0.000000 0.000000 -0.139626
    10 0.798348 0.000003 0.000000 0.000000 0.000000 -0.113446
    11 3.950302 -0.539875 -2.108871 -0.000806 0.157080 -0.000126
    12 1.545797 -0.000002 -0.000001 0.000000 0.000000 0.471239
    13 1.667398 0.000001 0.000007 0.000000 0.000000 0.436332
    14 3.899452 -0.475378 -1.170893 -0.000796 0.000000 0.000000
    15 1.528218 0.000003 0.000001 0.000000 0.000000 0.331613
    16 1.528216 -0.000001 -0.000003 0.000000 0.000000 0.479966
    17 3.899459 -0.431804 0.168223 -0.000796 0.000000 0.000000
    18 1.506968 0.000002 -0.000001 0.000000 0.000000 0.427606
    19 1.506962 -0.000001 0.000001 0.000000 0.000000 0.340339
    20 3.915634 -0.278020 1.402608 -0.000796 0.000000 0.000000
    21 1.333080 0.000000 -0.000001 0.000000 0.000000 0.637045
    22 1.159204 0.000000 -0.000002 0.000000 0.000000 0.218166
    23 18.209354 8.207681 -0.352298 -1.582244 0.018583 -3.126150
    24 0.000009 0.011450 -1.352403 -0.000014 1.370796 3.140783
    25 6.078084 0.000002 0.000003 1.059554 -0.926094 -1.135319
    26 13.446754 0.000000 0.000001 0.000000 0.000000 -1.021041
    27 15.996995 -0.000005 0.000002 1.463828 -0.683260 0.723454
    28 1.885328 0.833275 2.177871 1.172048 -0.644537 0.438889
    29 1.506965 0.000005 0.000001 0.000000 0.000000 -0.436329
    30 0.798347 -0.000007 0.000000 0.000000 0.000000 -0.507867
    31 3.950304 -0.539874 2.108875 0.012323 0.110212 -0.171410
    32 1.545799 -0.000001 -0.000003 0.000000 0.000000 0.513113
    33 1.667398 -0.000003 0.000005 0.000000 0.000000 0.785377
    34 3.899461 -0.475375 1.170889 -0.037591 0.101270 -0.055752
    35 1.528212 -0.000001 -0.000002 0.000000 0.000000 1.575956
    36 1.528216 0.000001 0.000009 0.000000 0.000000 1.352577
    37 3.899461 -0.431803 -0.168226 0.093293 -0.006316 0.182573
    38 1.506965 0.000000 -0.000001 0.000000 0.000000 1.708600
    39 1.506965 0.000002 0.000001 0.000000 0.000000 1.310683
    40 3.915634 -0.278019 -1.402605 0.217310 -0.078619 0.205835
    41 1.333087 0.000000 -0.000001 0.000000 0.000000 1.464281
    42 1.159203 0.000002 -0.000008 0.000000 0.000000 1.370013
    43 3.495615 0.351176 1.563391 1.582244 -0.018583 -3.126153
    44 -2.156468 1.809614 0.001208 0.000000 0.000000 0.000000
    45 -6.617014 1.564316 -0.031845 0.000000 0.000000 0.000000
  time 12
    0 0.928525 1.014336 -19.461068 0.000000 0.000000 -1.570792
    1 0.000000 0.000000 0.000002 -0.000086 -1.570451 -1.570709
    2 4.443615 -0.009642 0.000006 -0.000004 -0.000001 0.000796
    3 12.111412 -0.011446 0.000000 0.000000 0.000000 0.000000
    4 0.000010 0.011442 1.352402 -0.000014 -1.370796 3.140810
    5 6.078090 0.000001 -0.000005 -0.531509 1.219836 -0.541120
    6 13.446754 -0.000001 0.000001 0.000000 0.000000 -0.648458
    7 15.997000 0.000001 -0.000001 -1.683447 0.000000 0.000000
    8 1.885325 0.833276 -2.177876 -1.598016 0.698132 -0.000668
    9 1.506960 -0.000006 0.000000 0.000000 0.000000 -0.139626
    10 0.798348 0.000003 0.000000 0.000000 0.000000 -0.113446
    11 3.950302 -0.539875 -2.108871 -0.000806 0.157080 -0.000126
    12 1.545797 -0.000002 -0.000001 0.000000 0.000000 0.471239
    13 1.667398 0.000001 0.000007 0.000000 0.000000 0.436332
    14 3.899452 -0.475378 -1.170893 -0.000796 0.000000 0.000000
    15 1.528218 0.000003 0.000001 0.000000 0.000000 0.331613
    16 1.528216 -0.000001 -0.000003 0.000000 0.000000 0.479966
    17 3.899459 -0.431804 0.168223 -0.000796 0.000000 0.000000
    18 1.506968 0.000002 -0.000001 0.000000 0.000000 0.427606
    19 1.506962 -0.000001 0.000001 0.000000 0.000000 0.340339
    20 3.915634 -0.278020 1.402608 -0.000796 0.000000 0.000000
    21 1.333080 0.000000 -0.000001 0.000000 0.000000 0.637045
    22 1.159204 0.000000 -0.000002 0.000000 0.000000 0.218166
    23 18.209354 8.207681 -0.352298 -1.582244 0.018583 -3.126150
    24 0.000009 0.011450 -1.352403 -0.000014 1.370796 3.140783
    25 6.078084 0.000002 0.000003 1.069099 -0.912748 -1.147445
    26 13.446754 0.000000 0.000001 0.000000 0.000000 -1.044164
    27 15.996995 -0.000005 0.000002 1.443934 -0.703627 0.745926
    28 1.885328 0.833275 2.177871 1.172048 -0.644537 0.438889
    29 1.506965 0.000005 0.000001 0.000000 0.000000 -0.436329
    30 0.798347 -0.000007 0.000000 0.000000 0.000000 -0.507879
    31 3.950304 -0.539874 2.108875 0.012323 0.110212 -0.171410
    32 1.545799 -0.000001 -0.000003 0.000000 0.000000 0.513113
    33 1.667398 -0.000003 0.000005 0.000000 0.000000 0.785377
    34 3.899461 -0.475375 1.170889 -0.037591 0.101270 -0.055752
    35 1.528212 -0.000001 -0.000002 0.000000 0.000000 1.575956
    36 1.528216 0.000001 0.000009 0.000000 0.000000 1.352577
    37 3.899461 -0.431803 -0.168226 0.093293 -0.006316 0.182573
    38 1.506965 0.000000 -0.000001 0.000000 0.000000 1.708639
    39 1.506965 0.000002 0.000001 0.000000 0.000000 1.310683
    40 3.915634 -0.278019 -1.402605 0.217310 -0.078619 0.205835
    41 1.333087 0.000000 -0.000001 0.000000 0.000000 1.464281
    42 1.159203 0.000002 -0.000008 0.000000 0.000000 1.370013
    43 3.495615 0.351176 1.563391 1.582244 -0.018583 -3.126153
    44 -2.156468 1.809614 0.001208 0.000000 0.000000 0.000000
    45 -6.617014 1.564316 -0.031845 0.000000 0.000000 0.000000
  time 13
    0 0.928525 1.014336 -19.461068 0.000000 0.000000 -1.570792
    1 0.000000 0.000000 0.000002 -0.000086 -1.570451 -1.570709
    2 4.443615 -0.009642 0.000006 -0.000004 -0.000001 0.000796
    3 12.111412 -0.011446 0.000000 0.000000 0.000000 0.000000
    4 0.000010 0.011442 1.352402 -0.000014 -1.370796 3.140810
    5 6.078090 0.000001 -0.000005 -0.531509 1.219836 -0.541120
    6 13.446754 -0.000001 0.000001 0.000000 0.000000 -0.648458
    7 15.997000 0.000001 -0.000001 -1.683447 0.000000 0.000000
    8 1.885325 0.833276 -2.177876 -1.598016 0.698132 -0.000668
    9 1.506960 -0.000006 0.000000 0.000000 0.000000 -0.139626
    10 0.798348 0.000003 0.000000 0.000000 0.000000 -0.113446
    11 3.950302 -0.539875 -2.108871 -0.000806 0.157080 -0.000126
    12 1.545797 -0.000002 -0.000001 0.000000 0.000000 0.471239
    13 1.667398 0.000001 0.000007 0.000000 0.000000 0.436332
    14 3.899452 -0.475378 -1.170893 -0.000796 0.000000 0.000000
    15 1.528218 0.000003 0.000001 0.000000 0.000000 0.331613
    16 1.528216 -0.000001 -0.000003 0.000000 0.000000 0.479966
    17 3.899459 -0.431804 0.168223 -0.000796 0.000000 0.000000
    18 1.506968 0.000002 -0.000001 0.000000 0.000000 0.427606
    19 1.506962 -0.000001 0.000001 0.000000 0.000000 0.340339
    20 3.915634 -0.278020 1.402608 -0.000796 0.000000 0.000000
    21 1.333080 0.000000 -0.000001 0.000000 0.000000 0.637045
    22 1.159204 0.000000 -0.000002 0.000000 0.000000 0.218166
    23 18.209354 8.207681 -0.352298 -1.582244 0.018583 -3.126150
    24 0.000009 0.011450 -1.352403 -0.000014 1.370796 3.140783
    25 6.078084 0.000002 0.000003 1.077884 -0.899567 -1.158688
    26 13.446754 0.000000 0.000001 0.000000 0.000000 -1.066758
    27 15.996995 -0.000005 0.000002 1.426652 -0.721718 0.763751
    28 1.885328 0.833275 2.177871 1.172048 -0.644537 0.438889
    29 1.506965 0.000005 0.000001 0.000000 0.000000 -0.436329
    30 0.798347 -0.000007 0.000000 0.000000 0.000000 -0.507867
    31 3.950304 -0.539874 2.108875 0.012323 0.110212 -0.171410
    32 1.545799 -0.000001 -0.000003 0.000000 0.000000 0.513113
    33 1.667398 -0.000003 0.000005 0.000000 0.000000 0.785377
    34 3.899461 -0.475375 1.170889 -0.037591 0.101270 -0.055752
    35 1.528212 -0.000001 -0.000002 0.000000 0.000000 1.575956
    36 1.528216 0.000001 0.000009 0.000000 0.000000 1.352577
    37 3.899461 -0.431803 -0.168226 0.093293 -0.006316 0.182573
    38 1.506965 0.000000 -0.000001 0.000000 0.000000 1.708639
    39 1.506965 0.000002 0.000001 0.000000 0.000000 1.310683
    40 3.915634 -0.278019 -1.402605 0.217310 -0.078619 0.205835
    41 1.333087 0.000000 -0.000001 0.000000 0.000000 1.464281
    42 1.159203 0.000002 -0.000008 0.000000 0.000000 1.370013
    43 3.495615 0.351176 1.563391 1.582244 -0.018583 -3.126153
    44 -2.156468 1.809614 0.001208 0.000000 0.000000 0.000000
    45 -6.617014 1.564316 -0.031845 0.000000 0.000000 0.000000
  time 14
    0 0.928525 1.014336 -19.461068 0.000000 0.000000 -1.570792
    1 0.000000 0.000000 0.000002 -0.000086 -1.570451 -1.570709
    2 4.443615 -0.009642 0.000006 -0.000004 -0.000001 0.000796
    3 12.111412 -0.011446 0.000000 0.000000 0.000000 0.000000
    4 0.000010 0.011442 1.352402 -0.000014 -1.370796 3.140810
    5 6.078090 0.000001 -0.000005 -0.531509 1.219836 -0.541120
    6 13.446754 -0.000001 0.000001 0.000000 0.000000 -0.648458
    7 15.997000 0.000001 -0.000001 -1.683447 0.000000 0.000000
    8 1.885325 0.833276 -2.177876 -1.598016 0.698132 -0.000668
    9 1.506960 -0.000006 0.000000 0.000000 0.000000 -0.139626
    10 0.798348 0.000003 0.000000 0.000000 0.000000 -0.113446
    11 3.950302 -0.539875 -2.108871 -0.000806 0.157080 -0.000126
    12 1.545797 -0.000002 -0.000001 0.000000 0.000000 0.471239
    13 1.667398 0.000001 0.000007 0.000000 0.000000 0.436332
    14 3.899452 -0.475378 -1.170893 -0.000796 0.000000 0.000000
    15 1.528218 0.000003 0.000001 0.000000 0.000000 0.331613
    16 1.528216 -0.000001 -0.000003 0.000000 0.000000 0.479966
    17 3.899459 -0.431804 0.168223 -0.000796 0.000000 0.000000
    18 1.506968 0.000002 -0.000001 0.000000 0.000000 0.427606
    19 1.506962 -0.000001 0.000001 0.000000 0.000000 0.340339
    20 3.915634 -0.278020 1.402608 -0.000796 0.000000 0.000000
    21 1.333080 0.000000 -0.000001 0.000000 0.000000 0.637045
    22 1.159204 0.000000 -0.000002 0.000000 0.000000 0.218166
    23 18.209354 8.207681 -0.352298 -1.582244 0.018583 -3.126150
    24 0.000009 0.011450 -1.352403 -0.000014 1.370796 3.140783
    25 6.078084 0.000002 0.000003 1.085854 -0.886583 -1.169007
    26 13.446754 0.000000 0.000001 0.000000 0.000000 -1.088728
    27 15.996995 -0.000005 0.000002 1.412918 -0.737394 0.775809
    28 1.885328 0.833275 2.177871 1.172048 -0.644537 0.438889
    29 1.506965 0.000005 0.000001 0.000000 0.000000 -0.436329
    30 0.798347 -0.000007 0.000000 0.000000 0.000000 -0.507867
    31 3.950304 -0.539874 2.108875 0.012323 0.110212 -0.171410
    32 1.545799 -0.000001 -0.000003 0.000000 0.000000 0.513113
    33 1.667398 -0.000003 0.000005 0.000000 0.000000 0.785377
    34 3.899461 -0.475375 1.170889 -0.037591 0.101270 -0.055752
    35 1.528212 -0.000001 -0.000002 0.000000 0.000000 1.575956
    36 1.528216 0.000001 0.000009 0.000000 0.000000 1.352577
    37 3.899461 -0.431803 -0.168226 0.093293 -0.006316 0.182573
    38 1.506965 0.000000 -0.000001 0.000000 0.000000 1.708639
    39 1.506965 0.000002 0.000001 0.000000 0.000000 1.310683
    40 3.915634 -0.278019 -1.402605 0.217310 -0.078619 0.205835
    41 1.333087 0.000000 -0.000001 0.000000 0.000000 1.464281
    42 1.159203 0.000002 -0.000008 0.000000 0.000000 1.370013
    43 3.495615 0.351176 1.563391 1.582244 -0.018583 -3.126153
    44 -2.156468 1.809614 0.001208 0.000000 0.000000 0.000000
    45 -6.613107 1.564316 -0.031845 0.000000 0.000000 0.000000
  time 15
    0 0.928525 1.014336 -19.461068 0.000000 0.000000 -1.570792
    1 0.000000 0.000000 0.000002 -0.000086 -1.570451 -1.570709
    2 4.443615 -0.009642 0.000006 -0.000004 -0.000001 0.000796
    3 12.111412 -0.011446 0.000000 0.000000 0.000000 0.000000
    4 0.000010 0.011442 1.352402 -0.000014 -1.370796 3.140810
    5 6.078090 0.000001 -0.000005 -0.531509 1.219836 -0.541120
    6 13.446754 -0.000001 0.000001 0.000000 0.000000 -0.648458
    7 15.997000 0.000001 -0.000001 -1.683447 0.000000 0.000000
    8 1.885325 0.833276 -2.177876 -1.598016 0.698132 -0.000668
    9 1.506960 -0.000006 0.000000 0.000000 0.000000 -0.139626
    10 0.798348 0.000003 0.000000 0.000000 0.000000 -0.113446
    11 3.950302 -0.539875 -2.108871 -0.000806 0.157080 -0.000126
    12 1.545797 -0.000002 -0.000001 0.000000 0.000000 0.471239
    13 1.667398 0.000001 0.000007 0.000000 0.000000 0.436332
    14 3.899452 -0.475378 -1.170893 -0.000796 0.000000 0.000000
    15 1.528218 0.000003 0.000001 0.000000 0.000000 0.331613
    16 1.528216 -0.000001 -0.000003 0.000000 0.000000 0.479966
    17 3.899459 -0.431804 0.168223 -0.000796 0.000000 0.000000
    18 1.506968 0.000002 -0.000001 0.000000 0.000000 0.427606
    19 1.506962 -0.000001 0.000001 0.000000 0.000000 0.340339
    20 3.915634 -0.278020 1.402608 -0.000796 0.000000 0.000000
    21 1.333080 0.000000 -0.000001 0.000000 0.000000 0.637045
    22 1.159204 0.000000 -0.000002 0.000000 0.000000 0.218166
    23 18.209354 8.207681 -0.352298 -1.582244 0.018583 -3.126150
    24 0.000009 0.011450 -1.352403 -0.000014 1.370796 3.140783
    25 6.078084 0.000002 0.000003 1.093023 -0.873829 -1.178379
    26 13.446754 0.000000 0.000001 0.000000 0.000000 -1.109880
    27 15.996995 -0.000005 0.000002 1.403642 -0.750562 0.780813
    28 1.885328 0.833275 2.177871 1.172048 -0.644537 0.438889
    29 1.506965 0.000005 0.000001 0.000000 0.000000 -0.436329
    30 0.798347 -0.000007 0.000000 0.000000 0.000000 -0.507867
    31 3.950304 -0.539874 2.108875 0.012323 0.110212 -0.171410
    32 1.545799 -0.000001 -0.000003 0.000000 0.000000 0.513113
    33 1.667398 -0.000003 0.000005 0.000000 0.000000 0.785377
    34 3.899461 -0.475375 1.170889 -0.037591 0.101270 -0.055752
    35 1.528212 -0.000001 -0.000002 0.000000 0.000000 1.575956
    36 1.528216 0.000001 0.000009 0.000000 0.000000 1.352577
    37 3.899461 -0.431803 -0.168226 0.093293 -0.006316 0.182573
    38 1.506965 0.000000 -0.000001 0.000000 0.000000 1.708639
    39 1.506965 0.000002 0.000001 0.000000 0.000000 1.310683
    40 3.915634 -0.278019 -1.402605 0.217310 -0.078619 0.205835
    41 1.333087 0.000000 -0.000001 0.000000 0.000000 1.464281
    42 1.159203 0.000002 -0.000008 0.000000 0.000000 1.370013
    43 3.495615 0.351176 1.563391 1.582244 -0.018583 -3.126153
    44 -2.156468 1.809614 0.001208 0.000000 0.000000 0.000000
    45 -6.617014 1.564316 -0.031845 0.000000 0.000000 0.000000
  time 16
    0 0.928525 1.014336 -19.461068 0.000000 0.000000 -1.570792
    1 0.000000 0.000000 0.000002 -0.000086 -1.570451 -1.570709
    2 4.443615 -0.009642 0.000006 -0.000004 -0.000001 0.000796
    3 12.111412 -0.011446 0.000000 0.000000 0.000000 0.000000
    4 0.000010 0.011442 1.352402 -0.000014 -1.370796 3.140810
    5 6.078090 0.000001 -0.000005 -0.531509 1.219836 -0.541120
    6 13.446754 -0.000001 0.000001 0.000000 0.000000 -0.648458
    7 15.997000 0.000001 -0.000001 -1.683447 0.000000 0.000000
    8 1.885325 0.833276 -2.177876 -1.598016 0.698132 -0.000668
    9 1.506960 -0.000006 0.000000 0.000000 0.000000 -0.139626
    10 0.798348 0.000003 0.000000 0.000000 0.000000 -0.113446
    11 3.950302 -0.539875 -2.108871 -0.000806 0.157080 -0.000126
    12 1.545797 -0.000002 -0.000001 0.000000 0.000000 0.471239
    13 1.667398 0.000001 0.000007 0.000000 0.000000 0.436332
    14 3.899452 -0.475378 -1.170893 -0.000796 0.000000 0.000000
    15 1.528218 0.000003 0.000001 0.000000 0.000000 0.331613
    16 1.528216 -0.000001 -0.000003 0.000000 0.000000 0.479966
    17 3.899459 -0.431804 0.168223 -0.000796 0.000000 0.000000
    18 1.506968 0.000002 -0.000001 0.000000 0.000000 0.427606
    19 1.506962 -0.000001 0.000001 0.000000 0.000000 0.340339
    20 3.915634 -0.278020 1.402608 -0.000796 0.000000 0.000000
    21 1.333080 0.000000 -0.000001 0.000000 0.000000 0.637045
    22 1.159204 0.000000 -0.000002 0.000000 0.000000 0.218166
    23 18.209354 8.207681 -0.352298 -1.582244 0.018583 -3.126150
    24 0.000009 0.011450 -1.352403 -0.000014 1.370796 3.140783
    25 6.078084 0.000002 0.000003 1.099390 -0.861403 -1.186807
    26 13.446754 0.000000 0.000001 0.000000 0.000000 -1.130263
    27 15.996995 -0.000005 0.000002 1.399711 -0.760966 0.777691
    28 1.885328 0.833275 2.177871 1.172048 -0.644537 0.438889
    29 1.506965 0.000005 0.000001 0.000000 0.000000 -0.436329
    30 0.798347 -0.000007 0.000000 0.000000 0.000000 -0.507867
    31 3.950304 -0.539874 2.108875 0.012323 0.110212 -0.171410
    32 1.545799 -0.000001 -0.000003 0.000000 0.000000 0.513113
    33 1.667398 -0.000003 0.000005 0.000000 0.000000 0.785377
    34 3.899461 -0.475375 1.170889 -0.037591 0.101270 -0.055752
    35 1.528212 -0.000001 -0.000002 0.000000 0.000000 1.575956
    36 1.528216 0.000001 0.000009 0.000000 0.000000 1.352577
    37 3.899461 -0.431803 -0.168226 0.093293 -0.006316 0.182573
    38 1.506965 0.000000 -0.000001 0.000000 0.000000 1.708639
    39 1.506965 0.000002 0.000001 0.000000 0.000000 1.310683
    40 3.915634 -0.278019 -1.402605 0.217310 -0.078619 0.205835
    41 1.333087 0.000000 -0.000001 0.000000 0.000000 1.464281
    42 1.159203 0.000002 -0.000008 0.000000 0.000000 1.370013
    43 3.495615 0.351176 1.563391 1.582244 -0.018583 -3.126153
    44 -2.156468 1.809614 0.001208 0.000000 0.000000 0.000000
    45 -6.613107 1.564316 -0.031845 0.000000 0.000000 0.000000
  time 17
    0 0.928525 1.014336 -19.461068 0.000000 0.000000 -1.570792
    1 0.000000 0.000000 0.000002 -0.000086 -1.570451 -1.570709
    2 4.443615 -0.009642 0.000006 -0.000004 -0.000001 0.000796
    3 12.111412 -0.011446 0.000000 0.000000 0.000000 0.000000
    4 0.000010 0.011442 1.352402 -0.000014 -1.370796 3.140810
    5 6.078090 0.000001 -0.000005 -0.531509 1.219836 -0.541120
    6 13.446754 -0.000001 0.000001 0.000000 0.000000 -0.648458
    7 15.997000 0.000001 -0.000001 -1.683447 0.000000 0.000000
    8 1.885325 0.833276 -2.177876 -1.598016 0.698132 -0.000668
    9 1.506960 -0.000006 0.000000 0.000000 0.000000 -0.139626
    10 0.798348 0.000003 0.000000 0.000000 0.000000 -0.113446
    11 3.950302 -0.539875 -2.108871 -0.000806 0.157080 -0.000126
    12 1.545797 -0.000002 -0.000001 0.000000 0.000000 0.471239
    13 1.667398 0.000001 0.000007 0.000000 0.000000 0.436332
    14 3.899452 -0.475378 -1.170893 -0.000796 0.000000 0.000000
    15 1.528218 0.000003 0.000001 0.000000 0.000000 0.331613
    16 1.528216 -0.000001 -0.000003 0.000000 0.000000 0.479966
    17 3.899459 -0.431804 0.168223 -0.000796 0.000000 0.000000
    18 1.506968 0.000002 -0.000001 0.000000 0.000000 0.427606
    19 1.506962 -0.000001 0.000001 0.000000 0.000000 0.340339
    20 3.915634 -0.278020 1.402608 -0.000796 0.000000 0.000000
    21 1.333080 0.000000 -0.000001 0.000000 0.000000 0.637045
    22 1.159204 0.000000 -0.000002 0.000000 0.000000 0.218166
    23 18.209354 8.207681 -0.352298 -1.582244 0.018583 -3.126150
    24 0.000009 0.011450 -1.352403 -0.000014 1.370796 3.140783
    25 6.078084 0.000002 0.000003 1.100412 -0.852134 -1.188110
    26 13.446754 0.000000 0.000001 0.000000 0.000000 -1.146175
    27 15.996995 -0.000005 0.000002 1.445684 -0.751699 0.694167
    28 1.885328 0.833275 2.177871 1.172048 -0.644537 0.438889
    29 1.506965 0.000005 0.000001 0.000000 0.000000 -0.436329
    30 0.798347 -0.000007 0.000000 0.000000 0.000000 -0.507867
    31 3.950304 -0.539874 2.108875 0.012323 0.110212 -0.171410
    32 1.545799 -0.000001 -0.000003 0.000000 0.000000 0.513113
    33 1.667398 -0.000003 0.000005 0.000000 0.000000 0.785377
    34 3.899461 -0.475375 1.170889 -0.037591 0.101270 -0.055752
    35 1.528212 -0.000001 -0.000002 0.000000 0.000000 1.575956
    36 1.528216 0.000001 0.000009 0.000000 0.000000 1.352577
    37 3.899461 -0.431803 -0.168226 0.093293 -0.006316 0.182573
    38 1.506965 0.000000 -0.000001 0.000000 0.000000 1.708639
    39 1.506965 0.000002 0.000001 0.000000 0.000000 1.310683
    40 3.915634 -0.278019 -1.402605 0.217310 -0.078619 0.205835
    41 1.333087 0.000000 -0.000001 0.000000 0.000000 1.464281
    42 1.159203 0.000002 -0.000008 0.000000 0.000000 1.370013
    43 3.495615 0.351176 1.563391 1.582244 -0.018583 -3.126153
    44 -2.156468 1.809614 0.001208 0.000000 0.000000 0.000000
    45 -6.617014 1.564316 -0.031845 0.000000 0.000000 0.000000
  time 18
    0 0.928525 1.014336 -19.461068 0.000000 0.000000 -1.570792
    1 0.000000 0.000000 0.000002 -0.000086 -1.570451 -1.570709
    2 4.443615 -0.009642 0.000006 -0.000004 -0.000001 0.000796
    3 12.111412 -0.011446 0.000000 0.000000 0.000000 0.000000
    4 0.000010 0.011442 1.352402 -0.000014 -1.370796 3.140810
    5 6.078090 0.000001 -0.000005 -0.531509 1.219836 -0.541120
    6 13.446754 -0.000001 0.000001 0.000000 0.000000 -0.648458
    7 15.997000 0.000001 -0.000001 -1.683447 0.000000 0.000000
    8 1.885325 0.833276 -2.177876 -1.598016 0.698132 -0.000668
    9 1.506960 -0.000006 0.000000 0.000000 0.000000 -0.139626
    10 0.798348 0.000003 0.000000 0.000000 0.000000 -0.113446
    11 3.950302 -0.539875 -2.108871 -0.000806 0.157080 -0.000126
    12 1.545797 -0.000002 -0.000001 0.000000 0.000000 0.471239
    13 1.667398 0.000001 0.000007 0.000000 0.000000 0.436332
    14 3.899452 -0.475378 -1.170893 -0.000796 0.000000 0.000000
    15 1.528218 0.000003 0.000001 0.000000 0.000000 0.331613
    16 1.528216 -0.000001 -0.000003 0.000000 0.000000 0.479966
    17 3.899459 -0.431804 0.168223 -0.000796 0.000000 0.000000
    18 1.506968 0.000002 -0.000001 0.000000 0.000000 0.427606
    19 1.506962 -0.000001 0.000001 0.000000 0.000000 0.340339
    20 3.915634 -0.278020 1.402608 -0.000796 0.000000 0.000000
    21 1.333080 0.000000 -0.000001 0.000000 0.000000 0.637045
    22 1.159204 0.000000 -0.000002 0.000000 0.000000 0.218166
    23 18.209354 8.207681 -0.352298 -1.582244 0.018583 -3.126150
    24 0.000009 0.011450 -1.352403 -0.000014 1.370796 3.140783
    25 6.078084 0.000002 0.000003 1.095260 -0.846874 -1.181174
    26 13.446754 0.000000 0.000001 0.000000 0.000000 -1.154636
    27 15.996995 -0.000005 0.000002 1.544581 -0.703673 0.520542
    28 1.885328 0.833275 2.177871 1.172048 -0.644537 0.438889
    29 1.506965 0.000005 0.000001 0.000000 0.000000 -0.436329
    30 0.798347 -0.000007 0.000000 0.000000 0.000000 -0.507867
    31 3.950304 -0.539874 2.108875 0.012323 0.110212 -0.171410
    32 1.545799 -0.000001 -0.000003 0.000000 0.000000 0.513113
    33 1.667398 -0.000003 0.000005 0.000000 0.000000 0.785377
    34 3.899461 -0.475375 1.170889 -0.037591 0.101270 -0.055752
    35 1.528212 -0.000001 -0.000002 0.000000 0.000000 1.575956
    36 1.528216 0.000001 0.000009 0.000000 0.000000 1.352577
    37 3.899461 -0.431803 -0.168226 0.093293 -0.006316 0.182573
    38 1.506965 0.000000 -0.000001 0.000000 0.000000 1.708639
    39 1.506965 0.000002 0.000001 0.000000 0.000000 1.310683
    40 3.915634 -0.278019 -1.402605 0.217310 -0.078619 0.205835
    41 1.333087 0.000000 -0.000001 0.000000 0.000000 1.464281
    42 1.159203 0.000002 -0.000008 0.000000 0.000000 1.370013
    43 3.495615 0.351176 1.563391 1.582244 -0.018583 -3.126153
    44 -2.156468 1.809614 0.001208 0.000000 0.000000 0.000000
    45 -6.617014 1.564316 -0.031845 0.000000 0.000000 0.000000
  time 19
    0 0.928525 1.014336 -19.461068 0.000000 0.000000 -1.570792
    1 0.000000 0.000000 0.000002 -0.000086 -1.570451 -1.570709
    2 4.443615 -0.009642 0.000006 -0.000004 -0.000001 0.000796
    3 12.111412 -0.011446 0.000000 0.000000 0.000000 0.000000
    4 0.000010 0.011442 1.352402 -0.000014 -1.370796 3.140810
    5 6.078090 0.000001 -0.000005 -0.531509 1.219836 -0.541120
    6 13.446754 -0.000001 0.000001 0.000000 0.000000 -0.648458
    7 15.997000 0.000001 -0.000001 -1.683447 0.000000 0.000000
    8 1.885325 0.833276 -2.177876 -1.598016 0.698132 -0.000668
    9 1.506960 -0.000006 0.000000 0.000000 0.000000 -0.139626
    10 0.798348 0.000003 0.000000 0.000000 0.000000 -0.113446
    11 3.950302 -0.539875 -2.108871 -0.000806 0.157080 -0.000126
    12 1.545797 -0.000002 -0.000001 0.000000 0.000000 0.471239
    13 1.667398 0.000001 0.000007 0.000000 0.000000 0.436332
    14 3.899452 -0.475378 -1.170893 -0.000796 0.000000 0.000000
    15 1.528218 0.000003 0.000001 0.000000 0.000000 0.331613
    16 1.528216 -0.000001 -0.000003 0.000000 0.000000 0.479966
    17 3.899459 -0.431804 0.168223 -0.000796 0.000000 0.000000
    18 1.506968 0.000002 -0.000001 0.000000 0.000000 0.427606
    19 1.506962 -0.000001 0.000001 0.000000 0.000000 0.340339
    20 3.915634 -0.278020 1.402608 -0.000796 0.000000 0.000000
    21 1.333080 0.000000 -0.000001 0.000000 0.000000 0.637045
    22 1.159204 0.000000 -0.000002 0.000000 0.000000 0.218166
    23 18.209354 8.207681 -0.352298 -1.582244 0.018583 -3.126150
    24 0.000009 0.011450 -1.352403 -0.000014 1.370796 3.140783
    25 6.078084 0.000002 0.000003 1.089418 -0.842502 -1.173252
    26 13.446754 0.000000 0.000001 0.000000 0.000000 -1.156174
    27 15.996995 -0.000005 0.000002 1.636430 -0.623413 0.347656
    28 1.885328 0.833275 2.177871 1.172048 -0.644537 0.438889
    29 1.506965 0.000005 0.000001 0.000000 0.000000 -0.436329
    30 0.798347 -0.000007 0.000000 0.000000 0.000000 -0.507867
    31 3.950304 -0.539874 2.108875 0.012323 0.110212 -0.171410
    32 1.545799 -0.000001 -0.000003 0.000000 0.000000 0.513113
    33 1.667398 -0.000003 0.000005 0.000000 0.000000 0.785377
    34 3.899461 -0.475375 1.170889 -0.037591 0.101270 -0.055752
    35 1.528212 -0.000001 -0.000002 0.000000 0.000000 1.575956
    36 1.528216 0.000001 0.000009 0.000000 0.000000 1.352577
    37 3.899461 -0.431803 -0.168226 0.093293 -0.006316 0.182573
    38 1.506965 0.000000 -0.000001 0.000000 0.000000 1.708639
    39 1.506965 0.000002 0.000001 0.000000 0.000000 1.310683
    40 3.915634 -0.278019 -1.402605 0.217310 -0.078619 0.205835
    41 1.333087 0.000000 -0.000001 0.000000 0.000000 1.464281
    42 1.159203 0.000002 -0.000008 0.000000 0.000000 1.370013
    43 3.495615 0.351176 1.563391 1.582244 -0.018583 -3.126153
    44 -2.156468 1.809614 0.001208 0.000000 0.000000 0.000000
    45 -6.617014 1.564316 -0.031845 0.000000 0.000000 0.000000
  time 20
    0 0.928525 1.014336 -19.461068 0.000000 0.000000 -1.570792
    1 0.000000 0.000000 0.000002 -0.000086 -1.570451 -1.570709
    2 4.443615 -0.009642 0.000006 -0.000004 -0.000001 0.000796
    3 12.111412 -0.011446 0.000000 0.000000 0.000000 0.000000
    4 0.000010 0.011442 1.352402 -0.000014 -1.370796 3.140810
    5 6.078090 0.000001 -0.000005 -0.531509 1.219836 -0.541120
    6 13.446754 -0.000001 0.000001 0.000000 0.000000 -0.648458
    7 15.997000 0.000001 -0.000001 -1.683447 0.000000 0.000000
    8 1.885325 0.833276 -2.177876 -1.598016 0.698132 -0.000668
    9 1.506960 -0.000006 0.000000 0.000000 0.000000 -0.139626
    10 0.798348 0.000003 0.000000 0.000000 0.000000 -0.113446
    11 3.950302 -0.539875 -2.108871 -0.000806 0.157080 -0.000126
    12 1.545797 -0.000002 -0.000001 0.000000 0.000000 0.471239
    13 1.667398 0.000001 0.000007 0.000000 0.000000 0.436332
    14 3.899452 -0.475378 -1.170893 -0.000796 0.000000 0.000000
    15 1.528218 0.000003 0.000001 0.000000 0.000000 0.331613
    16 1.528216 -0.000001 -0.000003 0.000000 0.000000 0.479966
    17 3.899459 -0.431804 0.168223 -0.000796 0.000000 0.000000
    18 1.506968 0.000002 -0.000001 0.000000 0.000000 0.427606
    19 1.506962 -0.000001 0.000001 0.000000 0.000000 0.340339
    20 3.915634 -0.278020 1.402608 -0.000796 0.000000 0.000000
    21 1.333080 0.000000 -0.000001 0.000000 0.000000 0.637045
    22 1.159204 0.000000 -0.000002 0.000000 0.000000 0.218166
    23 18.209354 8.207681 -0.352298 -1.582244 0.018583 -3.126150
    24 0.000009 0.011450 -1.352403 -0.000014 1.370796 3.140783
    25 6.078084 0.000002 0.000003 1.088174 -0.835961 -1.171465
    26 13.446754 0.000000 0.000001 0.000000 0.000000 -1.151463
    27 15.996995 -0.000005 0.000002 1.687149 -0.537741 0.242780
    28 1.885328 0.833275 2.177871 1.172048 -0.644537 0.438889
    29 1.506965 0.000005 0.000001 0.000000 0.000000 -0.436329
    30 0.798347 -0.000007 0.000000 0.000000 0.000000 -0.507867
    31 3.950304 -0.539874 2.108875 0.012323 0.110212 -0.171410
    32 1.545799 -0.000001 -0.000003 0.000000 0.000000 0.513113
    33 1.667398 -0.000003 0.000005 0.000000 0.000000 0.785377
    34 3.899461 -0.475375 1.170889 -0.037591 0.101270 -0.055752
    35 1.528212 -0.000001 -0.000002 0.000000 0.000000 1.575956
    36 1.528216 0.000001 0.000009 0.000000 0.000000 1.352577
    37 3.899461 -0.431803 -0.168226 0.093293 -0.006316 0.182573
    38 1.506965 0.000000 -0.000001 0.000000 0.000000 1.708639
    39 1.506965 0.000002 0.000001 0.000000 0.000000 1.310683
    40 3.915634 -0.278019 -1.402605 0.217310 -0.078619 0.205835
    41 1.333087 0.000000 -0.000001 0.000000 0.000000 1.464281
    42 1.159203 0.000002 -0.000008 0.000000 0.000000 1.370013
    43 3.495615 0.351176 1.563391 1.582244 -0.018583 -3.126153
    44 -2.156468 1.809614 0.001208 0.000000 0.000000 0.000000
    45 -6.613107 1.564316 -0.031845 0.000000 0.000000 0.000000
  time 21
    0 0.928525 1.014336 -19.461068 0.000000 0.000000 -1.570792
    1 0.000000 0.000000 0.000002 -0.000086 -1.570451 -1.570709
    2 4.443615 -0.009642 0.000006 -0.000004 -0.000001 0.000796
    3 12.111412 -0.011446 0.000000 0.000000 0.000000 0.000000
    4 0.000010 0.011442 1.352402 -0.000014 -1.370796 3.140810
    5 6.078090 0.000001 -0.000005 -0.531509 1.219836 -0.541120
    6 13.446754 -0.000001 0.000001 0.000000 0.000000 -0.648458
    7 15.997000 0.000001 -0.000001 -1.683447 0.000000 0.000000
    8 1.885325 0.833276 -2.177876 -1.598016 0.698132 -0.000668
    9 1.506960 -0.000006 0.000000 0.000000 0.000000 -0.139626
    10 0.798348 0.000003 0.000000 0.000000 0.000000 -0.113446
    11 3.950302 -0.539875 -2.108871 -0.000806 0.157080 -0.000126
    12 1.545797 -0.000002 -0.000001 0.000000 0.000000 0.471239
    13 1.667398 0.000001 0.000007 0.000000 0.000000 0.436332
    14 3.899452 -0.475378 -1.170893 -0.000796 0.000000 0.000000
    15 1.528218 0.000003 0.000001 0.000000 0.000000 0.331613
    16 1.528216 -0.000001 -0.000003 0.000000 0.000000 0.479966
    17 3.899459 -0.431804 0.168223 -0.000796 0.000000 0.000000
    18 1.506968 0.000002 -0.000001 0.000000 0.000000 0.427606
    19 1.506962 -0.000001 0.000001 0.000000 0.000000 0.340339
    20 3.915634 -0.278020 1.402608 -0.000796 0.000000 0.000000
    21 1.333080 0.000000 -0.000001 0.000000 0.000000 0.637045
    22 1.159204 0.000000 -0.000002 0.000000 0.000000 0.218166
    23 18.209354 8.207681 -0.352298 -1.582244 0.018583 -3.126150
    24 0.000009 0.011450 -1.352403 -0.000014 1.370796 3.140783
    25 6.078084 0.000002 0.000003 1.093023 -0.825245 -1.177917
    26 13.446754 0.000000 0.000001 0.000000 0.000000 -1.136993
    27 15.996995 -0.000005 0.000002 1.706816 -0.454136 0.205176
    28 1.885328 0.833275 2.177871 1.172048 -0.644537 0.438889
    29 1.506965 0.000005 0.000001 0.000000 0.000000 -0.436329
    30 0.798347 -0.000007 0.000000 0.000000 0.000000 -0.507867
    31 3.950304 -0.539874 2.108875 0.012323 0.110212 -0.171410
    32 1.545799 -0.000001 -0.000003 0.000000 0.000000 0.513113
    33 1.667398 -0.000003 0.000005 0.000000 0.000000 0.785377
    34 3.899461 -0.475375 1.170889 -0.037591 0.101270 -0.055752
    35 1.528212 -0.000001 -0.000002 0.000000 0.000000 1.575956
    36 1.528216 0.000001 0.000009 0.000000 0.000000 1.352577
    37 3.899461 -0.431803 -0.168226 0.093293 -0.006316 0.182573
    38 1.506965 0.000000 -0.000001 0.000000 0.000000 1.708639
    39 1.506965 0.000002 0.000001 0.000000 0.000000 1.310683
    40 3.915634 -0.278019 -1.402605 0.217310 -0.078619 0.205835
    41 1.333087 0.000000 -0.000001 0.000000 0.000000 1.464281
    42 1.159203 0.000002 -0.000008 0.000000 0.000000 1.370013
    43 3.495615 0.351176 1.563391 1.582244 -0.018583 -3.126153
    44 -2.156468 1.809614 0.001208 0.000000 0.000000 0.000000
    45 -6.613107 1.564316 -0.031845 0.000000 0.000000 0.000000
  time 22
    0 0.928525 1.014336 -19.461068 0.000000 0.000000 -1.570792
    1 0.000000 0.000000 0.000002 -0.000086 -1.570451 -1.570709
    2 4.443615 -0.009642 0.000006 -0.000004 -0.000001 0.000796
    3 12.111412 -0.011446 0.000000 0.000000 0.000000 0.000000
    4 0.000010 0.011442 1.352402 -0.000014 -1.370796 3.140810
    5 6.078090 0.000001 -0.000005 -0.531509 1.219836 -0.541120
    6 13.446754 -0.000001 0.000001 0.000000 0.000000 -0.648458
    7 15.997000 0.000001 -0.000001 -1.683447 0.000000 0.000000
    8 1.885325 0.833276 -2.177876 -1.598016 0.698132 -0.000668
    9 1.506960 -0.000006 0.000000 0.000000 0.000000 -0.139626
    10 0.798348 0.000003 0.000000 0.000000 0.000000 -0.113446
    11 3.950302 -0.539875 -2.108871 -0.000806 0.157080 -0.000126
    12 1.545797 -0.000002 -0.000001 0.000000 0.000000 0.471239
    13 1.667398 0.000001 0.000007 0.000000 0.000000 0.436332
    14 3.899452 -0.475378 -1.170893 -0.000796 0.000000 0.000000
    15 1.528218 0.000003 0.000001 0.000000 0.000000 0.331613
    16 1.528216 -0.000001 -0.000003 0.000000 0.000000 0.479966
    17 3.899459 -0.431804 0.168223 -0.000796 0.000000 0.000000
    18 1.506968 0.000002 -0.000001 0.000000 0.000000 0.427606
    19 1.506962 -0.000001 0.000001 0.000000 0.000000 0.340339
    20 3.915634 -0.278020 1.402608 -0.000796 0.000000 0.000000
    21 1.333080 0.000000 -0.000001 0.000000 0.000000 0.637045
    22 1.159204 0.000000 -0.000002 0.000000 0.000000 0.218166
    23 18.209354 8.207681 -0.352298 -1.582244 0.018583 -3.126150
    24 0.000009 0.011450 -1.352403 -0.000014 1.370796 3.140783
    25 6.078084 0.000002 0.000003 1.100620 -0.812096 -1.188152
    26 13.446754 0.000000 0.000001 0.000000 0.000000 -1.113726
    27 15.996995 -0.000005 0.000002 1.716991 -0.362496 0.193905
    28 1.885328 0.833275 2.177871 1.172048 -0.644537 0.438889
    29 1.506965 0.000005 0.000001 0.000000 0.000000 -0.436329
    30 0.798347 -0.000007 0.000000 0.000000 0.000000 -0.507867
    31 3.950304 -0.539874 2.108875 0.012323 0.110212 -0.171410
    32 1.545799 -0.000001 -0.000003 0.000000 0.000000 0.513113
    33 1.667398 -0.000003 0.000005 0.000000 0.000000 0.785377
    34 3.899461 -0.475375 1.170889 -0.037591 0.101270 -0.055752
    35 1.528212 -0.000001 -0.000002 0.000000 0.000000 1.575956
    36 1.528216 0.000001 0.000009 0.000000 0.000000 1.352577
    37 3.899461 -0.431803 -0.168226 0.093293 -0.006316 0.182573
    38 1.506965 0.000000 -0.000001 0.000000 0.000000 1.708639
    39 1.506965 0.000002 0.000001 0.000000 0.000000 1.310683
    40 3.915634 -0.278019 -1.402605 0.217310 -0.078619 0.205835
    41 1.333087 0.000000 -0.000001 0.000000 0.000000 1.464281
    42 1.159203 0.000002 -0.000008 0.000000 0.000000 1.370013
    43 3.495615 0.351176 1.563391 1.582244 -0.018583 -3.126153
    44 -2.156468 1.809614 0.001208 0.000000 0.000000 0.000000
    45 -6.613107 1.564316 -0.031845 0.000000 0.000000 0.000000
  time 23
    0 0.928525 1.014336 -19.461068 0.000000 0.000000 -1.570792
    1 0.000000 0.000000 0.000002 -0.000086 -1.570451 -1.570709
    2 4.443615 -0.009642 0.000006 -0.000004 -0.000001 0.000796
    3 12.111412 -0.011446 0.000000 0.000000 0.000000 0.000000
    4 0.000010 0.011442 1.352402 -0.000014 -1.370796 3.140810
    5 6.078090 0.000001 -0.000005 -0.531509 1.219836 -0.541120
    6 13.446754 -0.000001 0.000001 0.000000 0.000000 -0.648458
    7 15.997000 0.000001 -0.000001 -1.683447 0.000000 0.000000
    8 1.885325 0.833276 -2.177876 -1.598016 0.698132 -0.000668
    9 1.506960 -0.000006 0.000000 0.000000 0.000000 -0.139626
    10 0.798348 0.000003 0.000000 0.000000 0.000000 -0.113446
    11 3.950302 -0.539875 -2.108871 -0.000806 0.157080 -0.000126
    12 1.545797 -0.000002 -0.000001 0.000000 0.000000 0.471239
    13 1.667398 0.000001 0.000007 0.000000 0.000000 0.436332
    14 3.899452 -0.475378 -1.170893 -0.000796 0.000000 0.000000
    15 1.528218 0.000003 0.000001 0.000000 0.000000 0.331613
    16 1.528216 -0.000001 -0.000003 0.000000 0.000000 0.479966
    17 3.899459 -0.431804 0.168223 -0.000796 0.000000 0.000000
    18 1.506968 0.000002 -0.000001 0.000000 0.000000 0.427606
    19 1.506962 -0.000001 0.000001 0.000000 0.000000 0.340339
    20 3.915634 -0.278020 1.402608 -0.000796 0.000000 0.000000
    21 1.333080 0.000000 -0.000001 0.000000 0.000000 0.637045
    22 1.159204 0.000000 -0.000002 0.000000 0.000000 0.218166
    23 18.209354 8.207681 -0.352298 -1.582244 0.018583 -3.126150
    24 0.000009 0.011450 -1.352403 -0.000014 1.370796 3.140783
    25 6.078084 0.000002 0.000003 1.108963 -0.798981 -1.199563
    26 13.446754 0.000000 0.000001 0.000000 0.000000 -1.088728
    27 15.996995 -0.000005 0.000002 1.721857 -0.271530 0.198265
    28 1.885328 0.833275 2.177871 1.172048 -0.644525 0.438889
    29 1.506965 0.000005 0.000001 0.000000 0.000000 -0.436329
    30 0.798347 -0.000007 0.000000 0.000000 0.000000 -0.507879
    31 3.950304 -0.539874 2.108875 0.012323 0.110212 -0.171410
    32 1.545799 -0.000001 -0.000003 0.000000 0.000000 0.513113
    33 1.667398 -0.000003 0.000005 0.000000 0.000000 0.785377
    34 3.899461 -0.475375 1.170889 -0.037591 0.101270 -0.055752
    35 1.528212 -0.000001 -0.000002 0.000000 0.000000 1.575956
    36 1.528216 0.000001 0.000009 0.000000 0.000000 1.352577
    37 3.899461 -0.431803 -0.168226 0.093305 -0.006316 0.182573
    38 1.506965 0.000000 -0.000001 0.000000 0.000000 1.708639
    39 1.506965 0.000002 0.000001 0.000000 0.000000 1.310683
    40 3.915634 -0.278019 -1.402605 0.217310 -0.078619 0.205835
    41 1.333087 0.000000 -0.000001 0.000000 0.000000 1.464281
    42 1.159203 0.000002 -0.000008 0.000000 0.000000 1.370013
    43 3.495615 0.351176 1.563391 1.582244 -0.018583 -3.126153
    44 -2.156468 1.809614 0.001208 0.000000 0.000000 0.000000
    45 -6.613107 1.564316 -0.031845 0.000000 0.000000 0.000000
  time 24
    0 0.928525 1.014336 -19.461068 0.000000 0.000000 -1.570792
    1 0.000000 0.000000 0.000002 -0.000086 -1.570451 -1.570709
    2 4.443615 -0.009642 0.000006 -0.000004 -0.000001 0.000796
    3 12.111412 -0.011446 0.000000 0.000000 0.000000 0.000000
    4 0.000010 0.011442 1.352402 -0.000014 -1.370796 3.140810
    5 6.078090 0.000001 -0.000005 -0.531509 1.219836 -0.541120
    6 13.446754 -0.000001 0.000001 0.000000 0.000000 -0.648458
    7 15.997000 0.000001 -0.000001 -1.683447 0.000000 0.000000
    8 1.885325 0.833276 -2.177876 -1.598016 0.698132 -0.000668
    9 1.506960 -0.000006 0.000000 0.000000 0.000000 -0.139626
    10 0.798348 0.000003 0.000000 0.000000 0.000000 -0.113446
    11 3.950302 -0.539875 -2.108871 -0.000806 0.157080 -0.000126
    12 1.545797 -0.000002 -0.000001 0.000000 0.000000 0.471239
    13 1.667398 0.000001 0.000007 0.000000 0.000000 0.436332
    14 3.899452 -0.475378 -1.170893 -0.000796 0.000000 0.000000
    15 1.528218 0.000003 0.000001 0.000000 0.000000 0.331613
    16 1.528216 -0.000001 -0.000003 0.000000 0.000000 0.479966
    17 3.899459 -0.431804 0.168223 -0.000796 0.000000 0.000000
    18 1.506968 0.000002 -0.000001 0.000000 0.000000 0.427606
    19 1.506962 -0.000001 0.000001 0.000000 0.000000 0.340339
    20 3.915634 -0.278020 1.402608 -0.000796 0.000000 0.000000
    21 1.333080 0.000000 -0.000001 0.000000 0.000000 0.637045
    22 1.159204 0.000000 -0.000002 0.000000 0.000000 0.218166
    23 18.209354 8.207681 -0.352298 -1.582244 0.018583 -3.126150
    24 0.000009 0.011450 -1.352403 -0.000014 1.370796 3.140783
    25 6.078084 0.000002 0.000003 1.116352 -0.788429 -1.209734
    26 13.446754 0.000000 0.000001 0.000000 0.000000 -1.068681
    27 15.996995 -0.000005 0.000002 1.723618 -0.189574 0.208655
    28 1.885328 0.833275 2.177871 1.172048 -0.644537 0.438889
    29 1.506965 0.000005 0.000001 0.000000 0.000000 -0.436329
    30 0.798347 -0.000007 0.000000 0.000000 0.000000 -0.507867
    31 3.950304 -0.539874 2.108875 0.012323 0.110212 -0.171410
    32 1.545799 -0.000001 -0.000003 0.000000 0.000000 0.513113
    33 1.667398 -0.000003 0.000005 0.000000 0.000000 0.785377
    34 3.899461 -0.475375 1.170889 -0.037591 0.101270 -0.055752
    35 1.528212 -0.000001 -0.000002 0.000000 0.000000 1.575956
    36 1.528216 0.000001 0.000009 0.000000 0.000000 1.352577
    37 3.899461 -0.431803 -0.168226 0.093293 -0.006316 0.182573
    38 1.506965 0.000000 -0.000001 0.000000 0.000000 1.708639
    39 1.506965 0.000002 0.000001 0.000000 0.000000 1.310683
    40 3.915634 -0.278019 -1.402605 0.217310 -0.078619 0.205835
    41 1.333087 0.000000 -0.000001 0.000000 0.000000 1.464281
    42 1.159203 0.000002 -0.000008 0.000000 0.000000 1.370013
    43 3.495615 0.351176 1.563391 1.582244 -0.018583 -3.126153
    44 -2.156468 1.809614 0.001208 0.000000 0.000000 0.000000
    45 -6.613107 1.564316 -0.031845 0.000000 0.000000 0.000000
  time 25
    0 0.928525 1.014336 -19.461068 0.000000 0.000000 -1.570792
    1 0.000000 0.000000 0.000002 -0.000086 -1.570451 -1.570709
    2 4.443615 -0.009642 0.000006 -0.000004 -0.000001 0.000796
    3 12.111412 -0.011446 0.000000 0.000000 0.000000 0.000000
    4 0.000010 0.011442 1.352402 -0.000014 -1.370796 3.140810
    5 6.078090 0.000001 -0.000005 -0.531509 1.219836 -0.541120
    6 13.446754 -0.000001 0.000001 0.000000 0.000000 -0.648458
    7 15.997000 0.000001 -0.000001 -1.683447 0.000000 0.000000
    8 1.885325 0.833276 -2.177876 -1.598016 0.698132 -0.000668
    9 1.506960 -0.000006 0.000000 0.000000 0.000000 -0.139626
    10 0.798348 0.000003 0.000000 0.000000 0.000000 -0.113446
    11 3.950302 -0.539875 -2.108871 -0.000806 0.157080 -0.000126
    12 1.545797 -0.000002 -0.000001 0.000000 0.000000 0.471239
    13 1.667398 0.000001 0.000007 0.000000 0.000000 0.436332
    14 3.899452 -0.475378 -1.170893 -0.000796 0.000000 0.000000
    15 1.528218 0.000003 0.000001 0.000000 0.000000 0.331613
    16 1.528216 -0.000001 -0.000003 0.000000 0.000000 0.479966
    17 3.899459 -0.431804 0.168223 -0.000796 0.000000 0.000000
    18 1.506968 0.000002 -0.000001 0.000000 0.000000 0.427606
    19 1.506962 -0.000001 0.000001 0.000000 0.000000 0.340339
    20 3.915634 -0.278020 1.402608 -0.000796 0.000000 0.000000
    21 1.333080 0.000000 -0.000001 0.000000 0.000000 0.637045
    22 1.159204 0.000000 -0.000002 0.000000 0.000000 0.218166
    23 18.209354 8.207681 -0.352298 -1.582244 0.018583 -3.126150
    24 0.000009 0.011450 -1.352403 -0.000014 1.370796 3.140783
    25 6.078084 0.000002 0.000003 1.121297 -0.783071 -1.216480
    26 13.446754 0.000000 0.000001 0.000000 0.000000 -1.060653
    27 15.996995 -0.000005 0.000002 1.722540 -0.124757 0.216186
    28 1.885328 0.833275 2.177871 1.172048 -0.644525 0.438889
    29 1.506965 0.000005 0.000001 0.000000 0.000000 -0.436329
    30 0.798347 -0.000007 0.000000 0.000000 0.000000 -0.507867
    31 3.950304 -0.539874 2.108875 0.012323 0.110212 -0.171410
    32 1.545799 -0.000001 -0.000003 0.000000 0.000000 0.513113
    33 1.667398 -0.000003 0.000005 0.000000 0.000000 0.785377
    34 3.899461 -0.475375 1.170889 -0.037591 0.101270 -0.055752
    35 1.528212 -0.000001 -0.000002 0.000000 0.000000 1.575956
    36 1.528216 0.000001 0.000009 0.000000 0.000000 1.352577
    37 3.899461 -0.431803 -0.168226 0.093293 -0.006316 0.182573
    38 1.506965 0.000000 -0.000001 0.000000 0.000000 1.708639
    39 1.506965 0.000002 0.000001 0.000000 0.000000 1.310683
    40 3.915634 -0.278019 -1.402605 0.217310 -0.078619 0.205835
    41 1.333087 0.000000 -0.000001 0.000000 0.000000 1.464281
    42 1.159203 0.000002 -0.000008 0.000000 0.000000 1.370013
    43 3.495615 0.351176 1.563391 1.582244 -0.018583 -3.126153
    44 -2.156468 1.809614 0.001208 0.000000 0.000000 0.000000
    45 -6.613107 1.564316 -0.031845 0.000000 0.000000 0.000000
  time 26
    0 0.928525 1.014336 -19.461068 0.000000 0.000000 -1.570792
    1 0.000000 0.000000 0.000002 -0.000086 -1.570451 -1.570709
    2 4.443615 -0.009642 0.000006 -0.000004 -0.000001 0.000796
    3 12.111412 -0.011446 0.000000 0.000000 0.000000 0.000000
    4 0.000010 0.011442 1.352402 -0.000014 -1.370796 3.140810
    5 6.078090 0.000001 -0.000005 -0.531509 1.219836 -0.541120
    6 13.446754 -0.000001 0.000001 0.000000 0.000000 -0.648458
    7 15.997000 0.000001 -0.000001 -1.683447 0.000000 0.000000
    8 1.885325 0.833276 -2.177876 -1.598016 0.698132 -0.000668
    9 1.506960 -0.000006 0.000000 0.000000 0.000000 -0.139626
    10 0.798348 0.000003 0.000000 0.000000 0.000000 -0.113446
    11 3.950302 -0.539875 -2.108871 -0.000806 0.157080 -0.000126
    12 1.545797 -0.000002 -0.000001 0.000000 0.000000 0.471239
    13 1.667398 0.000001 0.000007 0.000000 0.000000 0.436332
    14 3.899452 -0.475378 -1.170893 -0.000796 0.000000 0.000000
    15 1.528218 0.000003 0.000001 0.000000 0.000000 0.331613
    16 1.528216 -0.000001 -0.000003 0.000000 0.000000 0.479966
    17 3.899459 -0.431804 0.168223 -0.000796 0.000000 0.000000
    18 1.506968 0.000002 -0.000001 0.000000 0.000000 0.427606
    19 1.506962 -0.000001 0.000001 0.000000 0.000000 0.340339
    20 3.915634 -0.278020 1.402608 -0.000796 0.000000 0.000000
    21 1.333080 0.000000 -0.000001 0.000000 0.000000 0.637045
    22 1.159204 0.000000 -0.000002 0.000000 0.000000 0.218166
    23 18.209354 8.207681 -0.352298 -1.582244 0.018583 -3.126150
    24 0.000009 0.011450 -1.352403 -0.000014 1.370796 3.140783
    25 6.078084 0.000002 0.000003 1.123494 -0.784255 -1.219296
    26 13.446754 0.000000 0.000001 0.000000 0.000000 -1.067672
    27 15.996995 -0.000005 0.000002 1.716835 -0.081700 0.221762
    28 1.885328 0.833275 2.177871 1.172048 -0.644525 0.438889
    29 1.506965 0.000005 0.000001 0.000000 0.000000 -0.436329
    30 0.798347 -0.000007 0.000000 0.000000 0.000000 -0.507867
    31 3.950304 -0.539874 2.108875 0.012323 0.110212 -0.171410
    32 1.545799 -0.000001 -0.000003 0.000000 0.000000 0.513113
    33 1.667398 -0.000003 0.000005 0.000000 0.000000 0.785377
    34 3.899461 -0.475375 1.170889 -0.037591 0.101270 -0.055752
    35 1.528212 -0.000001 -0.000002 0.000000 0.000000 1.575956
    36 1.528216 0.000001 0.000009 0.000000 0.000000 1.352577
    37 3.899461 -0.431803 -0.168226 0.093293 -0.006316 0.182573
    38 1.506965 0.000000 -0.000001 0.000000 0.000000 1.708639
    39 1.506965 0.000002 0.000001 0.000000 0.000000 1.310683
    40 3.915634 -0.278019 -1.402605 0.217310 -0.078619 0.205835
    41 1.333087 0.000000 -0.000001 0.000000 0.000000 1.464281
    42 1.159203 0.000002 -0.000008 0.000000 0.000000 1.370013
    43 3.495615 0.351176 1.563391 1.582244 -0.018583 -3.126153
    44 -2.156468 1.809614 0.001208 0.000000 0.000000 0.000000
    45 -6.613107 1.564316 -0.031845 0.000000 0.000000 0.000000
  time 27
    0 0.928525 1.014336 -19.461068 0.000000 0.000000 -1.570792
    1 0.000000 0.000000 0.000002 -0.000086 -1.570451 -1.570709
    2 4.443615 -0.009642 0.000006 -0.000004 -0.000001 0.000796
    3 12.111412 -0.011446 0.000000 0.000000 0.000000 0.000000
    4 0.000010 0.011442 1.352402 -0.000014 -1.370796 3.140810
    5 6.078090 0.000001 -0.000005 -0.531509 1.219836 -0.541120
    6 13.446754 -0.000001 0.000001 0.000000 0.000000 -0.648458
    7 15.997000 0.000001 -0.000001 -1.683447 0.000000 0.000000
    8 1.885325 0.833276 -2.177876 -1.598016 0.698132 -0.000668
    9 1.506960 -0.000006 0.000000 0.000000 0.000000 -0.139626
    10 0.798348 0.000003 0.000000 0.000000 0.000000 -0.113446
    11 3.950302 -0.539875 -2.108871 -0.000806 0.157080 -0.000126
    12 1.545797 -0.000002 -0.000001 0.000000 0.000000 0.471239
    13 1.667398 0.000001 0.000007 0.000000 0.000000 0.436332
    14 3.899452 -0.475378 -1.170893 -0.000796 0.000000 0.000000
    15 1.528218 0.000003 0.000001 0.000000 0.000000 0.331613
    16 1.528216 -0.000001 -0.000003 0.000000 0.000000 0.479966
    17 3.899459 -0.431804 0.168223 -0.000796 0.000000 0.000000
    18 1.506968 0.000002 -0.000001 0.000000 0.000000 0.427606
    19 1.506962 -0.000001 0.000001 0.000000 0.000000 0.340339
    20 3.915634 -0.278020 1.402608 -0.000796 0.000000 0.000000
    21 1.333080 0.000000 -0.000001 0.000000 0.000000 0.637045
    22 1.159204 0.000000 -0.000002 0.000000 0.000000 0.218166
    23 18.209354 8.207681 -0.352298 -1.582244 0.018583 -3.126150
    24 0.000009 0.011450 -1.352403 -0.000014 1.370796 3.140783
    25 6.078084 0.000002 0.000003 1.124087 -0.790336 -1.219800
    26 13.446754 0.000000 0.000001 0.000000 0.000000 -1.084978
    27 15.996995 -0.000005 0.000002 1.706720 -0.054877 0.230865
    28 1.885328 0.833275 2.177871 1.172048 -0.644537 0.438889
    29 1.506965 0.000005 0.000001 0.000000 0.000000 -0.436329
    30 0.798347 -0.000007 0.000000 0.000000 0.000000 -0.507867
    31 3.950304 -0.539874 2.108875 0.012323 0.110212 -0.171410
    32 1.545799 -0.000001 -0.000003 0.000000 0.000000 0.513113
    33 1.667398 -0.000003 0.000005 0.000000 0.000000 0.785377
    34 3.899461 -0.475375 1.170889 -0.037591 0.101270 -0.055752
    35 1.528212 -0.000001 -0.000002 0.000000 0.000000 1.575956
    36 1.528216 0.000001 0.000009 0.000000 0.000000 1.352577
    37 3.899461 -0.431803 -0.168226 0.093293 -0.006316 0.182573
    38 1.506965 0.000000 -0.000001 0.000000 0.000000 1.708600
    39 1.506965 0.000002 0.000001 0.000000 0.000000 1.310683
    40 3.915634 -0.278019 -1.402605 0.217310 -0.078619 0.205835
    41 1.333087 0.000000 -0.000001 0.000000 0.000000 1.464281
    42 1.159203 0.000002 -0.000008 0.000000 0.000000 1.370013
    43 3.491709 0.351176 1.563391 1.582244 -0.018583 -3.126153
    44 -2.156468 1.809614 0.001208 0.000000 0.000000 0.000000
    45 -6.613107 1.564316 -0.031845 0.000000 0.000000 0.000000
  time 28
    0 0.928525 1.014336 -19.461068 0.000000 0.000000 -1.570792
    1 0.000000 0.000000 0.000002 -0.000086 -1.570451 -1.570709
    2 4.443615 -0.009642 0.000006 -0.000004 -0.000001 0.000796
    3 12.111412 -0.011446 0.000000 0.000000 0.000000 0.000000
    4 0.000010 0.011442 1.352402 -0.000014 -1.370796 3.140810
    5 6.078090 0.000001 -0.000005 -0.531509 1.219836 -0.541120
    6 13.446754 -0.000001 0.000001 0.000000 0.000000 -0.648458
    7 15.997000 0.000001 -0.000001 -1.683447 0.000000 0.000000
    8 1.885325 0.833276 -2.177876 -1.598016 0.698132 -0.000668
    9 1.506960 -0.000006 0.000000 0.000000 0.000000 -0.139626
    10 0.798348 0.000003 0.000000 0.000000 0.000000 -0.113446
    11 3.950302 -0.539875 -2.108871 -0.000806 0.157080 -0.000126
    12 1.545797 -0.000002 -0.000001 0.000000 0.000000 0.471239
    13 1.667398 0.000001 0.000007 0.000000 0.000000 0.436332
    14 3.899452 -0.475378 -1.170893 -0.000796 0.000000 0.000000
    15 1.528218 0.000003 0.000001 0.000000 0.000000 0.331613
    16 1.528216 -0.000001 -0.000003 0.000000 0.000000 0.479966
    17 3.899459 -0.431804 0.168223 -0.000796 0.000000 0.000000
    18 1.506968 0.000002 -0.000001 0.000000 0.000000 0.427606
    19 1.506962 -0.000001 0.000001 0.000000 0.000000 0.340339
    20 3.915634 -0.278020 1.402608 -0.000796 0.000000 0.000000
    21 1.333080 0.000000 -0.000001 0.000000 0.000000 0.637045
    22 1.159204 0.000000 -0.000002 0.000000 0.000000 0.218166
    23 18.209354 8.207681 -0.352298 -1.582244 0.018583 -3.126150
    24 0.000009 0.011450 -1.352403 -0.000014 1.370796 3.140783
    25 6.078084 0.000002 0.000003 1.123742 -0.799211 -1.218981
    26 13.446754 0.000000 0.000001 0.000000 0.000000 -1.108197
    27 15.996995 -0.000005 0.000002 1.694136 -0.037251 0.241874
    28 1.885328 0.833275 2.177871 1.172048 -0.644537 0.438889
    29 1.506965 0.000005 0.000001 0.000000 0.000000 -0.436329
    30 0.798347 -0.000007 0.000000 0.000000 0.000000 -0.507879
    31 3.950304 -0.539874 2.108875 0.012323 0.110212 -0.171410
    32 1.545799 -0.000001 -0.000003 0.000000 0.000000 0.513113
    33 1.667398 -0.000003 0.000005 0.000000 0.000000 0.785377
    34 3.899461 -0.475375 1.170889 -0.037591 0.101270 -0.055752
    35 1.528212 -0.000001 -0.000002 0.000000 0.000000 1.575956
    36 1.528216 0.000001 0.000009 0.000000 0.000000 1.352577
    37 3.899461 -0.431803 -0.168226 0.093293 -0.006316 0.182573
    38 1.506965 0.000000 -0.000001 0.000000 0.000000 1.708639
    39 1.506965 0.000002 0.000001 0.000000 0.000000 1.310683
    40 3.915634 -0.278019 -1.402605 0.217310 -0.078619 0.205835
    41 1.333087 0.000000 -0.000001 0.000000 0.000000 1.464281
    42 1.159203 0.000002 -0.000008 0.000000 0.000000 1.370013
    43 3.495615 0.351176 1.563391 1.582244 -0.018583 -3.126153
    44 -2.156468 1.809614 0.001208 0.000000 0.000000 0.000000
    45 -6.613107 1.564316 -0.031845 0.000000 0.000000 0.000000
  time 29
    0 0.928525 1.014336 -19.461068 0.000000 0.000000 -1.570792
    1 0.000000 0.000000 0.000002 -0.000086 -1.570451 -1.570709
    2 4.443615 -0.009642 0.000006 -0.000004 -0.000001 0.000796
    3 12.111412 -0.011446 0.000000 0.000000 0.000000 0.000000
    4 0.000010 0.011442 1.352402 -0.000014 -1.370796 3.140810
    5 6.078090 0.000001 -0.000005 -0.531509 1.219836 -0.541120
    6 13.446754 -0.000001 0.000001 0.000000 0.000000 -0.648458
    7 15.997000 0.000001 -0.000001 -1.683447 0.000000 0.000000
    8 1.885325 0.833276 -2.177876 -1.598016 0.698132 -0.000668
    9 1.506960 -0.000006 0.000000 0.000000 0.000000 -0.139626
    10 0.798348 0.000003 0.000000 0.000000 0.000000 -0.113446
    11 3.950302 -0.539875 -2.108871 -0.000806 0.157080 -0.000126
    12 1.545797 -0.000002 -0.000001 0.000000 0.000000 0.471239
    13 1.667398 0.000001 0.000007 0.000000 0.000000 0.436332
    14 3.899452 -0.475378 -1.170893 -0.000796 0.000000 0.000000
    15 1.528218 0.000003 0.000001 0.000000 0.000000 0.331613
    16 1.528216 -0.000001 -0.000003 0.000000 0.000000 0.479966
    17 3.899459 -0.431804 0.168223 -0.000796 0.000000 0.000000
    18 1.506968 0.000002 -0.000001 0.000000 0.000000 0.427606
    19 1.506962 -0.000001 0.000001 0.000000 0.000000 0.340339
    20 3.915634 -0.278020 1.402608 -0.000796 0.000000 0.000000
    21 1.333080 0.000000 -0.000001 0.000000 0.000000 0.637045
    22 1.159204 0.000000 -0.000002 0.000000 0.000000 0.218166
    23 18.209354 8.207681 -0.352298 -1.582244 0.018583 -3.126150
    24 0.000009 0.011450 -1.352403 -0.000014 1.370796 3.140783
    25 6.078084 0.000002 0.000003 1.123176 -0.808776 -1.217783
    26 13.446754 0.000000 0.000001 0.000000 0.000000 -1.132907
    27 15.996995 -0.000005 0.000002 1.681085 -0.021784 0.253241
    28 1.885328 0.833275 2.177871 1.172048 -0.644537 0.438889
    29 1.506965 0.000005 0.000001 0.000000 0.000000 -0.436329
    30 0.798347 -0.000007 0.000000 0.000000 0.000000 -0.507867
    31 3.950304 -0.539874 2.108875 0.012323 0.110212 -0.171410
    32 1.545799 -0.000001 -0.000003 0.000000 0.000000 0.513113
    33 1.667398 -0.000003 0.000005 0.000000 0.000000 0.785377
    34 3.899461 -0.475375 1.170889 -0.037591 0.101270 -0.055752
    35 1.528212 -0.000001 -0.000002 0.000000 0.000000 1.575956
    36 1.528216 0.000001 0.000009 0.000000 0.000000 1.352577
    37 3.899461 -0.431803 -0.168226 0.093293 -0.006316 0.182573
    38 1.506965 0.000000 -0.000001 0.000000 0.000000 1.708639
    39 1.506965 0.000002 0.000001 0.000000 0.000000 1.310683
    40 3.915634 -0.278019 -1.402605 0.217310 -0.078619 0.205835
    41 1.333087 0.000000 -0.000001 0.000000 0.000000 1.464281
    42 1.159203 0.000002 -0.000008 0.000000 0.000000 1.370013
    43 3.495615 0.351176 1.563391 1.582244 -0.018583 -3.126153
    44 -2.156468 1.809614 0.001208 0.000000 0.000000 0.000000
    45 -6.613107 1.564316 -0.031845 0.000000 0.000000 0.000000
end
