// Created by Crowbar 0.74
version 1
nodes
  0 "Bip01" -1
  1 "Bip01 Pelvis" 0
  2 "Bip01 Spine" 1
  3 "Bip01 Neck" 2
  4 "Bip01 L Clavicle" 3
  5 "Bip01 L UpperArm" 4
  6 "Bip01 L Forearm" 5
  7 "Bip01 L Hand" 6
  8 "Bip01 L Finger0" 7
  9 "Bip01 L Finger01" 8
  10 "Bip01 L Finger02" 9
  11 "Bip01 L Finger1" 7
  12 "Bip01 L Finger11" 11
  13 "Bip01 L Finger12" 12
  14 "Bip01 L Finger2" 7
  15 "Bip01 L Finger21" 14
  16 "Bip01 L Finger22" 15
  17 "Bip01 L Finger3" 7
  18 "Bip01 L Finger31" 17
  19 "Bip01 L Finger32" 18
  20 "Bip01 L Finger4" 7
  21 "Bip01 L Finger41" 20
  22 "Bip01 L Finger42" 21
  23 "Dummy17" 7
  24 "Bip01 R Clavicle" 3
  25 "Bip01 R UpperArm" 24
  26 "Bip01 R Forearm" 25
  27 "Bip01 R Hand" 26
  28 "Bip01 R Finger0" 27
  29 "Bip01 R Finger01" 28
  30 "Bip01 R Finger02" 29
  31 "Bip01 R Finger1" 27
  32 "Bip01 R Finger11" 31
  33 "Bip01 R Finger12" 32
  34 "Bip01 R Finger2" 27
  35 "Bip01 R Finger21" 34
  36 "Bip01 R Finger22" 35
  37 "Bip01 R Finger3" 27
  38 "Bip01 R Finger31" 37
  39 "Bip01 R Finger32" 38
  40 "Bip01 R Finger4" 27
  41 "Bip01 R Finger41" 40
  42 "Bip01 R Finger42" 41
  43 "Dummy14" 27
  44 "Dummy15" 43
  45 "Dummy16" 43
end
skeleton
  time 0
    0 0.928525 1.014336 -19.461068 0.000000 0.000000 -1.570792
    1 0.000000 0.000000 0.000002 -0.000086 -1.570451 -1.570709
    2 4.443615 -0.009642 0.000006 -0.000004 -0.000001 0.000796
    3 12.111412 -0.011446 0.000000 0.000000 0.000000 0.000000
    4 0.000010 0.011442 1.352402 -0.000014 -1.370796 3.140810
    5 6.078090 0.000001 -0.000005 -0.531509 1.219836 -0.541120
    6 13.446754 -0.000001 0.000001 0.000000 0.000000 -0.648458
    7 15.997000 0.000001 -0.000001 -1.683447 0.000000 0.000000
    8 1.885325 0.833276 -2.177876 -1.598016 0.698132 -0.000668
    9 1.506960 -0.000006 0.000000 0.000000 0.000000 -0.139626
    10 0.798348 0.000003 0.000000 0.000000 0.000000 -0.113446
    11 3.950302 -0.539875 -2.108871 -0.000806 0.157080 -0.000126
    12 1.545797 -0.000002 -0.000001 0.000000 0.000000 0.471239
    13 1.667398 0.000001 0.000007 0.000000 0.000000 0.436332
    14 3.899452 -0.475378 -1.170893 -0.000796 0.000000 0.000000
    15 1.528218 0.000003 0.000001 0.000000 0.000000 0.331613
    16 1.528216 -0.000001 -0.000003 0.000000 0.000000 0.479966
    17 3.899459 -0.431804 0.168223 -0.000796 0.000000 0.000000
    18 1.506968 0.000002 -0.000001 0.000000 0.000000 0.427606
    19 1.506962 -0.000001 0.000001 0.000000 0.000000 0.340339
    20 3.915634 -0.278020 1.402608 -0.000796 0.000000 0.000000
    21 1.333080 0.000000 -0.000001 0.000000 0.000000 0.637045
    22 1.159204 0.000000 -0.000002 0.000000 0.000000 0.218166
    23 18.209354 8.207681 -0.352298 -1.582244 0.018583 -3.126150
    24 0.000009 0.011450 -1.352403 -0.000014 1.370796 3.140783
    25 6.078084 0.000001 0.000003 1.112789 -0.836257 -1.203114
    26 13.446754 -0.000002 0.000000 0.000000 0.000000 -1.188527
    27 15.996997 0.000002 0.000002 1.669604 -0.001556 0.263226
    28 1.885322 0.833275 2.177875 1.172048 -0.644537 0.438889
    29 1.506965 -0.000001 0.000000 0.000000 0.000000 -0.436329
    30 0.798346 -0.000001 0.000000 0.000000 0.000000 -0.507867
    31 3.950303 -0.539876 2.108875 0.012323 0.110212 -0.171410
    32 1.545797 0.000000 -0.000006 0.000000 0.000000 0.771429
    33 1.667397 -0.000001 0.000004 0.000000 0.000000 0.785377
    34 3.899459 -0.475377 1.170890 -0.037591 0.101270 -0.055752
    35 1.528216 -0.000001 -0.000005 0.000000 0.000000 1.575956
    36 1.528217 -0.000003 0.000007 0.000000 0.000000 1.352577
    37 3.899459 -0.431804 -0.168226 0.093305 -0.006316 0.182573
    38 1.506964 0.000001 0.000003 0.000000 0.000000 1.708600
    39 1.506964 -0.000001 -0.000001 0.000000 0.000000 1.310683
    40 3.915633 -0.278021 -1.402605 0.217310 -0.078619 0.205835
    41 1.333087 0.000001 0.000004 0.000000 0.000000 1.464281
    42 1.159202 0.000002 -0.000007 0.000000 0.000000 1.370013
    43 3.495615 0.351176 1.563391 1.582244 -0.018583 -3.126153
    44 -2.156468 1.809614 0.001208 0.000000 0.000000 -0.397913
    45 -6.613107 1.564316 -0.031845 0.000000 0.000000 0.000000
  time 1
    0 0.928525 1.014336 -19.461068 0.000000 0.000000 -1.570792
    1 0.000000 0.000000 0.000002 -0.000086 -1.570451 -1.570709
    2 4.443615 -0.009642 0.000006 -0.000004 -0.000001 0.000796
    3 12.111412 -0.011446 0.000000 0.000000 0.000000 0.000000
    4 0.000010 0.011442 1.352402 -0.000014 -1.370796 3.140810
    5 6.078090 0.000001 -0.000005 -0.531509 1.219836 -0.541120
    6 13.446754 -0.000001 0.000001 0.000000 0.000000 -0.648458
    7 15.997000 0.000001 -0.000001 -1.683447 0.000000 0.000000
    8 1.885325 0.833276 -2.177876 -1.598016 0.698132 -0.000668
    9 1.506960 -0.000006 0.000000 0.000000 0.000000 -0.139626
    10 0.798348 0.000003 0.000000 0.000000 0.000000 -0.113446
    11 3.950302 -0.539875 -2.108871 -0.000806 0.157080 -0.000126
    12 1.545797 -0.000002 -0.000001 0.000000 0.000000 0.471239
    13 1.667398 0.000001 0.000007 0.000000 0.000000 0.436332
    14 3.899452 -0.475378 -1.170893 -0.000796 0.000000 0.000000
    15 1.528218 0.000003 0.000001 0.000000 0.000000 0.331613
    16 1.528216 -0.000001 -0.000003 0.000000 0.000000 0.479966
    17 3.899459 -0.431804 0.168223 -0.000796 0.000000 0.000000
    18 1.506968 0.000002 -0.000001 0.000000 0.000000 0.427606
    19 1.506962 -0.000001 0.000001 0.000000 0.000000 0.340339
    20 3.915634 -0.278020 1.402608 -0.000796 0.000000 0.000000
    21 1.333080 0.000000 -0.000001 0.000000 0.000000 0.637045
    22 1.159204 0.000000 -0.000002 0.000000 0.000000 0.218166
    23 18.209354 8.207681 -0.352298 -1.582244 0.018583 -3.126150
    24 0.000009 0.011450 -1.352403 -0.000014 1.370796 3.140783
    25 6.078084 0.000001 0.000003 1.067552 -0.908179 -1.142717
    26 13.446754 -0.000002 0.000000 0.000000 0.000000 -1.323756
    27 15.996997 0.000002 0.000002 1.656109 0.050093 -0.278477
    28 1.885322 0.833275 2.177875 1.172048 -0.644537 0.438889
    29 1.506965 -0.000001 0.000000 0.000000 0.000000 -0.436329
    30 0.798346 -0.000001 0.000000 0.000000 0.000000 -0.507867
    31 3.950303 -0.539876 2.108875 0.012323 0.110212 -0.171410
    32 1.545797 0.000000 -0.000006 0.000000 0.000000 0.754195
    33 1.667397 -0.000001 0.000004 0.000000 0.000000 0.785377
    34 3.899459 -0.475377 1.170890 -0.037591 0.101270 -0.055752
    35 1.528216 -0.000001 -0.000005 0.000000 0.000000 1.575956
    36 1.528217 -0.000003 0.000007 0.000000 0.000000 1.352577
    37 3.899459 -0.431804 -0.168226 0.093293 -0.006316 0.182573
    38 1.506964 0.000001 0.000003 0.000000 0.000000 1.708639
    39 1.506964 -0.000001 -0.000001 0.000000 0.000000 1.310683
    40 3.915633 -0.278021 -1.402605 0.217310 -0.078619 0.205835
    41 1.333087 0.000001 0.000004 0.000000 0.000000 1.464281
    42 1.159202 0.000002 -0.000007 0.000000 0.000000 1.370013
    43 3.495615 0.351176 1.563391 1.582244 -0.018583 -3.126153
    44 -2.156468 1.809614 0.001208 0.000000 0.000000 0.000000
    45 -6.617014 1.564316 -0.031845 0.000000 0.000000 0.000000
  time 2
    0 0.928525 1.014336 -19.461068 0.000000 0.000000 -1.570792
    1 0.000000 0.000000 0.000002 -0.000086 -1.570451 -1.570709
    2 4.443615 -0.009642 0.000006 -0.000004 -0.000001 0.000796
    3 12.111412 -0.011446 0.000000 0.000000 0.000000 0.000000
    4 0.000010 0.011442 1.352402 -0.000014 -1.370796 3.140810
    5 6.078090 0.000001 -0.000005 -0.531509 1.219836 -0.541120
    6 13.446754 -0.000001 0.000001 0.000000 0.000000 -0.648458
    7 15.997000 0.000001 -0.000001 -1.683447 0.000000 0.000000
    8 1.885325 0.833276 -2.177876 -1.598016 0.698132 -0.000668
    9 1.506960 -0.000006 0.000000 0.000000 0.000000 -0.139626
    10 0.798348 0.000003 0.000000 0.000000 0.000000 -0.113446
    11 3.950302 -0.539875 -2.108871 -0.000806 0.157080 -0.000126
    12 1.545797 -0.000002 -0.000001 0.000000 0.000000 0.471239
    13 1.667398 0.000001 0.000007 0.000000 0.000000 0.436332
    14 3.899452 -0.475378 -1.170893 -0.000796 0.000000 0.000000
    15 1.528218 0.000003 0.000001 0.000000 0.000000 0.331613
    16 1.528216 -0.000001 -0.000003 0.000000 0.000000 0.479966
    17 3.899459 -0.431804 0.168223 -0.000796 0.000000 0.000000
    18 1.506968 0.000002 -0.000001 0.000000 0.000000 0.427606
    19 1.506962 -0.000001 0.000001 0.000000 0.000000 0.340339
    20 3.915634 -0.278020 1.402608 -0.000796 0.000000 0.000000
    21 1.333080 0.000000 -0.000001 0.000000 0.000000 0.637045
    22 1.159204 0.000000 -0.000002 0.000000 0.000000 0.218166
    23 18.209354 8.207681 -0.352298 -1.582244 0.018583 -3.126150
    24 0.000009 0.011450 -1.352403 -0.000014 1.370796 3.140783
    25 6.078084 0.000001 0.000003 0.999635 -0.988812 -1.057689
    26 13.446754 -0.000002 0.000000 0.000000 0.000000 -1.467927
    27 15.996997 0.000002 0.000002 1.665206 0.029308 -0.050543
    28 1.885322 0.833275 2.177875 1.172048 -0.644537 0.438889
    29 1.506965 -0.000001 0.000000 0.000000 0.000000 -0.436329
    30 0.798346 -0.000001 0.000000 0.000000 0.000000 -0.507867
    31 3.950303 -0.539876 2.108875 0.012323 0.110212 -0.171410
    32 1.545797 0.000000 -0.000006 0.000000 0.000000 0.735739
    33 1.667397 -0.000001 0.000004 0.000000 0.000000 0.785377
    34 3.899459 -0.475377 1.170890 -0.037591 0.101270 -0.055752
    35 1.528216 -0.000001 -0.000005 0.000000 0.000000 1.575956
    36 1.528217 -0.000003 0.000007 0.000000 0.000000 1.352577
    37 3.899459 -0.431804 -0.168226 0.093293 -0.006316 0.182573
    38 1.506964 0.000001 0.000003 0.000000 0.000000 1.708639
    39 1.506964 -0.000001 -0.000001 0.000000 0.000000 1.310683
    40 3.915633 -0.278021 -1.402605 0.217310 -0.078619 0.205835
    41 1.333087 0.000001 0.000004 0.000000 0.000000 1.464281
    42 1.159202 0.000002 -0.000007 0.000000 0.000000 1.370013
    43 3.495615 0.351176 1.563391 1.582244 -0.018583 -3.126153
    44 -2.156468 1.809614 0.001208 0.000000 0.000000 0.000000
    45 -6.617014 1.564316 -0.031845 0.000000 0.000000 0.000000
  time 3
    0 0.928525 1.014336 -19.461068 0.000000 0.000000 -1.570792
    1 0.000000 0.000000 0.000002 -0.000086 -1.570451 -1.570709
    2 4.443615 -0.009642 0.000006 -0.000004 -0.000001 0.000796
    3 12.111412 -0.011446 0.000000 0.000000 0.000000 0.000000
    4 0.000010 0.011442 1.352402 -0.000014 -1.370796 3.140810
    5 6.078090 0.000001 -0.000005 -0.531509 1.219836 -0.541120
    6 13.446754 -0.000001 0.000001 0.000000 0.000000 -0.648458
    7 15.997000 0.000001 -0.000001 -1.683447 0.000000 0.000000
    8 1.885325 0.833276 -2.177876 -1.598016 0.698132 -0.000668
    9 1.506960 -0.000006 0.000000 0.000000 0.000000 -0.139626
    10 0.798348 0.000003 0.000000 0.000000 0.000000 -0.113446
    11 3.950302 -0.539875 -2.108871 -0.000806 0.157080 -0.000126
    12 1.545797 -0.000002 -0.000001 0.000000 0.000000 0.471239
    13 1.667398 0.000001 0.000007 0.000000 0.000000 0.436332
    14 3.899452 -0.475378 -1.170893 -0.000796 0.000000 0.000000
    15 1.528218 0.000003 0.000001 0.000000 0.000000 0.331613
    16 1.528216 -0.000001 -0.000003 0.000000 0.000000 0.479966
    17 3.899459 -0.431804 0.168223 -0.000796 0.000000 0.000000
    18 1.506968 0.000002 -0.000001 0.000000 0.000000 0.427606
    19 1.506962 -0.000001 0.000001 0.000000 0.000000 0.340339
    20 3.915634 -0.278020 1.402608 -0.000796 0.000000 0.000000
    21 1.333080 0.000000 -0.000001 0.000000 0.000000 0.637045
    22 1.159204 0.000000 -0.000002 0.000000 0.000000 0.218166
    23 18.209354 8.207681 -0.352298 -1.582244 0.018583 -3.126150
    24 0.000009 0.011450 -1.352403 -0.000014 1.370796 3.140783
    25 6.078084 0.000001 0.000003 0.920198 -1.057185 -0.963877
    26 13.446754 -0.000002 0.000000 0.000000 0.000000 -1.584552
    27 15.996997 0.000002 0.000002 1.669604 0.001254 0.234463
    28 1.885322 0.833275 2.177875 1.172048 -0.644537 0.438889
    29 1.506965 -0.000001 0.000000 0.000000 0.000000 -0.436329
    30 0.798346 -0.000001 0.000000 0.000000 0.000000 -0.507867
    31 3.950303 -0.539876 2.108875 0.012323 0.110212 -0.171410
    32 1.545797 0.000000 -0.000006 0.000000 0.000000 0.717606
    33 1.667397 -0.000001 0.000004 0.000000 0.000000 0.785377
    34 3.899459 -0.475377 1.170890 -0.037591 0.101270 -0.055752
    35 1.528216 -0.000001 -0.000005 0.000000 0.000000 1.575956
    36 1.528217 -0.000003 0.000007 0.000000 0.000000 1.352577
    37 3.899459 -0.431804 -0.168226 0.093305 -0.006316 0.182573
    38 1.506964 0.000001 0.000003 0.000000 0.000000 1.708639
    39 1.506964 -0.000001 -0.000001 0.000000 0.000000 1.310683
    40 3.915633 -0.278021 -1.402605 0.217310 -0.078619 0.205835
    41 1.333087 0.000001 0.000004 0.000000 0.000000 1.464281
    42 1.159202 0.000002 -0.000007 0.000000 0.000000 1.370013
    43 3.495615 0.351176 1.563391 1.582244 -0.018583 -3.126153
    44 -2.156468 1.809614 0.001208 0.000000 0.000000 0.000000
    45 -6.617014 1.564316 -0.031845 0.000000 0.000000 0.000000
  time 4
    0 0.928525 1.014336 -19.461068 0.000000 0.000000 -1.570792
    1 0.000000 0.000000 0.000002 -0.000086 -1.570451 -1.570709
    2 4.443615 -0.009642 0.000006 -0.000004 -0.000001 0.000796
    3 12.111412 -0.011446 0.000000 0.000000 0.000000 0.000000
    4 0.000010 0.011442 1.352402 -0.000014 -1.370796 3.140810
    5 6.078090 0.000001 -0.000005 -0.531509 1.219836 -0.541120
    6 13.446754 -0.000001 0.000001 0.000000 0.000000 -0.648458
    7 15.997000 0.000001 -0.000001 -1.683447 0.000000 0.000000
    8 1.885325 0.833276 -2.177876 -1.598016 0.698132 -0.000668
    9 1.506960 -0.000006 0.000000 0.000000 0.000000 -0.139626
    10 0.798348 0.000003 0.000000 0.000000 0.000000 -0.113446
    11 3.950302 -0.539875 -2.108871 -0.000806 0.157080 -0.000126
    12 1.545797 -0.000002 -0.000001 0.000000 0.000000 0.471239
    13 1.667398 0.000001 0.000007 0.000000 0.000000 0.436332
    14 3.899452 -0.475378 -1.170893 -0.000796 0.000000 0.000000
    15 1.528218 0.000003 0.000001 0.000000 0.000000 0.331613
    16 1.528216 -0.000001 -0.000003 0.000000 0.000000 0.479966
    17 3.899459 -0.431804 0.168223 -0.000796 0.000000 0.000000
    18 1.506968 0.000002 -0.000001 0.000000 0.000000 0.427606
    19 1.506962 -0.000001 0.000001 0.000000 0.000000 0.340339
    20 3.915634 -0.278020 1.402608 -0.000796 0.000000 0.000000
    21 1.333080 0.000000 -0.000001 0.000000 0.000000 0.637045
    22 1.159204 0.000000 -0.000002 0.000000 0.000000 0.218166
    23 18.209354 8.207681 -0.352298 -1.582244 0.018583 -3.126150
    24 0.000009 0.011450 -1.352403 -0.000014 1.370796 3.140783
    25 6.078084 0.000001 0.000003 0.838067 -1.109976 -0.871999
    26 13.446754 -0.000002 0.000000 0.000000 0.000000 -1.644355
    27 15.996997 0.000002 0.000002 1.669532 0.003530 0.211729
    28 1.885322 0.833275 2.177875 1.172048 -0.644525 0.438889
    29 1.506965 -0.000001 0.000000 0.000000 0.000000 -0.436329
    30 0.798346 -0.000001 0.000000 0.000000 0.000000 -0.507867
    31 3.950303 -0.539876 2.108875 0.012323 0.110212 -0.171410
    32 1.545797 0.000000 -0.000006 0.000000 0.000000 0.699845
    33 1.667397 -0.000001 0.000004 0.000000 0.000000 0.785377
    34 3.899459 -0.475377 1.170890 -0.037591 0.101270 -0.055752
    35 1.528216 -0.000001 -0.000005 0.000000 0.000000 1.575956
    36 1.528217 -0.000003 0.000007 0.000000 0.000000 1.352577
    37 3.899459 -0.431804 -0.168226 0.093305 -0.006316 0.182573
    38 1.506964 0.000001 0.000003 0.000000 0.000000 1.708639
    39 1.506964 -0.000001 -0.000001 0.000000 0.000000 1.310683
    40 3.915633 -0.278021 -1.402605 0.217310 -0.078619 0.205835
    41 1.333087 0.000001 0.000004 0.000000 0.000000 1.464281
    42 1.159202 0.000002 -0.000007 0.000000 0.000000 1.370013
    43 3.495615 0.351176 1.563391 1.582244 -0.018583 -3.126153
    44 -2.156468 1.809614 0.001208 0.000000 0.000000 0.000000
    45 -6.617014 1.564316 -0.031845 0.000000 0.000000 0.000000
  time 5
    0 0.928525 1.014336 -19.461068 0.000000 0.000000 -1.570792
    1 0.000000 0.000000 0.000002 -0.000086 -1.570451 -1.570709
    2 4.443615 -0.009642 0.000006 -0.000004 -0.000001 0.000796
    3 12.111412 -0.011446 0.000000 0.000000 0.000000 0.000000
    4 0.000010 0.011442 1.352402 -0.000014 -1.370796 3.140810
    5 6.078090 0.000001 -0.000005 -0.531509 1.219836 -0.541120
    6 13.446754 -0.000001 0.000001 0.000000 0.000000 -0.648458
    7 15.997000 0.000001 -0.000001 -1.683447 0.000000 0.000000
    8 1.885325 0.833276 -2.177876 -1.598016 0.698132 -0.000668
    9 1.506960 -0.000006 0.000000 0.000000 0.000000 -0.139626
    10 0.798348 0.000003 0.000000 0.000000 0.000000 -0.113446
    11 3.950302 -0.539875 -2.108871 -0.000806 0.157080 -0.000126
    12 1.545797 -0.000002 -0.000001 0.000000 0.000000 0.471239
    13 1.667398 0.000001 0.000007 0.000000 0.000000 0.436332
    14 3.899452 -0.475378 -1.170893 -0.000796 0.000000 0.000000
    15 1.528218 0.000003 0.000001 0.000000 0.000000 0.331613
    16 1.528216 -0.000001 -0.000003 0.000000 0.000000 0.479966
    17 3.899459 -0.431804 0.168223 -0.000796 0.000000 0.000000
    18 1.506968 0.000002 -0.000001 0.000000 0.000000 0.427606
    19 1.506962 -0.000001 0.000001 0.000000 0.000000 0.340339
    20 3.915634 -0.278020 1.402608 -0.000796 0.000000 0.000000
    21 1.333080 0.000000 -0.000001 0.000000 0.000000 0.637045
    22 1.159204 0.000000 -0.000002 0.000000 0.000000 0.218166
    23 18.209354 8.207681 -0.352298 -1.582244 0.018583 -3.126150
    24 0.000009 0.011450 -1.352403 -0.000014 1.370796 3.140783
    25 6.078084 0.000001 0.000003 0.817003 -1.121941 -0.850038
    26 13.446754 -0.000002 0.000000 0.000000 0.000000 -1.630798
    27 15.996997 0.000002 0.000002 1.669053 0.010451 0.142575
    28 1.885322 0.833275 2.177875 1.172048 -0.644525 0.438889
    29 1.506965 -0.000001 0.000000 0.000000 0.000000 -0.436329
    30 0.798346 -0.000001 0.000000 0.000000 0.000000 -0.507867
    31 3.950303 -0.539876 2.108875 0.012323 0.110212 -0.171410
    32 1.545797 0.000000 -0.000006 0.000000 0.000000 0.685332
    33 1.667397 -0.000001 0.000004 0.000000 0.000000 0.785377
    34 3.899459 -0.475377 1.170890 -0.037591 0.101270 -0.055752
    35 1.528216 -0.000001 -0.000005 0.000000 0.000000 1.575956
    36 1.528217 -0.000003 0.000007 0.000000 0.000000 1.352577
    37 3.899459 -0.431804 -0.168226 0.093293 -0.006316 0.182573
    38 1.506964 0.000001 0.000003 0.000000 0.000000 1.708639
    39 1.506964 -0.000001 -0.000001 0.000000 0.000000 1.310683
    40 3.915633 -0.278021 -1.402605 0.217310 -0.078619 0.205835
    41 1.333087 0.000001 0.000004 0.000000 0.000000 1.464281
    42 1.159202 0.000002 -0.000007 0.000000 0.000000 1.370013
    43 3.495615 0.351176 1.563391 1.582244 -0.018583 -3.126153
    44 -2.156468 1.809614 0.001208 0.000000 0.000000 0.000000
    45 -6.617014 1.564316 -0.031845 0.000000 0.000000 0.000000
  time 6
    0 0.928525 1.014336 -19.461068 0.000000 0.000000 -1.570792
    1 0.000000 0.000000 0.000002 -0.000086 -1.570451 -1.570709
    2 4.443615 -0.009642 0.000006 -0.000004 -0.000001 0.000796
    3 12.111412 -0.011446 0.000000 0.000000 0.000000 0.000000
    4 0.000010 0.011442 1.352402 -0.000014 -1.370796 3.140810
    5 6.078090 0.000001 -0.000005 -0.531509 1.219836 -0.541120
    6 13.446754 -0.000001 0.000001 0.000000 0.000000 -0.648458
    7 15.997000 0.000001 -0.000001 -1.683447 0.000000 0.000000
    8 1.885325 0.833276 -2.177876 -1.598016 0.698132 -0.000668
    9 1.506960 -0.000006 0.000000 0.000000 0.000000 -0.139626
    10 0.798348 0.000003 0.000000 0.000000 0.000000 -0.113446
    11 3.950302 -0.539875 -2.108871 -0.000806 0.157080 -0.000126
    12 1.545797 -0.000002 -0.000001 0.000000 0.000000 0.471239
    13 1.667398 0.000001 0.000007 0.000000 0.000000 0.436332
    14 3.899452 -0.475378 -1.170893 -0.000796 0.000000 0.000000
    15 1.528218 0.000003 0.000001 0.000000 0.000000 0.331613
    16 1.528216 -0.000001 -0.000003 0.000000 0.000000 0.479966
    17 3.899459 -0.431804 0.168223 -0.000796 0.000000 0.000000
    18 1.506968 0.000002 -0.000001 0.000000 0.000000 0.427606
    19 1.506962 -0.000001 0.000001 0.000000 0.000000 0.340339
    20 3.915634 -0.278020 1.402608 -0.000796 0.000000 0.000000
    21 1.333080 0.000000 -0.000001 0.000000 0.000000 0.637045
    22 1.159204 0.000000 -0.000002 0.000000 0.000000 0.218166
    23 18.209354 8.207681 -0.352298 -1.582244 0.018583 -3.126150
    24 0.000009 0.011450 -1.352403 -0.000014 1.370796 3.140783
    25 6.078084 0.000001 0.000003 0.917076 -1.061589 -0.963856
    26 13.446754 -0.000002 0.000000 0.000000 0.000000 -1.511241
    27 15.996997 0.000002 0.000002 1.669388 0.006410 0.183133
    28 1.885322 0.833275 2.177875 1.172048 -0.644525 0.438889
    29 1.506965 -0.000001 0.000000 0.000000 0.000000 -0.436329
    30 0.798346 -0.000001 0.000000 0.000000 0.000000 -0.507867
    31 3.950303 -0.539876 2.108875 0.012323 0.110212 -0.171410
    32 1.545797 0.000000 -0.000006 0.000000 0.000000 0.678297
    33 1.667397 -0.000001 0.000004 0.000000 0.000000 0.785377
    34 3.899459 -0.475377 1.170890 -0.037591 0.101270 -0.055752
    35 1.528216 -0.000001 -0.000005 0.000000 0.000000 1.575956
    36 1.528217 -0.000003 0.000007 0.000000 0.000000 1.352577
    37 3.899459 -0.431804 -0.168226 0.093293 -0.006316 0.182573
    38 1.506964 0.000001 0.000003 0.000000 0.000000 1.708600
    39 1.506964 -0.000001 -0.000001 0.000000 0.000000 1.310683
    40 3.915633 -0.278021 -1.402605 0.217310 -0.078619 0.205835
    41 1.333087 0.000001 0.000004 0.000000 0.000000 1.464281
    42 1.159202 0.000002 -0.000007 0.000000 0.000000 1.370013
    43 3.495615 0.351176 1.563391 1.582244 -0.018583 -3.126153
    44 -2.156468 1.809614 0.001208 0.000000 0.000000 0.000000
    45 -6.617014 1.564316 -0.031845 0.000000 0.000000 0.000000
  time 7
    0 0.928525 1.014336 -19.461068 0.000000 0.000000 -1.570792
    1 0.000000 0.000000 0.000002 -0.000086 -1.570451 -1.570709
    2 4.443615 -0.009642 0.000006 -0.000004 -0.000001 0.000796
    3 12.111412 -0.011446 0.000000 0.000000 0.000000 0.000000
    4 0.000010 0.011442 1.352402 -0.000014 -1.370796 3.140810
    5 6.078090 0.000001 -0.000005 -0.531509 1.219836 -0.541120
    6 13.446754 -0.000001 0.000001 0.000000 0.000000 -0.648458
    7 15.997000 0.000001 -0.000001 -1.683447 0.000000 0.000000
    8 1.885325 0.833276 -2.177876 -1.598016 0.698132 -0.000668
    9 1.506960 -0.000006 0.000000 0.000000 0.000000 -0.139626
    10 0.798348 0.000003 0.000000 0.000000 0.000000 -0.113446
    11 3.950302 -0.539875 -2.108871 -0.000806 0.157080 -0.000126
    12 1.545797 -0.000002 -0.000001 0.000000 0.000000 0.471239
    13 1.667398 0.000001 0.000007 0.000000 0.000000 0.436332
    14 3.899452 -0.475378 -1.170893 -0.000796 0.000000 0.000000
    15 1.528218 0.000003 0.000001 0.000000 0.000000 0.331613
    16 1.528216 -0.000001 -0.000003 0.000000 0.000000 0.479966
    17 3.899459 -0.431804 0.168223 -0.000796 0.000000 0.000000
    18 1.506968 0.000002 -0.000001 0.000000 0.000000 0.427606
    19 1.506962 -0.000001 0.000001 0.000000 0.000000 0.340339
    20 3.915634 -0.278020 1.402608 -0.000796 0.000000 0.000000
    21 1.333080 0.000000 -0.000001 0.000000 0.000000 0.637045
    22 1.159204 0.000000 -0.000002 0.000000 0.000000 0.218166
    23 18.209354 8.207681 -0.352298 -1.582244 0.018583 -3.126150
    24 0.000009 0.011450 -1.352403 -0.000014 1.370796 3.140783
    25 6.078084 0.000001 0.000003 1.023047 -0.966098 -1.089632
    26 13.446754 -0.000002 0.000000 0.000000 0.000000 -1.350437
    27 15.996997 0.000002 0.000002 1.669604 -0.000186 0.249595
    28 1.885322 0.833275 2.177875 1.172048 -0.644525 0.438889
    29 1.506965 -0.000001 0.000000 0.000000 0.000000 -0.436329
    30 0.798346 -0.000001 0.000000 0.000000 0.000000 -0.507879
    31 3.950303 -0.539876 2.108875 0.012323 0.110212 -0.171410
    32 1.545797 0.000000 -0.000006 0.000000 0.000000 0.673671
    33 1.667397 -0.000001 0.000004 0.000000 0.000000 0.785377
    34 3.899459 -0.475377 1.170890 -0.037591 0.101270 -0.055752
    35 1.528216 -0.000001 -0.000005 0.000000 0.000000 1.575956
    36 1.528217 -0.000003 0.000007 0.000000 0.000000 1.352577
    37 3.899459 -0.431804 -0.168226 0.093293 -0.006316 0.182573
    38 1.506964 0.000001 0.000003 0.000000 0.000000 1.708639
    39 1.506964 -0.000001 -0.000001 0.000000 0.000000 1.310683
    40 3.915633 -0.278021 -1.402605 0.217310 -0.078619 0.205835
    41 1.333087 0.000001 0.000004 0.000000 0.000000 1.464281
    42 1.159202 0.000002 -0.000007 0.000000 0.000000 1.370013
    43 3.495615 0.351176 1.563391 1.582244 -0.018583 -3.126153
    44 -2.156468 1.809614 0.001208 0.000000 0.000000 0.000000
    45 -6.613107 1.564316 -0.031845 0.000000 0.000000 0.000000
  time 8
    0 0.928525 1.014336 -19.461068 0.000000 0.000000 -1.570792
    1 0.000000 0.000000 0.000002 -0.000086 -1.570451 -1.570709
    2 4.443615 -0.009642 0.000006 -0.000004 -0.000001 0.000796
    3 12.111412 -0.011446 0.000000 0.000000 0.000000 0.000000
    4 0.000010 0.011442 1.352402 -0.000014 -1.370796 3.140810
    5 6.078090 0.000001 -0.000005 -0.531509 1.219836 -0.541120
    6 13.446754 -0.000001 0.000001 0.000000 0.000000 -0.648458
    7 15.997000 0.000001 -0.000001 -1.683447 0.000000 0.000000
    8 1.885325 0.833276 -2.177876 -1.598016 0.698132 -0.000668
    9 1.506960 -0.000006 0.000000 0.000000 0.000000 -0.139626
    10 0.798348 0.000003 0.000000 0.000000 0.000000 -0.113446
    11 3.950302 -0.539875 -2.108871 -0.000806 0.157080 -0.000126
    12 1.545797 -0.000002 -0.000001 0.000000 0.000000 0.471239
    13 1.667398 0.000001 0.000007 0.000000 0.000000 0.436332
    14 3.899452 -0.475378 -1.170893 -0.000796 0.000000 0.000000
    15 1.528218 0.000003 0.000001 0.000000 0.000000 0.331613
    16 1.528216 -0.000001 -0.000003 0.000000 0.000000 0.479966
    17 3.899459 -0.431804 0.168223 -0.000796 0.000000 0.000000
    18 1.506968 0.000002 -0.000001 0.000000 0.000000 0.427606
    19 1.506962 -0.000001 0.000001 0.000000 0.000000 0.340339
    20 3.915634 -0.278020 1.402608 -0.000796 0.000000 0.000000
    21 1.333080 0.000000 -0.000001 0.000000 0.000000 0.637045
    22 1.159204 0.000000 -0.000002 0.000000 0.000000 0.218166
    23 18.209354 8.207681 -0.352298 -1.582244 0.018583 -3.126150
    24 0.000009 0.011450 -1.352403 -0.000014 1.370796 3.140783
    25 6.078084 0.000001 0.000003 1.080771 -0.890757 -1.162261
    26 13.446754 -0.000002 0.000000 0.000000 0.000000 -1.235735
    27 15.996997 0.000002 0.000002 1.669496 -0.004854 0.295968
    28 1.885322 0.833275 2.177875 1.172048 -0.644525 0.438889
    29 1.506965 -0.000001 0.000000 0.000000 0.000000 -0.436329
    30 0.798346 -0.000001 0.000000 0.000000 0.000000 -0.507867
    31 3.950303 -0.539876 2.108875 0.012323 0.110212 -0.171410
    32 1.545797 0.000000 -0.000006 0.000000 0.000000 0.663855
    33 1.667397 -0.000001 0.000004 0.000000 0.000000 0.785377
    34 3.899459 -0.475377 1.170890 -0.037591 0.101270 -0.055752
    35 1.528216 -0.000001 -0.000005 0.000000 0.000000 1.575956
    36 1.528217 -0.000003 0.000007 0.000000 0.000000 1.352577
    37 3.899459 -0.431804 -0.168226 0.093293 -0.006316 0.182573
    38 1.506964 0.000001 0.000003 0.000000 0.000000 1.708639
    39 1.506964 -0.000001 -0.000001 0.000000 0.000000 1.310683
    40 3.915633 -0.278021 -1.402605 0.217310 -0.078619 0.205835
    41 1.333087 0.000001 0.000004 0.000000 0.000000 1.464281
    42 1.159202 0.000002 -0.000007 0.000000 0.000000 1.370013
    43 3.495615 0.351176 1.563391 1.582244 -0.018583 -3.126153
    44 -2.156468 1.809614 0.001208 0.000000 0.000000 0.000000
    45 -6.613107 1.564316 -0.031845 0.000000 0.000000 0.000000
  time 9
    0 0.928525 1.014336 -19.461068 0.000000 0.000000 -1.570792
    1 0.000000 0.000000 0.000002 -0.000086 -1.570451 -1.570709
    2 4.443615 -0.009642 0.000006 -0.000004 -0.000001 0.000796
    3 12.111412 -0.011446 0.000000 0.000000 0.000000 0.000000
    4 0.000010 0.011442 1.352402 -0.000014 -1.370796 3.140810
    5 6.078090 0.000001 -0.000005 -0.531509 1.219836 -0.541120
    6 13.446754 -0.000001 0.000001 0.000000 0.000000 -0.648458
    7 15.997000 0.000001 -0.000001 -1.683447 0.000000 0.000000
    8 1.885325 0.833276 -2.177876 -1.598016 0.698132 -0.000668
    9 1.506960 -0.000006 0.000000 0.000000 0.000000 -0.139626
    10 0.798348 0.000003 0.000000 0.000000 0.000000 -0.113446
    11 3.950302 -0.539875 -2.108871 -0.000806 0.157080 -0.000126
    12 1.545797 -0.000002 -0.000001 0.000000 0.000000 0.471239
    13 1.667398 0.000001 0.000007 0.000000 0.000000 0.436332
    14 3.899452 -0.475378 -1.170893 -0.000796 0.000000 0.000000
    15 1.528218 0.000003 0.000001 0.000000 0.000000 0.331613
    16 1.528216 -0.000001 -0.000003 0.000000 0.000000 0.479966
    17 3.899459 -0.431804 0.168223 -0.000796 0.000000 0.000000
    18 1.506968 0.000002 -0.000001 0.000000 0.000000 0.427606
    19 1.506962 -0.000001 0.000001 0.000000 0.000000 0.340339
    20 3.915634 -0.278020 1.402608 -0.000796 0.000000 0.000000
    21 1.333080 0.000000 -0.000001 0.000000 0.000000 0.637045
    22 1.159204 0.000000 -0.000002 0.000000 0.000000 0.218166
    23 18.209354 8.207681 -0.352298 -1.582244 0.018583 -3.126150
    24 0.000009 0.011450 -1.352403 -0.000014 1.370796 3.140783
    25 6.078084 0.000001 0.000003 1.101214 -0.857557 -1.188593
    26 13.446754 -0.000002 0.000000 0.000000 0.000000 -1.195978
    27 15.996997 0.000002 0.000002 1.669412 -0.006015 0.307669
    28 1.885322 0.833275 2.177875 1.172048 -0.644525 0.438889
    29 1.506965 -0.000001 0.000000 0.000000 0.000000 -0.436329
    30 0.798346 -0.000001 0.000000 0.000000 0.000000 -0.507867
    31 3.950303 -0.539876 2.108875 0.012323 0.110212 -0.171410
    32 1.545797 0.000000 -0.000006 0.000000 0.000000 0.646538
    33 1.667397 -0.000001 0.000004 0.000000 0.000000 0.785377
    34 3.899459 -0.475377 1.170890 -0.037591 0.101270 -0.055752
    35 1.528216 -0.000001 -0.000005 0.000000 0.000000 1.575956
    36 1.528217 -0.000003 0.000007 0.000000 0.000000 1.352604
    37 3.899459 -0.431804 -0.168226 0.093293 -0.006316 0.182573
    38 1.506964 0.000001 0.000003 0.000000 0.000000 1.708639
    39 1.506964 -0.000001 -0.000001 0.000000 0.000000 1.310683
    40 3.915633 -0.278021 -1.402605 0.217310 -0.078619 0.205835
    41 1.333087 0.000001 0.000004 0.000000 0.000000 1.464281
    42 1.159202 0.000002 -0.000007 0.000000 0.000000 1.370013
    43 3.495615 0.351176 1.563391 1.582244 -0.018583 -3.126153
    44 -2.156468 1.809614 0.001208 0.000000 0.000000 0.000000
    45 -6.613107 1.564316 -0.031845 0.000000 0.000000 0.000000
  time 10
    0 0.928525 1.014336 -19.461068 0.000000 0.000000 -1.570792
    1 0.000000 0.000000 0.000002 -0.000086 -1.570451 -1.570709
    2 4.443615 -0.009642 0.000006 -0.000004 -0.000001 0.000796
    3 12.111412 -0.011446 0.000000 0.000000 0.000000 0.000000
    4 0.000010 0.011442 1.352402 -0.000014 -1.370796 3.140810
    5 6.078090 0.000001 -0.000005 -0.531509 1.219836 -0.541120
    6 13.446754 -0.000001 0.000001 0.000000 0.000000 -0.648458
    7 15.997000 0.000001 -0.000001 -1.683447 0.000000 0.000000
    8 1.885325 0.833276 -2.177876 -1.598016 0.698132 -0.000668
    9 1.506960 -0.000006 0.000000 0.000000 0.000000 -0.139626
    10 0.798348 0.000003 0.000000 0.000000 0.000000 -0.113446
    11 3.950302 -0.539875 -2.108871 -0.000806 0.157080 -0.000126
    12 1.545797 -0.000002 -0.000001 0.000000 0.000000 0.471239
    13 1.667398 0.000001 0.000007 0.000000 0.000000 0.436332
    14 3.899452 -0.475378 -1.170893 -0.000796 0.000000 0.000000
    15 1.528218 0.000003 0.000001 0.000000 0.000000 0.331613
    16 1.528216 -0.000001 -0.000003 0.000000 0.000000 0.479966
    17 3.899459 -0.431804 0.168223 -0.000796 0.000000 0.000000
    18 1.506968 0.000002 -0.000001 0.000000 0.000000 0.427606
    19 1.506962 -0.000001 0.000001 0.000000 0.000000 0.340339
    20 3.915634 -0.278020 1.402608 -0.000796 0.000000 0.000000
    21 1.333080 0.000000 -0.000001 0.000000 0.000000 0.637045
    22 1.159204 0.000000 -0.000002 0.000000 0.000000 0.218166
    23 18.209354 8.207681 -0.352298 -1.582244 0.018583 -3.126150
    24 0.000009 0.011450 -1.352403 -0.000014 1.370796 3.140783
    25 6.078084 0.000001 0.000003 1.109902 -0.841648 -1.199395
    26 13.446754 -0.000002 0.000000 0.000000 0.000000 -1.188768
    27 15.996997 0.000002 0.000002 1.669424 -0.005806 0.305596
    28 1.885322 0.833275 2.177875 1.172048 -0.644537 0.438889
    29 1.506965 -0.000001 0.000000 0.000000 0.000000 -0.436329
    30 0.798346 -0.000001 0.000000 0.000000 0.000000 -0.507879
    31 3.950303 -0.539876 2.108875 0.012323 0.110212 -0.171410
    32 1.545797 0.000000 -0.000006 0.000000 0.000000 0.625684
    33 1.667397 -0.000001 0.000004 0.000000 0.000000 0.785377
    34 3.899459 -0.475377 1.170890 -0.037591 0.101270 -0.055752
    35 1.528216 -0.000001 -0.000005 0.000000 0.000000 1.575956
    36 1.528217 -0.000003 0.000007 0.000000 0.000000 1.352577
    37 3.899459 -0.431804 -0.168226 0.093293 -0.006316 0.182573
    38 1.506964 0.000001 0.000003 0.000000 0.000000 1.708639
    39 1.506964 -0.000001 -0.000001 0.000000 0.000000 1.310683
    40 3.915633 -0.278021 -1.402605 0.217310 -0.078619 0.205835
    41 1.333087 0.000001 0.000004 0.000000 0.000000 1.464281
    42 1.159202 0.000002 -0.000007 0.000000 0.000000 1.370013
    43 3.495615 0.351176 1.563391 1.582244 -0.018583 -3.126153
    44 -2.156468 1.809614 0.001208 0.000000 0.000000 0.000000
    45 -6.613107 1.564316 -0.031845 0.000000 0.000000 0.000000
  time 11
    0 0.928525 1.014336 -19.461068 0.000000 0.000000 -1.570792
    1 0.000000 0.000000 0.000002 -0.000086 -1.570451 -1.570709
    2 4.443615 -0.009642 0.000006 -0.000004 -0.000001 0.000796
    3 12.111412 -0.011446 0.000000 0.000000 0.000000 0.000000
    4 0.000010 0.011442 1.352402 -0.000014 -1.370796 3.140810
    5 6.078090 0.000001 -0.000005 -0.531509 1.219836 -0.541120
    6 13.446754 -0.000001 0.000001 0.000000 0.000000 -0.648458
    7 15.997000 0.000001 -0.000001 -1.683447 0.000000 0.000000
    8 1.885325 0.833276 -2.177876 -1.598016 0.698132 -0.000668
    9 1.506960 -0.000006 0.000000 0.000000 0.000000 -0.139626
    10 0.798348 0.000003 0.000000 0.000000 0.000000 -0.113446
    11 3.950302 -0.539875 -2.108871 -0.000806 0.157080 -0.000126
    12 1.545797 -0.000002 -0.000001 0.000000 0.000000 0.471239
    13 1.667398 0.000001 0.000007 0.000000 0.000000 0.436332
    14 3.899452 -0.475378 -1.170893 -0.000796 0.000000 0.000000
    15 1.528218 0.000003 0.000001 0.000000 0.000000 0.331613
    16 1.528216 -0.000001 -0.000003 0.000000 0.000000 0.479966
    17 3.899459 -0.431804 0.168223 -0.000796 0.000000 0.000000
    18 1.506968 0.000002 -0.000001 0.000000 0.000000 0.427606
    19 1.506962 -0.000001 0.000001 0.000000 0.000000 0.340339
    20 3.915634 -0.278020 1.402608 -0.000796 0.000000 0.000000
    21 1.333080 0.000000 -0.000001 0.000000 0.000000 0.637045
    22 1.159204 0.000000 -0.000002 0.000000 0.000000 0.218166
    23 18.209354 8.207681 -0.352298 -1.582244 0.018583 -3.126150
    24 0.000009 0.011450 -1.352403 -0.000014 1.370796 3.140783
    25 6.078084 0.000001 0.000003 1.113521 -0.834350 -1.203430
    26 13.446754 -0.000002 0.000000 0.000000 0.000000 -1.194296
    27 15.996997 0.000002 0.000002 1.669472 -0.004970 0.297136
    28 1.885322 0.833275 2.177875 1.172048 -0.644525 0.438889
    29 1.506965 -0.000001 0.000000 0.000000 0.000000 -0.436329
    30 0.798346 -0.000001 0.000000 0.000000 0.000000 -0.507867
    31 3.950303 -0.539876 2.108875 0.012323 0.110212 -0.171410
    32 1.545797 0.000000 -0.000006 0.000000 0.000000 0.603165
    33 1.667397 -0.000001 0.000004 0.000000 0.000000 0.785377
    34 3.899459 -0.475377 1.170890 -0.037591 0.101270 -0.055752
    35 1.528216 -0.000001 -0.000005 0.000000 0.000000 1.575956
    36 1.528217 -0.000003 0.000007 0.000000 0.000000 1.352577
    37 3.899459 -0.431804 -0.168226 0.093293 -0.006316 0.182573
    38 1.506964 0.000001 0.000003 0.000000 0.000000 1.708639
    39 1.506964 -0.000001 -0.000001 0.000000 0.000000 1.310683
    40 3.915633 -0.278021 -1.402605 0.217310 -0.078619 0.205835
    41 1.333087 0.000001 0.000004 0.000000 0.000000 1.464281
    42 1.159202 0.000002 -0.000007 0.000000 0.000000 1.370013
    43 3.495615 0.351176 1.563391 1.582244 -0.018583 -3.126153
    44 -2.156468 1.809614 0.001208 0.000000 0.000000 0.000000
    45 -6.613107 1.564316 -0.031845 0.000000 0.000000 0.000000
  time 12
    0 0.928525 1.014336 -19.461068 0.000000 0.000000 -1.570792
    1 0.000000 0.000000 0.000002 -0.000086 -1.570451 -1.570709
    2 4.443615 -0.009642 0.000006 -0.000004 -0.000001 0.000796
    3 12.111412 -0.011446 0.000000 0.000000 0.000000 0.000000
    4 0.000010 0.011442 1.352402 -0.000014 -1.370796 3.140810
    5 6.078090 0.000001 -0.000005 -0.531509 1.219836 -0.541120
    6 13.446754 -0.000001 0.000001 0.000000 0.000000 -0.648458
    7 15.997000 0.000001 -0.000001 -1.683447 0.000000 0.000000
    8 1.885325 0.833276 -2.177876 -1.598016 0.698132 -0.000668
    9 1.506960 -0.000006 0.000000 0.000000 0.000000 -0.139626
    10 0.798348 0.000003 0.000000 0.000000 0.000000 -0.113446
    11 3.950302 -0.539875 -2.108871 -0.000806 0.157080 -0.000126
    12 1.545797 -0.000002 -0.000001 0.000000 0.000000 0.471239
    13 1.667398 0.000001 0.000007 0.000000 0.000000 0.436332
    14 3.899452 -0.475378 -1.170893 -0.000796 0.000000 0.000000
    15 1.528218 0.000003 0.000001 0.000000 0.000000 0.331613
    16 1.528216 -0.000001 -0.000003 0.000000 0.000000 0.479966
    17 3.899459 -0.431804 0.168223 -0.000796 0.000000 0.000000
    18 1.506968 0.000002 -0.000001 0.000000 0.000000 0.427606
    19 1.506962 -0.000001 0.000001 0.000000 0.000000 0.340339
    20 3.915634 -0.278020 1.402608 -0.000796 0.000000 0.000000
    21 1.333080 0.000000 -0.000001 0.000000 0.000000 0.637045
    22 1.159204 0.000000 -0.000002 0.000000 0.000000 0.218166
    23 18.209354 8.207681 -0.352298 -1.582244 0.018583 -3.126150
    24 0.000009 0.011450 -1.352403 -0.000014 1.370796 3.140783
    25 6.078084 0.000001 0.000003 1.117347 -0.826823 -1.208116
    26 13.446754 -0.000002 0.000000 0.000000 0.000000 -1.192806
    27 15.996997 0.000002 0.000002 1.669520 -0.004203 0.289558
    28 1.885322 0.833275 2.177875 1.172048 -0.644525 0.438889
    29 1.506965 -0.000001 0.000000 0.000000 0.000000 -0.436329
    30 0.798346 -0.000001 0.000000 0.000000 0.000000 -0.507867
    31 3.950303 -0.539876 2.108875 0.012323 0.110212 -0.171410
    32 1.545797 0.000000 -0.000006 0.000000 0.000000 0.580886
    33 1.667397 -0.000001 0.000004 0.000000 0.000000 0.785377
    34 3.899459 -0.475377 1.170890 -0.037591 0.101270 -0.055752
    35 1.528216 -0.000001 -0.000005 0.000000 0.000000 1.575956
    36 1.528217 -0.000003 0.000007 0.000000 0.000000 1.352577
    37 3.899459 -0.431804 -0.168226 0.093293 -0.006316 0.182573
    38 1.506964 0.000001 0.000003 0.000000 0.000000 1.708639
    39 1.506964 -0.000001 -0.000001 0.000000 0.000000 1.310683
    40 3.915633 -0.278021 -1.402605 0.217310 -0.078619 0.205835
    41 1.333087 0.000001 0.000004 0.000000 0.000000 1.464281
    42 1.159202 0.000002 -0.000007 0.000000 0.000000 1.370013
    43 3.495615 0.351176 1.563391 1.582244 -0.018583 -3.126153
    44 -2.156468 1.809614 0.001208 0.000000 0.000000 0.000000
    45 -6.613107 1.564316 -0.031845 0.000000 0.000000 0.000000
  time 13
    0 0.928525 1.014336 -19.461068 0.000000 0.000000 -1.570792
    1 0.000000 0.000000 0.000002 -0.000086 -1.570451 -1.570709
    2 4.443615 -0.009642 0.000006 -0.000004 -0.000001 0.000796
    3 12.111412 -0.011446 0.000000 0.000000 0.000000 0.000000
    4 0.000010 0.011442 1.352402 -0.000014 -1.370796 3.140810
    5 6.078090 0.000001 -0.000005 -0.531509 1.219836 -0.541120
    6 13.446754 -0.000001 0.000001 0.000000 0.000000 -0.648458
    7 15.997000 0.000001 -0.000001 -1.683447 0.000000 0.000000
    8 1.885325 0.833276 -2.177876 -1.598016 0.698132 -0.000668
    9 1.506960 -0.000006 0.000000 0.000000 0.000000 -0.139626
    10 0.798348 0.000003 0.000000 0.000000 0.000000 -0.113446
    11 3.950302 -0.539875 -2.108871 -0.000806 0.157080 -0.000126
    12 1.545797 -0.000002 -0.000001 0.000000 0.000000 0.471239
    13 1.667398 0.000001 0.000007 0.000000 0.000000 0.436332
    14 3.899452 -0.475378 -1.170893 -0.000796 0.000000 0.000000
    15 1.528218 0.000003 0.000001 0.000000 0.000000 0.331613
    16 1.528216 -0.000001 -0.000003 0.000000 0.000000 0.479966
    17 3.899459 -0.431804 0.168223 -0.000796 0.000000 0.000000
    18 1.506968 0.000002 -0.000001 0.000000 0.000000 0.427606
    19 1.506962 -0.000001 0.000001 0.000000 0.000000 0.340339
    20 3.915634 -0.278020 1.402608 -0.000796 0.000000 0.000000
    21 1.333080 0.000000 -0.000001 0.000000 0.000000 0.637045
    22 1.159204 0.000000 -0.000002 0.000000 0.000000 0.218166
    23 18.209354 8.207681 -0.352298 -1.582244 0.018583 -3.126150
    24 0.000009 0.011450 -1.352403 -0.000014 1.370796 3.140783
    25 6.078084 0.000001 0.000003 1.120855 -0.820281 -1.213076
    26 13.446754 -0.000002 0.000000 0.000000 0.000000 -1.180547
    27 15.996997 0.000002 0.000002 1.669544 -0.003507 0.282600
    28 1.885322 0.833275 2.177875 1.172048 -0.644537 0.438889
    29 1.506965 -0.000001 0.000000 0.000000 0.000000 -0.436329
    30 0.798346 -0.000001 0.000000 0.000000 0.000000 -0.507879
    31 3.950303 -0.539876 2.108875 0.012323 0.110212 -0.171410
    32 1.545797 0.000000 -0.000006 0.000000 0.000000 0.558762
    33 1.667397 -0.000001 0.000004 0.000000 0.000000 0.785377
    34 3.899459 -0.475377 1.170890 -0.037591 0.101270 -0.055752
    35 1.528216 -0.000001 -0.000005 0.000000 0.000000 1.575956
    36 1.528217 -0.000003 0.000007 0.000000 0.000000 1.352577
    37 3.899459 -0.431804 -0.168226 0.093293 -0.006316 0.182573
    38 1.506964 0.000001 0.000003 0.000000 0.000000 1.708639
    39 1.506964 -0.000001 -0.000001 0.000000 0.000000 1.310683
    40 3.915633 -0.278021 -1.402605 0.217310 -0.078619 0.205835
    41 1.333087 0.000001 0.000004 0.000000 0.000000 1.464281
    42 1.159202 0.000002 -0.000007 0.000000 0.000000 1.370013
    43 3.495615 0.351176 1.563391 1.582244 -0.018583 -3.126153
    44 -2.156468 1.809614 0.001208 0.000000 0.000000 0.000000
    45 -6.613107 1.564316 -0.031845 0.000000 0.000000 0.000000
  time 14
    0 0.928525 1.014336 -19.461068 0.000000 0.000000 -1.570792
    1 0.000000 0.000000 0.000002 -0.000086 -1.570451 -1.570709
    2 4.443615 -0.009642 0.000006 -0.000004 -0.000001 0.000796
    3 12.111412 -0.011446 0.000000 0.000000 0.000000 0.000000
    4 0.000010 0.011442 1.352402 -0.000014 -1.370796 3.140810
    5 6.078090 0.000001 -0.000005 -0.531509 1.219836 -0.541120
    6 13.446754 -0.000001 0.000001 0.000000 0.000000 -0.648458
    7 15.997000 0.000001 -0.000001 -1.683447 0.000000 0.000000
    8 1.885325 0.833276 -2.177876 -1.598016 0.698132 -0.000668
    9 1.506960 -0.000006 0.000000 0.000000 0.000000 -0.139626
    10 0.798348 0.000003 0.000000 0.000000 0.000000 -0.113446
    11 3.950302 -0.539875 -2.108871 -0.000806 0.157080 -0.000126
    12 1.545797 -0.000002 -0.000001 0.000000 0.000000 0.471239
    13 1.667398 0.000001 0.000007 0.000000 0.000000 0.436332
    14 3.899452 -0.475378 -1.170893 -0.000796 0.000000 0.000000
    15 1.528218 0.000003 0.000001 0.000000 0.000000 0.331613
    16 1.528216 -0.000001 -0.000003 0.000000 0.000000 0.479966
    17 3.899459 -0.431804 0.168223 -0.000796 0.000000 0.000000
    18 1.506968 0.000002 -0.000001 0.000000 0.000000 0.427606
    19 1.506962 -0.000001 0.000001 0.000000 0.000000 0.340339
    20 3.915634 -0.278020 1.402608 -0.000796 0.000000 0.000000
    21 1.333080 0.000000 -0.000001 0.000000 0.000000 0.637045
    22 1.159204 0.000000 -0.000002 0.000000 0.000000 0.218166
    23 18.209354 8.207681 -0.352298 -1.582244 0.018583 -3.126150
    24 0.000009 0.011450 -1.352403 -0.000014 1.370796 3.140783
    25 6.078084 0.000001 0.000003 1.121946 -0.818638 -1.215177
    26 13.446754 -0.000002 0.000000 0.000000 0.000000 -1.167567
    27 15.996997 0.000002 0.000002 1.669580 -0.002555 0.272925
    28 1.885322 0.833275 2.177875 1.172048 -0.644525 0.438889
    29 1.506965 -0.000001 0.000000 0.000000 0.000000 -0.436329
    30 0.798346 -0.000001 0.000000 0.000000 0.000000 -0.507867
    31 3.950303 -0.539876 2.108875 0.012323 0.110212 -0.171410
    32 1.545797 0.000000 -0.000006 0.000000 0.000000 0.535944
    33 1.667397 -0.000001 0.000004 0.000000 0.000000 0.785377
    34 3.899459 -0.475377 1.170890 -0.037591 0.101270 -0.055752
    35 1.528216 -0.000001 -0.000005 0.000000 0.000000 1.575956
    36 1.528217 -0.000003 0.000007 0.000000 0.000000 1.352577
    37 3.899459 -0.431804 -0.168226 0.093305 -0.006316 0.182573
    38 1.506964 0.000001 0.000003 0.000000 0.000000 1.708639
    39 1.506964 -0.000001 -0.000001 0.000000 0.000000 1.310683
    40 3.915633 -0.278021 -1.402605 0.217310 -0.078619 0.205835
    41 1.333087 0.000001 0.000004 0.000000 0.000000 1.464281
    42 1.159202 0.000002 -0.000007 0.000000 0.000000 1.370013
    43 3.495615 0.351176 1.563391 1.582244 -0.018583 -3.126153
    44 -2.156468 1.809614 0.001208 0.000000 0.000000 0.000000
    45 -6.613107 1.564316 -0.031845 0.000000 0.000000 0.000000
end
