// Created by Crowbar 0.74
version 1
nodes
  0 "Bip01" -1
  1 "Bip01 Pelvis" 0
  2 "Bip01 Spine" 1
  3 "Bip01 Neck" 2
  4 "Bip01 R Clavicle" 3
  5 "Bip01 R UpperArm" 4
  6 "Bip01 R Forearm" 5
  7 "Bip01 R Hand" 6
  8 "Bip01 R Finger0" 7
  9 "Bip01 R Finger01" 8
  10 "Bip01 R Finger02" 9
  11 "Bip01 R Finger1" 7
  12 "Bip01 R Finger11" 11
  13 "Bip01 R Finger12" 12
  14 "Bip01 R Finger2" 7
  15 "Bip01 R Finger21" 14
  16 "Bip01 R Finger22" 15
  17 "Bip01 R Finger3" 7
  18 "Bip01 R Finger31" 17
  19 "Bip01 R Finger32" 18
  20 "Bip01 R Finger4" 7
  21 "Bip01 R Finger41" 20
  22 "Bip01 R Finger42" 21
  23 "tip" 7
end
skeleton
  time 0
    0 0.135014 -5.181166 -24.816700 0.000000 0.000000 -1.570795
    1 0.000001 0.000000 0.000000 -0.000086 -1.570451 -1.570709
    2 4.443614 -0.009643 0.000006 -0.000004 -0.000001 0.000796
    3 12.111416 -0.011445 0.000000 0.000000 0.000000 0.000000
    4 0.000005 0.011450 -1.352403 -0.000014 1.370796 3.140783
    5 6.078087 -0.000001 0.000002 0.662677 -0.895968 -0.776403
    6 13.446750 -0.000001 0.000001 0.000000 0.000000 -1.296175
    7 15.997000 -0.000001 -0.000001 2.023414 -0.208587 -0.028106
    8 1.885327 0.833276 2.177875 1.264233 -0.638137 0.530090
    9 1.506964 0.000000 -0.000001 0.000000 0.000000 -0.488689
    10 0.798353 0.000000 0.000001 0.000000 0.000000 -0.986085
    11 3.950306 -0.539876 2.108871 -0.037808 0.038137 -0.197081
    12 1.545796 0.000001 -0.000006 0.000000 0.000000 1.396235
    13 1.667398 -0.000004 0.000002 0.000000 0.000000 1.466046
    14 3.899459 -0.475377 1.170888 -0.069014 0.069822 -0.026114
    15 1.528218 0.000000 0.000000 0.000000 0.000000 1.047176
    16 1.528217 -0.000004 0.000001 0.000000 0.000000 1.815102
    17 3.899459 -0.431805 -0.168223 -0.003758 -0.034707 0.130944
    18 1.506968 -0.000001 -0.000001 0.000000 0.000000 1.082084
    19 1.506964 0.000001 0.000000 0.000000 0.000000 1.727834
    20 3.915632 -0.278020 -1.402610 0.304318 -0.057143 -0.007490
    21 1.333087 -0.000003 -0.000003 0.000000 0.000000 1.265345
    22 1.159205 0.000001 0.000003 0.000000 0.000000 1.527123
    23 13.333949 0.905787 19.735224 1.582244 -0.018583 -3.126154
  time 1
    0 0.135014 -5.181166 -24.816700 0.000000 0.000000 -1.570795
    1 0.000001 0.000000 0.000000 -0.000086 -1.570451 -1.570709
    2 4.443614 -0.009643 0.000006 -0.000004 -0.000001 0.000796
    3 12.111416 -0.011445 0.000000 0.000000 0.000000 0.000000
    4 0.000005 0.011450 -1.352403 -0.000014 1.370796 3.140783
    5 6.078087 -0.000001 0.000002 0.622118 -0.896671 -0.742364
    6 13.446750 -0.000001 0.000001 0.000000 0.000000 -1.491921
    7 15.997000 -0.000001 -0.000001 2.248148 -0.091936 -0.305153
    8 1.885327 0.833276 2.177875 1.264233 -0.638137 0.530090
    9 1.506964 0.000000 -0.000001 0.000000 0.000000 -0.488689
    10 0.798353 0.000000 0.000001 0.000000 0.000000 -0.986085
    11 3.950306 -0.539876 2.108871 -0.037808 0.038137 -0.197081
    12 1.545796 0.000001 -0.000006 0.000000 0.000000 1.396235
    13 1.667398 -0.000004 0.000002 0.000000 0.000000 1.466046
    14 3.899459 -0.475377 1.170888 -0.069014 0.069822 -0.026114
    15 1.528218 0.000000 0.000000 0.000000 0.000000 1.047176
    16 1.528217 -0.000004 0.000001 0.000000 0.000000 1.815102
    17 3.899459 -0.431805 -0.168223 -0.003758 -0.034707 0.130944
    18 1.506968 -0.000001 -0.000001 0.000000 0.000000 1.082084
    19 1.506964 0.000001 0.000000 0.000000 0.000000 1.727834
    20 3.915632 -0.278020 -1.402610 0.304318 -0.057143 -0.007490
    21 1.333087 -0.000003 -0.000003 0.000000 0.000000 1.265345
    22 1.159205 0.000001 0.000003 0.000000 0.000000 1.527123
    23 13.333949 0.905787 19.735224 1.582244 -0.018583 -3.126154
  time 2
    0 0.135014 -5.181166 -24.816700 0.000000 0.000000 -1.570795
    1 0.000001 0.000000 0.000000 -0.000086 -1.570451 -1.570709
    2 4.443614 -0.009643 0.000006 -0.000004 -0.000001 0.000796
    3 12.111416 -0.011445 0.000000 0.000000 0.000000 0.000000
    4 0.000005 0.011450 -1.352403 -0.000014 1.370796 3.140783
    5 6.078087 -0.000001 0.000002 0.662677 -0.895968 -0.776403
    6 13.446750 -0.000001 0.000001 0.000000 0.000000 -1.557952
    7 15.997000 -0.000001 -0.000001 2.364979 0.013322 -0.484412
    8 1.885327 0.833276 2.177875 1.264233 -0.638137 0.530090
    9 1.506964 0.000000 -0.000001 0.000000 0.000000 -0.488689
    10 0.798353 0.000000 0.000001 0.000000 0.000000 -0.986085
    11 3.950306 -0.539876 2.108871 -0.037808 0.038137 -0.197081
    12 1.545796 0.000001 -0.000006 0.000000 0.000000 1.396235
    13 1.667398 -0.000004 0.000002 0.000000 0.000000 1.466046
    14 3.899459 -0.475377 1.170888 -0.069014 0.069822 -0.026114
    15 1.528218 0.000000 0.000000 0.000000 0.000000 1.047176
    16 1.528217 -0.000004 0.000001 0.000000 0.000000 1.815102
    17 3.899459 -0.431805 -0.168223 -0.003758 -0.034707 0.130944
    18 1.506968 -0.000001 -0.000001 0.000000 0.000000 1.082084
    19 1.506964 0.000001 0.000000 0.000000 0.000000 1.727834
    20 3.915632 -0.278020 -1.402610 0.304318 -0.057143 -0.007490
    21 1.333087 -0.000003 -0.000003 0.000000 0.000000 1.265345
    22 1.159205 0.000001 0.000003 0.000000 0.000000 1.527123
    23 13.333949 0.905787 19.735224 1.582244 -0.018583 -3.126154
  time 3
    0 0.135014 -5.181166 -24.816700 0.000000 0.000000 -1.570795
    1 0.000001 0.000000 0.000000 -0.000086 -1.570451 -1.570709
    2 4.443614 -0.009643 0.000006 -0.000004 -0.000001 0.000796
    3 12.111416 -0.011445 0.000000 0.000000 0.000000 0.000000
    4 0.000005 0.011450 -1.352403 -0.000014 1.370796 3.140783
    5 6.078087 -0.000001 0.000002 0.990905 -0.879374 -1.036413
    6 13.446750 -0.000001 0.000001 0.000000 0.000000 -1.217027
    7 15.997000 -0.000001 -0.000001 2.237160 -0.040272 -0.464226
    8 1.885327 0.833276 2.177875 1.264233 -0.638137 0.530090
    9 1.506964 0.000000 -0.000001 0.000000 0.000000 -0.488689
    10 0.798353 0.000000 0.000001 0.000000 0.000000 -0.986085
    11 3.950306 -0.539876 2.108871 -0.037808 0.038137 -0.197081
    12 1.545796 0.000001 -0.000006 0.000000 0.000000 1.396235
    13 1.667398 -0.000004 0.000002 0.000000 0.000000 1.466046
    14 3.899459 -0.475377 1.170888 -0.069014 0.069822 -0.026114
    15 1.528218 0.000000 0.000000 0.000000 0.000000 1.047176
    16 1.528217 -0.000004 0.000001 0.000000 0.000000 1.815102
    17 3.899459 -0.431805 -0.168223 -0.003758 -0.034707 0.130944
    18 1.506968 -0.000001 -0.000001 0.000000 0.000000 1.082084
    19 1.506964 0.000001 0.000000 0.000000 0.000000 1.727834
    20 3.915632 -0.278020 -1.402610 0.304318 -0.057143 -0.007490
    21 1.333087 -0.000003 -0.000003 0.000000 0.000000 1.265345
    22 1.159205 0.000001 0.000003 0.000000 0.000000 1.527123
    23 13.333949 0.905787 19.735224 1.582244 -0.018583 -3.126154
  time 4
    0 0.135014 -5.181166 -24.816700 0.000000 0.000000 -1.570795
    1 0.000001 0.000000 0.000000 -0.000086 -1.570451 -1.570709
    2 4.443614 -0.009643 0.000006 -0.000004 -0.000001 0.000796
    3 12.111416 -0.011445 0.000000 0.000000 0.000000 0.000000
    4 0.000005 0.011450 -1.352403 -0.000014 1.370796 3.140783
    5 6.078087 -0.000001 0.000002 1.248206 -0.778032 -1.255587
    6 13.446750 -0.000001 0.000001 0.000000 0.000000 -0.781746
    7 15.997000 -0.000001 -0.000001 2.075483 -0.172622 -0.329682
    8 1.885327 0.833276 2.177875 1.264233 -0.638137 0.530090
    9 1.506964 0.000000 -0.000001 0.000000 0.000000 -0.488689
    10 0.798353 0.000000 0.000001 0.000000 0.000000 -0.986085
    11 3.950306 -0.539876 2.108871 -0.037808 0.038137 -0.197081
    12 1.545796 0.000001 -0.000006 0.000000 0.000000 1.396235
    13 1.667398 -0.000004 0.000002 0.000000 0.000000 1.466046
    14 3.899459 -0.475377 1.170888 -0.069014 0.069822 -0.026114
    15 1.528218 0.000000 0.000000 0.000000 0.000000 1.047176
    16 1.528217 -0.000004 0.000001 0.000000 0.000000 1.815102
    17 3.899459 -0.431805 -0.168223 -0.003758 -0.034707 0.130944
    18 1.506968 -0.000001 -0.000001 0.000000 0.000000 1.082084
    19 1.506964 0.000001 0.000000 0.000000 0.000000 1.727834
    20 3.915632 -0.278020 -1.402610 0.304318 -0.057143 -0.007490
    21 1.333087 -0.000003 -0.000003 0.000000 0.000000 1.265345
    22 1.159205 0.000001 0.000003 0.000000 0.000000 1.527123
    23 13.333949 0.905787 19.735224 1.582244 -0.018583 -3.126154
  time 5
    0 0.135014 -5.181166 -24.816700 0.000000 0.000000 -1.570795
    1 0.000001 0.000000 0.000000 -0.000086 -1.570451 -1.570709
    2 4.443614 -0.009643 0.000006 -0.000004 -0.000001 0.000796
    3 12.111416 -0.011445 0.000000 0.000000 0.000000 0.000000
    4 0.000005 0.011450 -1.352403 -0.000014 1.370796 3.140783
    5 6.078087 -0.000001 0.000002 1.138059 -0.632289 -1.261563
    6 13.446750 -0.000001 0.000001 0.000000 0.000000 -0.496903
    7 15.997000 -0.000001 -0.000001 2.051188 -0.396296 -0.111476
    8 1.885327 0.833276 2.177875 1.264233 -0.638137 0.530090
    9 1.506964 0.000000 -0.000001 0.000000 0.000000 -0.488689
    10 0.798353 0.000000 0.000001 0.000000 0.000000 -0.986085
    11 3.950306 -0.539876 2.108871 -0.037808 0.038137 -0.197081
    12 1.545796 0.000001 -0.000006 0.000000 0.000000 1.396235
    13 1.667398 -0.000004 0.000002 0.000000 0.000000 1.466046
    14 3.899459 -0.475377 1.170888 -0.069014 0.069822 -0.026114
    15 1.528218 0.000000 0.000000 0.000000 0.000000 1.047176
    16 1.528217 -0.000004 0.000001 0.000000 0.000000 1.815102
    17 3.899459 -0.431805 -0.168223 -0.003758 -0.034707 0.130944
    18 1.506968 -0.000001 -0.000001 0.000000 0.000000 1.082084
    19 1.506964 0.000001 0.000000 0.000000 0.000000 1.727834
    20 3.915632 -0.278020 -1.402610 0.304318 -0.057143 -0.007490
    21 1.333087 -0.000003 -0.000003 0.000000 0.000000 1.265345
    22 1.159205 0.000001 0.000003 0.000000 0.000000 1.527123
    23 13.333949 0.905787 19.735224 1.582244 -0.018583 -3.126154
  time 6
    0 0.135014 -5.181166 -24.816700 0.000000 0.000000 -1.570795
    1 0.000001 0.000000 0.000000 -0.000086 -1.570451 -1.570709
    2 4.443614 -0.009643 0.000006 -0.000004 -0.000001 0.000796
    3 12.111416 -0.011445 0.000000 0.000000 0.000000 0.000000
    4 0.000005 0.011450 -1.352403 -0.000014 1.370796 3.140783
    5 6.078087 -0.000001 0.000002 0.975670 -0.498009 -1.249260
    6 13.446750 -0.000001 0.000001 0.000000 0.000000 -0.288483
    7 15.997000 -0.000001 -0.000001 2.031446 -0.603211 0.091181
    8 1.885327 0.833276 2.177875 1.264233 -0.638137 0.530090
    9 1.506964 0.000000 -0.000001 0.000000 0.000000 -0.488689
    10 0.798353 0.000000 0.000001 0.000000 0.000000 -0.986085
    11 3.950306 -0.539876 2.108871 -0.037808 0.038137 -0.197081
    12 1.545796 0.000001 -0.000006 0.000000 0.000000 1.396235
    13 1.667398 -0.000004 0.000002 0.000000 0.000000 1.466046
    14 3.899459 -0.475377 1.170888 -0.069014 0.069822 -0.026114
    15 1.528218 0.000000 0.000000 0.000000 0.000000 1.047176
    16 1.528217 -0.000004 0.000001 0.000000 0.000000 1.815102
    17 3.899459 -0.431805 -0.168223 -0.003758 -0.034707 0.130944
    18 1.506968 -0.000001 -0.000001 0.000000 0.000000 1.082084
    19 1.506964 0.000001 0.000000 0.000000 0.000000 1.727834
    20 3.915632 -0.278020 -1.402610 0.304318 -0.057143 -0.007490
    21 1.333087 -0.000003 -0.000003 0.000000 0.000000 1.265345
    22 1.159205 0.000001 0.000003 0.000000 0.000000 1.527123
    23 13.333949 0.905787 19.735224 1.582244 -0.018583 -3.126154
  time 7
    0 0.135014 -5.181166 -24.816700 0.000000 0.000000 -1.570795
    1 0.000001 0.000000 0.000000 -0.000086 -1.570451 -1.570709
    2 4.443614 -0.009643 0.000006 -0.000004 -0.000001 0.000796
    3 12.111416 -0.011445 0.000000 0.000000 0.000000 0.000000
    4 0.000005 0.011450 -1.352403 -0.000014 1.370796 3.140783
    5 6.078087 -0.000001 0.000002 0.975670 -0.498009 -1.249260
    6 13.446750 -0.000001 0.000001 0.000000 0.000000 -0.288483
    7 15.997000 -0.000001 -0.000001 2.127376 -0.517818 -0.088699
    8 1.885327 0.833276 2.177875 1.264233 -0.638137 0.530090
    9 1.506964 0.000000 -0.000001 0.000000 0.000000 -0.488689
    10 0.798353 0.000000 0.000001 0.000000 0.000000 -0.986085
    11 3.950306 -0.539876 2.108871 -0.037808 0.038137 -0.197081
    12 1.545796 0.000001 -0.000006 0.000000 0.000000 1.396235
    13 1.667398 -0.000004 0.000002 0.000000 0.000000 1.466046
    14 3.899459 -0.475377 1.170888 -0.069014 0.069822 -0.026114
    15 1.528218 0.000000 0.000000 0.000000 0.000000 1.047176
    16 1.528217 -0.000004 0.000001 0.000000 0.000000 1.815102
    17 3.899459 -0.431805 -0.168223 -0.003758 -0.034707 0.130944
    18 1.506968 -0.000001 -0.000001 0.000000 0.000000 1.082084
    19 1.506964 0.000001 0.000000 0.000000 0.000000 1.727834
    20 3.915632 -0.278020 -1.402610 0.304318 -0.057143 -0.007490
    21 1.333087 -0.000003 -0.000003 0.000000 0.000000 1.265345
    22 1.159205 0.000001 0.000003 0.000000 0.000000 1.527123
    23 13.333949 0.905787 19.735224 1.582244 -0.018583 -3.126154
  time 8
    0 0.135014 -5.181166 -24.816700 0.000000 0.000000 -1.570795
    1 0.000001 0.000000 0.000000 -0.000086 -1.570451 -1.570709
    2 4.443614 -0.009643 0.000006 -0.000004 -0.000001 0.000796
    3 12.111416 -0.011445 0.000000 0.000000 0.000000 0.000000
    4 0.000005 0.011450 -1.352403 -0.000014 1.370796 3.140783
    5 6.078087 -0.000001 0.000002 0.944530 -0.572991 -1.188271
    6 13.446750 -0.000001 0.000001 0.000000 0.000000 -0.398618
    7 15.997000 -0.000001 -0.000001 2.108247 -0.412113 -0.177470
    8 1.885327 0.833276 2.177875 1.264233 -0.638137 0.530090
    9 1.506964 0.000000 -0.000001 0.000000 0.000000 -0.488689
    10 0.798353 0.000000 0.000001 0.000000 0.000000 -0.986085
    11 3.950306 -0.539876 2.108871 -0.037808 0.038137 -0.197081
    12 1.545796 0.000001 -0.000006 0.000000 0.000000 1.396235
    13 1.667398 -0.000004 0.000002 0.000000 0.000000 1.466046
    14 3.899459 -0.475377 1.170888 -0.069014 0.069822 -0.026114
    15 1.528218 0.000000 0.000000 0.000000 0.000000 1.047176
    16 1.528217 -0.000004 0.000001 0.000000 0.000000 1.815102
    17 3.899459 -0.431805 -0.168223 -0.003758 -0.034707 0.130944
    18 1.506968 -0.000001 -0.000001 0.000000 0.000000 1.082084
    19 1.506964 0.000001 0.000000 0.000000 0.000000 1.727834
    20 3.915632 -0.278020 -1.402610 0.304318 -0.057143 -0.007490
    21 1.333087 -0.000003 -0.000003 0.000000 0.000000 1.265345
    22 1.159205 0.000001 0.000003 0.000000 0.000000 1.527123
    23 13.333949 0.905787 19.735224 1.582244 -0.018583 -3.126154
  time 9
    0 0.135014 -5.181166 -24.816700 0.000000 0.000000 -1.570795
    1 0.000001 0.000000 0.000000 -0.000086 -1.570451 -1.570709
    2 4.443614 -0.009643 0.000006 -0.000004 -0.000001 0.000796
    3 12.111416 -0.011445 0.000000 0.000000 0.000000 0.000000
    4 0.000005 0.011450 -1.352403 -0.000014 1.370796 3.140783
    5 6.078087 -0.000001 0.000002 0.897898 -0.659642 -1.107713
    6 13.446750 -0.000001 0.000001 0.000000 0.000000 -0.529665
    7 15.997000 -0.000001 -0.000001 2.063051 -0.307702 -0.250108
    8 1.885327 0.833276 2.177875 1.264233 -0.638137 0.530090
    9 1.506964 0.000000 -0.000001 0.000000 0.000000 -0.488689
    10 0.798353 0.000000 0.000001 0.000000 0.000000 -0.986085
    11 3.950306 -0.539876 2.108871 -0.037808 0.038137 -0.197081
    12 1.545796 0.000001 -0.000006 0.000000 0.000000 1.396235
    13 1.667398 -0.000004 0.000002 0.000000 0.000000 1.466046
    14 3.899459 -0.475377 1.170888 -0.069014 0.069822 -0.026114
    15 1.528218 0.000000 0.000000 0.000000 0.000000 1.047176
    16 1.528217 -0.000004 0.000001 0.000000 0.000000 1.815102
    17 3.899459 -0.431805 -0.168223 -0.003758 -0.034707 0.130944
    18 1.506968 -0.000001 -0.000001 0.000000 0.000000 1.082084
    19 1.506964 0.000001 0.000000 0.000000 0.000000 1.727834
    20 3.915632 -0.278020 -1.402610 0.304318 -0.057143 -0.007490
    21 1.333087 -0.000003 -0.000003 0.000000 0.000000 1.265345
    22 1.159205 0.000001 0.000003 0.000000 0.000000 1.527123
    23 13.333949 0.905787 19.735224 1.582244 -0.018583 -3.126154
  time 10
    0 0.135014 -5.181166 -24.816700 0.000000 0.000000 -1.570795
    1 0.000001 0.000000 0.000000 -0.000086 -1.570451 -1.570709
    2 4.443614 -0.009643 0.000006 -0.000004 -0.000001 0.000796
    3 12.111416 -0.011445 0.000000 0.000000 0.000000 0.000000
    4 0.000005 0.011450 -1.352403 -0.000014 1.370796 3.140783
    5 6.078087 -0.000001 0.000002 0.837317 -0.744100 -1.014032
    6 13.446750 -0.000001 0.000001 0.000000 0.000000 -0.662930
    7 15.997000 -0.000001 -0.000001 2.002271 -0.222615 -0.289092
    8 1.885327 0.833276 2.177875 1.264233 -0.638137 0.530090
    9 1.506964 0.000000 -0.000001 0.000000 0.000000 -0.488689
    10 0.798353 0.000000 0.000001 0.000000 0.000000 -0.986085
    11 3.950306 -0.539876 2.108871 -0.037808 0.038137 -0.197081
    12 1.545796 0.000001 -0.000006 0.000000 0.000000 1.396235
    13 1.667398 -0.000004 0.000002 0.000000 0.000000 1.466046
    14 3.899459 -0.475377 1.170888 -0.069014 0.069822 -0.026114
    15 1.528218 0.000000 0.000000 0.000000 0.000000 1.047176
    16 1.528217 -0.000004 0.000001 0.000000 0.000000 1.815102
    17 3.899459 -0.431805 -0.168223 -0.003758 -0.034707 0.130944
    18 1.506968 -0.000001 -0.000001 0.000000 0.000000 1.082084
    19 1.506964 0.000001 0.000000 0.000000 0.000000 1.727834
    20 3.915632 -0.278020 -1.402610 0.304318 -0.057143 -0.007490
    21 1.333087 -0.000003 -0.000003 0.000000 0.000000 1.265345
    22 1.159205 0.000001 0.000003 0.000000 0.000000 1.527123
    23 13.333949 0.905787 19.735224 1.582244 -0.018583 -3.126154
  time 11
    0 0.135014 -5.181166 -24.816700 0.000000 0.000000 -1.570795
    1 0.000001 0.000000 0.000000 -0.000086 -1.570451 -1.570709
    2 4.443614 -0.009643 0.000006 -0.000004 -0.000001 0.000796
    3 12.111416 -0.011445 0.000000 0.000000 0.000000 0.000000
    4 0.000005 0.011450 -1.352403 -0.000014 1.370796 3.140783
    5 6.078087 -0.000001 0.000002 0.761037 -0.822806 -0.906056
    6 13.446750 -0.000001 0.000001 0.000000 0.000000 -0.794990
    7 15.997000 -0.000001 -0.000001 1.923435 -0.176906 -0.244779
    8 1.885327 0.833276 2.177875 1.264233 -0.638137 0.530090
    9 1.506964 0.000000 -0.000001 0.000000 0.000000 -0.488689
    10 0.798353 0.000000 0.000001 0.000000 0.000000 -0.986085
    11 3.950306 -0.539876 2.108871 -0.037808 0.038137 -0.197081
    12 1.545796 0.000001 -0.000006 0.000000 0.000000 1.396235
    13 1.667398 -0.000004 0.000002 0.000000 0.000000 1.466046
    14 3.899459 -0.475377 1.170888 -0.069014 0.069822 -0.026114
    15 1.528218 0.000000 0.000000 0.000000 0.000000 1.047176
    16 1.528217 -0.000004 0.000001 0.000000 0.000000 1.815102
    17 3.899459 -0.431805 -0.168223 -0.003758 -0.034707 0.130944
    18 1.506968 -0.000001 -0.000001 0.000000 0.000000 1.082084
    19 1.506964 0.000001 0.000000 0.000000 0.000000 1.727834
    20 3.915632 -0.278020 -1.402610 0.304318 -0.057143 -0.007490
    21 1.333087 -0.000003 -0.000003 0.000000 0.000000 1.265345
    22 1.159205 0.000001 0.000003 0.000000 0.000000 1.527123
    23 13.333949 0.905787 19.735224 1.582244 -0.018583 -3.126154
  time 12
    0 0.135014 -5.181166 -24.816700 0.000000 0.000000 -1.570795
    1 0.000001 0.000000 0.000000 -0.000086 -1.570451 -1.570709
    2 4.443614 -0.009643 0.000006 -0.000004 -0.000001 0.000796
    3 12.111416 -0.011445 0.000000 0.000000 0.000000 0.000000
    4 0.000005 0.011450 -1.352403 -0.000014 1.370796 3.140783
    5 6.078087 -0.000001 0.000002 0.662677 -0.895968 -0.776403
    6 13.446750 -0.000001 0.000001 0.000000 0.000000 -0.929649
    7 15.997000 -0.000001 -0.000001 1.837507 -0.141929 -0.162724
    8 1.885327 0.833276 2.177875 1.264233 -0.638137 0.530090
    9 1.506964 0.000000 -0.000001 0.000000 0.000000 -0.488689
    10 0.798353 0.000000 0.000001 0.000000 0.000000 -0.986085
    11 3.950306 -0.539876 2.108871 -0.037808 0.038137 -0.197081
    12 1.545796 0.000001 -0.000006 0.000000 0.000000 1.396235
    13 1.667398 -0.000004 0.000002 0.000000 0.000000 1.466046
    14 3.899459 -0.475377 1.170888 -0.069014 0.069822 -0.026114
    15 1.528218 0.000000 0.000000 0.000000 0.000000 1.047176
    16 1.528217 -0.000004 0.000001 0.000000 0.000000 1.815102
    17 3.899459 -0.431805 -0.168223 -0.003758 -0.034707 0.130944
    18 1.506968 -0.000001 -0.000001 0.000000 0.000000 1.082084
    19 1.506964 0.000001 0.000000 0.000000 0.000000 1.727834
    20 3.915632 -0.278020 -1.402610 0.304318 -0.057143 -0.007490
    21 1.333087 -0.000003 -0.000003 0.000000 0.000000 1.265345
    22 1.159205 0.000001 0.000003 0.000000 0.000000 1.527123
    23 13.333949 0.905787 19.735224 1.582244 -0.018583 -3.126154
end
