// Created by Crowbar 0.74
version 1
nodes
  0 "Bip01" -1
  1 "Bip01 Pelvis" 0
  2 "Bip01 Spine" 1
  3 "Bip01 Neck" 2
  4 "Bip01 R Clavicle" 3
  5 "Bip01 R UpperArm" 4
  6 "Bip01 R Forearm" 5
  7 "Bip01 R Hand" 6
  8 "Bip01 R Finger0" 7
  9 "Bip01 R Finger01" 8
  10 "Bip01 R Finger02" 9
  11 "Bip01 R Finger1" 7
  12 "Bip01 R Finger11" 11
  13 "Bip01 R Finger12" 12
  14 "Bip01 R Finger2" 7
  15 "Bip01 R Finger21" 14
  16 "Bip01 R Finger22" 15
  17 "Bip01 R Finger3" 7
  18 "Bip01 R Finger31" 17
  19 "Bip01 R Finger32" 18
  20 "Bip01 R Finger4" 7
  21 "Bip01 R Finger41" 20
  22 "Bip01 R Finger42" 21
  23 "tip" 7
end
skeleton
  time 0
    0 0.135014 -5.181166 -24.816700 0.000000 0.000000 -1.570795
    1 0.000001 0.000000 0.000000 -0.000086 -1.570451 -1.570709
    2 4.443614 -0.009643 0.000006 -0.000004 -0.000001 0.000796
    3 12.111416 -0.011445 0.000000 0.000000 0.000000 0.000000
    4 0.000005 0.011450 -1.352403 -0.000014 1.370796 3.140783
    5 6.078087 0.000000 0.000002 0.739728 -0.940948 -0.702290
    6 13.446754 0.000000 0.000003 0.000000 0.000000 -1.226342
    7 15.997000 -0.000002 -0.000001 1.837507 -0.141929 -0.162724
    8 1.885330 0.833277 2.177873 1.264233 -0.638137 0.530090
    9 1.506958 0.000001 -0.000003 0.000000 0.000000 -0.488689
    10 0.798352 0.000001 0.000003 0.000000 0.000000 -0.986085
    11 3.950304 -0.539876 2.108868 -0.037808 0.038137 -0.197081
    12 1.545799 0.000000 -0.000002 0.000000 0.000000 1.396235
    13 1.667398 0.000001 -0.000004 0.000000 0.000000 1.466046
    14 3.899458 -0.475375 1.170885 -0.069014 0.069822 -0.026114
    15 1.528219 0.000000 0.000005 0.000000 0.000000 1.047176
    16 1.528215 0.000000 -0.000005 0.000000 0.000000 1.815102
    17 3.899462 -0.431803 -0.168225 -0.003758 -0.034707 0.130944
    18 1.506963 0.000002 0.000002 0.000000 0.000000 1.082084
    19 1.506962 -0.000001 -0.000002 0.000000 0.000000 1.727834
    20 3.915635 -0.278019 -1.402609 0.304318 -0.057143 -0.007490
    21 1.333085 0.000000 -0.000001 0.000000 0.000000 1.265345
    22 1.159203 0.000001 0.000001 0.000000 0.000000 1.527123
    23 13.333941 0.905789 19.735220 1.582244 -0.018583 -3.126154
  time 1
    0 0.135014 -5.181166 -24.816700 0.000000 0.000000 -1.570795
    1 0.000001 0.000000 0.000000 -0.000086 -1.570451 -1.570709
    2 4.443614 -0.009643 0.000006 -0.000004 -0.000001 0.000796
    3 12.111416 -0.011445 0.000000 0.000000 0.000000 0.000000
    4 0.000005 0.011450 -1.352403 -0.000014 1.370796 3.140783
    5 6.078087 0.000000 0.000002 0.719140 -0.944631 -0.688932
    6 13.446754 0.000000 0.000003 0.000000 0.000000 -1.492301
    7 15.997000 -0.000002 -0.000001 2.130419 -0.120134 -0.197473
    8 1.885330 0.833277 2.177873 1.264233 -0.638137 0.530090
    9 1.506958 0.000001 -0.000003 0.000000 0.000000 -0.488689
    10 0.798352 0.000001 0.000003 0.000000 0.000000 -0.986085
    11 3.950304 -0.539876 2.108868 -0.037808 0.038137 -0.197081
    12 1.545799 0.000000 -0.000002 0.000000 0.000000 1.396235
    13 1.667398 0.000001 -0.000004 0.000000 0.000000 1.466046
    14 3.899458 -0.475375 1.170885 -0.069014 0.069822 -0.026114
    15 1.528219 0.000000 0.000005 0.000000 0.000000 1.047176
    16 1.528215 0.000000 -0.000005 0.000000 0.000000 1.815102
    17 3.899462 -0.431803 -0.168225 -0.003758 -0.034707 0.130944
    18 1.506963 0.000002 0.000002 0.000000 0.000000 1.082084
    19 1.506962 -0.000001 -0.000002 0.000000 0.000000 1.727834
    20 3.915635 -0.278019 -1.402609 0.304318 -0.057143 -0.007490
    21 1.333085 0.000000 -0.000001 0.000000 0.000000 1.265345
    22 1.159203 0.000001 0.000001 0.000000 0.000000 1.527123
    23 13.333941 0.905789 19.735220 1.582244 -0.018583 -3.126154
  time 2
    0 0.135014 -5.181166 -24.816700 0.000000 0.000000 -1.570795
    1 0.000001 0.000000 0.000000 -0.000086 -1.570451 -1.570709
    2 4.443614 -0.009643 0.000006 -0.000004 -0.000001 0.000796
    3 12.111416 -0.011445 0.000000 0.000000 0.000000 0.000000
    4 0.000005 0.011450 -1.352403 -0.000014 1.370796 3.140783
    5 6.078087 0.000000 0.000002 0.726964 -0.933210 -0.714535
    6 13.446754 0.000000 0.000003 0.000000 0.000000 -1.639381
    7 15.997000 -0.000002 -0.000001 2.317463 -0.141929 -0.162724
    8 1.885330 0.833277 2.177873 1.264233 -0.638137 0.530090
    9 1.506958 0.000001 -0.000003 0.000000 0.000000 -0.488689
    10 0.798352 0.000001 0.000003 0.000000 0.000000 -0.986085
    11 3.950304 -0.539876 2.108868 -0.037808 0.038137 -0.197081
    12 1.545799 0.000000 -0.000002 0.000000 0.000000 1.396235
    13 1.667398 0.000001 -0.000004 0.000000 0.000000 1.466046
    14 3.899458 -0.475375 1.170885 -0.069014 0.069822 -0.026114
    15 1.528219 0.000000 0.000005 0.000000 0.000000 1.047176
    16 1.528215 0.000000 -0.000005 0.000000 0.000000 1.815102
    17 3.899462 -0.431803 -0.168225 -0.003758 -0.034707 0.130944
    18 1.506963 0.000002 0.000002 0.000000 0.000000 1.082084
    19 1.506962 -0.000001 -0.000002 0.000000 0.000000 1.727834
    20 3.915635 -0.278019 -1.402609 0.304318 -0.057143 -0.007490
    21 1.333085 0.000000 -0.000001 0.000000 0.000000 1.265345
    22 1.159203 0.000001 0.000001 0.000000 0.000000 1.527123
    23 13.333941 0.905789 19.735220 1.582244 -0.018583 -3.126154
  time 3
    0 0.135014 -5.181166 -24.816700 0.000000 0.000000 -1.570795
    1 0.000001 0.000000 0.000000 -0.000086 -1.570451 -1.570709
    2 4.443614 -0.009643 0.000006 -0.000004 -0.000001 0.000796
    3 12.111416 -0.011445 0.000000 0.000000 0.000000 0.000000
    4 0.000005 0.011450 -1.352403 -0.000014 1.370796 3.140783
    5 6.078087 0.000000 0.000002 0.781471 -0.891705 -0.806927
    6 13.446754 0.000000 0.000003 0.000000 0.000000 -1.570435
    7 15.997000 -0.000002 -0.000001 2.304462 -0.259403 -0.005767
    8 1.885330 0.833277 2.177873 1.264233 -0.638137 0.530090
    9 1.506958 0.000001 -0.000003 0.000000 0.000000 -0.488689
    10 0.798352 0.000001 0.000003 0.000000 0.000000 -0.986085
    11 3.950304 -0.539876 2.108868 -0.037808 0.038137 -0.197081
    12 1.545799 0.000000 -0.000002 0.000000 0.000000 1.396235
    13 1.667398 0.000001 -0.000004 0.000000 0.000000 1.466046
    14 3.899458 -0.475375 1.170885 -0.069014 0.069822 -0.026114
    15 1.528219 0.000000 0.000005 0.000000 0.000000 1.047176
    16 1.528215 0.000000 -0.000005 0.000000 0.000000 1.815102
    17 3.899462 -0.431803 -0.168225 -0.003758 -0.034707 0.130944
    18 1.506963 0.000002 0.000002 0.000000 0.000000 1.082084
    19 1.506962 -0.000001 -0.000002 0.000000 0.000000 1.727834
    20 3.915635 -0.278019 -1.402609 0.304318 -0.057143 -0.007490
    21 1.333085 0.000000 -0.000001 0.000000 0.000000 1.265345
    22 1.159203 0.000001 0.000001 0.000000 0.000000 1.527123
    23 13.333941 0.905789 19.735220 1.582244 -0.018583 -3.126154
  time 4
    0 0.135014 -5.181166 -24.816700 0.000000 0.000000 -1.570795
    1 0.000001 0.000000 0.000000 -0.000086 -1.570451 -1.570709
    2 4.443614 -0.009643 0.000006 -0.000004 -0.000001 0.000796
    3 12.111416 -0.011445 0.000000 0.000000 0.000000 0.000000
    4 0.000005 0.011450 -1.352403 -0.000014 1.370796 3.140783
    5 6.078087 0.000000 0.000002 0.837780 -0.838034 -0.907697
    6 13.446754 0.000000 0.000003 0.000000 0.000000 -1.444838
    7 15.997000 -0.000002 -0.000001 2.211640 -0.390270 0.204700
    8 1.885330 0.833277 2.177873 1.264233 -0.638137 0.530090
    9 1.506958 0.000001 -0.000003 0.000000 0.000000 -0.488689
    10 0.798352 0.000001 0.000003 0.000000 0.000000 -0.986085
    11 3.950304 -0.539876 2.108868 -0.037808 0.038137 -0.197081
    12 1.545799 0.000000 -0.000002 0.000000 0.000000 1.396235
    13 1.667398 0.000001 -0.000004 0.000000 0.000000 1.466046
    14 3.899458 -0.475375 1.170885 -0.069014 0.069822 -0.026114
    15 1.528219 0.000000 0.000005 0.000000 0.000000 1.047176
    16 1.528215 0.000000 -0.000005 0.000000 0.000000 1.815102
    17 3.899462 -0.431803 -0.168225 -0.003758 -0.034707 0.130944
    18 1.506963 0.000002 0.000002 0.000000 0.000000 1.082084
    19 1.506962 -0.000001 -0.000002 0.000000 0.000000 1.727834
    20 3.915635 -0.278019 -1.402609 0.304318 -0.057143 -0.007490
    21 1.333085 0.000000 -0.000001 0.000000 0.000000 1.265345
    22 1.159203 0.000001 0.000001 0.000000 0.000000 1.527123
    23 13.333941 0.905789 19.735220 1.582244 -0.018583 -3.126154
  time 5
    0 0.135014 -5.181166 -24.816700 0.000000 0.000000 -1.570795
    1 0.000001 0.000000 0.000000 -0.000086 -1.570451 -1.570709
    2 4.443614 -0.009643 0.000006 -0.000004 -0.000001 0.000796
    3 12.111416 -0.011445 0.000000 0.000000 0.000000 0.000000
    4 0.000005 0.011450 -1.352403 -0.000014 1.370796 3.140783
    5 6.078087 0.000000 0.000002 0.886831 -0.776998 -1.004483
    6 13.446754 0.000000 0.000003 0.000000 0.000000 -1.290535
    7 15.997000 -0.000002 -0.000001 2.050838 -0.497365 0.460467
    8 1.885330 0.833277 2.177873 1.264233 -0.638137 0.530090
    9 1.506958 0.000001 -0.000003 0.000000 0.000000 -0.488689
    10 0.798352 0.000001 0.000003 0.000000 0.000000 -0.986085
    11 3.950304 -0.539876 2.108868 -0.037808 0.038137 -0.197081
    12 1.545799 0.000000 -0.000002 0.000000 0.000000 1.396235
    13 1.667398 0.000001 -0.000004 0.000000 0.000000 1.466046
    14 3.899458 -0.475375 1.170885 -0.069014 0.069822 -0.026114
    15 1.528219 0.000000 0.000005 0.000000 0.000000 1.047176
    16 1.528215 0.000000 -0.000005 0.000000 0.000000 1.815102
    17 3.899462 -0.431803 -0.168225 -0.003758 -0.034707 0.130944
    18 1.506963 0.000002 0.000002 0.000000 0.000000 1.082084
    19 1.506962 -0.000001 -0.000002 0.000000 0.000000 1.727834
    20 3.915635 -0.278019 -1.402609 0.304318 -0.057143 -0.007490
    21 1.333085 0.000000 -0.000001 0.000000 0.000000 1.265345
    22 1.159203 0.000001 0.000001 0.000000 0.000000 1.527123
    23 13.333941 0.905789 19.735220 1.582244 -0.018583 -3.126154
  time 6
    0 0.135014 -5.181166 -24.816700 0.000000 0.000000 -1.570795
    1 0.000001 0.000000 0.000000 -0.000086 -1.570451 -1.570709
    2 4.443614 -0.009643 0.000006 -0.000004 -0.000001 0.000796
    3 12.111416 -0.011445 0.000000 0.000000 0.000000 0.000000
    4 0.000005 0.011450 -1.352403 -0.000014 1.370796 3.140783
    5 6.078087 0.000000 0.000002 0.924405 -0.715009 -1.089317
    6 13.446754 0.000000 0.000003 0.000000 0.000000 -1.135281
    7 15.997000 -0.000002 -0.000001 1.858300 -0.556208 0.732074
    8 1.885330 0.833277 2.177873 1.264233 -0.638137 0.530090
    9 1.506958 0.000001 -0.000003 0.000000 0.000000 -0.488689
    10 0.798352 0.000001 0.000003 0.000000 0.000000 -0.986085
    11 3.950304 -0.539876 2.108868 -0.037808 0.038137 -0.197081
    12 1.545799 0.000000 -0.000002 0.000000 0.000000 1.396235
    13 1.667398 0.000001 -0.000004 0.000000 0.000000 1.466046
    14 3.899458 -0.475375 1.170885 -0.069014 0.069822 -0.026114
    15 1.528219 0.000000 0.000005 0.000000 0.000000 1.047176
    16 1.528215 0.000000 -0.000005 0.000000 0.000000 1.815102
    17 3.899462 -0.431803 -0.168225 -0.003758 -0.034707 0.130944
    18 1.506963 0.000002 0.000002 0.000000 0.000000 1.082084
    19 1.506962 -0.000001 -0.000002 0.000000 0.000000 1.727834
    20 3.915635 -0.278019 -1.402609 0.304318 -0.057143 -0.007490
    21 1.333085 0.000000 -0.000001 0.000000 0.000000 1.265345
    22 1.159203 0.000001 0.000001 0.000000 0.000000 1.527123
    23 13.333941 0.905789 19.735220 1.582244 -0.018583 -3.126154
  time 7
    0 0.135014 -5.181166 -24.816700 0.000000 0.000000 -1.570795
    1 0.000001 0.000000 0.000000 -0.000086 -1.570451 -1.570709
    2 4.443614 -0.009643 0.000006 -0.000004 -0.000001 0.000796
    3 12.111416 -0.011445 0.000000 0.000000 0.000000 0.000000
    4 0.000005 0.011450 -1.352403 -0.000014 1.370796 3.140783
    5 6.078087 0.000000 0.000002 0.949780 -0.659228 -1.157454
    6 13.446754 0.000000 0.000003 0.000000 0.000000 -1.007149
    7 15.997000 -0.000002 -0.000001 1.690866 -0.571813 0.968860
    8 1.885330 0.833277 2.177873 1.264233 -0.638137 0.530090
    9 1.506958 0.000001 -0.000003 0.000000 0.000000 -0.488689
    10 0.798352 0.000001 0.000003 0.000000 0.000000 -0.986085
    11 3.950304 -0.539876 2.108868 -0.037808 0.038137 -0.197081
    12 1.545799 0.000000 -0.000002 0.000000 0.000000 1.396235
    13 1.667398 0.000001 -0.000004 0.000000 0.000000 1.466046
    14 3.899458 -0.475375 1.170885 -0.069014 0.069822 -0.026114
    15 1.528219 0.000000 0.000005 0.000000 0.000000 1.047176
    16 1.528215 0.000000 -0.000005 0.000000 0.000000 1.815102
    17 3.899462 -0.431803 -0.168225 -0.003758 -0.034707 0.130944
    18 1.506963 0.000002 0.000002 0.000000 0.000000 1.082084
    19 1.506962 -0.000001 -0.000002 0.000000 0.000000 1.727834
    20 3.915635 -0.278019 -1.402609 0.304318 -0.057143 -0.007490
    21 1.333085 0.000000 -0.000001 0.000000 0.000000 1.265345
    22 1.159203 0.000001 0.000001 0.000000 0.000000 1.527123
    23 13.333941 0.905789 19.735220 1.582244 -0.018583 -3.126154
  time 8
    0 0.135014 -5.181166 -24.816700 0.000000 0.000000 -1.570795
    1 0.000001 0.000000 0.000000 -0.000086 -1.570451 -1.570709
    2 4.443614 -0.009643 0.000006 -0.000004 -0.000001 0.000796
    3 12.111416 -0.011445 0.000000 0.000000 0.000000 0.000000
    4 0.000005 0.011450 -1.352403 -0.000014 1.370796 3.140783
    5 6.078087 0.000000 0.000002 0.949780 -0.659228 -1.157454
    6 13.446754 0.000000 0.000003 0.000000 0.000000 -1.007149
    7 15.997000 -0.000002 -0.000001 1.756373 -0.555784 0.846397
    8 1.885330 0.833277 2.177873 1.264233 -0.638137 0.530090
    9 1.506958 0.000001 -0.000003 0.000000 0.000000 -0.488689
    10 0.798352 0.000001 0.000003 0.000000 0.000000 -0.986085
    11 3.950304 -0.539876 2.108868 -0.037808 0.038137 -0.197081
    12 1.545799 0.000000 -0.000002 0.000000 0.000000 1.396235
    13 1.667398 0.000001 -0.000004 0.000000 0.000000 1.466046
    14 3.899458 -0.475375 1.170885 -0.069014 0.069822 -0.026114
    15 1.528219 0.000000 0.000005 0.000000 0.000000 1.047176
    16 1.528215 0.000000 -0.000005 0.000000 0.000000 1.815102
    17 3.899462 -0.431803 -0.168225 -0.003758 -0.034707 0.130944
    18 1.506963 0.000002 0.000002 0.000000 0.000000 1.082084
    19 1.506962 -0.000001 -0.000002 0.000000 0.000000 1.727834
    20 3.915635 -0.278019 -1.402609 0.304318 -0.057143 -0.007490
    21 1.333085 0.000000 -0.000001 0.000000 0.000000 1.265345
    22 1.159203 0.000001 0.000001 0.000000 0.000000 1.527123
    23 13.333941 0.905789 19.735220 1.582244 -0.018583 -3.126154
  time 9
    0 0.135014 -5.181166 -24.816700 0.000000 0.000000 -1.570795
    1 0.000001 0.000000 0.000000 -0.000086 -1.570451 -1.570709
    2 4.443614 -0.009643 0.000006 -0.000004 -0.000001 0.000796
    3 12.111416 -0.011445 0.000000 0.000000 0.000000 0.000000
    4 0.000005 0.011450 -1.352403 -0.000014 1.370796 3.140783
    5 6.078087 0.000000 0.000002 0.882405 -0.742321 -1.053872
    6 13.446754 0.000000 0.000003 0.000000 0.000000 -1.008797
    7 15.997000 -0.000002 -0.000001 1.855345 -0.450125 0.497005
    8 1.885330 0.833277 2.177873 1.264233 -0.638137 0.530090
    9 1.506958 0.000001 -0.000003 0.000000 0.000000 -0.488689
    10 0.798352 0.000001 0.000003 0.000000 0.000000 -0.986085
    11 3.950304 -0.539876 2.108868 -0.037808 0.038137 -0.197081
    12 1.545799 0.000000 -0.000002 0.000000 0.000000 1.396235
    13 1.667398 0.000001 -0.000004 0.000000 0.000000 1.466046
    14 3.899458 -0.475375 1.170885 -0.069014 0.069822 -0.026114
    15 1.528219 0.000000 0.000005 0.000000 0.000000 1.047176
    16 1.528215 0.000000 -0.000005 0.000000 0.000000 1.815102
    17 3.899462 -0.431803 -0.168225 -0.003758 -0.034707 0.130944
    18 1.506963 0.000002 0.000002 0.000000 0.000000 1.082084
    19 1.506962 -0.000001 -0.000002 0.000000 0.000000 1.727834
    20 3.915635 -0.278019 -1.402609 0.304318 -0.057143 -0.007490
    21 1.333085 0.000000 -0.000001 0.000000 0.000000 1.265345
    22 1.159203 0.000001 0.000001 0.000000 0.000000 1.527123
    23 13.333941 0.905789 19.735220 1.582244 -0.018583 -3.126154
  time 10
    0 0.135014 -5.181166 -24.816700 0.000000 0.000000 -1.570795
    1 0.000001 0.000000 0.000000 -0.000086 -1.570451 -1.570709
    2 4.443614 -0.009643 0.000006 -0.000004 -0.000001 0.000796
    3 12.111416 -0.011445 0.000000 0.000000 0.000000 0.000000
    4 0.000005 0.011450 -1.352403 -0.000014 1.370796 3.140783
    5 6.078087 0.000000 0.000002 0.791302 -0.822848 -0.927675
    6 13.446754 0.000000 0.000003 0.000000 0.000000 -1.001636
    7 15.997000 -0.000002 -0.000001 1.895289 -0.317117 0.176193
    8 1.885330 0.833277 2.177873 1.264233 -0.638137 0.530090
    9 1.506958 0.000001 -0.000003 0.000000 0.000000 -0.488689
    10 0.798352 0.000001 0.000003 0.000000 0.000000 -0.986085
    11 3.950304 -0.539876 2.108868 -0.037808 0.038137 -0.197081
    12 1.545799 0.000000 -0.000002 0.000000 0.000000 1.396235
    13 1.667398 0.000001 -0.000004 0.000000 0.000000 1.466046
    14 3.899458 -0.475375 1.170885 -0.069014 0.069822 -0.026114
    15 1.528219 0.000000 0.000005 0.000000 0.000000 1.047176
    16 1.528215 0.000000 -0.000005 0.000000 0.000000 1.815102
    17 3.899462 -0.431803 -0.168225 -0.003758 -0.034707 0.130944
    18 1.506963 0.000002 0.000002 0.000000 0.000000 1.082104
    19 1.506962 -0.000001 -0.000002 0.000000 0.000000 1.727834
    20 3.915635 -0.278019 -1.402609 0.304318 -0.057143 -0.007490
    21 1.333085 0.000000 -0.000001 0.000000 0.000000 1.265345
    22 1.159203 0.000001 0.000001 0.000000 0.000000 1.527123
    23 13.333941 0.905789 19.735220 1.582244 -0.018583 -3.126154
  time 11
    0 0.135014 -5.181166 -24.816700 0.000000 0.000000 -1.570795
    1 0.000001 0.000000 0.000000 -0.000086 -1.570451 -1.570709
    2 4.443614 -0.009643 0.000006 -0.000004 -0.000001 0.000796
    3 12.111416 -0.011445 0.000000 0.000000 0.000000 0.000000
    4 0.000005 0.011450 -1.352403 -0.000014 1.370796 3.140783
    5 6.078087 0.000000 0.000002 0.724493 -0.865015 -0.846649
    6 13.446754 0.000000 0.000003 0.000000 0.000000 -0.969825
    7 15.997000 -0.000002 -0.000001 1.876838 -0.221485 -0.010622
    8 1.885330 0.833277 2.177873 1.264233 -0.638137 0.530090
    9 1.506958 0.000001 -0.000003 0.000000 0.000000 -0.488689
    10 0.798352 0.000001 0.000003 0.000000 0.000000 -0.986085
    11 3.950304 -0.539876 2.108868 -0.037808 0.038137 -0.197081
    12 1.545799 0.000000 -0.000002 0.000000 0.000000 1.396235
    13 1.667398 0.000001 -0.000004 0.000000 0.000000 1.466046
    14 3.899458 -0.475375 1.170885 -0.069014 0.069822 -0.026114
    15 1.528219 0.000000 0.000005 0.000000 0.000000 1.047176
    16 1.528215 0.000000 -0.000005 0.000000 0.000000 1.815102
    17 3.899462 -0.431803 -0.168225 -0.003758 -0.034707 0.130944
    18 1.506963 0.000002 0.000002 0.000000 0.000000 1.082084
    19 1.506962 -0.000001 -0.000002 0.000000 0.000000 1.727834
    20 3.915635 -0.278019 -1.402609 0.304318 -0.057143 -0.007490
    21 1.333085 0.000000 -0.000001 0.000000 0.000000 1.265345
    22 1.159203 0.000001 0.000001 0.000000 0.000000 1.527123
    23 13.333941 0.905789 19.735220 1.582244 -0.018583 -3.126154
  time 12
    0 0.135014 -5.181166 -24.816700 0.000000 0.000000 -1.570795
    1 0.000001 0.000000 0.000000 -0.000086 -1.570451 -1.570709
    2 4.443614 -0.009643 0.000006 -0.000004 -0.000001 0.000796
    3 12.111416 -0.011445 0.000000 0.000000 0.000000 0.000000
    4 0.000005 0.011450 -1.352403 -0.000014 1.370796 3.140783
    5 6.078087 0.000000 0.000002 0.662677 -0.895968 -0.776403
    6 13.446754 0.000000 0.000003 0.000000 0.000000 -0.929649
    7 15.997000 -0.000002 -0.000001 1.837507 -0.141929 -0.162724
    8 1.885330 0.833277 2.177873 1.264233 -0.638137 0.530090
    9 1.506958 0.000001 -0.000003 0.000000 0.000000 -0.488689
    10 0.798352 0.000001 0.000003 0.000000 0.000000 -0.986085
    11 3.950304 -0.539876 2.108868 -0.037808 0.038137 -0.197081
    12 1.545799 0.000000 -0.000002 0.000000 0.000000 1.396235
    13 1.667398 0.000001 -0.000004 0.000000 0.000000 1.466046
    14 3.899458 -0.475375 1.170885 -0.069014 0.069822 -0.026114
    15 1.528219 0.000000 0.000005 0.000000 0.000000 1.047176
    16 1.528215 0.000000 -0.000005 0.000000 0.000000 1.815102
    17 3.899462 -0.431803 -0.168225 -0.003758 -0.034707 0.130944
    18 1.506963 0.000002 0.000002 0.000000 0.000000 1.082084
    19 1.506962 -0.000001 -0.000002 0.000000 0.000000 1.727834
    20 3.915635 -0.278019 -1.402609 0.304318 -0.057143 -0.007490
    21 1.333085 0.000000 -0.000001 0.000000 0.000000 1.265345
    22 1.159203 0.000001 0.000001 0.000000 0.000000 1.527123
    23 13.333941 0.905789 19.735220 1.582244 -0.018583 -3.126154
end
