// Created by Crowbar 0.74
version 1
nodes
  0 "Bip01" -1
  1 "Bip01 Pelvis" 0
  2 "Bip01 Spine" 1
  3 "Bip01 Neck" 2
  4 "Bip01 R Clavicle" 3
  5 "Bip01 R UpperArm" 4
  6 "Bip01 R Forearm" 5
  7 "Bip01 R Hand" 6
  8 "Bip01 R Finger0" 7
  9 "Bip01 R Finger01" 8
  10 "Bip01 R Finger02" 9
  11 "Bip01 R Finger1" 7
  12 "Bip01 R Finger11" 11
  13 "Bip01 R Finger12" 12
  14 "Bip01 R Finger2" 7
  15 "Bip01 R Finger21" 14
  16 "Bip01 R Finger22" 15
  17 "Bip01 R Finger3" 7
  18 "Bip01 R Finger31" 17
  19 "Bip01 R Finger32" 18
  20 "Bip01 R Finger4" 7
  21 "Bip01 R Finger41" 20
  22 "Bip01 R Finger42" 21
  23 "tip" 7
end
skeleton
  time 0
    0 0.135014 -5.181166 -24.816700 0.000000 0.000000 -1.570795
    1 0.000001 0.000000 0.000000 -0.000086 -1.570451 -1.570709
    2 4.443614 -0.009643 0.000006 -0.000004 -0.000001 0.000796
    3 12.111416 -0.011445 0.000000 0.000000 0.000000 0.000000
    4 0.000005 0.011450 -1.352403 -0.000014 1.370796 3.140783
    5 6.078087 0.000000 0.000002 0.588765 -1.071339 -0.594138
    6 13.446746 -0.000001 0.000000 0.000000 0.000000 -1.396044
    7 15.996999 -0.000002 -0.000001 1.767688 -0.141929 -0.162724
    8 1.885329 0.833276 2.177871 1.264233 -0.638137 0.530090
    9 1.506961 0.000001 -0.000004 0.000000 0.000000 -0.488689
    10 0.798354 0.000000 -0.000001 0.000000 0.000000 -0.986085
    11 3.950304 -0.539877 2.108871 -0.037808 0.038137 -0.197081
    12 1.545792 0.000000 -0.000003 0.000000 0.000000 1.396235
    13 1.667399 -0.000001 0.000000 0.000000 0.000000 1.466046
    14 3.899458 -0.475377 1.170885 -0.069014 0.069822 -0.026114
    15 1.528216 0.000000 -0.000001 0.000000 0.000000 1.047176
    16 1.528216 0.000000 -0.000001 0.000000 0.000000 1.815102
    17 3.899460 -0.431805 -0.168225 -0.003758 -0.034707 0.130944
    18 1.506963 0.000001 -0.000005 0.000000 0.000000 1.082084
    19 1.506962 0.000000 0.000004 0.000000 0.000000 1.727834
    20 3.915633 -0.278020 -1.402612 0.304318 -0.057143 -0.007490
    21 1.333082 0.000000 0.000000 0.000000 0.000000 1.265345
    22 1.159203 0.000002 -0.000002 0.000000 0.000000 1.527123
    23 13.333941 0.905787 19.735216 1.582244 -0.018583 -3.126154
  time 1
    0 0.135014 -5.181166 -24.816700 0.000000 0.000000 -1.570795
    1 0.000001 0.000000 0.000000 -0.000086 -1.570451 -1.570709
    2 4.443614 -0.009643 0.000006 -0.000004 -0.000001 0.000796
    3 12.111416 -0.011445 0.000000 0.000000 0.000000 0.000000
    4 0.000005 0.011450 -1.352403 -0.000014 1.370796 3.140783
    5 6.078087 0.000000 0.000002 0.480162 -0.974425 -0.579550
    6 13.446746 -0.000001 0.000000 0.000000 0.000000 -1.320572
    7 15.996999 -0.000002 -0.000001 1.725031 -0.078991 -0.112972
    8 1.885329 0.833276 2.177871 1.264233 -0.638137 0.530090
    9 1.506961 0.000001 -0.000004 0.000000 0.000000 -0.488689
    10 0.798354 0.000000 -0.000001 0.000000 0.000000 -0.986085
    11 3.950304 -0.539877 2.108871 -0.037808 0.038137 -0.197081
    12 1.545792 0.000000 -0.000003 0.000000 0.000000 1.396235
    13 1.667399 -0.000001 0.000000 0.000000 0.000000 1.466046
    14 3.899458 -0.475377 1.170885 -0.069014 0.069822 -0.026114
    15 1.528216 0.000000 -0.000001 0.000000 0.000000 1.047176
    16 1.528216 0.000000 -0.000001 0.000000 0.000000 1.815102
    17 3.899460 -0.431805 -0.168225 -0.003758 -0.034707 0.130944
    18 1.506963 0.000001 -0.000005 0.000000 0.000000 1.082084
    19 1.506962 0.000000 0.000004 0.000000 0.000000 1.727834
    20 3.915633 -0.278020 -1.402612 0.304318 -0.057143 -0.007490
    21 1.333082 0.000000 0.000000 0.000000 0.000000 1.265345
    22 1.159203 0.000002 -0.000002 0.000000 0.000000 1.527123
    23 13.333941 0.905787 19.735216 1.582244 -0.018583 -3.126154
  time 2
    0 0.135014 -5.181166 -24.816700 0.000000 0.000000 -1.570795
    1 0.000001 0.000000 0.000000 -0.000086 -1.570451 -1.570709
    2 4.443614 -0.009643 0.000006 -0.000004 -0.000001 0.000796
    3 12.111416 -0.011445 0.000000 0.000000 0.000000 0.000000
    4 0.000005 0.011450 -1.352403 -0.000014 1.370796 3.140783
    5 6.078087 0.000000 0.000002 0.371662 -0.868780 -0.575215
    6 13.446746 -0.000001 0.000000 0.000000 0.000000 -1.242501
    7 15.996999 -0.000002 -0.000001 1.692223 -0.012239 -0.072382
    8 1.885329 0.833276 2.177871 1.264233 -0.638137 0.530090
    9 1.506961 0.000001 -0.000004 0.000000 0.000000 -0.488689
    10 0.798354 0.000000 -0.000001 0.000000 0.000000 -0.986085
    11 3.950304 -0.539877 2.108871 -0.037808 0.038137 -0.197081
    12 1.545792 0.000000 -0.000003 0.000000 0.000000 1.396235
    13 1.667399 -0.000001 0.000000 0.000000 0.000000 1.466046
    14 3.899458 -0.475377 1.170885 -0.069014 0.069822 -0.026114
    15 1.528216 0.000000 -0.000001 0.000000 0.000000 1.047176
    16 1.528216 0.000000 -0.000001 0.000000 0.000000 1.815102
    17 3.899460 -0.431805 -0.168225 -0.003758 -0.034707 0.130944
    18 1.506963 0.000001 -0.000005 0.000000 0.000000 1.082084
    19 1.506962 0.000000 0.000004 0.000000 0.000000 1.727834
    20 3.915633 -0.278020 -1.402612 0.304318 -0.057143 -0.007490
    21 1.333082 0.000000 0.000000 0.000000 0.000000 1.265345
    22 1.159203 0.000002 -0.000002 0.000000 0.000000 1.527123
    23 13.333941 0.905787 19.735216 1.582244 -0.018583 -3.126154
  time 3
    0 0.135014 -5.181166 -24.816700 0.000000 0.000000 -1.570795
    1 0.000001 0.000000 0.000000 -0.000086 -1.570451 -1.570709
    2 4.443614 -0.009643 0.000006 -0.000004 -0.000001 0.000796
    3 12.111416 -0.011445 0.000000 0.000000 0.000000 0.000000
    4 0.000005 0.011450 -1.352403 -0.000014 1.370796 3.140783
    5 6.078087 0.000000 0.000002 0.302743 -0.780598 -0.599411
    6 13.446746 -0.000001 0.000000 0.000000 0.000000 -1.169691
    7 15.996999 -0.000002 -0.000001 1.649390 0.052559 -0.021791
    8 1.885329 0.833276 2.177871 1.264233 -0.638137 0.530090
    9 1.506961 0.000001 -0.000004 0.000000 0.000000 -0.488689
    10 0.798354 0.000000 -0.000001 0.000000 0.000000 -0.986085
    11 3.950304 -0.539877 2.108871 -0.037808 0.038137 -0.197081
    12 1.545792 0.000000 -0.000003 0.000000 0.000000 1.396235
    13 1.667399 -0.000001 0.000000 0.000000 0.000000 1.466046
    14 3.899458 -0.475377 1.170885 -0.069014 0.069822 -0.026114
    15 1.528216 0.000000 -0.000001 0.000000 0.000000 1.047176
    16 1.528216 0.000000 -0.000001 0.000000 0.000000 1.815102
    17 3.899460 -0.431805 -0.168225 -0.003758 -0.034707 0.130944
    18 1.506963 0.000001 -0.000005 0.000000 0.000000 1.082084
    19 1.506962 0.000000 0.000004 0.000000 0.000000 1.727834
    20 3.915633 -0.278020 -1.402612 0.304318 -0.057143 -0.007490
    21 1.333082 0.000000 0.000000 0.000000 0.000000 1.265345
    22 1.159203 0.000002 -0.000002 0.000000 0.000000 1.527123
    23 13.333941 0.905787 19.735216 1.582244 -0.018583 -3.126154
  time 4
    0 0.135014 -5.181166 -24.816700 0.000000 0.000000 -1.570795
    1 0.000001 0.000000 0.000000 -0.000086 -1.570451 -1.570709
    2 4.443614 -0.009643 0.000006 -0.000004 -0.000001 0.000796
    3 12.111416 -0.011445 0.000000 0.000000 0.000000 0.000000
    4 0.000005 0.011450 -1.352403 -0.000014 1.370796 3.140783
    5 6.078087 0.000000 0.000002 0.302537 -0.735741 -0.656651
    6 13.446746 -0.000001 0.000000 0.000000 0.000000 -1.109997
    7 15.996999 -0.000002 -0.000001 1.578521 0.113591 0.055665
    8 1.885329 0.833276 2.177871 1.264233 -0.638137 0.530090
    9 1.506961 0.000001 -0.000004 0.000000 0.000000 -0.488689
    10 0.798354 0.000000 -0.000001 0.000000 0.000000 -0.986085
    11 3.950304 -0.539877 2.108871 -0.037808 0.038137 -0.197081
    12 1.545792 0.000000 -0.000003 0.000000 0.000000 1.396235
    13 1.667399 -0.000001 0.000000 0.000000 0.000000 1.466046
    14 3.899458 -0.475377 1.170885 -0.069014 0.069822 -0.026114
    15 1.528216 0.000000 -0.000001 0.000000 0.000000 1.047176
    16 1.528216 0.000000 -0.000001 0.000000 0.000000 1.815102
    17 3.899460 -0.431805 -0.168225 -0.003758 -0.034707 0.130944
    18 1.506963 0.000001 -0.000005 0.000000 0.000000 1.082084
    19 1.506962 0.000000 0.000004 0.000000 0.000000 1.727834
    20 3.915633 -0.278020 -1.402612 0.304318 -0.057143 -0.007490
    21 1.333082 0.000000 0.000000 0.000000 0.000000 1.265345
    22 1.159203 0.000002 -0.000002 0.000000 0.000000 1.527123
    23 13.333941 0.905787 19.735216 1.582244 -0.018583 -3.126154
  time 5
    0 0.135014 -5.181166 -24.816700 0.000000 0.000000 -1.570795
    1 0.000001 0.000000 0.000000 -0.000086 -1.570451 -1.570709
    2 4.443614 -0.009643 0.000006 -0.000004 -0.000001 0.000796
    3 12.111416 -0.011445 0.000000 0.000000 0.000000 0.000000
    4 0.000005 0.011450 -1.352403 -0.000014 1.370796 3.140783
    5 6.078087 0.000000 0.000002 0.444287 -0.765618 -0.782027
    6 13.446746 -0.000001 0.000000 0.000000 0.000000 -1.075017
    7 15.996999 -0.000002 -0.000001 1.447813 0.181425 0.199262
    8 1.885329 0.833276 2.177871 1.264233 -0.638137 0.530090
    9 1.506961 0.000001 -0.000004 0.000000 0.000000 -0.488689
    10 0.798354 0.000000 -0.000001 0.000000 0.000000 -0.986085
    11 3.950304 -0.539877 2.108871 -0.037808 0.038137 -0.197081
    12 1.545792 0.000000 -0.000003 0.000000 0.000000 1.396235
    13 1.667399 -0.000001 0.000000 0.000000 0.000000 1.466046
    14 3.899458 -0.475377 1.170885 -0.069014 0.069822 -0.026114
    15 1.528216 0.000000 -0.000001 0.000000 0.000000 1.047176
    16 1.528216 0.000000 -0.000001 0.000000 0.000000 1.815143
    17 3.899460 -0.431805 -0.168225 -0.003758 -0.034707 0.130944
    18 1.506963 0.000001 -0.000005 0.000000 0.000000 1.082084
    19 1.506962 0.000000 0.000004 0.000000 0.000000 1.727876
    20 3.915633 -0.278020 -1.402612 0.304318 -0.057143 -0.007490
    21 1.333082 0.000000 0.000000 0.000000 0.000000 1.265345
    22 1.159203 0.000002 -0.000002 0.000000 0.000000 1.527123
    23 13.333941 0.905787 19.735216 1.582244 -0.018583 -3.126154
  time 6
    0 0.135014 -5.181166 -24.816700 0.000000 0.000000 -1.570795
    1 0.000001 0.000000 0.000000 -0.000086 -1.570451 -1.570709
    2 4.443614 -0.009643 0.000006 -0.000004 -0.000001 0.000796
    3 12.111416 -0.011445 0.000000 0.000000 0.000000 0.000000
    4 0.000005 0.011450 -1.352403 -0.000014 1.370796 3.140783
    5 6.078087 0.000000 0.000002 0.715074 -0.822310 -0.982688
    6 13.446746 -0.000001 0.000000 0.000000 0.000000 -1.058668
    7 15.996999 -0.000002 -0.000001 1.284077 0.270654 0.374469
    8 1.885329 0.833276 2.177871 1.264233 -0.638137 0.530090
    9 1.506961 0.000001 -0.000004 0.000000 0.000000 -0.488689
    10 0.798354 0.000000 -0.000001 0.000000 0.000000 -0.986085
    11 3.950304 -0.539877 2.108871 -0.037808 0.038137 -0.197081
    12 1.545792 0.000000 -0.000003 0.000000 0.000000 1.396235
    13 1.667399 -0.000001 0.000000 0.000000 0.000000 1.466046
    14 3.899458 -0.475377 1.170885 -0.069014 0.069822 -0.026114
    15 1.528216 0.000000 -0.000001 0.000000 0.000000 1.047176
    16 1.528216 0.000000 -0.000001 0.000000 0.000000 1.815102
    17 3.899460 -0.431805 -0.168225 -0.003758 -0.034707 0.130944
    18 1.506963 0.000001 -0.000005 0.000000 0.000000 1.082084
    19 1.506962 0.000000 0.000004 0.000000 0.000000 1.727834
    20 3.915633 -0.278020 -1.402612 0.304318 -0.057143 -0.007490
    21 1.333082 0.000000 0.000000 0.000000 0.000000 1.265345
    22 1.159203 0.000002 -0.000002 0.000000 0.000000 1.527123
    23 13.333941 0.905787 19.735216 1.582244 -0.018583 -3.126154
  time 7
    0 0.135014 -5.181166 -24.816700 0.000000 0.000000 -1.570795
    1 0.000001 0.000000 0.000000 -0.000086 -1.570451 -1.570709
    2 4.443614 -0.009643 0.000006 -0.000004 -0.000001 0.000796
    3 12.111416 -0.011445 0.000000 0.000000 0.000000 0.000000
    4 0.000005 0.011450 -1.352403 -0.000014 1.370796 3.140783
    5 6.078087 0.000000 0.000002 0.970728 -0.841221 -1.173214
    6 13.446746 -0.000001 0.000000 0.000000 0.000000 -1.042319
    7 15.996999 -0.000002 -0.000001 1.147175 0.357883 0.494595
    8 1.885329 0.833276 2.177871 1.264233 -0.638137 0.530090
    9 1.506961 0.000001 -0.000004 0.000000 0.000000 -0.488689
    10 0.798354 0.000000 -0.000001 0.000000 0.000000 -0.986085
    11 3.950304 -0.539877 2.108871 -0.037808 0.038137 -0.197081
    12 1.545792 0.000000 -0.000003 0.000000 0.000000 1.396235
    13 1.667399 -0.000001 0.000000 0.000000 0.000000 1.466046
    14 3.899458 -0.475377 1.170885 -0.069014 0.069822 -0.026114
    15 1.528216 0.000000 -0.000001 0.000000 0.000000 1.047176
    16 1.528216 0.000000 -0.000001 0.000000 0.000000 1.815102
    17 3.899460 -0.431805 -0.168225 -0.003758 -0.034707 0.130944
    18 1.506963 0.000001 -0.000005 0.000000 0.000000 1.082084
    19 1.506962 0.000000 0.000004 0.000000 0.000000 1.727876
    20 3.915633 -0.278020 -1.402612 0.304318 -0.057143 -0.007490
    21 1.333082 0.000000 0.000000 0.000000 0.000000 1.265345
    22 1.159203 0.000002 -0.000002 0.000000 0.000000 1.527123
    23 13.333941 0.905787 19.735216 1.582244 -0.018583 -3.126154
  time 8
    0 0.135014 -5.181166 -24.816700 0.000000 0.000000 -1.570795
    1 0.000001 0.000000 0.000000 -0.000086 -1.570451 -1.570709
    2 4.443614 -0.009643 0.000006 -0.000004 -0.000001 0.000796
    3 12.111416 -0.011445 0.000000 0.000000 0.000000 0.000000
    4 0.000005 0.011450 -1.352403 -0.000014 1.370796 3.140783
    5 6.078087 0.000000 0.000002 0.986015 -0.853594 -1.162902
    6 13.446746 -0.000001 0.000000 0.000000 0.000000 -1.019823
    7 15.996999 -0.000002 -0.000001 1.106641 0.301676 0.369578
    8 1.885329 0.833276 2.177871 1.264233 -0.638137 0.530090
    9 1.506961 0.000001 -0.000004 0.000000 0.000000 -0.488689
    10 0.798354 0.000000 -0.000001 0.000000 0.000000 -0.986085
    11 3.950304 -0.539877 2.108871 -0.037808 0.038137 -0.197081
    12 1.545792 0.000000 -0.000003 0.000000 0.000000 1.396235
    13 1.667399 -0.000001 0.000000 0.000000 0.000000 1.466046
    14 3.899458 -0.475377 1.170885 -0.069014 0.069822 -0.026114
    15 1.528216 0.000000 -0.000001 0.000000 0.000000 1.047176
    16 1.528216 0.000000 -0.000001 0.000000 0.000000 1.815102
    17 3.899460 -0.431805 -0.168225 -0.003758 -0.034707 0.130944
    18 1.506963 0.000001 -0.000005 0.000000 0.000000 1.082084
    19 1.506962 0.000000 0.000004 0.000000 0.000000 1.727834
    20 3.915633 -0.278020 -1.402612 0.304318 -0.057143 -0.007490
    21 1.333082 0.000000 0.000000 0.000000 0.000000 1.265345
    22 1.159203 0.000002 -0.000002 0.000000 0.000000 1.527123
    23 13.333941 0.905787 19.735216 1.582244 -0.018583 -3.126154
  time 9
    0 0.135014 -5.181166 -24.816700 0.000000 0.000000 -1.570795
    1 0.000001 0.000000 0.000000 -0.000086 -1.570451 -1.570709
    2 4.443614 -0.009643 0.000006 -0.000004 -0.000001 0.000796
    3 12.111416 -0.011445 0.000000 0.000000 0.000000 0.000000
    4 0.000005 0.011450 -1.352403 -0.000014 1.370796 3.140783
    5 6.078087 0.000000 0.000002 0.922758 -0.871056 -1.082345
    6 13.446746 -0.000001 0.000000 0.000000 0.000000 -0.997264
    7 15.996999 -0.000002 -0.000001 1.411874 0.098197 0.084209
    8 1.885329 0.833276 2.177871 1.264233 -0.638137 0.530090
    9 1.506961 0.000001 -0.000004 0.000000 0.000000 -0.488689
    10 0.798354 0.000000 -0.000001 0.000000 0.000000 -0.986085
    11 3.950304 -0.539877 2.108871 -0.037808 0.038137 -0.197081
    12 1.545792 0.000000 -0.000003 0.000000 0.000000 1.396235
    13 1.667399 -0.000001 0.000000 0.000000 0.000000 1.466046
    14 3.899458 -0.475377 1.170885 -0.069014 0.069822 -0.026114
    15 1.528216 0.000000 -0.000001 0.000000 0.000000 1.047176
    16 1.528216 0.000000 -0.000001 0.000000 0.000000 1.815102
    17 3.899460 -0.431805 -0.168225 -0.003758 -0.034707 0.130944
    18 1.506963 0.000001 -0.000005 0.000000 0.000000 1.082084
    19 1.506962 0.000000 0.000004 0.000000 0.000000 1.727834
    20 3.915633 -0.278020 -1.402612 0.304318 -0.057143 -0.007490
    21 1.333082 0.000000 0.000000 0.000000 0.000000 1.265345
    22 1.159203 0.000002 -0.000002 0.000000 0.000000 1.527123
    23 13.333941 0.905787 19.735216 1.582244 -0.018583 -3.126154
  time 10
    0 0.135014 -5.181166 -24.816700 0.000000 0.000000 -1.570795
    1 0.000001 0.000000 0.000000 -0.000086 -1.570451 -1.570709
    2 4.443614 -0.009643 0.000006 -0.000004 -0.000001 0.000796
    3 12.111416 -0.011445 0.000000 0.000000 0.000000 0.000000
    4 0.000005 0.011450 -1.352403 -0.000014 1.370796 3.140783
    5 6.078087 0.000000 0.000002 0.839067 -0.884960 -0.983274
    6 13.446746 -0.000001 0.000000 0.000000 0.000000 -0.974704
    7 15.996999 -0.000002 -0.000001 1.743022 -0.012169 -0.193020
    8 1.885329 0.833276 2.177871 1.264233 -0.638137 0.530090
    9 1.506961 0.000001 -0.000004 0.000000 0.000000 -0.488689
    10 0.798354 0.000000 -0.000001 0.000000 0.000000 -0.986085
    11 3.950304 -0.539877 2.108871 -0.037808 0.038137 -0.197081
    12 1.545792 0.000000 -0.000003 0.000000 0.000000 1.396235
    13 1.667399 -0.000001 0.000000 0.000000 0.000000 1.466046
    14 3.899458 -0.475377 1.170885 -0.069014 0.069822 -0.026114
    15 1.528216 0.000000 -0.000001 0.000000 0.000000 1.047176
    16 1.528216 0.000000 -0.000001 0.000000 0.000000 1.815102
    17 3.899460 -0.431805 -0.168225 -0.003758 -0.034707 0.130944
    18 1.506963 0.000001 -0.000005 0.000000 0.000000 1.082084
    19 1.506962 0.000000 0.000004 0.000000 0.000000 1.727834
    20 3.915633 -0.278020 -1.402612 0.304318 -0.057143 -0.007490
    21 1.333082 0.000000 0.000000 0.000000 0.000000 1.265345
    22 1.159203 0.000002 -0.000002 0.000000 0.000000 1.527123
    23 13.333941 0.905787 19.735216 1.582244 -0.018583 -3.126154
  time 11
    0 0.135014 -5.181166 -24.816700 0.000000 0.000000 -1.570795
    1 0.000001 0.000000 0.000000 -0.000086 -1.570451 -1.570709
    2 4.443614 -0.009643 0.000006 -0.000004 -0.000001 0.000796
    3 12.111416 -0.011445 0.000000 0.000000 0.000000 0.000000
    4 0.000005 0.011450 -1.352403 -0.000014 1.370796 3.140783
    5 6.078087 0.000000 0.000002 0.752802 -0.893402 -0.881625
    6 13.446746 -0.000001 0.000000 0.000000 0.000000 -0.952145
    7 15.996999 -0.000002 -0.000001 1.830088 -0.074566 -0.219885
    8 1.885329 0.833276 2.177871 1.264233 -0.638137 0.530090
    9 1.506961 0.000001 -0.000004 0.000000 0.000000 -0.488689
    10 0.798354 0.000000 -0.000001 0.000000 0.000000 -0.986085
    11 3.950304 -0.539877 2.108871 -0.037808 0.038137 -0.197081
    12 1.545792 0.000000 -0.000003 0.000000 0.000000 1.396235
    13 1.667399 -0.000001 0.000000 0.000000 0.000000 1.466046
    14 3.899458 -0.475377 1.170885 -0.069014 0.069822 -0.026114
    15 1.528216 0.000000 -0.000001 0.000000 0.000000 1.047176
    16 1.528216 0.000000 -0.000001 0.000000 0.000000 1.815102
    17 3.899460 -0.431805 -0.168225 -0.003758 -0.034707 0.130944
    18 1.506963 0.000001 -0.000005 0.000000 0.000000 1.082084
    19 1.506962 0.000000 0.000004 0.000000 0.000000 1.727834
    20 3.915633 -0.278020 -1.402612 0.304318 -0.057143 -0.007490
    21 1.333082 0.000000 0.000000 0.000000 0.000000 1.265345
    22 1.159203 0.000002 -0.000002 0.000000 0.000000 1.527123
    23 13.333941 0.905787 19.735216 1.582244 -0.018583 -3.126154
  time 12
    0 0.135014 -5.181166 -24.816700 0.000000 0.000000 -1.570795
    1 0.000001 0.000000 0.000000 -0.000086 -1.570451 -1.570709
    2 4.443614 -0.009643 0.000006 -0.000004 -0.000001 0.000796
    3 12.111416 -0.011445 0.000000 0.000000 0.000000 0.000000
    4 0.000005 0.011450 -1.352403 -0.000014 1.370796 3.140783
    5 6.078087 0.000000 0.000002 0.662677 -0.895968 -0.776403
    6 13.446746 -0.000001 0.000000 0.000000 0.000000 -0.929649
    7 15.996999 -0.000002 -0.000001 1.837507 -0.141929 -0.162724
    8 1.885329 0.833276 2.177871 1.264233 -0.638137 0.530090
    9 1.506961 0.000001 -0.000004 0.000000 0.000000 -0.488689
    10 0.798354 0.000000 -0.000001 0.000000 0.000000 -0.986085
    11 3.950304 -0.539877 2.108871 -0.037808 0.038137 -0.197081
    12 1.545792 0.000000 -0.000003 0.000000 0.000000 1.396235
    13 1.667399 -0.000001 0.000000 0.000000 0.000000 1.466046
    14 3.899458 -0.475377 1.170885 -0.069014 0.069822 -0.026114
    15 1.528216 0.000000 -0.000001 0.000000 0.000000 1.047176
    16 1.528216 0.000000 -0.000001 0.000000 0.000000 1.815102
    17 3.899460 -0.431805 -0.168225 -0.003758 -0.034707 0.130944
    18 1.506963 0.000001 -0.000005 0.000000 0.000000 1.082084
    19 1.506962 0.000000 0.000004 0.000000 0.000000 1.727834
    20 3.915633 -0.278020 -1.402612 0.304318 -0.057143 -0.007490
    21 1.333082 0.000000 0.000000 0.000000 0.000000 1.265345
    22 1.159203 0.000002 -0.000002 0.000000 0.000000 1.527123
    23 13.333941 0.905787 19.735216 1.582244 -0.018583 -3.126154
end
