// Created by Crowbar 0.74
version 1
nodes
  0 "Bip01" -1
  1 "Bip01 Pelvis" 0
  2 "Bip01 Spine" 1
  3 "Bip01 Neck" 2
  4 "Bip01 R Clavicle" 3
  5 "Bip01 R UpperArm" 4
  6 "Bip01 R Forearm" 5
  7 "Bip01 R Hand" 6
  8 "Bip01 R Finger0" 7
  9 "Bip01 R Finger01" 8
  10 "Bip01 R Finger02" 9
  11 "Bip01 R Finger1" 7
  12 "Bip01 R Finger11" 11
  13 "Bip01 R Finger12" 12
  14 "Bip01 R Finger2" 7
  15 "Bip01 R Finger21" 14
  16 "Bip01 R Finger22" 15
  17 "Bip01 R Finger3" 7
  18 "Bip01 R Finger31" 17
  19 "Bip01 R Finger32" 18
  20 "Bip01 R Finger4" 7
  21 "Bip01 R Finger41" 20
  22 "Bip01 R Finger42" 21
  23 "tip" 7
end
skeleton
  time 0
    0 0.135014 -5.181166 -24.816700 0.000000 0.000000 -1.570795
    1 0.000001 0.000000 0.000000 -0.000086 -1.570451 -1.570709
    2 4.443614 -0.009643 0.000006 -0.000004 -0.000001 0.000796
    3 12.111416 -0.011445 0.000000 0.000000 0.000000 0.000000
    4 0.000005 0.011450 -1.352403 -0.000014 1.370796 3.140783
    5 6.078087 -0.000001 0.000002 0.662677 -0.895968 -0.776403
    6 13.446750 -0.000001 0.000001 0.000000 0.000000 -1.296175
    7 15.997001 0.000001 0.000000 2.023414 -0.208587 -0.028106
    8 1.885328 0.833276 2.177873 1.264233 -0.638137 0.530090
    9 1.506963 -0.000002 -0.000001 0.000000 0.000000 -0.488689
    10 0.798352 -0.000001 0.000000 0.000000 0.000000 -0.986085
    11 3.950301 -0.539875 2.108870 -0.037808 0.038137 -0.197081
    12 1.545802 0.000000 -0.000004 0.000000 0.000000 1.396235
    13 1.667398 -0.000005 0.000006 0.000000 0.000000 1.466046
    14 3.899461 -0.475376 1.170885 -0.069014 0.069822 -0.026114
    15 1.528217 0.000000 -0.000002 0.000000 0.000000 1.047176
    16 1.528216 -0.000004 0.000003 0.000000 0.000000 1.815102
    17 3.899461 -0.431803 -0.168225 -0.003758 -0.034707 0.130944
    18 1.506967 -0.000002 -0.000005 0.000000 0.000000 1.082084
    19 1.506964 0.000000 -0.000002 0.000000 0.000000 1.727834
    20 3.915633 -0.278020 -1.402612 0.304318 -0.057143 -0.007490
    21 1.333087 -0.000003 -0.000001 0.000000 0.000000 1.265345
    22 1.159205 0.000001 0.000001 0.000000 0.000000 1.527123
    23 13.333947 0.905789 19.735224 1.582244 -0.018583 -3.126154
  time 1
    0 0.135014 -5.181166 -24.816700 0.000000 0.000000 -1.570795
    1 0.000001 0.000000 0.000000 -0.000086 -1.570451 -1.570709
    2 4.443614 -0.009643 0.000006 -0.000004 -0.000001 0.000796
    3 12.111416 -0.011445 0.000000 0.000000 0.000000 0.000000
    4 0.000005 0.011450 -1.352403 -0.000014 1.370796 3.140783
    5 6.078087 -0.000001 0.000002 0.728662 -0.777412 -0.782086
    6 13.446750 -0.000001 0.000001 0.000000 0.000000 -1.413027
    7 15.997001 0.000001 0.000000 1.990978 -0.116580 -0.196707
    8 1.885328 0.833276 2.177873 1.264233 -0.638137 0.530090
    9 1.506963 -0.000002 -0.000001 0.000000 0.000000 -0.488689
    10 0.798352 -0.000001 0.000000 0.000000 0.000000 -0.986085
    11 3.950301 -0.539875 2.108870 -0.037808 0.038137 -0.197081
    12 1.545802 0.000000 -0.000004 0.000000 0.000000 1.396235
    13 1.667398 -0.000005 0.000006 0.000000 0.000000 1.466046
    14 3.899461 -0.475376 1.170885 -0.069014 0.069822 -0.026114
    15 1.528217 0.000000 -0.000002 0.000000 0.000000 1.047176
    16 1.528216 -0.000004 0.000003 0.000000 0.000000 1.815102
    17 3.899461 -0.431803 -0.168225 -0.003758 -0.034707 0.130944
    18 1.506967 -0.000002 -0.000005 0.000000 0.000000 1.082084
    19 1.506964 0.000000 -0.000002 0.000000 0.000000 1.727834
    20 3.915633 -0.278020 -1.402612 0.304318 -0.057143 -0.007490
    21 1.333087 -0.000003 -0.000001 0.000000 0.000000 1.265345
    22 1.159205 0.000001 0.000001 0.000000 0.000000 1.527123
    23 13.333947 0.905789 19.735224 1.582244 -0.018583 -3.126154
  time 2
    0 0.135014 -5.181166 -24.816700 0.000000 0.000000 -1.570795
    1 0.000001 0.000000 0.000000 -0.000086 -1.570451 -1.570709
    2 4.443614 -0.009643 0.000006 -0.000004 -0.000001 0.000796
    3 12.111416 -0.011445 0.000000 0.000000 0.000000 0.000000
    4 0.000005 0.011450 -1.352403 -0.000014 1.370796 3.140783
    5 6.078087 -0.000001 0.000002 0.787339 -0.658897 -0.777340
    6 13.446750 -0.000001 0.000001 0.000000 0.000000 -1.529943
    7 15.997001 0.000001 0.000000 1.943812 -0.031281 -0.367096
    8 1.885328 0.833276 2.177873 1.264233 -0.638137 0.530090
    9 1.506963 -0.000002 -0.000001 0.000000 0.000000 -0.488689
    10 0.798352 -0.000001 0.000000 0.000000 0.000000 -0.986085
    11 3.950301 -0.539875 2.108870 -0.037808 0.038137 -0.197081
    12 1.545802 0.000000 -0.000004 0.000000 0.000000 1.396235
    13 1.667398 -0.000005 0.000006 0.000000 0.000000 1.466046
    14 3.899461 -0.475376 1.170885 -0.069014 0.069822 -0.026114
    15 1.528217 0.000000 -0.000002 0.000000 0.000000 1.047176
    16 1.528216 -0.000004 0.000003 0.000000 0.000000 1.815102
    17 3.899461 -0.431803 -0.168225 -0.003758 -0.034707 0.130944
    18 1.506967 -0.000002 -0.000005 0.000000 0.000000 1.082084
    19 1.506964 0.000000 -0.000002 0.000000 0.000000 1.727834
    20 3.915633 -0.278020 -1.402612 0.304318 -0.057143 -0.007490
    21 1.333087 -0.000003 -0.000001 0.000000 0.000000 1.265345
    22 1.159205 0.000001 0.000001 0.000000 0.000000 1.527123
    23 13.333947 0.905789 19.735224 1.582244 -0.018583 -3.126154
  time 3
    0 0.135014 -5.181166 -24.816700 0.000000 0.000000 -1.570795
    1 0.000001 0.000000 0.000000 -0.000086 -1.570451 -1.570709
    2 4.443614 -0.009643 0.000006 -0.000004 -0.000001 0.000796
    3 12.111416 -0.011445 0.000000 0.000000 0.000000 0.000000
    4 0.000005 0.011450 -1.352403 -0.000014 1.370796 3.140783
    5 6.078087 -0.000001 0.000002 0.850030 -0.601130 -0.801009
    6 13.446750 -0.000001 0.000001 0.000000 0.000000 -1.557952
    7 15.997001 0.000001 0.000000 1.919911 0.013322 -0.484412
    8 1.885328 0.833276 2.177873 1.264233 -0.638137 0.530090
    9 1.506963 -0.000002 -0.000001 0.000000 0.000000 -0.488689
    10 0.798352 -0.000001 0.000000 0.000000 0.000000 -0.986085
    11 3.950301 -0.539875 2.108870 -0.037808 0.038137 -0.197081
    12 1.545802 0.000000 -0.000004 0.000000 0.000000 1.396235
    13 1.667398 -0.000005 0.000006 0.000000 0.000000 1.466046
    14 3.899461 -0.475376 1.170885 -0.069014 0.069822 -0.026114
    15 1.528217 0.000000 -0.000002 0.000000 0.000000 1.047176
    16 1.528216 -0.000004 0.000003 0.000000 0.000000 1.815102
    17 3.899461 -0.431803 -0.168225 -0.003758 -0.034707 0.130944
    18 1.506967 -0.000002 -0.000005 0.000000 0.000000 1.082084
    19 1.506964 0.000000 -0.000002 0.000000 0.000000 1.727834
    20 3.915633 -0.278020 -1.402612 0.304318 -0.057143 -0.007490
    21 1.333087 -0.000003 -0.000001 0.000000 0.000000 1.265345
    22 1.159205 0.000001 0.000001 0.000000 0.000000 1.527123
    23 13.333947 0.905789 19.735224 1.582244 -0.018583 -3.126154
  time 4
    0 0.135014 -5.181166 -24.816700 0.000000 0.000000 -1.570795
    1 0.000001 0.000000 0.000000 -0.000086 -1.570451 -1.570709
    2 4.443614 -0.009643 0.000006 -0.000004 -0.000001 0.000796
    3 12.111416 -0.011445 0.000000 0.000000 0.000000 0.000000
    4 0.000005 0.011450 -1.352403 -0.000014 1.370796 3.140783
    5 6.078087 -0.000001 0.000002 0.936192 -0.633241 -0.878579
    6 13.446750 -0.000001 0.000001 0.000000 0.000000 -1.474748
    7 15.997001 0.000001 0.000000 1.941448 0.026762 -0.546099
    8 1.885328 0.833276 2.177873 1.264233 -0.638137 0.530090
    9 1.506963 -0.000002 -0.000001 0.000000 0.000000 -0.488689
    10 0.798352 -0.000001 0.000000 0.000000 0.000000 -0.986085
    11 3.950301 -0.539875 2.108870 -0.037808 0.038137 -0.197081
    12 1.545802 0.000000 -0.000004 0.000000 0.000000 1.396235
    13 1.667398 -0.000005 0.000006 0.000000 0.000000 1.466046
    14 3.899461 -0.475376 1.170885 -0.069014 0.069822 -0.026114
    15 1.528217 0.000000 -0.000002 0.000000 0.000000 1.047176
    16 1.528216 -0.000004 0.000003 0.000000 0.000000 1.815102
    17 3.899461 -0.431803 -0.168225 -0.003758 -0.034707 0.130944
    18 1.506967 -0.000002 -0.000005 0.000000 0.000000 1.082084
    19 1.506964 0.000000 -0.000002 0.000000 0.000000 1.727834
    20 3.915633 -0.278020 -1.402612 0.304318 -0.057143 -0.007490
    21 1.333087 -0.000003 -0.000001 0.000000 0.000000 1.265345
    22 1.159205 0.000001 0.000001 0.000000 0.000000 1.527123
    23 13.333947 0.905789 19.735224 1.582244 -0.018583 -3.126154
  time 5
    0 0.135014 -5.181166 -24.816700 0.000000 0.000000 -1.570795
    1 0.000001 0.000000 0.000000 -0.000086 -1.570451 -1.570709
    2 4.443614 -0.009643 0.000006 -0.000004 -0.000001 0.000796
    3 12.111416 -0.011445 0.000000 0.000000 0.000000 0.000000
    4 0.000005 0.011450 -1.352403 -0.000014 1.370796 3.140783
    5 6.078087 -0.000001 0.000002 1.052155 -0.706816 -1.001612
    6 13.446750 -0.000001 0.000001 0.000000 0.000000 -1.333499
    7 15.997001 0.000001 0.000000 1.988986 0.027727 -0.580447
    8 1.885328 0.833276 2.177873 1.264233 -0.638137 0.530090
    9 1.506963 -0.000002 -0.000001 0.000000 0.000000 -0.488689
    10 0.798352 -0.000001 0.000000 0.000000 0.000000 -0.986085
    11 3.950301 -0.539875 2.108870 -0.037808 0.038137 -0.197081
    12 1.545802 0.000000 -0.000004 0.000000 0.000000 1.396235
    13 1.667398 -0.000005 0.000006 0.000000 0.000000 1.466046
    14 3.899461 -0.475376 1.170885 -0.069014 0.069822 -0.026114
    15 1.528217 0.000000 -0.000002 0.000000 0.000000 1.047176
    16 1.528216 -0.000004 0.000003 0.000000 0.000000 1.815102
    17 3.899461 -0.431803 -0.168225 -0.003758 -0.034707 0.130944
    18 1.506967 -0.000002 -0.000005 0.000000 0.000000 1.082084
    19 1.506964 0.000000 -0.000002 0.000000 0.000000 1.727834
    20 3.915633 -0.278020 -1.402612 0.304318 -0.057143 -0.007490
    21 1.333087 -0.000003 -0.000001 0.000000 0.000000 1.265345
    22 1.159205 0.000001 0.000001 0.000000 0.000000 1.527123
    23 13.333947 0.905789 19.735224 1.582244 -0.018583 -3.126154
  time 6
    0 0.135014 -5.181166 -24.816700 0.000000 0.000000 -1.570795
    1 0.000001 0.000000 0.000000 -0.000086 -1.570451 -1.570709
    2 4.443614 -0.009643 0.000006 -0.000004 -0.000001 0.000796
    3 12.111416 -0.011445 0.000000 0.000000 0.000000 0.000000
    4 0.000005 0.011450 -1.352403 -0.000014 1.370796 3.140783
    5 6.078087 -0.000001 0.000002 1.175015 -0.768267 -1.146264
    6 13.446750 -0.000001 0.000001 0.000000 0.000000 -1.158411
    7 15.997001 0.000001 0.000000 2.047358 0.002683 -0.575373
    8 1.885328 0.833276 2.177873 1.264233 -0.638137 0.530090
    9 1.506963 -0.000002 -0.000001 0.000000 0.000000 -0.488689
    10 0.798352 -0.000001 0.000000 0.000000 0.000000 -0.986085
    11 3.950301 -0.539875 2.108870 -0.037808 0.038137 -0.197081
    12 1.545802 0.000000 -0.000004 0.000000 0.000000 1.396235
    13 1.667398 -0.000005 0.000006 0.000000 0.000000 1.466046
    14 3.899461 -0.475376 1.170885 -0.069014 0.069822 -0.026114
    15 1.528217 0.000000 -0.000002 0.000000 0.000000 1.047176
    16 1.528216 -0.000004 0.000003 0.000000 0.000000 1.815102
    17 3.899461 -0.431803 -0.168225 -0.003758 -0.034707 0.130944
    18 1.506967 -0.000002 -0.000005 0.000000 0.000000 1.082084
    19 1.506964 0.000000 -0.000002 0.000000 0.000000 1.727834
    20 3.915633 -0.278020 -1.402612 0.304318 -0.057143 -0.007490
    21 1.333087 -0.000003 -0.000001 0.000000 0.000000 1.265345
    22 1.159205 0.000001 0.000001 0.000000 0.000000 1.527123
    23 13.333947 0.905789 19.735224 1.582244 -0.018583 -3.126154
  time 7
    0 0.135014 -5.181166 -24.816700 0.000000 0.000000 -1.570795
    1 0.000001 0.000000 0.000000 -0.000086 -1.570451 -1.570709
    2 4.443614 -0.009643 0.000006 -0.000004 -0.000001 0.000796
    3 12.111416 -0.011445 0.000000 0.000000 0.000000 0.000000
    4 0.000005 0.011450 -1.352403 -0.000014 1.370796 3.140783
    5 6.078087 -0.000001 0.000002 1.248206 -0.778032 -1.255587
    6 13.446750 -0.000001 0.000001 0.000000 0.000000 -0.973754
    7 15.997001 0.000001 0.000000 2.098157 -0.064492 -0.520621
    8 1.885328 0.833276 2.177873 1.264233 -0.638137 0.530090
    9 1.506963 -0.000002 -0.000001 0.000000 0.000000 -0.488689
    10 0.798352 -0.000001 0.000000 0.000000 0.000000 -0.986085
    11 3.950301 -0.539875 2.108870 -0.037808 0.038137 -0.197081
    12 1.545802 0.000000 -0.000004 0.000000 0.000000 1.396235
    13 1.667398 -0.000005 0.000006 0.000000 0.000000 1.466046
    14 3.899461 -0.475376 1.170885 -0.069014 0.069822 -0.026114
    15 1.528217 0.000000 -0.000002 0.000000 0.000000 1.047176
    16 1.528216 -0.000004 0.000003 0.000000 0.000000 1.815102
    17 3.899461 -0.431803 -0.168225 -0.003758 -0.034707 0.130944
    18 1.506967 -0.000002 -0.000005 0.000000 0.000000 1.082084
    19 1.506964 0.000000 -0.000002 0.000000 0.000000 1.727834
    20 3.915633 -0.278020 -1.402612 0.304318 -0.057143 -0.007490
    21 1.333087 -0.000003 -0.000001 0.000000 0.000000 1.265345
    22 1.159205 0.000001 0.000001 0.000000 0.000000 1.527123
    23 13.333947 0.905789 19.735224 1.582244 -0.018583 -3.126154
  time 8
    0 0.135014 -5.181166 -24.816700 0.000000 0.000000 -1.570795
    1 0.000001 0.000000 0.000000 -0.000086 -1.570451 -1.570709
    2 4.443614 -0.009643 0.000006 -0.000004 -0.000001 0.000796
    3 12.111416 -0.011445 0.000000 0.000000 0.000000 0.000000
    4 0.000005 0.011450 -1.352403 -0.000014 1.370796 3.140783
    5 6.078087 -0.000001 0.000002 1.196581 -0.710582 -1.275038
    6 13.446750 -0.000001 0.000001 0.000000 0.000000 -0.753547
    7 15.997001 0.000001 0.000000 2.119541 -0.231818 -0.349356
    8 1.885328 0.833276 2.177873 1.264233 -0.638137 0.530090
    9 1.506963 -0.000002 -0.000001 0.000000 0.000000 -0.488689
    10 0.798352 -0.000001 0.000000 0.000000 0.000000 -0.986085
    11 3.950301 -0.539875 2.108870 -0.037808 0.038137 -0.197081
    12 1.545802 0.000000 -0.000004 0.000000 0.000000 1.396235
    13 1.667398 -0.000005 0.000006 0.000000 0.000000 1.466046
    14 3.899461 -0.475376 1.170885 -0.069014 0.069822 -0.026114
    15 1.528217 0.000000 -0.000002 0.000000 0.000000 1.047176
    16 1.528216 -0.000004 0.000003 0.000000 0.000000 1.815102
    17 3.899461 -0.431803 -0.168225 -0.003758 -0.034707 0.130944
    18 1.506967 -0.000002 -0.000005 0.000000 0.000000 1.082084
    19 1.506964 0.000000 -0.000002 0.000000 0.000000 1.727834
    20 3.915633 -0.278020 -1.402612 0.304318 -0.057143 -0.007490
    21 1.333087 -0.000003 -0.000001 0.000000 0.000000 1.265345
    22 1.159205 0.000001 0.000001 0.000000 0.000000 1.527123
    23 13.333947 0.905789 19.735224 1.582244 -0.018583 -3.126154
  time 9
    0 0.135014 -5.181166 -24.816700 0.000000 0.000000 -1.570795
    1 0.000001 0.000000 0.000000 -0.000086 -1.570451 -1.570709
    2 4.443614 -0.009643 0.000006 -0.000004 -0.000001 0.000796
    3 12.111416 -0.011445 0.000000 0.000000 0.000000 0.000000
    4 0.000005 0.011450 -1.352403 -0.000014 1.370796 3.140783
    5 6.078087 -0.000001 0.000002 1.073876 -0.597116 -1.254709
    6 13.446750 -0.000001 0.000001 0.000000 0.000000 -0.501973
    7 15.997001 0.000001 0.000000 2.074060 -0.462694 -0.077055
    8 1.885328 0.833276 2.177873 1.264233 -0.638137 0.530090
    9 1.506963 -0.000002 -0.000001 0.000000 0.000000 -0.488689
    10 0.798352 -0.000001 0.000000 0.000000 0.000000 -0.986085
    11 3.950301 -0.539875 2.108870 -0.037808 0.038137 -0.197081
    12 1.545802 0.000000 -0.000004 0.000000 0.000000 1.396235
    13 1.667398 -0.000005 0.000006 0.000000 0.000000 1.466046
    14 3.899461 -0.475376 1.170885 -0.069014 0.069822 -0.026114
    15 1.528217 0.000000 -0.000002 0.000000 0.000000 1.047176
    16 1.528216 -0.000004 0.000003 0.000000 0.000000 1.815102
    17 3.899461 -0.431803 -0.168225 -0.003758 -0.034707 0.130944
    18 1.506967 -0.000002 -0.000005 0.000000 0.000000 1.082084
    19 1.506964 0.000000 -0.000002 0.000000 0.000000 1.727834
    20 3.915633 -0.278020 -1.402612 0.304318 -0.057143 -0.007490
    21 1.333087 -0.000003 -0.000001 0.000000 0.000000 1.265345
    22 1.159205 0.000001 0.000001 0.000000 0.000000 1.527123
    23 13.333947 0.905789 19.735224 1.582244 -0.018583 -3.126154
  time 10
    0 0.135014 -5.181166 -24.816700 0.000000 0.000000 -1.570795
    1 0.000001 0.000000 0.000000 -0.000086 -1.570451 -1.570709
    2 4.443614 -0.009643 0.000006 -0.000004 -0.000001 0.000796
    3 12.111416 -0.011445 0.000000 0.000000 0.000000 0.000000
    4 0.000005 0.011450 -1.352403 -0.000014 1.370796 3.140783
    5 6.078087 -0.000001 0.000002 0.975670 -0.498009 -1.249260
    6 13.446750 -0.000001 0.000001 0.000000 0.000000 -0.288483
    7 15.997001 0.000001 0.000000 1.986491 -0.632892 0.168746
    8 1.885328 0.833276 2.177873 1.264233 -0.638137 0.530090
    9 1.506963 -0.000002 -0.000001 0.000000 0.000000 -0.488689
    10 0.798352 -0.000001 0.000000 0.000000 0.000000 -0.986085
    11 3.950301 -0.539875 2.108870 -0.037808 0.038137 -0.197081
    12 1.545802 0.000000 -0.000004 0.000000 0.000000 1.396235
    13 1.667398 -0.000005 0.000006 0.000000 0.000000 1.466046
    14 3.899461 -0.475376 1.170885 -0.069014 0.069822 -0.026114
    15 1.528217 0.000000 -0.000002 0.000000 0.000000 1.047176
    16 1.528216 -0.000004 0.000003 0.000000 0.000000 1.815102
    17 3.899461 -0.431803 -0.168225 -0.003758 -0.034707 0.130944
    18 1.506967 -0.000002 -0.000005 0.000000 0.000000 1.082084
    19 1.506964 0.000000 -0.000002 0.000000 0.000000 1.727834
    20 3.915633 -0.278020 -1.402612 0.304318 -0.057143 -0.007490
    21 1.333087 -0.000003 -0.000001 0.000000 0.000000 1.265345
    22 1.159205 0.000001 0.000001 0.000000 0.000000 1.527123
    23 13.333947 0.905789 19.735224 1.582244 -0.018583 -3.126154
  time 11
    0 0.135014 -5.181166 -24.816700 0.000000 0.000000 -1.570795
    1 0.000001 0.000000 0.000000 -0.000086 -1.570451 -1.570709
    2 4.443614 -0.009643 0.000006 -0.000004 -0.000001 0.000796
    3 12.111416 -0.011445 0.000000 0.000000 0.000000 0.000000
    4 0.000005 0.011450 -1.352403 -0.000014 1.370796 3.140783
    5 6.078087 -0.000001 0.000002 0.975670 -0.498009 -1.249260
    6 13.446750 -0.000001 0.000001 0.000000 0.000000 -0.288483
    7 15.997001 0.000001 0.000000 2.087083 -0.558043 -0.010111
    8 1.885328 0.833276 2.177873 1.264233 -0.638137 0.530090
    9 1.506963 -0.000002 -0.000001 0.000000 0.000000 -0.488689
    10 0.798352 -0.000001 0.000000 0.000000 0.000000 -0.986085
    11 3.950301 -0.539875 2.108870 -0.037808 0.038137 -0.197081
    12 1.545802 0.000000 -0.000004 0.000000 0.000000 1.396235
    13 1.667398 -0.000005 0.000006 0.000000 0.000000 1.466046
    14 3.899461 -0.475376 1.170885 -0.069014 0.069822 -0.026114
    15 1.528217 0.000000 -0.000002 0.000000 0.000000 1.047176
    16 1.528216 -0.000004 0.000003 0.000000 0.000000 1.815102
    17 3.899461 -0.431803 -0.168225 -0.003758 -0.034707 0.130944
    18 1.506967 -0.000002 -0.000005 0.000000 0.000000 1.082084
    19 1.506964 0.000000 -0.000002 0.000000 0.000000 1.727876
    20 3.915633 -0.278020 -1.402612 0.304318 -0.057143 -0.007490
    21 1.333087 -0.000003 -0.000001 0.000000 0.000000 1.265345
    22 1.159205 0.000001 0.000001 0.000000 0.000000 1.527123
    23 13.333947 0.905789 19.735224 1.582244 -0.018583 -3.126154
  time 12
    0 0.135014 -5.181166 -24.816700 0.000000 0.000000 -1.570795
    1 0.000001 0.000000 0.000000 -0.000086 -1.570451 -1.570709
    2 4.443614 -0.009643 0.000006 -0.000004 -0.000001 0.000796
    3 12.111416 -0.011445 0.000000 0.000000 0.000000 0.000000
    4 0.000005 0.011450 -1.352403 -0.000014 1.370796 3.140783
    5 6.078087 -0.000001 0.000002 0.975670 -0.498009 -1.249260
    6 13.446750 -0.000001 0.000001 0.000000 0.000000 -0.323399
    7 15.997001 0.000001 0.000000 1.986491 -0.632892 0.168746
    8 1.885328 0.833276 2.177873 1.264233 -0.638137 0.530090
    9 1.506963 -0.000002 -0.000001 0.000000 0.000000 -0.488689
    10 0.798352 -0.000001 0.000000 0.000000 0.000000 -0.986085
    11 3.950301 -0.539875 2.108870 -0.037808 0.038137 -0.197081
    12 1.545802 0.000000 -0.000004 0.000000 0.000000 1.396235
    13 1.667398 -0.000005 0.000006 0.000000 0.000000 1.466046
    14 3.899461 -0.475376 1.170885 -0.069014 0.069822 -0.026114
    15 1.528217 0.000000 -0.000002 0.000000 0.000000 1.047176
    16 1.528216 -0.000004 0.000003 0.000000 0.000000 1.815102
    17 3.899461 -0.431803 -0.168225 -0.003758 -0.034707 0.130944
    18 1.506967 -0.000002 -0.000005 0.000000 0.000000 1.082084
    19 1.506964 0.000000 -0.000002 0.000000 0.000000 1.727834
    20 3.915633 -0.278020 -1.402612 0.304318 -0.057143 -0.007490
    21 1.333087 -0.000003 -0.000001 0.000000 0.000000 1.265345
    22 1.159205 0.000001 0.000001 0.000000 0.000000 1.527123
    23 13.333947 0.905789 19.735224 1.582244 -0.018583 -3.126154
  time 13
    0 0.135014 -5.181166 -24.816700 0.000000 0.000000 -1.570795
    1 0.000001 0.000000 0.000000 -0.000086 -1.570451 -1.570709
    2 4.443614 -0.009643 0.000006 -0.000004 -0.000001 0.000796
    3 12.111416 -0.011445 0.000000 0.000000 0.000000 0.000000
    4 0.000005 0.011450 -1.352403 -0.000014 1.370796 3.140783
    5 6.078087 -0.000001 0.000002 0.952611 -0.555197 -1.203386
    6 13.446750 -0.000001 0.000001 0.000000 0.000000 -0.403117
    7 15.997001 0.000001 0.000000 1.996712 -0.549311 0.075266
    8 1.885328 0.833276 2.177873 1.264233 -0.638137 0.530090
    9 1.506963 -0.000002 -0.000001 0.000000 0.000000 -0.488689
    10 0.798352 -0.000001 0.000000 0.000000 0.000000 -0.986085
    11 3.950301 -0.539875 2.108870 -0.037808 0.038137 -0.197081
    12 1.545802 0.000000 -0.000004 0.000000 0.000000 1.396235
    13 1.667398 -0.000005 0.000006 0.000000 0.000000 1.466046
    14 3.899461 -0.475376 1.170885 -0.069014 0.069822 -0.026114
    15 1.528217 0.000000 -0.000002 0.000000 0.000000 1.047176
    16 1.528216 -0.000004 0.000003 0.000000 0.000000 1.815102
    17 3.899461 -0.431803 -0.168225 -0.003758 -0.034707 0.130944
    18 1.506967 -0.000002 -0.000005 0.000000 0.000000 1.082084
    19 1.506964 0.000000 -0.000002 0.000000 0.000000 1.727834
    20 3.915633 -0.278020 -1.402612 0.304318 -0.057143 -0.007490
    21 1.333087 -0.000003 -0.000001 0.000000 0.000000 1.265345
    22 1.159205 0.000001 0.000001 0.000000 0.000000 1.527123
    23 13.333947 0.905789 19.735224 1.582244 -0.018583 -3.126154
  time 14
    0 0.135014 -5.181166 -24.816700 0.000000 0.000000 -1.570795
    1 0.000001 0.000000 0.000000 -0.000086 -1.570451 -1.570709
    2 4.443614 -0.009643 0.000006 -0.000004 -0.000001 0.000796
    3 12.111416 -0.011445 0.000000 0.000000 0.000000 0.000000
    4 0.000005 0.011450 -1.352403 -0.000014 1.370796 3.140783
    5 6.078087 -0.000001 0.000002 0.921162 -0.619420 -1.146674
    6 13.446750 -0.000001 0.000001 0.000000 0.000000 -0.489426
    7 15.997001 0.000001 0.000000 2.007064 -0.441746 -0.048912
    8 1.885328 0.833276 2.177873 1.264233 -0.638137 0.530090
    9 1.506963 -0.000002 -0.000001 0.000000 0.000000 -0.488689
    10 0.798352 -0.000001 0.000000 0.000000 0.000000 -0.986085
    11 3.950301 -0.539875 2.108870 -0.037808 0.038137 -0.197081
    12 1.545802 0.000000 -0.000004 0.000000 0.000000 1.396235
    13 1.667398 -0.000005 0.000006 0.000000 0.000000 1.466046
    14 3.899461 -0.475376 1.170885 -0.069014 0.069822 -0.026114
    15 1.528217 0.000000 -0.000002 0.000000 0.000000 1.047176
    16 1.528216 -0.000004 0.000003 0.000000 0.000000 1.815102
    17 3.899461 -0.431803 -0.168225 -0.003758 -0.034707 0.130944
    18 1.506967 -0.000002 -0.000005 0.000000 0.000000 1.082084
    19 1.506964 0.000000 -0.000002 0.000000 0.000000 1.727834
    20 3.915633 -0.278020 -1.402612 0.304318 -0.057143 -0.007490
    21 1.333087 -0.000003 -0.000001 0.000000 0.000000 1.265345
    22 1.159205 0.000001 0.000001 0.000000 0.000000 1.527123
    23 13.333947 0.905789 19.735224 1.582244 -0.018583 -3.126154
  time 15
    0 0.135014 -5.181166 -24.816700 0.000000 0.000000 -1.570795
    1 0.000001 0.000000 0.000000 -0.000086 -1.570451 -1.570709
    2 4.443614 -0.009643 0.000006 -0.000004 -0.000001 0.000796
    3 12.111416 -0.011445 0.000000 0.000000 0.000000 0.000000
    4 0.000005 0.011450 -1.352403 -0.000014 1.370796 3.140783
    5 6.078087 -0.000001 0.000002 0.881942 -0.684388 -1.082111
    6 13.446750 -0.000001 0.000001 0.000000 0.000000 -0.577635
    7 15.997001 0.000001 0.000000 2.008509 -0.326932 -0.177361
    8 1.885328 0.833276 2.177873 1.264233 -0.638137 0.530090
    9 1.506963 -0.000002 -0.000001 0.000000 0.000000 -0.488689
    10 0.798352 -0.000001 0.000000 0.000000 0.000000 -0.986085
    11 3.950301 -0.539875 2.108870 -0.037808 0.038137 -0.197081
    12 1.545802 0.000000 -0.000004 0.000000 0.000000 1.396235
    13 1.667398 -0.000005 0.000006 0.000000 0.000000 1.466046
    14 3.899461 -0.475376 1.170885 -0.069014 0.069822 -0.026114
    15 1.528217 0.000000 -0.000002 0.000000 0.000000 1.047176
    16 1.528216 -0.000004 0.000003 0.000000 0.000000 1.815102
    17 3.899461 -0.431803 -0.168225 -0.003758 -0.034707 0.130944
    18 1.506967 -0.000002 -0.000005 0.000000 0.000000 1.082084
    19 1.506964 0.000000 -0.000002 0.000000 0.000000 1.727834
    20 3.915633 -0.278020 -1.402612 0.304318 -0.057143 -0.007490
    21 1.333087 -0.000003 -0.000001 0.000000 0.000000 1.265345
    22 1.159205 0.000001 0.000001 0.000000 0.000000 1.527123
    23 13.333947 0.905789 19.735224 1.582244 -0.018583 -3.126154
  time 16
    0 0.135014 -5.181166 -24.816700 0.000000 0.000000 -1.570795
    1 0.000001 0.000000 0.000000 -0.000086 -1.570451 -1.570709
    2 4.443614 -0.009643 0.000006 -0.000004 -0.000001 0.000796
    3 12.111416 -0.011445 0.000000 0.000000 0.000000 0.000000
    4 0.000005 0.011450 -1.352403 -0.000014 1.370796 3.140783
    5 6.078087 -0.000001 0.000002 0.837317 -0.744100 -1.014032
    6 13.446750 -0.000001 0.000001 0.000000 0.000000 -0.662930
    7 15.997001 0.000001 0.000000 2.002271 -0.222615 -0.289092
    8 1.885328 0.833276 2.177873 1.264233 -0.638137 0.530090
    9 1.506963 -0.000002 -0.000001 0.000000 0.000000 -0.488689
    10 0.798352 -0.000001 0.000000 0.000000 0.000000 -0.986085
    11 3.950301 -0.539875 2.108870 -0.037808 0.038137 -0.197081
    12 1.545802 0.000000 -0.000004 0.000000 0.000000 1.396235
    13 1.667398 -0.000005 0.000006 0.000000 0.000000 1.466046
    14 3.899461 -0.475376 1.170885 -0.069014 0.069822 -0.026114
    15 1.528217 0.000000 -0.000002 0.000000 0.000000 1.047176
    16 1.528216 -0.000004 0.000003 0.000000 0.000000 1.815102
    17 3.899461 -0.431803 -0.168225 -0.003758 -0.034707 0.130944
    18 1.506967 -0.000002 -0.000005 0.000000 0.000000 1.082084
    19 1.506964 0.000000 -0.000002 0.000000 0.000000 1.727834
    20 3.915633 -0.278020 -1.402612 0.304318 -0.057143 -0.007490
    21 1.333087 -0.000003 -0.000001 0.000000 0.000000 1.265345
    22 1.159205 0.000001 0.000001 0.000000 0.000000 1.527123
    23 13.333947 0.905789 19.735224 1.582244 -0.018583 -3.126154
  time 17
    0 0.135014 -5.181166 -24.816700 0.000000 0.000000 -1.570795
    1 0.000001 0.000000 0.000000 -0.000086 -1.570451 -1.570709
    2 4.443614 -0.009643 0.000006 -0.000004 -0.000001 0.000796
    3 12.111416 -0.011445 0.000000 0.000000 0.000000 0.000000
    4 0.000005 0.011450 -1.352403 -0.000014 1.370796 3.140783
    5 6.078087 -0.000001 0.000002 0.796655 -0.789081 -0.955445
    6 13.446750 -0.000001 0.000001 0.000000 0.000000 -0.734727
    7 15.997001 0.000001 0.000000 2.043922 -0.161136 -0.344720
    8 1.885328 0.833276 2.177873 1.264233 -0.638137 0.530090
    9 1.506963 -0.000002 -0.000001 0.000000 0.000000 -0.488689
    10 0.798352 -0.000001 0.000000 0.000000 0.000000 -0.986085
    11 3.950301 -0.539875 2.108870 -0.037808 0.038137 -0.197081
    12 1.545802 0.000000 -0.000004 0.000000 0.000000 1.396235
    13 1.667398 -0.000005 0.000006 0.000000 0.000000 1.466046
    14 3.899461 -0.475376 1.170885 -0.069014 0.069822 -0.026114
    15 1.528217 0.000000 -0.000002 0.000000 0.000000 1.047176
    16 1.528216 -0.000004 0.000003 0.000000 0.000000 1.815102
    17 3.899461 -0.431803 -0.168225 -0.003758 -0.034707 0.130944
    18 1.506967 -0.000002 -0.000005 0.000000 0.000000 1.082104
    19 1.506964 0.000000 -0.000002 0.000000 0.000000 1.727834
    20 3.915633 -0.278020 -1.402612 0.304318 -0.057143 -0.007490
    21 1.333087 -0.000003 -0.000001 0.000000 0.000000 1.265345
    22 1.159205 0.000001 0.000001 0.000000 0.000000 1.527123
    23 13.333947 0.905789 19.735224 1.582244 -0.018583 -3.126154
  time 18
    0 0.135014 -5.181166 -24.816700 0.000000 0.000000 -1.570795
    1 0.000001 0.000000 0.000000 -0.000086 -1.570451 -1.570709
    2 4.443614 -0.009643 0.000006 -0.000004 -0.000001 0.000796
    3 12.111416 -0.011445 0.000000 0.000000 0.000000 0.000000
    4 0.000005 0.011450 -1.352403 -0.000014 1.370796 3.140783
    5 6.078087 -0.000001 0.000002 0.756148 -0.827069 -0.899436
    6 13.446750 -0.000001 0.000001 0.000000 0.000000 -0.800440
    7 15.997001 0.000001 0.000000 1.986972 -0.152639 -0.296611
    8 1.885328 0.833276 2.177873 1.264233 -0.638137 0.530090
    9 1.506963 -0.000002 -0.000001 0.000000 0.000000 -0.488689
    10 0.798352 -0.000001 0.000000 0.000000 0.000000 -0.986085
    11 3.950301 -0.539875 2.108870 -0.037808 0.038137 -0.197081
    12 1.545802 0.000000 -0.000004 0.000000 0.000000 1.396235
    13 1.667398 -0.000005 0.000006 0.000000 0.000000 1.466046
    14 3.899461 -0.475376 1.170885 -0.069014 0.069822 -0.026114
    15 1.528217 0.000000 -0.000002 0.000000 0.000000 1.047176
    16 1.528216 -0.000004 0.000003 0.000000 0.000000 1.815102
    17 3.899461 -0.431803 -0.168225 -0.003758 -0.034707 0.130944
    18 1.506967 -0.000002 -0.000005 0.000000 0.000000 1.082084
    19 1.506964 0.000000 -0.000002 0.000000 0.000000 1.727834
    20 3.915633 -0.278020 -1.402612 0.304318 -0.057143 -0.007490
    21 1.333087 -0.000003 -0.000001 0.000000 0.000000 1.265345
    22 1.159205 0.000001 0.000001 0.000000 0.000000 1.527123
    23 13.333947 0.905789 19.735224 1.582244 -0.018583 -3.126154
  time 19
    0 0.135014 -5.181166 -24.816700 0.000000 0.000000 -1.570795
    1 0.000001 0.000000 0.000000 -0.000086 -1.570451 -1.570709
    2 4.443614 -0.009643 0.000006 -0.000004 -0.000001 0.000796
    3 12.111416 -0.011445 0.000000 0.000000 0.000000 0.000000
    4 0.000005 0.011450 -1.352403 -0.000014 1.370796 3.140783
    5 6.078087 -0.000001 0.000002 0.711986 -0.862449 -0.840380
    6 13.446750 -0.000001 0.000001 0.000000 0.000000 -0.865013
    7 15.997001 0.000001 0.000000 1.912032 -0.149767 -0.229448
    8 1.885328 0.833276 2.177873 1.264233 -0.638137 0.530090
    9 1.506963 -0.000002 -0.000001 0.000000 0.000000 -0.488689
    10 0.798352 -0.000001 0.000000 0.000000 0.000000 -0.986085
    11 3.950301 -0.539875 2.108870 -0.037808 0.038137 -0.197081
    12 1.545802 0.000000 -0.000004 0.000000 0.000000 1.396235
    13 1.667398 -0.000005 0.000006 0.000000 0.000000 1.466046
    14 3.899461 -0.475376 1.170885 -0.069014 0.069822 -0.026114
    15 1.528217 0.000000 -0.000002 0.000000 0.000000 1.047176
    16 1.528216 -0.000004 0.000003 0.000000 0.000000 1.815102
    17 3.899461 -0.431803 -0.168225 -0.003758 -0.034707 0.130944
    18 1.506967 -0.000002 -0.000005 0.000000 0.000000 1.082084
    19 1.506964 0.000000 -0.000002 0.000000 0.000000 1.727834
    20 3.915633 -0.278020 -1.402612 0.304318 -0.057143 -0.007490
    21 1.333087 -0.000003 -0.000001 0.000000 0.000000 1.265345
    22 1.159205 0.000001 0.000001 0.000000 0.000000 1.527123
    23 13.333947 0.905789 19.735224 1.582244 -0.018583 -3.126154
  time 20
    0 0.135014 -5.181166 -24.816700 0.000000 0.000000 -1.570795
    1 0.000001 0.000000 0.000000 -0.000086 -1.570451 -1.570709
    2 4.443614 -0.009643 0.000006 -0.000004 -0.000001 0.000796
    3 12.111416 -0.011445 0.000000 0.000000 0.000000 0.000000
    4 0.000005 0.011450 -1.352403 -0.000014 1.370796 3.140783
    5 6.078087 -0.000001 0.000002 0.662677 -0.895968 -0.776403
    6 13.446750 -0.000001 0.000001 0.000000 0.000000 -0.929649
    7 15.997001 0.000001 0.000000 1.837507 -0.141929 -0.162724
    8 1.885328 0.833276 2.177873 1.264233 -0.638137 0.530090
    9 1.506963 -0.000002 -0.000001 0.000000 0.000000 -0.488689
    10 0.798352 -0.000001 0.000000 0.000000 0.000000 -0.986085
    11 3.950301 -0.539875 2.108870 -0.037808 0.038137 -0.197081
    12 1.545802 0.000000 -0.000004 0.000000 0.000000 1.396235
    13 1.667398 -0.000005 0.000006 0.000000 0.000000 1.466046
    14 3.899461 -0.475376 1.170885 -0.069014 0.069822 -0.026114
    15 1.528217 0.000000 -0.000002 0.000000 0.000000 1.047176
    16 1.528216 -0.000004 0.000003 0.000000 0.000000 1.815102
    17 3.899461 -0.431803 -0.168225 -0.003758 -0.034707 0.130944
    18 1.506967 -0.000002 -0.000005 0.000000 0.000000 1.082084
    19 1.506964 0.000000 -0.000002 0.000000 0.000000 1.727834
    20 3.915633 -0.278020 -1.402612 0.304318 -0.057143 -0.007490
    21 1.333087 -0.000003 -0.000001 0.000000 0.000000 1.265345
    22 1.159205 0.000001 0.000001 0.000000 0.000000 1.527123
    23 13.333947 0.905789 19.735224 1.582244 -0.018583 -3.126154
end
