// Created by Crowbar 0.74
version 1
nodes
  0 "Bip01" -1
  1 "Bip01 Pelvis" 0
  2 "Bip01 Spine" 1
  3 "Bip01 Neck" 2
  4 "Bip01 R Clavicle" 3
  5 "Bip01 R UpperArm" 4
  6 "Bip01 R Forearm" 5
  7 "Bip01 R Hand" 6
  8 "Bip01 R Finger0" 7
  9 "Bip01 R Finger01" 8
  10 "Bip01 R Finger02" 9
  11 "Bip01 R Finger1" 7
  12 "Bip01 R Finger11" 11
  13 "Bip01 R Finger12" 12
  14 "Bip01 R Finger2" 7
  15 "Bip01 R Finger21" 14
  16 "Bip01 R Finger22" 15
  17 "Bip01 R Finger3" 7
  18 "Bip01 R Finger31" 17
  19 "Bip01 R Finger32" 18
  20 "Bip01 R Finger4" 7
  21 "Bip01 R Finger41" 20
  22 "Bip01 R Finger42" 21
  23 "tip" 7
end
skeleton
  time 0
    0 0.135014 -5.181166 -24.816700 0.000000 0.000000 -1.570795
    1 0.000001 0.000000 0.000000 -0.000086 -1.570451 -1.570709
    2 4.443614 -0.009643 0.000006 -0.000004 -0.000001 0.000796
    3 12.111416 -0.011445 0.000000 0.000000 0.000000 0.000000
    4 0.000005 0.011450 -1.352403 -0.000014 1.370796 3.140783
    5 6.078087 0.000000 0.000002 0.588765 -1.071339 -0.594138
    6 13.446746 -0.000001 0.000000 0.000000 0.000000 -1.396044
    7 15.996999 -0.000002 -0.000001 1.767688 -0.141929 -0.162724
    8 1.885329 0.833276 2.177871 1.264233 -0.638137 0.530090
    9 1.506961 0.000001 -0.000004 0.000000 0.000000 -0.488689
    10 0.798354 0.000000 -0.000001 0.000000 0.000000 -0.986085
    11 3.950304 -0.539877 2.108871 -0.037808 0.038137 -0.197081
    12 1.545792 0.000000 -0.000003 0.000000 0.000000 1.396235
    13 1.667399 -0.000001 0.000000 0.000000 0.000000 1.466046
    14 3.899458 -0.475377 1.170885 -0.069014 0.069822 -0.026114
    15 1.528216 0.000000 -0.000001 0.000000 0.000000 1.047176
    16 1.528216 0.000000 -0.000001 0.000000 0.000000 1.815102
    17 3.899460 -0.431805 -0.168225 -0.003758 -0.034707 0.130944
    18 1.506963 0.000001 -0.000005 0.000000 0.000000 1.082084
    19 1.506962 0.000000 0.000004 0.000000 0.000000 1.727834
    20 3.915633 -0.278020 -1.402612 0.304318 -0.057143 -0.007490
    21 1.333082 0.000000 0.000000 0.000000 0.000000 1.265345
    22 1.159203 0.000002 -0.000002 0.000000 0.000000 1.527123
    23 13.333941 0.905787 19.735216 1.582244 -0.018583 -3.126154
  time 1
    0 0.135014 -5.181166 -24.816700 0.000000 0.000000 -1.570795
    1 0.000001 0.000000 0.000000 -0.000086 -1.570451 -1.570709
    2 4.443614 -0.009643 0.000006 -0.000004 -0.000001 0.000796
    3 12.111416 -0.011445 0.000000 0.000000 0.000000 0.000000
    4 0.000005 0.011450 -1.352403 -0.000014 1.370796 3.140783
    5 6.078087 0.000000 0.000002 0.624795 -0.939583 -0.778278
    6 13.446746 -0.000001 0.000000 0.000000 0.000000 -1.341420
    7 15.996999 -0.000002 -0.000001 1.709645 -0.089700 -0.140969
    8 1.885329 0.833276 2.177871 1.264233 -0.638137 0.530090
    9 1.506961 0.000001 -0.000004 0.000000 0.000000 -0.488689
    10 0.798354 0.000000 -0.000001 0.000000 0.000000 -0.986085
    11 3.950304 -0.539877 2.108871 -0.037808 0.038137 -0.197081
    12 1.545792 0.000000 -0.000003 0.000000 0.000000 1.396235
    13 1.667399 -0.000001 0.000000 0.000000 0.000000 1.466046
    14 3.899458 -0.475377 1.170885 -0.069014 0.069822 -0.026114
    15 1.528216 0.000000 -0.000001 0.000000 0.000000 1.047176
    16 1.528216 0.000000 -0.000001 0.000000 0.000000 1.815102
    17 3.899460 -0.431805 -0.168225 -0.003758 -0.034707 0.130944
    18 1.506963 0.000001 -0.000005 0.000000 0.000000 1.082084
    19 1.506962 0.000000 0.000004 0.000000 0.000000 1.727834
    20 3.915633 -0.278020 -1.402612 0.304318 -0.057143 -0.007490
    21 1.333082 0.000000 0.000000 0.000000 0.000000 1.265345
    22 1.159203 0.000002 -0.000002 0.000000 0.000000 1.527123
    23 13.333941 0.905787 19.735216 1.582244 -0.018583 -3.126154
  time 2
    0 0.135014 -5.181166 -24.816700 0.000000 0.000000 -1.570795
    1 0.000001 0.000000 0.000000 -0.000086 -1.570451 -1.570709
    2 4.443614 -0.009643 0.000006 -0.000004 -0.000001 0.000796
    3 12.111416 -0.011445 0.000000 0.000000 0.000000 0.000000
    4 0.000005 0.011450 -1.352403 -0.000014 1.370796 3.140783
    5 6.078087 0.000000 0.000002 0.617795 -0.801413 -0.933358
    6 13.446746 -0.000001 0.000000 0.000000 0.000000 -1.289394
    7 15.996999 -0.000002 -0.000001 1.653746 -0.033823 -0.111585
    8 1.885329 0.833276 2.177871 1.264233 -0.638137 0.530090
    9 1.506961 0.000001 -0.000004 0.000000 0.000000 -0.488689
    10 0.798354 0.000000 -0.000001 0.000000 0.000000 -0.986085
    11 3.950304 -0.539877 2.108871 -0.037808 0.038137 -0.197081
    12 1.545792 0.000000 -0.000003 0.000000 0.000000 1.396235
    13 1.667399 -0.000001 0.000000 0.000000 0.000000 1.466046
    14 3.899458 -0.475377 1.170885 -0.069014 0.069822 -0.026114
    15 1.528216 0.000000 -0.000001 0.000000 0.000000 1.047176
    16 1.528216 0.000000 -0.000001 0.000000 0.000000 1.815102
    17 3.899460 -0.431805 -0.168225 -0.003758 -0.034707 0.130944
    18 1.506963 0.000001 -0.000005 0.000000 0.000000 1.082084
    19 1.506962 0.000000 0.000004 0.000000 0.000000 1.727834
    20 3.915633 -0.278020 -1.402612 0.304318 -0.057143 -0.007490
    21 1.333082 0.000000 0.000000 0.000000 0.000000 1.265345
    22 1.159203 0.000002 -0.000002 0.000000 0.000000 1.527123
    23 13.333941 0.905787 19.735216 1.582244 -0.018583 -3.126154
  time 3
    0 0.135014 -5.181166 -24.816700 0.000000 0.000000 -1.570795
    1 0.000001 0.000000 0.000000 -0.000086 -1.570451 -1.570709
    2 4.443614 -0.009643 0.000006 -0.000004 -0.000001 0.000796
    3 12.111416 -0.011445 0.000000 0.000000 0.000000 0.000000
    4 0.000005 0.011450 -1.352403 -0.000014 1.370796 3.140783
    5 6.078087 0.000000 0.000002 0.586243 -0.667794 -1.069222
    6 13.446746 -0.000001 0.000000 0.000000 0.000000 -1.236038
    7 15.996999 -0.000002 -0.000001 1.598919 0.022196 -0.090706
    8 1.885329 0.833276 2.177871 1.264233 -0.638137 0.530090
    9 1.506961 0.000001 -0.000004 0.000000 0.000000 -0.488689
    10 0.798354 0.000000 -0.000001 0.000000 0.000000 -0.986085
    11 3.950304 -0.539877 2.108871 -0.037808 0.038137 -0.197081
    12 1.545792 0.000000 -0.000003 0.000000 0.000000 1.396235
    13 1.667399 -0.000001 0.000000 0.000000 0.000000 1.466046
    14 3.899458 -0.475377 1.170885 -0.069014 0.069822 -0.026114
    15 1.528216 0.000000 -0.000001 0.000000 0.000000 1.047176
    16 1.528216 0.000000 -0.000001 0.000000 0.000000 1.815102
    17 3.899460 -0.431805 -0.168225 -0.003758 -0.034707 0.130944
    18 1.506963 0.000001 -0.000005 0.000000 0.000000 1.082084
    19 1.506962 0.000000 0.000004 0.000000 0.000000 1.727834
    20 3.915633 -0.278020 -1.402612 0.304318 -0.057143 -0.007490
    21 1.333082 0.000000 0.000000 0.000000 0.000000 1.265345
    22 1.159203 0.000002 -0.000002 0.000000 0.000000 1.527123
    23 13.333941 0.905787 19.735216 1.582244 -0.018583 -3.126154
  time 4
    0 0.135014 -5.181166 -24.816700 0.000000 0.000000 -1.570795
    1 0.000001 0.000000 0.000000 -0.000086 -1.570451 -1.570709
    2 4.443614 -0.009643 0.000006 -0.000004 -0.000001 0.000796
    3 12.111416 -0.011445 0.000000 0.000000 0.000000 0.000000
    4 0.000005 0.011450 -1.352403 -0.000014 1.370796 3.140783
    5 6.078087 0.000000 0.000002 0.543831 -0.547624 -1.188915
    6 13.446746 -0.000001 0.000000 0.000000 0.000000 -1.177548
    7 15.996999 -0.000002 -0.000001 1.542254 0.073201 -0.094283
    8 1.885329 0.833276 2.177871 1.264233 -0.638137 0.530090
    9 1.506961 0.000001 -0.000004 0.000000 0.000000 -0.488689
    10 0.798354 0.000000 -0.000001 0.000000 0.000000 -0.986085
    11 3.950304 -0.539877 2.108871 -0.037808 0.038137 -0.197081
    12 1.545792 0.000000 -0.000003 0.000000 0.000000 1.396235
    13 1.667399 -0.000001 0.000000 0.000000 0.000000 1.466046
    14 3.899458 -0.475377 1.170885 -0.069014 0.069822 -0.026114
    15 1.528216 0.000000 -0.000001 0.000000 0.000000 1.047176
    16 1.528216 0.000000 -0.000001 0.000000 0.000000 1.815102
    17 3.899460 -0.431805 -0.168225 -0.003758 -0.034707 0.130944
    18 1.506963 0.000001 -0.000005 0.000000 0.000000 1.082084
    19 1.506962 0.000000 0.000004 0.000000 0.000000 1.727834
    20 3.915633 -0.278020 -1.402612 0.304318 -0.057143 -0.007490
    21 1.333082 0.000000 0.000000 0.000000 0.000000 1.265345
    22 1.159203 0.000002 -0.000002 0.000000 0.000000 1.527123
    23 13.333941 0.905787 19.735216 1.582244 -0.018583 -3.126154
  time 5
    0 0.135014 -5.181166 -24.816700 0.000000 0.000000 -1.570795
    1 0.000001 0.000000 0.000000 -0.000086 -1.570451 -1.570709
    2 4.443614 -0.009643 0.000006 -0.000004 -0.000001 0.000796
    3 12.111416 -0.011445 0.000000 0.000000 0.000000 0.000000
    4 0.000005 0.011450 -1.352403 -0.000014 1.370796 3.140783
    5 6.078087 0.000000 0.000002 0.502295 -0.447690 -1.290388
    6 13.446746 -0.000001 0.000000 0.000000 0.000000 -1.109997
    7 15.996999 -0.000002 -0.000001 1.479614 0.112037 -0.137757
    8 1.885329 0.833276 2.177871 1.264233 -0.638137 0.530090
    9 1.506961 0.000001 -0.000004 0.000000 0.000000 -0.488689
    10 0.798354 0.000000 -0.000001 0.000000 0.000000 -0.986085
    11 3.950304 -0.539877 2.108871 -0.037808 0.038137 -0.197081
    12 1.545792 0.000000 -0.000003 0.000000 0.000000 1.396235
    13 1.667399 -0.000001 0.000000 0.000000 0.000000 1.466046
    14 3.899458 -0.475377 1.170885 -0.069014 0.069822 -0.026114
    15 1.528216 0.000000 -0.000001 0.000000 0.000000 1.047176
    16 1.528216 0.000000 -0.000001 0.000000 0.000000 1.815102
    17 3.899460 -0.431805 -0.168225 -0.003758 -0.034707 0.130944
    18 1.506963 0.000001 -0.000005 0.000000 0.000000 1.082104
    19 1.506962 0.000000 0.000004 0.000000 0.000000 1.727834
    20 3.915633 -0.278020 -1.402612 0.304318 -0.057143 -0.007490
    21 1.333082 0.000000 0.000000 0.000000 0.000000 1.265345
    22 1.159203 0.000002 -0.000002 0.000000 0.000000 1.527123
    23 13.333941 0.905787 19.735216 1.582244 -0.018583 -3.126154
  time 6
    0 0.135014 -5.181166 -24.816700 0.000000 0.000000 -1.570795
    1 0.000001 0.000000 0.000000 -0.000086 -1.570451 -1.570709
    2 4.443614 -0.009643 0.000006 -0.000004 -0.000001 0.000796
    3 12.111416 -0.011445 0.000000 0.000000 0.000000 0.000000
    4 0.000005 0.011450 -1.352403 -0.000014 1.370796 3.140783
    5 6.078087 0.000000 0.000002 0.501008 -0.396129 -1.335559
    6 13.446746 -0.000001 0.000000 0.000000 0.000000 -0.985097
    7 15.996999 -0.000002 -0.000001 1.400362 0.094996 -0.408196
    8 1.885329 0.833276 2.177871 1.264233 -0.638137 0.530090
    9 1.506961 0.000001 -0.000004 0.000000 0.000000 -0.488689
    10 0.798354 0.000000 -0.000001 0.000000 0.000000 -0.986085
    11 3.950304 -0.539877 2.108871 -0.037808 0.038137 -0.197081
    12 1.545792 0.000000 -0.000003 0.000000 0.000000 1.396235
    13 1.667399 -0.000001 0.000000 0.000000 0.000000 1.466046
    14 3.899458 -0.475377 1.170885 -0.069014 0.069822 -0.026114
    15 1.528216 0.000000 -0.000001 0.000000 0.000000 1.047176
    16 1.528216 0.000000 -0.000001 0.000000 0.000000 1.815102
    17 3.899460 -0.431805 -0.168225 -0.003758 -0.034707 0.130944
    18 1.506963 0.000001 -0.000005 0.000000 0.000000 1.082104
    19 1.506962 0.000000 0.000004 0.000000 0.000000 1.727834
    20 3.915633 -0.278020 -1.402612 0.304318 -0.057143 -0.007490
    21 1.333082 0.000000 0.000000 0.000000 0.000000 1.265345
    22 1.159203 0.000002 -0.000002 0.000000 0.000000 1.527123
    23 13.333941 0.905787 19.735216 1.582244 -0.018583 -3.126154
  time 7
    0 0.135014 -5.181166 -24.816700 0.000000 0.000000 -1.570795
    1 0.000001 0.000000 0.000000 -0.000086 -1.570451 -1.570709
    2 4.443614 -0.009643 0.000006 -0.000004 -0.000001 0.000796
    3 12.111416 -0.011445 0.000000 0.000000 0.000000 0.000000
    4 0.000005 0.011450 -1.352403 -0.000014 1.370796 3.140783
    5 6.078087 0.000000 0.000002 0.548618 -0.407675 -1.324544
    6 13.446746 -0.000001 0.000000 0.000000 0.000000 -0.882123
    7 15.996999 -0.000002 -0.000001 1.316536 0.024949 -0.597420
    8 1.885329 0.833276 2.177871 1.264233 -0.638137 0.530090
    9 1.506961 0.000001 -0.000004 0.000000 0.000000 -0.488689
    10 0.798354 0.000000 -0.000001 0.000000 0.000000 -0.986085
    11 3.950304 -0.539877 2.108871 -0.037808 0.038137 -0.197081
    12 1.545792 0.000000 -0.000003 0.000000 0.000000 1.396235
    13 1.667399 -0.000001 0.000000 0.000000 0.000000 1.466046
    14 3.899458 -0.475377 1.170885 -0.069014 0.069822 -0.026114
    15 1.528216 0.000000 -0.000001 0.000000 0.000000 1.047176
    16 1.528216 0.000000 -0.000001 0.000000 0.000000 1.815102
    17 3.899460 -0.431805 -0.168225 -0.003758 -0.034707 0.130944
    18 1.506963 0.000001 -0.000005 0.000000 0.000000 1.082084
    19 1.506962 0.000000 0.000004 0.000000 0.000000 1.727834
    20 3.915633 -0.278020 -1.402612 0.304318 -0.057143 -0.007490
    21 1.333082 0.000000 0.000000 0.000000 0.000000 1.265345
    22 1.159203 0.000002 -0.000002 0.000000 0.000000 1.527123
    23 13.333941 0.905787 19.735216 1.582244 -0.018583 -3.126154
  time 8
    0 0.135014 -5.181166 -24.816700 0.000000 0.000000 -1.570795
    1 0.000001 0.000000 0.000000 -0.000086 -1.570451 -1.570709
    2 4.443614 -0.009643 0.000006 -0.000004 -0.000001 0.000796
    3 12.111416 -0.011445 0.000000 0.000000 0.000000 0.000000
    4 0.000005 0.011450 -1.352403 -0.000014 1.370796 3.140783
    5 6.078087 0.000000 0.000002 0.620934 -0.469622 -1.292263
    6 13.446746 -0.000001 0.000000 0.000000 0.000000 -0.882566
    7 15.996999 -0.000002 -0.000001 1.200141 -0.039637 -0.368410
    8 1.885329 0.833276 2.177871 1.264233 -0.638137 0.530090
    9 1.506961 0.000001 -0.000004 0.000000 0.000000 -0.488689
    10 0.798354 0.000000 -0.000001 0.000000 0.000000 -0.986085
    11 3.950304 -0.539877 2.108871 -0.037808 0.038137 -0.197081
    12 1.545792 0.000000 -0.000003 0.000000 0.000000 1.396235
    13 1.667399 -0.000001 0.000000 0.000000 0.000000 1.466046
    14 3.899458 -0.475377 1.170885 -0.069014 0.069822 -0.026114
    15 1.528216 0.000000 -0.000001 0.000000 0.000000 1.047176
    16 1.528216 0.000000 -0.000001 0.000000 0.000000 1.815102
    17 3.899460 -0.431805 -0.168225 -0.003758 -0.034707 0.130944
    18 1.506963 0.000001 -0.000005 0.000000 0.000000 1.082104
    19 1.506962 0.000000 0.000004 0.000000 0.000000 1.727834
    20 3.915633 -0.278020 -1.402612 0.304318 -0.057143 -0.007490
    21 1.333082 0.000000 0.000000 0.000000 0.000000 1.265345
    22 1.159203 0.000002 -0.000002 0.000000 0.000000 1.527123
    23 13.333941 0.905787 19.735216 1.582244 -0.018583 -3.126154
  time 9
    0 0.135014 -5.181166 -24.816700 0.000000 0.000000 -1.570795
    1 0.000001 0.000000 0.000000 -0.000086 -1.570451 -1.570709
    2 4.443614 -0.009643 0.000006 -0.000004 -0.000001 0.000796
    3 12.111416 -0.011445 0.000000 0.000000 0.000000 0.000000
    4 0.000005 0.011450 -1.352403 -0.000014 1.370796 3.140783
    5 6.078087 0.000000 0.000002 0.708846 -0.561528 -1.250080
    6 13.446746 -0.000001 0.000000 0.000000 0.000000 -0.920524
    7 15.996999 -0.000002 -0.000001 1.059256 -0.050699 0.006169
    8 1.885329 0.833276 2.177871 1.264233 -0.638137 0.530090
    9 1.506961 0.000001 -0.000004 0.000000 0.000000 -0.488689
    10 0.798354 0.000000 -0.000001 0.000000 0.000000 -0.986085
    11 3.950304 -0.539877 2.108871 -0.037808 0.038137 -0.197081
    12 1.545792 0.000000 -0.000003 0.000000 0.000000 1.396235
    13 1.667399 -0.000001 0.000000 0.000000 0.000000 1.466046
    14 3.899458 -0.475377 1.170885 -0.069014 0.069822 -0.026114
    15 1.528216 0.000000 -0.000001 0.000000 0.000000 1.047176
    16 1.528216 0.000000 -0.000001 0.000000 0.000000 1.815102
    17 3.899460 -0.431805 -0.168225 -0.003758 -0.034707 0.130944
    18 1.506963 0.000001 -0.000005 0.000000 0.000000 1.082104
    19 1.506962 0.000000 0.000004 0.000000 0.000000 1.727834
    20 3.915633 -0.278020 -1.402612 0.304318 -0.057143 -0.007490
    21 1.333082 0.000000 0.000000 0.000000 0.000000 1.265345
    22 1.159203 0.000002 -0.000002 0.000000 0.000000 1.527123
    23 13.333941 0.905787 19.735216 1.582244 -0.018583 -3.126154
  time 10
    0 0.135014 -5.181166 -24.816700 0.000000 0.000000 -1.570795
    1 0.000001 0.000000 0.000000 -0.000086 -1.570451 -1.570709
    2 4.443614 -0.009643 0.000006 -0.000004 -0.000001 0.000796
    3 12.111416 -0.011445 0.000000 0.000000 0.000000 0.000000
    4 0.000005 0.011450 -1.352403 -0.000014 1.370796 3.140783
    5 6.078087 0.000000 0.000002 0.797221 -0.657325 -1.214811
    6 13.446746 -0.000001 0.000000 0.000000 0.000000 -0.962094
    7 15.996999 -0.000002 -0.000001 0.966259 0.035941 0.309022
    8 1.885329 0.833276 2.177871 1.264233 -0.638137 0.530090
    9 1.506961 0.000001 -0.000004 0.000000 0.000000 -0.488689
    10 0.798354 0.000000 -0.000001 0.000000 0.000000 -0.986085
    11 3.950304 -0.539877 2.108871 -0.037808 0.038137 -0.197081
    12 1.545792 0.000000 -0.000003 0.000000 0.000000 1.396235
    13 1.667399 -0.000001 0.000000 0.000000 0.000000 1.466046
    14 3.899458 -0.475377 1.170885 -0.069014 0.069822 -0.026114
    15 1.528216 0.000000 -0.000001 0.000000 0.000000 1.047176
    16 1.528216 0.000000 -0.000001 0.000000 0.000000 1.815102
    17 3.899460 -0.431805 -0.168225 -0.003758 -0.034707 0.130944
    18 1.506963 0.000001 -0.000005 0.000000 0.000000 1.082084
    19 1.506962 0.000000 0.000004 0.000000 0.000000 1.727834
    20 3.915633 -0.278020 -1.402612 0.304318 -0.057143 -0.007490
    21 1.333082 0.000000 0.000000 0.000000 0.000000 1.265345
    22 1.159203 0.000002 -0.000002 0.000000 0.000000 1.527123
    23 13.333941 0.905787 19.735216 1.582244 -0.018583 -3.126154
  time 11
    0 0.135014 -5.181166 -24.816700 0.000000 0.000000 -1.570795
    1 0.000001 0.000000 0.000000 -0.000086 -1.570451 -1.570709
    2 4.443614 -0.009643 0.000006 -0.000004 -0.000001 0.000796
    3 12.111416 -0.011445 0.000000 0.000000 0.000000 0.000000
    4 0.000005 0.011450 -1.352403 -0.000014 1.370796 3.140783
    5 6.078087 0.000000 0.000002 0.893986 -0.755687 -1.187802
    6 13.446746 -0.000001 0.000000 0.000000 0.000000 -1.003537
    7 15.996999 -0.000002 -0.000001 1.004058 0.270442 0.405349
    8 1.885329 0.833276 2.177871 1.264233 -0.638137 0.530090
    9 1.506961 0.000001 -0.000004 0.000000 0.000000 -0.488689
    10 0.798354 0.000000 -0.000001 0.000000 0.000000 -0.986085
    11 3.950304 -0.539877 2.108871 -0.037808 0.038137 -0.197081
    12 1.545792 0.000000 -0.000003 0.000000 0.000000 1.396235
    13 1.667399 -0.000001 0.000000 0.000000 0.000000 1.466046
    14 3.899458 -0.475377 1.170885 -0.069014 0.069822 -0.026114
    15 1.528216 0.000000 -0.000001 0.000000 0.000000 1.047176
    16 1.528216 0.000000 -0.000001 0.000000 0.000000 1.815102
    17 3.899460 -0.431805 -0.168225 -0.003758 -0.034707 0.130944
    18 1.506963 0.000001 -0.000005 0.000000 0.000000 1.082084
    19 1.506962 0.000000 0.000004 0.000000 0.000000 1.727834
    20 3.915633 -0.278020 -1.402612 0.304318 -0.057143 -0.007490
    21 1.333082 0.000000 0.000000 0.000000 0.000000 1.265345
    22 1.159203 0.000002 -0.000002 0.000000 0.000000 1.527123
    23 13.333941 0.905787 19.735216 1.582244 -0.018583 -3.126154
  time 12
    0 0.135014 -5.181166 -24.816700 0.000000 0.000000 -1.570795
    1 0.000001 0.000000 0.000000 -0.000086 -1.570451 -1.570709
    2 4.443614 -0.009643 0.000006 -0.000004 -0.000001 0.000796
    3 12.111416 -0.011445 0.000000 0.000000 0.000000 0.000000
    4 0.000005 0.011450 -1.352403 -0.000014 1.370796 3.140783
    5 6.078087 0.000000 0.000002 0.970728 -0.841221 -1.173214
    6 13.446746 -0.000001 0.000000 0.000000 0.000000 -1.042319
    7 15.996999 -0.000002 -0.000001 1.081712 0.489997 0.420497
    8 1.885329 0.833276 2.177871 1.264233 -0.638137 0.530090
    9 1.506961 0.000001 -0.000004 0.000000 0.000000 -0.488689
    10 0.798354 0.000000 -0.000001 0.000000 0.000000 -0.986085
    11 3.950304 -0.539877 2.108871 -0.037808 0.038137 -0.197081
    12 1.545792 0.000000 -0.000003 0.000000 0.000000 1.396235
    13 1.667399 -0.000001 0.000000 0.000000 0.000000 1.466046
    14 3.899458 -0.475377 1.170885 -0.069014 0.069822 -0.026114
    15 1.528216 0.000000 -0.000001 0.000000 0.000000 1.047176
    16 1.528216 0.000000 -0.000001 0.000000 0.000000 1.815102
    17 3.899460 -0.431805 -0.168225 -0.003758 -0.034707 0.130944
    18 1.506963 0.000001 -0.000005 0.000000 0.000000 1.082084
    19 1.506962 0.000000 0.000004 0.000000 0.000000 1.727834
    20 3.915633 -0.278020 -1.402612 0.304318 -0.057143 -0.007490
    21 1.333082 0.000000 0.000000 0.000000 0.000000 1.265345
    22 1.159203 0.000002 -0.000002 0.000000 0.000000 1.527123
    23 13.333941 0.905787 19.735216 1.582244 -0.018583 -3.126154
  time 13
    0 0.135014 -5.181166 -24.816700 0.000000 0.000000 -1.570795
    1 0.000001 0.000000 0.000000 -0.000086 -1.570451 -1.570709
    2 4.443614 -0.009643 0.000006 -0.000004 -0.000001 0.000796
    3 12.111416 -0.011445 0.000000 0.000000 0.000000 0.000000
    4 0.000005 0.011450 -1.352403 -0.000014 1.370796 3.140783
    5 6.078087 0.000000 0.000002 0.909633 -0.841221 -1.173214
    6 13.446746 -0.000001 0.000000 0.000000 0.000000 -1.042319
    7 15.996999 -0.000002 -0.000001 1.033430 0.336982 0.317782
    8 1.885329 0.833276 2.177871 1.264233 -0.638137 0.530090
    9 1.506961 0.000001 -0.000004 0.000000 0.000000 -0.488689
    10 0.798354 0.000000 -0.000001 0.000000 0.000000 -0.986085
    11 3.950304 -0.539877 2.108871 -0.037808 0.038137 -0.197081
    12 1.545792 0.000000 -0.000003 0.000000 0.000000 1.396235
    13 1.667399 -0.000001 0.000000 0.000000 0.000000 1.466046
    14 3.899458 -0.475377 1.170885 -0.069014 0.069822 -0.026114
    15 1.528216 0.000000 -0.000001 0.000000 0.000000 1.047176
    16 1.528216 0.000000 -0.000001 0.000000 0.000000 1.815102
    17 3.899460 -0.431805 -0.168225 -0.003758 -0.034707 0.130944
    18 1.506963 0.000001 -0.000005 0.000000 0.000000 1.082084
    19 1.506962 0.000000 0.000004 0.000000 0.000000 1.727834
    20 3.915633 -0.278020 -1.402612 0.304318 -0.057143 -0.007490
    21 1.333082 0.000000 0.000000 0.000000 0.000000 1.265345
    22 1.159203 0.000002 -0.000002 0.000000 0.000000 1.527123
    23 13.333941 0.905787 19.735216 1.582244 -0.018583 -3.126154
  time 14
    0 0.135014 -5.181166 -24.816700 0.000000 0.000000 -1.570795
    1 0.000001 0.000000 0.000000 -0.000086 -1.570451 -1.570709
    2 4.443614 -0.009643 0.000006 -0.000004 -0.000001 0.000796
    3 12.111416 -0.011445 0.000000 0.000000 0.000000 0.000000
    4 0.000005 0.011450 -1.352403 -0.000014 1.370796 3.140783
    5 6.078087 0.000000 0.000002 0.883434 -0.841221 -1.173214
    6 13.446746 -0.000001 0.000000 0.000000 0.000000 -1.094725
    7 15.996999 -0.000002 -0.000001 1.125310 0.529281 0.509780
    8 1.885329 0.833276 2.177871 1.264233 -0.638137 0.530090
    9 1.506961 0.000001 -0.000004 0.000000 0.000000 -0.488689
    10 0.798354 0.000000 -0.000001 0.000000 0.000000 -0.986085
    11 3.950304 -0.539877 2.108871 -0.037808 0.038137 -0.197081
    12 1.545792 0.000000 -0.000003 0.000000 0.000000 1.396235
    13 1.667399 -0.000001 0.000000 0.000000 0.000000 1.466046
    14 3.899458 -0.475377 1.170885 -0.069014 0.069822 -0.026114
    15 1.528216 0.000000 -0.000001 0.000000 0.000000 1.047176
    16 1.528216 0.000000 -0.000001 0.000000 0.000000 1.815102
    17 3.899460 -0.431805 -0.168225 -0.003758 -0.034707 0.130944
    18 1.506963 0.000001 -0.000005 0.000000 0.000000 1.082084
    19 1.506962 0.000000 0.000004 0.000000 0.000000 1.727834
    20 3.915633 -0.278020 -1.402612 0.304318 -0.057143 -0.007490
    21 1.333082 0.000000 0.000000 0.000000 0.000000 1.265345
    22 1.159203 0.000002 -0.000002 0.000000 0.000000 1.527123
    23 13.333941 0.905787 19.735216 1.582244 -0.018583 -3.126154
  time 15
    0 0.135014 -5.181166 -24.816700 0.000000 0.000000 -1.570795
    1 0.000001 0.000000 0.000000 -0.000086 -1.570451 -1.570709
    2 4.443614 -0.009643 0.000006 -0.000004 -0.000001 0.000796
    3 12.111416 -0.011445 0.000000 0.000000 0.000000 0.000000
    4 0.000005 0.011450 -1.352403 -0.000014 1.370796 3.140783
    5 6.078087 0.000000 0.000002 0.873346 -0.855166 -1.118435
    6 13.446746 -0.000001 0.000000 0.000000 0.000000 -1.062217
    7 15.996999 -0.000002 -0.000001 1.144461 0.364050 0.289457
    8 1.885329 0.833276 2.177871 1.264233 -0.638137 0.530090
    9 1.506961 0.000001 -0.000004 0.000000 0.000000 -0.488689
    10 0.798354 0.000000 -0.000001 0.000000 0.000000 -0.986085
    11 3.950304 -0.539877 2.108871 -0.037808 0.038137 -0.197081
    12 1.545792 0.000000 -0.000003 0.000000 0.000000 1.396235
    13 1.667399 -0.000001 0.000000 0.000000 0.000000 1.466046
    14 3.899458 -0.475377 1.170885 -0.069014 0.069822 -0.026114
    15 1.528216 0.000000 -0.000001 0.000000 0.000000 1.047176
    16 1.528216 0.000000 -0.000001 0.000000 0.000000 1.815102
    17 3.899460 -0.431805 -0.168225 -0.003758 -0.034707 0.130944
    18 1.506963 0.000001 -0.000005 0.000000 0.000000 1.082084
    19 1.506962 0.000000 0.000004 0.000000 0.000000 1.727876
    20 3.915633 -0.278020 -1.402612 0.304318 -0.057143 -0.007490
    21 1.333082 0.000000 0.000000 0.000000 0.000000 1.265345
    22 1.159203 0.000002 -0.000002 0.000000 0.000000 1.527123
    23 13.333941 0.905787 19.735216 1.582244 -0.018583 -3.126154
  time 16
    0 0.135014 -5.181166 -24.816700 0.000000 0.000000 -1.570795
    1 0.000001 0.000000 0.000000 -0.000086 -1.570451 -1.570709
    2 4.443614 -0.009643 0.000006 -0.000004 -0.000001 0.000796
    3 12.111416 -0.011445 0.000000 0.000000 0.000000 0.000000
    4 0.000005 0.011450 -1.352403 -0.000014 1.370796 3.140783
    5 6.078087 0.000000 0.000002 0.863824 -0.871305 -1.051997
    6 13.446746 -0.000001 0.000000 0.000000 0.000000 -1.014310
    7 15.996999 -0.000002 -0.000001 1.209246 0.144518 0.008760
    8 1.885329 0.833276 2.177871 1.264233 -0.638137 0.530090
    9 1.506961 0.000001 -0.000004 0.000000 0.000000 -0.488689
    10 0.798354 0.000000 -0.000001 0.000000 0.000000 -0.986085
    11 3.950304 -0.539877 2.108871 -0.037808 0.038137 -0.197081
    12 1.545792 0.000000 -0.000003 0.000000 0.000000 1.396235
    13 1.667399 -0.000001 0.000000 0.000000 0.000000 1.466046
    14 3.899458 -0.475377 1.170885 -0.069014 0.069822 -0.026114
    15 1.528216 0.000000 -0.000001 0.000000 0.000000 1.047176
    16 1.528216 0.000000 -0.000001 0.000000 0.000000 1.815102
    17 3.899460 -0.431805 -0.168225 -0.003758 -0.034707 0.130944
    18 1.506963 0.000001 -0.000005 0.000000 0.000000 1.082084
    19 1.506962 0.000000 0.000004 0.000000 0.000000 1.727834
    20 3.915633 -0.278020 -1.402612 0.304318 -0.057143 -0.007490
    21 1.333082 0.000000 0.000000 0.000000 0.000000 1.265345
    22 1.159203 0.000002 -0.000002 0.000000 0.000000 1.527123
    23 13.333941 0.905787 19.735216 1.582244 -0.018583 -3.126154
  time 17
    0 0.135014 -5.181166 -24.816700 0.000000 0.000000 -1.570795
    1 0.000001 0.000000 0.000000 -0.000086 -1.570451 -1.570709
    2 4.443614 -0.009643 0.000006 -0.000004 -0.000001 0.000796
    3 12.111416 -0.011445 0.000000 0.000000 0.000000 0.000000
    4 0.000005 0.011450 -1.352403 -0.000014 1.370796 3.140783
    5 6.078087 0.000000 0.000002 0.839067 -0.884960 -0.983274
    6 13.446746 -0.000001 0.000000 0.000000 0.000000 -0.974704
    7 15.996999 -0.000002 -0.000001 1.341618 -0.012169 -0.193020
    8 1.885329 0.833276 2.177871 1.264233 -0.638137 0.530090
    9 1.506961 0.000001 -0.000004 0.000000 0.000000 -0.488689
    10 0.798354 0.000000 -0.000001 0.000000 0.000000 -0.986085
    11 3.950304 -0.539877 2.108871 -0.037808 0.038137 -0.197081
    12 1.545792 0.000000 -0.000003 0.000000 0.000000 1.396235
    13 1.667399 -0.000001 0.000000 0.000000 0.000000 1.466046
    14 3.899458 -0.475377 1.170885 -0.069014 0.069822 -0.026114
    15 1.528216 0.000000 -0.000001 0.000000 0.000000 1.047176
    16 1.528216 0.000000 -0.000001 0.000000 0.000000 1.815102
    17 3.899460 -0.431805 -0.168225 -0.003758 -0.034707 0.130944
    18 1.506963 0.000001 -0.000005 0.000000 0.000000 1.082084
    19 1.506962 0.000000 0.000004 0.000000 0.000000 1.727834
    20 3.915633 -0.278020 -1.402612 0.304318 -0.057143 -0.007490
    21 1.333082 0.000000 0.000000 0.000000 0.000000 1.265345
    22 1.159203 0.000002 -0.000002 0.000000 0.000000 1.527123
    23 13.333941 0.905787 19.735216 1.582244 -0.018583 -3.126154
  time 18
    0 0.135014 -5.181166 -24.816700 0.000000 0.000000 -1.570795
    1 0.000001 0.000000 0.000000 -0.000086 -1.570451 -1.570709
    2 4.443614 -0.009643 0.000006 -0.000004 -0.000001 0.000796
    3 12.111416 -0.011445 0.000000 0.000000 0.000000 0.000000
    4 0.000005 0.011450 -1.352403 -0.000014 1.370796 3.140783
    5 6.078087 0.000000 0.000002 0.789861 -0.892740 -0.915430
    6 13.446746 -0.000001 0.000000 0.000000 0.000000 -0.954110
    7 15.996999 -0.000002 -0.000001 1.501326 -0.072918 -0.237479
    8 1.885329 0.833276 2.177871 1.264233 -0.638137 0.530090
    9 1.506961 0.000001 -0.000004 0.000000 0.000000 -0.488689
    10 0.798354 0.000000 -0.000001 0.000000 0.000000 -0.986085
    11 3.950304 -0.539877 2.108871 -0.037808 0.038137 -0.197081
    12 1.545792 0.000000 -0.000003 0.000000 0.000000 1.396235
    13 1.667399 -0.000001 0.000000 0.000000 0.000000 1.466046
    14 3.899458 -0.475377 1.170885 -0.069014 0.069822 -0.026114
    15 1.528216 0.000000 -0.000001 0.000000 0.000000 1.047176
    16 1.528216 0.000000 -0.000001 0.000000 0.000000 1.815102
    17 3.899460 -0.431805 -0.168225 -0.003758 -0.034707 0.130944
    18 1.506963 0.000001 -0.000005 0.000000 0.000000 1.082084
    19 1.506962 0.000000 0.000004 0.000000 0.000000 1.727834
    20 3.915633 -0.278020 -1.402612 0.304318 -0.057143 -0.007490
    21 1.333082 0.000000 0.000000 0.000000 0.000000 1.265345
    22 1.159203 0.000002 -0.000002 0.000000 0.000000 1.527123
    23 13.333941 0.905787 19.735216 1.582244 -0.018583 -3.126154
  time 19
    0 0.135014 -5.181166 -24.816700 0.000000 0.000000 -1.570795
    1 0.000001 0.000000 0.000000 -0.000086 -1.570451 -1.570709
    2 4.443614 -0.009643 0.000006 -0.000004 -0.000001 0.000796
    3 12.111416 -0.011445 0.000000 0.000000 0.000000 0.000000
    4 0.000005 0.011450 -1.352403 -0.000014 1.370796 3.140783
    5 6.078087 0.000000 0.000002 0.726398 -0.895719 -0.846063
    6 13.446746 -0.000001 0.000000 0.000000 0.000000 -0.941879
    7 15.996999 -0.000002 -0.000001 1.669811 -0.104317 -0.197254
    8 1.885329 0.833276 2.177871 1.264233 -0.638137 0.530090
    9 1.506961 0.000001 -0.000004 0.000000 0.000000 -0.488689
    10 0.798354 0.000000 -0.000001 0.000000 0.000000 -0.986085
    11 3.950304 -0.539877 2.108871 -0.037808 0.038137 -0.197081
    12 1.545792 0.000000 -0.000003 0.000000 0.000000 1.396235
    13 1.667399 -0.000001 0.000000 0.000000 0.000000 1.466046
    14 3.899458 -0.475377 1.170885 -0.069014 0.069822 -0.026114
    15 1.528216 0.000000 -0.000001 0.000000 0.000000 1.047176
    16 1.528216 0.000000 -0.000001 0.000000 0.000000 1.815102
    17 3.899460 -0.431805 -0.168225 -0.003758 -0.034707 0.130944
    18 1.506963 0.000001 -0.000005 0.000000 0.000000 1.082084
    19 1.506962 0.000000 0.000004 0.000000 0.000000 1.727834
    20 3.915633 -0.278020 -1.402612 0.304318 -0.057143 -0.007490
    21 1.333082 0.000000 0.000000 0.000000 0.000000 1.265345
    22 1.159203 0.000002 -0.000002 0.000000 0.000000 1.527123
    23 13.333941 0.905787 19.735216 1.582244 -0.018583 -3.126154
  time 20
    0 0.135014 -5.181166 -24.816700 0.000000 0.000000 -1.570795
    1 0.000001 0.000000 0.000000 -0.000086 -1.570451 -1.570709
    2 4.443614 -0.009643 0.000006 -0.000004 -0.000001 0.000796
    3 12.111416 -0.011445 0.000000 0.000000 0.000000 0.000000
    4 0.000005 0.011450 -1.352403 -0.000014 1.370796 3.140783
    5 6.078087 0.000000 0.000002 0.662677 -0.895968 -0.776403
    6 13.446746 -0.000001 0.000000 0.000000 0.000000 -0.929649
    7 15.996999 -0.000002 -0.000001 1.837507 -0.141929 -0.162724
    8 1.885329 0.833276 2.177871 1.264233 -0.638137 0.530090
    9 1.506961 0.000001 -0.000004 0.000000 0.000000 -0.488689
    10 0.798354 0.000000 -0.000001 0.000000 0.000000 -0.986085
    11 3.950304 -0.539877 2.108871 -0.037808 0.038137 -0.197081
    12 1.545792 0.000000 -0.000003 0.000000 0.000000 1.396235
    13 1.667399 -0.000001 0.000000 0.000000 0.000000 1.466046
    14 3.899458 -0.475377 1.170885 -0.069014 0.069822 -0.026114
    15 1.528216 0.000000 -0.000001 0.000000 0.000000 1.047176
    16 1.528216 0.000000 -0.000001 0.000000 0.000000 1.815102
    17 3.899460 -0.431805 -0.168225 -0.003758 -0.034707 0.130944
    18 1.506963 0.000001 -0.000005 0.000000 0.000000 1.082084
    19 1.506962 0.000000 0.000004 0.000000 0.000000 1.727834
    20 3.915633 -0.278020 -1.402612 0.304318 -0.057143 -0.007490
    21 1.333082 0.000000 0.000000 0.000000 0.000000 1.265345
    22 1.159203 0.000002 -0.000002 0.000000 0.000000 1.527123
    23 13.333941 0.905787 19.735216 1.582244 -0.018583 -3.126154
end
