// Created by Crowbar 0.74
version 1
nodes
  0 "Bip01" -1
  1 "Bip01 Pelvis" 0
  2 "Bip01 Spine" 1
  3 "Bip01 Neck" 2
  4 "Bip01 R Clavicle" 3
  5 "Bip01 R UpperArm" 4
  6 "Bip01 R Forearm" 5
  7 "Bip01 R Hand" 6
  8 "Bip01 R Finger0" 7
  9 "Bip01 R Finger01" 8
  10 "Bip01 R Finger02" 9
  11 "Bip01 R Finger1" 7
  12 "Bip01 R Finger11" 11
  13 "Bip01 R Finger12" 12
  14 "Bip01 R Finger2" 7
  15 "Bip01 R Finger21" 14
  16 "Bip01 R Finger22" 15
  17 "Bip01 R Finger3" 7
  18 "Bip01 R Finger31" 17
  19 "Bip01 R Finger32" 18
  20 "Bip01 R Finger4" 7
  21 "Bip01 R Finger41" 20
  22 "Bip01 R Finger42" 21
  23 "tip" 7
end
skeleton
  time 0
    0 0.135014 -5.181166 -24.816700 0.000000 0.000000 -1.570795
    1 0.000001 0.000000 0.000000 -0.000086 -1.570451 -1.570709
    2 4.443614 -0.009643 0.000006 -0.000004 -0.000001 0.000796
    3 12.111416 -0.011445 0.000000 0.000000 0.000000 0.000000
    4 0.000005 0.011450 -1.352403 -0.000014 1.370796 3.140783
    5 6.078087 0.000000 0.000002 0.739728 -0.940948 -0.702290
    6 13.446754 0.000000 0.000003 0.000000 0.000000 -1.226342
    7 15.997000 -0.000002 -0.000001 1.837507 -0.141929 -0.162724
    8 1.885330 0.833277 2.177873 1.264233 -0.638137 0.530090
    9 1.506958 0.000001 -0.000003 0.000000 0.000000 -0.488689
    10 0.798352 0.000001 0.000003 0.000000 0.000000 -0.986085
    11 3.950304 -0.539876 2.108868 -0.037808 0.038137 -0.197081
    12 1.545799 0.000000 -0.000002 0.000000 0.000000 1.396235
    13 1.667398 0.000001 -0.000004 0.000000 0.000000 1.466046
    14 3.899458 -0.475375 1.170885 -0.069014 0.069822 -0.026114
    15 1.528219 0.000000 0.000005 0.000000 0.000000 1.047176
    16 1.528215 0.000000 -0.000005 0.000000 0.000000 1.815102
    17 3.899462 -0.431803 -0.168225 -0.003758 -0.034707 0.130944
    18 1.506963 0.000002 0.000002 0.000000 0.000000 1.082084
    19 1.506962 -0.000001 -0.000002 0.000000 0.000000 1.727834
    20 3.915635 -0.278019 -1.402609 0.304318 -0.057143 -0.007490
    21 1.333085 0.000000 -0.000001 0.000000 0.000000 1.265345
    22 1.159203 0.000001 0.000001 0.000000 0.000000 1.527123
    23 13.333941 0.905789 19.735220 1.582244 -0.018583 -3.126154
  time 1
    0 0.135014 -5.181166 -24.816700 0.000000 0.000000 -1.570795
    1 0.000001 0.000000 0.000000 -0.000086 -1.570451 -1.570709
    2 4.443614 -0.009643 0.000006 -0.000004 -0.000001 0.000796
    3 12.111416 -0.011445 0.000000 0.000000 0.000000 0.000000
    4 0.000005 0.011450 -1.352403 -0.000014 1.370796 3.140783
    5 6.078087 0.000000 0.000002 0.689802 -0.847056 -0.588279
    6 13.446754 0.000000 0.000003 0.000000 0.000000 -1.443064
    7 15.997000 -0.000002 -0.000001 1.945803 -0.133597 -0.179186
    8 1.885330 0.833277 2.177873 1.264233 -0.638137 0.530090
    9 1.506958 0.000001 -0.000003 0.000000 0.000000 -0.488689
    10 0.798352 0.000001 0.000003 0.000000 0.000000 -0.986085
    11 3.950304 -0.539876 2.108868 -0.037808 0.038137 -0.197081
    12 1.545799 0.000000 -0.000002 0.000000 0.000000 1.396235
    13 1.667398 0.000001 -0.000004 0.000000 0.000000 1.466046
    14 3.899458 -0.475375 1.170885 -0.069014 0.069822 -0.026114
    15 1.528219 0.000000 0.000005 0.000000 0.000000 1.047176
    16 1.528215 0.000000 -0.000005 0.000000 0.000000 1.815102
    17 3.899462 -0.431803 -0.168225 -0.003758 -0.034707 0.130944
    18 1.506963 0.000002 0.000002 0.000000 0.000000 1.082084
    19 1.506962 -0.000001 -0.000002 0.000000 0.000000 1.727834
    20 3.915635 -0.278019 -1.402609 0.304318 -0.057143 -0.007490
    21 1.333085 0.000000 -0.000001 0.000000 0.000000 1.265345
    22 1.159203 0.000001 0.000001 0.000000 0.000000 1.527123
    23 13.333941 0.905789 19.735220 1.582244 -0.018583 -3.126154
  time 2
    0 0.135014 -5.181166 -24.816700 0.000000 0.000000 -1.570795
    1 0.000001 0.000000 0.000000 -0.000086 -1.570451 -1.570709
    2 4.443614 -0.009643 0.000006 -0.000004 -0.000001 0.000796
    3 12.111416 -0.011445 0.000000 0.000000 0.000000 0.000000
    4 0.000005 0.011450 -1.352403 -0.000014 1.370796 3.140783
    5 6.078087 0.000000 0.000002 0.652434 -0.739921 -0.471867
    6 13.446754 0.000000 0.000003 0.000000 0.000000 -1.692801
    7 15.997000 -0.000002 -0.000001 2.065809 -0.114132 -0.210358
    8 1.885330 0.833277 2.177873 1.264233 -0.638137 0.530090
    9 1.506958 0.000001 -0.000003 0.000000 0.000000 -0.488689
    10 0.798352 0.000001 0.000003 0.000000 0.000000 -0.986085
    11 3.950304 -0.539876 2.108868 -0.037808 0.038137 -0.197081
    12 1.545799 0.000000 -0.000002 0.000000 0.000000 1.396235
    13 1.667398 0.000001 -0.000004 0.000000 0.000000 1.466046
    14 3.899458 -0.475375 1.170885 -0.069014 0.069822 -0.026114
    15 1.528219 0.000000 0.000005 0.000000 0.000000 1.047176
    16 1.528215 0.000000 -0.000005 0.000000 0.000000 1.815102
    17 3.899462 -0.431803 -0.168225 -0.003758 -0.034707 0.130944
    18 1.506963 0.000002 0.000002 0.000000 0.000000 1.082084
    19 1.506962 -0.000001 -0.000002 0.000000 0.000000 1.727834
    20 3.915635 -0.278019 -1.402609 0.304318 -0.057143 -0.007490
    21 1.333085 0.000000 -0.000001 0.000000 0.000000 1.265345
    22 1.159203 0.000001 0.000001 0.000000 0.000000 1.527123
    23 13.333941 0.905789 19.735220 1.582244 -0.018583 -3.126154
  time 3
    0 0.135014 -5.181166 -24.816700 0.000000 0.000000 -1.570795
    1 0.000001 0.000000 0.000000 -0.000086 -1.570451 -1.570709
    2 4.443614 -0.009643 0.000006 -0.000004 -0.000001 0.000796
    3 12.111416 -0.011445 0.000000 0.000000 0.000000 0.000000
    4 0.000005 0.011450 -1.352403 -0.000014 1.370796 3.140783
    5 6.078087 0.000000 0.000002 0.636118 -0.635931 -0.379182
    6 13.446754 0.000000 0.000003 0.000000 0.000000 -1.925998
    7 15.997000 -0.000002 -0.000001 2.179204 -0.096408 -0.231420
    8 1.885330 0.833277 2.177873 1.264233 -0.638137 0.530090
    9 1.506958 0.000001 -0.000003 0.000000 0.000000 -0.488689
    10 0.798352 0.000001 0.000003 0.000000 0.000000 -0.986085
    11 3.950304 -0.539876 2.108868 -0.037808 0.038137 -0.197081
    12 1.545799 0.000000 -0.000002 0.000000 0.000000 1.396235
    13 1.667398 0.000001 -0.000004 0.000000 0.000000 1.466046
    14 3.899458 -0.475375 1.170885 -0.069014 0.069822 -0.026114
    15 1.528219 0.000000 0.000005 0.000000 0.000000 1.047176
    16 1.528215 0.000000 -0.000005 0.000000 0.000000 1.815102
    17 3.899462 -0.431803 -0.168225 -0.003758 -0.034707 0.130944
    18 1.506963 0.000002 0.000002 0.000000 0.000000 1.082084
    19 1.506962 -0.000001 -0.000002 0.000000 0.000000 1.727834
    20 3.915635 -0.278019 -1.402609 0.304318 -0.057143 -0.007490
    21 1.333085 0.000000 -0.000001 0.000000 0.000000 1.265345
    22 1.159203 0.000001 0.000001 0.000000 0.000000 1.527123
    23 13.333941 0.905789 19.735220 1.582244 -0.018583 -3.126154
  time 4
    0 0.135014 -5.181166 -24.816700 0.000000 0.000000 -1.570795
    1 0.000001 0.000000 0.000000 -0.000086 -1.570451 -1.570709
    2 4.443614 -0.009643 0.000006 -0.000004 -0.000001 0.000796
    3 12.111416 -0.011445 0.000000 0.000000 0.000000 0.000000
    4 0.000005 0.011450 -1.352403 -0.000014 1.370796 3.140783
    5 6.078087 0.000000 0.000002 0.638125 -0.553211 -0.328152
    6 13.446754 0.000000 0.000003 0.000000 0.000000 -2.093355
    7 15.997000 -0.000002 -0.000001 2.269268 -0.098974 -0.221637
    8 1.885330 0.833277 2.177873 1.264233 -0.638137 0.530090
    9 1.506958 0.000001 -0.000003 0.000000 0.000000 -0.488689
    10 0.798352 0.000001 0.000003 0.000000 0.000000 -0.986085
    11 3.950304 -0.539876 2.108868 -0.037808 0.038137 -0.197081
    12 1.545799 0.000000 -0.000002 0.000000 0.000000 1.396235
    13 1.667398 0.000001 -0.000004 0.000000 0.000000 1.466046
    14 3.899458 -0.475375 1.170885 -0.069014 0.069822 -0.026114
    15 1.528219 0.000000 0.000005 0.000000 0.000000 1.047176
    16 1.528215 0.000000 -0.000005 0.000000 0.000000 1.815102
    17 3.899462 -0.431803 -0.168225 -0.003758 -0.034707 0.130944
    18 1.506963 0.000002 0.000002 0.000000 0.000000 1.082084
    19 1.506962 -0.000001 -0.000002 0.000000 0.000000 1.727834
    20 3.915635 -0.278019 -1.402609 0.304318 -0.057143 -0.007490
    21 1.333085 0.000000 -0.000001 0.000000 0.000000 1.265345
    22 1.159203 0.000001 0.000001 0.000000 0.000000 1.527123
    23 13.333941 0.905789 19.735220 1.582244 -0.018583 -3.126154
  time 5
    0 0.135014 -5.181166 -24.816700 0.000000 0.000000 -1.570795
    1 0.000001 0.000000 0.000000 -0.000086 -1.570451 -1.570709
    2 4.443614 -0.009643 0.000006 -0.000004 -0.000001 0.000796
    3 12.111416 -0.011445 0.000000 0.000000 0.000000 0.000000
    4 0.000005 0.011450 -1.352403 -0.000014 1.370796 3.140783
    5 6.078087 0.000000 0.000002 0.653361 -0.508851 -0.336648
    6 13.446754 0.000000 0.000003 0.000000 0.000000 -2.145508
    7 15.997000 -0.000002 -0.000001 2.317463 -0.141929 -0.162724
    8 1.885330 0.833277 2.177873 1.264233 -0.638137 0.530090
    9 1.506958 0.000001 -0.000003 0.000000 0.000000 -0.488689
    10 0.798352 0.000001 0.000003 0.000000 0.000000 -0.986085
    11 3.950304 -0.539876 2.108868 -0.037808 0.038137 -0.197081
    12 1.545799 0.000000 -0.000002 0.000000 0.000000 1.396235
    13 1.667398 0.000001 -0.000004 0.000000 0.000000 1.466046
    14 3.899458 -0.475375 1.170885 -0.069014 0.069822 -0.026114
    15 1.528219 0.000000 0.000005 0.000000 0.000000 1.047176
    16 1.528215 0.000000 -0.000005 0.000000 0.000000 1.815102
    17 3.899462 -0.431803 -0.168225 -0.003758 -0.034707 0.130944
    18 1.506963 0.000002 0.000002 0.000000 0.000000 1.082084
    19 1.506962 -0.000001 -0.000002 0.000000 0.000000 1.727834
    20 3.915635 -0.278019 -1.402609 0.304318 -0.057143 -0.007490
    21 1.333085 0.000000 -0.000001 0.000000 0.000000 1.265345
    22 1.159203 0.000001 0.000001 0.000000 0.000000 1.527123
    23 13.333941 0.905789 19.735220 1.582244 -0.018583 -3.126154
  time 6
    0 0.135014 -5.181166 -24.816700 0.000000 0.000000 -1.570795
    1 0.000001 0.000000 0.000000 -0.000086 -1.570451 -1.570709
    2 4.443614 -0.009643 0.000006 -0.000004 -0.000001 0.000796
    3 12.111416 -0.011445 0.000000 0.000000 0.000000 0.000000
    4 0.000005 0.011450 -1.352403 -0.000014 1.370796 3.140783
    5 6.078087 0.000000 0.000002 0.682390 -0.513278 -0.423708
    6 13.446754 0.000000 0.000003 0.000000 0.000000 -2.043484
    7 15.997000 -0.000002 -0.000001 2.301442 -0.241539 -0.029347
    8 1.885330 0.833277 2.177873 1.264233 -0.638137 0.530090
    9 1.506958 0.000001 -0.000003 0.000000 0.000000 -0.488689
    10 0.798352 0.000001 0.000003 0.000000 0.000000 -0.986085
    11 3.950304 -0.539876 2.108868 -0.037808 0.038137 -0.197081
    12 1.545799 0.000000 -0.000002 0.000000 0.000000 1.396235
    13 1.667398 0.000001 -0.000004 0.000000 0.000000 1.466046
    14 3.899458 -0.475375 1.170885 -0.069014 0.069822 -0.026114
    15 1.528219 0.000000 0.000005 0.000000 0.000000 1.047176
    16 1.528215 0.000000 -0.000005 0.000000 0.000000 1.815102
    17 3.899462 -0.431803 -0.168225 -0.003758 -0.034707 0.130944
    18 1.506963 0.000002 0.000002 0.000000 0.000000 1.082084
    19 1.506962 -0.000001 -0.000002 0.000000 0.000000 1.727834
    20 3.915635 -0.278019 -1.402609 0.304318 -0.057143 -0.007490
    21 1.333085 0.000000 -0.000001 0.000000 0.000000 1.265345
    22 1.159203 0.000001 0.000001 0.000000 0.000000 1.527123
    23 13.333941 0.905789 19.735220 1.582244 -0.018583 -3.126154
  time 7
    0 0.135014 -5.181166 -24.816700 0.000000 0.000000 -1.570795
    1 0.000001 0.000000 0.000000 -0.000086 -1.570451 -1.570709
    2 4.443614 -0.009643 0.000006 -0.000004 -0.000001 0.000796
    3 12.111416 -0.011445 0.000000 0.000000 0.000000 0.000000
    4 0.000005 0.011450 -1.352403 -0.000014 1.370796 3.140783
    5 6.078087 0.000000 0.000002 0.729125 -0.551473 -0.577675
    6 13.446754 0.000000 0.000003 0.000000 0.000000 -1.820109
    7 15.997000 -0.000002 -0.000001 2.211181 -0.373253 0.179551
    8 1.885330 0.833277 2.177873 1.264233 -0.638137 0.530090
    9 1.506958 0.000001 -0.000003 0.000000 0.000000 -0.488689
    10 0.798352 0.000001 0.000003 0.000000 0.000000 -0.986085
    11 3.950304 -0.539876 2.108868 -0.037808 0.038137 -0.197081
    12 1.545799 0.000000 -0.000002 0.000000 0.000000 1.396235
    13 1.667398 0.000001 -0.000004 0.000000 0.000000 1.466046
    14 3.899458 -0.475375 1.170885 -0.069014 0.069822 -0.026114
    15 1.528219 0.000000 0.000005 0.000000 0.000000 1.047176
    16 1.528215 0.000000 -0.000005 0.000000 0.000000 1.815102
    17 3.899462 -0.431803 -0.168225 -0.003758 -0.034707 0.130944
    18 1.506963 0.000002 0.000002 0.000000 0.000000 1.082084
    19 1.506962 -0.000001 -0.000002 0.000000 0.000000 1.727834
    20 3.915635 -0.278019 -1.402609 0.304318 -0.057143 -0.007490
    21 1.333085 0.000000 -0.000001 0.000000 0.000000 1.265345
    22 1.159203 0.000001 0.000001 0.000000 0.000000 1.527123
    23 13.333941 0.905789 19.735220 1.582244 -0.018583 -3.126154
  time 8
    0 0.135014 -5.181166 -24.816700 0.000000 0.000000 -1.570795
    1 0.000001 0.000000 0.000000 -0.000086 -1.570451 -1.570709
    2 4.443614 -0.009643 0.000006 -0.000004 -0.000001 0.000796
    3 12.111416 -0.011445 0.000000 0.000000 0.000000 0.000000
    4 0.000005 0.011450 -1.352403 -0.000014 1.370796 3.140783
    5 6.078087 0.000000 0.000002 0.795934 -0.600674 -0.773591
    6 13.446754 0.000000 0.000003 0.000000 0.000000 -1.533935
    7 15.997000 -0.000002 -0.000001 2.051123 -0.489597 0.446924
    8 1.885330 0.833277 2.177873 1.264233 -0.638137 0.530090
    9 1.506958 0.000001 -0.000003 0.000000 0.000000 -0.488689
    10 0.798352 0.000001 0.000003 0.000000 0.000000 -0.986085
    11 3.950304 -0.539876 2.108868 -0.037808 0.038137 -0.197081
    12 1.545799 0.000000 -0.000002 0.000000 0.000000 1.396235
    13 1.667398 0.000001 -0.000004 0.000000 0.000000 1.466046
    14 3.899458 -0.475375 1.170885 -0.069014 0.069822 -0.026114
    15 1.528219 0.000000 0.000005 0.000000 0.000000 1.047176
    16 1.528215 0.000000 -0.000005 0.000000 0.000000 1.815102
    17 3.899462 -0.431803 -0.168225 -0.003758 -0.034707 0.130944
    18 1.506963 0.000002 0.000002 0.000000 0.000000 1.082084
    19 1.506962 -0.000001 -0.000002 0.000000 0.000000 1.727876
    20 3.915635 -0.278019 -1.402609 0.304318 -0.057143 -0.007490
    21 1.333085 0.000000 -0.000001 0.000000 0.000000 1.265345
    22 1.159203 0.000001 0.000001 0.000000 0.000000 1.527123
    23 13.333941 0.905789 19.735220 1.582244 -0.018583 -3.126154
  time 9
    0 0.135014 -5.181166 -24.816700 0.000000 0.000000 -1.570795
    1 0.000001 0.000000 0.000000 -0.000086 -1.570451 -1.570709
    2 4.443614 -0.009643 0.000006 -0.000004 -0.000001 0.000796
    3 12.111416 -0.011445 0.000000 0.000000 0.000000 0.000000
    4 0.000005 0.011450 -1.352403 -0.000014 1.370796 3.140783
    5 6.078087 0.000000 0.000002 0.876125 -0.640648 -0.980579
    6 13.446754 0.000000 0.000003 0.000000 0.000000 -1.243452
    7 15.997000 -0.000002 -0.000001 1.856024 -0.555431 0.732914
    8 1.885330 0.833277 2.177873 1.264233 -0.638137 0.530090
    9 1.506958 0.000001 -0.000003 0.000000 0.000000 -0.488689
    10 0.798352 0.000001 0.000003 0.000000 0.000000 -0.986085
    11 3.950304 -0.539876 2.108868 -0.037808 0.038137 -0.197081
    12 1.545799 0.000000 -0.000002 0.000000 0.000000 1.396235
    13 1.667398 0.000001 -0.000004 0.000000 0.000000 1.466046
    14 3.899458 -0.475375 1.170885 -0.069014 0.069822 -0.026114
    15 1.528219 0.000000 0.000005 0.000000 0.000000 1.047176
    16 1.528215 0.000000 -0.000005 0.000000 0.000000 1.815102
    17 3.899462 -0.431803 -0.168225 -0.003758 -0.034707 0.130944
    18 1.506963 0.000002 0.000002 0.000000 0.000000 1.082084
    19 1.506962 -0.000001 -0.000002 0.000000 0.000000 1.727834
    20 3.915635 -0.278019 -1.402609 0.304318 -0.057143 -0.007490
    21 1.333085 0.000000 -0.000001 0.000000 0.000000 1.265345
    22 1.159203 0.000001 0.000001 0.000000 0.000000 1.527123
    23 13.333941 0.905789 19.735220 1.582244 -0.018583 -3.126154
  time 10
    0 0.135014 -5.181166 -24.816700 0.000000 0.000000 -1.570795
    1 0.000001 0.000000 0.000000 -0.000086 -1.570451 -1.570709
    2 4.443614 -0.009643 0.000006 -0.000004 -0.000001 0.000796
    3 12.111416 -0.011445 0.000000 0.000000 0.000000 0.000000
    4 0.000005 0.011450 -1.352403 -0.000014 1.370796 3.140783
    5 6.078087 0.000000 0.000002 0.949780 -0.659228 -1.157454
    6 13.446754 0.000000 0.000003 0.000000 0.000000 -1.007149
    7 15.997000 -0.000002 -0.000001 1.690866 -0.571813 0.968860
    8 1.885330 0.833277 2.177873 1.264233 -0.638137 0.530090
    9 1.506958 0.000001 -0.000003 0.000000 0.000000 -0.488689
    10 0.798352 0.000001 0.000003 0.000000 0.000000 -0.986085
    11 3.950304 -0.539876 2.108868 -0.037808 0.038137 -0.197081
    12 1.545799 0.000000 -0.000002 0.000000 0.000000 1.396235
    13 1.667398 0.000001 -0.000004 0.000000 0.000000 1.466046
    14 3.899458 -0.475375 1.170885 -0.069014 0.069822 -0.026114
    15 1.528219 0.000000 0.000005 0.000000 0.000000 1.047176
    16 1.528215 0.000000 -0.000005 0.000000 0.000000 1.815102
    17 3.899462 -0.431803 -0.168225 -0.003758 -0.034707 0.130944
    18 1.506963 0.000002 0.000002 0.000000 0.000000 1.082084
    19 1.506962 -0.000001 -0.000002 0.000000 0.000000 1.727834
    20 3.915635 -0.278019 -1.402609 0.304318 -0.057143 -0.007490
    21 1.333085 0.000000 -0.000001 0.000000 0.000000 1.265345
    22 1.159203 0.000001 0.000001 0.000000 0.000000 1.527123
    23 13.333941 0.905789 19.735220 1.582244 -0.018583 -3.126154
  time 11
    0 0.135014 -5.181166 -24.816700 0.000000 0.000000 -1.570795
    1 0.000001 0.000000 0.000000 -0.000086 -1.570451 -1.570709
    2 4.443614 -0.009643 0.000006 -0.000004 -0.000001 0.000796
    3 12.111416 -0.011445 0.000000 0.000000 0.000000 0.000000
    4 0.000005 0.011450 -1.352403 -0.000014 1.370796 3.140783
    5 6.078087 0.000000 0.000002 0.949780 -0.659228 -1.157454
    6 13.446754 0.000000 0.000003 0.000000 0.000000 -1.007149
    7 15.997000 -0.000002 -0.000001 1.803233 -0.539402 0.756421
    8 1.885330 0.833277 2.177873 1.264233 -0.638137 0.530090
    9 1.506958 0.000001 -0.000003 0.000000 0.000000 -0.488689
    10 0.798352 0.000001 0.000003 0.000000 0.000000 -0.986085
    11 3.950304 -0.539876 2.108868 -0.037808 0.038137 -0.197081
    12 1.545799 0.000000 -0.000002 0.000000 0.000000 1.396235
    13 1.667398 0.000001 -0.000004 0.000000 0.000000 1.466046
    14 3.899458 -0.475375 1.170885 -0.069014 0.069822 -0.026114
    15 1.528219 0.000000 0.000005 0.000000 0.000000 1.047176
    16 1.528215 0.000000 -0.000005 0.000000 0.000000 1.815102
    17 3.899462 -0.431803 -0.168225 -0.003758 -0.034707 0.130944
    18 1.506963 0.000002 0.000002 0.000000 0.000000 1.082084
    19 1.506962 -0.000001 -0.000002 0.000000 0.000000 1.727834
    20 3.915635 -0.278019 -1.402609 0.304318 -0.057143 -0.007490
    21 1.333085 0.000000 -0.000001 0.000000 0.000000 1.265345
    22 1.159203 0.000001 0.000001 0.000000 0.000000 1.527123
    23 13.333941 0.905789 19.735220 1.582244 -0.018583 -3.126154
  time 12
    0 0.135014 -5.181166 -24.816700 0.000000 0.000000 -1.570795
    1 0.000001 0.000000 0.000000 -0.000086 -1.570451 -1.570709
    2 4.443614 -0.009643 0.000006 -0.000004 -0.000001 0.000796
    3 12.111416 -0.011445 0.000000 0.000000 0.000000 0.000000
    4 0.000005 0.011450 -1.352403 -0.000014 1.370796 3.140783
    5 6.078087 0.000000 0.000002 0.927133 -0.690098 -1.121306
    6 13.446754 0.000000 0.000003 0.000000 0.000000 -1.008290
    7 15.997000 -0.000002 -0.000001 1.715576 -0.546557 0.879212
    8 1.885330 0.833277 2.177873 1.264233 -0.638137 0.530090
    9 1.506958 0.000001 -0.000003 0.000000 0.000000 -0.488689
    10 0.798352 0.000001 0.000003 0.000000 0.000000 -0.986085
    11 3.950304 -0.539876 2.108868 -0.037808 0.038137 -0.197081
    12 1.545799 0.000000 -0.000002 0.000000 0.000000 1.396235
    13 1.667398 0.000001 -0.000004 0.000000 0.000000 1.466046
    14 3.899458 -0.475375 1.170885 -0.069014 0.069822 -0.026114
    15 1.528219 0.000000 0.000005 0.000000 0.000000 1.047176
    16 1.528215 0.000000 -0.000005 0.000000 0.000000 1.815102
    17 3.899462 -0.431803 -0.168225 -0.003758 -0.034707 0.130944
    18 1.506963 0.000002 0.000002 0.000000 0.000000 1.082084
    19 1.506962 -0.000001 -0.000002 0.000000 0.000000 1.727834
    20 3.915635 -0.278019 -1.402609 0.304318 -0.057143 -0.007490
    21 1.333085 0.000000 -0.000001 0.000000 0.000000 1.265345
    22 1.159203 0.000001 0.000001 0.000000 0.000000 1.527123
    23 13.333941 0.905789 19.735220 1.582244 -0.018583 -3.126154
  time 13
    0 0.135014 -5.181166 -24.816700 0.000000 0.000000 -1.570795
    1 0.000001 0.000000 0.000000 -0.000086 -1.570451 -1.570709
    2 4.443614 -0.009643 0.000006 -0.000004 -0.000001 0.000796
    3 12.111416 -0.011445 0.000000 0.000000 0.000000 0.000000
    4 0.000005 0.011450 -1.352403 -0.000014 1.370796 3.140783
    5 6.078087 0.000000 0.000002 0.897383 -0.726100 -1.075725
    6 13.446754 0.000000 0.000003 0.000000 0.000000 -1.009431
    7 15.997000 -0.000002 -0.000001 1.792114 -0.498424 0.665021
    8 1.885330 0.833277 2.177873 1.264233 -0.638137 0.530090
    9 1.506958 0.000001 -0.000003 0.000000 0.000000 -0.488689
    10 0.798352 0.000001 0.000003 0.000000 0.000000 -0.986085
    11 3.950304 -0.539876 2.108868 -0.037808 0.038137 -0.197081
    12 1.545799 0.000000 -0.000002 0.000000 0.000000 1.396235
    13 1.667398 0.000001 -0.000004 0.000000 0.000000 1.466046
    14 3.899458 -0.475375 1.170885 -0.069014 0.069822 -0.026114
    15 1.528219 0.000000 0.000005 0.000000 0.000000 1.047176
    16 1.528215 0.000000 -0.000005 0.000000 0.000000 1.815102
    17 3.899462 -0.431803 -0.168225 -0.003758 -0.034707 0.130944
    18 1.506963 0.000002 0.000002 0.000000 0.000000 1.082084
    19 1.506962 -0.000001 -0.000002 0.000000 0.000000 1.727834
    20 3.915635 -0.278019 -1.402609 0.304318 -0.057143 -0.007490
    21 1.333085 0.000000 -0.000001 0.000000 0.000000 1.265345
    22 1.159203 0.000001 0.000001 0.000000 0.000000 1.527123
    23 13.333941 0.905789 19.735220 1.582244 -0.018583 -3.126154
  time 14
    0 0.135014 -5.181166 -24.816700 0.000000 0.000000 -1.570795
    1 0.000001 0.000000 0.000000 -0.000086 -1.570451 -1.570709
    2 4.443614 -0.009643 0.000006 -0.000004 -0.000001 0.000796
    3 12.111416 -0.011445 0.000000 0.000000 0.000000 0.000000
    4 0.000005 0.011450 -1.352403 -0.000014 1.370796 3.140783
    5 6.078087 0.000000 0.000002 0.863875 -0.761315 -1.026746
    6 13.446754 0.000000 0.000003 0.000000 0.000000 -1.009367
    7 15.997000 -0.000002 -0.000001 1.866858 -0.426353 0.427944
    8 1.885330 0.833277 2.177873 1.264233 -0.638137 0.530090
    9 1.506958 0.000001 -0.000003 0.000000 0.000000 -0.488689
    10 0.798352 0.000001 0.000003 0.000000 0.000000 -0.986085
    11 3.950304 -0.539876 2.108868 -0.037808 0.038137 -0.197081
    12 1.545799 0.000000 -0.000002 0.000000 0.000000 1.396235
    13 1.667398 0.000001 -0.000004 0.000000 0.000000 1.466046
    14 3.899458 -0.475375 1.170885 -0.069014 0.069822 -0.026114
    15 1.528219 0.000000 0.000005 0.000000 0.000000 1.047176
    16 1.528215 0.000000 -0.000005 0.000000 0.000000 1.815102
    17 3.899462 -0.431803 -0.168225 -0.003758 -0.034707 0.130944
    18 1.506963 0.000002 0.000002 0.000000 0.000000 1.082084
    19 1.506962 -0.000001 -0.000002 0.000000 0.000000 1.727834
    20 3.915635 -0.278019 -1.402609 0.304318 -0.057143 -0.007490
    21 1.333085 0.000000 -0.000001 0.000000 0.000000 1.265345
    22 1.159203 0.000001 0.000001 0.000000 0.000000 1.527123
    23 13.333941 0.905789 19.735220 1.582244 -0.018583 -3.126154
  time 15
    0 0.135014 -5.181166 -24.816700 0.000000 0.000000 -1.570795
    1 0.000001 0.000000 0.000000 -0.000086 -1.570451 -1.570709
    2 4.443614 -0.009643 0.000006 -0.000004 -0.000001 0.000796
    3 12.111416 -0.011445 0.000000 0.000000 0.000000 0.000000
    4 0.000005 0.011450 -1.352403 -0.000014 1.370796 3.140783
    5 6.078087 0.000000 0.000002 0.827331 -0.794709 -0.975424
    6 13.446754 0.000000 0.000003 0.000000 0.000000 -1.008417
    7 15.997000 -0.000002 -0.000001 1.891305 -0.368004 0.283872
    8 1.885330 0.833277 2.177873 1.264233 -0.638137 0.530090
    9 1.506958 0.000001 -0.000003 0.000000 0.000000 -0.488689
    10 0.798352 0.000001 0.000003 0.000000 0.000000 -0.986085
    11 3.950304 -0.539876 2.108868 -0.037808 0.038137 -0.197081
    12 1.545799 0.000000 -0.000002 0.000000 0.000000 1.396235
    13 1.667398 0.000001 -0.000004 0.000000 0.000000 1.466046
    14 3.899458 -0.475375 1.170885 -0.069014 0.069822 -0.026114
    15 1.528219 0.000000 0.000005 0.000000 0.000000 1.047176
    16 1.528215 0.000000 -0.000005 0.000000 0.000000 1.815102
    17 3.899462 -0.431803 -0.168225 -0.003758 -0.034707 0.130944
    18 1.506963 0.000002 0.000002 0.000000 0.000000 1.082084
    19 1.506962 -0.000001 -0.000002 0.000000 0.000000 1.727834
    20 3.915635 -0.278019 -1.402609 0.304318 -0.057143 -0.007490
    21 1.333085 0.000000 -0.000001 0.000000 0.000000 1.265345
    22 1.159203 0.000001 0.000001 0.000000 0.000000 1.527123
    23 13.333941 0.905789 19.735220 1.582244 -0.018583 -3.126154
  time 16
    0 0.135014 -5.181166 -24.816700 0.000000 0.000000 -1.570795
    1 0.000001 0.000000 0.000000 -0.000086 -1.570451 -1.570709
    2 4.443614 -0.009643 0.000006 -0.000004 -0.000001 0.000796
    3 12.111416 -0.011445 0.000000 0.000000 0.000000 0.000000
    4 0.000005 0.011450 -1.352403 -0.000014 1.370796 3.140783
    5 6.078087 0.000000 0.000002 0.791302 -0.822848 -0.927675
    6 13.446754 0.000000 0.000003 0.000000 0.000000 -1.001636
    7 15.997000 -0.000002 -0.000001 1.895289 -0.317117 0.176193
    8 1.885330 0.833277 2.177873 1.264233 -0.638137 0.530090
    9 1.506958 0.000001 -0.000003 0.000000 0.000000 -0.488689
    10 0.798352 0.000001 0.000003 0.000000 0.000000 -0.986085
    11 3.950304 -0.539876 2.108868 -0.037808 0.038137 -0.197081
    12 1.545799 0.000000 -0.000002 0.000000 0.000000 1.396235
    13 1.667398 0.000001 -0.000004 0.000000 0.000000 1.466046
    14 3.899458 -0.475375 1.170885 -0.069014 0.069822 -0.026114
    15 1.528219 0.000000 0.000005 0.000000 0.000000 1.047176
    16 1.528215 0.000000 -0.000005 0.000000 0.000000 1.815102
    17 3.899462 -0.431803 -0.168225 -0.003758 -0.034707 0.130944
    18 1.506963 0.000002 0.000002 0.000000 0.000000 1.082104
    19 1.506962 -0.000001 -0.000002 0.000000 0.000000 1.727834
    20 3.915635 -0.278019 -1.402609 0.304318 -0.057143 -0.007490
    21 1.333085 0.000000 -0.000001 0.000000 0.000000 1.265345
    22 1.159203 0.000001 0.000001 0.000000 0.000000 1.527123
    23 13.333941 0.905789 19.735220 1.582244 -0.018583 -3.126154
  time 17
    0 0.135014 -5.181166 -24.816700 0.000000 0.000000 -1.570795
    1 0.000001 0.000000 0.000000 -0.000086 -1.570451 -1.570709
    2 4.443614 -0.009643 0.000006 -0.000004 -0.000001 0.000796
    3 12.111416 -0.011445 0.000000 0.000000 0.000000 0.000000
    4 0.000005 0.011450 -1.352403 -0.000014 1.370796 3.140783
    5 6.078087 0.000000 0.000002 0.759545 -0.844035 -0.888832
    6 13.446754 0.000000 0.000003 0.000000 0.000000 -0.986301
    7 15.997000 -0.000002 -0.000001 1.888701 -0.269689 0.084136
    8 1.885330 0.833277 2.177873 1.264233 -0.638137 0.530090
    9 1.506958 0.000001 -0.000003 0.000000 0.000000 -0.488689
    10 0.798352 0.000001 0.000003 0.000000 0.000000 -0.986085
    11 3.950304 -0.539876 2.108868 -0.037808 0.038137 -0.197081
    12 1.545799 0.000000 -0.000002 0.000000 0.000000 1.396235
    13 1.667398 0.000001 -0.000004 0.000000 0.000000 1.466046
    14 3.899458 -0.475375 1.170885 -0.069014 0.069822 -0.026114
    15 1.528219 0.000000 0.000005 0.000000 0.000000 1.047176
    16 1.528215 0.000000 -0.000005 0.000000 0.000000 1.815102
    17 3.899462 -0.431803 -0.168225 -0.003758 -0.034707 0.130944
    18 1.506963 0.000002 0.000002 0.000000 0.000000 1.082084
    19 1.506962 -0.000001 -0.000002 0.000000 0.000000 1.727834
    20 3.915635 -0.278019 -1.402609 0.304318 -0.057143 -0.007490
    21 1.333085 0.000000 -0.000001 0.000000 0.000000 1.265345
    22 1.159203 0.000001 0.000001 0.000000 0.000000 1.527123
    23 13.333941 0.905789 19.735220 1.582244 -0.018583 -3.126154
  time 18
    0 0.135014 -5.181166 -24.816700 0.000000 0.000000 -1.570795
    1 0.000001 0.000000 0.000000 -0.000086 -1.570451 -1.570709
    2 4.443614 -0.009643 0.000006 -0.000004 -0.000001 0.000796
    3 12.111416 -0.011445 0.000000 0.000000 0.000000 0.000000
    4 0.000005 0.011450 -1.352403 -0.000014 1.370796 3.140783
    5 6.078087 0.000000 0.000002 0.728405 -0.862491 -0.852156
    6 13.446754 0.000000 0.000003 0.000000 0.000000 -0.967987
    7 15.997000 -0.000002 -0.000001 1.875547 -0.225322 0.000292
    8 1.885330 0.833277 2.177873 1.264233 -0.638137 0.530090
    9 1.506958 0.000001 -0.000003 0.000000 0.000000 -0.488689
    10 0.798352 0.000001 0.000003 0.000000 0.000000 -0.986085
    11 3.950304 -0.539876 2.108868 -0.037808 0.038137 -0.197081
    12 1.545799 0.000000 -0.000002 0.000000 0.000000 1.396235
    13 1.667398 0.000001 -0.000004 0.000000 0.000000 1.466046
    14 3.899458 -0.475375 1.170885 -0.069014 0.069822 -0.026114
    15 1.528219 0.000000 0.000005 0.000000 0.000000 1.047176
    16 1.528215 0.000000 -0.000005 0.000000 0.000000 1.815102
    17 3.899462 -0.431803 -0.168225 -0.003758 -0.034707 0.130944
    18 1.506963 0.000002 0.000002 0.000000 0.000000 1.082084
    19 1.506962 -0.000001 -0.000002 0.000000 0.000000 1.727834
    20 3.915635 -0.278019 -1.402609 0.304318 -0.057143 -0.007490
    21 1.333085 0.000000 -0.000001 0.000000 0.000000 1.265345
    22 1.159203 0.000001 0.000001 0.000000 0.000000 1.527123
    23 13.333941 0.905789 19.735220 1.582244 -0.018583 -3.126154
  time 19
    0 0.135014 -5.181166 -24.816700 0.000000 0.000000 -1.570795
    1 0.000001 0.000000 0.000000 -0.000086 -1.570451 -1.570709
    2 4.443614 -0.009643 0.000006 -0.000004 -0.000001 0.000796
    3 12.111416 -0.011445 0.000000 0.000000 0.000000 0.000000
    4 0.000005 0.011450 -1.352403 -0.000014 1.370796 3.140783
    5 6.078087 0.000000 0.000002 0.696648 -0.879457 -0.815539
    6 13.446754 0.000000 0.000003 0.000000 0.000000 -0.948533
    7 15.997000 -0.000002 -0.000001 1.857971 -0.183096 -0.080376
    8 1.885330 0.833277 2.177873 1.264233 -0.638137 0.530090
    9 1.506958 0.000001 -0.000003 0.000000 0.000000 -0.488689
    10 0.798352 0.000001 0.000003 0.000000 0.000000 -0.986085
    11 3.950304 -0.539876 2.108868 -0.037808 0.038137 -0.197081
    12 1.545799 0.000000 -0.000002 0.000000 0.000000 1.396235
    13 1.667398 0.000001 -0.000004 0.000000 0.000000 1.466046
    14 3.899458 -0.475375 1.170885 -0.069014 0.069822 -0.026114
    15 1.528219 0.000000 0.000005 0.000000 0.000000 1.047176
    16 1.528215 0.000000 -0.000005 0.000000 0.000000 1.815102
    17 3.899462 -0.431803 -0.168225 -0.003758 -0.034707 0.130944
    18 1.506963 0.000002 0.000002 0.000000 0.000000 1.082084
    19 1.506962 -0.000001 -0.000002 0.000000 0.000000 1.727834
    20 3.915635 -0.278019 -1.402609 0.304318 -0.057143 -0.007490
    21 1.333085 0.000000 -0.000001 0.000000 0.000000 1.265345
    22 1.159203 0.000001 0.000001 0.000000 0.000000 1.527123
    23 13.333941 0.905789 19.735220 1.582244 -0.018583 -3.126154
  time 20
    0 0.135014 -5.181166 -24.816700 0.000000 0.000000 -1.570795
    1 0.000001 0.000000 0.000000 -0.000086 -1.570451 -1.570709
    2 4.443614 -0.009643 0.000006 -0.000004 -0.000001 0.000796
    3 12.111416 -0.011445 0.000000 0.000000 0.000000 0.000000
    4 0.000005 0.011450 -1.352403 -0.000014 1.370796 3.140783
    5 6.078087 0.000000 0.000002 0.662677 -0.895968 -0.776403
    6 13.446754 0.000000 0.000003 0.000000 0.000000 -0.929649
    7 15.997000 -0.000002 -0.000001 1.837507 -0.141929 -0.162724
    8 1.885330 0.833277 2.177873 1.264233 -0.638137 0.530090
    9 1.506958 0.000001 -0.000003 0.000000 0.000000 -0.488689
    10 0.798352 0.000001 0.000003 0.000000 0.000000 -0.986085
    11 3.950304 -0.539876 2.108868 -0.037808 0.038137 -0.197081
    12 1.545799 0.000000 -0.000002 0.000000 0.000000 1.396235
    13 1.667398 0.000001 -0.000004 0.000000 0.000000 1.466046
    14 3.899458 -0.475375 1.170885 -0.069014 0.069822 -0.026114
    15 1.528219 0.000000 0.000005 0.000000 0.000000 1.047176
    16 1.528215 0.000000 -0.000005 0.000000 0.000000 1.815102
    17 3.899462 -0.431803 -0.168225 -0.003758 -0.034707 0.130944
    18 1.506963 0.000002 0.000002 0.000000 0.000000 1.082084
    19 1.506962 -0.000001 -0.000002 0.000000 0.000000 1.727834
    20 3.915635 -0.278019 -1.402609 0.304318 -0.057143 -0.007490
    21 1.333085 0.000000 -0.000001 0.000000 0.000000 1.265345
    22 1.159203 0.000001 0.000001 0.000000 0.000000 1.527123
    23 13.333941 0.905789 19.735220 1.582244 -0.018583 -3.126154
end
