// Created by Crowbar 0.74
version 1
nodes
  0 "Bip01" -1
  1 "Bip01 Pelvis" 0
  2 "Bip01 Spine" 1
  3 "Bip01 Neck" 2
  4 "Bip01 R Clavicle" 3
  5 "Bip01 R UpperArm" 4
  6 "Bip01 R Forearm" 5
  7 "Bip01 R Hand" 6
  8 "Bip01 R Finger0" 7
  9 "Bip01 R Finger01" 8
  10 "Bip01 R Finger02" 9
  11 "Bip01 R Finger1" 7
  12 "Bip01 R Finger11" 11
  13 "Bip01 R Finger12" 12
  14 "Bip01 R Finger2" 7
  15 "Bip01 R Finger21" 14
  16 "Bip01 R Finger22" 15
  17 "Bip01 R Finger3" 7
  18 "Bip01 R Finger31" 17
  19 "Bip01 R Finger32" 18
  20 "Bip01 R Finger4" 7
  21 "Bip01 R Finger41" 20
  22 "Bip01 R Finger42" 21
  23 "tip" 7
end
skeleton
  time 0
    0 0.135014 -5.181166 -24.816700 0.000000 0.000000 -1.570795
    1 0.000001 0.000000 0.000000 -0.000086 -1.570451 -1.570709
    2 4.443614 -0.009643 0.000006 -0.000004 -0.000001 0.000796
    3 12.111416 -0.011445 0.000000 0.000000 0.000000 0.000000
    4 0.000005 0.011450 -1.352403 -0.000014 1.370796 3.140783
    5 6.078087 0.000000 0.000002 0.739728 -0.940948 -0.702290
    6 13.446754 0.000000 0.000003 0.000000 0.000000 -1.226342
    7 15.997000 -0.000002 -0.000001 1.837507 -0.141929 -0.162724
    8 1.885330 0.833277 2.177873 1.264233 -0.638137 0.530090
    9 1.506958 0.000001 -0.000003 0.000000 0.000000 -0.488689
    10 0.798352 0.000001 0.000003 0.000000 0.000000 -0.986085
    11 3.950304 -0.539876 2.108868 -0.037808 0.038137 -0.197081
    12 1.545799 0.000000 -0.000002 0.000000 0.000000 1.396235
    13 1.667398 0.000001 -0.000004 0.000000 0.000000 1.466046
    14 3.899458 -0.475375 1.170885 -0.069014 0.069822 -0.026114
    15 1.528219 0.000000 0.000005 0.000000 0.000000 1.047176
    16 1.528215 0.000000 -0.000005 0.000000 0.000000 1.815102
    17 3.899462 -0.431803 -0.168225 -0.003758 -0.034707 0.130944
    18 1.506963 0.000002 0.000002 0.000000 0.000000 1.082084
    19 1.506962 -0.000001 -0.000002 0.000000 0.000000 1.727834
    20 3.915635 -0.278019 -1.402609 0.304318 -0.057143 -0.007490
    21 1.333085 0.000000 -0.000001 0.000000 0.000000 1.265345
    22 1.159203 0.000001 0.000001 0.000000 0.000000 1.527123
    23 13.333941 0.905789 19.735220 1.582244 -0.018583 -3.126154
  time 1
    0 0.135014 -5.181166 -24.816700 0.000000 0.000000 -1.570795
    1 0.000001 0.000000 0.000000 -0.000086 -1.570451 -1.570709
    2 4.443614 -0.009643 0.000006 -0.000004 -0.000001 0.000796
    3 12.111416 -0.011445 0.000000 0.000000 0.000000 0.000000
    4 0.000005 0.011450 -1.352403 -0.000014 1.370796 3.140783
    5 6.078087 0.000000 0.000002 0.689802 -0.847056 -0.588279
    6 13.446754 0.000000 0.000003 0.000000 0.000000 -1.443064
    7 15.997000 -0.000002 -0.000001 1.945803 -0.133597 -0.179186
    8 1.885330 0.833277 2.177873 1.264233 -0.638137 0.530090
    9 1.506958 0.000001 -0.000003 0.000000 0.000000 -0.488689
    10 0.798352 0.000001 0.000003 0.000000 0.000000 -0.986085
    11 3.950304 -0.539876 2.108868 -0.037808 0.038137 -0.197081
    12 1.545799 0.000000 -0.000002 0.000000 0.000000 1.396235
    13 1.667398 0.000001 -0.000004 0.000000 0.000000 1.466046
    14 3.899458 -0.475375 1.170885 -0.069014 0.069822 -0.026114
    15 1.528219 0.000000 0.000005 0.000000 0.000000 1.047176
    16 1.528215 0.000000 -0.000005 0.000000 0.000000 1.815102
    17 3.899462 -0.431803 -0.168225 -0.003758 -0.034707 0.130944
    18 1.506963 0.000002 0.000002 0.000000 0.000000 1.082084
    19 1.506962 -0.000001 -0.000002 0.000000 0.000000 1.727834
    20 3.915635 -0.278019 -1.402609 0.304318 -0.057143 -0.007490
    21 1.333085 0.000000 -0.000001 0.000000 0.000000 1.265345
    22 1.159203 0.000001 0.000001 0.000000 0.000000 1.527123
    23 13.333941 0.905789 19.735220 1.582244 -0.018583 -3.126154
  time 2
    0 0.135014 -5.181166 -24.816700 0.000000 0.000000 -1.570795
    1 0.000001 0.000000 0.000000 -0.000086 -1.570451 -1.570709
    2 4.443614 -0.009643 0.000006 -0.000004 -0.000001 0.000796
    3 12.111416 -0.011445 0.000000 0.000000 0.000000 0.000000
    4 0.000005 0.011450 -1.352403 -0.000014 1.370796 3.140783
    5 6.078087 0.000000 0.000002 0.652434 -0.739921 -0.471867
    6 13.446754 0.000000 0.000003 0.000000 0.000000 -1.692801
    7 15.997000 -0.000002 -0.000001 2.065809 -0.114132 -0.210358
    8 1.885330 0.833277 2.177873 1.264233 -0.638137 0.530090
    9 1.506958 0.000001 -0.000003 0.000000 0.000000 -0.488689
    10 0.798352 0.000001 0.000003 0.000000 0.000000 -0.986085
    11 3.950304 -0.539876 2.108868 -0.037808 0.038137 -0.197081
    12 1.545799 0.000000 -0.000002 0.000000 0.000000 1.396235
    13 1.667398 0.000001 -0.000004 0.000000 0.000000 1.466046
    14 3.899458 -0.475375 1.170885 -0.069014 0.069822 -0.026114
    15 1.528219 0.000000 0.000005 0.000000 0.000000 1.047176
    16 1.528215 0.000000 -0.000005 0.000000 0.000000 1.815102
    17 3.899462 -0.431803 -0.168225 -0.003758 -0.034707 0.130944
    18 1.506963 0.000002 0.000002 0.000000 0.000000 1.082084
    19 1.506962 -0.000001 -0.000002 0.000000 0.000000 1.727834
    20 3.915635 -0.278019 -1.402609 0.304318 -0.057143 -0.007490
    21 1.333085 0.000000 -0.000001 0.000000 0.000000 1.265345
    22 1.159203 0.000001 0.000001 0.000000 0.000000 1.527123
    23 13.333941 0.905789 19.735220 1.582244 -0.018583 -3.126154
  time 3
    0 0.135014 -5.181166 -24.816700 0.000000 0.000000 -1.570795
    1 0.000001 0.000000 0.000000 -0.000086 -1.570451 -1.570709
    2 4.443614 -0.009643 0.000006 -0.000004 -0.000001 0.000796
    3 12.111416 -0.011445 0.000000 0.000000 0.000000 0.000000
    4 0.000005 0.011450 -1.352403 -0.000014 1.370796 3.140783
    5 6.078087 0.000000 0.000002 0.636118 -0.635931 -0.379182
    6 13.446754 0.000000 0.000003 0.000000 0.000000 -1.925998
    7 15.997000 -0.000002 -0.000001 2.179204 -0.096408 -0.231420
    8 1.885330 0.833277 2.177873 1.264233 -0.638137 0.530090
    9 1.506958 0.000001 -0.000003 0.000000 0.000000 -0.488689
    10 0.798352 0.000001 0.000003 0.000000 0.000000 -0.986085
    11 3.950304 -0.539876 2.108868 -0.037808 0.038137 -0.197081
    12 1.545799 0.000000 -0.000002 0.000000 0.000000 1.396235
    13 1.667398 0.000001 -0.000004 0.000000 0.000000 1.466046
    14 3.899458 -0.475375 1.170885 -0.069014 0.069822 -0.026114
    15 1.528219 0.000000 0.000005 0.000000 0.000000 1.047176
    16 1.528215 0.000000 -0.000005 0.000000 0.000000 1.815102
    17 3.899462 -0.431803 -0.168225 -0.003758 -0.034707 0.130944
    18 1.506963 0.000002 0.000002 0.000000 0.000000 1.082084
    19 1.506962 -0.000001 -0.000002 0.000000 0.000000 1.727834
    20 3.915635 -0.278019 -1.402609 0.304318 -0.057143 -0.007490
    21 1.333085 0.000000 -0.000001 0.000000 0.000000 1.265345
    22 1.159203 0.000001 0.000001 0.000000 0.000000 1.527123
    23 13.333941 0.905789 19.735220 1.582244 -0.018583 -3.126154
  time 4
    0 0.135014 -5.181166 -24.816700 0.000000 0.000000 -1.570795
    1 0.000001 0.000000 0.000000 -0.000086 -1.570451 -1.570709
    2 4.443614 -0.009643 0.000006 -0.000004 -0.000001 0.000796
    3 12.111416 -0.011445 0.000000 0.000000 0.000000 0.000000
    4 0.000005 0.011450 -1.352403 -0.000014 1.370796 3.140783
    5 6.078087 0.000000 0.000002 0.638125 -0.553211 -0.328152
    6 13.446754 0.000000 0.000003 0.000000 0.000000 -2.093355
    7 15.997000 -0.000002 -0.000001 2.269268 -0.098974 -0.221637
    8 1.885330 0.833277 2.177873 1.264233 -0.638137 0.530090
    9 1.506958 0.000001 -0.000003 0.000000 0.000000 -0.488689
    10 0.798352 0.000001 0.000003 0.000000 0.000000 -0.986085
    11 3.950304 -0.539876 2.108868 -0.037808 0.038137 -0.197081
    12 1.545799 0.000000 -0.000002 0.000000 0.000000 1.396235
    13 1.667398 0.000001 -0.000004 0.000000 0.000000 1.466046
    14 3.899458 -0.475375 1.170885 -0.069014 0.069822 -0.026114
    15 1.528219 0.000000 0.000005 0.000000 0.000000 1.047176
    16 1.528215 0.000000 -0.000005 0.000000 0.000000 1.815102
    17 3.899462 -0.431803 -0.168225 -0.003758 -0.034707 0.130944
    18 1.506963 0.000002 0.000002 0.000000 0.000000 1.082084
    19 1.506962 -0.000001 -0.000002 0.000000 0.000000 1.727834
    20 3.915635 -0.278019 -1.402609 0.304318 -0.057143 -0.007490
    21 1.333085 0.000000 -0.000001 0.000000 0.000000 1.265345
    22 1.159203 0.000001 0.000001 0.000000 0.000000 1.527123
    23 13.333941 0.905789 19.735220 1.582244 -0.018583 -3.126154
  time 5
    0 0.135014 -5.181166 -24.816700 0.000000 0.000000 -1.570795
    1 0.000001 0.000000 0.000000 -0.000086 -1.570451 -1.570709
    2 4.443614 -0.009643 0.000006 -0.000004 -0.000001 0.000796
    3 12.111416 -0.011445 0.000000 0.000000 0.000000 0.000000
    4 0.000005 0.011450 -1.352403 -0.000014 1.370796 3.140783
    5 6.078087 0.000000 0.000002 0.653361 -0.508851 -0.336648
    6 13.446754 0.000000 0.000003 0.000000 0.000000 -2.145508
    7 15.997000 -0.000002 -0.000001 2.317463 -0.141929 -0.162724
    8 1.885330 0.833277 2.177873 1.264233 -0.638137 0.530090
    9 1.506958 0.000001 -0.000003 0.000000 0.000000 -0.488689
    10 0.798352 0.000001 0.000003 0.000000 0.000000 -0.986085
    11 3.950304 -0.539876 2.108868 -0.037808 0.038137 -0.197081
    12 1.545799 0.000000 -0.000002 0.000000 0.000000 1.396235
    13 1.667398 0.000001 -0.000004 0.000000 0.000000 1.466046
    14 3.899458 -0.475375 1.170885 -0.069014 0.069822 -0.026114
    15 1.528219 0.000000 0.000005 0.000000 0.000000 1.047176
    16 1.528215 0.000000 -0.000005 0.000000 0.000000 1.815102
    17 3.899462 -0.431803 -0.168225 -0.003758 -0.034707 0.130944
    18 1.506963 0.000002 0.000002 0.000000 0.000000 1.082084
    19 1.506962 -0.000001 -0.000002 0.000000 0.000000 1.727834
    20 3.915635 -0.278019 -1.402609 0.304318 -0.057143 -0.007490
    21 1.333085 0.000000 -0.000001 0.000000 0.000000 1.265345
    22 1.159203 0.000001 0.000001 0.000000 0.000000 1.527123
    23 13.333941 0.905789 19.735220 1.582244 -0.018583 -3.126154
  time 6
    0 0.135014 -5.181166 -24.816700 0.000000 0.000000 -1.570795
    1 0.000001 0.000000 0.000000 -0.000086 -1.570451 -1.570709
    2 4.443614 -0.009643 0.000006 -0.000004 -0.000001 0.000796
    3 12.111416 -0.011445 0.000000 0.000000 0.000000 0.000000
    4 0.000005 0.011450 -1.352403 -0.000014 1.370796 3.140783
    5 6.078087 0.000000 0.000002 0.689133 -0.500078 -0.433609
    6 13.446754 0.000000 0.000003 0.000000 0.000000 -2.048997
    7 15.997000 -0.000002 -0.000001 2.301530 -0.245211 -0.024420
    8 1.885330 0.833277 2.177873 1.264233 -0.638137 0.530090
    9 1.506958 0.000001 -0.000003 0.000000 0.000000 -0.488689
    10 0.798352 0.000001 0.000003 0.000000 0.000000 -0.986085
    11 3.950304 -0.539876 2.108868 -0.037808 0.038137 -0.197081
    12 1.545799 0.000000 -0.000002 0.000000 0.000000 1.396235
    13 1.667398 0.000001 -0.000004 0.000000 0.000000 1.466046
    14 3.899458 -0.475375 1.170885 -0.069014 0.069822 -0.026114
    15 1.528219 0.000000 0.000005 0.000000 0.000000 1.047176
    16 1.528215 0.000000 -0.000005 0.000000 0.000000 1.815102
    17 3.899462 -0.431803 -0.168225 -0.003758 -0.034707 0.130944
    18 1.506963 0.000002 0.000002 0.000000 0.000000 1.082084
    19 1.506962 -0.000001 -0.000002 0.000000 0.000000 1.727834
    20 3.915635 -0.278019 -1.402609 0.304318 -0.057143 -0.007490
    21 1.333085 0.000000 -0.000001 0.000000 0.000000 1.265345
    22 1.159203 0.000001 0.000001 0.000000 0.000000 1.527123
    23 13.333941 0.905789 19.735220 1.582244 -0.018583 -3.126154
  time 7
    0 0.135014 -5.181166 -24.816700 0.000000 0.000000 -1.570795
    1 0.000001 0.000000 0.000000 -0.000086 -1.570451 -1.570709
    2 4.443614 -0.009643 0.000006 -0.000004 -0.000001 0.000796
    3 12.111416 -0.011445 0.000000 0.000000 0.000000 0.000000
    4 0.000005 0.011450 -1.352403 -0.000014 1.370796 3.140783
    5 6.078087 0.000000 0.000002 0.745339 -0.510382 -0.604742
    6 13.446754 0.000000 0.000003 0.000000 0.000000 -1.836584
    7 15.997000 -0.000002 -0.000001 2.208817 -0.383421 0.195575
    8 1.885330 0.833277 2.177873 1.264233 -0.638137 0.530090
    9 1.506958 0.000001 -0.000003 0.000000 0.000000 -0.488689
    10 0.798352 0.000001 0.000003 0.000000 0.000000 -0.986085
    11 3.950304 -0.539876 2.108868 -0.037808 0.038137 -0.197081
    12 1.545799 0.000000 -0.000002 0.000000 0.000000 1.396235
    13 1.667398 0.000001 -0.000004 0.000000 0.000000 1.466046
    14 3.899458 -0.475375 1.170885 -0.069014 0.069822 -0.026114
    15 1.528219 0.000000 0.000005 0.000000 0.000000 1.047176
    16 1.528215 0.000000 -0.000005 0.000000 0.000000 1.815102
    17 3.899462 -0.431803 -0.168225 -0.003758 -0.034707 0.130944
    18 1.506963 0.000002 0.000002 0.000000 0.000000 1.082084
    19 1.506962 -0.000001 -0.000002 0.000000 0.000000 1.727834
    20 3.915635 -0.278019 -1.402609 0.304318 -0.057143 -0.007490
    21 1.333085 0.000000 -0.000001 0.000000 0.000000 1.265345
    22 1.159203 0.000001 0.000001 0.000000 0.000000 1.527123
    23 13.333941 0.905789 19.735220 1.582244 -0.018583 -3.126154
  time 8
    0 0.135014 -5.181166 -24.816700 0.000000 0.000000 -1.570795
    1 0.000001 0.000000 0.000000 -0.000086 -1.570451 -1.570709
    2 4.443614 -0.009643 0.000006 -0.000004 -0.000001 0.000796
    3 12.111416 -0.011445 0.000000 0.000000 0.000000 0.000000
    4 0.000005 0.011450 -1.352403 -0.000014 1.370796 3.140783
    5 6.078087 0.000000 0.000002 0.812559 -0.536907 -0.808743
    6 13.446754 0.000000 0.000003 0.000000 0.000000 -1.558712
    7 15.997000 -0.000002 -0.000001 2.042784 -0.502119 0.474191
    8 1.885330 0.833277 2.177873 1.264233 -0.638137 0.530090
    9 1.506958 0.000001 -0.000003 0.000000 0.000000 -0.488689
    10 0.798352 0.000001 0.000003 0.000000 0.000000 -0.986085
    11 3.950304 -0.539876 2.108868 -0.037808 0.038137 -0.197081
    12 1.545799 0.000000 -0.000002 0.000000 0.000000 1.396235
    13 1.667398 0.000001 -0.000004 0.000000 0.000000 1.466046
    14 3.899458 -0.475375 1.170885 -0.069014 0.069822 -0.026114
    15 1.528219 0.000000 0.000005 0.000000 0.000000 1.047176
    16 1.528215 0.000000 -0.000005 0.000000 0.000000 1.815102
    17 3.899462 -0.431803 -0.168225 -0.003758 -0.034707 0.130944
    18 1.506963 0.000002 0.000002 0.000000 0.000000 1.082084
    19 1.506962 -0.000001 -0.000002 0.000000 0.000000 1.727834
    20 3.915635 -0.278019 -1.402609 0.304318 -0.057143 -0.007490
    21 1.333085 0.000000 -0.000001 0.000000 0.000000 1.265345
    22 1.159203 0.000001 0.000001 0.000000 0.000000 1.527123
    23 13.333941 0.905789 19.735220 1.582244 -0.018583 -3.126154
  time 9
    0 0.135014 -5.181166 -24.816700 0.000000 0.000000 -1.570795
    1 0.000001 0.000000 0.000000 -0.000086 -1.570451 -1.570709
    2 4.443614 -0.009643 0.000006 -0.000004 -0.000001 0.000796
    3 12.111416 -0.011445 0.000000 0.000000 0.000000 0.000000
    4 0.000005 0.011450 -1.352403 -0.000014 1.370796 3.140783
    5 6.078087 0.000000 0.000002 0.883434 -0.583046 -1.006065
    6 13.446754 0.000000 0.000003 0.000000 0.000000 -1.265441
    7 15.997000 -0.000002 -0.000001 1.845058 -0.563104 0.759815
    8 1.885330 0.833277 2.177873 1.264233 -0.638137 0.530090
    9 1.506958 0.000001 -0.000003 0.000000 0.000000 -0.488689
    10 0.798352 0.000001 0.000003 0.000000 0.000000 -0.986085
    11 3.950304 -0.539876 2.108868 -0.037808 0.038137 -0.197081
    12 1.545799 0.000000 -0.000002 0.000000 0.000000 1.396235
    13 1.667398 0.000001 -0.000004 0.000000 0.000000 1.466046
    14 3.899458 -0.475375 1.170885 -0.069014 0.069822 -0.026114
    15 1.528219 0.000000 0.000005 0.000000 0.000000 1.047176
    16 1.528215 0.000000 -0.000005 0.000000 0.000000 1.815102
    17 3.899462 -0.431803 -0.168225 -0.003758 -0.034707 0.130944
    18 1.506963 0.000002 0.000002 0.000000 0.000000 1.082084
    19 1.506962 -0.000001 -0.000002 0.000000 0.000000 1.727834
    20 3.915635 -0.278019 -1.402609 0.304318 -0.057143 -0.007490
    21 1.333085 0.000000 -0.000001 0.000000 0.000000 1.265345
    22 1.159203 0.000001 0.000001 0.000000 0.000000 1.527123
    23 13.333941 0.905789 19.735220 1.582244 -0.018583 -3.126154
  time 10
    0 0.135014 -5.181166 -24.816700 0.000000 0.000000 -1.570795
    1 0.000001 0.000000 0.000000 -0.000086 -1.570451 -1.570709
    2 4.443614 -0.009643 0.000006 -0.000004 -0.000001 0.000796
    3 12.111416 -0.011445 0.000000 0.000000 0.000000 0.000000
    4 0.000005 0.011450 -1.352403 -0.000014 1.370796 3.140783
    5 6.078087 0.000000 0.000002 0.949780 -0.659228 -1.157454
    6 13.446754 0.000000 0.000003 0.000000 0.000000 -1.007149
    7 15.997000 -0.000002 -0.000001 1.690866 -0.571813 0.968860
    8 1.885330 0.833277 2.177873 1.264233 -0.638137 0.530090
    9 1.506958 0.000001 -0.000003 0.000000 0.000000 -0.488689
    10 0.798352 0.000001 0.000003 0.000000 0.000000 -0.986085
    11 3.950304 -0.539876 2.108868 -0.037808 0.038137 -0.197081
    12 1.545799 0.000000 -0.000002 0.000000 0.000000 1.396235
    13 1.667398 0.000001 -0.000004 0.000000 0.000000 1.466046
    14 3.899458 -0.475375 1.170885 -0.069014 0.069822 -0.026114
    15 1.528219 0.000000 0.000005 0.000000 0.000000 1.047176
    16 1.528215 0.000000 -0.000005 0.000000 0.000000 1.815102
    17 3.899462 -0.431803 -0.168225 -0.003758 -0.034707 0.130944
    18 1.506963 0.000002 0.000002 0.000000 0.000000 1.082084
    19 1.506962 -0.000001 -0.000002 0.000000 0.000000 1.727834
    20 3.915635 -0.278019 -1.402609 0.304318 -0.057143 -0.007490
    21 1.333085 0.000000 -0.000001 0.000000 0.000000 1.265345
    22 1.159203 0.000001 0.000001 0.000000 0.000000 1.527123
    23 13.333941 0.905789 19.735220 1.582244 -0.018583 -3.126154
  time 11
    0 0.135014 -5.181166 -24.816700 0.000000 0.000000 -1.570795
    1 0.000001 0.000000 0.000000 -0.000086 -1.570451 -1.570709
    2 4.443614 -0.009643 0.000006 -0.000004 -0.000001 0.000796
    3 12.111416 -0.011445 0.000000 0.000000 0.000000 0.000000
    4 0.000005 0.011450 -1.352403 -0.000014 1.370796 3.140783
    5 6.078087 0.000000 0.000002 1.028375 -0.876891 -1.244632
    6 13.446754 0.000000 0.000003 0.000000 0.000000 -0.740430
    7 15.997000 -0.000002 -0.000001 1.639738 -0.556161 1.008829
    8 1.885330 0.833277 2.177873 1.264233 -0.638137 0.530090
    9 1.506958 0.000001 -0.000003 0.000000 0.000000 -0.488689
    10 0.798352 0.000001 0.000003 0.000000 0.000000 -0.986085
    11 3.950304 -0.539876 2.108868 -0.037808 0.038137 -0.197081
    12 1.545799 0.000000 -0.000002 0.000000 0.000000 1.396235
    13 1.667398 0.000001 -0.000004 0.000000 0.000000 1.466046
    14 3.899458 -0.475375 1.170885 -0.069014 0.069822 -0.026114
    15 1.528219 0.000000 0.000005 0.000000 0.000000 1.047176
    16 1.528215 0.000000 -0.000005 0.000000 0.000000 1.815102
    17 3.899462 -0.431803 -0.168225 -0.003758 -0.034707 0.130944
    18 1.506963 0.000002 0.000002 0.000000 0.000000 1.082084
    19 1.506962 -0.000001 -0.000002 0.000000 0.000000 1.727834
    20 3.915635 -0.278019 -1.402609 0.304318 -0.057143 -0.007490
    21 1.333085 0.000000 -0.000001 0.000000 0.000000 1.265345
    22 1.159203 0.000001 0.000001 0.000000 0.000000 1.527123
    23 13.333941 0.905789 19.735220 1.582244 -0.018583 -3.126154
  time 12
    0 0.135014 -5.181166 -24.816700 0.000000 0.000000 -1.570795
    1 0.000001 0.000000 0.000000 -0.000086 -1.570451 -1.570709
    2 4.443614 -0.009643 0.000006 -0.000004 -0.000001 0.000796
    3 12.111416 -0.011445 0.000000 0.000000 0.000000 0.000000
    4 0.000005 0.011450 -1.352403 -0.000014 1.370796 3.140783
    5 6.078087 0.000000 0.000002 1.163074 -1.190019 -1.338488
    6 13.446754 0.000000 0.000003 0.000000 0.000000 -0.477766
    7 15.997000 -0.000002 -0.000001 1.662872 -0.529822 0.911698
    8 1.885330 0.833277 2.177873 1.264233 -0.638137 0.530090
    9 1.506958 0.000001 -0.000003 0.000000 0.000000 -0.488689
    10 0.798352 0.000001 0.000003 0.000000 0.000000 -0.986111
    11 3.950304 -0.539876 2.108868 -0.037808 0.038137 -0.197081
    12 1.545799 0.000000 -0.000002 0.000000 0.000000 1.396235
    13 1.667398 0.000001 -0.000004 0.000000 0.000000 1.466046
    14 3.899458 -0.475375 1.170885 -0.069014 0.069822 -0.026114
    15 1.528219 0.000000 0.000005 0.000000 0.000000 1.047176
    16 1.528215 0.000000 -0.000005 0.000000 0.000000 1.815102
    17 3.899462 -0.431803 -0.168225 -0.003758 -0.034707 0.130944
    18 1.506963 0.000002 0.000002 0.000000 0.000000 1.082104
    19 1.506962 -0.000001 -0.000002 0.000000 0.000000 1.727834
    20 3.915635 -0.278019 -1.402609 0.304318 -0.057143 -0.007490
    21 1.333085 0.000000 -0.000001 0.000000 0.000000 1.265345
    22 1.159203 0.000001 0.000001 0.000000 0.000000 1.527123
    23 13.333941 0.905789 19.735220 1.582244 -0.018583 -3.126154
  time 13
    0 0.135014 -5.181166 -24.816700 0.000000 0.000000 -1.570795
    1 0.000001 0.000000 0.000000 -0.000086 -1.570451 -1.570709
    2 4.443614 -0.009643 0.000006 -0.000004 -0.000001 0.000796
    3 12.111416 -0.011445 0.000000 0.000000 0.000000 0.000000
    4 0.000005 0.011450 -1.352403 -0.000014 1.370796 3.140783
    5 6.078087 0.000000 0.000002 1.327111 -1.378550 -1.470309
    6 13.446754 0.000000 0.000003 0.000000 0.000000 -0.352486
    7 15.997000 -0.000002 -0.000001 1.701349 -0.496847 0.780913
    8 1.885330 0.833277 2.177873 1.264233 -0.638137 0.530090
    9 1.506958 0.000001 -0.000003 0.000000 0.000000 -0.488689
    10 0.798352 0.000001 0.000003 0.000000 0.000000 -0.986085
    11 3.950304 -0.539876 2.108868 -0.037808 0.038137 -0.197081
    12 1.545799 0.000000 -0.000002 0.000000 0.000000 1.396235
    13 1.667398 0.000001 -0.000004 0.000000 0.000000 1.466046
    14 3.899458 -0.475375 1.170885 -0.069014 0.069822 -0.026114
    15 1.528219 0.000000 0.000005 0.000000 0.000000 1.047176
    16 1.528215 0.000000 -0.000005 0.000000 0.000000 1.815102
    17 3.899462 -0.431803 -0.168225 -0.003758 -0.034707 0.130944
    18 1.506963 0.000002 0.000002 0.000000 0.000000 1.082084
    19 1.506962 -0.000001 -0.000002 0.000000 0.000000 1.727834
    20 3.915635 -0.278019 -1.402609 0.304318 -0.057143 -0.007490
    21 1.333085 0.000000 -0.000001 0.000000 0.000000 1.265345
    22 1.159203 0.000001 0.000001 0.000000 0.000000 1.527123
    23 13.333941 0.905789 19.735220 1.582244 -0.018583 -3.126154
  time 14
    0 0.135014 -5.181166 -24.816700 0.000000 0.000000 -1.570795
    1 0.000001 0.000000 0.000000 -0.000086 -1.570451 -1.570709
    2 4.443614 -0.009643 0.000006 -0.000004 -0.000001 0.000796
    3 12.111416 -0.011445 0.000000 0.000000 0.000000 0.000000
    4 0.000005 0.011450 -1.352403 -0.000014 1.370796 3.140783
    5 6.078087 0.000000 0.000002 1.226023 -1.400772 -1.360986
    6 13.446754 0.000000 0.000003 0.000000 0.000000 -0.389746
    7 15.997000 -0.000002 -0.000001 1.732954 -0.460458 0.656699
    8 1.885330 0.833277 2.177873 1.264233 -0.638137 0.530090
    9 1.506958 0.000001 -0.000003 0.000000 0.000000 -0.488689
    10 0.798352 0.000001 0.000003 0.000000 0.000000 -0.986085
    11 3.950304 -0.539876 2.108868 -0.037808 0.038137 -0.197081
    12 1.545799 0.000000 -0.000002 0.000000 0.000000 1.396235
    13 1.667398 0.000001 -0.000004 0.000000 0.000000 1.466046
    14 3.899458 -0.475375 1.170885 -0.069014 0.069822 -0.026114
    15 1.528219 0.000000 0.000005 0.000000 0.000000 1.047176
    16 1.528215 0.000000 -0.000005 0.000000 0.000000 1.815102
    17 3.899462 -0.431803 -0.168225 -0.003758 -0.034707 0.130944
    18 1.506963 0.000002 0.000002 0.000000 0.000000 1.082084
    19 1.506962 -0.000001 -0.000002 0.000000 0.000000 1.727834
    20 3.915635 -0.278019 -1.402609 0.304318 -0.057143 -0.007490
    21 1.333085 0.000000 -0.000001 0.000000 0.000000 1.265345
    22 1.159203 0.000001 0.000001 0.000000 0.000000 1.527123
    23 13.333941 0.905789 19.735220 1.582244 -0.018583 -3.126154
  time 15
    0 0.135014 -5.181166 -24.816700 0.000000 0.000000 -1.570795
    1 0.000001 0.000000 0.000000 -0.000086 -1.570451 -1.570709
    2 4.443614 -0.009643 0.000006 -0.000004 -0.000001 0.000796
    3 12.111416 -0.011445 0.000000 0.000000 0.000000 0.000000
    4 0.000005 0.011450 -1.352403 -0.000014 1.370796 3.140783
    5 6.078087 0.000000 0.000002 1.004905 -1.359308 -1.134722
    6 13.446754 0.000000 0.000003 0.000000 0.000000 -0.500959
    7 15.997000 -0.000002 -0.000001 1.766550 -0.416891 0.519307
    8 1.885330 0.833277 2.177873 1.264233 -0.638137 0.530090
    9 1.506958 0.000001 -0.000003 0.000000 0.000000 -0.488689
    10 0.798352 0.000001 0.000003 0.000000 0.000000 -0.986085
    11 3.950304 -0.539876 2.108868 -0.037808 0.038137 -0.197081
    12 1.545799 0.000000 -0.000002 0.000000 0.000000 1.396235
    13 1.667398 0.000001 -0.000004 0.000000 0.000000 1.466046
    14 3.899458 -0.475375 1.170885 -0.069014 0.069822 -0.026114
    15 1.528219 0.000000 0.000005 0.000000 0.000000 1.047176
    16 1.528215 0.000000 -0.000005 0.000000 0.000000 1.815102
    17 3.899462 -0.431803 -0.168225 -0.003758 -0.034707 0.130944
    18 1.506963 0.000002 0.000002 0.000000 0.000000 1.082084
    19 1.506962 -0.000001 -0.000002 0.000000 0.000000 1.727834
    20 3.915635 -0.278019 -1.402609 0.304318 -0.057143 -0.007490
    21 1.333085 0.000000 -0.000001 0.000000 0.000000 1.265345
    22 1.159203 0.000001 0.000001 0.000000 0.000000 1.527123
    23 13.333941 0.905789 19.735220 1.582244 -0.018583 -3.126154
  time 16
    0 0.135014 -5.181166 -24.816700 0.000000 0.000000 -1.570795
    1 0.000001 0.000000 0.000000 -0.000086 -1.570451 -1.570709
    2 4.443614 -0.009643 0.000006 -0.000004 -0.000001 0.000796
    3 12.111416 -0.011445 0.000000 0.000000 0.000000 0.000000
    4 0.000005 0.011450 -1.352403 -0.000014 1.370796 3.140783
    5 6.078087 0.000000 0.000002 0.852552 -1.273484 -0.979173
    6 13.446754 0.000000 0.000003 0.000000 0.000000 -0.649432
    7 15.997000 -0.000002 -0.000001 1.796907 -0.366851 0.376623
    8 1.885330 0.833277 2.177873 1.264233 -0.638137 0.530090
    9 1.506958 0.000001 -0.000003 0.000000 0.000000 -0.488689
    10 0.798352 0.000001 0.000003 0.000000 0.000000 -0.986085
    11 3.950304 -0.539876 2.108868 -0.037808 0.038137 -0.197081
    12 1.545799 0.000000 -0.000002 0.000000 0.000000 1.396235
    13 1.667398 0.000001 -0.000004 0.000000 0.000000 1.466046
    14 3.899458 -0.475375 1.170885 -0.069014 0.069822 -0.026114
    15 1.528219 0.000000 0.000005 0.000000 0.000000 1.047176
    16 1.528215 0.000000 -0.000005 0.000000 0.000000 1.815102
    17 3.899462 -0.431803 -0.168225 -0.003758 -0.034707 0.130944
    18 1.506963 0.000002 0.000002 0.000000 0.000000 1.082084
    19 1.506962 -0.000001 -0.000002 0.000000 0.000000 1.727834
    20 3.915635 -0.278019 -1.402609 0.304318 -0.057143 -0.007490
    21 1.333085 0.000000 -0.000001 0.000000 0.000000 1.265345
    22 1.159203 0.000001 0.000001 0.000000 0.000000 1.527123
    23 13.333941 0.905789 19.735220 1.582244 -0.018583 -3.126154
  time 17
    0 0.135014 -5.181166 -24.816700 0.000000 0.000000 -1.570795
    1 0.000001 0.000000 0.000000 -0.000086 -1.570451 -1.570709
    2 4.443614 -0.009643 0.000006 -0.000004 -0.000001 0.000796
    3 12.111416 -0.011445 0.000000 0.000000 0.000000 0.000000
    4 0.000005 0.011450 -1.352403 -0.000014 1.370796 3.140783
    5 6.078087 0.000000 0.000002 0.770508 -1.172101 -0.894456
    6 13.446754 0.000000 0.000003 0.000000 0.000000 -0.798412
    7 15.997000 -0.000002 -0.000001 1.820064 -0.312386 0.235289
    8 1.885330 0.833277 2.177873 1.264233 -0.638137 0.530090
    9 1.506958 0.000001 -0.000003 0.000000 0.000000 -0.488689
    10 0.798352 0.000001 0.000003 0.000000 0.000000 -0.986085
    11 3.950304 -0.539876 2.108868 -0.037808 0.038137 -0.197081
    12 1.545799 0.000000 -0.000002 0.000000 0.000000 1.396235
    13 1.667398 0.000001 -0.000004 0.000000 0.000000 1.466046
    14 3.899458 -0.475375 1.170885 -0.069014 0.069822 -0.026114
    15 1.528219 0.000000 0.000005 0.000000 0.000000 1.047176
    16 1.528215 0.000000 -0.000005 0.000000 0.000000 1.815102
    17 3.899462 -0.431803 -0.168225 -0.003758 -0.034707 0.130944
    18 1.506963 0.000002 0.000002 0.000000 0.000000 1.082084
    19 1.506962 -0.000001 -0.000002 0.000000 0.000000 1.727834
    20 3.915635 -0.278019 -1.402609 0.304318 -0.057143 -0.007490
    21 1.333085 0.000000 -0.000001 0.000000 0.000000 1.265345
    22 1.159203 0.000001 0.000001 0.000000 0.000000 1.527123
    23 13.333941 0.905789 19.735220 1.582244 -0.018583 -3.126154
  time 18
    0 0.135014 -5.181166 -24.816700 0.000000 0.000000 -1.570795
    1 0.000001 0.000000 0.000000 -0.000086 -1.570451 -1.570709
    2 4.443614 -0.009643 0.000006 -0.000004 -0.000001 0.000796
    3 12.111416 -0.011445 0.000000 0.000000 0.000000 0.000000
    4 0.000005 0.011450 -1.352403 -0.000014 1.370796 3.140783
    5 6.078087 0.000000 0.000002 0.720375 -1.083216 -0.840849
    6 13.446754 0.000000 0.000003 0.000000 0.000000 -0.911209
    7 15.997000 -0.000002 -0.000001 1.833568 -0.256697 0.100927
    8 1.885330 0.833277 2.177873 1.264233 -0.638137 0.530090
    9 1.506958 0.000001 -0.000003 0.000000 0.000000 -0.488689
    10 0.798352 0.000001 0.000003 0.000000 0.000000 -0.986085
    11 3.950304 -0.539876 2.108868 -0.037808 0.038137 -0.197081
    12 1.545799 0.000000 -0.000002 0.000000 0.000000 1.396235
    13 1.667398 0.000001 -0.000004 0.000000 0.000000 1.466046
    14 3.899458 -0.475375 1.170885 -0.069014 0.069822 -0.026114
    15 1.528219 0.000000 0.000005 0.000000 0.000000 1.047176
    16 1.528215 0.000000 -0.000005 0.000000 0.000000 1.815102
    17 3.899462 -0.431803 -0.168225 -0.003758 -0.034707 0.130944
    18 1.506963 0.000002 0.000002 0.000000 0.000000 1.082084
    19 1.506962 -0.000001 -0.000002 0.000000 0.000000 1.727834
    20 3.915635 -0.278019 -1.402609 0.304318 -0.057143 -0.007490
    21 1.333085 0.000000 -0.000001 0.000000 0.000000 1.265345
    22 1.159203 0.000001 0.000001 0.000000 0.000000 1.527123
    23 13.333941 0.905789 19.735220 1.582244 -0.018583 -3.126154
  time 19
    0 0.135014 -5.181166 -24.816700 0.000000 0.000000 -1.570795
    1 0.000001 0.000000 0.000000 -0.000086 -1.570451 -1.570709
    2 4.443614 -0.009643 0.000006 -0.000004 -0.000001 0.000796
    3 12.111416 -0.011445 0.000000 0.000000 0.000000 0.000000
    4 0.000005 0.011450 -1.352403 -0.000014 1.370796 3.140783
    5 6.078087 0.000000 0.000002 0.685890 -0.994619 -0.802767
    6 13.446754 0.000000 0.000003 0.000000 0.000000 -0.938711
    7 15.997000 -0.000002 -0.000001 1.839083 -0.199901 -0.030588
    8 1.885330 0.833277 2.177873 1.264233 -0.638137 0.530090
    9 1.506958 0.000001 -0.000003 0.000000 0.000000 -0.488689
    10 0.798352 0.000001 0.000003 0.000000 0.000000 -0.986085
    11 3.950304 -0.539876 2.108868 -0.037808 0.038137 -0.197081
    12 1.545799 0.000000 -0.000002 0.000000 0.000000 1.396235
    13 1.667398 0.000001 -0.000004 0.000000 0.000000 1.466046
    14 3.899458 -0.475375 1.170885 -0.069014 0.069822 -0.026114
    15 1.528219 0.000000 0.000005 0.000000 0.000000 1.047176
    16 1.528215 0.000000 -0.000005 0.000000 0.000000 1.815102
    17 3.899462 -0.431803 -0.168225 -0.003758 -0.034707 0.130944
    18 1.506963 0.000002 0.000002 0.000000 0.000000 1.082104
    19 1.506962 -0.000001 -0.000002 0.000000 0.000000 1.727834
    20 3.915635 -0.278019 -1.402609 0.304318 -0.057143 -0.007490
    21 1.333085 0.000000 -0.000001 0.000000 0.000000 1.265345
    22 1.159203 0.000001 0.000001 0.000000 0.000000 1.527123
    23 13.333941 0.905789 19.735220 1.582244 -0.018583 -3.126154
  time 20
    0 0.135014 -5.181166 -24.816700 0.000000 0.000000 -1.570795
    1 0.000001 0.000000 0.000000 -0.000086 -1.570451 -1.570709
    2 4.443614 -0.009643 0.000006 -0.000004 -0.000001 0.000796
    3 12.111416 -0.011445 0.000000 0.000000 0.000000 0.000000
    4 0.000005 0.011450 -1.352403 -0.000014 1.370796 3.140783
    5 6.078087 0.000000 0.000002 0.662677 -0.895968 -0.776403
    6 13.446754 0.000000 0.000003 0.000000 0.000000 -0.929649
    7 15.997000 -0.000002 -0.000001 1.837507 -0.141929 -0.162724
    8 1.885330 0.833277 2.177873 1.264233 -0.638137 0.530090
    9 1.506958 0.000001 -0.000003 0.000000 0.000000 -0.488689
    10 0.798352 0.000001 0.000003 0.000000 0.000000 -0.986085
    11 3.950304 -0.539876 2.108868 -0.037808 0.038137 -0.197081
    12 1.545799 0.000000 -0.000002 0.000000 0.000000 1.396235
    13 1.667398 0.000001 -0.000004 0.000000 0.000000 1.466046
    14 3.899458 -0.475375 1.170885 -0.069014 0.069822 -0.026114
    15 1.528219 0.000000 0.000005 0.000000 0.000000 1.047176
    16 1.528215 0.000000 -0.000005 0.000000 0.000000 1.815102
    17 3.899462 -0.431803 -0.168225 -0.003758 -0.034707 0.130944
    18 1.506963 0.000002 0.000002 0.000000 0.000000 1.082084
    19 1.506962 -0.000001 -0.000002 0.000000 0.000000 1.727834
    20 3.915635 -0.278019 -1.402609 0.304318 -0.057143 -0.007490
    21 1.333085 0.000000 -0.000001 0.000000 0.000000 1.265345
    22 1.159203 0.000001 0.000001 0.000000 0.000000 1.527123
    23 13.333941 0.905789 19.735220 1.582244 -0.018583 -3.126154
end
