// Created by Crowbar 0.74
version 1
nodes
  0 "Bip01" -1
  1 "Bip01 Pelvis" 0
  2 "Bip01 Spine" 1
  3 "Bip01 Neck" 2
  4 "Bip01 R Clavicle" 3
  5 "Bip01 R UpperArm" 4
  6 "Bip01 R Forearm" 5
  7 "Bip01 R Hand" 6
  8 "Bip01 R Finger0" 7
  9 "Bip01 R Finger01" 8
  10 "Bip01 R Finger02" 9
  11 "Bip01 R Finger1" 7
  12 "Bip01 R Finger11" 11
  13 "Bip01 R Finger12" 12
  14 "Bip01 R Finger2" 7
  15 "Bip01 R Finger21" 14
  16 "Bip01 R Finger22" 15
  17 "Bip01 R Finger3" 7
  18 "Bip01 R Finger31" 17
  19 "Bip01 R Finger32" 18
  20 "Bip01 R Finger4" 7
  21 "Bip01 R Finger41" 20
  22 "Bip01 R Finger42" 21
  23 "tip" 7
end
skeleton
  time 0
    0 0.135014 -5.181166 -24.816700 0.000000 0.000000 -1.570795
    1 0.000001 0.000000 0.000000 -0.000086 -1.570451 -1.570709
    2 4.443614 -0.009643 0.000006 -0.000004 -0.000001 0.000796
    3 12.111416 -0.011445 0.000000 0.000000 0.000000 0.000000
    4 0.000005 0.011450 -1.352403 -0.000014 1.370796 3.140783
    5 6.078087 -0.000001 0.000002 0.662677 -0.895968 -0.776403
    6 13.446750 -0.000001 0.000001 0.000000 0.000000 -1.296175
    7 15.997001 0.000001 0.000000 2.023414 -0.208587 -0.028106
    8 1.885328 0.833276 2.177873 1.264233 -0.638137 0.530090
    9 1.506963 -0.000002 -0.000001 0.000000 0.000000 -0.488689
    10 0.798352 -0.000001 0.000000 0.000000 0.000000 -0.986085
    11 3.950301 -0.539875 2.108870 -0.037808 0.038137 -0.197081
    12 1.545802 0.000000 -0.000004 0.000000 0.000000 1.396235
    13 1.667398 -0.000005 0.000006 0.000000 0.000000 1.466046
    14 3.899461 -0.475376 1.170885 -0.069014 0.069822 -0.026114
    15 1.528217 0.000000 -0.000002 0.000000 0.000000 1.047176
    16 1.528216 -0.000004 0.000003 0.000000 0.000000 1.815102
    17 3.899461 -0.431803 -0.168225 -0.003758 -0.034707 0.130944
    18 1.506967 -0.000002 -0.000005 0.000000 0.000000 1.082084
    19 1.506964 0.000000 -0.000002 0.000000 0.000000 1.727834
    20 3.915633 -0.278020 -1.402612 0.304318 -0.057143 -0.007490
    21 1.333087 -0.000003 -0.000001 0.000000 0.000000 1.265345
    22 1.159205 0.000001 0.000001 0.000000 0.000000 1.527123
    23 13.333947 0.905789 19.735224 1.582244 -0.018583 -3.126154
  time 1
    0 0.135014 -5.181166 -24.816700 0.000000 0.000000 -1.570795
    1 0.000001 0.000000 0.000000 -0.000086 -1.570451 -1.570709
    2 4.443614 -0.009643 0.000006 -0.000004 -0.000001 0.000796
    3 12.111416 -0.011445 0.000000 0.000000 0.000000 0.000000
    4 0.000005 0.011450 -1.352403 -0.000014 1.370796 3.140783
    5 6.078087 -0.000001 0.000002 0.728662 -0.777412 -0.782086
    6 13.446750 -0.000001 0.000001 0.000000 0.000000 -1.413027
    7 15.997001 0.000001 0.000000 1.990978 -0.116580 -0.196707
    8 1.885328 0.833276 2.177873 1.264233 -0.638137 0.530090
    9 1.506963 -0.000002 -0.000001 0.000000 0.000000 -0.488689
    10 0.798352 -0.000001 0.000000 0.000000 0.000000 -0.986085
    11 3.950301 -0.539875 2.108870 -0.037808 0.038137 -0.197081
    12 1.545802 0.000000 -0.000004 0.000000 0.000000 1.396235
    13 1.667398 -0.000005 0.000006 0.000000 0.000000 1.466046
    14 3.899461 -0.475376 1.170885 -0.069014 0.069822 -0.026114
    15 1.528217 0.000000 -0.000002 0.000000 0.000000 1.047176
    16 1.528216 -0.000004 0.000003 0.000000 0.000000 1.815102
    17 3.899461 -0.431803 -0.168225 -0.003758 -0.034707 0.130944
    18 1.506967 -0.000002 -0.000005 0.000000 0.000000 1.082084
    19 1.506964 0.000000 -0.000002 0.000000 0.000000 1.727834
    20 3.915633 -0.278020 -1.402612 0.304318 -0.057143 -0.007490
    21 1.333087 -0.000003 -0.000001 0.000000 0.000000 1.265345
    22 1.159205 0.000001 0.000001 0.000000 0.000000 1.527123
    23 13.333947 0.905789 19.735224 1.582244 -0.018583 -3.126154
  time 2
    0 0.135014 -5.181166 -24.816700 0.000000 0.000000 -1.570795
    1 0.000001 0.000000 0.000000 -0.000086 -1.570451 -1.570709
    2 4.443614 -0.009643 0.000006 -0.000004 -0.000001 0.000796
    3 12.111416 -0.011445 0.000000 0.000000 0.000000 0.000000
    4 0.000005 0.011450 -1.352403 -0.000014 1.370796 3.140783
    5 6.078087 -0.000001 0.000002 0.787339 -0.658897 -0.777340
    6 13.446750 -0.000001 0.000001 0.000000 0.000000 -1.529943
    7 15.997001 0.000001 0.000000 1.943812 -0.031281 -0.367096
    8 1.885328 0.833276 2.177873 1.264233 -0.638137 0.530090
    9 1.506963 -0.000002 -0.000001 0.000000 0.000000 -0.488689
    10 0.798352 -0.000001 0.000000 0.000000 0.000000 -0.986085
    11 3.950301 -0.539875 2.108870 -0.037808 0.038137 -0.197081
    12 1.545802 0.000000 -0.000004 0.000000 0.000000 1.396235
    13 1.667398 -0.000005 0.000006 0.000000 0.000000 1.466046
    14 3.899461 -0.475376 1.170885 -0.069014 0.069822 -0.026114
    15 1.528217 0.000000 -0.000002 0.000000 0.000000 1.047176
    16 1.528216 -0.000004 0.000003 0.000000 0.000000 1.815102
    17 3.899461 -0.431803 -0.168225 -0.003758 -0.034707 0.130944
    18 1.506967 -0.000002 -0.000005 0.000000 0.000000 1.082084
    19 1.506964 0.000000 -0.000002 0.000000 0.000000 1.727834
    20 3.915633 -0.278020 -1.402612 0.304318 -0.057143 -0.007490
    21 1.333087 -0.000003 -0.000001 0.000000 0.000000 1.265345
    22 1.159205 0.000001 0.000001 0.000000 0.000000 1.527123
    23 13.333947 0.905789 19.735224 1.582244 -0.018583 -3.126154
  time 3
    0 0.135014 -5.181166 -24.816700 0.000000 0.000000 -1.570795
    1 0.000001 0.000000 0.000000 -0.000086 -1.570451 -1.570709
    2 4.443614 -0.009643 0.000006 -0.000004 -0.000001 0.000796
    3 12.111416 -0.011445 0.000000 0.000000 0.000000 0.000000
    4 0.000005 0.011450 -1.352403 -0.000014 1.370796 3.140783
    5 6.078087 -0.000001 0.000002 0.850030 -0.601130 -0.801009
    6 13.446750 -0.000001 0.000001 0.000000 0.000000 -1.557952
    7 15.997001 0.000001 0.000000 1.919911 0.013322 -0.484412
    8 1.885328 0.833276 2.177873 1.264233 -0.638137 0.530090
    9 1.506963 -0.000002 -0.000001 0.000000 0.000000 -0.488689
    10 0.798352 -0.000001 0.000000 0.000000 0.000000 -0.986085
    11 3.950301 -0.539875 2.108870 -0.037808 0.038137 -0.197081
    12 1.545802 0.000000 -0.000004 0.000000 0.000000 1.396235
    13 1.667398 -0.000005 0.000006 0.000000 0.000000 1.466046
    14 3.899461 -0.475376 1.170885 -0.069014 0.069822 -0.026114
    15 1.528217 0.000000 -0.000002 0.000000 0.000000 1.047176
    16 1.528216 -0.000004 0.000003 0.000000 0.000000 1.815102
    17 3.899461 -0.431803 -0.168225 -0.003758 -0.034707 0.130944
    18 1.506967 -0.000002 -0.000005 0.000000 0.000000 1.082084
    19 1.506964 0.000000 -0.000002 0.000000 0.000000 1.727834
    20 3.915633 -0.278020 -1.402612 0.304318 -0.057143 -0.007490
    21 1.333087 -0.000003 -0.000001 0.000000 0.000000 1.265345
    22 1.159205 0.000001 0.000001 0.000000 0.000000 1.527123
    23 13.333947 0.905789 19.735224 1.582244 -0.018583 -3.126154
  time 4
    0 0.135014 -5.181166 -24.816700 0.000000 0.000000 -1.570795
    1 0.000001 0.000000 0.000000 -0.000086 -1.570451 -1.570709
    2 4.443614 -0.009643 0.000006 -0.000004 -0.000001 0.000796
    3 12.111416 -0.011445 0.000000 0.000000 0.000000 0.000000
    4 0.000005 0.011450 -1.352403 -0.000014 1.370796 3.140783
    5 6.078087 -0.000001 0.000002 0.936192 -0.633241 -0.878579
    6 13.446750 -0.000001 0.000001 0.000000 0.000000 -1.474748
    7 15.997001 0.000001 0.000000 1.941448 0.026762 -0.546099
    8 1.885328 0.833276 2.177873 1.264233 -0.638137 0.530090
    9 1.506963 -0.000002 -0.000001 0.000000 0.000000 -0.488689
    10 0.798352 -0.000001 0.000000 0.000000 0.000000 -0.986085
    11 3.950301 -0.539875 2.108870 -0.037808 0.038137 -0.197081
    12 1.545802 0.000000 -0.000004 0.000000 0.000000 1.396235
    13 1.667398 -0.000005 0.000006 0.000000 0.000000 1.466046
    14 3.899461 -0.475376 1.170885 -0.069014 0.069822 -0.026114
    15 1.528217 0.000000 -0.000002 0.000000 0.000000 1.047176
    16 1.528216 -0.000004 0.000003 0.000000 0.000000 1.815102
    17 3.899461 -0.431803 -0.168225 -0.003758 -0.034707 0.130944
    18 1.506967 -0.000002 -0.000005 0.000000 0.000000 1.082084
    19 1.506964 0.000000 -0.000002 0.000000 0.000000 1.727834
    20 3.915633 -0.278020 -1.402612 0.304318 -0.057143 -0.007490
    21 1.333087 -0.000003 -0.000001 0.000000 0.000000 1.265345
    22 1.159205 0.000001 0.000001 0.000000 0.000000 1.527123
    23 13.333947 0.905789 19.735224 1.582244 -0.018583 -3.126154
  time 5
    0 0.135014 -5.181166 -24.816700 0.000000 0.000000 -1.570795
    1 0.000001 0.000000 0.000000 -0.000086 -1.570451 -1.570709
    2 4.443614 -0.009643 0.000006 -0.000004 -0.000001 0.000796
    3 12.111416 -0.011445 0.000000 0.000000 0.000000 0.000000
    4 0.000005 0.011450 -1.352403 -0.000014 1.370796 3.140783
    5 6.078087 -0.000001 0.000002 1.052155 -0.706816 -1.001612
    6 13.446750 -0.000001 0.000001 0.000000 0.000000 -1.333499
    7 15.997001 0.000001 0.000000 1.988986 0.027727 -0.580447
    8 1.885328 0.833276 2.177873 1.264233 -0.638137 0.530090
    9 1.506963 -0.000002 -0.000001 0.000000 0.000000 -0.488689
    10 0.798352 -0.000001 0.000000 0.000000 0.000000 -0.986085
    11 3.950301 -0.539875 2.108870 -0.037808 0.038137 -0.197081
    12 1.545802 0.000000 -0.000004 0.000000 0.000000 1.396235
    13 1.667398 -0.000005 0.000006 0.000000 0.000000 1.466046
    14 3.899461 -0.475376 1.170885 -0.069014 0.069822 -0.026114
    15 1.528217 0.000000 -0.000002 0.000000 0.000000 1.047176
    16 1.528216 -0.000004 0.000003 0.000000 0.000000 1.815102
    17 3.899461 -0.431803 -0.168225 -0.003758 -0.034707 0.130944
    18 1.506967 -0.000002 -0.000005 0.000000 0.000000 1.082084
    19 1.506964 0.000000 -0.000002 0.000000 0.000000 1.727834
    20 3.915633 -0.278020 -1.402612 0.304318 -0.057143 -0.007490
    21 1.333087 -0.000003 -0.000001 0.000000 0.000000 1.265345
    22 1.159205 0.000001 0.000001 0.000000 0.000000 1.527123
    23 13.333947 0.905789 19.735224 1.582244 -0.018583 -3.126154
  time 6
    0 0.135014 -5.181166 -24.816700 0.000000 0.000000 -1.570795
    1 0.000001 0.000000 0.000000 -0.000086 -1.570451 -1.570709
    2 4.443614 -0.009643 0.000006 -0.000004 -0.000001 0.000796
    3 12.111416 -0.011445 0.000000 0.000000 0.000000 0.000000
    4 0.000005 0.011450 -1.352403 -0.000014 1.370796 3.140783
    5 6.078087 -0.000001 0.000002 1.175015 -0.768267 -1.146264
    6 13.446750 -0.000001 0.000001 0.000000 0.000000 -1.158411
    7 15.997001 0.000001 0.000000 2.047358 0.002683 -0.575373
    8 1.885328 0.833276 2.177873 1.264233 -0.638137 0.530090
    9 1.506963 -0.000002 -0.000001 0.000000 0.000000 -0.488689
    10 0.798352 -0.000001 0.000000 0.000000 0.000000 -0.986085
    11 3.950301 -0.539875 2.108870 -0.037808 0.038137 -0.197081
    12 1.545802 0.000000 -0.000004 0.000000 0.000000 1.396235
    13 1.667398 -0.000005 0.000006 0.000000 0.000000 1.466046
    14 3.899461 -0.475376 1.170885 -0.069014 0.069822 -0.026114
    15 1.528217 0.000000 -0.000002 0.000000 0.000000 1.047176
    16 1.528216 -0.000004 0.000003 0.000000 0.000000 1.815102
    17 3.899461 -0.431803 -0.168225 -0.003758 -0.034707 0.130944
    18 1.506967 -0.000002 -0.000005 0.000000 0.000000 1.082084
    19 1.506964 0.000000 -0.000002 0.000000 0.000000 1.727834
    20 3.915633 -0.278020 -1.402612 0.304318 -0.057143 -0.007490
    21 1.333087 -0.000003 -0.000001 0.000000 0.000000 1.265345
    22 1.159205 0.000001 0.000001 0.000000 0.000000 1.527123
    23 13.333947 0.905789 19.735224 1.582244 -0.018583 -3.126154
  time 7
    0 0.135014 -5.181166 -24.816700 0.000000 0.000000 -1.570795
    1 0.000001 0.000000 0.000000 -0.000086 -1.570451 -1.570709
    2 4.443614 -0.009643 0.000006 -0.000004 -0.000001 0.000796
    3 12.111416 -0.011445 0.000000 0.000000 0.000000 0.000000
    4 0.000005 0.011450 -1.352403 -0.000014 1.370796 3.140783
    5 6.078087 -0.000001 0.000002 1.248206 -0.778032 -1.255587
    6 13.446750 -0.000001 0.000001 0.000000 0.000000 -0.973754
    7 15.997001 0.000001 0.000000 2.098157 -0.064492 -0.520621
    8 1.885328 0.833276 2.177873 1.264233 -0.638137 0.530090
    9 1.506963 -0.000002 -0.000001 0.000000 0.000000 -0.488689
    10 0.798352 -0.000001 0.000000 0.000000 0.000000 -0.986085
    11 3.950301 -0.539875 2.108870 -0.037808 0.038137 -0.197081
    12 1.545802 0.000000 -0.000004 0.000000 0.000000 1.396235
    13 1.667398 -0.000005 0.000006 0.000000 0.000000 1.466046
    14 3.899461 -0.475376 1.170885 -0.069014 0.069822 -0.026114
    15 1.528217 0.000000 -0.000002 0.000000 0.000000 1.047176
    16 1.528216 -0.000004 0.000003 0.000000 0.000000 1.815102
    17 3.899461 -0.431803 -0.168225 -0.003758 -0.034707 0.130944
    18 1.506967 -0.000002 -0.000005 0.000000 0.000000 1.082084
    19 1.506964 0.000000 -0.000002 0.000000 0.000000 1.727834
    20 3.915633 -0.278020 -1.402612 0.304318 -0.057143 -0.007490
    21 1.333087 -0.000003 -0.000001 0.000000 0.000000 1.265345
    22 1.159205 0.000001 0.000001 0.000000 0.000000 1.527123
    23 13.333947 0.905789 19.735224 1.582244 -0.018583 -3.126154
  time 8
    0 0.135014 -5.181166 -24.816700 0.000000 0.000000 -1.570795
    1 0.000001 0.000000 0.000000 -0.000086 -1.570451 -1.570709
    2 4.443614 -0.009643 0.000006 -0.000004 -0.000001 0.000796
    3 12.111416 -0.011445 0.000000 0.000000 0.000000 0.000000
    4 0.000005 0.011450 -1.352403 -0.000014 1.370796 3.140783
    5 6.078087 -0.000001 0.000002 1.197508 -0.675698 -1.274511
    6 13.446750 -0.000001 0.000001 0.000000 0.000000 -0.732192
    7 15.997001 0.000001 0.000000 2.138013 -0.225533 -0.360781
    8 1.885328 0.833276 2.177873 1.264233 -0.638137 0.530090
    9 1.506963 -0.000002 -0.000001 0.000000 0.000000 -0.488689
    10 0.798352 -0.000001 0.000000 0.000000 0.000000 -0.986085
    11 3.950301 -0.539875 2.108870 -0.037808 0.038137 -0.197081
    12 1.545802 0.000000 -0.000004 0.000000 0.000000 1.396235
    13 1.667398 -0.000005 0.000006 0.000000 0.000000 1.466046
    14 3.899461 -0.475376 1.170885 -0.069014 0.069822 -0.026114
    15 1.528217 0.000000 -0.000002 0.000000 0.000000 1.047176
    16 1.528216 -0.000004 0.000003 0.000000 0.000000 1.815102
    17 3.899461 -0.431803 -0.168225 -0.003758 -0.034707 0.130944
    18 1.506967 -0.000002 -0.000005 0.000000 0.000000 1.082084
    19 1.506964 0.000000 -0.000002 0.000000 0.000000 1.727834
    20 3.915633 -0.278020 -1.402612 0.304318 -0.057143 -0.007490
    21 1.333087 -0.000003 -0.000001 0.000000 0.000000 1.265345
    22 1.159205 0.000001 0.000001 0.000000 0.000000 1.527123
    23 13.333947 0.905789 19.735224 1.582244 -0.018583 -3.126154
  time 9
    0 0.135014 -5.181166 -24.816700 0.000000 0.000000 -1.570795
    1 0.000001 0.000000 0.000000 -0.000086 -1.570451 -1.570709
    2 4.443614 -0.009643 0.000006 -0.000004 -0.000001 0.000796
    3 12.111416 -0.011445 0.000000 0.000000 0.000000 0.000000
    4 0.000005 0.011450 -1.352403 -0.000014 1.370796 3.140783
    5 6.078087 -0.000001 0.000002 1.078868 -0.527637 -1.258751
    6 13.446750 -0.000001 0.000001 0.000000 0.000000 -0.459199
    7 15.997001 0.000001 0.000000 2.116499 -0.455421 -0.106219
    8 1.885328 0.833276 2.177873 1.264233 -0.638137 0.530090
    9 1.506963 -0.000002 -0.000001 0.000000 0.000000 -0.488689
    10 0.798352 -0.000001 0.000000 0.000000 0.000000 -0.986085
    11 3.950301 -0.539875 2.108870 -0.037808 0.038137 -0.197081
    12 1.545802 0.000000 -0.000004 0.000000 0.000000 1.396235
    13 1.667398 -0.000005 0.000006 0.000000 0.000000 1.466046
    14 3.899461 -0.475376 1.170885 -0.069014 0.069822 -0.026114
    15 1.528217 0.000000 -0.000002 0.000000 0.000000 1.047176
    16 1.528216 -0.000004 0.000003 0.000000 0.000000 1.815102
    17 3.899461 -0.431803 -0.168225 -0.003758 -0.034707 0.130944
    18 1.506967 -0.000002 -0.000005 0.000000 0.000000 1.082084
    19 1.506964 0.000000 -0.000002 0.000000 0.000000 1.727834
    20 3.915633 -0.278020 -1.402612 0.304318 -0.057143 -0.007490
    21 1.333087 -0.000003 -0.000001 0.000000 0.000000 1.265345
    22 1.159205 0.000001 0.000001 0.000000 0.000000 1.527123
    23 13.333947 0.905789 19.735224 1.582244 -0.018583 -3.126154
  time 10
    0 0.135014 -5.181166 -24.816700 0.000000 0.000000 -1.570795
    1 0.000001 0.000000 0.000000 -0.000086 -1.570451 -1.570709
    2 4.443614 -0.009643 0.000006 -0.000004 -0.000001 0.000796
    3 12.111416 -0.011445 0.000000 0.000000 0.000000 0.000000
    4 0.000005 0.011450 -1.352403 -0.000014 1.370796 3.140783
    5 6.078087 -0.000001 0.000002 0.975670 -0.498009 -1.249260
    6 13.446750 -0.000001 0.000001 0.000000 0.000000 -0.288483
    7 15.997001 0.000001 0.000000 1.986491 -0.632892 0.168746
    8 1.885328 0.833276 2.177873 1.264233 -0.638137 0.530090
    9 1.506963 -0.000002 -0.000001 0.000000 0.000000 -0.488689
    10 0.798352 -0.000001 0.000000 0.000000 0.000000 -0.986085
    11 3.950301 -0.539875 2.108870 -0.037808 0.038137 -0.197081
    12 1.545802 0.000000 -0.000004 0.000000 0.000000 1.396235
    13 1.667398 -0.000005 0.000006 0.000000 0.000000 1.466046
    14 3.899461 -0.475376 1.170885 -0.069014 0.069822 -0.026114
    15 1.528217 0.000000 -0.000002 0.000000 0.000000 1.047176
    16 1.528216 -0.000004 0.000003 0.000000 0.000000 1.815102
    17 3.899461 -0.431803 -0.168225 -0.003758 -0.034707 0.130944
    18 1.506967 -0.000002 -0.000005 0.000000 0.000000 1.082084
    19 1.506964 0.000000 -0.000002 0.000000 0.000000 1.727834
    20 3.915633 -0.278020 -1.402612 0.304318 -0.057143 -0.007490
    21 1.333087 -0.000003 -0.000001 0.000000 0.000000 1.265345
    22 1.159205 0.000001 0.000001 0.000000 0.000000 1.527123
    23 13.333947 0.905789 19.735224 1.582244 -0.018583 -3.126154
  time 11
    0 0.135014 -5.181166 -24.816700 0.000000 0.000000 -1.570795
    1 0.000001 0.000000 0.000000 -0.000086 -1.570451 -1.570709
    2 4.443614 -0.009643 0.000006 -0.000004 -0.000001 0.000796
    3 12.111416 -0.011445 0.000000 0.000000 0.000000 0.000000
    4 0.000005 0.011450 -1.352403 -0.000014 1.370796 3.140783
    5 6.078087 -0.000001 0.000002 0.882611 -0.673670 -1.226587
    6 13.446750 -0.000001 0.000001 0.000000 0.000000 -0.259080
    7 15.997001 0.000001 0.000000 1.735821 -0.722192 0.474775
    8 1.885328 0.833276 2.177873 1.264233 -0.638137 0.530090
    9 1.506963 -0.000002 -0.000001 0.000000 0.000000 -0.488689
    10 0.798352 -0.000001 0.000000 0.000000 0.000000 -0.986085
    11 3.950301 -0.539875 2.108870 -0.037808 0.038137 -0.197081
    12 1.545802 0.000000 -0.000004 0.000000 0.000000 1.396235
    13 1.667398 -0.000005 0.000006 0.000000 0.000000 1.466046
    14 3.899461 -0.475376 1.170885 -0.069014 0.069822 -0.026114
    15 1.528217 0.000000 -0.000002 0.000000 0.000000 1.047176
    16 1.528216 -0.000004 0.000003 0.000000 0.000000 1.815102
    17 3.899461 -0.431803 -0.168225 -0.003758 -0.034707 0.130944
    18 1.506967 -0.000002 -0.000005 0.000000 0.000000 1.082084
    19 1.506964 0.000000 -0.000002 0.000000 0.000000 1.727834
    20 3.915633 -0.278020 -1.402612 0.304318 -0.057143 -0.007490
    21 1.333087 -0.000003 -0.000001 0.000000 0.000000 1.265345
    22 1.159205 0.000001 0.000001 0.000000 0.000000 1.527123
    23 13.333947 0.905789 19.735224 1.582244 -0.018583 -3.126154
  time 12
    0 0.135014 -5.181166 -24.816700 0.000000 0.000000 -1.570795
    1 0.000001 0.000000 0.000000 -0.000086 -1.570451 -1.570709
    2 4.443614 -0.009643 0.000006 -0.000004 -0.000001 0.000796
    3 12.111416 -0.011445 0.000000 0.000000 0.000000 0.000000
    4 0.000005 0.011450 -1.352403 -0.000014 1.370796 3.140783
    5 6.078087 -0.000001 0.000002 0.738133 -0.949638 -1.139936
    6 13.446750 -0.000001 0.000001 0.000000 0.000000 -0.298432
    7 15.997001 0.000001 0.000000 1.411065 -0.720285 0.820955
    8 1.885328 0.833276 2.177873 1.264233 -0.638137 0.530090
    9 1.506963 -0.000002 -0.000001 0.000000 0.000000 -0.488689
    10 0.798352 -0.000001 0.000000 0.000000 0.000000 -0.986085
    11 3.950301 -0.539875 2.108870 -0.037808 0.038137 -0.197081
    12 1.545802 0.000000 -0.000004 0.000000 0.000000 1.396235
    13 1.667398 -0.000005 0.000006 0.000000 0.000000 1.466046
    14 3.899461 -0.475376 1.170885 -0.069014 0.069822 -0.026114
    15 1.528217 0.000000 -0.000002 0.000000 0.000000 1.047176
    16 1.528216 -0.000004 0.000003 0.000000 0.000000 1.815102
    17 3.899461 -0.431803 -0.168225 -0.003758 -0.034707 0.130944
    18 1.506967 -0.000002 -0.000005 0.000000 0.000000 1.082084
    19 1.506964 0.000000 -0.000002 0.000000 0.000000 1.727834
    20 3.915633 -0.278020 -1.402612 0.304318 -0.057143 -0.007490
    21 1.333087 -0.000003 -0.000001 0.000000 0.000000 1.265345
    22 1.159205 0.000001 0.000001 0.000000 0.000000 1.527123
    23 13.333947 0.905789 19.735224 1.582244 -0.018583 -3.126154
  time 13
    0 0.135014 -5.181166 -24.816700 0.000000 0.000000 -1.570795
    1 0.000001 0.000000 0.000000 -0.000086 -1.570451 -1.570709
    2 4.443614 -0.009643 0.000006 -0.000004 -0.000001 0.000796
    3 12.111416 -0.011445 0.000000 0.000000 0.000000 0.000000
    4 0.000005 0.011450 -1.352403 -0.000014 1.370796 3.140783
    5 6.078087 -0.000001 0.000002 0.464464 -1.199164 -0.899202
    6 13.446750 -0.000001 0.000001 0.000000 0.000000 -0.372700
    7 15.997001 0.000001 0.000000 1.172542 -0.643672 1.051097
    8 1.885328 0.833276 2.177873 1.264233 -0.638137 0.530090
    9 1.506963 -0.000002 -0.000001 0.000000 0.000000 -0.488689
    10 0.798352 -0.000001 0.000000 0.000000 0.000000 -0.986085
    11 3.950301 -0.539875 2.108870 -0.037808 0.038137 -0.197081
    12 1.545802 0.000000 -0.000004 0.000000 0.000000 1.396235
    13 1.667398 -0.000005 0.000006 0.000000 0.000000 1.466046
    14 3.899461 -0.475376 1.170885 -0.069014 0.069822 -0.026114
    15 1.528217 0.000000 -0.000002 0.000000 0.000000 1.047176
    16 1.528216 -0.000004 0.000003 0.000000 0.000000 1.815102
    17 3.899461 -0.431803 -0.168225 -0.003758 -0.034707 0.130944
    18 1.506967 -0.000002 -0.000005 0.000000 0.000000 1.082104
    19 1.506964 0.000000 -0.000002 0.000000 0.000000 1.727834
    20 3.915633 -0.278020 -1.402612 0.304318 -0.057143 -0.007490
    21 1.333087 -0.000003 -0.000001 0.000000 0.000000 1.265345
    22 1.159205 0.000001 0.000001 0.000000 0.000000 1.527123
    23 13.333947 0.905789 19.735224 1.582244 -0.018583 -3.126154
  time 14
    0 0.135014 -5.181166 -24.816700 0.000000 0.000000 -1.570795
    1 0.000001 0.000000 0.000000 -0.000086 -1.570451 -1.570709
    2 4.443614 -0.009643 0.000006 -0.000004 -0.000001 0.000796
    3 12.111416 -0.011445 0.000000 0.000000 0.000000 0.000000
    4 0.000005 0.011450 -1.352403 -0.000014 1.370796 3.140783
    5 6.078087 -0.000001 0.000002 0.112559 -1.302699 -0.548792
    6 13.446750 -0.000001 0.000001 0.000000 0.000000 -0.447729
    7 15.997001 0.000001 0.000000 1.101104 -0.581181 1.089168
    8 1.885328 0.833276 2.177873 1.264233 -0.638137 0.530090
    9 1.506963 -0.000002 -0.000001 0.000000 0.000000 -0.488689
    10 0.798352 -0.000001 0.000000 0.000000 0.000000 -0.986085
    11 3.950301 -0.539875 2.108870 -0.037808 0.038137 -0.197081
    12 1.545802 0.000000 -0.000004 0.000000 0.000000 1.396235
    13 1.667398 -0.000005 0.000006 0.000000 0.000000 1.466046
    14 3.899461 -0.475376 1.170885 -0.069014 0.069822 -0.026114
    15 1.528217 0.000000 -0.000002 0.000000 0.000000 1.047176
    16 1.528216 -0.000004 0.000003 0.000000 0.000000 1.815102
    17 3.899461 -0.431803 -0.168225 -0.003758 -0.034707 0.130944
    18 1.506967 -0.000002 -0.000005 0.000000 0.000000 1.082084
    19 1.506964 0.000000 -0.000002 0.000000 0.000000 1.727834
    20 3.915633 -0.278020 -1.402612 0.304318 -0.057143 -0.007490
    21 1.333087 -0.000003 -0.000001 0.000000 0.000000 1.265345
    22 1.159205 0.000001 0.000001 0.000000 0.000000 1.527123
    23 13.333947 0.905789 19.735224 1.582244 -0.018583 -3.126154
  time 15
    0 0.135014 -5.181166 -24.816700 0.000000 0.000000 -1.570795
    1 0.000001 0.000000 0.000000 -0.000086 -1.570451 -1.570709
    2 4.443614 -0.009643 0.000006 -0.000004 -0.000001 0.000796
    3 12.111416 -0.011445 0.000000 0.000000 0.000000 0.000000
    4 0.000005 0.011450 -1.352403 -0.000014 1.370796 3.140783
    5 6.078087 -0.000001 0.000002 0.048736 -1.293430 -0.457630
    6 13.446750 -0.000001 0.000001 0.000000 0.000000 -0.516801
    7 15.997001 0.000001 0.000000 1.167289 -0.559997 0.968349
    8 1.885328 0.833276 2.177873 1.264233 -0.638137 0.530090
    9 1.506963 -0.000002 -0.000001 0.000000 0.000000 -0.488689
    10 0.798352 -0.000001 0.000000 0.000000 0.000000 -0.986085
    11 3.950301 -0.539875 2.108870 -0.037808 0.038137 -0.197081
    12 1.545802 0.000000 -0.000004 0.000000 0.000000 1.396235
    13 1.667398 -0.000005 0.000006 0.000000 0.000000 1.466046
    14 3.899461 -0.475376 1.170885 -0.069014 0.069822 -0.026114
    15 1.528217 0.000000 -0.000002 0.000000 0.000000 1.047176
    16 1.528216 -0.000004 0.000003 0.000000 0.000000 1.815102
    17 3.899461 -0.431803 -0.168225 -0.003758 -0.034707 0.130944
    18 1.506967 -0.000002 -0.000005 0.000000 0.000000 1.082084
    19 1.506964 0.000000 -0.000002 0.000000 0.000000 1.727834
    20 3.915633 -0.278020 -1.402612 0.304318 -0.057143 -0.007490
    21 1.333087 -0.000003 -0.000001 0.000000 0.000000 1.265345
    22 1.159205 0.000001 0.000001 0.000000 0.000000 1.527123
    23 13.333947 0.905789 19.735224 1.582244 -0.018583 -3.126154
  time 16
    0 0.135014 -5.181166 -24.816700 0.000000 0.000000 -1.570795
    1 0.000001 0.000000 0.000000 -0.000086 -1.570451 -1.570709
    2 4.443614 -0.009643 0.000006 -0.000004 -0.000001 0.000796
    3 12.111416 -0.011445 0.000000 0.000000 0.000000 0.000000
    4 0.000005 0.011450 -1.352403 -0.000014 1.370796 3.140783
    5 6.078087 -0.000001 0.000002 0.157853 -1.248490 -0.521490
    6 13.446750 -0.000001 0.000001 0.000000 0.000000 -0.593921
    7 15.997001 0.000001 0.000000 1.299114 -0.537919 0.763648
    8 1.885328 0.833276 2.177873 1.264233 -0.638137 0.530090
    9 1.506963 -0.000002 -0.000001 0.000000 0.000000 -0.488689
    10 0.798352 -0.000001 0.000000 0.000000 0.000000 -0.986085
    11 3.950301 -0.539875 2.108870 -0.037808 0.038137 -0.197081
    12 1.545802 0.000000 -0.000004 0.000000 0.000000 1.396235
    13 1.667398 -0.000005 0.000006 0.000000 0.000000 1.466046
    14 3.899461 -0.475376 1.170885 -0.069014 0.069822 -0.026114
    15 1.528217 0.000000 -0.000002 0.000000 0.000000 1.047176
    16 1.528216 -0.000004 0.000003 0.000000 0.000000 1.815102
    17 3.899461 -0.431803 -0.168225 -0.003758 -0.034707 0.130944
    18 1.506967 -0.000002 -0.000005 0.000000 0.000000 1.082084
    19 1.506964 0.000000 -0.000002 0.000000 0.000000 1.727834
    20 3.915633 -0.278020 -1.402612 0.304318 -0.057143 -0.007490
    21 1.333087 -0.000003 -0.000001 0.000000 0.000000 1.265345
    22 1.159205 0.000001 0.000001 0.000000 0.000000 1.527123
    23 13.333947 0.905789 19.735224 1.582244 -0.018583 -3.126154
  time 17
    0 0.135014 -5.181166 -24.816700 0.000000 0.000000 -1.570795
    1 0.000001 0.000000 0.000000 -0.000086 -1.570451 -1.570709
    2 4.443614 -0.009643 0.000006 -0.000004 -0.000001 0.000796
    3 12.111416 -0.011445 0.000000 0.000000 0.000000 0.000000
    4 0.000005 0.011450 -1.352403 -0.000014 1.370796 3.140783
    5 6.078087 -0.000001 0.000002 0.324670 -1.173881 -0.630697
    6 13.446750 -0.000001 0.000001 0.000000 0.000000 -0.676491
    7 15.997001 0.000001 0.000000 1.465782 -0.488350 0.511386
    8 1.885328 0.833276 2.177873 1.264233 -0.638137 0.530090
    9 1.506963 -0.000002 -0.000001 0.000000 0.000000 -0.488689
    10 0.798352 -0.000001 0.000000 0.000000 0.000000 -0.986085
    11 3.950301 -0.539875 2.108870 -0.037808 0.038137 -0.197081
    12 1.545802 0.000000 -0.000004 0.000000 0.000000 1.396235
    13 1.667398 -0.000005 0.000006 0.000000 0.000000 1.466046
    14 3.899461 -0.475376 1.170885 -0.069014 0.069822 -0.026114
    15 1.528217 0.000000 -0.000002 0.000000 0.000000 1.047176
    16 1.528216 -0.000004 0.000003 0.000000 0.000000 1.815102
    17 3.899461 -0.431803 -0.168225 -0.003758 -0.034707 0.130944
    18 1.506967 -0.000002 -0.000005 0.000000 0.000000 1.082084
    19 1.506964 0.000000 -0.000002 0.000000 0.000000 1.727834
    20 3.915633 -0.278020 -1.402612 0.304318 -0.057143 -0.007490
    21 1.333087 -0.000003 -0.000001 0.000000 0.000000 1.265345
    22 1.159205 0.000001 0.000001 0.000000 0.000000 1.527123
    23 13.333947 0.905789 19.735224 1.582244 -0.018583 -3.126154
  time 18
    0 0.135014 -5.181166 -24.816700 0.000000 0.000000 -1.570795
    1 0.000001 0.000000 0.000000 -0.000086 -1.570451 -1.570709
    2 4.443614 -0.009643 0.000006 -0.000004 -0.000001 0.000796
    3 12.111416 -0.011445 0.000000 0.000000 0.000000 0.000000
    4 0.000005 0.011450 -1.352403 -0.000014 1.370796 3.140783
    5 6.078087 -0.000001 0.000002 0.475427 -1.078871 -0.716878
    6 13.446750 -0.000001 0.000001 0.000000 0.000000 -0.761785
    7 15.997001 0.000001 0.000000 1.628838 -0.398061 0.253430
    8 1.885328 0.833276 2.177873 1.264233 -0.638137 0.530090
    9 1.506963 -0.000002 -0.000001 0.000000 0.000000 -0.488689
    10 0.798352 -0.000001 0.000000 0.000000 0.000000 -0.986085
    11 3.950301 -0.539875 2.108870 -0.037808 0.038137 -0.197081
    12 1.545802 0.000000 -0.000004 0.000000 0.000000 1.396235
    13 1.667398 -0.000005 0.000006 0.000000 0.000000 1.466046
    14 3.899461 -0.475376 1.170885 -0.069014 0.069822 -0.026114
    15 1.528217 0.000000 -0.000002 0.000000 0.000000 1.047176
    16 1.528216 -0.000004 0.000003 0.000000 0.000000 1.815102
    17 3.899461 -0.431803 -0.168225 -0.003758 -0.034707 0.130944
    18 1.506967 -0.000002 -0.000005 0.000000 0.000000 1.082084
    19 1.506964 0.000000 -0.000002 0.000000 0.000000 1.727834
    20 3.915633 -0.278020 -1.402612 0.304318 -0.057143 -0.007490
    21 1.333087 -0.000003 -0.000001 0.000000 0.000000 1.265345
    22 1.159205 0.000001 0.000001 0.000000 0.000000 1.527123
    23 13.333947 0.905789 19.735224 1.582244 -0.018583 -3.126154
  time 19
    0 0.135014 -5.181166 -24.816700 0.000000 0.000000 -1.570795
    1 0.000001 0.000000 0.000000 -0.000086 -1.570451 -1.570709
    2 4.443614 -0.009643 0.000006 -0.000004 -0.000001 0.000796
    3 12.111416 -0.011445 0.000000 0.000000 0.000000 0.000000
    4 0.000005 0.011450 -1.352403 -0.000014 1.370796 3.140783
    5 6.078087 -0.000001 0.000002 0.588662 -0.979846 -0.763924
    6 13.446750 -0.000001 0.000001 0.000000 0.000000 -0.847080
    7 15.997001 0.000001 0.000000 1.757270 -0.274938 0.023105
    8 1.885328 0.833276 2.177873 1.264233 -0.638137 0.530090
    9 1.506963 -0.000002 -0.000001 0.000000 0.000000 -0.488689
    10 0.798352 -0.000001 0.000000 0.000000 0.000000 -0.986085
    11 3.950301 -0.539875 2.108870 -0.037808 0.038137 -0.197081
    12 1.545802 0.000000 -0.000004 0.000000 0.000000 1.396235
    13 1.667398 -0.000005 0.000006 0.000000 0.000000 1.466046
    14 3.899461 -0.475376 1.170885 -0.069014 0.069822 -0.026114
    15 1.528217 0.000000 -0.000002 0.000000 0.000000 1.047176
    16 1.528216 -0.000004 0.000003 0.000000 0.000000 1.815102
    17 3.899461 -0.431803 -0.168225 -0.003758 -0.034707 0.130944
    18 1.506967 -0.000002 -0.000005 0.000000 0.000000 1.082084
    19 1.506964 0.000000 -0.000002 0.000000 0.000000 1.727834
    20 3.915633 -0.278020 -1.402612 0.304318 -0.057143 -0.007490
    21 1.333087 -0.000003 -0.000001 0.000000 0.000000 1.265345
    22 1.159205 0.000001 0.000001 0.000000 0.000000 1.527123
    23 13.333947 0.905789 19.735224 1.582244 -0.018583 -3.126154
  time 20
    0 0.135014 -5.181166 -24.816700 0.000000 0.000000 -1.570795
    1 0.000001 0.000000 0.000000 -0.000086 -1.570451 -1.570709
    2 4.443614 -0.009643 0.000006 -0.000004 -0.000001 0.000796
    3 12.111416 -0.011445 0.000000 0.000000 0.000000 0.000000
    4 0.000005 0.011450 -1.352403 -0.000014 1.370796 3.140783
    5 6.078087 -0.000001 0.000002 0.662677 -0.895968 -0.776403
    6 13.446750 -0.000001 0.000001 0.000000 0.000000 -0.929649
    7 15.997001 0.000001 0.000000 1.837507 -0.141929 -0.162724
    8 1.885328 0.833276 2.177873 1.264233 -0.638137 0.530090
    9 1.506963 -0.000002 -0.000001 0.000000 0.000000 -0.488689
    10 0.798352 -0.000001 0.000000 0.000000 0.000000 -0.986085
    11 3.950301 -0.539875 2.108870 -0.037808 0.038137 -0.197081
    12 1.545802 0.000000 -0.000004 0.000000 0.000000 1.396235
    13 1.667398 -0.000005 0.000006 0.000000 0.000000 1.466046
    14 3.899461 -0.475376 1.170885 -0.069014 0.069822 -0.026114
    15 1.528217 0.000000 -0.000002 0.000000 0.000000 1.047176
    16 1.528216 -0.000004 0.000003 0.000000 0.000000 1.815102
    17 3.899461 -0.431803 -0.168225 -0.003758 -0.034707 0.130944
    18 1.506967 -0.000002 -0.000005 0.000000 0.000000 1.082084
    19 1.506964 0.000000 -0.000002 0.000000 0.000000 1.727834
    20 3.915633 -0.278020 -1.402612 0.304318 -0.057143 -0.007490
    21 1.333087 -0.000003 -0.000001 0.000000 0.000000 1.265345
    22 1.159205 0.000001 0.000001 0.000000 0.000000 1.527123
    23 13.333947 0.905789 19.735224 1.582244 -0.018583 -3.126154
end
