// Created by Crowbar 0.74
version 1
nodes
  0 "Bip01" -1
  1 "Bip01 Pelvis" 0
  2 "Bip01 Spine" 1
  3 "Bip01 Neck" 2
  4 "Bip01 R Clavicle" 3
  5 "Bip01 R UpperArm" 4
  6 "Bip01 R Forearm" 5
  7 "Bip01 R Hand" 6
  8 "Bip01 R Finger0" 7
  9 "Bip01 R Finger01" 8
  10 "Bip01 R Finger02" 9
  11 "Bip01 R Finger1" 7
  12 "Bip01 R Finger11" 11
  13 "Bip01 R Finger12" 12
  14 "Bip01 R Finger2" 7
  15 "Bip01 R Finger21" 14
  16 "Bip01 R Finger22" 15
  17 "Bip01 R Finger3" 7
  18 "Bip01 R Finger31" 17
  19 "Bip01 R Finger32" 18
  20 "Bip01 R Finger4" 7
  21 "Bip01 R Finger41" 20
  22 "Bip01 R Finger42" 21
  23 "tip" 7
end
skeleton
  time 0
    0 0.135014 -5.181166 -24.816700 0.000000 0.000000 -1.570795
    1 0.000001 0.000000 0.000000 -0.000086 -1.570451 -1.570709
    2 4.443614 -0.009643 0.000006 -0.000004 -0.000001 0.000796
    3 12.111416 -0.011445 0.000000 0.000000 0.000000 0.000000
    4 0.000005 0.011450 -1.352403 -0.000014 1.370796 3.140783
    5 6.078087 0.000000 0.000002 -0.125647 -1.052139 0.152673
    6 13.446753 -0.000002 0.000001 0.000000 0.000000 0.082605
    7 15.996999 0.000000 0.000000 1.837507 -0.141929 -0.162724
    8 1.885327 0.833276 2.177873 1.264233 -0.638137 0.530090
    9 1.506962 0.000001 -0.000002 0.000000 0.000000 -0.488689
    10 0.798348 0.000001 0.000000 0.000000 0.000000 -0.986085
    11 3.950301 -0.539876 2.108870 -0.037808 0.038137 -0.197081
    12 1.545794 0.000000 -0.000002 0.000000 0.000000 1.396235
    13 1.667397 -0.000001 0.000001 0.000000 0.000000 1.466046
    14 3.899457 -0.475376 1.170887 -0.069014 0.069822 -0.026114
    15 1.528215 0.000000 0.000000 0.000000 0.000000 1.047176
    16 1.528216 -0.000002 0.000000 0.000000 0.000000 1.815102
    17 3.899455 -0.431803 -0.168226 -0.003758 -0.034707 0.130944
    18 1.506961 -0.000001 -0.000002 0.000000 0.000000 1.082104
    19 1.506964 0.000000 0.000000 0.000000 0.000000 1.727834
    20 3.915632 -0.278019 -1.402611 0.304318 -0.057143 -0.007490
    21 1.333082 0.000002 -0.000002 0.000000 0.000000 1.265345
    22 1.159201 0.000002 -0.000001 0.000000 0.000000 1.527123
    23 13.333940 0.905788 19.735220 1.582244 -0.018583 -3.126154
  time 1
    0 0.135014 -5.181166 -24.816700 0.000000 0.000000 -1.570795
    1 0.000001 0.000000 0.000000 -0.000086 -1.570451 -1.570709
    2 4.443614 -0.009643 0.000006 -0.000004 -0.000001 0.000796
    3 12.111416 -0.011445 0.000000 0.000000 0.000000 0.000000
    4 0.000005 0.011450 -1.352403 -0.000014 1.370796 3.140783
    5 6.078087 0.000000 0.000002 -0.094919 -1.054042 0.117286
    6 13.446753 -0.000002 0.000001 0.000000 0.000000 0.029819
    7 15.996999 0.000000 0.000000 1.837507 -0.141929 -0.162724
    8 1.885327 0.833276 2.177873 1.264233 -0.638137 0.530090
    9 1.506962 0.000001 -0.000002 0.000000 0.000000 -0.488689
    10 0.798348 0.000001 0.000000 0.000000 0.000000 -0.986085
    11 3.950301 -0.539876 2.108870 -0.037808 0.038137 -0.197081
    12 1.545794 0.000000 -0.000002 0.000000 0.000000 1.396235
    13 1.667397 -0.000001 0.000001 0.000000 0.000000 1.466046
    14 3.899457 -0.475376 1.170887 -0.069014 0.069822 -0.026114
    15 1.528215 0.000000 0.000000 0.000000 0.000000 1.047176
    16 1.528216 -0.000002 0.000000 0.000000 0.000000 1.815102
    17 3.899455 -0.431803 -0.168226 -0.003758 -0.034707 0.130944
    18 1.506961 -0.000001 -0.000002 0.000000 0.000000 1.082084
    19 1.506964 0.000000 0.000000 0.000000 0.000000 1.727834
    20 3.915632 -0.278019 -1.402611 0.304318 -0.057143 -0.007490
    21 1.333082 0.000002 -0.000002 0.000000 0.000000 1.265345
    22 1.159201 0.000002 -0.000001 0.000000 0.000000 1.527123
    23 13.333940 0.905788 19.735220 1.582244 -0.018583 -3.126154
  time 2
    0 0.135014 -5.181166 -24.816700 0.000000 0.000000 -1.570795
    1 0.000001 0.000000 0.000000 -0.000086 -1.570451 -1.570709
    2 4.443614 -0.009643 0.000006 -0.000004 -0.000001 0.000796
    3 12.111416 -0.011445 0.000000 0.000000 0.000000 0.000000
    4 0.000005 0.011450 -1.352403 -0.000014 1.370796 3.140783
    5 6.078087 0.000000 0.000002 -0.063933 -1.055408 0.081665
    6 13.446753 -0.000002 0.000001 0.000000 0.000000 -0.024425
    7 15.996999 0.000000 0.000000 1.837507 -0.141929 -0.162724
    8 1.885327 0.833276 2.177873 1.264233 -0.638137 0.530090
    9 1.506962 0.000001 -0.000002 0.000000 0.000000 -0.488689
    10 0.798348 0.000001 0.000000 0.000000 0.000000 -0.986085
    11 3.950301 -0.539876 2.108870 -0.037808 0.038137 -0.197081
    12 1.545794 0.000000 -0.000002 0.000000 0.000000 1.396235
    13 1.667397 -0.000001 0.000001 0.000000 0.000000 1.466046
    14 3.899457 -0.475376 1.170887 -0.069014 0.069822 -0.026114
    15 1.528215 0.000000 0.000000 0.000000 0.000000 1.047176
    16 1.528216 -0.000002 0.000000 0.000000 0.000000 1.815102
    17 3.899455 -0.431803 -0.168226 -0.003758 -0.034707 0.130944
    18 1.506961 -0.000001 -0.000002 0.000000 0.000000 1.082104
    19 1.506964 0.000000 0.000000 0.000000 0.000000 1.727834
    20 3.915632 -0.278019 -1.402611 0.304318 -0.057143 -0.007490
    21 1.333082 0.000002 -0.000002 0.000000 0.000000 1.265345
    22 1.159201 0.000002 -0.000001 0.000000 0.000000 1.527123
    23 13.333940 0.905788 19.735220 1.582244 -0.018583 -3.126154
  time 3
    0 0.135014 -5.181166 -24.816700 0.000000 0.000000 -1.570795
    1 0.000001 0.000000 0.000000 -0.000086 -1.570451 -1.570709
    2 4.443614 -0.009643 0.000006 -0.000004 -0.000001 0.000796
    3 12.111416 -0.011445 0.000000 0.000000 0.000000 0.000000
    4 0.000005 0.011450 -1.352403 -0.000014 1.370796 3.140783
    5 6.078087 0.000000 0.000002 -0.032794 -1.056235 0.045927
    6 13.446753 -0.000002 0.000001 0.000000 0.000000 -0.079746
    7 15.996999 0.000000 0.000000 1.837507 -0.141929 -0.162724
    8 1.885327 0.833276 2.177873 1.264233 -0.638137 0.530090
    9 1.506962 0.000001 -0.000002 0.000000 0.000000 -0.488689
    10 0.798348 0.000001 0.000000 0.000000 0.000000 -0.986085
    11 3.950301 -0.539876 2.108870 -0.037808 0.038137 -0.197081
    12 1.545794 0.000000 -0.000002 0.000000 0.000000 1.396235
    13 1.667397 -0.000001 0.000001 0.000000 0.000000 1.466046
    14 3.899457 -0.475376 1.170887 -0.069014 0.069822 -0.026114
    15 1.528215 0.000000 0.000000 0.000000 0.000000 1.047176
    16 1.528216 -0.000002 0.000000 0.000000 0.000000 1.815102
    17 3.899455 -0.431803 -0.168226 -0.003758 -0.034707 0.130944
    18 1.506961 -0.000001 -0.000002 0.000000 0.000000 1.082084
    19 1.506964 0.000000 0.000000 0.000000 0.000000 1.727834
    20 3.915632 -0.278019 -1.402611 0.304318 -0.057143 -0.007490
    21 1.333082 0.000002 -0.000002 0.000000 0.000000 1.265345
    22 1.159201 0.000002 -0.000001 0.000000 0.000000 1.527123
    23 13.333940 0.905788 19.735220 1.582244 -0.018583 -3.126154
  time 4
    0 0.135014 -5.181166 -24.816700 0.000000 0.000000 -1.570795
    1 0.000001 0.000000 0.000000 -0.000086 -1.570451 -1.570709
    2 4.443614 -0.009643 0.000006 -0.000004 -0.000001 0.000796
    3 12.111416 -0.011445 0.000000 0.000000 0.000000 0.000000
    4 0.000005 0.011450 -1.352403 -0.000014 1.370796 3.140783
    5 6.078087 0.000000 0.000002 -0.001602 -1.056525 0.010130
    6 13.446753 -0.000002 0.000001 0.000000 0.000000 -0.136144
    7 15.996999 0.000000 0.000000 1.837507 -0.141929 -0.162724
    8 1.885327 0.833276 2.177873 1.264233 -0.638137 0.530090
    9 1.506962 0.000001 -0.000002 0.000000 0.000000 -0.488689
    10 0.798348 0.000001 0.000000 0.000000 0.000000 -0.986085
    11 3.950301 -0.539876 2.108870 -0.037808 0.038137 -0.197081
    12 1.545794 0.000000 -0.000002 0.000000 0.000000 1.396235
    13 1.667397 -0.000001 0.000001 0.000000 0.000000 1.466046
    14 3.899457 -0.475376 1.170887 -0.069014 0.069822 -0.026114
    15 1.528215 0.000000 0.000000 0.000000 0.000000 1.047176
    16 1.528216 -0.000002 0.000000 0.000000 0.000000 1.815102
    17 3.899455 -0.431803 -0.168226 -0.003758 -0.034707 0.130944
    18 1.506961 -0.000001 -0.000002 0.000000 0.000000 1.082084
    19 1.506964 0.000000 0.000000 0.000000 0.000000 1.727834
    20 3.915632 -0.278019 -1.402611 0.304318 -0.057143 -0.007490
    21 1.333082 0.000002 -0.000002 0.000000 0.000000 1.265345
    22 1.159201 0.000002 -0.000001 0.000000 0.000000 1.527123
    23 13.333940 0.905788 19.735220 1.582244 -0.018583 -3.126154
  time 5
    0 0.135014 -5.181166 -24.816700 0.000000 0.000000 -1.570795
    1 0.000001 0.000000 0.000000 -0.000086 -1.570451 -1.570709
    2 4.443614 -0.009643 0.000006 -0.000004 -0.000001 0.000796
    3 12.111416 -0.011445 0.000000 0.000000 0.000000 0.000000
    4 0.000005 0.011450 -1.352403 -0.000014 1.370796 3.140783
    5 6.078087 0.000000 0.000002 0.029589 -1.056235 -0.025667
    6 13.446753 -0.000002 0.000001 0.000000 0.000000 -0.193303
    7 15.996999 0.000000 0.000000 1.837507 -0.141929 -0.162724
    8 1.885327 0.833276 2.177873 1.264233 -0.638137 0.530090
    9 1.506962 0.000001 -0.000002 0.000000 0.000000 -0.488689
    10 0.798348 0.000001 0.000000 0.000000 0.000000 -0.986085
    11 3.950301 -0.539876 2.108870 -0.037808 0.038137 -0.197081
    12 1.545794 0.000000 -0.000002 0.000000 0.000000 1.396235
    13 1.667397 -0.000001 0.000001 0.000000 0.000000 1.466046
    14 3.899457 -0.475376 1.170887 -0.069014 0.069822 -0.026114
    15 1.528215 0.000000 0.000000 0.000000 0.000000 1.047176
    16 1.528216 -0.000002 0.000000 0.000000 0.000000 1.815102
    17 3.899455 -0.431803 -0.168226 -0.003758 -0.034707 0.130944
    18 1.506961 -0.000001 -0.000002 0.000000 0.000000 1.082084
    19 1.506964 0.000000 0.000000 0.000000 0.000000 1.727834
    20 3.915632 -0.278019 -1.402611 0.304318 -0.057143 -0.007490
    21 1.333082 0.000002 -0.000002 0.000000 0.000000 1.265345
    22 1.159201 0.000002 -0.000001 0.000000 0.000000 1.527123
    23 13.333940 0.905788 19.735220 1.582244 -0.018583 -3.126154
  time 6
    0 0.135014 -5.181166 -24.816700 0.000000 0.000000 -1.570795
    1 0.000001 0.000000 0.000000 -0.000086 -1.570451 -1.570709
    2 4.443614 -0.009643 0.000006 -0.000004 -0.000001 0.000796
    3 12.111416 -0.011445 0.000000 0.000000 0.000000 0.000000
    4 0.000005 0.011450 -1.352403 -0.000014 1.370796 3.140783
    5 6.078087 0.000000 0.000002 0.060677 -1.055408 -0.061405
    6 13.446753 -0.000002 0.000001 0.000000 0.000000 -0.250969
    7 15.996999 0.000000 0.000000 1.837507 -0.141929 -0.162724
    8 1.885327 0.833276 2.177873 1.264233 -0.638137 0.530090
    9 1.506962 0.000001 -0.000002 0.000000 0.000000 -0.488689
    10 0.798348 0.000001 0.000000 0.000000 0.000000 -0.986085
    11 3.950301 -0.539876 2.108870 -0.037808 0.038137 -0.197081
    12 1.545794 0.000000 -0.000002 0.000000 0.000000 1.396235
    13 1.667397 -0.000001 0.000001 0.000000 0.000000 1.466046
    14 3.899457 -0.475376 1.170887 -0.069014 0.069822 -0.026114
    15 1.528215 0.000000 0.000000 0.000000 0.000000 1.047176
    16 1.528216 -0.000002 0.000000 0.000000 0.000000 1.815102
    17 3.899455 -0.431803 -0.168226 -0.003758 -0.034707 0.130944
    18 1.506961 -0.000001 -0.000002 0.000000 0.000000 1.082084
    19 1.506964 0.000000 0.000000 0.000000 0.000000 1.727834
    20 3.915632 -0.278019 -1.402611 0.304318 -0.057143 -0.007490
    21 1.333082 0.000002 -0.000002 0.000000 0.000000 1.265345
    22 1.159201 0.000002 -0.000001 0.000000 0.000000 1.527123
    23 13.333940 0.905788 19.735220 1.582244 -0.018583 -3.126154
  time 7
    0 0.135014 -5.181166 -24.816700 0.000000 0.000000 -1.570795
    1 0.000001 0.000000 0.000000 -0.000086 -1.570451 -1.570709
    2 4.443614 -0.009643 0.000006 -0.000004 -0.000001 0.000796
    3 12.111416 -0.011445 0.000000 0.000000 0.000000 0.000000
    4 0.000005 0.011450 -1.352403 -0.000014 1.370796 3.140783
    5 6.078087 0.000000 0.000002 0.091662 -1.054042 -0.097026
    6 13.446753 -0.000002 0.000001 0.000000 0.000000 -0.308951
    7 15.996999 0.000000 0.000000 1.837507 -0.141929 -0.162724
    8 1.885327 0.833276 2.177873 1.264233 -0.638137 0.530090
    9 1.506962 0.000001 -0.000002 0.000000 0.000000 -0.488689
    10 0.798348 0.000001 0.000000 0.000000 0.000000 -0.986085
    11 3.950301 -0.539876 2.108870 -0.037808 0.038137 -0.197081
    12 1.545794 0.000000 -0.000002 0.000000 0.000000 1.396235
    13 1.667397 -0.000001 0.000001 0.000000 0.000000 1.466046
    14 3.899457 -0.475376 1.170887 -0.069014 0.069822 -0.026114
    15 1.528215 0.000000 0.000000 0.000000 0.000000 1.047176
    16 1.528216 -0.000002 0.000000 0.000000 0.000000 1.815102
    17 3.899455 -0.431803 -0.168226 -0.003758 -0.034707 0.130944
    18 1.506961 -0.000001 -0.000002 0.000000 0.000000 1.082084
    19 1.506964 0.000000 0.000000 0.000000 0.000000 1.727834
    20 3.915632 -0.278019 -1.402611 0.304318 -0.057143 -0.007490
    21 1.333082 0.000002 -0.000002 0.000000 0.000000 1.265345
    22 1.159201 0.000002 -0.000001 0.000000 0.000000 1.527123
    23 13.333940 0.905788 19.735220 1.582244 -0.018583 -3.126154
  time 8
    0 0.135014 -5.181166 -24.816700 0.000000 0.000000 -1.570795
    1 0.000001 0.000000 0.000000 -0.000086 -1.570451 -1.570709
    2 4.443614 -0.009643 0.000006 -0.000004 -0.000001 0.000796
    3 12.111416 -0.011445 0.000000 0.000000 0.000000 0.000000
    4 0.000005 0.011450 -1.352403 -0.000014 1.370796 3.140783
    5 6.078087 0.000000 0.000002 0.122442 -1.052139 -0.132413
    6 13.446753 -0.000002 0.000001 0.000000 0.000000 -0.367060
    7 15.996999 0.000000 0.000000 1.837507 -0.141929 -0.162724
    8 1.885327 0.833276 2.177873 1.264233 -0.638137 0.530090
    9 1.506962 0.000001 -0.000002 0.000000 0.000000 -0.488689
    10 0.798348 0.000001 0.000000 0.000000 0.000000 -0.986085
    11 3.950301 -0.539876 2.108870 -0.037808 0.038137 -0.197081
    12 1.545794 0.000000 -0.000002 0.000000 0.000000 1.396235
    13 1.667397 -0.000001 0.000001 0.000000 0.000000 1.466046
    14 3.899457 -0.475376 1.170887 -0.069014 0.069822 -0.026114
    15 1.528215 0.000000 0.000000 0.000000 0.000000 1.047176
    16 1.528216 -0.000002 0.000000 0.000000 0.000000 1.815102
    17 3.899455 -0.431803 -0.168226 -0.003758 -0.034707 0.130944
    18 1.506961 -0.000001 -0.000002 0.000000 0.000000 1.082084
    19 1.506964 0.000000 0.000000 0.000000 0.000000 1.727834
    20 3.915632 -0.278019 -1.402611 0.304318 -0.057143 -0.007490
    21 1.333082 0.000002 -0.000002 0.000000 0.000000 1.265345
    22 1.159201 0.000002 -0.000001 0.000000 0.000000 1.527123
    23 13.333940 0.905788 19.735220 1.582244 -0.018583 -3.126154
  time 9
    0 0.135014 -5.181166 -24.816700 0.000000 0.000000 -1.570795
    1 0.000001 0.000000 0.000000 -0.000086 -1.570451 -1.570709
    2 4.443614 -0.009643 0.000006 -0.000004 -0.000001 0.000796
    3 12.111416 -0.011445 0.000000 0.000000 0.000000 0.000000
    4 0.000005 0.011450 -1.352403 -0.000014 1.370796 3.140783
    5 6.078087 0.000000 0.000002 0.152912 -1.049697 -0.167565
    6 13.446753 -0.000002 0.000001 0.000000 0.000000 -0.424916
    7 15.996999 0.000000 0.000000 1.837507 -0.141929 -0.162724
    8 1.885327 0.833276 2.177873 1.264233 -0.638137 0.530090
    9 1.506962 0.000001 -0.000002 0.000000 0.000000 -0.488689
    10 0.798348 0.000001 0.000000 0.000000 0.000000 -0.986085
    11 3.950301 -0.539876 2.108870 -0.037808 0.038137 -0.197081
    12 1.545794 0.000000 -0.000002 0.000000 0.000000 1.396235
    13 1.667397 -0.000001 0.000001 0.000000 0.000000 1.466046
    14 3.899457 -0.475376 1.170887 -0.069014 0.069822 -0.026114
    15 1.528215 0.000000 0.000000 0.000000 0.000000 1.047176
    16 1.528216 -0.000002 0.000000 0.000000 0.000000 1.815102
    17 3.899455 -0.431803 -0.168226 -0.003758 -0.034707 0.130944
    18 1.506961 -0.000001 -0.000002 0.000000 0.000000 1.082084
    19 1.506964 0.000000 0.000000 0.000000 0.000000 1.727834
    20 3.915632 -0.278019 -1.402611 0.304318 -0.057143 -0.007490
    21 1.333082 0.000002 -0.000002 0.000000 0.000000 1.265345
    22 1.159201 0.000002 -0.000001 0.000000 0.000000 1.527123
    23 13.333940 0.905788 19.735220 1.582244 -0.018583 -3.126154
  time 10
    0 0.135014 -5.181166 -24.816700 0.000000 0.000000 -1.570795
    1 0.000001 0.000000 0.000000 -0.000086 -1.570451 -1.570709
    2 4.443614 -0.009643 0.000006 -0.000004 -0.000001 0.000796
    3 12.111416 -0.011445 0.000000 0.000000 0.000000 0.000000
    4 0.000005 0.011450 -1.352403 -0.000014 1.370796 3.140783
    5 6.078087 0.000000 0.000002 0.183074 -1.046718 -0.202366
    6 13.446753 -0.000002 0.000001 0.000000 0.000000 -0.482455
    7 15.996999 0.000000 0.000000 1.837507 -0.141929 -0.162724
    8 1.885327 0.833276 2.177873 1.264233 -0.638137 0.530090
    9 1.506962 0.000001 -0.000002 0.000000 0.000000 -0.488689
    10 0.798348 0.000001 0.000000 0.000000 0.000000 -0.986085
    11 3.950301 -0.539876 2.108870 -0.037808 0.038137 -0.197081
    12 1.545794 0.000000 -0.000002 0.000000 0.000000 1.396235
    13 1.667397 -0.000001 0.000001 0.000000 0.000000 1.466046
    14 3.899457 -0.475376 1.170887 -0.069014 0.069822 -0.026114
    15 1.528215 0.000000 0.000000 0.000000 0.000000 1.047176
    16 1.528216 -0.000002 0.000000 0.000000 0.000000 1.815102
    17 3.899455 -0.431803 -0.168226 -0.003758 -0.034707 0.130944
    18 1.506961 -0.000001 -0.000002 0.000000 0.000000 1.082084
    19 1.506964 0.000000 0.000000 0.000000 0.000000 1.727834
    20 3.915632 -0.278019 -1.402611 0.304318 -0.057143 -0.007490
    21 1.333082 0.000002 -0.000002 0.000000 0.000000 1.265345
    22 1.159201 0.000002 -0.000001 0.000000 0.000000 1.527123
    23 13.333940 0.905788 19.735220 1.582244 -0.018583 -3.126154
  time 11
    0 0.135014 -5.181166 -24.816700 0.000000 0.000000 -1.570795
    1 0.000001 0.000000 0.000000 -0.000086 -1.570451 -1.570709
    2 4.443614 -0.009643 0.000006 -0.000004 -0.000001 0.000796
    3 12.111416 -0.011445 0.000000 0.000000 0.000000 0.000000
    4 0.000005 0.011450 -1.352403 -0.000014 1.370796 3.140783
    5 6.078087 0.000000 0.000002 0.212875 -1.043200 -0.236756
    6 13.446753 -0.000002 0.000001 0.000000 0.000000 -0.539424
    7 15.996999 0.000000 0.000000 1.837507 -0.141929 -0.162724
    8 1.885327 0.833276 2.177873 1.264233 -0.638137 0.530090
    9 1.506962 0.000001 -0.000002 0.000000 0.000000 -0.488689
    10 0.798348 0.000001 0.000000 0.000000 0.000000 -0.986085
    11 3.950301 -0.539876 2.108870 -0.037808 0.038137 -0.197081
    12 1.545794 0.000000 -0.000002 0.000000 0.000000 1.396235
    13 1.667397 -0.000001 0.000001 0.000000 0.000000 1.466046
    14 3.899457 -0.475376 1.170887 -0.069014 0.069822 -0.026114
    15 1.528215 0.000000 0.000000 0.000000 0.000000 1.047176
    16 1.528216 -0.000002 0.000000 0.000000 0.000000 1.815102
    17 3.899455 -0.431803 -0.168226 -0.003758 -0.034707 0.130944
    18 1.506961 -0.000001 -0.000002 0.000000 0.000000 1.082084
    19 1.506964 0.000000 0.000000 0.000000 0.000000 1.727876
    20 3.915632 -0.278019 -1.402611 0.304318 -0.057143 -0.007490
    21 1.333082 0.000002 -0.000002 0.000000 0.000000 1.265345
    22 1.159201 0.000002 -0.000001 0.000000 0.000000 1.527123
    23 13.333940 0.905788 19.735220 1.582244 -0.018583 -3.126154
  time 12
    0 0.135014 -5.181166 -24.816700 0.000000 0.000000 -1.570795
    1 0.000001 0.000000 0.000000 -0.000086 -1.570451 -1.570709
    2 4.443614 -0.009643 0.000006 -0.000004 -0.000001 0.000796
    3 12.111416 -0.011445 0.000000 0.000000 0.000000 0.000000
    4 0.000005 0.011450 -1.352403 -0.000014 1.370796 3.140783
    5 6.078087 0.000000 0.000002 0.242162 -1.039228 -0.270737
    6 13.446753 -0.000002 0.000001 0.000000 0.000000 -0.595505
    7 15.996999 0.000000 0.000000 1.837507 -0.141929 -0.162724
    8 1.885327 0.833276 2.177873 1.264233 -0.638137 0.530090
    9 1.506962 0.000001 -0.000002 0.000000 0.000000 -0.488689
    10 0.798348 0.000001 0.000000 0.000000 0.000000 -0.986085
    11 3.950301 -0.539876 2.108870 -0.037808 0.038137 -0.197081
    12 1.545794 0.000000 -0.000002 0.000000 0.000000 1.396235
    13 1.667397 -0.000001 0.000001 0.000000 0.000000 1.466046
    14 3.899457 -0.475376 1.170887 -0.069014 0.069822 -0.026114
    15 1.528215 0.000000 0.000000 0.000000 0.000000 1.047176
    16 1.528216 -0.000002 0.000000 0.000000 0.000000 1.815102
    17 3.899455 -0.431803 -0.168226 -0.003758 -0.034707 0.130944
    18 1.506961 -0.000001 -0.000002 0.000000 0.000000 1.082084
    19 1.506964 0.000000 0.000000 0.000000 0.000000 1.727834
    20 3.915632 -0.278019 -1.402611 0.304318 -0.057143 -0.007490
    21 1.333082 0.000002 -0.000002 0.000000 0.000000 1.265345
    22 1.159201 0.000002 -0.000001 0.000000 0.000000 1.527123
    23 13.333940 0.905788 19.735220 1.582244 -0.018583 -3.126154
  time 13
    0 0.135014 -5.181166 -24.816700 0.000000 0.000000 -1.570795
    1 0.000001 0.000000 0.000000 -0.000086 -1.570451 -1.570709
    2 4.443614 -0.009643 0.000006 -0.000004 -0.000001 0.000796
    3 12.111416 -0.011445 0.000000 0.000000 0.000000 0.000000
    4 0.000005 0.011450 -1.352403 -0.000014 1.370796 3.140783
    5 6.078087 0.000000 0.000002 0.271037 -1.034717 -0.304190
    6 13.446753 -0.000002 0.000001 0.000000 0.000000 -0.650573
    7 15.996999 0.000000 0.000000 1.837507 -0.141929 -0.162724
    8 1.885327 0.833276 2.177873 1.264233 -0.638137 0.530090
    9 1.506962 0.000001 -0.000002 0.000000 0.000000 -0.488689
    10 0.798348 0.000001 0.000000 0.000000 0.000000 -0.986085
    11 3.950301 -0.539876 2.108870 -0.037808 0.038137 -0.197081
    12 1.545794 0.000000 -0.000002 0.000000 0.000000 1.396235
    13 1.667397 -0.000001 0.000001 0.000000 0.000000 1.466046
    14 3.899457 -0.475376 1.170887 -0.069014 0.069822 -0.026114
    15 1.528215 0.000000 0.000000 0.000000 0.000000 1.047176
    16 1.528216 -0.000002 0.000000 0.000000 0.000000 1.815102
    17 3.899455 -0.431803 -0.168226 -0.003758 -0.034707 0.130944
    18 1.506961 -0.000001 -0.000002 0.000000 0.000000 1.082084
    19 1.506964 0.000000 0.000000 0.000000 0.000000 1.727876
    20 3.915632 -0.278019 -1.402611 0.304318 -0.057143 -0.007490
    21 1.333082 0.000002 -0.000002 0.000000 0.000000 1.265345
    22 1.159201 0.000002 -0.000001 0.000000 0.000000 1.527123
    23 13.333940 0.905788 19.735220 1.582244 -0.018583 -3.126154
  time 14
    0 0.135014 -5.181166 -24.816700 0.000000 0.000000 -1.570795
    1 0.000001 0.000000 0.000000 -0.000086 -1.570451 -1.570709
    2 4.443614 -0.009643 0.000006 -0.000004 -0.000001 0.000796
    3 12.111416 -0.011445 0.000000 0.000000 0.000000 0.000000
    4 0.000005 0.011450 -1.352403 -0.000014 1.370796 3.140783
    5 6.078087 0.000000 0.000002 0.299295 -1.029710 -0.337175
    6 13.446753 -0.000002 0.000001 0.000000 0.000000 -0.704310
    7 15.996999 0.000000 0.000000 1.837507 -0.141929 -0.162724
    8 1.885327 0.833276 2.177873 1.264233 -0.638137 0.530090
    9 1.506962 0.000001 -0.000002 0.000000 0.000000 -0.488689
    10 0.798348 0.000001 0.000000 0.000000 0.000000 -0.986085
    11 3.950301 -0.539876 2.108870 -0.037808 0.038137 -0.197081
    12 1.545794 0.000000 -0.000002 0.000000 0.000000 1.396235
    13 1.667397 -0.000001 0.000001 0.000000 0.000000 1.466046
    14 3.899457 -0.475376 1.170887 -0.069014 0.069822 -0.026114
    15 1.528215 0.000000 0.000000 0.000000 0.000000 1.047176
    16 1.528216 -0.000002 0.000000 0.000000 0.000000 1.815102
    17 3.899455 -0.431803 -0.168226 -0.003758 -0.034707 0.130944
    18 1.506961 -0.000001 -0.000002 0.000000 0.000000 1.082084
    19 1.506964 0.000000 0.000000 0.000000 0.000000 1.727834
    20 3.915632 -0.278019 -1.402611 0.304318 -0.057143 -0.007490
    21 1.333082 0.000002 -0.000002 0.000000 0.000000 1.265345
    22 1.159201 0.000002 -0.000001 0.000000 0.000000 1.527123
    23 13.333940 0.905788 19.735220 1.582244 -0.018583 -3.126154
  time 15
    0 0.135014 -5.181166 -24.816700 0.000000 0.000000 -1.570795
    1 0.000001 0.000000 0.000000 -0.000086 -1.570451 -1.570709
    2 4.443614 -0.009643 0.000006 -0.000004 -0.000001 0.000796
    3 12.111416 -0.011445 0.000000 0.000000 0.000000 0.000000
    4 0.000005 0.011450 -1.352403 -0.000014 1.370796 3.140783
    5 6.078087 0.000000 0.000002 0.327037 -1.024248 -0.369515
    6 13.446753 -0.000002 0.000001 0.000000 0.000000 -0.756589
    7 15.996999 0.000000 0.000000 1.837507 -0.141929 -0.162724
    8 1.885327 0.833276 2.177873 1.264233 -0.638137 0.530090
    9 1.506962 0.000001 -0.000002 0.000000 0.000000 -0.488689
    10 0.798348 0.000001 0.000000 0.000000 0.000000 -0.986085
    11 3.950301 -0.539876 2.108870 -0.037808 0.038137 -0.197081
    12 1.545794 0.000000 -0.000002 0.000000 0.000000 1.396235
    13 1.667397 -0.000001 0.000001 0.000000 0.000000 1.466046
    14 3.899457 -0.475376 1.170887 -0.069014 0.069822 -0.026114
    15 1.528215 0.000000 0.000000 0.000000 0.000000 1.047176
    16 1.528216 -0.000002 0.000000 0.000000 0.000000 1.815102
    17 3.899455 -0.431803 -0.168226 -0.003758 -0.034707 0.130944
    18 1.506961 -0.000001 -0.000002 0.000000 0.000000 1.082084
    19 1.506964 0.000000 0.000000 0.000000 0.000000 1.727834
    20 3.915632 -0.278019 -1.402611 0.304318 -0.057143 -0.007490
    21 1.333082 0.000002 -0.000002 0.000000 0.000000 1.265345
    22 1.159201 0.000002 -0.000001 0.000000 0.000000 1.527123
    23 13.333940 0.905788 19.735220 1.582244 -0.018583 -3.126154
  time 16
    0 0.135014 -5.181166 -24.816700 0.000000 0.000000 -1.570795
    1 0.000001 0.000000 0.000000 -0.000086 -1.570451 -1.570709
    2 4.443614 -0.009643 0.000006 -0.000004 -0.000001 0.000796
    3 12.111416 -0.011445 0.000000 0.000000 0.000000 0.000000
    4 0.000005 0.011450 -1.352403 -0.000014 1.370796 3.140783
    5 6.078087 0.000000 0.000002 0.354162 -1.018330 -0.401328
    6 13.446753 -0.000002 0.000001 0.000000 0.000000 -0.807094
    7 15.996999 0.000000 0.000000 1.837507 -0.141929 -0.162724
    8 1.885327 0.833276 2.177873 1.264233 -0.638137 0.530090
    9 1.506962 0.000001 -0.000002 0.000000 0.000000 -0.488689
    10 0.798348 0.000001 0.000000 0.000000 0.000000 -0.986085
    11 3.950301 -0.539876 2.108870 -0.037808 0.038137 -0.197081
    12 1.545794 0.000000 -0.000002 0.000000 0.000000 1.396235
    13 1.667397 -0.000001 0.000001 0.000000 0.000000 1.466046
    14 3.899457 -0.475376 1.170887 -0.069014 0.069822 -0.026114
    15 1.528215 0.000000 0.000000 0.000000 0.000000 1.047176
    16 1.528216 -0.000002 0.000000 0.000000 0.000000 1.815102
    17 3.899455 -0.431803 -0.168226 -0.003758 -0.034707 0.130944
    18 1.506961 -0.000001 -0.000002 0.000000 0.000000 1.082084
    19 1.506964 0.000000 0.000000 0.000000 0.000000 1.727834
    20 3.915632 -0.278019 -1.402611 0.304318 -0.057143 -0.007490
    21 1.333082 0.000002 -0.000002 0.000000 0.000000 1.265345
    22 1.159201 0.000002 -0.000001 0.000000 0.000000 1.527123
    23 13.333940 0.905788 19.735220 1.582244 -0.018583 -3.126154
  time 17
    0 0.135014 -5.181166 -24.816700 0.000000 0.000000 -1.570795
    1 0.000001 0.000000 0.000000 -0.000086 -1.570451 -1.570709
    2 4.443614 -0.009643 0.000006 -0.000004 -0.000001 0.000796
    3 12.111416 -0.011445 0.000000 0.000000 0.000000 0.000000
    4 0.000005 0.011450 -1.352403 -0.000014 1.370796 3.140783
    5 6.078087 0.000000 0.000002 0.380618 -1.011999 -0.432496
    6 13.446753 -0.000002 0.000001 0.000000 0.000000 -0.855634
    7 15.996999 0.000000 0.000000 1.837507 -0.141929 -0.162724
    8 1.885327 0.833276 2.177873 1.264233 -0.638137 0.530090
    9 1.506962 0.000001 -0.000002 0.000000 0.000000 -0.488689
    10 0.798348 0.000001 0.000000 0.000000 0.000000 -0.986085
    11 3.950301 -0.539876 2.108870 -0.037808 0.038137 -0.197081
    12 1.545794 0.000000 -0.000002 0.000000 0.000000 1.396235
    13 1.667397 -0.000001 0.000001 0.000000 0.000000 1.466046
    14 3.899457 -0.475376 1.170887 -0.069014 0.069822 -0.026114
    15 1.528215 0.000000 0.000000 0.000000 0.000000 1.047176
    16 1.528216 -0.000002 0.000000 0.000000 0.000000 1.815102
    17 3.899455 -0.431803 -0.168226 -0.003758 -0.034707 0.130944
    18 1.506961 -0.000001 -0.000002 0.000000 0.000000 1.082084
    19 1.506964 0.000000 0.000000 0.000000 0.000000 1.727834
    20 3.915632 -0.278019 -1.402611 0.304318 -0.057143 -0.007490
    21 1.333082 0.000002 -0.000002 0.000000 0.000000 1.265345
    22 1.159201 0.000002 -0.000001 0.000000 0.000000 1.527123
    23 13.333940 0.905788 19.735220 1.582244 -0.018583 -3.126154
  time 18
    0 0.135014 -5.181166 -24.816700 0.000000 0.000000 -1.570795
    1 0.000001 0.000000 0.000000 -0.000086 -1.570451 -1.570709
    2 4.443614 -0.009643 0.000006 -0.000004 -0.000001 0.000796
    3 12.111416 -0.011445 0.000000 0.000000 0.000000 0.000000
    4 0.000005 0.011450 -1.352403 -0.000014 1.370796 3.140783
    5 6.078087 0.000000 0.000002 0.406456 -1.005213 -0.462961
    6 13.446753 -0.000002 0.000001 0.000000 0.000000 -0.902020
    7 15.996999 0.000000 0.000000 1.837507 -0.141929 -0.162724
    8 1.885327 0.833276 2.177873 1.264233 -0.638137 0.530090
    9 1.506962 0.000001 -0.000002 0.000000 0.000000 -0.488689
    10 0.798348 0.000001 0.000000 0.000000 0.000000 -0.986085
    11 3.950301 -0.539876 2.108870 -0.037808 0.038137 -0.197081
    12 1.545794 0.000000 -0.000002 0.000000 0.000000 1.396235
    13 1.667397 -0.000001 0.000001 0.000000 0.000000 1.466046
    14 3.899457 -0.475376 1.170887 -0.069014 0.069822 -0.026114
    15 1.528215 0.000000 0.000000 0.000000 0.000000 1.047176
    16 1.528216 -0.000002 0.000000 0.000000 0.000000 1.815102
    17 3.899455 -0.431803 -0.168226 -0.003758 -0.034707 0.130944
    18 1.506961 -0.000001 -0.000002 0.000000 0.000000 1.082084
    19 1.506964 0.000000 0.000000 0.000000 0.000000 1.727834
    20 3.915632 -0.278019 -1.402611 0.304318 -0.057143 -0.007490
    21 1.333082 0.000002 -0.000002 0.000000 0.000000 1.265345
    22 1.159201 0.000002 -0.000001 0.000000 0.000000 1.527123
    23 13.333940 0.905788 19.735220 1.582244 -0.018583 -3.126154
  time 19
    0 0.135014 -5.181166 -24.816700 0.000000 0.000000 -1.570795
    1 0.000001 0.000000 0.000000 -0.000086 -1.570451 -1.570709
    2 4.443614 -0.009643 0.000006 -0.000004 -0.000001 0.000796
    3 12.111416 -0.011445 0.000000 0.000000 0.000000 0.000000
    4 0.000005 0.011450 -1.352403 -0.000014 1.370796 3.140783
    5 6.078087 0.000000 0.000002 0.431574 -0.998013 -0.492841
    6 13.446753 -0.000002 0.000001 0.000000 0.000000 -0.945998
    7 15.996999 0.000000 0.000000 1.837507 -0.141929 -0.162724
    8 1.885327 0.833276 2.177873 1.264233 -0.638137 0.530090
    9 1.506962 0.000001 -0.000002 0.000000 0.000000 -0.488689
    10 0.798348 0.000001 0.000000 0.000000 0.000000 -0.986085
    11 3.950301 -0.539876 2.108870 -0.037808 0.038137 -0.197081
    12 1.545794 0.000000 -0.000002 0.000000 0.000000 1.396235
    13 1.667397 -0.000001 0.000001 0.000000 0.000000 1.466046
    14 3.899457 -0.475376 1.170887 -0.069014 0.069822 -0.026114
    15 1.528215 0.000000 0.000000 0.000000 0.000000 1.047176
    16 1.528216 -0.000002 0.000000 0.000000 0.000000 1.815143
    17 3.899455 -0.431803 -0.168226 -0.003758 -0.034707 0.130944
    18 1.506961 -0.000001 -0.000002 0.000000 0.000000 1.082084
    19 1.506964 0.000000 0.000000 0.000000 0.000000 1.727834
    20 3.915632 -0.278019 -1.402611 0.304318 -0.057143 -0.007490
    21 1.333082 0.000002 -0.000002 0.000000 0.000000 1.265345
    22 1.159201 0.000002 -0.000001 0.000000 0.000000 1.527123
    23 13.333940 0.905788 19.735220 1.582244 -0.018583 -3.126154
  time 20
    0 0.135014 -5.181166 -24.816700 0.000000 0.000000 -1.570795
    1 0.000001 0.000000 0.000000 -0.000086 -1.570451 -1.570709
    2 4.443614 -0.009643 0.000006 -0.000004 -0.000001 0.000796
    3 12.111416 -0.011445 0.000000 0.000000 0.000000 0.000000
    4 0.000005 0.011450 -1.352403 -0.000014 1.370796 3.140783
    5 6.078087 0.000000 0.000002 0.456074 -0.990398 -0.522017
    6 13.446753 -0.000002 0.000001 0.000000 0.000000 -0.987315
    7 15.996999 0.000000 0.000000 1.837507 -0.141929 -0.162724
    8 1.885327 0.833276 2.177873 1.264233 -0.638137 0.530090
    9 1.506962 0.000001 -0.000002 0.000000 0.000000 -0.488689
    10 0.798348 0.000001 0.000000 0.000000 0.000000 -0.986085
    11 3.950301 -0.539876 2.108870 -0.037808 0.038137 -0.197081
    12 1.545794 0.000000 -0.000002 0.000000 0.000000 1.396235
    13 1.667397 -0.000001 0.000001 0.000000 0.000000 1.466046
    14 3.899457 -0.475376 1.170887 -0.069014 0.069822 -0.026114
    15 1.528215 0.000000 0.000000 0.000000 0.000000 1.047176
    16 1.528216 -0.000002 0.000000 0.000000 0.000000 1.815102
    17 3.899455 -0.431803 -0.168226 -0.003758 -0.034707 0.130944
    18 1.506961 -0.000001 -0.000002 0.000000 0.000000 1.082084
    19 1.506964 0.000000 0.000000 0.000000 0.000000 1.727876
    20 3.915632 -0.278019 -1.402611 0.304318 -0.057143 -0.007490
    21 1.333082 0.000002 -0.000002 0.000000 0.000000 1.265345
    22 1.159201 0.000002 -0.000001 0.000000 0.000000 1.527123
    23 13.333940 0.905788 19.735220 1.582244 -0.018583 -3.126154
  time 21
    0 0.135014 -5.181166 -24.816700 0.000000 0.000000 -1.570795
    1 0.000001 0.000000 0.000000 -0.000086 -1.570451 -1.570709
    2 4.443614 -0.009643 0.000006 -0.000004 -0.000001 0.000796
    3 12.111416 -0.011445 0.000000 0.000000 0.000000 0.000000
    4 0.000005 0.011450 -1.352403 -0.000014 1.370796 3.140783
    5 6.078087 0.000000 0.000002 0.479802 -0.982453 -0.550491
    6 13.446753 -0.000002 0.000001 0.000000 0.000000 -1.025716
    7 15.996999 0.000000 0.000000 1.837507 -0.141929 -0.162724
    8 1.885327 0.833276 2.177873 1.264233 -0.638137 0.530090
    9 1.506962 0.000001 -0.000002 0.000000 0.000000 -0.488689
    10 0.798348 0.000001 0.000000 0.000000 0.000000 -0.986085
    11 3.950301 -0.539876 2.108870 -0.037808 0.038137 -0.197081
    12 1.545794 0.000000 -0.000002 0.000000 0.000000 1.396235
    13 1.667397 -0.000001 0.000001 0.000000 0.000000 1.466046
    14 3.899457 -0.475376 1.170887 -0.069014 0.069822 -0.026114
    15 1.528215 0.000000 0.000000 0.000000 0.000000 1.047176
    16 1.528216 -0.000002 0.000000 0.000000 0.000000 1.815102
    17 3.899455 -0.431803 -0.168226 -0.003758 -0.034707 0.130944
    18 1.506961 -0.000001 -0.000002 0.000000 0.000000 1.082084
    19 1.506964 0.000000 0.000000 0.000000 0.000000 1.727834
    20 3.915632 -0.278019 -1.402611 0.304318 -0.057143 -0.007490
    21 1.333082 0.000002 -0.000002 0.000000 0.000000 1.265345
    22 1.159201 0.000002 -0.000001 0.000000 0.000000 1.527123
    23 13.333940 0.905788 19.735220 1.582244 -0.018583 -3.126154
  time 22
    0 0.135014 -5.181166 -24.816700 0.000000 0.000000 -1.570795
    1 0.000001 0.000000 0.000000 -0.000086 -1.570451 -1.570709
    2 4.443614 -0.009643 0.000006 -0.000004 -0.000001 0.000796
    3 12.111416 -0.011445 0.000000 0.000000 0.000000 0.000000
    4 0.000005 0.011450 -1.352403 -0.000014 1.370796 3.140783
    5 6.078087 0.000000 0.000002 0.502861 -0.974094 -0.578261
    6 13.446753 -0.000002 0.000001 0.000000 0.000000 -1.061140
    7 15.996999 0.000000 0.000000 1.837507 -0.141929 -0.162724
    8 1.885327 0.833276 2.177873 1.264233 -0.638137 0.530090
    9 1.506962 0.000001 -0.000002 0.000000 0.000000 -0.488689
    10 0.798348 0.000001 0.000000 0.000000 0.000000 -0.986085
    11 3.950301 -0.539876 2.108870 -0.037808 0.038137 -0.197081
    12 1.545794 0.000000 -0.000002 0.000000 0.000000 1.396235
    13 1.667397 -0.000001 0.000001 0.000000 0.000000 1.466046
    14 3.899457 -0.475376 1.170887 -0.069014 0.069822 -0.026114
    15 1.528215 0.000000 0.000000 0.000000 0.000000 1.047176
    16 1.528216 -0.000002 0.000000 0.000000 0.000000 1.815102
    17 3.899455 -0.431803 -0.168226 -0.003758 -0.034707 0.130944
    18 1.506961 -0.000001 -0.000002 0.000000 0.000000 1.082084
    19 1.506964 0.000000 0.000000 0.000000 0.000000 1.727834
    20 3.915632 -0.278019 -1.402611 0.304318 -0.057143 -0.007490
    21 1.333082 0.000002 -0.000002 0.000000 0.000000 1.265345
    22 1.159201 0.000002 -0.000001 0.000000 0.000000 1.527123
    23 13.333940 0.905788 19.735220 1.582244 -0.018583 -3.126154
  time 23
    0 0.135014 -5.181166 -24.816700 0.000000 0.000000 -1.570795
    1 0.000001 0.000000 0.000000 -0.000086 -1.570451 -1.570709
    2 4.443614 -0.009643 0.000006 -0.000004 -0.000001 0.000796
    3 12.111416 -0.011445 0.000000 0.000000 0.000000 0.000000
    4 0.000005 0.011450 -1.352403 -0.000014 1.370796 3.140783
    5 6.078087 0.000000 0.000002 0.525250 -0.965404 -0.605387
    6 13.446753 -0.000002 0.000001 0.000000 0.000000 -1.083065
    7 15.996999 0.000000 0.000000 1.837507 -0.141929 -0.162724
    8 1.885327 0.833276 2.177873 1.264233 -0.638137 0.530090
    9 1.506962 0.000001 -0.000002 0.000000 0.000000 -0.488689
    10 0.798348 0.000001 0.000000 0.000000 0.000000 -0.986085
    11 3.950301 -0.539876 2.108870 -0.037808 0.038137 -0.197081
    12 1.545794 0.000000 -0.000002 0.000000 0.000000 1.396235
    13 1.667397 -0.000001 0.000001 0.000000 0.000000 1.466046
    14 3.899457 -0.475376 1.170887 -0.069014 0.069822 -0.026114
    15 1.528215 0.000000 0.000000 0.000000 0.000000 1.047176
    16 1.528216 -0.000002 0.000000 0.000000 0.000000 1.815102
    17 3.899455 -0.431803 -0.168226 -0.003758 -0.034707 0.130944
    18 1.506961 -0.000001 -0.000002 0.000000 0.000000 1.082084
    19 1.506964 0.000000 0.000000 0.000000 0.000000 1.727834
    20 3.915632 -0.278019 -1.402611 0.304318 -0.057143 -0.007490
    21 1.333082 0.000002 -0.000002 0.000000 0.000000 1.265345
    22 1.159201 0.000002 -0.000001 0.000000 0.000000 1.527123
    23 13.333940 0.905788 19.735220 1.582244 -0.018583 -3.126154
  time 24
    0 0.135014 -5.181166 -24.816700 0.000000 0.000000 -1.570795
    1 0.000001 0.000000 0.000000 -0.000086 -1.570451 -1.570709
    2 4.443614 -0.009643 0.000006 -0.000004 -0.000001 0.000796
    3 12.111416 -0.011445 0.000000 0.000000 0.000000 0.000000
    4 0.000005 0.011450 -1.352403 -0.000014 1.370796 3.140783
    5 6.078087 0.000000 0.000002 0.546920 -0.956383 -0.631810
    6 13.446753 -0.000002 0.000001 0.000000 0.000000 -1.084713
    7 15.996999 0.000000 0.000000 1.837507 -0.141929 -0.162724
    8 1.885327 0.833276 2.177873 1.264233 -0.638137 0.530090
    9 1.506962 0.000001 -0.000002 0.000000 0.000000 -0.488689
    10 0.798348 0.000001 0.000000 0.000000 0.000000 -0.986085
    11 3.950301 -0.539876 2.108870 -0.037808 0.038137 -0.197081
    12 1.545794 0.000000 -0.000002 0.000000 0.000000 1.396235
    13 1.667397 -0.000001 0.000001 0.000000 0.000000 1.466046
    14 3.899457 -0.475376 1.170887 -0.069014 0.069822 -0.026114
    15 1.528215 0.000000 0.000000 0.000000 0.000000 1.047176
    16 1.528216 -0.000002 0.000000 0.000000 0.000000 1.815102
    17 3.899455 -0.431803 -0.168226 -0.003758 -0.034707 0.130944
    18 1.506961 -0.000001 -0.000002 0.000000 0.000000 1.082104
    19 1.506964 0.000000 0.000000 0.000000 0.000000 1.727834
    20 3.915632 -0.278019 -1.402611 0.304318 -0.057143 -0.007490
    21 1.333082 0.000002 -0.000002 0.000000 0.000000 1.265345
    22 1.159201 0.000002 -0.000001 0.000000 0.000000 1.527123
    23 13.333940 0.905788 19.735220 1.582244 -0.018583 -3.126154
  time 25
    0 0.135014 -5.181166 -24.816700 0.000000 0.000000 -1.570795
    1 0.000001 0.000000 0.000000 -0.000086 -1.570451 -1.570709
    2 4.443614 -0.009643 0.000006 -0.000004 -0.000001 0.000796
    3 12.111416 -0.011445 0.000000 0.000000 0.000000 0.000000
    4 0.000005 0.011450 -1.352403 -0.000014 1.370796 3.140783
    5 6.078087 0.000000 0.000002 0.567868 -0.947031 -0.657529
    6 13.446753 -0.000002 0.000001 0.000000 0.000000 -1.070582
    7 15.996999 0.000000 0.000000 1.837507 -0.141929 -0.162724
    8 1.885327 0.833276 2.177873 1.264233 -0.638137 0.530090
    9 1.506962 0.000001 -0.000002 0.000000 0.000000 -0.488689
    10 0.798348 0.000001 0.000000 0.000000 0.000000 -0.986085
    11 3.950301 -0.539876 2.108870 -0.037808 0.038137 -0.197081
    12 1.545794 0.000000 -0.000002 0.000000 0.000000 1.396235
    13 1.667397 -0.000001 0.000001 0.000000 0.000000 1.466046
    14 3.899457 -0.475376 1.170887 -0.069014 0.069822 -0.026114
    15 1.528215 0.000000 0.000000 0.000000 0.000000 1.047176
    16 1.528216 -0.000002 0.000000 0.000000 0.000000 1.815143
    17 3.899455 -0.431803 -0.168226 -0.003758 -0.034707 0.130944
    18 1.506961 -0.000001 -0.000002 0.000000 0.000000 1.082084
    19 1.506964 0.000000 0.000000 0.000000 0.000000 1.727834
    20 3.915632 -0.278019 -1.402611 0.304318 -0.057143 -0.007490
    21 1.333082 0.000002 -0.000002 0.000000 0.000000 1.265345
    22 1.159201 0.000002 -0.000001 0.000000 0.000000 1.527123
    23 13.333940 0.905788 19.735220 1.582244 -0.018583 -3.126154
  time 26
    0 0.135014 -5.181166 -24.816700 0.000000 0.000000 -1.570795
    1 0.000001 0.000000 0.000000 -0.000086 -1.570451 -1.570709
    2 4.443614 -0.009643 0.000006 -0.000004 -0.000001 0.000796
    3 12.111416 -0.011445 0.000000 0.000000 0.000000 0.000000
    4 0.000005 0.011450 -1.352403 -0.000014 1.370796 3.140783
    5 6.078087 0.000000 0.000002 0.588199 -0.937390 -0.682605
    6 13.446753 -0.000002 0.000001 0.000000 0.000000 -1.045551
    7 15.996999 0.000000 0.000000 1.837507 -0.141929 -0.162724
    8 1.885327 0.833276 2.177873 1.264233 -0.638137 0.530090
    9 1.506962 0.000001 -0.000002 0.000000 0.000000 -0.488689
    10 0.798348 0.000001 0.000000 0.000000 0.000000 -0.986085
    11 3.950301 -0.539876 2.108870 -0.037808 0.038137 -0.197081
    12 1.545794 0.000000 -0.000002 0.000000 0.000000 1.396235
    13 1.667397 -0.000001 0.000001 0.000000 0.000000 1.466046
    14 3.899457 -0.475376 1.170887 -0.069014 0.069822 -0.026114
    15 1.528215 0.000000 0.000000 0.000000 0.000000 1.047176
    16 1.528216 -0.000002 0.000000 0.000000 0.000000 1.815102
    17 3.899455 -0.431803 -0.168226 -0.003758 -0.034707 0.130944
    18 1.506961 -0.000001 -0.000002 0.000000 0.000000 1.082084
    19 1.506964 0.000000 0.000000 0.000000 0.000000 1.727834
    20 3.915632 -0.278019 -1.402611 0.304318 -0.057143 -0.007490
    21 1.333082 0.000002 -0.000002 0.000000 0.000000 1.265345
    22 1.159201 0.000002 -0.000001 0.000000 0.000000 1.527123
    23 13.333940 0.905788 19.735220 1.582244 -0.018583 -3.126154
  time 27
    0 0.135014 -5.181166 -24.816700 0.000000 0.000000 -1.570795
    1 0.000001 0.000000 0.000000 -0.000086 -1.570451 -1.570709
    2 4.443614 -0.009643 0.000006 -0.000004 -0.000001 0.000796
    3 12.111416 -0.011445 0.000000 0.000000 0.000000 0.000000
    4 0.000005 0.011450 -1.352403 -0.000014 1.370796 3.140783
    5 6.078087 0.000000 0.000002 0.607809 -0.927417 -0.707036
    6 13.446753 -0.000002 0.000001 0.000000 0.000000 -1.014183
    7 15.996999 0.000000 0.000000 1.837507 -0.141929 -0.162724
    8 1.885327 0.833276 2.177873 1.264233 -0.638137 0.530090
    9 1.506962 0.000001 -0.000002 0.000000 0.000000 -0.488689
    10 0.798348 0.000001 0.000000 0.000000 0.000000 -0.986085
    11 3.950301 -0.539876 2.108870 -0.037808 0.038137 -0.197081
    12 1.545794 0.000000 -0.000002 0.000000 0.000000 1.396235
    13 1.667397 -0.000001 0.000001 0.000000 0.000000 1.466046
    14 3.899457 -0.475376 1.170887 -0.069014 0.069822 -0.026114
    15 1.528215 0.000000 0.000000 0.000000 0.000000 1.047176
    16 1.528216 -0.000002 0.000000 0.000000 0.000000 1.815102
    17 3.899455 -0.431803 -0.168226 -0.003758 -0.034707 0.130944
    18 1.506961 -0.000001 -0.000002 0.000000 0.000000 1.082084
    19 1.506964 0.000000 0.000000 0.000000 0.000000 1.727834
    20 3.915632 -0.278019 -1.402611 0.304318 -0.057143 -0.007490
    21 1.333082 0.000002 -0.000002 0.000000 0.000000 1.265345
    22 1.159201 0.000002 -0.000001 0.000000 0.000000 1.527123
    23 13.333940 0.905788 19.735220 1.582244 -0.018583 -3.126154
  time 28
    0 0.135014 -5.181166 -24.816700 0.000000 0.000000 -1.570795
    1 0.000001 0.000000 0.000000 -0.000086 -1.570451 -1.570709
    2 4.443614 -0.009643 0.000006 -0.000004 -0.000001 0.000796
    3 12.111416 -0.011445 0.000000 0.000000 0.000000 0.000000
    4 0.000005 0.011450 -1.352403 -0.000014 1.370796 3.140783
    5 6.078087 0.000000 0.000002 0.626750 -0.917196 -0.730763
    6 13.446753 -0.000002 0.000001 0.000000 0.000000 -0.981295
    7 15.996999 0.000000 0.000000 1.837507 -0.141929 -0.162724
    8 1.885327 0.833276 2.177873 1.264233 -0.638137 0.530090
    9 1.506962 0.000001 -0.000002 0.000000 0.000000 -0.488689
    10 0.798348 0.000001 0.000000 0.000000 0.000000 -0.986085
    11 3.950301 -0.539876 2.108870 -0.037808 0.038137 -0.197081
    12 1.545794 0.000000 -0.000002 0.000000 0.000000 1.396235
    13 1.667397 -0.000001 0.000001 0.000000 0.000000 1.466046
    14 3.899457 -0.475376 1.170887 -0.069014 0.069822 -0.026114
    15 1.528215 0.000000 0.000000 0.000000 0.000000 1.047176
    16 1.528216 -0.000002 0.000000 0.000000 0.000000 1.815102
    17 3.899455 -0.431803 -0.168226 -0.003758 -0.034707 0.130944
    18 1.506961 -0.000001 -0.000002 0.000000 0.000000 1.082084
    19 1.506964 0.000000 0.000000 0.000000 0.000000 1.727834
    20 3.915632 -0.278019 -1.402611 0.304318 -0.057143 -0.007490
    21 1.333082 0.000002 -0.000002 0.000000 0.000000 1.265345
    22 1.159201 0.000002 -0.000001 0.000000 0.000000 1.527123
    23 13.333940 0.905788 19.735220 1.582244 -0.018583 -3.126154
  time 29
    0 0.135014 -5.181166 -24.816700 0.000000 0.000000 -1.570795
    1 0.000001 0.000000 0.000000 -0.000086 -1.570451 -1.570709
    2 4.443614 -0.009643 0.000006 -0.000004 -0.000001 0.000796
    3 12.111416 -0.011445 0.000000 0.000000 0.000000 0.000000
    4 0.000005 0.011450 -1.352403 -0.000014 1.370796 3.140783
    5 6.078087 0.000000 0.000002 0.645023 -0.906727 -0.753905
    6 13.446753 -0.000002 0.000001 0.000000 0.000000 -0.951575
    7 15.996999 0.000000 0.000000 1.837507 -0.141929 -0.162724
    8 1.885327 0.833276 2.177873 1.264233 -0.638137 0.530090
    9 1.506962 0.000001 -0.000002 0.000000 0.000000 -0.488689
    10 0.798348 0.000001 0.000000 0.000000 0.000000 -0.986085
    11 3.950301 -0.539876 2.108870 -0.037808 0.038137 -0.197081
    12 1.545794 0.000000 -0.000002 0.000000 0.000000 1.396235
    13 1.667397 -0.000001 0.000001 0.000000 0.000000 1.466046
    14 3.899457 -0.475376 1.170887 -0.069014 0.069822 -0.026114
    15 1.528215 0.000000 0.000000 0.000000 0.000000 1.047176
    16 1.528216 -0.000002 0.000000 0.000000 0.000000 1.815102
    17 3.899455 -0.431803 -0.168226 -0.003758 -0.034707 0.130944
    18 1.506961 -0.000001 -0.000002 0.000000 0.000000 1.082084
    19 1.506964 0.000000 0.000000 0.000000 0.000000 1.727834
    20 3.915632 -0.278019 -1.402611 0.304318 -0.057143 -0.007490
    21 1.333082 0.000002 -0.000002 0.000000 0.000000 1.265345
    22 1.159201 0.000002 -0.000001 0.000000 0.000000 1.527123
    23 13.333940 0.905788 19.735220 1.582244 -0.018583 -3.126154
  time 30
    0 0.135014 -5.181166 -24.816700 0.000000 0.000000 -1.570795
    1 0.000001 0.000000 0.000000 -0.000086 -1.570451 -1.570709
    2 4.443614 -0.009643 0.000006 -0.000004 -0.000001 0.000796
    3 12.111416 -0.011445 0.000000 0.000000 0.000000 0.000000
    4 0.000005 0.011450 -1.352403 -0.000014 1.370796 3.140783
    5 6.078087 0.000000 0.000002 0.662677 -0.895968 -0.776403
    6 13.446753 -0.000002 0.000001 0.000000 0.000000 -0.929649
    7 15.996999 0.000000 0.000000 1.837507 -0.141929 -0.162724
    8 1.885327 0.833276 2.177873 1.264233 -0.638137 0.530090
    9 1.506962 0.000001 -0.000002 0.000000 0.000000 -0.488689
    10 0.798348 0.000001 0.000000 0.000000 0.000000 -0.986085
    11 3.950301 -0.539876 2.108870 -0.037808 0.038137 -0.197081
    12 1.545794 0.000000 -0.000002 0.000000 0.000000 1.396235
    13 1.667397 -0.000001 0.000001 0.000000 0.000000 1.466046
    14 3.899457 -0.475376 1.170887 -0.069014 0.069822 -0.026114
    15 1.528215 0.000000 0.000000 0.000000 0.000000 1.047176
    16 1.528216 -0.000002 0.000000 0.000000 0.000000 1.815102
    17 3.899455 -0.431803 -0.168226 -0.003758 -0.034707 0.130944
    18 1.506961 -0.000001 -0.000002 0.000000 0.000000 1.082084
    19 1.506964 0.000000 0.000000 0.000000 0.000000 1.727834
    20 3.915632 -0.278019 -1.402611 0.304318 -0.057143 -0.007490
    21 1.333082 0.000002 -0.000002 0.000000 0.000000 1.265345
    22 1.159201 0.000002 -0.000001 0.000000 0.000000 1.527123
    23 13.333940 0.905788 19.735220 1.582244 -0.018583 -3.126154
end
