// Created by Crowbar 0.74
version 1
nodes
  0 "Bip01" -1
  1 "Bip01 Pelvis" 0
  2 "Bip01 Spine" 1
  3 "Bip01 Neck" 2
  4 "Bip01 R Clavicle" 3
  5 "Bip01 R UpperArm" 4
  6 "Bip01 R Forearm" 5
  7 "Bip01 R Hand" 6
  8 "Bip01 R Finger0" 7
  9 "Bip01 R Finger01" 8
  10 "Bip01 R Finger02" 9
  11 "Bip01 R Finger1" 7
  12 "Bip01 R Finger11" 11
  13 "Bip01 R Finger12" 12
  14 "Bip01 R Finger2" 7
  15 "Bip01 R Finger21" 14
  16 "Bip01 R Finger22" 15
  17 "Bip01 R Finger3" 7
  18 "Bip01 R Finger31" 17
  19 "Bip01 R Finger32" 18
  20 "Bip01 R Finger4" 7
  21 "Bip01 R Finger41" 20
  22 "Bip01 R Finger42" 21
  23 "Beer Bottle" 7
end
skeleton
  time 0
    0 0.134138 -0.053419 43.181469 0.000000 0.000000 -1.570795
    1 0.000000 0.000000 0.000000 0.000000 -1.570451 -1.570795
    2 4.443615 -0.009642 0.000006 -0.000004 -0.000001 0.000796
    3 12.111412 -0.011446 0.000000 0.000000 0.000000 0.000000
    4 0.000008 0.011449 -1.352403 -0.000014 1.370796 3.140783
    5 6.078086 0.000000 0.000000 1.269618 -0.044848 -1.538622
    6 13.446753 0.000000 0.000000 0.000000 0.000000 -0.069100
    7 15.997002 0.000000 0.000001 1.683446 0.000000 0.000000
    8 1.885326 0.833277 2.177876 1.598016 -0.698132 -0.000668
    9 1.506962 -0.000002 0.000000 0.000000 0.000000 -0.139626
    10 0.798351 0.000000 0.000000 0.000000 0.000000 -0.113446
    11 3.950306 -0.539876 2.108868 0.000806 -0.157080 -0.000126
    12 1.545788 0.000000 0.000004 0.000000 0.000000 0.471239
    13 1.667393 -0.000002 -0.000004 0.000000 0.000000 0.436332
    14 3.899464 -0.475376 1.170887 0.000796 0.000000 0.000000
    15 1.528217 0.000000 0.000004 0.000000 0.000000 0.331613
    16 1.528215 -0.000002 -0.000011 0.000000 0.000000 0.479965
    17 3.899464 -0.431804 -0.168228 0.000796 0.000000 0.000000
    18 1.506962 0.000000 0.000000 0.000000 0.000000 0.427606
    19 1.506964 0.000000 0.000008 0.000000 0.000000 0.340339
    20 3.915634 -0.278019 -1.402603 0.000796 0.000000 0.000000
    21 1.333080 0.000000 0.000008 0.000000 0.000000 0.637045
    22 1.159208 0.000000 -0.000004 0.000000 0.000000 0.218166
    23 3.967457 1.549654 2.149052 -0.130847 0.129950 0.618388
end
triangles
W_Garb_BeerBottle(256x128)
  23 -6.048950 -32.618385 55.466854 -0.168730 0.013562 -0.985569 0.000000 0.060817 1 23 1.000000
  23 -6.759533 -32.112690 55.595451 -0.168690 0.013586 -0.985575 0.111111 0.060817 1 23 1.000000
  23 -6.360149 -32.301880 55.524483 -0.168731 0.013586 -0.985568 0.055556 0.060817 1 23 1.000000
W_Garb_BeerBottle(256x128)
  23 -5.863480 -33.024029 55.429523 -0.168695 0.013580 -0.985575 -0.055556 0.060817 1 23 1.000000
  23 -6.759533 -32.112690 55.595451 -0.168690 0.013586 -0.985575 0.111111 0.060817 1 23 1.000000
  23 -6.048950 -32.618385 55.466854 -0.168730 0.013562 -0.985569 0.000000 0.060817 1 23 1.000000
W_Garb_BeerBottle(256x128)
  23 -5.826109 -33.469887 55.416981 -0.168675 0.013597 -0.985578 -0.111111 0.060817 1 23 1.000000
  23 -6.759533 -32.112690 55.595451 -0.168690 0.013586 -0.985575 0.111111 0.060817 1 23 1.000000
  23 -5.863480 -33.024029 55.429523 -0.168695 0.013580 -0.985575 -0.055556 0.060817 1 23 1.000000
W_Garb_BeerBottle(256x128)
  23 -5.941339 -33.902172 55.430737 -0.168682 0.013593 -0.985577 -0.166667 0.060817 1 23 1.000000
  23 -6.759533 -32.112690 55.595451 -0.168690 0.013586 -0.985575 0.111111 0.060817 1 23 1.000000
  23 -5.826109 -33.469887 55.416981 -0.168675 0.013597 -0.985578 -0.111111 0.060817 1 23 1.000000
W_Garb_BeerBottle(256x128)
  23 -6.195273 -34.268753 55.469143 -0.168688 0.013588 -0.985576 -0.222222 0.060817 1 23 1.000000
  23 -6.759533 -32.112690 55.595451 -0.168690 0.013586 -0.985575 0.111111 0.060817 1 23 1.000000
  23 -5.941339 -33.902172 55.430737 -0.168682 0.013593 -0.985577 -0.166667 0.060817 1 23 1.000000
W_Garb_BeerBottle(256x128)
  23 -6.557284 -34.525414 55.527573 -0.168685 0.013588 -0.985576 -0.277778 0.060817 1 23 1.000000
  23 -6.759533 -32.112690 55.595451 -0.168690 0.013586 -0.985575 0.111111 0.060817 1 23 1.000000
  23 -6.195273 -34.268753 55.469143 -0.168688 0.013588 -0.985576 -0.222222 0.060817 1 23 1.000000
W_Garb_BeerBottle(256x128)
  23 -6.983710 -34.641190 55.598957 -0.168690 0.013590 -0.985575 -0.333333 0.060817 1 23 1.000000
  23 -6.759533 -32.112690 55.595451 -0.168690 0.013586 -0.985575 0.111111 0.060817 1 23 1.000000
  23 -6.557284 -34.525414 55.527573 -0.168685 0.013588 -0.985576 -0.277778 0.060817 1 23 1.000000
W_Garb_BeerBottle(256x128)
  23 -7.423115 -34.602131 55.674702 -0.168683 0.013591 -0.985577 0.611111 0.060817 1 23 1.000000
  23 -6.759533 -32.112690 55.595451 -0.168690 0.013586 -0.985575 0.111111 0.060817 1 23 1.000000
  23 -6.983710 -34.641190 55.598957 -0.168690 0.013590 -0.985575 -0.333333 0.060817 1 23 1.000000
W_Garb_BeerBottle(256x128)
  23 -7.822504 -34.412941 55.745674 -0.168675 0.013590 -0.985578 0.555556 0.060817 1 23 1.000000
  23 -6.759533 -32.112690 55.595451 -0.168690 0.013586 -0.985575 0.111111 0.060817 1 23 1.000000
  23 -7.423115 -34.602131 55.674702 -0.168683 0.013591 -0.985577 0.611111 0.060817 1 23 1.000000
W_Garb_BeerBottle(256x128)
  23 -8.133699 -34.096432 55.803299 -0.168673 0.013587 -0.985578 0.500000 0.060817 1 23 1.000000
  23 -6.759533 -32.112690 55.595451 -0.168690 0.013586 -0.985575 0.111111 0.060817 1 23 1.000000
  23 -7.822504 -34.412941 55.745674 -0.168675 0.013590 -0.985578 0.555556 0.060817 1 23 1.000000
W_Garb_BeerBottle(256x128)
  23 -8.133699 -34.096432 55.803299 -0.168673 0.013587 -0.985578 0.500000 0.060817 1 23 1.000000
  23 -8.319170 -33.690792 55.840633 -0.168669 0.013585 -0.985579 0.444444 0.060817 1 23 1.000000
  23 -6.759533 -32.112690 55.595451 -0.168690 0.013586 -0.985575 0.111111 0.060817 1 23 1.000000
W_Garb_BeerBottle(256x128)
  23 -8.319170 -33.690792 55.840633 -0.168669 0.013585 -0.985579 0.444444 0.060817 1 23 1.000000
  23 -8.356540 -33.244934 55.853172 -0.168699 0.013590 -0.985574 0.388889 0.060817 1 23 1.000000
  23 -6.759533 -32.112690 55.595451 -0.168690 0.013586 -0.985575 0.111111 0.060817 1 23 1.000000
W_Garb_BeerBottle(256x128)
  23 -8.356540 -33.244934 55.853172 -0.168699 0.013590 -0.985574 0.388889 0.060817 1 23 1.000000
  23 -8.241314 -32.812649 55.839420 -0.168705 0.013602 -0.985573 0.333333 0.060817 1 23 1.000000
  23 -6.759533 -32.112690 55.595451 -0.168690 0.013586 -0.985575 0.111111 0.060817 1 23 1.000000
W_Garb_BeerBottle(256x128)
  23 -8.241314 -32.812649 55.839420 -0.168705 0.013602 -0.985573 0.333333 0.060817 1 23 1.000000
  23 -7.987379 -32.446060 55.801006 -0.168693 0.013574 -0.985575 0.277778 0.060817 1 23 1.000000
  23 -6.759533 -32.112690 55.595451 -0.168690 0.013586 -0.985575 0.111111 0.060817 1 23 1.000000
W_Garb_BeerBottle(256x128)
  23 -7.987379 -32.446060 55.801006 -0.168693 0.013574 -0.985575 0.277778 0.060817 1 23 1.000000
  23 -7.625364 -32.189411 55.742580 -0.168664 0.013551 -0.985580 0.222222 0.060817 1 23 1.000000
  23 -6.759533 -32.112690 55.595451 -0.168690 0.013586 -0.985575 0.111111 0.060817 1 23 1.000000
W_Garb_BeerBottle(256x128)
  23 -7.625364 -32.189411 55.742580 -0.168664 0.013551 -0.985580 0.222222 0.060817 1 23 1.000000
  23 -7.198941 -32.073624 55.671196 -0.168683 0.013601 -0.985576 0.166667 0.060817 1 23 1.000000
  23 -6.759533 -32.112690 55.595451 -0.168690 0.013586 -0.985575 0.111111 0.060817 1 23 1.000000
W_Garb_BeerBottle(256x128)
  23 -6.212980 -33.983532 62.950974 -0.544542 -0.815328 0.196757 0.555556 0.824370 1 23 1.000000
  23 -5.904615 -33.664967 64.871567 -0.895652 -0.407822 -0.177449 0.472222 1.025500 1 23 1.000000
  23 -6.368068 -33.825802 62.979694 -0.764650 -0.599651 0.236069 0.500000 0.824370 1 23 1.000000
W_Garb_BeerBottle(256x128)
  23 -6.212980 -33.983532 62.950974 -0.544542 -0.815328 0.196757 0.555556 0.824370 1 23 1.000000
  23 -5.700746 -33.872314 64.833817 -0.438835 -0.859570 -0.261844 0.583333 1.025500 1 23 1.000000
  23 -5.904615 -33.664967 64.871567 -0.895652 -0.407822 -0.177449 0.472222 1.025500 1 23 1.000000
W_Garb_BeerBottle(256x128)
  23 -6.013943 -34.077820 62.915611 -0.203520 -0.969729 0.134929 0.611111 0.824370 1 23 1.000000
  23 -5.700746 -33.872314 64.833817 -0.438835 -0.859570 -0.261844 0.583333 1.025500 1 23 1.000000
  23 -6.212980 -33.983532 62.950974 -0.544542 -0.815328 0.196757 0.555556 0.824370 1 23 1.000000
W_Garb_BeerBottle(256x128)
  23 -5.794964 -34.097286 62.877857 0.102035 -0.991260 0.083618 0.666667 0.824370 1 23 1.000000
  23 -5.700746 -33.872314 64.833817 -0.438835 -0.859570 -0.261844 0.583333 1.025500 1 23 1.000000
  23 -6.013943 -34.077820 62.915611 -0.203520 -0.969729 0.134929 0.611111 0.824370 1 23 1.000000
W_Garb_BeerBottle(256x128)
  23 -5.794964 -34.097286 62.877857 0.102035 -0.991260 0.083618 0.666667 0.824370 1 23 1.000000
  23 -5.412885 -33.897903 64.784187 0.198015 -0.907067 -0.371511 0.694444 1.025500 1 23 1.000000
  23 -5.700746 -33.872314 64.833817 -0.438835 -0.859570 -0.261844 0.583333 1.025500 1 23 1.000000
W_Garb_BeerBottle(256x128)
  23 -5.700746 -33.872314 64.833817 -0.438835 -0.859570 -0.261844 0.583333 1.025500 1 23 1.000000
  23 -5.811659 -33.942253 65.006287 -0.578435 -0.797455 0.171694 0.555556 1.041280 1 23 1.000000
  23 -5.946191 -33.805424 65.031204 -0.823151 -0.565223 0.054259 0.500000 1.041280 1 23 1.000000
W_Garb_BeerBottle(256x128)
  23 -5.700746 -33.872314 64.833817 -0.438835 -0.859570 -0.261844 0.583333 1.025500 1 23 1.000000
  23 -5.639000 -34.024044 64.975609 -0.276111 -0.960078 -0.044853 0.611111 1.041280 1 23 1.000000
  23 -5.811659 -33.942253 65.006287 -0.578435 -0.797455 0.171694 0.555556 1.041280 1 23 1.000000
W_Garb_BeerBottle(256x128)
  23 -5.412885 -33.897903 64.784187 0.198015 -0.907067 -0.371511 0.694444 1.025500 1 23 1.000000
  23 -5.639000 -34.024044 64.975609 -0.276111 -0.960078 -0.044853 0.611111 1.041280 1 23 1.000000
  23 -5.700746 -33.872314 64.833817 -0.438835 -0.859570 -0.261844 0.583333 1.025500 1 23 1.000000
W_Garb_BeerBottle(256x128)
  23 -5.412885 -33.897903 64.784187 0.198015 -0.907067 -0.371511 0.694444 1.025500 1 23 1.000000
  23 -5.449039 -34.040932 64.942871 0.063869 -0.996213 0.058999 0.666667 1.041280 1 23 1.000000
  23 -5.639000 -34.024044 64.975609 -0.276111 -0.960078 -0.044853 0.611111 1.041280 1 23 1.000000
W_Garb_BeerBottle(256x128)
  23 -5.412885 -33.897903 64.784187 0.198015 -0.907067 -0.371511 0.694444 1.025500 1 23 1.000000
  23 -5.264691 -33.990875 64.912010 0.394044 -0.905272 -0.158785 0.722222 1.041280 1 23 1.000000
  23 -5.449039 -34.040932 64.942871 0.063869 -0.996213 0.058999 0.666667 1.041280 1 23 1.000000
W_Garb_BeerBottle(256x128)
  23 -5.175725 -33.729763 64.745918 0.716931 -0.528102 -0.455102 0.805555 1.025500 1 23 1.000000
  23 -5.264691 -33.990875 64.912010 0.394044 -0.905272 -0.158785 0.722222 1.041280 1 23 1.000000
  23 -5.412885 -33.897903 64.784187 0.198015 -0.907067 -0.371511 0.694444 1.025500 1 23 1.000000
W_Garb_BeerBottle(256x128)
  23 -5.175725 -33.729763 64.745918 0.716931 -0.528102 -0.455102 0.805555 1.025500 1 23 1.000000
  23 -5.108190 -33.879921 64.886749 0.682776 -0.729345 -0.043277 0.777778 1.041280 1 23 1.000000
  23 -5.264691 -33.990875 64.912010 0.394044 -0.905272 -0.158785 0.722222 1.041280 1 23 1.000000
W_Garb_BeerBottle(256x128)
  23 -5.236689 -33.291359 62.793423 0.956164 0.289164 -0.046207 0.944444 0.824370 1 23 1.000000
  23 -5.100237 -33.446564 64.736900 0.878990 0.073667 -0.471115 0.916667 1.025500 1 23 1.000000
  23 -5.218063 -33.513557 62.787174 0.994483 -0.088260 -0.056682 0.888889 0.824370 1 23 1.000000
W_Garb_BeerBottle(256x128)
  23 -5.218063 -33.513557 62.787174 0.994483 -0.088260 -0.056682 0.888889 0.824370 1 23 1.000000
  23 -5.100237 -33.446564 64.736900 0.878990 0.073667 -0.471115 0.916667 1.025500 1 23 1.000000
  23 -5.175725 -33.729763 64.745918 0.716931 -0.528102 -0.455102 0.805555 1.025500 1 23 1.000000
W_Garb_BeerBottle(256x128)
  23 -5.100237 -33.446564 64.736900 0.878990 0.073667 -0.471115 0.916667 1.025500 1 23 1.000000
  23 -4.998412 -33.721443 64.870148 0.873686 -0.426360 -0.234287 0.833333 1.041280 1 23 1.000000
  23 -5.175725 -33.729763 64.745918 0.716931 -0.528102 -0.455102 0.805555 1.025500 1 23 1.000000
W_Garb_BeerBottle(256x128)
  23 -5.175725 -33.729763 64.745918 0.716931 -0.528102 -0.455102 0.805555 1.025500 1 23 1.000000
  23 -4.998412 -33.721443 64.870148 0.873686 -0.426360 -0.234287 0.833333 1.041280 1 23 1.000000
  23 -5.108190 -33.879921 64.886749 0.682776 -0.729345 -0.043277 0.777778 1.041280 1 23 1.000000
W_Garb_BeerBottle(256x128)
  23 -4.998412 -33.721443 64.870148 0.873686 -0.426360 -0.234287 0.833333 1.041280 1 23 1.000000
  23 -5.160380 -33.798580 65.078293 0.706174 -0.561781 0.430952 0.777778 1.059820 1 23 1.000000
  23 -5.108190 -33.879921 64.886749 0.682776 -0.729345 -0.043277 0.777778 1.041280 1 23 1.000000
W_Garb_BeerBottle(256x128)
  23 -5.108190 -33.879921 64.886749 0.682776 -0.729345 -0.043277 0.777778 1.041280 1 23 1.000000
  23 -5.160380 -33.798580 65.078293 0.706174 -0.561781 0.430952 0.777778 1.059820 1 23 1.000000
  23 -5.283606 -33.885944 65.098183 0.481850 -0.741528 0.466858 0.722222 1.059820 1 23 1.000000
W_Garb_BeerBottle(256x128)
  23 -5.108190 -33.879921 64.886749 0.682776 -0.729345 -0.043277 0.777778 1.041280 1 23 1.000000
  23 -5.283606 -33.885944 65.098183 0.481850 -0.741528 0.466858 0.722222 1.059820 1 23 1.000000
  23 -5.264691 -33.990875 64.912010 0.394044 -0.905272 -0.158785 0.722222 1.041280 1 23 1.000000
W_Garb_BeerBottle(256x128)
  23 -5.264691 -33.990875 64.912010 0.394044 -0.905272 -0.158785 0.722222 1.041280 1 23 1.000000
  23 -5.283606 -33.885944 65.098183 0.481850 -0.741528 0.466858 0.722222 1.059820 1 23 1.000000
  23 -5.428756 -33.925358 65.122482 0.210639 -0.832748 0.512017 0.666667 1.059820 1 23 1.000000
W_Garb_BeerBottle(256x128)
  23 -5.264691 -33.990875 64.912010 0.394044 -0.905272 -0.158785 0.722222 1.041280 1 23 1.000000
  23 -5.428756 -33.925358 65.122482 0.210639 -0.832748 0.512017 0.666667 1.059820 1 23 1.000000
  23 -5.449039 -34.040932 64.942871 0.063869 -0.996213 0.058999 0.666667 1.041280 1 23 1.000000
W_Garb_BeerBottle(256x128)
  23 -5.449039 -34.040932 64.942871 0.063869 -0.996213 0.058999 0.666667 1.041280 1 23 1.000000
  23 -5.428756 -33.925358 65.122482 0.210639 -0.832748 0.512017 0.666667 1.059820 1 23 1.000000
  23 -5.578327 -33.912060 65.148262 -0.074717 -0.824446 0.560987 0.611111 1.059820 1 23 1.000000
W_Garb_BeerBottle(256x128)
  23 -5.449039 -34.040932 64.942871 0.063869 -0.996213 0.058999 0.666667 1.041280 1 23 1.000000
  23 -5.578327 -33.912060 65.148262 -0.074717 -0.824446 0.560987 0.611111 1.059820 1 23 1.000000
  23 -5.639000 -34.024044 64.975609 -0.276111 -0.960078 -0.044853 0.611111 1.041280 1 23 1.000000
W_Garb_BeerBottle(256x128)
  23 -5.639000 -34.024044 64.975609 -0.276111 -0.960078 -0.044853 0.611111 1.041280 1 23 1.000000
  23 -5.578327 -33.912060 65.148262 -0.074717 -0.824446 0.560987 0.611111 1.059820 1 23 1.000000
  23 -5.714274 -33.847660 65.172424 -0.339952 -0.717589 0.607864 0.555556 1.059820 1 23 1.000000
W_Garb_BeerBottle(256x128)
  23 -5.639000 -34.024044 64.975609 -0.276111 -0.960078 -0.044853 0.611111 1.041280 1 23 1.000000
  23 -5.714274 -33.847660 65.172424 -0.339952 -0.717589 0.607864 0.555556 1.059820 1 23 1.000000
  23 -5.811659 -33.942253 65.006287 -0.578435 -0.797455 0.171694 0.555556 1.041280 1 23 1.000000
W_Garb_BeerBottle(256x128)
  23 -5.811659 -33.942253 65.006287 -0.578435 -0.797455 0.171694 0.555556 1.041280 1 23 1.000000
  23 -5.714274 -33.847660 65.172424 -0.339952 -0.717589 0.607864 0.555556 1.059820 1 23 1.000000
  23 -5.820203 -33.739925 65.192047 -0.552944 -0.525084 0.646946 0.500000 1.059820 1 23 1.000000
W_Garb_BeerBottle(256x128)
  23 -5.811659 -33.942253 65.006287 -0.578435 -0.797455 0.171694 0.555556 1.041280 1 23 1.000000
  23 -5.820203 -33.739925 65.192047 -0.552944 -0.525084 0.646946 0.500000 1.059820 1 23 1.000000
  23 -5.946191 -33.805424 65.031204 -0.823151 -0.565223 0.054259 0.500000 1.041280 1 23 1.000000
W_Garb_BeerBottle(256x128)
  23 -5.946191 -33.805424 65.031204 -0.823151 -0.565223 0.054259 0.500000 1.041280 1 23 1.000000
  23 -5.820203 -33.739925 65.192047 -0.552944 -0.525084 0.646946 0.500000 1.059820 1 23 1.000000
  23 -5.883337 -33.601849 65.204742 -0.687982 -0.270164 0.673567 0.444444 1.059820 1 23 1.000000
W_Garb_BeerBottle(256x128)
  23 -5.946191 -33.805424 65.031204 -0.823151 -0.565223 0.054259 0.500000 1.041280 1 23 1.000000
  23 -5.883337 -33.601849 65.204742 -0.687982 -0.270164 0.673567 0.444444 1.059820 1 23 1.000000
  23 -6.026372 -33.630058 65.047340 -0.943559 -0.226099 0.242025 0.444444 1.041280 1 23 1.000000
W_Garb_BeerBottle(256x128)
  23 -6.026372 -33.630058 65.047340 -0.943559 -0.226099 0.242025 0.444444 1.041280 1 23 1.000000
  23 -5.883337 -33.601849 65.204742 -0.687982 -0.270164 0.673567 0.444444 1.059820 1 23 1.000000
  23 -5.896058 -33.450081 65.209023 -0.728803 0.016451 0.684525 0.388889 1.059820 1 23 1.000000
W_Garb_BeerBottle(256x128)
  23 -5.410134 -33.008427 61.774044 0.824297 0.541018 0.166834 1.000000 0.797233 1 23 1.000000
  23 -5.329119 -33.089203 62.812035 0.833076 0.552704 -0.022420 1.000000 0.824370 1 23 1.000000
  23 -5.236689 -33.291359 62.793423 0.956164 0.289164 -0.046207 0.944444 0.824370 1 23 1.000000
W_Garb_BeerBottle(256x128)
  23 -5.329119 -33.089203 62.812035 0.833076 0.552704 -0.022420 1.000000 0.824370 1 23 1.000000
  23 -5.100237 -33.446564 64.736900 0.878990 0.073667 -0.471115 0.916667 1.025500 1 23 1.000000
  23 -5.236689 -33.291359 62.793423 0.956164 0.289164 -0.046207 0.944444 0.824370 1 23 1.000000
W_Garb_BeerBottle(256x128)
  23 -5.329119 -33.089203 62.812035 0.833076 0.552704 -0.022420 1.000000 0.824370 1 23 1.000000
  23 -5.169190 -33.234268 64.751625 0.737922 0.528673 -0.419495 1.000000 1.025500 1 23 1.000000
  23 -5.100237 -33.446564 64.736900 0.878990 0.073667 -0.471115 0.916667 1.025500 1 23 1.000000
W_Garb_BeerBottle(256x128)
  23 -5.169190 -33.234268 64.751625 0.737922 0.528673 -0.419495 1.000000 1.025500 1 23 1.000000
  23 -4.964755 -33.341812 64.869614 0.946624 0.238296 -0.217067 0.944444 1.041280 1 23 1.000000
  23 -5.100237 -33.446564 64.736900 0.878990 0.073667 -0.471115 0.916667 1.025500 1 23 1.000000
W_Garb_BeerBottle(256x128)
  23 -5.169190 -33.234268 64.751625 0.737922 0.528673 -0.419495 1.000000 1.025500 1 23 1.000000
  23 -5.044935 -33.166447 64.885750 0.801344 0.571868 -0.175541 1.000000 1.041280 1 23 1.000000
  23 -4.964755 -33.341812 64.869614 0.946624 0.238296 -0.217067 0.944444 1.041280 1 23 1.000000
W_Garb_BeerBottle(256x128)
  23 -4.998412 -33.721443 64.870148 0.873686 -0.426360 -0.234287 0.833333 1.041280 1 23 1.000000
  23 -5.073941 -33.673801 65.065231 0.856572 -0.315158 0.408606 0.833333 1.059820 1 23 1.000000
  23 -5.160380 -33.798580 65.078293 0.706174 -0.561781 0.430952 0.777778 1.059820 1 23 1.000000
W_Garb_BeerBottle(256x128)
  23 -4.948598 -33.534557 64.864189 0.988719 -0.121734 -0.087268 0.888889 1.041280 1 23 1.000000
  23 -5.073941 -33.673801 65.065231 0.856572 -0.315158 0.408606 0.833333 1.059820 1 23 1.000000
  23 -4.998412 -33.721443 64.870148 0.873686 -0.426360 -0.234287 0.833333 1.041280 1 23 1.000000
W_Garb_BeerBottle(256x128)
  23 -5.100237 -33.446564 64.736900 0.878990 0.073667 -0.471115 0.916667 1.025500 1 23 1.000000
  23 -4.948598 -33.534557 64.864189 0.988719 -0.121734 -0.087268 0.888889 1.041280 1 23 1.000000
  23 -4.998412 -33.721443 64.870148 0.873686 -0.426360 -0.234287 0.833333 1.041280 1 23 1.000000
W_Garb_BeerBottle(256x128)
  23 -5.100237 -33.446564 64.736900 0.878990 0.073667 -0.471115 0.916667 1.025500 1 23 1.000000
  23 -4.964755 -33.341812 64.869614 0.946624 0.238296 -0.217067 0.944444 1.041280 1 23 1.000000
  23 -4.948598 -33.534557 64.864189 0.988719 -0.121734 -0.087268 0.888889 1.041280 1 23 1.000000
W_Garb_BeerBottle(256x128)
  23 -4.964755 -33.341812 64.869614 0.946624 0.238296 -0.217067 0.944444 1.041280 1 23 1.000000
  23 -5.034719 -33.526653 65.060539 0.914860 -0.031425 0.402547 0.888889 1.059820 1 23 1.000000
  23 -4.948598 -33.534557 64.864189 0.988719 -0.121734 -0.087268 0.888889 1.041280 1 23 1.000000
W_Garb_BeerBottle(256x128)
  23 -4.964755 -33.341812 64.869614 0.946624 0.238296 -0.217067 0.944444 1.041280 1 23 1.000000
  23 -5.047443 -33.374886 65.064804 0.874016 0.255186 0.413492 0.944444 1.059820 1 23 1.000000
  23 -5.034719 -33.526653 65.060539 0.914860 -0.031425 0.402547 0.888889 1.059820 1 23 1.000000
W_Garb_BeerBottle(256x128)
  23 -5.044935 -33.166447 64.885750 0.801344 0.571868 -0.175541 1.000000 1.041280 1 23 1.000000
  23 -5.047443 -33.374886 65.064804 0.874016 0.255186 0.413492 0.944444 1.059820 1 23 1.000000
  23 -4.964755 -33.341812 64.869614 0.946624 0.238296 -0.217067 0.944444 1.041280 1 23 1.000000
W_Garb_BeerBottle(256x128)
  23 -5.044935 -33.166447 64.885750 0.801344 0.571868 -0.175541 1.000000 1.041280 1 23 1.000000
  23 -5.110573 -33.236809 65.077522 0.738970 0.510131 0.440102 1.000000 1.059820 1 23 1.000000
  23 -5.047443 -33.374886 65.064804 0.874016 0.255186 0.413492 0.944444 1.059820 1 23 1.000000
W_Garb_BeerBottle(256x128)
  23 -4.948598 -33.534557 64.864189 0.988719 -0.121734 -0.087268 0.888889 1.041280 1 23 1.000000
  23 -5.034719 -33.526653 65.060539 0.914860 -0.031425 0.402547 0.888889 1.059820 1 23 1.000000
  23 -5.073941 -33.673801 65.065231 0.856572 -0.315158 0.408606 0.833333 1.059820 1 23 1.000000
W_Garb_BeerBottle(256x128)
  23 -6.026372 -33.630058 65.047340 -0.943559 -0.226099 0.242025 0.444444 1.041280 1 23 1.000000
  23 -5.896058 -33.450081 65.209023 -0.728803 0.016451 0.684525 0.388889 1.059820 1 23 1.000000
  23 -6.042531 -33.437309 65.052765 -0.991237 0.094694 0.092098 0.388889 1.041280 1 23 1.000000
W_Garb_BeerBottle(256x128)
  23 -6.042531 -33.437309 65.052765 -0.991237 0.094694 0.092098 0.388889 1.041280 1 23 1.000000
  23 -5.896058 -33.450081 65.209023 -0.728803 0.016451 0.684525 0.388889 1.059820 1 23 1.000000
  23 -5.856835 -33.302933 65.204338 -0.670540 0.300124 0.678455 0.333333 1.059820 1 23 1.000000
W_Garb_BeerBottle(256x128)
  23 -6.042531 -33.437309 65.052765 -0.991237 0.094694 0.092098 0.388889 1.041280 1 23 1.000000
  23 -5.856835 -33.302933 65.204338 -0.670540 0.300124 0.678455 0.333333 1.059820 1 23 1.000000
  23 -5.992714 -33.250431 65.046814 -0.860673 0.450528 0.237205 0.333333 1.041280 1 23 1.000000
W_Garb_BeerBottle(256x128)
  23 -5.992714 -33.250431 65.046814 -0.860673 0.450528 0.237205 0.333333 1.041280 1 23 1.000000
  23 -5.856835 -33.302933 65.204338 -0.670540 0.300124 0.678455 0.333333 1.059820 1 23 1.000000
  23 -5.770399 -33.178150 65.191261 -0.520126 0.546763 0.656139 0.277778 1.059820 1 23 1.000000
W_Garb_BeerBottle(256x128)
  23 -5.992714 -33.250431 65.046814 -0.860673 0.450528 0.237205 0.333333 1.041280 1 23 1.000000
  23 -5.770399 -33.178150 65.191261 -0.520126 0.546763 0.656139 0.277778 1.059820 1 23 1.000000
  23 -5.882937 -33.091953 65.030212 -0.701610 0.710732 0.051018 0.277778 1.041280 1 23 1.000000
W_Garb_BeerBottle(256x128)
  23 -5.882937 -33.091953 65.030212 -0.701610 0.710732 0.051018 0.277778 1.041280 1 23 1.000000
  23 -5.770399 -33.178150 65.191261 -0.520126 0.546763 0.656139 0.277778 1.059820 1 23 1.000000
  23 -5.647170 -33.090786 65.171379 -0.295844 0.726518 0.620200 0.222222 1.059820 1 23 1.000000
W_Garb_BeerBottle(256x128)
  23 -5.882937 -33.091953 65.030212 -0.701610 0.710732 0.051018 0.277778 1.041280 1 23 1.000000
  23 -5.647170 -33.090786 65.171379 -0.295844 0.726518 0.620200 0.222222 1.059820 1 23 1.000000
  23 -5.726436 -32.980995 65.004959 -0.368550 0.915840 0.159398 0.222222 1.041280 1 23 1.000000
W_Garb_BeerBottle(256x128)
  23 -5.726436 -32.980995 65.004959 -0.368550 0.915840 0.159398 0.222222 1.041280 1 23 1.000000
  23 -5.647170 -33.090786 65.171379 -0.295844 0.726518 0.620200 0.222222 1.059820 1 23 1.000000
  23 -5.502020 -33.051376 65.147072 -0.024625 0.817757 0.575036 0.166667 1.059820 1 23 1.000000
W_Garb_BeerBottle(256x128)
  23 -5.726436 -32.980995 65.004959 -0.368550 0.915840 0.159398 0.222222 1.041280 1 23 1.000000
  23 -5.502020 -33.051376 65.147072 -0.024625 0.817757 0.575036 0.166667 1.059820 1 23 1.000000
  23 -5.542088 -32.930943 64.974091 -0.108034 0.993752 -0.028040 0.166667 1.041280 1 23 1.000000
W_Garb_BeerBottle(256x128)
  23 -5.542088 -32.930943 64.974091 -0.108034 0.993752 -0.028040 0.166667 1.041280 1 23 1.000000
  23 -5.502020 -33.051376 65.147072 -0.024625 0.817757 0.575036 0.166667 1.059820 1 23 1.000000
  23 -5.352450 -33.064671 65.121284 0.260849 0.809446 0.526075 0.111111 1.059820 1 23 1.000000
W_Garb_BeerBottle(256x128)
  23 -5.542088 -32.930943 64.974091 -0.108034 0.993752 -0.028040 0.166667 1.041280 1 23 1.000000
  23 -5.352450 -33.064671 65.121284 0.260849 0.809446 0.526075 0.111111 1.059820 1 23 1.000000
  23 -5.352127 -32.947830 64.941353 0.251325 0.964913 -0.076013 0.111111 1.041280 1 23 1.000000
W_Garb_BeerBottle(256x128)
  23 -5.352127 -32.947830 64.941353 0.251325 0.964913 -0.076013 0.111111 1.041280 1 23 1.000000
  23 -5.352450 -33.064671 65.121284 0.260849 0.809446 0.526075 0.111111 1.059820 1 23 1.000000
  23 -5.216502 -33.129070 65.097137 0.526014 0.702613 0.479212 0.055556 1.059820 1 23 1.000000
W_Garb_BeerBottle(256x128)
  23 -5.352127 -32.947830 64.941353 0.251325 0.964913 -0.076013 0.111111 1.041280 1 23 1.000000
  23 -5.216502 -33.129070 65.097137 0.526014 0.702613 0.479212 0.055556 1.059820 1 23 1.000000
  23 -5.179469 -33.029621 64.910667 0.560585 0.817679 -0.130942 0.055556 1.041280 1 23 1.000000
W_Garb_BeerBottle(256x128)
  23 -5.179469 -33.029621 64.910667 0.560585 0.817679 -0.130942 0.055556 1.041280 1 23 1.000000
  23 -5.216502 -33.129070 65.097137 0.526014 0.702613 0.479212 0.055556 1.059820 1 23 1.000000
  23 -5.110573 -33.236809 65.077522 0.738970 0.510131 0.440102 0.000000 1.059820 1 23 1.000000
W_Garb_BeerBottle(256x128)
  23 -5.179469 -33.029621 64.910667 0.560585 0.817679 -0.130942 0.055556 1.041280 1 23 1.000000
  23 -5.110573 -33.236809 65.077522 0.738970 0.510131 0.440102 0.000000 1.059820 1 23 1.000000
  23 -5.044935 -33.166447 64.885750 0.801344 0.571868 -0.175541 0.000000 1.041280 1 23 1.000000
W_Garb_BeerBottle(256x128)
  23 -5.274293 -33.127369 64.771095 0.491458 0.793428 -0.359084 0.055556 1.025500 1 23 1.000000
  23 -5.179469 -33.029621 64.910667 0.560585 0.817679 -0.130942 0.055556 1.041280 1 23 1.000000
  23 -5.044935 -33.166447 64.885750 0.801344 0.571868 -0.175541 0.000000 1.041280 1 23 1.000000
W_Garb_BeerBottle(256x128)
  23 -5.274293 -33.127369 64.771095 0.491458 0.793428 -0.359084 0.055556 1.025500 1 23 1.000000
  23 -5.044935 -33.166447 64.885750 0.801344 0.571868 -0.175541 0.000000 1.041280 1 23 1.000000
  23 -5.169190 -33.234268 64.751625 0.737922 0.528673 -0.419495 0.000000 1.025500 1 23 1.000000
W_Garb_BeerBottle(256x128)
  23 -5.484209 -32.931473 62.840740 0.582313 0.812671 0.021865 0.055556 0.824370 1 23 1.000000
  23 -5.274293 -33.127369 64.771095 0.491458 0.793428 -0.359084 0.055556 1.025500 1 23 1.000000
  23 -5.169190 -33.234268 64.751625 0.737922 0.528673 -0.419495 0.000000 1.025500 1 23 1.000000
W_Garb_BeerBottle(256x128)
  23 -5.828371 -32.710785 61.849731 0.298955 0.917623 0.261904 0.111111 0.797233 1 23 1.000000
  23 -5.484209 -32.931473 62.840740 0.582313 0.812671 0.021865 0.055556 0.824370 1 23 1.000000
  23 -5.593298 -32.822140 61.807961 0.594470 0.776380 0.209379 0.055556 0.797233 1 23 1.000000
W_Garb_BeerBottle(256x128)
  23 -5.828371 -32.710785 61.849731 0.298955 0.917623 0.261904 0.111111 0.797233 1 23 1.000000
  23 -5.683242 -32.837185 62.876114 0.274265 0.958599 0.076599 0.111111 0.824370 1 23 1.000000
  23 -5.484209 -32.931473 62.840740 0.582313 0.812671 0.021865 0.055556 0.824370 1 23 1.000000
W_Garb_BeerBottle(256x128)
  23 -5.683242 -32.837185 62.876114 0.274265 0.958599 0.076599 0.111111 0.824370 1 23 1.000000
  23 -5.274293 -33.127369 64.771095 0.491458 0.793428 -0.359084 0.055556 1.025500 1 23 1.000000
  23 -5.484209 -32.931473 62.840740 0.582313 0.812671 0.021865 0.055556 0.824370 1 23 1.000000
W_Garb_BeerBottle(256x128)
  23 -5.683242 -32.837185 62.876114 0.274265 0.958599 0.076599 0.111111 0.824370 1 23 1.000000
  23 -5.409182 -33.063473 64.795067 0.193169 0.932207 -0.306064 0.111111 1.025500 1 23 1.000000
  23 -5.274293 -33.127369 64.771095 0.491458 0.793428 -0.359084 0.055556 1.025500 1 23 1.000000
W_Garb_BeerBottle(256x128)
  23 -5.409182 -33.063473 64.795067 0.193169 0.932207 -0.306064 0.111111 1.025500 1 23 1.000000
  23 -5.179469 -33.029621 64.910667 0.560585 0.817679 -0.130942 0.055556 1.041280 1 23 1.000000
  23 -5.274293 -33.127369 64.771095 0.491458 0.793428 -0.359084 0.055556 1.025500 1 23 1.000000
W_Garb_BeerBottle(256x128)
  23 -5.409182 -33.063473 64.795067 0.193169 0.932207 -0.306064 0.111111 1.025500 1 23 1.000000
  23 -5.352127 -32.947830 64.941353 0.251325 0.964913 -0.076013 0.111111 1.041280 1 23 1.000000
  23 -5.179469 -33.029621 64.910667 0.560585 0.817679 -0.130942 0.055556 1.041280 1 23 1.000000
W_Garb_BeerBottle(256x128)
  23 -5.557589 -33.050278 64.820641 -0.170410 0.955261 -0.241738 0.166667 1.025500 1 23 1.000000
  23 -5.352127 -32.947830 64.941353 0.251325 0.964913 -0.076013 0.111111 1.041280 1 23 1.000000
  23 -5.409182 -33.063473 64.795067 0.193169 0.932207 -0.306064 0.111111 1.025500 1 23 1.000000
W_Garb_BeerBottle(256x128)
  23 -5.557589 -33.050278 64.820641 -0.170410 0.955261 -0.241738 0.166667 1.025500 1 23 1.000000
  23 -5.542088 -32.930943 64.974091 -0.108034 0.993752 -0.028040 0.166667 1.041280 1 23 1.000000
  23 -5.352127 -32.947830 64.941353 0.251325 0.964913 -0.076013 0.111111 1.041280 1 23 1.000000
W_Garb_BeerBottle(256x128)
  23 -5.762744 -33.132725 64.854622 -0.617978 0.762209 -0.192717 0.250000 1.025500 1 23 1.000000
  23 -5.542088 -32.930943 64.974091 -0.108034 0.993752 -0.028040 0.166667 1.041280 1 23 1.000000
  23 -5.557589 -33.050278 64.820641 -0.170410 0.955261 -0.241738 0.166667 1.025500 1 23 1.000000
W_Garb_BeerBottle(256x128)
  23 -5.762744 -33.132725 64.854622 -0.617978 0.762209 -0.192717 0.250000 1.025500 1 23 1.000000
  23 -5.726436 -32.980995 65.004959 -0.368550 0.915840 0.159398 0.222222 1.041280 1 23 1.000000
  23 -5.542088 -32.930943 64.974091 -0.108034 0.993752 -0.028040 0.166667 1.041280 1 23 1.000000
W_Garb_BeerBottle(256x128)
  23 -5.762744 -33.132725 64.854622 -0.617978 0.762209 -0.192717 0.250000 1.025500 1 23 1.000000
  23 -5.882937 -33.091953 65.030212 -0.701610 0.710732 0.051018 0.277778 1.041280 1 23 1.000000
  23 -5.726436 -32.980995 65.004959 -0.368550 0.915840 0.159398 0.222222 1.041280 1 23 1.000000
W_Garb_BeerBottle(256x128)
  23 -5.929101 -33.372879 64.879784 -0.958679 0.236760 -0.157733 0.361111 1.025500 1 23 1.000000
  23 -5.882937 -33.091953 65.030212 -0.701610 0.710732 0.051018 0.277778 1.041280 1 23 1.000000
  23 -5.762744 -33.132725 64.854622 -0.617978 0.762209 -0.192717 0.250000 1.025500 1 23 1.000000
W_Garb_BeerBottle(256x128)
  23 -5.929101 -33.372879 64.879784 -0.958679 0.236760 -0.157733 0.361111 1.025500 1 23 1.000000
  23 -5.992714 -33.250431 65.046814 -0.860673 0.450528 0.237205 0.333333 1.041280 1 23 1.000000
  23 -5.882937 -33.091953 65.030212 -0.701610 0.710732 0.051018 0.277778 1.041280 1 23 1.000000
W_Garb_BeerBottle(256x128)
  23 -5.929101 -33.372879 64.879784 -0.958679 0.236760 -0.157733 0.361111 1.025500 1 23 1.000000
  23 -6.042531 -33.437309 65.052765 -0.991237 0.094694 0.092098 0.388889 1.041280 1 23 1.000000
  23 -5.992714 -33.250431 65.046814 -0.860673 0.450528 0.237205 0.333333 1.041280 1 23 1.000000
W_Garb_BeerBottle(256x128)
  23 -5.904615 -33.664967 64.871567 -0.895652 -0.407822 -0.177449 0.472222 1.025500 1 23 1.000000
  23 -6.042531 -33.437309 65.052765 -0.991237 0.094694 0.092098 0.388889 1.041280 1 23 1.000000
  23 -5.929101 -33.372879 64.879784 -0.958679 0.236760 -0.157733 0.361111 1.025500 1 23 1.000000
W_Garb_BeerBottle(256x128)
  23 -5.904615 -33.664967 64.871567 -0.895652 -0.407822 -0.177449 0.472222 1.025500 1 23 1.000000
  23 -6.026372 -33.630058 65.047340 -0.943559 -0.226099 0.242025 0.444444 1.041280 1 23 1.000000
  23 -6.042531 -33.437309 65.052765 -0.991237 0.094694 0.092098 0.388889 1.041280 1 23 1.000000
W_Garb_BeerBottle(256x128)
  23 -5.904615 -33.664967 64.871567 -0.895652 -0.407822 -0.177449 0.472222 1.025500 1 23 1.000000
  23 -5.946191 -33.805424 65.031204 -0.823151 -0.565223 0.054259 0.500000 1.041280 1 23 1.000000
  23 -6.026372 -33.630058 65.047340 -0.943559 -0.226099 0.242025 0.444444 1.041280 1 23 1.000000
W_Garb_BeerBottle(256x128)
  23 -5.700746 -33.872314 64.833817 -0.438835 -0.859570 -0.261844 0.583333 1.025500 1 23 1.000000
  23 -5.946191 -33.805424 65.031204 -0.823151 -0.565223 0.054259 0.500000 1.041280 1 23 1.000000
  23 -5.904615 -33.664967 64.871567 -0.895652 -0.407822 -0.177449 0.472222 1.025500 1 23 1.000000
W_Garb_BeerBottle(256x128)
  23 -5.902225 -32.817719 62.913864 -0.064667 0.988729 0.135027 0.166667 0.824370 1 23 1.000000
  23 -5.409182 -33.063473 64.795067 0.193169 0.932207 -0.306064 0.111111 1.025500 1 23 1.000000
  23 -5.683242 -32.837185 62.876114 0.274265 0.958599 0.076599 0.111111 0.824370 1 23 1.000000
W_Garb_BeerBottle(256x128)
  23 -5.902225 -32.817719 62.913864 -0.064667 0.988729 0.135027 0.166667 0.824370 1 23 1.000000
  23 -5.557589 -33.050278 64.820641 -0.170410 0.955261 -0.241738 0.166667 1.025500 1 23 1.000000
  23 -5.409182 -33.063473 64.795067 0.193169 0.932207 -0.306064 0.111111 1.025500 1 23 1.000000
W_Garb_BeerBottle(256x128)
  23 -6.114738 -32.875420 62.949432 -0.410444 0.890942 0.194315 0.222222 0.824370 1 23 1.000000
  23 -5.557589 -33.050278 64.820641 -0.170410 0.955261 -0.241738 0.166667 1.025500 1 23 1.000000
  23 -5.902225 -32.817719 62.913864 -0.064667 0.988729 0.135027 0.166667 0.824370 1 23 1.000000
W_Garb_BeerBottle(256x128)
  23 -6.114738 -32.875420 62.949432 -0.410444 0.890942 0.194315 0.222222 0.824370 1 23 1.000000
  23 -5.762744 -33.132725 64.854622 -0.617978 0.762209 -0.192717 0.250000 1.025500 1 23 1.000000
  23 -5.557589 -33.050278 64.820641 -0.170410 0.955261 -0.241738 0.166667 1.025500 1 23 1.000000
W_Garb_BeerBottle(256x128)
  23 -6.295147 -33.003330 62.978558 -0.696056 0.676008 0.241909 0.277778 0.824370 1 23 1.000000
  23 -5.762744 -33.132725 64.854622 -0.617978 0.762209 -0.192717 0.250000 1.025500 1 23 1.000000
  23 -6.114738 -32.875420 62.949432 -0.410444 0.890942 0.194315 0.222222 0.824370 1 23 1.000000
W_Garb_BeerBottle(256x128)
  23 -6.421700 -33.186016 62.997688 -0.867541 0.418287 0.269089 0.333333 0.824370 1 23 1.000000
  23 -5.762744 -33.132725 64.854622 -0.617978 0.762209 -0.192717 0.250000 1.025500 1 23 1.000000
  23 -6.295147 -33.003330 62.978558 -0.696056 0.676008 0.241909 0.277778 0.824370 1 23 1.000000
W_Garb_BeerBottle(256x128)
  23 -6.421700 -33.186016 62.997688 -0.867541 0.418287 0.269089 0.333333 0.824370 1 23 1.000000
  23 -5.929101 -33.372879 64.879784 -0.958679 0.236760 -0.157733 0.361111 1.025500 1 23 1.000000
  23 -5.762744 -33.132725 64.854622 -0.617978 0.762209 -0.192717 0.250000 1.025500 1 23 1.000000
W_Garb_BeerBottle(256x128)
  23 -6.086995 -32.687794 61.894310 -0.026599 0.947706 0.318035 0.166667 0.797233 1 23 1.000000
  23 -5.683242 -32.837185 62.876114 0.274265 0.958599 0.076599 0.111111 0.824370 1 23 1.000000
  23 -5.828371 -32.710785 61.849731 0.298955 0.917623 0.261904 0.111111 0.797233 1 23 1.000000
W_Garb_BeerBottle(256x128)
  23 -6.086995 -32.687794 61.894310 -0.026599 0.947706 0.318035 0.166667 0.797233 1 23 1.000000
  23 -5.902225 -32.817719 62.913864 -0.064667 0.988729 0.135027 0.166667 0.824370 1 23 1.000000
  23 -5.683242 -32.837185 62.876114 0.274265 0.958599 0.076599 0.111111 0.824370 1 23 1.000000
W_Garb_BeerBottle(256x128)
  23 -6.337979 -32.755939 61.936329 -0.342935 0.862969 0.371053 0.222222 0.797233 1 23 1.000000
  23 -5.902225 -32.817719 62.913864 -0.064667 0.988729 0.135027 0.166667 0.824370 1 23 1.000000
  23 -6.086995 -32.687794 61.894310 -0.026599 0.947706 0.318035 0.166667 0.797233 1 23 1.000000
W_Garb_BeerBottle(256x128)
  23 -6.337979 -32.755939 61.936329 -0.342935 0.862969 0.371053 0.222222 0.797233 1 23 1.000000
  23 -6.114738 -32.875420 62.949432 -0.410444 0.890942 0.194315 0.222222 0.824370 1 23 1.000000
  23 -5.902225 -32.817719 62.913864 -0.064667 0.988729 0.135027 0.166667 0.824370 1 23 1.000000
W_Garb_BeerBottle(256x128)
  23 -6.551053 -32.907005 61.970711 -0.611859 0.673655 0.414509 0.277778 0.797233 1 23 1.000000
  23 -6.114738 -32.875420 62.949432 -0.410444 0.890942 0.194315 0.222222 0.824370 1 23 1.000000
  23 -6.337979 -32.755939 61.936329 -0.342935 0.862969 0.371053 0.222222 0.797233 1 23 1.000000
W_Garb_BeerBottle(256x128)
  23 -6.551053 -32.907005 61.970711 -0.611859 0.673655 0.414509 0.277778 0.797233 1 23 1.000000
  23 -6.295147 -33.003330 62.978558 -0.696056 0.676008 0.241909 0.277778 0.824370 1 23 1.000000
  23 -6.114738 -32.875420 62.949432 -0.410444 0.890942 0.194315 0.222222 0.824370 1 23 1.000000
W_Garb_BeerBottle(256x128)
  23 -6.700512 -33.122765 61.993324 -0.810720 0.388966 0.437537 0.333333 0.797233 1 23 1.000000
  23 -6.295147 -33.003330 62.978558 -0.696056 0.676008 0.241909 0.277778 0.824370 1 23 1.000000
  23 -6.551053 -32.907005 61.970711 -0.611859 0.673655 0.414509 0.277778 0.797233 1 23 1.000000
W_Garb_BeerBottle(256x128)
  23 -6.700512 -33.122765 61.993324 -0.810720 0.388966 0.437537 0.333333 0.797233 1 23 1.000000
  23 -6.421700 -33.186016 62.997688 -0.867541 0.418287 0.269089 0.333333 0.824370 1 23 1.000000
  23 -6.295147 -33.003330 62.978558 -0.696056 0.676008 0.241909 0.277778 0.824370 1 23 1.000000
W_Garb_BeerBottle(256x128)
  23 -6.768335 -33.377201 62.001423 -0.891665 0.098953 0.441749 0.388889 0.797233 1 23 1.000000
  23 -6.421700 -33.186016 62.997688 -0.867541 0.418287 0.269089 0.333333 0.824370 1 23 1.000000
  23 -6.700512 -33.122765 61.993324 -0.810720 0.388966 0.437537 0.333333 0.797233 1 23 1.000000
W_Garb_BeerBottle(256x128)
  23 -6.768335 -33.377201 62.001423 -0.891665 0.098953 0.441749 0.388889 0.797233 1 23 1.000000
  23 -6.479125 -33.401447 63.004551 -0.959169 0.050307 0.278322 0.388889 0.824370 1 23 1.000000
  23 -6.421700 -33.186016 62.997688 -0.867541 0.418287 0.269089 0.333333 0.824370 1 23 1.000000
W_Garb_BeerBottle(256x128)
  23 -6.479125 -33.401447 63.004551 -0.959169 0.050307 0.278322 0.388889 0.824370 1 23 1.000000
  23 -5.929101 -33.372879 64.879784 -0.958679 0.236760 -0.157733 0.361111 1.025500 1 23 1.000000
  23 -6.421700 -33.186016 62.997688 -0.867541 0.418287 0.269089 0.333333 0.824370 1 23 1.000000
W_Garb_BeerBottle(256x128)
  23 -6.460498 -33.623642 62.998302 -0.927415 -0.258798 0.270047 0.444444 0.824370 1 23 1.000000
  23 -5.929101 -33.372879 64.879784 -0.958679 0.236760 -0.157733 0.361111 1.025500 1 23 1.000000
  23 -6.479125 -33.401447 63.004551 -0.959169 0.050307 0.278322 0.388889 0.824370 1 23 1.000000
W_Garb_BeerBottle(256x128)
  23 -6.460498 -33.623642 62.998302 -0.927415 -0.258798 0.270047 0.444444 0.824370 1 23 1.000000
  23 -5.904615 -33.664967 64.871567 -0.895652 -0.407822 -0.177449 0.472222 1.025500 1 23 1.000000
  23 -5.929101 -33.372879 64.879784 -0.958679 0.236760 -0.157733 0.361111 1.025500 1 23 1.000000
W_Garb_BeerBottle(256x128)
  23 -6.368068 -33.825802 62.979694 -0.764650 -0.599651 0.236069 0.500000 0.824370 1 23 1.000000
  23 -5.904615 -33.664967 64.871567 -0.895652 -0.407822 -0.177449 0.472222 1.025500 1 23 1.000000
  23 -6.460498 -33.623642 62.998302 -0.927415 -0.258798 0.270047 0.444444 0.824370 1 23 1.000000
W_Garb_BeerBottle(256x128)
  23 -6.637172 -33.878376 61.972065 -0.724394 -0.549063 0.416874 0.500000 0.797233 1 23 1.000000
  23 -6.368068 -33.825802 62.979694 -0.764650 -0.599651 0.236069 0.500000 0.824370 1 23 1.000000
  23 -6.460498 -33.623642 62.998302 -0.927415 -0.258798 0.270047 0.444444 0.824370 1 23 1.000000
W_Garb_BeerBottle(256x128)
  23 -6.454010 -34.064667 61.938145 -0.494520 -0.784431 0.374323 0.555556 0.797233 1 23 1.000000
  23 -6.368068 -33.825802 62.979694 -0.764650 -0.599651 0.236069 0.500000 0.824370 1 23 1.000000
  23 -6.637172 -33.878376 61.972065 -0.724394 -0.549063 0.416874 0.500000 0.797233 1 23 1.000000
W_Garb_BeerBottle(256x128)
  23 -6.454010 -34.064667 61.938145 -0.494520 -0.784431 0.374323 0.555556 0.797233 1 23 1.000000
  23 -6.212980 -33.983532 62.950974 -0.544542 -0.815328 0.196757 0.555556 0.824370 1 23 1.000000
  23 -6.368068 -33.825802 62.979694 -0.764650 -0.599651 0.236069 0.500000 0.824370 1 23 1.000000
W_Garb_BeerBottle(256x128)
  23 -6.218937 -34.176025 61.896378 -0.198993 -0.925661 0.321796 0.611111 0.797233 1 23 1.000000
  23 -6.212980 -33.983532 62.950974 -0.544542 -0.815328 0.196757 0.555556 0.824370 1 23 1.000000
  23 -6.454010 -34.064667 61.938145 -0.494520 -0.784431 0.374323 0.555556 0.797233 1 23 1.000000
W_Garb_BeerBottle(256x128)
  23 -6.746337 -33.639622 61.994041 -0.860839 -0.247957 0.444379 0.444444 0.797233 1 23 1.000000
  23 -6.479125 -33.401447 63.004551 -0.959169 0.050307 0.278322 0.388889 0.824370 1 23 1.000000
  23 -6.768335 -33.377201 62.001423 -0.891665 0.098953 0.441749 0.388889 0.797233 1 23 1.000000
W_Garb_BeerBottle(256x128)
  23 -6.746337 -33.639622 61.994041 -0.860839 -0.247957 0.444379 0.444444 0.797233 1 23 1.000000
  23 -6.460498 -33.623642 62.998302 -0.927415 -0.258798 0.270047 0.444444 0.824370 1 23 1.000000
  23 -6.479125 -33.401447 63.004551 -0.959169 0.050307 0.278322 0.388889 0.824370 1 23 1.000000
W_Garb_BeerBottle(256x128)
  23 -6.637172 -33.878376 61.972065 -0.724394 -0.549063 0.416874 0.500000 0.797233 1 23 1.000000
  23 -6.460498 -33.623642 62.998302 -0.927415 -0.258798 0.270047 0.444444 0.824370 1 23 1.000000
  23 -6.746337 -33.639622 61.994041 -0.860839 -0.247957 0.444379 0.444444 0.797233 1 23 1.000000
W_Garb_BeerBottle(256x128)
  23 -6.070986 -34.659218 60.960564 0.126055 -0.968170 0.216234 0.666667 0.731715 1 23 1.000000
  23 -6.218937 -34.176025 61.896378 -0.198993 -0.925661 0.321796 0.611111 0.797233 1 23 1.000000
  23 -6.491267 -34.621853 61.033020 -0.204386 -0.939999 0.273180 0.611111 0.731715 1 23 1.000000
W_Garb_BeerBottle(256x128)
  23 -6.491267 -34.621853 61.033020 -0.204386 -0.939999 0.273180 0.611111 0.731715 1 23 1.000000
  23 -6.218937 -34.176025 61.896378 -0.198993 -0.925661 0.321796 0.611111 0.797233 1 23 1.000000
  23 -6.454010 -34.064667 61.938145 -0.494520 -0.784431 0.374323 0.555556 0.797233 1 23 1.000000
W_Garb_BeerBottle(256x128)
  23 -6.491267 -34.621853 61.033020 -0.204386 -0.939999 0.273180 0.611111 0.731715 1 23 1.000000
  23 -6.454010 -34.064667 61.938145 -0.494520 -0.784431 0.374323 0.555556 0.797233 1 23 1.000000
  23 -6.873271 -34.440887 61.100899 -0.505134 -0.798856 0.326601 0.555556 0.731715 1 23 1.000000
W_Garb_BeerBottle(256x128)
  23 -6.873271 -34.440887 61.100899 -0.505134 -0.798856 0.326601 0.555556 0.731715 1 23 1.000000
  23 -6.454010 -34.064667 61.938145 -0.494520 -0.784431 0.374323 0.555556 0.797233 1 23 1.000000
  23 -6.637172 -33.878376 61.972065 -0.724394 -0.549063 0.416874 0.500000 0.797233 1 23 1.000000
W_Garb_BeerBottle(256x128)
  23 -6.873271 -34.440887 61.100899 -0.505134 -0.798856 0.326601 0.555556 0.731715 1 23 1.000000
  23 -6.637172 -33.878376 61.972065 -0.724394 -0.549063 0.416874 0.500000 0.797233 1 23 1.000000
  23 -7.170928 -34.138161 61.156017 -0.739949 -0.561753 0.370011 0.500000 0.731715 1 23 1.000000
W_Garb_BeerBottle(256x128)
  23 -7.170928 -34.138161 61.156017 -0.739949 -0.561753 0.370011 0.500000 0.731715 1 23 1.000000
  23 -6.637172 -33.878376 61.972065 -0.724394 -0.549063 0.416874 0.500000 0.797233 1 23 1.000000
  23 -6.746337 -33.639622 61.994041 -0.860839 -0.247957 0.444379 0.444444 0.797233 1 23 1.000000
W_Garb_BeerBottle(256x128)
  23 -7.170928 -34.138161 61.156017 -0.739949 -0.561753 0.370011 0.500000 0.731715 1 23 1.000000
  23 -6.746337 -33.639622 61.994041 -0.860839 -0.247957 0.444379 0.444444 0.797233 1 23 1.000000
  23 -7.348323 -33.750168 61.191727 -0.890257 -0.224280 0.396409 0.444444 0.731715 1 23 1.000000
W_Garb_BeerBottle(256x128)
  23 -7.348323 -33.750168 61.191727 -0.890257 -0.224280 0.396409 0.444444 0.731715 1 23 1.000000
  23 -6.746337 -33.639622 61.994041 -0.860839 -0.247957 0.444379 0.444444 0.797233 1 23 1.000000
  23 -6.768335 -33.377201 62.001423 -0.891665 0.098953 0.441749 0.388889 0.797233 1 23 1.000000
W_Garb_BeerBottle(256x128)
  23 -7.348323 -33.750168 61.191727 -0.890257 -0.224280 0.396409 0.444444 0.731715 1 23 1.000000
  23 -6.768335 -33.377201 62.001423 -0.891665 0.098953 0.441749 0.388889 0.797233 1 23 1.000000
  23 -7.339746 -33.327663 61.197033 -0.915002 0.078650 0.395709 0.388889 0.731812 1 23 1.000000
W_Garb_BeerBottle(256x128)
  23 -7.339746 -33.327663 61.197033 -0.915002 0.078650 0.395709 0.388889 0.731812 1 23 1.000000
  23 -6.768335 -33.377201 62.001423 -0.891665 0.098953 0.441749 0.388889 0.797233 1 23 1.000000
  23 -6.700512 -33.122765 61.993324 -0.810720 0.388966 0.437537 0.333333 0.797233 1 23 1.000000
W_Garb_BeerBottle(256x128)
  23 -7.339746 -33.327663 61.197033 -0.915002 0.078650 0.395709 0.388889 0.731812 1 23 1.000000
  23 -6.700512 -33.122765 61.993324 -0.810720 0.388966 0.437537 0.333333 0.797233 1 23 1.000000
  23 -7.273854 -32.910244 61.190559 -0.837174 0.371908 0.401029 0.333333 0.731715 1 23 1.000000
W_Garb_BeerBottle(256x128)
  23 -7.273854 -32.910244 61.190559 -0.837174 0.371908 0.401029 0.333333 0.731715 1 23 1.000000
  23 -6.700512 -33.122765 61.993324 -0.810720 0.388966 0.437537 0.333333 0.797233 1 23 1.000000
  23 -6.551053 -32.907005 61.970711 -0.611859 0.673655 0.414509 0.277778 0.797233 1 23 1.000000
W_Garb_BeerBottle(256x128)
  23 -7.273854 -32.910244 61.190559 -0.837174 0.371908 0.401029 0.333333 0.731715 1 23 1.000000
  23 -6.551053 -32.907005 61.970711 -0.611859 0.673655 0.414509 0.277778 0.797233 1 23 1.000000
  23 -7.030973 -32.559616 61.153824 -0.634278 0.679313 0.369086 0.277778 0.731715 1 23 1.000000
W_Garb_BeerBottle(256x128)
  23 -7.030973 -32.559616 61.153824 -0.634278 0.679313 0.369086 0.277778 0.731715 1 23 1.000000
  23 -6.551053 -32.907005 61.970711 -0.611859 0.673655 0.414509 0.277778 0.797233 1 23 1.000000
  23 -6.337979 -32.755939 61.936329 -0.342935 0.862969 0.371053 0.222222 0.797233 1 23 1.000000
W_Garb_BeerBottle(256x128)
  23 -7.030973 -32.559616 61.153824 -0.634278 0.679313 0.369086 0.277778 0.731715 1 23 1.000000
  23 -6.337979 -32.755939 61.936329 -0.342935 0.862969 0.371053 0.222222 0.797233 1 23 1.000000
  23 -6.684718 -32.314125 61.097942 -0.362813 0.873225 0.325337 0.222222 0.731715 1 23 1.000000
W_Garb_BeerBottle(256x128)
  23 -6.684718 -32.314125 61.097942 -0.362813 0.873225 0.325337 0.222222 0.731715 1 23 1.000000
  23 -6.337979 -32.755939 61.936329 -0.342935 0.862969 0.371053 0.222222 0.797233 1 23 1.000000
  23 -6.086995 -32.687794 61.894310 -0.026599 0.947706 0.318035 0.166667 0.797233 1 23 1.000000
W_Garb_BeerBottle(256x128)
  23 -6.684718 -32.314125 61.097942 -0.362813 0.873225 0.325337 0.222222 0.731715 1 23 1.000000
  23 -6.086995 -32.687794 61.894310 -0.026599 0.947706 0.318035 0.166667 0.797233 1 23 1.000000
  23 -6.276852 -32.203388 61.029655 -0.042533 0.961445 0.271689 0.166667 0.731715 1 23 1.000000
W_Garb_BeerBottle(256x128)
  23 -6.276852 -32.203388 61.029655 -0.042533 0.961445 0.271689 0.166667 0.731715 1 23 1.000000
  23 -6.086995 -32.687794 61.894310 -0.026599 0.947706 0.318035 0.166667 0.797233 1 23 1.000000
  23 -5.828371 -32.710785 61.849731 0.298955 0.917623 0.261904 0.111111 0.797233 1 23 1.000000
W_Garb_BeerBottle(256x128)
  23 -7.198941 -32.073624 55.671196 -0.023985 0.999311 0.028331 0.166667 0.060817 1 23 1.000000
  23 -5.856570 -32.240749 60.957211 0.287882 0.933266 0.214799 0.111111 0.731715 1 23 1.000000
  23 -6.759533 -32.112690 55.595451 0.314557 0.948754 -0.030315 0.111111 0.060817 1 23 1.000000
W_Garb_BeerBottle(256x128)
  23 -7.198941 -32.073624 55.671196 -0.023985 0.999311 0.028331 0.166667 0.060817 1 23 1.000000
  23 -6.276852 -32.203388 61.029655 -0.042533 0.961445 0.271689 0.166667 0.731715 1 23 1.000000
  23 -5.856570 -32.240749 60.957211 0.287882 0.933266 0.214799 0.111111 0.731715 1 23 1.000000
W_Garb_BeerBottle(256x128)
  23 -7.625364 -32.189411 55.742580 -0.359415 0.929319 0.084773 0.222222 0.060817 1 23 1.000000
  23 -6.276852 -32.203388 61.029655 -0.042533 0.961445 0.271689 0.166667 0.731715 1 23 1.000000
  23 -7.198941 -32.073624 55.671196 -0.023985 0.999311 0.028331 0.166667 0.060817 1 23 1.000000
W_Garb_BeerBottle(256x128)
  23 -7.625364 -32.189411 55.742580 -0.359415 0.929319 0.084773 0.222222 0.060817 1 23 1.000000
  23 -6.684718 -32.314125 61.097942 -0.362813 0.873225 0.325337 0.222222 0.731715 1 23 1.000000
  23 -6.276852 -32.203388 61.029655 -0.042533 0.961445 0.271689 0.166667 0.731715 1 23 1.000000
W_Garb_BeerBottle(256x128)
  23 -7.987379 -32.446060 55.801006 -0.651325 0.747192 0.132213 0.277778 0.060817 1 23 1.000000
  23 -6.684718 -32.314125 61.097942 -0.362813 0.873225 0.325337 0.222222 0.731715 1 23 1.000000
  23 -7.625364 -32.189411 55.742580 -0.359415 0.929319 0.084773 0.222222 0.060817 1 23 1.000000
W_Garb_BeerBottle(256x128)
  23 -7.987379 -32.446060 55.801006 -0.651325 0.747192 0.132213 0.277778 0.060817 1 23 1.000000
  23 -7.030973 -32.559616 61.153824 -0.634278 0.679313 0.369086 0.277778 0.731715 1 23 1.000000
  23 -6.684718 -32.314125 61.097942 -0.362813 0.873225 0.325337 0.222222 0.731715 1 23 1.000000
W_Garb_BeerBottle(256x128)
  23 -8.241314 -32.812649 55.839420 -0.864405 0.474972 0.164941 0.333333 0.060817 1 23 1.000000
  23 -7.030973 -32.559616 61.153824 -0.634278 0.679313 0.369086 0.277778 0.731715 1 23 1.000000
  23 -7.987379 -32.446060 55.801006 -0.651325 0.747192 0.132213 0.277778 0.060817 1 23 1.000000
W_Garb_BeerBottle(256x128)
  23 -8.241314 -32.812649 55.839420 -0.864405 0.474972 0.164941 0.333333 0.060817 1 23 1.000000
  23 -7.273854 -32.910244 61.190559 -0.837174 0.371908 0.401029 0.333333 0.731715 1 23 1.000000
  23 -7.030973 -32.559616 61.153824 -0.634278 0.679313 0.369086 0.277778 0.731715 1 23 1.000000
W_Garb_BeerBottle(256x128)
  23 -8.356540 -33.244934 55.853172 -0.976577 0.110333 0.184728 0.388889 0.060817 1 23 1.000000
  23 -7.273854 -32.910244 61.190559 -0.837174 0.371908 0.401029 0.333333 0.731715 1 23 1.000000
  23 -8.241314 -32.812649 55.839420 -0.864405 0.474972 0.164941 0.333333 0.060817 1 23 1.000000
W_Garb_BeerBottle(256x128)
  23 -8.356540 -33.244934 55.853172 -0.976577 0.110333 0.184728 0.388889 0.060817 1 23 1.000000
  23 -7.339746 -33.327663 61.197033 -0.915002 0.078650 0.395709 0.388889 0.731812 1 23 1.000000
  23 -7.273854 -32.910244 61.190559 -0.837174 0.371908 0.401029 0.333333 0.731715 1 23 1.000000
W_Garb_BeerBottle(256x128)
  23 -8.319170 -33.690792 55.840633 -0.969920 -0.167185 0.176931 0.444444 0.060817 1 23 1.000000
  23 -7.339746 -33.327663 61.197033 -0.915002 0.078650 0.395709 0.388889 0.731812 1 23 1.000000
  23 -8.356540 -33.244934 55.853172 -0.976577 0.110333 0.184728 0.388889 0.060817 1 23 1.000000
W_Garb_BeerBottle(256x128)
  23 -8.319170 -33.690792 55.840633 -0.969920 -0.167185 0.176931 0.444444 0.060817 1 23 1.000000
  23 -7.348323 -33.750168 61.191727 -0.890257 -0.224280 0.396409 0.444444 0.731715 1 23 1.000000
  23 -7.339746 -33.327663 61.197033 -0.915002 0.078650 0.395709 0.388889 0.731812 1 23 1.000000
W_Garb_BeerBottle(256x128)
  23 -8.133699 -34.096432 55.803299 -0.838683 -0.524472 0.146763 0.500000 0.060817 1 23 1.000000
  23 -7.348323 -33.750168 61.191727 -0.890257 -0.224280 0.396409 0.444444 0.731715 1 23 1.000000
  23 -8.319170 -33.690792 55.840633 -0.969920 -0.167185 0.176931 0.444444 0.060817 1 23 1.000000
W_Garb_BeerBottle(256x128)
  23 -8.133699 -34.096432 55.803299 -0.838683 -0.524472 0.146763 0.500000 0.060817 1 23 1.000000
  23 -7.170928 -34.138161 61.156017 -0.739949 -0.561753 0.370011 0.500000 0.731715 1 23 1.000000
  23 -7.348323 -33.750168 61.191727 -0.890257 -0.224280 0.396409 0.444444 0.731715 1 23 1.000000
W_Garb_BeerBottle(256x128)
  23 -7.822504 -34.412941 55.745674 -0.611886 -0.784030 0.104368 0.555556 0.060817 1 23 1.000000
  23 -7.170928 -34.138161 61.156017 -0.739949 -0.561753 0.370011 0.500000 0.731715 1 23 1.000000
  23 -8.133699 -34.096432 55.803299 -0.838683 -0.524472 0.146763 0.500000 0.060817 1 23 1.000000
W_Garb_BeerBottle(256x128)
  23 -7.822504 -34.412941 55.745674 -0.611886 -0.784030 0.104368 0.555556 0.060817 1 23 1.000000
  23 -6.873271 -34.440887 61.100899 -0.505134 -0.798856 0.326601 0.555556 0.731715 1 23 1.000000
  23 -7.170928 -34.138161 61.156017 -0.739949 -0.561753 0.370011 0.500000 0.731715 1 23 1.000000
W_Garb_BeerBottle(256x128)
  23 -7.423115 -34.602131 55.674702 -0.311076 -0.949037 0.050600 0.611111 0.060817 1 23 1.000000
  23 -6.873271 -34.440887 61.100899 -0.505134 -0.798856 0.326601 0.555556 0.731715 1 23 1.000000
  23 -7.822504 -34.412941 55.745674 -0.611886 -0.784030 0.104368 0.555556 0.060817 1 23 1.000000
W_Garb_BeerBottle(256x128)
  23 -7.423115 -34.602131 55.674702 -0.311076 -0.949037 0.050600 0.611111 0.060817 1 23 1.000000
  23 -6.491267 -34.621853 61.033020 -0.204386 -0.939999 0.273180 0.611111 0.731715 1 23 1.000000
  23 -6.873271 -34.440887 61.100899 -0.505134 -0.798856 0.326601 0.555556 0.731715 1 23 1.000000
W_Garb_BeerBottle(256x128)
  23 -6.276852 -32.203388 61.029655 -0.042533 0.961445 0.271689 0.166667 0.731715 1 23 1.000000
  23 -5.828371 -32.710785 61.849731 0.298955 0.917623 0.261904 0.111111 0.797233 1 23 1.000000
  23 -5.856570 -32.240749 60.957211 0.287882 0.933266 0.214799 0.111111 0.731715 1 23 1.000000
W_Garb_BeerBottle(256x128)
  23 -5.856570 -32.240749 60.957211 0.287882 0.933266 0.214799 0.111111 0.731715 1 23 1.000000
  23 -5.828371 -32.710785 61.849731 0.298955 0.917623 0.261904 0.111111 0.797233 1 23 1.000000
  23 -5.593298 -32.822140 61.807961 0.594470 0.776380 0.209379 0.055556 0.797233 1 23 1.000000
W_Garb_BeerBottle(256x128)
  23 -5.856570 -32.240749 60.957211 0.287882 0.933266 0.214799 0.111111 0.731715 1 23 1.000000
  23 -5.593298 -32.822140 61.807961 0.594470 0.776380 0.209379 0.055556 0.797233 1 23 1.000000
  23 -5.474566 -32.421711 60.889332 0.588645 0.792130 0.161327 0.055556 0.731715 1 23 1.000000
W_Garb_BeerBottle(256x128)
  23 -6.759533 -32.112690 55.595451 0.314557 0.948754 -0.030315 0.111111 0.060817 1 23 1.000000
  23 -5.856570 -32.240749 60.957211 0.287882 0.933266 0.214799 0.111111 0.731715 1 23 1.000000
  23 -5.474566 -32.421711 60.889332 0.588645 0.792130 0.161327 0.055556 0.731715 1 23 1.000000
W_Garb_BeerBottle(256x128)
  23 -6.759533 -32.112690 55.595451 0.314557 0.948754 -0.030315 0.111111 0.060817 1 23 1.000000
  23 -5.474566 -32.421711 60.889332 0.588645 0.792130 0.161327 0.055556 0.731715 1 23 1.000000
  23 -6.360149 -32.301880 55.524483 0.615356 0.783753 -0.084072 0.055556 0.060817 1 23 1.000000
W_Garb_BeerBottle(256x128)
  23 -5.484209 -32.931473 62.840740 0.582313 0.812671 0.021865 0.055556 0.824370 1 23 1.000000
  23 -5.169190 -33.234268 64.751625 0.737922 0.528673 -0.419495 0.000000 1.025500 1 23 1.000000
  23 -5.329119 -33.089203 62.812035 0.833076 0.552704 -0.022420 0.000000 0.824370 1 23 1.000000
W_Garb_BeerBottle(256x128)
  23 -5.593298 -32.822140 61.807961 0.594470 0.776380 0.209379 0.055556 0.797233 1 23 1.000000
  23 -5.484209 -32.931473 62.840740 0.582313 0.812671 0.021865 0.055556 0.824370 1 23 1.000000
  23 -5.329119 -33.089203 62.812035 0.833076 0.552704 -0.022420 0.000000 0.824370 1 23 1.000000
W_Garb_BeerBottle(256x128)
  23 -5.593298 -32.822140 61.807961 0.594470 0.776380 0.209379 0.055556 0.797233 1 23 1.000000
  23 -5.329119 -33.089203 62.812035 0.833076 0.552704 -0.022420 0.000000 0.824370 1 23 1.000000
  23 -5.410134 -33.008427 61.774044 0.824297 0.541018 0.166834 0.000000 0.797233 1 23 1.000000
W_Garb_BeerBottle(256x128)
  23 -5.474566 -32.421711 60.889332 0.588645 0.792130 0.161327 0.055556 0.731715 1 23 1.000000
  23 -5.593298 -32.822140 61.807961 0.594470 0.776380 0.209379 0.055556 0.797233 1 23 1.000000
  23 -5.410134 -33.008427 61.774044 0.824297 0.541018 0.166834 0.000000 0.797233 1 23 1.000000
W_Garb_BeerBottle(256x128)
  23 -5.474566 -32.421711 60.889332 0.588645 0.792130 0.161327 0.055556 0.731715 1 23 1.000000
  23 -5.410134 -33.008427 61.774044 0.824297 0.541018 0.166834 0.000000 0.797233 1 23 1.000000
  23 -5.176910 -32.724438 60.834217 0.823432 0.555037 0.117873 0.000000 0.731715 1 23 1.000000
W_Garb_BeerBottle(256x128)
  23 -6.360149 -32.301880 55.524483 0.615356 0.783753 -0.084072 0.055556 0.060817 1 23 1.000000
  23 -5.474566 -32.421711 60.889332 0.588645 0.792130 0.161327 0.055556 0.731715 1 23 1.000000
  23 -5.176910 -32.724438 60.834217 0.823432 0.555037 0.117873 0.000000 0.731715 1 23 1.000000
W_Garb_BeerBottle(256x128)
  23 -6.360149 -32.301880 55.524483 0.615356 0.783753 -0.084072 0.055556 0.060817 1 23 1.000000
  23 -5.176910 -32.724438 60.834217 0.823432 0.555037 0.117873 0.000000 0.731715 1 23 1.000000
  23 -6.048950 -32.618385 55.466854 0.842155 0.524197 -0.126461 0.000000 0.060817 1 23 1.000000
W_Garb_BeerBottle(256x128)
  23 -6.983710 -34.641190 55.598957 0.027453 -0.999591 -0.008037 0.666667 0.060817 1 23 1.000000
  23 -6.491267 -34.621853 61.033020 -0.204386 -0.939999 0.273180 0.611111 0.731715 1 23 1.000000
  23 -7.423115 -34.602131 55.674702 -0.311076 -0.949037 0.050600 0.611111 0.060817 1 23 1.000000
W_Garb_BeerBottle(256x128)
  23 -6.983710 -34.641190 55.598957 0.027453 -0.999591 -0.008037 0.666667 0.060817 1 23 1.000000
  23 -6.070986 -34.659218 60.960564 0.126055 -0.968170 0.216234 0.666667 0.731715 1 23 1.000000
  23 -6.491267 -34.621853 61.033020 -0.204386 -0.939999 0.273180 0.611111 0.731715 1 23 1.000000
W_Garb_BeerBottle(256x128)
  23 -6.557284 -34.525414 55.527573 0.362888 -0.929600 -0.064475 0.722222 0.060817 1 23 1.000000
  23 -6.070986 -34.659218 60.960564 0.126055 -0.968170 0.216234 0.666667 0.731715 1 23 1.000000
  23 -6.983710 -34.641190 55.598957 0.027453 -0.999591 -0.008037 0.666667 0.060817 1 23 1.000000
W_Garb_BeerBottle(256x128)
  23 -6.557284 -34.525414 55.527573 0.362888 -0.929600 -0.064475 0.722222 0.060817 1 23 1.000000
  23 -5.663121 -34.548470 60.892292 0.446322 -0.879968 0.162640 0.722222 0.731715 1 23 1.000000
  23 -6.070986 -34.659218 60.960564 0.126055 -0.968170 0.216234 0.666667 0.731715 1 23 1.000000
W_Garb_BeerBottle(256x128)
  23 -6.195273 -34.268753 55.469143 0.654765 -0.747500 -0.111923 0.777778 0.060817 1 23 1.000000
  23 -5.663121 -34.548470 60.892292 0.446322 -0.879968 0.162640 0.722222 0.731715 1 23 1.000000
  23 -6.557284 -34.525414 55.527573 0.362888 -0.929600 -0.064475 0.722222 0.060817 1 23 1.000000
W_Garb_BeerBottle(256x128)
  23 -6.195273 -34.268753 55.469143 0.654765 -0.747500 -0.111923 0.777778 0.060817 1 23 1.000000
  23 -5.316866 -34.302979 60.836407 0.717790 -0.686042 0.118842 0.777778 0.731715 1 23 1.000000
  23 -5.663121 -34.548470 60.892292 0.446322 -0.879968 0.162640 0.722222 0.731715 1 23 1.000000
W_Garb_BeerBottle(256x128)
  23 -5.941339 -33.902172 55.430737 0.867875 -0.475258 -0.144647 0.833333 0.060817 1 23 1.000000
  23 -5.316866 -34.302979 60.836407 0.717790 -0.686042 0.118842 0.777778 0.731715 1 23 1.000000
  23 -6.195273 -34.268753 55.469143 0.654765 -0.747500 -0.111923 0.777778 0.060817 1 23 1.000000
W_Garb_BeerBottle(256x128)
  23 -5.941339 -33.902172 55.430737 0.867875 -0.475258 -0.144647 0.833333 0.060817 1 23 1.000000
  23 -5.073983 -33.952354 60.799671 0.907717 -0.409794 0.090100 0.833333 0.731715 1 23 1.000000
  23 -5.316866 -34.302979 60.836407 0.717790 -0.686042 0.118842 0.777778 0.731715 1 23 1.000000
W_Garb_BeerBottle(256x128)
  23 -5.826109 -33.469887 55.416981 0.976515 -0.145714 -0.158699 0.888889 0.060817 1 23 1.000000
  23 -5.073983 -33.952354 60.799671 0.907717 -0.409794 0.090100 0.833333 0.731715 1 23 1.000000
  23 -5.941339 -33.902172 55.430737 0.867875 -0.475258 -0.144647 0.833333 0.060817 1 23 1.000000
W_Garb_BeerBottle(256x128)
  23 -5.826109 -33.469887 55.416981 0.976515 -0.145714 -0.158699 0.888889 0.060817 1 23 1.000000
  23 -4.963773 -33.538879 60.786503 0.993207 -0.084456 0.080041 0.888889 0.731715 1 23 1.000000
  23 -5.073983 -33.952354 60.799671 0.907717 -0.409794 0.090100 0.833333 0.731715 1 23 1.000000
W_Garb_BeerBottle(256x128)
  23 -5.863480 -33.024029 55.429523 0.967585 0.201391 -0.152385 0.944444 0.060817 1 23 1.000000
  23 -4.963773 -33.538879 60.786503 0.993207 -0.084456 0.080041 0.888889 0.731715 1 23 1.000000
  23 -5.826109 -33.469887 55.416981 0.976515 -0.145714 -0.158699 0.888889 0.060817 1 23 1.000000
W_Garb_BeerBottle(256x128)
  23 -5.863480 -33.024029 55.429523 0.967585 0.201391 -0.152385 0.944444 0.060817 1 23 1.000000
  23 -4.999516 -33.112431 60.798508 0.963935 0.250591 0.089625 0.944444 0.731715 1 23 1.000000
  23 -4.963773 -33.538879 60.786503 0.993207 -0.084456 0.080041 0.888889 0.731715 1 23 1.000000
W_Garb_BeerBottle(256x128)
  23 -6.048950 -32.618385 55.466854 0.842155 0.524197 -0.126461 1.000000 0.060817 1 23 1.000000
  23 -4.999516 -33.112431 60.798508 0.963935 0.250591 0.089625 0.944444 0.731715 1 23 1.000000
  23 -5.863480 -33.024029 55.429523 0.967585 0.201391 -0.152385 0.944444 0.060817 1 23 1.000000
W_Garb_BeerBottle(256x128)
  23 -6.048950 -32.618385 55.466854 0.842155 0.524197 -0.126461 1.000000 0.060817 1 23 1.000000
  23 -5.176910 -32.724438 60.834217 0.823432 0.555037 0.117873 1.000000 0.731715 1 23 1.000000
  23 -4.999516 -33.112431 60.798508 0.963935 0.250591 0.089625 0.944444 0.731715 1 23 1.000000
W_Garb_BeerBottle(256x128)
  23 -5.176910 -32.724438 60.834217 0.823432 0.555037 0.117873 1.000000 0.731715 1 23 1.000000
  23 -5.300972 -33.247181 61.752068 0.960734 0.239930 0.139367 0.944444 0.797233 1 23 1.000000
  23 -4.999516 -33.112431 60.798508 0.963935 0.250591 0.089625 0.944444 0.731715 1 23 1.000000
W_Garb_BeerBottle(256x128)
  23 -5.176910 -32.724438 60.834217 0.823432 0.555037 0.117873 1.000000 0.731715 1 23 1.000000
  23 -5.410134 -33.008427 61.774044 0.824297 0.541018 0.166834 1.000000 0.797233 1 23 1.000000
  23 -5.300972 -33.247181 61.752068 0.960734 0.239930 0.139367 0.944444 0.797233 1 23 1.000000
W_Garb_BeerBottle(256x128)
  23 -5.410134 -33.008427 61.774044 0.824297 0.541018 0.166834 1.000000 0.797233 1 23 1.000000
  23 -5.236689 -33.291359 62.793423 0.956164 0.289164 -0.046207 0.944444 0.824370 1 23 1.000000
  23 -5.300972 -33.247181 61.752068 0.960734 0.239930 0.139367 0.944444 0.797233 1 23 1.000000
W_Garb_BeerBottle(256x128)
  23 -5.300972 -33.247181 61.752068 0.960734 0.239930 0.139367 0.944444 0.797233 1 23 1.000000
  23 -5.236689 -33.291359 62.793423 0.956164 0.289164 -0.046207 0.944444 0.824370 1 23 1.000000
  23 -5.218063 -33.513557 62.787174 0.994483 -0.088260 -0.056682 0.888889 0.824370 1 23 1.000000
W_Garb_BeerBottle(256x128)
  23 -5.582452 -34.039585 62.842281 0.461667 -0.886775 0.022218 0.722222 0.824370 1 23 1.000000
  23 -5.412885 -33.897903 64.784187 0.198015 -0.907067 -0.371511 0.694444 1.025500 1 23 1.000000
  23 -5.794964 -34.097286 62.877857 0.102035 -0.991260 0.083618 0.666667 0.824370 1 23 1.000000
W_Garb_BeerBottle(256x128)
  23 -5.402039 -33.911678 62.813168 0.709873 -0.704137 -0.016458 0.777778 0.824370 1 23 1.000000
  23 -5.412885 -33.897903 64.784187 0.198015 -0.907067 -0.371511 0.694444 1.025500 1 23 1.000000
  23 -5.582452 -34.039585 62.842281 0.461667 -0.886775 0.022218 0.722222 0.824370 1 23 1.000000
W_Garb_BeerBottle(256x128)
  23 -5.402039 -33.911678 62.813168 0.709873 -0.704137 -0.016458 0.777778 0.824370 1 23 1.000000
  23 -5.175725 -33.729763 64.745918 0.716931 -0.528102 -0.455102 0.805555 1.025500 1 23 1.000000
  23 -5.412885 -33.897903 64.784187 0.198015 -0.907067 -0.371511 0.694444 1.025500 1 23 1.000000
W_Garb_BeerBottle(256x128)
  23 -5.275489 -33.728989 62.794022 0.919664 -0.389597 -0.049318 0.833333 0.824370 1 23 1.000000
  23 -5.175725 -33.729763 64.745918 0.716931 -0.528102 -0.455102 0.805555 1.025500 1 23 1.000000
  23 -5.402039 -33.911678 62.813168 0.709873 -0.704137 -0.016458 0.777778 0.824370 1 23 1.000000
W_Garb_BeerBottle(256x128)
  23 -5.218063 -33.513557 62.787174 0.994483 -0.088260 -0.056682 0.888889 0.824370 1 23 1.000000
  23 -5.175725 -33.729763 64.745918 0.716931 -0.528102 -0.455102 0.805555 1.025500 1 23 1.000000
  23 -5.275489 -33.728989 62.794022 0.919664 -0.389597 -0.049318 0.833333 0.824370 1 23 1.000000
W_Garb_BeerBottle(256x128)
  23 -5.278974 -33.509605 61.744682 0.987336 -0.090619 0.130214 0.888889 0.797233 1 23 1.000000
  23 -5.218063 -33.513557 62.787174 0.994483 -0.088260 -0.056682 0.888889 0.824370 1 23 1.000000
  23 -5.275489 -33.728989 62.794022 0.919664 -0.389597 -0.049318 0.833333 0.824370 1 23 1.000000
W_Garb_BeerBottle(256x128)
  23 -5.300972 -33.247181 61.752068 0.960734 0.239930 0.139367 0.944444 0.797233 1 23 1.000000
  23 -5.218063 -33.513557 62.787174 0.994483 -0.088260 -0.056682 0.888889 0.824370 1 23 1.000000
  23 -5.278974 -33.509605 61.744682 0.987336 -0.090619 0.130214 0.888889 0.797233 1 23 1.000000
W_Garb_BeerBottle(256x128)
  23 -4.999516 -33.112431 60.798508 0.963935 0.250591 0.089625 0.944444 0.731715 1 23 1.000000
  23 -5.300972 -33.247181 61.752068 0.960734 0.239930 0.139367 0.944444 0.797233 1 23 1.000000
  23 -5.278974 -33.509605 61.744682 0.987336 -0.090619 0.130214 0.888889 0.797233 1 23 1.000000
W_Garb_BeerBottle(256x128)
  23 -4.999516 -33.112431 60.798508 0.963935 0.250591 0.089625 0.944444 0.731715 1 23 1.000000
  23 -5.278974 -33.509605 61.744682 0.987336 -0.090619 0.130214 0.888889 0.797233 1 23 1.000000
  23 -4.963773 -33.538879 60.786503 0.993207 -0.084456 0.080041 0.888889 0.731715 1 23 1.000000
W_Garb_BeerBottle(256x128)
  23 -4.963773 -33.538879 60.786503 0.993207 -0.084456 0.080041 0.888889 0.731715 1 23 1.000000
  23 -5.278974 -33.509605 61.744682 0.987336 -0.090619 0.130214 0.888889 0.797233 1 23 1.000000
  23 -5.346796 -33.764038 61.752781 0.900871 -0.410671 0.140645 0.833333 0.797233 1 23 1.000000
W_Garb_BeerBottle(256x128)
  23 -4.963773 -33.538879 60.786503 0.993207 -0.084456 0.080041 0.888889 0.731715 1 23 1.000000
  23 -5.346796 -33.764038 61.752781 0.900871 -0.410671 0.140645 0.833333 0.797233 1 23 1.000000
  23 -5.073983 -33.952354 60.799671 0.907717 -0.409794 0.090100 0.833333 0.731715 1 23 1.000000
W_Garb_BeerBottle(256x128)
  23 -5.073983 -33.952354 60.799671 0.907717 -0.409794 0.090100 0.833333 0.731715 1 23 1.000000
  23 -5.346796 -33.764038 61.752781 0.900871 -0.410671 0.140645 0.833333 0.797233 1 23 1.000000
  23 -5.496256 -33.979801 61.775387 0.711760 -0.681730 0.169238 0.777778 0.797233 1 23 1.000000
W_Garb_BeerBottle(256x128)
  23 -5.073983 -33.952354 60.799671 0.907717 -0.409794 0.090100 0.833333 0.731715 1 23 1.000000
  23 -5.496256 -33.979801 61.775387 0.711760 -0.681730 0.169238 0.777778 0.797233 1 23 1.000000
  23 -5.316866 -34.302979 60.836407 0.717790 -0.686042 0.118842 0.777778 0.731715 1 23 1.000000
W_Garb_BeerBottle(256x128)
  23 -5.316866 -34.302979 60.836407 0.717790 -0.686042 0.118842 0.777778 0.731715 1 23 1.000000
  23 -5.496256 -33.979801 61.775387 0.711760 -0.681730 0.169238 0.777778 0.797233 1 23 1.000000
  23 -5.709329 -34.130867 61.809772 0.442811 -0.871040 0.212620 0.722222 0.797233 1 23 1.000000
W_Garb_BeerBottle(256x128)
  23 -5.316866 -34.302979 60.836407 0.717790 -0.686042 0.118842 0.777778 0.731715 1 23 1.000000
  23 -5.709329 -34.130867 61.809772 0.442811 -0.871040 0.212620 0.722222 0.797233 1 23 1.000000
  23 -5.663121 -34.548470 60.892292 0.446322 -0.879968 0.162640 0.722222 0.731715 1 23 1.000000
W_Garb_BeerBottle(256x128)
  23 -5.663121 -34.548470 60.892292 0.446322 -0.879968 0.162640 0.722222 0.731715 1 23 1.000000
  23 -5.709329 -34.130867 61.809772 0.442811 -0.871040 0.212620 0.722222 0.797233 1 23 1.000000
  23 -5.960312 -34.199013 61.851795 0.126523 -0.955737 0.265628 0.666667 0.797233 1 23 1.000000
W_Garb_BeerBottle(256x128)
  23 -5.663121 -34.548470 60.892292 0.446322 -0.879968 0.162640 0.722222 0.731715 1 23 1.000000
  23 -5.960312 -34.199013 61.851795 0.126523 -0.955737 0.265628 0.666667 0.797233 1 23 1.000000
  23 -6.070986 -34.659218 60.960564 0.126055 -0.968170 0.216234 0.666667 0.731715 1 23 1.000000
W_Garb_BeerBottle(256x128)
  23 -6.070986 -34.659218 60.960564 0.126055 -0.968170 0.216234 0.666667 0.731715 1 23 1.000000
  23 -5.960312 -34.199013 61.851795 0.126523 -0.955737 0.265628 0.666667 0.797233 1 23 1.000000
  23 -6.218937 -34.176025 61.896378 -0.198993 -0.925661 0.321796 0.611111 0.797233 1 23 1.000000
W_Garb_BeerBottle(256x128)
  23 -6.218937 -34.176025 61.896378 -0.198993 -0.925661 0.321796 0.611111 0.797233 1 23 1.000000
  23 -6.013943 -34.077820 62.915611 -0.203520 -0.969729 0.134929 0.611111 0.824370 1 23 1.000000
  23 -6.212980 -33.983532 62.950974 -0.544542 -0.815328 0.196757 0.555556 0.824370 1 23 1.000000
W_Garb_BeerBottle(256x128)
  23 -5.960312 -34.199013 61.851795 0.126523 -0.955737 0.265628 0.666667 0.797233 1 23 1.000000
  23 -6.013943 -34.077820 62.915611 -0.203520 -0.969729 0.134929 0.611111 0.824370 1 23 1.000000
  23 -6.218937 -34.176025 61.896378 -0.198993 -0.925661 0.321796 0.611111 0.797233 1 23 1.000000
W_Garb_BeerBottle(256x128)
  23 -5.960312 -34.199013 61.851795 0.126523 -0.955737 0.265628 0.666667 0.797233 1 23 1.000000
  23 -5.794964 -34.097286 62.877857 0.102035 -0.991260 0.083618 0.666667 0.824370 1 23 1.000000
  23 -6.013943 -34.077820 62.915611 -0.203520 -0.969729 0.134929 0.611111 0.824370 1 23 1.000000
W_Garb_BeerBottle(256x128)
  23 -5.709329 -34.130867 61.809772 0.442811 -0.871040 0.212620 0.722222 0.797233 1 23 1.000000
  23 -5.794964 -34.097286 62.877857 0.102035 -0.991260 0.083618 0.666667 0.824370 1 23 1.000000
  23 -5.960312 -34.199013 61.851795 0.126523 -0.955737 0.265628 0.666667 0.797233 1 23 1.000000
W_Garb_BeerBottle(256x128)
  23 -5.709329 -34.130867 61.809772 0.442811 -0.871040 0.212620 0.722222 0.797233 1 23 1.000000
  23 -5.582452 -34.039585 62.842281 0.461667 -0.886775 0.022218 0.722222 0.824370 1 23 1.000000
  23 -5.794964 -34.097286 62.877857 0.102035 -0.991260 0.083618 0.666667 0.824370 1 23 1.000000
W_Garb_BeerBottle(256x128)
  23 -5.496256 -33.979801 61.775387 0.711760 -0.681730 0.169238 0.777778 0.797233 1 23 1.000000
  23 -5.582452 -34.039585 62.842281 0.461667 -0.886775 0.022218 0.722222 0.824370 1 23 1.000000
  23 -5.709329 -34.130867 61.809772 0.442811 -0.871040 0.212620 0.722222 0.797233 1 23 1.000000
W_Garb_BeerBottle(256x128)
  23 -5.496256 -33.979801 61.775387 0.711760 -0.681730 0.169238 0.777778 0.797233 1 23 1.000000
  23 -5.402039 -33.911678 62.813168 0.709873 -0.704137 -0.016458 0.777778 0.824370 1 23 1.000000
  23 -5.582452 -34.039585 62.842281 0.461667 -0.886775 0.022218 0.722222 0.824370 1 23 1.000000
W_Garb_BeerBottle(256x128)
  23 -5.346796 -33.764038 61.752781 0.900871 -0.410671 0.140645 0.833333 0.797233 1 23 1.000000
  23 -5.402039 -33.911678 62.813168 0.709873 -0.704137 -0.016458 0.777778 0.824370 1 23 1.000000
  23 -5.496256 -33.979801 61.775387 0.711760 -0.681730 0.169238 0.777778 0.797233 1 23 1.000000
W_Garb_BeerBottle(256x128)
  23 -5.346796 -33.764038 61.752781 0.900871 -0.410671 0.140645 0.833333 0.797233 1 23 1.000000
  23 -5.275489 -33.728989 62.794022 0.919664 -0.389597 -0.049318 0.833333 0.824370 1 23 1.000000
  23 -5.402039 -33.911678 62.813168 0.709873 -0.704137 -0.016458 0.777778 0.824370 1 23 1.000000
W_Garb_BeerBottle(256x128)
  23 -5.278974 -33.509605 61.744682 0.987336 -0.090619 0.130214 0.888889 0.797233 1 23 1.000000
  23 -5.275489 -33.728989 62.794022 0.919664 -0.389597 -0.049318 0.833333 0.824370 1 23 1.000000
  23 -5.346796 -33.764038 61.752781 0.900871 -0.410671 0.140645 0.833333 0.797233 1 23 1.000000
W_Garb_BeerBottle(256x128)
  23 -5.098583 -33.520977 65.071388 -0.934396 0.083248 0.346373 -0.111111 1.059800 1 23 1.000000
  23 -5.787500 -33.440182 63.193504 0.166248 -0.018757 0.985906 0.083333 0.855818 1 23 1.000000
  23 -5.131992 -33.646313 65.075378 -0.845324 0.412411 0.339623 -0.166667 1.059800 1 23 1.000000
W_Garb_BeerBottle(256x128)
  23 -5.131992 -33.646313 65.075378 -0.845324 0.412411 0.339623 -0.166667 1.059800 1 23 1.000000
  23 -5.787500 -33.440182 63.193504 0.166248 -0.018757 0.985906 0.083333 0.855818 1 23 1.000000
  23 -5.205618 -33.752598 65.086510 -0.650627 0.691393 0.314103 -0.222222 1.059800 1 23 1.000000
W_Garb_BeerBottle(256x128)
  23 -5.205618 -33.752598 65.086510 -0.650627 0.691393 0.314103 -0.222222 1.059800 1 23 1.000000
  23 -5.787500 -33.440182 63.193504 0.166248 -0.018757 0.985906 0.083333 0.855818 1 23 1.000000
  23 -5.310577 -33.827011 65.103455 -0.374111 0.886313 0.272929 -0.277778 1.059800 1 23 1.000000
W_Garb_BeerBottle(256x128)
  23 -5.310577 -33.827011 65.103455 -0.374111 0.886313 0.272929 -0.277778 1.059800 1 23 1.000000
  23 -5.787500 -33.440182 63.193504 0.166248 -0.018757 0.985906 0.083333 0.855818 1 23 1.000000
  23 -5.434212 -33.860580 65.124153 -0.049328 0.974000 0.221113 -0.333333 1.059800 1 23 1.000000
W_Garb_BeerBottle(256x128)
  23 -5.434212 -33.860580 65.124153 -0.049328 0.974000 0.221113 -0.333333 1.059800 1 23 1.000000
  23 -5.787500 -33.440182 63.193504 0.166248 -0.018757 0.985906 0.083333 0.855818 1 23 1.000000
  23 -5.561614 -33.849255 65.146111 0.285248 0.944178 0.164806 -0.388889 1.059800 1 23 1.000000
W_Garb_BeerBottle(256x128)
  23 -5.561614 -33.849255 65.146111 0.285248 0.944178 0.164806 -0.388889 1.059800 1 23 1.000000
  23 -5.787500 -33.440182 63.193504 0.166248 -0.018757 0.985906 0.083333 0.855818 1 23 1.000000
  23 -5.677408 -33.794399 65.166687 0.590224 0.799625 0.110615 0.555556 1.059800 1 23 1.000000
W_Garb_BeerBottle(256x128)
  23 -5.677408 -33.794399 65.166687 0.590224 0.799625 0.110615 0.555556 1.059800 1 23 1.000000
  23 -5.787500 -33.440182 63.193504 0.166248 -0.018757 0.985906 0.083333 0.855818 1 23 1.000000
  23 -5.767635 -33.702633 65.183403 0.826247 0.559482 0.065542 0.500000 1.059800 1 23 1.000000
W_Garb_BeerBottle(256x128)
  23 -5.767635 -33.702633 65.183403 0.826247 0.559482 0.065542 0.500000 1.059800 1 23 1.000000
  23 -5.787500 -33.440182 63.193504 0.166248 -0.018757 0.985906 0.083333 0.855818 1 23 1.000000
  23 -5.821408 -33.585026 65.194221 0.967373 0.250986 0.034566 0.444444 1.059800 1 23 1.000000
W_Garb_BeerBottle(256x128)
  23 -5.821408 -33.585026 65.194221 0.967373 0.250986 0.034566 0.444444 1.059800 1 23 1.000000
  23 -5.787500 -33.440182 63.193504 0.166248 -0.018757 0.985906 0.083333 0.855818 1 23 1.000000
  23 -5.832245 -33.455753 65.197861 0.995850 -0.088423 0.021545 0.388889 1.059800 1 23 1.000000
W_Garb_BeerBottle(256x128)
  23 -5.832245 -33.455753 65.197861 0.995850 -0.088423 0.021545 0.388889 1.059800 1 23 1.000000
  23 -5.787500 -33.440182 63.193504 0.166248 -0.018757 0.985906 0.083333 0.855818 1 23 1.000000
  23 -5.798838 -33.330418 65.193871 0.907994 -0.418040 0.028083 0.333333 1.059800 1 23 1.000000
W_Garb_BeerBottle(256x128)
  23 -5.798838 -33.330418 65.193871 0.907994 -0.418040 0.028083 0.333333 1.059800 1 23 1.000000
  23 -5.787500 -33.440182 63.193504 0.166248 -0.018757 0.985906 0.083333 0.855818 1 23 1.000000
  23 -5.725214 -33.224133 65.182732 0.714397 -0.697700 0.053407 0.277778 1.059800 1 23 1.000000
W_Garb_BeerBottle(256x128)
  23 -5.725214 -33.224133 65.182732 0.714397 -0.697700 0.053407 0.277778 1.059800 1 23 1.000000
  23 -5.787500 -33.440182 63.193504 0.166248 -0.018757 0.985906 0.083333 0.855818 1 23 1.000000
  23 -5.620253 -33.149715 65.165794 0.437908 -0.894035 0.094536 0.222222 1.059800 1 23 1.000000
W_Garb_BeerBottle(256x128)
  23 -5.620253 -33.149715 65.165794 0.437908 -0.894035 0.094536 0.222222 1.059800 1 23 1.000000
  23 -5.787500 -33.440182 63.193504 0.166248 -0.018757 0.985906 0.083333 0.855818 1 23 1.000000
  23 -5.496617 -33.116150 65.145096 0.112599 -0.982796 0.146399 0.166667 1.059800 1 23 1.000000
W_Garb_BeerBottle(256x128)
  23 -5.496617 -33.116150 65.145096 0.112599 -0.982796 0.146399 0.166667 1.059800 1 23 1.000000
  23 -5.787500 -33.440182 63.193504 0.166248 -0.018757 0.985906 0.083333 0.855818 1 23 1.000000
  23 -5.369218 -33.127472 65.123131 -0.223678 -0.953293 0.202978 0.111111 1.059800 1 23 1.000000
W_Garb_BeerBottle(256x128)
  23 -5.369218 -33.127472 65.123131 -0.223678 -0.953293 0.202978 0.111111 1.059800 1 23 1.000000
  23 -5.787500 -33.440182 63.193504 0.166248 -0.018757 0.985906 0.083333 0.855818 1 23 1.000000
  23 -5.253421 -33.182327 65.102562 -0.529170 -0.808578 0.257255 0.055555 1.059800 1 23 1.000000
W_Garb_BeerBottle(256x128)
  23 -5.253421 -33.182327 65.102562 -0.529170 -0.808578 0.257255 0.055555 1.059800 1 23 1.000000
  23 -5.787500 -33.440182 63.193504 0.166248 -0.018757 0.985906 0.083333 0.855818 1 23 1.000000
  23 -5.163193 -33.274094 65.085854 -0.766637 -0.566292 0.302622 0.000000 1.059800 1 23 1.000000
W_Garb_BeerBottle(256x128)
  23 -5.163193 -33.274094 65.085854 -0.766637 -0.566292 0.302622 0.000000 1.059800 1 23 1.000000
  23 -5.787500 -33.440182 63.193504 0.166248 -0.018757 0.985906 0.083333 0.855818 1 23 1.000000
  23 -5.109420 -33.391705 65.075027 -0.907177 -0.256472 0.333544 -0.055556 1.059800 1 23 1.000000
W_Garb_BeerBottle(256x128)
  23 -5.109420 -33.391705 65.075027 -0.907177 -0.256472 0.333544 -0.055556 1.059800 1 23 1.000000
  23 -5.787500 -33.440182 63.193504 0.166248 -0.018757 0.985906 0.083333 0.855818 1 23 1.000000
  23 -5.098583 -33.520977 65.071388 -0.934396 0.083248 0.346373 -0.111111 1.059800 1 23 1.000000
W_Garb_BeerBottle(256x128)
  23 -5.216502 -33.129070 65.097137 0.166707 -0.014718 0.985897 0.055556 1.059820 1 23 1.000000
  23 -5.163193 -33.274094 65.085854 0.166797 -0.014977 0.985877 0.000000 1.059800 1 23 1.000000
  23 -5.110573 -33.236809 65.077522 0.166100 -0.014244 0.986006 0.000000 1.059820 1 23 1.000000
W_Garb_BeerBottle(256x128)
  23 -5.216502 -33.129070 65.097137 0.166707 -0.014718 0.985897 0.055556 1.059820 1 23 1.000000
  23 -5.253421 -33.182327 65.102562 0.168092 -0.015870 0.985643 0.055555 1.059800 1 23 1.000000
  23 -5.163193 -33.274094 65.085854 0.166797 -0.014977 0.985877 0.000000 1.059800 1 23 1.000000
W_Garb_BeerBottle(256x128)
  23 -5.352450 -33.064671 65.121284 0.168049 -0.015885 0.985651 0.111111 1.059820 1 23 1.000000
  23 -5.253421 -33.182327 65.102562 0.168092 -0.015870 0.985643 0.055555 1.059800 1 23 1.000000
  23 -5.216502 -33.129070 65.097137 0.166707 -0.014718 0.985897 0.055556 1.059820 1 23 1.000000
W_Garb_BeerBottle(256x128)
  23 -5.352450 -33.064671 65.121284 0.168049 -0.015885 0.985651 0.111111 1.059820 1 23 1.000000
  23 -5.369218 -33.127472 65.123131 0.168590 -0.016102 0.985555 0.111111 1.059800 1 23 1.000000
  23 -5.253421 -33.182327 65.102562 0.168092 -0.015870 0.985643 0.055555 1.059800 1 23 1.000000
W_Garb_BeerBottle(256x128)
  23 -5.502020 -33.051376 65.147072 0.168976 -0.015945 0.985491 0.166667 1.059820 1 23 1.000000
  23 -5.369218 -33.127472 65.123131 0.168590 -0.016102 0.985555 0.111111 1.059800 1 23 1.000000
  23 -5.352450 -33.064671 65.121284 0.168049 -0.015885 0.985651 0.111111 1.059820 1 23 1.000000
W_Garb_BeerBottle(256x128)
  23 -5.502020 -33.051376 65.147072 0.168976 -0.015945 0.985491 0.166667 1.059820 1 23 1.000000
  23 -5.496617 -33.116150 65.145096 0.169746 -0.016129 0.985356 0.166667 1.059800 1 23 1.000000
  23 -5.369218 -33.127472 65.123131 0.168590 -0.016102 0.985555 0.111111 1.059800 1 23 1.000000
W_Garb_BeerBottle(256x128)
  23 -5.647170 -33.090786 65.171379 0.169689 -0.015854 0.985370 0.222222 1.059820 1 23 1.000000
  23 -5.496617 -33.116150 65.145096 0.169746 -0.016129 0.985356 0.166667 1.059800 1 23 1.000000
  23 -5.502020 -33.051376 65.147072 0.168976 -0.015945 0.985491 0.166667 1.059820 1 23 1.000000
W_Garb_BeerBottle(256x128)
  23 -5.647170 -33.090786 65.171379 0.169689 -0.015854 0.985370 0.222222 1.059820 1 23 1.000000
  23 -5.620253 -33.149715 65.165794 0.170236 -0.015083 0.985288 0.222222 1.059800 1 23 1.000000
  23 -5.496617 -33.116150 65.145096 0.169746 -0.016129 0.985356 0.166667 1.059800 1 23 1.000000
W_Garb_BeerBottle(256x128)
  23 -5.770399 -33.178150 65.191261 0.169869 -0.015788 0.985340 0.277778 1.059820 1 23 1.000000
  23 -5.620253 -33.149715 65.165794 0.170236 -0.015083 0.985288 0.222222 1.059800 1 23 1.000000
  23 -5.647170 -33.090786 65.171379 0.169689 -0.015854 0.985370 0.222222 1.059820 1 23 1.000000
W_Garb_BeerBottle(256x128)
  23 -5.770399 -33.178150 65.191261 0.169869 -0.015788 0.985340 0.277778 1.059820 1 23 1.000000
  23 -5.725214 -33.224133 65.182732 0.170754 -0.014933 0.985200 0.277778 1.059800 1 23 1.000000
  23 -5.620253 -33.149715 65.165794 0.170236 -0.015083 0.985288 0.222222 1.059800 1 23 1.000000
W_Garb_BeerBottle(256x128)
  23 -5.856835 -33.302933 65.204338 0.170536 -0.015004 0.985237 0.333333 1.059820 1 23 1.000000
  23 -5.725214 -33.224133 65.182732 0.170754 -0.014933 0.985200 0.277778 1.059800 1 23 1.000000
  23 -5.770399 -33.178150 65.191261 0.169869 -0.015788 0.985340 0.277778 1.059820 1 23 1.000000
W_Garb_BeerBottle(256x128)
  23 -5.856835 -33.302933 65.204338 0.170536 -0.015004 0.985237 0.333333 1.059820 1 23 1.000000
  23 -5.798838 -33.330418 65.193871 0.170771 -0.014628 0.985202 0.333333 1.059800 1 23 1.000000
  23 -5.725214 -33.224133 65.182732 0.170754 -0.014933 0.985200 0.277778 1.059800 1 23 1.000000
W_Garb_BeerBottle(256x128)
  23 -5.896058 -33.450081 65.209023 0.170942 -0.013816 0.985184 0.388889 1.059820 1 23 1.000000
  23 -5.798838 -33.330418 65.193871 0.170771 -0.014628 0.985202 0.333333 1.059800 1 23 1.000000
  23 -5.856835 -33.302933 65.204338 0.170536 -0.015004 0.985237 0.333333 1.059820 1 23 1.000000
W_Garb_BeerBottle(256x128)
  23 -5.896058 -33.450081 65.209023 0.170942 -0.013816 0.985184 0.388889 1.059820 1 23 1.000000
  23 -5.832245 -33.455753 65.197861 0.170886 -0.013806 0.985194 0.388889 1.059800 1 23 1.000000
  23 -5.798838 -33.330418 65.193871 0.170771 -0.014628 0.985202 0.333333 1.059800 1 23 1.000000
W_Garb_BeerBottle(256x128)
  23 -5.883337 -33.601849 65.204742 0.171408 -0.013484 0.985108 0.444444 1.059820 1 23 1.000000
  23 -5.832245 -33.455753 65.197861 0.170886 -0.013806 0.985194 0.388889 1.059800 1 23 1.000000
  23 -5.896058 -33.450081 65.209023 0.170942 -0.013816 0.985184 0.388889 1.059820 1 23 1.000000
W_Garb_BeerBottle(256x128)
  23 -5.883337 -33.601849 65.204742 0.171408 -0.013484 0.985108 0.444444 1.059820 1 23 1.000000
  23 -5.821408 -33.585026 65.194221 0.170913 -0.012956 0.985201 0.444444 1.059800 1 23 1.000000
  23 -5.832245 -33.455753 65.197861 0.170886 -0.013806 0.985194 0.388889 1.059800 1 23 1.000000
W_Garb_BeerBottle(256x128)
  23 -5.820203 -33.739925 65.192047 0.171301 -0.012965 0.985133 0.500000 1.059820 1 23 1.000000
  23 -5.821408 -33.585026 65.194221 0.170913 -0.012956 0.985201 0.444444 1.059800 1 23 1.000000
  23 -5.883337 -33.601849 65.204742 0.171408 -0.013484 0.985108 0.444444 1.059820 1 23 1.000000
W_Garb_BeerBottle(256x128)
  23 -5.820203 -33.739925 65.192047 0.171301 -0.012965 0.985133 0.500000 1.059820 1 23 1.000000
  23 -5.767635 -33.702633 65.183403 0.170421 -0.011829 0.985300 0.500000 1.059800 1 23 1.000000
  23 -5.821408 -33.585026 65.194221 0.170913 -0.012956 0.985201 0.444444 1.059800 1 23 1.000000
W_Garb_BeerBottle(256x128)
  23 -5.714274 -33.847660 65.172424 0.170118 -0.011626 0.985355 0.555556 1.059820 1 23 1.000000
  23 -5.767635 -33.702633 65.183403 0.170421 -0.011829 0.985300 0.500000 1.059800 1 23 1.000000
  23 -5.820203 -33.739925 65.192047 0.171301 -0.012965 0.985133 0.500000 1.059820 1 23 1.000000
W_Garb_BeerBottle(256x128)
  23 -5.714274 -33.847660 65.172424 0.170118 -0.011626 0.985355 0.555556 1.059820 1 23 1.000000
  23 -5.677408 -33.794399 65.166687 0.170180 -0.011623 0.985344 0.555556 1.059800 1 23 1.000000
  23 -5.767635 -33.702633 65.183403 0.170421 -0.011829 0.985300 0.500000 1.059800 1 23 1.000000
W_Garb_BeerBottle(256x128)
  23 -5.578327 -33.912060 65.148262 0.170120 -0.011599 0.985355 0.611111 1.059820 1 23 1.000000
  23 -5.677408 -33.794399 65.166687 0.170180 -0.011623 0.985344 0.555556 1.059800 1 23 1.000000
  23 -5.714274 -33.847660 65.172424 0.170118 -0.011626 0.985355 0.555556 1.059820 1 23 1.000000
W_Garb_BeerBottle(256x128)
  23 -5.578327 -33.912060 65.148262 0.170120 -0.011599 0.985355 0.611111 1.059820 1 23 1.000000
  23 -5.561614 -33.849255 65.146111 0.169281 -0.011276 0.985503 0.611111 1.059800 1 23 1.000000
  23 -5.677408 -33.794399 65.166687 0.170180 -0.011623 0.985344 0.555556 1.059800 1 23 1.000000
W_Garb_BeerBottle(256x128)
  23 -5.428756 -33.925358 65.122482 0.168486 -0.011202 0.985640 0.666667 1.059820 1 23 1.000000
  23 -5.561614 -33.849255 65.146111 0.169281 -0.011276 0.985503 0.611111 1.059800 1 23 1.000000
  23 -5.578327 -33.912060 65.148262 0.170120 -0.011599 0.985355 0.611111 1.059820 1 23 1.000000
W_Garb_BeerBottle(256x128)
  23 -5.428756 -33.925358 65.122482 0.168486 -0.011202 0.985640 0.666667 1.059820 1 23 1.000000
  23 -5.434212 -33.860580 65.124153 0.168489 -0.011207 0.985640 0.666667 1.059800 1 23 1.000000
  23 -5.561614 -33.849255 65.146111 0.169281 -0.011276 0.985503 0.611111 1.059800 1 23 1.000000
W_Garb_BeerBottle(256x128)
  23 -5.283606 -33.885944 65.098183 0.168527 -0.011083 0.985635 0.722222 1.059820 1 23 1.000000
  23 -5.434212 -33.860580 65.124153 0.168489 -0.011207 0.985640 0.666667 1.059800 1 23 1.000000
  23 -5.428756 -33.925358 65.122482 0.168486 -0.011202 0.985640 0.666667 1.059820 1 23 1.000000
W_Garb_BeerBottle(256x128)
  23 -5.283606 -33.885944 65.098183 0.168527 -0.011083 0.985635 0.722222 1.059820 1 23 1.000000
  23 -5.310577 -33.827011 65.103455 0.166748 -0.012009 0.985926 0.722222 1.059800 1 23 1.000000
  23 -5.434212 -33.860580 65.124153 0.168489 -0.011207 0.985640 0.666667 1.059800 1 23 1.000000
W_Garb_BeerBottle(256x128)
  23 -5.160380 -33.798580 65.078293 0.167017 -0.011878 0.985882 0.777778 1.059820 1 23 1.000000
  23 -5.310577 -33.827011 65.103455 0.166748 -0.012009 0.985926 0.722222 1.059800 1 23 1.000000
  23 -5.283606 -33.885944 65.098183 0.168527 -0.011083 0.985635 0.722222 1.059820 1 23 1.000000
W_Garb_BeerBottle(256x128)
  23 -5.160380 -33.798580 65.078293 0.167017 -0.011878 0.985882 0.777778 1.059820 1 23 1.000000
  23 -5.205618 -33.752598 65.086510 0.166977 -0.011856 0.985889 0.777778 1.059800 1 23 1.000000
  23 -5.310577 -33.827011 65.103455 0.166748 -0.012009 0.985926 0.722222 1.059800 1 23 1.000000
W_Garb_BeerBottle(256x128)
  23 -5.073941 -33.673801 65.065231 0.166929 -0.012203 0.985893 0.833333 1.059820 1 23 1.000000
  23 -5.205618 -33.752598 65.086510 0.166977 -0.011856 0.985889 0.777778 1.059800 1 23 1.000000
  23 -5.160380 -33.798580 65.078293 0.167017 -0.011878 0.985882 0.777778 1.059820 1 23 1.000000
W_Garb_BeerBottle(256x128)
  23 -5.073941 -33.673801 65.065231 0.166929 -0.012203 0.985893 0.833333 1.059820 1 23 1.000000
  23 -5.131992 -33.646313 65.075378 0.166530 -0.013185 0.985948 0.833333 1.059800 1 23 1.000000
  23 -5.205618 -33.752598 65.086510 0.166977 -0.011856 0.985889 0.777778 1.059800 1 23 1.000000
W_Garb_BeerBottle(256x128)
  23 -5.034719 -33.526653 65.060539 0.166625 -0.012523 0.985941 0.888889 1.059820 1 23 1.000000
  23 -5.131992 -33.646313 65.075378 0.166530 -0.013185 0.985948 0.833333 1.059800 1 23 1.000000
  23 -5.073941 -33.673801 65.065231 0.166929 -0.012203 0.985893 0.833333 1.059820 1 23 1.000000
W_Garb_BeerBottle(256x128)
  23 -5.034719 -33.526653 65.060539 0.166625 -0.012523 0.985941 0.888889 1.059820 1 23 1.000000
  23 -5.098583 -33.520977 65.071388 0.166192 -0.014138 0.985992 0.888889 1.059800 1 23 1.000000
  23 -5.131992 -33.646313 65.075378 0.166530 -0.013185 0.985948 0.833333 1.059800 1 23 1.000000
W_Garb_BeerBottle(256x128)
  23 -5.047443 -33.374886 65.064804 0.166455 -0.014200 0.985947 0.944444 1.059820 1 23 1.000000
  23 -5.098583 -33.520977 65.071388 0.166192 -0.014138 0.985992 0.888889 1.059800 1 23 1.000000
  23 -5.034719 -33.526653 65.060539 0.166625 -0.012523 0.985941 0.888889 1.059820 1 23 1.000000
W_Garb_BeerBottle(256x128)
  23 -5.047443 -33.374886 65.064804 0.166455 -0.014200 0.985947 0.944444 1.059820 1 23 1.000000
  23 -5.109420 -33.391705 65.075027 0.166030 -0.015044 0.986006 0.944444 1.059800 1 23 1.000000
  23 -5.098583 -33.520977 65.071388 0.166192 -0.014138 0.985992 0.888889 1.059800 1 23 1.000000
W_Garb_BeerBottle(256x128)
  23 -5.110573 -33.236809 65.077522 0.166100 -0.014244 0.986006 1.000000 1.059820 1 23 1.000000
  23 -5.109420 -33.391705 65.075027 0.166030 -0.015044 0.986006 0.944444 1.059800 1 23 1.000000
  23 -5.047443 -33.374886 65.064804 0.166455 -0.014200 0.985947 0.944444 1.059820 1 23 1.000000
W_Garb_BeerBottle(256x128)
  23 -5.110573 -33.236809 65.077522 0.166100 -0.014244 0.986006 1.000000 1.059820 1 23 1.000000
  23 -5.163193 -33.274094 65.085854 0.166797 -0.014977 0.985877 1.000000 1.059800 1 23 1.000000
  23 -5.109420 -33.391705 65.075027 0.166030 -0.015044 0.986006 0.944444 1.059800 1 23 1.000000
end
