// Created by Crowbar 0.74
version 1
nodes
  0 "Bip01" -1
  1 "Bip01 Pelvis" 0
  2 "Bip01 Spine" 1
  3 "Bip01 Neck" 2
  4 "Bip01 R Clavicle" 3
  5 "Bip01 R UpperArm" 4
  6 "Bip01 R Forearm" 5
  7 "Bip01 R Hand" 6
  8 "Bip01 R Finger0" 7
  9 "Bip01 R Finger01" 8
  10 "Bip01 R Finger02" 9
  11 "Bip01 R Finger1" 7
  12 "Bip01 R Finger11" 11
  13 "Bip01 R Finger12" 12
  14 "Bip01 R Finger2" 7
  15 "Bip01 R Finger21" 14
  16 "Bip01 R Finger22" 15
  17 "Bip01 R Finger3" 7
  18 "Bip01 R Finger31" 17
  19 "Bip01 R Finger32" 18
  20 "Bip01 R Finger4" 7
  21 "Bip01 R Finger41" 20
  22 "Bip01 R Finger42" 21
  23 "Dummy14" 7
end
skeleton
  time 0
    0 0.134138 -0.053419 43.181469 0.000000 0.000000 -1.570795
    1 0.000000 0.000000 0.000000 0.000000 -1.570451 -1.570795
    2 4.443616 -0.009642 0.000006 -0.000004 -0.000001 0.000796
    3 12.111416 -0.011446 0.000000 0.000000 0.000000 0.000000
    4 0.000008 0.011449 -1.352403 -0.000014 1.370796 3.140783
    5 6.078087 0.000000 0.000002 1.269618 -0.044848 -1.538622
    6 13.446753 -0.000003 0.000000 0.000000 0.000000 -0.069100
    7 15.997000 -0.000001 0.000000 1.683446 0.000000 0.000000
    8 1.885324 0.833277 2.177874 1.598016 -0.698132 -0.000668
    9 1.506966 0.000000 0.000000 0.000000 0.000000 -0.139626
    10 0.798350 0.000001 0.000000 0.000000 0.000000 -0.113446
    11 3.950305 -0.539875 2.108871 0.000806 -0.157080 -0.000126
    12 1.545792 0.000000 0.000004 0.000000 0.000000 0.471239
    13 1.667396 -0.000001 -0.000003 0.000000 0.000000 0.436332
    14 3.899463 -0.475376 1.170888 0.000796 0.000000 0.000000
    15 1.528218 0.000000 0.000000 0.000000 0.000000 0.331613
    16 1.528214 -0.000001 -0.000004 0.000000 0.000000 0.479965
    17 3.899462 -0.431804 -0.168228 0.000796 0.000000 0.000000
    18 1.506963 0.000000 -0.000002 0.000000 0.000000 0.427606
    19 1.506964 -0.000001 0.000008 0.000000 0.000000 0.340339
    20 3.915634 -0.278019 -1.402608 0.000796 0.000000 0.000000
    21 1.333080 0.000000 0.000005 0.000000 0.000000 0.637045
    22 1.159203 0.000001 0.000000 0.000000 0.000000 0.218166
    23 4.150422 4.791645 -1.605120 -0.741516 0.252881 1.841440
end
triangles
rockcliff02c
  23 -3.882425 -34.785751 61.206951 -0.471079 0.121440 0.873691 0.501236 0.636208 1 23 1.000000
  23 -0.816047 -34.971958 62.886166 -0.154048 0.168029 0.973671 0.737748 0.726790 1 23 1.000000
  23 -1.808081 -33.408379 62.048206 -0.247597 0.290249 0.924365 0.585033 0.763557 1 23 1.000000
rockcliff02c
  23 0.706167 -32.530182 61.560757 0.039290 0.457659 0.888259 0.685160 0.914989 1 23 1.000000
  23 -1.808081 -33.408379 62.048206 -0.247597 0.290249 0.924365 0.585033 0.763557 1 23 1.000000
  23 -0.816047 -34.971958 62.886166 -0.154048 0.168029 0.973671 0.737748 0.726790 1 23 1.000000
rockcliff02c
  23 0.706167 -32.530182 61.560757 0.039290 0.457659 0.888259 0.685160 0.914989 1 23 1.000000
  23 -0.816047 -34.971958 62.886166 -0.154048 0.168029 0.973671 0.737748 0.726790 1 23 1.000000
  23 1.029883 -35.162380 62.826294 0.007324 0.131412 0.991301 0.861925 0.772605 1 23 1.000000
rockcliff02c
  23 1.179402 -37.586529 62.556641 -0.018770 -0.139113 0.990099 1.038690 0.630221 1 23 1.000000
  23 1.029883 -35.162380 62.826294 0.007324 0.131412 0.991301 0.861925 0.772605 1 23 1.000000
  23 -0.816047 -34.971958 62.886166 -0.154048 0.168029 0.973671 0.737748 0.726790 1 23 1.000000
rockcliff02c
  23 1.179402 -37.586529 62.556641 -0.018770 -0.139113 0.990099 1.038690 0.630221 1 23 1.000000
  23 -0.816047 -34.971958 62.886166 -0.154048 0.168029 0.973671 0.737748 0.726790 1 23 1.000000
  23 -1.532972 -36.369267 62.608154 -0.255781 -0.008254 0.966699 0.748874 0.642536 1 23 1.000000
rockcliff02c
  23 -3.882425 -34.785751 61.206951 -0.471079 0.121440 0.873691 0.501236 0.636208 1 23 1.000000
  23 -1.532972 -36.369267 62.608154 -0.255781 -0.008254 0.966699 0.748874 0.642536 1 23 1.000000
  23 -0.816047 -34.971958 62.886166 -0.154048 0.168029 0.973671 0.737748 0.726790 1 23 1.000000
rockcliff02c
  23 3.161760 -39.006947 58.427586 0.139493 -0.988295 -0.061766 0.009422 0.786025 1 23 1.000000
  23 2.369629 -38.307278 54.497540 0.402500 -0.722942 -0.561559 0.404708 0.878007 1 23 1.000000
  23 3.557372 -38.176987 55.874706 0.460595 -0.805789 -0.372231 0.254093 0.886828 1 23 1.000000
rockcliff02c
  23 3.161760 -39.006947 58.427586 0.139493 -0.988295 -0.061766 0.009422 0.786025 1 23 1.000000
  23 1.566890 -38.787930 55.510757 0.066864 -0.948208 -0.310533 0.369517 0.811550 1 23 1.000000
  23 2.369629 -38.307278 54.497540 0.402500 -0.722942 -0.561559 0.404708 0.878007 1 23 1.000000
rockcliff02c
  23 2.850148 -36.246964 53.942135 0.691515 -0.333950 -0.640534 0.498764 0.987631 1 23 1.000000
  23 3.557372 -38.176987 55.874706 0.460595 -0.805789 -0.372231 0.254093 0.886828 1 23 1.000000
  23 2.369629 -38.307278 54.497540 0.402500 -0.722942 -0.561559 0.404708 0.878007 1 23 1.000000
rockcliff02c
  23 2.850148 -36.246964 53.942135 0.691515 -0.333950 -0.640534 0.498764 0.987631 1 23 1.000000
  23 2.369629 -38.307278 54.497540 0.402500 -0.722942 -0.561559 0.404708 0.878007 1 23 1.000000
  23 1.299869 -37.184875 52.920193 0.260688 -0.732864 -0.628452 0.599440 0.926970 1 23 1.000000
rockcliff02c
  23 -0.756524 -37.480179 53.338173 -0.225348 -0.862654 -0.452820 0.700115 0.866308 1 23 1.000000
  23 1.299869 -37.184875 52.920193 0.260688 -0.732864 -0.628452 0.599440 0.926970 1 23 1.000000
  23 2.369629 -38.307278 54.497540 0.402500 -0.722942 -0.561559 0.404708 0.878007 1 23 1.000000
rockcliff02c
  23 -0.756524 -37.480179 53.338173 -0.225348 -0.862654 -0.452820 0.700115 0.866308 1 23 1.000000
  23 2.369629 -38.307278 54.497540 0.402500 -0.722942 -0.561559 0.404708 0.878007 1 23 1.000000
  23 1.566890 -38.787930 55.510757 0.066864 -0.948208 -0.310533 0.369517 0.811550 1 23 1.000000
rockcliff02c
  23 -0.756524 -37.480179 53.338173 -0.225348 -0.862654 -0.452820 0.700115 0.866308 1 23 1.000000
  23 1.566890 -38.787930 55.510757 0.066864 -0.948208 -0.310533 0.369517 0.811550 1 23 1.000000
  23 0.418594 -39.000607 56.696873 -0.134440 -0.978457 -0.156675 0.358391 0.722288 1 23 1.000000
rockcliff02c
  23 3.161760 -39.006947 58.427586 0.139493 -0.988295 -0.061766 0.009422 0.786025 1 23 1.000000
  23 0.418594 -39.000607 56.696873 -0.134440 -0.978457 -0.156675 0.358391 0.722288 1 23 1.000000
  23 1.566890 -38.787930 55.510757 0.066864 -0.948208 -0.310533 0.369517 0.811550 1 23 1.000000
rockcliff02c
  23 3.161760 -39.006947 58.427586 0.139493 -0.988295 -0.061766 0.009422 0.786025 1 23 1.000000
  23 0.875886 -39.177330 58.886391 -0.099477 -0.994713 0.025499 0.210809 0.660827 1 23 1.000000
  23 0.418594 -39.000607 56.696873 -0.134440 -0.978457 -0.156675 0.358391 0.722288 1 23 1.000000
rockcliff02c
  23 3.161760 -39.006947 58.427586 0.139493 -0.988295 -0.061766 0.009422 0.786025 1 23 1.000000
  23 1.175234 -39.046795 60.685322 -0.064612 -0.947224 0.313994 0.111261 0.608428 1 23 1.000000
  23 0.875886 -39.177330 58.886391 -0.099477 -0.994713 0.025499 0.210809 0.660827 1 23 1.000000
rockcliff02c
  23 3.161760 -39.006947 58.427586 0.139493 -0.988295 -0.061766 0.009422 0.786025 1 23 1.000000
  23 2.615374 -38.801338 61.066204 0.048022 -0.940520 0.336326 -0.014636 0.650110 1 23 1.000000
  23 1.175234 -39.046795 60.685322 -0.064612 -0.947224 0.313994 0.111261 0.608428 1 23 1.000000
rockcliff02c
  23 1.179402 -37.586529 62.556641 -0.115042 -0.714028 0.690601 -0.038693 0.514195 1 23 1.000000
  23 1.175234 -39.046795 60.685322 -0.064612 -0.947224 0.313994 0.111261 0.608428 1 23 1.000000
  23 2.615374 -38.801338 61.066204 0.048022 -0.940520 0.336326 -0.014636 0.650110 1 23 1.000000
rockcliff02c
  23 1.179402 -37.586529 62.556641 -0.115042 -0.714028 0.690601 -0.038693 0.514195 1 23 1.000000
  23 -0.394645 -38.441753 61.355122 -0.272029 -0.832318 0.482956 0.155899 0.518120 1 23 1.000000
  23 1.175234 -39.046795 60.685322 -0.064612 -0.947224 0.313994 0.111261 0.608428 1 23 1.000000
rockcliff02c
  23 -1.981912 -38.342033 58.955029 -0.443226 -0.891699 0.091782 0.350491 0.522045 1 23 1.000000
  23 1.175234 -39.046795 60.685322 -0.064612 -0.947224 0.313994 0.111261 0.608428 1 23 1.000000
  23 -0.394645 -38.441753 61.355122 -0.272029 -0.832318 0.482956 0.155899 0.518120 1 23 1.000000
rockcliff02c
  23 -1.981912 -38.342033 58.955029 -0.443226 -0.891699 0.091782 0.350491 0.522045 1 23 1.000000
  23 0.875886 -39.177330 58.886391 -0.099477 -0.994713 0.025499 0.210809 0.660828 1 23 1.000000
  23 1.175234 -39.046795 60.685322 -0.064612 -0.947224 0.313994 0.111261 0.608428 1 23 1.000000
rockcliff02c
  23 -1.981912 -38.342033 58.955029 -0.443226 -0.891699 0.091782 0.350491 0.522045 1 23 1.000000
  23 0.418594 -39.000607 56.696873 -0.134440 -0.978457 -0.156675 0.358391 0.722288 1 23 1.000000
  23 0.875886 -39.177330 58.886391 -0.099477 -0.994713 0.025499 0.210809 0.660828 1 23 1.000000
rockcliff02c
  23 -1.981912 -38.342033 58.955029 -0.443226 -0.891699 0.091782 0.350491 0.522045 1 23 1.000000
  23 -1.488862 -38.358101 55.852779 -0.352782 -0.904883 -0.238185 0.518137 0.683152 1 23 1.000000
  23 0.418594 -39.000607 56.696873 -0.134440 -0.978457 -0.156675 0.358391 0.722288 1 23 1.000000
rockcliff02c
  23 -0.756524 -37.480179 53.338173 -0.225348 -0.862654 -0.452820 0.700115 0.866308 1 23 1.000000
  23 0.418594 -39.000607 56.696873 -0.134440 -0.978457 -0.156675 0.358391 0.722288 1 23 1.000000
  23 -1.488862 -38.358101 55.852779 -0.352782 -0.904883 -0.238185 0.518137 0.683152 1 23 1.000000
rockcliff02c
  23 -0.756524 -37.480179 53.338173 -0.225348 -0.862654 -0.452820 0.700115 0.866308 1 23 1.000000
  23 -1.488862 -38.358101 55.852779 -0.352782 -0.904883 -0.238185 0.518137 0.683152 1 23 1.000000
  23 -3.317154 -37.306229 55.439270 -0.590004 -0.756056 -0.283328 0.668663 0.627445 1 23 1.000000
rockcliff02c
  23 -0.756524 -37.480179 53.338173 -0.225348 -0.862654 -0.452820 0.700115 0.866308 1 23 1.000000
  23 -3.317154 -37.306229 55.439270 -0.590004 -0.756056 -0.283328 0.668663 0.627445 1 23 1.000000
  23 -3.534359 -36.178848 53.958649 -0.627006 -0.682133 -0.376243 0.831766 0.679265 1 23 1.000000
rockcliff02c
  23 -1.981912 -38.342033 58.955029 -0.443226 -0.891699 0.091782 0.350491 0.522045 1 23 1.000000
  23 -3.317154 -37.306229 55.439270 -0.590004 -0.756056 -0.283328 0.668663 0.627445 1 23 1.000000
  23 -1.488862 -38.358101 55.852779 -0.352782 -0.904883 -0.238185 0.518137 0.683152 1 23 1.000000
rockcliff02c
  23 -1.981912 -38.342033 58.955029 -0.443226 -0.891699 0.091782 0.350491 0.522045 1 23 1.000000
  23 -4.286875 -36.811375 57.202080 -0.733014 -0.675779 -0.077543 0.645058 0.522393 1 23 1.000000
  23 -3.317154 -37.306229 55.439270 -0.590004 -0.756056 -0.283328 0.668663 0.627445 1 23 1.000000
rockcliff02c
  23 -5.296759 -34.628387 55.714024 -0.845330 -0.499494 -0.189532 0.963416 0.492223 1 23 1.000000
  23 -3.534359 -36.178848 53.958649 -0.627006 -0.682133 -0.376243 0.831766 0.679265 1 23 1.000000
  23 -3.317154 -37.306229 55.439270 -0.590004 -0.756056 -0.283328 0.668663 0.627445 1 23 1.000000
rockcliff02c
  23 -5.296759 -34.628387 55.714024 -0.845330 -0.499494 -0.189532 0.963416 0.492223 1 23 1.000000
  23 -3.317154 -37.306229 55.439270 -0.590004 -0.756056 -0.283328 0.668663 0.627445 1 23 1.000000
  23 -4.286875 -36.811375 57.202080 -0.733014 -0.675779 -0.077543 0.645058 0.522393 1 23 1.000000
rockcliff02c
  23 -5.296759 -34.628387 55.714024 -0.845330 -0.499494 -0.189532 0.963416 0.492223 1 23 1.000000
  23 -4.286875 -36.811375 57.202080 -0.733014 -0.675779 -0.077543 0.645058 0.522393 1 23 1.000000
  23 -4.770332 -36.211441 58.914204 -0.826127 -0.519982 0.217100 0.602626 0.440298 1 23 1.000000
rockcliff02c
  23 -1.981912 -38.342033 58.955029 -0.443226 -0.891699 0.091782 0.350491 0.522045 1 23 1.000000
  23 -4.770332 -36.211441 58.914204 -0.826127 -0.519982 0.217100 0.602626 0.440298 1 23 1.000000
  23 -4.286875 -36.811375 57.202080 -0.733014 -0.675779 -0.077543 0.645058 0.522393 1 23 1.000000
rockcliff02c
  23 -1.981912 -38.342033 58.955029 -0.443226 -0.891699 0.091782 0.350491 0.522045 1 23 1.000000
  23 -3.524826 -36.890152 60.534084 -0.687018 -0.583895 0.432519 0.424628 0.411162 1 23 1.000000
  23 -4.770332 -36.211441 58.914204 -0.826127 -0.519982 0.217100 0.602626 0.440298 1 23 1.000000
rockcliff02c
  23 -3.882425 -34.785751 61.206951 -0.755402 -0.294061 0.585573 0.498764 0.300279 1 23 1.000000
  23 -4.770332 -36.211441 58.914204 -0.826127 -0.519982 0.217100 0.602626 0.440298 1 23 1.000000
  23 -3.524826 -36.890152 60.534084 -0.687018 -0.583895 0.432519 0.424628 0.411162 1 23 1.000000
rockcliff02c
  23 -3.882425 -34.785751 61.206951 -0.755402 -0.294061 0.585573 0.498764 0.300279 1 23 1.000000
  23 -5.385350 -34.681381 58.603806 -0.910484 -0.378398 0.166832 0.731090 0.396251 1 23 1.000000
  23 -4.770332 -36.211441 58.914204 -0.826127 -0.519982 0.217100 0.602626 0.440298 1 23 1.000000
rockcliff02c
  23 -5.296759 -34.628387 55.714024 -0.845330 -0.499494 -0.189532 0.963416 0.492223 1 23 1.000000
  23 -4.770332 -36.211441 58.914204 -0.826127 -0.519982 0.217100 0.602626 0.440298 1 23 1.000000
  23 -5.385350 -34.681381 58.603806 -0.910484 -0.378398 0.166832 0.731090 0.396251 1 23 1.000000
rockcliff02c
  23 -3.882425 -34.785751 61.206951 -0.688470 0.388575 0.612387 0.501236 0.636208 1 23 1.000000
  23 -2.529953 -32.057575 60.584419 -0.397984 0.681149 0.614527 0.419394 0.782006 1 23 1.000000
  23 -4.062438 -32.429863 59.426502 -0.663581 0.588288 0.462143 0.300268 0.714256 1 23 1.000000
rockcliff02c
  23 -3.882425 -34.785751 61.206951 -0.688470 0.388575 0.612387 0.501236 0.636208 1 23 1.000000
  23 -1.808081 -33.408379 62.048206 -0.348936 0.610993 0.710585 0.585033 0.763557 1 23 1.000000
  23 -2.529953 -32.057575 60.584419 -0.397984 0.681149 0.614527 0.419394 0.782006 1 23 1.000000
rockcliff02c
  23 0.706167 -32.530182 61.560757 -0.104060 0.715211 0.691119 0.685160 0.914989 1 23 1.000000
  23 -2.529953 -32.057575 60.584419 -0.397984 0.681149 0.614527 0.419394 0.782006 1 23 1.000000
  23 -1.808081 -33.408379 62.048206 -0.348936 0.610993 0.710585 0.585033 0.763557 1 23 1.000000
rockcliff02c
  23 0.706167 -32.530182 61.560757 -0.104060 0.715211 0.691119 0.685160 0.914989 1 23 1.000000
  23 -1.217314 -30.982359 59.626575 -0.291713 0.789311 0.540270 0.376957 0.858284 1 23 1.000000
  23 -2.529953 -32.057575 60.584419 -0.397984 0.681149 0.614527 0.419394 0.782006 1 23 1.000000
rockcliff02c
  23 -3.022743 -30.730152 57.177975 -0.567105 0.767759 0.298223 0.068753 0.801579 1 23 1.000000
  23 -2.529953 -32.057575 60.584419 -0.397984 0.681149 0.614527 0.419394 0.782006 1 23 1.000000
  23 -1.217314 -30.982359 59.626575 -0.291713 0.789311 0.540270 0.376957 0.858284 1 23 1.000000
rockcliff02c
  23 -3.022743 -30.730152 57.177975 -0.567105 0.767759 0.298223 0.068753 0.801579 1 23 1.000000
  23 -4.062438 -32.429863 59.426502 -0.663581 0.588288 0.462143 0.300268 0.714256 1 23 1.000000
  23 -2.529953 -32.057575 60.584419 -0.397984 0.681149 0.614527 0.419394 0.782006 1 23 1.000000
rockcliff02c
  23 -3.022743 -30.730152 57.177975 -0.567105 0.767759 0.298223 0.068753 0.801579 1 23 1.000000
  23 -5.184099 -33.051979 58.104065 -0.889048 0.402188 0.218720 0.204299 0.638661 1 23 1.000000
  23 -4.062438 -32.429863 59.426502 -0.663581 0.588288 0.462143 0.300268 0.714256 1 23 1.000000
rockcliff02c
  23 -3.882425 -34.785751 61.206951 -0.688470 0.388575 0.612387 0.501236 0.636208 1 23 1.000000
  23 -4.062438 -32.429863 59.426502 -0.663581 0.588288 0.462143 0.300268 0.714256 1 23 1.000000
  23 -5.184099 -33.051979 58.104065 -0.889048 0.402188 0.218720 0.204299 0.638661 1 23 1.000000
rockcliff02c
  23 -3.882425 -34.785751 61.206951 -0.688470 0.388575 0.612387 0.501236 0.636208 1 23 1.000000
  23 -5.184099 -33.051979 58.104065 -0.889048 0.402188 0.218720 0.204299 0.638661 1 23 1.000000
  23 -5.385350 -34.681381 58.603806 -0.925985 0.237963 0.293130 0.268910 0.558095 1 23 1.000000
rockcliff02c
  23 -5.296759 -34.628387 55.714024 -0.990159 0.133657 -0.041484 0.036584 0.479981 1 23 1.000000
  23 -5.385350 -34.681381 58.603806 -0.925985 0.237963 0.293130 0.268910 0.558095 1 23 1.000000
  23 -5.184099 -33.051979 58.104065 -0.889048 0.402188 0.218720 0.204299 0.638661 1 23 1.000000
rockcliff02c
  23 -5.296759 -34.628387 55.714024 -0.990159 0.133657 -0.041484 0.036584 0.479981 1 23 1.000000
  23 -5.184099 -33.051979 58.104065 -0.889048 0.402188 0.218720 0.204299 0.638661 1 23 1.000000
  23 -4.969608 -32.323097 56.279331 -0.879262 0.465627 0.100446 0.052669 0.640780 1 23 1.000000
rockcliff02c
  23 -3.022743 -30.730152 57.177975 -0.567105 0.767759 0.298223 0.068753 0.801579 1 23 1.000000
  23 -4.969608 -32.323097 56.279331 -0.879262 0.465627 0.100446 0.052669 0.640780 1 23 1.000000
  23 -5.184099 -33.051979 58.104065 -0.889048 0.402188 0.218720 0.204299 0.638661 1 23 1.000000
rockcliff02c
  23 4.047159 -36.070511 59.687431 0.904408 0.169151 0.391705 0.675644 0.710482 1 23 1.000000
  23 2.503895 -35.524410 62.221531 0.603456 0.169214 0.779235 0.427233 0.753610 1 23 1.000000
  23 3.128844 -37.110470 61.769920 0.682724 -0.116918 0.721262 0.492332 0.682913 1 23 1.000000
rockcliff02c
  23 4.047159 -36.070511 59.687431 0.904408 0.169151 0.391705 0.675644 0.710482 1 23 1.000000
  23 2.843787 -34.111359 61.148964 0.722814 0.399366 0.563956 0.490569 0.812736 1 23 1.000000
  23 2.503895 -35.524410 62.221531 0.603456 0.169214 0.779235 0.427233 0.753610 1 23 1.000000
rockcliff02c
  23 0.706167 -32.530182 61.560757 0.513122 0.543074 0.664662 0.305493 0.914989 1 23 1.000000
  23 2.503895 -35.524410 62.221531 0.603456 0.169214 0.779235 0.427233 0.753610 1 23 1.000000
  23 2.843787 -34.111359 61.148964 0.722814 0.399366 0.563956 0.490569 0.812736 1 23 1.000000
rockcliff02c
  23 0.706167 -32.530182 61.560757 0.513122 0.543074 0.664662 0.305493 0.914989 1 23 1.000000
  23 1.029883 -35.162380 62.826294 0.440249 0.226267 0.868898 0.301940 0.772605 1 23 1.000000
  23 2.503895 -35.524410 62.221531 0.603456 0.169214 0.779235 0.427233 0.753610 1 23 1.000000
rockcliff02c
  23 1.179402 -37.586529 62.556641 0.392039 -0.230515 0.890600 0.298387 0.630221 1 23 1.000000
  23 2.503895 -35.524410 62.221531 0.603456 0.169214 0.779235 0.427233 0.753610 1 23 1.000000
  23 1.029883 -35.162380 62.826294 0.440249 0.226267 0.868898 0.301940 0.772605 1 23 1.000000
rockcliff02c
  23 1.179402 -37.586529 62.556641 0.392039 -0.230515 0.890600 0.298387 0.630221 1 23 1.000000
  23 3.128844 -37.110470 61.769920 0.682724 -0.116918 0.721262 0.492332 0.682913 1 23 1.000000
  23 2.503895 -35.524410 62.221531 0.603456 0.169214 0.779235 0.427233 0.753610 1 23 1.000000
rockcliff02c
  23 1.179402 -37.586529 62.556641 0.392039 -0.230515 0.890600 0.298387 0.630221 1 23 1.000000
  23 3.585498 -38.213188 60.998779 0.743255 -0.452370 0.492883 0.565648 0.631627 1 23 1.000000
  23 3.128844 -37.110470 61.769920 0.682724 -0.116918 0.721262 0.492332 0.682913 1 23 1.000000
rockcliff02c
  23 4.047159 -36.070511 59.687431 0.904408 0.169151 0.391705 0.675644 0.710482 1 23 1.000000
  23 3.128844 -37.110470 61.769920 0.682724 -0.116918 0.721262 0.492332 0.682913 1 23 1.000000
  23 3.585498 -38.213188 60.998779 0.743255 -0.452370 0.492883 0.565648 0.631627 1 23 1.000000
rockcliff02c
  23 4.047159 -36.070511 59.687431 0.904408 0.169151 0.391705 0.675644 0.710482 1 23 1.000000
  23 3.585498 -38.213188 60.998779 0.743255 -0.452370 0.492883 0.565648 0.631627 1 23 1.000000
  23 4.192742 -38.061180 59.353832 0.817438 -0.492631 0.298511 0.698191 0.629761 1 23 1.000000
rockcliff02c
  23 3.161760 -39.006947 58.427586 0.556360 -0.815386 0.160030 0.720738 0.549040 1 23 1.000000
  23 4.192742 -38.061180 59.353832 0.817438 -0.492631 0.298511 0.698191 0.629761 1 23 1.000000
  23 3.585498 -38.213188 60.998779 0.743255 -0.452370 0.492883 0.565648 0.631627 1 23 1.000000
rockcliff02c
  23 3.161760 -39.006947 58.427586 0.556360 -0.815386 0.160030 0.720738 0.549040 1 23 1.000000
  23 3.585498 -38.213188 60.998779 0.743255 -0.452370 0.492883 0.565648 0.631627 1 23 1.000000
  23 2.615374 -38.801338 61.066204 0.501391 -0.653840 0.566657 0.509563 0.589630 1 23 1.000000
rockcliff02c
  23 1.179402 -37.586529 62.556641 0.392039 -0.230515 0.890600 0.298387 0.630221 1 23 1.000000
  23 2.615374 -38.801338 61.066204 0.501391 -0.653840 0.566657 0.509563 0.589630 1 23 1.000000
  23 3.585498 -38.213188 60.998779 0.743255 -0.452370 0.492883 0.565648 0.631627 1 23 1.000000
rockcliff02c
  23 0.706167 -32.530182 61.560757 0.513122 0.543074 0.664662 0.685160 0.518769 1 23 1.000000
  23 2.983106 -32.720207 59.618050 0.772785 0.533811 0.343290 0.660674 0.704842 1 23 1.000000
  23 1.765148 -31.236074 59.168678 0.711085 0.637836 0.295843 0.517589 0.675192 1 23 1.000000
rockcliff02c
  23 2.073656 -31.213448 56.360645 0.783092 0.618249 0.067345 0.356307 0.840592 1 23 1.000000
  23 1.765148 -31.236074 59.168678 0.711085 0.637836 0.295843 0.517589 0.675192 1 23 1.000000
  23 2.983106 -32.720207 59.618050 0.772785 0.533811 0.343290 0.660674 0.704842 1 23 1.000000
rockcliff02c
  23 2.073656 -31.213448 56.360645 0.783092 0.618249 0.067345 0.356307 0.840592 1 23 1.000000
  23 2.983106 -32.720207 59.618050 0.772785 0.533811 0.343290 0.660674 0.704842 1 23 1.000000
  23 3.617625 -33.456802 58.016254 0.863828 0.471353 0.177843 0.649074 0.798797 1 23 1.000000
rockcliff02c
  23 4.047159 -36.070511 59.687431 0.904408 0.169151 0.391705 0.941841 0.757002 1 23 1.000000
  23 3.617625 -33.456802 58.016254 0.863828 0.471353 0.177843 0.649074 0.798797 1 23 1.000000
  23 2.983106 -32.720207 59.618050 0.772785 0.533811 0.343290 0.660674 0.704842 1 23 1.000000
rockcliff02c
  23 4.047159 -36.070511 59.687431 0.904408 0.169151 0.391705 0.941841 0.757002 1 23 1.000000
  23 2.983106 -32.720207 59.618050 0.772785 0.533811 0.343290 0.660674 0.704842 1 23 1.000000
  23 2.843787 -34.111359 61.148964 0.722814 0.399366 0.563956 0.813501 0.637885 1 23 1.000000
rockcliff02c
  23 0.706167 -32.530182 61.560757 0.513122 0.543074 0.664662 0.685160 0.518769 1 23 1.000000
  23 2.843787 -34.111359 61.148964 0.722814 0.399366 0.563956 0.813501 0.637885 1 23 1.000000
  23 2.983106 -32.720207 59.618050 0.772785 0.533811 0.343290 0.660674 0.704842 1 23 1.000000
rockcliff02c
  23 -1.919375 -32.290840 53.220665 0.127418 0.397041 -0.908913 1.038690 0.676910 1 23 1.000000
  23 0.612827 -34.108246 52.811260 0.339155 0.275858 -0.899375 0.748898 0.607261 1 23 1.000000
  23 0.078609 -35.484993 52.308563 0.130718 -0.056241 -0.989823 0.743167 0.524635 1 23 1.000000
rockcliff02c
  23 -1.919375 -32.290840 53.220665 0.127418 0.397041 -0.908913 1.038690 0.676910 1 23 1.000000
  23 1.314461 -32.726978 53.693527 0.487933 0.455452 -0.744638 0.723726 0.702835 1 23 1.000000
  23 0.612827 -34.108246 52.811260 0.339155 0.275858 -0.899375 0.748898 0.607261 1 23 1.000000
rockcliff02c
  23 -1.919375 -32.290840 53.220665 0.127418 0.397041 -0.908913 1.038690 0.676910 1 23 1.000000
  23 0.169559 -31.117165 54.310097 0.410004 0.547314 -0.729619 0.841192 0.793100 1 23 1.000000
  23 1.314461 -32.726978 53.693527 0.487933 0.455452 -0.744638 0.723726 0.702835 1 23 1.000000
rockcliff02c
  23 2.073656 -31.213448 56.360645 0.619608 0.593784 -0.513328 0.643693 0.909290 1 23 1.000000
  23 1.314461 -32.726978 53.693527 0.487933 0.455452 -0.744638 0.723726 0.702835 1 23 1.000000
  23 0.169559 -31.117165 54.310097 0.410004 0.547314 -0.729619 0.841192 0.793100 1 23 1.000000
rockcliff02c
  23 2.073656 -31.213448 56.360645 0.619608 0.593784 -0.513328 0.643693 0.909290 1 23 1.000000
  23 2.837134 -33.544624 54.721973 0.628147 0.382209 -0.677751 0.566358 0.711316 1 23 1.000000
  23 1.314461 -32.726978 53.693527 0.487933 0.455452 -0.744638 0.723726 0.702835 1 23 1.000000
rockcliff02c
  23 2.850148 -36.246964 53.942135 0.563488 0.144324 -0.813420 0.498764 0.520542 1 23 1.000000
  23 1.314461 -32.726978 53.693527 0.487933 0.455452 -0.744638 0.723726 0.702835 1 23 1.000000
  23 2.837134 -33.544624 54.721973 0.628147 0.382209 -0.677751 0.566358 0.711316 1 23 1.000000
rockcliff02c
  23 2.850148 -36.246964 53.942135 0.563488 0.144324 -0.813420 0.498764 0.520542 1 23 1.000000
  23 0.612827 -34.108246 52.811260 0.339155 0.275858 -0.899375 0.748898 0.607261 1 23 1.000000
  23 1.314461 -32.726978 53.693527 0.487933 0.455452 -0.744638 0.723726 0.702835 1 23 1.000000
rockcliff02c
  23 2.850148 -36.246964 53.942135 0.563488 0.144324 -0.813420 0.498764 0.520542 1 23 1.000000
  23 0.078609 -35.484993 52.308563 0.130718 -0.056241 -0.989823 0.743167 0.524635 1 23 1.000000
  23 0.612827 -34.108246 52.811260 0.339155 0.275858 -0.899375 0.748898 0.607261 1 23 1.000000
rockcliff02c
  23 2.850148 -36.246964 53.942135 0.563488 0.144324 -0.813420 0.498764 0.520542 1 23 1.000000
  23 1.299869 -37.184875 52.920193 0.274407 -0.117479 -0.954410 0.599440 0.446732 1 23 1.000000
  23 0.078609 -35.484993 52.308563 0.130718 -0.056241 -0.989823 0.743167 0.524635 1 23 1.000000
rockcliff02c
  23 -0.756524 -37.480179 53.338173 -0.160864 -0.398608 -0.902903 0.700115 0.372922 1 23 1.000000
  23 0.078609 -35.484993 52.308563 0.130718 -0.056241 -0.989823 0.743167 0.524635 1 23 1.000000
  23 1.299869 -37.184875 52.920193 0.274407 -0.117479 -0.954410 0.599440 0.446732 1 23 1.000000
rockcliff02c
  23 -0.756524 -37.480179 53.338173 -0.160864 -0.398608 -0.902903 0.700115 0.372922 1 23 1.000000
  23 -1.659923 -34.959812 52.465359 -0.033148 0.064437 -0.997371 0.869403 0.524916 1 23 1.000000
  23 0.078609 -35.484993 52.308563 0.130718 -0.056241 -0.989823 0.743167 0.524635 1 23 1.000000
rockcliff02c
  23 -1.919375 -32.290840 53.220665 0.127418 0.397041 -0.908913 1.038690 0.676910 1 23 1.000000
  23 0.078609 -35.484993 52.308563 0.130718 -0.056241 -0.989823 0.743167 0.524635 1 23 1.000000
  23 -1.659923 -34.959812 52.465359 -0.033148 0.064437 -0.997371 0.869403 0.524916 1 23 1.000000
rockcliff02c
  23 4.047159 -36.070511 59.687431 0.992642 0.120615 0.010670 0.058159 0.710482 1 23 1.000000
  23 4.100746 -36.390392 56.666111 0.972093 0.052258 -0.228699 0.288153 0.638565 1 23 1.000000
  23 3.791589 -34.486229 56.307365 0.941810 0.240352 -0.235001 0.400908 0.716006 1 23 1.000000
rockcliff02c
  23 4.047159 -36.070511 59.687431 0.992642 0.120615 0.010670 0.058159 0.710482 1 23 1.000000
  23 4.236395 -37.764946 57.307835 0.938586 -0.312904 -0.145420 0.190118 0.596512 1 23 1.000000
  23 4.100746 -36.390392 56.666111 0.972093 0.052258 -0.228699 0.288153 0.638565 1 23 1.000000
rockcliff02c
  23 4.047159 -36.070511 59.687431 0.992642 0.120615 0.010670 0.058159 0.710482 1 23 1.000000
  23 4.192742 -38.061180 59.353832 0.964745 -0.260842 -0.035038 0.033791 0.629761 1 23 1.000000
  23 4.236395 -37.764946 57.307835 0.938586 -0.312904 -0.145420 0.190118 0.596512 1 23 1.000000
rockcliff02c
  23 3.161760 -39.006947 58.427586 0.703238 -0.703155 -0.105016 0.009422 0.549040 1 23 1.000000
  23 4.236395 -37.764946 57.307835 0.938586 -0.312904 -0.145420 0.190118 0.596512 1 23 1.000000
  23 4.192742 -38.061180 59.353832 0.964745 -0.260842 -0.035038 0.033791 0.629761 1 23 1.000000
rockcliff02c
  23 3.161760 -39.006947 58.427586 0.703238 -0.703155 -0.105016 0.009422 0.549040 1 23 1.000000
  23 3.557372 -38.176987 55.874706 0.896518 -0.275477 -0.346941 0.254093 0.534791 1 23 1.000000
  23 4.236395 -37.764946 57.307835 0.938586 -0.312904 -0.145420 0.190118 0.596512 1 23 1.000000
rockcliff02c
  23 2.850148 -36.246964 53.942135 0.902958 0.036026 -0.428215 0.498764 0.520542 1 23 1.000000
  23 4.236395 -37.764946 57.307835 0.938586 -0.312904 -0.145420 0.190118 0.596512 1 23 1.000000
  23 3.557372 -38.176987 55.874706 0.896518 -0.275477 -0.346941 0.254093 0.534791 1 23 1.000000
rockcliff02c
  23 2.850148 -36.246964 53.942135 0.902958 0.036026 -0.428215 0.498764 0.520542 1 23 1.000000
  23 4.100746 -36.390392 56.666111 0.972093 0.052258 -0.228699 0.288153 0.638565 1 23 1.000000
  23 4.236395 -37.764946 57.307835 0.938586 -0.312904 -0.145420 0.190118 0.596512 1 23 1.000000
rockcliff02c
  23 2.850148 -36.246964 53.942135 0.902958 0.036026 -0.428215 0.498764 0.520542 1 23 1.000000
  23 3.791589 -34.486229 56.307365 0.941810 0.240352 -0.235001 0.400908 0.716006 1 23 1.000000
  23 4.100746 -36.390392 56.666111 0.972093 0.052258 -0.228699 0.288153 0.638565 1 23 1.000000
rockcliff02c
  23 2.850148 -36.246964 53.942135 0.902958 0.036026 -0.428215 0.498764 0.520542 1 23 1.000000
  23 2.837134 -33.544624 54.721973 0.897271 0.302716 -0.321352 0.566358 0.711316 1 23 1.000000
  23 3.791589 -34.486229 56.307365 0.941810 0.240352 -0.235001 0.400908 0.716006 1 23 1.000000
rockcliff02c
  23 2.073656 -31.213448 56.360645 0.862945 0.456501 -0.216637 0.643693 0.909290 1 23 1.000000
  23 3.791589 -34.486229 56.307365 0.941810 0.240352 -0.235001 0.400908 0.716006 1 23 1.000000
  23 2.837134 -33.544624 54.721973 0.897271 0.302716 -0.321352 0.566358 0.711316 1 23 1.000000
rockcliff02c
  23 2.073656 -31.213448 56.360645 0.862945 0.456501 -0.216637 0.643693 0.909290 1 23 1.000000
  23 3.617625 -33.456802 58.016254 0.943756 0.312568 -0.107823 0.350926 0.809886 1 23 1.000000
  23 3.791589 -34.486229 56.307365 0.941810 0.240352 -0.235001 0.400908 0.716006 1 23 1.000000
rockcliff02c
  23 4.047159 -36.070511 59.687431 0.992642 0.120615 0.010670 0.058159 0.710482 1 23 1.000000
  23 3.791589 -34.486229 56.307365 0.941810 0.240352 -0.235001 0.400908 0.716006 1 23 1.000000
  23 3.617625 -33.456802 58.016254 0.943756 0.312568 -0.107823 0.350926 0.809886 1 23 1.000000
rockcliff02c
  23 -3.882425 -34.785751 61.206951 -0.755402 -0.294061 0.585573 0.501236 0.636208 1 23 1.000000
  23 -1.958600 -37.431313 61.774815 -0.486725 -0.632397 0.602638 0.726961 0.572009 1 23 1.000000
  23 -1.532972 -36.369267 62.608154 -0.442431 -0.472830 0.762028 0.748874 0.642536 1 23 1.000000
rockcliff02c
  23 1.179402 -37.586529 62.556641 -0.115042 -0.714028 0.690601 1.038690 0.630221 1 23 1.000000
  23 -1.532972 -36.369267 62.608154 -0.442431 -0.472830 0.762028 0.748874 0.642536 1 23 1.000000
  23 -1.958600 -37.431313 61.774815 -0.486725 -0.632397 0.602638 0.726961 0.572009 1 23 1.000000
rockcliff02c
  23 1.179402 -37.586529 62.556641 -0.115042 -0.714028 0.690601 1.038690 0.630221 1 23 1.000000
  23 -1.958600 -37.431313 61.774815 -0.486725 -0.632397 0.602638 0.726961 0.572009 1 23 1.000000
  23 -0.394645 -38.441753 61.355122 -0.272029 -0.832318 0.482956 0.844100 0.537947 1 23 1.000000
rockcliff02c
  23 -1.981912 -38.342033 58.955029 -0.443226 -0.891699 0.091782 0.649509 0.445673 1 23 1.000000
  23 -0.394645 -38.441753 61.355122 -0.272029 -0.832318 0.482956 0.844100 0.537947 1 23 1.000000
  23 -1.958600 -37.431313 61.774815 -0.486725 -0.632397 0.602638 0.726961 0.572009 1 23 1.000000
rockcliff02c
  23 -1.981912 -38.342033 58.955029 -0.443226 -0.891699 0.091782 0.649509 0.445673 1 23 1.000000
  23 -1.958600 -37.431313 61.774815 -0.486725 -0.632397 0.602638 0.726961 0.572009 1 23 1.000000
  23 -3.524826 -36.890152 60.534084 -0.687018 -0.583895 0.432519 0.575373 0.540940 1 23 1.000000
rockcliff02c
  23 -3.882425 -34.785751 61.206951 -0.755402 -0.294061 0.585573 0.501236 0.636208 1 23 1.000000
  23 -3.524826 -36.890152 60.534084 -0.687018 -0.583895 0.432519 0.575373 0.540940 1 23 1.000000
  23 -1.958600 -37.431313 61.774815 -0.486725 -0.632397 0.602638 0.726961 0.572009 1 23 1.000000
rockcliff02c
  23 -1.919375 -32.290840 53.220665 -0.401823 0.523072 -0.751620 0.343211 0.676910 1 23 1.000000
  23 -4.341284 -31.845169 54.825600 -0.703601 0.572506 -0.420931 0.566000 0.651829 1 23 1.000000
  23 -2.858636 -30.793198 54.821102 -0.547179 0.717768 -0.430586 0.482787 0.730198 1 23 1.000000
rockcliff02c
  23 -3.022743 -30.730152 57.177975 -0.603866 0.796136 -0.038889 0.633097 0.801579 1 23 1.000000
  23 -2.858636 -30.793198 54.821102 -0.547179 0.717768 -0.430586 0.482787 0.730198 1 23 1.000000
  23 -4.341284 -31.845169 54.825600 -0.703601 0.572506 -0.420931 0.566000 0.651829 1 23 1.000000
rockcliff02c
  23 -3.022743 -30.730152 57.177975 -0.603866 0.796136 -0.038889 0.633097 0.801579 1 23 1.000000
  23 -4.341284 -31.845169 54.825600 -0.703601 0.572506 -0.420931 0.566000 0.651829 1 23 1.000000
  23 -4.969608 -32.323097 56.279331 -0.830836 0.506655 -0.230243 0.684425 0.640780 1 23 1.000000
rockcliff02c
  23 -5.296759 -34.628387 55.714024 -0.911667 0.198039 -0.360062 0.735752 0.479981 1 23 1.000000
  23 -4.969608 -32.323097 56.279331 -0.830836 0.506655 -0.230243 0.684425 0.640780 1 23 1.000000
  23 -4.341284 -31.845169 54.825600 -0.703601 0.572506 -0.420931 0.566000 0.651829 1 23 1.000000
rockcliff02c
  23 -5.296759 -34.628387 55.714024 -0.911667 0.198039 -0.360062 0.735752 0.479981 1 23 1.000000
  23 -4.341284 -31.845169 54.825600 -0.703601 0.572506 -0.420931 0.566000 0.651829 1 23 1.000000
  23 -4.211452 -33.140438 53.910713 -0.710548 0.382237 -0.590775 0.509701 0.580033 1 23 1.000000
rockcliff02c
  23 -1.919375 -32.290840 53.220665 -0.401823 0.523072 -0.751620 0.343211 0.676910 1 23 1.000000
  23 -4.211452 -33.140438 53.910713 -0.710548 0.382237 -0.590775 0.509701 0.580033 1 23 1.000000
  23 -4.341284 -31.845169 54.825600 -0.703601 0.572506 -0.420931 0.566000 0.651829 1 23 1.000000
rockcliff02c
  23 -5.296759 -34.628387 55.714024 -0.791750 -0.185603 -0.581965 0.735752 0.479981 1 23 1.000000
  23 -3.384020 -34.713367 53.138893 -0.546185 -0.100199 -0.831650 0.407116 0.510182 1 23 1.000000
  23 -3.534359 -36.178848 53.958649 -0.588192 -0.326208 -0.740013 0.445138 0.426451 1 23 1.000000
rockcliff02c
  23 -0.756524 -37.480179 53.338173 -0.381396 -0.421450 -0.822750 0.154524 0.372922 1 23 1.000000
  23 -3.534359 -36.178848 53.958649 -0.588192 -0.326208 -0.740013 0.445138 0.426451 1 23 1.000000
  23 -3.384020 -34.713367 53.138893 -0.546185 -0.100199 -0.831650 0.407116 0.510182 1 23 1.000000
rockcliff02c
  23 -0.756524 -37.480179 53.338173 -0.381396 -0.421450 -0.822750 0.154524 0.372922 1 23 1.000000
  23 -3.384020 -34.713367 53.138893 -0.546185 -0.100199 -0.831650 0.407116 0.510182 1 23 1.000000
  23 -1.659923 -34.959812 52.465359 -0.387737 -0.166073 -0.906686 0.248868 0.524916 1 23 1.000000
rockcliff02c
  23 -1.919375 -32.290840 53.220665 -0.344146 0.238722 -0.908061 0.343211 0.676910 1 23 1.000000
  23 -1.659923 -34.959812 52.465359 -0.387737 -0.166073 -0.906686 0.248868 0.524916 1 23 1.000000
  23 -3.384020 -34.713367 53.138893 -0.546185 -0.100199 -0.831650 0.407116 0.510182 1 23 1.000000
rockcliff02c
  23 -1.919375 -32.290840 53.220665 -0.344146 0.238722 -0.908061 0.343211 0.676910 1 23 1.000000
  23 -3.384020 -34.713367 53.138893 -0.546185 -0.100199 -0.831650 0.407116 0.510182 1 23 1.000000
  23 -4.211452 -33.140438 53.910713 -0.623341 0.011675 -0.781862 0.509701 0.580033 1 23 1.000000
rockcliff02c
  23 -5.296759 -34.628387 55.714024 -0.791750 -0.185603 -0.581965 0.735752 0.479981 1 23 1.000000
  23 -4.211452 -33.140438 53.910713 -0.623341 0.011675 -0.781862 0.509701 0.580033 1 23 1.000000
  23 -3.384020 -34.713367 53.138893 -0.546185 -0.100199 -0.831650 0.407116 0.510182 1 23 1.000000
rockcliff02c
  23 2.073656 -31.213448 56.360645 0.432349 0.900720 0.042173 0.356307 0.840592 1 23 1.000000
  23 0.159076 -30.394348 58.494457 0.150379 0.950369 0.272369 0.369645 0.638606 1 23 1.000000
  23 1.765148 -31.236074 59.168678 0.285216 0.894166 0.345136 0.517589 0.675192 1 23 1.000000
rockcliff02c
  23 0.706167 -32.530182 61.560757 0.153904 0.823451 0.546115 0.685160 0.518769 1 23 1.000000
  23 1.765148 -31.236074 59.168678 0.285216 0.894166 0.345136 0.517589 0.675192 1 23 1.000000
  23 0.159076 -30.394348 58.494457 0.150379 0.950369 0.272369 0.369645 0.638606 1 23 1.000000
rockcliff02c
  23 0.706167 -32.530182 61.560757 0.153904 0.823451 0.546115 0.685160 0.518769 1 23 1.000000
  23 0.159076 -30.394348 58.494457 0.150379 0.950369 0.272369 0.369645 0.638606 1 23 1.000000
  23 -1.217314 -30.982359 59.626575 -0.012925 0.912720 0.408381 0.376957 0.538531 1 23 1.000000
rockcliff02c
  23 -3.022743 -30.730152 57.177975 -0.196001 0.953103 0.230603 0.068753 0.558293 1 23 1.000000
  23 -1.217314 -30.982359 59.626575 -0.012925 0.912720 0.408381 0.376957 0.538531 1 23 1.000000
  23 0.159076 -30.394348 58.494457 0.150379 0.950369 0.272369 0.369645 0.638606 1 23 1.000000
rockcliff02c
  23 -3.022743 -30.730152 57.177975 -0.196001 0.953103 0.230603 0.068753 0.558293 1 23 1.000000
  23 0.159076 -30.394348 58.494457 0.150379 0.950369 0.272369 0.369645 0.638606 1 23 1.000000
  23 -0.381964 -30.084677 56.626072 0.096073 0.983506 0.153252 0.212530 0.699443 1 23 1.000000
rockcliff02c
  23 2.073656 -31.213448 56.360645 0.432349 0.900720 0.042173 0.356307 0.840592 1 23 1.000000
  23 -0.381964 -30.084677 56.626072 0.096073 0.983506 0.153252 0.212530 0.699443 1 23 1.000000
  23 0.159076 -30.394348 58.494457 0.150379 0.950369 0.272369 0.369645 0.638606 1 23 1.000000
rockcliff02c
  23 -3.022743 -30.730152 57.177975 -0.257430 0.965948 -0.025977 0.633097 0.801579 1 23 1.000000
  23 -1.050342 -30.260843 55.082726 0.005783 0.923500 -0.383555 0.389622 0.794687 1 23 1.000000
  23 -2.858636 -30.793198 54.821102 -0.167492 0.899017 -0.404616 0.482787 0.730198 1 23 1.000000
rockcliff02c
  23 -1.919375 -32.290840 53.220665 -0.048993 0.686466 -0.725510 0.343211 0.676910 1 23 1.000000
  23 -2.858636 -30.793198 54.821102 -0.167492 0.899017 -0.404616 0.482787 0.730198 1 23 1.000000
  23 -1.050342 -30.260843 55.082726 0.005783 0.923500 -0.383555 0.389622 0.794687 1 23 1.000000
rockcliff02c
  23 -1.919375 -32.290840 53.220665 -0.048993 0.686466 -0.725510 0.343211 0.676910 1 23 1.000000
  23 -1.050342 -30.260843 55.082726 0.005783 0.923500 -0.383555 0.389622 0.794687 1 23 1.000000
  23 0.169559 -31.117165 54.310097 0.202982 0.832708 -0.515166 0.268845 0.793100 1 23 1.000000
rockcliff02c
  23 2.073656 -31.213448 56.360645 0.387498 0.872844 -0.296629 0.194479 0.909290 1 23 1.000000
  23 0.169559 -31.117165 54.310097 0.202982 0.832708 -0.515166 0.268845 0.793100 1 23 1.000000
  23 -1.050342 -30.260843 55.082726 0.005783 0.923500 -0.383555 0.389622 0.794687 1 23 1.000000
rockcliff02c
  23 2.073656 -31.213448 56.360645 0.387498 0.872844 -0.296629 0.194479 0.909290 1 23 1.000000
  23 -1.050342 -30.260843 55.082726 0.005783 0.923500 -0.383555 0.389622 0.794687 1 23 1.000000
  23 -0.381964 -30.084677 56.626072 0.118372 0.974083 -0.192742 0.413788 0.855434 1 23 1.000000
rockcliff02c
  23 -3.022743 -30.730152 57.177975 -0.257430 0.965948 -0.025977 0.633097 0.801579 1 23 1.000000
  23 -0.381964 -30.084677 56.626072 0.118372 0.974083 -0.192742 0.413788 0.855434 1 23 1.000000
  23 -1.050342 -30.260843 55.082726 0.005783 0.923500 -0.383555 0.389622 0.794687 1 23 1.000000
end
