// Created by Crowbar 0.74
version 1
nodes
  0 "Rotate" -1
  1 "blade" 0
end
skeleton
  time 0
    0 0.000001 -15.864439 61.571850 0.000000 0.000000 0.000000
    1 0.000000 0.000000 0.000000 0.017453 0.017453 0.017453
end
triangles
blade
  1 -0.609900 -17.066700 61.455898 0.233791 -0.972064 -0.020799 0.475400 0.452900 1 1 1.000000
  1 -1.881900 -17.373800 61.510700 0.367103 -0.929908 -0.022500 0.425500 0.441600 1 1 1.000000
  1 -1.883200 -17.372499 61.435699 0.334302 -0.942207 -0.022100 0.425500 0.441600 1 1 1.000000
blade
  1 -3.585400 -18.186501 61.452000 0.470297 -0.882195 -0.023500 0.358400 0.410700 1 1 1.000000
  1 -1.883200 -17.372499 61.435699 0.334302 -0.942207 -0.022100 0.425500 0.441600 1 1 1.000000
  1 -1.881900 -17.373800 61.510700 0.367103 -0.929908 -0.022500 0.425500 0.441600 1 1 1.000000
blade
  1 -1.881900 -17.373800 61.510700 0.367103 -0.929908 -0.022500 0.425500 0.441600 1 1 1.000000
  1 -3.584100 -18.187799 61.527000 0.508706 -0.860611 -0.023800 0.358400 0.410700 1 1 1.000000
  1 -3.585400 -18.186501 61.452000 0.470297 -0.882195 -0.023500 0.358400 0.410700 1 1 1.000000
blade
  1 -4.597499 -18.846701 61.458599 0.675004 -0.737404 -0.024600 0.318500 0.385300 1 1 1.000000
  1 -3.585400 -18.186501 61.452000 0.470297 -0.882195 -0.023500 0.358400 0.410700 1 1 1.000000
  1 -3.584100 -18.187799 61.527000 0.508706 -0.860611 -0.023800 0.358400 0.410700 1 1 1.000000
blade
  1 -3.584100 -18.187799 61.527000 0.508706 -0.860611 -0.023800 0.358400 0.410700 1 1 1.000000
  1 -4.596200 -18.847900 61.533600 0.788830 -0.614123 -0.024501 0.318500 0.385300 1 1 1.000000
  1 -4.597499 -18.846701 61.458599 0.675004 -0.737404 -0.024600 0.318500 0.385300 1 1 1.000000
blade
  1 -5.019000 -19.621500 61.452801 0.907821 -0.418710 -0.023301 0.301500 0.355000 1 1 1.000000
  1 -4.597499 -18.846701 61.458599 0.675004 -0.737404 -0.024600 0.318500 0.385300 1 1 1.000000
  1 -4.596200 -18.847900 61.533600 0.788830 -0.614123 -0.024501 0.318500 0.385300 1 1 1.000000
blade
  1 -4.596200 -18.847900 61.533600 0.788830 -0.614123 -0.024501 0.318500 0.385300 1 1 1.000000
  1 -5.017701 -19.622801 61.527802 0.933566 -0.357687 -0.022699 0.301500 0.355000 1 1 1.000000
  1 -5.019000 -19.621500 61.452801 0.907821 -0.418710 -0.023301 0.301500 0.355000 1 1 1.000000
blade
  1 -5.356100 -20.710701 61.440102 0.984551 -0.173891 -0.020499 0.287600 0.312200 1 1 1.000000
  1 -5.019000 -19.621500 61.452801 0.907821 -0.418710 -0.023301 0.301500 0.355000 1 1 1.000000
  1 -5.017701 -19.622801 61.527802 0.933566 -0.357687 -0.022699 0.301500 0.355000 1 1 1.000000
blade
  1 -5.017701 -19.622801 61.527802 0.933566 -0.357687 -0.022699 0.301500 0.355000 1 1 1.000000
  1 -5.354800 -20.712000 61.515099 0.998693 -0.047600 -0.018600 0.287600 0.312200 1 1 1.000000
  1 -5.356100 -20.710701 61.440102 0.984551 -0.173891 -0.020499 0.287600 0.312200 1 1 1.000000
blade
  1 -5.256000 -22.006601 61.416100 0.996873 0.077298 -0.016400 0.290600 0.260900 1 1 1.000000
  1 -5.356100 -20.710701 61.440102 0.984551 -0.173891 -0.020499 0.287600 0.312200 1 1 1.000000
  1 -5.354800 -20.712000 61.515099 0.998693 -0.047600 -0.018600 0.287600 0.312200 1 1 1.000000
blade
  1 -5.354800 -20.712000 61.515099 0.998693 -0.047600 -0.018600 0.287600 0.312200 1 1 1.000000
  1 -5.254600 -22.007902 61.491100 0.996873 0.077298 -0.016400 0.290600 0.260900 1 1 1.000000
  1 -5.256000 -22.006601 61.416100 0.996873 0.077298 -0.016400 0.290600 0.260900 1 1 1.000000
blade
  1 9.112700 -8.005398 61.401100 -0.651202 -0.758903 -0.001500 0.861400 0.804000 1 1 1.000000
  1 10.386800 -9.280100 61.356602 -0.798708 -0.601706 0.003900 0.910400 0.752800 1 1 1.000000
  1 10.388100 -9.281399 61.431599 -0.663276 -0.569280 0.485783 0.910400 0.752800 1 1 1.000000
blade
  1 10.388100 -9.281399 61.431599 -0.663276 -0.569280 0.485783 0.910400 0.752800 1 1 1.000000
  1 9.114000 -8.006699 61.476101 -0.475599 -0.638199 0.605399 0.861400 0.804000 1 1 1.000000
  1 9.112700 -8.005398 61.401100 -0.651202 -0.758903 -0.001500 0.861400 0.804000 1 1 1.000000
blade
  1 7.711400 -7.135398 61.440899 -0.473487 -0.880775 -0.006700 0.807300 0.839400 1 1 1.000000
  1 9.112700 -8.005398 61.401100 -0.651202 -0.758903 -0.001500 0.861400 0.804000 1 1 1.000000
  1 9.114000 -8.006699 61.476101 -0.475599 -0.638199 0.605399 0.861400 0.804000 1 1 1.000000
blade
  1 9.114000 -8.006699 61.476101 -0.475599 -0.638199 0.605399 0.861400 0.804000 1 1 1.000000
  1 10.223500 -8.554898 61.659401 0.057198 -0.001400 0.998362 0.904300 0.781800 1 1 1.000000
  1 9.208100 -7.514899 61.695301 -0.011000 -0.049800 0.998699 0.865300 0.823600 1 1 1.000000
blade
  1 9.114000 -8.006699 61.476101 -0.475599 -0.638199 0.605399 0.861400 0.804000 1 1 1.000000
  1 10.388100 -9.281399 61.431599 -0.663276 -0.569280 0.485783 0.910400 0.752800 1 1 1.000000
  1 10.223500 -8.554898 61.659401 0.057198 -0.001400 0.998362 0.904300 0.781800 1 1 1.000000
blade
  1 10.388100 -9.281399 61.431599 -0.663276 -0.569280 0.485783 0.910400 0.752800 1 1 1.000000
  1 11.199099 -9.892499 61.619099 -0.120699 -0.106199 0.986992 0.941500 0.728300 1 1 1.000000
  1 10.223500 -8.554898 61.659401 0.057198 -0.001400 0.998362 0.904300 0.781800 1 1 1.000000
blade
  1 10.388100 -9.281399 61.431599 -0.663276 -0.569280 0.485783 0.910400 0.752800 1 1 1.000000
  1 11.306900 -10.696499 61.390999 -0.751833 -0.462821 0.469621 0.945300 0.696300 1 1 1.000000
  1 11.199099 -9.892499 61.619099 -0.120699 -0.106199 0.986992 0.941500 0.728300 1 1 1.000000
blade
  1 11.306900 -10.696499 61.390999 -0.751833 -0.462821 0.469621 0.945300 0.696300 1 1 1.000000
  1 10.388100 -9.281399 61.431599 -0.663276 -0.569280 0.485783 0.910400 0.752800 1 1 1.000000
  1 10.386800 -9.280100 61.356602 -0.798708 -0.601706 0.003900 0.910400 0.752800 1 1 1.000000
blade
  1 10.386800 -9.280100 61.356602 -0.798708 -0.601706 0.003900 0.910400 0.752800 1 1 1.000000
  1 11.305499 -10.695200 61.316002 -0.867205 -0.497903 0.006900 0.945300 0.696300 1 1 1.000000
  1 11.306900 -10.696499 61.390999 -0.751833 -0.462821 0.469621 0.945300 0.696300 1 1 1.000000
blade
  1 4.302700 -6.568699 61.511101 0.108798 -0.993882 -0.019000 0.674500 0.864100 1 1 1.000000
  1 6.045600 -6.493598 61.481499 -0.229813 -0.973153 -0.012601 0.742600 0.865900 1 1 1.000000
  1 6.046999 -6.494898 61.556499 -0.085097 -0.813871 0.574780 0.742600 0.865900 1 1 1.000000
blade
  1 7.712700 -7.136701 61.515900 -0.338621 -0.750946 0.566935 0.807300 0.839400 1 1 1.000000
  1 6.046999 -6.494898 61.556499 -0.085097 -0.813871 0.574780 0.742600 0.865900 1 1 1.000000
  1 6.045600 -6.493598 61.481499 -0.229813 -0.973153 -0.012601 0.742600 0.865900 1 1 1.000000
blade
  1 6.045600 -6.493598 61.481499 -0.229813 -0.973153 -0.012601 0.742600 0.865900 1 1 1.000000
  1 7.711400 -7.135398 61.440899 -0.473487 -0.880775 -0.006700 0.807300 0.839400 1 1 1.000000
  1 7.712700 -7.136701 61.515900 -0.338621 -0.750946 0.566935 0.807300 0.839400 1 1 1.000000
blade
  1 9.114000 -8.006699 61.476101 -0.475599 -0.638199 0.605399 0.861400 0.804000 1 1 1.000000
  1 7.712700 -7.136701 61.515900 -0.338621 -0.750946 0.566935 0.807300 0.839400 1 1 1.000000
  1 7.711400 -7.135398 61.440899 -0.473487 -0.880775 -0.006700 0.807300 0.839400 1 1 1.000000
blade
  1 7.712700 -7.136701 61.515900 -0.338621 -0.750946 0.566935 0.807300 0.839400 1 1 1.000000
  1 9.114000 -8.006699 61.476101 -0.475599 -0.638199 0.605399 0.861400 0.804000 1 1 1.000000
  1 8.227299 -6.783298 61.725201 0.010400 -0.033599 0.999381 0.827500 0.853100 1 1 1.000000
blade
  1 8.227299 -6.783298 61.725201 0.010400 -0.033599 0.999381 0.827500 0.853100 1 1 1.000000
  1 9.114000 -8.006699 61.476101 -0.475599 -0.638199 0.605399 0.861400 0.804000 1 1 1.000000
  1 9.208100 -7.514899 61.695301 -0.011000 -0.049800 0.998699 0.865300 0.823600 1 1 1.000000
blade
  1 8.227299 -6.783298 61.725201 0.010400 -0.033599 0.999381 0.827500 0.853100 1 1 1.000000
  1 9.208100 -7.514899 61.695301 -0.011000 -0.049800 0.998699 0.865300 0.823600 1 1 1.000000
  1 9.318399 -6.884999 61.491699 0.276694 0.276294 0.920381 0.870200 0.848200 1 1 1.000000
blade
  1 9.208100 -7.514899 61.695301 -0.011000 -0.049800 0.998699 0.865300 0.823600 1 1 1.000000
  1 10.223500 -8.554898 61.659401 0.057198 -0.001400 0.998362 0.904300 0.781800 1 1 1.000000
  1 9.318399 -6.884999 61.491699 0.276694 0.276294 0.920381 0.870200 0.848200 1 1 1.000000
blade
  1 10.223500 -8.554898 61.659401 0.057198 -0.001400 0.998362 0.904300 0.781800 1 1 1.000000
  1 10.641100 -8.382499 61.442501 0.368313 0.254709 0.894130 0.920900 0.788100 1 1 1.000000
  1 9.318399 -6.884999 61.491699 0.276694 0.276294 0.920381 0.870200 0.848200 1 1 1.000000
blade
  1 10.223500 -8.554898 61.659401 0.057198 -0.001400 0.998362 0.904300 0.781800 1 1 1.000000
  1 11.513501 -9.708999 61.404301 0.479408 0.255704 0.839514 0.954100 0.735200 1 1 1.000000
  1 10.641100 -8.382499 61.442501 0.368313 0.254709 0.894130 0.920900 0.788100 1 1 1.000000
blade
  1 11.199099 -9.892499 61.619099 -0.120699 -0.106199 0.986992 0.941500 0.728300 1 1 1.000000
  1 11.513501 -9.708999 61.404301 0.479408 0.255704 0.839514 0.954100 0.735200 1 1 1.000000
  1 10.223500 -8.554898 61.659401 0.057198 -0.001400 0.998362 0.904300 0.781800 1 1 1.000000
blade
  1 11.199099 -9.892499 61.619099 -0.120699 -0.106199 0.986992 0.941500 0.728300 1 1 1.000000
  1 12.070300 -11.472699 61.576599 0.139502 0.003800 0.990214 0.974500 0.665200 1 1 1.000000
  1 11.513501 -9.708999 61.404301 0.479408 0.255704 0.839514 0.954100 0.735200 1 1 1.000000
blade
  1 11.306900 -10.696499 61.390999 -0.751833 -0.462821 0.469621 0.945300 0.696300 1 1 1.000000
  1 12.070300 -11.472699 61.576599 0.139502 0.003800 0.990214 0.974500 0.665200 1 1 1.000000
  1 11.199099 -9.892499 61.619099 -0.120699 -0.106199 0.986992 0.941500 0.728300 1 1 1.000000
blade
  1 11.306900 -10.696499 61.390999 -0.751833 -0.462821 0.469621 0.945300 0.696300 1 1 1.000000
  1 12.046000 -12.069999 61.354301 -0.844587 -0.334595 0.417994 0.973300 0.641500 1 1 1.000000
  1 12.070300 -11.472699 61.576599 0.139502 0.003800 0.990214 0.974500 0.665200 1 1 1.000000
blade
  1 12.046000 -12.069999 61.354301 -0.844587 -0.334595 0.417994 0.973300 0.641500 1 1 1.000000
  1 11.306900 -10.696499 61.390999 -0.751833 -0.462821 0.469621 0.945300 0.696300 1 1 1.000000
  1 11.305499 -10.695200 61.316002 -0.867205 -0.497903 0.006900 0.945300 0.696300 1 1 1.000000
blade
  1 11.305499 -10.695200 61.316002 -0.867205 -0.497903 0.006900 0.945300 0.696300 1 1 1.000000
  1 12.044701 -12.068699 61.279301 -0.954248 -0.298784 0.011799 0.973300 0.641500 1 1 1.000000
  1 12.046000 -12.069999 61.354301 -0.844587 -0.334595 0.417994 0.973300 0.641500 1 1 1.000000
blade
  1 12.338001 -13.451300 61.325500 -0.937572 -0.157095 0.310291 0.983800 0.586800 1 1 1.000000
  1 12.046000 -12.069999 61.354301 -0.844587 -0.334595 0.417994 0.973300 0.641500 1 1 1.000000
  1 12.044701 -12.068699 61.279301 -0.954248 -0.298784 0.011799 0.973300 0.641500 1 1 1.000000
blade
  1 12.044701 -12.068699 61.279301 -0.954248 -0.298784 0.011799 0.973300 0.641500 1 1 1.000000
  1 12.336700 -13.450000 61.250500 -0.991758 -0.127195 0.015399 0.983800 0.586800 1 1 1.000000
  1 12.338001 -13.451300 61.325500 -0.937572 -0.157095 0.310291 0.983800 0.586800 1 1 1.000000
blade
  1 12.070300 -11.472699 61.576599 0.139502 0.003800 0.990214 0.974500 0.665200 1 1 1.000000
  1 12.349801 -11.528000 61.358200 0.634301 0.202100 0.746202 0.985500 0.662700 1 1 1.000000
  1 11.513501 -9.708999 61.404301 0.479408 0.255704 0.839514 0.954100 0.735200 1 1 1.000000
blade
  1 8.227299 -6.783298 61.725201 0.010400 -0.033599 0.999381 0.827500 0.853100 1 1 1.000000
  1 9.318399 -6.884999 61.491699 0.276694 0.276294 0.920381 0.870200 0.848200 1 1 1.000000
  1 7.779900 -5.838498 61.536999 0.156001 0.293302 0.943206 0.810800 0.890600 1 1 1.000000
blade
  1 12.505099 -15.371500 61.289600 -0.948066 -0.084697 0.306589 0.989000 0.510800 1 1 1.000000
  1 12.338001 -13.451300 61.325500 -0.937572 -0.157095 0.310291 0.983800 0.586800 1 1 1.000000
  1 12.336700 -13.450000 61.250500 -0.991758 -0.127195 0.015399 0.983800 0.586800 1 1 1.000000
blade
  1 12.336700 -13.450000 61.250500 -0.991758 -0.127195 0.015399 0.983800 0.586800 1 1 1.000000
  1 12.503800 -15.370200 61.214600 -0.996258 -0.084896 0.016199 0.989000 0.510800 1 1 1.000000
  1 12.505099 -15.371500 61.289600 -0.948066 -0.084697 0.306589 0.989000 0.510800 1 1 1.000000
blade
  1 12.617500 -16.711201 61.264599 -0.845758 -0.133193 0.516674 0.992500 0.457800 1 1 1.000000
  1 12.505099 -15.371500 61.289600 -0.948066 -0.084697 0.306589 0.989000 0.510800 1 1 1.000000
  1 12.503800 -15.370200 61.214600 -0.996258 -0.084896 0.016199 0.989000 0.510800 1 1 1.000000
blade
  1 12.503800 -15.370200 61.214600 -0.996258 -0.084896 0.016199 0.989000 0.510800 1 1 1.000000
  1 12.616201 -16.709900 61.189602 -0.996340 -0.083903 0.016301 0.992500 0.457800 1 1 1.000000
  1 12.617500 -16.711201 61.264599 -0.845758 -0.133193 0.516674 0.992500 0.457800 1 1 1.000000
blade
  1 12.070300 -11.472699 61.576599 0.139502 0.003800 0.990214 0.974500 0.665200 1 1 1.000000
  1 12.639500 -12.775199 61.331699 0.749649 0.101907 0.653943 0.996000 0.613300 1 1 1.000000
  1 12.349801 -11.528000 61.358200 0.634301 0.202100 0.746202 0.985500 0.662700 1 1 1.000000
blade
  1 12.460000 -12.820599 61.546501 -0.351614 -0.067103 0.933737 0.988800 0.611700 1 1 1.000000
  1 12.639500 -12.775199 61.331699 0.749649 0.101907 0.653943 0.996000 0.613300 1 1 1.000000
  1 12.070300 -11.472699 61.576599 0.139502 0.003800 0.990214 0.974500 0.665200 1 1 1.000000
blade
  1 12.046000 -12.069999 61.354301 -0.844587 -0.334595 0.417994 0.973300 0.641500 1 1 1.000000
  1 12.460000 -12.820599 61.546501 -0.351614 -0.067103 0.933737 0.988800 0.611700 1 1 1.000000
  1 12.070300 -11.472699 61.576599 0.139502 0.003800 0.990214 0.974500 0.665200 1 1 1.000000
blade
  1 12.046000 -12.069999 61.354301 -0.844587 -0.334595 0.417994 0.973300 0.641500 1 1 1.000000
  1 12.338001 -13.451300 61.325500 -0.937572 -0.157095 0.310291 0.983800 0.586800 1 1 1.000000
  1 12.460000 -12.820599 61.546501 -0.351614 -0.067103 0.933737 0.988800 0.611700 1 1 1.000000
blade
  1 12.338001 -13.451300 61.325500 -0.937572 -0.157095 0.310291 0.983800 0.586800 1 1 1.000000
  1 12.505099 -15.371500 61.289600 -0.948066 -0.084697 0.306589 0.989000 0.510800 1 1 1.000000
  1 12.460000 -12.820599 61.546501 -0.351614 -0.067103 0.933737 0.988800 0.611700 1 1 1.000000
blade
  1 12.460000 -12.820599 61.546501 -0.351614 -0.067103 0.933737 0.988800 0.611700 1 1 1.000000
  1 12.505099 -15.371500 61.289600 -0.948066 -0.084697 0.306589 0.989000 0.510800 1 1 1.000000
  1 12.600300 -14.830200 61.509602 0.193500 -0.054200 0.979602 0.993000 0.532300 1 1 1.000000
blade
  1 12.505099 -15.371500 61.289600 -0.948066 -0.084697 0.306589 0.989000 0.510800 1 1 1.000000
  1 12.617500 -16.711201 61.264599 -0.845758 -0.133193 0.516674 0.992500 0.457800 1 1 1.000000
  1 12.600300 -14.830200 61.509602 0.193500 -0.054200 0.979602 0.993000 0.532300 1 1 1.000000
blade
  1 12.600300 -14.830200 61.509602 0.193500 -0.054200 0.979602 0.993000 0.532300 1 1 1.000000
  1 12.617500 -16.711201 61.264599 -0.845758 -0.133193 0.516674 0.992500 0.457800 1 1 1.000000
  1 12.774099 -15.411500 61.284100 0.759606 -0.029700 0.649705 0.999500 0.509000 1 1 1.000000
blade
  1 12.600300 -14.830200 61.509602 0.193500 -0.054200 0.979602 0.993000 0.532300 1 1 1.000000
  1 12.774099 -15.411500 61.284100 0.759606 -0.029700 0.649705 0.999500 0.509000 1 1 1.000000
  1 12.639500 -12.775199 61.331699 0.749649 0.101907 0.653943 0.996000 0.613300 1 1 1.000000
blade
  1 12.460000 -12.820599 61.546501 -0.351614 -0.067103 0.933737 0.988800 0.611700 1 1 1.000000
  1 12.600300 -14.830200 61.509602 0.193500 -0.054200 0.979602 0.993000 0.532300 1 1 1.000000
  1 12.639500 -12.775199 61.331699 0.749649 0.101907 0.653943 0.996000 0.613300 1 1 1.000000
blade
  1 5.726299 -5.840497 61.785801 0.040000 -0.014600 0.999093 0.730400 0.892100 1 1 1.000000
  1 7.779900 -5.838498 61.536999 0.156001 0.293302 0.943206 0.810800 0.890600 1 1 1.000000
  1 6.113400 -5.151999 61.578300 0.071003 0.229409 0.970737 0.746100 0.918900 1 1 1.000000
blade
  1 6.970000 -6.150298 61.758400 -0.008900 -0.080302 0.996731 0.778800 0.879000 1 1 1.000000
  1 7.779900 -5.838498 61.536999 0.156001 0.293302 0.943206 0.810800 0.890600 1 1 1.000000
  1 5.726299 -5.840497 61.785801 0.040000 -0.014600 0.999093 0.730400 0.892100 1 1 1.000000
blade
  1 6.970000 -6.150298 61.758400 -0.008900 -0.080302 0.996731 0.778800 0.879000 1 1 1.000000
  1 8.227299 -6.783298 61.725201 0.010400 -0.033599 0.999381 0.827500 0.853100 1 1 1.000000
  1 7.779900 -5.838498 61.536999 0.156001 0.293302 0.943206 0.810800 0.890600 1 1 1.000000
blade
  1 6.970000 -6.150298 61.758400 -0.008900 -0.080302 0.996731 0.778800 0.879000 1 1 1.000000
  1 7.712700 -7.136701 61.515900 -0.338621 -0.750946 0.566935 0.807300 0.839400 1 1 1.000000
  1 8.227299 -6.783298 61.725201 0.010400 -0.033599 0.999381 0.827500 0.853100 1 1 1.000000
blade
  1 6.046999 -6.494898 61.556499 -0.085097 -0.813871 0.574780 0.742600 0.865900 1 1 1.000000
  1 7.712700 -7.136701 61.515900 -0.338621 -0.750946 0.566935 0.807300 0.839400 1 1 1.000000
  1 6.970000 -6.150298 61.758400 -0.008900 -0.080302 0.996731 0.778800 0.879000 1 1 1.000000
blade
  1 6.046999 -6.494898 61.556499 -0.085097 -0.813871 0.574780 0.742600 0.865900 1 1 1.000000
  1 6.970000 -6.150298 61.758400 -0.008900 -0.080302 0.996731 0.778800 0.879000 1 1 1.000000
  1 5.726299 -5.840497 61.785801 0.040000 -0.014600 0.999093 0.730400 0.892100 1 1 1.000000
blade
  1 4.304100 -6.569999 61.586102 0.131693 -0.794159 0.593269 0.674500 0.864100 1 1 1.000000
  1 6.046999 -6.494898 61.556499 -0.085097 -0.813871 0.574780 0.742600 0.865900 1 1 1.000000
  1 5.726299 -5.840497 61.785801 0.040000 -0.014600 0.999093 0.730400 0.892100 1 1 1.000000
blade
  1 4.304100 -6.569999 61.586102 0.131693 -0.794159 0.593269 0.674500 0.864100 1 1 1.000000
  1 5.726299 -5.840497 61.785801 0.040000 -0.014600 0.999093 0.730400 0.892100 1 1 1.000000
  1 3.802800 -5.730999 61.821800 0.034301 -0.011701 0.999343 0.655300 0.897700 1 1 1.000000
blade
  1 2.745400 -6.954997 61.607201 0.279418 -0.647441 0.709045 0.613300 0.850000 1 1 1.000000
  1 4.304100 -6.569999 61.586102 0.131693 -0.794159 0.593269 0.674500 0.864100 1 1 1.000000
  1 3.802800 -5.730999 61.821800 0.034301 -0.011701 0.999343 0.655300 0.897700 1 1 1.000000
blade
  1 2.745400 -6.954997 61.607201 0.279418 -0.647441 0.709045 0.613300 0.850000 1 1 1.000000
  1 3.802800 -5.730999 61.821800 0.034301 -0.011701 0.999343 0.655300 0.897700 1 1 1.000000
  1 2.409600 -5.905797 61.843601 0.017399 0.019299 0.999662 0.600700 0.891800 1 1 1.000000
blade
  1 1.136700 -6.299098 61.859402 0.024199 -0.017699 0.999550 0.550700 0.877100 1 1 1.000000
  1 2.745400 -6.954997 61.607201 0.279418 -0.647441 0.709045 0.613300 0.850000 1 1 1.000000
  1 2.409600 -5.905797 61.843601 0.017399 0.019299 0.999662 0.600700 0.891800 1 1 1.000000
blade
  1 1.136700 -6.299098 61.859402 0.024199 -0.017699 0.999550 0.550700 0.877100 1 1 1.000000
  1 2.409600 -5.905797 61.843601 0.017399 0.019299 0.999662 0.600700 0.891800 1 1 1.000000
  1 1.724200 -4.781398 61.662601 -0.017499 0.151793 0.988257 0.574800 0.936500 1 1 1.000000
blade
  1 1.136700 -6.299098 61.859402 0.024199 -0.017699 0.999550 0.550700 0.877100 1 1 1.000000
  1 1.724200 -4.781398 61.662601 -0.017499 0.151793 0.988257 0.574800 0.936500 1 1 1.000000
  1 -0.144400 -5.350698 61.686001 -0.043699 0.124396 0.991270 0.501400 0.915300 1 1 1.000000
blade
  1 1.136700 -6.299098 61.859402 0.024199 -0.017699 0.999550 0.550700 0.877100 1 1 1.000000
  1 -0.144400 -5.350698 61.686001 -0.043699 0.124396 0.991270 0.501400 0.915300 1 1 1.000000
  1 0.018400 -6.896199 61.869099 0.010600 0.004800 0.999932 0.506600 0.854300 1 1 1.000000
blade
  1 0.018400 -6.896199 61.869099 0.010600 0.004800 0.999932 0.506600 0.854300 1 1 1.000000
  1 -0.144400 -5.350698 61.686001 -0.043699 0.124396 0.991270 0.501400 0.915300 1 1 1.000000
  1 -2.228900 -6.370998 61.705601 -0.052700 0.073500 0.995902 0.419300 0.876500 1 1 1.000000
blade
  1 -0.608900 -7.770100 61.865200 0.017600 -0.029201 0.999419 0.481500 0.820200 1 1 1.000000
  1 0.018400 -6.896199 61.869099 0.010600 0.004800 0.999932 0.506600 0.854300 1 1 1.000000
  1 -2.228900 -6.370998 61.705601 -0.052700 0.073500 0.995902 0.419300 0.876500 1 1 1.000000
blade
  1 -0.608900 -7.770100 61.865200 0.017600 -0.029201 0.999419 0.481500 0.820200 1 1 1.000000
  1 -2.228900 -6.370998 61.705601 -0.052700 0.073500 0.995902 0.419300 0.876500 1 1 1.000000
  1 -3.376000 -7.285500 61.710201 -0.048501 0.051001 0.997520 0.373900 0.841100 1 1 1.000000
blade
  1 -0.608900 -7.770100 61.865200 0.017600 -0.029201 0.999419 0.481500 0.820200 1 1 1.000000
  1 -3.376000 -7.285500 61.710201 -0.048501 0.051001 0.997520 0.373900 0.841100 1 1 1.000000
  1 -3.857800 -7.875299 61.708698 -0.047601 -0.053901 0.997411 0.354700 0.818200 1 1 1.000000
blade
  1 5.726299 -5.840497 61.785801 0.040000 -0.014600 0.999093 0.730400 0.892100 1 1 1.000000
  1 6.113400 -5.151999 61.578300 0.071003 0.229409 0.970737 0.746100 0.918900 1 1 1.000000
  1 3.802800 -5.730999 61.821800 0.034301 -0.011701 0.999343 0.655300 0.897700 1 1 1.000000
blade
  1 3.802800 -5.730999 61.821800 0.034301 -0.011701 0.999343 0.655300 0.897700 1 1 1.000000
  1 6.113400 -5.151999 61.578300 0.071003 0.229409 0.970737 0.746100 0.918900 1 1 1.000000
  1 4.003601 -4.696898 61.623600 0.020501 0.181206 0.983231 0.664000 0.938300 1 1 1.000000
blade
  1 3.802800 -5.730999 61.821800 0.034301 -0.011701 0.999343 0.655300 0.897700 1 1 1.000000
  1 4.003601 -4.696898 61.623600 0.020501 0.181206 0.983231 0.664000 0.938300 1 1 1.000000
  1 2.409600 -5.905797 61.843601 0.017399 0.019299 0.999662 0.600700 0.891800 1 1 1.000000
blade
  1 2.409600 -5.905797 61.843601 0.017399 0.019299 0.999662 0.600700 0.891800 1 1 1.000000
  1 4.003601 -4.696898 61.623600 0.020501 0.181206 0.983231 0.664000 0.938300 1 1 1.000000
  1 1.724200 -4.781398 61.662601 -0.017499 0.151793 0.988257 0.574800 0.936500 1 1 1.000000
blade
  1 -0.601600 -12.700999 61.780499 0.014600 -0.005900 0.999876 0.478500 0.625500 1 1 1.000000
  1 -0.516100 -14.566100 61.747002 0.011701 0.019301 0.999745 0.480600 0.551700 1 1 1.000000
  1 0.436900 -13.167099 61.541698 0.648110 0.169203 0.742512 0.518900 0.606200 1 1 1.000000
blade
  1 -0.601600 -12.700999 61.780499 0.014600 -0.005900 0.999876 0.478500 0.625500 1 1 1.000000
  1 0.436900 -13.167099 61.541698 0.648110 0.169203 0.742512 0.518900 0.606200 1 1 1.000000
  1 0.096300 -11.562999 61.575199 0.798464 0.101795 0.593374 0.506700 0.669800 1 1 1.000000
blade
  1 -0.634700 -11.070700 61.809101 0.020701 -0.017301 0.999636 0.478300 0.689900 1 1 1.000000
  1 -0.601600 -12.700999 61.780499 0.014600 -0.005900 0.999876 0.478500 0.625500 1 1 1.000000
  1 0.096300 -11.562999 61.575199 0.798464 0.101795 0.593374 0.506700 0.669800 1 1 1.000000
blade
  1 -0.634700 -11.070700 61.809101 0.020701 -0.017301 0.999636 0.478300 0.689900 1 1 1.000000
  1 0.096300 -11.562999 61.575199 0.798464 0.101795 0.593374 0.506700 0.669800 1 1 1.000000
  1 0.028600 -10.222500 61.599400 0.799386 -0.076799 0.595889 0.504900 0.722800 1 1 1.000000
blade
  1 -0.745900 -9.823799 61.832401 0.008900 -0.058802 0.998230 0.474800 0.739200 1 1 1.000000
  1 -0.634700 -11.070700 61.809101 0.020701 -0.017301 0.999636 0.478300 0.689900 1 1 1.000000
  1 0.028600 -10.222500 61.599400 0.799386 -0.076799 0.595889 0.504900 0.722800 1 1 1.000000
blade
  1 0.028600 -10.222500 61.599400 0.799386 -0.076799 0.595889 0.504900 0.722800 1 1 1.000000
  1 0.542900 -8.916599 61.612701 0.634899 -0.290500 0.715900 0.525900 0.774000 1 1 1.000000
  1 -0.745900 -9.823799 61.832401 0.008900 -0.058802 0.998230 0.474800 0.739200 1 1 1.000000
blade
  1 -0.745900 -9.823799 61.832401 0.008900 -0.058802 0.998230 0.474800 0.739200 1 1 1.000000
  1 0.542900 -8.916599 61.612701 0.634899 -0.290500 0.715900 0.525900 0.774000 1 1 1.000000
  1 -0.740900 -8.871400 61.848701 -0.002100 -0.044401 0.999012 0.475600 0.776800 1 1 1.000000
blade
  1 0.542900 -8.916599 61.612701 0.634899 -0.290500 0.715900 0.525900 0.774000 1 1 1.000000
  1 -0.608900 -7.770100 61.865200 0.017600 -0.029201 0.999419 0.481500 0.820200 1 1 1.000000
  1 -0.740900 -8.871400 61.848701 -0.002100 -0.044401 0.999012 0.475600 0.776800 1 1 1.000000
blade
  1 0.542900 -8.916599 61.612701 0.634899 -0.290500 0.715900 0.525900 0.774000 1 1 1.000000
  1 1.372400 -7.739299 61.618099 0.486321 -0.476021 0.732732 0.559100 0.819900 1 1 1.000000
  1 -0.608900 -7.770100 61.865200 0.017600 -0.029201 0.999419 0.481500 0.820200 1 1 1.000000
blade
  1 -0.608900 -7.770100 61.865200 0.017600 -0.029201 0.999419 0.481500 0.820200 1 1 1.000000
  1 1.372400 -7.739299 61.618099 0.486321 -0.476021 0.732732 0.559100 0.819900 1 1 1.000000
  1 0.018400 -6.896199 61.869099 0.010600 0.004800 0.999932 0.506600 0.854300 1 1 1.000000
blade
  1 1.372400 -7.739299 61.618099 0.486321 -0.476021 0.732732 0.559100 0.819900 1 1 1.000000
  1 1.136700 -6.299098 61.859402 0.024199 -0.017699 0.999550 0.550700 0.877100 1 1 1.000000
  1 0.018400 -6.896199 61.869099 0.010600 0.004800 0.999932 0.506600 0.854300 1 1 1.000000
blade
  1 1.372400 -7.739299 61.618099 0.486321 -0.476021 0.732732 0.559100 0.819900 1 1 1.000000
  1 2.745400 -6.954997 61.607201 0.279418 -0.647441 0.709045 0.613300 0.850000 1 1 1.000000
  1 1.136700 -6.299098 61.859402 0.024199 -0.017699 0.999550 0.550700 0.877100 1 1 1.000000
blade
  1 -0.608900 -7.770100 61.865200 0.017600 -0.029201 0.999419 0.481500 0.820200 1 1 1.000000
  1 -3.857800 -7.875299 61.708698 -0.047601 -0.053901 0.997411 0.354700 0.818200 1 1 1.000000
  1 -2.685400 -8.436199 61.678200 -0.085298 -0.098498 0.991475 0.400100 0.795200 1 1 1.000000
blade
  1 -0.740900 -8.871400 61.848701 -0.002100 -0.044401 0.999012 0.475600 0.776800 1 1 1.000000
  1 -0.608900 -7.770100 61.865200 0.017600 -0.029201 0.999419 0.481500 0.820200 1 1 1.000000
  1 -2.685400 -8.436199 61.678200 -0.085298 -0.098498 0.991475 0.400100 0.795200 1 1 1.000000
blade
  1 -0.740900 -8.871400 61.848701 -0.002100 -0.044401 0.999012 0.475600 0.776800 1 1 1.000000
  1 -2.685400 -8.436199 61.678200 -0.085298 -0.098498 0.991475 0.400100 0.795200 1 1 1.000000
  1 -1.910800 -9.272400 61.650200 -0.173793 -0.110496 0.978563 0.429800 0.761700 1 1 1.000000
blade
  1 -0.745900 -9.823799 61.832401 0.008900 -0.058802 0.998230 0.474800 0.739200 1 1 1.000000
  1 -0.740900 -8.871400 61.848701 -0.002100 -0.044401 0.999012 0.475600 0.776800 1 1 1.000000
  1 -1.910800 -9.272400 61.650200 -0.173793 -0.110496 0.978563 0.429800 0.761700 1 1 1.000000
blade
  1 -1.450700 -10.024699 61.629101 -0.254911 -0.081303 0.963540 0.447300 0.731600 1 1 1.000000
  1 -0.745900 -9.823799 61.832401 0.008900 -0.058802 0.998230 0.474800 0.739200 1 1 1.000000
  1 -1.910800 -9.272400 61.650200 -0.173793 -0.110496 0.978563 0.429800 0.761700 1 1 1.000000
blade
  1 -1.450700 -10.024699 61.629101 -0.254911 -0.081303 0.963540 0.447300 0.731600 1 1 1.000000
  1 -0.634700 -11.070700 61.809101 0.020701 -0.017301 0.999636 0.478300 0.689900 1 1 1.000000
  1 -0.745900 -9.823799 61.832401 0.008900 -0.058802 0.998230 0.474800 0.739200 1 1 1.000000
blade
  1 -1.450700 -10.024699 61.629101 -0.254911 -0.081303 0.963540 0.447300 0.731600 1 1 1.000000
  1 -1.385300 -11.231098 61.607201 -0.245604 -0.017400 0.969214 0.449000 0.683900 1 1 1.000000
  1 -0.634700 -11.070700 61.809101 0.020701 -0.017301 0.999636 0.478300 0.689900 1 1 1.000000
blade
  1 -1.385300 -11.231098 61.607201 -0.245604 -0.017400 0.969214 0.449000 0.683900 1 1 1.000000
  1 -0.601600 -12.700999 61.780499 0.014600 -0.005900 0.999876 0.478500 0.625500 1 1 1.000000
  1 -0.634700 -11.070700 61.809101 0.020701 -0.017301 0.999636 0.478300 0.689900 1 1 1.000000
blade
  1 -1.385300 -11.231098 61.607201 -0.245604 -0.017400 0.969214 0.449000 0.683900 1 1 1.000000
  1 -1.531900 -13.112000 61.577599 -0.194497 -0.006200 0.980883 0.442000 0.609700 1 1 1.000000
  1 -0.601600 -12.700999 61.780499 0.014600 -0.005900 0.999876 0.478500 0.625500 1 1 1.000000
blade
  1 -1.531900 -13.112000 61.577599 -0.194497 -0.006200 0.980883 0.442000 0.609700 1 1 1.000000
  1 -0.516100 -14.566100 61.747002 0.011701 0.019301 0.999745 0.480600 0.551700 1 1 1.000000
  1 -0.601600 -12.700999 61.780499 0.014600 -0.005900 0.999876 0.478500 0.625500 1 1 1.000000
blade
  1 -1.531900 -13.112000 61.577599 -0.194497 -0.006200 0.980883 0.442000 0.609700 1 1 1.000000
  1 -1.915300 -14.380700 61.525101 -0.368796 0.227697 0.901190 0.426200 0.559900 1 1 1.000000
  1 -0.516100 -14.566100 61.747002 0.011701 0.019301 0.999745 0.480600 0.551700 1 1 1.000000
blade
  1 -0.516100 -14.566100 61.747002 0.011701 0.019301 0.999745 0.480600 0.551700 1 1 1.000000
  1 -1.915300 -14.380700 61.525101 -0.368796 0.227697 0.901190 0.426200 0.559900 1 1 1.000000
  1 -1.127700 -15.775400 61.737099 -0.010800 -0.041499 0.999080 0.455900 0.504400 1 1 1.000000
blade
  1 -1.127700 -15.775400 61.737099 -0.010800 -0.041499 0.999080 0.455900 0.504400 1 1 1.000000
  1 0.189700 -15.694200 61.715099 0.053500 -0.030800 0.998093 0.507400 0.506700 1 1 1.000000
  1 -0.516100 -14.566100 61.747002 0.011701 0.019301 0.999745 0.480600 0.551700 1 1 1.000000
blade
  1 0.189700 -15.694200 61.715099 0.053500 -0.030800 0.998093 0.507400 0.506700 1 1 1.000000
  1 1.057600 -14.575600 61.469002 0.420809 0.191904 0.886619 0.542300 0.550100 1 1 1.000000
  1 -0.516100 -14.566100 61.747002 0.011701 0.019301 0.999745 0.480600 0.551700 1 1 1.000000
blade
  1 -0.516100 -14.566100 61.747002 0.011701 0.019301 0.999745 0.480600 0.551700 1 1 1.000000
  1 1.057600 -14.575600 61.469002 0.420809 0.191904 0.886619 0.542300 0.550100 1 1 1.000000
  1 0.436900 -13.167099 61.541698 0.648110 0.169203 0.742512 0.518900 0.606200 1 1 1.000000
blade
  1 1.057600 -14.575600 61.469002 0.420809 0.191904 0.886619 0.542300 0.550100 1 1 1.000000
  1 0.435500 -13.165799 61.466702 0.961506 0.274502 -0.012400 0.518900 0.606200 1 1 1.000000
  1 0.436900 -13.167099 61.541698 0.648110 0.169203 0.742512 0.518900 0.606200 1 1 1.000000
blade
  1 0.096300 -11.562999 61.575199 0.798464 0.101795 0.593374 0.506700 0.669800 1 1 1.000000
  1 0.436900 -13.167099 61.541698 0.648110 0.169203 0.742512 0.518900 0.606200 1 1 1.000000
  1 0.435500 -13.165799 61.466702 0.961506 0.274502 -0.012400 0.518900 0.606200 1 1 1.000000
blade
  1 0.435500 -13.165799 61.466702 0.961506 0.274502 -0.012400 0.518900 0.606200 1 1 1.000000
  1 0.095000 -11.561699 61.500198 0.994513 0.103401 -0.015900 0.506700 0.669800 1 1 1.000000
  1 0.096300 -11.562999 61.575199 0.798464 0.101795 0.593374 0.506700 0.669800 1 1 1.000000
blade
  1 0.028600 -10.222500 61.599400 0.799386 -0.076799 0.595889 0.504900 0.722800 1 1 1.000000
  1 0.096300 -11.562999 61.575199 0.798464 0.101795 0.593374 0.506700 0.669800 1 1 1.000000
  1 0.095000 -11.561699 61.500198 0.994513 0.103401 -0.015900 0.506700 0.669800 1 1 1.000000
blade
  1 0.095000 -11.561699 61.500198 0.994513 0.103401 -0.015900 0.506700 0.669800 1 1 1.000000
  1 0.027200 -10.221199 61.524399 0.972531 -0.231807 -0.021201 0.504900 0.722800 1 1 1.000000
  1 0.028600 -10.222500 61.599400 0.799386 -0.076799 0.595889 0.504900 0.722800 1 1 1.000000
blade
  1 0.542900 -8.916599 61.612701 0.634899 -0.290500 0.715900 0.525900 0.774000 1 1 1.000000
  1 0.028600 -10.222500 61.599400 0.799386 -0.076799 0.595889 0.504900 0.722800 1 1 1.000000
  1 0.027200 -10.221199 61.524399 0.972531 -0.231807 -0.021201 0.504900 0.722800 1 1 1.000000
blade
  1 0.027200 -10.221199 61.524399 0.972531 -0.231807 -0.021201 0.504900 0.722800 1 1 1.000000
  1 0.541500 -8.915298 61.537701 0.860380 -0.509088 -0.023999 0.525900 0.774000 1 1 1.000000
  1 0.542900 -8.916599 61.612701 0.634899 -0.290500 0.715900 0.525900 0.774000 1 1 1.000000
blade
  1 1.372400 -7.739299 61.618099 0.486321 -0.476021 0.732732 0.559100 0.819900 1 1 1.000000
  1 0.542900 -8.916599 61.612701 0.634899 -0.290500 0.715900 0.525900 0.774000 1 1 1.000000
  1 0.541500 -8.915298 61.537701 0.860380 -0.509088 -0.023999 0.525900 0.774000 1 1 1.000000
blade
  1 0.541500 -8.915298 61.537701 0.860380 -0.509088 -0.023999 0.525900 0.774000 1 1 1.000000
  1 1.371100 -7.737998 61.543098 0.615984 -0.787380 -0.024399 0.559100 0.819900 1 1 1.000000
  1 1.372400 -7.739299 61.618099 0.486321 -0.476021 0.732732 0.559100 0.819900 1 1 1.000000
blade
  1 2.745400 -6.954997 61.607201 0.279418 -0.647441 0.709045 0.613300 0.850000 1 1 1.000000
  1 1.372400 -7.739299 61.618099 0.486321 -0.476021 0.732732 0.559100 0.819900 1 1 1.000000
  1 1.371100 -7.737998 61.543098 0.615984 -0.787380 -0.024399 0.559100 0.819900 1 1 1.000000
blade
  1 1.371100 -7.737998 61.543098 0.615984 -0.787380 -0.024399 0.559100 0.819900 1 1 1.000000
  1 2.744000 -6.953697 61.532200 0.327708 -0.944523 -0.022001 0.613300 0.850000 1 1 1.000000
  1 2.745400 -6.954997 61.607201 0.279418 -0.647441 0.709045 0.613300 0.850000 1 1 1.000000
blade
  1 4.304100 -6.569999 61.586102 0.131693 -0.794159 0.593269 0.674500 0.864100 1 1 1.000000
  1 2.745400 -6.954997 61.607201 0.279418 -0.647441 0.709045 0.613300 0.850000 1 1 1.000000
  1 2.744000 -6.953697 61.532200 0.327708 -0.944523 -0.022001 0.613300 0.850000 1 1 1.000000
blade
  1 2.744000 -6.953697 61.532200 0.327708 -0.944523 -0.022001 0.613300 0.850000 1 1 1.000000
  1 4.302700 -6.568699 61.511101 0.108798 -0.993882 -0.019000 0.674500 0.864100 1 1 1.000000
  1 4.304100 -6.569999 61.586102 0.131693 -0.794159 0.593269 0.674500 0.864100 1 1 1.000000
blade
  1 6.046999 -6.494898 61.556499 -0.085097 -0.813871 0.574780 0.742600 0.865900 1 1 1.000000
  1 4.304100 -6.569999 61.586102 0.131693 -0.794159 0.593269 0.674500 0.864100 1 1 1.000000
  1 4.302700 -6.568699 61.511101 0.108798 -0.993882 -0.019000 0.674500 0.864100 1 1 1.000000
blade
  1 5.233900 -18.345400 61.580101 0.004100 0.013700 0.999898 0.702800 0.398500 1 1 1.000000
  1 6.574700 -16.876699 61.369099 -0.001600 0.112901 0.993605 0.756300 0.455400 1 1 1.000000
  1 5.463000 -17.129601 61.384499 0.031798 0.195690 0.980150 0.712700 0.446200 1 1 1.000000
blade
  1 4.411500 -17.865200 61.602901 -0.013901 0.011400 0.999838 0.670900 0.418000 1 1 1.000000
  1 5.233900 -18.345400 61.580101 0.004100 0.013700 0.999898 0.702800 0.398500 1 1 1.000000
  1 5.463000 -17.129601 61.384499 0.031798 0.195690 0.980150 0.712700 0.446200 1 1 1.000000
blade
  1 4.581300 -17.152201 61.399700 0.096899 0.251499 0.962995 0.678200 0.445900 1 1 1.000000
  1 4.411500 -17.865200 61.602901 -0.013901 0.011400 0.999838 0.670900 0.418000 1 1 1.000000
  1 5.463000 -17.129601 61.384499 0.031798 0.195690 0.980150 0.712700 0.446200 1 1 1.000000
blade
  1 4.581300 -17.152201 61.399700 0.096899 0.251499 0.962995 0.678200 0.445900 1 1 1.000000
  1 3.276100 -17.338301 61.632099 0.016200 -0.019700 0.999675 0.626900 0.439600 1 1 1.000000
  1 4.411500 -17.865200 61.602901 -0.013901 0.011400 0.999838 0.670900 0.418000 1 1 1.000000
blade
  1 4.581300 -17.152201 61.399700 0.096899 0.251499 0.962995 0.678200 0.445900 1 1 1.000000
  1 3.503800 -16.606001 61.428200 0.147906 0.211409 0.966142 0.636500 0.468200 1 1 1.000000
  1 3.276100 -17.338301 61.632099 0.016200 -0.019700 0.999675 0.626900 0.439600 1 1 1.000000
blade
  1 3.503800 -16.606001 61.428200 0.147906 0.211409 0.966142 0.636500 0.468200 1 1 1.000000
  1 1.847700 -16.552299 61.671001 0.029099 -0.020000 0.999376 0.571600 0.471700 1 1 1.000000
  1 3.276100 -17.338301 61.632099 0.016200 -0.019700 0.999675 0.626900 0.439600 1 1 1.000000
blade
  1 3.503800 -16.606001 61.428200 0.147906 0.211409 0.966142 0.636500 0.468200 1 1 1.000000
  1 1.948300 -15.539000 61.474201 0.132503 0.161003 0.978019 0.576400 0.511500 1 1 1.000000
  1 1.847700 -16.552299 61.671001 0.029099 -0.020000 0.999376 0.571600 0.471700 1 1 1.000000
blade
  1 1.948300 -15.539000 61.474201 0.132503 0.161003 0.978019 0.576400 0.511500 1 1 1.000000
  1 0.189700 -15.694200 61.715099 0.053500 -0.030800 0.998093 0.507400 0.506700 1 1 1.000000
  1 1.847700 -16.552299 61.671001 0.029099 -0.020000 0.999376 0.571600 0.471700 1 1 1.000000
blade
  1 1.948300 -15.539000 61.474201 0.132503 0.161003 0.978019 0.576400 0.511500 1 1 1.000000
  1 1.057600 -14.575600 61.469002 0.420809 0.191904 0.886619 0.542300 0.550100 1 1 1.000000
  1 0.189700 -15.694200 61.715099 0.053500 -0.030800 0.998093 0.507400 0.506700 1 1 1.000000
blade
  1 4.623301 -25.460903 61.468899 0.008800 -0.037698 0.999250 0.674100 0.117900 1 1 1.000000
  1 3.588900 -27.238201 61.244400 0.215005 -0.291407 0.932124 0.632700 0.048200 1 1 1.000000
  1 5.017099 -26.138000 61.237900 0.203294 -0.186094 0.961270 0.689200 0.090700 1 1 1.000000
blade
  1 4.623301 -25.460903 61.468899 0.008800 -0.037698 0.999250 0.674100 0.117900 1 1 1.000000
  1 5.017099 -26.138000 61.237900 0.203294 -0.186094 0.961270 0.689200 0.090700 1 1 1.000000
  1 5.680400 -23.849802 61.477798 0.014200 -0.034200 0.999314 0.716500 0.180800 1 1 1.000000
blade
  1 5.680400 -23.849802 61.477798 0.014200 -0.034200 0.999314 0.716500 0.180800 1 1 1.000000
  1 5.017099 -26.138000 61.237900 0.203294 -0.186094 0.961270 0.689200 0.090700 1 1 1.000000
  1 6.466700 -24.538301 61.239601 0.187305 -0.118503 0.975127 0.746900 0.152900 1 1 1.000000
blade
  1 5.680400 -23.849802 61.477798 0.014200 -0.034200 0.999314 0.716500 0.180800 1 1 1.000000
  1 6.466700 -24.538301 61.239601 0.187305 -0.118503 0.975127 0.746900 0.152900 1 1 1.000000
  1 6.225999 -22.555902 61.490299 0.049498 -0.035099 0.998157 0.738700 0.231500 1 1 1.000000
blade
  1 6.225999 -22.555902 61.490299 0.049498 -0.035099 0.998157 0.738700 0.231500 1 1 1.000000
  1 6.466700 -24.538301 61.239601 0.187305 -0.118503 0.975127 0.746900 0.152900 1 1 1.000000
  1 7.533800 -22.522001 61.255199 0.181101 -0.070900 0.980905 0.790000 0.231800 1 1 1.000000
blade
  1 6.522201 -21.256903 61.507301 0.014101 -0.022501 0.999647 0.751100 0.282600 1 1 1.000000
  1 6.225999 -22.555902 61.490299 0.049498 -0.035099 0.998157 0.738700 0.231500 1 1 1.000000
  1 7.533800 -22.522001 61.255199 0.181101 -0.070900 0.980905 0.790000 0.231800 1 1 1.000000
blade
  1 6.522201 -21.256903 61.507301 0.014101 -0.022501 0.999647 0.751100 0.282600 1 1 1.000000
  1 7.533800 -22.522001 61.255199 0.181101 -0.070900 0.980905 0.790000 0.231800 1 1 1.000000
  1 7.975600 -20.619200 61.279999 0.170509 -0.034502 0.984752 0.808500 0.306600 1 1 1.000000
blade
  1 6.522201 -21.256903 61.507301 0.014101 -0.022501 0.999647 0.751100 0.282600 1 1 1.000000
  1 7.975600 -20.619200 61.279999 0.170509 -0.034502 0.984752 0.808500 0.306600 1 1 1.000000
  1 6.564600 -19.990101 61.528301 0.040302 -0.021901 0.998947 0.753600 0.332600 1 1 1.000000
blade
  1 6.564600 -19.990101 61.528301 0.040302 -0.021901 0.998947 0.753600 0.332600 1 1 1.000000
  1 7.975600 -20.619200 61.279999 0.170509 -0.034502 0.984752 0.808500 0.306600 1 1 1.000000
  1 8.134800 -18.304100 61.316898 0.131194 -0.001400 0.991356 0.816300 0.398000 1 1 1.000000
blade
  1 6.121600 -19.010099 61.552898 0.007300 -0.011000 0.999913 0.737000 0.371600 1 1 1.000000
  1 6.564600 -19.990101 61.528301 0.040302 -0.021901 0.998947 0.753600 0.332600 1 1 1.000000
  1 8.134800 -18.304100 61.316898 0.131194 -0.001400 0.991356 0.816300 0.398000 1 1 1.000000
blade
  1 6.121600 -19.010099 61.552898 0.007300 -0.011000 0.999913 0.737000 0.371600 1 1 1.000000
  1 8.134800 -18.304100 61.316898 0.131194 -0.001400 0.991356 0.816300 0.398000 1 1 1.000000
  1 7.916699 -16.853701 61.345600 0.109705 0.006200 0.993945 0.808700 0.455400 1 1 1.000000
blade
  1 6.121600 -19.010099 61.552898 0.007300 -0.011000 0.999913 0.737000 0.371600 1 1 1.000000
  1 7.916699 -16.853701 61.345600 0.109705 0.006200 0.993945 0.808700 0.455400 1 1 1.000000
  1 7.647000 -16.141600 61.362598 0.018499 0.057798 0.998157 0.798700 0.483700 1 1 1.000000
blade
  1 6.121600 -19.010099 61.552898 0.007300 -0.011000 0.999913 0.737000 0.371600 1 1 1.000000
  1 7.647000 -16.141600 61.362598 0.018499 0.057798 0.998157 0.798700 0.483700 1 1 1.000000
  1 6.574700 -16.876699 61.369099 -0.001600 0.112901 0.993605 0.756300 0.455400 1 1 1.000000
blade
  1 5.233900 -18.345400 61.580101 0.004100 0.013700 0.999898 0.702800 0.398500 1 1 1.000000
  1 6.121600 -19.010099 61.552898 0.007300 -0.011000 0.999913 0.737000 0.371600 1 1 1.000000
  1 6.574700 -16.876699 61.369099 -0.001600 0.112901 0.993605 0.756300 0.455400 1 1 1.000000
blade
  1 4.543700 -19.432400 61.361301 -0.538800 -0.412200 0.734701 0.675200 0.355900 1 1 1.000000
  1 6.121600 -19.010099 61.552898 0.007300 -0.011000 0.999913 0.737000 0.371600 1 1 1.000000
  1 5.233900 -18.345400 61.580101 0.004100 0.013700 0.999898 0.702800 0.398500 1 1 1.000000
blade
  1 4.411500 -17.865200 61.602901 -0.013901 0.011400 0.999838 0.670900 0.418000 1 1 1.000000
  1 4.543700 -19.432400 61.361301 -0.538800 -0.412200 0.734701 0.675200 0.355900 1 1 1.000000
  1 5.233900 -18.345400 61.580101 0.004100 0.013700 0.999898 0.702800 0.398500 1 1 1.000000
blade
  1 3.670000 -18.334400 61.395599 -0.440998 -0.660197 0.607997 0.641800 0.399900 1 1 1.000000
  1 4.543700 -19.432400 61.361301 -0.538800 -0.412200 0.734701 0.675200 0.355900 1 1 1.000000
  1 4.411500 -17.865200 61.602901 -0.013901 0.011400 0.999838 0.670900 0.418000 1 1 1.000000
blade
  1 4.411500 -17.865200 61.602901 -0.013901 0.011400 0.999838 0.670900 0.418000 1 1 1.000000
  1 3.276100 -17.338301 61.632099 0.016200 -0.019700 0.999675 0.626900 0.439600 1 1 1.000000
  1 3.670000 -18.334400 61.395599 -0.440998 -0.660197 0.607997 0.641800 0.399900 1 1 1.000000
blade
  1 3.886100 -25.408100 61.195400 -0.727772 0.685374 0.024699 0.645600 0.120300 1 1 1.000000
  1 2.497000 -26.530003 61.200901 -0.525905 0.850207 0.023900 0.590500 0.076900 1 1 1.000000
  1 2.498300 -26.531303 61.275902 -0.457104 0.662605 0.593305 0.590500 0.076900 1 1 1.000000
blade
  1 2.498300 -26.531303 61.275902 -0.457104 0.662605 0.593305 0.590500 0.076900 1 1 1.000000
  1 3.887400 -25.409405 61.270401 -0.637882 0.474387 0.606683 0.645600 0.120300 1 1 1.000000
  1 3.886100 -25.408100 61.195400 -0.727772 0.685374 0.024699 0.645600 0.120300 1 1 1.000000
blade
  1 3.887400 -25.409405 61.270401 -0.637882 0.474387 0.606683 0.645600 0.120300 1 1 1.000000
  1 2.498300 -26.531303 61.275902 -0.457104 0.662605 0.593305 0.590500 0.076900 1 1 1.000000
  1 3.732800 -26.383202 61.468899 -0.023800 0.037501 0.999013 0.638700 0.082000 1 1 1.000000
blade
  1 3.887400 -25.409405 61.270401 -0.637882 0.474387 0.606683 0.645600 0.120300 1 1 1.000000
  1 3.732800 -26.383202 61.468899 -0.023800 0.037501 0.999013 0.638700 0.082000 1 1 1.000000
  1 4.623301 -25.460903 61.468899 0.008800 -0.037698 0.999250 0.674100 0.117900 1 1 1.000000
blade
  1 4.694200 -23.862400 61.282600 -0.728372 0.276589 0.626876 0.678100 0.180800 1 1 1.000000
  1 3.887400 -25.409405 61.270401 -0.637882 0.474387 0.606683 0.645600 0.120300 1 1 1.000000
  1 4.623301 -25.460903 61.468899 0.008800 -0.037698 0.999250 0.674100 0.117900 1 1 1.000000
blade
  1 4.694200 -23.862400 61.282600 -0.728372 0.276589 0.626876 0.678100 0.180800 1 1 1.000000
  1 4.623301 -25.460903 61.468899 0.008800 -0.037698 0.999250 0.674100 0.117900 1 1 1.000000
  1 5.680400 -23.849802 61.477798 0.014200 -0.034200 0.999314 0.716500 0.180800 1 1 1.000000
blade
  1 5.140600 -22.320103 61.301201 -0.670395 0.074100 0.738295 0.696600 0.241400 1 1 1.000000
  1 4.694200 -23.862400 61.282600 -0.728372 0.276589 0.626876 0.678100 0.180800 1 1 1.000000
  1 5.680400 -23.849802 61.477798 0.014200 -0.034200 0.999314 0.716500 0.180800 1 1 1.000000
blade
  1 5.140600 -22.320103 61.301201 -0.670395 0.074100 0.738295 0.696600 0.241400 1 1 1.000000
  1 5.680400 -23.849802 61.477798 0.014200 -0.034200 0.999314 0.716500 0.180800 1 1 1.000000
  1 6.225999 -22.555902 61.490299 0.049498 -0.035099 0.998157 0.738700 0.231500 1 1 1.000000
blade
  1 6.522201 -21.256903 61.507301 0.014101 -0.022501 0.999647 0.751100 0.282600 1 1 1.000000
  1 5.140600 -22.320103 61.301201 -0.670395 0.074100 0.738295 0.696600 0.241400 1 1 1.000000
  1 6.225999 -22.555902 61.490299 0.049498 -0.035099 0.998157 0.738700 0.231500 1 1 1.000000
blade
  1 5.148200 -20.739201 61.328098 -0.624396 -0.190999 0.757396 0.697900 0.303900 1 1 1.000000
  1 5.140600 -22.320103 61.301201 -0.670395 0.074100 0.738295 0.696600 0.241400 1 1 1.000000
  1 6.522201 -21.256903 61.507301 0.014101 -0.022501 0.999647 0.751100 0.282600 1 1 1.000000
blade
  1 5.148200 -20.739201 61.328098 -0.624396 -0.190999 0.757396 0.697900 0.303900 1 1 1.000000
  1 6.522201 -21.256903 61.507301 0.014101 -0.022501 0.999647 0.751100 0.282600 1 1 1.000000
  1 6.564600 -19.990101 61.528301 0.040302 -0.021901 0.998947 0.753600 0.332600 1 1 1.000000
blade
  1 6.121600 -19.010099 61.552898 0.007300 -0.011000 0.999913 0.737000 0.371600 1 1 1.000000
  1 5.148200 -20.739201 61.328098 -0.624396 -0.190999 0.757396 0.697900 0.303900 1 1 1.000000
  1 6.564600 -19.990101 61.528301 0.040302 -0.021901 0.998947 0.753600 0.332600 1 1 1.000000
blade
  1 4.543700 -19.432400 61.361301 -0.538800 -0.412200 0.734701 0.675200 0.355900 1 1 1.000000
  1 5.148200 -20.739201 61.328098 -0.624396 -0.190999 0.757396 0.697900 0.303900 1 1 1.000000
  1 6.121600 -19.010099 61.552898 0.007300 -0.011000 0.999913 0.737000 0.371600 1 1 1.000000
blade
  1 5.148200 -20.739201 61.328098 -0.624396 -0.190999 0.757396 0.697900 0.303900 1 1 1.000000
  1 4.543700 -19.432400 61.361301 -0.538800 -0.412200 0.734701 0.675200 0.355900 1 1 1.000000
  1 4.542400 -19.431200 61.286301 -0.871300 -0.490700 0.007100 0.675200 0.355900 1 1 1.000000
blade
  1 3.668700 -18.333099 61.320599 -0.687287 -0.726386 -0.000300 0.641800 0.399900 1 1 1.000000
  1 4.542400 -19.431200 61.286301 -0.871300 -0.490700 0.007100 0.675200 0.355900 1 1 1.000000
  1 4.543700 -19.432400 61.361301 -0.538800 -0.412200 0.734701 0.675200 0.355900 1 1 1.000000
blade
  1 4.543700 -19.432400 61.361301 -0.538800 -0.412200 0.734701 0.675200 0.355900 1 1 1.000000
  1 3.670000 -18.334400 61.395599 -0.440998 -0.660197 0.607997 0.641800 0.399900 1 1 1.000000
  1 3.668700 -18.333099 61.320599 -0.687287 -0.726386 -0.000300 0.641800 0.399900 1 1 1.000000
blade
  1 2.473900 -17.721901 61.352299 -0.407895 -0.912990 -0.008400 0.595500 0.424800 1 1 1.000000
  1 3.668700 -18.333099 61.320599 -0.687287 -0.726386 -0.000300 0.641800 0.399900 1 1 1.000000
  1 3.670000 -18.334400 61.395599 -0.440998 -0.660197 0.607997 0.641800 0.399900 1 1 1.000000
blade
  1 3.670000 -18.334400 61.395599 -0.440998 -0.660197 0.607997 0.641800 0.399900 1 1 1.000000
  1 2.475200 -17.723200 61.427299 -0.286212 -0.748631 0.598025 0.595500 0.424800 1 1 1.000000
  1 2.473900 -17.721901 61.352299 -0.407895 -0.912990 -0.008400 0.595500 0.424800 1 1 1.000000
blade
  1 0.914400 -17.215200 61.388699 -0.239904 -0.970717 -0.012400 0.534900 0.445900 1 1 1.000000
  1 2.473900 -17.721901 61.352299 -0.407895 -0.912990 -0.008400 0.595500 0.424800 1 1 1.000000
  1 2.475200 -17.723200 61.427299 -0.286212 -0.748631 0.598025 0.595500 0.424800 1 1 1.000000
blade
  1 2.475200 -17.723200 61.427299 -0.286212 -0.748631 0.598025 0.595500 0.424800 1 1 1.000000
  1 0.915700 -17.216499 61.463699 -0.143496 -0.653980 0.742778 0.534900 0.445900 1 1 1.000000
  1 0.914400 -17.215200 61.388699 -0.239904 -0.970717 -0.012400 0.534900 0.445900 1 1 1.000000
blade
  1 -0.609900 -17.066700 61.455898 -0.001400 -0.470105 0.882609 0.475400 0.452900 1 1 1.000000
  1 0.914400 -17.215200 61.388699 -0.239904 -0.970717 -0.012400 0.534900 0.445900 1 1 1.000000
  1 0.915700 -17.216499 61.463699 -0.143496 -0.653980 0.742778 0.534900 0.445900 1 1 1.000000
blade
  1 4.692900 -23.861101 61.207600 -0.915175 0.402389 0.023199 0.678100 0.180800 1 1 1.000000
  1 3.886100 -25.408100 61.195400 -0.727772 0.685374 0.024699 0.645600 0.120300 1 1 1.000000
  1 3.887400 -25.409405 61.270401 -0.637882 0.474387 0.606683 0.645600 0.120300 1 1 1.000000
blade
  1 3.887400 -25.409405 61.270401 -0.637882 0.474387 0.606683 0.645600 0.120300 1 1 1.000000
  1 4.694200 -23.862400 61.282600 -0.728372 0.276589 0.626876 0.678100 0.180800 1 1 1.000000
  1 4.692900 -23.861101 61.207600 -0.915175 0.402389 0.023199 0.678100 0.180800 1 1 1.000000
blade
  1 5.139299 -22.318901 61.226200 -0.981912 0.188202 0.020700 0.696600 0.241400 1 1 1.000000
  1 4.692900 -23.861101 61.207600 -0.915175 0.402389 0.023199 0.678100 0.180800 1 1 1.000000
  1 4.694200 -23.862400 61.282600 -0.728372 0.276589 0.626876 0.678100 0.180800 1 1 1.000000
blade
  1 4.694200 -23.862400 61.282600 -0.728372 0.276589 0.626876 0.678100 0.180800 1 1 1.000000
  1 5.140600 -22.320103 61.301201 -0.670395 0.074100 0.738295 0.696600 0.241400 1 1 1.000000
  1 5.139299 -22.318901 61.226200 -0.981912 0.188202 0.020700 0.696600 0.241400 1 1 1.000000
blade
  1 5.146900 -20.737900 61.253101 -0.990034 -0.140005 0.015201 0.697900 0.303900 1 1 1.000000
  1 5.139299 -22.318901 61.226200 -0.981912 0.188202 0.020700 0.696600 0.241400 1 1 1.000000
  1 5.140600 -22.320103 61.301201 -0.670395 0.074100 0.738295 0.696600 0.241400 1 1 1.000000
blade
  1 5.140600 -22.320103 61.301201 -0.670395 0.074100 0.738295 0.696600 0.241400 1 1 1.000000
  1 5.148200 -20.739201 61.328098 -0.624396 -0.190999 0.757396 0.697900 0.303900 1 1 1.000000
  1 5.146900 -20.737900 61.253101 -0.990034 -0.140005 0.015201 0.697900 0.303900 1 1 1.000000
blade
  1 4.542400 -19.431200 61.286301 -0.871300 -0.490700 0.007100 0.675200 0.355900 1 1 1.000000
  1 5.146900 -20.737900 61.253101 -0.990034 -0.140005 0.015201 0.697900 0.303900 1 1 1.000000
  1 5.148200 -20.739201 61.328098 -0.624396 -0.190999 0.757396 0.697900 0.303900 1 1 1.000000
blade
  1 3.276100 -17.338301 61.632099 0.016200 -0.019700 0.999675 0.626900 0.439600 1 1 1.000000
  1 2.475200 -17.723200 61.427299 -0.286212 -0.748631 0.598025 0.595500 0.424800 1 1 1.000000
  1 3.670000 -18.334400 61.395599 -0.440998 -0.660197 0.607997 0.641800 0.399900 1 1 1.000000
blade
  1 3.276100 -17.338301 61.632099 0.016200 -0.019700 0.999675 0.626900 0.439600 1 1 1.000000
  1 1.847700 -16.552299 61.671001 0.029099 -0.020000 0.999376 0.571600 0.471700 1 1 1.000000
  1 2.475200 -17.723200 61.427299 -0.286212 -0.748631 0.598025 0.595500 0.424800 1 1 1.000000
blade
  1 1.847700 -16.552299 61.671001 0.029099 -0.020000 0.999376 0.571600 0.471700 1 1 1.000000
  1 0.915700 -17.216499 61.463699 -0.143496 -0.653980 0.742778 0.534900 0.445900 1 1 1.000000
  1 2.475200 -17.723200 61.427299 -0.286212 -0.748631 0.598025 0.595500 0.424800 1 1 1.000000
blade
  1 1.847700 -16.552299 61.671001 0.029099 -0.020000 0.999376 0.571600 0.471700 1 1 1.000000
  1 0.189700 -15.694200 61.715099 0.053500 -0.030800 0.998093 0.507400 0.506700 1 1 1.000000
  1 0.915700 -17.216499 61.463699 -0.143496 -0.653980 0.742778 0.534900 0.445900 1 1 1.000000
blade
  1 0.189700 -15.694200 61.715099 0.053500 -0.030800 0.998093 0.507400 0.506700 1 1 1.000000
  1 -0.609900 -17.066700 61.455898 -0.001400 -0.470105 0.882609 0.475400 0.452900 1 1 1.000000
  1 0.915700 -17.216499 61.463699 -0.143496 -0.653980 0.742778 0.534900 0.445900 1 1 1.000000
blade
  1 -0.609900 -17.066700 61.455898 -0.001400 -0.470105 0.882609 0.475400 0.452900 1 1 1.000000
  1 0.189700 -15.694200 61.715099 0.053500 -0.030800 0.998093 0.507400 0.506700 1 1 1.000000
  1 -1.127700 -15.775400 61.737099 -0.010800 -0.041499 0.999080 0.455900 0.504400 1 1 1.000000
blade
  1 -1.881900 -17.373800 61.510700 0.114598 -0.205696 0.971883 0.425500 0.441600 1 1 1.000000
  1 -0.609900 -17.066700 61.455898 -0.001400 -0.470105 0.882609 0.475400 0.452900 1 1 1.000000
  1 -1.127700 -15.775400 61.737099 -0.010800 -0.041499 0.999080 0.455900 0.504400 1 1 1.000000
blade
  1 -1.881900 -17.373800 61.510700 0.114598 -0.205696 0.971883 0.425500 0.441600 1 1 1.000000
  1 -1.127700 -15.775400 61.737099 -0.010800 -0.041499 0.999080 0.455900 0.504400 1 1 1.000000
  1 -2.700300 -16.782499 61.747799 0.009600 -0.025501 0.999629 0.393800 0.465700 1 1 1.000000
blade
  1 -3.584100 -18.187799 61.527000 0.149103 -0.243705 0.958319 0.358400 0.410700 1 1 1.000000
  1 -1.881900 -17.373800 61.510700 0.114598 -0.205696 0.971883 0.425500 0.441600 1 1 1.000000
  1 -2.700300 -16.782499 61.747799 0.009600 -0.025501 0.999629 0.393800 0.465700 1 1 1.000000
blade
  1 -3.584100 -18.187799 61.527000 0.149103 -0.243705 0.958319 0.358400 0.410700 1 1 1.000000
  1 -2.700300 -16.782499 61.747799 0.009600 -0.025501 0.999629 0.393800 0.465700 1 1 1.000000
  1 -4.095600 -17.626699 61.758099 0.016399 -0.014499 0.999760 0.338700 0.433300 1 1 1.000000
blade
  1 -4.596200 -18.847900 61.533600 0.209108 -0.219509 0.952937 0.318500 0.385300 1 1 1.000000
  1 -3.584100 -18.187799 61.527000 0.149103 -0.243705 0.958319 0.358400 0.410700 1 1 1.000000
  1 -4.095600 -17.626699 61.758099 0.016399 -0.014499 0.999760 0.338700 0.433300 1 1 1.000000
blade
  1 -4.596200 -18.847900 61.533600 0.209108 -0.219509 0.952937 0.318500 0.385300 1 1 1.000000
  1 -4.095600 -17.626699 61.758099 0.016399 -0.014499 0.999760 0.338700 0.433300 1 1 1.000000
  1 -5.119800 -18.346800 61.763901 0.058200 -0.004000 0.998297 0.298200 0.405600 1 1 1.000000
blade
  1 -4.596200 -18.847900 61.533600 0.209108 -0.219509 0.952937 0.318500 0.385300 1 1 1.000000
  1 -5.119800 -18.346800 61.763901 0.058200 -0.004000 0.998297 0.298200 0.405600 1 1 1.000000
  1 -5.017701 -19.622801 61.527802 0.194099 -0.135399 0.971593 0.301500 0.355000 1 1 1.000000
blade
  1 -5.119800 -18.346800 61.763901 0.058200 -0.004000 0.998297 0.298200 0.405600 1 1 1.000000
  1 -5.947198 -18.819000 61.770500 0.051298 -0.020699 0.998469 0.265500 0.387500 1 1 1.000000
  1 -5.017701 -19.622801 61.527802 0.194099 -0.135399 0.971593 0.301500 0.355000 1 1 1.000000
blade
  1 -5.947198 -18.819000 61.770500 0.051298 -0.020699 0.998469 0.265500 0.387500 1 1 1.000000
  1 -5.354800 -20.712000 61.515099 0.139607 -0.065303 0.988051 0.287600 0.312200 1 1 1.000000
  1 -5.017701 -19.622801 61.527802 0.194099 -0.135399 0.971593 0.301500 0.355000 1 1 1.000000
blade
  1 -5.947198 -18.819000 61.770500 0.051298 -0.020699 0.998469 0.265500 0.387500 1 1 1.000000
  1 -6.966800 -19.255600 61.781101 0.028301 -0.011200 0.999537 0.225400 0.371000 1 1 1.000000
  1 -5.354800 -20.712000 61.515099 0.139607 -0.065303 0.988051 0.287600 0.312200 1 1 1.000000
blade
  1 -6.966800 -19.255600 61.781101 0.028301 -0.011200 0.999537 0.225400 0.371000 1 1 1.000000
  1 -5.254600 -22.007902 61.491100 0.082198 -0.055299 0.995081 0.290600 0.260900 1 1 1.000000
  1 -5.354800 -20.712000 61.515099 0.139607 -0.065303 0.988051 0.287600 0.312200 1 1 1.000000
blade
  1 -6.966800 -19.255600 61.781101 0.028301 -0.011200 0.999537 0.225400 0.371000 1 1 1.000000
  1 -6.006200 -21.885702 61.506500 -0.008200 -0.108397 0.994074 0.261300 0.266300 1 1 1.000000
  1 -5.254600 -22.007902 61.491100 0.082198 -0.055299 0.995081 0.290600 0.260900 1 1 1.000000
blade
  1 -11.399900 -14.120600 61.735500 0.754303 0.309301 0.579102 0.055800 0.576700 1 1 1.000000
  1 -11.676500 -12.356899 61.770699 0.826324 0.058802 0.560116 0.046100 0.646500 1 1 1.000000
  1 -12.156999 -13.502300 61.972000 0.085798 -0.008500 0.996276 0.026400 0.601800 1 1 1.000000
blade
  1 -11.399900 -14.120600 61.735500 0.754303 0.309301 0.579102 0.055800 0.576700 1 1 1.000000
  1 -12.156999 -13.502300 61.972000 0.085798 -0.008500 0.996276 0.026400 0.601800 1 1 1.000000
  1 -11.803800 -14.734400 61.944599 0.004500 0.000900 0.999989 0.039400 0.552900 1 1 1.000000
blade
  1 -10.463799 -15.592400 61.693600 0.629108 0.486306 0.606407 0.091400 0.517900 1 1 1.000000
  1 -11.399900 -14.120600 61.735500 0.754303 0.309301 0.579102 0.055800 0.576700 1 1 1.000000
  1 -11.803800 -14.734400 61.944599 0.004500 0.000900 0.999989 0.039400 0.552900 1 1 1.000000
blade
  1 -10.463799 -15.592400 61.693600 0.629108 0.486306 0.606407 0.091400 0.517900 1 1 1.000000
  1 -11.803800 -14.734400 61.944599 0.004500 0.000900 0.999989 0.039400 0.552900 1 1 1.000000
  1 -10.937500 -16.455000 61.899700 0.004800 -0.005600 0.999973 0.072100 0.484300 1 1 1.000000
blade
  1 -9.351499 -16.749701 61.653999 0.429589 0.536086 0.726681 0.134000 0.471400 1 1 1.000000
  1 -10.463799 -15.592400 61.693600 0.629108 0.486306 0.606407 0.091400 0.517900 1 1 1.000000
  1 -10.937500 -16.455000 61.899700 0.004800 -0.005600 0.999973 0.072100 0.484300 1 1 1.000000
blade
  1 -9.351499 -16.749701 61.653999 0.429589 0.536086 0.726681 0.134000 0.471400 1 1 1.000000
  1 -10.937500 -16.455000 61.899700 0.004800 -0.005600 0.999973 0.072100 0.484300 1 1 1.000000
  1 -10.089799 -17.573999 61.865398 -0.013700 -0.035699 0.999269 0.104500 0.439500 1 1 1.000000
blade
  1 -9.113001 -18.479700 61.832500 0.015000 -0.011300 0.999824 0.142100 0.403100 1 1 1.000000
  1 -9.351499 -16.749701 61.653999 0.429589 0.536086 0.726681 0.134000 0.471400 1 1 1.000000
  1 -10.089799 -17.573999 61.865398 -0.013700 -0.035699 0.999269 0.104500 0.439500 1 1 1.000000
blade
  1 -7.986200 -17.546400 61.616100 0.177996 0.628485 0.757182 0.186900 0.439000 1 1 1.000000
  1 -9.351499 -16.749701 61.653999 0.429589 0.536086 0.726681 0.134000 0.471400 1 1 1.000000
  1 -9.113001 -18.479700 61.832500 0.015000 -0.011300 0.999824 0.142100 0.403100 1 1 1.000000
blade
  1 -7.986200 -17.546400 61.616100 0.177996 0.628485 0.757182 0.186900 0.439000 1 1 1.000000
  1 -9.113001 -18.479700 61.832500 0.015000 -0.011300 0.999824 0.142100 0.403100 1 1 1.000000
  1 -8.037200 -19.149500 61.801998 0.002400 -0.034300 0.999409 0.183600 0.375900 1 1 1.000000
blade
  1 -6.966800 -19.255600 61.781101 0.028301 -0.011200 0.999537 0.225400 0.371000 1 1 1.000000
  1 -7.986200 -17.546400 61.616100 0.177996 0.628485 0.757182 0.186900 0.439000 1 1 1.000000
  1 -8.037200 -19.149500 61.801998 0.002400 -0.034300 0.999409 0.183600 0.375900 1 1 1.000000
blade
  1 -6.552101 -17.675900 61.588402 -0.057099 0.665084 0.744582 0.242800 0.432900 1 1 1.000000
  1 -7.986200 -17.546400 61.616100 0.177996 0.628485 0.757182 0.186900 0.439000 1 1 1.000000
  1 -6.966800 -19.255600 61.781101 0.028301 -0.011200 0.999537 0.225400 0.371000 1 1 1.000000
blade
  1 -6.552101 -17.675900 61.588402 -0.057099 0.665084 0.744582 0.242800 0.432900 1 1 1.000000
  1 -6.966800 -19.255600 61.781101 0.028301 -0.011200 0.999537 0.225400 0.371000 1 1 1.000000
  1 -5.947198 -18.819000 61.770500 0.051298 -0.020699 0.998469 0.265500 0.387500 1 1 1.000000
blade
  1 -5.119800 -18.346800 61.763901 0.058200 -0.004000 0.998297 0.298200 0.405600 1 1 1.000000
  1 -6.552101 -17.675900 61.588402 -0.057099 0.665084 0.744582 0.242800 0.432900 1 1 1.000000
  1 -5.947198 -18.819000 61.770500 0.051298 -0.020699 0.998469 0.265500 0.387500 1 1 1.000000
blade
  1 -5.164100 -17.467899 61.567402 -0.325794 0.705587 0.629289 0.297200 0.440200 1 1 1.000000
  1 -6.552101 -17.675900 61.588402 -0.057099 0.665084 0.744582 0.242800 0.432900 1 1 1.000000
  1 -5.119800 -18.346800 61.763901 0.058200 -0.004000 0.998297 0.298200 0.405600 1 1 1.000000
blade
  1 -5.119800 -18.346800 61.763901 0.058200 -0.004000 0.998297 0.298200 0.405600 1 1 1.000000
  1 -4.095600 -17.626699 61.758099 0.016399 -0.014499 0.999760 0.338700 0.433300 1 1 1.000000
  1 -5.164100 -17.467899 61.567402 -0.325794 0.705587 0.629289 0.297200 0.440200 1 1 1.000000
blade
  1 -4.095600 -17.626699 61.758099 0.016399 -0.014499 0.999760 0.338700 0.433300 1 1 1.000000
  1 -4.037000 -16.738701 61.559898 -0.480003 0.615704 0.624904 0.341700 0.468200 1 1 1.000000
  1 -5.164100 -17.467899 61.567402 -0.325794 0.705587 0.629289 0.297200 0.440200 1 1 1.000000
blade
  1 -4.095600 -17.626699 61.758099 0.016399 -0.014499 0.999760 0.338700 0.433300 1 1 1.000000
  1 -2.700300 -16.782499 61.747799 0.009600 -0.025501 0.999629 0.393800 0.465700 1 1 1.000000
  1 -4.037000 -16.738701 61.559898 -0.480003 0.615704 0.624904 0.341700 0.468200 1 1 1.000000
blade
  1 -2.700300 -16.782499 61.747799 0.009600 -0.025501 0.999629 0.393800 0.465700 1 1 1.000000
  1 -2.818100 -15.641300 61.556999 -0.463300 0.443400 0.767300 0.390100 0.510700 1 1 1.000000
  1 -4.037000 -16.738701 61.559898 -0.480003 0.615704 0.624904 0.341700 0.468200 1 1 1.000000
blade
  1 -2.700300 -16.782499 61.747799 0.009600 -0.025501 0.999629 0.393800 0.465700 1 1 1.000000
  1 -1.127700 -15.775400 61.737099 -0.010800 -0.041499 0.999080 0.455900 0.504400 1 1 1.000000
  1 -2.818100 -15.641300 61.556999 -0.463300 0.443400 0.767300 0.390100 0.510700 1 1 1.000000
blade
  1 -11.401200 -14.119300 61.660500 0.957613 0.287804 -0.012100 0.055800 0.576700 1 1 1.000000
  1 -11.677899 -12.355598 61.695702 0.999384 0.030600 -0.017200 0.046100 0.646500 1 1 1.000000
  1 -11.676500 -12.356899 61.770699 0.826324 0.058802 0.560116 0.046100 0.646500 1 1 1.000000
blade
  1 -11.676500 -12.356899 61.770699 0.826324 0.058802 0.560116 0.046100 0.646500 1 1 1.000000
  1 -11.399900 -14.120600 61.735500 0.754303 0.309301 0.579102 0.055800 0.576700 1 1 1.000000
  1 -11.401200 -14.119300 61.660500 0.957613 0.287804 -0.012100 0.055800 0.576700 1 1 1.000000
blade
  1 -10.465100 -15.591100 61.618599 0.806344 0.591432 -0.004200 0.091400 0.517900 1 1 1.000000
  1 -11.401200 -14.119300 61.660500 0.957613 0.287804 -0.012100 0.055800 0.576700 1 1 1.000000
  1 -11.399900 -14.120600 61.735500 0.754303 0.309301 0.579102 0.055800 0.576700 1 1 1.000000
blade
  1 -11.399900 -14.120600 61.735500 0.754303 0.309301 0.579102 0.055800 0.576700 1 1 1.000000
  1 -10.463799 -15.592400 61.693600 0.629108 0.486306 0.606407 0.091400 0.517900 1 1 1.000000
  1 -10.465100 -15.591100 61.618599 0.806344 0.591432 -0.004200 0.091400 0.517900 1 1 1.000000
blade
  1 -9.352800 -16.748400 61.578999 0.654210 0.756312 0.001400 0.134000 0.471400 1 1 1.000000
  1 -10.465100 -15.591100 61.618599 0.806344 0.591432 -0.004200 0.091400 0.517900 1 1 1.000000
  1 -10.463799 -15.592400 61.693600 0.629108 0.486306 0.606407 0.091400 0.517900 1 1 1.000000
blade
  1 -10.463799 -15.592400 61.693600 0.629108 0.486306 0.606407 0.091400 0.517900 1 1 1.000000
  1 -9.351499 -16.749701 61.653999 0.429589 0.536086 0.726681 0.134000 0.471400 1 1 1.000000
  1 -9.352800 -16.748400 61.578999 0.654210 0.756312 0.001400 0.134000 0.471400 1 1 1.000000
blade
  1 -7.987500 -17.545099 61.541100 0.374080 0.927350 0.009299 0.186900 0.439000 1 1 1.000000
  1 -9.352800 -16.748400 61.578999 0.654210 0.756312 0.001400 0.134000 0.471400 1 1 1.000000
  1 -9.351499 -16.749701 61.653999 0.429589 0.536086 0.726681 0.134000 0.471400 1 1 1.000000
blade
  1 -9.351499 -16.749701 61.653999 0.429589 0.536086 0.726681 0.134000 0.471400 1 1 1.000000
  1 -7.986200 -17.546400 61.616100 0.177996 0.628485 0.757182 0.186900 0.439000 1 1 1.000000
  1 -7.987500 -17.545099 61.541100 0.374080 0.927350 0.009299 0.186900 0.439000 1 1 1.000000
blade
  1 -6.553400 -17.674601 61.513401 0.010900 0.999796 0.017000 0.242800 0.432900 1 1 1.000000
  1 -7.987500 -17.545099 61.541100 0.374080 0.927350 0.009299 0.186900 0.439000 1 1 1.000000
  1 -7.986200 -17.546400 61.616100 0.177996 0.628485 0.757182 0.186900 0.439000 1 1 1.000000
blade
  1 -7.986200 -17.546400 61.616100 0.177996 0.628485 0.757182 0.186900 0.439000 1 1 1.000000
  1 -6.552101 -17.675900 61.588402 -0.057099 0.665084 0.744582 0.242800 0.432900 1 1 1.000000
  1 -6.553400 -17.674601 61.513401 0.010900 0.999796 0.017000 0.242800 0.432900 1 1 1.000000
blade
  1 -5.165401 -17.466600 61.492401 -0.285299 0.958197 0.021500 0.297200 0.440200 1 1 1.000000
  1 -6.553400 -17.674601 61.513401 0.010900 0.999796 0.017000 0.242800 0.432900 1 1 1.000000
  1 -6.552101 -17.675900 61.588402 -0.057099 0.665084 0.744582 0.242800 0.432900 1 1 1.000000
blade
  1 -6.552101 -17.675900 61.588402 -0.057099 0.665084 0.744582 0.242800 0.432900 1 1 1.000000
  1 -5.164100 -17.467899 61.567402 -0.325794 0.705587 0.629289 0.297200 0.440200 1 1 1.000000
  1 -5.165401 -17.466600 61.492401 -0.285299 0.958197 0.021500 0.297200 0.440200 1 1 1.000000
blade
  1 -4.038400 -16.737400 61.484901 -0.586606 0.809508 0.024300 0.341700 0.468200 1 1 1.000000
  1 -5.165401 -17.466600 61.492401 -0.285299 0.958197 0.021500 0.297200 0.440200 1 1 1.000000
  1 -5.164100 -17.467899 61.567402 -0.325794 0.705587 0.629289 0.297200 0.440200 1 1 1.000000
blade
  1 -5.164100 -17.467899 61.567402 -0.325794 0.705587 0.629289 0.297200 0.440200 1 1 1.000000
  1 -4.037000 -16.738701 61.559898 -0.480003 0.615704 0.624904 0.341700 0.468200 1 1 1.000000
  1 -4.038400 -16.737400 61.484901 -0.586606 0.809508 0.024300 0.341700 0.468200 1 1 1.000000
blade
  1 -2.819400 -15.640000 61.481998 -0.720409 0.693109 0.024700 0.390100 0.510700 1 1 1.000000
  1 -4.038400 -16.737400 61.484901 -0.586606 0.809508 0.024300 0.341700 0.468200 1 1 1.000000
  1 -4.037000 -16.738701 61.559898 -0.480003 0.615704 0.624904 0.341700 0.468200 1 1 1.000000
blade
  1 -4.037000 -16.738701 61.559898 -0.480003 0.615704 0.624904 0.341700 0.468200 1 1 1.000000
  1 -2.818100 -15.641300 61.556999 -0.463300 0.443400 0.767300 0.390100 0.510700 1 1 1.000000
  1 -2.819400 -15.640000 61.481998 -0.720409 0.693109 0.024700 0.390100 0.510700 1 1 1.000000
blade
  1 -1.915300 -14.380700 61.525101 -0.368796 0.227697 0.901190 0.426200 0.559900 1 1 1.000000
  1 -2.819400 -15.640000 61.481998 -0.720409 0.693109 0.024700 0.390100 0.510700 1 1 1.000000
  1 -2.818100 -15.641300 61.556999 -0.463300 0.443400 0.767300 0.390100 0.510700 1 1 1.000000
blade
  1 -1.127700 -15.775400 61.737099 -0.010800 -0.041499 0.999080 0.455900 0.504400 1 1 1.000000
  1 -1.915300 -14.380700 61.525101 -0.368796 0.227697 0.901190 0.426200 0.559900 1 1 1.000000
  1 -2.818100 -15.641300 61.556999 -0.463300 0.443400 0.767300 0.390100 0.510700 1 1 1.000000
blade
  1 -6.966800 -19.255600 61.781101 0.028301 -0.011200 0.999537 0.225400 0.371000 1 1 1.000000
  1 -7.371399 -21.349703 61.540001 -0.025601 -0.123206 0.992051 0.208300 0.288400 1 1 1.000000
  1 -6.006200 -21.885702 61.506500 -0.008200 -0.108397 0.994074 0.261300 0.266300 1 1 1.000000
blade
  1 -6.966800 -19.255600 61.781101 0.028301 -0.011200 0.999537 0.225400 0.371000 1 1 1.000000
  1 -8.037200 -19.149500 61.801998 0.002400 -0.034300 0.999409 0.183600 0.375900 1 1 1.000000
  1 -7.371399 -21.349703 61.540001 -0.025601 -0.123206 0.992051 0.208300 0.288400 1 1 1.000000
blade
  1 -8.037200 -19.149500 61.801998 0.002400 -0.034300 0.999409 0.183600 0.375900 1 1 1.000000
  1 -9.296699 -20.054899 61.596401 -0.074199 -0.140598 0.987282 0.134000 0.340800 1 1 1.000000
  1 -7.371399 -21.349703 61.540001 -0.025601 -0.123206 0.992051 0.208300 0.288400 1 1 1.000000
blade
  1 -9.113001 -18.479700 61.832500 0.015000 -0.011300 0.999824 0.142100 0.403100 1 1 1.000000
  1 -9.296699 -20.054899 61.596401 -0.074199 -0.140598 0.987282 0.134000 0.340800 1 1 1.000000
  1 -8.037200 -19.149500 61.801998 0.002400 -0.034300 0.999409 0.183600 0.375900 1 1 1.000000
blade
  1 -9.113001 -18.479700 61.832500 0.015000 -0.011300 0.999824 0.142100 0.403100 1 1 1.000000
  1 -10.723499 -18.721500 61.644600 -0.111095 -0.131595 0.985059 0.079100 0.394500 1 1 1.000000
  1 -9.296699 -20.054899 61.596401 -0.074199 -0.140598 0.987282 0.134000 0.340800 1 1 1.000000
blade
  1 -9.113001 -18.479700 61.832500 0.015000 -0.011300 0.999824 0.142100 0.403100 1 1 1.000000
  1 -10.089799 -17.573999 61.865398 -0.013700 -0.035699 0.999269 0.104500 0.439500 1 1 1.000000
  1 -10.723499 -18.721500 61.644600 -0.111095 -0.131595 0.985059 0.079100 0.394500 1 1 1.000000
blade
  1 -10.089799 -17.573999 61.865398 -0.013700 -0.035699 0.999269 0.104500 0.439500 1 1 1.000000
  1 -11.935800 -16.789700 61.699200 -0.155604 -0.113103 0.981323 0.033000 0.471600 1 1 1.000000
  1 -10.723499 -18.721500 61.644600 -0.111095 -0.131595 0.985059 0.079100 0.394500 1 1 1.000000
blade
  1 -10.937500 -16.455000 61.899700 0.004800 -0.005600 0.999973 0.072100 0.484300 1 1 1.000000
  1 -11.935800 -16.789700 61.699200 -0.155604 -0.113103 0.981323 0.033000 0.471600 1 1 1.000000
  1 -10.089799 -17.573999 61.865398 -0.013700 -0.035699 0.999269 0.104500 0.439500 1 1 1.000000
blade
  1 -10.937500 -16.455000 61.899700 0.004800 -0.005600 0.999973 0.072100 0.484300 1 1 1.000000
  1 -12.595999 -14.734900 61.746201 -0.222707 -0.093103 0.970429 0.008600 0.553300 1 1 1.000000
  1 -11.935800 -16.789700 61.699200 -0.155604 -0.113103 0.981323 0.033000 0.471600 1 1 1.000000
blade
  1 -11.803800 -14.734400 61.944599 0.004500 0.000900 0.999989 0.039400 0.552900 1 1 1.000000
  1 -12.595999 -14.734900 61.746201 -0.222707 -0.093103 0.970429 0.008600 0.553300 1 1 1.000000
  1 -10.937500 -16.455000 61.899700 0.004800 -0.005600 0.999973 0.072100 0.484300 1 1 1.000000
blade
  1 -11.803800 -14.734400 61.944599 0.004500 0.000900 0.999989 0.039400 0.552900 1 1 1.000000
  1 -12.834300 -12.948199 61.781101 -0.320893 -0.050299 0.945779 0.000500 0.624000 1 1 1.000000
  1 -12.595999 -14.734900 61.746201 -0.222707 -0.093103 0.970429 0.008600 0.553300 1 1 1.000000
blade
  1 -12.156999 -13.502300 61.972000 0.085798 -0.008500 0.996276 0.026400 0.601800 1 1 1.000000
  1 -12.834300 -12.948199 61.781101 -0.320893 -0.050299 0.945779 0.000500 0.624000 1 1 1.000000
  1 -11.803800 -14.734400 61.944599 0.004500 0.000900 0.999989 0.039400 0.552900 1 1 1.000000
blade
  1 -12.156999 -13.502300 61.972000 0.085798 -0.008500 0.996276 0.026400 0.601800 1 1 1.000000
  1 -12.237201 -12.096799 61.997501 0.035702 -0.015301 0.999245 0.024300 0.657400 1 1 1.000000
  1 -12.834300 -12.948199 61.781101 -0.320893 -0.050299 0.945779 0.000500 0.624000 1 1 1.000000
blade
  1 -12.156999 -13.502300 61.972000 0.085798 -0.008500 0.996276 0.026400 0.601800 1 1 1.000000
  1 -11.676500 -12.356899 61.770699 0.826324 0.058802 0.560116 0.046100 0.646500 1 1 1.000000
  1 -12.237201 -12.096799 61.997501 0.035702 -0.015301 0.999245 0.024300 0.657400 1 1 1.000000
blade
  1 -11.676500 -12.356899 61.770699 0.826324 0.058802 0.560116 0.046100 0.646500 1 1 1.000000
  1 -11.623400 -10.708099 61.798000 0.797522 -0.117603 0.591716 0.049300 0.711600 1 1 1.000000
  1 -12.237201 -12.096799 61.997501 0.035702 -0.015301 0.999245 0.024300 0.657400 1 1 1.000000
blade
  1 -11.623400 -10.708099 61.798000 0.797522 -0.117603 0.591716 0.049300 0.711600 1 1 1.000000
  1 -11.676500 -12.356899 61.770699 0.826324 0.058802 0.560116 0.046100 0.646500 1 1 1.000000
  1 -11.677899 -12.355598 61.695702 0.999384 0.030600 -0.017200 0.046100 0.646500 1 1 1.000000
blade
  1 -11.677899 -12.355598 61.695702 0.999384 0.030600 -0.017200 0.046100 0.646500 1 1 1.000000
  1 -11.624699 -10.706800 61.723000 0.982656 -0.184292 -0.020599 0.049300 0.711600 1 1 1.000000
  1 -11.623400 -10.708099 61.798000 0.797522 -0.117603 0.591716 0.049300 0.711600 1 1 1.000000
blade
  1 -11.156200 -8.966998 61.819599 0.830152 -0.309520 0.463729 0.068700 0.780100 1 1 1.000000
  1 -11.623400 -10.708099 61.798000 0.797522 -0.117603 0.591716 0.049300 0.711600 1 1 1.000000
  1 -11.624699 -10.706800 61.723000 0.982656 -0.184292 -0.020599 0.049300 0.711600 1 1 1.000000
blade
  1 -12.237201 -12.096799 61.997501 0.035702 -0.015301 0.999245 0.024300 0.657400 1 1 1.000000
  1 -12.696899 -11.092199 61.810501 -0.366687 0.063598 0.928168 0.007100 0.697200 1 1 1.000000
  1 -12.834300 -12.948199 61.781101 -0.320893 -0.050299 0.945779 0.000500 0.624000 1 1 1.000000
blade
  1 -12.237201 -12.096799 61.997501 0.035702 -0.015301 0.999245 0.024300 0.657400 1 1 1.000000
  1 -12.093800 -10.881399 62.015800 0.060403 -0.025701 0.997843 0.030700 0.705300 1 1 1.000000
  1 -12.696899 -11.092199 61.810501 -0.366687 0.063598 0.928168 0.007100 0.697200 1 1 1.000000
blade
  1 -12.237201 -12.096799 61.997501 0.035702 -0.015301 0.999245 0.024300 0.657400 1 1 1.000000
  1 -11.623400 -10.708099 61.798000 0.797522 -0.117603 0.591716 0.049300 0.711600 1 1 1.000000
  1 -12.093800 -10.881399 62.015800 0.060403 -0.025701 0.997843 0.030700 0.705300 1 1 1.000000
blade
  1 -11.623400 -10.708099 61.798000 0.797522 -0.117603 0.591716 0.049300 0.711600 1 1 1.000000
  1 -11.700500 -9.481699 62.032799 -0.015601 0.009100 0.999837 0.047000 0.760300 1 1 1.000000
  1 -12.093800 -10.881399 62.015800 0.060403 -0.025701 0.997843 0.030700 0.705300 1 1 1.000000
blade
  1 -11.623400 -10.708099 61.798000 0.797522 -0.117603 0.591716 0.049300 0.711600 1 1 1.000000
  1 -11.156200 -8.966998 61.819599 0.830152 -0.309520 0.463729 0.068700 0.780100 1 1 1.000000
  1 -11.700500 -9.481699 62.032799 -0.015601 0.009100 0.999837 0.047000 0.760300 1 1 1.000000
blade
  1 -11.156200 -8.966998 61.819599 0.830152 -0.309520 0.463729 0.068700 0.780100 1 1 1.000000
  1 -11.029700 -7.967699 62.046902 0.163896 -0.091998 0.982178 0.074200 0.819600 1 1 1.000000
  1 -11.700500 -9.481699 62.032799 -0.015601 0.009100 0.999837 0.047000 0.760300 1 1 1.000000
blade
  1 -11.156200 -8.966998 61.819599 0.830152 -0.309520 0.463729 0.068700 0.780100 1 1 1.000000
  1 -10.389799 -7.463399 61.831699 0.782013 -0.438608 0.442807 0.099700 0.839000 1 1 1.000000
  1 -11.029700 -7.967699 62.046902 0.163896 -0.091998 0.982178 0.074200 0.819600 1 1 1.000000
blade
  1 -10.389799 -7.463399 61.831699 0.782013 -0.438608 0.442807 0.099700 0.839000 1 1 1.000000
  1 -10.096499 -6.422699 62.056801 -0.061397 0.078096 0.995053 0.111700 0.880000 1 1 1.000000
  1 -11.029700 -7.967699 62.046902 0.163896 -0.091998 0.982178 0.074200 0.819600 1 1 1.000000
blade
  1 -10.389799 -7.463399 61.831699 0.782013 -0.438608 0.442807 0.099700 0.839000 1 1 1.000000
  1 -9.569700 -6.136198 61.839901 0.716615 -0.580913 0.386008 0.132600 0.890800 1 1 1.000000
  1 -10.096499 -6.422699 62.056801 -0.061397 0.078096 0.995053 0.111700 0.880000 1 1 1.000000
blade
  1 -9.569700 -6.136198 61.839901 0.716615 -0.580913 0.386008 0.132600 0.890800 1 1 1.000000
  1 -9.123999 -5.410898 62.056900 0.244796 -0.309095 0.918986 0.150400 0.919300 1 1 1.000000
  1 -10.096499 -6.422699 62.056801 -0.061397 0.078096 0.995053 0.111700 0.880000 1 1 1.000000
blade
  1 -9.569700 -6.136198 61.839901 0.716615 -0.580913 0.386008 0.132600 0.890800 1 1 1.000000
  1 -8.519399 -5.192297 61.837502 0.608107 -0.745509 0.272803 0.174300 0.927400 1 1 1.000000
  1 -9.123999 -5.410898 62.056900 0.244796 -0.309095 0.918986 0.150400 0.919300 1 1 1.000000
blade
  1 -8.519399 -5.192297 61.837502 0.608107 -0.745509 0.272803 0.174300 0.927400 1 1 1.000000
  1 -6.940000 -4.086999 61.828400 0.550492 -0.790689 0.267896 0.236800 0.969900 1 1 1.000000
  1 -9.123999 -5.410898 62.056900 0.244796 -0.309095 0.918986 0.150400 0.919300 1 1 1.000000
blade
  1 -9.123999 -5.410898 62.056900 0.244796 -0.309095 0.918986 0.150400 0.919300 1 1 1.000000
  1 -6.940000 -4.086999 61.828400 0.550492 -0.790689 0.267896 0.236800 0.969900 1 1 1.000000
  1 -7.453800 -4.283998 62.046501 -0.038200 0.154200 0.987301 0.216400 0.962700 1 1 1.000000
blade
  1 -6.940000 -4.086999 61.828400 0.550492 -0.790689 0.267896 0.236800 0.969900 1 1 1.000000
  1 -5.835899 -3.319398 61.821899 0.543885 -0.686582 0.482487 0.280400 0.999500 1 1 1.000000
  1 -7.453800 -4.283998 62.046501 -0.038200 0.154200 0.987301 0.216400 0.962700 1 1 1.000000
blade
  1 -7.453800 -4.283998 62.046501 -0.038200 0.154200 0.987301 0.216400 0.962700 1 1 1.000000
  1 -5.835899 -3.319398 61.821899 0.543885 -0.686582 0.482487 0.280400 0.999500 1 1 1.000000
  1 -7.039700 -3.833899 61.834499 -0.346020 0.645438 0.680940 0.233000 0.980000 1 1 1.000000
blade
  1 -7.453800 -4.283998 62.046501 -0.038200 0.154200 0.987301 0.216400 0.962700 1 1 1.000000
  1 -7.039700 -3.833899 61.834499 -0.346020 0.645438 0.680940 0.233000 0.980000 1 1 1.000000
  1 -9.255499 -5.269397 61.849201 -0.455082 0.570878 0.683373 0.145500 0.924800 1 1 1.000000
blade
  1 -9.123999 -5.410898 62.056900 0.244796 -0.309095 0.918986 0.150400 0.919300 1 1 1.000000
  1 -7.453800 -4.283998 62.046501 -0.038200 0.154200 0.987301 0.216400 0.962700 1 1 1.000000
  1 -9.255499 -5.269397 61.849201 -0.455082 0.570878 0.683373 0.145500 0.924800 1 1 1.000000
blade
  1 -9.123999 -5.410898 62.056900 0.244796 -0.309095 0.918986 0.150400 0.919300 1 1 1.000000
  1 -9.255499 -5.269397 61.849201 -0.455082 0.570878 0.683373 0.145500 0.924800 1 1 1.000000
  1 -10.096499 -6.422699 62.056801 -0.061397 0.078096 0.995053 0.111700 0.880000 1 1 1.000000
blade
  1 -10.096499 -6.422699 62.056801 -0.061397 0.078096 0.995053 0.111700 0.880000 1 1 1.000000
  1 -9.255499 -5.269397 61.849201 -0.455082 0.570878 0.683373 0.145500 0.924800 1 1 1.000000
  1 -10.190800 -6.144299 61.850800 -0.483109 0.417308 0.769714 0.108400 0.890900 1 1 1.000000
blade
  1 -10.096499 -6.422699 62.056801 -0.061397 0.078096 0.995053 0.111700 0.880000 1 1 1.000000
  1 -10.190800 -6.144299 61.850800 -0.483109 0.417308 0.769714 0.108400 0.890900 1 1 1.000000
  1 -11.348300 -7.778399 61.843399 -0.451092 0.252596 0.855985 0.062000 0.827200 1 1 1.000000
blade
  1 -11.029700 -7.967699 62.046902 0.163896 -0.091998 0.982178 0.074200 0.819600 1 1 1.000000
  1 -10.096499 -6.422699 62.056801 -0.061397 0.078096 0.995053 0.111700 0.880000 1 1 1.000000
  1 -11.348300 -7.778399 61.843399 -0.451092 0.252596 0.855985 0.062000 0.827200 1 1 1.000000
blade
  1 -11.029700 -7.967699 62.046902 0.163896 -0.091998 0.982178 0.074200 0.819600 1 1 1.000000
  1 -11.348300 -7.778399 61.843399 -0.451092 0.252596 0.855985 0.062000 0.827200 1 1 1.000000
  1 -11.700500 -9.481699 62.032799 -0.015601 0.009100 0.999837 0.047000 0.760300 1 1 1.000000
blade
  1 -11.700500 -9.481699 62.032799 -0.015601 0.009100 0.999837 0.047000 0.760300 1 1 1.000000
  1 -11.348300 -7.778399 61.843399 -0.451092 0.252596 0.855985 0.062000 0.827200 1 1 1.000000
  1 -12.060999 -9.197598 61.831699 -0.394084 0.154694 0.905962 0.033200 0.771600 1 1 1.000000
blade
  1 -11.700500 -9.481699 62.032799 -0.015601 0.009100 0.999837 0.047000 0.760300 1 1 1.000000
  1 -12.060999 -9.197598 61.831699 -0.394084 0.154694 0.905962 0.033200 0.771600 1 1 1.000000
  1 -12.696899 -11.092199 61.810501 -0.366687 0.063598 0.928168 0.007100 0.697200 1 1 1.000000
blade
  1 -12.093800 -10.881399 62.015800 0.060403 -0.025701 0.997843 0.030700 0.705300 1 1 1.000000
  1 -11.700500 -9.481699 62.032799 -0.015601 0.009100 0.999837 0.047000 0.760300 1 1 1.000000
  1 -12.696899 -11.092199 61.810501 -0.366687 0.063598 0.928168 0.007100 0.697200 1 1 1.000000
blade
  1 -11.624699 -10.706800 61.723000 0.982656 -0.184292 -0.020599 0.049300 0.711600 1 1 1.000000
  1 -11.157500 -8.965698 61.744598 0.920226 -0.390711 -0.023001 0.068700 0.780100 1 1 1.000000
  1 -11.156200 -8.966998 61.819599 0.830152 -0.309520 0.463729 0.068700 0.780100 1 1 1.000000
blade
  1 -10.389799 -7.463399 61.831699 0.782013 -0.438608 0.442807 0.099700 0.839000 1 1 1.000000
  1 -11.156200 -8.966998 61.819599 0.830152 -0.309520 0.463729 0.068700 0.780100 1 1 1.000000
  1 -11.157500 -8.965698 61.744598 0.920226 -0.390711 -0.023001 0.068700 0.780100 1 1 1.000000
blade
  1 -11.157500 -8.965698 61.744598 0.920226 -0.390711 -0.023001 0.068700 0.780100 1 1 1.000000
  1 -10.391099 -7.462098 61.756699 0.864594 -0.501897 -0.024000 0.099700 0.839000 1 1 1.000000
  1 -10.389799 -7.463399 61.831699 0.782013 -0.438608 0.442807 0.099700 0.839000 1 1 1.000000
blade
  1 -9.569700 -6.136198 61.839901 0.716615 -0.580913 0.386008 0.132600 0.890800 1 1 1.000000
  1 -10.389799 -7.463399 61.831699 0.782013 -0.438608 0.442807 0.099700 0.839000 1 1 1.000000
  1 -10.391099 -7.462098 61.756699 0.864594 -0.501897 -0.024000 0.099700 0.839000 1 1 1.000000
blade
  1 -10.391099 -7.462098 61.756699 0.864594 -0.501897 -0.024000 0.099700 0.839000 1 1 1.000000
  1 -9.571000 -6.134898 61.764900 0.735583 -0.676984 -0.024699 0.132600 0.890800 1 1 1.000000
  1 -9.569700 -6.136198 61.839901 0.716615 -0.580913 0.386008 0.132600 0.890800 1 1 1.000000
blade
  1 -8.519399 -5.192297 61.837502 0.608107 -0.745509 0.272803 0.174300 0.927400 1 1 1.000000
  1 -9.569700 -6.136198 61.839901 0.716615 -0.580913 0.386008 0.132600 0.890800 1 1 1.000000
  1 -9.571000 -6.134898 61.764900 0.735583 -0.676984 -0.024699 0.132600 0.890800 1 1 1.000000
blade
  1 -9.571000 -6.134898 61.764900 0.735583 -0.676984 -0.024699 0.132600 0.890800 1 1 1.000000
  1 -8.520700 -5.190998 61.762501 0.605820 -0.795227 -0.024401 0.174300 0.927400 1 1 1.000000
  1 -8.519399 -5.192297 61.837502 0.608107 -0.745509 0.272803 0.174300 0.927400 1 1 1.000000
blade
  1 -6.940000 -4.086999 61.828400 0.550492 -0.790689 0.267896 0.236800 0.969900 1 1 1.000000
  1 -8.519399 -5.192297 61.837502 0.608107 -0.745509 0.272803 0.174300 0.927400 1 1 1.000000
  1 -8.520700 -5.190998 61.762501 0.605820 -0.795227 -0.024401 0.174300 0.927400 1 1 1.000000
blade
  1 -8.520700 -5.190998 61.762501 0.605820 -0.795227 -0.024401 0.174300 0.927400 1 1 1.000000
  1 -6.941299 -4.085697 61.753399 0.571407 -0.820310 -0.024200 0.236800 0.969900 1 1 1.000000
  1 -6.940000 -4.086999 61.828400 0.550492 -0.790689 0.267896 0.236800 0.969900 1 1 1.000000
blade
  1 -5.835899 -3.319398 61.821899 0.543885 -0.686582 0.482487 0.280400 0.999500 1 1 1.000000
  1 -6.940000 -4.086999 61.828400 0.550492 -0.790689 0.267896 0.236800 0.969900 1 1 1.000000
  1 -6.941299 -4.085697 61.753399 0.571407 -0.820310 -0.024200 0.236800 0.969900 1 1 1.000000
blade
  1 -6.941299 -4.085697 61.753399 0.571407 -0.820310 -0.024200 0.236800 0.969900 1 1 1.000000
  1 -5.837200 -3.318096 61.746899 0.570586 -0.820881 -0.024199 0.280400 0.999500 1 1 1.000000
  1 -5.835899 -3.319398 61.821899 0.543885 -0.686582 0.482487 0.280400 0.999500 1 1 1.000000
blade
  1 -1.915300 -14.380700 61.525101 -0.957263 0.288389 0.021899 0.426200 0.559900 1 1 1.000000
  1 -1.531900 -13.112000 61.577599 -0.988708 0.148501 0.020100 0.442000 0.609700 1 1 1.000000
  1 -1.533200 -13.110699 61.502602 -0.982710 0.184002 0.020600 0.442000 0.609700 1 1 1.000000
blade
  1 -1.386600 -11.229799 61.532200 -0.999271 0.033499 0.018299 0.449000 0.683900 1 1 1.000000
  1 -1.533200 -13.110699 61.502602 -0.982710 0.184002 0.020600 0.442000 0.609700 1 1 1.000000
  1 -1.531900 -13.112000 61.577599 -0.988708 0.148501 0.020100 0.442000 0.609700 1 1 1.000000
blade
  1 -1.531900 -13.112000 61.577599 -0.988708 0.148501 0.020100 0.442000 0.609700 1 1 1.000000
  1 -1.385300 -11.231098 61.607201 -0.999790 -0.010500 0.017600 0.449000 0.683900 1 1 1.000000
  1 -1.386600 -11.229799 61.532200 -0.999271 0.033499 0.018299 0.449000 0.683900 1 1 1.000000
blade
  1 -1.452000 -10.023399 61.554100 -0.976278 -0.216095 0.013600 0.447300 0.731600 1 1 1.000000
  1 -1.386600 -11.229799 61.532200 -0.999271 0.033499 0.018299 0.449000 0.683900 1 1 1.000000
  1 -1.385300 -11.231098 61.607201 -0.999790 -0.010500 0.017600 0.449000 0.683900 1 1 1.000000
blade
  1 -1.385300 -11.231098 61.607201 -0.999790 -0.010500 0.017600 0.449000 0.683900 1 1 1.000000
  1 -1.450700 -10.024699 61.629101 -0.926486 -0.376195 0.010000 0.447300 0.731600 1 1 1.000000
  1 -1.452000 -10.023399 61.554100 -0.976278 -0.216095 0.013600 0.447300 0.731600 1 1 1.000000
blade
  1 -1.912100 -9.271198 61.575100 -0.816721 -0.577015 0.004600 0.429800 0.761700 1 1 1.000000
  1 -1.452000 -10.023399 61.554100 -0.976278 -0.216095 0.013600 0.447300 0.731600 1 1 1.000000
  1 -1.450700 -10.024699 61.629101 -0.926486 -0.376195 0.010000 0.447300 0.731600 1 1 1.000000
blade
  1 -1.450700 -10.024699 61.629101 -0.926486 -0.376195 0.010000 0.447300 0.731600 1 1 1.000000
  1 -1.910800 -9.272400 61.650200 -0.776771 -0.629776 0.003000 0.429800 0.761700 1 1 1.000000
  1 -1.912100 -9.271198 61.575100 -0.816721 -0.577015 0.004600 0.429800 0.761700 1 1 1.000000
blade
  1 -2.686800 -8.434900 61.603199 -0.643090 -0.765788 -0.001700 0.400100 0.795200 1 1 1.000000
  1 -1.912100 -9.271198 61.575100 -0.816721 -0.577015 0.004600 0.429800 0.761700 1 1 1.000000
  1 -1.910800 -9.272400 61.650200 -0.776771 -0.629776 0.003000 0.429800 0.761700 1 1 1.000000
blade
  1 -1.910800 -9.272400 61.650200 -0.776771 -0.629776 0.003000 0.429800 0.761700 1 1 1.000000
  1 -2.685400 -8.436199 61.678200 -0.540888 -0.841081 -0.004800 0.400100 0.795200 1 1 1.000000
  1 -2.686800 -8.434900 61.603199 -0.643090 -0.765788 -0.001700 0.400100 0.795200 1 1 1.000000
blade
  1 -3.859200 -7.873999 61.633701 -0.431693 -0.901987 -0.007800 0.354700 0.818200 1 1 1.000000
  1 -2.686800 -8.434900 61.603199 -0.643090 -0.765788 -0.001700 0.400100 0.795200 1 1 1.000000
  1 -2.685400 -8.436199 61.678200 -0.540888 -0.841081 -0.004800 0.400100 0.795200 1 1 1.000000
blade
  1 -2.685400 -8.436199 61.678200 -0.540888 -0.841081 -0.004800 0.400100 0.795200 1 1 1.000000
  1 -3.857800 -7.875299 61.708698 -0.431693 -0.901987 -0.007800 0.354700 0.818200 1 1 1.000000
  1 -3.859200 -7.873999 61.633701 -0.431693 -0.901987 -0.007800 0.354700 0.818200 1 1 1.000000
blade
  1 -3.427900 -28.140402 61.565899 -0.025300 -0.132999 0.990793 0.357700 0.017600 1 1 1.000000
  1 -4.849500 -27.980202 61.381500 -0.259200 -0.707001 0.658001 0.302400 0.024700 1 1 1.000000
  1 -3.624400 -28.352604 61.353298 -0.111099 -0.658094 0.744694 0.350100 0.009200 1 1 1.000000
blade
  1 -3.427900 -28.140402 61.565899 -0.025300 -0.132999 0.990793 0.357700 0.017600 1 1 1.000000
  1 -3.624400 -28.352604 61.353298 -0.111099 -0.658094 0.744694 0.350100 0.009200 1 1 1.000000
  1 -1.630800 -28.537403 61.314800 0.016600 -0.551690 0.833884 0.427800 0.000500 1 1 1.000000
blade
  1 -1.623600 -28.175602 61.533298 0.009400 0.147405 0.989031 0.428200 0.014900 1 1 1.000000
  1 -3.427900 -28.140402 61.565899 -0.025300 -0.132999 0.990793 0.357700 0.017600 1 1 1.000000
  1 -1.630800 -28.537403 61.314800 0.016600 -0.551690 0.833884 0.427800 0.000500 1 1 1.000000
blade
  1 -1.623600 -28.175602 61.533298 0.009400 0.147405 0.989031 0.428200 0.014900 1 1 1.000000
  1 -1.630800 -28.537403 61.314800 0.016600 -0.551690 0.833884 0.427800 0.000500 1 1 1.000000
  1 0.022800 -27.999104 61.507099 0.011700 -0.059099 0.998183 0.492700 0.020800 1 1 1.000000
blade
  1 0.022800 -27.999104 61.507099 0.011700 -0.059099 0.998183 0.492700 0.020800 1 1 1.000000
  1 -1.630800 -28.537403 61.314800 0.016600 -0.551690 0.833884 0.427800 0.000500 1 1 1.000000
  1 -0.045600 -28.444702 61.288200 0.073500 -0.455499 0.887197 0.489800 0.003100 1 1 1.000000
blade
  1 0.022800 -27.999104 61.507099 0.011700 -0.059099 0.998183 0.492700 0.020800 1 1 1.000000
  1 -0.045600 -28.444702 61.288200 0.073500 -0.455499 0.887197 0.489800 0.003100 1 1 1.000000
  1 1.913000 -28.047600 61.260300 0.138995 -0.387185 0.911465 0.566600 0.017400 1 1 1.000000
blade
  1 1.431500 -27.639502 61.488201 0.003800 0.024100 0.999702 0.547900 0.034000 1 1 1.000000
  1 0.022800 -27.999104 61.507099 0.011700 -0.059099 0.998183 0.492700 0.020800 1 1 1.000000
  1 1.913000 -28.047600 61.260300 0.138995 -0.387185 0.911465 0.566600 0.017400 1 1 1.000000
blade
  1 2.555700 -27.155703 61.476501 0.007200 -0.002600 0.999971 0.592200 0.052300 1 1 1.000000
  1 1.913000 -28.047600 61.260300 0.138995 -0.387185 0.911465 0.566600 0.017400 1 1 1.000000
  1 3.588900 -27.238201 61.244400 0.215005 -0.291407 0.932124 0.632700 0.048200 1 1 1.000000
blade
  1 2.555700 -27.155703 61.476501 0.007200 -0.002600 0.999971 0.592200 0.052300 1 1 1.000000
  1 1.431500 -27.639502 61.488201 0.003800 0.024100 0.999702 0.547900 0.034000 1 1 1.000000
  1 1.913000 -28.047600 61.260300 0.138995 -0.387185 0.911465 0.566600 0.017400 1 1 1.000000
blade
  1 2.555700 -27.155703 61.476501 0.007200 -0.002600 0.999971 0.592200 0.052300 1 1 1.000000
  1 1.043800 -27.310101 61.288300 -0.289597 0.724493 0.625494 0.533200 0.047100 1 1 1.000000
  1 1.431500 -27.639502 61.488201 0.003800 0.024100 0.999702 0.547900 0.034000 1 1 1.000000
blade
  1 1.043800 -27.310101 61.288300 -0.289597 0.724493 0.625494 0.533200 0.047100 1 1 1.000000
  1 0.022800 -27.999104 61.507099 0.011700 -0.059099 0.998183 0.492700 0.020800 1 1 1.000000
  1 1.431500 -27.639502 61.488201 0.003800 0.024100 0.999702 0.547900 0.034000 1 1 1.000000
blade
  1 1.043800 -27.310101 61.288300 -0.289597 0.724493 0.625494 0.533200 0.047100 1 1 1.000000
  1 -0.697500 -27.776501 61.311298 -0.141096 0.853876 0.500986 0.464800 0.029900 1 1 1.000000
  1 0.022800 -27.999104 61.507099 0.011700 -0.059099 0.998183 0.492700 0.020800 1 1 1.000000
blade
  1 -0.697500 -27.776501 61.311298 -0.141096 0.853876 0.500986 0.464800 0.029900 1 1 1.000000
  1 -1.623600 -28.175602 61.533298 0.009400 0.147405 0.989031 0.428200 0.014900 1 1 1.000000
  1 0.022800 -27.999104 61.507099 0.011700 -0.059099 0.998183 0.492700 0.020800 1 1 1.000000
blade
  1 -0.697500 -27.776501 61.311298 -0.141096 0.853876 0.500986 0.464800 0.029900 1 1 1.000000
  1 -2.382600 -27.865002 61.339699 -0.005400 0.877585 0.479391 0.398900 0.027600 1 1 1.000000
  1 -1.623600 -28.175602 61.533298 0.009400 0.147405 0.989031 0.428200 0.014900 1 1 1.000000
blade
  1 -2.382600 -27.865002 61.339699 -0.005400 0.877585 0.479391 0.398900 0.027600 1 1 1.000000
  1 -3.427900 -28.140402 61.565899 -0.025300 -0.132999 0.990793 0.357700 0.017600 1 1 1.000000
  1 -1.623600 -28.175602 61.533298 0.009400 0.147405 0.989031 0.428200 0.014900 1 1 1.000000
blade
  1 -2.382600 -27.865002 61.339699 -0.005400 0.877585 0.479391 0.398900 0.027600 1 1 1.000000
  1 -3.941800 -27.818703 61.368099 0.149705 0.894427 0.421413 0.338000 0.030500 1 1 1.000000
  1 -3.427900 -28.140402 61.565899 -0.025300 -0.132999 0.990793 0.357700 0.017600 1 1 1.000000
blade
  1 -3.941800 -27.818703 61.368099 0.149705 0.894427 0.421413 0.338000 0.030500 1 1 1.000000
  1 -4.790200 -27.804302 61.595901 0.156297 0.328494 0.931484 0.304700 0.031800 1 1 1.000000
  1 -3.427900 -28.140402 61.565899 -0.025300 -0.132999 0.990793 0.357700 0.017600 1 1 1.000000
blade
  1 -3.941800 -27.818703 61.368099 0.149705 0.894427 0.421413 0.338000 0.030500 1 1 1.000000
  1 -5.284200 -27.381302 61.399502 0.345205 0.887412 0.305504 0.285800 0.048700 1 1 1.000000
  1 -4.790200 -27.804302 61.595901 0.156297 0.328494 0.931484 0.304700 0.031800 1 1 1.000000
blade
  1 -5.284200 -27.381302 61.399502 0.345205 0.887412 0.305504 0.285800 0.048700 1 1 1.000000
  1 -7.030700 -26.566402 61.444500 0.412984 0.860366 0.298688 0.218200 0.082100 1 1 1.000000
  1 -4.790200 -27.804302 61.595901 0.156297 0.328494 0.931484 0.304700 0.031800 1 1 1.000000
blade
  1 -4.790200 -27.804302 61.595901 0.156297 0.328494 0.931484 0.304700 0.031800 1 1 1.000000
  1 -7.030700 -26.566402 61.444500 0.412984 0.860366 0.298688 0.218200 0.082100 1 1 1.000000
  1 -6.600800 -26.921501 61.643200 -0.102902 -0.150604 0.983224 0.234600 0.067900 1 1 1.000000
blade
  1 -7.030700 -26.566402 61.444500 0.412984 0.860366 0.298688 0.218200 0.082100 1 1 1.000000
  1 -8.247100 -25.994303 61.475899 0.328700 0.793800 0.511700 0.171000 0.105500 1 1 1.000000
  1 -6.600800 -26.921501 61.643200 -0.102902 -0.150604 0.983224 0.234600 0.067900 1 1 1.000000
blade
  1 -6.600800 -26.921501 61.643200 -0.102902 -0.150604 0.983224 0.234600 0.067900 1 1 1.000000
  1 -8.247100 -25.994303 61.475899 0.328700 0.793800 0.511700 0.171000 0.105500 1 1 1.000000
  1 -7.199900 -26.779402 61.443802 -0.378209 -0.649816 0.659316 0.211400 0.073800 1 1 1.000000
blade
  1 -6.600800 -26.921501 61.643200 -0.102902 -0.150604 0.983224 0.234600 0.067900 1 1 1.000000
  1 -7.199900 -26.779402 61.443802 -0.378209 -0.649816 0.659316 0.211400 0.073800 1 1 1.000000
  1 -4.849500 -27.980202 61.381500 -0.259200 -0.707001 0.658001 0.302400 0.024700 1 1 1.000000
blade
  1 -4.790200 -27.804302 61.595901 0.156297 0.328494 0.931484 0.304700 0.031800 1 1 1.000000
  1 -6.600800 -26.921501 61.643200 -0.102902 -0.150604 0.983224 0.234600 0.067900 1 1 1.000000
  1 -4.849500 -27.980202 61.381500 -0.259200 -0.707001 0.658001 0.302400 0.024700 1 1 1.000000
blade
  1 -4.790200 -27.804302 61.595901 0.156297 0.328494 0.931484 0.304700 0.031800 1 1 1.000000
  1 -4.849500 -27.980202 61.381500 -0.259200 -0.707001 0.658001 0.302400 0.024700 1 1 1.000000
  1 -3.427900 -28.140402 61.565899 -0.025300 -0.132999 0.990793 0.357700 0.017600 1 1 1.000000
blade
  1 -7.032000 -26.565102 61.369499 0.424820 0.905242 0.008000 0.218200 0.082100 1 1 1.000000
  1 -8.248500 -25.993002 61.400902 0.425793 0.904785 0.008000 0.171000 0.105500 1 1 1.000000
  1 -8.247100 -25.994303 61.475899 0.328700 0.793800 0.511700 0.171000 0.105500 1 1 1.000000
blade
  1 -8.247100 -25.994303 61.475899 0.328700 0.793800 0.511700 0.171000 0.105500 1 1 1.000000
  1 -7.030700 -26.566402 61.444500 0.412984 0.860366 0.298688 0.218200 0.082100 1 1 1.000000
  1 -7.032000 -26.565102 61.369499 0.424820 0.905242 0.008000 0.218200 0.082100 1 1 1.000000
blade
  1 -5.285500 -27.380001 61.324501 0.385984 0.922462 0.009000 0.285800 0.048700 1 1 1.000000
  1 -7.032000 -26.565102 61.369499 0.424820 0.905242 0.008000 0.218200 0.082100 1 1 1.000000
  1 -7.030700 -26.566402 61.444500 0.412984 0.860366 0.298688 0.218200 0.082100 1 1 1.000000
blade
  1 -7.030700 -26.566402 61.444500 0.412984 0.860366 0.298688 0.218200 0.082100 1 1 1.000000
  1 -5.284200 -27.381302 61.399502 0.345205 0.887412 0.305504 0.285800 0.048700 1 1 1.000000
  1 -5.285500 -27.380001 61.324501 0.385984 0.922462 0.009000 0.285800 0.048700 1 1 1.000000
blade
  1 -3.943200 -27.817402 61.293098 0.218606 0.975728 0.012900 0.338000 0.030500 1 1 1.000000
  1 -5.285500 -27.380001 61.324501 0.385984 0.922462 0.009000 0.285800 0.048700 1 1 1.000000
  1 -5.284200 -27.381302 61.399502 0.345205 0.887412 0.305504 0.285800 0.048700 1 1 1.000000
blade
  1 -5.284200 -27.381302 61.399502 0.345205 0.887412 0.305504 0.285800 0.048700 1 1 1.000000
  1 -3.941800 -27.818703 61.368099 0.149705 0.894427 0.421413 0.338000 0.030500 1 1 1.000000
  1 -3.943200 -27.817402 61.293098 0.218606 0.975728 0.012900 0.338000 0.030500 1 1 1.000000
blade
  1 -2.383900 -27.863703 61.264702 0.002600 0.999850 0.017099 0.398900 0.027600 1 1 1.000000
  1 -3.943200 -27.817402 61.293098 0.218606 0.975728 0.012900 0.338000 0.030500 1 1 1.000000
  1 -3.941800 -27.818703 61.368099 0.149705 0.894427 0.421413 0.338000 0.030500 1 1 1.000000
blade
  1 -3.941800 -27.818703 61.368099 0.149705 0.894427 0.421413 0.338000 0.030500 1 1 1.000000
  1 -2.382600 -27.865002 61.339699 -0.005400 0.877585 0.479391 0.398900 0.027600 1 1 1.000000
  1 -2.383900 -27.863703 61.264702 0.002600 0.999850 0.017099 0.398900 0.027600 1 1 1.000000
blade
  1 -0.698800 -27.775202 61.236301 -0.121501 0.992405 0.019200 0.464800 0.029900 1 1 1.000000
  1 -2.383900 -27.863703 61.264702 0.002600 0.999850 0.017099 0.398900 0.027600 1 1 1.000000
  1 -2.382600 -27.865002 61.339699 -0.005400 0.877585 0.479391 0.398900 0.027600 1 1 1.000000
blade
  1 -2.382600 -27.865002 61.339699 -0.005400 0.877585 0.479391 0.398900 0.027600 1 1 1.000000
  1 -0.697500 -27.776501 61.311298 -0.141096 0.853876 0.500986 0.464800 0.029900 1 1 1.000000
  1 -0.698800 -27.775202 61.236301 -0.121501 0.992405 0.019200 0.464800 0.029900 1 1 1.000000
blade
  1 1.042500 -27.308802 61.213299 -0.331499 0.943197 0.022100 0.533200 0.047100 1 1 1.000000
  1 -0.698800 -27.775202 61.236301 -0.121501 0.992405 0.019200 0.464800 0.029900 1 1 1.000000
  1 -0.697500 -27.776501 61.311298 -0.141096 0.853876 0.500986 0.464800 0.029900 1 1 1.000000
blade
  1 -0.697500 -27.776501 61.311298 -0.141096 0.853876 0.500986 0.464800 0.029900 1 1 1.000000
  1 1.043800 -27.310101 61.288300 -0.289597 0.724493 0.625494 0.533200 0.047100 1 1 1.000000
  1 1.042500 -27.308802 61.213299 -0.331499 0.943197 0.022100 0.533200 0.047100 1 1 1.000000
blade
  1 2.497000 -26.530003 61.200901 -0.525905 0.850207 0.023900 0.590500 0.076900 1 1 1.000000
  1 1.042500 -27.308802 61.213299 -0.331499 0.943197 0.022100 0.533200 0.047100 1 1 1.000000
  1 1.043800 -27.310101 61.288300 -0.289597 0.724493 0.625494 0.533200 0.047100 1 1 1.000000
blade
  1 1.043800 -27.310101 61.288300 -0.289597 0.724493 0.625494 0.533200 0.047100 1 1 1.000000
  1 2.498300 -26.531303 61.275902 -0.457104 0.662605 0.593305 0.590500 0.076900 1 1 1.000000
  1 2.497000 -26.530003 61.200901 -0.525905 0.850207 0.023900 0.590500 0.076900 1 1 1.000000
blade
  1 2.498300 -26.531303 61.275902 -0.457104 0.662605 0.593305 0.590500 0.076900 1 1 1.000000
  1 1.043800 -27.310101 61.288300 -0.289597 0.724493 0.625494 0.533200 0.047100 1 1 1.000000
  1 2.555700 -27.155703 61.476501 0.007200 -0.002600 0.999971 0.592200 0.052300 1 1 1.000000
blade
  1 3.732800 -26.383202 61.468899 -0.023800 0.037501 0.999013 0.638700 0.082000 1 1 1.000000
  1 2.498300 -26.531303 61.275902 -0.457104 0.662605 0.593305 0.590500 0.076900 1 1 1.000000
  1 2.555700 -27.155703 61.476501 0.007200 -0.002600 0.999971 0.592200 0.052300 1 1 1.000000
blade
  1 3.732800 -26.383202 61.468899 -0.023800 0.037501 0.999013 0.638700 0.082000 1 1 1.000000
  1 2.555700 -27.155703 61.476501 0.007200 -0.002600 0.999971 0.592200 0.052300 1 1 1.000000
  1 3.588900 -27.238201 61.244400 0.215005 -0.291407 0.932124 0.632700 0.048200 1 1 1.000000
blade
  1 3.732800 -26.383202 61.468899 -0.023800 0.037501 0.999013 0.638700 0.082000 1 1 1.000000
  1 3.588900 -27.238201 61.244400 0.215005 -0.291407 0.932124 0.632700 0.048200 1 1 1.000000
  1 4.623301 -25.460903 61.468899 0.008800 -0.037698 0.999250 0.674100 0.117900 1 1 1.000000
blade
  1 1.057600 -14.575600 61.469002 0.734312 0.678811 -0.001400 0.542300 0.550100 1 1 1.000000
  1 1.948300 -15.539000 61.474201 0.625400 0.780301 0.002300 0.576400 0.511500 1 1 1.000000
  1 1.946900 -15.537700 61.399200 0.654103 0.756404 0.001400 0.576400 0.511500 1 1 1.000000
blade
  1 3.502500 -16.604700 61.353199 0.528930 0.848649 0.005200 0.636500 0.468200 1 1 1.000000
  1 1.946900 -15.537700 61.399200 0.654103 0.756404 0.001400 0.576400 0.511500 1 1 1.000000
  1 1.948300 -15.539000 61.474201 0.625400 0.780301 0.002300 0.576400 0.511500 1 1 1.000000
blade
  1 1.948300 -15.539000 61.474201 0.625400 0.780301 0.002300 0.576400 0.511500 1 1 1.000000
  1 3.503800 -16.606001 61.428200 0.491092 0.871086 0.006200 0.636500 0.468200 1 1 1.000000
  1 3.502500 -16.604700 61.353199 0.528930 0.848649 0.005200 0.636500 0.468200 1 1 1.000000
blade
  1 4.580000 -17.150900 61.324699 0.301290 0.953469 0.011000 0.678200 0.445900 1 1 1.000000
  1 3.502500 -16.604700 61.353199 0.528930 0.848649 0.005200 0.636500 0.468200 1 1 1.000000
  1 3.503800 -16.606001 61.428200 0.491092 0.871086 0.006200 0.636500 0.468200 1 1 1.000000
blade
  1 3.503800 -16.606001 61.428200 0.491092 0.871086 0.006200 0.636500 0.468200 1 1 1.000000
  1 4.581300 -17.152201 61.399700 0.137597 0.990382 0.014500 0.678200 0.445900 1 1 1.000000
  1 4.580000 -17.150900 61.324699 0.301290 0.953469 0.011000 0.678200 0.445900 1 1 1.000000
blade
  1 5.461600 -17.128401 61.309502 -0.091097 0.995666 0.018699 0.712700 0.446200 1 1 1.000000
  1 4.580000 -17.150900 61.324699 0.301290 0.953469 0.011000 0.678200 0.445900 1 1 1.000000
  1 4.581300 -17.152201 61.399700 0.137597 0.990382 0.014500 0.678200 0.445900 1 1 1.000000
blade
  1 4.581300 -17.152201 61.399700 0.137597 0.990382 0.014500 0.678200 0.445900 1 1 1.000000
  1 5.463000 -17.129601 61.384499 -0.156805 0.987433 0.019701 0.712700 0.446200 1 1 1.000000
  1 5.461600 -17.128401 61.309502 -0.091097 0.995666 0.018699 0.712700 0.446200 1 1 1.000000
blade
  1 6.573300 -16.875401 61.294102 -0.341506 0.939617 0.022200 0.756300 0.455400 1 1 1.000000
  1 5.461600 -17.128401 61.309502 -0.091097 0.995666 0.018699 0.712700 0.446200 1 1 1.000000
  1 5.463000 -17.129601 61.384499 -0.156805 0.987433 0.019701 0.712700 0.446200 1 1 1.000000
blade
  1 5.463000 -17.129601 61.384499 -0.156805 0.987433 0.019701 0.712700 0.446200 1 1 1.000000
  1 6.574700 -16.876699 61.369099 -0.457819 0.888737 0.023401 0.756300 0.455400 1 1 1.000000
  1 6.573300 -16.875401 61.294102 -0.341506 0.939617 0.022200 0.756300 0.455400 1 1 1.000000
blade
  1 7.645600 -16.140400 61.287601 -0.565131 0.824646 0.024201 0.798700 0.483700 1 1 1.000000
  1 6.573300 -16.875401 61.294102 -0.341506 0.939617 0.022200 0.756300 0.455400 1 1 1.000000
  1 6.574700 -16.876699 61.369099 -0.457819 0.888737 0.023401 0.756300 0.455400 1 1 1.000000
blade
  1 6.574700 -16.876699 61.369099 -0.457819 0.888737 0.023401 0.756300 0.455400 1 1 1.000000
  1 7.647000 -16.141600 61.362598 -0.565131 0.824646 0.024201 0.798700 0.483700 1 1 1.000000
  1 7.645600 -16.140400 61.287601 -0.565131 0.824646 0.024201 0.798700 0.483700 1 1 1.000000
end
