// Created by Crowbar 0.74
version 1
nodes
  0 "Root" -1
  1 "Main_Base" 0
  2 "Guns_Base" 1
  3 "R_Gun" 2
  4 "R_Gun_AtchPnt" 3
  5 "L_Gun" 2
  6 "L_Gun_AtchPnt" 5
end
skeleton
  time 0
    0 0.000000 -0.000002 37.173691 0.000000 0.000000 0.000000
    1 0.000000 -0.023742 -9.707077 0.000000 0.000000 0.000000
    2 7.122766 1.685086 0.000002 0.000000 0.000000 0.000000
    3 -21.245588 -0.005135 -0.000002 0.000000 0.000000 0.000000
    4 0.301132 -27.432880 1.425652 0.000000 0.000000 -3.141592
    5 7.098359 -0.005140 -0.000002 0.000000 0.000000 0.000000
    6 -0.068640 -27.421444 1.425652 0.000000 0.000000 -3.141592
end
triangles
guns
  5 15.539386 -16.796965 29.891827 0.000000 -1.000000 0.000000 0.609600 0.236500 1 5 1.000000
  5 12.424786 -16.796965 24.735626 0.000000 -1.000000 0.000000 0.587400 0.162900 1 5 1.000000
  5 15.539386 -16.796965 24.735626 0.000000 -1.000000 0.000000 0.609600 0.162900 1 5 1.000000
guns
  5 15.539386 -16.796965 29.891827 0.000000 -1.000000 0.000000 0.609600 0.236500 1 5 1.000000
  5 12.424786 -16.796965 29.891827 0.000000 -1.000000 0.000000 0.587400 0.236500 1 5 1.000000
  5 12.424786 -16.796965 24.735626 0.000000 -1.000000 0.000000 0.587400 0.162900 1 5 1.000000
guns
  5 12.424786 -15.264965 31.423725 -0.378392 -0.244095 0.892881 0.668900 0.149400 1 5 1.000000
  5 10.892886 -15.264965 29.891827 -0.910179 -0.292893 0.292893 0.664000 0.124700 1 5 1.000000
  5 12.424786 -16.796965 29.891827 -0.450621 -0.770636 0.450621 0.680400 0.126500 1 5 1.000000
guns
  5 12.424786 -15.264965 31.423725 -0.378392 -0.244095 0.892881 0.668900 0.149400 1 5 1.000000
  5 10.892886 12.200935 29.891827 -0.842510 0.380905 0.380905 0.468200 0.124700 1 5 1.000000
  5 10.892886 -15.264965 29.891827 -0.910179 -0.292893 0.292893 0.664000 0.124700 1 5 1.000000
guns
  5 12.424786 -15.264965 31.423725 -0.378392 -0.244095 0.892881 0.668900 0.149400 1 5 1.000000
  5 12.424786 12.200935 31.423725 -0.292395 0.453392 0.841986 0.463300 0.149400 1 5 1.000000
  5 10.892886 12.200935 29.891827 -0.842510 0.380905 0.380905 0.468200 0.124700 1 5 1.000000
guns
  5 12.424786 12.200935 31.423725 -0.292395 0.453392 0.841986 0.463300 0.149400 1 5 1.000000
  5 12.424786 13.732937 29.891827 -0.292893 0.910179 0.292893 0.451800 0.126500 1 5 1.000000
  5 10.892886 12.200935 29.891827 -0.842510 0.380905 0.380905 0.468200 0.124700 1 5 1.000000
guns
  5 10.892886 12.200935 29.891827 -0.842510 0.380905 0.380905 0.468200 0.124700 1 5 1.000000
  5 12.424786 13.732937 29.891827 -0.292893 0.910179 0.292893 0.451800 0.126500 1 5 1.000000
  5 12.424786 13.732937 24.735626 -0.380905 0.842510 -0.380905 0.451800 0.049300 1 5 1.000000
guns
  5 10.892886 12.200935 29.891827 -0.842510 0.380905 0.380905 0.468200 0.124700 1 5 1.000000
  5 12.424786 13.732937 24.735626 -0.380905 0.842510 -0.380905 0.451800 0.049300 1 5 1.000000
  5 10.892886 12.200935 24.735626 -0.910179 0.292893 -0.292893 0.468200 0.051100 1 5 1.000000
guns
  5 10.892886 12.200935 24.735626 -0.910179 0.292893 -0.292893 0.468200 0.051100 1 5 1.000000
  5 12.424786 13.732937 24.735626 -0.380905 0.842510 -0.380905 0.451800 0.049300 1 5 1.000000
  5 12.424786 12.200935 23.203627 -0.378392 0.244095 -0.892881 0.463300 0.026400 1 5 1.000000
guns
  5 10.892886 -15.264965 24.735626 -0.842510 -0.380905 -0.380905 0.664000 0.051100 1 5 1.000000
  5 10.892886 12.200935 24.735626 -0.910179 0.292893 -0.292893 0.468200 0.051100 1 5 1.000000
  5 12.424786 12.200935 23.203627 -0.378392 0.244095 -0.892881 0.463300 0.026400 1 5 1.000000
guns
  5 10.892886 -15.264965 24.735626 -0.842510 -0.380905 -0.380905 0.664000 0.051100 1 5 1.000000
  5 12.424786 12.200935 23.203627 -0.378392 0.244095 -0.892881 0.463300 0.026400 1 5 1.000000
  5 12.424786 -15.264965 23.203627 -0.292395 -0.453392 -0.841986 0.668900 0.026400 1 5 1.000000
guns
  5 12.424786 -16.796965 24.735626 -0.476517 -0.738826 -0.476517 0.680400 0.049300 1 5 1.000000
  5 10.892886 -15.264965 24.735626 -0.842510 -0.380905 -0.380905 0.664000 0.051100 1 5 1.000000
  5 12.424786 -15.264965 23.203627 -0.292395 -0.453392 -0.841986 0.668900 0.026400 1 5 1.000000
guns
  5 12.424786 -16.796965 29.891827 -0.450621 -0.770636 0.450621 0.680400 0.126500 1 5 1.000000
  5 10.892886 -15.264965 24.735626 -0.842510 -0.380905 -0.380905 0.664000 0.051100 1 5 1.000000
  5 12.424786 -16.796965 24.735626 -0.476517 -0.738826 -0.476517 0.680400 0.049300 1 5 1.000000
guns
  5 12.424786 -16.796965 29.891827 -0.450621 -0.770636 0.450621 0.680400 0.126500 1 5 1.000000
  5 10.892886 -15.264965 29.891827 -0.910179 -0.292893 0.292893 0.664000 0.124700 1 5 1.000000
  5 10.892886 -15.264965 24.735626 -0.842510 -0.380905 -0.380905 0.664000 0.051100 1 5 1.000000
guns
  5 10.892886 -15.264965 29.891827 -0.910179 -0.292893 0.292893 0.664000 0.124700 1 5 1.000000
  5 10.892886 12.200935 24.735626 -0.910179 0.292893 -0.292893 0.468200 0.051100 1 5 1.000000
  5 10.892886 -15.264965 24.735626 -0.842510 -0.380905 -0.380905 0.664000 0.051100 1 5 1.000000
guns
  5 10.892886 -15.264965 29.891827 -0.910179 -0.292893 0.292893 0.664000 0.124700 1 5 1.000000
  5 10.892886 12.200935 29.891827 -0.842510 0.380905 0.380905 0.468200 0.124700 1 5 1.000000
  5 10.892886 12.200935 24.735626 -0.910179 0.292893 -0.292893 0.468200 0.051100 1 5 1.000000
guns
  5 14.039186 -23.093964 28.717827 0.000000 -1.000000 0.000000 0.049200 0.890100 1 5 1.000000
  5 15.201286 -23.093964 28.717827 0.000000 -1.000000 0.000000 0.070800 0.890100 1 5 1.000000
  5 14.860886 -23.093964 29.539627 0.000000 -1.000000 0.000000 0.064500 0.920700 1 5 1.000000
guns
  5 14.039186 -23.093964 28.717827 0.000000 -1.000000 0.000000 0.049200 0.890100 1 5 1.000000
  5 14.860886 -23.093964 27.896126 0.000000 -1.000000 0.000000 0.064500 0.859500 1 5 1.000000
  5 15.201286 -23.093964 28.717827 0.000000 -1.000000 0.000000 0.070800 0.890100 1 5 1.000000
guns
  5 14.039186 -23.093964 28.717827 0.000000 -1.000000 0.000000 0.049200 0.890100 1 5 1.000000
  5 14.039186 -23.093964 27.555727 0.000000 -1.000000 0.000000 0.049200 0.846800 1 5 1.000000
  5 14.860886 -23.093964 27.896126 0.000000 -1.000000 0.000000 0.064500 0.859500 1 5 1.000000
guns
  5 14.039186 -23.093964 28.717827 0.000000 -1.000000 0.000000 0.049200 0.890100 1 5 1.000000
  5 13.217386 -23.093964 27.896126 0.000000 -1.000000 0.000000 0.033900 0.859500 1 5 1.000000
  5 14.039186 -23.093964 27.555727 0.000000 -1.000000 0.000000 0.049200 0.846800 1 5 1.000000
guns
  5 14.039186 -23.093964 28.717827 0.000000 -1.000000 0.000000 0.049200 0.890100 1 5 1.000000
  5 12.876986 -23.093964 28.717827 0.000000 -1.000000 0.000000 0.027500 0.890100 1 5 1.000000
  5 13.217386 -23.093964 27.896126 0.000000 -1.000000 0.000000 0.033900 0.859500 1 5 1.000000
guns
  5 14.039186 -23.093964 28.717827 0.000000 -1.000000 0.000000 0.049200 0.890100 1 5 1.000000
  5 13.217386 -23.093964 29.539627 0.000000 -1.000000 0.000000 0.033900 0.920700 1 5 1.000000
  5 12.876986 -23.093964 28.717827 0.000000 -1.000000 0.000000 0.027500 0.890100 1 5 1.000000
guns
  5 14.039186 -23.093964 28.717827 0.000000 -1.000000 0.000000 0.049200 0.890100 1 5 1.000000
  5 14.039186 -23.093964 29.880026 0.000000 -1.000000 0.000000 0.049200 0.933300 1 5 1.000000
  5 13.217386 -23.093964 29.539627 0.000000 -1.000000 0.000000 0.033900 0.920700 1 5 1.000000
guns
  5 14.039186 -23.093964 28.717827 0.000000 -1.000000 0.000000 0.049200 0.890100 1 5 1.000000
  5 14.860886 -23.093964 29.539627 0.000000 -1.000000 0.000000 0.064500 0.920700 1 5 1.000000
  5 14.039186 -23.093964 29.880026 0.000000 -1.000000 0.000000 0.049200 0.933300 1 5 1.000000
guns
  5 12.876986 -16.689964 28.717827 -0.990599 0.000000 -0.136800 0.007800 0.592400 1 5 1.000000
  5 13.217386 -23.093964 27.896126 -0.797207 0.000000 -0.603705 0.017400 0.692600 1 5 1.000000
  5 12.876986 -23.093964 28.717827 -0.990599 0.000000 0.136800 0.007800 0.692600 1 5 1.000000
guns
  5 12.876986 -16.689964 28.717827 -0.990599 0.000000 -0.136800 0.007800 0.592400 1 5 1.000000
  5 13.217386 -16.689964 27.896126 -0.603705 0.000000 -0.797207 0.017400 0.592400 1 5 1.000000
  5 13.217386 -23.093964 27.896126 -0.797207 0.000000 -0.603705 0.017400 0.692600 1 5 1.000000
guns
  5 13.217386 -16.689964 27.896126 -0.603705 0.000000 -0.797207 0.017400 0.592400 1 5 1.000000
  5 14.039186 -23.093964 27.555727 -0.136800 0.000000 -0.990599 0.027000 0.692600 1 5 1.000000
  5 13.217386 -23.093964 27.896126 -0.797207 0.000000 -0.603705 0.017400 0.692600 1 5 1.000000
guns
  5 13.217386 -16.689964 27.896126 -0.603705 0.000000 -0.797207 0.017400 0.592400 1 5 1.000000
  5 14.039186 -16.689964 27.555727 0.136800 0.000000 -0.990599 0.027000 0.592400 1 5 1.000000
  5 14.039186 -23.093964 27.555727 -0.136800 0.000000 -0.990599 0.027000 0.692600 1 5 1.000000
guns
  5 14.039186 -16.689964 27.555727 0.136800 0.000000 -0.990599 0.027000 0.592400 1 5 1.000000
  5 14.860886 -23.093964 27.896126 0.603705 0.000000 -0.797207 0.036600 0.692600 1 5 1.000000
  5 14.039186 -23.093964 27.555727 -0.136800 0.000000 -0.990599 0.027000 0.692600 1 5 1.000000
guns
  5 14.039186 -16.689964 27.555727 0.136800 0.000000 -0.990599 0.027000 0.592400 1 5 1.000000
  5 14.860886 -16.689964 27.896126 0.797207 0.000000 -0.603705 0.036600 0.592400 1 5 1.000000
  5 14.860886 -23.093964 27.896126 0.603705 0.000000 -0.797207 0.036600 0.692600 1 5 1.000000
guns
  5 14.860886 -16.689964 27.896126 0.797207 0.000000 -0.603705 0.036600 0.592400 1 5 1.000000
  5 15.201286 -23.093964 28.717827 0.990599 0.000000 -0.136800 0.046200 0.692600 1 5 1.000000
  5 14.860886 -23.093964 27.896126 0.603705 0.000000 -0.797207 0.036600 0.692600 1 5 1.000000
guns
  5 14.860886 -16.689964 27.896126 0.797207 0.000000 -0.603705 0.036600 0.592400 1 5 1.000000
  5 15.201286 -16.689964 28.717827 0.990599 0.000000 0.136800 0.046200 0.592400 1 5 1.000000
  5 15.201286 -23.093964 28.717827 0.990599 0.000000 -0.136800 0.046200 0.692600 1 5 1.000000
guns
  5 15.201286 -16.689964 28.717827 0.990599 0.000000 0.136800 0.046200 0.592400 1 5 1.000000
  5 14.860886 -23.093964 29.539627 0.797207 0.000000 0.603705 0.055700 0.692600 1 5 1.000000
  5 15.201286 -23.093964 28.717827 0.990599 0.000000 -0.136800 0.046200 0.692600 1 5 1.000000
guns
  5 15.201286 -16.689964 28.717827 0.990599 0.000000 0.136800 0.046200 0.592400 1 5 1.000000
  5 14.860886 -16.689964 29.539627 0.603705 0.000000 0.797207 0.055700 0.592400 1 5 1.000000
  5 14.860886 -23.093964 29.539627 0.797207 0.000000 0.603705 0.055700 0.692600 1 5 1.000000
guns
  5 14.860886 -16.689964 29.539627 0.603705 0.000000 0.797207 0.055700 0.592400 1 5 1.000000
  5 14.039186 -23.093964 29.880026 0.136800 0.000000 0.990599 0.065300 0.692600 1 5 1.000000
  5 14.860886 -23.093964 29.539627 0.797207 0.000000 0.603705 0.055700 0.692600 1 5 1.000000
guns
  5 14.860886 -16.689964 29.539627 0.603705 0.000000 0.797207 0.055700 0.592400 1 5 1.000000
  5 14.039186 -16.689964 29.880026 -0.136800 0.000000 0.990599 0.065300 0.592400 1 5 1.000000
  5 14.039186 -23.093964 29.880026 0.136800 0.000000 0.990599 0.065300 0.692600 1 5 1.000000
guns
  5 14.039186 -16.689964 29.880026 -0.136800 0.000000 0.990599 0.065300 0.592400 1 5 1.000000
  5 13.217386 -23.093964 29.539627 -0.603705 0.000000 0.797207 0.074800 0.692600 1 5 1.000000
  5 14.039186 -23.093964 29.880026 0.136800 0.000000 0.990599 0.065300 0.692600 1 5 1.000000
guns
  5 14.039186 -16.689964 29.880026 -0.136800 0.000000 0.990599 0.065300 0.592400 1 5 1.000000
  5 13.217386 -16.689964 29.539627 -0.797207 0.000000 0.603705 0.074800 0.592400 1 5 1.000000
  5 13.217386 -23.093964 29.539627 -0.603705 0.000000 0.797207 0.074800 0.692600 1 5 1.000000
guns
  5 13.217386 -16.689964 29.539627 -0.797207 0.000000 0.603705 0.074800 0.592400 1 5 1.000000
  5 12.876986 -23.093964 28.717827 -0.990599 0.000000 0.136800 0.084400 0.692600 1 5 1.000000
  5 13.217386 -23.093964 29.539627 -0.603705 0.000000 0.797207 0.074800 0.692600 1 5 1.000000
guns
  5 13.217386 -16.689964 29.539627 -0.797207 0.000000 0.603705 0.074800 0.592400 1 5 1.000000
  5 12.876986 -16.689964 28.717827 -0.990599 0.000000 -0.136800 0.084400 0.592400 1 5 1.000000
  5 12.876986 -23.093964 28.717827 -0.990599 0.000000 0.136800 0.084400 0.692600 1 5 1.000000
guns
  5 15.539386 -15.264965 31.423725 0.292395 -0.453392 0.841986 0.987200 0.042400 1 5 1.000000
  5 12.424786 -16.796965 29.891827 -0.450621 -0.770636 0.450621 0.965000 0.011500 1 5 1.000000
  5 15.539386 -16.796965 29.891827 0.476517 -0.738826 0.476517 0.987200 0.011500 1 5 1.000000
guns
  5 15.539386 -15.264965 31.423725 0.292395 -0.453392 0.841986 0.987200 0.042400 1 5 1.000000
  5 12.424786 -15.264965 31.423725 -0.378392 -0.244095 0.892881 0.965000 0.042400 1 5 1.000000
  5 12.424786 -16.796965 29.891827 -0.450621 -0.770636 0.450621 0.965000 0.011500 1 5 1.000000
guns
  5 15.539386 12.200935 31.423725 0.378392 0.244095 0.892881 0.987200 0.434200 1 5 1.000000
  5 12.424786 -15.264965 31.423725 -0.378392 -0.244095 0.892881 0.965000 0.042400 1 5 1.000000
  5 15.539386 -15.264965 31.423725 0.292395 -0.453392 0.841986 0.987200 0.042400 1 5 1.000000
guns
  5 15.539386 12.200935 31.423725 0.378392 0.244095 0.892881 0.987200 0.434200 1 5 1.000000
  5 12.424786 12.200935 31.423725 -0.292395 0.453392 0.841986 0.965000 0.434200 1 5 1.000000
  5 12.424786 -15.264965 31.423725 -0.378392 -0.244095 0.892881 0.965000 0.042400 1 5 1.000000
guns
  5 12.424786 12.200935 31.423725 -0.292395 0.453392 0.841986 0.965000 0.434200 1 5 1.000000
  5 15.539386 12.200935 31.423725 0.378392 0.244095 0.892881 0.987200 0.434200 1 5 1.000000
  5 15.539386 13.732937 29.891827 0.380905 0.842510 0.380905 0.987200 0.465300 1 5 1.000000
guns
  5 12.424786 12.200935 31.423725 -0.292395 0.453392 0.841986 0.965000 0.434200 1 5 1.000000
  5 15.539386 13.732937 29.891827 0.380905 0.842510 0.380905 0.987200 0.465300 1 5 1.000000
  5 12.424786 13.732937 29.891827 -0.292893 0.910179 0.292893 0.965000 0.465300 1 5 1.000000
guns
  5 12.424786 13.732937 29.891827 -0.292893 0.910179 0.292893 0.965000 0.465300 1 5 1.000000
  5 15.539386 13.732937 29.891827 0.380905 0.842510 0.380905 0.987200 0.465300 1 5 1.000000
  5 15.539386 13.732937 24.735626 0.292893 0.910179 -0.292893 0.987200 0.538900 1 5 1.000000
guns
  5 12.424786 13.732937 29.891827 -0.292893 0.910179 0.292893 0.965000 0.465300 1 5 1.000000
  5 15.539386 13.732937 24.735626 0.292893 0.910179 -0.292893 0.987200 0.538900 1 5 1.000000
  5 12.424786 13.732937 24.735626 -0.380905 0.842510 -0.380905 0.965000 0.538900 1 5 1.000000
guns
  5 12.424786 13.732937 24.735626 -0.380905 0.842510 -0.380905 0.965000 0.538900 1 5 1.000000
  5 15.539386 13.732937 24.735626 0.292893 0.910179 -0.292893 0.987200 0.538900 1 5 1.000000
  5 15.539386 12.200935 23.203627 0.292395 0.453392 -0.841986 0.987200 0.570200 1 5 1.000000
guns
  5 12.424786 13.732937 24.735626 -0.380905 0.842510 -0.380905 0.965000 0.538900 1 5 1.000000
  5 15.539386 12.200935 23.203627 0.292395 0.453392 -0.841986 0.987200 0.570200 1 5 1.000000
  5 12.424786 12.200935 23.203627 -0.378392 0.244095 -0.892881 0.965000 0.570200 1 5 1.000000
guns
  5 12.424786 12.200935 23.203627 -0.378392 0.244095 -0.892881 0.965000 0.570200 1 5 1.000000
  5 15.539386 12.200935 23.203627 0.292395 0.453392 -0.841986 0.987200 0.570200 1 5 1.000000
  5 15.539386 -15.264965 23.203627 0.378392 -0.244095 -0.892881 0.987200 0.962300 1 5 1.000000
guns
  5 12.424786 12.200935 23.203627 -0.378392 0.244095 -0.892881 0.965000 0.570200 1 5 1.000000
  5 15.539386 -15.264965 23.203627 0.378392 -0.244095 -0.892881 0.987200 0.962300 1 5 1.000000
  5 12.424786 -15.264965 23.203627 -0.292395 -0.453392 -0.841986 0.965000 0.962300 1 5 1.000000
guns
  5 15.539386 -16.796965 24.735626 0.450621 -0.770636 -0.450621 0.987200 0.993100 1 5 1.000000
  5 12.424786 -15.264965 23.203627 -0.292395 -0.453392 -0.841986 0.965000 0.962300 1 5 1.000000
  5 15.539386 -15.264965 23.203627 0.378392 -0.244095 -0.892881 0.987200 0.962300 1 5 1.000000
guns
  5 15.539386 -16.796965 24.735626 0.450621 -0.770636 -0.450621 0.987200 0.993100 1 5 1.000000
  5 12.424786 -16.796965 24.735626 -0.476517 -0.738826 -0.476517 0.965000 0.993100 1 5 1.000000
  5 12.424786 -15.264965 23.203627 -0.292395 -0.453392 -0.841986 0.965000 0.962300 1 5 1.000000
guns
  5 15.539386 12.200935 31.423725 0.378392 0.244095 0.892881 0.902600 0.147900 1 5 1.000000
  5 17.071285 12.200935 29.891827 0.910179 0.292893 0.292893 0.897700 0.123200 1 5 1.000000
  5 15.539386 13.732937 29.891827 0.380905 0.842510 0.380905 0.914100 0.125000 1 5 1.000000
guns
  5 15.539386 12.200935 31.423725 0.378392 0.244095 0.892881 0.902600 0.147900 1 5 1.000000
  5 17.071285 -15.264965 29.891827 0.842510 -0.380905 0.380905 0.701900 0.123200 1 5 1.000000
  5 17.071285 12.200935 29.891827 0.910179 0.292893 0.292893 0.897700 0.123200 1 5 1.000000
guns
  5 15.539386 12.200935 31.423725 0.378392 0.244095 0.892881 0.902600 0.147900 1 5 1.000000
  5 15.539386 -15.264965 31.423725 0.292395 -0.453392 0.841986 0.697000 0.147900 1 5 1.000000
  5 17.071285 -15.264965 29.891827 0.842510 -0.380905 0.380905 0.701900 0.123200 1 5 1.000000
guns
  5 15.539386 -15.264965 31.423725 0.292395 -0.453392 0.841986 0.697000 0.147900 1 5 1.000000
  5 15.539386 -16.796965 29.891827 0.476517 -0.738826 0.476517 0.685600 0.125000 1 5 1.000000
  5 17.071285 -15.264965 29.891827 0.842510 -0.380905 0.380905 0.701900 0.123200 1 5 1.000000
guns
  5 17.071285 -15.264965 29.891827 0.842510 -0.380905 0.380905 0.701900 0.123200 1 5 1.000000
  5 15.539386 -16.796965 29.891827 0.476517 -0.738826 0.476517 0.685600 0.125000 1 5 1.000000
  5 15.539386 -16.796965 24.735626 0.450621 -0.770636 -0.450621 0.685600 0.047800 1 5 1.000000
guns
  5 17.071285 -15.264965 29.891827 0.842510 -0.380905 0.380905 0.701900 0.123200 1 5 1.000000
  5 15.539386 -16.796965 24.735626 0.450621 -0.770636 -0.450621 0.685600 0.047800 1 5 1.000000
  5 17.071285 -15.264965 24.735626 0.910179 -0.292893 -0.292893 0.701900 0.049600 1 5 1.000000
guns
  5 17.071285 -15.264965 24.735626 0.910179 -0.292893 -0.292893 0.701900 0.049600 1 5 1.000000
  5 15.539386 -16.796965 24.735626 0.450621 -0.770636 -0.450621 0.685600 0.047800 1 5 1.000000
  5 15.539386 -15.264965 23.203627 0.378392 -0.244095 -0.892881 0.697000 0.024900 1 5 1.000000
guns
  5 17.071285 12.200935 24.735626 0.842510 0.380905 -0.380905 0.897700 0.049600 1 5 1.000000
  5 17.071285 -15.264965 24.735626 0.910179 -0.292893 -0.292893 0.701900 0.049600 1 5 1.000000
  5 15.539386 -15.264965 23.203627 0.378392 -0.244095 -0.892881 0.697000 0.024900 1 5 1.000000
guns
  5 17.071285 12.200935 24.735626 0.842510 0.380905 -0.380905 0.897700 0.049600 1 5 1.000000
  5 15.539386 -15.264965 23.203627 0.378392 -0.244095 -0.892881 0.697000 0.024900 1 5 1.000000
  5 15.539386 12.200935 23.203627 0.292395 0.453392 -0.841986 0.902600 0.024900 1 5 1.000000
guns
  5 15.539386 13.732937 24.735626 0.292893 0.910179 -0.292893 0.914100 0.047800 1 5 1.000000
  5 17.071285 12.200935 24.735626 0.842510 0.380905 -0.380905 0.897700 0.049600 1 5 1.000000
  5 15.539386 12.200935 23.203627 0.292395 0.453392 -0.841986 0.902600 0.024900 1 5 1.000000
guns
  5 15.539386 13.732937 29.891827 0.380905 0.842510 0.380905 0.914100 0.125000 1 5 1.000000
  5 17.071285 12.200935 24.735626 0.842510 0.380905 -0.380905 0.897700 0.049600 1 5 1.000000
  5 15.539386 13.732937 24.735626 0.292893 0.910179 -0.292893 0.914100 0.047800 1 5 1.000000
guns
  5 15.539386 13.732937 29.891827 0.380905 0.842510 0.380905 0.914100 0.125000 1 5 1.000000
  5 17.071285 12.200935 29.891827 0.910179 0.292893 0.292893 0.897700 0.123200 1 5 1.000000
  5 17.071285 12.200935 24.735626 0.842510 0.380905 -0.380905 0.897700 0.049600 1 5 1.000000
guns
  5 17.071285 12.200935 29.891827 0.910179 0.292893 0.292893 0.897700 0.123200 1 5 1.000000
  5 17.071285 -15.264965 24.735626 0.910179 -0.292893 -0.292893 0.701900 0.049600 1 5 1.000000
  5 17.071285 12.200935 24.735626 0.842510 0.380905 -0.380905 0.897700 0.049600 1 5 1.000000
guns
  5 17.071285 12.200935 29.891827 0.910179 0.292893 0.292893 0.897700 0.123200 1 5 1.000000
  5 17.071285 -15.264965 29.891827 0.842510 -0.380905 0.380905 0.701900 0.123200 1 5 1.000000
  5 17.071285 -15.264965 24.735626 0.910179 -0.292893 -0.292893 0.701900 0.049600 1 5 1.000000
end
