// Created by Crowbar 0.74
version 1
nodes
  0 "Root" -1
  1 "Main_Base" 0
  2 "Guns_Base" 1
  3 "R_Gun" 2
  4 "R_Gun_AtchPnt" 3
  5 "L_Gun" 2
  6 "L_Gun_AtchPnt" 5
end
skeleton
  time 0
    0 0.000000 -0.000002 37.173691 0.000000 0.000000 0.000000
    1 0.000000 -0.023742 -9.707077 0.000000 0.000000 0.000000
    2 7.122766 1.685086 0.000002 0.000000 0.000000 0.000000
    3 -21.245588 -0.005135 -0.000002 0.000000 0.000000 0.000000
    4 0.301132 -27.432880 1.425652 0.000000 0.000000 -3.141592
    5 7.098359 -0.005140 -0.000002 0.000000 0.000000 0.000000
    6 -0.068640 -27.421444 1.425652 0.000000 0.000000 -3.141592
end
triangles
guns
  0 -18.635500 5.327200 10.452000 -0.065303 0.996846 0.045102 0.059500 0.145000 1 0 1.000000
  0 -13.099800 5.658100 11.152000 -0.065303 0.996846 0.045102 0.025900 0.153500 1 0 1.000000
  0 -15.743900 5.629300 7.962500 -0.065303 0.996846 0.045102 0.041900 0.114800 1 0 1.000000
guns
  0 13.099500 -5.606200 11.152000 -0.769932 0.000000 -0.638126 0.211000 0.192200 1 0 1.000000
  0 13.099500 5.681900 11.152000 -0.769932 0.000000 -0.638126 0.211000 0.329100 1 0 1.000000
  0 15.743100 5.636700 7.962500 -0.769932 0.000000 -0.638126 0.185900 0.328600 1 0 1.000000
guns
  0 15.743100 5.636700 7.962500 -0.769932 0.000000 -0.638126 0.185900 0.328600 1 0 1.000000
  0 15.743100 -5.561100 7.962500 -0.769932 0.000000 -0.638126 0.185900 0.192800 1 0 1.000000
  0 13.099500 -5.606200 11.152000 -0.769932 0.000000 -0.638126 0.211000 0.192200 1 0 1.000000
guns
  0 42.836399 2.845200 1.706902 0.992094 0.000000 -0.125499 0.241000 0.039000 1 0 1.000000
  0 42.836399 -2.769500 1.706902 0.992094 0.000000 -0.125499 0.207100 0.039000 1 0 1.000000
  0 42.622601 -2.769500 0.016499 0.992094 0.000000 -0.125499 0.206500 0.018500 1 0 1.000000
guns
  0 42.622601 -2.769500 0.016499 0.992094 0.000000 -0.125499 0.206500 0.018500 1 0 1.000000
  0 42.622601 2.845200 0.016499 0.992094 0.000000 -0.125499 0.241600 0.018500 1 0 1.000000
  0 42.836399 2.845200 1.706902 0.992094 0.000000 -0.125499 0.241000 0.039000 1 0 1.000000
guns
  0 -13.099800 5.658100 11.152000 0.769883 0.000000 -0.638185 0.211000 0.192200 1 0 1.000000
  0 -13.099800 -5.630100 11.152000 0.769883 0.000000 -0.638185 0.211000 0.329100 1 0 1.000000
  0 -15.743900 -5.568500 7.962500 0.769883 0.000000 -0.638185 0.185900 0.328600 1 0 1.000000
guns
  0 -15.743900 -5.568500 7.962500 0.769883 0.000000 -0.638185 0.185900 0.328600 1 0 1.000000
  0 -15.743900 5.629300 7.962500 0.769883 0.000000 -0.638185 0.185900 0.192800 1 0 1.000000
  0 -13.099800 5.658100 11.152000 0.769883 0.000000 -0.638185 0.211000 0.192200 1 0 1.000000
guns
  0 -18.635500 -5.266500 10.452000 -0.339799 0.000000 0.940498 0.263700 0.324800 1 0 1.000000
  0 -18.635500 5.327200 10.452000 -0.339799 0.000000 0.940498 0.263700 0.196300 1 0 1.000000
  0 -42.837200 2.837700 1.706902 -0.339799 0.000000 0.940498 0.419700 0.226500 1 0 1.000000
guns
  0 -42.837200 2.837700 1.706902 -0.339799 0.000000 0.940498 0.419700 0.226500 1 0 1.000000
  0 -42.837200 -2.777000 1.706902 -0.339799 0.000000 0.940498 0.419700 0.294600 1 0 1.000000
  0 -18.635500 -5.266500 10.452000 -0.339799 0.000000 0.940498 0.263700 0.324800 1 0 1.000000
guns
  0 13.099500 5.681900 11.152000 0.704703 0.709503 0.000000 0.933400 0.764700 1 0 1.000000
  0 5.640300 13.091300 15.356800 0.704703 0.709503 0.000000 0.909500 0.653700 1 0 1.000000
  0 13.099500 5.681900 15.356800 0.704703 0.709503 0.000000 0.949200 0.732600 1 0 1.000000
guns
  0 13.099500 5.681900 11.152000 0.704703 0.709503 0.000000 0.933400 0.764700 1 0 1.000000
  0 5.640300 13.091300 11.152000 0.704703 0.709503 0.000000 0.893800 0.685800 1 0 1.000000
  0 5.640300 13.091300 15.356800 0.704703 0.709503 0.000000 0.909500 0.653700 1 0 1.000000
guns
  0 -5.647800 13.091200 11.152000 -0.706206 0.708006 0.000000 0.833600 0.686100 1 0 1.000000
  0 -13.099800 5.658100 15.356800 -0.706206 0.708006 0.000000 0.778100 0.733800 1 0 1.000000
  0 -5.647800 13.091200 15.356800 -0.706206 0.708006 0.000000 0.817800 0.654500 1 0 1.000000
guns
  0 -5.647800 13.091200 11.152000 -0.706206 0.708006 0.000000 0.833600 0.686100 1 0 1.000000
  0 -13.099800 5.658100 11.152000 -0.706206 0.708006 0.000000 0.793900 0.765500 1 0 1.000000
  0 -13.099800 5.658100 15.356800 -0.706206 0.708006 0.000000 0.778100 0.733800 1 0 1.000000
guns
  0 -13.099800 -5.630100 11.152000 -0.708206 -0.706006 0.000000 0.793900 0.885700 1 0 1.000000
  0 -5.645300 -13.108100 15.356800 -0.708206 -0.706006 0.000000 0.817700 0.996800 1 0 1.000000
  0 -13.099800 -5.630100 15.356800 -0.708206 -0.706006 0.000000 0.778000 0.917400 1 0 1.000000
guns
  0 -13.099800 -5.630100 11.152000 -0.708206 -0.706006 0.000000 0.793900 0.885700 1 0 1.000000
  0 -5.645300 -13.108100 11.152000 -0.708206 -0.706006 0.000000 0.833600 0.965100 1 0 1.000000
  0 -5.645300 -13.108100 15.356800 -0.708206 -0.706006 0.000000 0.817700 0.996800 1 0 1.000000
guns
  0 -5.298100 -18.643400 10.452000 0.000000 -0.874011 0.485906 0.263700 0.196300 1 0 1.000000
  0 5.295600 -16.796700 13.773800 0.000000 -0.874011 0.485906 0.240600 0.324800 1 0 1.000000
  0 -5.298100 -16.796700 13.773800 0.000000 -0.874011 0.485906 0.240600 0.196300 1 0 1.000000
guns
  0 -5.298100 -18.643400 10.452000 0.000000 -0.874011 0.485906 0.263700 0.196300 1 0 1.000000
  0 5.295600 -18.643400 10.452000 0.000000 -0.874011 0.485906 0.263700 0.324800 1 0 1.000000
  0 5.295600 -16.796700 13.773800 0.000000 -0.874011 0.485906 0.240600 0.324800 1 0 1.000000
guns
  0 5.642800 -13.108100 11.152000 0.709204 -0.705004 0.000000 0.893800 0.965000 1 0 1.000000
  0 13.099500 -5.606200 15.356800 0.709204 -0.705004 0.000000 0.949500 0.916600 1 0 1.000000
  0 5.642800 -13.108100 15.356800 0.709204 -0.705004 0.000000 0.909800 0.996500 1 0 1.000000
guns
  0 5.642800 -13.108100 11.152000 0.709204 -0.705004 0.000000 0.893800 0.965000 1 0 1.000000
  0 13.099500 -5.606200 11.152000 0.709204 -0.705004 0.000000 0.933500 0.885100 1 0 1.000000
  0 13.099500 -5.606200 15.356800 0.709204 -0.705004 0.000000 0.949500 0.916600 1 0 1.000000
guns
  0 5.295600 -18.643400 10.452000 0.000000 -0.339799 0.940498 0.263700 0.324800 1 0 1.000000
  0 -5.298100 -18.643400 10.452000 0.000000 -0.339799 0.940498 0.263700 0.196300 1 0 1.000000
  0 -2.808600 -42.845100 1.706902 0.000000 -0.339799 0.940498 0.419700 0.226500 1 0 1.000000
guns
  0 -2.808600 -42.845100 1.706902 0.000000 -0.339799 0.940498 0.419700 0.226500 1 0 1.000000
  0 2.806100 -42.845100 1.706902 0.000000 -0.339799 0.940498 0.419700 0.294600 1 0 1.000000
  0 5.295600 -18.643400 10.452000 0.000000 -0.339799 0.940498 0.263700 0.324800 1 0 1.000000
guns
  0 5.295600 -18.240101 7.262501 0.995119 -0.097902 -0.012400 0.390800 0.106300 1 0 1.000000
  0 5.295600 -18.643400 10.452000 0.995119 -0.097902 -0.012400 0.388400 0.145000 1 0 1.000000
  0 2.806100 -42.845100 1.706902 0.995119 -0.097902 -0.012400 0.241000 0.039000 1 0 1.000000
guns
  0 2.806100 -42.845100 1.706902 0.995119 -0.097902 -0.012400 0.241000 0.039000 1 0 1.000000
  0 2.806100 -42.631302 0.016499 0.995119 -0.097902 -0.012400 0.241600 0.018500 1 0 1.000000
  0 5.295600 -18.240101 7.262501 0.995119 -0.097902 -0.012400 0.390800 0.106300 1 0 1.000000
guns
  0 5.288100 18.626801 10.452000 0.000000 0.874011 0.485906 0.263700 0.196300 1 0 1.000000
  0 -5.305600 16.780100 13.773800 0.000000 0.874011 0.485906 0.240600 0.324800 1 0 1.000000
  0 5.288100 16.780100 13.773800 0.000000 0.874011 0.485906 0.240600 0.196300 1 0 1.000000
guns
  0 5.288100 18.626801 10.452000 0.000000 0.874011 0.485906 0.263700 0.196300 1 0 1.000000
  0 -5.305600 18.626801 10.452000 0.000000 0.874011 0.485906 0.263700 0.324800 1 0 1.000000
  0 -5.305600 16.780100 13.773800 0.000000 0.874011 0.485906 0.240600 0.324800 1 0 1.000000
guns
  0 5.640300 13.091300 11.152000 0.000000 -0.769883 -0.638185 0.211000 0.192200 1 0 1.000000
  0 -5.647800 13.091200 11.152000 0.000000 -0.769883 -0.638185 0.211000 0.329100 1 0 1.000000
  0 -5.607600 15.735200 7.962500 0.000000 -0.769883 -0.638185 0.185900 0.328600 1 0 1.000000
guns
  0 -5.607600 15.735200 7.962500 0.000000 -0.769883 -0.638185 0.185900 0.328600 1 0 1.000000
  0 5.590200 15.735200 7.962500 0.000000 -0.769883 -0.638185 0.185900 0.192800 1 0 1.000000
  0 5.640300 13.091300 11.152000 0.000000 -0.769883 -0.638185 0.211000 0.192200 1 0 1.000000
guns
  0 -2.816100 42.828499 1.706902 0.000000 0.992094 -0.125499 0.241000 0.039000 1 0 1.000000
  0 2.798600 42.828499 1.706902 0.000000 0.992094 -0.125499 0.207100 0.039000 1 0 1.000000
  0 2.798600 42.614700 0.016499 0.000000 0.992094 -0.125499 0.206500 0.018500 1 0 1.000000
guns
  0 2.798600 42.614700 0.016499 0.000000 0.992094 -0.125499 0.206500 0.018500 1 0 1.000000
  0 -2.816100 42.614700 0.016499 0.000000 0.992094 -0.125499 0.241600 0.018500 1 0 1.000000
  0 -2.816100 42.828499 1.706902 0.000000 0.992094 -0.125499 0.241000 0.039000 1 0 1.000000
guns
  0 42.836399 -2.769500 1.706902 0.339799 0.000000 0.940498 0.419700 0.226500 1 0 1.000000
  0 42.836399 2.845200 1.706902 0.339799 0.000000 0.940498 0.419700 0.294600 1 0 1.000000
  0 18.634701 5.334700 10.452000 0.339799 0.000000 0.940498 0.263700 0.324800 1 0 1.000000
guns
  0 18.634701 5.334700 10.452000 0.339799 0.000000 0.940498 0.263700 0.324800 1 0 1.000000
  0 18.634701 -5.259000 10.452000 0.339799 0.000000 0.940498 0.263700 0.196300 1 0 1.000000
  0 42.836399 -2.769500 1.706902 0.339799 0.000000 0.940498 0.419700 0.226500 1 0 1.000000
guns
  0 18.231300 5.334700 7.262501 0.097902 0.995119 -0.012400 0.390800 0.106300 1 0 1.000000
  0 18.634701 5.334700 10.452000 0.097902 0.995119 -0.012400 0.388400 0.145000 1 0 1.000000
  0 42.836399 2.845200 1.706902 0.097902 0.995119 -0.012400 0.241000 0.039000 1 0 1.000000
guns
  0 42.836399 2.845200 1.706902 0.097902 0.995119 -0.012400 0.241000 0.039000 1 0 1.000000
  0 42.622601 2.845200 0.016499 0.097902 0.995119 -0.012400 0.241600 0.018500 1 0 1.000000
  0 18.231300 5.334700 7.262501 0.097902 0.995119 -0.012400 0.390800 0.106300 1 0 1.000000
guns
  0 -18.635500 5.327200 10.452000 -0.874011 0.000000 0.485906 0.263700 0.196300 1 0 1.000000
  0 -16.788799 -5.266500 13.773800 -0.874011 0.000000 0.485906 0.240600 0.324800 1 0 1.000000
  0 -16.788799 5.327200 13.773800 -0.874011 0.000000 0.485906 0.240600 0.196300 1 0 1.000000
guns
  0 -18.635500 5.327200 10.452000 -0.874011 0.000000 0.485906 0.263700 0.196300 1 0 1.000000
  0 -18.635500 -5.266500 10.452000 -0.874011 0.000000 0.485906 0.263700 0.324800 1 0 1.000000
  0 -16.788799 -5.266500 13.773800 -0.874011 0.000000 0.485906 0.240600 0.324800 1 0 1.000000
guns
  0 -42.623402 2.837700 0.016499 -0.992094 0.000000 -0.125499 0.206500 0.018500 1 0 1.000000
  0 -42.623402 -2.777000 0.016499 -0.992094 0.000000 -0.125499 0.241600 0.018500 1 0 1.000000
  0 -42.837200 -2.777000 1.706902 -0.992094 0.000000 -0.125499 0.241000 0.039000 1 0 1.000000
guns
  0 -42.837200 -2.777000 1.706902 -0.992094 0.000000 -0.125499 0.241000 0.039000 1 0 1.000000
  0 -42.837200 2.837700 1.706902 -0.992094 0.000000 -0.125499 0.207100 0.039000 1 0 1.000000
  0 -42.623402 2.837700 0.016499 -0.992094 0.000000 -0.125499 0.206500 0.018500 1 0 1.000000
guns
  0 -5.645300 -13.108100 11.152000 0.000000 0.769883 -0.638185 0.211000 0.192200 1 0 1.000000
  0 5.642800 -13.108100 11.152000 0.000000 0.769883 -0.638185 0.211000 0.329100 1 0 1.000000
  0 5.597600 -15.751800 7.962500 0.000000 0.769883 -0.638185 0.185900 0.328600 1 0 1.000000
guns
  0 5.597600 -15.751800 7.962500 0.000000 0.769883 -0.638185 0.185900 0.328600 1 0 1.000000
  0 -5.600200 -15.751800 7.962500 0.000000 0.769883 -0.638185 0.185900 0.192800 1 0 1.000000
  0 -5.645300 -13.108100 11.152000 0.000000 0.769883 -0.638185 0.211000 0.192200 1 0 1.000000
guns
  0 2.806100 -42.845100 1.706902 0.000000 -0.992094 -0.125499 0.241000 0.039000 1 0 1.000000
  0 -2.808600 -42.845100 1.706902 0.000000 -0.992094 -0.125499 0.207100 0.039000 1 0 1.000000
  0 -2.808600 -42.631302 0.016499 0.000000 -0.992094 -0.125499 0.206500 0.018500 1 0 1.000000
guns
  0 -2.808600 -42.631302 0.016499 0.000000 -0.992094 -0.125499 0.206500 0.018500 1 0 1.000000
  0 2.806100 -42.631302 0.016499 0.000000 -0.992094 -0.125499 0.241600 0.018500 1 0 1.000000
  0 2.806100 -42.845100 1.706902 0.000000 -0.992094 -0.125499 0.241000 0.039000 1 0 1.000000
guns
  0 -5.305600 18.626801 10.452000 0.000000 0.339799 0.940498 0.263700 0.324800 1 0 1.000000
  0 5.288100 18.626801 10.452000 0.000000 0.339799 0.940498 0.263700 0.196300 1 0 1.000000
  0 2.798600 42.828499 1.706902 0.000000 0.339799 0.940498 0.419700 0.226500 1 0 1.000000
guns
  0 2.798600 42.828499 1.706902 0.000000 0.339799 0.940498 0.419700 0.226500 1 0 1.000000
  0 -2.816100 42.828499 1.706902 0.000000 0.339799 0.940498 0.419700 0.294600 1 0 1.000000
  0 -5.305600 18.626801 10.452000 0.000000 0.339799 0.940498 0.263700 0.324800 1 0 1.000000
guns
  0 -5.305600 18.223400 7.262501 -0.995119 0.097902 -0.012400 0.390800 0.106300 1 0 1.000000
  0 -5.305600 18.626801 10.452000 -0.995119 0.097902 -0.012400 0.388400 0.145000 1 0 1.000000
  0 -2.816100 42.828499 1.706902 -0.995119 0.097902 -0.012400 0.241000 0.039000 1 0 1.000000
guns
  0 -2.816100 42.828499 1.706902 -0.995119 0.097902 -0.012400 0.241000 0.039000 1 0 1.000000
  0 -2.816100 42.614700 0.016499 -0.995119 0.097902 -0.012400 0.241600 0.018500 1 0 1.000000
  0 -5.305600 18.223400 7.262501 -0.995119 0.097902 -0.012400 0.390800 0.106300 1 0 1.000000
guns
  0 18.634701 -5.259000 10.452000 0.874011 0.000000 0.485906 0.263700 0.196300 1 0 1.000000
  0 16.788000 5.334700 13.773800 0.874011 0.000000 0.485906 0.240600 0.324800 1 0 1.000000
  0 16.788000 -5.259000 13.773800 0.874011 0.000000 0.485906 0.240600 0.196300 1 0 1.000000
guns
  0 18.634701 -5.259000 10.452000 0.874011 0.000000 0.485906 0.263700 0.196300 1 0 1.000000
  0 18.634701 5.334700 10.452000 0.874011 0.000000 0.485906 0.263700 0.324800 1 0 1.000000
  0 16.788000 5.334700 13.773800 0.874011 0.000000 0.485906 0.240600 0.324800 1 0 1.000000
guns
  0 -5.600200 -15.751800 7.962500 -0.993094 -0.116399 -0.014700 0.041900 0.114800 1 0 1.000000
  0 -5.298100 -18.240101 7.262501 -0.993094 -0.116399 -0.014700 0.057100 0.106300 1 0 1.000000
  0 -5.298100 -18.643400 10.452000 -0.993094 -0.116399 -0.014700 0.059500 0.145000 1 0 1.000000
guns
  0 -5.298100 -18.643400 10.452000 -0.993094 -0.116399 -0.014700 0.059500 0.145000 1 0 1.000000
  0 -5.298100 -18.240101 7.262501 -0.993094 -0.116399 -0.014700 0.057100 0.106300 1 0 1.000000
  0 -2.808600 -42.631302 0.016499 -0.995119 -0.097902 -0.012400 0.206500 0.018500 1 0 1.000000
guns
  0 -2.808600 -42.631302 0.016499 -0.995119 -0.097902 -0.012400 0.206500 0.018500 1 0 1.000000
  0 -2.808600 -42.845100 1.706902 -0.995119 -0.097902 -0.012400 0.207100 0.039000 1 0 1.000000
  0 -5.298100 -18.643400 10.452000 -0.993094 -0.116399 -0.014700 0.059500 0.145000 1 0 1.000000
guns
  0 0.000000 -0.008600 8.639900 0.000000 0.000100 -1.000000 0.863700 0.825600 1 0 1.000000
  0 13.099500 5.681900 11.152000 0.160097 0.066199 -0.984879 0.933400 0.764700 1 0 1.000000
  0 13.099500 -5.606200 11.152000 0.160700 -0.065900 -0.984801 0.933500 0.885100 1 0 1.000000
guns
  0 0.000000 -0.008600 8.639900 0.000000 0.000100 -1.000000 0.863700 0.825600 1 0 1.000000
  0 5.640300 13.091300 11.152000 0.065702 0.160605 -0.984829 0.893800 0.685800 1 0 1.000000
  0 13.099500 5.681900 11.152000 0.160097 0.066199 -0.984879 0.933400 0.764700 1 0 1.000000
guns
  0 0.000000 -0.008600 8.639900 0.000000 0.000100 -1.000000 0.863700 0.825600 1 0 1.000000
  0 -5.647800 13.091200 11.152000 -0.065902 0.160505 -0.984832 0.833600 0.686100 1 0 1.000000
  0 5.640300 13.091300 11.152000 0.065702 0.160605 -0.984829 0.893800 0.685800 1 0 1.000000
guns
  0 0.000000 -0.008600 8.639900 0.000000 0.000100 -1.000000 0.863700 0.825600 1 0 1.000000
  0 -13.099800 5.658100 11.152000 -0.160294 0.065997 -0.984860 0.793900 0.765500 1 0 1.000000
  0 -5.647800 13.091200 11.152000 -0.065902 0.160505 -0.984832 0.833600 0.686100 1 0 1.000000
guns
  0 0.000000 -0.008600 8.639900 0.000000 0.000100 -1.000000 0.863700 0.825600 1 0 1.000000
  0 -13.099800 -5.630100 11.152000 -0.160603 -0.065901 -0.984816 0.793900 0.885700 1 0 1.000000
  0 -13.099800 5.658100 11.152000 -0.160294 0.065997 -0.984860 0.793900 0.765500 1 0 1.000000
guns
  0 0.000000 -0.008600 8.639900 0.000000 0.000100 -1.000000 0.863700 0.825600 1 0 1.000000
  0 -5.645300 -13.108100 11.152000 -0.066202 -0.160405 -0.984829 0.833600 0.965100 1 0 1.000000
  0 -13.099800 -5.630100 11.152000 -0.160603 -0.065901 -0.984816 0.793900 0.885700 1 0 1.000000
guns
  0 0.000000 -0.008600 8.639900 0.000000 0.000100 -1.000000 0.863700 0.825600 1 0 1.000000
  0 5.642800 -13.108100 11.152000 0.066303 -0.160306 -0.984838 0.893800 0.965000 1 0 1.000000
  0 -5.645300 -13.108100 11.152000 -0.066202 -0.160405 -0.984829 0.833600 0.965100 1 0 1.000000
guns
  0 0.000000 -0.008600 8.639900 0.000000 0.000100 -1.000000 0.863700 0.825600 1 0 1.000000
  0 13.099500 -5.606200 11.152000 0.160700 -0.065900 -0.984801 0.933500 0.885100 1 0 1.000000
  0 5.642800 -13.108100 11.152000 0.066303 -0.160306 -0.984838 0.893800 0.965000 1 0 1.000000
guns
  0 0.000000 -0.007400 15.356800 0.000000 0.000000 1.000000 0.864100 0.510900 1 0 1.000000
  0 5.640300 13.091300 15.356800 0.000000 0.000000 1.000000 0.894200 0.650400 1 0 1.000000
  0 -0.003700 15.117800 15.356800 0.000000 0.000000 1.000000 0.864100 0.672000 1 0 1.000000
guns
  0 0.000000 -0.007400 15.356800 0.000000 0.000000 1.000000 0.864100 0.510900 1 0 1.000000
  0 13.099500 5.681900 15.356800 0.000000 0.000000 1.000000 0.933900 0.571500 1 0 1.000000
  0 5.640300 13.091300 15.356800 0.000000 0.000000 1.000000 0.894200 0.650400 1 0 1.000000
guns
  0 0.000000 -0.007400 15.356800 0.000000 0.000000 1.000000 0.864100 0.510900 1 0 1.000000
  0 15.126000 0.037800 15.356800 0.000000 0.000000 1.000000 0.944600 0.511400 1 0 1.000000
  0 13.099500 5.681900 15.356800 0.000000 0.000000 1.000000 0.933900 0.571500 1 0 1.000000
guns
  0 0.000000 -0.007400 15.356800 0.000000 0.000000 1.000000 0.864100 0.510900 1 0 1.000000
  0 13.099500 -5.606200 15.356800 0.000000 0.000000 1.000000 0.933900 0.451300 1 0 1.000000
  0 15.126000 0.037800 15.356800 0.000000 0.000000 1.000000 0.944600 0.511400 1 0 1.000000
guns
  0 0.000000 -0.007400 15.356800 0.000000 0.000000 1.000000 0.864100 0.510900 1 0 1.000000
  0 5.642800 -13.108100 15.356800 0.000000 0.000000 1.000000 0.894200 0.371400 1 0 1.000000
  0 13.099500 -5.606200 15.356800 0.000000 0.000000 1.000000 0.933900 0.451300 1 0 1.000000
guns
  0 0.000000 -0.007400 15.356800 0.000000 0.000000 1.000000 0.864100 0.510900 1 0 1.000000
  0 -0.001300 -15.134600 15.356800 0.000000 0.000000 1.000000 0.864100 0.349900 1 0 1.000000
  0 5.642800 -13.108100 15.356800 0.000000 0.000000 1.000000 0.894200 0.371400 1 0 1.000000
guns
  0 0.000000 -0.007400 15.356800 0.000000 0.000000 1.000000 0.864100 0.510900 1 0 1.000000
  0 -5.645300 -13.108100 15.356800 0.000000 0.000000 1.000000 0.834100 0.371400 1 0 1.000000
  0 -0.001300 -15.134600 15.356800 0.000000 0.000000 1.000000 0.864100 0.349900 1 0 1.000000
guns
  0 0.000000 -0.007400 15.356800 0.000000 0.000000 1.000000 0.864100 0.510900 1 0 1.000000
  0 -13.099800 -5.630100 15.356800 0.000000 0.000000 1.000000 0.794400 0.450800 1 0 1.000000
  0 -5.645300 -13.108100 15.356800 0.000000 0.000000 1.000000 0.834100 0.371400 1 0 1.000000
guns
  0 0.000000 -0.007400 15.356800 0.000000 0.000000 1.000000 0.864100 0.510900 1 0 1.000000
  0 -15.126300 0.014000 15.356800 0.000000 0.000000 1.000000 0.783600 0.510900 1 0 1.000000
  0 -13.099800 -5.630100 15.356800 0.000000 0.000000 1.000000 0.794400 0.450800 1 0 1.000000
guns
  0 0.000000 -0.007400 15.356800 0.000000 0.000000 1.000000 0.864100 0.510900 1 0 1.000000
  0 -13.099800 5.658100 15.356800 0.000000 0.000000 1.000000 0.794400 0.571000 1 0 1.000000
  0 -15.126300 0.014000 15.356800 0.000000 0.000000 1.000000 0.783600 0.510900 1 0 1.000000
guns
  0 0.000000 -0.007400 15.356800 0.000000 0.000000 1.000000 0.864100 0.510900 1 0 1.000000
  0 -5.647800 13.091200 15.356800 0.000000 0.000000 1.000000 0.834100 0.650400 1 0 1.000000
  0 -13.099800 5.658100 15.356800 0.000000 0.000000 1.000000 0.794400 0.571000 1 0 1.000000
guns
  0 0.000000 -0.007400 15.356800 0.000000 0.000000 1.000000 0.864100 0.510900 1 0 1.000000
  0 -0.003700 15.117800 15.356800 0.000000 0.000000 1.000000 0.864100 0.672000 1 0 1.000000
  0 -5.647800 13.091200 15.356800 0.000000 0.000000 1.000000 0.834100 0.650400 1 0 1.000000
guns
  1 0.000000 -0.008600 18.057501 0.000000 0.000000 1.000000 0.665500 0.803100 1 1 1.000000
  1 -2.177200 -12.356200 18.057501 0.000000 0.000000 1.000000 0.652000 0.649900 1 1 1.000000
  1 2.177200 -12.356200 18.057501 0.000000 0.000000 1.000000 0.679000 0.649900 1 1 1.000000
guns
  1 0.000000 -0.008600 18.057501 0.000000 0.000000 1.000000 0.665500 0.803100 1 1 1.000000
  1 -6.269100 -10.866900 18.057501 0.000000 0.000000 1.000000 0.626600 0.668400 1 1 1.000000
  1 -2.177200 -12.356200 18.057501 0.000000 0.000000 1.000000 0.652000 0.649900 1 1 1.000000
guns
  1 0.000000 -0.008600 18.057501 0.000000 0.000000 1.000000 0.665500 0.803100 1 1 1.000000
  1 -9.604700 -8.067900 18.057501 0.000000 0.000000 1.000000 0.605900 0.703100 1 1 1.000000
  1 -6.269100 -10.866900 18.057501 0.000000 0.000000 1.000000 0.626600 0.668400 1 1 1.000000
guns
  1 0.000000 -0.008600 18.057501 0.000000 0.000000 1.000000 0.665500 0.803100 1 1 1.000000
  1 -11.782000 -4.296800 18.057501 0.000000 0.000000 1.000000 0.592400 0.749900 1 1 1.000000
  1 -9.604700 -8.067900 18.057501 0.000000 0.000000 1.000000 0.605900 0.703100 1 1 1.000000
guns
  1 0.000000 -0.008600 18.057501 0.000000 0.000000 1.000000 0.665500 0.803100 1 1 1.000000
  1 -12.538100 -0.008600 18.057501 0.000000 0.000000 1.000000 0.587700 0.803100 1 1 1.000000
  1 -11.782000 -4.296800 18.057501 0.000000 0.000000 1.000000 0.592400 0.749900 1 1 1.000000
guns
  1 0.000000 -0.008600 18.057501 0.000000 0.000000 1.000000 0.665500 0.803100 1 1 1.000000
  1 -11.782000 4.279700 18.057501 0.000000 0.000000 1.000000 0.592400 0.856300 1 1 1.000000
  1 -12.538100 -0.008600 18.057501 0.000000 0.000000 1.000000 0.587700 0.803100 1 1 1.000000
guns
  1 0.000000 -0.008600 18.057501 0.000000 0.000000 1.000000 0.665500 0.803100 1 1 1.000000
  1 -9.604700 8.050800 18.057501 0.000000 0.000000 1.000000 0.605900 0.903100 1 1 1.000000
  1 -11.782000 4.279700 18.057501 0.000000 0.000000 1.000000 0.592400 0.856300 1 1 1.000000
guns
  1 0.000000 -0.008600 18.057501 0.000000 0.000000 1.000000 0.665500 0.803100 1 1 1.000000
  1 -6.269100 10.849800 18.057501 0.000000 0.000000 1.000000 0.626600 0.937800 1 1 1.000000
  1 -9.604700 8.050800 18.057501 0.000000 0.000000 1.000000 0.605900 0.903100 1 1 1.000000
guns
  1 0.000000 -0.008600 18.057501 0.000000 0.000000 1.000000 0.665500 0.803100 1 1 1.000000
  1 -2.177200 12.339100 18.057501 0.000000 0.000000 1.000000 0.652000 0.956300 1 1 1.000000
  1 -6.269100 10.849800 18.057501 0.000000 0.000000 1.000000 0.626600 0.937800 1 1 1.000000
guns
  1 0.000000 -0.008600 18.057501 0.000000 0.000000 1.000000 0.665500 0.803100 1 1 1.000000
  1 2.177200 12.339100 18.057501 0.000000 0.000000 1.000000 0.679000 0.956300 1 1 1.000000
  1 -2.177200 12.339100 18.057501 0.000000 0.000000 1.000000 0.652000 0.956300 1 1 1.000000
guns
  1 0.000000 -0.008600 18.057501 0.000000 0.000000 1.000000 0.665500 0.803100 1 1 1.000000
  1 6.269100 10.849800 18.057501 0.000000 0.000000 1.000000 0.704400 0.937800 1 1 1.000000
  1 2.177200 12.339100 18.057501 0.000000 0.000000 1.000000 0.679000 0.956300 1 1 1.000000
guns
  1 0.000000 -0.008600 18.057501 0.000000 0.000000 1.000000 0.665500 0.803100 1 1 1.000000
  1 9.604800 8.050800 18.057501 0.000000 0.000000 1.000000 0.725100 0.903100 1 1 1.000000
  1 6.269100 10.849800 18.057501 0.000000 0.000000 1.000000 0.704400 0.937800 1 1 1.000000
guns
  1 0.000000 -0.008600 18.057501 0.000000 0.000000 1.000000 0.665500 0.803100 1 1 1.000000
  1 11.782000 4.279700 18.057501 0.000000 0.000000 1.000000 0.738600 0.856300 1 1 1.000000
  1 9.604800 8.050800 18.057501 0.000000 0.000000 1.000000 0.725100 0.903100 1 1 1.000000
guns
  1 0.000000 -0.008600 18.057501 0.000000 0.000000 1.000000 0.665500 0.803100 1 1 1.000000
  1 12.538100 -0.008600 18.057501 0.000000 0.000000 1.000000 0.743300 0.803100 1 1 1.000000
  1 11.782000 4.279700 18.057501 0.000000 0.000000 1.000000 0.738600 0.856300 1 1 1.000000
guns
  1 0.000000 -0.008600 18.057501 0.000000 0.000000 1.000000 0.665500 0.803100 1 1 1.000000
  1 11.782000 -4.296800 18.057501 0.000000 0.000000 1.000000 0.738600 0.749900 1 1 1.000000
  1 12.538100 -0.008600 18.057501 0.000000 0.000000 1.000000 0.743300 0.803100 1 1 1.000000
guns
  1 0.000000 -0.008600 18.057501 0.000000 0.000000 1.000000 0.665500 0.803100 1 1 1.000000
  1 9.604800 -8.067900 18.057501 0.000000 0.000000 1.000000 0.725100 0.703100 1 1 1.000000
  1 11.782000 -4.296800 18.057501 0.000000 0.000000 1.000000 0.738600 0.749900 1 1 1.000000
guns
  1 0.000000 -0.008600 18.057501 0.000000 0.000000 1.000000 0.665500 0.803100 1 1 1.000000
  1 6.269100 -10.866900 18.057501 0.000000 0.000000 1.000000 0.704400 0.668400 1 1 1.000000
  1 9.604800 -8.067900 18.057501 0.000000 0.000000 1.000000 0.725100 0.703100 1 1 1.000000
guns
  1 0.000000 -0.008600 18.057501 0.000000 0.000000 1.000000 0.665500 0.803100 1 1 1.000000
  1 2.177200 -12.356200 18.057501 0.000000 0.000000 1.000000 0.679000 0.649900 1 1 1.000000
  1 6.269100 -10.866900 18.057501 0.000000 0.000000 1.000000 0.704400 0.668400 1 1 1.000000
guns
  1 12.468300 -4.546600 15.345400 0.925289 -0.276497 0.259597 0.760700 0.733800 1 1 1.000000
  1 12.538100 -0.008600 18.057501 0.964047 -0.056703 0.259613 0.743300 0.803100 1 1 1.000000
  1 11.782000 -4.296800 18.057501 0.886516 -0.383007 0.259605 0.738600 0.749900 1 1 1.000000
guns
  1 12.468300 -4.546600 15.345400 0.925289 -0.276497 0.259597 0.760700 0.733800 1 1 1.000000
  1 13.268500 -0.008600 15.345400 0.964047 0.056703 0.259613 0.766800 0.803100 1 1 1.000000
  1 12.538100 -0.008600 18.057501 0.964047 -0.056703 0.259613 0.743300 0.803100 1 1 1.000000
guns
  1 13.268500 -0.008600 15.345400 0.964047 0.056703 0.259613 0.766800 0.803100 1 1 1.000000
  1 11.782000 4.279700 18.057501 0.925289 0.276497 0.259597 0.738600 0.856300 1 1 1.000000
  1 12.538100 -0.008600 18.057501 0.964047 -0.056703 0.259613 0.743300 0.803100 1 1 1.000000
guns
  1 13.268500 -0.008600 15.345400 0.964047 0.056703 0.259613 0.766800 0.803100 1 1 1.000000
  1 12.468300 4.529500 15.345400 0.886516 0.383007 0.259605 0.760700 0.872400 1 1 1.000000
  1 11.782000 4.279700 18.057501 0.925289 0.276497 0.259597 0.738600 0.856300 1 1 1.000000
guns
  1 12.468300 4.529500 15.345400 0.886516 0.383007 0.259605 0.760700 0.872400 1 1 1.000000
  1 9.604800 8.050800 18.057501 0.774906 0.576305 0.259602 0.725100 0.903100 1 1 1.000000
  1 11.782000 4.279700 18.057501 0.925289 0.276497 0.259597 0.738600 0.856300 1 1 1.000000
guns
  1 12.468300 4.529500 15.345400 0.886516 0.383007 0.259605 0.760700 0.872400 1 1 1.000000
  1 10.164300 8.520300 15.345400 0.702087 0.663087 0.259595 0.743100 0.933300 1 1 1.000000
  1 9.604800 8.050800 18.057501 0.774906 0.576305 0.259602 0.725100 0.903100 1 1 1.000000
guns
  1 10.164300 8.520300 15.345400 0.702087 0.663087 0.259595 0.743100 0.933300 1 1 1.000000
  1 6.269100 10.849800 18.057501 0.531083 0.806575 0.259592 0.704400 0.937800 1 1 1.000000
  1 9.604800 8.050800 18.057501 0.774906 0.576305 0.259602 0.725100 0.903100 1 1 1.000000
guns
  1 10.164300 8.520300 15.345400 0.702087 0.663087 0.259595 0.743100 0.933300 1 1 1.000000
  1 6.634200 11.482300 15.345400 0.433001 0.863202 0.259601 0.716100 0.978500 1 1 1.000000
  1 6.269100 10.849800 18.057501 0.531083 0.806575 0.259592 0.704400 0.937800 1 1 1.000000
guns
  1 6.634200 11.482300 15.345400 0.433001 0.863202 0.259601 0.716100 0.978500 1 1 1.000000
  1 2.177200 12.339100 18.057501 0.223193 0.939573 0.259592 0.679000 0.956300 1 1 1.000000
  1 6.269100 10.849800 18.057501 0.531083 0.806575 0.259592 0.704400 0.937800 1 1 1.000000
guns
  1 6.634200 11.482300 15.345400 0.433001 0.863202 0.259601 0.716100 0.978500 1 1 1.000000
  1 2.304000 13.058400 15.345400 0.111605 0.959242 0.259611 0.683100 1.002600 1 1 1.000000
  1 2.177200 12.339100 18.057501 0.223193 0.939573 0.259592 0.679000 0.956300 1 1 1.000000
guns
  1 2.304000 13.058400 15.345400 0.111605 0.959242 0.259611 0.683100 1.002600 1 1 1.000000
  1 -2.177200 12.339100 18.057501 -0.111605 0.959242 0.259611 0.652000 0.956300 1 1 1.000000
  1 2.177200 12.339100 18.057501 0.223193 0.939573 0.259592 0.679000 0.956300 1 1 1.000000
guns
  1 2.304000 13.058400 15.345400 0.111605 0.959242 0.259611 0.683100 1.002600 1 1 1.000000
  1 -2.304000 13.058400 15.345400 -0.223193 0.939573 0.259592 0.647900 1.002600 1 1 1.000000
  1 -2.177200 12.339100 18.057501 -0.111605 0.959242 0.259611 0.652000 0.956300 1 1 1.000000
guns
  1 -2.304000 13.058400 15.345400 -0.223193 0.939573 0.259592 0.647900 1.002600 1 1 1.000000
  1 -6.269100 10.849800 18.057501 -0.433001 0.863202 0.259601 0.626600 0.937800 1 1 1.000000
  1 -2.177200 12.339100 18.057501 -0.111605 0.959242 0.259611 0.652000 0.956300 1 1 1.000000
guns
  1 -2.304000 13.058400 15.345400 -0.223193 0.939573 0.259592 0.647900 1.002600 1 1 1.000000
  1 -6.634200 11.482300 15.345400 -0.531083 0.806575 0.259592 0.614800 0.978500 1 1 1.000000
  1 -6.269100 10.849800 18.057501 -0.433001 0.863202 0.259601 0.626600 0.937800 1 1 1.000000
guns
  1 -6.634200 11.482300 15.345400 -0.531083 0.806575 0.259592 0.614800 0.978500 1 1 1.000000
  1 -9.604700 8.050800 18.057501 -0.702087 0.663087 0.259595 0.605900 0.903100 1 1 1.000000
  1 -6.269100 10.849800 18.057501 -0.433001 0.863202 0.259601 0.626600 0.937800 1 1 1.000000
guns
  1 -6.634200 11.482300 15.345400 -0.531083 0.806575 0.259592 0.614800 0.978500 1 1 1.000000
  1 -10.164200 8.520300 15.345400 -0.774906 0.576305 0.259602 0.587900 0.933300 1 1 1.000000
  1 -9.604700 8.050800 18.057501 -0.702087 0.663087 0.259595 0.605900 0.903100 1 1 1.000000
guns
  1 -10.164200 8.520300 15.345400 -0.774906 0.576305 0.259602 0.587900 0.933300 1 1 1.000000
  1 -11.782000 4.279700 18.057501 -0.886516 0.383007 0.259605 0.592400 0.856300 1 1 1.000000
  1 -9.604700 8.050800 18.057501 -0.702087 0.663087 0.259595 0.605900 0.903100 1 1 1.000000
guns
  1 -10.164200 8.520300 15.345400 -0.774906 0.576305 0.259602 0.587900 0.933300 1 1 1.000000
  1 -12.468300 4.529500 15.345400 -0.925289 0.276497 0.259597 0.570300 0.872400 1 1 1.000000
  1 -11.782000 4.279700 18.057501 -0.886516 0.383007 0.259605 0.592400 0.856300 1 1 1.000000
guns
  1 -12.468300 4.529500 15.345400 -0.925289 0.276497 0.259597 0.570300 0.872400 1 1 1.000000
  1 -12.538100 -0.008600 18.057501 -0.964047 0.056703 0.259613 0.587700 0.803100 1 1 1.000000
  1 -11.782000 4.279700 18.057501 -0.886516 0.383007 0.259605 0.592400 0.856300 1 1 1.000000
guns
  1 -12.468300 4.529500 15.345400 -0.925289 0.276497 0.259597 0.570300 0.872400 1 1 1.000000
  1 -13.268500 -0.008600 15.345400 -0.964047 -0.056703 0.259613 0.564200 0.803100 1 1 1.000000
  1 -12.538100 -0.008600 18.057501 -0.964047 0.056703 0.259613 0.587700 0.803100 1 1 1.000000
guns
  1 -13.268500 -0.008600 15.345400 -0.964047 -0.056703 0.259613 0.564200 0.803100 1 1 1.000000
  1 -11.782000 -4.296800 18.057501 -0.925289 -0.276497 0.259597 0.592400 0.749900 1 1 1.000000
  1 -12.538100 -0.008600 18.057501 -0.964047 0.056703 0.259613 0.587700 0.803100 1 1 1.000000
guns
  1 -13.268500 -0.008600 15.345400 -0.964047 -0.056703 0.259613 0.564200 0.803100 1 1 1.000000
  1 -12.468300 -4.546600 15.345400 -0.886516 -0.383007 0.259605 0.570300 0.733800 1 1 1.000000
  1 -11.782000 -4.296800 18.057501 -0.925289 -0.276497 0.259597 0.592400 0.749900 1 1 1.000000
guns
  1 -12.468300 -4.546600 15.345400 -0.886516 -0.383007 0.259605 0.570300 0.733800 1 1 1.000000
  1 -9.604700 -8.067900 18.057501 -0.774906 -0.576305 0.259602 0.605900 0.703100 1 1 1.000000
  1 -11.782000 -4.296800 18.057501 -0.925289 -0.276497 0.259597 0.592400 0.749900 1 1 1.000000
guns
  1 -12.468300 -4.546600 15.345400 -0.886516 -0.383007 0.259605 0.570300 0.733800 1 1 1.000000
  1 -10.164200 -8.537400 15.345400 -0.702087 -0.663087 0.259595 0.587900 0.672900 1 1 1.000000
  1 -9.604700 -8.067900 18.057501 -0.774906 -0.576305 0.259602 0.605900 0.703100 1 1 1.000000
guns
  1 -10.164200 -8.537400 15.345400 -0.702087 -0.663087 0.259595 0.587900 0.672900 1 1 1.000000
  1 -6.269100 -10.866900 18.057501 -0.531083 -0.806575 0.259592 0.626600 0.668400 1 1 1.000000
  1 -9.604700 -8.067900 18.057501 -0.774906 -0.576305 0.259602 0.605900 0.703100 1 1 1.000000
guns
  1 -10.164200 -8.537400 15.345400 -0.702087 -0.663087 0.259595 0.587900 0.672900 1 1 1.000000
  1 -6.634200 -11.499400 15.345400 -0.433001 -0.863202 0.259601 0.614800 0.627600 1 1 1.000000
  1 -6.269100 -10.866900 18.057501 -0.531083 -0.806575 0.259592 0.626600 0.668400 1 1 1.000000
guns
  1 -6.634200 -11.499400 15.345400 -0.433001 -0.863202 0.259601 0.614800 0.627600 1 1 1.000000
  1 -2.177200 -12.356200 18.057501 -0.223193 -0.939573 0.259592 0.652000 0.649900 1 1 1.000000
  1 -6.269100 -10.866900 18.057501 -0.531083 -0.806575 0.259592 0.626600 0.668400 1 1 1.000000
guns
  1 -6.634200 -11.499400 15.345400 -0.433001 -0.863202 0.259601 0.614800 0.627600 1 1 1.000000
  1 -2.304000 -13.075500 15.345400 -0.111605 -0.959242 0.259611 0.647900 0.603600 1 1 1.000000
  1 -2.177200 -12.356200 18.057501 -0.223193 -0.939573 0.259592 0.652000 0.649900 1 1 1.000000
guns
  1 -2.304000 -13.075500 15.345400 -0.111605 -0.959242 0.259611 0.647900 0.603600 1 1 1.000000
  1 2.177200 -12.356200 18.057501 0.111605 -0.959242 0.259611 0.679000 0.649900 1 1 1.000000
  1 -2.177200 -12.356200 18.057501 -0.223193 -0.939573 0.259592 0.652000 0.649900 1 1 1.000000
guns
  1 -2.304000 -13.075500 15.345400 -0.111605 -0.959242 0.259611 0.647900 0.603600 1 1 1.000000
  1 2.304100 -13.075500 15.345400 0.223193 -0.939573 0.259592 0.683100 0.603600 1 1 1.000000
  1 2.177200 -12.356200 18.057501 0.111605 -0.959242 0.259611 0.679000 0.649900 1 1 1.000000
guns
  1 2.304100 -13.075500 15.345400 0.223193 -0.939573 0.259592 0.683100 0.603600 1 1 1.000000
  1 6.269100 -10.866900 18.057501 0.433001 -0.863202 0.259601 0.704400 0.668400 1 1 1.000000
  1 2.177200 -12.356200 18.057501 0.111605 -0.959242 0.259611 0.679000 0.649900 1 1 1.000000
guns
  1 2.304100 -13.075500 15.345400 0.223193 -0.939573 0.259592 0.683100 0.603600 1 1 1.000000
  1 6.634200 -11.499400 15.345400 0.531083 -0.806575 0.259592 0.716100 0.627600 1 1 1.000000
  1 6.269100 -10.866900 18.057501 0.433001 -0.863202 0.259601 0.704400 0.668400 1 1 1.000000
guns
  1 6.634200 -11.499400 15.345400 0.531083 -0.806575 0.259592 0.716100 0.627600 1 1 1.000000
  1 9.604800 -8.067900 18.057501 0.702087 -0.663087 0.259595 0.725100 0.703100 1 1 1.000000
  1 6.269100 -10.866900 18.057501 0.433001 -0.863202 0.259601 0.704400 0.668400 1 1 1.000000
guns
  1 6.634200 -11.499400 15.345400 0.531083 -0.806575 0.259592 0.716100 0.627600 1 1 1.000000
  1 10.164300 -8.537400 15.345400 0.774906 -0.576305 0.259602 0.743100 0.672900 1 1 1.000000
  1 9.604800 -8.067900 18.057501 0.702087 -0.663087 0.259595 0.725100 0.703100 1 1 1.000000
guns
  1 10.164300 -8.537400 15.345400 0.774906 -0.576305 0.259602 0.743100 0.672900 1 1 1.000000
  1 11.782000 -4.296800 18.057501 0.886516 -0.383007 0.259605 0.738600 0.749900 1 1 1.000000
  1 9.604800 -8.067900 18.057501 0.702087 -0.663087 0.259595 0.725100 0.703100 1 1 1.000000
guns
  1 10.164300 -8.537400 15.345400 0.774906 -0.576305 0.259602 0.743100 0.672900 1 1 1.000000
  1 12.468300 -4.546600 15.345400 0.925289 -0.276497 0.259597 0.760700 0.733800 1 1 1.000000
  1 11.782000 -4.296800 18.057501 0.886516 -0.383007 0.259605 0.738600 0.749900 1 1 1.000000
guns
  0 2.806100 -42.631302 0.016499 0.000000 0.284796 -0.958588 0.016000 0.294700 1 0 1.000000
  0 -2.808600 -42.631302 0.016499 0.000000 0.284796 -0.958588 0.016000 0.226600 1 0 1.000000
  0 -5.298100 -18.240101 7.262501 0.000000 0.270809 -0.962633 0.170300 0.196400 1 0 1.000000
guns
  0 -5.298100 -18.240101 7.262501 0.000000 0.270809 -0.962633 0.170300 0.196400 1 0 1.000000
  0 5.295600 -18.240101 7.262501 0.000000 0.270809 -0.962633 0.170300 0.324900 1 0 1.000000
  0 2.806100 -42.631302 0.016499 0.000000 0.284796 -0.958588 0.016000 0.294700 1 0 1.000000
guns
  0 5.295600 -18.240101 7.262501 0.000000 0.270809 -0.962633 0.170300 0.324900 1 0 1.000000
  0 -5.298100 -18.240101 7.262501 0.000000 0.270809 -0.962633 0.170300 0.196400 1 0 1.000000
  0 -5.600200 -15.751800 7.962500 0.000000 0.270809 -0.962633 0.185900 0.192800 1 0 1.000000
guns
  0 -5.600200 -15.751800 7.962500 0.000000 0.270809 -0.962633 0.185900 0.192800 1 0 1.000000
  0 5.597600 -15.751800 7.962500 0.000000 0.270809 -0.962633 0.185900 0.328600 1 0 1.000000
  0 5.295600 -18.240101 7.262501 0.000000 0.270809 -0.962633 0.170300 0.324900 1 0 1.000000
guns
  0 -5.645300 -13.108100 15.356800 -0.998038 -0.062602 0.000000 0.025900 0.204500 1 0 1.000000
  0 -5.645300 -13.108100 11.152000 -0.998038 -0.062602 0.000000 0.025900 0.153500 1 0 1.000000
  0 -5.298100 -18.643400 10.452000 -0.998038 -0.062602 0.000000 0.059500 0.145000 1 0 1.000000
guns
  0 42.622601 2.845200 0.016499 -0.284796 0.000000 -0.958588 0.016000 0.294700 1 0 1.000000
  0 42.622601 -2.769500 0.016499 -0.284796 0.000000 -0.958588 0.016000 0.226600 1 0 1.000000
  0 18.231300 -5.259000 7.262501 -0.270809 0.000000 -0.962633 0.170300 0.196400 1 0 1.000000
guns
  0 18.231300 -5.259000 7.262501 -0.270809 0.000000 -0.962633 0.170300 0.196400 1 0 1.000000
  0 18.231300 5.334700 7.262501 -0.270809 0.000000 -0.962633 0.170300 0.324900 1 0 1.000000
  0 42.622601 2.845200 0.016499 -0.284796 0.000000 -0.958588 0.016000 0.294700 1 0 1.000000
guns
  0 18.231300 5.334700 7.262501 -0.270809 0.000000 -0.962633 0.170300 0.324900 1 0 1.000000
  0 18.231300 -5.259000 7.262501 -0.270809 0.000000 -0.962633 0.170300 0.196400 1 0 1.000000
  0 15.743100 -5.561100 7.962500 -0.270809 0.000000 -0.962633 0.185900 0.192800 1 0 1.000000
guns
  0 15.743100 -5.561100 7.962500 -0.270809 0.000000 -0.962633 0.185900 0.192800 1 0 1.000000
  0 15.743100 5.636700 7.962500 -0.270809 0.000000 -0.962633 0.185900 0.328600 1 0 1.000000
  0 18.231300 5.334700 7.262501 -0.270809 0.000000 -0.962633 0.170300 0.324900 1 0 1.000000
guns
  0 -5.305600 18.223400 7.262501 -0.982092 0.150899 0.112799 0.390800 0.106300 1 0 1.000000
  0 -5.607600 15.735200 7.962500 -0.982092 0.150899 0.112799 0.406000 0.114800 1 0 1.000000
  0 -5.647800 13.091200 11.152000 -0.982092 0.150899 0.112799 0.422000 0.153500 1 0 1.000000
guns
  0 -2.816100 42.614700 0.016499 0.000000 -0.284796 -0.958588 0.016000 0.294700 1 0 1.000000
  0 2.798600 42.614700 0.016499 0.000000 -0.284796 -0.958588 0.016000 0.226600 1 0 1.000000
  0 5.288100 18.223400 7.262501 0.000000 -0.270809 -0.962633 0.170300 0.196400 1 0 1.000000
guns
  0 5.288100 18.223400 7.262501 0.000000 -0.270809 -0.962633 0.170300 0.196400 1 0 1.000000
  0 -5.305600 18.223400 7.262501 0.000000 -0.270809 -0.962633 0.170300 0.324900 1 0 1.000000
  0 -2.816100 42.614700 0.016499 0.000000 -0.284796 -0.958588 0.016000 0.294700 1 0 1.000000
guns
  0 -5.305600 18.223400 7.262501 0.000000 -0.270809 -0.962633 0.170300 0.324900 1 0 1.000000
  0 5.288100 18.223400 7.262501 0.000000 -0.270809 -0.962633 0.170300 0.196400 1 0 1.000000
  0 5.590200 15.735200 7.962500 0.000000 -0.270809 -0.962633 0.185900 0.192800 1 0 1.000000
guns
  0 5.590200 15.735200 7.962500 0.000000 -0.270809 -0.962633 0.185900 0.192800 1 0 1.000000
  0 -5.607600 15.735200 7.962500 0.000000 -0.270809 -0.962633 0.185900 0.328600 1 0 1.000000
  0 -5.305600 18.223400 7.262501 0.000000 -0.270809 -0.962633 0.170300 0.324900 1 0 1.000000
guns
  0 -15.743900 5.629300 7.962500 -0.116399 0.993094 -0.014700 0.041900 0.114800 1 0 1.000000
  0 -18.232201 5.327200 7.262501 -0.116399 0.993094 -0.014700 0.057100 0.106300 1 0 1.000000
  0 -18.635500 5.327200 10.452000 -0.116399 0.993094 -0.014700 0.059500 0.145000 1 0 1.000000
guns
  0 -18.635500 5.327200 10.452000 -0.116399 0.993094 -0.014700 0.059500 0.145000 1 0 1.000000
  0 -18.232201 5.327200 7.262501 -0.116399 0.993094 -0.014700 0.057100 0.106300 1 0 1.000000
  0 -42.623402 2.837700 0.016499 -0.097902 0.995119 -0.012400 0.206500 0.018500 1 0 1.000000
guns
  0 -42.623402 2.837700 0.016499 -0.097902 0.995119 -0.012400 0.206500 0.018500 1 0 1.000000
  0 -42.837200 2.837700 1.706902 -0.097902 0.995119 -0.012400 0.207100 0.039000 1 0 1.000000
  0 -18.635500 5.327200 10.452000 -0.116399 0.993094 -0.014700 0.059500 0.145000 1 0 1.000000
guns
  0 -18.232100 -5.266500 7.262501 -0.148695 -0.983368 0.104297 0.390800 0.106300 1 0 1.000000
  0 -15.743900 -5.568500 7.962500 -0.148695 -0.983368 0.104297 0.406000 0.114800 1 0 1.000000
  0 -13.099800 -5.630100 11.152000 -0.148695 -0.983368 0.104297 0.422000 0.153500 1 0 1.000000
guns
  0 5.288100 18.626801 10.452000 0.996793 0.068600 0.041200 0.059500 0.145000 1 0 1.000000
  0 5.640300 13.091300 11.152000 0.996793 0.068600 0.041200 0.025900 0.153500 1 0 1.000000
  0 5.590200 15.735200 7.962500 0.996793 0.068600 0.041200 0.041900 0.114800 1 0 1.000000
guns
  0 -15.743900 5.629300 7.962500 0.270809 0.000000 -0.962633 0.185900 0.192800 1 0 1.000000
  0 -15.743900 -5.568500 7.962500 0.270809 0.000000 -0.962633 0.185900 0.328600 1 0 1.000000
  0 -18.232100 -5.266500 7.262501 0.270809 0.000000 -0.962633 0.170300 0.324900 1 0 1.000000
guns
  0 -18.232100 -5.266500 7.262501 0.270809 0.000000 -0.962633 0.170300 0.324900 1 0 1.000000
  0 -18.232201 5.327200 7.262501 0.270809 0.000000 -0.962633 0.170300 0.196400 1 0 1.000000
  0 -15.743900 5.629300 7.962500 0.270809 0.000000 -0.962633 0.185900 0.192800 1 0 1.000000
guns
  0 -18.232201 5.327200 7.262501 0.270809 0.000000 -0.962633 0.170300 0.196400 1 0 1.000000
  0 -18.232100 -5.266500 7.262501 0.270809 0.000000 -0.962633 0.170300 0.324900 1 0 1.000000
  0 -42.623402 -2.777000 0.016499 0.284796 0.000000 -0.958588 0.016000 0.294700 1 0 1.000000
guns
  0 -42.623402 -2.777000 0.016499 0.284796 0.000000 -0.958588 0.016000 0.294700 1 0 1.000000
  0 -42.623402 2.837700 0.016499 0.284796 0.000000 -0.958588 0.016000 0.226600 1 0 1.000000
  0 -18.232201 5.327200 7.262501 0.270809 0.000000 -0.962633 0.170300 0.196400 1 0 1.000000
guns
  0 5.590200 15.735200 7.962500 0.993094 0.116399 -0.014700 0.041900 0.114800 1 0 1.000000
  0 5.288100 18.223400 7.262501 0.993094 0.116399 -0.014700 0.057100 0.106300 1 0 1.000000
  0 5.288100 18.626801 10.452000 0.993094 0.116399 -0.014700 0.059500 0.145000 1 0 1.000000
guns
  0 5.288100 18.626801 10.452000 0.993094 0.116399 -0.014700 0.059500 0.145000 1 0 1.000000
  0 5.288100 18.223400 7.262501 0.993094 0.116399 -0.014700 0.057100 0.106300 1 0 1.000000
  0 2.798600 42.614700 0.016499 0.995119 0.097902 -0.012400 0.206500 0.018500 1 0 1.000000
guns
  0 2.798600 42.614700 0.016499 0.995119 0.097902 -0.012400 0.206500 0.018500 1 0 1.000000
  0 2.798600 42.828499 1.706902 0.995119 0.097902 -0.012400 0.207100 0.039000 1 0 1.000000
  0 5.288100 18.626801 10.452000 0.993094 0.116399 -0.014700 0.059500 0.145000 1 0 1.000000
guns
  0 -5.305600 16.780100 13.773800 -0.997117 0.066301 0.036901 0.399500 0.185300 1 0 1.000000
  0 -5.305600 18.626801 10.452000 -0.997117 0.066301 0.036901 0.388400 0.145000 1 0 1.000000
  0 -5.647800 13.091200 11.152000 -0.997117 0.066301 0.036901 0.422000 0.153500 1 0 1.000000
guns
  0 -16.788799 -5.266500 13.773800 -0.070404 -0.996752 0.039102 0.399500 0.185300 1 0 1.000000
  0 -18.635500 -5.266500 10.452000 -0.070404 -0.996752 0.039102 0.388400 0.145000 1 0 1.000000
  0 -13.099800 -5.630100 11.152000 -0.070404 -0.996752 0.039102 0.422000 0.153500 1 0 1.000000
guns
  0 -5.647800 13.091200 11.152000 -0.995722 0.092402 0.000000 0.422000 0.153500 1 0 1.000000
  0 -5.305600 18.626801 10.452000 -0.998126 0.060702 -0.007700 0.388400 0.145000 1 0 1.000000
  0 -5.305600 18.223400 7.262501 -0.998126 0.060702 -0.007700 0.390800 0.106300 1 0 1.000000
guns
  0 -5.647800 13.091200 11.152000 -0.995722 0.092402 0.000000 0.422000 0.153500 1 0 1.000000
  0 -5.647800 13.091200 15.356800 -0.995722 0.092402 0.000000 0.422000 0.204500 1 0 1.000000
  0 -5.305600 16.780100 13.773800 -0.995722 0.092402 0.000000 0.399500 0.185300 1 0 1.000000
guns
  0 13.099500 -5.606200 15.356800 0.062602 -0.998038 0.000000 0.025900 0.204500 1 0 1.000000
  0 13.099500 -5.606200 11.152000 0.062602 -0.998038 0.000000 0.025900 0.153500 1 0 1.000000
  0 18.634701 -5.259000 10.452000 0.062602 -0.998038 0.000000 0.059500 0.145000 1 0 1.000000
guns
  0 -13.099800 -5.630100 11.152000 -0.098098 -0.995177 0.000000 0.422000 0.153500 1 0 1.000000
  0 -18.635500 -5.266500 10.452000 -0.064499 -0.997884 -0.008200 0.388400 0.145000 1 0 1.000000
  0 -18.232100 -5.266500 7.262501 -0.064499 -0.997884 -0.008200 0.390800 0.106300 1 0 1.000000
guns
  0 -18.232100 -5.266500 7.262501 -0.064499 -0.997884 -0.008200 0.390800 0.106300 1 0 1.000000
  0 -18.635500 -5.266500 10.452000 -0.064499 -0.997884 -0.008200 0.388400 0.145000 1 0 1.000000
  0 -42.837200 -2.777000 1.706902 -0.097902 -0.995119 -0.012400 0.241000 0.039000 1 0 1.000000
guns
  0 -42.837200 -2.777000 1.706902 -0.097902 -0.995119 -0.012400 0.241000 0.039000 1 0 1.000000
  0 -42.623402 -2.777000 0.016499 -0.097902 -0.995119 -0.012400 0.241600 0.018500 1 0 1.000000
  0 -18.232100 -5.266500 7.262501 -0.064499 -0.997884 -0.008200 0.390800 0.106300 1 0 1.000000
guns
  0 -13.099800 -5.630100 11.152000 -0.098098 -0.995177 0.000000 0.422000 0.153500 1 0 1.000000
  0 -13.099800 -5.630100 15.356800 -0.098098 -0.995177 0.000000 0.422000 0.204500 1 0 1.000000
  0 -16.788799 -5.266500 13.773800 -0.098098 -0.995177 0.000000 0.399500 0.185300 1 0 1.000000
guns
  0 -5.647800 13.091200 15.356800 -0.144205 0.401513 0.904429 0.216200 0.329000 1 0 1.000000
  0 -0.003700 15.117800 15.356800 -0.144205 0.401513 0.904429 0.227500 0.260600 1 0 1.000000
  0 -5.305600 16.780100 13.773800 -0.144205 0.401513 0.904429 0.240600 0.324800 1 0 1.000000
guns
  0 -13.099800 -5.630100 15.356800 -0.402197 -0.144399 0.904094 0.216200 0.329000 1 0 1.000000
  0 -15.126300 0.014000 15.356800 -0.402197 -0.144399 0.904094 0.227500 0.260600 1 0 1.000000
  0 -16.788799 -5.266500 13.773800 -0.402197 -0.144399 0.904094 0.240600 0.324800 1 0 1.000000
guns
  0 18.634701 -5.259000 10.452000 0.122405 -0.990141 0.068103 0.059500 0.145000 1 0 1.000000
  0 16.788000 -5.259000 13.773800 0.122405 -0.990141 0.068103 0.048400 0.185300 1 0 1.000000
  0 13.099500 -5.606200 15.356800 0.122405 -0.990141 0.068103 0.025900 0.204500 1 0 1.000000
guns
  0 -5.298100 -18.643400 10.452000 -0.990148 -0.122406 0.068003 0.059500 0.145000 1 0 1.000000
  0 -5.298100 -16.796700 13.773800 -0.990148 -0.122406 0.068003 0.048400 0.185300 1 0 1.000000
  0 -5.645300 -13.108100 15.356800 -0.990148 -0.122406 0.068003 0.025900 0.204500 1 0 1.000000
guns
  0 5.288100 16.780100 13.773800 0.000000 0.689595 0.724195 0.240600 0.196300 1 0 1.000000
  0 -5.305600 16.780100 13.773800 0.000000 0.689595 0.724195 0.240600 0.324800 1 0 1.000000
  0 -0.003700 15.117800 15.356800 0.000000 0.689595 0.724195 0.227500 0.260600 1 0 1.000000
guns
  0 -16.788799 5.327200 13.773800 -0.689595 0.000000 0.724195 0.240600 0.196300 1 0 1.000000
  0 -16.788799 -5.266500 13.773800 -0.689595 0.000000 0.724195 0.240600 0.324800 1 0 1.000000
  0 -15.126300 0.014000 15.356800 -0.689595 0.000000 0.724195 0.227500 0.260600 1 0 1.000000
guns
  0 15.126000 0.037800 15.356800 0.401717 -0.144206 0.904338 0.227500 0.260600 1 0 1.000000
  0 13.099500 -5.606200 15.356800 0.401717 -0.144206 0.904338 0.216200 0.192100 1 0 1.000000
  0 16.788000 -5.259000 13.773800 0.401717 -0.144206 0.904338 0.240600 0.196300 1 0 1.000000
guns
  0 -0.001300 -15.134600 15.356800 -0.144206 -0.401717 0.904338 0.227500 0.260600 1 0 1.000000
  0 -5.645300 -13.108100 15.356800 -0.144206 -0.401717 0.904338 0.216200 0.192100 1 0 1.000000
  0 -5.298100 -16.796700 13.773800 -0.144206 -0.401717 0.904338 0.240600 0.196300 1 0 1.000000
guns
  0 -0.003700 15.117800 15.356800 0.144298 0.401795 0.904289 0.227500 0.260600 1 0 1.000000
  0 5.640300 13.091300 15.356800 0.144298 0.401795 0.904289 0.216200 0.192100 1 0 1.000000
  0 5.288100 16.780100 13.773800 0.144298 0.401795 0.904289 0.240600 0.196300 1 0 1.000000
guns
  0 -15.126300 0.014000 15.356800 -0.401116 0.144006 0.904637 0.227500 0.260600 1 0 1.000000
  0 -13.099800 5.658100 15.356800 -0.401116 0.144006 0.904637 0.216200 0.192100 1 0 1.000000
  0 -16.788799 5.327200 13.773800 -0.401116 0.144006 0.904637 0.240600 0.196300 1 0 1.000000
guns
  0 16.788000 -5.259000 13.773800 0.689698 0.000000 0.724097 0.240600 0.196300 1 0 1.000000
  0 16.788000 5.334700 13.773800 0.689698 0.000000 0.724097 0.240600 0.324800 1 0 1.000000
  0 15.126000 0.037800 15.356800 0.689698 0.000000 0.724097 0.227500 0.260600 1 0 1.000000
guns
  0 -5.298100 -16.796700 13.773800 0.000000 -0.689698 0.724097 0.240600 0.196300 1 0 1.000000
  0 5.295600 -16.796700 13.773800 0.000000 -0.689698 0.724097 0.240600 0.324800 1 0 1.000000
  0 -0.001300 -15.134600 15.356800 0.000000 -0.689698 0.724097 0.227500 0.260600 1 0 1.000000
guns
  0 5.288100 18.626801 10.452000 0.989868 0.124096 0.068998 0.059500 0.145000 1 0 1.000000
  0 5.288100 16.780100 13.773800 0.989868 0.124096 0.068998 0.048400 0.185300 1 0 1.000000
  0 5.640300 13.091300 15.356800 0.989868 0.124096 0.068998 0.025900 0.204500 1 0 1.000000
guns
  0 -18.635500 5.327200 10.452000 -0.116705 0.991044 0.064903 0.059500 0.145000 1 0 1.000000
  0 -16.788799 5.327200 13.773800 -0.116705 0.991044 0.064903 0.048400 0.185300 1 0 1.000000
  0 -13.099800 5.658100 15.356800 -0.116705 0.991044 0.064903 0.025900 0.204500 1 0 1.000000
guns
  0 13.099500 5.681900 15.356800 0.401717 0.144206 0.904338 0.216200 0.329000 1 0 1.000000
  0 15.126000 0.037800 15.356800 0.401717 0.144206 0.904338 0.227500 0.260600 1 0 1.000000
  0 16.788000 5.334700 13.773800 0.401717 0.144206 0.904338 0.240600 0.324800 1 0 1.000000
guns
  0 5.642800 -13.108100 15.356800 0.144206 -0.401717 0.904338 0.216200 0.329000 1 0 1.000000
  0 -0.001300 -15.134600 15.356800 0.144206 -0.401717 0.904338 0.227500 0.260600 1 0 1.000000
  0 5.295600 -16.796700 13.773800 0.144206 -0.401717 0.904338 0.240600 0.324800 1 0 1.000000
guns
  0 5.640300 13.091300 15.356800 0.997982 0.063499 0.000000 0.025900 0.204500 1 0 1.000000
  0 5.640300 13.091300 11.152000 0.997982 0.063499 0.000000 0.025900 0.153500 1 0 1.000000
  0 5.288100 18.626801 10.452000 0.997982 0.063499 0.000000 0.059500 0.145000 1 0 1.000000
guns
  0 -13.099800 5.658100 15.356800 -0.059701 0.998216 0.000000 0.025900 0.204500 1 0 1.000000
  0 -13.099800 5.658100 11.152000 -0.059701 0.998216 0.000000 0.025900 0.153500 1 0 1.000000
  0 -18.635500 5.327200 10.452000 -0.059701 0.998216 0.000000 0.059500 0.145000 1 0 1.000000
guns
  0 16.788000 5.334700 13.773800 0.067302 0.997031 0.037401 0.399500 0.185300 1 0 1.000000
  0 18.634701 5.334700 10.452000 0.067302 0.997031 0.037401 0.388400 0.145000 1 0 1.000000
  0 13.099500 5.681900 11.152000 0.067302 0.997031 0.037401 0.422000 0.153500 1 0 1.000000
guns
  0 5.642800 -13.108100 11.152000 0.995600 -0.093700 0.000000 0.422000 0.153500 1 0 1.000000
  0 5.642800 -13.108100 15.356800 0.995600 -0.093700 0.000000 0.422000 0.204500 1 0 1.000000
  0 5.295600 -16.796700 13.773800 0.995600 -0.093700 0.000000 0.399500 0.185300 1 0 1.000000
guns
  0 5.642800 -13.108100 11.152000 0.995600 -0.093700 0.000000 0.422000 0.153500 1 0 1.000000
  0 5.295600 -18.643400 10.452000 0.998070 -0.061598 -0.007800 0.388400 0.145000 1 0 1.000000
  0 5.295600 -18.240101 7.262501 0.998070 -0.061598 -0.007800 0.390800 0.106300 1 0 1.000000
guns
  0 5.295600 -16.796700 13.773800 0.997031 -0.067302 0.037401 0.399500 0.185300 1 0 1.000000
  0 5.295600 -18.643400 10.452000 0.997031 -0.067302 0.037401 0.388400 0.145000 1 0 1.000000
  0 5.642800 -13.108100 11.152000 0.997031 -0.067302 0.037401 0.422000 0.153500 1 0 1.000000
guns
  0 13.099500 5.681900 11.152000 0.093700 0.995600 0.000000 0.422000 0.153500 1 0 1.000000
  0 13.099500 5.681900 15.356800 0.093700 0.995600 0.000000 0.422000 0.204500 1 0 1.000000
  0 16.788000 5.334700 13.773800 0.093700 0.995600 0.000000 0.399500 0.185300 1 0 1.000000
guns
  0 13.099500 5.681900 11.152000 0.093700 0.995600 0.000000 0.422000 0.153500 1 0 1.000000
  0 18.634701 5.334700 10.452000 0.061598 0.998070 -0.007800 0.388400 0.145000 1 0 1.000000
  0 18.231300 5.334700 7.262501 0.061598 0.998070 -0.007800 0.390800 0.106300 1 0 1.000000
guns
  0 -5.298100 -18.643400 10.452000 -0.996803 -0.067900 0.042100 0.059500 0.145000 1 0 1.000000
  0 -5.645300 -13.108100 11.152000 -0.996803 -0.067900 0.042100 0.025900 0.153500 1 0 1.000000
  0 -5.600200 -15.751800 7.962500 -0.996803 -0.067900 0.042100 0.041900 0.114800 1 0 1.000000
guns
  0 15.743100 -5.561100 7.962500 0.116399 -0.993094 -0.014700 0.041900 0.114800 1 0 1.000000
  0 18.231300 -5.259000 7.262501 0.116399 -0.993094 -0.014700 0.057100 0.106300 1 0 1.000000
  0 18.634701 -5.259000 10.452000 0.116399 -0.993094 -0.014700 0.059500 0.145000 1 0 1.000000
guns
  0 18.634701 -5.259000 10.452000 0.116399 -0.993094 -0.014700 0.059500 0.145000 1 0 1.000000
  0 18.231300 -5.259000 7.262501 0.116399 -0.993094 -0.014700 0.057100 0.106300 1 0 1.000000
  0 42.622601 -2.769500 0.016499 0.097902 -0.995119 -0.012400 0.206500 0.018500 1 0 1.000000
guns
  0 42.622601 -2.769500 0.016499 0.097902 -0.995119 -0.012400 0.206500 0.018500 1 0 1.000000
  0 42.836399 -2.769500 1.706902 0.097902 -0.995119 -0.012400 0.207100 0.039000 1 0 1.000000
  0 18.634701 -5.259000 10.452000 0.116399 -0.993094 -0.014700 0.059500 0.145000 1 0 1.000000
guns
  0 18.634701 -5.259000 10.452000 0.067900 -0.996803 0.042100 0.059500 0.145000 1 0 1.000000
  0 13.099500 -5.606200 11.152000 0.067900 -0.996803 0.042100 0.025900 0.153500 1 0 1.000000
  0 15.743100 -5.561100 7.962500 0.067900 -0.996803 0.042100 0.041900 0.114800 1 0 1.000000
guns
  0 18.231300 5.334700 7.262501 0.150399 0.982397 0.110800 0.390800 0.106300 1 0 1.000000
  0 15.743100 5.636700 7.962500 0.150399 0.982397 0.110800 0.406000 0.114800 1 0 1.000000
  0 13.099500 5.681900 11.152000 0.150399 0.982397 0.110800 0.422000 0.153500 1 0 1.000000
guns
  0 5.295600 -18.240101 7.262501 0.982397 -0.150399 0.110800 0.390800 0.106300 1 0 1.000000
  0 5.597600 -15.751800 7.962500 0.982397 -0.150399 0.110800 0.406000 0.114800 1 0 1.000000
  0 5.642800 -13.108100 11.152000 0.982397 -0.150399 0.110800 0.422000 0.153500 1 0 1.000000
end
