// Created by Crowbar 0.74
version 1
nodes
  0 "Root" -1
  1 "Main_Base" 0
  2 "Guns_Base" 1
  3 "R_Gun" 2
  4 "R_Gun_AtchPnt" 3
  5 "L_Gun" 2
  6 "L_Gun_AtchPnt" 5
end
skeleton
  time 0
    0 0.000000 -0.000002 37.173691 0.000000 0.000000 0.000000
    1 0.000000 -0.023742 -9.707077 0.000000 0.000000 0.000000
    2 7.122766 1.685086 0.000002 0.000000 0.000000 0.000000
    3 -21.245588 -0.005135 -0.000002 0.000000 0.000000 0.000000
    4 0.301132 -27.432880 1.425652 0.000000 0.000000 -3.141592
    5 7.098359 -0.005140 -0.000002 0.000000 0.000000 0.000000
    6 -0.068640 -27.421444 1.425652 0.000000 0.000000 -3.141592
end
triangles
guns
  1 -3.076500 -8.535465 50.150490 -0.496185 -0.861373 0.108797 0.747700 0.317000 1 1 1.000000
  1 0.074800 -9.379866 36.199093 -0.089003 -0.996031 0.000000 0.767800 0.187800 1 1 1.000000
  1 0.074800 -9.379866 50.150490 0.001000 -0.994063 0.108796 0.767800 0.317000 1 1 1.000000
guns
  1 -3.076500 -8.535465 50.150490 -0.496185 -0.861373 0.108797 0.747700 0.317000 1 1 1.000000
  1 -3.076500 -8.535465 36.199093 -0.575092 -0.818089 0.000000 0.747700 0.187800 1 1 1.000000
  1 0.074800 -9.379866 36.199093 -0.089003 -0.996031 0.000000 0.767800 0.187800 1 1 1.000000
guns
  1 -5.383400 -6.228566 50.150490 -0.860387 -0.497892 0.108798 0.727500 0.317000 1 1 1.000000
  1 -3.076500 -8.535465 36.199093 -0.575092 -0.818089 0.000000 0.747700 0.187800 1 1 1.000000
  1 -3.076500 -8.535465 50.150490 -0.496185 -0.861373 0.108797 0.747700 0.317000 1 1 1.000000
guns
  1 -5.383400 -6.228566 50.150490 -0.860387 -0.497892 0.108798 0.727500 0.317000 1 1 1.000000
  1 -5.383400 -6.228566 36.199093 -0.907068 -0.420985 0.000000 0.727500 0.187800 1 1 1.000000
  1 -3.076500 -8.535465 36.199093 -0.575092 -0.818089 0.000000 0.747700 0.187800 1 1 1.000000
guns
  1 -6.227800 -3.077266 50.150490 -0.994063 -0.001000 0.108796 0.707600 0.317000 1 1 1.000000
  1 -5.383400 -6.228566 36.199093 -0.907068 -0.420985 0.000000 0.727500 0.187800 1 1 1.000000
  1 -5.383400 -6.228566 50.150490 -0.860387 -0.497892 0.108798 0.727500 0.317000 1 1 1.000000
guns
  1 -6.227800 -3.077266 50.150490 -0.994063 -0.001000 0.108796 0.707600 0.317000 1 1 1.000000
  1 -6.227800 -3.077266 36.199093 -0.996031 0.089003 0.000000 0.707600 0.187800 1 1 1.000000
  1 -5.383400 -6.228566 36.199093 -0.907068 -0.420985 0.000000 0.727500 0.187800 1 1 1.000000
guns
  1 -5.383400 0.074034 50.150490 -0.861373 0.496185 0.108797 0.928100 0.317000 1 1 1.000000
  1 -6.227800 -3.077266 36.199093 -0.996031 0.089003 0.000000 0.948000 0.187800 1 1 1.000000
  1 -6.227800 -3.077266 50.150490 -0.994063 -0.001000 0.108796 0.948000 0.317000 1 1 1.000000
guns
  1 -5.383400 0.074034 50.150490 -0.861373 0.496185 0.108797 0.928100 0.317000 1 1 1.000000
  1 -5.383400 0.074034 36.199093 -0.818089 0.575092 0.000000 0.928100 0.187800 1 1 1.000000
  1 -6.227800 -3.077266 36.199093 -0.996031 0.089003 0.000000 0.948000 0.187800 1 1 1.000000
guns
  1 -3.076500 2.380934 50.150490 -0.497892 0.860387 0.108798 0.908000 0.317000 1 1 1.000000
  1 -5.383400 0.074034 36.199093 -0.818089 0.575092 0.000000 0.928100 0.187800 1 1 1.000000
  1 -5.383400 0.074034 50.150490 -0.861373 0.496185 0.108797 0.928100 0.317000 1 1 1.000000
guns
  1 -3.076500 2.380934 50.150490 -0.497892 0.860387 0.108798 0.908000 0.317000 1 1 1.000000
  1 -3.076500 2.380934 36.199093 -0.420985 0.907068 0.000000 0.908000 0.187800 1 1 1.000000
  1 -5.383400 0.074034 36.199093 -0.818089 0.575092 0.000000 0.928100 0.187800 1 1 1.000000
guns
  1 0.074800 3.225334 50.150490 -0.001000 0.994063 0.108796 0.887900 0.317000 1 1 1.000000
  1 -3.076500 2.380934 36.199093 -0.420985 0.907068 0.000000 0.908000 0.187800 1 1 1.000000
  1 -3.076500 2.380934 50.150490 -0.497892 0.860387 0.108798 0.908000 0.317000 1 1 1.000000
guns
  1 0.074800 3.225334 50.150490 -0.001000 0.994063 0.108796 0.887900 0.317000 1 1 1.000000
  1 0.074800 3.225334 36.199093 0.089003 0.996031 0.000000 0.887900 0.187800 1 1 1.000000
  1 -3.076500 2.380934 36.199093 -0.420985 0.907068 0.000000 0.908000 0.187800 1 1 1.000000
guns
  1 3.226100 2.380934 50.150490 0.496185 0.861373 0.108797 0.867800 0.317000 1 1 1.000000
  1 0.074800 3.225334 36.199093 0.089003 0.996031 0.000000 0.887900 0.187800 1 1 1.000000
  1 0.074800 3.225334 50.150490 -0.001000 0.994063 0.108796 0.887900 0.317000 1 1 1.000000
guns
  1 3.226100 2.380934 50.150490 0.496185 0.861373 0.108797 0.867800 0.317000 1 1 1.000000
  1 3.226100 2.380934 36.199093 0.575092 0.818089 0.000000 0.867800 0.187800 1 1 1.000000
  1 0.074800 3.225334 36.199093 0.089003 0.996031 0.000000 0.887900 0.187800 1 1 1.000000
guns
  1 5.533000 0.074034 50.150490 0.860387 0.497892 0.108798 0.847700 0.317000 1 1 1.000000
  1 3.226100 2.380934 36.199093 0.575092 0.818089 0.000000 0.867800 0.187800 1 1 1.000000
  1 3.226100 2.380934 50.150490 0.496185 0.861373 0.108797 0.867800 0.317000 1 1 1.000000
guns
  1 5.533000 0.074034 50.150490 0.860387 0.497892 0.108798 0.847700 0.317000 1 1 1.000000
  1 5.533000 0.074034 36.199093 0.907068 0.420985 0.000000 0.847700 0.187800 1 1 1.000000
  1 3.226100 2.380934 36.199093 0.575092 0.818089 0.000000 0.867800 0.187800 1 1 1.000000
guns
  1 6.377400 -3.077266 50.150490 0.994063 0.001000 0.108796 0.827800 0.317000 1 1 1.000000
  1 5.533000 0.074034 36.199093 0.907068 0.420985 0.000000 0.847700 0.187800 1 1 1.000000
  1 5.533000 0.074034 50.150490 0.860387 0.497892 0.108798 0.847700 0.317000 1 1 1.000000
guns
  1 6.377400 -3.077266 50.150490 0.994063 0.001000 0.108796 0.827800 0.317000 1 1 1.000000
  1 6.377400 -3.077266 36.199093 0.996031 -0.089003 0.000000 0.827800 0.187800 1 1 1.000000
  1 5.533000 0.074034 36.199093 0.907068 0.420985 0.000000 0.847700 0.187800 1 1 1.000000
guns
  1 5.533000 -6.228566 50.150490 0.861373 -0.496185 0.108797 0.807700 0.317000 1 1 1.000000
  1 6.377400 -3.077266 36.199093 0.996031 -0.089003 0.000000 0.827800 0.187800 1 1 1.000000
  1 6.377400 -3.077266 50.150490 0.994063 0.001000 0.108796 0.827800 0.317000 1 1 1.000000
guns
  1 5.533000 -6.228566 50.150490 0.861373 -0.496185 0.108797 0.807700 0.317000 1 1 1.000000
  1 5.533000 -6.228566 36.199093 0.818089 -0.575092 0.000000 0.807700 0.187800 1 1 1.000000
  1 6.377400 -3.077266 36.199093 0.996031 -0.089003 0.000000 0.827800 0.187800 1 1 1.000000
guns
  1 3.226100 -8.535465 50.150490 0.497892 -0.860387 0.108798 0.787700 0.317000 1 1 1.000000
  1 5.533000 -6.228566 36.199093 0.818089 -0.575092 0.000000 0.807700 0.187800 1 1 1.000000
  1 5.533000 -6.228566 50.150490 0.861373 -0.496185 0.108797 0.807700 0.317000 1 1 1.000000
guns
  1 3.226100 -8.535465 50.150490 0.497892 -0.860387 0.108798 0.787700 0.317000 1 1 1.000000
  1 3.226100 -8.535465 36.199093 0.420985 -0.907068 0.000000 0.787700 0.187800 1 1 1.000000
  1 5.533000 -6.228566 36.199093 0.818089 -0.575092 0.000000 0.807700 0.187800 1 1 1.000000
guns
  1 0.074800 -9.379866 50.150490 0.001000 -0.994063 0.108796 0.767800 0.317000 1 1 1.000000
  1 3.226100 -8.535465 36.199093 0.420985 -0.907068 0.000000 0.787700 0.187800 1 1 1.000000
  1 3.226100 -8.535465 50.150490 0.497892 -0.860387 0.108798 0.787700 0.317000 1 1 1.000000
guns
  1 0.074800 -9.379866 50.150490 0.001000 -0.994063 0.108796 0.767800 0.317000 1 1 1.000000
  1 0.074800 -9.379866 36.199093 -0.089003 -0.996031 0.000000 0.767800 0.187800 1 1 1.000000
  1 3.226100 -8.535465 36.199093 0.420985 -0.907068 0.000000 0.787700 0.187800 1 1 1.000000
guns
  1 3.934400 -0.848966 54.607094 0.632690 0.377094 0.676390 0.685300 0.470100 1 1 1.000000
  1 5.074400 -0.190766 52.541794 0.797025 0.466715 0.383312 0.700800 0.488000 1 1 1.000000
  1 2.961300 1.922334 52.541794 0.456899 0.802698 0.383299 0.679300 0.531000 1 1 1.000000
guns
  1 3.226100 -3.077266 55.608692 0.499524 0.010000 0.866242 0.675300 0.429300 1 1 1.000000
  1 4.531400 -3.077266 54.607094 0.736480 0.010200 0.676382 0.690800 0.429300 1 1 1.000000
  1 3.934400 -0.848966 54.607094 0.632690 0.377094 0.676390 0.685300 0.470100 1 1 1.000000
guns
  1 4.531400 -3.077266 54.607094 0.736480 0.010200 0.676382 0.690800 0.429300 1 1 1.000000
  1 5.074400 -0.190766 52.541794 0.797025 0.466715 0.383312 0.700800 0.488000 1 1 1.000000
  1 3.934400 -0.848966 54.607094 0.632690 0.377094 0.676390 0.685300 0.470100 1 1 1.000000
guns
  1 4.531400 -3.077266 54.607094 0.736480 0.010200 0.676382 0.690800 0.429300 1 1 1.000000
  1 5.847900 -3.077266 52.541794 0.923605 0.005700 0.383302 0.708700 0.429300 1 1 1.000000
  1 5.074400 -0.190766 52.541794 0.797025 0.466715 0.383312 0.700800 0.488000 1 1 1.000000
guns
  1 2.303100 0.782234 54.607094 0.359399 0.642898 0.676398 0.670400 0.500000 1 1 1.000000
  1 2.961300 1.922334 52.541794 0.456899 0.802698 0.383299 0.679300 0.531000 1 1 1.000000
  1 0.074800 2.695734 52.541794 -0.005700 0.923605 0.383302 0.649900 0.546700 1 1 1.000000
guns
  1 3.934400 -0.848966 54.607094 0.632690 0.377094 0.676390 0.685300 0.470100 1 1 1.000000
  1 2.961300 1.922334 52.541794 0.456899 0.802698 0.383299 0.679300 0.531000 1 1 1.000000
  1 2.303100 0.782234 54.607094 0.359399 0.642898 0.676398 0.670400 0.500000 1 1 1.000000
guns
  1 2.803900 -1.501666 55.608692 0.427618 0.258411 0.866237 0.671900 0.454600 1 1 1.000000
  1 3.934400 -0.848966 54.607094 0.632690 0.377094 0.676390 0.685300 0.470100 1 1 1.000000
  1 2.303100 0.782234 54.607094 0.359399 0.642898 0.676398 0.670400 0.500000 1 1 1.000000
guns
  1 3.226100 -3.077266 55.608692 0.499524 0.010000 0.866242 0.675300 0.429300 1 1 1.000000
  1 3.934400 -0.848966 54.607094 0.632690 0.377094 0.676390 0.685300 0.470100 1 1 1.000000
  1 2.803900 -1.501666 55.608692 0.427618 0.258411 0.866237 0.671900 0.454600 1 1 1.000000
guns
  1 1.706100 -3.077266 56.238293 0.283790 0.020599 0.958665 0.661300 0.429300 1 1 1.000000
  1 3.226100 -3.077266 55.608692 0.499524 0.010000 0.866242 0.675300 0.429300 1 1 1.000000
  1 2.803900 -1.501666 55.608692 0.427618 0.258411 0.866237 0.671900 0.454600 1 1 1.000000
guns
  1 1.487500 -3.892866 56.238293 0.256091 -0.123996 0.958667 0.659800 0.417900 1 1 1.000000
  1 3.226100 -3.077266 55.608692 0.499524 0.010000 0.866242 0.675300 0.429300 1 1 1.000000
  1 1.706100 -3.077266 56.238293 0.283790 0.020599 0.958665 0.661300 0.429300 1 1 1.000000
guns
  1 1.487500 -3.892866 56.238293 0.256091 -0.123996 0.958667 0.659800 0.417900 1 1 1.000000
  1 2.803900 -4.652966 55.608692 0.437616 -0.241109 0.866232 0.671900 0.403900 1 1 1.000000
  1 3.226100 -3.077266 55.608692 0.499524 0.010000 0.866242 0.675300 0.429300 1 1 1.000000
guns
  1 2.803900 -4.652966 55.608692 0.437616 -0.241109 0.866232 0.671900 0.403900 1 1 1.000000
  1 4.531400 -3.077266 54.607094 0.736480 0.010200 0.676382 0.690800 0.429300 1 1 1.000000
  1 3.226100 -3.077266 55.608692 0.499524 0.010000 0.866242 0.675300 0.429300 1 1 1.000000
guns
  1 2.803900 -4.652966 55.608692 0.437616 -0.241109 0.866232 0.671900 0.403900 1 1 1.000000
  1 3.934400 -5.305566 54.607094 0.642898 -0.359399 0.676398 0.685300 0.388400 1 1 1.000000
  1 4.531400 -3.077266 54.607094 0.736480 0.010200 0.676382 0.690800 0.429300 1 1 1.000000
guns
  1 3.934400 -5.305566 54.607094 0.642898 -0.359399 0.676398 0.685300 0.388400 1 1 1.000000
  1 5.847900 -3.077266 52.541794 0.923605 0.005700 0.383302 0.708700 0.429300 1 1 1.000000
  1 4.531400 -3.077266 54.607094 0.736480 0.010200 0.676382 0.690800 0.429300 1 1 1.000000
guns
  1 3.934400 -5.305566 54.607094 0.642898 -0.359399 0.676398 0.685300 0.388400 1 1 1.000000
  1 5.074400 -5.963766 52.541794 0.802698 -0.456899 0.383299 0.700800 0.370500 1 1 1.000000
  1 5.847900 -3.077266 52.541794 0.923605 0.005700 0.383302 0.708700 0.429300 1 1 1.000000
guns
  1 -5.698200 -3.077266 52.541794 -0.923605 -0.005700 0.383302 0.591200 0.429300 1 1 1.000000
  1 -6.227800 -3.077266 50.150490 -0.994063 -0.001000 0.108796 0.570400 0.429300 1 1 1.000000
  1 -5.383400 -6.228566 50.150490 -0.860387 -0.497892 0.108798 0.581100 0.349800 1 1 1.000000
guns
  1 -4.924700 -0.190766 52.541794 -0.802698 0.456899 0.383299 0.599100 0.488000 1 1 1.000000
  1 -6.227800 -3.077266 50.150490 -0.994063 -0.001000 0.108796 0.570400 0.429300 1 1 1.000000
  1 -5.698200 -3.077266 52.541794 -0.923605 -0.005700 0.383302 0.591200 0.429300 1 1 1.000000
guns
  1 -4.924700 -0.190766 52.541794 -0.802698 0.456899 0.383299 0.599100 0.488000 1 1 1.000000
  1 -5.383400 0.074034 50.150490 -0.861373 0.496185 0.108797 0.581100 0.508800 1 1 1.000000
  1 -6.227800 -3.077266 50.150490 -0.994063 -0.001000 0.108796 0.570400 0.429300 1 1 1.000000
guns
  1 -2.811700 1.922334 52.541794 -0.466715 0.797025 0.383312 0.620600 0.531000 1 1 1.000000
  1 -5.383400 0.074034 50.150490 -0.861373 0.496185 0.108797 0.581100 0.508800 1 1 1.000000
  1 -4.924700 -0.190766 52.541794 -0.802698 0.456899 0.383299 0.599100 0.488000 1 1 1.000000
guns
  1 -2.811700 1.922334 52.541794 -0.466715 0.797025 0.383312 0.620600 0.531000 1 1 1.000000
  1 -3.076500 2.380934 50.150490 -0.497892 0.860387 0.108798 0.610200 0.567000 1 1 1.000000
  1 -5.383400 0.074034 50.150490 -0.861373 0.496185 0.108797 0.581100 0.508800 1 1 1.000000
guns
  1 0.074800 2.695734 52.541794 -0.005700 0.923605 0.383302 0.649900 0.546700 1 1 1.000000
  1 -3.076500 2.380934 50.150490 -0.497892 0.860387 0.108798 0.610200 0.567000 1 1 1.000000
  1 -2.811700 1.922334 52.541794 -0.466715 0.797025 0.383312 0.620600 0.531000 1 1 1.000000
guns
  1 0.074800 1.379334 54.607094 -0.010200 0.736480 0.676382 0.649900 0.511000 1 1 1.000000
  1 0.074800 2.695734 52.541794 -0.005700 0.923605 0.383302 0.649900 0.546700 1 1 1.000000
  1 -2.811700 1.922334 52.541794 -0.466715 0.797025 0.383312 0.620600 0.531000 1 1 1.000000
guns
  1 2.303100 0.782234 54.607094 0.359399 0.642898 0.676398 0.670400 0.500000 1 1 1.000000
  1 0.074800 2.695734 52.541794 -0.005700 0.923605 0.383302 0.649900 0.546700 1 1 1.000000
  1 0.074800 1.379334 54.607094 -0.010200 0.736480 0.676382 0.649900 0.511000 1 1 1.000000
guns
  1 1.650500 -0.348166 55.608692 0.241109 0.437616 0.866232 0.662600 0.473200 1 1 1.000000
  1 2.303100 0.782234 54.607094 0.359399 0.642898 0.676398 0.670400 0.500000 1 1 1.000000
  1 0.074800 1.379334 54.607094 -0.010200 0.736480 0.676382 0.649900 0.511000 1 1 1.000000
guns
  1 2.803900 -1.501666 55.608692 0.427618 0.258411 0.866237 0.671900 0.454600 1 1 1.000000
  1 2.303100 0.782234 54.607094 0.359399 0.642898 0.676398 0.670400 0.500000 1 1 1.000000
  1 1.650500 -0.348166 55.608692 0.241109 0.437616 0.866232 0.662600 0.473200 1 1 1.000000
guns
  1 1.487500 -2.261666 56.238293 0.235488 0.159792 0.958651 0.659800 0.440700 1 1 1.000000
  1 2.803900 -1.501666 55.608692 0.427618 0.258411 0.866237 0.671900 0.454600 1 1 1.000000
  1 1.650500 -0.348166 55.608692 0.241109 0.437616 0.866232 0.662600 0.473200 1 1 1.000000
guns
  1 1.706100 -3.077266 56.238293 0.283790 0.020599 0.958665 0.661300 0.429300 1 1 1.000000
  1 2.803900 -1.501666 55.608692 0.427618 0.258411 0.866237 0.671900 0.454600 1 1 1.000000
  1 1.487500 -2.261666 56.238293 0.235488 0.159792 0.958651 0.659800 0.440700 1 1 1.000000
guns
  1 0.074800 -3.077266 56.453091 0.000000 0.000000 1.000000 0.649900 0.429300 1 1 1.000000
  1 1.706100 -3.077266 56.238293 0.283790 0.020599 0.958665 0.661300 0.429300 1 1 1.000000
  1 1.487500 -2.261666 56.238293 0.235488 0.159792 0.958651 0.659800 0.440700 1 1 1.000000
guns
  1 0.074800 -3.077266 56.453091 0.000000 0.000000 1.000000 0.649900 0.429300 1 1 1.000000
  1 1.487500 -3.892866 56.238293 0.256091 -0.123996 0.958667 0.659800 0.417900 1 1 1.000000
  1 1.706100 -3.077266 56.238293 0.283790 0.020599 0.958665 0.661300 0.429300 1 1 1.000000
guns
  1 0.074800 -3.077266 56.453091 0.000000 0.000000 1.000000 0.649900 0.429300 1 1 1.000000
  1 0.890400 -4.489966 56.238293 0.159792 -0.235488 0.958651 0.655600 0.409500 1 1 1.000000
  1 1.487500 -3.892866 56.238293 0.256091 -0.123996 0.958667 0.659800 0.417900 1 1 1.000000
guns
  1 0.890400 -4.489966 56.238293 0.159792 -0.235488 0.958651 0.655600 0.409500 1 1 1.000000
  1 2.803900 -4.652966 55.608692 0.437616 -0.241109 0.866232 0.671900 0.403900 1 1 1.000000
  1 1.487500 -3.892866 56.238293 0.256091 -0.123996 0.958667 0.659800 0.417900 1 1 1.000000
guns
  1 0.890400 -4.489966 56.238293 0.159792 -0.235488 0.958651 0.655600 0.409500 1 1 1.000000
  1 1.650500 -5.806366 55.608692 0.258411 -0.427618 0.866237 0.662600 0.385400 1 1 1.000000
  1 2.803900 -4.652966 55.608692 0.437616 -0.241109 0.866232 0.671900 0.403900 1 1 1.000000
guns
  1 1.650500 -5.806366 55.608692 0.258411 -0.427618 0.866237 0.662600 0.385400 1 1 1.000000
  1 3.934400 -5.305566 54.607094 0.642898 -0.359399 0.676398 0.685300 0.388400 1 1 1.000000
  1 2.803900 -4.652966 55.608692 0.437616 -0.241109 0.866232 0.671900 0.403900 1 1 1.000000
guns
  1 1.650500 -5.806366 55.608692 0.258411 -0.427618 0.866237 0.662600 0.385400 1 1 1.000000
  1 2.303100 -6.936866 54.607094 0.377094 -0.632690 0.676390 0.670400 0.358500 1 1 1.000000
  1 3.934400 -5.305566 54.607094 0.642898 -0.359399 0.676398 0.685300 0.388400 1 1 1.000000
guns
  1 2.303100 -6.936866 54.607094 0.377094 -0.632690 0.676390 0.670400 0.358500 1 1 1.000000
  1 5.074400 -5.963766 52.541794 0.802698 -0.456899 0.383299 0.700800 0.370500 1 1 1.000000
  1 3.934400 -5.305566 54.607094 0.642898 -0.359399 0.676398 0.685300 0.388400 1 1 1.000000
guns
  1 2.303100 -6.936866 54.607094 0.377094 -0.632690 0.676390 0.670400 0.358500 1 1 1.000000
  1 2.961300 -8.076866 52.541794 0.466715 -0.797025 0.383312 0.679300 0.327500 1 1 1.000000
  1 5.074400 -5.963766 52.541794 0.802698 -0.456899 0.383299 0.700800 0.370500 1 1 1.000000
guns
  1 0.074800 -7.533866 54.607094 0.010200 -0.736480 0.676382 0.649900 0.347600 1 1 1.000000
  1 2.961300 -8.076866 52.541794 0.466715 -0.797025 0.383312 0.679300 0.327500 1 1 1.000000
  1 2.303100 -6.936866 54.607094 0.377094 -0.632690 0.676390 0.670400 0.358500 1 1 1.000000
guns
  1 0.074800 -7.533866 54.607094 0.010200 -0.736480 0.676382 0.649900 0.347600 1 1 1.000000
  1 0.074800 -8.850266 52.541794 0.005700 -0.923605 0.383302 0.649900 0.311800 1 1 1.000000
  1 2.961300 -8.076866 52.541794 0.466715 -0.797025 0.383312 0.679300 0.327500 1 1 1.000000
guns
  1 -2.153500 -6.936866 54.607094 -0.359399 -0.642898 0.676398 0.629500 0.358500 1 1 1.000000
  1 0.074800 -8.850266 52.541794 0.005700 -0.923605 0.383302 0.649900 0.311800 1 1 1.000000
  1 0.074800 -7.533866 54.607094 0.010200 -0.736480 0.676382 0.649900 0.347600 1 1 1.000000
guns
  1 -2.153500 -6.936866 54.607094 -0.359399 -0.642898 0.676398 0.629500 0.358500 1 1 1.000000
  1 -2.811700 -8.076866 52.541794 -0.456899 -0.802698 0.383299 0.620600 0.327500 1 1 1.000000
  1 0.074800 -8.850266 52.541794 0.005700 -0.923605 0.383302 0.649900 0.311800 1 1 1.000000
guns
  1 -3.784700 -5.305566 54.607094 -0.632690 -0.377094 0.676390 0.614600 0.388400 1 1 1.000000
  1 -2.811700 -8.076866 52.541794 -0.456899 -0.802698 0.383299 0.620600 0.327500 1 1 1.000000
  1 -2.153500 -6.936866 54.607094 -0.359399 -0.642898 0.676398 0.629500 0.358500 1 1 1.000000
guns
  1 -3.784700 -5.305566 54.607094 -0.632690 -0.377094 0.676390 0.614600 0.388400 1 1 1.000000
  1 -4.924700 -5.963766 52.541794 -0.797025 -0.466715 0.383312 0.599100 0.370500 1 1 1.000000
  1 -2.811700 -8.076866 52.541794 -0.456899 -0.802698 0.383299 0.620600 0.327500 1 1 1.000000
guns
  1 -4.381800 -3.077266 54.607094 -0.736480 -0.010200 0.676382 0.609100 0.429300 1 1 1.000000
  1 -4.924700 -5.963766 52.541794 -0.797025 -0.466715 0.383312 0.599100 0.370500 1 1 1.000000
  1 -3.784700 -5.305566 54.607094 -0.632690 -0.377094 0.676390 0.614600 0.388400 1 1 1.000000
guns
  1 -4.381800 -3.077266 54.607094 -0.736480 -0.010200 0.676382 0.609100 0.429300 1 1 1.000000
  1 -5.698200 -3.077266 52.541794 -0.923605 -0.005700 0.383302 0.591200 0.429300 1 1 1.000000
  1 -4.924700 -5.963766 52.541794 -0.797025 -0.466715 0.383312 0.599100 0.370500 1 1 1.000000
guns
  1 -3.784700 -0.848966 54.607094 -0.642898 0.359399 0.676398 0.614600 0.470100 1 1 1.000000
  1 -5.698200 -3.077266 52.541794 -0.923605 -0.005700 0.383302 0.591200 0.429300 1 1 1.000000
  1 -4.381800 -3.077266 54.607094 -0.736480 -0.010200 0.676382 0.609100 0.429300 1 1 1.000000
guns
  1 -3.784700 -0.848966 54.607094 -0.642898 0.359399 0.676398 0.614600 0.470100 1 1 1.000000
  1 -4.924700 -0.190766 52.541794 -0.802698 0.456899 0.383299 0.599100 0.488000 1 1 1.000000
  1 -5.698200 -3.077266 52.541794 -0.923605 -0.005700 0.383302 0.591200 0.429300 1 1 1.000000
guns
  1 -2.153500 0.782234 54.607094 -0.377094 0.632690 0.676390 0.629500 0.500000 1 1 1.000000
  1 -4.924700 -0.190766 52.541794 -0.802698 0.456899 0.383299 0.599100 0.488000 1 1 1.000000
  1 -3.784700 -0.848966 54.607094 -0.642898 0.359399 0.676398 0.614600 0.470100 1 1 1.000000
guns
  1 -2.153500 0.782234 54.607094 -0.377094 0.632690 0.676390 0.629500 0.500000 1 1 1.000000
  1 -2.811700 1.922334 52.541794 -0.466715 0.797025 0.383312 0.620600 0.531000 1 1 1.000000
  1 -4.924700 -0.190766 52.541794 -0.802698 0.456899 0.383299 0.599100 0.488000 1 1 1.000000
guns
  1 0.074800 1.379334 54.607094 -0.010200 0.736480 0.676382 0.649900 0.511000 1 1 1.000000
  1 -2.811700 1.922334 52.541794 -0.466715 0.797025 0.383312 0.620600 0.531000 1 1 1.000000
  1 -2.153500 0.782234 54.607094 -0.377094 0.632690 0.676390 0.629500 0.500000 1 1 1.000000
guns
  1 0.074800 0.074034 55.608692 -0.010000 0.499524 0.866242 0.649900 0.479900 1 1 1.000000
  1 0.074800 1.379334 54.607094 -0.010200 0.736480 0.676382 0.649900 0.511000 1 1 1.000000
  1 -2.153500 0.782234 54.607094 -0.377094 0.632690 0.676390 0.629500 0.500000 1 1 1.000000
guns
  1 1.650500 -0.348166 55.608692 0.241109 0.437616 0.866232 0.662600 0.473200 1 1 1.000000
  1 0.074800 1.379334 54.607094 -0.010200 0.736480 0.676382 0.649900 0.511000 1 1 1.000000
  1 0.074800 0.074034 55.608692 -0.010000 0.499524 0.866242 0.649900 0.479900 1 1 1.000000
guns
  1 0.890400 -1.664566 56.238293 0.123996 0.256091 0.958667 0.655600 0.449000 1 1 1.000000
  1 0.074800 0.074034 55.608692 -0.010000 0.499524 0.866242 0.649900 0.479900 1 1 1.000000
  1 0.074800 -1.446066 56.238293 -0.020599 0.283790 0.958665 0.649900 0.452100 1 1 1.000000
guns
  1 0.074800 -1.446066 56.238293 -0.020599 0.283790 0.958665 0.649900 0.452100 1 1 1.000000
  1 0.074800 0.074034 55.608692 -0.010000 0.499524 0.866242 0.649900 0.479900 1 1 1.000000
  1 -1.500800 -0.348166 55.608692 -0.258411 0.427618 0.866237 0.637300 0.473200 1 1 1.000000
guns
  1 0.074800 0.074034 55.608692 -0.010000 0.499524 0.866242 0.649900 0.479900 1 1 1.000000
  1 -2.153500 0.782234 54.607094 -0.377094 0.632690 0.676390 0.629500 0.500000 1 1 1.000000
  1 -1.500800 -0.348166 55.608692 -0.258411 0.427618 0.866237 0.637300 0.473200 1 1 1.000000
guns
  1 -1.500800 -0.348166 55.608692 -0.258411 0.427618 0.866237 0.637300 0.473200 1 1 1.000000
  1 -2.153500 0.782234 54.607094 -0.377094 0.632690 0.676390 0.629500 0.500000 1 1 1.000000
  1 -3.784700 -0.848966 54.607094 -0.642898 0.359399 0.676398 0.614600 0.470100 1 1 1.000000
guns
  1 0.890400 -1.664566 56.238293 0.123996 0.256091 0.958667 0.655600 0.449000 1 1 1.000000
  1 1.650500 -0.348166 55.608692 0.241109 0.437616 0.866232 0.662600 0.473200 1 1 1.000000
  1 0.074800 0.074034 55.608692 -0.010000 0.499524 0.866242 0.649900 0.479900 1 1 1.000000
guns
  1 1.487500 -2.261666 56.238293 0.235488 0.159792 0.958651 0.659800 0.440700 1 1 1.000000
  1 1.650500 -0.348166 55.608692 0.241109 0.437616 0.866232 0.662600 0.473200 1 1 1.000000
  1 0.890400 -1.664566 56.238293 0.123996 0.256091 0.958667 0.655600 0.449000 1 1 1.000000
guns
  1 0.074800 -3.077266 56.453091 0.000000 0.000000 1.000000 0.649900 0.429300 1 1 1.000000
  1 1.487500 -2.261666 56.238293 0.235488 0.159792 0.958651 0.659800 0.440700 1 1 1.000000
  1 0.890400 -1.664566 56.238293 0.123996 0.256091 0.958667 0.655600 0.449000 1 1 1.000000
guns
  1 0.074800 -3.077266 56.453091 0.000000 0.000000 1.000000 0.649900 0.429300 1 1 1.000000
  1 0.890400 -1.664566 56.238293 0.123996 0.256091 0.958667 0.655600 0.449000 1 1 1.000000
  1 0.074800 -1.446066 56.238293 -0.020599 0.283790 0.958665 0.649900 0.452100 1 1 1.000000
guns
  1 0.074800 -3.077266 56.453091 0.000000 0.000000 1.000000 0.649900 0.429300 1 1 1.000000
  1 0.074800 -1.446066 56.238293 -0.020599 0.283790 0.958665 0.649900 0.452100 1 1 1.000000
  1 -0.740800 -1.664566 56.238293 -0.159792 0.235488 0.958651 0.644200 0.449000 1 1 1.000000
guns
  1 0.074800 -1.446066 56.238293 -0.020599 0.283790 0.958665 0.649900 0.452100 1 1 1.000000
  1 -1.500800 -0.348166 55.608692 -0.258411 0.427618 0.866237 0.637300 0.473200 1 1 1.000000
  1 -0.740800 -1.664566 56.238293 -0.159792 0.235488 0.958651 0.644200 0.449000 1 1 1.000000
guns
  1 -0.740800 -1.664566 56.238293 -0.159792 0.235488 0.958651 0.644200 0.449000 1 1 1.000000
  1 -1.500800 -0.348166 55.608692 -0.258411 0.427618 0.866237 0.637300 0.473200 1 1 1.000000
  1 -2.654300 -1.501666 55.608692 -0.437616 0.241109 0.866232 0.628000 0.454600 1 1 1.000000
guns
  1 -1.500800 -0.348166 55.608692 -0.258411 0.427618 0.866237 0.637300 0.473200 1 1 1.000000
  1 -3.784700 -0.848966 54.607094 -0.642898 0.359399 0.676398 0.614600 0.470100 1 1 1.000000
  1 -2.654300 -1.501666 55.608692 -0.437616 0.241109 0.866232 0.628000 0.454600 1 1 1.000000
guns
  1 -2.654300 -1.501666 55.608692 -0.437616 0.241109 0.866232 0.628000 0.454600 1 1 1.000000
  1 -3.784700 -0.848966 54.607094 -0.642898 0.359399 0.676398 0.614600 0.470100 1 1 1.000000
  1 -4.381800 -3.077266 54.607094 -0.736480 -0.010200 0.676382 0.609100 0.429300 1 1 1.000000
guns
  1 -2.654300 -1.501666 55.608692 -0.437616 0.241109 0.866232 0.628000 0.454600 1 1 1.000000
  1 -4.381800 -3.077266 54.607094 -0.736480 -0.010200 0.676382 0.609100 0.429300 1 1 1.000000
  1 -3.076500 -3.077266 55.608692 -0.499524 -0.010000 0.866242 0.624600 0.429300 1 1 1.000000
guns
  1 -3.076500 -3.077266 55.608692 -0.499524 -0.010000 0.866242 0.624600 0.429300 1 1 1.000000
  1 -4.381800 -3.077266 54.607094 -0.736480 -0.010200 0.676382 0.609100 0.429300 1 1 1.000000
  1 -3.784700 -5.305566 54.607094 -0.632690 -0.377094 0.676390 0.614600 0.388400 1 1 1.000000
guns
  1 -3.076500 -3.077266 55.608692 -0.499524 -0.010000 0.866242 0.624600 0.429300 1 1 1.000000
  1 -3.784700 -5.305566 54.607094 -0.632690 -0.377094 0.676390 0.614600 0.388400 1 1 1.000000
  1 -2.654300 -4.652966 55.608692 -0.427618 -0.258411 0.866237 0.628000 0.403900 1 1 1.000000
guns
  1 -2.654300 -4.652966 55.608692 -0.427618 -0.258411 0.866237 0.628000 0.403900 1 1 1.000000
  1 -3.784700 -5.305566 54.607094 -0.632690 -0.377094 0.676390 0.614600 0.388400 1 1 1.000000
  1 -2.153500 -6.936866 54.607094 -0.359399 -0.642898 0.676398 0.629500 0.358500 1 1 1.000000
guns
  1 -2.654300 -4.652966 55.608692 -0.427618 -0.258411 0.866237 0.628000 0.403900 1 1 1.000000
  1 -2.153500 -6.936866 54.607094 -0.359399 -0.642898 0.676398 0.629500 0.358500 1 1 1.000000
  1 -1.500800 -5.806366 55.608692 -0.241109 -0.437616 0.866232 0.637300 0.385400 1 1 1.000000
guns
  1 -1.500800 -5.806366 55.608692 -0.241109 -0.437616 0.866232 0.637300 0.385400 1 1 1.000000
  1 -2.153500 -6.936866 54.607094 -0.359399 -0.642898 0.676398 0.629500 0.358500 1 1 1.000000
  1 0.074800 -7.533866 54.607094 0.010200 -0.736480 0.676382 0.649900 0.347600 1 1 1.000000
guns
  1 -1.500800 -5.806366 55.608692 -0.241109 -0.437616 0.866232 0.637300 0.385400 1 1 1.000000
  1 0.074800 -7.533866 54.607094 0.010200 -0.736480 0.676382 0.649900 0.347600 1 1 1.000000
  1 0.074800 -6.228566 55.608692 0.010000 -0.499524 0.866242 0.649900 0.378600 1 1 1.000000
guns
  1 0.074800 -6.228566 55.608692 0.010000 -0.499524 0.866242 0.649900 0.378600 1 1 1.000000
  1 0.074800 -7.533866 54.607094 0.010200 -0.736480 0.676382 0.649900 0.347600 1 1 1.000000
  1 2.303100 -6.936866 54.607094 0.377094 -0.632690 0.676390 0.670400 0.358500 1 1 1.000000
guns
  1 0.074800 -6.228566 55.608692 0.010000 -0.499524 0.866242 0.649900 0.378600 1 1 1.000000
  1 2.303100 -6.936866 54.607094 0.377094 -0.632690 0.676390 0.670400 0.358500 1 1 1.000000
  1 1.650500 -5.806366 55.608692 0.258411 -0.427618 0.866237 0.662600 0.385400 1 1 1.000000
guns
  1 -0.740800 -4.489966 56.238293 -0.123996 -0.256091 0.958667 0.644200 0.409500 1 1 1.000000
  1 0.074800 -6.228566 55.608692 0.010000 -0.499524 0.866242 0.649900 0.378600 1 1 1.000000
  1 0.074800 -4.708566 56.238293 0.020599 -0.283790 0.958665 0.649900 0.406500 1 1 1.000000
guns
  1 -0.740800 -4.489966 56.238293 -0.123996 -0.256091 0.958667 0.644200 0.409500 1 1 1.000000
  1 -1.500800 -5.806366 55.608692 -0.241109 -0.437616 0.866232 0.637300 0.385400 1 1 1.000000
  1 0.074800 -6.228566 55.608692 0.010000 -0.499524 0.866242 0.649900 0.378600 1 1 1.000000
guns
  1 0.074800 -4.708566 56.238293 0.020599 -0.283790 0.958665 0.649900 0.406500 1 1 1.000000
  1 0.074800 -6.228566 55.608692 0.010000 -0.499524 0.866242 0.649900 0.378600 1 1 1.000000
  1 1.650500 -5.806366 55.608692 0.258411 -0.427618 0.866237 0.662600 0.385400 1 1 1.000000
guns
  1 0.074800 -4.708566 56.238293 0.020599 -0.283790 0.958665 0.649900 0.406500 1 1 1.000000
  1 1.650500 -5.806366 55.608692 0.258411 -0.427618 0.866237 0.662600 0.385400 1 1 1.000000
  1 0.890400 -4.489966 56.238293 0.159792 -0.235488 0.958651 0.655600 0.409500 1 1 1.000000
guns
  1 0.074800 -3.077266 56.453091 0.000000 0.000000 1.000000 0.649900 0.429300 1 1 1.000000
  1 0.074800 -4.708566 56.238293 0.020599 -0.283790 0.958665 0.649900 0.406500 1 1 1.000000
  1 0.890400 -4.489966 56.238293 0.159792 -0.235488 0.958651 0.655600 0.409500 1 1 1.000000
guns
  1 0.074800 -3.077266 56.453091 0.000000 0.000000 1.000000 0.649900 0.429300 1 1 1.000000
  1 -0.740800 -4.489966 56.238293 -0.123996 -0.256091 0.958667 0.644200 0.409500 1 1 1.000000
  1 0.074800 -4.708566 56.238293 0.020599 -0.283790 0.958665 0.649900 0.406500 1 1 1.000000
guns
  1 0.074800 -3.077266 56.453091 0.000000 0.000000 1.000000 0.649900 0.429300 1 1 1.000000
  1 -1.337900 -3.892866 56.238293 -0.235488 -0.159792 0.958651 0.640100 0.417900 1 1 1.000000
  1 -0.740800 -4.489966 56.238293 -0.123996 -0.256091 0.958667 0.644200 0.409500 1 1 1.000000
guns
  1 -1.337900 -3.892866 56.238293 -0.235488 -0.159792 0.958651 0.640100 0.417900 1 1 1.000000
  1 -1.500800 -5.806366 55.608692 -0.241109 -0.437616 0.866232 0.637300 0.385400 1 1 1.000000
  1 -0.740800 -4.489966 56.238293 -0.123996 -0.256091 0.958667 0.644200 0.409500 1 1 1.000000
guns
  1 -1.337900 -3.892866 56.238293 -0.235488 -0.159792 0.958651 0.640100 0.417900 1 1 1.000000
  1 -2.654300 -4.652966 55.608692 -0.427618 -0.258411 0.866237 0.628000 0.403900 1 1 1.000000
  1 -1.500800 -5.806366 55.608692 -0.241109 -0.437616 0.866232 0.637300 0.385400 1 1 1.000000
guns
  1 -1.556400 -3.077266 56.238293 -0.283790 -0.020599 0.958665 0.638500 0.429300 1 1 1.000000
  1 -2.654300 -4.652966 55.608692 -0.427618 -0.258411 0.866237 0.628000 0.403900 1 1 1.000000
  1 -1.337900 -3.892866 56.238293 -0.235488 -0.159792 0.958651 0.640100 0.417900 1 1 1.000000
guns
  1 -1.556400 -3.077266 56.238293 -0.283790 -0.020599 0.958665 0.638500 0.429300 1 1 1.000000
  1 -3.076500 -3.077266 55.608692 -0.499524 -0.010000 0.866242 0.624600 0.429300 1 1 1.000000
  1 -2.654300 -4.652966 55.608692 -0.427618 -0.258411 0.866237 0.628000 0.403900 1 1 1.000000
guns
  1 -1.337900 -2.261666 56.238293 -0.256091 0.123996 0.958667 0.640100 0.440700 1 1 1.000000
  1 -3.076500 -3.077266 55.608692 -0.499524 -0.010000 0.866242 0.624600 0.429300 1 1 1.000000
  1 -1.556400 -3.077266 56.238293 -0.283790 -0.020599 0.958665 0.638500 0.429300 1 1 1.000000
guns
  1 -1.337900 -2.261666 56.238293 -0.256091 0.123996 0.958667 0.640100 0.440700 1 1 1.000000
  1 -2.654300 -1.501666 55.608692 -0.437616 0.241109 0.866232 0.628000 0.454600 1 1 1.000000
  1 -3.076500 -3.077266 55.608692 -0.499524 -0.010000 0.866242 0.624600 0.429300 1 1 1.000000
guns
  1 -0.740800 -1.664566 56.238293 -0.159792 0.235488 0.958651 0.644200 0.449000 1 1 1.000000
  1 -2.654300 -1.501666 55.608692 -0.437616 0.241109 0.866232 0.628000 0.454600 1 1 1.000000
  1 -1.337900 -2.261666 56.238293 -0.256091 0.123996 0.958667 0.640100 0.440700 1 1 1.000000
guns
  1 0.074800 -3.077266 56.453091 0.000000 0.000000 1.000000 0.649900 0.429300 1 1 1.000000
  1 -0.740800 -1.664566 56.238293 -0.159792 0.235488 0.958651 0.644200 0.449000 1 1 1.000000
  1 -1.337900 -2.261666 56.238293 -0.256091 0.123996 0.958667 0.640100 0.440700 1 1 1.000000
guns
  1 0.074800 -3.077266 56.453091 0.000000 0.000000 1.000000 0.649900 0.429300 1 1 1.000000
  1 -1.337900 -2.261666 56.238293 -0.256091 0.123996 0.958667 0.640100 0.440700 1 1 1.000000
  1 -1.556400 -3.077266 56.238293 -0.283790 -0.020599 0.958665 0.638500 0.429300 1 1 1.000000
guns
  1 0.074800 -3.077266 56.453091 0.000000 0.000000 1.000000 0.649900 0.429300 1 1 1.000000
  1 -1.556400 -3.077266 56.238293 -0.283790 -0.020599 0.958665 0.638500 0.429300 1 1 1.000000
  1 -1.337900 -3.892866 56.238293 -0.235488 -0.159792 0.958651 0.640100 0.417900 1 1 1.000000
guns
  1 0.074800 2.695734 52.541794 -0.005700 0.923605 0.383302 0.649900 0.546700 1 1 1.000000
  1 0.074800 3.225334 50.150490 -0.001000 0.994063 0.108796 0.649900 0.588300 1 1 1.000000
  1 -3.076500 2.380934 50.150490 -0.497892 0.860387 0.108798 0.610200 0.567000 1 1 1.000000
guns
  1 2.961300 1.922334 52.541794 0.456899 0.802698 0.383299 0.679300 0.531000 1 1 1.000000
  1 0.074800 3.225334 50.150490 -0.001000 0.994063 0.108796 0.649900 0.588300 1 1 1.000000
  1 0.074800 2.695734 52.541794 -0.005700 0.923605 0.383302 0.649900 0.546700 1 1 1.000000
guns
  1 2.961300 1.922334 52.541794 0.456899 0.802698 0.383299 0.679300 0.531000 1 1 1.000000
  1 3.226100 2.380934 50.150490 0.496185 0.861373 0.108797 0.689700 0.567000 1 1 1.000000
  1 0.074800 3.225334 50.150490 -0.001000 0.994063 0.108796 0.649900 0.588300 1 1 1.000000
guns
  1 5.074400 -0.190766 52.541794 0.797025 0.466715 0.383312 0.700800 0.488000 1 1 1.000000
  1 3.226100 2.380934 50.150490 0.496185 0.861373 0.108797 0.689700 0.567000 1 1 1.000000
  1 2.961300 1.922334 52.541794 0.456899 0.802698 0.383299 0.679300 0.531000 1 1 1.000000
guns
  1 5.074400 -0.190766 52.541794 0.797025 0.466715 0.383312 0.700800 0.488000 1 1 1.000000
  1 5.533000 0.074034 50.150490 0.860387 0.497892 0.108798 0.718800 0.508800 1 1 1.000000
  1 3.226100 2.380934 50.150490 0.496185 0.861373 0.108797 0.689700 0.567000 1 1 1.000000
guns
  1 5.847900 -3.077266 52.541794 0.923605 0.005700 0.383302 0.708700 0.429300 1 1 1.000000
  1 5.533000 0.074034 50.150490 0.860387 0.497892 0.108798 0.718800 0.508800 1 1 1.000000
  1 5.074400 -0.190766 52.541794 0.797025 0.466715 0.383312 0.700800 0.488000 1 1 1.000000
guns
  1 5.847900 -3.077266 52.541794 0.923605 0.005700 0.383302 0.708700 0.429300 1 1 1.000000
  1 6.377400 -3.077266 50.150490 0.994063 0.001000 0.108796 0.729400 0.429300 1 1 1.000000
  1 5.533000 0.074034 50.150490 0.860387 0.497892 0.108798 0.718800 0.508800 1 1 1.000000
guns
  1 5.074400 -5.963766 52.541794 0.802698 -0.456899 0.383299 0.700800 0.370500 1 1 1.000000
  1 6.377400 -3.077266 50.150490 0.994063 0.001000 0.108796 0.729400 0.429300 1 1 1.000000
  1 5.847900 -3.077266 52.541794 0.923605 0.005700 0.383302 0.708700 0.429300 1 1 1.000000
guns
  1 5.074400 -5.963766 52.541794 0.802698 -0.456899 0.383299 0.700800 0.370500 1 1 1.000000
  1 5.533000 -6.228566 50.150490 0.861373 -0.496185 0.108797 0.718800 0.349800 1 1 1.000000
  1 6.377400 -3.077266 50.150490 0.994063 0.001000 0.108796 0.729400 0.429300 1 1 1.000000
guns
  1 2.961300 -8.076866 52.541794 0.466715 -0.797025 0.383312 0.679300 0.327500 1 1 1.000000
  1 5.533000 -6.228566 50.150490 0.861373 -0.496185 0.108797 0.718800 0.349800 1 1 1.000000
  1 5.074400 -5.963766 52.541794 0.802698 -0.456899 0.383299 0.700800 0.370500 1 1 1.000000
guns
  1 2.961300 -8.076866 52.541794 0.466715 -0.797025 0.383312 0.679300 0.327500 1 1 1.000000
  1 3.226100 -8.535465 50.150490 0.497892 -0.860387 0.108798 0.689700 0.291600 1 1 1.000000
  1 5.533000 -6.228566 50.150490 0.861373 -0.496185 0.108797 0.718800 0.349800 1 1 1.000000
guns
  1 0.074800 -8.850266 52.541794 0.005700 -0.923605 0.383302 0.649900 0.311800 1 1 1.000000
  1 3.226100 -8.535465 50.150490 0.497892 -0.860387 0.108798 0.689700 0.291600 1 1 1.000000
  1 2.961300 -8.076866 52.541794 0.466715 -0.797025 0.383312 0.679300 0.327500 1 1 1.000000
guns
  1 0.074800 -8.850266 52.541794 0.005700 -0.923605 0.383302 0.649900 0.311800 1 1 1.000000
  1 0.074800 -9.379866 50.150490 0.001000 -0.994063 0.108796 0.649900 0.270300 1 1 1.000000
  1 3.226100 -8.535465 50.150490 0.497892 -0.860387 0.108798 0.689700 0.291600 1 1 1.000000
guns
  1 -2.811700 -8.076866 52.541794 -0.456899 -0.802698 0.383299 0.620600 0.327500 1 1 1.000000
  1 0.074800 -9.379866 50.150490 0.001000 -0.994063 0.108796 0.649900 0.270300 1 1 1.000000
  1 0.074800 -8.850266 52.541794 0.005700 -0.923605 0.383302 0.649900 0.311800 1 1 1.000000
guns
  1 -2.811700 -8.076866 52.541794 -0.456899 -0.802698 0.383299 0.620600 0.327500 1 1 1.000000
  1 -3.076500 -8.535465 50.150490 -0.496185 -0.861373 0.108797 0.610200 0.291600 1 1 1.000000
  1 0.074800 -9.379866 50.150490 0.001000 -0.994063 0.108796 0.649900 0.270300 1 1 1.000000
guns
  1 -4.924700 -5.963766 52.541794 -0.797025 -0.466715 0.383312 0.599100 0.370500 1 1 1.000000
  1 -3.076500 -8.535465 50.150490 -0.496185 -0.861373 0.108797 0.610200 0.291600 1 1 1.000000
  1 -2.811700 -8.076866 52.541794 -0.456899 -0.802698 0.383299 0.620600 0.327500 1 1 1.000000
guns
  1 -4.924700 -5.963766 52.541794 -0.797025 -0.466715 0.383312 0.599100 0.370500 1 1 1.000000
  1 -5.383400 -6.228566 50.150490 -0.860387 -0.497892 0.108798 0.581100 0.349800 1 1 1.000000
  1 -3.076500 -8.535465 50.150490 -0.496185 -0.861373 0.108797 0.610200 0.291600 1 1 1.000000
guns
  1 -5.698200 -3.077266 52.541794 -0.923605 -0.005700 0.383302 0.591200 0.429300 1 1 1.000000
  1 -5.383400 -6.228566 50.150490 -0.860387 -0.497892 0.108798 0.581100 0.349800 1 1 1.000000
  1 -4.924700 -5.963766 52.541794 -0.797025 -0.466715 0.383312 0.599100 0.370500 1 1 1.000000
end
