// Created by Crowbar 0.74
version 1
nodes
  0 "Root" -1
  1 "Main_Base" 0
  2 "Guns_Base" 1
  3 "R_Gun" 2
  4 "R_Gun_AtchPnt" 3
  5 "L_Gun" 2
  6 "L_Gun_AtchPnt" 5
end
skeleton
  time 0
    0 0.000000 -0.000002 37.173691 0.000000 0.000000 0.000000
    1 0.000000 -0.023742 -9.707077 0.000000 0.000000 0.000000
    2 7.122766 1.685086 0.000002 0.000000 0.000000 0.000000
    3 -21.245588 -0.005135 -0.000002 0.000000 0.000000 0.000000
    4 0.301132 -27.432880 1.425652 0.000000 0.000000 -3.141592
    5 7.098359 -0.005140 -0.000002 0.000000 0.000000 0.000000
    6 -0.068640 -27.421444 1.425652 0.000000 0.000000 -3.141592
end
triangles
guns
  3 -15.385983 -16.796923 29.891748 0.000000 -1.000000 0.000000 0.609600 0.236500 1 3 1.000000
  3 -12.271482 -16.796923 24.735649 0.000000 -1.000000 0.000000 0.587400 0.162900 1 3 1.000000
  3 -12.271482 -16.796923 29.891748 0.000000 -1.000000 0.000000 0.587400 0.236500 1 3 1.000000
guns
  3 -15.385983 -16.796923 29.891748 0.000000 -1.000000 0.000000 0.609600 0.236500 1 3 1.000000
  3 -15.385983 -16.796923 24.735649 0.000000 -1.000000 0.000000 0.609600 0.162900 1 3 1.000000
  3 -12.271482 -16.796923 24.735649 0.000000 -1.000000 0.000000 0.587400 0.162900 1 3 1.000000
guns
  3 -12.271482 -15.264922 31.423748 0.378392 -0.244095 0.892881 0.668900 0.149400 1 3 1.000000
  3 -12.271482 -16.796923 29.891748 0.450621 -0.770636 0.450621 0.680400 0.126500 1 3 1.000000
  3 -10.739483 -15.264922 29.891748 0.910179 -0.292893 0.292893 0.664000 0.124700 1 3 1.000000
guns
  3 -12.271482 -16.796923 29.891748 0.450621 -0.770636 0.450621 0.680400 0.126500 1 3 1.000000
  3 -10.739483 -15.264922 24.735649 0.840415 -0.381207 -0.385207 0.664000 0.051100 1 3 1.000000
  3 -10.739483 -15.264922 29.891748 0.910179 -0.292893 0.292893 0.664000 0.124700 1 3 1.000000
guns
  3 -12.271482 -16.796923 29.891748 0.450621 -0.770636 0.450621 0.680400 0.126500 1 3 1.000000
  3 -12.271482 -16.796923 24.735649 0.476517 -0.738826 -0.476517 0.680400 0.049300 1 3 1.000000
  3 -10.739483 -15.264922 24.735649 0.840415 -0.381207 -0.385207 0.664000 0.051100 1 3 1.000000
guns
  3 -12.271482 -16.796923 24.735649 0.476517 -0.738826 -0.476517 0.680400 0.049300 1 3 1.000000
  3 -12.271482 -15.264922 23.203650 0.292490 -0.452985 -0.842172 0.668900 0.026400 1 3 1.000000
  3 -10.739483 -15.264922 24.735649 0.840415 -0.381207 -0.385207 0.664000 0.051100 1 3 1.000000
guns
  3 -10.739483 -15.264922 24.735649 0.840415 -0.381207 -0.385207 0.664000 0.051100 1 3 1.000000
  3 -12.271482 -15.264922 23.203650 0.292490 -0.452985 -0.842172 0.668900 0.026400 1 3 1.000000
  3 -12.356883 12.200976 23.203650 0.371122 0.241414 -0.896653 0.463300 0.026400 1 3 1.000000
guns
  3 -10.739483 -15.264922 24.735649 0.840415 -0.381207 -0.385207 0.664000 0.051100 1 3 1.000000
  3 -12.356883 12.200976 23.203650 0.371122 0.241414 -0.896653 0.463300 0.026400 1 3 1.000000
  3 -10.739483 12.200976 24.735649 0.907158 0.291687 -0.303286 0.468200 0.051100 1 3 1.000000
guns
  3 -10.739483 12.200976 24.735649 0.907158 0.291687 -0.303286 0.468200 0.051100 1 3 1.000000
  3 -12.356883 12.200976 23.203650 0.371122 0.241414 -0.896653 0.463300 0.026400 1 3 1.000000
  3 -12.271482 13.732877 24.735649 0.379208 0.841318 -0.385208 0.451800 0.049300 1 3 1.000000
guns
  3 -10.739483 12.200976 29.891748 0.842510 0.380905 0.380905 0.468200 0.124700 1 3 1.000000
  3 -10.739483 12.200976 24.735649 0.907158 0.291687 -0.303286 0.468200 0.051100 1 3 1.000000
  3 -12.271482 13.732877 24.735649 0.379208 0.841318 -0.385208 0.451800 0.049300 1 3 1.000000
guns
  3 -10.739483 12.200976 29.891748 0.842510 0.380905 0.380905 0.468200 0.124700 1 3 1.000000
  3 -12.271482 13.732877 24.735649 0.379208 0.841318 -0.385208 0.451800 0.049300 1 3 1.000000
  3 -12.271482 13.732877 29.891748 0.292893 0.910179 0.292893 0.451800 0.126500 1 3 1.000000
guns
  3 -12.271482 12.200976 31.423748 0.292395 0.453392 0.841986 0.463300 0.149400 1 3 1.000000
  3 -10.739483 12.200976 29.891748 0.842510 0.380905 0.380905 0.468200 0.124700 1 3 1.000000
  3 -12.271482 13.732877 29.891748 0.292893 0.910179 0.292893 0.451800 0.126500 1 3 1.000000
guns
  3 -12.271482 -15.264922 31.423748 0.378392 -0.244095 0.892881 0.668900 0.149400 1 3 1.000000
  3 -10.739483 12.200976 29.891748 0.842510 0.380905 0.380905 0.468200 0.124700 1 3 1.000000
  3 -12.271482 12.200976 31.423748 0.292395 0.453392 0.841986 0.463300 0.149400 1 3 1.000000
guns
  3 -12.271482 -15.264922 31.423748 0.378392 -0.244095 0.892881 0.668900 0.149400 1 3 1.000000
  3 -10.739483 -15.264922 29.891748 0.910179 -0.292893 0.292893 0.664000 0.124700 1 3 1.000000
  3 -10.739483 12.200976 29.891748 0.842510 0.380905 0.380905 0.468200 0.124700 1 3 1.000000
guns
  3 -10.739483 -15.264922 29.891748 0.910179 -0.292893 0.292893 0.664000 0.124700 1 3 1.000000
  3 -10.739483 12.200976 24.735649 0.907158 0.291687 -0.303286 0.468200 0.051100 1 3 1.000000
  3 -10.739483 12.200976 29.891748 0.842510 0.380905 0.380905 0.468200 0.124700 1 3 1.000000
guns
  3 -10.739483 -15.264922 29.891748 0.910179 -0.292893 0.292893 0.664000 0.124700 1 3 1.000000
  3 -10.739483 -15.264922 24.735649 0.840415 -0.381207 -0.385207 0.664000 0.051100 1 3 1.000000
  3 -10.739483 12.200976 24.735649 0.907158 0.291687 -0.303286 0.468200 0.051100 1 3 1.000000
guns
  3 -13.885783 -23.093924 28.717850 0.000000 -1.000000 0.000000 0.049200 0.890100 1 3 1.000000
  3 -14.707582 -23.093924 29.539650 0.000000 -1.000000 0.000000 0.064500 0.920700 1 3 1.000000
  3 -15.047883 -23.093924 28.717850 0.000000 -1.000000 0.000000 0.070800 0.890100 1 3 1.000000
guns
  3 -13.885783 -23.093924 28.717850 0.000000 -1.000000 0.000000 0.049200 0.890100 1 3 1.000000
  3 -13.885783 -23.093924 29.879950 0.000000 -1.000000 0.000000 0.049200 0.933300 1 3 1.000000
  3 -14.707582 -23.093924 29.539650 0.000000 -1.000000 0.000000 0.064500 0.920700 1 3 1.000000
guns
  3 -13.885783 -23.093924 28.717850 0.000000 -1.000000 0.000000 0.049200 0.890100 1 3 1.000000
  3 -13.064083 -23.093924 29.539650 0.000000 -1.000000 0.000000 0.033900 0.920700 1 3 1.000000
  3 -13.885783 -23.093924 29.879950 0.000000 -1.000000 0.000000 0.049200 0.933300 1 3 1.000000
guns
  3 -13.885783 -23.093924 28.717850 0.000000 -1.000000 0.000000 0.049200 0.890100 1 3 1.000000
  3 -12.723683 -23.093924 28.717850 0.000000 -1.000000 0.000000 0.027500 0.890100 1 3 1.000000
  3 -13.064083 -23.093924 29.539650 0.000000 -1.000000 0.000000 0.033900 0.920700 1 3 1.000000
guns
  3 -13.885783 -23.093924 28.717850 0.000000 -1.000000 0.000000 0.049200 0.890100 1 3 1.000000
  3 -13.064083 -23.093924 27.896149 0.000000 -1.000000 0.000000 0.033900 0.859500 1 3 1.000000
  3 -12.723683 -23.093924 28.717850 0.000000 -1.000000 0.000000 0.027500 0.890100 1 3 1.000000
guns
  3 -13.885783 -23.093924 28.717850 0.000000 -1.000000 0.000000 0.049200 0.890100 1 3 1.000000
  3 -13.885783 -23.093924 27.555750 0.000000 -1.000000 0.000000 0.049200 0.846800 1 3 1.000000
  3 -13.064083 -23.093924 27.896149 0.000000 -1.000000 0.000000 0.033900 0.859500 1 3 1.000000
guns
  3 -13.885783 -23.093924 28.717850 0.000000 -1.000000 0.000000 0.049200 0.890100 1 3 1.000000
  3 -14.707582 -23.093924 27.896149 0.000000 -1.000000 0.000000 0.064500 0.859500 1 3 1.000000
  3 -13.885783 -23.093924 27.555750 0.000000 -1.000000 0.000000 0.049200 0.846800 1 3 1.000000
guns
  3 -13.885783 -23.093924 28.717850 0.000000 -1.000000 0.000000 0.049200 0.890100 1 3 1.000000
  3 -15.047883 -23.093924 28.717850 0.000000 -1.000000 0.000000 0.070800 0.890100 1 3 1.000000
  3 -14.707582 -23.093924 27.896149 0.000000 -1.000000 0.000000 0.064500 0.859500 1 3 1.000000
guns
  3 -15.385983 -15.264922 31.423748 -0.292395 -0.453392 0.841986 0.987200 0.042400 1 3 1.000000
  3 -15.385983 -16.796923 29.891748 -0.476517 -0.738826 0.476517 0.987200 0.011500 1 3 1.000000
  3 -12.271482 -16.796923 29.891748 0.450621 -0.770636 0.450621 0.965000 0.011500 1 3 1.000000
guns
  3 -15.385983 -15.264922 31.423748 -0.292395 -0.453392 0.841986 0.987200 0.042400 1 3 1.000000
  3 -12.271482 -16.796923 29.891748 0.450621 -0.770636 0.450621 0.965000 0.011500 1 3 1.000000
  3 -12.271482 -15.264922 31.423748 0.378392 -0.244095 0.892881 0.965000 0.042400 1 3 1.000000
guns
  3 -15.385983 12.200976 31.423748 -0.381321 0.234713 0.894150 0.987200 0.434200 1 3 1.000000
  3 -15.385983 -15.264922 31.423748 -0.292395 -0.453392 0.841986 0.987200 0.042400 1 3 1.000000
  3 -12.271482 -15.264922 31.423748 0.378392 -0.244095 0.892881 0.965000 0.042400 1 3 1.000000
guns
  3 -15.385983 12.200976 31.423748 -0.381321 0.234713 0.894150 0.987200 0.434200 1 3 1.000000
  3 -12.271482 -15.264922 31.423748 0.378392 -0.244095 0.892881 0.965000 0.042400 1 3 1.000000
  3 -12.271482 12.200976 31.423748 0.292395 0.453392 0.841986 0.965000 0.434200 1 3 1.000000
guns
  3 -12.271482 12.200976 31.423748 0.292395 0.453392 0.841986 0.965000 0.434200 1 3 1.000000
  3 -15.556983 13.732877 29.891748 -0.396491 0.833781 0.384191 0.987200 0.465300 1 3 1.000000
  3 -15.385983 12.200976 31.423748 -0.381321 0.234713 0.894150 0.987200 0.434200 1 3 1.000000
guns
  3 -12.271482 12.200976 31.423748 0.292395 0.453392 0.841986 0.965000 0.434200 1 3 1.000000
  3 -12.271482 13.732877 29.891748 0.292893 0.910179 0.292893 0.965000 0.465300 1 3 1.000000
  3 -15.556983 13.732877 29.891748 -0.396491 0.833781 0.384191 0.987200 0.465300 1 3 1.000000
guns
  3 -12.271482 13.732877 29.891748 0.292893 0.910179 0.292893 0.965000 0.465300 1 3 1.000000
  3 -15.385983 13.732877 24.735649 -0.294396 0.909887 -0.292296 0.987200 0.538900 1 3 1.000000
  3 -15.556983 13.732877 29.891748 -0.396491 0.833781 0.384191 0.987200 0.465300 1 3 1.000000
guns
  3 -12.271482 13.732877 29.891748 0.292893 0.910179 0.292893 0.965000 0.465300 1 3 1.000000
  3 -12.271482 13.732877 24.735649 0.379208 0.841318 -0.385208 0.965000 0.538900 1 3 1.000000
  3 -15.385983 13.732877 24.735649 -0.294396 0.909887 -0.292296 0.987200 0.538900 1 3 1.000000
guns
  3 -12.271482 13.732877 24.735649 0.379208 0.841318 -0.385208 0.965000 0.538900 1 3 1.000000
  3 -15.471483 12.200976 23.203650 -0.301001 0.457702 -0.836604 0.987200 0.570200 1 3 1.000000
  3 -15.385983 13.732877 24.735649 -0.294396 0.909887 -0.292296 0.987200 0.538900 1 3 1.000000
guns
  3 -12.271482 13.732877 24.735649 0.379208 0.841318 -0.385208 0.965000 0.538900 1 3 1.000000
  3 -12.356883 12.200976 23.203650 0.371122 0.241414 -0.896653 0.965000 0.570200 1 3 1.000000
  3 -15.471483 12.200976 23.203650 -0.301001 0.457702 -0.836604 0.987200 0.570200 1 3 1.000000
guns
  3 -12.356883 12.200976 23.203650 0.371122 0.241414 -0.896653 0.965000 0.570200 1 3 1.000000
  3 -15.385983 -15.264922 23.203650 -0.382988 -0.244993 -0.890673 0.987200 0.962300 1 3 1.000000
  3 -15.471483 12.200976 23.203650 -0.301001 0.457702 -0.836604 0.987200 0.570200 1 3 1.000000
guns
  3 -12.356883 12.200976 23.203650 0.371122 0.241414 -0.896653 0.965000 0.570200 1 3 1.000000
  3 -12.271482 -15.264922 23.203650 0.292490 -0.452985 -0.842172 0.965000 0.962300 1 3 1.000000
  3 -15.385983 -15.264922 23.203650 -0.382988 -0.244993 -0.890673 0.987200 0.962300 1 3 1.000000
guns
  3 -15.385983 -16.796923 24.735649 -0.450621 -0.770636 -0.450621 0.987200 0.993100 1 3 1.000000
  3 -15.385983 -15.264922 23.203650 -0.382988 -0.244993 -0.890673 0.987200 0.962300 1 3 1.000000
  3 -12.271482 -15.264922 23.203650 0.292490 -0.452985 -0.842172 0.965000 0.962300 1 3 1.000000
guns
  3 -15.385983 -16.796923 24.735649 -0.450621 -0.770636 -0.450621 0.987200 0.993100 1 3 1.000000
  3 -12.271482 -15.264922 23.203650 0.292490 -0.452985 -0.842172 0.965000 0.962300 1 3 1.000000
  3 -12.271482 -16.796923 24.735649 0.476517 -0.738826 -0.476517 0.965000 0.993100 1 3 1.000000
guns
  3 -13.064083 -16.689924 29.539650 0.797159 0.000000 0.603769 0.074800 0.592400 1 3 1.000000
  3 -12.723683 -23.093924 28.717850 0.990599 0.000000 0.136800 0.084400 0.692600 1 3 1.000000
  3 -12.723683 -16.689924 28.717850 0.990599 0.000000 -0.136800 0.084400 0.592400 1 3 1.000000
guns
  3 -13.064083 -16.689924 29.539650 0.797159 0.000000 0.603769 0.074800 0.592400 1 3 1.000000
  3 -13.064083 -23.093924 29.539650 0.603705 0.000000 0.797207 0.074800 0.692600 1 3 1.000000
  3 -12.723683 -23.093924 28.717850 0.990599 0.000000 0.136800 0.084400 0.692600 1 3 1.000000
guns
  3 -13.885783 -16.689924 29.879950 0.136800 0.000000 0.990599 0.065300 0.592400 1 3 1.000000
  3 -13.064083 -23.093924 29.539650 0.603705 0.000000 0.797207 0.074800 0.692600 1 3 1.000000
  3 -13.064083 -16.689924 29.539650 0.797159 0.000000 0.603769 0.074800 0.592400 1 3 1.000000
guns
  3 -13.885783 -16.689924 29.879950 0.136800 0.000000 0.990599 0.065300 0.592400 1 3 1.000000
  3 -13.885783 -23.093924 29.879950 -0.136800 0.000000 0.990599 0.065300 0.692600 1 3 1.000000
  3 -13.064083 -23.093924 29.539650 0.603705 0.000000 0.797207 0.074800 0.692600 1 3 1.000000
guns
  3 -14.707582 -16.689924 29.539650 -0.603705 0.000000 0.797207 0.055700 0.592400 1 3 1.000000
  3 -13.885783 -23.093924 29.879950 -0.136800 0.000000 0.990599 0.065300 0.692600 1 3 1.000000
  3 -13.885783 -16.689924 29.879950 0.136800 0.000000 0.990599 0.065300 0.592400 1 3 1.000000
guns
  3 -14.707582 -16.689924 29.539650 -0.603705 0.000000 0.797207 0.055700 0.592400 1 3 1.000000
  3 -14.707582 -23.093924 29.539650 -0.797207 0.000000 0.603705 0.055700 0.692600 1 3 1.000000
  3 -13.885783 -23.093924 29.879950 -0.136800 0.000000 0.990599 0.065300 0.692600 1 3 1.000000
guns
  3 -15.047883 -16.689924 28.717850 -0.990599 0.000000 0.136800 0.046200 0.592400 1 3 1.000000
  3 -14.707582 -23.093924 29.539650 -0.797207 0.000000 0.603705 0.055700 0.692600 1 3 1.000000
  3 -14.707582 -16.689924 29.539650 -0.603705 0.000000 0.797207 0.055700 0.592400 1 3 1.000000
guns
  3 -15.047883 -16.689924 28.717850 -0.990599 0.000000 0.136800 0.046200 0.592400 1 3 1.000000
  3 -15.047883 -23.093924 28.717850 -0.990599 0.000000 -0.136800 0.046200 0.692600 1 3 1.000000
  3 -14.707582 -23.093924 29.539650 -0.797207 0.000000 0.603705 0.055700 0.692600 1 3 1.000000
guns
  3 -14.707582 -16.689924 27.896149 -0.797207 0.000000 -0.603705 0.036600 0.592400 1 3 1.000000
  3 -15.047883 -23.093924 28.717850 -0.990599 0.000000 -0.136800 0.046200 0.692600 1 3 1.000000
  3 -15.047883 -16.689924 28.717850 -0.990599 0.000000 0.136800 0.046200 0.592400 1 3 1.000000
guns
  3 -14.707582 -16.689924 27.896149 -0.797207 0.000000 -0.603705 0.036600 0.592400 1 3 1.000000
  3 -14.707582 -23.093924 27.896149 -0.603705 0.000000 -0.797207 0.036600 0.692600 1 3 1.000000
  3 -15.047883 -23.093924 28.717850 -0.990599 0.000000 -0.136800 0.046200 0.692600 1 3 1.000000
guns
  3 -13.885783 -16.689924 27.555750 -0.136800 0.000000 -0.990599 0.027000 0.592400 1 3 1.000000
  3 -14.707582 -23.093924 27.896149 -0.603705 0.000000 -0.797207 0.036600 0.692600 1 3 1.000000
  3 -14.707582 -16.689924 27.896149 -0.797207 0.000000 -0.603705 0.036600 0.592400 1 3 1.000000
guns
  3 -13.885783 -16.689924 27.555750 -0.136800 0.000000 -0.990599 0.027000 0.592400 1 3 1.000000
  3 -13.885783 -23.093924 27.555750 0.136800 0.000000 -0.990599 0.027000 0.692600 1 3 1.000000
  3 -14.707582 -23.093924 27.896149 -0.603705 0.000000 -0.797207 0.036600 0.692600 1 3 1.000000
guns
  3 -13.064083 -16.689924 27.896149 0.603705 0.000000 -0.797207 0.017400 0.592400 1 3 1.000000
  3 -13.885783 -23.093924 27.555750 0.136800 0.000000 -0.990599 0.027000 0.692600 1 3 1.000000
  3 -13.885783 -16.689924 27.555750 -0.136800 0.000000 -0.990599 0.027000 0.592400 1 3 1.000000
guns
  3 -13.064083 -16.689924 27.896149 0.603705 0.000000 -0.797207 0.017400 0.592400 1 3 1.000000
  3 -13.064083 -23.093924 27.896149 0.797207 0.000000 -0.603705 0.017400 0.692600 1 3 1.000000
  3 -13.885783 -23.093924 27.555750 0.136800 0.000000 -0.990599 0.027000 0.692600 1 3 1.000000
guns
  3 -12.723683 -16.689924 28.717850 0.990599 0.000000 -0.136800 0.007800 0.592400 1 3 1.000000
  3 -13.064083 -23.093924 27.896149 0.797207 0.000000 -0.603705 0.017400 0.692600 1 3 1.000000
  3 -13.064083 -16.689924 27.896149 0.603705 0.000000 -0.797207 0.017400 0.592400 1 3 1.000000
guns
  3 -12.723683 -16.689924 28.717850 0.990599 0.000000 -0.136800 0.007800 0.592400 1 3 1.000000
  3 -12.723683 -23.093924 28.717850 0.990599 0.000000 0.136800 0.007800 0.692600 1 3 1.000000
  3 -13.064083 -23.093924 27.896149 0.797207 0.000000 -0.603705 0.017400 0.692600 1 3 1.000000
guns
  3 -15.385983 12.200976 31.423748 -0.381321 0.234713 0.894150 0.902600 0.147900 1 3 1.000000
  3 -15.556983 13.732877 29.891748 -0.396491 0.833781 0.384191 0.914100 0.125000 1 3 1.000000
  3 -16.917984 12.200976 29.891748 -0.916378 0.270393 0.295193 0.897700 0.123200 1 3 1.000000
guns
  3 -15.556983 13.732877 29.891748 -0.396491 0.833781 0.384191 0.914100 0.125000 1 3 1.000000
  3 -16.917984 12.200976 24.735649 -0.849688 0.371395 -0.374295 0.897700 0.049600 1 3 1.000000
  3 -16.917984 12.200976 29.891748 -0.916378 0.270393 0.295193 0.897700 0.123200 1 3 1.000000
guns
  3 -15.556983 13.732877 29.891748 -0.396491 0.833781 0.384191 0.914100 0.125000 1 3 1.000000
  3 -15.385983 13.732877 24.735649 -0.294396 0.909887 -0.292296 0.914100 0.047800 1 3 1.000000
  3 -16.917984 12.200976 24.735649 -0.849688 0.371395 -0.374295 0.897700 0.049600 1 3 1.000000
guns
  3 -15.385983 13.732877 24.735649 -0.294396 0.909887 -0.292296 0.914100 0.047800 1 3 1.000000
  3 -15.471483 12.200976 23.203650 -0.301001 0.457702 -0.836604 0.902600 0.024900 1 3 1.000000
  3 -16.917984 12.200976 24.735649 -0.849688 0.371395 -0.374295 0.897700 0.049600 1 3 1.000000
guns
  3 -16.917984 12.200976 24.735649 -0.849688 0.371395 -0.374295 0.897700 0.049600 1 3 1.000000
  3 -15.471483 12.200976 23.203650 -0.301001 0.457702 -0.836604 0.902600 0.024900 1 3 1.000000
  3 -15.385983 -15.264922 23.203650 -0.382988 -0.244993 -0.890673 0.697000 0.024900 1 3 1.000000
guns
  3 -16.917984 12.200976 24.735649 -0.849688 0.371395 -0.374295 0.897700 0.049600 1 3 1.000000
  3 -15.385983 -15.264922 23.203650 -0.382988 -0.244993 -0.890673 0.697000 0.024900 1 3 1.000000
  3 -16.917984 -15.264922 24.735649 -0.910179 -0.292893 -0.292893 0.701900 0.049600 1 3 1.000000
guns
  3 -16.917984 -15.264922 24.735649 -0.910179 -0.292893 -0.292893 0.701900 0.049600 1 3 1.000000
  3 -15.385983 -15.264922 23.203650 -0.382988 -0.244993 -0.890673 0.697000 0.024900 1 3 1.000000
  3 -15.385983 -16.796923 24.735649 -0.450621 -0.770636 -0.450621 0.685600 0.047800 1 3 1.000000
guns
  3 -16.917984 -15.264922 29.891748 -0.842510 -0.380905 0.380905 0.701900 0.123200 1 3 1.000000
  3 -16.917984 -15.264922 24.735649 -0.910179 -0.292893 -0.292893 0.701900 0.049600 1 3 1.000000
  3 -15.385983 -16.796923 24.735649 -0.450621 -0.770636 -0.450621 0.685600 0.047800 1 3 1.000000
guns
  3 -16.917984 -15.264922 29.891748 -0.842510 -0.380905 0.380905 0.701900 0.123200 1 3 1.000000
  3 -15.385983 -16.796923 24.735649 -0.450621 -0.770636 -0.450621 0.685600 0.047800 1 3 1.000000
  3 -15.385983 -16.796923 29.891748 -0.476517 -0.738826 0.476517 0.685600 0.125000 1 3 1.000000
guns
  3 -15.385983 -15.264922 31.423748 -0.292395 -0.453392 0.841986 0.697000 0.147900 1 3 1.000000
  3 -16.917984 -15.264922 29.891748 -0.842510 -0.380905 0.380905 0.701900 0.123200 1 3 1.000000
  3 -15.385983 -16.796923 29.891748 -0.476517 -0.738826 0.476517 0.685600 0.125000 1 3 1.000000
guns
  3 -15.385983 12.200976 31.423748 -0.381321 0.234713 0.894150 0.902600 0.147900 1 3 1.000000
  3 -16.917984 -15.264922 29.891748 -0.842510 -0.380905 0.380905 0.701900 0.123200 1 3 1.000000
  3 -15.385983 -15.264922 31.423748 -0.292395 -0.453392 0.841986 0.697000 0.147900 1 3 1.000000
guns
  3 -15.385983 12.200976 31.423748 -0.381321 0.234713 0.894150 0.902600 0.147900 1 3 1.000000
  3 -16.917984 12.200976 29.891748 -0.916378 0.270393 0.295193 0.897700 0.123200 1 3 1.000000
  3 -16.917984 -15.264922 29.891748 -0.842510 -0.380905 0.380905 0.701900 0.123200 1 3 1.000000
guns
  3 -16.917984 12.200976 29.891748 -0.916378 0.270393 0.295193 0.897700 0.123200 1 3 1.000000
  3 -16.917984 -15.264922 24.735649 -0.910179 -0.292893 -0.292893 0.701900 0.049600 1 3 1.000000
  3 -16.917984 -15.264922 29.891748 -0.842510 -0.380905 0.380905 0.701900 0.123200 1 3 1.000000
guns
  3 -16.917984 12.200976 29.891748 -0.916378 0.270393 0.295193 0.897700 0.123200 1 3 1.000000
  3 -16.917984 12.200976 24.735649 -0.849688 0.371395 -0.374295 0.897700 0.049600 1 3 1.000000
  3 -16.917984 -15.264922 24.735649 -0.910179 -0.292893 -0.292893 0.701900 0.049600 1 3 1.000000
end
