// Created by Crowbar 0.74
version 1
nodes
  0 "ValveBiped.Bip01_R_Hand" -1
  1 "Cylinder01" 0
  2 "fire" 1
end
skeleton
  time 0
    0 1.395145 3.180122 -1.893364 -3.139012 0.030646 -2.379305
    1 3.151128 -1.347904 -1.987387 3.122302 -0.023952 -2.379456
    2 0.000000 0.882910 4.372376 1.570796 0.000000 1.570795
end
triangles
molotov
  1 -0.265068 -0.312299 5.620134 -0.421302 0.906920 -0.000313 0.083300 0.971500 1 1 1.000000
  1 0.000407 -0.241108 5.620110 0.088649 0.996063 -0.000345 0.000000 0.971500 1 1 1.000000
  1 0.000406 -0.241791 3.643410 -0.002015 0.990358 0.138514 0.000000 0.822900 1 1 1.000000
molotov
  1 -0.264751 -1.231999 5.620451 -0.574817 -0.818282 0.000284 0.416700 0.971500 1 1 1.000000
  1 -0.459118 -1.037665 5.620385 -0.906928 -0.421286 0.000146 0.333300 0.971500 1 1 1.000000
  1 -0.459119 -1.038350 3.643685 -0.856621 -0.496807 0.139226 0.333300 0.822900 1 1 1.000000
molotov
  1 -0.530410 -0.772873 3.643593 -0.990280 -0.001855 0.139073 0.250000 0.822900 1 1 1.000000
  1 -0.459119 -1.038350 3.643685 -0.856621 -0.496807 0.139226 0.333300 0.822900 1 1 1.000000
  1 -0.459118 -1.037665 5.620385 -0.906928 -0.421286 0.000146 0.333300 0.971500 1 1 1.000000
molotov
  1 -0.459118 -1.037665 5.620385 -0.906928 -0.421286 0.000146 0.333300 0.971500 1 1 1.000000
  1 -0.530410 -0.772190 5.620294 -0.996062 0.088654 -0.000031 0.250000 0.971500 1 1 1.000000
  1 -0.530410 -0.772873 3.643593 -0.990280 -0.001855 0.139073 0.250000 0.822900 1 1 1.000000
molotov
  1 -0.459302 -0.507450 3.643501 -0.858625 0.493457 0.138792 0.166700 0.822900 1 1 1.000000
  1 -0.530410 -0.772873 3.643593 -0.990280 -0.001855 0.139073 0.250000 0.822900 1 1 1.000000
  1 -0.530410 -0.772190 5.620294 -0.996062 0.088654 -0.000031 0.250000 0.971500 1 1 1.000000
molotov
  1 -0.530410 -0.772190 5.620294 -0.996062 0.088654 -0.000031 0.250000 0.971500 1 1 1.000000
  1 -0.459301 -0.506765 5.620201 -0.818280 0.574820 -0.000199 0.166700 0.971500 1 1 1.000000
  1 -0.459302 -0.507450 3.643501 -0.858625 0.493457 0.138792 0.166700 0.822900 1 1 1.000000
molotov
  1 -0.265069 -0.312983 3.643434 -0.496889 0.856659 0.138697 0.083300 0.822900 1 1 1.000000
  1 -0.459302 -0.507450 3.643501 -0.858625 0.493457 0.138792 0.166700 0.822900 1 1 1.000000
  1 -0.459301 -0.506765 5.620201 -0.818280 0.574820 -0.000199 0.166700 0.971500 1 1 1.000000
molotov
  1 -0.459301 -0.506765 5.620201 -0.818280 0.574820 -0.000199 0.166700 0.971500 1 1 1.000000
  1 -0.265068 -0.312299 5.620134 -0.421302 0.906920 -0.000313 0.083300 0.971500 1 1 1.000000
  1 -0.265069 -0.312983 3.643434 -0.496889 0.856659 0.138697 0.083300 0.822900 1 1 1.000000
molotov
  1 0.000406 -0.241791 3.643410 -0.002015 0.990358 0.138514 0.000000 0.822900 1 1 1.000000
  1 -0.265069 -0.312983 3.643434 -0.496889 0.856659 0.138697 0.083300 0.822900 1 1 1.000000
  1 -0.265068 -0.312299 5.620134 -0.421302 0.906920 -0.000313 0.083300 0.971500 1 1 1.000000
molotov
  1 0.000406 -0.241791 3.643410 -0.002015 0.990358 0.138514 0.000000 0.822900 1 1 1.000000
  1 0.000298 0.072629 2.542800 -0.003142 0.932704 0.360629 0.000000 0.740200 1 1 1.000000
  1 -0.265069 -0.312983 3.643434 -0.496889 0.856659 0.138697 0.083300 0.822900 1 1 1.000000
molotov
  1 -0.680717 0.405634 1.500386 -0.467883 0.816467 0.338331 0.083300 0.661900 1 1 1.000000
  1 -1.178945 -0.092938 1.500558 -0.813387 0.473143 0.338434 0.166700 0.661900 1 1 1.000000
  1 -0.731956 -0.350523 2.542947 -0.809160 0.463743 0.360836 0.166700 0.740200 1 1 1.000000
molotov
  1 -0.680717 0.405634 1.500386 -0.467883 0.816467 0.338331 0.083300 0.661900 1 1 1.000000
  1 -0.731956 -0.350523 2.542947 -0.809160 0.463743 0.360836 0.166700 0.740200 1 1 1.000000
  1 -0.422563 -0.040816 2.542840 -0.469004 0.806181 0.360704 0.083300 0.740200 1 1 1.000000
molotov
  1 0.000120 0.588269 1.500322 0.002965 0.941047 0.338264 0.000000 0.661900 1 1 1.000000
  1 -0.680717 0.405634 1.500386 -0.467883 0.816467 0.338331 0.083300 0.661900 1 1 1.000000
  1 -0.422563 -0.040816 2.542840 -0.469004 0.806181 0.360704 0.083300 0.740200 1 1 1.000000
molotov
  1 0.000120 0.588269 1.500322 0.002965 0.941047 0.338264 0.000000 0.661900 1 1 1.000000
  1 -0.422563 -0.040816 2.542840 -0.469004 0.806181 0.360704 0.083300 0.740200 1 1 1.000000
  1 0.000298 0.072629 2.542800 -0.003142 0.932704 0.360629 0.000000 0.740200 1 1 1.000000
molotov
  1 -0.422563 -0.040816 2.542840 -0.469004 0.806181 0.360704 0.083300 0.740200 1 1 1.000000
  1 -0.265069 -0.312983 3.643434 -0.496889 0.856659 0.138697 0.083300 0.822900 1 1 1.000000
  1 0.000298 0.072629 2.542800 -0.003142 0.932704 0.360629 0.000000 0.740200 1 1 1.000000
molotov
  1 -0.459302 -0.507450 3.643501 -0.858625 0.493457 0.138792 0.166700 0.822900 1 1 1.000000
  1 -0.265069 -0.312983 3.643434 -0.496889 0.856659 0.138697 0.083300 0.822900 1 1 1.000000
  1 -0.422563 -0.040816 2.542840 -0.469004 0.806181 0.360704 0.083300 0.740200 1 1 1.000000
molotov
  1 -0.422563 -0.040816 2.542840 -0.469004 0.806181 0.360704 0.083300 0.740200 1 1 1.000000
  1 -0.731956 -0.350523 2.542947 -0.809160 0.463743 0.360836 0.166700 0.740200 1 1 1.000000
  1 -0.459302 -0.507450 3.643501 -0.858625 0.493457 0.138792 0.166700 0.822900 1 1 1.000000
molotov
  1 -0.530410 -0.772873 3.643593 -0.990280 -0.001855 0.139073 0.250000 0.822900 1 1 1.000000
  1 -0.459302 -0.507450 3.643501 -0.858625 0.493457 0.138792 0.166700 0.822900 1 1 1.000000
  1 -0.731956 -0.350523 2.542947 -0.809160 0.463743 0.360836 0.166700 0.740200 1 1 1.000000
molotov
  1 -0.731956 -0.350523 2.542947 -0.809160 0.463743 0.360836 0.166700 0.740200 1 1 1.000000
  1 -0.845110 -0.773362 2.543093 -0.932541 -0.002961 0.361052 0.250000 0.740200 1 1 1.000000
  1 -0.530410 -0.772873 3.643593 -0.990280 -0.001855 0.139073 0.250000 0.822900 1 1 1.000000
molotov
  1 -0.530410 -0.772873 3.643593 -0.990280 -0.001855 0.139073 0.250000 0.822900 1 1 1.000000
  1 -0.845110 -0.773362 2.543093 -0.932541 -0.002961 0.361052 0.250000 0.740200 1 1 1.000000
  1 -0.459119 -1.038350 3.643685 -0.856621 -0.496807 0.139226 0.333300 0.822900 1 1 1.000000
molotov
  1 -1.178945 -0.092938 1.500558 -0.813387 0.473143 0.338434 0.166700 0.661900 1 1 1.000000
  1 -0.845110 -0.773362 2.543093 -0.932541 -0.002961 0.361052 0.250000 0.740200 1 1 1.000000
  1 -0.731956 -0.350523 2.542947 -0.809160 0.463743 0.360836 0.166700 0.740200 1 1 1.000000
molotov
  1 0.000120 0.588269 1.500322 0.002965 0.941047 0.338264 0.000000 0.661900 1 1 1.000000
  1 0.000086 0.685925 1.083888 0.000772 0.993378 0.114893 0.000000 0.630600 1 1 1.000000
  1 -0.680717 0.405634 1.500386 -0.467883 0.816467 0.338331 0.083300 0.661900 1 1 1.000000
molotov
  1 -0.729647 0.490173 1.083956 -0.496043 0.860672 0.114829 0.083300 0.630600 1 1 1.000000
  1 -0.680717 0.405634 1.500386 -0.467883 0.816467 0.338331 0.083300 0.661900 1 1 1.000000
  1 0.000086 0.685925 1.083888 0.000772 0.993378 0.114893 0.000000 0.630600 1 1 1.000000
molotov
  1 -0.680717 0.405634 1.500386 -0.467883 0.816467 0.338331 0.083300 0.661900 1 1 1.000000
  1 -0.729647 0.490173 1.083956 -0.496043 0.860672 0.114829 0.083300 0.630600 1 1 1.000000
  1 -1.178945 -0.092938 1.500558 -0.813387 0.473143 0.338434 0.166700 0.661900 1 1 1.000000
molotov
  1 0.000084 0.683102 -7.077813 -0.004736 0.973877 -0.227027 0.000000 0.017100 1 1 1.000000
  1 -0.729647 0.490173 1.083956 -0.496043 0.860672 0.114829 0.083300 0.630600 1 1 1.000000
  1 0.000086 0.685925 1.083888 0.000772 0.993378 0.114893 0.000000 0.630600 1 1 1.000000
molotov
  1 0.000121 0.574926 -7.298275 -0.080200 0.894841 -0.439122 0.000000 0.000500 1 1 1.000000
  1 -0.675517 0.393593 -7.298212 -0.516955 0.734847 -0.439042 0.083300 0.000500 1 1 1.000000
  1 -0.729649 0.487351 -7.077744 -0.491067 0.841037 -0.226958 0.083300 0.017100 1 1 1.000000
molotov
  1 0.000121 0.574926 -7.298275 -0.080200 0.894841 -0.439122 0.000000 0.000500 1 1 1.000000
  1 -0.729649 0.487351 -7.077744 -0.491067 0.841037 -0.226958 0.083300 0.017100 1 1 1.000000
  1 0.000084 0.683102 -7.077813 -0.004736 0.973877 -0.227027 0.000000 0.017100 1 1 1.000000
molotov
  1 0.000084 0.683102 -7.077813 -0.004736 0.973877 -0.227027 0.000000 0.017100 1 1 1.000000
  1 -0.729649 0.487351 -7.077744 -0.491067 0.841037 -0.226958 0.083300 0.017100 1 1 1.000000
  1 -0.729647 0.490173 1.083956 -0.496043 0.860672 0.114829 0.083300 0.630600 1 1 1.000000
molotov
  1 -0.729649 0.487351 -7.077744 -0.491067 0.841037 -0.226958 0.083300 0.017100 1 1 1.000000
  1 -1.263662 -0.044311 1.084141 -0.859840 0.497404 0.115169 0.166700 0.630600 1 1 1.000000
  1 -0.729647 0.490173 1.083956 -0.496043 0.860672 0.114829 0.083300 0.630600 1 1 1.000000
molotov
  1 -1.263662 -0.044311 1.084141 -0.859840 0.497404 0.115169 0.166700 0.630600 1 1 1.000000
  1 -1.178945 -0.092938 1.500558 -0.813387 0.473143 0.338434 0.166700 0.661900 1 1 1.000000
  1 -0.729647 0.490173 1.083956 -0.496043 0.860672 0.114829 0.083300 0.630600 1 1 1.000000
molotov
  1 -1.178945 -0.092938 1.500558 -0.813387 0.473143 0.338434 0.166700 0.661900 1 1 1.000000
  1 -1.263662 -0.044311 1.084141 -0.859840 0.497404 0.115169 0.166700 0.630600 1 1 1.000000
  1 -1.361210 -0.773900 1.500794 -0.940922 0.003092 0.338609 0.250000 0.661900 1 1 1.000000
molotov
  1 -1.178945 -0.092938 1.500558 -0.813387 0.473143 0.338434 0.166700 0.661900 1 1 1.000000
  1 -1.361210 -0.773900 1.500794 -0.940922 0.003092 0.338609 0.250000 0.661900 1 1 1.000000
  1 -0.845110 -0.773362 2.543093 -0.932541 -0.002961 0.361052 0.250000 0.740200 1 1 1.000000
molotov
  1 -1.361210 -0.773900 1.500794 -0.940922 0.003092 0.338609 0.250000 0.661900 1 1 1.000000
  1 -0.731664 -1.196223 2.543240 -0.806055 -0.468863 0.361170 0.333300 0.740200 1 1 1.000000
  1 -0.845110 -0.773362 2.543093 -0.932541 -0.002961 0.361052 0.250000 0.740200 1 1 1.000000
molotov
  1 -0.731664 -1.196223 2.543240 -0.806055 -0.468863 0.361170 0.333300 0.740200 1 1 1.000000
  1 -0.459119 -1.038350 3.643685 -0.856621 -0.496807 0.139226 0.333300 0.822900 1 1 1.000000
  1 -0.845110 -0.773362 2.543093 -0.932541 -0.002961 0.361052 0.250000 0.740200 1 1 1.000000
molotov
  1 -0.459119 -1.038350 3.643685 -0.856621 -0.496807 0.139226 0.333300 0.822900 1 1 1.000000
  1 -0.731664 -1.196223 2.543240 -0.806055 -0.468863 0.361170 0.333300 0.740200 1 1 1.000000
  1 -0.264752 -1.232683 3.643751 -0.493409 -0.858577 0.139260 0.416700 0.822900 1 1 1.000000
molotov
  1 -0.459119 -1.038350 3.643685 -0.856621 -0.496807 0.139226 0.333300 0.822900 1 1 1.000000
  1 -0.264752 -1.232683 3.643751 -0.493409 -0.858577 0.139260 0.416700 0.822900 1 1 1.000000
  1 -0.264751 -1.231999 5.620451 -0.574817 -0.818282 0.000284 0.416700 0.971500 1 1 1.000000
molotov
  1 0.000774 -1.303007 5.620476 -0.088647 -0.996063 0.000345 0.500000 0.971500 1 1 1.000000
  1 -0.264751 -1.231999 5.620451 -0.574817 -0.818282 0.000284 0.416700 0.971500 1 1 1.000000
  1 -0.264752 -1.232683 3.643751 -0.493409 -0.858577 0.139260 0.416700 0.822900 1 1 1.000000
molotov
  1 -0.264752 -1.232683 3.643751 -0.493409 -0.858577 0.139260 0.416700 0.822900 1 1 1.000000
  1 0.000773 -1.303692 3.643776 0.002012 -0.990261 0.139209 0.500000 0.822900 1 1 1.000000
  1 0.000774 -1.303007 5.620476 -0.088647 -0.996063 0.000345 0.500000 0.971500 1 1 1.000000
molotov
  1 0.266249 -1.231816 5.620451 0.421304 -0.906919 0.000314 0.583300 0.971500 1 1 1.000000
  1 0.000774 -1.303007 5.620476 -0.088647 -0.996063 0.000345 0.500000 0.971500 1 1 1.000000
  1 0.000773 -1.303692 3.643776 0.002012 -0.990261 0.139209 0.500000 0.822900 1 1 1.000000
molotov
  1 0.000773 -1.303692 3.643776 0.002012 -0.990261 0.139209 0.500000 0.822900 1 1 1.000000
  1 0.266249 -1.232500 3.643751 0.496881 -0.856565 0.139303 0.583300 0.822900 1 1 1.000000
  1 0.266249 -1.231816 5.620451 0.421304 -0.906919 0.000314 0.583300 0.971500 1 1 1.000000
molotov
  1 0.460482 -1.037349 5.620385 0.818276 -0.574826 0.000199 0.666700 0.971500 1 1 1.000000
  1 0.266249 -1.231816 5.620451 0.421304 -0.906919 0.000314 0.583300 0.971500 1 1 1.000000
  1 0.266249 -1.232500 3.643751 0.496881 -0.856565 0.139303 0.583300 0.822900 1 1 1.000000
molotov
  1 0.266249 -1.232500 3.643751 0.496881 -0.856565 0.139303 0.583300 0.822900 1 1 1.000000
  1 0.460482 -1.038033 3.643684 0.858602 -0.493385 0.139193 0.666700 0.822900 1 1 1.000000
  1 0.460482 -1.037349 5.620385 0.818276 -0.574826 0.000199 0.666700 0.971500 1 1 1.000000
molotov
  1 0.531591 -0.771825 5.620294 0.996061 -0.088666 0.000031 0.750000 0.971500 1 1 1.000000
  1 0.460482 -1.037349 5.620385 0.818276 -0.574826 0.000199 0.666700 0.971500 1 1 1.000000
  1 0.460482 -1.038033 3.643684 0.858602 -0.493385 0.139193 0.666700 0.822900 1 1 1.000000
molotov
  1 -0.729649 0.487351 -7.077744 -0.491067 0.841037 -0.226958 0.083300 0.017100 1 1 1.000000
  1 -1.263665 -0.047133 -7.077559 -0.845832 0.482806 -0.226863 0.166700 0.017100 1 1 1.000000
  1 -1.263662 -0.044311 1.084141 -0.859840 0.497404 0.115169 0.166700 0.630600 1 1 1.000000
molotov
  1 -1.263665 -0.047133 -7.077559 -0.845832 0.482806 -0.226863 0.166700 0.017100 1 1 1.000000
  1 -1.459011 -0.774079 1.084394 -0.993320 0.000886 0.115387 0.250000 0.630600 1 1 1.000000
  1 -1.263662 -0.044311 1.084141 -0.859840 0.497404 0.115169 0.166700 0.630600 1 1 1.000000
molotov
  1 -1.459011 -0.774079 1.084394 -0.993320 0.000886 0.115387 0.250000 0.630600 1 1 1.000000
  1 -1.361210 -0.773900 1.500794 -0.940922 0.003092 0.338609 0.250000 0.661900 1 1 1.000000
  1 -1.263662 -0.044311 1.084141 -0.859840 0.497404 0.115169 0.166700 0.630600 1 1 1.000000
molotov
  1 -1.361210 -0.773900 1.500794 -0.940922 0.003092 0.338609 0.250000 0.661900 1 1 1.000000
  1 -1.459011 -0.774079 1.084394 -0.993320 0.000886 0.115387 0.250000 0.630600 1 1 1.000000
  1 -1.178476 -1.454738 1.501029 -0.816348 -0.467740 0.338812 0.333300 0.661900 1 1 1.000000
molotov
  1 -1.361210 -0.773900 1.500794 -0.940922 0.003092 0.338609 0.250000 0.661900 1 1 1.000000
  1 -1.178476 -1.454738 1.501029 -0.816348 -0.467740 0.338812 0.333300 0.661900 1 1 1.000000
  1 -0.731664 -1.196223 2.543240 -0.806055 -0.468863 0.361170 0.333300 0.740200 1 1 1.000000
molotov
  1 -1.178476 -1.454738 1.501029 -0.816348 -0.467740 0.338812 0.333300 0.661900 1 1 1.000000
  1 -0.422057 -1.505616 2.543347 -0.463614 -0.809046 0.361257 0.416700 0.740200 1 1 1.000000
  1 -0.731664 -1.196223 2.543240 -0.806055 -0.468863 0.361170 0.333300 0.740200 1 1 1.000000
molotov
  1 -0.422057 -1.505616 2.543347 -0.463614 -0.809046 0.361257 0.416700 0.740200 1 1 1.000000
  1 -0.264752 -1.232683 3.643751 -0.493409 -0.858577 0.139260 0.416700 0.822900 1 1 1.000000
  1 -0.731664 -1.196223 2.543240 -0.806055 -0.468863 0.361170 0.333300 0.740200 1 1 1.000000
molotov
  1 -0.264752 -1.232683 3.643751 -0.493409 -0.858577 0.139260 0.416700 0.822900 1 1 1.000000
  1 -0.422057 -1.505616 2.543347 -0.463614 -0.809046 0.361257 0.416700 0.740200 1 1 1.000000
  1 0.000773 -1.303692 3.643776 0.002012 -0.990261 0.139209 0.500000 0.822900 1 1 1.000000
molotov
  1 0.000882 -1.618771 2.543386 0.003117 -0.932438 0.361317 0.500000 0.740200 1 1 1.000000
  1 0.000773 -1.303692 3.643776 0.002012 -0.990261 0.139209 0.500000 0.822900 1 1 1.000000
  1 -0.422057 -1.505616 2.543347 -0.463614 -0.809046 0.361257 0.416700 0.740200 1 1 1.000000
molotov
  1 0.000773 -1.303692 3.643776 0.002012 -0.990261 0.139209 0.500000 0.822900 1 1 1.000000
  1 0.000882 -1.618771 2.543386 0.003117 -0.932438 0.361317 0.500000 0.740200 1 1 1.000000
  1 0.266249 -1.232500 3.643751 0.496881 -0.856565 0.139303 0.583300 0.822900 1 1 1.000000
molotov
  1 0.423743 -1.505325 2.543346 0.468956 -0.805928 0.361332 0.583300 0.740200 1 1 1.000000
  1 0.266249 -1.232500 3.643751 0.496881 -0.856565 0.139303 0.583300 0.822900 1 1 1.000000
  1 0.000882 -1.618771 2.543386 0.003117 -0.932438 0.361317 0.500000 0.740200 1 1 1.000000
molotov
  1 0.266249 -1.232500 3.643751 0.496881 -0.856565 0.139303 0.583300 0.822900 1 1 1.000000
  1 0.423743 -1.505325 2.543346 0.468956 -0.805928 0.361332 0.583300 0.740200 1 1 1.000000
  1 0.460482 -1.038033 3.643684 0.858602 -0.493385 0.139193 0.666700 0.822900 1 1 1.000000
molotov
  1 0.733136 -1.195718 2.543239 0.809148 -0.463499 0.361175 0.666700 0.740200 1 1 1.000000
  1 0.460482 -1.038033 3.643684 0.858602 -0.493385 0.139193 0.666700 0.822900 1 1 1.000000
  1 0.423743 -1.505325 2.543346 0.468956 -0.805928 0.361332 0.583300 0.740200 1 1 1.000000
molotov
  1 0.460482 -1.038033 3.643684 0.858602 -0.493385 0.139193 0.666700 0.822900 1 1 1.000000
  1 0.733136 -1.195718 2.543239 0.809148 -0.463499 0.361175 0.666700 0.740200 1 1 1.000000
  1 0.531590 -0.772508 3.643593 0.990274 0.001930 0.139118 0.750000 0.822900 1 1 1.000000
molotov
  1 0.846290 -0.772779 2.543093 0.932597 0.003291 0.360904 0.750000 0.740200 1 1 1.000000
  1 0.531590 -0.772508 3.643593 0.990274 0.001930 0.139118 0.750000 0.822900 1 1 1.000000
  1 0.733136 -1.195718 2.543239 0.809148 -0.463499 0.361175 0.666700 0.740200 1 1 1.000000
molotov
  1 0.531590 -0.772508 3.643593 0.990274 0.001930 0.139118 0.750000 0.822900 1 1 1.000000
  1 0.846290 -0.772779 2.543093 0.932597 0.003291 0.360904 0.750000 0.740200 1 1 1.000000
  1 0.460298 -0.507133 3.643501 0.856623 0.496893 0.138901 0.833300 0.822900 1 1 1.000000
molotov
  1 0.732844 -0.350020 2.542947 0.806053 0.469087 0.360881 0.833300 0.740200 1 1 1.000000
  1 0.460298 -0.507133 3.643501 0.856623 0.496893 0.138901 0.833300 0.822900 1 1 1.000000
  1 0.846290 -0.772779 2.543093 0.932597 0.003291 0.360904 0.750000 0.740200 1 1 1.000000
molotov
  1 0.460298 -0.507133 3.643501 0.856623 0.496893 0.138901 0.833300 0.822900 1 1 1.000000
  1 0.732844 -0.350020 2.542947 0.806053 0.469087 0.360881 0.833300 0.740200 1 1 1.000000
  1 0.265931 -0.312800 3.643434 0.493419 0.858663 0.138691 0.916700 0.822900 1 1 1.000000
molotov
  1 -1.263665 -0.047133 -7.077559 -0.845832 0.482806 -0.226863 0.166700 0.017100 1 1 1.000000
  1 -1.459013 -0.776900 -7.077307 -0.973941 -0.004847 -0.226750 0.250000 0.017100 1 1 1.000000
  1 -1.459011 -0.774079 1.084394 -0.993320 0.000886 0.115387 0.250000 0.630600 1 1 1.000000
molotov
  1 -1.459013 -0.776900 -7.077307 -0.973941 -0.004847 -0.226750 0.250000 0.017100 1 1 1.000000
  1 -1.263159 -1.503811 1.084646 -0.860682 -0.495840 0.115627 0.333300 0.630600 1 1 1.000000
  1 -1.459011 -0.774079 1.084394 -0.993320 0.000886 0.115387 0.250000 0.630600 1 1 1.000000
molotov
  1 -1.263159 -1.503811 1.084646 -0.860682 -0.495840 0.115627 0.333300 0.630600 1 1 1.000000
  1 -1.178476 -1.454738 1.501029 -0.816348 -0.467740 0.338812 0.333300 0.661900 1 1 1.000000
  1 -1.459011 -0.774079 1.084394 -0.993320 0.000886 0.115387 0.250000 0.630600 1 1 1.000000
molotov
  1 -1.178476 -1.454738 1.501029 -0.816348 -0.467740 0.338812 0.333300 0.661900 1 1 1.000000
  1 -1.263159 -1.503811 1.084646 -0.860682 -0.495840 0.115627 0.333300 0.630600 1 1 1.000000
  1 -0.679904 -1.953065 1.501201 -0.473026 -0.813270 0.338878 0.416700 0.661900 1 1 1.000000
molotov
  1 -1.178476 -1.454738 1.501029 -0.816348 -0.467740 0.338812 0.333300 0.661900 1 1 1.000000
  1 -0.679904 -1.953065 1.501201 -0.473026 -0.813270 0.338878 0.416700 0.661900 1 1 1.000000
  1 -0.422057 -1.505616 2.543347 -0.463614 -0.809046 0.361257 0.416700 0.740200 1 1 1.000000
molotov
  1 -0.679904 -1.953065 1.501201 -0.473026 -0.813270 0.338878 0.416700 0.661900 1 1 1.000000
  1 0.000882 -1.618771 2.543386 0.003117 -0.932438 0.361317 0.500000 0.740200 1 1 1.000000
  1 -0.422057 -1.505616 2.543347 -0.463614 -0.809046 0.361257 0.416700 0.740200 1 1 1.000000
molotov
  1 -0.679904 -1.953065 1.501201 -0.473026 -0.813270 0.338878 0.416700 0.661900 1 1 1.000000
  1 0.001059 -2.135231 1.501263 -0.002952 -0.940821 0.338892 0.500000 0.661900 1 1 1.000000
  1 0.000882 -1.618771 2.543386 0.003117 -0.932438 0.361317 0.500000 0.740200 1 1 1.000000
molotov
  1 0.001059 -2.135231 1.501263 -0.002952 -0.940821 0.338892 0.500000 0.661900 1 1 1.000000
  1 0.423743 -1.505325 2.543346 0.468956 -0.805928 0.361332 0.583300 0.740200 1 1 1.000000
  1 0.000882 -1.618771 2.543386 0.003117 -0.932438 0.361317 0.500000 0.740200 1 1 1.000000
molotov
  1 0.001059 -2.135231 1.501263 -0.002952 -0.940821 0.338892 0.500000 0.661900 1 1 1.000000
  1 0.681897 -1.952597 1.501201 0.467868 -0.816232 0.338916 0.583300 0.661900 1 1 1.000000
  1 0.423743 -1.505325 2.543346 0.468956 -0.805928 0.361332 0.583300 0.740200 1 1 1.000000
molotov
  1 0.681897 -1.952597 1.501201 0.467868 -0.816232 0.338916 0.583300 0.661900 1 1 1.000000
  1 0.733136 -1.195718 2.543239 0.809148 -0.463499 0.361175 0.666700 0.740200 1 1 1.000000
  1 0.423743 -1.505325 2.543346 0.468956 -0.805928 0.361332 0.583300 0.740200 1 1 1.000000
molotov
  1 0.681897 -1.952597 1.501201 0.467868 -0.816232 0.338916 0.583300 0.661900 1 1 1.000000
  1 1.180125 -1.453925 1.501028 0.813414 -0.472897 0.338713 0.666700 0.661900 1 1 1.000000
  1 0.733136 -1.195718 2.543239 0.809148 -0.463499 0.361175 0.666700 0.740200 1 1 1.000000
molotov
  1 1.180125 -1.453925 1.501028 0.813414 -0.472897 0.338713 0.666700 0.661900 1 1 1.000000
  1 0.846290 -0.772779 2.543093 0.932597 0.003291 0.360904 0.750000 0.740200 1 1 1.000000
  1 0.733136 -1.195718 2.543239 0.809148 -0.463499 0.361175 0.666700 0.740200 1 1 1.000000
molotov
  1 1.180125 -1.453925 1.501028 0.813414 -0.472897 0.338713 0.666700 0.661900 1 1 1.000000
  1 1.362389 -0.772962 1.500793 0.940921 -0.002861 0.338613 0.750000 0.661900 1 1 1.000000
  1 0.846290 -0.772779 2.543093 0.932597 0.003291 0.360904 0.750000 0.740200 1 1 1.000000
molotov
  1 1.362389 -0.772962 1.500793 0.940921 -0.002861 0.338613 0.750000 0.661900 1 1 1.000000
  1 0.732844 -0.350020 2.542947 0.806053 0.469087 0.360881 0.833300 0.740200 1 1 1.000000
  1 0.846290 -0.772779 2.543093 0.932597 0.003291 0.360904 0.750000 0.740200 1 1 1.000000
molotov
  1 1.362389 -0.772962 1.500793 0.940921 -0.002861 0.338613 0.750000 0.661900 1 1 1.000000
  1 1.179655 -0.092125 1.500557 0.816349 0.467986 0.338471 0.833300 0.661900 1 1 1.000000
  1 0.732844 -0.350020 2.542947 0.806053 0.469087 0.360881 0.833300 0.740200 1 1 1.000000
molotov
  1 1.362389 -0.772962 1.500793 0.940921 -0.002861 0.338613 0.750000 0.661900 1 1 1.000000
  1 1.460190 -0.773072 1.084392 0.993322 -0.000802 0.115372 0.750000 0.630600 1 1 1.000000
  1 1.179655 -0.092125 1.500557 0.816349 0.467986 0.338471 0.833300 0.661900 1 1 1.000000
molotov
  1 1.264338 -0.043439 1.084140 0.860664 0.495976 0.115172 0.833300 0.630600 1 1 1.000000
  1 1.179655 -0.092125 1.500557 0.816349 0.467986 0.338471 0.833300 0.661900 1 1 1.000000
  1 1.460190 -0.773072 1.084392 0.993322 -0.000802 0.115372 0.750000 0.630600 1 1 1.000000
molotov
  1 1.460188 -0.775894 -7.077308 0.973949 0.004671 -0.226719 0.750000 0.017100 1 1 1.000000
  1 1.264338 -0.043439 1.084140 0.860664 0.495976 0.115172 0.833300 0.630600 1 1 1.000000
  1 1.460190 -0.773072 1.084392 0.993322 -0.000802 0.115372 0.750000 0.630600 1 1 1.000000
molotov
  1 1.460188 -0.775894 -7.077308 0.973949 0.004671 -0.226719 0.750000 0.017100 1 1 1.000000
  1 1.264336 -0.046262 -7.077559 0.841084 0.491011 -0.226906 0.833300 0.017100 1 1 1.000000
  1 1.264338 -0.043439 1.084140 0.860664 0.495976 0.115172 0.833300 0.630600 1 1 1.000000
molotov
  1 -1.459013 -0.776900 -7.077307 -0.973941 -0.004847 -0.226750 0.250000 0.017100 1 1 1.000000
  1 -1.263161 -1.506633 -7.077055 -0.841102 -0.491154 -0.226528 0.333300 0.017100 1 1 1.000000
  1 -1.263159 -1.503811 1.084646 -0.860682 -0.495840 0.115627 0.333300 0.630600 1 1 1.000000
molotov
  1 -1.263161 -1.506633 -7.077055 -0.841102 -0.491154 -0.226528 0.333300 0.017100 1 1 1.000000
  1 -0.728775 -2.037827 1.084830 -0.497275 -0.859885 0.115391 0.416700 0.630600 1 1 1.000000
  1 -1.263159 -1.503811 1.084646 -0.860682 -0.495840 0.115627 0.333300 0.630600 1 1 1.000000
molotov
  1 -0.728775 -2.037827 1.084830 -0.497275 -0.859885 0.115391 0.416700 0.630600 1 1 1.000000
  1 -0.679904 -1.953065 1.501201 -0.473026 -0.813270 0.338878 0.416700 0.661900 1 1 1.000000
  1 -1.263159 -1.503811 1.084646 -0.860682 -0.495840 0.115627 0.333300 0.630600 1 1 1.000000
molotov
  1 -0.679904 -1.953065 1.501201 -0.473026 -0.813270 0.338878 0.416700 0.661900 1 1 1.000000
  1 -0.728775 -2.037827 1.084830 -0.497275 -0.859885 0.115391 0.416700 0.630600 1 1 1.000000
  1 0.001059 -2.135231 1.501263 -0.002952 -0.940821 0.338892 0.500000 0.661900 1 1 1.000000
molotov
  1 0.001093 -2.233175 1.084897 -0.000676 -0.993321 0.115380 0.500000 0.630600 1 1 1.000000
  1 0.001059 -2.135231 1.501263 -0.002952 -0.940821 0.338892 0.500000 0.661900 1 1 1.000000
  1 -0.728775 -2.037827 1.084830 -0.497275 -0.859885 0.115391 0.416700 0.630600 1 1 1.000000
molotov
  1 0.001059 -2.135231 1.501263 -0.002952 -0.940821 0.338892 0.500000 0.661900 1 1 1.000000
  1 0.001093 -2.233175 1.084897 -0.000676 -0.993321 0.115380 0.500000 0.630600 1 1 1.000000
  1 0.681897 -1.952597 1.501201 0.467868 -0.816232 0.338916 0.583300 0.661900 1 1 1.000000
molotov
  1 0.730826 -2.037324 1.084830 0.495890 -0.860639 0.115731 0.583300 0.630600 1 1 1.000000
  1 0.681897 -1.952597 1.501201 0.467868 -0.816232 0.338916 0.583300 0.661900 1 1 1.000000
  1 0.001093 -2.233175 1.084897 -0.000676 -0.993321 0.115380 0.500000 0.630600 1 1 1.000000
molotov
  1 0.681897 -1.952597 1.501201 0.467868 -0.816232 0.338916 0.583300 0.661900 1 1 1.000000
  1 0.730826 -2.037324 1.084830 0.495890 -0.860639 0.115731 0.583300 0.630600 1 1 1.000000
  1 1.180125 -1.453925 1.501028 0.813414 -0.472897 0.338713 0.666700 0.661900 1 1 1.000000
molotov
  1 1.264842 -1.502939 1.084645 0.859821 -0.497343 0.115573 0.666700 0.630600 1 1 1.000000
  1 1.180125 -1.453925 1.501028 0.813414 -0.472897 0.338713 0.666700 0.661900 1 1 1.000000
  1 0.730826 -2.037324 1.084830 0.495890 -0.860639 0.115731 0.583300 0.630600 1 1 1.000000
molotov
  1 1.180125 -1.453925 1.501028 0.813414 -0.472897 0.338713 0.666700 0.661900 1 1 1.000000
  1 1.264842 -1.502939 1.084645 0.859821 -0.497343 0.115573 0.666700 0.630600 1 1 1.000000
  1 1.362389 -0.772962 1.500793 0.940921 -0.002861 0.338613 0.750000 0.661900 1 1 1.000000
molotov
  1 1.460190 -0.773072 1.084392 0.993322 -0.000802 0.115372 0.750000 0.630600 1 1 1.000000
  1 1.362389 -0.772962 1.500793 0.940921 -0.002861 0.338613 0.750000 0.661900 1 1 1.000000
  1 1.264842 -1.502939 1.084645 0.859821 -0.497343 0.115573 0.666700 0.630600 1 1 1.000000
molotov
  1 -1.263161 -1.506633 -7.077055 -0.841102 -0.491154 -0.226528 0.333300 0.017100 1 1 1.000000
  1 -0.728776 -2.040649 -7.076869 -0.482867 -0.845911 -0.226436 0.416700 0.017100 1 1 1.000000
  1 -0.728775 -2.037827 1.084830 -0.497275 -0.859885 0.115391 0.416700 0.630600 1 1 1.000000
molotov
  1 -0.728776 -2.040649 -7.076869 -0.482867 -0.845911 -0.226436 0.416700 0.017100 1 1 1.000000
  1 0.001093 -2.233175 1.084897 -0.000676 -0.993321 0.115380 0.500000 0.630600 1 1 1.000000
  1 -0.728775 -2.037827 1.084830 -0.497275 -0.859885 0.115391 0.416700 0.630600 1 1 1.000000
molotov
  1 -0.728776 -2.040649 -7.076869 -0.482867 -0.845911 -0.226436 0.416700 0.017100 1 1 1.000000
  1 0.001092 -2.235998 -7.076805 0.004707 -0.974047 -0.226297 0.500000 0.017100 1 1 1.000000
  1 0.001093 -2.233175 1.084897 -0.000676 -0.993321 0.115380 0.500000 0.630600 1 1 1.000000
molotov
  1 0.001092 -2.235998 -7.076805 0.004707 -0.974047 -0.226297 0.500000 0.017100 1 1 1.000000
  1 0.730826 -2.037324 1.084830 0.495890 -0.860639 0.115731 0.583300 0.630600 1 1 1.000000
  1 0.001093 -2.233175 1.084897 -0.000676 -0.993321 0.115380 0.500000 0.630600 1 1 1.000000
molotov
  1 0.001092 -2.235998 -7.076805 0.004707 -0.974047 -0.226297 0.500000 0.017100 1 1 1.000000
  1 0.730824 -2.040146 -7.076870 0.491083 -0.841171 -0.226426 0.583300 0.017100 1 1 1.000000
  1 0.730826 -2.037324 1.084830 0.495890 -0.860639 0.115731 0.583300 0.630600 1 1 1.000000
molotov
  1 0.730824 -2.040146 -7.076870 0.491083 -0.841171 -0.226426 0.583300 0.017100 1 1 1.000000
  1 1.264842 -1.502939 1.084645 0.859821 -0.497343 0.115573 0.666700 0.630600 1 1 1.000000
  1 0.730826 -2.037324 1.084830 0.495890 -0.860639 0.115731 0.583300 0.630600 1 1 1.000000
molotov
  1 0.730824 -2.040146 -7.076870 0.491083 -0.841171 -0.226426 0.583300 0.017100 1 1 1.000000
  1 1.264840 -1.505762 -7.077055 0.845833 -0.482946 -0.226561 0.666700 0.017100 1 1 1.000000
  1 1.264842 -1.502939 1.084645 0.859821 -0.497343 0.115573 0.666700 0.630600 1 1 1.000000
molotov
  1 1.264840 -1.505762 -7.077055 0.845833 -0.482946 -0.226561 0.666700 0.017100 1 1 1.000000
  1 1.460190 -0.773072 1.084392 0.993322 -0.000802 0.115372 0.750000 0.630600 1 1 1.000000
  1 1.264842 -1.502939 1.084645 0.859821 -0.497343 0.115573 0.666700 0.630600 1 1 1.000000
molotov
  1 1.264840 -1.505762 -7.077055 0.845833 -0.482946 -0.226561 0.666700 0.017100 1 1 1.000000
  1 1.460188 -0.775894 -7.077308 0.973949 0.004671 -0.226719 0.750000 0.017100 1 1 1.000000
  1 1.460190 -0.773072 1.084392 0.993322 -0.000802 0.115372 0.750000 0.630600 1 1 1.000000
molotov
  1 1.351988 -0.776008 -7.297808 0.894990 0.080072 -0.438841 0.750000 0.000500 1 1 1.000000
  1 1.170755 -0.100370 -7.298041 0.735019 0.516770 -0.438971 0.833300 0.000500 1 1 1.000000
  1 1.264336 -0.046262 -7.077559 0.841084 0.491011 -0.226906 0.833300 0.017100 1 1 1.000000
molotov
  1 1.351988 -0.776008 -7.297808 0.894990 0.080072 -0.438841 0.750000 0.000500 1 1 1.000000
  1 1.264336 -0.046262 -7.077559 0.841084 0.491011 -0.226906 0.833300 0.017100 1 1 1.000000
  1 1.460188 -0.775894 -7.077308 0.973949 0.004671 -0.226719 0.750000 0.017100 1 1 1.000000
molotov
  1 1.171222 -1.451870 -7.297574 0.815223 -0.378136 -0.438661 0.666700 0.000500 1 1 1.000000
  1 1.351988 -0.776008 -7.297808 0.894990 0.080072 -0.438841 0.750000 0.000500 1 1 1.000000
  1 1.460188 -0.775894 -7.077308 0.973949 0.004671 -0.226719 0.750000 0.017100 1 1 1.000000
molotov
  1 1.171222 -1.451870 -7.297574 0.815223 -0.378136 -0.438661 0.666700 0.000500 1 1 1.000000
  1 1.460188 -0.775894 -7.077308 0.973949 0.004671 -0.226719 0.750000 0.017100 1 1 1.000000
  1 1.264840 -1.505762 -7.077055 0.845833 -0.482946 -0.226561 0.666700 0.017100 1 1 1.000000
molotov
  1 0.676692 -1.946641 -7.297402 0.516941 -0.735159 -0.438535 0.583300 0.000500 1 1 1.000000
  1 1.171222 -1.451870 -7.297574 0.815223 -0.378136 -0.438661 0.666700 0.000500 1 1 1.000000
  1 1.264840 -1.505762 -7.077055 0.845833 -0.482946 -0.226561 0.666700 0.017100 1 1 1.000000
molotov
  1 0.676692 -1.946641 -7.297402 0.516941 -0.735159 -0.438535 0.583300 0.000500 1 1 1.000000
  1 1.264840 -1.505762 -7.077055 0.845833 -0.482946 -0.226561 0.666700 0.017100 1 1 1.000000
  1 0.730824 -2.040146 -7.076870 0.491083 -0.841171 -0.226426 0.583300 0.017100 1 1 1.000000
molotov
  1 0.001054 -2.127974 -7.297340 0.080197 -0.895145 -0.438501 0.500000 0.000500 1 1 1.000000
  1 0.676692 -1.946641 -7.297402 0.516941 -0.735159 -0.438535 0.583300 0.000500 1 1 1.000000
  1 0.730824 -2.040146 -7.076870 0.491083 -0.841171 -0.226426 0.583300 0.017100 1 1 1.000000
molotov
  1 0.001054 -2.127974 -7.297340 0.080197 -0.895145 -0.438501 0.500000 0.000500 1 1 1.000000
  1 0.730824 -2.040146 -7.076870 0.491083 -0.841171 -0.226426 0.583300 0.017100 1 1 1.000000
  1 0.001092 -2.235998 -7.076805 0.004707 -0.974047 -0.226297 0.500000 0.017100 1 1 1.000000
molotov
  1 -0.674709 -1.947106 -7.297402 -0.378008 -0.815365 -0.438508 0.416700 0.000500 1 1 1.000000
  1 0.001054 -2.127974 -7.297340 0.080197 -0.895145 -0.438501 0.500000 0.000500 1 1 1.000000
  1 0.001092 -2.235998 -7.076805 0.004707 -0.974047 -0.226297 0.500000 0.017100 1 1 1.000000
molotov
  1 -0.674709 -1.947106 -7.297402 -0.378008 -0.815365 -0.438508 0.416700 0.000500 1 1 1.000000
  1 0.001092 -2.235998 -7.076805 0.004707 -0.974047 -0.226297 0.500000 0.017100 1 1 1.000000
  1 -0.728776 -2.040649 -7.076869 -0.482867 -0.845911 -0.226436 0.416700 0.017100 1 1 1.000000
molotov
  1 -1.169579 -1.452677 -7.297573 -0.735007 -0.517089 -0.438615 0.333300 0.000500 1 1 1.000000
  1 -0.674709 -1.947106 -7.297402 -0.378008 -0.815365 -0.438508 0.416700 0.000500 1 1 1.000000
  1 -0.728776 -2.040649 -7.076869 -0.482867 -0.845911 -0.226436 0.416700 0.017100 1 1 1.000000
molotov
  1 -1.169579 -1.452677 -7.297573 -0.735007 -0.517089 -0.438615 0.333300 0.000500 1 1 1.000000
  1 -0.728776 -2.040649 -7.076869 -0.482867 -0.845911 -0.226436 0.416700 0.017100 1 1 1.000000
  1 -1.263161 -1.506633 -7.077055 -0.841102 -0.491154 -0.226528 0.333300 0.017100 1 1 1.000000
molotov
  1 -1.350813 -0.776939 -7.297807 -0.894994 -0.080341 -0.438783 0.250000 0.000500 1 1 1.000000
  1 -1.169579 -1.452677 -7.297573 -0.735007 -0.517089 -0.438615 0.333300 0.000500 1 1 1.000000
  1 -1.263161 -1.506633 -7.077055 -0.841102 -0.491154 -0.226528 0.333300 0.017100 1 1 1.000000
molotov
  1 -1.350813 -0.776939 -7.297807 -0.894994 -0.080341 -0.438783 0.250000 0.000500 1 1 1.000000
  1 -1.263161 -1.506633 -7.077055 -0.841102 -0.491154 -0.226528 0.333300 0.017100 1 1 1.000000
  1 -1.459013 -0.776900 -7.077307 -0.973941 -0.004847 -0.226750 0.250000 0.017100 1 1 1.000000
molotov
  1 -1.170046 -0.101177 -7.298040 -0.815216 0.377849 -0.438922 0.166700 0.000500 1 1 1.000000
  1 -1.350813 -0.776939 -7.297807 -0.894994 -0.080341 -0.438783 0.250000 0.000500 1 1 1.000000
  1 -1.459013 -0.776900 -7.077307 -0.973941 -0.004847 -0.226750 0.250000 0.017100 1 1 1.000000
molotov
  1 -1.170046 -0.101177 -7.298040 -0.815216 0.377849 -0.438922 0.166700 0.000500 1 1 1.000000
  1 -1.459013 -0.776900 -7.077307 -0.973941 -0.004847 -0.226750 0.250000 0.017100 1 1 1.000000
  1 -1.263665 -0.047133 -7.077559 -0.845832 0.482806 -0.226863 0.166700 0.017100 1 1 1.000000
molotov
  1 -0.675517 0.393593 -7.298212 -0.516955 0.734847 -0.439042 0.083300 0.000500 1 1 1.000000
  1 -1.170046 -0.101177 -7.298040 -0.815216 0.377849 -0.438922 0.166700 0.000500 1 1 1.000000
  1 -1.263665 -0.047133 -7.077559 -0.845832 0.482806 -0.226863 0.166700 0.017100 1 1 1.000000
molotov
  1 -0.675517 0.393593 -7.298212 -0.516955 0.734847 -0.439042 0.083300 0.000500 1 1 1.000000
  1 -1.263665 -0.047133 -7.077559 -0.845832 0.482806 -0.226863 0.166700 0.017100 1 1 1.000000
  1 -0.729649 0.487351 -7.077744 -0.491067 0.841037 -0.226958 0.083300 0.017100 1 1 1.000000
molotov
  1 0.423237 -0.040525 2.542840 0.463600 0.809323 0.360653 0.916700 0.740200 1 1 1.000000
  1 0.265931 -0.312800 3.643434 0.493419 0.858663 0.138691 0.916700 0.822900 1 1 1.000000
  1 0.732844 -0.350020 2.542947 0.806053 0.469087 0.360881 0.833300 0.740200 1 1 1.000000
molotov
  1 1.179655 -0.092125 1.500557 0.816349 0.467986 0.338471 0.833300 0.661900 1 1 1.000000
  1 0.423237 -0.040525 2.542840 0.463600 0.809323 0.360653 0.916700 0.740200 1 1 1.000000
  1 0.732844 -0.350020 2.542947 0.806053 0.469087 0.360881 0.833300 0.740200 1 1 1.000000
molotov
  1 1.179655 -0.092125 1.500557 0.816349 0.467986 0.338471 0.833300 0.661900 1 1 1.000000
  1 0.681083 0.406104 1.500385 0.473035 0.813485 0.338348 0.916700 0.661900 1 1 1.000000
  1 0.423237 -0.040525 2.542840 0.463600 0.809323 0.360653 0.916700 0.740200 1 1 1.000000
molotov
  1 1.179655 -0.092125 1.500557 0.816349 0.467986 0.338471 0.833300 0.661900 1 1 1.000000
  1 1.264338 -0.043439 1.084140 0.860664 0.495976 0.115172 0.833300 0.630600 1 1 1.000000
  1 0.681083 0.406104 1.500385 0.473035 0.813485 0.338348 0.916700 0.661900 1 1 1.000000
molotov
  1 0.729954 0.490677 1.083955 0.497347 0.859896 0.115000 0.916700 0.630600 1 1 1.000000
  1 0.681083 0.406104 1.500385 0.473035 0.813485 0.338348 0.916700 0.661900 1 1 1.000000
  1 1.264338 -0.043439 1.084140 0.860664 0.495976 0.115172 0.833300 0.630600 1 1 1.000000
molotov
  1 1.264336 -0.046262 -7.077559 0.841084 0.491011 -0.226906 0.833300 0.017100 1 1 1.000000
  1 0.729954 0.490677 1.083955 0.497347 0.859896 0.115000 0.916700 0.630600 1 1 1.000000
  1 1.264338 -0.043439 1.084140 0.860664 0.495976 0.115172 0.833300 0.630600 1 1 1.000000
molotov
  1 1.264336 -0.046262 -7.077559 0.841084 0.491011 -0.226906 0.833300 0.017100 1 1 1.000000
  1 0.729951 0.487854 -7.077745 0.482880 0.845754 -0.226997 0.916700 0.017100 1 1 1.000000
  1 0.729954 0.490677 1.083955 0.497347 0.859896 0.115000 0.916700 0.630600 1 1 1.000000
molotov
  1 1.170755 -0.100370 -7.298041 0.735019 0.516770 -0.438971 0.833300 0.000500 1 1 1.000000
  1 0.729951 0.487854 -7.077745 0.482880 0.845754 -0.226997 0.916700 0.017100 1 1 1.000000
  1 1.264336 -0.046262 -7.077559 0.841084 0.491011 -0.226906 0.833300 0.017100 1 1 1.000000
molotov
  1 1.170755 -0.100370 -7.298041 0.735019 0.516770 -0.438971 0.833300 0.000500 1 1 1.000000
  1 0.675884 0.394059 -7.298213 0.377994 0.815069 -0.439070 0.916700 0.000500 1 1 1.000000
  1 0.729951 0.487854 -7.077745 0.482880 0.845754 -0.226997 0.916700 0.017100 1 1 1.000000
molotov
  1 0.460482 -1.038033 3.643684 0.858602 -0.493385 0.139193 0.666700 0.822900 1 1 1.000000
  1 0.531590 -0.772508 3.643593 0.990274 0.001930 0.139118 0.750000 0.822900 1 1 1.000000
  1 0.531591 -0.771825 5.620294 0.996061 -0.088666 0.000031 0.750000 0.971500 1 1 1.000000
molotov
  1 0.460299 -0.506449 5.620202 0.906929 0.421284 -0.000147 0.833300 0.971500 1 1 1.000000
  1 0.531591 -0.771825 5.620294 0.996061 -0.088666 0.000031 0.750000 0.971500 1 1 1.000000
  1 0.531590 -0.772508 3.643593 0.990274 0.001930 0.139118 0.750000 0.822900 1 1 1.000000
molotov
  1 0.531590 -0.772508 3.643593 0.990274 0.001930 0.139118 0.750000 0.822900 1 1 1.000000
  1 0.460298 -0.507133 3.643501 0.856623 0.496893 0.138901 0.833300 0.822900 1 1 1.000000
  1 0.460299 -0.506449 5.620202 0.906929 0.421284 -0.000147 0.833300 0.971500 1 1 1.000000
molotov
  1 0.265932 -0.312116 5.620134 0.574815 0.818283 -0.000283 0.916700 0.971500 1 1 1.000000
  1 0.460299 -0.506449 5.620202 0.906929 0.421284 -0.000147 0.833300 0.971500 1 1 1.000000
  1 0.460298 -0.507133 3.643501 0.856623 0.496893 0.138901 0.833300 0.822900 1 1 1.000000
molotov
  1 0.460298 -0.507133 3.643501 0.856623 0.496893 0.138901 0.833300 0.822900 1 1 1.000000
  1 0.265931 -0.312800 3.643434 0.493419 0.858663 0.138691 0.916700 0.822900 1 1 1.000000
  1 0.265932 -0.312116 5.620134 0.574815 0.818283 -0.000283 0.916700 0.971500 1 1 1.000000
molotov
  1 0.000407 -0.241108 5.620110 0.088649 0.996063 -0.000345 1.000000 0.971500 1 1 1.000000
  1 0.265932 -0.312116 5.620134 0.574815 0.818283 -0.000283 0.916700 0.971500 1 1 1.000000
  1 0.265931 -0.312800 3.643434 0.493419 0.858663 0.138691 0.916700 0.822900 1 1 1.000000
molotov
  1 0.265931 -0.312800 3.643434 0.493419 0.858663 0.138691 0.916700 0.822900 1 1 1.000000
  1 0.000406 -0.241791 3.643410 -0.002015 0.990358 0.138514 1.000000 0.822900 1 1 1.000000
  1 0.000407 -0.241108 5.620110 0.088649 0.996063 -0.000345 1.000000 0.971500 1 1 1.000000
molotov
  1 0.265931 -0.312800 3.643434 0.493419 0.858663 0.138691 0.916700 0.822900 1 1 1.000000
  1 0.423237 -0.040525 2.542840 0.463600 0.809323 0.360653 0.916700 0.740200 1 1 1.000000
  1 0.000406 -0.241791 3.643410 -0.002015 0.990358 0.138514 1.000000 0.822900 1 1 1.000000
molotov
  1 0.000298 0.072629 2.542800 -0.003142 0.932704 0.360629 1.000000 0.740200 1 1 1.000000
  1 0.000406 -0.241791 3.643410 -0.002015 0.990358 0.138514 1.000000 0.822900 1 1 1.000000
  1 0.423237 -0.040525 2.542840 0.463600 0.809323 0.360653 0.916700 0.740200 1 1 1.000000
molotov
  1 0.681083 0.406104 1.500385 0.473035 0.813485 0.338348 0.916700 0.661900 1 1 1.000000
  1 0.000298 0.072629 2.542800 -0.003142 0.932704 0.360629 1.000000 0.740200 1 1 1.000000
  1 0.423237 -0.040525 2.542840 0.463600 0.809323 0.360653 0.916700 0.740200 1 1 1.000000
molotov
  1 0.681083 0.406104 1.500385 0.473035 0.813485 0.338348 0.916700 0.661900 1 1 1.000000
  1 0.000120 0.588269 1.500322 0.002965 0.941047 0.338264 1.000000 0.661900 1 1 1.000000
  1 0.000298 0.072629 2.542800 -0.003142 0.932704 0.360629 1.000000 0.740200 1 1 1.000000
molotov
  1 0.681083 0.406104 1.500385 0.473035 0.813485 0.338348 0.916700 0.661900 1 1 1.000000
  1 0.729954 0.490677 1.083955 0.497347 0.859896 0.115000 0.916700 0.630600 1 1 1.000000
  1 0.000120 0.588269 1.500322 0.002965 0.941047 0.338264 1.000000 0.661900 1 1 1.000000
molotov
  1 0.000086 0.685925 1.083888 0.000772 0.993378 0.114893 1.000000 0.630600 1 1 1.000000
  1 0.000120 0.588269 1.500322 0.002965 0.941047 0.338264 1.000000 0.661900 1 1 1.000000
  1 0.729954 0.490677 1.083955 0.497347 0.859896 0.115000 0.916700 0.630600 1 1 1.000000
molotov
  1 0.729951 0.487854 -7.077745 0.482880 0.845754 -0.226997 0.916700 0.017100 1 1 1.000000
  1 0.000086 0.685925 1.083888 0.000772 0.993378 0.114893 1.000000 0.630600 1 1 1.000000
  1 0.729954 0.490677 1.083955 0.497347 0.859896 0.115000 0.916700 0.630600 1 1 1.000000
molotov
  1 0.729951 0.487854 -7.077745 0.482880 0.845754 -0.226997 0.916700 0.017100 1 1 1.000000
  1 0.000084 0.683102 -7.077813 -0.004736 0.973877 -0.227027 1.000000 0.017100 1 1 1.000000
  1 0.000086 0.685925 1.083888 0.000772 0.993378 0.114893 1.000000 0.630600 1 1 1.000000
molotov
  1 0.675884 0.394059 -7.298213 0.377994 0.815069 -0.439070 0.916700 0.000500 1 1 1.000000
  1 0.000084 0.683102 -7.077813 -0.004736 0.973877 -0.227027 1.000000 0.017100 1 1 1.000000
  1 0.729951 0.487854 -7.077745 0.482880 0.845754 -0.226997 0.916700 0.017100 1 1 1.000000
molotov
  1 0.675884 0.394059 -7.298213 0.377994 0.815069 -0.439070 0.916700 0.000500 1 1 1.000000
  1 0.000121 0.574926 -7.298275 -0.080200 0.894841 -0.439122 1.000000 0.000500 1 1 1.000000
  1 0.000084 0.683102 -7.077813 -0.004736 0.973877 -0.227027 1.000000 0.017100 1 1 1.000000
molotov
  1 -0.583510 -0.772080 5.992593 -0.000005 0.000347 1.000000 0.250000 0.999500 1 1 1.000000
  1 -0.505109 -1.064153 5.992693 -0.000004 0.000343 1.000000 0.333300 0.999500 1 1 1.000000
  1 -0.369975 -0.871306 5.992628 -0.000004 0.000346 1.000000 0.333300 0.999500 1 1 1.000000
molotov
  1 -0.197891 -1.115947 5.992712 -0.000001 0.000341 1.000000 0.416700 0.999500 1 1 1.000000
  1 -0.369975 -0.871306 5.992628 -0.000004 0.000346 1.000000 0.333300 0.999500 1 1 1.000000
  1 -0.505109 -1.064153 5.992693 -0.000004 0.000343 1.000000 0.333300 0.999500 1 1 1.000000
molotov
  1 -0.505109 -1.064153 5.992693 -0.000004 0.000343 1.000000 0.333300 0.999500 1 1 1.000000
  1 -0.291235 -1.277779 5.992766 -0.000002 0.000342 1.000000 0.416700 0.999500 1 1 1.000000
  1 -0.197891 -1.115947 5.992712 -0.000001 0.000341 1.000000 0.416700 0.999500 1 1 1.000000
molotov
  1 0.100018 -1.142444 5.992722 -0.000002 0.000346 1.000000 0.500000 0.999500 1 1 1.000000
  1 -0.197891 -1.115947 5.992712 -0.000001 0.000341 1.000000 0.416700 0.999500 1 1 1.000000
  1 -0.291235 -1.277779 5.992766 -0.000002 0.000342 1.000000 0.416700 0.999500 1 1 1.000000
molotov
  1 -0.291235 -1.277779 5.992766 -0.000002 0.000342 1.000000 0.416700 0.999500 1 1 1.000000
  1 0.000792 -1.355978 5.992795 -0.000002 0.000348 1.000000 0.500000 0.999500 1 1 1.000000
  1 0.100018 -1.142444 5.992722 -0.000002 0.000346 1.000000 0.500000 0.999500 1 1 1.000000
molotov
  1 0.506491 -1.063804 5.992693 0.000003 0.000346 1.000000 0.666700 0.999500 1 1 1.000000
  1 0.584691 -0.771677 5.992593 -0.000003 0.000345 1.000000 0.750000 0.999500 1 1 1.000000
  1 0.371156 -0.672450 5.992559 -0.000001 0.000344 1.000000 0.750000 0.999500 1 1 1.000000
molotov
  1 0.371156 -0.672450 5.992559 -0.000001 0.000344 1.000000 0.750000 0.999500 1 1 1.000000
  1 0.344559 -0.970360 5.992662 0.000003 0.000346 1.000000 0.666700 0.999500 1 1 1.000000
  1 0.506491 -1.063804 5.992693 0.000003 0.000346 1.000000 0.666700 0.999500 1 1 1.000000
molotov
  1 0.292765 -1.277577 5.992768 -0.000001 0.000346 1.000000 0.583300 0.999500 1 1 1.000000
  1 0.506491 -1.063804 5.992693 0.000003 0.000346 1.000000 0.666700 0.999500 1 1 1.000000
  1 0.344559 -0.970360 5.992662 0.000003 0.000346 1.000000 0.666700 0.999500 1 1 1.000000
molotov
  1 0.344559 -0.970360 5.992662 0.000003 0.000346 1.000000 0.666700 0.999500 1 1 1.000000
  1 0.100018 -1.142444 5.992722 -0.000002 0.000346 1.000000 0.583300 0.999500 1 1 1.000000
  1 0.292765 -1.277577 5.992768 -0.000001 0.000346 1.000000 0.583300 0.999500 1 1 1.000000
molotov
  1 0.000792 -1.355978 5.992795 -0.000002 0.000348 1.000000 0.500000 0.999500 1 1 1.000000
  1 0.292765 -1.277577 5.992768 -0.000001 0.000346 1.000000 0.583300 0.999500 1 1 1.000000
  1 0.100018 -1.142444 5.992722 -0.000002 0.000346 1.000000 0.583300 0.999500 1 1 1.000000
molotov
  1 0.000389 -0.187878 5.992393 0.000001 0.000342 1.000000 0.000000 0.999500 1 1 1.000000
  1 -0.291584 -0.266179 5.992418 -0.000002 0.000348 1.000000 0.083300 0.999500 1 1 1.000000
  1 -0.098838 -0.401412 5.992465 0.000000 0.000347 1.000000 0.083300 0.999500 1 1 1.000000
molotov
  1 -0.343378 -0.573497 5.992525 -0.000004 0.000349 1.000000 0.166700 0.999500 1 1 1.000000
  1 -0.098838 -0.401412 5.992465 0.000000 0.000347 1.000000 0.083300 0.999500 1 1 1.000000
  1 -0.291584 -0.266179 5.992418 -0.000002 0.000348 1.000000 0.083300 0.999500 1 1 1.000000
molotov
  1 -0.291584 -0.266179 5.992418 -0.000002 0.000348 1.000000 0.083300 0.999500 1 1 1.000000
  1 -0.505311 -0.480053 5.992492 -0.000007 0.000349 1.000000 0.166700 0.999500 1 1 1.000000
  1 -0.343378 -0.573497 5.992525 -0.000004 0.000349 1.000000 0.166700 0.999500 1 1 1.000000
molotov
  1 -0.369975 -0.871306 5.992628 -0.000004 0.000346 1.000000 0.250000 0.999500 1 1 1.000000
  1 -0.343378 -0.573497 5.992525 -0.000004 0.000349 1.000000 0.166700 0.999500 1 1 1.000000
  1 -0.505311 -0.480053 5.992492 -0.000007 0.000349 1.000000 0.166700 0.999500 1 1 1.000000
molotov
  1 -0.505311 -0.480053 5.992492 -0.000007 0.000349 1.000000 0.166700 0.999500 1 1 1.000000
  1 -0.583510 -0.772080 5.992593 -0.000005 0.000347 1.000000 0.250000 0.999500 1 1 1.000000
  1 -0.369975 -0.871306 5.992628 -0.000004 0.000346 1.000000 0.250000 0.999500 1 1 1.000000
molotov
  1 0.584691 -0.771677 5.992593 -0.000003 0.000345 1.000000 0.750000 0.999500 1 1 1.000000
  1 0.506290 -0.479704 5.992494 -0.000001 0.000346 1.000000 0.833300 0.999500 1 1 1.000000
  1 0.371156 -0.672450 5.992559 -0.000001 0.000344 1.000000 0.833300 0.999500 1 1 1.000000
molotov
  1 0.199072 -0.427910 5.992475 -0.000001 0.000353 1.000000 0.916700 0.999500 1 1 1.000000
  1 0.371156 -0.672450 5.992559 -0.000001 0.000344 1.000000 0.833300 0.999500 1 1 1.000000
  1 0.506290 -0.479704 5.992494 -0.000001 0.000346 1.000000 0.833300 0.999500 1 1 1.000000
molotov
  1 0.506290 -0.479704 5.992494 -0.000001 0.000346 1.000000 0.833300 0.999500 1 1 1.000000
  1 0.292416 -0.265977 5.992418 0.000000 0.000352 1.000000 0.916700 0.999500 1 1 1.000000
  1 0.199072 -0.427910 5.992475 -0.000001 0.000353 1.000000 0.916700 0.999500 1 1 1.000000
molotov
  1 -0.098838 -0.401412 5.992465 0.000000 0.000347 1.000000 1.000000 0.999500 1 1 1.000000
  1 0.199072 -0.427910 5.992475 -0.000001 0.000353 1.000000 0.916700 0.999500 1 1 1.000000
  1 0.292416 -0.265977 5.992418 0.000000 0.000352 1.000000 0.916700 0.999500 1 1 1.000000
molotov
  1 0.292416 -0.265977 5.992418 0.000000 0.000352 1.000000 0.916700 0.999500 1 1 1.000000
  1 0.000389 -0.187878 5.992393 0.000001 0.000342 1.000000 1.000000 0.999500 1 1 1.000000
  1 -0.098838 -0.401412 5.992465 0.000000 0.000347 1.000000 1.000000 0.999500 1 1 1.000000
molotov
  1 0.000389 -0.188000 5.641191 0.032862 0.368876 -0.928897 0.000000 0.973100 1 1 1.000000
  1 0.000407 -0.241108 5.620110 -0.033129 0.368857 -0.928896 0.000000 0.971500 1 1 1.000000
  1 -0.291584 -0.266300 5.641218 -0.156103 0.335827 -0.928898 0.083300 0.973100 1 1 1.000000
molotov
  1 -0.265068 -0.312299 5.620134 -0.213301 0.302797 -0.928879 0.083300 0.971500 1 1 1.000000
  1 -0.291584 -0.266300 5.641218 -0.156103 0.335827 -0.928898 0.083300 0.973100 1 1 1.000000
  1 0.000407 -0.241108 5.620110 -0.033129 0.368857 -0.928896 0.000000 0.971500 1 1 1.000000
molotov
  1 -0.291584 -0.266300 5.641218 -0.156103 0.335827 -0.928898 0.083300 0.973100 1 1 1.000000
  1 -0.265068 -0.312299 5.620134 -0.213301 0.302797 -0.928879 0.083300 0.971500 1 1 1.000000
  1 -0.505311 -0.480174 5.641293 -0.303247 0.212801 -0.928847 0.166700 0.973100 1 1 1.000000
molotov
  1 -0.459301 -0.506765 5.620201 -0.336247 0.155562 -0.928837 0.166700 0.971500 1 1 1.000000
  1 -0.505311 -0.480174 5.641293 -0.303247 0.212801 -0.928847 0.166700 0.973100 1 1 1.000000
  1 -0.265068 -0.312299 5.620134 -0.213301 0.302797 -0.928879 0.083300 0.971500 1 1 1.000000
molotov
  1 -0.505311 -0.480174 5.641293 -0.303247 0.212801 -0.928847 0.166700 0.973100 1 1 1.000000
  1 -0.459301 -0.506765 5.620201 -0.336247 0.155562 -0.928837 0.166700 0.971500 1 1 1.000000
  1 -0.583510 -0.772201 5.641394 -0.369199 0.032579 -0.928779 0.250000 0.973100 1 1 1.000000
molotov
  1 -0.530410 -0.772190 5.620294 -0.369177 -0.033450 -0.928757 0.250000 0.971500 1 1 1.000000
  1 -0.583510 -0.772201 5.641394 -0.369199 0.032579 -0.928779 0.250000 0.973100 1 1 1.000000
  1 -0.459301 -0.506765 5.620201 -0.336247 0.155562 -0.928837 0.166700 0.971500 1 1 1.000000
molotov
  1 -0.583510 -0.772201 5.641394 -0.369199 0.032579 -0.928779 0.250000 0.973100 1 1 1.000000
  1 -0.530410 -0.772190 5.620294 -0.369177 -0.033450 -0.928757 0.250000 0.971500 1 1 1.000000
  1 -0.505109 -1.064274 5.641493 -0.336137 -0.156436 -0.928730 0.333300 0.973100 1 1 1.000000
molotov
  1 -0.459118 -1.037665 5.620385 -0.303122 -0.213614 -0.928701 0.333300 0.971500 1 1 1.000000
  1 -0.505109 -1.064274 5.641493 -0.336137 -0.156436 -0.928730 0.333300 0.973100 1 1 1.000000
  1 -0.530410 -0.772190 5.620294 -0.369177 -0.033450 -0.928757 0.250000 0.971500 1 1 1.000000
molotov
  1 -0.505109 -1.064274 5.641493 -0.336137 -0.156436 -0.928730 0.333300 0.973100 1 1 1.000000
  1 -0.459118 -1.037665 5.620385 -0.303122 -0.213614 -0.928701 0.333300 0.971500 1 1 1.000000
  1 -0.291235 -1.277901 5.641566 -0.213111 -0.303571 -0.928670 0.416700 0.973100 1 1 1.000000
molotov
  1 -0.264751 -1.231999 5.620451 -0.155887 -0.336566 -0.928667 0.416700 0.971500 1 1 1.000000
  1 -0.291235 -1.277901 5.641566 -0.213111 -0.303571 -0.928670 0.416700 0.973100 1 1 1.000000
  1 -0.459118 -1.037665 5.620385 -0.303122 -0.213614 -0.928701 0.333300 0.971500 1 1 1.000000
molotov
  1 -0.291235 -1.277901 5.641566 -0.213111 -0.303571 -0.928670 0.416700 0.973100 1 1 1.000000
  1 -0.264751 -1.231999 5.620451 -0.155887 -0.336566 -0.928667 0.416700 0.971500 1 1 1.000000
  1 0.000792 -1.356101 5.641594 -0.032873 -0.369523 -0.928640 0.500000 0.973100 1 1 1.000000
molotov
  1 0.000774 -1.303007 5.620476 0.033141 -0.369497 -0.928641 0.500000 0.971500 1 1 1.000000
  1 0.000792 -1.356101 5.641594 -0.032873 -0.369523 -0.928640 0.500000 0.973100 1 1 1.000000
  1 -0.264751 -1.231999 5.620451 -0.155887 -0.336566 -0.928667 0.416700 0.971500 1 1 1.000000
molotov
  1 0.000792 -1.356101 5.641594 -0.032873 -0.369523 -0.928640 0.500000 0.973100 1 1 1.000000
  1 0.000774 -1.303007 5.620476 0.033141 -0.369497 -0.928641 0.500000 0.971500 1 1 1.000000
  1 0.292765 -1.277700 5.641568 0.156112 -0.336460 -0.928667 0.583300 0.973100 1 1 1.000000
molotov
  1 0.266249 -1.231816 5.620451 0.213281 -0.303449 -0.928671 0.583300 0.971500 1 1 1.000000
  1 0.292765 -1.277700 5.641568 0.156112 -0.336460 -0.928667 0.583300 0.973100 1 1 1.000000
  1 0.000774 -1.303007 5.620476 0.033141 -0.369497 -0.928641 0.500000 0.971500 1 1 1.000000
molotov
  1 0.292765 -1.277700 5.641568 0.156112 -0.336460 -0.928667 0.583300 0.973100 1 1 1.000000
  1 0.266249 -1.231816 5.620451 0.213281 -0.303449 -0.928671 0.583300 0.971500 1 1 1.000000
  1 0.506491 -1.063926 5.641493 0.303275 -0.213394 -0.928702 0.666700 0.973100 1 1 1.000000
molotov
  1 0.460482 -1.037349 5.620385 0.336259 -0.156184 -0.928728 0.666700 0.971500 1 1 1.000000
  1 0.506491 -1.063926 5.641493 0.303275 -0.213394 -0.928702 0.666700 0.973100 1 1 1.000000
  1 0.266249 -1.231816 5.620451 0.213281 -0.303449 -0.928671 0.583300 0.971500 1 1 1.000000
molotov
  1 0.506491 -1.063926 5.641493 0.303275 -0.213394 -0.928702 0.666700 0.973100 1 1 1.000000
  1 0.460482 -1.037349 5.620385 0.336259 -0.156184 -0.928728 0.666700 0.971500 1 1 1.000000
  1 0.584691 -0.771799 5.641394 0.369199 -0.033193 -0.928757 0.750000 0.973100 1 1 1.000000
molotov
  1 0.531591 -0.771825 5.620294 0.369178 0.032796 -0.928780 0.750000 0.971500 1 1 1.000000
  1 0.584691 -0.771799 5.641394 0.369199 -0.033193 -0.928757 0.750000 0.973100 1 1 1.000000
  1 0.460482 -1.037349 5.620385 0.336259 -0.156184 -0.928728 0.666700 0.971500 1 1 1.000000
molotov
  1 0.584691 -0.771799 5.641394 0.369199 -0.033193 -0.928757 0.750000 0.973100 1 1 1.000000
  1 0.531591 -0.771825 5.620294 0.369178 0.032796 -0.928780 0.750000 0.971500 1 1 1.000000
  1 0.506290 -0.479826 5.641294 0.336149 0.155778 -0.928836 0.833300 0.973100 1 1 1.000000
molotov
  1 0.460299 -0.506449 5.620202 0.303110 0.212994 -0.928847 0.833300 0.971500 1 1 1.000000
  1 0.506290 -0.479826 5.641294 0.336149 0.155778 -0.928836 0.833300 0.973100 1 1 1.000000
  1 0.531591 -0.771825 5.620294 0.369178 0.032796 -0.928780 0.750000 0.971500 1 1 1.000000
molotov
  1 0.506290 -0.479826 5.641294 0.336149 0.155778 -0.928836 0.833300 0.973100 1 1 1.000000
  1 0.460299 -0.506449 5.620202 0.303110 0.212994 -0.928847 0.833300 0.971500 1 1 1.000000
  1 0.292416 -0.266100 5.641218 0.213082 0.302950 -0.928879 0.916700 0.973100 1 1 1.000000
molotov
  1 0.265932 -0.312116 5.620134 0.155889 0.335923 -0.928899 0.916700 0.971500 1 1 1.000000
  1 0.292416 -0.266100 5.641218 0.213082 0.302950 -0.928879 0.916700 0.973100 1 1 1.000000
  1 0.460299 -0.506449 5.620202 0.303110 0.212994 -0.928847 0.833300 0.971500 1 1 1.000000
molotov
  1 0.292416 -0.266100 5.641218 0.213082 0.302950 -0.928879 0.916700 0.973100 1 1 1.000000
  1 0.265932 -0.312116 5.620134 0.155889 0.335923 -0.928899 0.916700 0.971500 1 1 1.000000
  1 0.000389 -0.188000 5.641191 0.032862 0.368876 -0.928897 1.000000 0.973100 1 1 1.000000
molotov
  1 0.000407 -0.241108 5.620110 -0.033129 0.368857 -0.928896 1.000000 0.971500 1 1 1.000000
  1 0.000389 -0.188000 5.641191 0.032862 0.368876 -0.928897 1.000000 0.973100 1 1 1.000000
  1 0.265932 -0.312116 5.620134 0.155889 0.335923 -0.928899 0.916700 0.971500 1 1 1.000000
molotov
  1 0.000389 -0.188000 5.641191 -0.089377 0.995998 -0.000344 0.000000 0.973100 1 1 1.000000
  1 -0.291584 -0.266179 5.992418 -0.421300 0.906921 -0.000312 0.083300 0.999500 1 1 1.000000
  1 0.000389 -0.187878 5.992393 0.088637 0.996064 -0.000345 0.000000 0.999500 1 1 1.000000
molotov
  1 0.000389 -0.188000 5.641191 -0.089377 0.995998 -0.000344 0.000000 0.973100 1 1 1.000000
  1 -0.291584 -0.266300 5.641218 -0.575397 0.817874 -0.000282 0.083300 0.973100 1 1 1.000000
  1 -0.291584 -0.266179 5.992418 -0.421300 0.906921 -0.000312 0.083300 0.999500 1 1 1.000000
molotov
  1 -0.291584 -0.266300 5.641218 -0.575397 0.817874 -0.000282 0.083300 0.973100 1 1 1.000000
  1 -0.505311 -0.480053 5.992492 -0.818274 0.574829 -0.000198 0.166700 0.999500 1 1 1.000000
  1 -0.291584 -0.266179 5.992418 -0.421300 0.906921 -0.000312 0.083300 0.999500 1 1 1.000000
molotov
  1 -0.291584 -0.266300 5.641218 -0.575397 0.817874 -0.000282 0.083300 0.973100 1 1 1.000000
  1 -0.505311 -0.480174 5.641293 -0.907209 0.420681 -0.000145 0.166700 0.973100 1 1 1.000000
  1 -0.505311 -0.480053 5.992492 -0.818274 0.574829 -0.000198 0.166700 0.999500 1 1 1.000000
molotov
  1 -0.505311 -0.480174 5.641293 -0.907209 0.420681 -0.000145 0.166700 0.973100 1 1 1.000000
  1 -0.583510 -0.772080 5.992593 -0.996064 0.088635 -0.000031 0.250000 0.999500 1 1 1.000000
  1 -0.505311 -0.480053 5.992492 -0.818274 0.574829 -0.000198 0.166700 0.999500 1 1 1.000000
molotov
  1 -0.505311 -0.480174 5.641293 -0.907209 0.420681 -0.000145 0.166700 0.973100 1 1 1.000000
  1 -0.583510 -0.772201 5.641394 -0.996001 -0.089345 0.000031 0.250000 0.973100 1 1 1.000000
  1 -0.583510 -0.772080 5.992593 -0.996064 0.088635 -0.000031 0.250000 0.999500 1 1 1.000000
molotov
  1 -0.583510 -0.772201 5.641394 -0.996001 -0.089345 0.000031 0.250000 0.973100 1 1 1.000000
  1 -0.505109 -1.064153 5.992693 -0.906912 -0.421320 0.000146 0.333300 0.999500 1 1 1.000000
  1 -0.583510 -0.772080 5.992593 -0.996064 0.088635 -0.000031 0.250000 0.999500 1 1 1.000000
molotov
  1 -0.583510 -0.772201 5.641394 -0.996001 -0.089345 0.000031 0.250000 0.973100 1 1 1.000000
  1 -0.505109 -1.064274 5.641493 -0.817892 -0.575372 0.000199 0.333300 0.973100 1 1 1.000000
  1 -0.505109 -1.064153 5.992693 -0.906912 -0.421320 0.000146 0.333300 0.999500 1 1 1.000000
molotov
  1 -0.505109 -1.064274 5.641493 -0.817892 -0.575372 0.000199 0.333300 0.973100 1 1 1.000000
  1 -0.291235 -1.277779 5.992766 -0.574816 -0.818282 0.000283 0.416700 0.999500 1 1 1.000000
  1 -0.505109 -1.064153 5.992693 -0.906912 -0.421320 0.000146 0.333300 0.999500 1 1 1.000000
molotov
  1 -0.505109 -1.064274 5.641493 -0.817892 -0.575372 0.000199 0.333300 0.973100 1 1 1.000000
  1 -0.291235 -1.277901 5.641566 -0.420673 -0.907212 0.000314 0.416700 0.973100 1 1 1.000000
  1 -0.291235 -1.277779 5.992766 -0.574816 -0.818282 0.000283 0.416700 0.999500 1 1 1.000000
molotov
  1 -0.291235 -1.277901 5.641566 -0.420673 -0.907212 0.000314 0.416700 0.973100 1 1 1.000000
  1 0.000792 -1.355978 5.992795 -0.088647 -0.996063 0.000346 0.500000 0.999500 1 1 1.000000
  1 -0.291235 -1.277779 5.992766 -0.574816 -0.818282 0.000283 0.416700 0.999500 1 1 1.000000
molotov
  1 -0.291235 -1.277901 5.641566 -0.420673 -0.907212 0.000314 0.416700 0.973100 1 1 1.000000
  1 0.000792 -1.356101 5.641594 0.089334 -0.996002 0.000347 0.500000 0.973100 1 1 1.000000
  1 0.000792 -1.355978 5.992795 -0.088647 -0.996063 0.000346 0.500000 0.999500 1 1 1.000000
molotov
  1 0.000792 -1.356101 5.641594 0.089334 -0.996002 0.000347 0.500000 0.973100 1 1 1.000000
  1 0.292765 -1.277577 5.992768 0.421300 -0.906921 0.000315 0.583300 0.999500 1 1 1.000000
  1 0.000792 -1.355978 5.992795 -0.088647 -0.996063 0.000346 0.500000 0.999500 1 1 1.000000
molotov
  1 0.000792 -1.356101 5.641594 0.089334 -0.996002 0.000347 0.500000 0.973100 1 1 1.000000
  1 0.292765 -1.277700 5.641568 0.575381 -0.817886 0.000283 0.583300 0.973100 1 1 1.000000
  1 0.292765 -1.277577 5.992768 0.421300 -0.906921 0.000315 0.583300 0.999500 1 1 1.000000
molotov
  1 0.292765 -1.277700 5.641568 0.575381 -0.817886 0.000283 0.583300 0.973100 1 1 1.000000
  1 0.506491 -1.063804 5.992693 0.818289 -0.574807 0.000199 0.666700 0.999500 1 1 1.000000
  1 0.292765 -1.277577 5.992768 0.421300 -0.906921 0.000315 0.583300 0.999500 1 1 1.000000
molotov
  1 0.292765 -1.277700 5.641568 0.575381 -0.817886 0.000283 0.583300 0.973100 1 1 1.000000
  1 0.506491 -1.063926 5.641493 0.907202 -0.420694 0.000145 0.666700 0.973100 1 1 1.000000
  1 0.506491 -1.063804 5.992693 0.818289 -0.574807 0.000199 0.666700 0.999500 1 1 1.000000
molotov
  1 0.506491 -1.063926 5.641493 0.907202 -0.420694 0.000145 0.666700 0.973100 1 1 1.000000
  1 0.584691 -0.771677 5.992593 0.996062 -0.088658 0.000031 0.750000 0.999500 1 1 1.000000
  1 0.506491 -1.063804 5.992693 0.818289 -0.574807 0.000199 0.666700 0.999500 1 1 1.000000
molotov
  1 0.506491 -1.063926 5.641493 0.907202 -0.420694 0.000145 0.666700 0.973100 1 1 1.000000
  1 0.584691 -0.771799 5.641394 0.996003 0.089323 -0.000031 0.750000 0.973100 1 1 1.000000
  1 0.584691 -0.771677 5.992593 0.996062 -0.088658 0.000031 0.750000 0.999500 1 1 1.000000
molotov
  1 0.584691 -0.771799 5.641394 0.996003 0.089323 -0.000031 0.750000 0.973100 1 1 1.000000
  1 0.506290 -0.479704 5.992494 0.906919 0.421306 -0.000146 0.833300 0.999500 1 1 1.000000
  1 0.584691 -0.771677 5.992593 0.996062 -0.088658 0.000031 0.750000 0.999500 1 1 1.000000
molotov
  1 0.584691 -0.771799 5.641394 0.996003 0.089323 -0.000031 0.750000 0.973100 1 1 1.000000
  1 0.506290 -0.479826 5.641294 0.817877 0.575393 -0.000200 0.833300 0.973100 1 1 1.000000
  1 0.506290 -0.479704 5.992494 0.906919 0.421306 -0.000146 0.833300 0.999500 1 1 1.000000
molotov
  1 0.506290 -0.479826 5.641294 0.817877 0.575393 -0.000200 0.833300 0.973100 1 1 1.000000
  1 0.292416 -0.265977 5.992418 0.574790 0.818301 -0.000284 0.916700 0.999500 1 1 1.000000
  1 0.506290 -0.479704 5.992494 0.906919 0.421306 -0.000146 0.833300 0.999500 1 1 1.000000
molotov
  1 0.506290 -0.479826 5.641294 0.817877 0.575393 -0.000200 0.833300 0.973100 1 1 1.000000
  1 0.292416 -0.266100 5.641218 0.420675 0.907211 -0.000315 0.916700 0.973100 1 1 1.000000
  1 0.292416 -0.265977 5.992418 0.574790 0.818301 -0.000284 0.916700 0.999500 1 1 1.000000
molotov
  1 0.292416 -0.266100 5.641218 0.420675 0.907211 -0.000315 0.916700 0.973100 1 1 1.000000
  1 0.000389 -0.187878 5.992393 0.088637 0.996064 -0.000345 1.000000 0.999500 1 1 1.000000
  1 0.292416 -0.265977 5.992418 0.574790 0.818301 -0.000284 0.916700 0.999500 1 1 1.000000
molotov
  1 0.292416 -0.266100 5.641218 0.420675 0.907211 -0.000315 0.916700 0.973100 1 1 1.000000
  1 0.000389 -0.188000 5.641191 -0.089377 0.995998 -0.000344 1.000000 0.973100 1 1 1.000000
  1 0.000389 -0.187878 5.992393 0.088637 0.996064 -0.000345 1.000000 0.999500 1 1 1.000000
molotov
  1 0.000588 -0.776474 -7.297808 0.000000 -0.000346 -1.000000 0.500000 0.000500 1 1 1.000000
  1 -0.675517 0.393593 -7.298212 0.000000 -0.000346 -1.000000 0.083300 0.000500 1 1 1.000000
  1 0.000121 0.574926 -7.298275 0.000000 -0.000346 -1.000000 0.000000 0.000500 1 1 1.000000
molotov
  1 0.000588 -0.776474 -7.297808 0.000000 -0.000346 -1.000000 0.500000 0.000500 1 1 1.000000
  1 -1.170046 -0.101177 -7.298040 0.000000 -0.000346 -1.000000 0.166700 0.000500 1 1 1.000000
  1 -0.675517 0.393593 -7.298212 0.000000 -0.000346 -1.000000 0.083300 0.000500 1 1 1.000000
molotov
  1 0.000588 -0.776474 -7.297808 0.000000 -0.000346 -1.000000 0.500000 0.000500 1 1 1.000000
  1 -1.350813 -0.776939 -7.297807 0.000000 -0.000346 -1.000000 0.250000 0.000500 1 1 1.000000
  1 -1.170046 -0.101177 -7.298040 0.000000 -0.000346 -1.000000 0.166700 0.000500 1 1 1.000000
molotov
  1 0.000588 -0.776474 -7.297808 0.000000 -0.000346 -1.000000 0.500000 0.000500 1 1 1.000000
  1 -1.169579 -1.452677 -7.297573 0.000000 -0.000347 -1.000000 0.333300 0.000500 1 1 1.000000
  1 -1.350813 -0.776939 -7.297807 0.000000 -0.000346 -1.000000 0.250000 0.000500 1 1 1.000000
molotov
  1 0.000588 -0.776474 -7.297808 0.000000 -0.000346 -1.000000 0.500000 0.000500 1 1 1.000000
  1 -0.674709 -1.947106 -7.297402 0.000000 -0.000346 -1.000000 0.416700 0.000500 1 1 1.000000
  1 -1.169579 -1.452677 -7.297573 0.000000 -0.000347 -1.000000 0.333300 0.000500 1 1 1.000000
molotov
  1 0.000588 -0.776474 -7.297808 0.000000 -0.000346 -1.000000 0.500000 0.000500 1 1 1.000000
  1 0.001054 -2.127974 -7.297340 0.000000 -0.000347 -1.000000 0.500000 0.000500 1 1 1.000000
  1 -0.674709 -1.947106 -7.297402 0.000000 -0.000346 -1.000000 0.416700 0.000500 1 1 1.000000
molotov
  1 0.000588 -0.776474 -7.297808 0.000000 -0.000346 -1.000000 0.500000 0.000500 1 1 1.000000
  1 0.676692 -1.946641 -7.297402 0.000001 -0.000347 -1.000000 0.583300 0.000500 1 1 1.000000
  1 0.001054 -2.127974 -7.297340 0.000000 -0.000347 -1.000000 0.500000 0.000500 1 1 1.000000
molotov
  1 0.000588 -0.776474 -7.297808 0.000000 -0.000346 -1.000000 0.500000 0.000500 1 1 1.000000
  1 1.171222 -1.451870 -7.297574 0.000001 -0.000347 -1.000000 0.666700 0.000500 1 1 1.000000
  1 0.676692 -1.946641 -7.297402 0.000001 -0.000347 -1.000000 0.583300 0.000500 1 1 1.000000
molotov
  1 0.000588 -0.776474 -7.297808 0.000000 -0.000346 -1.000000 0.500000 0.000500 1 1 1.000000
  1 1.351988 -0.776008 -7.297808 0.000001 -0.000346 -1.000000 0.750000 0.000500 1 1 1.000000
  1 1.171222 -1.451870 -7.297574 0.000001 -0.000347 -1.000000 0.666700 0.000500 1 1 1.000000
molotov
  1 0.000588 -0.776474 -7.297808 0.000000 -0.000346 -1.000000 0.500000 0.000500 1 1 1.000000
  1 1.170755 -0.100370 -7.298041 0.000000 -0.000346 -1.000000 0.833300 0.000500 1 1 1.000000
  1 1.351988 -0.776008 -7.297808 0.000001 -0.000346 -1.000000 0.750000 0.000500 1 1 1.000000
molotov
  1 0.000588 -0.776474 -7.297808 0.000000 -0.000346 -1.000000 0.500000 0.000500 1 1 1.000000
  1 0.675884 0.394059 -7.298213 0.000001 -0.000346 -1.000000 0.916700 0.000500 1 1 1.000000
  1 1.170755 -0.100370 -7.298041 0.000000 -0.000346 -1.000000 0.833300 0.000500 1 1 1.000000
molotov
  1 0.000588 -0.776474 -7.297808 0.000000 -0.000346 -1.000000 0.500000 0.000500 1 1 1.000000
  1 0.000121 0.574926 -7.298275 0.000000 -0.000346 -1.000000 1.000000 0.000500 1 1 1.000000
  1 0.675884 0.394059 -7.298213 0.000001 -0.000346 -1.000000 0.916700 0.000500 1 1 1.000000
rag
  1 -0.073085 0.316231 3.781116 0.507089 0.530907 -0.678968 0.486200 0.388500 1 1 1.000000
  1 -0.468696 0.925557 3.962106 0.507089 0.530907 -0.678968 0.388500 0.561900 1 1 1.000000
  1 0.050344 1.100118 4.486246 0.507089 0.530907 -0.678968 0.516800 0.611500 1 1 1.000000
rag
  1 0.082319 -0.561036 7.191522 0.424965 -0.460302 0.779440 0.522600 0.987300 1 1 1.000000
  1 0.233581 -0.451533 7.049683 0.678883 -0.222539 0.699710 0.533500 0.971800 1 1 1.000000
  1 0.338692 0.094622 7.103593 0.806525 -0.010124 0.591113 0.595400 0.980900 1 1 1.000000
rag
  1 0.082319 -0.561036 7.191522 0.424965 -0.460302 0.779440 0.522600 0.987300 1 1 1.000000
  1 -0.008865 -0.898050 6.953938 -0.023217 -0.788899 0.614084 0.509700 0.960200 1 1 1.000000
  1 0.233581 -0.451533 7.049683 0.678883 -0.222539 0.699710 0.533500 0.971800 1 1 1.000000
rag
  1 0.228609 -0.821466 6.958710 0.287824 -0.665842 0.688340 0.530900 0.960700 1 1 1.000000
  1 0.233581 -0.451533 7.049683 0.678883 -0.222539 0.699710 0.533500 0.971800 1 1 1.000000
  1 -0.008865 -0.898050 6.953938 -0.023217 -0.788899 0.614084 0.509700 0.960200 1 1 1.000000
rag
  1 0.228609 -0.821466 6.958710 0.287824 -0.665842 0.688340 0.530900 0.960700 1 1 1.000000
  1 -0.008865 -0.898050 6.953938 -0.023217 -0.788899 0.614084 0.509700 0.960200 1 1 1.000000
  1 0.100018 -1.142444 5.992722 0.257238 -0.939227 0.227335 0.508800 0.850500 1 1 1.000000
rag
  1 -0.197891 -1.115947 5.992712 -0.525817 -0.812511 0.251680 0.494600 0.850500 1 1 1.000000
  1 0.100018 -1.142444 5.992722 0.257238 -0.939227 0.227335 0.508800 0.850500 1 1 1.000000
  1 -0.008865 -0.898050 6.953938 -0.023217 -0.788899 0.614084 0.509700 0.960200 1 1 1.000000
rag
  1 -0.008865 -0.898050 6.953938 -0.023217 -0.788899 0.614084 0.509700 0.960200 1 1 1.000000
  1 -0.269322 -0.733475 6.850680 -0.627190 -0.686585 0.367741 0.493100 0.953800 1 1 1.000000
  1 -0.197891 -1.115947 5.992712 -0.525817 -0.812511 0.251680 0.494600 0.850500 1 1 1.000000
rag
  1 -0.008865 -0.898050 6.953938 -0.023217 -0.788899 0.614084 0.509700 0.960200 1 1 1.000000
  1 0.082319 -0.561036 7.191522 0.424965 -0.460302 0.779440 0.522600 0.987300 1 1 1.000000
  1 -0.269322 -0.733475 6.850680 -0.627190 -0.686585 0.367741 0.493100 0.953800 1 1 1.000000
rag
  1 -0.114092 -0.531867 7.298910 -0.029851 -0.440073 0.897465 0.501100 0.999500 1 1 1.000000
  1 -0.269322 -0.733475 6.850680 -0.627190 -0.686585 0.367741 0.493100 0.953800 1 1 1.000000
  1 0.082319 -0.561036 7.191522 0.424965 -0.460302 0.779440 0.522600 0.987300 1 1 1.000000
rag
  1 -0.114092 -0.531867 7.298910 -0.029851 -0.440073 0.897465 0.501100 0.999500 1 1 1.000000
  1 0.082319 -0.561036 7.191522 0.424965 -0.460302 0.779440 0.522600 0.987300 1 1 1.000000
  1 0.121544 0.235114 7.294745 0.411350 0.111963 0.904575 0.590300 0.999100 1 1 1.000000
rag
  1 0.338692 0.094622 7.103593 0.806525 -0.010124 0.591113 0.595400 0.980900 1 1 1.000000
  1 0.121544 0.235114 7.294745 0.411350 0.111963 0.904575 0.590300 0.999100 1 1 1.000000
  1 0.082319 -0.561036 7.191522 0.424965 -0.460302 0.779440 0.522600 0.987300 1 1 1.000000
rag
  1 0.338692 0.094622 7.103593 0.806525 -0.010124 0.591113 0.595400 0.980900 1 1 1.000000
  1 0.276621 0.300906 7.117823 0.714132 0.490295 0.499625 0.648200 0.978900 1 1 1.000000
  1 0.121544 0.235114 7.294745 0.411350 0.111963 0.904575 0.590300 0.999100 1 1 1.000000
rag
  1 0.276621 0.300906 7.117823 0.714132 0.490295 0.499625 0.648200 0.978900 1 1 1.000000
  1 0.338692 0.094622 7.103593 0.806525 -0.010124 0.591113 0.595400 0.980900 1 1 1.000000
  1 0.397321 0.301771 6.895222 0.988332 0.116282 0.098376 0.684200 0.962300 1 1 1.000000
rag
  1 0.276621 0.300906 7.117823 0.714132 0.490295 0.499625 0.648200 0.978900 1 1 1.000000
  1 0.397321 0.301771 6.895222 0.988332 0.116282 0.098376 0.684200 0.962300 1 1 1.000000
  1 0.348644 0.814447 6.007444 0.851787 0.506265 0.134738 0.882100 0.858300 1 1 1.000000
rag
  1 0.348644 0.814447 6.007444 0.851787 0.506265 0.134738 0.882100 0.858300 1 1 1.000000
  1 0.139221 0.880931 6.172122 0.614639 0.771265 0.165436 0.919100 0.871100 1 1 1.000000
  1 0.276621 0.300906 7.117823 0.714132 0.490295 0.499625 0.648200 0.978900 1 1 1.000000
rag
  1 0.099267 0.457274 7.202068 0.171171 0.659292 0.732143 0.689000 0.988500 1 1 1.000000
  1 0.276621 0.300906 7.117823 0.714132 0.490295 0.499625 0.648200 0.978900 1 1 1.000000
  1 0.139221 0.880931 6.172122 0.614639 0.771265 0.165436 0.919100 0.871100 1 1 1.000000
rag
  1 0.139221 0.880931 6.172122 0.614639 0.771265 0.165436 0.919100 0.871100 1 1 1.000000
  1 -0.069858 1.109481 6.232343 0.009182 0.947846 0.318598 0.988800 0.878000 1 1 1.000000
  1 0.099267 0.457274 7.202068 0.171171 0.659292 0.732143 0.689000 0.988500 1 1 1.000000
rag
  1 -0.072490 0.331799 7.158212 -0.491176 0.535087 0.687334 0.531700 0.983500 1 1 1.000000
  1 0.099267 0.457274 7.202068 0.171171 0.659292 0.732143 0.689000 0.988500 1 1 1.000000
  1 -0.069858 1.109481 6.232343 0.009182 0.947846 0.318598 0.988800 0.878000 1 1 1.000000
rag
  1 -0.072490 0.331799 7.158212 -0.491176 0.535087 0.687334 0.531700 0.983500 1 1 1.000000
  1 -0.060223 0.137152 7.298079 -0.388419 0.271093 0.880703 0.519600 0.999400 1 1 1.000000
  1 0.099267 0.457274 7.202068 0.171171 0.659292 0.732143 0.689000 0.988500 1 1 1.000000
rag
  1 -0.060223 0.137152 7.298079 -0.388419 0.271093 0.880703 0.519600 0.999400 1 1 1.000000
  1 -0.072490 0.331799 7.158212 -0.491176 0.535087 0.687334 0.531700 0.983500 1 1 1.000000
  1 -0.275090 0.041730 7.158712 -0.867955 0.187355 0.459948 0.470300 0.991000 1 1 1.000000
rag
  1 -0.060223 0.137152 7.298079 -0.388419 0.271093 0.880703 0.519600 0.999400 1 1 1.000000
  1 -0.275090 0.041730 7.158712 -0.867955 0.187355 0.459948 0.470300 0.991000 1 1 1.000000
  1 -0.413522 -0.445202 7.204279 -0.884870 -0.052843 0.462830 0.464900 0.988700 1 1 1.000000
rag
  1 -0.369975 -0.871306 5.992628 -0.942364 -0.323319 0.086107 0.482500 0.850500 1 1 1.000000
  1 -0.197891 -1.115947 5.992712 -0.525817 -0.812511 0.251680 0.494600 0.850500 1 1 1.000000
  1 -0.269322 -0.733475 6.850680 -0.627190 -0.686585 0.367741 0.493100 0.953800 1 1 1.000000
rag
  1 -0.262798 0.355724 7.128503 -0.491183 0.527581 0.693107 0.412200 0.980100 1 1 1.000000
  1 -0.275090 0.041730 7.158712 -0.867955 0.187355 0.459948 0.470300 0.991000 1 1 1.000000
  1 -0.072490 0.331799 7.158212 -0.491176 0.535087 0.687334 0.531700 0.983500 1 1 1.000000
rag
  1 0.139221 0.880931 6.172122 0.614639 0.771265 0.165436 0.919100 0.871100 1 1 1.000000
  1 0.348644 0.814447 6.007444 0.851787 0.506265 0.134738 0.882100 0.858300 1 1 1.000000
  1 0.434040 0.531918 4.391841 0.950565 0.310505 0.003595 0.770500 0.720400 1 1 1.000000
rag
  1 0.099267 0.457274 7.202068 0.171171 0.659292 0.732143 0.689000 0.988500 1 1 1.000000
  1 0.121544 0.235114 7.294745 0.411350 0.111963 0.904575 0.590300 0.999100 1 1 1.000000
  1 0.276621 0.300906 7.117823 0.714132 0.490295 0.499625 0.648200 0.978900 1 1 1.000000
rag
  1 0.121544 0.235114 7.294745 0.411350 0.111963 0.904575 0.590300 0.999100 1 1 1.000000
  1 0.099267 0.457274 7.202068 0.171171 0.659292 0.732143 0.689000 0.988500 1 1 1.000000
  1 -0.060223 0.137152 7.298079 -0.388419 0.271093 0.880703 0.519600 0.999400 1 1 1.000000
rag
  1 0.121544 0.235114 7.294745 0.411350 0.111963 0.904575 0.590300 0.999100 1 1 1.000000
  1 -0.060223 0.137152 7.298079 -0.388419 0.271093 0.880703 0.519600 0.999400 1 1 1.000000
  1 -0.114092 -0.531867 7.298910 -0.029851 -0.440073 0.897465 0.501100 0.999500 1 1 1.000000
rag
  1 -0.413522 -0.445202 7.204279 -0.884870 -0.052843 0.462830 0.464900 0.988700 1 1 1.000000
  1 -0.114092 -0.531867 7.298910 -0.029851 -0.440073 0.897465 0.501100 0.999500 1 1 1.000000
  1 -0.060223 0.137152 7.298079 -0.388419 0.271093 0.880703 0.519600 0.999400 1 1 1.000000
rag
  1 -0.413522 -0.445202 7.204279 -0.884870 -0.052843 0.462830 0.464900 0.988700 1 1 1.000000
  1 -0.269322 -0.733475 6.850680 -0.627190 -0.686585 0.367741 0.479200 0.943000 1 1 1.000000
  1 -0.114092 -0.531867 7.298910 -0.029851 -0.440073 0.897465 0.501100 0.999500 1 1 1.000000
rag
  1 -0.269322 -0.733475 6.850680 -0.627190 -0.686585 0.367741 0.479200 0.943000 1 1 1.000000
  1 -0.413522 -0.445202 7.204279 -0.884870 -0.052843 0.462830 0.464900 0.988700 1 1 1.000000
  1 -0.417001 -0.505785 6.679101 -0.986864 0.155142 -0.045047 0.466500 0.928800 1 1 1.000000
rag
  1 -0.269322 -0.733475 6.850680 -0.627190 -0.686585 0.367741 0.479200 0.943000 1 1 1.000000
  1 -0.417001 -0.505785 6.679101 -0.986864 0.155142 -0.045047 0.466500 0.928800 1 1 1.000000
  1 -0.369975 -0.871306 5.992628 -0.942364 -0.323319 0.086107 0.475000 0.850500 1 1 1.000000
rag
  1 -0.343378 -0.573497 5.992525 -0.837688 0.519577 -0.168282 0.476300 0.850500 1 1 1.000000
  1 -0.369975 -0.871306 5.992628 -0.942364 -0.323319 0.086107 0.475000 0.850500 1 1 1.000000
  1 -0.417001 -0.505785 6.679101 -0.986864 0.155142 -0.045047 0.466500 0.928800 1 1 1.000000
rag
  1 0.434040 0.531918 4.391841 0.950565 0.310505 0.003595 0.855700 0.718500 1 1 1.000000
  1 0.050344 1.100118 4.486246 -0.144551 0.988893 0.034565 0.945400 0.699700 1 1 1.000000
  1 -0.069858 1.109481 6.232343 0.009182 0.947846 0.318598 0.988800 0.878000 1 1 1.000000
rag
  1 -0.069858 1.109481 6.232343 0.009182 0.947846 0.318598 0.988800 0.878000 1 1 1.000000
  1 0.139221 0.880931 6.172122 0.614639 0.771265 0.165436 0.919100 0.871100 1 1 1.000000
  1 0.434040 0.531918 4.391841 0.950565 0.310505 0.003595 0.855700 0.718500 1 1 1.000000
rag
  1 -0.311861 -0.331820 6.760941 -0.840962 0.473509 -0.261864 0.481700 0.943800 1 1 1.000000
  1 -0.413522 -0.445202 7.204279 -0.884870 -0.052843 0.462830 0.464900 0.988700 1 1 1.000000
  1 -0.275090 0.041730 7.158712 -0.867955 0.187355 0.459948 0.470300 0.991000 1 1 1.000000
rag
  1 -0.311861 -0.331820 6.760941 -0.840962 0.473509 -0.261864 0.481700 0.943800 1 1 1.000000
  1 -0.417001 -0.505785 6.679101 -0.986864 0.155142 -0.045047 0.466500 0.928800 1 1 1.000000
  1 -0.413522 -0.445202 7.204279 -0.884870 -0.052843 0.462830 0.464900 0.988700 1 1 1.000000
rag
  1 -0.417001 -0.505785 6.679101 -0.986864 0.155142 -0.045047 0.466500 0.928800 1 1 1.000000
  1 -0.311861 -0.331820 6.760941 -0.840962 0.473509 -0.261864 0.481700 0.943800 1 1 1.000000
  1 -0.324538 -0.397082 6.595964 -0.598435 0.775402 -0.201561 0.474200 0.919400 1 1 1.000000
rag
  1 -0.417001 -0.505785 6.679101 -0.986864 0.155142 -0.045047 0.466500 0.928800 1 1 1.000000
  1 -0.324538 -0.397082 6.595964 -0.598435 0.775402 -0.201561 0.474200 0.919400 1 1 1.000000
  1 -0.343378 -0.573497 5.992525 -0.837688 0.519577 -0.168282 0.476300 0.850500 1 1 1.000000
rag
  1 -0.098838 -0.401412 5.992465 -0.205331 0.966383 -0.154734 0.490700 0.850500 1 1 1.000000
  1 -0.343378 -0.573497 5.992525 -0.837688 0.519577 -0.168282 0.476300 0.850500 1 1 1.000000
  1 -0.324538 -0.397082 6.595964 -0.598435 0.775402 -0.201561 0.474200 0.919400 1 1 1.000000
rag
  1 -0.324538 -0.397082 6.595964 -0.598435 0.775402 -0.201561 0.474200 0.919400 1 1 1.000000
  1 -0.144259 -0.336234 6.555042 -0.322593 0.843905 -0.428670 0.497200 0.914700 1 1 1.000000
  1 -0.098838 -0.401412 5.992465 -0.205331 0.966383 -0.154734 0.490700 0.850500 1 1 1.000000
rag
  1 -0.324538 -0.397082 6.595964 -0.598435 0.775402 -0.201561 0.474200 0.919400 1 1 1.000000
  1 -0.311861 -0.331820 6.760941 -0.840962 0.473509 -0.261864 0.465500 0.932500 1 1 1.000000
  1 -0.144259 -0.336234 6.555042 -0.322593 0.843905 -0.428670 0.497200 0.914700 1 1 1.000000
rag
  1 -0.262123 -0.152408 6.745779 -0.850602 -0.034173 -0.524699 0.482700 0.931100 1 1 1.000000
  1 -0.144259 -0.336234 6.555042 -0.322593 0.843905 -0.428670 0.497200 0.914700 1 1 1.000000
  1 -0.311861 -0.331820 6.760941 -0.840962 0.473509 -0.261864 0.465500 0.932500 1 1 1.000000
rag
  1 -0.144259 -0.336234 6.555042 -0.322593 0.843905 -0.428670 0.497200 0.914700 1 1 1.000000
  1 -0.262123 -0.152408 6.745779 -0.850602 -0.034173 -0.524699 0.482700 0.931100 1 1 1.000000
  1 0.076243 -0.342356 6.560145 0.068606 0.827071 -0.557894 0.527400 0.915300 1 1 1.000000
rag
  1 -0.039511 -0.185374 6.623291 -0.191660 -0.086286 -0.977661 0.514200 0.922500 1 1 1.000000
  1 0.076243 -0.342356 6.560145 0.068606 0.827071 -0.557894 0.527400 0.915300 1 1 1.000000
  1 -0.262123 -0.152408 6.745779 -0.850602 -0.034173 -0.524699 0.482700 0.931100 1 1 1.000000
rag
  1 0.076243 -0.342356 6.560145 0.068606 0.827071 -0.557894 0.527400 0.915300 1 1 1.000000
  1 -0.039511 -0.185374 6.623291 -0.191660 -0.086286 -0.977661 0.514200 0.922500 1 1 1.000000
  1 0.279888 -0.472499 6.522790 0.589844 0.655996 -0.470907 0.547000 0.911000 1 1 1.000000
rag
  1 0.246299 -0.215859 6.671001 0.628359 0.038939 -0.776948 0.551400 0.923700 1 1 1.000000
  1 0.279888 -0.472499 6.522790 0.589844 0.655996 -0.470907 0.547000 0.911000 1 1 1.000000
  1 -0.039511 -0.185374 6.623291 -0.191660 -0.086286 -0.977661 0.514200 0.922500 1 1 1.000000
rag
  1 0.279888 -0.472499 6.522790 0.589844 0.655996 -0.470907 0.547000 0.911000 1 1 1.000000
  1 0.246299 -0.215859 6.671001 0.628359 0.038939 -0.776948 0.551400 0.923700 1 1 1.000000
  1 0.409029 -0.590625 6.607930 0.901215 0.407293 -0.148066 0.554900 0.920700 1 1 1.000000
rag
  1 0.279888 -0.472499 6.522790 0.589844 0.655996 -0.470907 0.547000 0.911000 1 1 1.000000
  1 0.409029 -0.590625 6.607930 0.901215 0.407293 -0.148066 0.554900 0.920700 1 1 1.000000
  1 0.371156 -0.672450 5.992559 0.939380 0.328211 -0.099216 0.549400 0.850500 1 1 1.000000
rag
  1 0.371156 -0.672450 5.992559 0.939380 0.328211 -0.099216 0.549400 0.850500 1 1 1.000000
  1 0.199072 -0.427910 5.992475 0.512416 0.855273 -0.077061 0.539700 0.850500 1 1 1.000000
  1 0.279888 -0.472499 6.522790 0.589844 0.655996 -0.470907 0.547000 0.911000 1 1 1.000000
rag
  1 0.076243 -0.342356 6.560145 0.068606 0.827071 -0.557894 0.527400 0.915300 1 1 1.000000
  1 0.279888 -0.472499 6.522790 0.589844 0.655996 -0.470907 0.547000 0.911000 1 1 1.000000
  1 0.199072 -0.427910 5.992475 0.512416 0.855273 -0.077061 0.539700 0.850500 1 1 1.000000
rag
  1 0.199072 -0.427910 5.992475 0.512416 0.855273 -0.077061 0.539700 0.850500 1 1 1.000000
  1 -0.098838 -0.401412 5.992465 -0.205331 0.966383 -0.154734 0.516500 0.850500 1 1 1.000000
  1 0.076243 -0.342356 6.560145 0.068606 0.827071 -0.557894 0.527400 0.915300 1 1 1.000000
rag
  1 -0.144259 -0.336234 6.555042 -0.322593 0.843905 -0.428670 0.497200 0.914700 1 1 1.000000
  1 0.076243 -0.342356 6.560145 0.068606 0.827071 -0.557894 0.527400 0.915300 1 1 1.000000
  1 -0.098838 -0.401412 5.992465 -0.205331 0.966383 -0.154734 0.516500 0.850500 1 1 1.000000
rag
  1 -0.275090 0.041730 7.158712 -0.867955 0.187355 0.459948 0.458000 0.976100 1 1 1.000000
  1 -0.262123 -0.152408 6.745779 -0.850602 -0.034173 -0.524699 0.460200 0.946500 1 1 1.000000
  1 -0.311861 -0.331820 6.760941 -0.840962 0.473509 -0.261864 0.465500 0.932500 1 1 1.000000
rag
  1 -0.348261 0.247549 6.999341 -0.961959 -0.026648 0.271890 0.413100 0.965400 1 1 1.000000
  1 -0.275090 0.041730 7.158712 -0.867955 0.187355 0.459948 0.458000 0.976100 1 1 1.000000
  1 -0.262798 0.355724 7.128503 -0.491183 0.527581 0.693107 0.412200 0.980100 1 1 1.000000
rag
  1 -0.275090 0.041730 7.158712 -0.867955 0.187355 0.459948 0.458000 0.976100 1 1 1.000000
  1 -0.348261 0.247549 6.999341 -0.961959 -0.026648 0.271890 0.413100 0.965400 1 1 1.000000
  1 -0.262123 -0.152408 6.745779 -0.850602 -0.034173 -0.524699 0.460200 0.946500 1 1 1.000000
rag
  1 -0.359123 0.137254 6.733678 -0.918001 -0.380380 -0.112183 0.431900 0.935100 1 1 1.000000
  1 -0.262123 -0.152408 6.745779 -0.850602 -0.034173 -0.524699 0.460200 0.946500 1 1 1.000000
  1 -0.348261 0.247549 6.999341 -0.961959 -0.026648 0.271890 0.413100 0.965400 1 1 1.000000
rag
  1 -0.246495 0.058245 6.596305 -0.587092 -0.599110 -0.544417 0.469000 0.919400 1 1 1.000000
  1 -0.262123 -0.152408 6.745779 -0.850602 -0.034173 -0.524699 0.482700 0.931700 1 1 1.000000
  1 -0.359123 0.137254 6.733678 -0.918001 -0.380380 -0.112183 0.431900 0.935100 1 1 1.000000
rag
  1 -0.262123 -0.152408 6.745779 -0.850602 -0.034173 -0.524699 0.482700 0.931700 1 1 1.000000
  1 -0.246495 0.058245 6.596305 -0.587092 -0.599110 -0.544417 0.469000 0.919400 1 1 1.000000
  1 -0.039511 -0.185374 6.623291 -0.191660 -0.086286 -0.977661 0.514200 0.922500 1 1 1.000000
rag
  1 -0.066586 0.030278 6.510816 -0.054358 -0.663172 -0.746491 0.513900 0.909700 1 1 1.000000
  1 -0.039511 -0.185374 6.623291 -0.191660 -0.086286 -0.977661 0.514200 0.922500 1 1 1.000000
  1 -0.246495 0.058245 6.596305 -0.587092 -0.599110 -0.544417 0.469000 0.919400 1 1 1.000000
rag
  1 -0.039511 -0.185374 6.623291 -0.191660 -0.086286 -0.977661 0.514200 0.922500 1 1 1.000000
  1 -0.066586 0.030278 6.510816 -0.054358 -0.663172 -0.746491 0.513900 0.909700 1 1 1.000000
  1 0.246299 -0.215859 6.671001 0.628359 0.038939 -0.776948 0.550700 0.927500 1 1 1.000000
rag
  1 0.149205 0.058374 6.575006 0.343993 -0.573326 -0.743616 0.566100 0.917000 1 1 1.000000
  1 0.246299 -0.215859 6.671001 0.628359 0.038939 -0.776948 0.550700 0.927500 1 1 1.000000
  1 -0.066586 0.030278 6.510816 -0.054358 -0.663172 -0.746491 0.513900 0.909700 1 1 1.000000
rag
  1 0.246299 -0.215859 6.671001 0.628359 0.038939 -0.776948 0.550700 0.927500 1 1 1.000000
  1 0.149205 0.058374 6.575006 0.343993 -0.573326 -0.743616 0.566100 0.917000 1 1 1.000000
  1 0.317156 -0.089432 6.677856 0.665466 -0.217911 -0.713911 0.578800 0.928700 1 1 1.000000
rag
  1 -0.184489 0.908433 6.208212 -0.437869 0.837928 0.325802 0.018600 0.875200 1 1 1.000000
  1 -0.069858 1.109481 6.232343 0.009182 0.947846 0.318598 -0.011200 0.878000 1 1 1.000000
  1 0.050344 1.100118 4.486246 -0.144551 0.988893 0.034565 -0.054600 0.699700 1 1 1.000000
rag
  1 -0.069858 1.109481 6.232343 0.009182 0.947846 0.318598 -0.011200 0.878000 1 1 1.000000
  1 -0.184489 0.908433 6.208212 -0.437869 0.837928 0.325802 0.018600 0.875200 1 1 1.000000
  1 -0.072490 0.331799 7.158212 -0.491176 0.535087 0.687334 -0.468300 0.983500 1 1 1.000000
rag
  1 -0.262798 0.355724 7.128503 -0.491183 0.527581 0.693107 0.412200 0.980100 1 1 1.000000
  1 -0.072490 0.331799 7.158212 -0.491176 0.535087 0.687334 -0.468300 0.983500 1 1 1.000000
  1 -0.184489 0.908433 6.208212 -0.437869 0.837928 0.325802 0.018600 0.875200 1 1 1.000000
rag
  1 -0.184489 0.908433 6.208212 -0.437869 0.837928 0.325802 0.018600 0.875200 1 1 1.000000
  1 -0.483984 0.892407 6.142118 -0.635689 0.729672 0.251949 0.100900 0.867700 1 1 1.000000
  1 -0.262798 0.355724 7.128503 -0.491183 0.527581 0.693107 0.412200 0.980100 1 1 1.000000
rag
  1 -0.348261 0.247549 6.999341 -0.961959 -0.026648 0.271890 0.413100 0.965400 1 1 1.000000
  1 -0.262798 0.355724 7.128503 -0.491183 0.527581 0.693107 0.412200 0.980100 1 1 1.000000
  1 -0.483984 0.892407 6.142118 -0.635689 0.729672 0.251949 0.100900 0.867700 1 1 1.000000
rag
  1 -0.483984 0.892407 6.142118 -0.635689 0.729672 0.251949 0.100900 0.867700 1 1 1.000000
  1 -0.558830 0.735950 6.051872 -0.995853 -0.065036 0.063622 0.158500 0.857400 1 1 1.000000
  1 -0.348261 0.247549 6.999341 -0.961959 -0.026648 0.271890 0.413100 0.965400 1 1 1.000000
rag
  1 -0.359123 0.137254 6.733678 -0.918001 -0.380380 -0.112183 0.431900 0.935100 1 1 1.000000
  1 -0.348261 0.247549 6.999341 -0.961959 -0.026648 0.271890 0.413100 0.965400 1 1 1.000000
  1 -0.558830 0.735950 6.051872 -0.995853 -0.065036 0.063622 0.158500 0.857400 1 1 1.000000
rag
  1 -0.558830 0.735950 6.051872 -0.995853 -0.065036 0.063622 0.158500 0.857400 1 1 1.000000
  1 -0.483876 0.579645 5.961725 -0.755770 -0.624415 -0.197276 0.217900 0.847100 1 1 1.000000
  1 -0.359123 0.137254 6.733678 -0.918001 -0.380380 -0.112183 0.431900 0.935100 1 1 1.000000
rag
  1 -0.246495 0.058245 6.596305 -0.587092 -0.599110 -0.544417 0.469000 0.919400 1 1 1.000000
  1 -0.359123 0.137254 6.733678 -0.918001 -0.380380 -0.112183 0.431900 0.935100 1 1 1.000000
  1 -0.483876 0.579645 5.961725 -0.755770 -0.624415 -0.197276 0.217900 0.847100 1 1 1.000000
rag
  1 -0.483876 0.579645 5.961725 -0.755770 -0.624415 -0.197276 0.217900 0.847100 1 1 1.000000
  1 -0.279336 0.465292 5.895665 -0.357404 -0.861560 -0.360522 0.324900 0.839500 1 1 1.000000
  1 -0.246495 0.058245 6.596305 -0.587092 -0.599110 -0.544417 0.469000 0.919400 1 1 1.000000
rag
  1 -0.066586 0.030278 6.510816 -0.054358 -0.663172 -0.746491 0.513900 0.909700 1 1 1.000000
  1 -0.246495 0.058245 6.596305 -0.587092 -0.599110 -0.544417 0.469000 0.919400 1 1 1.000000
  1 -0.279336 0.465292 5.895665 -0.357404 -0.861560 -0.360522 0.324900 0.839500 1 1 1.000000
rag
  1 -0.279336 0.465292 5.895665 -0.357404 -0.861560 -0.360522 0.324900 0.839500 1 1 1.000000
  1 0.000179 0.423479 5.871480 -0.049268 -0.948812 -0.311975 0.618900 0.836800 1 1 1.000000
  1 -0.066586 0.030278 6.510816 -0.054358 -0.663172 -0.746491 0.513900 0.909700 1 1 1.000000
rag
  1 0.149205 0.058374 6.575006 0.343993 -0.573326 -0.743616 0.566100 0.917000 1 1 1.000000
  1 -0.066586 0.030278 6.510816 -0.054358 -0.663172 -0.746491 0.513900 0.909700 1 1 1.000000
  1 0.000179 0.423479 5.871480 -0.049268 -0.948812 -0.311975 0.618900 0.836800 1 1 1.000000
rag
  1 0.000179 0.423479 5.871480 -0.049268 -0.948812 -0.311975 0.618900 0.836800 1 1 1.000000
  1 0.280144 0.522682 5.890145 0.708528 -0.682615 -0.178953 0.719300 0.839500 1 1 1.000000
  1 0.149205 0.058374 6.575006 0.343993 -0.573326 -0.743616 0.566100 0.917000 1 1 1.000000
rag
  1 0.295177 0.137425 6.576579 0.791605 -0.333220 -0.512177 0.608700 0.917200 1 1 1.000000
  1 0.149205 0.058374 6.575006 0.343993 -0.573326 -0.743616 0.566100 0.917000 1 1 1.000000
  1 0.280144 0.522682 5.890145 0.708528 -0.682615 -0.178953 0.719300 0.839500 1 1 1.000000
rag
  1 0.295177 0.137425 6.576579 0.791605 -0.333220 -0.512177 0.608700 0.917200 1 1 1.000000
  1 0.317156 -0.089432 6.677856 0.665466 -0.217911 -0.713911 0.578800 0.928700 1 1 1.000000
  1 0.149205 0.058374 6.575006 0.343993 -0.573326 -0.743616 0.566100 0.917000 1 1 1.000000
rag
  1 0.317156 -0.089432 6.677856 0.665466 -0.217911 -0.713911 0.578800 0.928700 1 1 1.000000
  1 0.295177 0.137425 6.576579 0.791605 -0.333220 -0.512177 0.608700 0.917200 1 1 1.000000
  1 0.423632 -0.019113 6.915032 0.995947 -0.072141 0.053709 0.603100 0.955700 1 1 1.000000
rag
  1 0.317156 -0.089432 6.677856 0.665466 -0.217911 -0.713911 0.578800 0.928700 1 1 1.000000
  1 0.423632 -0.019113 6.915032 0.995947 -0.072141 0.053709 0.603100 0.955700 1 1 1.000000
  1 0.376357 -0.383050 6.857258 0.990951 -0.077792 -0.109383 0.562500 0.949100 1 1 1.000000
rag
  1 -0.279336 0.465292 5.895665 -0.357404 -0.861560 -0.360522 0.324900 0.839500 1 1 1.000000
  1 -0.483876 0.579645 5.961725 -0.755770 -0.624415 -0.197276 0.217900 0.847100 1 1 1.000000
  1 -0.468696 0.925557 3.962106 -0.931457 -0.351560 -0.093769 0.127200 0.608000 1 1 1.000000
rag
  1 -0.483876 0.579645 5.961725 -0.755770 -0.624415 -0.197276 0.217900 0.847100 1 1 1.000000
  1 -0.558830 0.735950 6.051872 -0.995853 -0.065036 0.063622 0.158500 0.857400 1 1 1.000000
  1 -0.468696 0.925557 3.962106 -0.931457 -0.351560 -0.093769 0.080500 0.628300 1 1 1.000000
rag
  1 0.280144 0.522682 5.890145 0.708528 -0.682615 -0.178953 0.719300 0.839500 1 1 1.000000
  1 0.000179 0.423479 5.871480 -0.049268 -0.948812 -0.311975 0.618900 0.836800 1 1 1.000000
  1 -0.073085 0.316231 3.781116 -0.056867 -0.997054 0.051471 0.428700 0.598500 1 1 1.000000
rag
  1 -0.468696 0.925557 3.962106 -0.931457 -0.351560 -0.093769 0.191900 0.596900 1 1 1.000000
  1 -0.073085 0.316231 3.781116 -0.056867 -0.997054 0.051471 0.428700 0.598500 1 1 1.000000
  1 0.000179 0.423479 5.871480 -0.049268 -0.948812 -0.311975 0.618900 0.836800 1 1 1.000000
rag
  1 0.000179 0.423479 5.871480 -0.049268 -0.948812 -0.311975 0.618900 0.836800 1 1 1.000000
  1 -0.279336 0.465292 5.895665 -0.357404 -0.861560 -0.360522 0.324900 0.839500 1 1 1.000000
  1 -0.468696 0.925557 3.962106 -0.931457 -0.351560 -0.093769 0.191900 0.596900 1 1 1.000000
rag
  1 -0.558830 0.735950 6.051872 -0.995853 -0.065036 0.063622 0.158500 0.857400 1 1 1.000000
  1 -0.483984 0.892407 6.142118 -0.635689 0.729672 0.251949 0.100900 0.867700 1 1 1.000000
  1 -0.468696 0.925557 3.962106 -0.931457 -0.351560 -0.093769 0.034700 0.643200 1 1 1.000000
rag
  1 0.050344 1.100118 4.486246 -0.144551 0.988893 0.034565 -0.005000 0.658100 1 1 1.000000
  1 -0.468696 0.925557 3.962106 -0.931457 -0.351560 -0.093769 0.034700 0.643200 1 1 1.000000
  1 -0.483984 0.892407 6.142118 -0.635689 0.729672 0.251949 0.100900 0.867700 1 1 1.000000
rag
  1 -0.483984 0.892407 6.142118 -0.635689 0.729672 0.251949 0.100900 0.867700 1 1 1.000000
  1 -0.184489 0.908433 6.208212 -0.437869 0.837928 0.325802 0.018600 0.875200 1 1 1.000000
  1 0.050344 1.100118 4.486246 -0.144551 0.988893 0.034565 -0.005000 0.658100 1 1 1.000000
rag
  1 0.423632 -0.019113 6.915032 0.995947 -0.072141 0.053709 0.603100 0.955700 1 1 1.000000
  1 0.338692 0.094622 7.103593 0.806525 -0.010124 0.591113 0.620000 0.973600 1 1 1.000000
  1 0.233581 -0.451533 7.049683 0.678883 -0.222539 0.699710 0.551900 0.970400 1 1 1.000000
rag
  1 0.423632 -0.019113 6.915032 0.995947 -0.072141 0.053709 0.603100 0.955700 1 1 1.000000
  1 0.397321 0.301771 6.895222 0.988332 0.116282 0.098376 0.653300 0.944700 1 1 1.000000
  1 0.338692 0.094622 7.103593 0.806525 -0.010124 0.591113 0.620000 0.973600 1 1 1.000000
rag
  1 0.397321 0.301771 6.895222 0.988332 0.116282 0.098376 0.653300 0.944700 1 1 1.000000
  1 0.423632 -0.019113 6.915032 0.995947 -0.072141 0.053709 0.603100 0.955700 1 1 1.000000
  1 0.295177 0.137425 6.576579 0.791605 -0.333220 -0.512177 0.608700 0.917200 1 1 1.000000
rag
  1 0.397321 0.301771 6.895222 0.988332 0.116282 0.098376 0.653300 0.944700 1 1 1.000000
  1 0.295177 0.137425 6.576579 0.791605 -0.333220 -0.512177 0.608700 0.917200 1 1 1.000000
  1 0.280144 0.522682 5.890145 0.708528 -0.682615 -0.178953 0.778500 0.838300 1 1 1.000000
rag
  1 0.280144 0.522682 5.890145 0.708528 -0.682615 -0.178953 0.778500 0.838300 1 1 1.000000
  1 0.348644 0.814447 6.007444 0.851787 0.506265 0.134738 0.831700 0.846300 1 1 1.000000
  1 0.397321 0.301771 6.895222 0.988332 0.116282 0.098376 0.653300 0.944700 1 1 1.000000
rag
  1 0.348644 0.814447 6.007444 0.851787 0.506265 0.134738 0.831700 0.846300 1 1 1.000000
  1 0.280144 0.522682 5.890145 0.708528 -0.682615 -0.178953 0.778500 0.838300 1 1 1.000000
  1 0.434040 0.531918 4.391841 0.950565 0.310505 0.003595 0.727600 0.622000 1 1 1.000000
rag
  1 -0.073085 0.316231 3.781116 -0.056867 -0.997054 0.051471 0.596400 0.598400 1 1 1.000000
  1 0.434040 0.531918 4.391841 0.950565 0.310505 0.003595 0.727600 0.622000 1 1 1.000000
  1 0.280144 0.522682 5.890145 0.708528 -0.682615 -0.178953 0.778500 0.838300 1 1 1.000000
rag
  1 0.233581 -0.451533 7.049683 0.678883 -0.222539 0.699710 0.551900 0.970400 1 1 1.000000
  1 0.376357 -0.383050 6.857258 0.990951 -0.077792 -0.109383 0.562500 0.949100 1 1 1.000000
  1 0.423632 -0.019113 6.915032 0.995947 -0.072141 0.053709 0.603100 0.955700 1 1 1.000000
rag
  1 0.233581 -0.451533 7.049683 0.678883 -0.222539 0.699710 0.551900 0.970400 1 1 1.000000
  1 0.439102 -0.802328 6.859204 0.945456 -0.228174 0.232486 0.543800 0.955000 1 1 1.000000
  1 0.376357 -0.383050 6.857258 0.990951 -0.077792 -0.109383 0.562500 0.949100 1 1 1.000000
rag
  1 0.439102 -0.802328 6.859204 0.945456 -0.228174 0.232486 0.543800 0.955000 1 1 1.000000
  1 0.233581 -0.451533 7.049683 0.678883 -0.222539 0.699710 0.551900 0.970400 1 1 1.000000
  1 0.228609 -0.821466 6.958710 0.287824 -0.665842 0.688340 0.530900 0.960700 1 1 1.000000
rag
  1 0.439102 -0.802328 6.859204 0.945456 -0.228174 0.232486 0.543800 0.955000 1 1 1.000000
  1 0.228609 -0.821466 6.958710 0.287824 -0.665842 0.688340 0.530900 0.960700 1 1 1.000000
  1 0.100018 -1.142444 5.992722 0.257238 -0.939227 0.227335 0.523400 0.850500 1 1 1.000000
rag
  1 0.100018 -1.142444 5.992722 0.257238 -0.939227 0.227335 0.523400 0.850500 1 1 1.000000
  1 0.344559 -0.970360 5.992662 0.866262 -0.499584 0.002472 0.536800 0.850500 1 1 1.000000
  1 0.439102 -0.802328 6.859204 0.945456 -0.228174 0.232486 0.543800 0.955000 1 1 1.000000
rag
  1 0.344559 -0.970360 5.992662 0.866262 -0.499584 0.002472 0.536800 0.850500 1 1 1.000000
  1 0.371156 -0.672450 5.992559 0.939380 0.328211 -0.099216 0.546800 0.850500 1 1 1.000000
  1 0.439102 -0.802328 6.859204 0.945456 -0.228174 0.232486 0.554800 0.943800 1 1 1.000000
rag
  1 0.409029 -0.590625 6.607930 0.901215 0.407293 -0.148066 0.554900 0.920700 1 1 1.000000
  1 0.439102 -0.802328 6.859204 0.945456 -0.228174 0.232486 0.554800 0.943800 1 1 1.000000
  1 0.371156 -0.672450 5.992559 0.939380 0.328211 -0.099216 0.546800 0.850500 1 1 1.000000
rag
  1 0.409029 -0.590625 6.607930 0.901215 0.407293 -0.148066 0.554900 0.920700 1 1 1.000000
  1 0.246299 -0.215859 6.671001 0.628359 0.038939 -0.776948 0.567700 0.932500 1 1 1.000000
  1 0.439102 -0.802328 6.859204 0.945456 -0.228174 0.232486 0.554800 0.943800 1 1 1.000000
rag
  1 0.376357 -0.383050 6.857258 0.990951 -0.077792 -0.109383 0.562500 0.949100 1 1 1.000000
  1 0.439102 -0.802328 6.859204 0.945456 -0.228174 0.232486 0.554800 0.943800 1 1 1.000000
  1 0.246299 -0.215859 6.671001 0.628359 0.038939 -0.776948 0.567700 0.932500 1 1 1.000000
rag
  1 0.376357 -0.383050 6.857258 0.990951 -0.077792 -0.109383 0.562500 0.949100 1 1 1.000000
  1 0.246299 -0.215859 6.671001 0.628359 0.038939 -0.776948 0.567700 0.932500 1 1 1.000000
  1 0.317156 -0.089432 6.677856 0.665466 -0.217911 -0.713911 0.578800 0.928700 1 1 1.000000
rag
  1 0.050344 1.100118 4.486246 0.573944 0.495855 -0.651703 0.516800 0.611500 1 1 1.000000
  1 0.434040 0.531918 4.391841 0.573944 0.495855 -0.651703 0.611500 0.449800 1 1 1.000000
  1 -0.073085 0.316231 3.781116 0.573944 0.495855 -0.651703 0.486200 0.388500 1 1 1.000000
end
