// Created by Crowbar 0.74
version 1
nodes
  0 "ValveBiped.Bip01_R_Hand" -1
  1 "base" 0
end
skeleton
  time 0
    0 1.094099 3.500179 -1.510751 2.929039 0.080344 -2.420946
    1 3.000398 -1.494358 -2.120183 -1.783350 0.080344 -2.420946
end
triangles
W_Garb_BeerBottle(256x128)
  1 -0.412055 1.273528 -3.430124 -0.000598 0.005857 -0.999983 0.000000 0.060817 1 1 1.000000
  1 -1.085995 0.705208 -3.433051 -0.000607 0.005875 -0.999983 0.111111 0.060817 1 1 1.000000
  1 -0.799132 1.048782 -3.431209 -0.000599 0.005863 -0.999983 0.055556 0.060817 1 1 1.000000
W_Garb_BeerBottle(256x128)
  1 0.028548 1.352330 -3.429924 -0.000604 0.005869 -0.999983 -0.055556 0.060817 1 1 1.000000
  1 -1.085995 0.705208 -3.433051 -0.000607 0.005875 -0.999983 0.111111 0.060817 1 1 1.000000
  1 -0.412055 1.273528 -3.430124 -0.000598 0.005857 -0.999983 0.000000 0.060817 1 1 1.000000
W_Garb_BeerBottle(256x128)
  1 0.469530 1.275682 -3.430642 -0.000611 0.005889 -0.999982 -0.111111 0.060817 1 1 1.000000
  1 -1.085995 0.705208 -3.433051 -0.000607 0.005875 -0.999983 0.111111 0.060817 1 1 1.000000
  1 0.028548 1.352330 -3.429924 -0.000604 0.005869 -0.999983 -0.055556 0.060817 1 1 1.000000
W_Garb_BeerBottle(256x128)
  1 0.857706 1.052841 -3.432194 -0.000611 0.005878 -0.999982 -0.166667 0.060817 1 1 1.000000
  1 -1.085995 0.705208 -3.433051 -0.000607 0.005875 -0.999983 0.111111 0.060817 1 1 1.000000
  1 0.469530 1.275682 -3.430642 -0.000611 0.005889 -0.999982 -0.111111 0.060817 1 1 1.000000
W_Garb_BeerBottle(256x128)
  1 1.146249 0.710676 -3.434379 -0.000610 0.005867 -0.999983 -0.222222 0.060817 1 1 1.000000
  1 -1.085995 0.705208 -3.433051 -0.000607 0.005875 -0.999983 0.111111 0.060817 1 1 1.000000
  1 0.857706 1.052841 -3.432194 -0.000611 0.005878 -0.999982 -0.166667 0.060817 1 1 1.000000
W_Garb_BeerBottle(256x128)
  1 1.300364 0.290458 -3.436937 -0.000608 0.005877 -0.999982 -0.277778 0.060817 1 1 1.000000
  1 -1.085995 0.705208 -3.433051 -0.000607 0.005875 -0.999983 0.111111 0.060817 1 1 1.000000
  1 1.146249 0.710676 -3.434379 -0.000610 0.005867 -0.999983 -0.222222 0.060817 1 1 1.000000
W_Garb_BeerBottle(256x128)
  1 1.301456 -0.157126 -3.439571 -0.000607 0.005882 -0.999982 -0.333333 0.060817 1 1 1.000000
  1 -1.085995 0.705208 -3.433051 -0.000607 0.005875 -0.999983 0.111111 0.060817 1 1 1.000000
  1 1.300364 0.290458 -3.436937 -0.000608 0.005877 -0.999982 -0.277778 0.060817 1 1 1.000000
W_Garb_BeerBottle(256x128)
  1 1.149402 -0.578093 -3.441953 -0.000611 0.005876 -0.999982 0.611111 0.060817 1 1 1.000000
  1 -1.085995 0.705208 -3.433051 -0.000607 0.005875 -0.999983 0.111111 0.060817 1 1 1.000000
  1 1.301456 -0.157126 -3.439571 -0.000607 0.005882 -0.999982 -0.333333 0.060817 1 1 1.000000
W_Garb_BeerBottle(256x128)
  1 0.862535 -0.921672 -3.443795 -0.000612 0.005873 -0.999983 0.555556 0.060817 1 1 1.000000
  1 -1.085995 0.705208 -3.433051 -0.000607 0.005875 -0.999983 0.111111 0.060817 1 1 1.000000
  1 1.149402 -0.578093 -3.441953 -0.000611 0.005876 -0.999982 0.611111 0.060817 1 1 1.000000
W_Garb_BeerBottle(256x128)
  1 0.475457 -1.146413 -3.444880 -0.000606 0.005877 -0.999982 0.500000 0.060817 1 1 1.000000
  1 -1.085995 0.705208 -3.433051 -0.000607 0.005875 -0.999983 0.111111 0.060817 1 1 1.000000
  1 0.862535 -0.921672 -3.443795 -0.000612 0.005873 -0.999983 0.555556 0.060817 1 1 1.000000
W_Garb_BeerBottle(256x128)
  1 0.475457 -1.146413 -3.444880 -0.000606 0.005877 -0.999982 0.500000 0.060817 1 1 1.000000
  1 0.034854 -1.225216 -3.445078 -0.000602 0.005881 -0.999982 0.444444 0.060817 1 1 1.000000
  1 -1.085995 0.705208 -3.433051 -0.000607 0.005875 -0.999983 0.111111 0.060817 1 1 1.000000
W_Garb_BeerBottle(256x128)
  1 0.034854 -1.225216 -3.445078 -0.000602 0.005881 -0.999982 0.444444 0.060817 1 1 1.000000
  1 -0.406128 -1.148568 -3.444362 -0.000609 0.005879 -0.999982 0.388889 0.060817 1 1 1.000000
  1 -1.085995 0.705208 -3.433051 -0.000607 0.005875 -0.999983 0.111111 0.060817 1 1 1.000000
W_Garb_BeerBottle(256x128)
  1 -0.406128 -1.148568 -3.444362 -0.000609 0.005879 -0.999982 0.388889 0.060817 1 1 1.000000
  1 -0.794303 -0.925728 -3.442810 -0.000622 0.005874 -0.999983 0.333333 0.060817 1 1 1.000000
  1 -1.085995 0.705208 -3.433051 -0.000607 0.005875 -0.999983 0.111111 0.060817 1 1 1.000000
W_Garb_BeerBottle(256x128)
  1 -0.794303 -0.925728 -3.442810 -0.000622 0.005874 -0.999983 0.333333 0.060817 1 1 1.000000
  1 -1.082852 -0.583561 -3.440627 -0.000596 0.005877 -0.999983 0.277778 0.060817 1 1 1.000000
  1 -1.085995 0.705208 -3.433051 -0.000607 0.005875 -0.999983 0.111111 0.060817 1 1 1.000000
W_Garb_BeerBottle(256x128)
  1 -1.082852 -0.583561 -3.440627 -0.000596 0.005877 -0.999983 0.277778 0.060817 1 1 1.000000
  1 -1.236957 -0.163344 -3.438068 -0.000571 0.005878 -0.999983 0.222222 0.060817 1 1 1.000000
  1 -1.085995 0.705208 -3.433051 -0.000607 0.005875 -0.999983 0.111111 0.060817 1 1 1.000000
W_Garb_BeerBottle(256x128)
  1 -1.236957 -0.163344 -3.438068 -0.000571 0.005878 -0.999983 0.222222 0.060817 1 1 1.000000
  1 -1.238058 0.284240 -3.435432 -0.000634 0.005888 -0.999982 0.166667 0.060817 1 1 1.000000
  1 -1.085995 0.705208 -3.433051 -0.000607 0.005875 -0.999983 0.111111 0.060817 1 1 1.000000
W_Garb_BeerBottle(256x128)
  1 0.450224 -0.470725 3.926280 0.640649 -0.760160 0.108283 0.555556 0.824370 1 1 1.000000
  1 0.112819 -0.413096 5.867438 0.179624 -0.928146 -0.326005 0.472222 1.025500 1 1 1.000000
  1 0.257320 -0.582727 3.925740 0.374859 -0.920980 0.106188 0.500000 0.824370 1 1 1.000000
W_Garb_BeerBottle(256x128)
  1 0.450224 -0.470725 3.926280 0.640649 -0.760160 0.108283 0.555556 0.824370 1 1 1.000000
  1 0.366400 -0.265864 5.868149 0.735395 -0.594969 -0.324356 0.583333 1.025500 1 1 1.000000
  1 0.112819 -0.413096 5.867438 0.179624 -0.928146 -0.326005 0.472222 1.025500 1 1 1.000000
W_Garb_BeerBottle(256x128)
  1 0.593186 -0.299502 3.927202 0.878758 -0.464757 0.108563 0.611111 0.824370 1 1 1.000000
  1 0.366400 -0.265864 5.868149 0.735395 -0.594969 -0.324356 0.583333 1.025500 1 1 1.000000
  1 0.450224 -0.470725 3.926280 0.640649 -0.760160 0.108283 0.555556 0.824370 1 1 1.000000
W_Garb_BeerBottle(256x128)
  1 0.668965 -0.089709 3.928388 0.978981 -0.170763 0.111519 0.666667 0.824370 1 1 1.000000
  1 0.366400 -0.265864 5.868149 0.735395 -0.594969 -0.324356 0.583333 1.025500 1 1 1.000000
  1 0.593186 -0.299502 3.927202 0.878758 -0.464757 0.108563 0.611111 0.824370 1 1 1.000000
W_Garb_BeerBottle(256x128)
  1 0.668965 -0.089709 3.928388 0.978981 -0.170763 0.111519 0.666667 0.824370 1 1 1.000000
  1 0.466016 0.009918 5.869705 0.946950 0.017478 -0.320903 0.694444 1.025500 1 1 1.000000
  1 0.366400 -0.265864 5.868149 0.735395 -0.594969 -0.324356 0.583333 1.025500 1 1 1.000000
W_Garb_BeerBottle(256x128)
  1 0.366400 -0.265864 5.868149 0.735395 -0.594969 -0.324356 0.583333 1.025500 1 1 1.000000
  1 0.396619 -0.417949 6.019464 0.616285 -0.783701 0.077491 0.555556 1.041280 1 1 1.000000
  1 0.229281 -0.515108 6.018998 0.336977 -0.937807 -0.083452 0.500000 1.041280 1 1 1.000000
W_Garb_BeerBottle(256x128)
  1 0.366400 -0.265864 5.868149 0.735395 -0.594969 -0.324356 0.583333 1.025500 1 1 1.000000
  1 0.520635 -0.269419 6.020260 0.861240 -0.501667 -0.081212 0.611111 1.041280 1 1 1.000000
  1 0.396619 -0.417949 6.019464 0.616285 -0.783701 0.077491 0.555556 1.041280 1 1 1.000000
W_Garb_BeerBottle(256x128)
  1 0.466016 0.009918 5.869705 0.946950 0.017478 -0.320903 0.694444 1.025500 1 1 1.000000
  1 0.520635 -0.269419 6.020260 0.861240 -0.501667 -0.081212 0.611111 1.041280 1 1 1.000000
  1 0.366400 -0.265864 5.868149 0.735395 -0.594969 -0.324356 0.583333 1.025500 1 1 1.000000
W_Garb_BeerBottle(256x128)
  1 0.466016 0.009918 5.869705 0.946950 0.017478 -0.320903 0.694444 1.025500 1 1 1.000000
  1 0.586371 -0.087430 6.021297 0.975568 -0.204358 0.080651 0.666667 1.041280 1 1 1.000000
  1 0.520635 -0.269419 6.020260 0.861240 -0.501667 -0.081212 0.611111 1.041280 1 1 1.000000
W_Garb_BeerBottle(256x128)
  1 0.466016 0.009918 5.869705 0.946950 0.017478 -0.320903 0.694444 1.025500 1 1 1.000000
  1 0.585897 0.106065 6.022436 0.982502 0.169437 -0.077337 0.722222 1.041280 1 1 1.000000
  1 0.586371 -0.087430 6.021297 0.975568 -0.204358 0.080651 0.666667 1.041280 1 1 1.000000
W_Garb_BeerBottle(256x128)
  1 0.365052 0.285209 5.871386 0.715339 0.622630 -0.317210 0.805555 1.025500 1 1 1.000000
  1 0.585897 0.106065 6.022436 0.982502 0.169437 -0.077337 0.722222 1.041280 1 1 1.000000
  1 0.466016 0.009918 5.869705 0.946950 0.017478 -0.320903 0.694444 1.025500 1 1 1.000000
W_Garb_BeerBottle(256x128)
  1 0.365052 0.285209 5.871386 0.715339 0.622630 -0.317210 0.805555 1.025500 1 1 1.000000
  1 0.519272 0.287730 6.023543 0.878391 0.470384 0.084666 0.777778 1.041280 1 1 1.000000
  1 0.585897 0.106065 6.022436 0.982502 0.169437 -0.077337 0.722222 1.041280 1 1 1.000000
W_Garb_BeerBottle(256x128)
  1 0.034600 0.662538 3.933198 -0.037345 0.992349 0.117679 0.944444 0.824370 1 1 1.000000
  1 0.110753 0.431197 5.872398 0.175226 0.933895 -0.311666 0.916667 1.025500 1 1 1.000000
  1 0.254368 0.624342 3.932842 0.337577 0.933822 0.118399 0.888889 0.824370 1 1 1.000000
W_Garb_BeerBottle(256x128)
  1 0.254368 0.624342 3.932842 0.337577 0.933822 0.118399 0.888889 0.824370 1 1 1.000000
  1 0.110753 0.431197 5.872398 0.175226 0.933895 -0.311666 0.916667 1.025500 1 1 1.000000
  1 0.365052 0.285209 5.871386 0.715339 0.622630 -0.317210 0.805555 1.025500 1 1 1.000000
W_Garb_BeerBottle(256x128)
  1 0.110753 0.431197 5.872398 0.175226 0.933895 -0.311666 0.916667 1.025500 1 1 1.000000
  1 0.394531 0.435651 6.024488 0.644011 0.761463 -0.073651 0.833333 1.041280 1 1 1.000000
  1 0.365052 0.285209 5.871386 0.715339 0.622630 -0.317210 0.805555 1.025500 1 1 1.000000
W_Garb_BeerBottle(256x128)
  1 0.365052 0.285209 5.871386 0.715339 0.622630 -0.317210 0.805555 1.025500 1 1 1.000000
  1 0.394531 0.435651 6.024488 0.644011 0.761463 -0.073651 0.833333 1.041280 1 1 1.000000
  1 0.519272 0.287730 6.023543 0.878391 0.470384 0.084666 0.777778 1.041280 1 1 1.000000
W_Garb_BeerBottle(256x128)
  1 0.394531 0.435651 6.024488 0.644011 0.761463 -0.073651 0.833333 1.041280 1 1 1.000000
  1 0.416933 0.227197 6.202126 0.695926 0.457205 0.553760 0.777778 1.059820 1 1 1.000000
  1 0.519272 0.287730 6.023543 0.878391 0.470384 0.084666 0.777778 1.041280 1 1 1.000000
W_Garb_BeerBottle(256x128)
  1 0.519272 0.287730 6.023543 0.878391 0.470384 0.084666 0.777778 1.041280 1 1 1.000000
  1 0.416933 0.227197 6.202126 0.695926 0.457205 0.553760 0.777778 1.059820 1 1 1.000000
  1 0.469392 0.084157 6.201257 0.811464 0.191536 0.552123 0.722222 1.059820 1 1 1.000000
W_Garb_BeerBottle(256x128)
  1 0.519272 0.287730 6.023543 0.878391 0.470384 0.084666 0.777778 1.041280 1 1 1.000000
  1 0.469392 0.084157 6.201257 0.811464 0.191536 0.552123 0.722222 1.059820 1 1 1.000000
  1 0.585897 0.106065 6.022436 0.982502 0.169437 -0.077337 0.722222 1.041280 1 1 1.000000
W_Garb_BeerBottle(256x128)
  1 0.585897 0.106065 6.022436 0.982502 0.169437 -0.077337 0.722222 1.041280 1 1 1.000000
  1 0.469392 0.084157 6.201257 0.811464 0.191536 0.552123 0.722222 1.059820 1 1 1.000000
  1 0.469766 -0.068196 6.200360 0.829162 -0.097632 0.550416 0.666667 1.059820 1 1 1.000000
W_Garb_BeerBottle(256x128)
  1 0.585897 0.106065 6.022436 0.982502 0.169437 -0.077337 0.722222 1.041280 1 1 1.000000
  1 0.469766 -0.068196 6.200360 0.829162 -0.097632 0.550416 0.666667 1.059820 1 1 1.000000
  1 0.586371 -0.087430 6.021297 0.975568 -0.204358 0.080651 0.666667 1.041280 1 1 1.000000
W_Garb_BeerBottle(256x128)
  1 0.586371 -0.087430 6.021297 0.975568 -0.204358 0.080651 0.666667 1.041280 1 1 1.000000
  1 0.469766 -0.068196 6.200360 0.829162 -0.097632 0.550416 0.666667 1.059820 1 1 1.000000
  1 0.418005 -0.211491 6.199548 0.746917 -0.375364 0.548831 0.611111 1.059820 1 1 1.000000
W_Garb_BeerBottle(256x128)
  1 0.586371 -0.087430 6.021297 0.975568 -0.204358 0.080651 0.666667 1.041280 1 1 1.000000
  1 0.418005 -0.211491 6.199548 0.746917 -0.375364 0.548831 0.611111 1.059820 1 1 1.000000
  1 0.520635 -0.269419 6.020260 0.861240 -0.501667 -0.081212 0.611111 1.041280 1 1 1.000000
W_Garb_BeerBottle(256x128)
  1 0.520635 -0.269419 6.020260 0.861240 -0.501667 -0.081212 0.611111 1.041280 1 1 1.000000
  1 0.418005 -0.211491 6.199548 0.746917 -0.375364 0.548831 0.611111 1.059820 1 1 1.000000
  1 0.320359 -0.328440 6.198924 0.574582 -0.608294 0.547570 0.555556 1.059820 1 1 1.000000
W_Garb_BeerBottle(256x128)
  1 0.520635 -0.269419 6.020260 0.861240 -0.501667 -0.081212 0.611111 1.041280 1 1 1.000000
  1 0.320359 -0.328440 6.198924 0.574582 -0.608294 0.547570 0.555556 1.059820 1 1 1.000000
  1 0.396619 -0.417949 6.019464 0.616285 -0.783701 0.077491 0.555556 1.041280 1 1 1.000000
W_Garb_BeerBottle(256x128)
  1 0.396619 -0.417949 6.019464 0.616285 -0.783701 0.077491 0.555556 1.041280 1 1 1.000000
  1 0.320359 -0.328440 6.198924 0.574582 -0.608294 0.547570 0.555556 1.059820 1 1 1.000000
  1 0.188601 -0.404941 6.198555 0.333002 -0.768211 0.546773 0.500000 1.059820 1 1 1.000000
W_Garb_BeerBottle(256x128)
  1 0.396619 -0.417949 6.019464 0.616285 -0.783701 0.077491 0.555556 1.041280 1 1 1.000000
  1 0.188601 -0.404941 6.198555 0.333002 -0.768211 0.546773 0.500000 1.059820 1 1 1.000000
  1 0.229281 -0.515108 6.018998 0.336977 -0.937807 -0.083452 0.500000 1.041280 1 1 1.000000
W_Garb_BeerBottle(256x128)
  1 0.229281 -0.515108 6.018998 0.336977 -0.937807 -0.083452 0.500000 1.041280 1 1 1.000000
  1 0.188601 -0.404941 6.198555 0.333002 -0.768211 0.546773 0.500000 1.059820 1 1 1.000000
  1 0.038624 -0.431765 6.198485 0.051299 -0.835856 0.546547 0.444444 1.059820 1 1 1.000000
W_Garb_BeerBottle(256x128)
  1 0.229281 -0.515108 6.018998 0.336977 -0.937807 -0.083452 0.500000 1.041280 1 1 1.000000
  1 0.038624 -0.431765 6.198485 0.051299 -0.835856 0.546547 0.444444 1.059820 1 1 1.000000
  1 0.038804 -0.549175 6.018915 -0.031340 -0.996565 0.076656 0.444444 1.041280 1 1 1.000000
W_Garb_BeerBottle(256x128)
  1 0.038804 -0.549175 6.018915 -0.031340 -0.996565 0.076656 0.444444 1.041280 1 1 1.000000
  1 0.038624 -0.431765 6.198485 0.051299 -0.835856 0.546547 0.444444 1.059820 1 1 1.000000
  1 -0.111483 -0.405676 6.198731 -0.236548 -0.803076 0.546913 0.388889 1.059820 1 1 1.000000
W_Garb_BeerBottle(256x128)
  1 -0.225644 0.738530 2.896008 -0.325645 0.896102 0.301591 1.000000 0.797233 1 1 1.000000
  1 -0.184978 0.623266 3.933101 -0.324219 0.938764 0.116639 1.000000 0.824370 1 1 1.000000
  1 0.034600 0.662538 3.933198 -0.037345 0.992349 0.117679 0.944444 0.824370 1 1 1.000000
W_Garb_BeerBottle(256x128)
  1 -0.184978 0.623266 3.933101 -0.324219 0.938764 0.116639 1.000000 0.824370 1 1 1.000000
  1 0.110753 0.431197 5.872398 0.175226 0.933895 -0.311666 0.916667 1.025500 1 1 1.000000
  1 0.034600 0.662538 3.933198 -0.037345 0.992349 0.117679 0.944444 0.824370 1 1 1.000000
W_Garb_BeerBottle(256x128)
  1 -0.184978 0.623266 3.933101 -0.324219 0.938764 0.116639 1.000000 0.824370 1 1 1.000000
  1 -0.112526 0.417525 5.872449 -0.302758 0.907675 -0.290626 1.000000 1.025500 1 1 1.000000
  1 0.110753 0.431197 5.872398 0.175226 0.933895 -0.311666 0.916667 1.025500 1 1 1.000000
W_Garb_BeerBottle(256x128)
  1 -0.112526 0.417525 5.872449 -0.302758 0.907675 -0.290626 1.000000 1.025500 1 1 1.000000
  1 0.036077 0.565121 6.025461 0.018935 0.998486 -0.051652 0.944444 1.041280 1 1 1.000000
  1 0.110753 0.431197 5.872398 0.175226 0.933895 -0.311666 0.916667 1.025500 1 1 1.000000
W_Garb_BeerBottle(256x128)
  1 -0.112526 0.417525 5.872449 -0.302758 0.907675 -0.290626 1.000000 1.025500 1 1 1.000000
  1 -0.154399 0.531055 6.025380 -0.342193 0.938784 -0.039859 1.000000 1.041280 1 1 1.000000
  1 0.036077 0.565121 6.025461 0.018935 0.998486 -0.051652 0.944444 1.041280 1 1 1.000000
W_Garb_BeerBottle(256x128)
  1 0.394531 0.435651 6.024488 0.644011 0.761463 -0.073651 0.833333 1.041280 1 1 1.000000
  1 0.318715 0.343666 6.202877 0.496497 0.667335 0.555117 0.833333 1.059820 1 1 1.000000
  1 0.416933 0.227197 6.202126 0.695926 0.457205 0.553760 0.777778 1.059820 1 1 1.000000
W_Garb_BeerBottle(256x128)
  1 0.226719 0.531988 6.025147 0.370222 0.924797 0.087666 0.888889 1.041280 1 1 1.000000
  1 0.318715 0.343666 6.202877 0.496497 0.667335 0.555117 0.833333 1.059820 1 1 1.000000
  1 0.394531 0.435651 6.024488 0.644011 0.761463 -0.073651 0.833333 1.041280 1 1 1.000000
W_Garb_BeerBottle(256x128)
  1 0.110753 0.431197 5.872398 0.175226 0.933895 -0.311666 0.916667 1.025500 1 1 1.000000
  1 0.226719 0.531988 6.025147 0.370222 0.924797 0.087666 0.888889 1.041280 1 1 1.000000
  1 0.394531 0.435651 6.024488 0.644011 0.761463 -0.073651 0.833333 1.041280 1 1 1.000000
W_Garb_BeerBottle(256x128)
  1 0.110753 0.431197 5.872398 0.175226 0.933895 -0.311666 0.916667 1.025500 1 1 1.000000
  1 0.036077 0.565121 6.025461 0.018935 0.998486 -0.051652 0.944444 1.041280 1 1 1.000000
  1 0.226719 0.531988 6.025147 0.370222 0.924797 0.087666 0.888889 1.041280 1 1 1.000000
W_Garb_BeerBottle(256x128)
  1 0.036077 0.565121 6.025461 0.018935 0.998486 -0.051652 0.944444 1.041280 1 1 1.000000
  1 0.186583 0.419520 6.203405 0.237216 0.796592 0.556031 0.888889 1.059820 1 1 1.000000
  1 0.226719 0.531988 6.025147 0.370222 0.924797 0.087666 0.888889 1.041280 1 1 1.000000
W_Garb_BeerBottle(256x128)
  1 0.036077 0.565121 6.025461 0.018935 0.998486 -0.051652 0.944444 1.041280 1 1 1.000000
  1 0.036476 0.445608 6.203641 -0.050639 0.829371 0.556399 0.944444 1.059820 1 1 1.000000
  1 0.186583 0.419520 6.203405 0.237216 0.796592 0.556031 0.888889 1.059820 1 1 1.000000
W_Garb_BeerBottle(256x128)
  1 -0.154399 0.531055 6.025380 -0.342193 0.938784 -0.039859 1.000000 1.041280 1 1 1.000000
  1 0.036476 0.445608 6.203641 -0.050639 0.829371 0.556399 0.944444 1.059820 1 1 1.000000
  1 0.036077 0.565121 6.025461 0.018935 0.998486 -0.051652 0.944444 1.041280 1 1 1.000000
W_Garb_BeerBottle(256x128)
  1 -0.154399 0.531055 6.025380 -0.342193 0.938784 -0.039859 1.000000 1.041280 1 1 1.000000
  1 -0.113502 0.418785 6.203579 -0.332370 0.761710 0.556173 1.000000 1.059820 1 1 1.000000
  1 0.036476 0.445608 6.203641 -0.050639 0.829371 0.556399 0.944444 1.059820 1 1 1.000000
W_Garb_BeerBottle(256x128)
  1 0.226719 0.531988 6.025147 0.370222 0.924797 0.087666 0.888889 1.041280 1 1 1.000000
  1 0.186583 0.419520 6.203405 0.237216 0.796592 0.556031 0.888889 1.059820 1 1 1.000000
  1 0.318715 0.343666 6.202877 0.496497 0.667335 0.555117 0.833333 1.059820 1 1 1.000000
W_Garb_BeerBottle(256x128)
  1 0.038804 -0.549175 6.018915 -0.031340 -0.996565 0.076656 0.444444 1.041280 1 1 1.000000
  1 -0.111483 -0.405676 6.198731 -0.236548 -0.803076 0.546913 0.388889 1.059820 1 1 1.000000
  1 -0.151838 -0.516042 6.019218 -0.344991 -0.934927 -0.083024 0.388889 1.041280 1 1 1.000000
W_Garb_BeerBottle(256x128)
  1 -0.151838 -0.516042 6.019218 -0.344991 -0.934927 -0.083024 0.388889 1.041280 1 1 1.000000
  1 -0.111483 -0.405676 6.198731 -0.236548 -0.803076 0.546913 0.388889 1.059820 1 1 1.000000
  1 -0.243617 -0.329822 6.199260 -0.495788 -0.673850 0.547832 0.333333 1.059820 1 1 1.000000
W_Garb_BeerBottle(256x128)
  1 -0.151838 -0.516042 6.019218 -0.344991 -0.934927 -0.083024 0.388889 1.041280 1 1 1.000000
  1 -0.243617 -0.329822 6.199260 -0.495788 -0.673850 0.547832 0.333333 1.059820 1 1 1.000000
  1 -0.319649 -0.419704 6.019888 -0.664278 -0.743351 0.078512 0.333333 1.041280 1 1 1.000000
W_Garb_BeerBottle(256x128)
  1 -0.319649 -0.419704 6.019888 -0.664278 -0.743351 0.078512 0.333333 1.041280 1 1 1.000000
  1 -0.243617 -0.329822 6.199260 -0.495788 -0.673850 0.547832 0.333333 1.059820 1 1 1.000000
  1 -0.341834 -0.213351 6.200000 -0.695256 -0.463693 0.549188 0.277778 1.059820 1 1 1.000000
W_Garb_BeerBottle(256x128)
  1 -0.319649 -0.419704 6.019888 -0.664278 -0.743351 0.078512 0.333333 1.041280 1 1 1.000000
  1 -0.341834 -0.213351 6.200000 -0.695256 -0.463693 0.549188 0.277778 1.059820 1 1 1.000000
  1 -0.444390 -0.271783 6.020833 -0.865549 -0.494374 -0.080119 0.277778 1.041280 1 1 1.000000
W_Garb_BeerBottle(256x128)
  1 -0.444390 -0.271783 6.020833 -0.865549 -0.494374 -0.080119 0.277778 1.041280 1 1 1.000000
  1 -0.341834 -0.213351 6.200000 -0.695256 -0.463693 0.549188 0.277778 1.059820 1 1 1.000000
  1 -0.394294 -0.070313 6.200880 -0.810782 -0.198058 0.550823 0.222222 1.059820 1 1 1.000000
W_Garb_BeerBottle(256x128)
  1 -0.444390 -0.271783 6.020833 -0.865549 -0.494374 -0.080119 0.277778 1.041280 1 1 1.000000
  1 -0.394294 -0.070313 6.200880 -0.810782 -0.198058 0.550823 0.222222 1.059820 1 1 1.000000
  1 -0.511016 -0.090120 6.021944 -0.986367 -0.142539 0.082238 0.222222 1.041280 1 1 1.000000
W_Garb_BeerBottle(256x128)
  1 -0.511016 -0.090120 6.021944 -0.986367 -0.142539 0.082238 0.222222 1.041280 1 1 1.000000
  1 -0.394294 -0.070313 6.200880 -0.810782 -0.198058 0.550823 0.222222 1.059820 1 1 1.000000
  1 -0.394666 0.082041 6.201766 -0.828496 0.091104 0.552535 0.166667 1.059820 1 1 1.000000
W_Garb_BeerBottle(256x128)
  1 -0.511016 -0.090120 6.021944 -0.986367 -0.142539 0.082238 0.222222 1.041280 1 1 1.000000
  1 -0.394666 0.082041 6.201766 -0.828496 0.091104 0.552535 0.166667 1.059820 1 1 1.000000
  1 -0.511488 0.103377 6.023078 -0.985978 0.156535 -0.057835 0.166667 1.041280 1 1 1.000000
W_Garb_BeerBottle(256x128)
  1 -0.511488 0.103377 6.023078 -0.985978 0.156535 -0.057835 0.166667 1.041280 1 1 1.000000
  1 -0.394666 0.082041 6.201766 -0.828496 0.091104 0.552535 0.166667 1.059820 1 1 1.000000
  1 -0.342907 0.225335 6.202579 -0.746229 0.368914 0.554116 0.111111 1.059820 1 1 1.000000
W_Garb_BeerBottle(256x128)
  1 -0.511488 0.103377 6.023078 -0.985978 0.156535 -0.057835 0.166667 1.041280 1 1 1.000000
  1 -0.342907 0.225335 6.202579 -0.746229 0.368914 0.554116 0.111111 1.059820 1 1 1.000000
  1 -0.445753 0.285365 6.024116 -0.865404 0.499297 -0.042167 0.111111 1.041280 1 1 1.000000
W_Garb_BeerBottle(256x128)
  1 -0.445753 0.285365 6.024116 -0.865404 0.499297 -0.042167 0.111111 1.041280 1 1 1.000000
  1 -0.342907 0.225335 6.202579 -0.746229 0.368914 0.554116 0.111111 1.059820 1 1 1.000000
  1 -0.245260 0.342285 6.203211 -0.573911 0.601816 0.555377 0.055556 1.059820 1 1 1.000000
W_Garb_BeerBottle(256x128)
  1 -0.445753 0.285365 6.024116 -0.865404 0.499297 -0.042167 0.111111 1.041280 1 1 1.000000
  1 -0.245260 0.342285 6.203211 -0.573911 0.601816 0.555377 0.055556 1.059820 1 1 1.000000
  1 -0.321737 0.433896 6.024911 -0.642554 0.765159 -0.040699 0.055556 1.041280 1 1 1.000000
W_Garb_BeerBottle(256x128)
  1 -0.321737 0.433896 6.024911 -0.642554 0.765159 -0.040699 0.055556 1.041280 1 1 1.000000
  1 -0.245260 0.342285 6.203211 -0.573911 0.601816 0.555377 0.055556 1.059820 1 1 1.000000
  1 -0.113502 0.418785 6.203579 -0.332370 0.761710 0.556173 0.000000 1.059820 1 1 1.000000
W_Garb_BeerBottle(256x128)
  1 -0.321737 0.433896 6.024911 -0.642554 0.765159 -0.040699 0.055556 1.041280 1 1 1.000000
  1 -0.113502 0.418785 6.203579 -0.332370 0.761710 0.556173 0.000000 1.059820 1 1 1.000000
  1 -0.154399 0.531055 6.025380 -0.342193 0.938784 -0.039859 0.000000 1.041280 1 1 1.000000
W_Garb_BeerBottle(256x128)
  1 -0.243259 0.341621 5.872089 -0.623755 0.730855 -0.277093 0.055556 1.025500 1 1 1.000000
  1 -0.321737 0.433896 6.024911 -0.642554 0.765159 -0.040699 0.055556 1.041280 1 1 1.000000
  1 -0.154399 0.531055 6.025380 -0.342193 0.938784 -0.039859 0.000000 1.041280 1 1 1.000000
W_Garb_BeerBottle(256x128)
  1 -0.243259 0.341621 5.872089 -0.623755 0.730855 -0.277093 0.055556 1.025500 1 1 1.000000
  1 -0.154399 0.531055 6.025380 -0.342193 0.938784 -0.039859 0.000000 1.041280 1 1 1.000000
  1 -0.112526 0.417525 5.872449 -0.302758 0.907675 -0.290626 0.000000 1.025500 1 1 1.000000
W_Garb_BeerBottle(256x128)
  1 -0.377881 0.511264 3.932550 -0.640771 0.759282 0.113591 0.055556 0.824370 1 1 1.000000
  1 -0.243259 0.341621 5.872089 -0.623755 0.730855 -0.277093 0.055556 1.025500 1 1 1.000000
  1 -0.112526 0.417525 5.872449 -0.302758 0.907675 -0.290626 0.000000 1.025500 1 1 1.000000
W_Garb_BeerBottle(256x128)
  1 -0.622314 0.404030 2.894279 -0.826548 0.476638 0.299392 0.111111 0.797233 1 1 1.000000
  1 -0.377881 0.511264 3.932550 -0.640771 0.759282 0.113591 0.055556 0.824370 1 1 1.000000
  1 -0.453470 0.606251 2.895366 -0.613073 0.730539 0.300756 0.055556 0.797233 1 1 1.000000
W_Garb_BeerBottle(256x128)
  1 -0.622314 0.404030 2.894279 -0.826548 0.476638 0.299392 0.111111 0.797233 1 1 1.000000
  1 -0.520844 0.340042 3.931639 -0.862036 0.494280 0.112169 0.111111 0.824370 1 1 1.000000
  1 -0.377881 0.511264 3.932550 -0.640771 0.759282 0.113591 0.055556 0.824370 1 1 1.000000
W_Garb_BeerBottle(256x128)
  1 -0.520844 0.340042 3.931639 -0.862036 0.494280 0.112169 0.111111 0.824370 1 1 1.000000
  1 -0.243259 0.341621 5.872089 -0.623755 0.730855 -0.277093 0.055556 1.025500 1 1 1.000000
  1 -0.377881 0.511264 3.932550 -0.640771 0.759282 0.113591 0.055556 0.824370 1 1 1.000000
W_Garb_BeerBottle(256x128)
  1 -0.520844 0.340042 3.931639 -0.862036 0.494280 0.112169 0.111111 0.824370 1 1 1.000000
  1 -0.340147 0.225580 5.871468 -0.835554 0.473603 -0.278476 0.111111 1.025500 1 1 1.000000
  1 -0.243259 0.341621 5.872089 -0.623755 0.730855 -0.277093 0.055556 1.025500 1 1 1.000000
W_Garb_BeerBottle(256x128)
  1 -0.340147 0.225580 5.871468 -0.835554 0.473603 -0.278476 0.111111 1.025500 1 1 1.000000
  1 -0.321737 0.433896 6.024911 -0.642554 0.765159 -0.040699 0.055556 1.041280 1 1 1.000000
  1 -0.243259 0.341621 5.872089 -0.623755 0.730855 -0.277093 0.055556 1.025500 1 1 1.000000
W_Garb_BeerBottle(256x128)
  1 -0.340147 0.225580 5.871468 -0.835554 0.473603 -0.278476 0.111111 1.025500 1 1 1.000000
  1 -0.445753 0.285365 6.024116 -0.865404 0.499297 -0.042167 0.111111 1.041280 1 1 1.000000
  1 -0.321737 0.433896 6.024911 -0.642554 0.765159 -0.040699 0.055556 1.041280 1 1 1.000000
W_Garb_BeerBottle(256x128)
  1 -0.391503 0.083401 5.870660 -0.952524 0.122617 -0.278679 0.166667 1.025500 1 1 1.000000
  1 -0.445753 0.285365 6.024116 -0.865404 0.499297 -0.042167 0.111111 1.041280 1 1 1.000000
  1 -0.340147 0.225580 5.871468 -0.835554 0.473603 -0.278476 0.111111 1.025500 1 1 1.000000
W_Garb_BeerBottle(256x128)
  1 -0.391503 0.083401 5.870660 -0.952524 0.122617 -0.278679 0.166667 1.025500 1 1 1.000000
  1 -0.511488 0.103377 6.023078 -0.985978 0.156535 -0.057835 0.166667 1.041280 1 1 1.000000
  1 -0.445753 0.285365 6.024116 -0.865404 0.499297 -0.042167 0.111111 1.041280 1 1 1.000000
W_Garb_BeerBottle(256x128)
  1 -0.365107 -0.138729 5.869340 -0.880799 -0.361210 -0.306137 0.250000 1.025500 1 1 1.000000
  1 -0.511488 0.103377 6.023078 -0.985978 0.156535 -0.057835 0.166667 1.041280 1 1 1.000000
  1 -0.391503 0.083401 5.870660 -0.952524 0.122617 -0.278679 0.166667 1.025500 1 1 1.000000
W_Garb_BeerBottle(256x128)
  1 -0.365107 -0.138729 5.869340 -0.880799 -0.361210 -0.306137 0.250000 1.025500 1 1 1.000000
  1 -0.511016 -0.090120 6.021944 -0.986367 -0.142539 0.082238 0.222222 1.041280 1 1 1.000000
  1 -0.511488 0.103377 6.023078 -0.985978 0.156535 -0.057835 0.166667 1.041280 1 1 1.000000
W_Garb_BeerBottle(256x128)
  1 -0.365107 -0.138729 5.869340 -0.880799 -0.361210 -0.306137 0.250000 1.025500 1 1 1.000000
  1 -0.444390 -0.271783 6.020833 -0.865549 -0.494374 -0.080119 0.277778 1.041280 1 1 1.000000
  1 -0.511016 -0.090120 6.021944 -0.986367 -0.142539 0.082238 0.222222 1.041280 1 1 1.000000
W_Garb_BeerBottle(256x128)
  1 -0.176077 -0.362887 5.867908 -0.460258 -0.826164 -0.324986 0.361111 1.025500 1 1 1.000000
  1 -0.444390 -0.271783 6.020833 -0.865549 -0.494374 -0.080119 0.277778 1.041280 1 1 1.000000
  1 -0.365107 -0.138729 5.869340 -0.880799 -0.361210 -0.306137 0.250000 1.025500 1 1 1.000000
W_Garb_BeerBottle(256x128)
  1 -0.176077 -0.362887 5.867908 -0.460258 -0.826164 -0.324986 0.361111 1.025500 1 1 1.000000
  1 -0.319649 -0.419704 6.019888 -0.664278 -0.743351 0.078512 0.333333 1.041280 1 1 1.000000
  1 -0.444390 -0.271783 6.020833 -0.865549 -0.494374 -0.080119 0.277778 1.041280 1 1 1.000000
W_Garb_BeerBottle(256x128)
  1 -0.176077 -0.362887 5.867908 -0.460258 -0.826164 -0.324986 0.361111 1.025500 1 1 1.000000
  1 -0.151838 -0.516042 6.019218 -0.344991 -0.934927 -0.083024 0.388889 1.041280 1 1 1.000000
  1 -0.319649 -0.419704 6.019888 -0.664278 -0.743351 0.078512 0.333333 1.041280 1 1 1.000000
W_Garb_BeerBottle(256x128)
  1 0.112819 -0.413096 5.867438 0.179624 -0.928146 -0.326005 0.472222 1.025500 1 1 1.000000
  1 -0.151838 -0.516042 6.019218 -0.344991 -0.934927 -0.083024 0.388889 1.041280 1 1 1.000000
  1 -0.176077 -0.362887 5.867908 -0.460258 -0.826164 -0.324986 0.361111 1.025500 1 1 1.000000
W_Garb_BeerBottle(256x128)
  1 0.112819 -0.413096 5.867438 0.179624 -0.928146 -0.326005 0.472222 1.025500 1 1 1.000000
  1 0.038804 -0.549175 6.018915 -0.031340 -0.996565 0.076656 0.444444 1.041280 1 1 1.000000
  1 -0.151838 -0.516042 6.019218 -0.344991 -0.934927 -0.083024 0.388889 1.041280 1 1 1.000000
W_Garb_BeerBottle(256x128)
  1 0.112819 -0.413096 5.867438 0.179624 -0.928146 -0.326005 0.472222 1.025500 1 1 1.000000
  1 0.229281 -0.515108 6.018998 0.336977 -0.937807 -0.083452 0.500000 1.041280 1 1 1.000000
  1 0.038804 -0.549175 6.018915 -0.031340 -0.996565 0.076656 0.444444 1.041280 1 1 1.000000
W_Garb_BeerBottle(256x128)
  1 0.366400 -0.265864 5.868149 0.735395 -0.594969 -0.324356 0.583333 1.025500 1 1 1.000000
  1 0.229281 -0.515108 6.018998 0.336977 -0.937807 -0.083452 0.500000 1.041280 1 1 1.000000
  1 0.112819 -0.413096 5.867438 0.179624 -0.928146 -0.326005 0.472222 1.025500 1 1 1.000000
W_Garb_BeerBottle(256x128)
  1 -0.596623 0.130249 3.930455 -0.979321 0.169576 0.110333 0.166667 0.824370 1 1 1.000000
  1 -0.340147 0.225580 5.871468 -0.835554 0.473603 -0.278476 0.111111 1.025500 1 1 1.000000
  1 -0.520844 0.340042 3.931639 -0.862036 0.494280 0.112169 0.111111 0.824370 1 1 1.000000
W_Garb_BeerBottle(256x128)
  1 -0.596623 0.130249 3.930455 -0.979321 0.169576 0.110333 0.166667 0.824370 1 1 1.000000
  1 -0.391503 0.083401 5.870660 -0.952524 0.122617 -0.278679 0.166667 1.025500 1 1 1.000000
  1 -0.340147 0.225580 5.871468 -0.835554 0.473603 -0.278476 0.111111 1.025500 1 1 1.000000
W_Garb_BeerBottle(256x128)
  1 -0.596077 -0.092808 3.929137 -0.974740 -0.194590 0.109623 0.222222 0.824370 1 1 1.000000
  1 -0.391503 0.083401 5.870660 -0.952524 0.122617 -0.278679 0.166667 1.025500 1 1 1.000000
  1 -0.596623 0.130249 3.930455 -0.979321 0.169576 0.110333 0.166667 0.824370 1 1 1.000000
W_Garb_BeerBottle(256x128)
  1 -0.596077 -0.092808 3.929137 -0.974740 -0.194590 0.109623 0.222222 0.824370 1 1 1.000000
  1 -0.365107 -0.138729 5.869340 -0.880799 -0.361210 -0.306137 0.250000 1.025500 1 1 1.000000
  1 -0.391503 0.083401 5.870660 -0.952524 0.122617 -0.278679 0.166667 1.025500 1 1 1.000000
W_Garb_BeerBottle(256x128)
  1 -0.519272 -0.302227 3.927866 -0.841209 -0.529564 0.109221 0.277778 0.824370 1 1 1.000000
  1 -0.365107 -0.138729 5.869340 -0.880799 -0.361210 -0.306137 0.250000 1.025500 1 1 1.000000
  1 -0.596077 -0.092808 3.929137 -0.974740 -0.194590 0.109623 0.222222 0.824370 1 1 1.000000
W_Garb_BeerBottle(256x128)
  1 -0.375474 -0.472747 3.926768 -0.636559 -0.763471 0.109105 0.333333 0.824370 1 1 1.000000
  1 -0.365107 -0.138729 5.869340 -0.880799 -0.361210 -0.306137 0.250000 1.025500 1 1 1.000000
  1 -0.519272 -0.302227 3.927866 -0.841209 -0.529564 0.109221 0.277778 0.824370 1 1 1.000000
W_Garb_BeerBottle(256x128)
  1 -0.375474 -0.472747 3.926768 -0.636559 -0.763471 0.109105 0.333333 0.824370 1 1 1.000000
  1 -0.176077 -0.362887 5.867908 -0.460258 -0.826164 -0.324986 0.361111 1.025500 1 1 1.000000
  1 -0.365107 -0.138729 5.869340 -0.880799 -0.361210 -0.306137 0.250000 1.025500 1 1 1.000000
W_Garb_BeerBottle(256x128)
  1 -0.711812 0.156257 2.892879 -0.940309 0.165037 0.297627 0.166667 0.797233 1 1 1.000000
  1 -0.520844 0.340042 3.931639 -0.862036 0.494280 0.112169 0.111111 0.824370 1 1 1.000000
  1 -0.622314 0.404030 2.894279 -0.826548 0.476638 0.299392 0.111111 0.797233 1 1 1.000000
W_Garb_BeerBottle(256x128)
  1 -0.711812 0.156257 2.892879 -0.940309 0.165037 0.297627 0.166667 0.797233 1 1 1.000000
  1 -0.596623 0.130249 3.930455 -0.979321 0.169576 0.110333 0.166667 0.824370 1 1 1.000000
  1 -0.520844 0.340042 3.931639 -0.862036 0.494280 0.112169 0.111111 0.824370 1 1 1.000000
W_Garb_BeerBottle(256x128)
  1 -0.711168 -0.107181 2.891325 -0.940615 -0.166706 0.295723 0.222222 0.797233 1 1 1.000000
  1 -0.596623 0.130249 3.930455 -0.979321 0.169576 0.110333 0.166667 0.824370 1 1 1.000000
  1 -0.711812 0.156257 2.892879 -0.940309 0.165037 0.297627 0.166667 0.797233 1 1 1.000000
W_Garb_BeerBottle(256x128)
  1 -0.711168 -0.107181 2.891325 -0.940615 -0.166706 0.295723 0.222222 0.797233 1 1 1.000000
  1 -0.596077 -0.092808 3.929137 -0.974740 -0.194590 0.109623 0.222222 0.824370 1 1 1.000000
  1 -0.596623 0.130249 3.930455 -0.979321 0.169576 0.110333 0.166667 0.824370 1 1 1.000000
W_Garb_BeerBottle(256x128)
  1 -0.620458 -0.354513 2.889817 -0.827436 -0.478535 0.293859 0.277778 0.797233 1 1 1.000000
  1 -0.596077 -0.092808 3.929137 -0.974740 -0.194590 0.109623 0.222222 0.824370 1 1 1.000000
  1 -0.711168 -0.107181 2.891325 -0.940615 -0.166706 0.295723 0.222222 0.797233 1 1 1.000000
W_Garb_BeerBottle(256x128)
  1 -0.620458 -0.354513 2.889817 -0.827436 -0.478535 0.293859 0.277778 0.797233 1 1 1.000000
  1 -0.519272 -0.302227 3.927866 -0.841209 -0.529564 0.109221 0.277778 0.824370 1 1 1.000000
  1 -0.596077 -0.092808 3.929137 -0.974740 -0.194590 0.109623 0.222222 0.824370 1 1 1.000000
W_Garb_BeerBottle(256x128)
  1 -0.450626 -0.555905 2.888537 -0.603384 -0.744715 0.285180 0.333333 0.797233 1 1 1.000000
  1 -0.519272 -0.302227 3.927866 -0.841209 -0.529564 0.109221 0.277778 0.824370 1 1 1.000000
  1 -0.620458 -0.354513 2.889817 -0.827436 -0.478535 0.293859 0.277778 0.797233 1 1 1.000000
W_Garb_BeerBottle(256x128)
  1 -0.450626 -0.555905 2.888537 -0.603384 -0.744715 0.285180 0.333333 0.797233 1 1 1.000000
  1 -0.375474 -0.472747 3.926768 -0.636559 -0.763471 0.109105 0.333333 0.824370 1 1 1.000000
  1 -0.519272 -0.302227 3.927866 -0.841209 -0.529564 0.109221 0.277778 0.824370 1 1 1.000000
W_Garb_BeerBottle(256x128)
  1 -0.222156 -0.687066 2.887625 -0.343601 -0.896851 0.278562 0.388889 0.797233 1 1 1.000000
  1 -0.375474 -0.472747 3.926768 -0.636559 -0.763471 0.109105 0.333333 0.824370 1 1 1.000000
  1 -0.450626 -0.555905 2.888537 -0.603384 -0.744715 0.285180 0.333333 0.797233 1 1 1.000000
W_Garb_BeerBottle(256x128)
  1 -0.222156 -0.687066 2.887625 -0.343601 -0.896851 0.278562 0.388889 0.797233 1 1 1.000000
  1 -0.182024 -0.583803 3.926000 -0.304411 -0.946574 0.106447 0.388889 0.824370 1 1 1.000000
  1 -0.375474 -0.472747 3.926768 -0.636559 -0.763471 0.109105 0.333333 0.824370 1 1 1.000000
W_Garb_BeerBottle(256x128)
  1 -0.182024 -0.583803 3.926000 -0.304411 -0.946574 0.106447 0.388889 0.824370 1 1 1.000000
  1 -0.176077 -0.362887 5.867908 -0.460258 -0.826164 -0.324986 0.361111 1.025500 1 1 1.000000
  1 -0.375474 -0.472747 3.926768 -0.636559 -0.763471 0.109105 0.333333 0.824370 1 1 1.000000
W_Garb_BeerBottle(256x128)
  1 0.037742 -0.621998 3.925642 0.002756 -0.994214 0.107383 0.444444 0.824370 1 1 1.000000
  1 -0.176077 -0.362887 5.867908 -0.460258 -0.826164 -0.324986 0.361111 1.025500 1 1 1.000000
  1 -0.182024 -0.583803 3.926000 -0.304411 -0.946574 0.106447 0.388889 0.824370 1 1 1.000000
W_Garb_BeerBottle(256x128)
  1 0.037742 -0.621998 3.925642 0.002756 -0.994214 0.107383 0.444444 0.824370 1 1 1.000000
  1 0.112819 -0.413096 5.867438 0.179624 -0.928146 -0.326005 0.472222 1.025500 1 1 1.000000
  1 -0.176077 -0.362887 5.867908 -0.460258 -0.826164 -0.324986 0.361111 1.025500 1 1 1.000000
W_Garb_BeerBottle(256x128)
  1 0.257320 -0.582727 3.925740 0.374859 -0.920980 0.106188 0.500000 0.824370 1 1 1.000000
  1 0.112819 -0.413096 5.867438 0.179624 -0.928146 -0.326005 0.472222 1.025500 1 1 1.000000
  1 0.037742 -0.621998 3.925642 0.002756 -0.994214 0.107383 0.444444 0.824370 1 1 1.000000
W_Garb_BeerBottle(256x128)
  1 0.296727 -0.685794 2.887315 0.326006 -0.899580 0.290647 0.500000 0.797233 1 1 1.000000
  1 0.257320 -0.582727 3.925740 0.374859 -0.920980 0.106188 0.500000 0.824370 1 1 1.000000
  1 0.037742 -0.621998 3.925642 0.002756 -0.994214 0.107383 0.444444 0.824370 1 1 1.000000
W_Garb_BeerBottle(256x128)
  1 0.524554 -0.553516 2.887956 0.613440 -0.733998 0.291441 0.555556 0.797233 1 1 1.000000
  1 0.257320 -0.582727 3.925740 0.374859 -0.920980 0.106188 0.500000 0.824370 1 1 1.000000
  1 0.296727 -0.685794 2.887315 0.326006 -0.899580 0.290647 0.500000 0.797233 1 1 1.000000
W_Garb_BeerBottle(256x128)
  1 0.524554 -0.553516 2.887956 0.613440 -0.733998 0.291441 0.555556 0.797233 1 1 1.000000
  1 0.450224 -0.470725 3.926280 0.640649 -0.760160 0.108283 0.555556 0.824370 1 1 1.000000
  1 0.257320 -0.582727 3.925740 0.374859 -0.920980 0.106188 0.500000 0.824370 1 1 1.000000
W_Garb_BeerBottle(256x128)
  1 0.693398 -0.351295 2.889043 0.826909 -0.480066 0.292844 0.611111 0.797233 1 1 1.000000
  1 0.450224 -0.470725 3.926280 0.640649 -0.760160 0.108283 0.555556 0.824370 1 1 1.000000
  1 0.524554 -0.553516 2.887956 0.613440 -0.733998 0.291441 0.555556 0.797233 1 1 1.000000
W_Garb_BeerBottle(256x128)
  1 0.037397 -0.732176 2.887203 -0.000730 -0.956872 0.290508 0.444444 0.797233 1 1 1.000000
  1 -0.182024 -0.583803 3.926000 -0.304411 -0.946574 0.106447 0.388889 0.824370 1 1 1.000000
  1 -0.222156 -0.687066 2.887625 -0.343601 -0.896851 0.278562 0.388889 0.797233 1 1 1.000000
W_Garb_BeerBottle(256x128)
  1 0.037397 -0.732176 2.887203 -0.000730 -0.956872 0.290508 0.444444 0.797233 1 1 1.000000
  1 0.037742 -0.621998 3.925642 0.002756 -0.994214 0.107383 0.444444 0.824370 1 1 1.000000
  1 -0.182024 -0.583803 3.926000 -0.304411 -0.946574 0.106447 0.388889 0.824370 1 1 1.000000
W_Garb_BeerBottle(256x128)
  1 0.296727 -0.685794 2.887315 0.326006 -0.899580 0.290647 0.500000 0.797233 1 1 1.000000
  1 0.037742 -0.621998 3.925642 0.002756 -0.994214 0.107383 0.444444 0.824370 1 1 1.000000
  1 0.037397 -0.732176 2.887203 -0.000730 -0.956872 0.290508 0.444444 0.797233 1 1 1.000000
W_Garb_BeerBottle(256x128)
  1 1.249501 -0.179477 1.998907 0.955304 -0.163955 0.245992 0.666667 0.731715 1 1 1.000000
  1 0.693398 -0.351295 2.889043 0.826909 -0.480066 0.292844 0.611111 0.797233 1 1 1.000000
  1 1.104057 -0.582122 1.996637 0.842121 -0.480831 0.244200 0.611111 0.731715 1 1 1.000000
W_Garb_BeerBottle(256x128)
  1 1.104057 -0.582122 1.996637 0.842121 -0.480831 0.244200 0.611111 0.731715 1 1 1.000000
  1 0.693398 -0.351295 2.889043 0.826909 -0.480066 0.292844 0.611111 0.797233 1 1 1.000000
  1 0.524554 -0.553516 2.887956 0.613440 -0.733998 0.291441 0.555556 0.797233 1 1 1.000000
W_Garb_BeerBottle(256x128)
  1 1.104057 -0.582122 1.996637 0.842121 -0.480831 0.244200 0.611111 0.731715 1 1 1.000000
  1 0.524554 -0.553516 2.887956 0.613440 -0.733998 0.291441 0.555556 0.797233 1 1 1.000000
  1 0.829675 -0.910742 1.994873 0.627384 -0.739886 0.242813 0.555556 0.731715 1 1 1.000000
W_Garb_BeerBottle(256x128)
  1 0.829675 -0.910742 1.994873 0.627384 -0.739886 0.242813 0.555556 0.731715 1 1 1.000000
  1 0.524554 -0.553516 2.887956 0.613440 -0.733998 0.291441 0.555556 0.797233 1 1 1.000000
  1 0.296727 -0.685794 2.887315 0.326006 -0.899580 0.290647 0.500000 0.797233 1 1 1.000000
W_Garb_BeerBottle(256x128)
  1 0.829675 -0.910742 1.994873 0.627384 -0.739886 0.242813 0.555556 0.731715 1 1 1.000000
  1 0.296727 -0.685794 2.887315 0.326006 -0.899580 0.290647 0.500000 0.797233 1 1 1.000000
  1 0.459443 -1.125709 1.993832 0.336973 -0.909897 0.241943 0.500000 0.731715 1 1 1.000000
W_Garb_BeerBottle(256x128)
  1 0.459443 -1.125709 1.993832 0.336973 -0.909897 0.241943 0.500000 0.731715 1 1 1.000000
  1 0.296727 -0.685794 2.887315 0.326006 -0.899580 0.290647 0.500000 0.797233 1 1 1.000000
  1 0.037397 -0.732176 2.887203 -0.000730 -0.956872 0.290508 0.444444 0.797233 1 1 1.000000
W_Garb_BeerBottle(256x128)
  1 0.459443 -1.125709 1.993832 0.336973 -0.909897 0.241943 0.500000 0.731715 1 1 1.000000
  1 0.037397 -0.732176 2.887203 -0.000730 -0.956872 0.290508 0.444444 0.797233 1 1 1.000000
  1 0.038016 -1.201078 1.993643 -0.028321 -0.970882 0.237878 0.444444 0.731715 1 1 1.000000
W_Garb_BeerBottle(256x128)
  1 0.038016 -1.201078 1.993643 -0.028321 -0.970882 0.237878 0.444444 0.731715 1 1 1.000000
  1 0.037397 -0.732176 2.887203 -0.000730 -0.956872 0.290508 0.444444 0.797233 1 1 1.000000
  1 -0.222156 -0.687066 2.887625 -0.343601 -0.896851 0.278562 0.388889 0.797233 1 1 1.000000
W_Garb_BeerBottle(256x128)
  1 0.038016 -1.201078 1.993643 -0.028321 -0.970882 0.237878 0.444444 0.731715 1 1 1.000000
  1 -0.222156 -0.687066 2.887625 -0.343601 -0.896851 0.278562 0.388889 0.797233 1 1 1.000000
  1 -0.368487 -1.085464 1.995507 -0.327266 -0.916665 0.229395 0.388889 0.731812 1 1 1.000000
W_Garb_BeerBottle(256x128)
  1 -0.368487 -1.085464 1.995507 -0.327266 -0.916665 0.229395 0.388889 0.731812 1 1 1.000000
  1 -0.222156 -0.687066 2.887625 -0.343601 -0.896851 0.278562 0.388889 0.797233 1 1 1.000000
  1 -0.450626 -0.555905 2.888537 -0.603384 -0.744715 0.285180 0.333333 0.797233 1 1 1.000000
W_Garb_BeerBottle(256x128)
  1 -0.368487 -1.085464 1.995507 -0.327266 -0.916665 0.229395 0.388889 0.731812 1 1 1.000000
  1 -0.450626 -0.555905 2.888537 -0.603384 -0.744715 0.285180 0.333333 0.797233 1 1 1.000000
  1 -0.755052 -0.914625 1.995809 -0.591498 -0.768242 0.244814 0.333333 0.731715 1 1 1.000000
W_Garb_BeerBottle(256x128)
  1 -0.755052 -0.914625 1.995809 -0.591498 -0.768242 0.244814 0.333333 0.731715 1 1 1.000000
  1 -0.450626 -0.555905 2.888537 -0.603384 -0.744715 0.285180 0.333333 0.797233 1 1 1.000000
  1 -0.620458 -0.354513 2.889817 -0.827436 -0.478535 0.293859 0.277778 0.797233 1 1 1.000000
W_Garb_BeerBottle(256x128)
  1 -0.755052 -0.914625 1.995809 -0.591498 -0.768242 0.244814 0.333333 0.731715 1 1 1.000000
  1 -0.620458 -0.354513 2.889817 -0.827436 -0.478535 0.293859 0.277778 0.797233 1 1 1.000000
  1 -1.031042 -0.587353 1.997903 -0.836019 -0.490907 0.245117 0.277778 0.731715 1 1 1.000000
W_Garb_BeerBottle(256x128)
  1 -1.031042 -0.587353 1.997903 -0.836019 -0.490907 0.245117 0.277778 0.731715 1 1 1.000000
  1 -0.620458 -0.354513 2.889817 -0.827436 -0.478535 0.293859 0.277778 0.797233 1 1 1.000000
  1 -0.711168 -0.107181 2.891325 -0.940615 -0.166706 0.295723 0.222222 0.797233 1 1 1.000000
W_Garb_BeerBottle(256x128)
  1 -1.031042 -0.587353 1.997903 -0.836019 -0.490907 0.245117 0.277778 0.731715 1 1 1.000000
  1 -0.711168 -0.107181 2.891325 -0.940615 -0.166706 0.295723 0.222222 0.797233 1 1 1.000000
  1 -1.178448 -0.185425 2.000350 -0.952966 -0.175451 0.247129 0.222222 0.731715 1 1 1.000000
W_Garb_BeerBottle(256x128)
  1 -1.178448 -0.185425 2.000350 -0.952966 -0.175451 0.247129 0.222222 0.731715 1 1 1.000000
  1 -0.711168 -0.107181 2.891325 -0.940615 -0.166706 0.295723 0.222222 0.797233 1 1 1.000000
  1 -0.711812 0.156257 2.892879 -0.940309 0.165037 0.297627 0.166667 0.797233 1 1 1.000000
W_Garb_BeerBottle(256x128)
  1 -1.178448 -0.185425 2.000350 -0.952966 -0.175451 0.247129 0.222222 0.731715 1 1 1.000000
  1 -0.711812 0.156257 2.892879 -0.940309 0.165037 0.297627 0.166667 0.797233 1 1 1.000000
  1 -1.179490 0.242680 2.002863 -0.955011 0.161074 0.249016 0.166667 0.731715 1 1 1.000000
W_Garb_BeerBottle(256x128)
  1 -1.179490 0.242680 2.002863 -0.955011 0.161074 0.249016 0.166667 0.731715 1 1 1.000000
  1 -0.711812 0.156257 2.892879 -0.940309 0.165037 0.297627 0.166667 0.797233 1 1 1.000000
  1 -0.622314 0.404030 2.894279 -0.826548 0.476638 0.299392 0.111111 0.797233 1 1 1.000000
W_Garb_BeerBottle(256x128)
  1 -1.238058 0.284240 -3.435432 -0.973424 0.228681 0.012229 0.166667 0.060817 1 1 1.000000
  1 -1.034058 0.645326 2.005143 -0.841821 0.477894 0.250908 0.111111 0.731715 1 1 1.000000
  1 -1.085995 0.705208 -3.433051 -0.836480 0.547818 0.014022 0.111111 0.060817 1 1 1.000000
W_Garb_BeerBottle(256x128)
  1 -1.238058 0.284240 -3.435432 -0.973424 0.228681 0.012229 0.166667 0.060817 1 1 1.000000
  1 -1.179490 0.242680 2.002863 -0.955011 0.161074 0.249016 0.166667 0.731715 1 1 1.000000
  1 -1.034058 0.645326 2.005143 -0.841821 0.477894 0.250908 0.111111 0.731715 1 1 1.000000
W_Garb_BeerBottle(256x128)
  1 -1.236957 -0.163344 -3.438068 -0.992957 -0.118036 0.010199 0.222222 0.060817 1 1 1.000000
  1 -1.179490 0.242680 2.002863 -0.955011 0.161074 0.249016 0.166667 0.731715 1 1 1.000000
  1 -1.238058 0.284240 -3.435432 -0.973424 0.228681 0.012229 0.166667 0.060817 1 1 1.000000
W_Garb_BeerBottle(256x128)
  1 -1.236957 -0.163344 -3.438068 -0.992957 -0.118036 0.010199 0.222222 0.060817 1 1 1.000000
  1 -1.178448 -0.185425 2.000350 -0.952966 -0.175451 0.247129 0.222222 0.731715 1 1 1.000000
  1 -1.179490 0.242680 2.002863 -0.955011 0.161074 0.249016 0.166667 0.731715 1 1 1.000000
W_Garb_BeerBottle(256x128)
  1 -1.082852 -0.583561 -3.440627 -0.892704 -0.450570 0.008188 0.277778 0.060817 1 1 1.000000
  1 -1.178448 -0.185425 2.000350 -0.952966 -0.175451 0.247129 0.222222 0.731715 1 1 1.000000
  1 -1.236957 -0.163344 -3.438068 -0.992957 -0.118036 0.010199 0.222222 0.060817 1 1 1.000000
W_Garb_BeerBottle(256x128)
  1 -1.082852 -0.583561 -3.440627 -0.892704 -0.450570 0.008188 0.277778 0.060817 1 1 1.000000
  1 -1.031042 -0.587353 1.997903 -0.836019 -0.490907 0.245117 0.277778 0.731715 1 1 1.000000
  1 -1.178448 -0.185425 2.000350 -0.952966 -0.175451 0.247129 0.222222 0.731715 1 1 1.000000
W_Garb_BeerBottle(256x128)
  1 -0.794303 -0.925728 -3.442810 -0.684809 -0.728694 0.006431 0.333333 0.060817 1 1 1.000000
  1 -1.031042 -0.587353 1.997903 -0.836019 -0.490907 0.245117 0.277778 0.731715 1 1 1.000000
  1 -1.082852 -0.583561 -3.440627 -0.892704 -0.450570 0.008188 0.277778 0.060817 1 1 1.000000
W_Garb_BeerBottle(256x128)
  1 -0.794303 -0.925728 -3.442810 -0.684809 -0.728694 0.006431 0.333333 0.060817 1 1 1.000000
  1 -0.755052 -0.914625 1.995809 -0.591498 -0.768242 0.244814 0.333333 0.731715 1 1 1.000000
  1 -1.031042 -0.587353 1.997903 -0.836019 -0.490907 0.245117 0.277778 0.731715 1 1 1.000000
W_Garb_BeerBottle(256x128)
  1 -0.406128 -1.148568 -3.444362 -0.361588 -0.932278 0.010571 0.388889 0.060817 1 1 1.000000
  1 -0.755052 -0.914625 1.995809 -0.591498 -0.768242 0.244814 0.333333 0.731715 1 1 1.000000
  1 -0.794303 -0.925728 -3.442810 -0.684809 -0.728694 0.006431 0.333333 0.060817 1 1 1.000000
W_Garb_BeerBottle(256x128)
  1 -0.406128 -1.148568 -3.444362 -0.361588 -0.932278 0.010571 0.388889 0.060817 1 1 1.000000
  1 -0.368487 -1.085464 1.995507 -0.327266 -0.916665 0.229395 0.388889 0.731812 1 1 1.000000
  1 -0.755052 -0.914625 1.995809 -0.591498 -0.768242 0.244814 0.333333 0.731715 1 1 1.000000
W_Garb_BeerBottle(256x128)
  1 0.034854 -1.225216 -3.445078 -0.091264 -0.995800 0.007243 0.444444 0.060817 1 1 1.000000
  1 -0.368487 -1.085464 1.995507 -0.327266 -0.916665 0.229395 0.388889 0.731812 1 1 1.000000
  1 -0.406128 -1.148568 -3.444362 -0.361588 -0.932278 0.010571 0.388889 0.060817 1 1 1.000000
W_Garb_BeerBottle(256x128)
  1 0.034854 -1.225216 -3.445078 -0.091264 -0.995800 0.007243 0.444444 0.060817 1 1 1.000000
  1 0.038016 -1.201078 1.993643 -0.028321 -0.970882 0.237878 0.444444 0.731715 1 1 1.000000
  1 -0.368487 -1.085464 1.995507 -0.327266 -0.916665 0.229395 0.388889 0.731812 1 1 1.000000
W_Garb_BeerBottle(256x128)
  1 0.475457 -1.146413 -3.444880 0.288617 -0.957434 0.004493 0.500000 0.060817 1 1 1.000000
  1 0.038016 -1.201078 1.993643 -0.028321 -0.970882 0.237878 0.444444 0.731715 1 1 1.000000
  1 0.034854 -1.225216 -3.445078 -0.091264 -0.995800 0.007243 0.444444 0.060817 1 1 1.000000
W_Garb_BeerBottle(256x128)
  1 0.475457 -1.146413 -3.444880 0.288617 -0.957434 0.004493 0.500000 0.060817 1 1 1.000000
  1 0.459443 -1.125709 1.993832 0.336973 -0.909897 0.241943 0.500000 0.731715 1 1 1.000000
  1 0.038016 -1.201078 1.993643 -0.028321 -0.970882 0.237878 0.444444 0.731715 1 1 1.000000
W_Garb_BeerBottle(256x128)
  1 0.862535 -0.921672 -3.443795 0.598662 -0.800984 0.005226 0.555556 0.060817 1 1 1.000000
  1 0.459443 -1.125709 1.993832 0.336973 -0.909897 0.241943 0.500000 0.731715 1 1 1.000000
  1 0.475457 -1.146413 -3.444880 0.288617 -0.957434 0.004493 0.500000 0.060817 1 1 1.000000
W_Garb_BeerBottle(256x128)
  1 0.862535 -0.921672 -3.443795 0.598662 -0.800984 0.005226 0.555556 0.060817 1 1 1.000000
  1 0.829675 -0.910742 1.994873 0.627384 -0.739886 0.242813 0.555556 0.731715 1 1 1.000000
  1 0.459443 -1.125709 1.993832 0.336973 -0.909897 0.241943 0.500000 0.731715 1 1 1.000000
W_Garb_BeerBottle(256x128)
  1 1.149402 -0.578093 -3.441953 0.836498 -0.547930 0.006569 0.611111 0.060817 1 1 1.000000
  1 0.829675 -0.910742 1.994873 0.627384 -0.739886 0.242813 0.555556 0.731715 1 1 1.000000
  1 0.862535 -0.921672 -3.443795 0.598662 -0.800984 0.005226 0.555556 0.060817 1 1 1.000000
W_Garb_BeerBottle(256x128)
  1 1.149402 -0.578093 -3.441953 0.836498 -0.547930 0.006569 0.611111 0.060817 1 1 1.000000
  1 1.104057 -0.582122 1.996637 0.842121 -0.480831 0.244200 0.611111 0.731715 1 1 1.000000
  1 0.829675 -0.910742 1.994873 0.627384 -0.739886 0.242813 0.555556 0.731715 1 1 1.000000
W_Garb_BeerBottle(256x128)
  1 -1.179490 0.242680 2.002863 -0.955011 0.161074 0.249016 0.166667 0.731715 1 1 1.000000
  1 -0.622314 0.404030 2.894279 -0.826548 0.476638 0.299392 0.111111 0.797233 1 1 1.000000
  1 -1.034058 0.645326 2.005143 -0.841821 0.477894 0.250908 0.111111 0.731715 1 1 1.000000
W_Garb_BeerBottle(256x128)
  1 -1.034058 0.645326 2.005143 -0.841821 0.477894 0.250908 0.111111 0.731715 1 1 1.000000
  1 -0.622314 0.404030 2.894279 -0.826548 0.476638 0.299392 0.111111 0.797233 1 1 1.000000
  1 -0.453470 0.606251 2.895366 -0.613073 0.730539 0.300756 0.055556 0.797233 1 1 1.000000
W_Garb_BeerBottle(256x128)
  1 -1.034058 0.645326 2.005143 -0.841821 0.477894 0.250908 0.111111 0.731715 1 1 1.000000
  1 -0.453470 0.606251 2.895366 -0.613073 0.730539 0.300756 0.055556 0.797233 1 1 1.000000
  1 -0.759672 0.973947 2.006908 -0.627082 0.736979 0.252250 0.055556 0.731715 1 1 1.000000
W_Garb_BeerBottle(256x128)
  1 -1.085995 0.705208 -3.433051 -0.836480 0.547818 0.014022 0.111111 0.060817 1 1 1.000000
  1 -1.034058 0.645326 2.005143 -0.841821 0.477894 0.250908 0.111111 0.731715 1 1 1.000000
  1 -0.759672 0.973947 2.006908 -0.627082 0.736979 0.252250 0.055556 0.731715 1 1 1.000000
W_Garb_BeerBottle(256x128)
  1 -1.085995 0.705208 -3.433051 -0.836480 0.547818 0.014022 0.111111 0.060817 1 1 1.000000
  1 -0.759672 0.973947 2.006908 -0.627082 0.736979 0.252250 0.055556 0.731715 1 1 1.000000
  1 -0.799132 1.048782 -3.431209 -0.598652 0.800862 0.015366 0.055556 0.060817 1 1 1.000000
W_Garb_BeerBottle(256x128)
  1 -0.377881 0.511264 3.932550 -0.640771 0.759282 0.113591 0.055556 0.824370 1 1 1.000000
  1 -0.112526 0.417525 5.872449 -0.302758 0.907675 -0.290626 0.000000 1.025500 1 1 1.000000
  1 -0.184978 0.623266 3.933101 -0.324219 0.938764 0.116639 0.000000 0.824370 1 1 1.000000
W_Garb_BeerBottle(256x128)
  1 -0.453470 0.606251 2.895366 -0.613073 0.730539 0.300756 0.055556 0.797233 1 1 1.000000
  1 -0.377881 0.511264 3.932550 -0.640771 0.759282 0.113591 0.055556 0.824370 1 1 1.000000
  1 -0.184978 0.623266 3.933101 -0.324219 0.938764 0.116639 0.000000 0.824370 1 1 1.000000
W_Garb_BeerBottle(256x128)
  1 -0.453470 0.606251 2.895366 -0.613073 0.730539 0.300756 0.055556 0.797233 1 1 1.000000
  1 -0.184978 0.623266 3.933101 -0.324219 0.938764 0.116639 0.000000 0.824370 1 1 1.000000
  1 -0.225644 0.738530 2.896008 -0.325645 0.896102 0.301591 0.000000 0.797233 1 1 1.000000
W_Garb_BeerBottle(256x128)
  1 -0.759672 0.973947 2.006908 -0.627082 0.736979 0.252250 0.055556 0.731715 1 1 1.000000
  1 -0.453470 0.606251 2.895366 -0.613073 0.730539 0.300756 0.055556 0.797233 1 1 1.000000
  1 -0.225644 0.738530 2.896008 -0.325645 0.896102 0.301591 0.000000 0.797233 1 1 1.000000
W_Garb_BeerBottle(256x128)
  1 -0.759672 0.973947 2.006908 -0.627082 0.736979 0.252250 0.055556 0.731715 1 1 1.000000
  1 -0.225644 0.738530 2.896008 -0.325645 0.896102 0.301591 0.000000 0.797233 1 1 1.000000
  1 -0.389440 1.188911 2.007947 -0.336692 0.906969 0.253072 0.000000 0.731715 1 1 1.000000
W_Garb_BeerBottle(256x128)
  1 -0.799132 1.048782 -3.431209 -0.598652 0.800862 0.015366 0.055556 0.060817 1 1 1.000000
  1 -0.759672 0.973947 2.006908 -0.627082 0.736979 0.252250 0.055556 0.731715 1 1 1.000000
  1 -0.389440 1.188911 2.007947 -0.336692 0.906969 0.253072 0.000000 0.731715 1 1 1.000000
W_Garb_BeerBottle(256x128)
  1 -0.799132 1.048782 -3.431209 -0.598652 0.800862 0.015366 0.055556 0.060817 1 1 1.000000
  1 -0.389440 1.188911 2.007947 -0.336692 0.906969 0.253072 0.000000 0.731715 1 1 1.000000
  1 -0.412055 1.273528 -3.430124 -0.288609 0.957312 0.016097 0.000000 0.060817 1 1 1.000000
W_Garb_BeerBottle(256x128)
  1 1.301456 -0.157126 -3.439571 0.973436 -0.228805 0.008359 0.666667 0.060817 1 1 1.000000
  1 1.104057 -0.582122 1.996637 0.842121 -0.480831 0.244200 0.611111 0.731715 1 1 1.000000
  1 1.149402 -0.578093 -3.441953 0.836498 -0.547930 0.006569 0.611111 0.060817 1 1 1.000000
W_Garb_BeerBottle(256x128)
  1 1.301456 -0.157126 -3.439571 0.973436 -0.228805 0.008359 0.666667 0.060817 1 1 1.000000
  1 1.249501 -0.179477 1.998907 0.955304 -0.163955 0.245992 0.666667 0.731715 1 1 1.000000
  1 1.104057 -0.582122 1.996637 0.842121 -0.480831 0.244200 0.611111 0.731715 1 1 1.000000
W_Garb_BeerBottle(256x128)
  1 1.300364 0.290458 -3.436937 0.992969 0.117916 0.010385 0.722222 0.060817 1 1 1.000000
  1 1.249501 -0.179477 1.998907 0.955304 -0.163955 0.245992 0.666667 0.731715 1 1 1.000000
  1 1.301456 -0.157126 -3.439571 0.973436 -0.228805 0.008359 0.666667 0.060817 1 1 1.000000
W_Garb_BeerBottle(256x128)
  1 1.300364 0.290458 -3.436937 0.992969 0.117916 0.010385 0.722222 0.060817 1 1 1.000000
  1 1.248449 0.248628 2.001431 0.953280 0.172524 0.247977 0.722222 0.731715 1 1 1.000000
  1 1.249501 -0.179477 1.998907 0.955304 -0.163955 0.245992 0.666667 0.731715 1 1 1.000000
W_Garb_BeerBottle(256x128)
  1 1.146249 0.710676 -3.434379 0.892736 0.450410 0.012402 0.777778 0.060817 1 1 1.000000
  1 1.248449 0.248628 2.001431 0.953280 0.172524 0.247977 0.722222 0.731715 1 1 1.000000
  1 1.300364 0.290458 -3.436937 0.992969 0.117916 0.010385 0.722222 0.060817 1 1 1.000000
W_Garb_BeerBottle(256x128)
  1 1.146249 0.710676 -3.434379 0.892736 0.450410 0.012402 0.777778 0.060817 1 1 1.000000
  1 1.101041 0.650556 2.003878 0.836297 0.488014 0.249898 0.777778 0.731715 1 1 1.000000
  1 1.248449 0.248628 2.001431 0.953280 0.172524 0.247977 0.722222 0.731715 1 1 1.000000
W_Garb_BeerBottle(256x128)
  1 0.857706 1.052841 -3.432194 0.684826 0.728569 0.014162 0.833333 0.060817 1 1 1.000000
  1 1.101041 0.650556 2.003878 0.836297 0.488014 0.249898 0.777778 0.731715 1 1 1.000000
  1 1.146249 0.710676 -3.434379 0.892736 0.450410 0.012402 0.777778 0.060817 1 1 1.000000
W_Garb_BeerBottle(256x128)
  1 0.857706 1.052841 -3.432194 0.684826 0.728569 0.014162 0.833333 0.060817 1 1 1.000000
  1 0.825054 0.977828 2.005971 0.618487 0.744463 0.251493 0.833333 0.731715 1 1 1.000000
  1 1.101041 0.650556 2.003878 0.836297 0.488014 0.249898 0.777778 0.731715 1 1 1.000000
W_Garb_BeerBottle(256x128)
  1 0.469530 1.275682 -3.430642 0.394321 0.918843 0.015455 0.888889 0.060817 1 1 1.000000
  1 0.825054 0.977828 2.005971 0.618487 0.744463 0.251493 0.833333 0.731715 1 1 1.000000
  1 0.857706 1.052841 -3.432194 0.684826 0.728569 0.014162 0.833333 0.060817 1 1 1.000000
W_Garb_BeerBottle(256x128)
  1 0.469530 1.275682 -3.430642 0.394321 0.918843 0.015455 0.888889 0.060817 1 1 1.000000
  1 0.453775 1.190969 2.007442 0.326023 0.910952 0.252736 0.888889 0.731715 1 1 1.000000
  1 0.825054 0.977828 2.005971 0.618487 0.744463 0.251493 0.833333 0.731715 1 1 1.000000
W_Garb_BeerBottle(256x128)
  1 0.028548 1.352330 -3.429924 0.056253 0.998286 0.016130 0.944444 0.060817 1 1 1.000000
  1 0.453775 1.190969 2.007442 0.326023 0.910952 0.252736 0.888889 0.731715 1 1 1.000000
  1 0.469530 1.275682 -3.430642 0.394321 0.918843 0.015455 0.888889 0.060817 1 1 1.000000
W_Garb_BeerBottle(256x128)
  1 0.028548 1.352330 -3.429924 0.056253 0.998286 0.016130 0.944444 0.060817 1 1 1.000000
  1 0.031986 1.264281 2.008137 -0.005671 0.967391 0.253224 0.944444 0.731715 1 1 1.000000
  1 0.453775 1.190969 2.007442 0.326023 0.910952 0.252736 0.888889 0.731715 1 1 1.000000
W_Garb_BeerBottle(256x128)
  1 -0.412055 1.273528 -3.430124 -0.288609 0.957312 0.016097 1.000000 0.060817 1 1 1.000000
  1 0.031986 1.264281 2.008137 -0.005671 0.967391 0.253224 0.944444 0.731715 1 1 1.000000
  1 0.028548 1.352330 -3.429924 0.056253 0.998286 0.016130 0.944444 0.060817 1 1 1.000000
W_Garb_BeerBottle(256x128)
  1 -0.412055 1.273528 -3.430124 -0.288609 0.957312 0.016097 1.000000 0.060817 1 1 1.000000
  1 -0.389440 1.188911 2.007947 -0.336692 0.906969 0.253072 1.000000 0.731715 1 1 1.000000
  1 0.031986 1.264281 2.008137 -0.005671 0.967391 0.253224 0.944444 0.731715 1 1 1.000000
W_Garb_BeerBottle(256x128)
  1 -0.389440 1.188911 2.007947 -0.336692 0.906969 0.253072 1.000000 0.731715 1 1 1.000000
  1 0.033686 0.784911 2.896121 0.001068 0.953381 0.301768 0.944444 0.797233 1 1 1.000000
  1 0.031986 1.264281 2.008137 -0.005671 0.967391 0.253224 0.944444 0.731715 1 1 1.000000
W_Garb_BeerBottle(256x128)
  1 -0.389440 1.188911 2.007947 -0.336692 0.906969 0.253072 1.000000 0.731715 1 1 1.000000
  1 -0.225644 0.738530 2.896008 -0.325645 0.896102 0.301591 1.000000 0.797233 1 1 1.000000
  1 0.033686 0.784911 2.896121 0.001068 0.953381 0.301768 0.944444 0.797233 1 1 1.000000
W_Garb_BeerBottle(256x128)
  1 -0.225644 0.738530 2.896008 -0.325645 0.896102 0.301591 1.000000 0.797233 1 1 1.000000
  1 0.034600 0.662538 3.933198 -0.037345 0.992349 0.117679 0.944444 0.824370 1 1 1.000000
  1 0.033686 0.784911 2.896121 0.001068 0.953381 0.301768 0.944444 0.797233 1 1 1.000000
W_Garb_BeerBottle(256x128)
  1 0.033686 0.784911 2.896121 0.001068 0.953381 0.301768 0.944444 0.797233 1 1 1.000000
  1 0.034600 0.662538 3.933198 -0.037345 0.992349 0.117679 0.944444 0.824370 1 1 1.000000
  1 0.254368 0.624342 3.932842 0.337577 0.933822 0.118399 0.888889 0.824370 1 1 1.000000
W_Garb_BeerBottle(256x128)
  1 0.668419 0.133348 3.929696 0.971508 0.208624 0.112461 0.722222 0.824370 1 1 1.000000
  1 0.466016 0.009918 5.869705 0.946950 0.017478 -0.320903 0.694444 1.025500 1 1 1.000000
  1 0.668965 -0.089709 3.928388 0.978981 -0.170763 0.111519 0.666667 0.824370 1 1 1.000000
W_Garb_BeerBottle(256x128)
  1 0.591615 0.342767 3.930975 0.859302 0.498251 0.115523 0.777778 0.824370 1 1 1.000000
  1 0.466016 0.009918 5.869705 0.946950 0.017478 -0.320903 0.694444 1.025500 1 1 1.000000
  1 0.668419 0.133348 3.929696 0.971508 0.208624 0.112461 0.722222 0.824370 1 1 1.000000
W_Garb_BeerBottle(256x128)
  1 0.591615 0.342767 3.930975 0.859302 0.498251 0.115523 0.777778 0.824370 1 1 1.000000
  1 0.365052 0.285209 5.871386 0.715339 0.622630 -0.317210 0.805555 1.025500 1 1 1.000000
  1 0.466016 0.009918 5.869705 0.946950 0.017478 -0.320903 0.694444 1.025500 1 1 1.000000
W_Garb_BeerBottle(256x128)
  1 0.447817 0.513287 3.932065 0.609711 0.784080 0.116063 0.833333 0.824370 1 1 1.000000
  1 0.365052 0.285209 5.871386 0.715339 0.622630 -0.317210 0.805555 1.025500 1 1 1.000000
  1 0.591615 0.342767 3.930975 0.859302 0.498251 0.115523 0.777778 0.824370 1 1 1.000000
W_Garb_BeerBottle(256x128)
  1 0.254368 0.624342 3.932842 0.337577 0.933822 0.118399 0.888889 0.824370 1 1 1.000000
  1 0.365052 0.285209 5.871386 0.715339 0.622630 -0.317210 0.805555 1.025500 1 1 1.000000
  1 0.447817 0.513287 3.932065 0.609711 0.784080 0.116063 0.833333 0.824370 1 1 1.000000
W_Garb_BeerBottle(256x128)
  1 0.293240 0.739801 2.895696 0.327718 0.895481 0.301189 0.888889 0.797233 1 1 1.000000
  1 0.254368 0.624342 3.932842 0.337577 0.933822 0.118399 0.888889 0.824370 1 1 1.000000
  1 0.447817 0.513287 3.932065 0.609711 0.784080 0.116063 0.833333 0.824370 1 1 1.000000
W_Garb_BeerBottle(256x128)
  1 0.033686 0.784911 2.896121 0.001068 0.953381 0.301768 0.944444 0.797233 1 1 1.000000
  1 0.254368 0.624342 3.932842 0.337577 0.933822 0.118399 0.888889 0.824370 1 1 1.000000
  1 0.293240 0.739801 2.895696 0.327718 0.895481 0.301189 0.888889 0.797233 1 1 1.000000
W_Garb_BeerBottle(256x128)
  1 0.031986 1.264281 2.008137 -0.005671 0.967391 0.253224 0.944444 0.731715 1 1 1.000000
  1 0.033686 0.784911 2.896121 0.001068 0.953381 0.301768 0.944444 0.797233 1 1 1.000000
  1 0.293240 0.739801 2.895696 0.327718 0.895481 0.301189 0.888889 0.797233 1 1 1.000000
W_Garb_BeerBottle(256x128)
  1 0.031986 1.264281 2.008137 -0.005671 0.967391 0.253224 0.944444 0.731715 1 1 1.000000
  1 0.293240 0.739801 2.895696 0.327718 0.895481 0.301189 0.888889 0.797233 1 1 1.000000
  1 0.453775 1.190969 2.007442 0.326023 0.910952 0.252736 0.888889 0.731715 1 1 1.000000
W_Garb_BeerBottle(256x128)
  1 0.453775 1.190969 2.007442 0.326023 0.910952 0.252736 0.888889 0.731715 1 1 1.000000
  1 0.293240 0.739801 2.895696 0.327718 0.895481 0.301189 0.888889 0.797233 1 1 1.000000
  1 0.521710 0.608640 2.894784 0.614812 0.729355 0.300079 0.833333 0.797233 1 1 1.000000
W_Garb_BeerBottle(256x128)
  1 0.453775 1.190969 2.007442 0.326023 0.910952 0.252736 0.888889 0.731715 1 1 1.000000
  1 0.521710 0.608640 2.894784 0.614812 0.729355 0.300079 0.833333 0.797233 1 1 1.000000
  1 0.825054 0.977828 2.005971 0.618487 0.744463 0.251493 0.833333 0.731715 1 1 1.000000
W_Garb_BeerBottle(256x128)
  1 0.825054 0.977828 2.005971 0.618487 0.744463 0.251493 0.833333 0.731715 1 1 1.000000
  1 0.521710 0.608640 2.894784 0.614812 0.729355 0.300079 0.833333 0.797233 1 1 1.000000
  1 0.691542 0.407249 2.893497 0.827819 0.475040 0.298417 0.777778 0.797233 1 1 1.000000
W_Garb_BeerBottle(256x128)
  1 0.825054 0.977828 2.005971 0.618487 0.744463 0.251493 0.833333 0.731715 1 1 1.000000
  1 0.691542 0.407249 2.893497 0.827819 0.475040 0.298417 0.777778 0.797233 1 1 1.000000
  1 1.101041 0.650556 2.003878 0.836297 0.488014 0.249898 0.777778 0.731715 1 1 1.000000
W_Garb_BeerBottle(256x128)
  1 1.101041 0.650556 2.003878 0.836297 0.488014 0.249898 0.777778 0.731715 1 1 1.000000
  1 0.691542 0.407249 2.893497 0.827819 0.475040 0.298417 0.777778 0.797233 1 1 1.000000
  1 0.782250 0.159917 2.891987 0.940991 0.163207 0.296480 0.722222 0.797233 1 1 1.000000
W_Garb_BeerBottle(256x128)
  1 1.101041 0.650556 2.003878 0.836297 0.488014 0.249898 0.777778 0.731715 1 1 1.000000
  1 0.782250 0.159917 2.891987 0.940991 0.163207 0.296480 0.722222 0.797233 1 1 1.000000
  1 1.248449 0.248628 2.001431 0.953280 0.172524 0.247977 0.722222 0.731715 1 1 1.000000
W_Garb_BeerBottle(256x128)
  1 1.248449 0.248628 2.001431 0.953280 0.172524 0.247977 0.722222 0.731715 1 1 1.000000
  1 0.782250 0.159917 2.891987 0.940991 0.163207 0.296480 0.722222 0.797233 1 1 1.000000
  1 0.782896 -0.103522 2.890443 0.940651 -0.168466 0.294609 0.666667 0.797233 1 1 1.000000
W_Garb_BeerBottle(256x128)
  1 1.248449 0.248628 2.001431 0.953280 0.172524 0.247977 0.722222 0.731715 1 1 1.000000
  1 0.782896 -0.103522 2.890443 0.940651 -0.168466 0.294609 0.666667 0.797233 1 1 1.000000
  1 1.249501 -0.179477 1.998907 0.955304 -0.163955 0.245992 0.666667 0.731715 1 1 1.000000
W_Garb_BeerBottle(256x128)
  1 1.249501 -0.179477 1.998907 0.955304 -0.163955 0.245992 0.666667 0.731715 1 1 1.000000
  1 0.782896 -0.103522 2.890443 0.940651 -0.168466 0.294609 0.666667 0.797233 1 1 1.000000
  1 0.693398 -0.351295 2.889043 0.826909 -0.480066 0.292844 0.611111 0.797233 1 1 1.000000
W_Garb_BeerBottle(256x128)
  1 0.693398 -0.351295 2.889043 0.826909 -0.480066 0.292844 0.611111 0.797233 1 1 1.000000
  1 0.593186 -0.299502 3.927202 0.878758 -0.464757 0.108563 0.611111 0.824370 1 1 1.000000
  1 0.450224 -0.470725 3.926280 0.640649 -0.760160 0.108283 0.555556 0.824370 1 1 1.000000
W_Garb_BeerBottle(256x128)
  1 0.782896 -0.103522 2.890443 0.940651 -0.168466 0.294609 0.666667 0.797233 1 1 1.000000
  1 0.593186 -0.299502 3.927202 0.878758 -0.464757 0.108563 0.611111 0.824370 1 1 1.000000
  1 0.693398 -0.351295 2.889043 0.826909 -0.480066 0.292844 0.611111 0.797233 1 1 1.000000
W_Garb_BeerBottle(256x128)
  1 0.782896 -0.103522 2.890443 0.940651 -0.168466 0.294609 0.666667 0.797233 1 1 1.000000
  1 0.668965 -0.089709 3.928388 0.978981 -0.170763 0.111519 0.666667 0.824370 1 1 1.000000
  1 0.593186 -0.299502 3.927202 0.878758 -0.464757 0.108563 0.611111 0.824370 1 1 1.000000
W_Garb_BeerBottle(256x128)
  1 0.782250 0.159917 2.891987 0.940991 0.163207 0.296480 0.722222 0.797233 1 1 1.000000
  1 0.668965 -0.089709 3.928388 0.978981 -0.170763 0.111519 0.666667 0.824370 1 1 1.000000
  1 0.782896 -0.103522 2.890443 0.940651 -0.168466 0.294609 0.666667 0.797233 1 1 1.000000
W_Garb_BeerBottle(256x128)
  1 0.782250 0.159917 2.891987 0.940991 0.163207 0.296480 0.722222 0.797233 1 1 1.000000
  1 0.668419 0.133348 3.929696 0.971508 0.208624 0.112461 0.722222 0.824370 1 1 1.000000
  1 0.668965 -0.089709 3.928388 0.978981 -0.170763 0.111519 0.666667 0.824370 1 1 1.000000
W_Garb_BeerBottle(256x128)
  1 0.691542 0.407249 2.893497 0.827819 0.475040 0.298417 0.777778 0.797233 1 1 1.000000
  1 0.668419 0.133348 3.929696 0.971508 0.208624 0.112461 0.722222 0.824370 1 1 1.000000
  1 0.782250 0.159917 2.891987 0.940991 0.163207 0.296480 0.722222 0.797233 1 1 1.000000
W_Garb_BeerBottle(256x128)
  1 0.691542 0.407249 2.893497 0.827819 0.475040 0.298417 0.777778 0.797233 1 1 1.000000
  1 0.591615 0.342767 3.930975 0.859302 0.498251 0.115523 0.777778 0.824370 1 1 1.000000
  1 0.668419 0.133348 3.929696 0.971508 0.208624 0.112461 0.722222 0.824370 1 1 1.000000
W_Garb_BeerBottle(256x128)
  1 0.521710 0.608640 2.894784 0.614812 0.729355 0.300079 0.833333 0.797233 1 1 1.000000
  1 0.591615 0.342767 3.930975 0.859302 0.498251 0.115523 0.777778 0.824370 1 1 1.000000
  1 0.691542 0.407249 2.893497 0.827819 0.475040 0.298417 0.777778 0.797233 1 1 1.000000
W_Garb_BeerBottle(256x128)
  1 0.521710 0.608640 2.894784 0.614812 0.729355 0.300079 0.833333 0.797233 1 1 1.000000
  1 0.447817 0.513287 3.932065 0.609711 0.784080 0.116063 0.833333 0.824370 1 1 1.000000
  1 0.591615 0.342767 3.930975 0.859302 0.498251 0.115523 0.777778 0.824370 1 1 1.000000
W_Garb_BeerBottle(256x128)
  1 0.293240 0.739801 2.895696 0.327718 0.895481 0.301189 0.888889 0.797233 1 1 1.000000
  1 0.447817 0.513287 3.932065 0.609711 0.784080 0.116063 0.833333 0.824370 1 1 1.000000
  1 0.521710 0.608640 2.894784 0.614812 0.729355 0.300079 0.833333 0.797233 1 1 1.000000
W_Garb_BeerBottle(256x128)
  1 0.164491 0.358363 6.202901 -0.333778 -0.925811 0.177389 -0.111111 1.059800 1 1 1.000000
  1 0.018192 0.033653 4.232935 0.005010 -0.009580 0.999942 0.083333 0.855818 1 1 1.000000
  1 0.277038 0.293752 6.202447 -0.629274 -0.755459 0.182471 -0.166667 1.059800 1 1 1.000000
W_Garb_BeerBottle(256x128)
  1 0.277038 0.293752 6.202447 -0.629274 -0.755459 0.182471 -0.166667 1.059800 1 1 1.000000
  1 0.018192 0.033653 4.232935 0.005010 -0.009580 0.999942 0.083333 0.855818 1 1 1.000000
  1 0.360698 0.194545 6.201813 -0.848710 -0.494301 0.188036 -0.222222 1.059800 1 1 1.000000
W_Garb_BeerBottle(256x128)
  1 0.360698 0.194545 6.201813 -0.848710 -0.494301 0.188036 -0.222222 1.059800 1 1 1.000000
  1 0.018192 0.033653 4.232935 0.005010 -0.009580 0.999942 0.083333 0.855818 1 1 1.000000
  1 0.405381 0.072710 6.201070 -0.965541 -0.174138 0.193406 -0.277778 1.059800 1 1 1.000000
W_Garb_BeerBottle(256x128)
  1 0.405381 0.072710 6.201070 -0.965541 -0.174138 0.193406 -0.277778 1.059800 1 1 1.000000
  1 0.018192 0.033653 4.232935 0.005010 -0.009580 0.999942 0.083333 0.855818 1 1 1.000000
  1 0.405698 -0.057061 6.200315 -0.966034 0.166129 0.197937 -0.333333 1.059800 1 1 1.000000
W_Garb_BeerBottle(256x128)
  1 0.405698 -0.057061 6.200315 -0.966034 0.166129 0.197937 -0.333333 1.059800 1 1 1.000000
  1 0.018192 0.033653 4.232935 0.005010 -0.009580 0.999942 0.083333 0.855818 1 1 1.000000
  1 0.361611 -0.179115 6.199616 -0.850321 0.486327 0.201096 -0.388889 1.059800 1 1 1.000000
W_Garb_BeerBottle(256x128)
  1 0.361611 -0.179115 6.199616 -0.850321 0.486327 0.201096 -0.388889 1.059800 1 1 1.000000
  1 0.018192 0.033653 4.232935 0.005010 -0.009580 0.999942 0.083333 0.855818 1 1 1.000000
  1 0.278439 -0.278729 6.199082 -0.631123 0.748782 0.202507 0.555556 1.059800 1 1 1.000000
W_Garb_BeerBottle(256x128)
  1 0.278439 -0.278729 6.199082 -0.631123 0.748782 0.202507 0.555556 1.059800 1 1 1.000000
  1 0.018192 0.033653 4.232935 0.005010 -0.009580 0.999942 0.083333 0.855818 1 1 1.000000
  1 0.166211 -0.343890 6.198771 -0.337401 0.919436 0.201984 0.500000 1.059800 1 1 1.000000
W_Garb_BeerBottle(256x128)
  1 0.166211 -0.343890 6.198771 -0.337401 0.919436 0.201984 0.500000 1.059800 1 1 1.000000
  1 0.018192 0.033653 4.232935 0.005010 -0.009580 0.999942 0.083333 0.855818 1 1 1.000000
  1 0.038464 -0.366737 6.198717 -0.002119 0.979874 0.199603 0.444444 1.059800 1 1 1.000000
W_Garb_BeerBottle(256x128)
  1 0.038464 -0.366737 6.198717 -0.002119 0.979874 0.199603 0.444444 1.059800 1 1 1.000000
  1 0.018192 0.033653 4.232935 0.005010 -0.009580 0.999942 0.083333 0.855818 1 1 1.000000
  1 -0.089392 -0.344516 6.198924 0.333727 0.922144 0.195643 0.388889 1.059800 1 1 1.000000
W_Garb_BeerBottle(256x128)
  1 -0.089392 -0.344516 6.198924 0.333727 0.922144 0.195643 0.388889 1.059800 1 1 1.000000
  1 0.018192 0.033653 4.232935 0.005010 -0.009580 0.999942 0.083333 0.855818 1 1 1.000000
  1 -0.201939 -0.279906 6.199368 0.629942 0.752898 0.190572 0.333333 1.059800 1 1 1.000000
W_Garb_BeerBottle(256x128)
  1 -0.201939 -0.279906 6.199368 0.629942 0.752898 0.190572 0.333333 1.059800 1 1 1.000000
  1 0.018192 0.033653 4.232935 0.005010 -0.009580 0.999942 0.083333 0.855818 1 1 1.000000
  1 -0.285598 -0.180701 6.200003 0.850379 0.492572 0.185007 0.277778 1.059800 1 1 1.000000
W_Garb_BeerBottle(256x128)
  1 -0.285598 -0.180701 6.200003 0.850379 0.492572 0.185007 0.277778 1.059800 1 1 1.000000
  1 0.018192 0.033653 4.232935 0.005010 -0.009580 0.999942 0.083333 0.855818 1 1 1.000000
  1 -0.330283 -0.058864 6.200746 0.968561 0.172131 0.179612 0.222222 1.059800 1 1 1.000000
W_Garb_BeerBottle(256x128)
  1 -0.330283 -0.058864 6.200746 0.968561 0.172131 0.179612 0.222222 1.059800 1 1 1.000000
  1 0.018192 0.033653 4.232935 0.005010 -0.009580 0.999942 0.083333 0.855818 1 1 1.000000
  1 -0.330599 0.070907 6.201509 0.969952 -0.168966 0.175053 0.166667 1.059800 1 1 1.000000
W_Garb_BeerBottle(256x128)
  1 -0.330599 0.070907 6.201509 0.969952 -0.168966 0.175053 0.166667 1.059800 1 1 1.000000
  1 0.018192 0.033653 4.232935 0.005010 -0.009580 0.999942 0.083333 0.855818 1 1 1.000000
  1 -0.286513 0.192960 6.202199 0.854037 -0.491001 0.171866 0.111111 1.059800 1 1 1.000000
W_Garb_BeerBottle(256x128)
  1 -0.286513 0.192960 6.202199 0.854037 -0.491001 0.171866 0.111111 1.059800 1 1 1.000000
  1 0.018192 0.033653 4.232935 0.005010 -0.009580 0.999942 0.083333 0.855818 1 1 1.000000
  1 -0.203340 0.292575 6.202734 0.634619 -0.753793 0.170454 0.055555 1.059800 1 1 1.000000
W_Garb_BeerBottle(256x128)
  1 -0.203340 0.292575 6.202734 0.634619 -0.753793 0.170454 0.055555 1.059800 1 1 1.000000
  1 0.018192 0.033653 4.232935 0.005010 -0.009580 0.999942 0.083333 0.855818 1 1 1.000000
  1 -0.091112 0.357736 6.203053 0.338877 -0.925162 0.170990 0.000000 1.059800 1 1 1.000000
W_Garb_BeerBottle(256x128)
  1 -0.091112 0.357736 6.203053 0.338877 -0.925162 0.170990 0.000000 1.059800 1 1 1.000000
  1 0.018192 0.033653 4.232935 0.005010 -0.009580 0.999942 0.083333 0.855818 1 1 1.000000
  1 0.036636 0.380583 6.203111 0.002137 -0.984848 0.173404 -0.055556 1.059800 1 1 1.000000
W_Garb_BeerBottle(256x128)
  1 0.036636 0.380583 6.203111 0.002137 -0.984848 0.173404 -0.055556 1.059800 1 1 1.000000
  1 0.018192 0.033653 4.232935 0.005010 -0.009580 0.999942 0.083333 0.855818 1 1 1.000000
  1 0.164491 0.358363 6.202901 -0.333778 -0.925811 0.177389 -0.111111 1.059800 1 1 1.000000
W_Garb_BeerBottle(256x128)
  1 -0.245260 0.342285 6.203211 0.001271 -0.008110 0.999966 0.055556 1.059820 1 1 1.000000
  1 -0.091112 0.357736 6.203053 0.001892 -0.007979 0.999966 0.000000 1.059800 1 1 1.000000
  1 -0.113502 0.418785 6.203579 0.000492 -0.008661 0.999962 0.000000 1.059820 1 1 1.000000
W_Garb_BeerBottle(256x128)
  1 -0.245260 0.342285 6.203211 0.001271 -0.008110 0.999966 0.055556 1.059820 1 1 1.000000
  1 -0.203340 0.292575 6.202734 0.002689 -0.007026 0.999972 0.055555 1.059800 1 1 1.000000
  1 -0.091112 0.357736 6.203053 0.001892 -0.007979 0.999966 0.000000 1.059800 1 1 1.000000
W_Garb_BeerBottle(256x128)
  1 -0.342907 0.225335 6.202579 0.002676 -0.007076 0.999971 0.111111 1.059820 1 1 1.000000
  1 -0.203340 0.292575 6.202734 0.002689 -0.007026 0.999972 0.055555 1.059800 1 1 1.000000
  1 -0.245260 0.342285 6.203211 0.001271 -0.008110 0.999966 0.055556 1.059820 1 1 1.000000
W_Garb_BeerBottle(256x128)
  1 -0.342907 0.225335 6.202579 0.002676 -0.007076 0.999971 0.111111 1.059820 1 1 1.000000
  1 -0.286513 0.192960 6.202199 0.003022 -0.006607 0.999974 0.111111 1.059800 1 1 1.000000
  1 -0.203340 0.292575 6.202734 0.002689 -0.007026 0.999972 0.055555 1.059800 1 1 1.000000
W_Garb_BeerBottle(256x128)
  1 -0.394666 0.082041 6.201766 0.002929 -0.006249 0.999976 0.166667 1.059820 1 1 1.000000
  1 -0.286513 0.192960 6.202199 0.003022 -0.006607 0.999974 0.111111 1.059800 1 1 1.000000
  1 -0.342907 0.225335 6.202579 0.002676 -0.007076 0.999971 0.111111 1.059820 1 1 1.000000
W_Garb_BeerBottle(256x128)
  1 -0.394666 0.082041 6.201766 0.002929 -0.006249 0.999976 0.166667 1.059820 1 1 1.000000
  1 -0.330599 0.070907 6.201509 0.003389 -0.005403 0.999980 0.166667 1.059800 1 1 1.000000
  1 -0.286513 0.192960 6.202199 0.003022 -0.006607 0.999974 0.111111 1.059800 1 1 1.000000
W_Garb_BeerBottle(256x128)
  1 -0.394294 -0.070313 6.200880 0.003057 -0.005455 0.999980 0.222222 1.059820 1 1 1.000000
  1 -0.330599 0.070907 6.201509 0.003389 -0.005403 0.999980 0.166667 1.059800 1 1 1.000000
  1 -0.394666 0.082041 6.201766 0.002929 -0.006249 0.999976 0.166667 1.059820 1 1 1.000000
W_Garb_BeerBottle(256x128)
  1 -0.394294 -0.070313 6.200880 0.003057 -0.005455 0.999980 0.222222 1.059820 1 1 1.000000
  1 -0.330283 -0.058864 6.200746 0.002389 -0.004659 0.999986 0.222222 1.059800 1 1 1.000000
  1 -0.330599 0.070907 6.201509 0.003389 -0.005403 0.999980 0.166667 1.059800 1 1 1.000000
W_Garb_BeerBottle(256x128)
  1 -0.341834 -0.213351 6.200000 0.003117 -0.005468 0.999980 0.277778 1.059820 1 1 1.000000
  1 -0.330283 -0.058864 6.200746 0.002389 -0.004659 0.999986 0.222222 1.059800 1 1 1.000000
  1 -0.394294 -0.070313 6.200880 0.003057 -0.005455 0.999980 0.222222 1.059820 1 1 1.000000
W_Garb_BeerBottle(256x128)
  1 -0.341834 -0.213351 6.200000 0.003117 -0.005468 0.999980 0.277778 1.059820 1 1 1.000000
  1 -0.285598 -0.180701 6.200003 0.002318 -0.003984 0.999989 0.277778 1.059800 1 1 1.000000
  1 -0.330283 -0.058864 6.200746 0.002389 -0.004659 0.999986 0.222222 1.059800 1 1 1.000000
W_Garb_BeerBottle(256x128)
  1 -0.243617 -0.329822 6.199260 0.002452 -0.004395 0.999987 0.333333 1.059820 1 1 1.000000
  1 -0.285598 -0.180701 6.200003 0.002318 -0.003984 0.999989 0.277778 1.059800 1 1 1.000000
  1 -0.341834 -0.213351 6.200000 0.003117 -0.005468 0.999980 0.277778 1.059820 1 1 1.000000
W_Garb_BeerBottle(256x128)
  1 -0.243617 -0.329822 6.199260 0.002452 -0.004395 0.999987 0.333333 1.059820 1 1 1.000000
  1 -0.201939 -0.279906 6.199368 0.002162 -0.004016 0.999990 0.333333 1.059800 1 1 1.000000
  1 -0.285598 -0.180701 6.200003 0.002318 -0.003984 0.999989 0.277778 1.059800 1 1 1.000000
W_Garb_BeerBottle(256x128)
  1 -0.111483 -0.405676 6.198731 0.001411 -0.003648 0.999992 0.388889 1.059820 1 1 1.000000
  1 -0.201939 -0.279906 6.199368 0.002162 -0.004016 0.999990 0.333333 1.059800 1 1 1.000000
  1 -0.243617 -0.329822 6.199260 0.002452 -0.004395 0.999987 0.333333 1.059820 1 1 1.000000
W_Garb_BeerBottle(256x128)
  1 -0.111483 -0.405676 6.198731 0.001411 -0.003648 0.999992 0.388889 1.059820 1 1 1.000000
  1 -0.089392 -0.344516 6.198924 0.001398 -0.003662 0.999992 0.388889 1.059800 1 1 1.000000
  1 -0.201939 -0.279906 6.199368 0.002162 -0.004016 0.999990 0.333333 1.059800 1 1 1.000000
W_Garb_BeerBottle(256x128)
  1 0.038624 -0.431765 6.198485 0.001320 -0.003103 0.999994 0.444444 1.059820 1 1 1.000000
  1 -0.089392 -0.344516 6.198924 0.001398 -0.003662 0.999992 0.388889 1.059800 1 1 1.000000
  1 -0.111483 -0.405676 6.198731 0.001411 -0.003648 0.999992 0.388889 1.059820 1 1 1.000000
W_Garb_BeerBottle(256x128)
  1 0.038624 -0.431765 6.198485 0.001320 -0.003103 0.999994 0.444444 1.059820 1 1 1.000000
  1 0.038464 -0.366737 6.198717 0.000591 -0.003558 0.999993 0.444444 1.059800 1 1 1.000000
  1 -0.089392 -0.344516 6.198924 0.001398 -0.003662 0.999992 0.388889 1.059800 1 1 1.000000
W_Garb_BeerBottle(256x128)
  1 0.188601 -0.404941 6.198555 0.000738 -0.003084 0.999995 0.500000 1.059820 1 1 1.000000
  1 0.038464 -0.366737 6.198717 0.000591 -0.003558 0.999993 0.444444 1.059800 1 1 1.000000
  1 0.038624 -0.431765 6.198485 0.001320 -0.003103 0.999994 0.444444 1.059820 1 1 1.000000
W_Garb_BeerBottle(256x128)
  1 0.188601 -0.404941 6.198555 0.000738 -0.003084 0.999995 0.500000 1.059820 1 1 1.000000
  1 0.166211 -0.343890 6.198771 -0.000658 -0.003788 0.999993 0.500000 1.059800 1 1 1.000000
  1 0.038464 -0.366737 6.198717 0.000591 -0.003558 0.999993 0.444444 1.059800 1 1 1.000000
W_Garb_BeerBottle(256x128)
  1 0.320359 -0.328440 6.198924 -0.000948 -0.003989 0.999992 0.555556 1.059820 1 1 1.000000
  1 0.166211 -0.343890 6.198771 -0.000658 -0.003788 0.999993 0.500000 1.059800 1 1 1.000000
  1 0.188601 -0.404941 6.198555 0.000738 -0.003084 0.999995 0.500000 1.059820 1 1 1.000000
W_Garb_BeerBottle(256x128)
  1 0.320359 -0.328440 6.198924 -0.000948 -0.003989 0.999992 0.555556 1.059820 1 1 1.000000
  1 0.278439 -0.278729 6.199082 -0.000948 -0.003985 0.999992 0.555556 1.059800 1 1 1.000000
  1 0.166211 -0.343890 6.198771 -0.000658 -0.003788 0.999993 0.500000 1.059800 1 1 1.000000
W_Garb_BeerBottle(256x128)
  1 0.418005 -0.211491 6.199548 -0.000912 -0.003900 0.999992 0.611111 1.059820 1 1 1.000000
  1 0.278439 -0.278729 6.199082 -0.000948 -0.003985 0.999992 0.555556 1.059800 1 1 1.000000
  1 0.320359 -0.328440 6.198924 -0.000948 -0.003989 0.999992 0.555556 1.059820 1 1 1.000000
W_Garb_BeerBottle(256x128)
  1 0.418005 -0.211491 6.199548 -0.000912 -0.003900 0.999992 0.611111 1.059820 1 1 1.000000
  1 0.361611 -0.179115 6.199616 -0.001462 -0.004696 0.999988 0.611111 1.059800 1 1 1.000000
  1 0.278439 -0.278729 6.199082 -0.000948 -0.003985 0.999992 0.555556 1.059800 1 1 1.000000
W_Garb_BeerBottle(256x128)
  1 0.469766 -0.068196 6.200360 -0.001819 -0.005047 0.999986 0.666667 1.059820 1 1 1.000000
  1 0.361611 -0.179115 6.199616 -0.001462 -0.004696 0.999988 0.611111 1.059800 1 1 1.000000
  1 0.418005 -0.211491 6.199548 -0.000912 -0.003900 0.999992 0.611111 1.059820 1 1 1.000000
W_Garb_BeerBottle(256x128)
  1 0.469766 -0.068196 6.200360 -0.001819 -0.005047 0.999986 0.666667 1.059820 1 1 1.000000
  1 0.405698 -0.057061 6.200315 -0.001684 -0.005511 0.999983 0.666667 1.059800 1 1 1.000000
  1 0.361611 -0.179115 6.199616 -0.001462 -0.004696 0.999988 0.611111 1.059800 1 1 1.000000
W_Garb_BeerBottle(256x128)
  1 0.469392 0.084157 6.201257 -0.001906 -0.005375 0.999984 0.722222 1.059820 1 1 1.000000
  1 0.405698 -0.057061 6.200315 -0.001684 -0.005511 0.999983 0.666667 1.059800 1 1 1.000000
  1 0.469766 -0.068196 6.200360 -0.001819 -0.005047 0.999986 0.666667 1.059820 1 1 1.000000
W_Garb_BeerBottle(256x128)
  1 0.469392 0.084157 6.201257 -0.001906 -0.005375 0.999984 0.722222 1.059820 1 1 1.000000
  1 0.405381 0.072710 6.201070 -0.001480 -0.007327 0.999972 0.722222 1.059800 1 1 1.000000
  1 0.405698 -0.057061 6.200315 -0.001684 -0.005511 0.999983 0.666667 1.059800 1 1 1.000000
W_Garb_BeerBottle(256x128)
  1 0.416933 0.227197 6.202126 -0.001437 -0.007092 0.999974 0.777778 1.059820 1 1 1.000000
  1 0.405381 0.072710 6.201070 -0.001480 -0.007327 0.999972 0.722222 1.059800 1 1 1.000000
  1 0.469392 0.084157 6.201257 -0.001906 -0.005375 0.999984 0.722222 1.059820 1 1 1.000000
W_Garb_BeerBottle(256x128)
  1 0.416933 0.227197 6.202126 -0.001437 -0.007092 0.999974 0.777778 1.059820 1 1 1.000000
  1 0.360698 0.194545 6.201813 -0.001447 -0.007096 0.999974 0.777778 1.059800 1 1 1.000000
  1 0.405381 0.072710 6.201070 -0.001480 -0.007327 0.999972 0.722222 1.059800 1 1 1.000000
W_Garb_BeerBottle(256x128)
  1 0.318715 0.343666 6.202877 -0.001196 -0.007164 0.999974 0.833333 1.059820 1 1 1.000000
  1 0.360698 0.194545 6.201813 -0.001447 -0.007096 0.999974 0.777778 1.059800 1 1 1.000000
  1 0.416933 0.227197 6.202126 -0.001437 -0.007092 0.999974 0.777778 1.059820 1 1 1.000000
W_Garb_BeerBottle(256x128)
  1 0.318715 0.343666 6.202877 -0.001196 -0.007164 0.999974 0.833333 1.059820 1 1 1.000000
  1 0.277038 0.293752 6.202447 -0.000310 -0.007834 0.999969 0.833333 1.059800 1 1 1.000000
  1 0.360698 0.194545 6.201813 -0.001447 -0.007096 0.999974 0.777778 1.059800 1 1 1.000000
W_Garb_BeerBottle(256x128)
  1 0.186583 0.419520 6.203405 -0.000951 -0.007598 0.999971 0.888889 1.059820 1 1 1.000000
  1 0.277038 0.293752 6.202447 -0.000310 -0.007834 0.999969 0.833333 1.059800 1 1 1.000000
  1 0.318715 0.343666 6.202877 -0.001196 -0.007164 0.999974 0.833333 1.059820 1 1 1.000000
W_Garb_BeerBottle(256x128)
  1 0.186583 0.419520 6.203405 -0.000951 -0.007598 0.999971 0.888889 1.059820 1 1 1.000000
  1 0.164491 0.358363 6.202901 0.000526 -0.008327 0.999965 0.888889 1.059800 1 1 1.000000
  1 0.277038 0.293752 6.202447 -0.000310 -0.007834 0.999969 0.833333 1.059800 1 1 1.000000
W_Garb_BeerBottle(256x128)
  1 0.036476 0.445608 6.203641 0.000620 -0.008185 0.999966 0.944444 1.059820 1 1 1.000000
  1 0.164491 0.358363 6.202901 0.000526 -0.008327 0.999965 0.888889 1.059800 1 1 1.000000
  1 0.186583 0.419520 6.203405 -0.000951 -0.007598 0.999971 0.888889 1.059820 1 1 1.000000
W_Garb_BeerBottle(256x128)
  1 0.036476 0.445608 6.203641 0.000620 -0.008185 0.999966 0.944444 1.059820 1 1 1.000000
  1 0.036636 0.380583 6.203111 0.001353 -0.008736 0.999961 0.944444 1.059800 1 1 1.000000
  1 0.164491 0.358363 6.202901 0.000526 -0.008327 0.999965 0.888889 1.059800 1 1 1.000000
W_Garb_BeerBottle(256x128)
  1 -0.113502 0.418785 6.203579 0.000492 -0.008661 0.999962 1.000000 1.059820 1 1 1.000000
  1 0.036636 0.380583 6.203111 0.001353 -0.008736 0.999961 0.944444 1.059800 1 1 1.000000
  1 0.036476 0.445608 6.203641 0.000620 -0.008185 0.999966 0.944444 1.059820 1 1 1.000000
W_Garb_BeerBottle(256x128)
  1 -0.113502 0.418785 6.203579 0.000492 -0.008661 0.999962 1.000000 1.059820 1 1 1.000000
  1 -0.091112 0.357736 6.203053 0.001892 -0.007979 0.999966 1.000000 1.059800 1 1 1.000000
  1 0.036636 0.380583 6.203111 0.001353 -0.008736 0.999961 0.944444 1.059800 1 1 1.000000
end
