// Created by Crowbar 0.74
version 1
nodes
  0 "ValveBiped.Bip01" -1
  1 "ValveBiped.Bip01_Spine" 0
  2 "ValveBiped.Bip01_Spine1" 1
  3 "ValveBiped.Bip01_Spine2" 2
  4 "ValveBiped.Bip01_Spine4" 3
  5 "ValveBiped.Bip01_R_Clavicle" 4
  6 "ValveBiped.Bip01_R_UpperArm" 5
  7 "ValveBiped.Bip01_R_Forearm" 6
  8 "ValveBiped.Bip01_R_Hand" 7
end
skeleton
  time 0
    0 -0.003759 -14.609375 -29.421875 1.570792 0.000003 -0.000003
    1 0.000005 3.345127 -2.981897 1.570796 0.086293 1.570796
    2 4.018333 0.000000 0.000000 0.000000 0.000000 -0.029242
    3 3.518562 0.000000 0.000000 0.000000 0.000000 0.100336
    4 8.942642 0.000002 0.000000 0.000000 0.000000 0.194096
    5 2.033360 1.000772 -1.937610 -1.668474 1.286518 2.942953
    6 6.028143 0.000000 0.000000 2.447914 1.360706 0.930319
    7 11.692554 0.000000 0.000000 0.000000 0.000000 -0.725687
    8 11.481701 -0.000004 0.000001 -0.908222 -0.109399 0.141664
  time 1
    0 -0.003759 -14.609375 -29.421875 1.570792 0.000003 -0.000003
    1 0.000005 3.345127 -2.981897 1.570796 0.086293 1.570796
    2 4.018333 0.000000 0.000000 0.000000 0.000000 -0.029242
    3 3.518562 0.000000 0.000000 0.000000 0.000000 0.100336
    4 8.942642 0.000002 0.000000 0.000000 0.000000 0.194096
    5 2.033360 1.000772 -1.937610 -2.810982 0.535801 1.647349
    6 6.028143 0.000000 0.000000 2.137850 0.486216 0.051695
    7 11.692554 0.000000 0.000000 0.000000 0.000000 -0.000041
    8 11.481701 -0.000004 0.000001 -1.575447 0.558148 0.047171
  time 2
    0 -0.003759 -14.609375 -29.421875 1.570792 0.000003 -0.000003
    1 0.000005 3.345127 -2.981897 1.570796 0.086293 1.570796
    2 4.018333 0.000000 0.000000 0.000000 0.000000 -0.029242
    3 3.518562 0.000000 0.000000 0.000000 0.000000 0.100336
    4 8.942642 0.000002 0.000000 0.000000 0.000000 0.194096
    5 2.033360 1.000772 -1.937610 -2.808158 0.549341 1.652805
    6 6.028143 0.000000 0.000000 2.240097 0.621611 0.098402
    7 11.692554 0.000000 0.000000 0.000000 0.000000 0.000000
    8 11.481701 -0.000004 0.000001 -1.717883 0.564405 -0.156747
  time 3
    0 -0.003759 -14.609375 -29.421875 1.570792 0.000003 -0.000003
    1 0.000005 3.345127 -2.981897 1.570796 0.086293 1.570796
    2 4.018333 0.000000 0.000000 0.000000 0.000000 -0.029242
    3 3.518562 0.000000 0.000000 0.000000 0.000000 0.100336
    4 8.942642 0.000002 0.000000 0.000000 0.000000 0.194096
    5 2.033360 1.000772 -1.937610 -2.799650 0.587142 1.668581
    6 6.028143 0.000000 0.000000 2.224705 0.543446 -0.103493
    7 11.692554 0.000000 0.000000 0.000000 0.000000 -0.269260
    8 11.481701 -0.000004 0.000001 -1.899220 0.510716 -0.391912
  time 4
    0 -0.003759 -14.609375 -29.421875 1.570792 0.000003 -0.000003
    1 0.000005 3.345127 -2.981897 1.570796 0.086293 1.570796
    2 4.018333 0.000000 0.000000 0.000000 0.000000 -0.029242
    3 3.518562 0.000000 0.000000 0.000000 0.000000 0.100336
    4 8.942642 0.000002 0.000000 0.000000 0.000000 0.194096
    5 2.033360 1.000772 -1.937610 -2.784727 0.644967 1.694361
    6 6.028143 0.000000 0.000000 2.152338 0.349627 -0.431122
    7 11.692554 0.000000 0.000000 0.000000 0.000000 -0.795792
    8 11.481701 -0.000004 0.000001 -1.903202 0.362928 -0.409397
  time 5
    0 -0.003759 -14.609375 -29.421875 1.570792 0.000003 -0.000003
    1 0.000005 3.345127 -2.981897 1.570796 0.086293 1.570796
    2 4.018333 0.000000 0.000000 0.000000 0.000000 -0.029242
    3 3.518562 0.000000 0.000000 0.000000 0.000000 0.100336
    4 8.942642 0.000002 0.000000 0.000000 0.000000 0.194096
    5 2.033360 1.000772 -1.937610 -2.761715 0.718417 1.730855
    6 6.028143 0.000000 0.000000 2.110211 0.272258 -0.585859
    7 11.692554 0.000000 0.000000 0.000000 0.000000 -1.000548
    8 11.481701 -0.000004 0.000001 -1.662517 0.100576 -0.202341
  time 6
    0 -0.003759 -14.609375 -29.421875 1.570792 0.000003 -0.000003
    1 0.000005 3.345127 -2.981897 1.570796 0.086293 1.570796
    2 4.018333 0.000000 0.000000 0.000000 0.000000 -0.029242
    3 3.518562 0.000000 0.000000 0.000000 0.000000 0.100336
    4 8.942642 0.000002 0.000000 0.000000 0.000000 0.194096
    5 2.033360 1.000772 -1.937610 -2.728000 0.802909 1.779725
    6 6.028143 0.000000 0.000000 2.060243 0.210307 -0.712194
    7 11.692554 0.000000 0.000000 0.000000 0.000000 -1.110896
    8 11.481701 -0.000004 0.000001 -1.510739 -0.133525 -0.001937
  time 7
    0 -0.003759 -14.609375 -29.421875 1.570792 0.000003 -0.000003
    1 0.000005 3.345127 -2.981897 1.570796 0.086293 1.570796
    2 4.018333 0.000000 0.000000 0.000000 0.000000 -0.029242
    3 3.518562 0.000000 0.000000 0.000000 0.000000 0.100336
    4 8.942642 0.000002 0.000000 0.000000 0.000000 0.194096
    5 2.033360 1.000772 -1.937610 -2.679849 0.893725 1.843935
    6 6.028143 0.000000 0.000000 2.004929 0.171452 -0.801465
    7 11.692554 0.000000 0.000000 0.000000 0.000000 -1.143766
    8 11.481701 -0.000004 0.000001 -1.342497 -0.193607 0.210557
  time 8
    0 -0.003759 -14.609375 -29.421875 1.570792 0.000003 -0.000003
    1 0.000005 3.345127 -2.981897 1.570796 0.086293 1.570796
    2 4.018333 0.000000 0.000000 0.000000 0.000000 -0.029242
    3 3.518562 0.000000 0.000000 0.000000 0.000000 0.100336
    4 8.942642 0.000002 0.000000 0.000000 0.000000 0.194096
    5 2.033360 1.000772 -1.937610 -2.611719 0.985686 1.928113
    6 6.028143 0.000000 0.000000 1.946110 0.166617 -0.854124
    7 11.692554 0.000000 0.000000 0.000000 0.000000 -1.124654
    8 11.481701 -0.000004 0.000001 -0.980053 -0.147514 0.377791
  time 9
    0 -0.003759 -14.609375 -29.421875 1.570792 0.000003 -0.000003
    1 0.000005 3.345127 -2.981897 1.570796 0.086293 1.570796
    2 4.018333 0.000000 0.000000 0.000000 0.000000 -0.029242
    3 3.518562 0.000000 0.000000 0.000000 0.000000 0.100336
    4 8.942642 0.000002 0.000000 0.000000 0.000000 0.194096
    5 2.033360 1.000772 -1.937610 -2.516778 1.073340 2.038743
    6 6.028143 0.000000 0.000000 1.885665 0.199669 -0.879135
    7 11.692554 0.000000 0.000000 0.000000 0.000000 -1.091413
    8 11.481701 -0.000004 0.000001 -0.789603 -0.076721 0.402721
  time 10
    0 -0.003759 -14.609375 -29.421875 1.570792 0.000003 -0.000003
    1 0.000005 3.345127 -2.981897 1.570796 0.086293 1.570796
    2 4.018333 0.000000 0.000000 0.000000 0.000000 -0.029242
    3 3.518562 0.000000 0.000000 0.000000 0.000000 0.100336
    4 8.942642 0.000002 0.000000 0.000000 0.000000 0.194096
    5 2.033360 1.000772 -1.937610 -2.387597 1.150821 2.182742
    6 6.028143 0.000000 0.000000 1.826991 0.266854 -0.880792
    7 11.692554 0.000000 0.000000 0.000000 0.000000 -1.070942
    8 11.481701 -0.000004 0.000001 -0.825441 -0.026994 0.349389
  time 11
    0 -0.003759 -14.609375 -29.421875 1.570792 0.000003 -0.000003
    1 0.000005 3.345127 -2.981897 1.570796 0.086293 1.570796
    2 4.018333 0.000000 0.000000 0.000000 0.000000 -0.029242
    3 3.518562 0.000000 0.000000 0.000000 0.000000 0.100336
    4 8.942642 0.000002 0.000000 0.000000 0.000000 0.194096
    5 2.033360 1.000772 -1.937610 -2.221423 1.212404 2.362209
    6 6.028143 0.000000 0.000000 1.772652 0.358501 -0.863164
    7 11.692554 0.000000 0.000000 0.000000 0.000000 -1.057514
    8 11.481701 -0.000004 0.000001 -0.851478 0.001504 0.291873
  time 12
    0 -0.003759 -14.609375 -29.421875 1.570792 0.000003 -0.000003
    1 0.000005 3.345127 -2.981897 1.570796 0.086293 1.570796
    2 4.018333 0.000000 0.000000 0.000000 0.000000 -0.029242
    3 3.518562 0.000000 0.000000 0.000000 0.000000 0.100336
    4 8.942642 0.000002 0.000000 0.000000 0.000000 0.194096
    5 2.033360 1.000772 -1.937610 -2.030424 1.254077 2.564409
    6 6.028143 0.000000 0.000000 1.724599 0.464655 -0.832202
    7 11.692554 0.000000 0.000000 0.000000 0.000000 -1.039184
    8 11.481701 -0.000004 0.000001 -0.867942 0.013444 0.235947
  time 13
    0 -0.003759 -14.609375 -29.421875 1.570792 0.000003 -0.000003
    1 0.000005 3.345127 -2.981897 1.570796 0.086293 1.570796
    2 4.018333 0.000000 0.000000 0.000000 0.000000 -0.029242
    3 3.518562 0.000000 0.000000 0.000000 0.000000 0.100336
    4 8.942642 0.000002 0.000000 0.000000 0.000000 0.194096
    5 2.033360 1.000772 -1.937610 -1.848211 1.276369 2.755539
    6 6.028143 0.000000 0.000000 1.685326 0.570240 -0.791898
    7 11.692554 0.000000 0.000000 0.000000 0.000000 -1.010310
    8 11.481701 -0.000004 0.000001 -0.875753 0.014510 0.187885
  time 14
    0 -0.003759 -14.609375 -29.421875 1.570792 0.000003 -0.000003
    1 0.000005 3.345127 -2.981897 1.570796 0.086293 1.570796
    2 4.018333 0.000000 0.000000 0.000000 0.000000 -0.029242
    3 3.518562 0.000000 0.000000 0.000000 0.000000 0.100336
    4 8.942642 0.000002 0.000000 0.000000 0.000000 0.194096
    5 2.033360 1.000772 -1.937610 -1.716868 1.284799 2.892501
    6 6.028143 0.000000 0.000000 1.658229 0.653241 -0.751368
    7 11.692554 0.000000 0.000000 0.000000 0.000000 -0.978470
    8 11.481701 -0.000004 0.000001 -0.877438 0.010493 0.154338
  time 15
    0 -0.003759 -14.609375 -29.421875 1.570792 0.000003 -0.000003
    1 0.000005 3.345127 -2.981897 1.570796 0.086293 1.570796
    2 4.018333 0.000000 0.000000 0.000000 0.000000 -0.029242
    3 3.518562 0.000000 0.000000 0.000000 0.000000 0.100336
    4 8.942642 0.000002 0.000000 0.000000 0.000000 0.194096
    5 2.033360 1.000772 -1.937610 -1.668474 1.286518 2.942953
    6 6.028143 0.000000 0.000000 1.648185 0.686919 -0.731857
    7 11.692554 0.000000 0.000000 0.000000 0.000000 -0.963065
    8 11.481701 -0.000004 0.000001 -0.876978 0.007870 0.141748
end
