// Created by Crowbar 0.74
version 1
nodes
  0 "ValveBiped.Bip01" -1
  1 "ValveBiped.Bip01_Spine" 0
  2 "ValveBiped.Bip01_Spine1" 1
  3 "ValveBiped.Bip01_Spine2" 2
  4 "ValveBiped.Bip01_Spine4" 3
  5 "ValveBiped.Bip01_R_Clavicle" 4
  6 "ValveBiped.Bip01_R_UpperArm" 5
  7 "ValveBiped.Bip01_R_Forearm" 6
  8 "ValveBiped.Bip01_R_Hand" 7
end
skeleton
  time 0
    0 -0.003759 -14.609375 -29.421875 1.570792 0.000003 -0.000003
    1 0.000005 3.345127 -2.981897 1.570796 0.086293 1.570796
    2 4.018333 0.000000 0.000000 0.000000 0.000000 -0.029242
    3 3.518562 0.000000 0.000000 0.000000 0.000000 0.100336
    4 8.942642 0.000002 0.000000 0.000000 0.000000 0.194096
    5 2.033360 1.000772 -1.937610 -1.668474 1.286518 2.942953
    6 6.028143 0.000000 0.000000 1.677920 0.745059 0.080925
    7 11.692554 0.000000 0.000000 0.000000 0.000000 -1.167409
    8 11.481701 -0.000004 0.000001 0.668521 0.252326 -0.279642
  time 1
    0 -0.003759 -14.609375 -29.421875 1.570792 0.000003 -0.000003
    1 0.000005 3.345127 -2.981897 1.570796 0.086293 1.570796
    2 4.018333 0.000000 0.000000 0.000000 0.000000 -0.029242
    3 3.518562 0.000000 0.000000 0.000000 0.000000 0.100336
    4 8.942642 0.000002 0.000000 0.000000 0.000000 0.194096
    5 2.033360 1.000772 -1.937610 -2.810982 0.535801 1.647349
    6 6.028143 0.000000 0.000000 2.295447 0.413740 -0.089783
    7 11.692554 0.000000 0.000000 0.000000 0.000000 -0.293891
    8 11.481701 -0.000004 0.000001 0.016305 -0.886345 -0.652175
  time 2
    0 -0.003759 -14.609375 -29.421875 1.570792 0.000003 -0.000003
    1 0.000005 3.345127 -2.981897 1.570796 0.086293 1.570796
    2 4.018333 0.000000 0.000000 0.000000 0.000000 -0.029242
    3 3.518562 0.000000 0.000000 0.000000 0.000000 0.100336
    4 8.942642 0.000002 0.000000 0.000000 0.000000 0.194096
    5 2.033360 1.000772 -1.937610 -2.808158 0.549341 1.652805
    6 6.028143 0.000000 0.000000 2.572850 0.581049 0.066913
    7 11.692554 0.000000 0.000000 0.000000 0.000000 0.000000
    8 11.481701 -0.000004 0.000001 -0.420267 -0.627873 -0.267344
  time 3
    0 -0.003759 -14.609375 -29.421875 1.570792 0.000003 -0.000003
    1 0.000005 3.345127 -2.981897 1.570796 0.086293 1.570796
    2 4.018333 0.000000 0.000000 0.000000 0.000000 -0.029242
    3 3.518562 0.000000 0.000000 0.000000 0.000000 0.100336
    4 8.942642 0.000002 0.000000 0.000000 0.000000 0.194096
    5 2.033360 1.000772 -1.937610 -2.799650 0.587142 1.668581
    6 6.028143 0.000000 0.000000 2.784895 0.619733 0.042429
    7 11.692554 0.000000 0.000000 0.000000 0.000000 0.000000
    8 11.481701 -0.000004 0.000001 -0.458173 -0.213525 0.094899
  time 4
    0 -0.003759 -14.609375 -29.421875 1.570792 0.000003 -0.000003
    1 0.000005 3.345127 -2.981897 1.570796 0.086293 1.570796
    2 4.018333 0.000000 0.000000 0.000000 0.000000 -0.029242
    3 3.518562 0.000000 0.000000 0.000000 0.000000 0.100336
    4 8.942642 0.000002 0.000000 0.000000 0.000000 0.194096
    5 2.033360 1.000772 -1.937610 -2.784727 0.644967 1.694361
    6 6.028143 0.000000 0.000000 2.501422 0.482689 -0.346070
    7 11.692554 0.000000 0.000000 0.000000 0.000000 -0.638817
    8 11.481701 -0.000004 0.000001 -0.535287 -0.316477 0.232559
  time 5
    0 -0.003759 -14.609375 -29.421875 1.570792 0.000003 -0.000003
    1 0.000005 3.345127 -2.981897 1.570796 0.086293 1.570796
    2 4.018333 0.000000 0.000000 0.000000 0.000000 -0.029242
    3 3.518562 0.000000 0.000000 0.000000 0.000000 0.100336
    4 8.942642 0.000002 0.000000 0.000000 0.000000 0.194096
    5 2.033360 1.000772 -1.937610 -2.761715 0.718417 1.730855
    6 6.028143 0.000000 0.000000 2.333817 0.370562 -0.526721
    7 11.692554 0.000000 0.000000 0.000000 0.000000 -0.942470
    8 11.481701 -0.000004 0.000001 -0.668992 -0.388554 0.317515
  time 6
    0 -0.003759 -14.609375 -29.421875 1.570792 0.000003 -0.000003
    1 0.000005 3.345127 -2.981897 1.570796 0.086293 1.570796
    2 4.018333 0.000000 0.000000 0.000000 0.000000 -0.029242
    3 3.518562 0.000000 0.000000 0.000000 0.000000 0.100336
    4 8.942642 0.000002 0.000000 0.000000 0.000000 0.194096
    5 2.033360 1.000772 -1.937610 -2.728000 0.802909 1.779725
    6 6.028143 0.000000 0.000000 2.210181 0.269187 -0.656899
    7 11.692554 0.000000 0.000000 0.000000 0.000000 -1.154434
    8 11.481701 -0.000004 0.000001 -0.751084 -0.346368 0.363611
  time 7
    0 -0.003759 -14.609375 -29.421875 1.570792 0.000003 -0.000003
    1 0.000005 3.345127 -2.981897 1.570796 0.086293 1.570796
    2 4.018333 0.000000 0.000000 0.000000 0.000000 -0.029242
    3 3.518562 0.000000 0.000000 0.000000 0.000000 0.100336
    4 8.942642 0.000002 0.000000 0.000000 0.000000 0.194096
    5 2.033360 1.000772 -1.937610 -2.679849 0.893725 1.843935
    6 6.028143 0.000000 0.000000 2.109235 0.198645 -0.742102
    7 11.692554 0.000000 0.000000 0.000000 0.000000 -1.281711
    8 11.481701 -0.000004 0.000001 -0.785621 -0.272187 0.386157
  time 8
    0 -0.003759 -14.609375 -29.421875 1.570792 0.000003 -0.000003
    1 0.000005 3.345127 -2.981897 1.570796 0.086293 1.570796
    2 4.018333 0.000000 0.000000 0.000000 0.000000 -0.029242
    3 3.518562 0.000000 0.000000 0.000000 0.000000 0.100336
    4 8.942642 0.000002 0.000000 0.000000 0.000000 0.194096
    5 2.033360 1.000772 -1.937610 -2.611719 0.985686 1.928113
    6 6.028143 0.000000 0.000000 2.020031 0.184252 -0.783159
    7 11.692554 0.000000 0.000000 0.000000 0.000000 -1.330563
    8 11.481701 -0.000004 0.000001 -0.799099 -0.208771 0.394105
  time 9
    0 -0.003759 -14.609375 -29.421875 1.570792 0.000003 -0.000003
    1 0.000005 3.345127 -2.981897 1.570796 0.086293 1.570796
    2 4.018333 0.000000 0.000000 0.000000 0.000000 -0.029242
    3 3.518562 0.000000 0.000000 0.000000 0.000000 0.100336
    4 8.942642 0.000002 0.000000 0.000000 0.000000 0.194096
    5 2.033360 1.000772 -1.937610 -2.516778 1.073340 2.038743
    6 6.028143 0.000000 0.000000 1.936716 0.226236 -0.790015
    7 11.692554 0.000000 0.000000 0.000000 0.000000 -1.319812
    8 11.481701 -0.000004 0.000001 -0.805991 -0.163962 0.380677
  time 10
    0 -0.003759 -14.609375 -29.421875 1.570792 0.000003 -0.000003
    1 0.000005 3.345127 -2.981897 1.570796 0.086293 1.570796
    2 4.018333 0.000000 0.000000 0.000000 0.000000 -0.029242
    3 3.518562 0.000000 0.000000 0.000000 0.000000 0.100336
    4 8.942642 0.000002 0.000000 0.000000 0.000000 0.194096
    5 2.033360 1.000772 -1.937610 -2.387597 1.150821 2.182742
    6 6.028143 0.000000 0.000000 1.859146 0.299565 -0.780297
    7 11.692554 0.000000 0.000000 0.000000 0.000000 -1.275533
    8 11.481701 -0.000004 0.000001 -0.814950 -0.121202 0.344327
  time 11
    0 -0.003759 -14.609375 -29.421875 1.570792 0.000003 -0.000003
    1 0.000005 3.345127 -2.981897 1.570796 0.086293 1.570796
    2 4.018333 0.000000 0.000000 0.000000 0.000000 -0.029242
    3 3.518562 0.000000 0.000000 0.000000 0.000000 0.100336
    4 8.942642 0.000002 0.000000 0.000000 0.000000 0.194096
    5 2.033360 1.000772 -1.937610 -2.221423 1.212404 2.362209
    6 6.028143 0.000000 0.000000 1.790608 0.393545 -0.765079
    7 11.692554 0.000000 0.000000 0.000000 0.000000 -1.209011
    8 11.481701 -0.000004 0.000001 -0.827586 -0.081311 0.294843
  time 12
    0 -0.003759 -14.609375 -29.421875 1.570792 0.000003 -0.000003
    1 0.000005 3.345127 -2.981897 1.570796 0.086293 1.570796
    2 4.018333 0.000000 0.000000 0.000000 0.000000 -0.029242
    3 3.518562 0.000000 0.000000 0.000000 0.000000 0.100336
    4 8.942642 0.000002 0.000000 0.000000 0.000000 0.194096
    5 2.033360 1.000772 -1.937610 -2.030424 1.254077 2.564409
    6 6.028143 0.000000 0.000000 1.733126 0.495091 -0.750766
    7 11.692554 0.000000 0.000000 0.000000 0.000000 -1.130297
    8 11.481701 -0.000004 0.000001 -0.843131 -0.045983 0.241176
  time 13
    0 -0.003759 -14.609375 -29.421875 1.570792 0.000003 -0.000003
    1 0.000005 3.345127 -2.981897 1.570796 0.086293 1.570796
    2 4.018333 0.000000 0.000000 0.000000 0.000000 -0.029242
    3 3.518562 0.000000 0.000000 0.000000 0.000000 0.100336
    4 8.942642 0.000002 0.000000 0.000000 0.000000 0.194096
    5 2.033360 1.000772 -1.937610 -1.848211 1.276369 2.755539
    6 6.028143 0.000000 0.000000 1.688361 0.589355 -0.740219
    7 11.692554 0.000000 0.000000 0.000000 0.000000 -1.051418
    8 11.481701 -0.000004 0.000001 -0.859212 -0.017622 0.191943
  time 14
    0 -0.003759 -14.609375 -29.421875 1.570792 0.000003 -0.000003
    1 0.000005 3.345127 -2.981897 1.570796 0.086293 1.570796
    2 4.018333 0.000000 0.000000 0.000000 0.000000 -0.029242
    3 3.518562 0.000000 0.000000 0.000000 0.000000 0.100336
    4 8.942642 0.000002 0.000000 0.000000 0.000000 0.194096
    5 2.033360 1.000772 -1.937610 -1.716868 1.284799 2.892501
    6 6.028143 0.000000 0.000000 1.658916 0.659442 -0.734041
    7 11.692554 0.000000 0.000000 0.000000 0.000000 -0.988768
    8 11.481701 -0.000004 0.000001 -0.871924 0.001094 0.155844
  time 15
    0 -0.003759 -14.609375 -29.421875 1.570792 0.000003 -0.000003
    1 0.000005 3.345127 -2.981897 1.570796 0.086293 1.570796
    2 4.018333 0.000000 0.000000 0.000000 0.000000 -0.029242
    3 3.518562 0.000000 0.000000 0.000000 0.000000 0.100336
    4 8.942642 0.000002 0.000000 0.000000 0.000000 0.194096
    5 2.033360 1.000772 -1.937610 -1.668474 1.286518 2.942953
    6 6.028143 0.000000 0.000000 1.648185 0.686919 -0.731857
    7 11.692554 0.000000 0.000000 0.000000 0.000000 -0.963065
    8 11.481701 -0.000004 0.000001 -0.876978 0.007870 0.141748
end
