// Created by Crowbar 0.74
version 1
nodes
  0 "ValveBiped.Bip01" -1
  1 "ValveBiped.Bip01_Spine" 0
  2 "ValveBiped.Bip01_Spine1" 1
  3 "ValveBiped.Bip01_Spine2" 2
  4 "ValveBiped.Bip01_Spine4" 3
  5 "ValveBiped.Bip01_R_Clavicle" 4
  6 "ValveBiped.Bip01_R_UpperArm" 5
  7 "ValveBiped.Bip01_R_Forearm" 6
  8 "ValveBiped.Bip01_R_Hand" 7
end
skeleton
  time 0
    0 -0.003759 -14.609375 -29.421875 1.570792 0.000003 -0.000003
    1 0.000005 3.345127 -2.981897 1.570796 0.086293 1.570796
    2 4.018333 0.000000 0.000000 0.000000 0.000000 -0.029242
    3 3.518562 0.000000 0.000000 0.000000 0.000000 0.100336
    4 8.942642 0.000002 0.000000 0.000000 0.000000 0.194096
    5 2.033360 1.000772 -1.937610 -1.668474 1.286518 2.942953
    6 6.028143 0.000000 0.000000 1.979963 0.919308 0.463472
    7 11.692554 0.000000 0.000000 0.000000 0.000000 -0.825820
    8 11.481701 -0.000004 0.000001 0.250251 -0.109399 0.141664
  time 1
    0 -0.003759 -14.609375 -29.421875 1.570792 0.000003 -0.000003
    1 0.000005 3.345127 -2.981897 1.570796 0.086293 1.570796
    2 4.018333 0.000000 0.000000 0.000000 0.000000 -0.029242
    3 3.518562 0.000000 0.000000 0.000000 0.000000 0.100336
    4 8.942642 0.000002 0.000000 0.000000 0.000000 0.194096
    5 2.033360 1.000772 -1.937610 -2.810982 0.535801 1.647349
    6 6.028143 0.000000 0.000000 2.182506 0.573938 0.024274
    7 11.692554 0.000000 0.000000 0.000000 0.000000 0.000000
    8 11.481701 -0.000004 0.000001 -0.706516 -0.560195 -0.006454
  time 2
    0 -0.003759 -14.609375 -29.421875 1.570792 0.000003 -0.000003
    1 0.000005 3.345127 -2.981897 1.570796 0.086293 1.570796
    2 4.018333 0.000000 0.000000 0.000000 0.000000 -0.029242
    3 3.518562 0.000000 0.000000 0.000000 0.000000 0.100336
    4 8.942642 0.000002 0.000000 0.000000 0.000000 0.194096
    5 2.033360 1.000772 -1.937610 -2.808158 0.549341 1.652805
    6 6.028143 0.000000 0.000000 2.239916 0.621383 0.098402
    7 11.692554 0.000000 0.000000 0.000000 0.000000 0.000000
    8 11.481701 -0.000004 0.000001 -0.648623 -0.238307 -0.199748
  time 3
    0 -0.003759 -14.609375 -29.421875 1.570792 0.000003 -0.000003
    1 0.000005 3.345127 -2.981897 1.570796 0.086293 1.570796
    2 4.018333 0.000000 0.000000 0.000000 0.000000 -0.029242
    3 3.518562 0.000000 0.000000 0.000000 0.000000 0.100336
    4 8.942642 0.000002 0.000000 0.000000 0.000000 0.194096
    5 2.033360 1.000772 -1.937610 -2.799650 0.587142 1.668581
    6 6.028143 0.000000 0.000000 2.267627 0.630997 0.041148
    7 11.692554 0.000000 0.000000 0.000000 0.000000 -0.000041
    8 11.481701 -0.000004 0.000001 -0.702687 0.066286 -0.317916
  time 4
    0 -0.003759 -14.609375 -29.421875 1.570792 0.000003 -0.000003
    1 0.000005 3.345127 -2.981897 1.570796 0.086293 1.570796
    2 4.018333 0.000000 0.000000 0.000000 0.000000 -0.029242
    3 3.518562 0.000000 0.000000 0.000000 0.000000 0.100336
    4 8.942642 0.000002 0.000000 0.000000 0.000000 0.194096
    5 2.033360 1.000772 -1.937610 -2.784727 0.644967 1.694361
    6 6.028143 0.000000 0.000000 2.166609 0.397584 -0.272092
    7 11.692554 0.000000 0.000000 0.000000 0.000000 -0.618345
    8 11.481701 -0.000004 0.000001 -0.644487 -0.031065 -0.200710
  time 5
    0 -0.003759 -14.609375 -29.421875 1.570792 0.000003 -0.000003
    1 0.000005 3.345127 -2.981897 1.570796 0.086293 1.570796
    2 4.018333 0.000000 0.000000 0.000000 0.000000 -0.029242
    3 3.518562 0.000000 0.000000 0.000000 0.000000 0.100336
    4 8.942642 0.000002 0.000000 0.000000 0.000000 0.194096
    5 2.033360 1.000772 -1.937610 -2.761715 0.718417 1.730855
    6 6.028143 0.000000 0.000000 2.123253 0.308155 -0.438279
    7 11.692554 0.000000 0.000000 0.000000 0.000000 -0.900168
    8 11.481701 -0.000004 0.000001 -0.598158 -0.252788 0.035375
  time 6
    0 -0.003759 -14.609375 -29.421875 1.570792 0.000003 -0.000003
    1 0.000005 3.345127 -2.981897 1.570796 0.086293 1.570796
    2 4.018333 0.000000 0.000000 0.000000 0.000000 -0.029242
    3 3.518562 0.000000 0.000000 0.000000 0.000000 0.100336
    4 8.942642 0.000002 0.000000 0.000000 0.000000 0.194096
    5 2.033360 1.000772 -1.937610 -2.728000 0.802909 1.779725
    6 6.028143 0.000000 0.000000 2.075237 0.252006 -0.571847
    7 11.692554 0.000000 0.000000 0.000000 0.000000 -1.086882
    8 11.481701 -0.000004 0.000001 -0.683312 -0.436833 0.295722
  time 7
    0 -0.003759 -14.609375 -29.421875 1.570792 0.000003 -0.000003
    1 0.000005 3.345127 -2.981897 1.570796 0.086293 1.570796
    2 4.018333 0.000000 0.000000 0.000000 0.000000 -0.029242
    3 3.518562 0.000000 0.000000 0.000000 0.000000 0.100336
    4 8.942642 0.000002 0.000000 0.000000 0.000000 0.194096
    5 2.033360 1.000772 -1.937610 -2.679849 0.893725 1.843935
    6 6.028143 0.000000 0.000000 2.019923 0.218385 -0.674377
    7 11.692554 0.000000 0.000000 0.000000 0.000000 -1.206457
    8 11.481701 -0.000004 0.000001 -0.767472 -0.402461 0.427150
  time 8
    0 -0.003759 -14.609375 -29.421875 1.570792 0.000003 -0.000003
    1 0.000005 3.345127 -2.981897 1.570796 0.086293 1.570796
    2 4.018333 0.000000 0.000000 0.000000 0.000000 -0.029242
    3 3.518562 0.000000 0.000000 0.000000 0.000000 0.100336
    4 8.942642 0.000002 0.000000 0.000000 0.000000 0.194096
    5 2.033360 1.000772 -1.937610 -2.611719 0.985686 1.928113
    6 6.028143 0.000000 0.000000 1.959586 0.210421 -0.743081
    7 11.692554 0.000000 0.000000 0.000000 0.000000 -1.269272
    8 11.481701 -0.000004 0.000001 -0.774594 -0.220356 0.438946
  time 9
    0 -0.003759 -14.609375 -29.421875 1.570792 0.000003 -0.000003
    1 0.000005 3.345127 -2.981897 1.570796 0.086293 1.570796
    2 4.018333 0.000000 0.000000 0.000000 0.000000 -0.029242
    3 3.518562 0.000000 0.000000 0.000000 0.000000 0.100336
    4 8.942642 0.000002 0.000000 0.000000 0.000000 0.194096
    5 2.033360 1.000772 -1.937610 -2.516778 1.073340 2.038743
    6 6.028143 0.000000 0.000000 1.897913 0.237613 -0.777434
    7 11.692554 0.000000 0.000000 0.000000 0.000000 -1.281176
    8 11.481701 -0.000004 0.000001 -0.789603 -0.076721 0.402721
  time 10
    0 -0.003759 -14.609375 -29.421875 1.570792 0.000003 -0.000003
    1 0.000005 3.345127 -2.981897 1.570796 0.086293 1.570796
    2 4.018333 0.000000 0.000000 0.000000 0.000000 -0.029242
    3 3.518562 0.000000 0.000000 0.000000 0.000000 0.100336
    4 8.942642 0.000002 0.000000 0.000000 0.000000 0.194096
    5 2.033360 1.000772 -1.937610 -2.387597 1.150821 2.182742
    6 6.028143 0.000000 0.000000 1.838082 0.302637 -0.784666
    7 11.692554 0.000000 0.000000 0.000000 0.000000 -1.250983
    8 11.481701 -0.000004 0.000001 -0.825441 -0.026994 0.349389
  time 11
    0 -0.003759 -14.609375 -29.421875 1.570792 0.000003 -0.000003
    1 0.000005 3.345127 -2.981897 1.570796 0.086293 1.570796
    2 4.018333 0.000000 0.000000 0.000000 0.000000 -0.029242
    3 3.518562 0.000000 0.000000 0.000000 0.000000 0.100336
    4 8.942642 0.000002 0.000000 0.000000 0.000000 0.194096
    5 2.033360 1.000772 -1.937610 -2.221423 1.212404 2.362209
    6 6.028143 0.000000 0.000000 1.781937 0.391952 -0.778037
    7 11.692554 0.000000 0.000000 0.000000 0.000000 -1.194924
    8 11.481701 -0.000004 0.000001 -0.851478 0.001504 0.291873
  time 12
    0 -0.003759 -14.609375 -29.421875 1.570792 0.000003 -0.000003
    1 0.000005 3.345127 -2.981897 1.570796 0.086293 1.570796
    2 4.018333 0.000000 0.000000 0.000000 0.000000 -0.029242
    3 3.518562 0.000000 0.000000 0.000000 0.000000 0.100336
    4 8.942642 0.000002 0.000000 0.000000 0.000000 0.194096
    5 2.033360 1.000772 -1.937610 -2.030424 1.254077 2.564409
    6 6.028143 0.000000 0.000000 1.731464 0.491791 -0.765004
    7 11.692554 0.000000 0.000000 0.000000 0.000000 -1.123665
    8 11.481701 -0.000004 0.000001 -0.867942 0.013444 0.235947
  time 13
    0 -0.003759 -14.609375 -29.421875 1.570792 0.000003 -0.000003
    1 0.000005 3.345127 -2.981897 1.570796 0.086293 1.570796
    2 4.018333 0.000000 0.000000 0.000000 0.000000 -0.029242
    3 3.518562 0.000000 0.000000 0.000000 0.000000 0.100336
    4 8.942642 0.000002 0.000000 0.000000 0.000000 0.194096
    5 2.033360 1.000772 -1.937610 -1.848211 1.276369 2.755539
    6 6.028143 0.000000 0.000000 1.689192 0.586567 -0.750238
    7 11.692554 0.000000 0.000000 0.000000 0.000000 -1.049317
    8 11.481701 -0.000004 0.000001 -0.875753 0.014510 0.187885
  time 14
    0 -0.003759 -14.609375 -29.421875 1.570792 0.000003 -0.000003
    1 0.000005 3.345127 -2.981897 1.570796 0.086293 1.570796
    2 4.018333 0.000000 0.000000 0.000000 0.000000 -0.029242
    3 3.518562 0.000000 0.000000 0.000000 0.000000 0.100336
    4 8.942642 0.000002 0.000000 0.000000 0.000000 0.194096
    5 2.033360 1.000772 -1.937610 -1.716868 1.284799 2.892501
    6 6.028143 0.000000 0.000000 1.659494 0.658418 -0.737507
    7 11.692554 0.000000 0.000000 0.000000 0.000000 -0.988479
    8 11.481701 -0.000004 0.000001 -0.877438 0.010493 0.154338
  time 15
    0 -0.003759 -14.609375 -29.421875 1.570792 0.000003 -0.000003
    1 0.000005 3.345127 -2.981897 1.570796 0.086293 1.570796
    2 4.018333 0.000000 0.000000 0.000000 0.000000 -0.029242
    3 3.518562 0.000000 0.000000 0.000000 0.000000 0.100336
    4 8.942642 0.000002 0.000000 0.000000 0.000000 0.194096
    5 2.033360 1.000772 -1.937610 -1.668474 1.286518 2.942953
    6 6.028143 0.000000 0.000000 1.648185 0.686919 -0.731857
    7 11.692554 0.000000 0.000000 0.000000 0.000000 -0.963065
    8 11.481701 -0.000004 0.000001 -0.876978 0.007870 0.141748
end
