// Created by Crowbar 0.74
version 1
nodes
  0 "ValveBiped.Bip01" -1
  1 "ValveBiped.Bip01_Spine" 0
  2 "ValveBiped.Bip01_Spine1" 1
  3 "ValveBiped.Bip01_Spine2" 2
  4 "ValveBiped.Bip01_Spine4" 3
  5 "ValveBiped.Bip01_R_Clavicle" 4
  6 "ValveBiped.Bip01_R_UpperArm" 5
  7 "ValveBiped.Bip01_R_Forearm" 6
  8 "ValveBiped.Bip01_R_Hand" 7
end
skeleton
  time 0
    0 -0.003759 -14.609375 -29.421875 1.570792 0.000003 -0.000003
    1 0.000005 3.345127 -2.981897 1.570796 0.086293 1.570796
    2 4.018333 0.000000 0.000000 0.000000 0.000000 -0.029242
    3 3.518562 0.000000 0.000000 0.000000 0.000000 0.100336
    4 8.942642 0.000002 0.000000 0.000000 0.000000 0.194096
    5 2.033360 1.000772 -1.937610 -1.668474 1.286518 2.942953
    6 6.028143 0.000000 0.000000 1.854521 0.859860 -0.277968
    7 11.692554 0.000000 0.000000 0.000000 0.000000 -1.053601
    8 11.481701 -0.000004 0.000001 -0.482372 0.027324 0.141915
  time 1
    0 -0.003759 -14.609375 -29.421875 1.570792 0.000003 -0.000003
    1 0.000005 3.345127 -2.981897 1.570796 0.086293 1.570796
    2 4.018333 0.000000 0.000000 0.000000 0.000000 -0.029242
    3 3.518562 0.000000 0.000000 0.000000 0.000000 0.100336
    4 8.942642 0.000002 0.000000 0.000000 0.000000 0.194096
    5 2.033360 1.000772 -1.937610 -2.773291 0.683456 1.712904
    6 6.028143 0.000000 0.000000 2.115919 0.578375 -0.080516
    7 11.692554 0.000000 0.000000 0.000000 0.000000 -0.336482
    8 11.481701 -0.000004 0.000001 -0.117400 -0.729322 -0.474191
  time 2
    0 -0.003759 -14.609375 -29.421875 1.570792 0.000003 -0.000003
    1 0.000005 3.345127 -2.981897 1.570796 0.086293 1.570796
    2 4.018333 0.000000 0.000000 0.000000 0.000000 -0.029242
    3 3.518562 0.000000 0.000000 0.000000 0.000000 0.100336
    4 8.942642 0.000002 0.000000 0.000000 0.000000 0.194096
    5 2.033360 1.000772 -1.937610 -2.771339 0.689619 1.715988
    6 6.028143 0.000000 0.000000 2.097493 0.574792 -0.141236
    7 11.692554 0.000000 0.000000 0.000000 0.000000 -0.389205
    8 11.481701 -0.000004 0.000001 -0.262975 -0.366368 -0.290225
  time 3
    0 -0.003759 -14.609375 -29.421875 1.570792 0.000003 -0.000003
    1 0.000005 3.345127 -2.981897 1.570796 0.086293 1.570796
    2 4.018333 0.000000 0.000000 0.000000 0.000000 -0.029242
    3 3.518562 0.000000 0.000000 0.000000 0.000000 0.100336
    4 8.942642 0.000002 0.000000 0.000000 0.000000 0.194096
    5 2.033360 1.000772 -1.937610 -2.765551 0.707237 1.724963
    6 6.028143 0.000000 0.000000 2.061436 0.586624 -0.248286
    7 11.692554 0.000000 0.000000 0.000000 0.000000 -0.479411
    8 11.481701 -0.000004 0.000001 -0.513769 0.191615 -0.012645
  time 4
    0 -0.003759 -14.609375 -29.421875 1.570792 0.000003 -0.000003
    1 0.000005 3.345127 -2.981897 1.570796 0.086293 1.570796
    2 4.018333 0.000000 0.000000 0.000000 0.000000 -0.029242
    3 3.518562 0.000000 0.000000 0.000000 0.000000 0.100336
    4 8.942642 0.000002 0.000000 0.000000 0.000000 0.194096
    5 2.033360 1.000772 -1.937610 -2.755858 0.734798 1.739711
    6 6.028143 0.000000 0.000000 2.008578 0.634695 -0.382230
    7 11.692554 0.000000 0.000000 0.000000 0.000000 -0.547416
    8 11.481701 -0.000004 0.000001 -0.573346 -0.127213 0.075573
  time 5
    0 -0.003759 -14.609375 -29.421875 1.570792 0.000003 -0.000003
    1 0.000005 3.345127 -2.981897 1.570796 0.086293 1.570796
    2 4.018333 0.000000 0.000000 0.000000 0.000000 -0.029242
    3 3.518562 0.000000 0.000000 0.000000 0.000000 0.100336
    4 8.942642 0.000002 0.000000 0.000000 0.000000 0.194096
    5 2.033360 1.000772 -1.937610 -2.741842 0.770881 1.760192
    6 6.028143 0.000000 0.000000 1.929924 0.734136 -0.548041
    7 11.692554 0.000000 0.000000 0.000000 0.000000 -0.544121
    8 11.481701 -0.000004 0.000001 -0.576409 -0.254564 0.180105
  time 6
    0 -0.003759 -14.609375 -29.421875 1.570792 0.000003 -0.000003
    1 0.000005 3.345127 -2.981897 1.570796 0.086293 1.570796
    2 4.018333 0.000000 0.000000 0.000000 0.000000 -0.029242
    3 3.518562 0.000000 0.000000 0.000000 0.000000 0.100336
    4 8.942642 0.000002 0.000000 0.000000 0.000000 0.194096
    5 2.033360 1.000772 -1.937610 -2.722874 0.814021 1.786842
    6 6.028143 0.000000 0.000000 1.815935 0.850985 -0.742177
    7 11.692554 0.000000 0.000000 0.000000 0.000000 -0.468908
    8 11.481701 -0.000004 0.000001 -0.661641 -0.493227 0.446517
  time 7
    0 -0.003759 -14.609375 -29.421875 1.570792 0.000003 -0.000003
    1 0.000005 3.345127 -2.981897 1.570796 0.086293 1.570796
    2 4.018333 0.000000 0.000000 0.000000 0.000000 -0.029242
    3 3.518562 0.000000 0.000000 0.000000 0.000000 0.100336
    4 8.942642 0.000002 0.000000 0.000000 0.000000 0.194096
    5 2.033360 1.000772 -1.937610 -2.698014 0.862659 1.820212
    6 6.028143 0.000000 0.000000 1.661481 0.946273 -0.961777
    7 11.692554 0.000000 0.000000 0.000000 0.000000 -0.363544
    8 11.481701 -0.000004 0.000001 -0.861127 -0.586807 0.821769
  time 8
    0 -0.003759 -14.609375 -29.421875 1.570792 0.000003 -0.000003
    1 0.000005 3.345127 -2.981897 1.570796 0.086293 1.570796
    2 4.018333 0.000000 0.000000 0.000000 0.000000 -0.029242
    3 3.518562 0.000000 0.000000 0.000000 0.000000 0.100336
    4 8.942642 0.000002 0.000000 0.000000 0.000000 0.194096
    5 2.033360 1.000772 -1.937610 -2.666007 0.915146 1.861411
    6 6.028143 0.000000 0.000000 1.493008 0.948549 -1.170076
    7 11.692554 0.000000 0.000000 0.000000 0.000000 -0.363255
    8 11.481701 -0.000004 0.000001 -0.936480 -0.466369 1.102570
  time 9
    0 -0.003759 -14.609375 -29.421875 1.570792 0.000003 -0.000003
    1 0.000005 3.345127 -2.981897 1.570796 0.086293 1.570796
    2 4.018333 0.000000 0.000000 0.000000 0.000000 -0.029242
    3 3.518562 0.000000 0.000000 0.000000 0.000000 0.100336
    4 8.942642 0.000002 0.000000 0.000000 0.000000 0.194096
    5 2.033360 1.000772 -1.937610 -2.625283 0.969809 1.911744
    6 6.028143 0.000000 0.000000 1.380392 0.834487 -1.283982
    7 11.692554 0.000000 0.000000 0.000000 0.000000 -0.543297
    8 11.481701 -0.000004 0.000001 -0.869321 -0.309947 1.255707
  time 10
    0 -0.003759 -14.609375 -29.421875 1.570792 0.000003 -0.000003
    1 0.000005 3.345127 -2.981897 1.570796 0.086293 1.570796
    2 4.018333 0.000000 0.000000 0.000000 0.000000 -0.029242
    3 3.518562 0.000000 0.000000 0.000000 0.000000 0.100336
    4 8.942642 0.000002 0.000000 0.000000 0.000000 0.194096
    5 2.033360 1.000772 -1.937610 -2.573924 1.024954 1.972911
    6 6.028143 0.000000 0.000000 1.343865 0.548907 -1.267559
    7 11.692554 0.000000 0.000000 0.000000 0.000000 -0.961788
    8 11.481701 -0.000004 0.000001 -0.822225 -0.240001 1.316025
  time 11
    0 -0.003759 -14.609375 -29.421875 1.570792 0.000003 -0.000003
    1 0.000005 3.345127 -2.981897 1.570796 0.086293 1.570796
    2 4.018333 0.000000 0.000000 0.000000 0.000000 -0.029242
    3 3.518562 0.000000 0.000000 0.000000 0.000000 0.100336
    4 8.942642 0.000002 0.000000 0.000000 0.000000 0.194096
    5 2.033360 1.000772 -1.937610 -2.509630 1.078678 2.046927
    6 6.028143 0.000000 0.000000 1.328691 0.167811 -1.165104
    7 11.692554 0.000000 0.000000 0.000000 0.000000 -1.384069
    8 11.481701 -0.000004 0.000001 -0.841063 -0.258034 1.254411
  time 12
    0 -0.003759 -14.609375 -29.421875 1.570792 0.000003 -0.000003
    1 0.000005 3.345127 -2.981897 1.570796 0.086293 1.570796
    2 4.018333 0.000000 0.000000 0.000000 0.000000 -0.029242
    3 3.518562 0.000000 0.000000 0.000000 0.000000 0.100336
    4 8.942642 0.000002 0.000000 0.000000 0.000000 0.194096
    5 2.033360 1.000772 -1.937610 -2.430169 1.129057 2.135850
    6 6.028143 0.000000 0.000000 1.309687 -0.189733 -1.017524
    7 11.692554 0.000000 0.000000 0.000000 0.000000 -1.622271
    8 11.481701 -0.000004 0.000001 -0.852091 -0.282460 1.058607
  time 13
    0 -0.003759 -14.609375 -29.421875 1.570792 0.000003 -0.000003
    1 0.000005 3.345127 -2.981897 1.570796 0.086293 1.570796
    2 4.018333 0.000000 0.000000 0.000000 0.000000 -0.029242
    3 3.518562 0.000000 0.000000 0.000000 0.000000 0.100336
    4 8.942642 0.000002 0.000000 0.000000 0.000000 0.194096
    5 2.033360 1.000772 -1.937610 -2.334042 1.174213 2.241022
    6 6.028143 0.000000 0.000000 1.306074 -0.421326 -0.872732
    7 11.692554 0.000000 0.000000 0.000000 0.000000 -1.673923
    8 11.481701 -0.000004 0.000001 -0.864420 -0.237214 0.769900
  time 14
    0 -0.003759 -14.609375 -29.421875 1.570792 0.000003 -0.000003
    1 0.000005 3.345127 -2.981897 1.570796 0.086293 1.570796
    2 4.018333 0.000000 0.000000 0.000000 0.000000 -0.029242
    3 3.518562 0.000000 0.000000 0.000000 0.000000 0.100336
    4 8.942642 0.000002 0.000000 0.000000 0.000000 0.194096
    5 2.033360 1.000772 -1.937610 -2.221737 1.212289 2.361892
    6 6.028143 0.000000 0.000000 1.347225 -0.486122 -0.779016
    7 11.692554 0.000000 0.000000 0.000000 0.000000 -1.666426
    8 11.481701 -0.000004 0.000001 -0.901101 -0.115847 0.485669
  time 15
    0 -0.003759 -14.609375 -29.421875 1.570792 0.000003 -0.000003
    1 0.000005 3.345127 -2.981897 1.570796 0.086293 1.570796
    2 4.018333 0.000000 0.000000 0.000000 0.000000 -0.029242
    3 3.518562 0.000000 0.000000 0.000000 0.000000 0.100336
    4 8.942642 0.000002 0.000000 0.000000 0.000000 0.194096
    5 2.033360 1.000772 -1.937610 -2.097263 1.242072 2.493991
    6 6.028143 0.000000 0.000000 1.416486 -0.404942 -0.732987
    7 11.692554 0.000000 0.000000 0.000000 0.000000 -1.667127
    8 11.481701 -0.000004 0.000001 -0.900182 -0.014890 0.289238
  time 16
    0 -0.003759 -14.609375 -29.421875 1.570792 0.000003 -0.000003
    1 0.000005 3.345127 -2.981897 1.570796 0.086293 1.570796
    2 4.018333 0.000000 0.000000 0.000000 0.000000 -0.029242
    3 3.518562 0.000000 0.000000 0.000000 0.000000 0.100336
    4 8.942642 0.000002 0.000000 0.000000 0.000000 0.194096
    5 2.033360 1.000772 -1.937610 -1.969442 1.263127 2.628541
    6 6.028143 0.000000 0.000000 1.476208 -0.223468 -0.703531
    7 11.692554 0.000000 0.000000 0.000000 0.000000 -1.632074
    8 11.481701 -0.000004 0.000001 -0.856992 0.023690 0.186840
  time 17
    0 -0.003759 -14.609375 -29.421875 1.570792 0.000003 -0.000003
    1 0.000005 3.345127 -2.981897 1.570796 0.086293 1.570796
    2 4.018333 0.000000 0.000000 0.000000 0.000000 -0.029242
    3 3.518562 0.000000 0.000000 0.000000 0.000000 0.100336
    4 8.942642 0.000002 0.000000 0.000000 0.000000 0.194096
    5 2.033360 1.000772 -1.937610 -1.850721 1.276139 2.752811
    6 6.028143 0.000000 0.000000 1.515228 0.020186 -0.677842
    7 11.692554 0.000000 0.000000 0.000000 0.000000 -1.532147
    8 11.481701 -0.000004 0.000001 -0.844816 0.037570 0.134553
  time 18
    0 -0.003759 -14.609375 -29.421875 1.570792 0.000003 -0.000003
    1 0.000005 3.345127 -2.981897 1.570796 0.086293 1.570796
    2 4.018333 0.000000 0.000000 0.000000 0.000000 -0.029242
    3 3.518562 0.000000 0.000000 0.000000 0.000000 0.100336
    4 8.942642 0.000002 0.000000 0.000000 0.000000 0.194096
    5 2.033360 1.000772 -1.937610 -1.754245 1.282967 2.853516
    6 6.028143 0.000000 0.000000 1.538459 0.289097 -0.655317
    7 11.692554 0.000000 0.000000 0.000000 0.000000 -1.355359
    8 11.481701 -0.000004 0.000001 -0.850789 0.033007 0.120038
  time 19
    0 -0.003759 -14.609375 -29.421875 1.570792 0.000003 -0.000003
    1 0.000005 3.345127 -2.981897 1.570796 0.086293 1.570796
    2 4.018333 0.000000 0.000000 0.000000 0.000000 -0.029242
    3 3.518562 0.000000 0.000000 0.000000 0.000000 0.100336
    4 8.942642 0.000002 0.000000 0.000000 0.000000 0.194096
    5 2.033360 1.000772 -1.937610 -1.690928 1.285830 2.919546
    6 6.028143 0.000000 0.000000 1.552478 0.542194 -0.637613
    7 11.692554 0.000000 0.000000 0.000000 0.000000 -1.123294
    8 11.481701 -0.000004 0.000001 -0.865951 0.018362 0.129742
  time 20
    0 -0.003759 -14.609375 -29.421875 1.570792 0.000003 -0.000003
    1 0.000005 3.345127 -2.981897 1.570796 0.086293 1.570796
    2 4.018333 0.000000 0.000000 0.000000 0.000000 -0.029242
    3 3.518562 0.000000 0.000000 0.000000 0.000000 0.100336
    4 8.942642 0.000002 0.000000 0.000000 0.000000 0.194096
    5 2.033360 1.000772 -1.937610 -1.668474 1.286518 2.942953
    6 6.028143 0.000000 0.000000 1.558945 0.684302 -0.628875
    7 11.692554 0.000000 0.000000 0.000000 0.000000 -0.963065
    8 11.481701 -0.000004 0.000001 -0.876978 0.007870 0.141748
end
