// Created by Crowbar 0.74
version 1
nodes
  0 "ValveBiped.Bip01" -1
  1 "ValveBiped.Bip01_Spine" 0
  2 "ValveBiped.Bip01_Spine1" 1
  3 "ValveBiped.Bip01_Spine2" 2
  4 "ValveBiped.Bip01_Spine4" 3
  5 "ValveBiped.Bip01_R_Clavicle" 4
  6 "ValveBiped.Bip01_R_UpperArm" 5
  7 "ValveBiped.Bip01_R_Forearm" 6
  8 "ValveBiped.Bip01_R_Hand" 7
end
skeleton
  time 0
    0 -0.003759 -14.609375 -29.421875 1.570792 0.000003 -0.000003
    1 0.000005 3.345127 -2.981897 1.570796 0.086293 1.570796
    2 4.018333 0.000000 0.000000 0.000000 0.000000 -0.029242
    3 3.518562 0.000000 0.000000 0.000000 0.000000 0.100336
    4 8.942642 0.000002 0.000000 0.000000 0.000000 0.194096
    5 2.033360 1.000772 -1.937610 -1.668474 1.286518 2.942953
    6 6.028143 0.000000 0.000000 1.648217 0.686896 -0.731830
    7 11.692554 0.000000 0.000000 0.000000 0.000000 -0.963105
    8 11.481701 -0.000004 0.000001 -0.876978 0.007870 0.141748
  time 1
    0 -0.003759 -14.609375 -29.421875 1.570792 0.000003 -0.000003
    1 0.000005 3.345127 -2.981897 1.570796 0.086293 1.570796
    2 4.018333 0.000000 0.000000 0.000000 0.000000 -0.029242
    3 3.518562 0.000000 0.000000 0.000000 0.000000 0.100336
    4 8.942642 0.000002 0.000000 0.000000 0.000000 0.194096
    5 2.033360 1.000772 -1.937610 -1.668474 1.286518 2.942953
    6 6.028143 0.000000 0.000000 1.648217 0.686896 -0.731830
    7 11.692554 0.000000 0.000000 0.000000 0.000000 -0.963105
    8 11.481701 -0.000004 0.000001 -0.876978 0.007870 0.141831
  time 2
    0 -0.003759 -14.609375 -29.421875 1.570792 0.000003 -0.000003
    1 0.000005 3.345127 -2.981897 1.570796 0.086293 1.570796
    2 4.018333 0.000000 0.000000 0.000000 0.000000 -0.029242
    3 3.518562 0.000000 0.000000 0.000000 0.000000 0.100336
    4 8.942642 0.000002 0.000000 0.000000 0.000000 0.194096
    5 2.033360 1.000772 -1.937610 -1.668474 1.286518 2.942953
    6 6.028143 0.000000 0.000000 1.648217 0.686896 -0.731830
    7 11.692554 0.000000 0.000000 0.000000 0.000000 -0.963105
    8 11.481701 -0.000004 0.000001 -0.876978 0.007870 0.141957
  time 3
    0 -0.003759 -14.609375 -29.421875 1.570792 0.000003 -0.000003
    1 0.000005 3.345127 -2.981897 1.570796 0.086293 1.570796
    2 4.018333 0.000000 0.000000 0.000000 0.000000 -0.029242
    3 3.518562 0.000000 0.000000 0.000000 0.000000 0.100336
    4 8.942642 0.000002 0.000000 0.000000 0.000000 0.194096
    5 2.033360 1.000772 -1.937610 -1.668474 1.286518 2.942953
    6 6.028143 0.000000 0.000000 1.648217 0.686896 -0.731830
    7 11.692554 0.000000 0.000000 0.000000 0.000000 -0.963105
    8 11.481701 -0.000004 0.000001 -0.876978 0.007870 0.142166
  time 4
    0 -0.003759 -14.609375 -29.421875 1.570792 0.000003 -0.000003
    1 0.000005 3.345127 -2.981897 1.570796 0.086293 1.570796
    2 4.018333 0.000000 0.000000 0.000000 0.000000 -0.029242
    3 3.518562 0.000000 0.000000 0.000000 0.000000 0.100336
    4 8.942642 0.000002 0.000000 0.000000 0.000000 0.194096
    5 2.033360 1.000772 -1.937610 -1.668474 1.286518 2.942953
    6 6.028143 0.000000 0.000000 1.648217 0.686896 -0.731830
    7 11.692554 0.000000 0.000000 0.000000 0.000000 -0.963105
    8 11.481701 -0.000004 0.000001 -0.876978 0.007870 0.142417
  time 5
    0 -0.003759 -14.609375 -29.421875 1.570792 0.000003 -0.000003
    1 0.000005 3.345127 -2.981897 1.570796 0.086293 1.570796
    2 4.018333 0.000000 0.000000 0.000000 0.000000 -0.029242
    3 3.518562 0.000000 0.000000 0.000000 0.000000 0.100336
    4 8.942642 0.000002 0.000000 0.000000 0.000000 0.194096
    5 2.033360 1.000772 -1.937610 -1.668474 1.286518 2.942953
    6 6.028143 0.000000 0.000000 1.648217 0.686896 -0.731830
    7 11.692554 0.000000 0.000000 0.000000 0.000000 -0.963105
    8 11.481701 -0.000004 0.000001 -0.876978 0.007815 0.142668
  time 6
    0 -0.003759 -14.609375 -29.421875 1.570792 0.000003 -0.000003
    1 0.000005 3.345127 -2.981897 1.570796 0.086293 1.570796
    2 4.018333 0.000000 0.000000 0.000000 0.000000 -0.029242
    3 3.518562 0.000000 0.000000 0.000000 0.000000 0.100336
    4 8.942642 0.000002 0.000000 0.000000 0.000000 0.194096
    5 2.033360 1.000772 -1.937610 -1.668474 1.286518 2.942953
    6 6.028143 0.000000 0.000000 1.648217 0.686896 -0.731830
    7 11.692554 0.000000 0.000000 0.000000 0.000000 -0.963105
    8 11.481701 -0.000004 0.000001 -0.876902 0.007815 0.142919
  time 7
    0 -0.003759 -14.609375 -29.421875 1.570792 0.000003 -0.000003
    1 0.000005 3.345127 -2.981897 1.570796 0.086293 1.570796
    2 4.018333 0.000000 0.000000 0.000000 0.000000 -0.029242
    3 3.518562 0.000000 0.000000 0.000000 0.000000 0.100336
    4 8.942642 0.000002 0.000000 0.000000 0.000000 0.194096
    5 2.033360 1.000772 -1.937610 -1.668474 1.286518 2.942953
    6 6.028143 0.000000 0.000000 1.648217 0.686896 -0.731830
    7 11.692554 0.000000 0.000000 0.000000 0.000000 -0.963105
    8 11.481701 -0.000004 0.000001 -0.876902 0.007815 0.143128
  time 8
    0 -0.003759 -14.609375 -29.421875 1.570792 0.000003 -0.000003
    1 0.000005 3.345127 -2.981897 1.570796 0.086293 1.570796
    2 4.018333 0.000000 0.000000 0.000000 0.000000 -0.029242
    3 3.518562 0.000000 0.000000 0.000000 0.000000 0.100336
    4 8.942642 0.000002 0.000000 0.000000 0.000000 0.194096
    5 2.033360 1.000772 -1.937610 -1.668474 1.286518 2.942953
    6 6.028143 0.000000 0.000000 1.648217 0.686896 -0.731830
    7 11.692554 0.000000 0.000000 0.000000 0.000000 -0.963105
    8 11.481701 -0.000004 0.000001 -0.876902 0.007815 0.143253
  time 9
    0 -0.003759 -14.609375 -29.421875 1.570792 0.000003 -0.000003
    1 0.000005 3.345127 -2.981897 1.570796 0.086293 1.570796
    2 4.018333 0.000000 0.000000 0.000000 0.000000 -0.029242
    3 3.518562 0.000000 0.000000 0.000000 0.000000 0.100336
    4 8.942642 0.000002 0.000000 0.000000 0.000000 0.194096
    5 2.033360 1.000772 -1.937610 -1.668474 1.286518 2.942953
    6 6.028143 0.000000 0.000000 1.648217 0.686896 -0.731830
    7 11.692554 0.000000 0.000000 0.000000 0.000000 -0.963105
    8 11.481701 -0.000004 0.000001 -0.876825 0.007815 0.143295
  time 10
    0 -0.003759 -14.609375 -29.421875 1.570792 0.000003 -0.000003
    1 0.000005 3.345127 -2.981897 1.570796 0.086293 1.570796
    2 4.018333 0.000000 0.000000 0.000000 0.000000 -0.029242
    3 3.518562 0.000000 0.000000 0.000000 0.000000 0.100336
    4 8.942642 0.000002 0.000000 0.000000 0.000000 0.194096
    5 2.033360 1.000772 -1.937610 -1.668474 1.286518 2.942953
    6 6.028143 0.000000 0.000000 1.648217 0.686896 -0.731830
    7 11.692554 0.000000 0.000000 0.000000 0.000000 -0.963105
    8 11.481701 -0.000004 0.000001 -0.876825 0.007815 0.143253
  time 11
    0 -0.003759 -14.609375 -29.421875 1.570792 0.000003 -0.000003
    1 0.000005 3.345127 -2.981897 1.570796 0.086293 1.570796
    2 4.018333 0.000000 0.000000 0.000000 0.000000 -0.029242
    3 3.518562 0.000000 0.000000 0.000000 0.000000 0.100336
    4 8.942642 0.000002 0.000000 0.000000 0.000000 0.194096
    5 2.033360 1.000772 -1.937610 -1.668474 1.286518 2.942953
    6 6.028143 0.000000 0.000000 1.648217 0.686896 -0.731830
    7 11.692554 0.000000 0.000000 0.000000 0.000000 -0.963105
    8 11.481701 -0.000004 0.000001 -0.876825 0.007815 0.143044
  time 12
    0 -0.003759 -14.609375 -29.421875 1.570792 0.000003 -0.000003
    1 0.000005 3.345127 -2.981897 1.570796 0.086293 1.570796
    2 4.018333 0.000000 0.000000 0.000000 0.000000 -0.029242
    3 3.518562 0.000000 0.000000 0.000000 0.000000 0.100336
    4 8.942642 0.000002 0.000000 0.000000 0.000000 0.194096
    5 2.033360 1.000772 -1.937610 -1.668474 1.286518 2.942953
    6 6.028143 0.000000 0.000000 1.648217 0.686896 -0.731830
    7 11.692554 0.000000 0.000000 0.000000 0.000000 -0.963105
    8 11.481701 -0.000004 0.000001 -0.876902 0.007815 0.142793
  time 13
    0 -0.003759 -14.609375 -29.421875 1.570792 0.000003 -0.000003
    1 0.000005 3.345127 -2.981897 1.570796 0.086293 1.570796
    2 4.018333 0.000000 0.000000 0.000000 0.000000 -0.029242
    3 3.518562 0.000000 0.000000 0.000000 0.000000 0.100336
    4 8.942642 0.000002 0.000000 0.000000 0.000000 0.194096
    5 2.033360 1.000772 -1.937610 -1.668474 1.286518 2.942953
    6 6.028143 0.000000 0.000000 1.648217 0.686896 -0.731830
    7 11.692554 0.000000 0.000000 0.000000 0.000000 -0.963105
    8 11.481701 -0.000004 0.000001 -0.876978 0.007870 0.142500
  time 14
    0 -0.003759 -14.609375 -29.421875 1.570792 0.000003 -0.000003
    1 0.000005 3.345127 -2.981897 1.570796 0.086293 1.570796
    2 4.018333 0.000000 0.000000 0.000000 0.000000 -0.029242
    3 3.518562 0.000000 0.000000 0.000000 0.000000 0.100336
    4 8.942642 0.000002 0.000000 0.000000 0.000000 0.194096
    5 2.033360 1.000772 -1.937610 -1.668474 1.286518 2.942953
    6 6.028143 0.000000 0.000000 1.648217 0.686896 -0.731830
    7 11.692554 0.000000 0.000000 0.000000 0.000000 -0.963105
    8 11.481701 -0.000004 0.000001 -0.877208 0.007870 0.142249
  time 15
    0 -0.003759 -14.609375 -29.421875 1.570792 0.000003 -0.000003
    1 0.000005 3.345127 -2.981897 1.570796 0.086293 1.570796
    2 4.018333 0.000000 0.000000 0.000000 0.000000 -0.029242
    3 3.518562 0.000000 0.000000 0.000000 0.000000 0.100336
    4 8.942642 0.000002 0.000000 0.000000 0.000000 0.194096
    5 2.033360 1.000772 -1.937610 -1.668474 1.286518 2.942953
    6 6.028143 0.000000 0.000000 1.648217 0.686896 -0.731830
    7 11.692554 0.000000 0.000000 0.000000 0.000000 -0.963105
    8 11.481701 -0.000004 0.000001 -0.877438 0.007870 0.141999
  time 16
    0 -0.003759 -14.609375 -29.421875 1.570792 0.000003 -0.000003
    1 0.000005 3.345127 -2.981897 1.570796 0.086293 1.570796
    2 4.018333 0.000000 0.000000 0.000000 0.000000 -0.029242
    3 3.518562 0.000000 0.000000 0.000000 0.000000 0.100336
    4 8.942642 0.000002 0.000000 0.000000 0.000000 0.194096
    5 2.033360 1.000772 -1.937610 -1.668474 1.286518 2.942953
    6 6.028143 0.000000 0.000000 1.648217 0.686896 -0.731830
    7 11.692554 0.000000 0.000000 0.000000 0.000000 -0.963105
    8 11.481701 -0.000004 0.000001 -0.877744 0.007870 0.141831
  time 17
    0 -0.003759 -14.609375 -29.421875 1.570792 0.000003 -0.000003
    1 0.000005 3.345127 -2.981897 1.570796 0.086293 1.570796
    2 4.018333 0.000000 0.000000 0.000000 0.000000 -0.029242
    3 3.518562 0.000000 0.000000 0.000000 0.000000 0.100336
    4 8.942642 0.000002 0.000000 0.000000 0.000000 0.194096
    5 2.033360 1.000772 -1.937610 -1.668474 1.286518 2.942953
    6 6.028143 0.000000 0.000000 1.648217 0.686896 -0.731830
    7 11.692554 0.000000 0.000000 0.000000 0.000000 -0.963105
    8 11.481701 -0.000004 0.000001 -0.878051 0.007870 0.141748
  time 18
    0 -0.003759 -14.609375 -29.421875 1.570792 0.000003 -0.000003
    1 0.000005 3.345127 -2.981897 1.570796 0.086293 1.570796
    2 4.018333 0.000000 0.000000 0.000000 0.000000 -0.029242
    3 3.518562 0.000000 0.000000 0.000000 0.000000 0.100336
    4 8.942642 0.000002 0.000000 0.000000 0.000000 0.194096
    5 2.033360 1.000772 -1.937610 -1.668474 1.286518 2.942953
    6 6.028143 0.000000 0.000000 1.648217 0.686896 -0.731830
    7 11.692554 0.000000 0.000000 0.000000 0.000000 -0.963105
    8 11.481701 -0.000004 0.000001 -0.878357 0.007870 0.141413
  time 19
    0 -0.003759 -14.609375 -29.421875 1.570792 0.000003 -0.000003
    1 0.000005 3.345127 -2.981897 1.570796 0.086293 1.570796
    2 4.018333 0.000000 0.000000 0.000000 0.000000 -0.029242
    3 3.518562 0.000000 0.000000 0.000000 0.000000 0.100336
    4 8.942642 0.000002 0.000000 0.000000 0.000000 0.194096
    5 2.033360 1.000772 -1.937610 -1.668474 1.286518 2.942953
    6 6.028143 0.000000 0.000000 1.648217 0.686896 -0.731830
    7 11.692554 0.000000 0.000000 0.000000 0.000000 -0.963105
    8 11.481701 -0.000004 0.000001 -0.878663 0.007870 0.140576
  time 20
    0 -0.003759 -14.609375 -29.421875 1.570792 0.000003 -0.000003
    1 0.000005 3.345127 -2.981897 1.570796 0.086293 1.570796
    2 4.018333 0.000000 0.000000 0.000000 0.000000 -0.029242
    3 3.518562 0.000000 0.000000 0.000000 0.000000 0.100336
    4 8.942642 0.000002 0.000000 0.000000 0.000000 0.194096
    5 2.033360 1.000772 -1.937610 -1.668474 1.286518 2.942953
    6 6.028143 0.000000 0.000000 1.648217 0.686896 -0.731830
    7 11.692554 0.000000 0.000000 0.000000 0.000000 -0.963105
    8 11.481701 -0.000004 0.000001 -0.878970 0.007870 0.139405
  time 21
    0 -0.003759 -14.609375 -29.421875 1.570792 0.000003 -0.000003
    1 0.000005 3.345127 -2.981897 1.570796 0.086293 1.570796
    2 4.018333 0.000000 0.000000 0.000000 0.000000 -0.029242
    3 3.518562 0.000000 0.000000 0.000000 0.000000 0.100336
    4 8.942642 0.000002 0.000000 0.000000 0.000000 0.194096
    5 2.033360 1.000772 -1.937610 -1.668474 1.286518 2.942953
    6 6.028143 0.000000 0.000000 1.648217 0.686896 -0.731830
    7 11.692554 0.000000 0.000000 0.000000 0.000000 -0.963105
    8 11.481701 -0.000004 0.000001 -0.879276 0.007870 0.138025
  time 22
    0 -0.003759 -14.609375 -29.421875 1.570792 0.000003 -0.000003
    1 0.000005 3.345127 -2.981897 1.570796 0.086293 1.570796
    2 4.018333 0.000000 0.000000 0.000000 0.000000 -0.029242
    3 3.518562 0.000000 0.000000 0.000000 0.000000 0.100336
    4 8.942642 0.000002 0.000000 0.000000 0.000000 0.194096
    5 2.033360 1.000772 -1.937610 -1.668474 1.286518 2.942953
    6 6.028143 0.000000 0.000000 1.648217 0.686896 -0.731830
    7 11.692554 0.000000 0.000000 0.000000 0.000000 -0.963105
    8 11.481701 -0.000004 0.000001 -0.879429 0.007870 0.136644
  time 23
    0 -0.003759 -14.609375 -29.421875 1.570792 0.000003 -0.000003
    1 0.000005 3.345127 -2.981897 1.570796 0.086293 1.570796
    2 4.018333 0.000000 0.000000 0.000000 0.000000 -0.029242
    3 3.518562 0.000000 0.000000 0.000000 0.000000 0.100336
    4 8.942642 0.000002 0.000000 0.000000 0.000000 0.194096
    5 2.033360 1.000772 -1.937610 -1.668474 1.286518 2.942953
    6 6.028143 0.000000 0.000000 1.648217 0.686896 -0.731830
    7 11.692554 0.000000 0.000000 0.000000 0.000000 -0.963105
    8 11.481701 -0.000004 0.000001 -0.879429 0.007870 0.135431
  time 24
    0 -0.003759 -14.609375 -29.421875 1.570792 0.000003 -0.000003
    1 0.000005 3.345127 -2.981897 1.570796 0.086293 1.570796
    2 4.018333 0.000000 0.000000 0.000000 0.000000 -0.029242
    3 3.518562 0.000000 0.000000 0.000000 0.000000 0.100336
    4 8.942642 0.000002 0.000000 0.000000 0.000000 0.194096
    5 2.033360 1.000772 -1.937610 -1.668474 1.286518 2.942953
    6 6.028143 0.000000 0.000000 1.648217 0.686896 -0.731830
    7 11.692554 0.000000 0.000000 0.000000 0.000000 -0.963105
    8 11.481701 -0.000004 0.000001 -0.879276 0.007870 0.134595
  time 25
    0 -0.003759 -14.609375 -29.421875 1.570792 0.000003 -0.000003
    1 0.000005 3.345127 -2.981897 1.570796 0.086293 1.570796
    2 4.018333 0.000000 0.000000 0.000000 0.000000 -0.029242
    3 3.518562 0.000000 0.000000 0.000000 0.000000 0.100336
    4 8.942642 0.000002 0.000000 0.000000 0.000000 0.194096
    5 2.033360 1.000772 -1.937610 -1.668474 1.286518 2.942953
    6 6.028143 0.000000 0.000000 1.648217 0.686896 -0.731830
    7 11.692554 0.000000 0.000000 0.000000 0.000000 -0.963105
    8 11.481701 -0.000004 0.000001 -0.879199 0.007870 0.134469
  time 26
    0 -0.003759 -14.609375 -29.421875 1.570792 0.000003 -0.000003
    1 0.000005 3.345127 -2.981897 1.570796 0.086293 1.570796
    2 4.018333 0.000000 0.000000 0.000000 0.000000 -0.029242
    3 3.518562 0.000000 0.000000 0.000000 0.000000 0.100336
    4 8.942642 0.000002 0.000000 0.000000 0.000000 0.194096
    5 2.033360 1.000772 -1.937610 -1.668474 1.286518 2.942953
    6 6.028143 0.000000 0.000000 1.648217 0.686896 -0.731830
    7 11.692554 0.000000 0.000000 0.000000 0.000000 -0.963105
    8 11.481701 -0.000004 0.000001 -0.879046 0.007870 0.134553
  time 27
    0 -0.003759 -14.609375 -29.421875 1.570792 0.000003 -0.000003
    1 0.000005 3.345127 -2.981897 1.570796 0.086293 1.570796
    2 4.018333 0.000000 0.000000 0.000000 0.000000 -0.029242
    3 3.518562 0.000000 0.000000 0.000000 0.000000 0.100336
    4 8.942642 0.000002 0.000000 0.000000 0.000000 0.194096
    5 2.033360 1.000772 -1.937610 -1.668474 1.286518 2.942953
    6 6.028143 0.000000 0.000000 1.648217 0.686896 -0.731830
    7 11.692554 0.000000 0.000000 0.000000 0.000000 -0.963105
    8 11.481701 -0.000004 0.000001 -0.878893 0.007870 0.134762
  time 28
    0 -0.003759 -14.609375 -29.421875 1.570792 0.000003 -0.000003
    1 0.000005 3.345127 -2.981897 1.570796 0.086293 1.570796
    2 4.018333 0.000000 0.000000 0.000000 0.000000 -0.029242
    3 3.518562 0.000000 0.000000 0.000000 0.000000 0.100336
    4 8.942642 0.000002 0.000000 0.000000 0.000000 0.194096
    5 2.033360 1.000772 -1.937610 -1.668474 1.286518 2.942953
    6 6.028143 0.000000 0.000000 1.648217 0.686896 -0.731830
    7 11.692554 0.000000 0.000000 0.000000 0.000000 -0.963105
    8 11.481701 -0.000004 0.000001 -0.878740 0.007870 0.135013
  time 29
    0 -0.003759 -14.609375 -29.421875 1.570792 0.000003 -0.000003
    1 0.000005 3.345127 -2.981897 1.570796 0.086293 1.570796
    2 4.018333 0.000000 0.000000 0.000000 0.000000 -0.029242
    3 3.518562 0.000000 0.000000 0.000000 0.000000 0.100336
    4 8.942642 0.000002 0.000000 0.000000 0.000000 0.194096
    5 2.033360 1.000772 -1.937610 -1.668474 1.286518 2.942953
    6 6.028143 0.000000 0.000000 1.648217 0.686896 -0.731830
    7 11.692554 0.000000 0.000000 0.000000 0.000000 -0.963105
    8 11.481701 -0.000004 0.000001 -0.878587 0.007870 0.135348
  time 30
    0 -0.003759 -14.609375 -29.421875 1.570792 0.000003 -0.000003
    1 0.000005 3.345127 -2.981897 1.570796 0.086293 1.570796
    2 4.018333 0.000000 0.000000 0.000000 0.000000 -0.029242
    3 3.518562 0.000000 0.000000 0.000000 0.000000 0.100336
    4 8.942642 0.000002 0.000000 0.000000 0.000000 0.194096
    5 2.033360 1.000772 -1.937610 -1.668474 1.286518 2.942953
    6 6.028143 0.000000 0.000000 1.648217 0.686896 -0.731830
    7 11.692554 0.000000 0.000000 0.000000 0.000000 -0.963105
    8 11.481701 -0.000004 0.000001 -0.878433 0.007870 0.135766
  time 31
    0 -0.003759 -14.609375 -29.421875 1.570792 0.000003 -0.000003
    1 0.000005 3.345127 -2.981897 1.570796 0.086293 1.570796
    2 4.018333 0.000000 0.000000 0.000000 0.000000 -0.029242
    3 3.518562 0.000000 0.000000 0.000000 0.000000 0.100336
    4 8.942642 0.000002 0.000000 0.000000 0.000000 0.194096
    5 2.033360 1.000772 -1.937610 -1.668474 1.286518 2.942953
    6 6.028143 0.000000 0.000000 1.648217 0.686896 -0.731830
    7 11.692554 0.000000 0.000000 0.000000 0.000000 -0.963105
    8 11.481701 -0.000004 0.000001 -0.878280 0.007870 0.136226
  time 32
    0 -0.003759 -14.609375 -29.421875 1.570792 0.000003 -0.000003
    1 0.000005 3.345127 -2.981897 1.570796 0.086293 1.570796
    2 4.018333 0.000000 0.000000 0.000000 0.000000 -0.029242
    3 3.518562 0.000000 0.000000 0.000000 0.000000 0.100336
    4 8.942642 0.000002 0.000000 0.000000 0.000000 0.194096
    5 2.033360 1.000772 -1.937610 -1.668474 1.286518 2.942953
    6 6.028143 0.000000 0.000000 1.648217 0.686896 -0.731830
    7 11.692554 0.000000 0.000000 0.000000 0.000000 -0.963105
    8 11.481701 -0.000004 0.000001 -0.878127 0.007870 0.136770
  time 33
    0 -0.003759 -14.609375 -29.421875 1.570792 0.000003 -0.000003
    1 0.000005 3.345127 -2.981897 1.570796 0.086293 1.570796
    2 4.018333 0.000000 0.000000 0.000000 0.000000 -0.029242
    3 3.518562 0.000000 0.000000 0.000000 0.000000 0.100336
    4 8.942642 0.000002 0.000000 0.000000 0.000000 0.194096
    5 2.033360 1.000772 -1.937610 -1.668474 1.286518 2.942953
    6 6.028143 0.000000 0.000000 1.648217 0.686896 -0.731830
    7 11.692554 0.000000 0.000000 0.000000 0.000000 -0.963105
    8 11.481701 -0.000004 0.000001 -0.877974 0.007870 0.137314
  time 34
    0 -0.003759 -14.609375 -29.421875 1.570792 0.000003 -0.000003
    1 0.000005 3.345127 -2.981897 1.570796 0.086293 1.570796
    2 4.018333 0.000000 0.000000 0.000000 0.000000 -0.029242
    3 3.518562 0.000000 0.000000 0.000000 0.000000 0.100336
    4 8.942642 0.000002 0.000000 0.000000 0.000000 0.194096
    5 2.033360 1.000772 -1.937610 -1.668474 1.286518 2.942953
    6 6.028143 0.000000 0.000000 1.648217 0.686896 -0.731830
    7 11.692554 0.000000 0.000000 0.000000 0.000000 -0.963105
    8 11.481701 -0.000004 0.000001 -0.877821 0.007870 0.137857
  time 35
    0 -0.003759 -14.609375 -29.421875 1.570792 0.000003 -0.000003
    1 0.000005 3.345127 -2.981897 1.570796 0.086293 1.570796
    2 4.018333 0.000000 0.000000 0.000000 0.000000 -0.029242
    3 3.518562 0.000000 0.000000 0.000000 0.000000 0.100336
    4 8.942642 0.000002 0.000000 0.000000 0.000000 0.194096
    5 2.033360 1.000772 -1.937610 -1.668474 1.286518 2.942953
    6 6.028143 0.000000 0.000000 1.648217 0.686896 -0.731830
    7 11.692554 0.000000 0.000000 0.000000 0.000000 -0.963105
    8 11.481701 -0.000004 0.000001 -0.877591 0.007870 0.138443
  time 36
    0 -0.003759 -14.609375 -29.421875 1.570792 0.000003 -0.000003
    1 0.000005 3.345127 -2.981897 1.570796 0.086293 1.570796
    2 4.018333 0.000000 0.000000 0.000000 0.000000 -0.029242
    3 3.518562 0.000000 0.000000 0.000000 0.000000 0.100336
    4 8.942642 0.000002 0.000000 0.000000 0.000000 0.194096
    5 2.033360 1.000772 -1.937610 -1.668474 1.286518 2.942953
    6 6.028143 0.000000 0.000000 1.648217 0.686896 -0.731830
    7 11.692554 0.000000 0.000000 0.000000 0.000000 -0.963105
    8 11.481701 -0.000004 0.000001 -0.877438 0.007870 0.138987
  time 37
    0 -0.003759 -14.609375 -29.421875 1.570792 0.000003 -0.000003
    1 0.000005 3.345127 -2.981897 1.570796 0.086293 1.570796
    2 4.018333 0.000000 0.000000 0.000000 0.000000 -0.029242
    3 3.518562 0.000000 0.000000 0.000000 0.000000 0.100336
    4 8.942642 0.000002 0.000000 0.000000 0.000000 0.194096
    5 2.033360 1.000772 -1.937610 -1.668474 1.286518 2.942953
    6 6.028143 0.000000 0.000000 1.648217 0.686896 -0.731830
    7 11.692554 0.000000 0.000000 0.000000 0.000000 -0.963105
    8 11.481701 -0.000004 0.000001 -0.877285 0.007870 0.139531
  time 38
    0 -0.003759 -14.609375 -29.421875 1.570792 0.000003 -0.000003
    1 0.000005 3.345127 -2.981897 1.570796 0.086293 1.570796
    2 4.018333 0.000000 0.000000 0.000000 0.000000 -0.029242
    3 3.518562 0.000000 0.000000 0.000000 0.000000 0.100336
    4 8.942642 0.000002 0.000000 0.000000 0.000000 0.194096
    5 2.033360 1.000772 -1.937610 -1.668474 1.286518 2.942953
    6 6.028143 0.000000 0.000000 1.648217 0.686896 -0.731830
    7 11.692554 0.000000 0.000000 0.000000 0.000000 -0.963105
    8 11.481701 -0.000004 0.000001 -0.877132 0.007870 0.140074
  time 39
    0 -0.003759 -14.609375 -29.421875 1.570792 0.000003 -0.000003
    1 0.000005 3.345127 -2.981897 1.570796 0.086293 1.570796
    2 4.018333 0.000000 0.000000 0.000000 0.000000 -0.029242
    3 3.518562 0.000000 0.000000 0.000000 0.000000 0.100336
    4 8.942642 0.000002 0.000000 0.000000 0.000000 0.194096
    5 2.033360 1.000772 -1.937610 -1.668474 1.286518 2.942953
    6 6.028143 0.000000 0.000000 1.648217 0.686896 -0.731830
    7 11.692554 0.000000 0.000000 0.000000 0.000000 -0.963105
    8 11.481701 -0.000004 0.000001 -0.876978 0.007870 0.140534
  time 40
    0 -0.003759 -14.609375 -29.421875 1.570792 0.000003 -0.000003
    1 0.000005 3.345127 -2.981897 1.570796 0.086293 1.570796
    2 4.018333 0.000000 0.000000 0.000000 0.000000 -0.029242
    3 3.518562 0.000000 0.000000 0.000000 0.000000 0.100336
    4 8.942642 0.000002 0.000000 0.000000 0.000000 0.194096
    5 2.033360 1.000772 -1.937610 -1.668474 1.286518 2.942953
    6 6.028143 0.000000 0.000000 1.648217 0.686896 -0.731830
    7 11.692554 0.000000 0.000000 0.000000 0.000000 -0.963105
    8 11.481701 -0.000004 0.000001 -0.876825 0.007870 0.140953
  time 41
    0 -0.003759 -14.609375 -29.421875 1.570792 0.000003 -0.000003
    1 0.000005 3.345127 -2.981897 1.570796 0.086293 1.570796
    2 4.018333 0.000000 0.000000 0.000000 0.000000 -0.029242
    3 3.518562 0.000000 0.000000 0.000000 0.000000 0.100336
    4 8.942642 0.000002 0.000000 0.000000 0.000000 0.194096
    5 2.033360 1.000772 -1.937610 -1.668474 1.286518 2.942953
    6 6.028143 0.000000 0.000000 1.648217 0.686896 -0.731830
    7 11.692554 0.000000 0.000000 0.000000 0.000000 -0.963105
    8 11.481701 -0.000004 0.000001 -0.876672 0.007870 0.141287
  time 42
    0 -0.003759 -14.609375 -29.421875 1.570792 0.000003 -0.000003
    1 0.000005 3.345127 -2.981897 1.570796 0.086293 1.570796
    2 4.018333 0.000000 0.000000 0.000000 0.000000 -0.029242
    3 3.518562 0.000000 0.000000 0.000000 0.000000 0.100336
    4 8.942642 0.000002 0.000000 0.000000 0.000000 0.194096
    5 2.033360 1.000772 -1.937610 -1.668474 1.286518 2.942953
    6 6.028143 0.000000 0.000000 1.648217 0.686896 -0.731830
    7 11.692554 0.000000 0.000000 0.000000 0.000000 -0.963105
    8 11.481701 -0.000004 0.000001 -0.876519 0.007870 0.141538
  time 43
    0 -0.003759 -14.609375 -29.421875 1.570792 0.000003 -0.000003
    1 0.000005 3.345127 -2.981897 1.570796 0.086293 1.570796
    2 4.018333 0.000000 0.000000 0.000000 0.000000 -0.029242
    3 3.518562 0.000000 0.000000 0.000000 0.000000 0.100336
    4 8.942642 0.000002 0.000000 0.000000 0.000000 0.194096
    5 2.033360 1.000772 -1.937610 -1.668474 1.286518 2.942953
    6 6.028143 0.000000 0.000000 1.648217 0.686896 -0.731830
    7 11.692554 0.000000 0.000000 0.000000 0.000000 -0.963105
    8 11.481701 -0.000004 0.000001 -0.876366 0.007870 0.141706
  time 44
    0 -0.003759 -14.609375 -29.421875 1.570792 0.000003 -0.000003
    1 0.000005 3.345127 -2.981897 1.570796 0.086293 1.570796
    2 4.018333 0.000000 0.000000 0.000000 0.000000 -0.029242
    3 3.518562 0.000000 0.000000 0.000000 0.000000 0.100336
    4 8.942642 0.000002 0.000000 0.000000 0.000000 0.194096
    5 2.033360 1.000772 -1.937610 -1.668474 1.286518 2.942953
    6 6.028143 0.000000 0.000000 1.648217 0.686896 -0.731830
    7 11.692554 0.000000 0.000000 0.000000 0.000000 -0.963105
    8 11.481701 -0.000004 0.000001 -0.876289 0.007870 0.141748
  time 45
    0 -0.003759 -14.609375 -29.421875 1.570792 0.000003 -0.000003
    1 0.000005 3.345127 -2.981897 1.570796 0.086293 1.570796
    2 4.018333 0.000000 0.000000 0.000000 0.000000 -0.029242
    3 3.518562 0.000000 0.000000 0.000000 0.000000 0.100336
    4 8.942642 0.000002 0.000000 0.000000 0.000000 0.194096
    5 2.033360 1.000772 -1.937610 -1.668474 1.286518 2.942953
    6 6.028143 0.000000 0.000000 1.648217 0.686896 -0.731830
    7 11.692554 0.000000 0.000000 0.000000 0.000000 -0.963105
    8 11.481701 -0.000004 0.000001 -0.876136 0.007870 0.141706
  time 46
    0 -0.003759 -14.609375 -29.421875 1.570792 0.000003 -0.000003
    1 0.000005 3.345127 -2.981897 1.570796 0.086293 1.570796
    2 4.018333 0.000000 0.000000 0.000000 0.000000 -0.029242
    3 3.518562 0.000000 0.000000 0.000000 0.000000 0.100336
    4 8.942642 0.000002 0.000000 0.000000 0.000000 0.194096
    5 2.033360 1.000772 -1.937610 -1.668474 1.286518 2.942953
    6 6.028143 0.000000 0.000000 1.648217 0.686896 -0.731830
    7 11.692554 0.000000 0.000000 0.000000 0.000000 -0.963105
    8 11.481701 -0.000004 0.000001 -0.876060 0.007870 0.141580
  time 47
    0 -0.003759 -14.609375 -29.421875 1.570792 0.000003 -0.000003
    1 0.000005 3.345127 -2.981897 1.570796 0.086293 1.570796
    2 4.018333 0.000000 0.000000 0.000000 0.000000 -0.029242
    3 3.518562 0.000000 0.000000 0.000000 0.000000 0.100336
    4 8.942642 0.000002 0.000000 0.000000 0.000000 0.194096
    5 2.033360 1.000772 -1.937610 -1.668474 1.286518 2.942953
    6 6.028143 0.000000 0.000000 1.648217 0.686896 -0.731830
    7 11.692554 0.000000 0.000000 0.000000 0.000000 -0.963105
    8 11.481701 -0.000004 0.000001 -0.876060 0.007870 0.141371
  time 48
    0 -0.003759 -14.609375 -29.421875 1.570792 0.000003 -0.000003
    1 0.000005 3.345127 -2.981897 1.570796 0.086293 1.570796
    2 4.018333 0.000000 0.000000 0.000000 0.000000 -0.029242
    3 3.518562 0.000000 0.000000 0.000000 0.000000 0.100336
    4 8.942642 0.000002 0.000000 0.000000 0.000000 0.194096
    5 2.033360 1.000772 -1.937610 -1.668474 1.286518 2.942953
    6 6.028143 0.000000 0.000000 1.648217 0.686896 -0.731830
    7 11.692554 0.000000 0.000000 0.000000 0.000000 -0.963105
    8 11.481701 -0.000004 0.000001 -0.876060 0.007870 0.141078
  time 49
    0 -0.003759 -14.609375 -29.421875 1.570792 0.000003 -0.000003
    1 0.000005 3.345127 -2.981897 1.570796 0.086293 1.570796
    2 4.018333 0.000000 0.000000 0.000000 0.000000 -0.029242
    3 3.518562 0.000000 0.000000 0.000000 0.000000 0.100336
    4 8.942642 0.000002 0.000000 0.000000 0.000000 0.194096
    5 2.033360 1.000772 -1.937610 -1.668474 1.286518 2.942953
    6 6.028143 0.000000 0.000000 1.648217 0.686896 -0.731830
    7 11.692554 0.000000 0.000000 0.000000 0.000000 -0.963105
    8 11.481701 -0.000004 0.000001 -0.876060 0.007870 0.140744
  time 50
    0 -0.003759 -14.609375 -29.421875 1.570792 0.000003 -0.000003
    1 0.000005 3.345127 -2.981897 1.570796 0.086293 1.570796
    2 4.018333 0.000000 0.000000 0.000000 0.000000 -0.029242
    3 3.518562 0.000000 0.000000 0.000000 0.000000 0.100336
    4 8.942642 0.000002 0.000000 0.000000 0.000000 0.194096
    5 2.033360 1.000772 -1.937610 -1.668474 1.286518 2.942953
    6 6.028143 0.000000 0.000000 1.648217 0.686896 -0.731830
    7 11.692554 0.000000 0.000000 0.000000 0.000000 -0.963105
    8 11.481701 -0.000004 0.000001 -0.876060 0.007870 0.140409
  time 51
    0 -0.003759 -14.609375 -29.421875 1.570792 0.000003 -0.000003
    1 0.000005 3.345127 -2.981897 1.570796 0.086293 1.570796
    2 4.018333 0.000000 0.000000 0.000000 0.000000 -0.029242
    3 3.518562 0.000000 0.000000 0.000000 0.000000 0.100336
    4 8.942642 0.000002 0.000000 0.000000 0.000000 0.194096
    5 2.033360 1.000772 -1.937610 -1.668474 1.286518 2.942953
    6 6.028143 0.000000 0.000000 1.648217 0.686896 -0.731830
    7 11.692554 0.000000 0.000000 0.000000 0.000000 -0.963105
    8 11.481701 -0.000004 0.000001 -0.876060 0.007870 0.140033
  time 52
    0 -0.003759 -14.609375 -29.421875 1.570792 0.000003 -0.000003
    1 0.000005 3.345127 -2.981897 1.570796 0.086293 1.570796
    2 4.018333 0.000000 0.000000 0.000000 0.000000 -0.029242
    3 3.518562 0.000000 0.000000 0.000000 0.000000 0.100336
    4 8.942642 0.000002 0.000000 0.000000 0.000000 0.194096
    5 2.033360 1.000772 -1.937610 -1.668474 1.286518 2.942953
    6 6.028143 0.000000 0.000000 1.648217 0.686896 -0.731830
    7 11.692554 0.000000 0.000000 0.000000 0.000000 -0.963105
    8 11.481701 -0.000004 0.000001 -0.876060 0.007870 0.139698
  time 53
    0 -0.003759 -14.609375 -29.421875 1.570792 0.000003 -0.000003
    1 0.000005 3.345127 -2.981897 1.570796 0.086293 1.570796
    2 4.018333 0.000000 0.000000 0.000000 0.000000 -0.029242
    3 3.518562 0.000000 0.000000 0.000000 0.000000 0.100336
    4 8.942642 0.000002 0.000000 0.000000 0.000000 0.194096
    5 2.033360 1.000772 -1.937610 -1.668474 1.286518 2.942953
    6 6.028143 0.000000 0.000000 1.648217 0.686896 -0.731830
    7 11.692554 0.000000 0.000000 0.000000 0.000000 -0.963105
    8 11.481701 -0.000004 0.000001 -0.876136 0.007870 0.139405
  time 54
    0 -0.003759 -14.609375 -29.421875 1.570792 0.000003 -0.000003
    1 0.000005 3.345127 -2.981897 1.570796 0.086293 1.570796
    2 4.018333 0.000000 0.000000 0.000000 0.000000 -0.029242
    3 3.518562 0.000000 0.000000 0.000000 0.000000 0.100336
    4 8.942642 0.000002 0.000000 0.000000 0.000000 0.194096
    5 2.033360 1.000772 -1.937610 -1.668474 1.286518 2.942953
    6 6.028143 0.000000 0.000000 1.648217 0.686896 -0.731830
    7 11.692554 0.000000 0.000000 0.000000 0.000000 -0.963105
    8 11.481701 -0.000004 0.000001 -0.876136 0.007870 0.139112
  time 55
    0 -0.003759 -14.609375 -29.421875 1.570792 0.000003 -0.000003
    1 0.000005 3.345127 -2.981897 1.570796 0.086293 1.570796
    2 4.018333 0.000000 0.000000 0.000000 0.000000 -0.029242
    3 3.518562 0.000000 0.000000 0.000000 0.000000 0.100336
    4 8.942642 0.000002 0.000000 0.000000 0.000000 0.194096
    5 2.033360 1.000772 -1.937610 -1.668474 1.286518 2.942953
    6 6.028143 0.000000 0.000000 1.648217 0.686896 -0.731830
    7 11.692554 0.000000 0.000000 0.000000 0.000000 -0.963105
    8 11.481701 -0.000004 0.000001 -0.876136 0.007870 0.138945
  time 56
    0 -0.003759 -14.609375 -29.421875 1.570792 0.000003 -0.000003
    1 0.000005 3.345127 -2.981897 1.570796 0.086293 1.570796
    2 4.018333 0.000000 0.000000 0.000000 0.000000 -0.029242
    3 3.518562 0.000000 0.000000 0.000000 0.000000 0.100336
    4 8.942642 0.000002 0.000000 0.000000 0.000000 0.194096
    5 2.033360 1.000772 -1.937610 -1.668474 1.286518 2.942953
    6 6.028143 0.000000 0.000000 1.648217 0.686896 -0.731830
    7 11.692554 0.000000 0.000000 0.000000 0.000000 -0.963105
    8 11.481701 -0.000004 0.000001 -0.876136 0.007870 0.138819
  time 57
    0 -0.003759 -14.609375 -29.421875 1.570792 0.000003 -0.000003
    1 0.000005 3.345127 -2.981897 1.570796 0.086293 1.570796
    2 4.018333 0.000000 0.000000 0.000000 0.000000 -0.029242
    3 3.518562 0.000000 0.000000 0.000000 0.000000 0.100336
    4 8.942642 0.000002 0.000000 0.000000 0.000000 0.194096
    5 2.033360 1.000772 -1.937610 -1.668474 1.286518 2.942953
    6 6.028143 0.000000 0.000000 1.648217 0.686896 -0.731830
    7 11.692554 0.000000 0.000000 0.000000 0.000000 -0.963105
    8 11.481701 -0.000004 0.000001 -0.876136 0.007870 0.138736
  time 58
    0 -0.003759 -14.609375 -29.421875 1.570792 0.000003 -0.000003
    1 0.000005 3.345127 -2.981897 1.570796 0.086293 1.570796
    2 4.018333 0.000000 0.000000 0.000000 0.000000 -0.029242
    3 3.518562 0.000000 0.000000 0.000000 0.000000 0.100336
    4 8.942642 0.000002 0.000000 0.000000 0.000000 0.194096
    5 2.033360 1.000772 -1.937610 -1.668474 1.286518 2.942953
    6 6.028143 0.000000 0.000000 1.648217 0.686896 -0.731830
    7 11.692554 0.000000 0.000000 0.000000 0.000000 -0.963105
    8 11.481701 -0.000004 0.000001 -0.876060 0.007870 0.138778
  time 59
    0 -0.003759 -14.609375 -29.421875 1.570792 0.000003 -0.000003
    1 0.000005 3.345127 -2.981897 1.570796 0.086293 1.570796
    2 4.018333 0.000000 0.000000 0.000000 0.000000 -0.029242
    3 3.518562 0.000000 0.000000 0.000000 0.000000 0.100336
    4 8.942642 0.000002 0.000000 0.000000 0.000000 0.194096
    5 2.033360 1.000772 -1.937610 -1.668474 1.286518 2.942953
    6 6.028143 0.000000 0.000000 1.648217 0.686896 -0.731830
    7 11.692554 0.000000 0.000000 0.000000 0.000000 -0.963105
    8 11.481701 -0.000004 0.000001 -0.876060 0.007870 0.138903
  time 60
    0 -0.003759 -14.609375 -29.421875 1.570792 0.000003 -0.000003
    1 0.000005 3.345127 -2.981897 1.570796 0.086293 1.570796
    2 4.018333 0.000000 0.000000 0.000000 0.000000 -0.029242
    3 3.518562 0.000000 0.000000 0.000000 0.000000 0.100336
    4 8.942642 0.000002 0.000000 0.000000 0.000000 0.194096
    5 2.033360 1.000772 -1.937610 -1.668474 1.286518 2.942953
    6 6.028143 0.000000 0.000000 1.648217 0.686896 -0.731830
    7 11.692554 0.000000 0.000000 0.000000 0.000000 -0.963105
    8 11.481701 -0.000004 0.000001 -0.875983 0.007870 0.139112
  time 61
    0 -0.003759 -14.609375 -29.421875 1.570792 0.000003 -0.000003
    1 0.000005 3.345127 -2.981897 1.570796 0.086293 1.570796
    2 4.018333 0.000000 0.000000 0.000000 0.000000 -0.029242
    3 3.518562 0.000000 0.000000 0.000000 0.000000 0.100336
    4 8.942642 0.000002 0.000000 0.000000 0.000000 0.194096
    5 2.033360 1.000772 -1.937610 -1.668474 1.286518 2.942953
    6 6.028143 0.000000 0.000000 1.648217 0.686896 -0.731830
    7 11.692554 0.000000 0.000000 0.000000 0.000000 -0.963105
    8 11.481701 -0.000004 0.000001 -0.875983 0.007870 0.139363
  time 62
    0 -0.003759 -14.609375 -29.421875 1.570792 0.000003 -0.000003
    1 0.000005 3.345127 -2.981897 1.570796 0.086293 1.570796
    2 4.018333 0.000000 0.000000 0.000000 0.000000 -0.029242
    3 3.518562 0.000000 0.000000 0.000000 0.000000 0.100336
    4 8.942642 0.000002 0.000000 0.000000 0.000000 0.194096
    5 2.033360 1.000772 -1.937610 -1.668474 1.286518 2.942953
    6 6.028143 0.000000 0.000000 1.648217 0.686896 -0.731830
    7 11.692554 0.000000 0.000000 0.000000 0.000000 -0.963105
    8 11.481701 -0.000004 0.000001 -0.875906 0.007870 0.139782
  time 63
    0 -0.003759 -14.609375 -29.421875 1.570792 0.000003 -0.000003
    1 0.000005 3.345127 -2.981897 1.570796 0.086293 1.570796
    2 4.018333 0.000000 0.000000 0.000000 0.000000 -0.029242
    3 3.518562 0.000000 0.000000 0.000000 0.000000 0.100336
    4 8.942642 0.000002 0.000000 0.000000 0.000000 0.194096
    5 2.033360 1.000772 -1.937610 -1.668474 1.286518 2.942953
    6 6.028143 0.000000 0.000000 1.648217 0.686896 -0.731830
    7 11.692554 0.000000 0.000000 0.000000 0.000000 -0.963105
    8 11.481701 -0.000004 0.000001 -0.875830 0.007870 0.140325
  time 64
    0 -0.003759 -14.609375 -29.421875 1.570792 0.000003 -0.000003
    1 0.000005 3.345127 -2.981897 1.570796 0.086293 1.570796
    2 4.018333 0.000000 0.000000 0.000000 0.000000 -0.029242
    3 3.518562 0.000000 0.000000 0.000000 0.000000 0.100336
    4 8.942642 0.000002 0.000000 0.000000 0.000000 0.194096
    5 2.033360 1.000772 -1.937610 -1.668474 1.286518 2.942953
    6 6.028143 0.000000 0.000000 1.648217 0.686896 -0.731830
    7 11.692554 0.000000 0.000000 0.000000 0.000000 -0.963105
    8 11.481701 -0.000004 0.000001 -0.875830 0.007870 0.140953
  time 65
    0 -0.003759 -14.609375 -29.421875 1.570792 0.000003 -0.000003
    1 0.000005 3.345127 -2.981897 1.570796 0.086293 1.570796
    2 4.018333 0.000000 0.000000 0.000000 0.000000 -0.029242
    3 3.518562 0.000000 0.000000 0.000000 0.000000 0.100336
    4 8.942642 0.000002 0.000000 0.000000 0.000000 0.194096
    5 2.033360 1.000772 -1.937610 -1.668474 1.286518 2.942953
    6 6.028143 0.000000 0.000000 1.648217 0.686896 -0.731830
    7 11.692554 0.000000 0.000000 0.000000 0.000000 -0.963105
    8 11.481701 -0.000004 0.000001 -0.875830 0.007870 0.141706
  time 66
    0 -0.003759 -14.609375 -29.421875 1.570792 0.000003 -0.000003
    1 0.000005 3.345127 -2.981897 1.570796 0.086293 1.570796
    2 4.018333 0.000000 0.000000 0.000000 0.000000 -0.029242
    3 3.518562 0.000000 0.000000 0.000000 0.000000 0.100336
    4 8.942642 0.000002 0.000000 0.000000 0.000000 0.194096
    5 2.033360 1.000772 -1.937610 -1.668474 1.286518 2.942953
    6 6.028143 0.000000 0.000000 1.648217 0.686896 -0.731830
    7 11.692554 0.000000 0.000000 0.000000 0.000000 -0.963105
    8 11.481701 -0.000004 0.000001 -0.875830 0.007870 0.142500
  time 67
    0 -0.003759 -14.609375 -29.421875 1.570792 0.000003 -0.000003
    1 0.000005 3.345127 -2.981897 1.570796 0.086293 1.570796
    2 4.018333 0.000000 0.000000 0.000000 0.000000 -0.029242
    3 3.518562 0.000000 0.000000 0.000000 0.000000 0.100336
    4 8.942642 0.000002 0.000000 0.000000 0.000000 0.194096
    5 2.033360 1.000772 -1.937610 -1.668474 1.286518 2.942953
    6 6.028143 0.000000 0.000000 1.648217 0.686896 -0.731830
    7 11.692554 0.000000 0.000000 0.000000 0.000000 -0.963105
    8 11.481701 -0.000004 0.000001 -0.875906 0.007815 0.143295
  time 68
    0 -0.003759 -14.609375 -29.421875 1.570792 0.000003 -0.000003
    1 0.000005 3.345127 -2.981897 1.570796 0.086293 1.570796
    2 4.018333 0.000000 0.000000 0.000000 0.000000 -0.029242
    3 3.518562 0.000000 0.000000 0.000000 0.000000 0.100336
    4 8.942642 0.000002 0.000000 0.000000 0.000000 0.194096
    5 2.033360 1.000772 -1.937610 -1.668474 1.286518 2.942953
    6 6.028143 0.000000 0.000000 1.648217 0.686896 -0.731830
    7 11.692554 0.000000 0.000000 0.000000 0.000000 -0.963105
    8 11.481701 -0.000004 0.000001 -0.875983 0.007815 0.144174
  time 69
    0 -0.003759 -14.609375 -29.421875 1.570792 0.000003 -0.000003
    1 0.000005 3.345127 -2.981897 1.570796 0.086293 1.570796
    2 4.018333 0.000000 0.000000 0.000000 0.000000 -0.029242
    3 3.518562 0.000000 0.000000 0.000000 0.000000 0.100336
    4 8.942642 0.000002 0.000000 0.000000 0.000000 0.194096
    5 2.033360 1.000772 -1.937610 -1.668474 1.286518 2.942953
    6 6.028143 0.000000 0.000000 1.648217 0.686896 -0.731830
    7 11.692554 0.000000 0.000000 0.000000 0.000000 -0.963105
    8 11.481701 -0.000004 0.000001 -0.875983 0.007815 0.144885
  time 70
    0 -0.003759 -14.609375 -29.421875 1.570792 0.000003 -0.000003
    1 0.000005 3.345127 -2.981897 1.570796 0.086293 1.570796
    2 4.018333 0.000000 0.000000 0.000000 0.000000 -0.029242
    3 3.518562 0.000000 0.000000 0.000000 0.000000 0.100336
    4 8.942642 0.000002 0.000000 0.000000 0.000000 0.194096
    5 2.033360 1.000772 -1.937610 -1.668474 1.286518 2.942953
    6 6.028143 0.000000 0.000000 1.648217 0.686896 -0.731830
    7 11.692554 0.000000 0.000000 0.000000 0.000000 -0.963105
    8 11.481701 -0.000004 0.000001 -0.876060 0.007815 0.145303
  time 71
    0 -0.003759 -14.609375 -29.421875 1.570792 0.000003 -0.000003
    1 0.000005 3.345127 -2.981897 1.570796 0.086293 1.570796
    2 4.018333 0.000000 0.000000 0.000000 0.000000 -0.029242
    3 3.518562 0.000000 0.000000 0.000000 0.000000 0.100336
    4 8.942642 0.000002 0.000000 0.000000 0.000000 0.194096
    5 2.033360 1.000772 -1.937610 -1.668474 1.286518 2.942953
    6 6.028143 0.000000 0.000000 1.648217 0.686896 -0.731830
    7 11.692554 0.000000 0.000000 0.000000 0.000000 -0.963105
    8 11.481701 -0.000004 0.000001 -0.876136 0.007815 0.145596
  time 72
    0 -0.003759 -14.609375 -29.421875 1.570792 0.000003 -0.000003
    1 0.000005 3.345127 -2.981897 1.570796 0.086293 1.570796
    2 4.018333 0.000000 0.000000 0.000000 0.000000 -0.029242
    3 3.518562 0.000000 0.000000 0.000000 0.000000 0.100336
    4 8.942642 0.000002 0.000000 0.000000 0.000000 0.194096
    5 2.033360 1.000772 -1.937610 -1.668474 1.286518 2.942953
    6 6.028143 0.000000 0.000000 1.648217 0.686896 -0.731830
    7 11.692554 0.000000 0.000000 0.000000 0.000000 -0.963105
    8 11.481701 -0.000004 0.000001 -0.876289 0.007815 0.145763
  time 73
    0 -0.003759 -14.609375 -29.421875 1.570792 0.000003 -0.000003
    1 0.000005 3.345127 -2.981897 1.570796 0.086293 1.570796
    2 4.018333 0.000000 0.000000 0.000000 0.000000 -0.029242
    3 3.518562 0.000000 0.000000 0.000000 0.000000 0.100336
    4 8.942642 0.000002 0.000000 0.000000 0.000000 0.194096
    5 2.033360 1.000772 -1.937610 -1.668474 1.286518 2.942953
    6 6.028143 0.000000 0.000000 1.648217 0.686896 -0.731830
    7 11.692554 0.000000 0.000000 0.000000 0.000000 -0.963105
    8 11.481701 -0.000004 0.000001 -0.876366 0.007815 0.145847
  time 74
    0 -0.003759 -14.609375 -29.421875 1.570792 0.000003 -0.000003
    1 0.000005 3.345127 -2.981897 1.570796 0.086293 1.570796
    2 4.018333 0.000000 0.000000 0.000000 0.000000 -0.029242
    3 3.518562 0.000000 0.000000 0.000000 0.000000 0.100336
    4 8.942642 0.000002 0.000000 0.000000 0.000000 0.194096
    5 2.033360 1.000772 -1.937610 -1.668474 1.286518 2.942953
    6 6.028143 0.000000 0.000000 1.648217 0.686896 -0.731830
    7 11.692554 0.000000 0.000000 0.000000 0.000000 -0.963105
    8 11.481701 -0.000004 0.000001 -0.876442 0.007815 0.145889
  time 75
    0 -0.003759 -14.609375 -29.421875 1.570792 0.000003 -0.000003
    1 0.000005 3.345127 -2.981897 1.570796 0.086293 1.570796
    2 4.018333 0.000000 0.000000 0.000000 0.000000 -0.029242
    3 3.518562 0.000000 0.000000 0.000000 0.000000 0.100336
    4 8.942642 0.000002 0.000000 0.000000 0.000000 0.194096
    5 2.033360 1.000772 -1.937610 -1.668474 1.286518 2.942953
    6 6.028143 0.000000 0.000000 1.648217 0.686896 -0.731830
    7 11.692554 0.000000 0.000000 0.000000 0.000000 -0.963105
    8 11.481701 -0.000004 0.000001 -0.876596 0.007815 0.145847
  time 76
    0 -0.003759 -14.609375 -29.421875 1.570792 0.000003 -0.000003
    1 0.000005 3.345127 -2.981897 1.570796 0.086293 1.570796
    2 4.018333 0.000000 0.000000 0.000000 0.000000 -0.029242
    3 3.518562 0.000000 0.000000 0.000000 0.000000 0.100336
    4 8.942642 0.000002 0.000000 0.000000 0.000000 0.194096
    5 2.033360 1.000772 -1.937610 -1.668474 1.286518 2.942953
    6 6.028143 0.000000 0.000000 1.648217 0.686896 -0.731830
    7 11.692554 0.000000 0.000000 0.000000 0.000000 -0.963105
    8 11.481701 -0.000004 0.000001 -0.876672 0.007815 0.145763
  time 77
    0 -0.003759 -14.609375 -29.421875 1.570792 0.000003 -0.000003
    1 0.000005 3.345127 -2.981897 1.570796 0.086293 1.570796
    2 4.018333 0.000000 0.000000 0.000000 0.000000 -0.029242
    3 3.518562 0.000000 0.000000 0.000000 0.000000 0.100336
    4 8.942642 0.000002 0.000000 0.000000 0.000000 0.194096
    5 2.033360 1.000772 -1.937610 -1.668474 1.286518 2.942953
    6 6.028143 0.000000 0.000000 1.648217 0.686896 -0.731830
    7 11.692554 0.000000 0.000000 0.000000 0.000000 -0.963105
    8 11.481701 -0.000004 0.000001 -0.876825 0.007815 0.145680
  time 78
    0 -0.003759 -14.609375 -29.421875 1.570792 0.000003 -0.000003
    1 0.000005 3.345127 -2.981897 1.570796 0.086293 1.570796
    2 4.018333 0.000000 0.000000 0.000000 0.000000 -0.029242
    3 3.518562 0.000000 0.000000 0.000000 0.000000 0.100336
    4 8.942642 0.000002 0.000000 0.000000 0.000000 0.194096
    5 2.033360 1.000772 -1.937610 -1.668474 1.286518 2.942953
    6 6.028143 0.000000 0.000000 1.648217 0.686896 -0.731830
    7 11.692554 0.000000 0.000000 0.000000 0.000000 -0.963105
    8 11.481701 -0.000004 0.000001 -0.876978 0.007815 0.145554
  time 79
    0 -0.003759 -14.609375 -29.421875 1.570792 0.000003 -0.000003
    1 0.000005 3.345127 -2.981897 1.570796 0.086293 1.570796
    2 4.018333 0.000000 0.000000 0.000000 0.000000 -0.029242
    3 3.518562 0.000000 0.000000 0.000000 0.000000 0.100336
    4 8.942642 0.000002 0.000000 0.000000 0.000000 0.194096
    5 2.033360 1.000772 -1.937610 -1.668474 1.286518 2.942953
    6 6.028143 0.000000 0.000000 1.648217 0.686896 -0.731830
    7 11.692554 0.000000 0.000000 0.000000 0.000000 -0.963105
    8 11.481701 -0.000004 0.000001 -0.877055 0.007815 0.145387
  time 80
    0 -0.003759 -14.609375 -29.421875 1.570792 0.000003 -0.000003
    1 0.000005 3.345127 -2.981897 1.570796 0.086293 1.570796
    2 4.018333 0.000000 0.000000 0.000000 0.000000 -0.029242
    3 3.518562 0.000000 0.000000 0.000000 0.000000 0.100336
    4 8.942642 0.000002 0.000000 0.000000 0.000000 0.194096
    5 2.033360 1.000772 -1.937610 -1.668474 1.286518 2.942953
    6 6.028143 0.000000 0.000000 1.648217 0.686896 -0.731830
    7 11.692554 0.000000 0.000000 0.000000 0.000000 -0.963105
    8 11.481701 -0.000004 0.000001 -0.877208 0.007815 0.145219
  time 81
    0 -0.003759 -14.609375 -29.421875 1.570792 0.000003 -0.000003
    1 0.000005 3.345127 -2.981897 1.570796 0.086293 1.570796
    2 4.018333 0.000000 0.000000 0.000000 0.000000 -0.029242
    3 3.518562 0.000000 0.000000 0.000000 0.000000 0.100336
    4 8.942642 0.000002 0.000000 0.000000 0.000000 0.194096
    5 2.033360 1.000772 -1.937610 -1.668474 1.286518 2.942953
    6 6.028143 0.000000 0.000000 1.648217 0.686896 -0.731830
    7 11.692554 0.000000 0.000000 0.000000 0.000000 -0.963105
    8 11.481701 -0.000004 0.000001 -0.877361 0.007815 0.145010
  time 82
    0 -0.003759 -14.609375 -29.421875 1.570792 0.000003 -0.000003
    1 0.000005 3.345127 -2.981897 1.570796 0.086293 1.570796
    2 4.018333 0.000000 0.000000 0.000000 0.000000 -0.029242
    3 3.518562 0.000000 0.000000 0.000000 0.000000 0.100336
    4 8.942642 0.000002 0.000000 0.000000 0.000000 0.194096
    5 2.033360 1.000772 -1.937610 -1.668474 1.286518 2.942953
    6 6.028143 0.000000 0.000000 1.648217 0.686896 -0.731830
    7 11.692554 0.000000 0.000000 0.000000 0.000000 -0.963105
    8 11.481701 -0.000004 0.000001 -0.877438 0.007815 0.144843
  time 83
    0 -0.003759 -14.609375 -29.421875 1.570792 0.000003 -0.000003
    1 0.000005 3.345127 -2.981897 1.570796 0.086293 1.570796
    2 4.018333 0.000000 0.000000 0.000000 0.000000 -0.029242
    3 3.518562 0.000000 0.000000 0.000000 0.000000 0.100336
    4 8.942642 0.000002 0.000000 0.000000 0.000000 0.194096
    5 2.033360 1.000772 -1.937610 -1.668474 1.286518 2.942953
    6 6.028143 0.000000 0.000000 1.648217 0.686896 -0.731830
    7 11.692554 0.000000 0.000000 0.000000 0.000000 -0.963105
    8 11.481701 -0.000004 0.000001 -0.877591 0.007815 0.144634
  time 84
    0 -0.003759 -14.609375 -29.421875 1.570792 0.000003 -0.000003
    1 0.000005 3.345127 -2.981897 1.570796 0.086293 1.570796
    2 4.018333 0.000000 0.000000 0.000000 0.000000 -0.029242
    3 3.518562 0.000000 0.000000 0.000000 0.000000 0.100336
    4 8.942642 0.000002 0.000000 0.000000 0.000000 0.194096
    5 2.033360 1.000772 -1.937610 -1.668474 1.286518 2.942953
    6 6.028143 0.000000 0.000000 1.648217 0.686896 -0.731830
    7 11.692554 0.000000 0.000000 0.000000 0.000000 -0.963105
    8 11.481701 -0.000004 0.000001 -0.877744 0.007815 0.144425
  time 85
    0 -0.003759 -14.609375 -29.421875 1.570792 0.000003 -0.000003
    1 0.000005 3.345127 -2.981897 1.570796 0.086293 1.570796
    2 4.018333 0.000000 0.000000 0.000000 0.000000 -0.029242
    3 3.518562 0.000000 0.000000 0.000000 0.000000 0.100336
    4 8.942642 0.000002 0.000000 0.000000 0.000000 0.194096
    5 2.033360 1.000772 -1.937610 -1.668474 1.286518 2.942953
    6 6.028143 0.000000 0.000000 1.648217 0.686896 -0.731830
    7 11.692554 0.000000 0.000000 0.000000 0.000000 -0.963105
    8 11.481701 -0.000004 0.000001 -0.877897 0.007815 0.144174
  time 86
    0 -0.003759 -14.609375 -29.421875 1.570792 0.000003 -0.000003
    1 0.000005 3.345127 -2.981897 1.570796 0.086293 1.570796
    2 4.018333 0.000000 0.000000 0.000000 0.000000 -0.029242
    3 3.518562 0.000000 0.000000 0.000000 0.000000 0.100336
    4 8.942642 0.000002 0.000000 0.000000 0.000000 0.194096
    5 2.033360 1.000772 -1.937610 -1.668474 1.286518 2.942953
    6 6.028143 0.000000 0.000000 1.648217 0.686896 -0.731830
    7 11.692554 0.000000 0.000000 0.000000 0.000000 -0.963105
    8 11.481701 -0.000004 0.000001 -0.877974 0.007815 0.143964
  time 87
    0 -0.003759 -14.609375 -29.421875 1.570792 0.000003 -0.000003
    1 0.000005 3.345127 -2.981897 1.570796 0.086293 1.570796
    2 4.018333 0.000000 0.000000 0.000000 0.000000 -0.029242
    3 3.518562 0.000000 0.000000 0.000000 0.000000 0.100336
    4 8.942642 0.000002 0.000000 0.000000 0.000000 0.194096
    5 2.033360 1.000772 -1.937610 -1.668474 1.286518 2.942953
    6 6.028143 0.000000 0.000000 1.648217 0.686896 -0.731830
    7 11.692554 0.000000 0.000000 0.000000 0.000000 -0.963105
    8 11.481701 -0.000004 0.000001 -0.878127 0.007815 0.143755
  time 88
    0 -0.003759 -14.609375 -29.421875 1.570792 0.000003 -0.000003
    1 0.000005 3.345127 -2.981897 1.570796 0.086293 1.570796
    2 4.018333 0.000000 0.000000 0.000000 0.000000 -0.029242
    3 3.518562 0.000000 0.000000 0.000000 0.000000 0.100336
    4 8.942642 0.000002 0.000000 0.000000 0.000000 0.194096
    5 2.033360 1.000772 -1.937610 -1.668474 1.286518 2.942953
    6 6.028143 0.000000 0.000000 1.648217 0.686896 -0.731830
    7 11.692554 0.000000 0.000000 0.000000 0.000000 -0.963105
    8 11.481701 -0.000004 0.000001 -0.878204 0.007815 0.143504
  time 89
    0 -0.003759 -14.609375 -29.421875 1.570792 0.000003 -0.000003
    1 0.000005 3.345127 -2.981897 1.570796 0.086293 1.570796
    2 4.018333 0.000000 0.000000 0.000000 0.000000 -0.029242
    3 3.518562 0.000000 0.000000 0.000000 0.000000 0.100336
    4 8.942642 0.000002 0.000000 0.000000 0.000000 0.194096
    5 2.033360 1.000772 -1.937610 -1.668474 1.286518 2.942953
    6 6.028143 0.000000 0.000000 1.648217 0.686896 -0.731830
    7 11.692554 0.000000 0.000000 0.000000 0.000000 -0.963105
    8 11.481701 -0.000004 0.000001 -0.878280 0.007815 0.143295
  time 90
    0 -0.003759 -14.609375 -29.421875 1.570792 0.000003 -0.000003
    1 0.000005 3.345127 -2.981897 1.570796 0.086293 1.570796
    2 4.018333 0.000000 0.000000 0.000000 0.000000 -0.029242
    3 3.518562 0.000000 0.000000 0.000000 0.000000 0.100336
    4 8.942642 0.000002 0.000000 0.000000 0.000000 0.194096
    5 2.033360 1.000772 -1.937610 -1.668474 1.286518 2.942953
    6 6.028143 0.000000 0.000000 1.648217 0.686896 -0.731830
    7 11.692554 0.000000 0.000000 0.000000 0.000000 -0.963105
    8 11.481701 -0.000004 0.000001 -0.878280 0.007815 0.143086
  time 91
    0 -0.003759 -14.609375 -29.421875 1.570792 0.000003 -0.000003
    1 0.000005 3.345127 -2.981897 1.570796 0.086293 1.570796
    2 4.018333 0.000000 0.000000 0.000000 0.000000 -0.029242
    3 3.518562 0.000000 0.000000 0.000000 0.000000 0.100336
    4 8.942642 0.000002 0.000000 0.000000 0.000000 0.194096
    5 2.033360 1.000772 -1.937610 -1.668474 1.286518 2.942953
    6 6.028143 0.000000 0.000000 1.648217 0.686896 -0.731830
    7 11.692554 0.000000 0.000000 0.000000 0.000000 -0.963105
    8 11.481701 -0.000004 0.000001 -0.878280 0.007815 0.142877
  time 92
    0 -0.003759 -14.609375 -29.421875 1.570792 0.000003 -0.000003
    1 0.000005 3.345127 -2.981897 1.570796 0.086293 1.570796
    2 4.018333 0.000000 0.000000 0.000000 0.000000 -0.029242
    3 3.518562 0.000000 0.000000 0.000000 0.000000 0.100336
    4 8.942642 0.000002 0.000000 0.000000 0.000000 0.194096
    5 2.033360 1.000772 -1.937610 -1.668474 1.286518 2.942953
    6 6.028143 0.000000 0.000000 1.648217 0.686896 -0.731830
    7 11.692554 0.000000 0.000000 0.000000 0.000000 -0.963105
    8 11.481701 -0.000004 0.000001 -0.878280 0.007815 0.142710
  time 93
    0 -0.003759 -14.609375 -29.421875 1.570792 0.000003 -0.000003
    1 0.000005 3.345127 -2.981897 1.570796 0.086293 1.570796
    2 4.018333 0.000000 0.000000 0.000000 0.000000 -0.029242
    3 3.518562 0.000000 0.000000 0.000000 0.000000 0.100336
    4 8.942642 0.000002 0.000000 0.000000 0.000000 0.194096
    5 2.033360 1.000772 -1.937610 -1.668474 1.286518 2.942953
    6 6.028143 0.000000 0.000000 1.648217 0.686896 -0.731830
    7 11.692554 0.000000 0.000000 0.000000 0.000000 -0.963105
    8 11.481701 -0.000004 0.000001 -0.878127 0.007870 0.142500
  time 94
    0 -0.003759 -14.609375 -29.421875 1.570792 0.000003 -0.000003
    1 0.000005 3.345127 -2.981897 1.570796 0.086293 1.570796
    2 4.018333 0.000000 0.000000 0.000000 0.000000 -0.029242
    3 3.518562 0.000000 0.000000 0.000000 0.000000 0.100336
    4 8.942642 0.000002 0.000000 0.000000 0.000000 0.194096
    5 2.033360 1.000772 -1.937610 -1.668474 1.286518 2.942953
    6 6.028143 0.000000 0.000000 1.648217 0.686896 -0.731830
    7 11.692554 0.000000 0.000000 0.000000 0.000000 -0.963105
    8 11.481701 -0.000004 0.000001 -0.877974 0.007870 0.142333
  time 95
    0 -0.003759 -14.609375 -29.421875 1.570792 0.000003 -0.000003
    1 0.000005 3.345127 -2.981897 1.570796 0.086293 1.570796
    2 4.018333 0.000000 0.000000 0.000000 0.000000 -0.029242
    3 3.518562 0.000000 0.000000 0.000000 0.000000 0.100336
    4 8.942642 0.000002 0.000000 0.000000 0.000000 0.194096
    5 2.033360 1.000772 -1.937610 -1.668474 1.286518 2.942953
    6 6.028143 0.000000 0.000000 1.648217 0.686896 -0.731830
    7 11.692554 0.000000 0.000000 0.000000 0.000000 -0.963105
    8 11.481701 -0.000004 0.000001 -0.877821 0.007870 0.142166
  time 96
    0 -0.003759 -14.609375 -29.421875 1.570792 0.000003 -0.000003
    1 0.000005 3.345127 -2.981897 1.570796 0.086293 1.570796
    2 4.018333 0.000000 0.000000 0.000000 0.000000 -0.029242
    3 3.518562 0.000000 0.000000 0.000000 0.000000 0.100336
    4 8.942642 0.000002 0.000000 0.000000 0.000000 0.194096
    5 2.033360 1.000772 -1.937610 -1.668474 1.286518 2.942953
    6 6.028143 0.000000 0.000000 1.648217 0.686896 -0.731830
    7 11.692554 0.000000 0.000000 0.000000 0.000000 -0.963105
    8 11.481701 -0.000004 0.000001 -0.877591 0.007870 0.142040
  time 97
    0 -0.003759 -14.609375 -29.421875 1.570792 0.000003 -0.000003
    1 0.000005 3.345127 -2.981897 1.570796 0.086293 1.570796
    2 4.018333 0.000000 0.000000 0.000000 0.000000 -0.029242
    3 3.518562 0.000000 0.000000 0.000000 0.000000 0.100336
    4 8.942642 0.000002 0.000000 0.000000 0.000000 0.194096
    5 2.033360 1.000772 -1.937610 -1.668474 1.286518 2.942953
    6 6.028143 0.000000 0.000000 1.648217 0.686896 -0.731830
    7 11.692554 0.000000 0.000000 0.000000 0.000000 -0.963105
    8 11.481701 -0.000004 0.000001 -0.877361 0.007870 0.141915
  time 98
    0 -0.003759 -14.609375 -29.421875 1.570792 0.000003 -0.000003
    1 0.000005 3.345127 -2.981897 1.570796 0.086293 1.570796
    2 4.018333 0.000000 0.000000 0.000000 0.000000 -0.029242
    3 3.518562 0.000000 0.000000 0.000000 0.000000 0.100336
    4 8.942642 0.000002 0.000000 0.000000 0.000000 0.194096
    5 2.033360 1.000772 -1.937610 -1.668474 1.286518 2.942953
    6 6.028143 0.000000 0.000000 1.648217 0.686896 -0.731830
    7 11.692554 0.000000 0.000000 0.000000 0.000000 -0.963105
    8 11.481701 -0.000004 0.000001 -0.877132 0.007870 0.141831
  time 99
    0 -0.003759 -14.609375 -29.421875 1.570792 0.000003 -0.000003
    1 0.000005 3.345127 -2.981897 1.570796 0.086293 1.570796
    2 4.018333 0.000000 0.000000 0.000000 0.000000 -0.029242
    3 3.518562 0.000000 0.000000 0.000000 0.000000 0.100336
    4 8.942642 0.000002 0.000000 0.000000 0.000000 0.194096
    5 2.033360 1.000772 -1.937610 -1.668474 1.286518 2.942953
    6 6.028143 0.000000 0.000000 1.648217 0.686896 -0.731830
    7 11.692554 0.000000 0.000000 0.000000 0.000000 -0.963105
    8 11.481701 -0.000004 0.000001 -0.877055 0.007870 0.141789
  time 100
    0 -0.003759 -14.609375 -29.421875 1.570792 0.000003 -0.000003
    1 0.000005 3.345127 -2.981897 1.570796 0.086293 1.570796
    2 4.018333 0.000000 0.000000 0.000000 0.000000 -0.029242
    3 3.518562 0.000000 0.000000 0.000000 0.000000 0.100336
    4 8.942642 0.000002 0.000000 0.000000 0.000000 0.194096
    5 2.033360 1.000772 -1.937610 -1.668474 1.286518 2.942953
    6 6.028143 0.000000 0.000000 1.648217 0.686896 -0.731830
    7 11.692554 0.000000 0.000000 0.000000 0.000000 -0.963105
    8 11.481701 -0.000004 0.000001 -0.876978 0.007870 0.141748
end
