// Created by Crowbar 0.74
version 1
nodes
  0 "ValveBiped.Bip01" -1
  1 "ValveBiped.Bip01_Spine" 0
  2 "ValveBiped.Bip01_Spine1" 1
  3 "ValveBiped.Bip01_Spine2" 2
  4 "ValveBiped.Bip01_Spine4" 3
  5 "ValveBiped.Bip01_R_Clavicle" 4
  6 "ValveBiped.Bip01_R_UpperArm" 5
  7 "ValveBiped.Bip01_R_Forearm" 6
  8 "ValveBiped.Bip01_R_Hand" 7
end
skeleton
  time 0
    0 -0.003759 -14.609375 -29.421875 1.570792 0.000003 -0.000003
    1 0.000005 3.345127 -2.981897 1.570796 0.086293 1.570796
    2 4.018333 0.000000 0.000000 0.000000 0.000000 -0.029242
    3 3.518562 0.000000 0.000000 0.000000 0.000000 0.100336
    4 8.942642 0.000002 0.000000 0.000000 0.000000 0.194096
    5 2.033360 1.000772 -1.937610 -1.668474 1.286518 2.942953
    6 6.028143 0.000000 0.000000 1.688795 0.700629 -0.480918
    7 11.692554 0.000000 0.000000 0.000000 0.000000 -1.168768
    8 11.481701 -0.000004 0.000001 -0.484363 0.007870 0.141748
  time 1
    0 -0.003759 -14.609375 -29.421875 1.570792 0.000003 -0.000003
    1 0.000005 3.345127 -2.981897 1.570796 0.086293 1.570796
    2 4.018333 0.000000 0.000000 0.000000 0.000000 -0.029242
    3 3.518562 0.000000 0.000000 0.000000 0.000000 0.100336
    4 8.942642 0.000002 0.000000 0.000000 0.000000 0.194096
    5 2.033360 1.000772 -1.937610 -2.128155 1.235657 2.461293
    6 6.028143 0.000000 0.000000 1.976676 1.199655 -0.182067
    7 11.692554 0.000000 0.000000 0.000000 0.000000 -0.515700
    8 11.481701 -0.000004 0.000001 -0.742584 -0.672163 0.214865
  time 2
    0 -0.003759 -14.609375 -29.421875 1.570792 0.000003 -0.000003
    1 0.000005 3.345127 -2.981897 1.570796 0.086293 1.570796
    2 4.018333 0.000000 0.000000 0.000000 0.000000 -0.029242
    3 3.518562 0.000000 0.000000 0.000000 0.000000 0.100336
    4 8.942642 0.000002 0.000000 0.000000 0.000000 0.194096
    5 2.033360 1.000772 -1.937610 -2.125156 1.236322 2.464456
    6 6.028143 0.000000 0.000000 1.524369 1.227132 -0.739917
    7 11.692554 0.000000 0.000000 0.000000 0.000000 -0.600675
    8 11.481701 -0.000004 0.000001 -0.934718 -0.663884 0.555273
  time 3
    0 -0.003759 -14.609375 -29.421875 1.570792 0.000003 -0.000003
    1 0.000005 3.345127 -2.981897 1.570796 0.086293 1.570796
    2 4.018333 0.000000 0.000000 0.000000 0.000000 -0.029242
    3 3.518562 0.000000 0.000000 0.000000 0.000000 0.100336
    4 8.942642 0.000002 0.000000 0.000000 0.000000 0.194096
    5 2.033360 1.000772 -1.937610 -2.116474 1.238155 2.473629
    6 6.028143 0.000000 0.000000 0.770344 1.106870 -1.710072
    7 11.692554 0.000000 0.000000 0.000000 0.000000 -0.494652
    8 11.481701 -0.000004 0.000001 -1.147529 -0.519976 0.975785
  time 4
    0 -0.003759 -14.609375 -29.421875 1.570792 0.000003 -0.000003
    1 0.000005 3.345127 -2.981897 1.570796 0.086293 1.570796
    2 4.018333 0.000000 0.000000 0.000000 0.000000 -0.029242
    3 3.518562 0.000000 0.000000 0.000000 0.000000 0.100336
    4 8.942642 0.000002 0.000000 0.000000 0.000000 0.194096
    5 2.033360 1.000772 -1.937610 -2.102667 1.240995 2.488258
    6 6.028143 0.000000 0.000000 0.598114 0.954124 -2.015553
    7 11.692554 0.000000 0.000000 0.000000 0.000000 -0.246028
    8 11.481701 -0.000004 0.000001 -1.204963 -0.426505 1.122982
  time 5
    0 -0.003759 -14.609375 -29.421875 1.570792 0.000003 -0.000003
    1 0.000005 3.345127 -2.981897 1.570796 0.086293 1.570796
    2 4.018333 0.000000 0.000000 0.000000 0.000000 -0.029242
    3 3.518562 0.000000 0.000000 0.000000 0.000000 0.100336
    4 8.942642 0.000002 0.000000 0.000000 0.000000 0.194096
    5 2.033360 1.000772 -1.937610 -2.084118 1.244615 2.507830
    6 6.028143 0.000000 0.000000 0.942068 0.523364 -1.523545
    7 11.692554 0.000000 0.000000 0.000000 0.000000 -0.936621
    8 11.481701 -0.000004 0.000001 -1.187579 -0.429538 1.087846
  time 6
    0 -0.003759 -14.609375 -29.421875 1.570792 0.000003 -0.000003
    1 0.000005 3.345127 -2.981897 1.570796 0.086293 1.570796
    2 4.018333 0.000000 0.000000 0.000000 0.000000 -0.029242
    3 3.518562 0.000000 0.000000 0.000000 0.000000 0.100336
    4 8.942642 0.000002 0.000000 0.000000 0.000000 0.194096
    5 2.033360 1.000772 -1.937610 -2.061281 1.248854 2.531948
    6 6.028143 0.000000 0.000000 1.027009 0.112971 -1.237726
    7 11.692554 0.000000 0.000000 0.000000 0.000000 -1.339336
    8 11.481701 -0.000004 0.000001 -1.158326 -0.431888 1.036981
  time 7
    0 -0.003759 -14.609375 -29.421875 1.570792 0.000003 -0.000003
    1 0.000005 3.345127 -2.981897 1.570796 0.086293 1.570796
    2 4.018333 0.000000 0.000000 0.000000 0.000000 -0.029242
    3 3.518562 0.000000 0.000000 0.000000 0.000000 0.100336
    4 8.942642 0.000002 0.000000 0.000000 0.000000 0.194096
    5 2.033360 1.000772 -1.937610 -2.034538 1.253436 2.560139
    6 6.028143 0.000000 0.000000 1.064222 -0.163223 -1.018504
    7 11.692554 0.000000 0.000000 0.000000 0.000000 -1.492316
    8 11.481701 -0.000004 0.000001 -1.120727 -0.430713 0.973777
  time 8
    0 -0.003759 -14.609375 -29.421875 1.570792 0.000003 -0.000003
    1 0.000005 3.345127 -2.981897 1.570796 0.086293 1.570796
    2 4.018333 0.000000 0.000000 0.000000 0.000000 -0.029242
    3 3.518562 0.000000 0.000000 0.000000 0.000000 0.100336
    4 8.942642 0.000002 0.000000 0.000000 0.000000 0.194096
    5 2.033360 1.000772 -1.937610 -2.004309 1.258178 2.591889
    6 6.028143 0.000000 0.000000 1.128822 -0.309995 -0.868513
    7 11.692554 0.000000 0.000000 0.000000 0.000000 -1.503767
    8 11.481701 -0.000004 0.000001 -1.078073 -0.423691 0.901370
  time 9
    0 -0.003759 -14.609375 -29.421875 1.570792 0.000003 -0.000003
    1 0.000005 3.345127 -2.981897 1.570796 0.086293 1.570796
    2 4.018333 0.000000 0.000000 0.000000 0.000000 -0.029242
    3 3.518562 0.000000 0.000000 0.000000 0.000000 0.100336
    4 8.942642 0.000002 0.000000 0.000000 0.000000 0.194096
    5 2.033360 1.000772 -1.937610 -1.971325 1.262875 2.626564
    6 6.028143 0.000000 0.000000 1.217990 -0.354710 -0.790090
    7 11.692554 0.000000 0.000000 0.000000 0.000000 -1.461753
    8 11.481701 -0.000004 0.000001 -1.033581 -0.409292 0.822605
  time 10
    0 -0.003759 -14.609375 -29.421875 1.570792 0.000003 -0.000003
    1 0.000005 3.345127 -2.981897 1.570796 0.086293 1.570796
    2 4.018333 0.000000 0.000000 0.000000 0.000000 -0.029242
    3 3.518562 0.000000 0.000000 0.000000 0.000000 0.100336
    4 8.942642 0.000002 0.000000 0.000000 0.000000 0.194096
    5 2.033360 1.000772 -1.937610 -1.936075 1.267319 2.663572
    6 6.028143 0.000000 0.000000 1.285335 -0.329679 -0.761388
    7 11.692554 0.000000 0.000000 0.000000 0.000000 -1.436133
    8 11.481701 -0.000004 0.000001 -0.990238 -0.386669 0.740369
  time 11
    0 -0.003759 -14.609375 -29.421875 1.570792 0.000003 -0.000003
    1 0.000005 3.345127 -2.981897 1.570796 0.086293 1.570796
    2 4.018333 0.000000 0.000000 0.000000 0.000000 -0.029242
    3 3.518562 0.000000 0.000000 0.000000 0.000000 0.100336
    4 8.942642 0.000002 0.000000 0.000000 0.000000 0.194096
    5 2.033360 1.000772 -1.937610 -1.899360 1.271466 2.701965
    6 6.028143 0.000000 0.000000 1.326848 -0.270742 -0.752574
    7 11.692554 0.000000 0.000000 0.000000 0.000000 -1.438893
    8 11.481701 -0.000004 0.000001 -0.950723 -0.355849 0.657212
  time 12
    0 -0.003759 -14.609375 -29.421875 1.570792 0.000003 -0.000003
    1 0.000005 3.345127 -2.981897 1.570796 0.086293 1.570796
    2 4.018333 0.000000 0.000000 0.000000 0.000000 -0.029242
    3 3.518562 0.000000 0.000000 0.000000 0.000000 0.100336
    4 8.942642 0.000002 0.000000 0.000000 0.000000 0.194096
    5 2.033360 1.000772 -1.937610 -1.862123 1.275131 2.740910
    6 6.028143 0.000000 0.000000 1.367422 -0.194227 -0.743759
    7 11.692554 0.000000 0.000000 0.000000 0.000000 -1.442229
    8 11.481701 -0.000004 0.000001 -0.917029 -0.317488 0.575393
  time 13
    0 -0.003759 -14.609375 -29.421875 1.570792 0.000003 -0.000003
    1 0.000005 3.345127 -2.981897 1.570796 0.086293 1.570796
    2 4.018333 0.000000 0.000000 0.000000 0.000000 -0.029242
    3 3.518562 0.000000 0.000000 0.000000 0.000000 0.100336
    4 8.942642 0.000002 0.000000 0.000000 0.000000 0.194096
    5 2.033360 1.000772 -1.937610 -1.825304 1.278224 2.779381
    6 6.028143 0.000000 0.000000 1.405069 -0.099906 -0.733891
    7 11.692554 0.000000 0.000000 0.000000 0.000000 -1.436751
    8 11.481701 -0.000004 0.000001 -0.890686 -0.273007 0.496587
  time 14
    0 -0.003759 -14.609375 -29.421875 1.570792 0.000003 -0.000003
    1 0.000005 3.345127 -2.981897 1.570796 0.086293 1.570796
    2 4.018333 0.000000 0.000000 0.000000 0.000000 -0.029242
    3 3.518562 0.000000 0.000000 0.000000 0.000000 0.100336
    4 8.942642 0.000002 0.000000 0.000000 0.000000 0.194096
    5 2.033360 1.000772 -1.937610 -1.789949 1.280790 2.816310
    6 6.028143 0.000000 0.000000 1.438778 0.011140 -0.722214
    7 11.692554 0.000000 0.000000 0.000000 0.000000 -1.414673
    8 11.481701 -0.000004 0.000001 -0.872307 -0.224099 0.422047
  time 15
    0 -0.003759 -14.609375 -29.421875 1.570792 0.000003 -0.000003
    1 0.000005 3.345127 -2.981897 1.570796 0.086293 1.570796
    2 4.018333 0.000000 0.000000 0.000000 0.000000 -0.029242
    3 3.518562 0.000000 0.000000 0.000000 0.000000 0.100336
    4 8.942642 0.000002 0.000000 0.000000 0.000000 0.194096
    5 2.033360 1.000772 -1.937610 -1.757070 1.282806 2.850590
    6 6.028143 0.000000 0.000000 1.468332 0.135669 -0.708202
    7 11.692554 0.000000 0.000000 0.000000 0.000000 -1.371094
    8 11.481701 -0.000004 0.000001 -0.861816 -0.173088 0.352777
  time 16
    0 -0.003759 -14.609375 -29.421875 1.570792 0.000003 -0.000003
    1 0.000005 3.345127 -2.981897 1.570796 0.086293 1.570796
    2 4.018333 0.000000 0.000000 0.000000 0.000000 -0.029242
    3 3.518562 0.000000 0.000000 0.000000 0.000000 0.100336
    4 8.942642 0.000002 0.000000 0.000000 0.000000 0.194096
    5 2.033360 1.000772 -1.937610 -1.727817 1.284295 2.881114
    6 6.028143 0.000000 0.000000 1.494020 0.268788 -0.691779
    7 11.692554 0.000000 0.000000 0.000000 0.000000 -1.303748
    8 11.481701 -0.000004 0.000001 -0.858600 -0.122377 0.289740
  time 17
    0 -0.003759 -14.609375 -29.421875 1.570792 0.000003 -0.000003
    1 0.000005 3.345127 -2.981897 1.570796 0.086293 1.570796
    2 4.018333 0.000000 0.000000 0.000000 0.000000 -0.029242
    3 3.518562 0.000000 0.000000 0.000000 0.000000 0.100336
    4 8.942642 0.000002 0.000000 0.000000 0.000000 0.194096
    5 2.033360 1.000772 -1.937610 -1.703305 1.285349 2.906656
    6 6.028143 0.000000 0.000000 1.516420 0.403898 -0.673473
    7 11.692554 0.000000 0.000000 0.000000 0.000000 -1.214654
    8 11.481701 -0.000004 0.000001 -0.861127 -0.074945 0.234149
  time 18
    0 -0.003759 -14.609375 -29.421875 1.570792 0.000003 -0.000003
    1 0.000005 3.345127 -2.981897 1.570796 0.086293 1.570796
    2 4.018333 0.000000 0.000000 0.000000 0.000000 -0.029242
    3 3.518562 0.000000 0.000000 0.000000 0.000000 0.100336
    4 8.942642 0.000002 0.000000 0.000000 0.000000 0.194096
    5 2.033360 1.000772 -1.937610 -1.684617 1.286060 2.926188
    6 6.028143 0.000000 0.000000 1.535930 0.531613 -0.654338
    7 11.692554 0.000000 0.000000 0.000000 0.000000 -1.111226
    8 11.481701 -0.000004 0.000001 -0.867253 -0.034070 0.188095
  time 19
    0 -0.003759 -14.609375 -29.421875 1.570792 0.000003 -0.000003
    1 0.000005 3.345127 -2.981897 1.570796 0.086293 1.570796
    2 4.018333 0.000000 0.000000 0.000000 0.000000 -0.029242
    3 3.518562 0.000000 0.000000 0.000000 0.000000 0.100336
    4 8.942642 0.000002 0.000000 0.000000 0.000000 0.194096
    5 2.033360 1.000772 -1.937610 -1.672658 1.286403 2.938643
    6 6.028143 0.000000 0.000000 1.551611 0.636174 -0.637237
    7 11.692554 0.000000 0.000000 0.000000 0.000000 -1.012699
    8 11.481701 -0.000004 0.000001 -0.873839 -0.004261 0.155133
  time 20
    0 -0.003759 -14.609375 -29.421875 1.570792 0.000003 -0.000003
    1 0.000005 3.345127 -2.981897 1.570796 0.086293 1.570796
    2 4.018333 0.000000 0.000000 0.000000 0.000000 -0.029242
    3 3.518562 0.000000 0.000000 0.000000 0.000000 0.100336
    4 8.942642 0.000002 0.000000 0.000000 0.000000 0.194096
    5 2.033360 1.000772 -1.937610 -1.668474 1.286518 2.942953
    6 6.028143 0.000000 0.000000 1.558945 0.684302 -0.628875
    7 11.692554 0.000000 0.000000 0.000000 0.000000 -0.963065
    8 11.481701 -0.000004 0.000001 -0.876978 0.007870 0.141748
end
