// Created by Crowbar 0.74
version 1
nodes
  0 "Rotate" -1
  1 "blade" 0
end
skeleton
  time 0
    0 -0.000674 -15.863766 -6.426319 0.000000 0.000000 -0.000005
    1 0.000000 0.000000 -0.000001 0.017453 0.017453 0.017453
  time 1
    0 -0.000674 -15.863766 -6.426319 0.000000 0.000000 -1.050435
    1 0.000000 0.000000 -0.000001 0.017453 0.017453 0.017453
  time 2
    0 -0.000674 -15.863766 -6.426319 0.000000 0.000000 -2.100783
    1 0.000000 0.000000 -0.000001 0.017453 0.017453 0.017453
  time 3
    0 -0.000674 -15.863766 -6.426319 0.000000 0.000000 -3.141588
    1 0.000000 0.000000 -0.000001 0.017453 0.017453 0.017453
  time 4
    0 -0.000674 -15.863766 -6.426319 0.000000 0.000000 -4.166159
    1 0.000000 0.000000 -0.000001 0.017453 0.017453 0.017453
  time 5
    0 -0.000674 -15.863766 -6.426319 0.000000 0.000000 1.102143
    1 0.000000 0.000000 -0.000001 0.017453 0.017453 0.017453
  time 6
    0 -0.000674 -15.863766 -6.426319 0.000000 0.000000 -0.000005
    1 0.000000 0.000000 -0.000001 0.017453 0.017453 0.017453
end
