// Created by Crowbar 0.74
version 1
nodes
  0 "Bip01" -1
  1 "Bip01 Pelvis" 0
  2 "Bip01 Spine" 1
  3 "Bip01 Neck" 2
  4 "Bip01 R Clavicle" 3
  5 "Bip01 R UpperArm" 4
  6 "Bip01 R Forearm" 5
  7 "Bip01 R Hand" 6
  8 "Bip01 R Finger0" 7
  9 "Bip01 R Finger01" 8
  10 "Bip01 R Finger02" 9
  11 "Bip01 R Finger1" 7
  12 "Bip01 R Finger11" 11
  13 "Bip01 R Finger12" 12
  14 "Bip01 R Finger2" 7
  15 "Bip01 R Finger21" 14
  16 "Bip01 R Finger22" 15
  17 "Bip01 R Finger3" 7
  18 "Bip01 R Finger31" 17
  19 "Bip01 R Finger32" 18
  20 "Bip01 R Finger4" 7
  21 "Bip01 R Finger41" 20
  22 "Bip01 R Finger42" 21
  23 "Dummy14" 7
end
skeleton
  time 0
    0 0.134275 2.725324 -24.816700 0.000000 0.000000 -1.570795
    1 0.000000 0.000000 0.000002 -0.000086 -1.570451 -1.570709
    2 4.443614 -0.009642 0.000006 -0.000004 -0.000001 0.000796
    3 12.111412 -0.011446 0.000000 0.000000 0.000000 0.000000
    4 0.000011 0.011449 -1.352403 -0.000014 1.370796 3.140783
    5 6.078087 0.000000 0.000002 1.236844 0.320655 -1.086450
    6 13.446754 -0.000005 0.000004 0.000000 0.000000 -0.462568
    7 15.997001 -0.000001 0.000003 0.779088 0.108892 -0.220936
    8 1.885332 0.833275 2.177876 0.463316 -0.723187 1.286654
    9 1.506964 0.000001 0.000000 0.000000 0.000000 -0.139626
    10 0.798349 0.000000 -0.000005 0.000000 0.000000 -0.111153
    11 3.950309 -0.539877 2.108872 0.055913 -0.146870 -0.360358
    12 1.545794 0.000002 0.000000 0.000000 0.000000 0.508933
    13 1.667400 -0.000008 0.000003 0.000000 0.000000 0.479199
    14 3.899462 -0.475375 1.170888 0.000772 0.000204 -0.260302
    15 1.528213 0.000001 0.000000 0.000000 0.000000 0.263066
    16 1.528224 -0.000003 0.000002 0.000000 0.000000 0.963748
    17 3.899463 -0.431804 -0.168225 0.000796 0.000000 0.000000
    18 1.506968 0.000000 0.000002 0.000000 0.000000 0.809981
    19 1.506961 0.000001 0.000000 0.000000 0.000000 0.737096
    20 3.915638 -0.278021 -1.402606 0.000796 0.000000 0.000000
    21 1.333084 -0.000001 -0.000002 0.000000 0.000000 0.673226
    22 1.159207 0.000001 0.000000 0.000000 0.000000 0.776224
    23 -23.035519 -42.118016 -4.694356 1.587597 -0.821365 -3.138241
  time 1
    0 0.134275 2.725324 -24.816700 0.000000 0.000000 -1.570795
    1 0.000000 0.000000 0.000002 -0.000086 -1.570451 -1.570709
    2 4.443614 -0.009642 0.000006 -0.000004 -0.000001 0.000796
    3 12.111412 -0.011446 0.000000 0.000000 0.000000 0.000000
    4 0.000011 0.011449 -1.352403 -0.000014 1.370796 3.140783
    5 6.078087 0.000000 0.000002 1.217704 0.185827 -1.207892
    6 13.446754 -0.000005 0.000004 0.000000 0.000000 -0.410063
    7 15.997001 -0.000001 0.000003 0.685697 0.106855 -0.209922
    8 1.885332 0.833275 2.177876 0.478426 -0.723558 1.274014
    9 1.506964 0.000001 0.000000 0.000000 0.000000 -0.139626
    10 0.798349 0.000000 -0.000005 0.000000 0.000000 -0.111896
    11 3.950309 -0.539877 2.108872 0.062469 -0.144221 -0.405525
    12 1.545794 0.000002 0.000000 0.000000 0.000000 0.449586
    13 1.667400 -0.000008 0.000003 0.000000 0.000000 0.418173
    14 3.899462 -0.475375 1.170888 0.000772 0.000228 -0.299623
    15 1.528213 0.000001 0.000000 0.000000 0.000000 0.218148
    16 1.528224 -0.000003 0.000002 0.000000 0.000000 0.909477
    17 3.899463 -0.431804 -0.168225 0.000796 0.000000 0.000000
    18 1.506968 0.000000 0.000002 0.000000 0.000000 0.799165
    19 1.506961 0.000001 0.000000 0.000000 0.000000 0.721593
    20 3.915638 -0.278021 -1.402606 0.000796 0.000000 0.000000
    21 1.333084 -0.000001 -0.000002 0.000000 0.000000 0.661477
    22 1.159207 0.000001 0.000000 0.000000 0.000000 0.765034
    23 -27.855978 -42.778192 -5.854548 1.587597 -0.821365 -3.138241
  time 2
    0 0.134275 2.725324 -24.816700 0.000000 0.000000 -1.570795
    1 0.000000 0.000000 0.000002 -0.000086 -1.570451 -1.570709
    2 4.443614 -0.009642 0.000006 -0.000004 -0.000001 0.000796
    3 12.111412 -0.011446 0.000000 0.000000 0.000000 0.000000
    4 0.000011 0.011449 -1.352403 -0.000014 1.370796 3.140783
    5 6.078087 0.000000 0.000002 1.211943 0.052747 -1.315958
    6 13.446754 -0.000005 0.000004 0.000000 0.000000 -0.364415
    7 15.997001 -0.000001 0.000003 0.602644 0.105908 -0.198705
    8 1.885332 0.833275 2.177876 0.493556 -0.723774 1.261356
    9 1.506964 0.000001 0.000000 0.000000 0.000000 -0.139626
    10 0.798349 0.000000 -0.000005 0.000000 0.000000 -0.112651
    11 3.950309 -0.539877 2.108872 0.068114 -0.141657 -0.445166
    12 1.545794 0.000002 0.000000 0.000000 0.000000 0.395727
    13 1.667400 -0.000008 0.000003 0.000000 0.000000 0.362613
    14 3.899462 -0.475375 1.170888 0.000760 0.000252 -0.334736
    15 1.528213 0.000001 0.000000 0.000000 0.000000 0.177448
    16 1.528224 -0.000003 0.000002 0.000000 0.000000 0.859442
    17 3.899463 -0.431804 -0.168225 0.000796 0.000000 0.000000
    18 1.506968 0.000000 0.000002 0.000000 0.000000 0.788331
    19 1.506961 0.000001 0.000000 0.000000 0.000000 0.706090
    20 3.915638 -0.278021 -1.402606 0.000796 0.000000 0.000000
    21 1.333084 -0.000001 -0.000002 0.000000 0.000000 0.649710
    22 1.159207 0.000001 0.000000 0.000000 0.000000 0.753827
    23 -33.824911 -40.043734 -7.756950 1.587597 -0.821365 -3.138241
  time 3
    0 0.134275 2.725324 -24.816700 0.000000 0.000000 -1.570795
    1 0.000000 0.000000 0.000002 -0.000086 -1.570451 -1.570709
    2 4.443614 -0.009642 0.000006 -0.000004 -0.000001 0.000796
    3 12.111412 -0.011446 0.000000 0.000000 0.000000 0.000000
    4 0.000011 0.011449 -1.352403 -0.000014 1.370796 3.140783
    5 6.078087 0.000000 0.000002 1.215451 -0.066603 -1.407167
    6 13.446754 -0.000005 0.000004 0.000000 0.000000 -0.326365
    7 15.997001 -0.000001 0.000003 0.534349 0.105812 -0.190016
    8 1.885332 0.833275 2.177876 0.505179 -0.723846 1.251607
    9 1.506964 0.000001 0.000000 0.000000 0.000000 -0.139626
    10 0.798349 0.000000 -0.000005 0.000000 0.000000 -0.113226
    11 3.950309 -0.539877 2.108872 0.072716 -0.139368 -0.477968
    12 1.545794 0.000002 0.000000 0.000000 0.000000 0.351947
    13 1.667400 -0.000008 0.000003 0.000000 0.000000 0.317551
    14 3.899462 -0.475375 1.170888 0.000748 0.000276 -0.363531
    15 1.528213 0.000001 0.000000 0.000000 0.000000 0.144335
    16 1.528224 -0.000003 0.000002 0.000000 0.000000 0.819140
    17 3.899463 -0.431804 -0.168225 0.000796 0.000000 0.000000
    18 1.506968 0.000000 0.000002 0.000000 0.000000 0.780001
    19 1.506961 0.000001 0.000000 0.000000 0.000000 0.694169
    20 3.915638 -0.278021 -1.402606 0.000796 0.000000 0.000000
    21 1.333084 -0.000001 -0.000002 0.000000 0.000000 0.640661
    22 1.159207 0.000001 0.000000 0.000000 0.000000 0.745209
    23 -39.766498 -36.832698 -9.186681 1.587597 -0.821365 -3.138241
  time 4
    0 0.134275 2.725324 -24.816700 0.000000 0.000000 -1.570795
    1 0.000000 0.000000 0.000002 -0.000086 -1.570451 -1.570709
    2 4.443614 -0.009642 0.000006 -0.000004 -0.000001 0.000796
    3 12.111412 -0.011446 0.000000 0.000000 0.000000 0.000000
    4 0.000011 0.011449 -1.352403 -0.000014 1.370796 3.140783
    5 6.078087 0.000000 0.000002 1.221812 -0.161045 -1.476043
    6 13.446754 -0.000005 0.000004 0.000000 0.000000 -0.296771
    7 15.997001 -0.000001 0.000003 0.485386 0.105932 -0.186528
    8 1.885332 0.833275 2.177876 0.509829 -0.723846 1.247710
    9 1.506964 0.000001 0.000000 0.000000 0.000000 -0.139626
    10 0.798349 0.000000 -0.000005 0.000000 0.000000 -0.113454
    11 3.950309 -0.539877 2.108872 0.076131 -0.137534 -0.502722
    12 1.545794 0.000002 0.000000 0.000000 0.000000 0.322897
    13 1.667400 -0.000008 0.000003 0.000000 0.000000 0.287985
    14 3.899462 -0.475375 1.170888 0.000748 0.000288 -0.383960
    15 1.528213 0.000001 0.000000 0.000000 0.000000 0.122175
    16 1.528224 -0.000003 0.000002 0.000000 0.000000 0.794122
    17 3.899463 -0.431804 -0.168225 0.000796 0.000000 0.000000
    18 1.506968 0.000000 0.000002 0.000000 0.000000 0.776659
    19 1.506961 0.000001 0.000000 0.000000 0.000000 0.689386
    20 3.915638 -0.278021 -1.402606 0.000796 0.000000 0.000000
    21 1.333084 -0.000001 -0.000002 0.000000 0.000000 0.637031
    22 1.159207 0.000001 0.000000 0.000000 0.000000 0.741752
    23 -45.297917 -34.113865 -9.737479 1.587597 -0.821365 -3.138241
  time 5
    0 0.134275 2.725324 -24.816700 0.000000 0.000000 -1.570795
    1 0.000000 0.000000 0.000002 -0.000086 -1.570451 -1.570709
    2 4.443614 -0.009642 0.000006 -0.000004 -0.000001 0.000796
    3 12.111412 -0.011446 0.000000 0.000000 0.000000 0.000000
    4 0.000011 0.011449 -1.352403 -0.000014 1.370796 3.140783
    5 6.078087 0.000000 0.000002 1.226376 -0.237459 -1.526302
    6 13.446754 -0.000005 0.000004 0.000000 0.000000 -0.276032
    7 15.997001 -0.000001 0.000003 0.454102 0.105932 -0.186528
    8 1.885332 0.833275 2.177876 0.509829 -0.723846 1.247710
    9 1.506964 0.000001 0.000000 0.000000 0.000000 -0.139626
    10 0.798349 0.000000 -0.000005 0.000000 0.000000 -0.113454
    11 3.950309 -0.539877 2.108872 0.078420 -0.136252 -0.519476
    12 1.545794 0.000002 0.000000 0.000000 0.000000 0.306238
    13 1.667400 -0.000008 0.000003 0.000000 0.000000 0.271326
    14 3.899462 -0.475375 1.170888 0.000736 0.000300 -0.396821
    15 1.528213 0.000001 0.000000 0.000000 0.000000 0.109328
    16 1.528224 -0.000003 0.000002 0.000000 0.000000 0.781261
    17 3.899463 -0.431804 -0.168225 0.000796 0.000000 0.000000
    18 1.506968 0.000000 0.000002 0.000000 0.000000 0.776659
    19 1.506961 0.000001 0.000000 0.000000 0.000000 0.689386
    20 3.915638 -0.278021 -1.402606 0.000796 0.000000 0.000000
    21 1.333084 -0.000001 -0.000002 0.000000 0.000000 0.637031
    22 1.159207 0.000001 0.000000 0.000000 0.000000 0.741752
    23 -49.563672 -31.816920 -10.135928 1.587597 -0.821365 -3.138241
  time 6
    0 0.134275 2.725324 -24.816700 0.000000 0.000000 -1.570795
    1 0.000000 0.000000 0.000002 -0.000086 -1.570451 -1.570709
    2 4.443614 -0.009642 0.000006 -0.000004 -0.000001 0.000796
    3 12.111412 -0.011446 0.000000 0.000000 0.000000 0.000000
    4 0.000011 0.011449 -1.352403 -0.000014 1.370796 3.140783
    5 6.078087 0.000000 0.000002 1.229057 -0.310434 -1.567017
    6 13.446754 -0.000005 0.000004 0.000000 0.000000 -0.263177
    7 15.997001 -0.000001 0.000003 0.434732 0.105932 -0.186528
    8 1.885332 0.833275 2.177876 0.509829 -0.723846 1.247710
    9 1.506964 0.000001 0.000000 0.000000 0.000000 -0.139626
    10 0.798349 0.000000 -0.000005 0.000000 0.000000 -0.113454
    11 3.950309 -0.539877 2.108872 0.079823 -0.135437 -0.529872
    12 1.545794 0.000002 0.000000 0.000000 0.000000 0.295907
    13 1.667400 -0.000008 0.000003 0.000000 0.000000 0.261007
    14 3.899462 -0.475375 1.170888 0.000736 0.000312 -0.404788
    15 1.528213 0.000001 0.000000 0.000000 0.000000 0.101358
    16 1.528224 -0.000003 0.000002 0.000000 0.000000 0.773284
    17 3.899463 -0.431804 -0.168225 0.000796 0.000000 0.000000
    18 1.506968 0.000000 0.000002 0.000000 0.000000 0.776659
    19 1.506961 0.000001 0.000000 0.000000 0.000000 0.689386
    20 3.915638 -0.278021 -1.402606 0.000796 0.000000 0.000000
    21 1.333084 -0.000001 -0.000002 0.000000 0.000000 0.637031
    22 1.159207 0.000001 0.000000 0.000000 0.000000 0.741752
    23 -52.434854 -29.996552 -10.350779 1.587597 -0.821365 -3.138241
  time 7
    0 0.134275 2.725324 -24.816700 0.000000 0.000000 -1.570795
    1 0.000000 0.000000 0.000002 -0.000086 -1.570451 -1.570709
    2 4.443614 -0.009642 0.000006 -0.000004 -0.000001 0.000796
    3 12.111412 -0.011446 0.000000 0.000000 0.000000 0.000000
    4 0.000011 0.011449 -1.352403 -0.000014 1.370796 3.140783
    5 6.078087 0.000000 0.000002 1.229428 -0.380714 -1.599480
    6 13.446754 -0.000005 0.000004 0.000000 0.000000 -0.256950
    7 15.997001 -0.000001 0.000003 0.425354 0.105932 -0.186528
    8 1.885332 0.833275 2.177876 0.509829 -0.723846 1.247710
    9 1.506964 0.000001 0.000000 0.000000 0.000000 -0.139626
    10 0.798349 0.000000 -0.000005 0.000000 0.000000 -0.113454
    11 3.950309 -0.539877 2.108872 0.080506 -0.135029 -0.534894
    12 1.545794 0.000002 0.000000 0.000000 0.000000 0.290910
    13 1.667400 -0.000008 0.000003 0.000000 0.000000 0.256010
    14 3.899462 -0.475375 1.170888 0.000736 0.000312 -0.408646
    15 1.528213 0.000001 0.000000 0.000000 0.000000 0.097499
    16 1.528224 -0.000003 0.000002 0.000000 0.000000 0.769430
    17 3.899463 -0.431804 -0.168225 0.000796 0.000000 0.000000
    18 1.506968 0.000000 0.000002 0.000000 0.000000 0.776659
    19 1.506961 0.000001 0.000000 0.000000 0.000000 0.689386
    20 3.915638 -0.278021 -1.402606 0.000796 0.000000 0.000000
    21 1.333084 -0.000001 -0.000002 0.000000 0.000000 0.637031
    22 1.159207 0.000001 0.000000 0.000000 0.000000 0.741752
    23 -54.165375 -28.551195 -10.444532 1.587597 -0.821365 -3.138241
  time 8
    0 0.134275 2.725324 -24.816700 0.000000 0.000000 -1.570795
    1 0.000000 0.000000 0.000002 -0.000086 -1.570451 -1.570709
    2 4.443614 -0.009642 0.000006 -0.000004 -0.000001 0.000796
    3 12.111412 -0.011446 0.000000 0.000000 0.000000 0.000000
    4 0.000011 0.011449 -1.352403 -0.000014 1.370796 3.140783
    5 6.078087 0.000000 0.000002 1.227403 -0.448902 -1.624785
    6 13.446754 -0.000005 0.000004 0.000000 0.000000 -0.256093
    7 15.997001 -0.000001 0.000003 0.424086 0.105932 -0.186528
    8 1.885332 0.833275 2.177876 0.509829 -0.723846 1.247710
    9 1.506964 0.000001 0.000000 0.000000 0.000000 -0.139626
    10 0.798349 0.000000 -0.000005 0.000000 0.000000 -0.113454
    11 3.950309 -0.539877 2.108872 0.080590 -0.134981 -0.535575
    12 1.545794 0.000002 0.000000 0.000000 0.000000 0.290251
    13 1.667400 -0.000008 0.000003 0.000000 0.000000 0.255339
    14 3.899462 -0.475375 1.170888 0.000736 0.000312 -0.409171
    15 1.528213 0.000001 0.000000 0.000000 0.000000 0.096983
    16 1.528224 -0.000003 0.000002 0.000000 0.000000 0.768914
    17 3.899463 -0.431804 -0.168225 0.000796 0.000000 0.000000
    18 1.506968 0.000000 0.000002 0.000000 0.000000 0.776659
    19 1.506961 0.000001 0.000000 0.000000 0.000000 0.689386
    20 3.915638 -0.278021 -1.402606 0.000796 0.000000 0.000000
    21 1.333084 -0.000001 -0.000002 0.000000 0.000000 0.637031
    22 1.159207 0.000001 0.000000 0.000000 0.000000 0.741752
    23 -54.997432 -27.387097 -10.467970 1.587597 -0.821365 -3.138241
  time 9
    0 0.134275 2.725324 -24.816700 0.000000 0.000000 -1.570795
    1 0.000000 0.000000 0.000002 -0.000086 -1.570451 -1.570709
    2 4.443614 -0.009642 0.000006 -0.000004 -0.000001 0.000796
    3 12.111412 -0.011446 0.000000 0.000000 0.000000 0.000000
    4 0.000011 0.011449 -1.352403 -0.000014 1.370796 3.140783
    5 6.078087 0.000000 0.000002 1.223153 -0.515542 -1.644302
    6 13.446754 -0.000005 0.000004 0.000000 0.000000 -0.259406
    7 15.997001 -0.000001 0.000003 0.429121 0.105932 -0.186528
    8 1.885332 0.833275 2.177876 0.509829 -0.723846 1.247710
    9 1.506964 0.000001 0.000000 0.000000 0.000000 -0.139626
    10 0.798349 0.000000 -0.000005 0.000000 0.000000 -0.113454
    11 3.950309 -0.539877 2.108872 0.080230 -0.135197 -0.532875
    12 1.545794 0.000002 0.000000 0.000000 0.000000 0.292911
    13 1.667400 -0.000008 0.000003 0.000000 0.000000 0.258011
    14 3.899462 -0.475375 1.170888 0.000736 0.000312 -0.407110
    15 1.528213 0.000001 0.000000 0.000000 0.000000 0.099033
    16 1.528224 -0.000003 0.000002 0.000000 0.000000 0.770975
    17 3.899463 -0.431804 -0.168225 0.000796 0.000000 0.000000
    18 1.506968 0.000000 0.000002 0.000000 0.000000 0.776659
    19 1.506961 0.000001 0.000000 0.000000 0.000000 0.689386
    20 3.915638 -0.278021 -1.402606 0.000796 0.000000 0.000000
    21 1.333084 -0.000001 -0.000002 0.000000 0.000000 0.637031
    22 1.159207 0.000001 0.000000 0.000000 0.000000 0.741752
    23 -55.188844 -26.410505 -10.479689 1.587597 -0.821365 -3.138241
  time 10
    0 0.134275 2.725324 -24.816700 0.000000 0.000000 -1.570795
    1 0.000000 0.000000 0.000002 -0.000086 -1.570451 -1.570709
    2 4.443614 -0.009642 0.000006 -0.000004 -0.000001 0.000796
    3 12.111412 -0.011446 0.000000 0.000000 0.000000 0.000000
    4 0.000011 0.011449 -1.352403 -0.000014 1.370796 3.140783
    5 6.078087 0.000000 0.000002 1.217077 -0.581179 -1.659439
    6 13.446754 -0.000005 0.000004 0.000000 0.000000 -0.265634
    7 15.997001 -0.000001 0.000003 0.438498 0.105932 -0.186528
    8 1.885332 0.833275 2.177876 0.509829 -0.723846 1.247710
    9 1.506964 0.000001 0.000000 0.000000 0.000000 -0.139626
    10 0.798349 0.000000 -0.000005 0.000000 0.000000 -0.113454
    11 3.950309 -0.539877 2.108872 0.079547 -0.135592 -0.527854
    12 1.545794 0.000002 0.000000 0.000000 0.000000 0.297909
    13 1.667400 -0.000008 0.000003 0.000000 0.000000 0.263009
    14 3.899462 -0.475375 1.170888 0.000736 0.000312 -0.403252
    15 1.528213 0.000001 0.000000 0.000000 0.000000 0.102892
    16 1.528224 -0.000003 0.000002 0.000000 0.000000 0.774830
    17 3.899463 -0.431804 -0.168225 0.000796 0.000000 0.000000
    18 1.506968 0.000000 0.000002 0.000000 0.000000 0.776659
    19 1.506961 0.000001 0.000000 0.000000 0.000000 0.689386
    20 3.915638 -0.278021 -1.402606 0.000796 0.000000 0.000000
    21 1.333084 -0.000001 -0.000002 0.000000 0.000000 0.637031
    22 1.159207 0.000001 0.000000 0.000000 0.000000 0.741752
    23 -54.985713 -25.519853 -10.530472 1.587597 -0.821365 -3.138241
  time 11
    0 0.134275 2.725324 -24.816700 0.000000 0.000000 -1.570795
    1 0.000000 0.000000 0.000002 -0.000086 -1.570451 -1.570709
    2 4.443614 -0.009642 0.000006 -0.000004 -0.000001 0.000796
    3 12.111412 -0.011446 0.000000 0.000000 0.000000 0.000000
    4 0.000011 0.011449 -1.352403 -0.000014 1.370796 3.140783
    5 6.078087 0.000000 0.000002 1.210003 -0.646271 -1.671876
    6 13.446754 -0.000005 0.000004 0.000000 0.000000 -0.273518
    7 15.997001 -0.000001 0.000003 0.450374 0.105932 -0.186528
    8 1.885332 0.833275 2.177876 0.509829 -0.723846 1.247710
    9 1.506964 0.000001 0.000000 0.000000 0.000000 -0.139626
    10 0.798349 0.000000 -0.000005 0.000000 0.000000 -0.113454
    11 3.950309 -0.539877 2.108872 0.078696 -0.136096 -0.521495
    12 1.545794 0.000002 0.000000 0.000000 0.000000 0.304237
    13 1.667400 -0.000008 0.000003 0.000000 0.000000 0.269337
    14 3.899462 -0.475375 1.170888 0.000736 0.000300 -0.398370
    15 1.528213 0.000001 0.000000 0.000000 0.000000 0.107782
    16 1.528224 -0.000003 0.000002 0.000000 0.000000 0.779715
    17 3.899463 -0.431804 -0.168225 0.000796 0.000000 0.000000
    18 1.506968 0.000000 0.000002 0.000000 0.000000 0.776659
    19 1.506961 0.000001 0.000000 0.000000 0.000000 0.689386
    20 3.915638 -0.278021 -1.402606 0.000796 0.000000 0.000000
    21 1.333084 -0.000001 -0.000002 0.000000 0.000000 0.637031
    22 1.159207 0.000001 0.000000 0.000000 0.000000 0.741752
    23 -54.634139 -24.625294 -10.678914 1.587597 -0.821365 -3.138241
  time 12
    0 0.134275 2.725324 -24.816700 0.000000 0.000000 -1.570795
    1 0.000000 0.000000 0.000002 -0.000086 -1.570451 -1.570709
    2 4.443614 -0.009642 0.000006 -0.000004 -0.000001 0.000796
    3 12.111412 -0.011446 0.000000 0.000000 0.000000 0.000000
    4 0.000011 0.011449 -1.352403 -0.000014 1.370796 3.140783
    5 6.078087 0.000000 0.000002 1.203043 -0.711277 -1.683571
    6 13.446754 -0.000005 0.000004 0.000000 0.000000 -0.281859
    7 15.997001 -0.000001 0.000003 0.462865 0.105932 -0.186528
    8 1.885332 0.833275 2.177876 0.509829 -0.723846 1.247710
    9 1.506964 0.000001 0.000000 0.000000 0.000000 -0.139626
    10 0.798349 0.000000 -0.000005 0.000000 0.000000 -0.113454
    11 3.950309 -0.539877 2.108872 0.077773 -0.136611 -0.514783
    12 1.545794 0.000002 0.000000 0.000000 0.000000 0.310900
    13 1.667400 -0.000008 0.000003 0.000000 0.000000 0.275988
    14 3.899462 -0.475375 1.170888 0.000736 0.000300 -0.393225
    15 1.528213 0.000001 0.000000 0.000000 0.000000 0.112923
    16 1.528224 -0.000003 0.000002 0.000000 0.000000 0.784867
    17 3.899463 -0.431804 -0.168225 0.000796 0.000000 0.000000
    18 1.506968 0.000000 0.000002 0.000000 0.000000 0.776659
    19 1.506961 0.000001 0.000000 0.000000 0.000000 0.689386
    20 3.915638 -0.278021 -1.402606 0.000796 0.000000 0.000000
    21 1.333084 -0.000001 -0.000002 0.000000 0.000000 0.637031
    22 1.159207 0.000001 0.000000 0.000000 0.000000 0.741752
    23 -54.384132 -23.625264 -10.979704 1.587597 -0.821365 -3.138241
  time 13
    0 0.134275 2.725324 -24.816700 0.000000 0.000000 -1.570795
    1 0.000000 0.000000 0.000002 -0.000086 -1.570451 -1.570709
    2 4.443614 -0.009642 0.000006 -0.000004 -0.000001 0.000796
    3 12.111412 -0.011446 0.000000 0.000000 0.000000 0.000000
    4 0.000011 0.011449 -1.352403 -0.000014 1.370796 3.140783
    5 6.078087 0.000000 0.000002 1.197909 -0.776627 -1.697025
    6 13.446754 -0.000005 0.000004 0.000000 0.000000 -0.289286
    7 15.997001 -0.000001 0.000003 0.474125 0.105932 -0.186528
    8 1.885332 0.833275 2.177876 0.509829 -0.723846 1.247710
    9 1.506964 0.000001 0.000000 0.000000 0.000000 -0.139626
    10 0.798349 0.000000 -0.000005 0.000000 0.000000 -0.113454
    11 3.950309 -0.539877 2.108872 0.076958 -0.137079 -0.508752
    12 1.545794 0.000002 0.000000 0.000000 0.000000 0.316892
    13 1.667400 -0.000008 0.000003 0.000000 0.000000 0.281992
    14 3.899462 -0.475375 1.170888 0.000748 0.000300 -0.388592
    15 1.528213 0.000001 0.000000 0.000000 0.000000 0.117549
    16 1.528224 -0.000003 0.000002 0.000000 0.000000 0.789485
    17 3.899463 -0.431804 -0.168225 0.000796 0.000000 0.000000
    18 1.506968 0.000000 0.000002 0.000000 0.000000 0.776659
    19 1.506961 0.000001 0.000000 0.000000 0.000000 0.689386
    20 3.915638 -0.278021 -1.402606 0.000796 0.000000 0.000000
    21 1.333084 -0.000001 -0.000002 0.000000 0.000000 0.637031
    22 1.159207 0.000001 0.000000 0.000000 0.000000 0.741752
    23 -53.993495 -22.062716 -11.593004 1.587597 -0.821365 -3.138241
  time 14
    0 0.134275 2.725324 -24.816700 0.000000 0.000000 -1.570795
    1 0.000000 0.000000 0.000002 -0.000086 -1.570451 -1.570709
    2 4.443614 -0.009642 0.000006 -0.000004 -0.000001 0.000796
    3 12.111412 -0.011446 0.000000 0.000000 0.000000 0.000000
    4 0.000011 0.011449 -1.352403 -0.000014 1.370796 3.140783
    5 6.078087 0.000000 0.000002 1.197025 -0.842751 -1.715329
    6 13.446754 -0.000005 0.000004 0.000000 0.000000 -0.294714
    7 15.997001 -0.000001 0.000003 0.482273 0.105932 -0.186528
    8 1.885332 0.833275 2.177876 0.509829 -0.723846 1.247710
    9 1.506964 0.000001 0.000000 0.000000 0.000000 -0.139626
    10 0.798349 0.000000 -0.000005 0.000000 0.000000 -0.113454
    11 3.950309 -0.539877 2.108872 0.076359 -0.137414 -0.504387
    12 1.545794 0.000002 0.000000 0.000000 0.000000 0.321231
    13 1.667400 -0.000008 0.000003 0.000000 0.000000 0.286319
    14 3.899462 -0.475375 1.170888 0.000748 0.000288 -0.385246
    15 1.528213 0.000001 0.000000 0.000000 0.000000 0.120893
    16 1.528224 -0.000003 0.000002 0.000000 0.000000 0.792825
    17 3.899463 -0.431804 -0.168225 0.000796 0.000000 0.000000
    18 1.506968 0.000000 0.000002 0.000000 0.000000 0.776659
    19 1.506961 0.000001 0.000000 0.000000 0.000000 0.689386
    20 3.915638 -0.278021 -1.402606 0.000796 0.000000 0.000000
    21 1.333084 -0.000001 -0.000002 0.000000 0.000000 0.637031
    22 1.159207 0.000001 0.000000 0.000000 0.000000 0.741752
    23 -53.532543 -21.570514 -11.885982 1.587597 -0.821365 -3.138241
  time 15
    0 0.134275 2.725324 -24.816700 0.000000 0.000000 -1.570795
    1 0.000000 0.000000 0.000002 -0.000086 -1.570451 -1.570709
    2 4.443614 -0.009642 0.000006 -0.000004 -0.000001 0.000796
    3 12.111412 -0.011446 0.000000 0.000000 0.000000 0.000000
    4 0.000011 0.011449 -1.352403 -0.000014 1.370796 3.140783
    5 6.078087 0.000000 0.000002 1.203984 -0.909993 -1.742747
    6 13.446754 -0.000005 0.000004 0.000000 0.000000 -0.296771
    7 15.997001 -0.000001 0.000003 0.485386 0.105932 -0.186528
    8 1.885332 0.833275 2.177876 0.509829 -0.723846 1.247710
    9 1.506964 0.000001 0.000000 0.000000 0.000000 -0.139626
    10 0.798349 0.000000 -0.000005 0.000000 0.000000 -0.113454
    11 3.950309 -0.539877 2.108872 0.076131 -0.137534 -0.502722
    12 1.545794 0.000002 0.000000 0.000000 0.000000 0.322897
    13 1.667400 -0.000008 0.000003 0.000000 0.000000 0.287985
    14 3.899462 -0.475375 1.170888 0.000748 0.000288 -0.383960
    15 1.528213 0.000001 0.000000 0.000000 0.000000 0.122175
    16 1.528224 -0.000003 0.000002 0.000000 0.000000 0.794122
    17 3.899463 -0.431804 -0.168225 0.000796 0.000000 0.000000
    18 1.506968 0.000000 0.000002 0.000000 0.000000 0.776659
    19 1.506961 0.000001 0.000000 0.000000 0.000000 0.689386
    20 3.915638 -0.278021 -1.402606 0.000796 0.000000 0.000000
    21 1.333084 -0.000001 -0.000002 0.000000 0.000000 0.637031
    22 1.159207 0.000001 0.000000 0.000000 0.000000 0.741752
    23 -53.384101 -23.660421 -11.292214 1.587597 -0.821365 -3.138241
end
